999
dxfrw 0.5.13
0
SECTION
2
HEADER
9
$ACADVER
1
AC1021
9
$HANDSEED
5
20000
9
$DWGCODEPAGE
3
ANSI_1252
9
$INSBASE
10
0.536784628129
20
52.0248924566
30
0
9
$EXTMIN
10
0.536784628129
20
52.0248924566
30
0
9
$EXTMAX
10
96.5367846281
20
100.024892457
30
0
9
$LIMMIN
10
0
20
0
9
$LIMMAX
10
12
20
9
9
$ORTHOMODE
70
0
9
$LTSCALE
40
1
9
$TEXTSTYLE
7
Standard
9
$CLAYER
8
0
9
$DIMASZ
40
0.18
9
$DIMLFAC
40
1
9
$DIMSCALE
40
1
9
$DIMEXO
40
0.0625
9
$DIMEXE
40
0.18
9
$DIMTXT
40
0.18
9
$DIMTSZ
40
0
9
$DIMAUNIT
70
0
9
$DIMADEC
70
0
9
$DIMLUNIT
70
2
9
$DIMSTYLE
2
Standard
9
$DIMGAP
40
0.09
9
$DIMTIH
70
1
9
$LUNITS
70
4
9
$LUPREC
70
8
9
$AUNITS
70
0
9
$AUPREC
70
0
9
$SPLINESEGS
70
8
9
$GRIDMODE
70
0
9
$SNAPSTYLE
70
0
9
$PINSBASE
10
0
20
0
30
0
9
$PLIMMIN
10
0
20
0
9
$PLIMMAX
10
12
20
9
9
$INSUNITS
70
1
9
$PSVPSCALE
40
0
0
ENDSEC
0
SECTION
2
CLASSES
0
ENDSEC
0
SECTION
2
TABLES
0
TABLE
2
VPORT
5
8
330
0
100
AcDbSymbolTable
70
1
0
VPORT
5
31
330
2
100
AcDbSymbolTableRecord
100
AcDbViewportTableRecord
2
*ACTIVE
70
0
10
0
20
0
11
1
21
1
12
42.1737290106
22
60.659984669
13
0
23
0
14
10
24
10
15
10
25
10
16
0
26
0
36
1
17
0
27
0
37
0
40
88.1073744263
41
2.07965860597
42
50
43
0
44
0
50
0
51
0
71
0
72
100
73
1
74
3
75
0
76
0
77
0
78
0
281
0
65
1
110
0
120
0
130
0
111
1
121
0
131
0
112
0
122
1
132
0
79
0
146
0
348
10020
60
7
61
5
292
1
282
1
141
0
142
0
63
250
421
3358443
0
ENDTAB
0
TABLE
2
LTYPE
5
5
330
0
100
AcDbSymbolTable
70
4
0
LTYPE
5
14
330
5
100
AcDbSymbolTableRecord
100
AcDbLinetypeTableRecord
2
ByBlock
70
0
3

72
65
73
0
40
0
0
LTYPE
5
15
330
5
100
AcDbSymbolTableRecord
100
AcDbLinetypeTableRecord
2
ByLayer
70
0
3

72
65
73
0
40
0
0
LTYPE
5
16
330
5
100
AcDbSymbolTableRecord
100
AcDbLinetypeTableRecord
2
Continuous
70
0
3
Solid line
72
65
73
0
40
0
0
LTYPE
5
32
330
5
100
AcDbSymbolTableRecord
100
AcDbLinetypeTableRecord
2
DOT
70
0
3
Dot . . . . . . . . . . . . . . . . . . . . . .
72
65
73
2
40
6.35
49
0
74
0
49
-6.35
74
0
0
LTYPE
5
33
330
5
100
AcDbSymbolTableRecord
100
AcDbLinetypeTableRecord
2
DOT2
70
0
3
Dot (.5x) .....................................
72
65
73
2
40
3.175
49
0
74
0
49
-3.175
74
0
0
LTYPE
5
34
330
5
100
AcDbSymbolTableRecord
100
AcDbLinetypeTableRecord
2
DOTX2
70
0
3
Dot (2x) .  .  .  .  .  .  .  .  .  .  .  .  .
72
65
73
2
40
12.7
49
0
74
0
49
-12.7
74
0
0
LTYPE
5
35
330
5
100
AcDbSymbolTableRecord
100
AcDbLinetypeTableRecord
2
DASHED
70
0
3
Dot . . . . . . . . . . . . . . . . . . . . . .
72
65
73
2
40
19.05
49
12.7
74
0
49
-6.35
74
0
0
LTYPE
5
36
330
5
100
AcDbSymbolTableRecord
100
AcDbLinetypeTableRecord
2
DASHED2
70
0
3
Dashed (.5x) _ _ _ _ _ _ _ _ _ _ _ _ _ _ _ _ _
72
65
73
2
40
9.525
49
6.35
74
0
49
-3.175
74
0
0
LTYPE
5
37
330
5
100
AcDbSymbolTableRecord
100
AcDbLinetypeTableRecord
2
DASHEDX2
70
0
3
Dashed (2x) ____  ____  ____  ____  ____  ___
72
65
73
2
40
38.1
49
25.4
74
0
49
-12.7
74
0
0
LTYPE
5
38
330
5
100
AcDbSymbolTableRecord
100
AcDbLinetypeTableRecord
2
DASHDOT
70
0
3
Dash dot __ . __ . __ . __ . __ . __ . __ . __
72
65
73
4
40
25.4
49
12.7
74
0
49
-6.35
74
0
49
0
74
0
49
-6.35
74
0
0
LTYPE
5
39
330
5
100
AcDbSymbolTableRecord
100
AcDbLinetypeTableRecord
2
DASHDOT2
70
0
3
Dash dot (.5x) _._._._._._._._._._._._._._._.
72
65
73
4
40
12.7
49
6.35
74
0
49
-3.175
74
0
49
0
74
0
49
-3.175
74
0
0
LTYPE
5
3A
330
5
100
AcDbSymbolTableRecord
100
AcDbLinetypeTableRecord
2
DASHDOTX2
70
0
3
Dash dot (2x) ____  .  ____  .  ____  .  ___
72
65
73
4
40
50.8
49
25.4
74
0
49
-12.7
74
0
49
0
74
0
49
-12.7
74
0
0
LTYPE
5
3B
330
5
100
AcDbSymbolTableRecord
100
AcDbLinetypeTableRecord
2
DIVIDE
70
0
3
Divide ____ . . ____ . . ____ . . ____ . . ____
72
65
73
6
40
31.75
49
12.7
74
0
49
-6.35
74
0
49
0
74
0
49
-6.35
74
0
49
0
74
0
49
-6.35
74
0
0
LTYPE
5
3C
330
5
100
AcDbSymbolTableRecord
100
AcDbLinetypeTableRecord
2
DIVIDE2
70
0
3
Divide (.5x) __..__..__..__..__..__..__..__.._
72
65
73
6
40
15.875
49
6.35
74
0
49
-3.175
74
0
49
0
74
0
49
-3.175
74
0
49
0
74
0
49
-3.175
74
0
0
LTYPE
5
3D
330
5
100
AcDbSymbolTableRecord
100
AcDbLinetypeTableRecord
2
DIVIDEX2
70
0
3
Divide (2x) ________  .  .  ________  .  .  _
72
65
73
6
40
63.5
49
25.4
74
0
49
-12.7
74
0
49
0
74
0
49
-12.7
74
0
49
0
74
0
49
-12.7
74
0
0
LTYPE
5
3E
330
5
100
AcDbSymbolTableRecord
100
AcDbLinetypeTableRecord
2
BORDER
70
0
3
Border __ __ . __ __ . __ __ . __ __ . __ __ .
72
65
73
6
40
44.45
49
12.7
74
0
49
-6.35
74
0
49
12.7
74
0
49
-6.35
74
0
49
0
74
0
49
-6.35
74
0
0
LTYPE
5
3F
330
5
100
AcDbSymbolTableRecord
100
AcDbLinetypeTableRecord
2
BORDER2
70
0
3
Border (.5x) __.__.__.__.__.__.__.__.__.__.__.
72
65
73
6
40
22.225
49
6.35
74
0
49
-3.175
74
0
49
6.35
74
0
49
-3.175
74
0
49
0
74
0
49
-3.175
74
0
0
LTYPE
5
40
330
5
100
AcDbSymbolTableRecord
100
AcDbLinetypeTableRecord
2
BORDERX2
70
0
3
Border (2x) ____  ____  .  ____  ____  .  ___
72
65
73
6
40
88.9
49
25.4
74
0
49
-12.7
74
0
49
25.4
74
0
49
-12.7
74
0
49
0
74
0
49
-12.7
74
0
0
LTYPE
5
41
330
5
100
AcDbSymbolTableRecord
100
AcDbLinetypeTableRecord
2
CENTER
70
0
3
Center ____ _ ____ _ ____ _ ____ _ ____ _ ____
72
65
73
4
40
50.8
49
31.75
74
0
49
-6.35
74
0
49
6.35
74
0
49
-6.35
74
0
0
LTYPE
5
42
330
5
100
AcDbSymbolTableRecord
100
AcDbLinetypeTableRecord
2
CENTER2
70
0
3
Center (.5x) ___ _ ___ _ ___ _ ___ _ ___ _ ___
72
65
73
4
40
28.575
49
19.05
74
0
49
-3.175
74
0
49
3.175
74
0
49
-3.175
74
0
0
LTYPE
5
43
330
5
100
AcDbSymbolTableRecord
100
AcDbLinetypeTableRecord
2
CENTERX2
70
0
3
Center (2x) ________  __  ________  __  _____
72
65
73
4
40
101.6
49
63.5
74
0
49
-12.7
74
0
49
12.7
74
0
49
-12.7
74
0
0
ENDTAB
0
TABLE
2
LAYER
5
2
330
0
100
AcDbSymbolTable
70
1
0
LAYER
5
10
330
2
100
AcDbSymbolTableRecord
100
AcDbLayerTableRecord
2
0
70
0
62
256
6
CONTINUOUS
370
-3
390
F
0
LAYER
5
44
330
2
100
AcDbSymbolTableRecord
100
AcDbLayerTableRecord
2
000_NOTES
70
0
62
6
6
CONTINUOUS
370
-3
390
F
0
LAYER
5
45
330
2
100
AcDbSymbolTableRecord
100
AcDbLayerTableRecord
2
CUT_HOLE
70
0
62
1
6
CONTINUOUS
370
-3
390
F
0
LAYER
5
46
330
2
100
AcDbSymbolTableRecord
100
AcDbLayerTableRecord
2
CUT_THRU
70
0
62
7
6
CONTINUOUS
370
-3
390
F
0
ENDTAB
0
TABLE
2
STYLE
5
3
330
0
100
AcDbSymbolTable
70
3
0
STYLE
5
47
330
2
100
AcDbSymbolTableRecord
100
AcDbTextStyleTableRecord
2
Standard
70
0
40
0
41
1
50
0
71
0
42
1
3
txt
4

0
ENDTAB
0
TABLE
2
VIEW
5
6
330
0
100
AcDbSymbolTable
70
0
0
ENDTAB
0
TABLE
2
UCS
5
7
330
0
100
AcDbSymbolTable
70
0
0
ENDTAB
0
TABLE
2
APPID
5
9
330
0
100
AcDbSymbolTable
70
1
0
APPID
5
12
330
9
100
AcDbSymbolTableRecord
100
AcDbRegAppTableRecord
2
ACAD
70
0
0
APPID
5
48
330
9
100
AcDbSymbolTableRecord
100
AcDbRegAppTableRecord
2
LibreCad
70
0
0
ENDTAB
0
TABLE
2
DIMSTYLE
5
A
330
0
100
AcDbSymbolTable
70
1
100
AcDbDimStyleTable
71
1
0
DIMSTYLE
105
49
330
A
100
AcDbSymbolTableRecord
100
AcDbDimStyleTableRecord
2
Standard
70
0
40
1
41
0.18
42
0.0625
43
0.38
44
0.18
45
0
46
0
47
0
48
0
140
0.18
141
0.09
142
0
143
25.4
144
1
145
0
146
1
147
0.09
148
0
71
0
72
0
73
0
74
1
75
0
76
0
77
0
78
0
79
0
170
0
171
2
172
0
173
0
174
0
175
0
176
0
177
0
178
0
179
0
271
4
272
4
273
2
274
2
275
0
276
0
277
2
278
46
279
0
280
0
281
0
282
0
283
1
284
0
285
0
286
0
288
0
289
3
340
Standard
341

371
-2
372
-2
0
ENDTAB
0
TABLE
2
BLOCK_RECORD
5
1
330
0
100
AcDbSymbolTable
70
2
0
BLOCK_RECORD
5
1F
330
1
100
AcDbSymbolTableRecord
100
AcDbBlockTableRecord
2
*Model_Space
70
0
280
1
281
0
0
BLOCK_RECORD
5
1E
330
1
100
AcDbSymbolTableRecord
100
AcDbBlockTableRecord
2
*Paper_Space
70
0
280
1
281
0
0
BLOCK_RECORD
5
4A
330
1
100
AcDbSymbolTableRecord
100
AcDbBlockTableRecord
2
FASTENER
70
0
280
1
281
0
0
ENDTAB
0
ENDSEC
0
SECTION
2
BLOCKS
0
BLOCK
5
20
330
1F
100
AcDbEntity
8
0
100
AcDbBlockBegin
2
*Model_Space
70
0
10
0
20
0
30
0
3
*Model_Space
1

0
ENDBLK
5
21
330
1F
100
AcDbEntity
8
0
100
AcDbBlockEnd
0
BLOCK
5
1C
330
1B
100
AcDbEntity
8
0
100
AcDbBlockBegin
2
*Paper_Space
70
0
10
0
20
0
30
0
3
*Paper_Space
1

0
ENDBLK
5
1D
330
1F
100
AcDbEntity
8
0
100
AcDbBlockEnd
0
BLOCK
5
4B
330
4A
100
AcDbEntity
8
0
100
AcDbBlockBegin
2
FASTENER
70
0
10
0
20
0
3
FASTENER
1

0
POINT
5
4D
100
AcDbEntity
8
0
6
ByLayer
62
256
370
-1
100
AcDbPoint
10
0
20
0
0
CIRCLE
5
4E
100
AcDbEntity
8
0
6
ByLayer
62
256
370
-1
100
AcDbCircle
10
0
20
0
40
0.125
0
ENDBLK
5
4C
330
4A
100
AcDbEntity
8
0
100
AcDbBlockEnd
0
ENDSEC
0
SECTION
2
ENTITIES
0
LWPOLYLINE
5
4F
100
AcDbEntity
8
CUT_THRU
6
ByLayer
62
256
370
-1
100
AcDbPolyline
90
19
70
1
43
0
10
19.8055182216
20
98.2323135093
10
19.8055182216
20
97.3365240356
42
-1
10
19.4939392742
20
97.3365240356
42
0.414213562373
10
19.3381498005
20
97.4923135093
10
17.6350557689
20
97.4923135093
10
17.6350557689
20
95.6821142145
10
8.44082927682
20
94.3406946474
10
8.44082927681
20
92.1702321948
10
22.5774002413
20
92.1702321948
10
22.5774002413
20
95.3023773724
10
20.2728866426
20
95.3023773724
42
0.414213562373
10
20.1170971689
20
95.1465878988
42
-1
10
19.8055182215
20
95.1465878988
10
19.8055182215
20
96.1981668461
42
-1
10
20.1170971689
20
96.1981668461
42
0.414213562373
10
20.2728866426
20
96.0423773724
10
23.3174002413
20
96.0423773724
10
23.3174002413
20
98.2323135093
10
19.8055182216
20
98.2323135093
0
LWPOLYLINE
5
50
100
AcDbEntity
8
CUT_THRU
6
ByLayer
62
256
370
-1
100
AcDbPolyline
90
19
70
1
43
0
10
2.75848480445
20
98.4270503514
10
2.75848480445
20
95.2949051738
10
5.06299840314
20
95.2949051738
42
0.414213562373
10
5.21878787682
20
95.4506946474
42
-1
10
5.53036682419
20
95.4506946474
10
5.53036682419
20
94.3991157001
42
-1
10
5.21878787682
20
94.3991157001
42
0.414213562373
10
5.06299840314
20
94.5549051738
10
2.01848480445
20
94.5549051738
10
2.01848480445
20
92.3649690369
10
5.53036682419
20
92.3649690369
10
5.53036682419
20
93.2607585106
42
-1
10
5.84194577156
20
93.2607585106
42
0.414213562373
10
5.99773524524
20
93.1049690369
10
7.70082927681
20
93.1049690369
10
7.70082927682
20
94.9151683317
10
16.8950557689
20
96.2565878988
10
16.8950557689
20
98.4270503514
10
2.75848480445
20
98.4270503514
0
LWPOLYLINE
5
51
100
AcDbEntity
8
CUT_THRU
6
ByLayer
62
256
370
-1
100
AcDbPolyline
90
19
70
1
43
0
10
2.75848480445
20
91.4302321948
10
2.75848480445
20
88.2980870172
10
5.06299840314
20
88.2980870172
42
0.414213562373
10
5.21878787682
20
88.4538764909
42
-1
10
5.53036682419
20
88.4538764909
10
5.53036682419
20
87.4022975435
42
-1
10
5.21878787682
20
87.4022975435
42
0.414213562373
10
5.06299840314
20
87.5580870172
10
2.01848480445
20
87.5580870172
10
2.01848480445
20
85.3681508803
10
5.53036682419
20
85.3681508803
10
5.53036682419
20
86.263940354
42
-1
10
5.84194577156
20
86.263940354
42
0.414213562373
10
5.99773524524
20
86.1081508803
10
7.70082927681
20
86.1081508803
10
7.70082927682
20
87.9183501751
10
16.8950557689
20
89.2597697422
10
16.8950557689
20
91.4302321948
10
2.75848480445
20
91.4302321948
0
LWPOLYLINE
5
52
100
AcDbEntity
8
CUT_THRU
6
ByLayer
62
256
370
-1
100
AcDbPolyline
90
19
70
1
43
0
10
8.44082927681
20
84.4334140382
10
8.44082927681
20
80.9215320185
10
17.6350557689
20
78.7510695659
10
17.6350557689
20
75.9791875461
10
19.3381498005
20
75.9791875461
42
0.414213562373
10
19.4939392742
20
76.1349770198
42
-1
10
19.8055182215
20
76.1349770198
10
19.8055182215
20
75.2391875461
10
23.3174002413
20
75.2391875461
10
23.3174002413
20
80.9215320185
10
22.4216107676
20
80.9215320185
42
-1
10
22.4216107676
20
81.2331109659
42
0.414213562373
10
22.5774002413
20
81.3889004395
10
22.5774002413
20
83.6934140382
10
20.2728866426
20
83.6934140382
42
0.414213562373
10
20.1170971689
20
83.5376245645
42
-1
10
19.8055182215
20
83.5376245645
10
19.8055182215
20
84.4334140382
10
8.44082927681
20
84.4334140382
0
LWPOLYLINE
5
53
100
AcDbEntity
8
CUT_THRU
6
ByLayer
62
256
370
-1
100
AcDbPolyline
90
19
70
1
43
0
10
7.70082927681
20
80.1815320185
10
7.70082927681
20
82.9534140382
10
5.99773524524
20
82.9534140382
42
0.414213562373
10
5.84194577155
20
82.7976245645
42
-1
10
5.53036682418
20
82.7976245645
10
5.53036682418
20
83.6934140382
10
2.01848480444
20
83.6934140382
10
2.01848480444
20
78.0110695659
10
2.91427427813
20
78.0110695659
42
-1
10
2.91427427813
20
77.6994906185
42
0.414213562373
10
2.75848480444
20
77.5437011448
10
2.75848480444
20
75.2391875461
10
5.06299840313
20
75.2391875461
42
0.414213562373
10
5.21878787681
20
75.3949770198
42
-1
10
5.53036682418
20
75.3949770198
10
5.53036682418
20
74.4991875461
10
16.8950557689
20
74.4991875461
10
16.8950557689
20
78.0110695659
10
7.70082927681
20
80.1815320185
0
LWPOLYLINE
5
54
100
AcDbEntity
8
CUT_THRU
6
ByLayer
62
256
370
-1
100
AcDbPolyline
90
19
70
1
43
0
10
8.44082927681
20
73.7591875461
10
8.44082927681
20
70.2473055264
10
17.6350557689
20
68.0768430738
10
17.6350557689
20
65.304961054
10
19.3381498005
20
65.304961054
42
0.414213562373
10
19.4939392742
20
65.4607505277
42
-1
10
19.8055182215
20
65.4607505277
10
19.8055182215
20
64.564961054
10
23.3174002413
20
64.564961054
10
23.3174002413
20
70.2473055264
10
22.4216107676
20
70.2473055264
42
-1
10
22.4216107676
20
70.5588844738
42
0.414213562373
10
22.5774002413
20
70.7146739474
10
22.5774002413
20
73.0191875461
10
20.2728866426
20
73.0191875461
42
0.414213562373
10
20.1170971689
20
72.8633980724
42
-1
10
19.8055182215
20
72.8633980724
10
19.8055182215
20
73.7591875461
10
8.44082927681
20
73.7591875461
0
LWPOLYLINE
5
55
100
AcDbEntity
8
CUT_THRU
6
ByLayer
62
256
370
-1
100
AcDbPolyline
90
19
70
1
43
0
10
7.70082927681
20
69.5073055264
10
7.70082927681
20
72.2791875461
10
5.99773524524
20
72.2791875461
42
0.414213562373
10
5.84194577155
20
72.1233980724
42
-1
10
5.53036682418
20
72.1233980724
10
5.53036682418
20
73.0191875461
10
2.01848480444
20
73.0191875461
10
2.01848480444
20
67.3368430738
10
2.91427427813
20
67.3368430738
42
-1
10
2.91427427813
20
67.0252641264
42
0.414213562373
10
2.75848480444
20
66.8694746527
10
2.75848480444
20
64.564961054
10
5.06299840313
20
64.564961054
42
0.414213562373
10
5.21878787681
20
64.7207505277
42
-1
10
5.53036682418
20
64.7207505277
10
5.53036682418
20
63.824961054
10
16.8950557689
20
63.824961054
10
16.8950557689
20
67.3368430738
10
7.70082927681
20
69.5073055264
0
INSERT
5
56
100
AcDbEntity
8
CUT_HOLE
6
ByLayer
62
256
370
-1
100
AcDbBlockReference
2
FASTENER
10
5.52062998212
20
55.4568071507
30
0
41
1
42
1
43
0
50
90
70
1
71
1
44
0
45
0
0
INSERT
5
57
100
AcDbEntity
8
CUT_HOLE
6
ByLayer
62
256
370
-1
100
AcDbBlockReference
2
FASTENER
10
3.58455739326
20
59.5828158763
30
0
41
1
42
1
43
0
50
90
70
1
71
1
44
0
45
0
0
INSERT
5
58
100
AcDbEntity
8
CUT_HOLE
6
ByLayer
62
256
370
-1
100
AcDbBlockReference
2
FASTENER
10
7.71056611887
20
61.5188884652
30
0
41
1
42
1
43
0
50
90
70
1
71
1
44
0
45
0
0
INSERT
5
59
100
AcDbEntity
8
CUT_HOLE
6
ByLayer
62
256
370
-1
100
AcDbBlockReference
2
FASTENER
10
9.64663870773
20
57.3928797396
30
0
41
1
42
1
43
0
50
90
70
1
71
1
44
0
45
0
0
INSERT
5
5A
100
AcDbEntity
8
CUT_HOLE
6
ByLayer
62
256
370
-1
100
AcDbBlockReference
2
FASTENER
10
6.84928414974
20
64.1949610541
30
0
41
1
42
1
43
0
50
90
70
1
71
1
44
0
45
0
0
INSERT
5
5B
100
AcDbEntity
8
CUT_HOLE
6
ByLayer
62
256
370
-1
100
AcDbBlockReference
2
FASTENER
10
2.38848669309
20
70.4116995205
30
0
41
1
42
1
43
0
50
90
70
1
71
1
44
0
45
0
0
INSERT
5
5C
100
AcDbEntity
8
CUT_HOLE
6
ByLayer
62
256
370
-1
100
AcDbBlockReference
2
FASTENER
10
3.91074349244
20
72.6491875461
30
0
41
1
42
1
43
0
50
90
70
1
71
1
44
0
45
0
0
INSERT
5
5D
100
AcDbEntity
8
CUT_HOLE
6
ByLayer
62
256
370
-1
100
AcDbBlockReference
2
FASTENER
10
6.84928414974
20
74.8691875462
30
0
41
1
42
1
43
0
50
90
70
1
71
1
44
0
45
0
0
INSERT
5
5E
100
AcDbEntity
8
CUT_HOLE
6
ByLayer
62
256
370
-1
100
AcDbBlockReference
2
FASTENER
10
6.84928414974
20
94.9249051737
30
0
41
1
42
1
43
0
50
90
70
1
71
1
44
0
45
0
0
INSERT
5
5F
100
AcDbEntity
8
CUT_HOLE
6
ByLayer
62
256
370
-1
100
AcDbBlockReference
2
FASTENER
10
6.84928414974
20
87.9280870171
30
0
41
1
42
1
43
0
50
90
70
1
71
1
44
0
45
0
0
INSERT
5
60
100
AcDbEntity
8
CUT_HOLE
6
ByLayer
62
256
370
-1
100
AcDbBlockReference
2
FASTENER
10
3.91074349244
20
83.3234140382
30
0
41
1
42
1
43
0
50
90
70
1
71
1
44
0
45
0
0
INSERT
5
61
100
AcDbEntity
8
CUT_HOLE
6
ByLayer
62
256
370
-1
100
AcDbBlockReference
2
FASTENER
10
2.38848669309
20
81.0859260126
30
0
41
1
42
1
43
0
50
90
70
1
71
1
44
0
45
0
0
INSERT
5
62
100
AcDbEntity
8
CUT_HOLE
6
ByLayer
62
256
370
-1
100
AcDbBlockReference
2
FASTENER
10
18.486600896
20
95.6723773725
30
0
41
1
42
1
43
0
50
90
70
1
71
1
44
0
45
0
0
INSERT
5
63
100
AcDbEntity
8
CUT_HOLE
6
ByLayer
62
256
370
-1
100
AcDbBlockReference
2
FASTENER
10
18.486600896
20
88.6755592159
30
0
41
1
42
1
43
0
50
90
70
1
71
1
44
0
45
0
0
INSERT
5
64
100
AcDbEntity
8
CUT_HOLE
6
ByLayer
62
256
370
-1
100
AcDbBlockReference
2
FASTENER
10
18.486600896
20
73.3891875461
30
0
41
1
42
1
43
0
50
90
70
1
71
1
44
0
45
0
0
INSERT
5
65
100
AcDbEntity
8
CUT_HOLE
6
ByLayer
62
256
370
-1
100
AcDbBlockReference
2
FASTENER
10
21.4251415533
20
75.6091875462
30
0
41
1
42
1
43
0
50
90
70
1
71
1
44
0
45
0
0
INSERT
5
66
100
AcDbEntity
8
CUT_HOLE
6
ByLayer
62
256
370
-1
100
AcDbBlockReference
2
FASTENER
10
22.9473983526
20
77.8466755717
30
0
41
1
42
1
43
0
50
90
70
1
71
1
44
0
45
0
0
INSERT
5
67
100
AcDbEntity
8
CUT_HOLE
6
ByLayer
62
256
370
-1
100
AcDbBlockReference
2
FASTENER
10
18.486600896
20
84.0634140382
30
0
41
1
42
1
43
0
50
90
70
1
71
1
44
0
45
0
0
INSERT
5
68
100
AcDbEntity
8
CUT_HOLE
6
ByLayer
62
256
370
-1
100
AcDbBlockReference
2
FASTENER
10
22.9473983526
20
67.1724490796
30
0
41
1
42
1
43
0
50
90
70
1
71
1
44
0
45
0
0
INSERT
5
69
100
AcDbEntity
8
CUT_HOLE
6
ByLayer
62
256
370
-1
100
AcDbBlockReference
2
FASTENER
10
21.4251415533
20
64.9349610541
30
0
41
1
42
1
43
0
50
90
70
1
71
1
44
0
45
0
0
INSERT
5
6A
100
AcDbEntity
8
CUT_HOLE
6
ByLayer
62
256
370
-1
100
AcDbBlockReference
2
FASTENER
10
16.2491147591
20
55.000734562
30
0
41
1
42
1
43
0
50
90
70
1
71
1
44
0
45
0
0
LWPOLYLINE
5
6B
100
AcDbEntity
8
000_NOTES
6
ByLayer
62
256
370
-1
100
AcDbPolyline
90
4
70
1
43
0
10
0.536784628129
20
52.0248924566
10
96.5367846281
20
52.0248924566
10
96.5367846281
20
100.024892457
10
0.536784628129
20
100.024892457
0
LWPOLYLINE
5
6C
100
AcDbEntity
8
CUT_THRU
6
ByLayer
62
256
370
-1
100
AcDbPolyline
90
20
70
1
43
0
10
22.5774002412
20
63.824961054
10
19.8055182215
20
63.824961054
10
19.8055182215
20
62.9291715803
42
-1
10
19.4939392742
20
62.9291715803
42
0.414213562373
10
19.3381498005
20
63.0849610539
10
14.1231737492
20
63.0849610539
10
14.1231737492
20
60.3130790343
10
15.0189632229
20
60.3130790343
42
-1
10
15.0189632229
20
60.0015000869
42
0.414213562373
10
14.8631737493
20
59.8457106132
10
14.8631737493
20
54.6307345619
10
17.6350557689
20
54.6307345619
10
17.6350557689
20
55.5265240357
42
-1
10
17.9466347163
20
55.5265240357
42
0.414213562373
10
18.10242419
20
55.370734562
10
23.3174002413
20
55.370734562
10
23.3174002413
20
58.1426165817
10
22.4216107675
20
58.1426165817
42
-1
10
22.4216107675
20
58.454195529
42
0.414213562373
10
22.5774002412
20
58.6099850027
0
LWPOLYLINE
5
6D
100
AcDbEntity
8
CUT_THRU
6
ByLayer
62
256
370
-1
100
AcDbPolyline
90
4
70
1
43
0
10
2.01848480444
20
63.084961054
10
11.2127112965
20
63.084961054
10
11.2127112965
20
53.8907345619
10
2.01848480444
20
53.8907345619
0
LWPOLYLINE
5
6E
100
AcDbEntity
8
CUT_THRU
6
ByLayer
62
256
370
-1
100
AcDbPolyline
90
4
70
1
43
0
10
17.6350557689
20
58.1426165817
10
19.8055182215
20
58.1426165817
10
19.8055182215
20
60.3130790343
10
17.6350557689
20
60.3130790343
0
LWPOLYLINE
5
6F
100
AcDbEntity
8
CUT_THRU
6
ByLayer
62
256
370
-1
100
AcDbPolyline
90
13
70
1
43
0
10
8.08056611891
20
60.1086053501
42
1
10
7.76898717154
20
60.1086053501
42
-0.414213562373
10
7.61319769786
20
59.9528158764
10
4.99484050839
20
59.9528158764
42
1
10
4.99484050839
20
59.641236929
42
-0.414213562373
10
5.15062998208
20
59.4854474553
10
5.15062998208
20
56.8670902659
42
1
10
5.46220892944
20
56.8670902659
42
-0.414213562373
10
5.61799840313
20
57.0228797395
10
8.2363555926
20
57.0228797395
42
1
10
8.2363555926
20
57.3344586869
42
-0.414213562373
10
8.08056611891
20
57.4902481606
10
8.08056611891
20
60.1086053501
42
1.63317787284e+016
0
LWPOLYLINE
5
70
100
AcDbEntity
8
CUT_THRU
6
ByLayer
62
256
370
-1
100
AcDbPolyline
90
19
70
1
43
0
10
19.8055182216
20
91.2354953527
10
19.8055182216
20
90.339705879
42
-1
10
19.4939392742
20
90.339705879
42
0.414213562373
10
19.3381498005
20
90.4954953527
10
17.6350557689
20
90.4954953527
10
17.6350557689
20
88.685296058
10
8.44082927682
20
87.3438764909
10
8.44082927681
20
85.1734140382
10
22.5774002413
20
85.1734140382
10
22.5774002413
20
88.3055592159
10
20.2728866426
20
88.3055592159
42
0.414213562373
10
20.1170971689
20
88.1497697422
42
-1
10
19.8055182215
20
88.1497697422
10
19.8055182215
20
89.2013486895
42
-1
10
20.1170971689
20
89.2013486895
42
0.414213562373
10
20.2728866426
20
89.0455592159
10
23.3174002413
20
89.0455592159
10
23.3174002413
20
91.2354953527
10
19.8055182216
20
91.2354953527
0
INSERT
5
71
100
AcDbEntity
8
CUT_HOLE
6
ByLayer
62
256
370
-1
100
AcDbBlockReference
2
FASTENER
10
22.9474002412
20
56.7566755718
30
0
41
1
42
1
43
0
50
180
70
1
71
1
44
0
45
0
0
INSERT
5
72
100
AcDbEntity
8
CUT_HOLE
6
ByLayer
62
256
370
-1
100
AcDbBlockReference
2
FASTENER
10
14.4931737492
20
61.6990200441
30
0
41
1
42
1
43
0
50
0
70
1
71
1
44
0
45
0
0
INSERT
5
73
100
AcDbEntity
8
CUT_HOLE
6
ByLayer
62
256
370
-1
100
AcDbBlockReference
2
FASTENER
10
21.1914592314
20
63.454961054
30
0
41
1
42
1
43
0
50
270
70
1
71
1
44
0
45
0
0
ENDSEC
0
SECTION
2
OBJECTS
0
DICTIONARY
5
C
330
0
100
AcDbDictionary
281
1
3
ACAD_GROUP
350
D
0
DICTIONARY
5
D
330
C
100
AcDbDictionary
281
1
0
ENDSEC
0
EOF
