  0
SECTION
  2
HEADER
  9
$ACADVER
  1
AC1006
  9
$INSBASE
 10
0.0
 20
0.0
 30
0.0
  9
$EXTMAX
 10
996.49598
 20
86.99968
  9
$EXTMIN
 10
600.49598
 20
36.99967
  9
$LIMMAX
 10
12.0
 20
9.0
  9
$LIMMIN
 10
0.0
 20
0.0
  9
$ORTHOMODE
 70
0
  9
$REGENMODE
 70
1
  9
$FILLMODE
 70
1
  9
$QTEXTMODE
 70
0
  9
$MIRRTEXT
 70
1
  9
$DRAGMODE
 70
2
  9
$LTSCALE
 40
1.0
  9
$OSMODE
 70
0
  9
$ATTMODE
 70
1
  9
$TEXTSIZE
 40
0.2
  9
$TRACEWID
 40
0.05
  9
$TEXTSTYLE
  7
STANDARD
  9
$CLAYER
  8
0
  9
$CELTYPE
  6
CONTINUOUS
  9
$CECOLOR
 62
256
  9
$DIMSCALE
 40
1.0
  9
$DIMASZ
 40
0.18
  9
$DIMEXO
 40
0.0625
  9
$DIMDLI
 40
0.38
  9
$DIMRND
 40
0.0
  9
$DIMDLE
 40
0.0
  9
$DIMEXE
 40
0.18
  9
$DIMTP
 40
0.0
  9
$DIMTM
 40
0.0
  9
$DIMTXT
 40
0.18
  9
$DIMCEN
 40
0.09
  9
$DIMTSZ
 40
0.0
  9
$DIMTOL
 70
0
  9
$DIMLIM
 70
0
  9
$DIMTIH
 70
1
  9
$DIMTOH
 70
1
  9
$DIMSE1
 70
0
  9
$DIMSE2
 70
0
  9
$DIMTAD
 70
0
  9
$DIMZIN
 70
0
  9
$DIMBLK
  1

  9
$DIMASO
 70
1
  9
$DIMSHO
 70
1
  9
$DIMPOST
  1

  9
$DIMAPOST
  1

  9
$DIMALT
 70
0
  9
$DIMALTD
 70
2
  9
$DIMALTF
 40
25.4
  9
$DIMLFAC
 40
1.0
  9
$DIMTOFL
 70
0
  9
$DIMTVP
 40
0.0
  9
$DIMTIX
 70
0
  9
$DIMSOXD
 70
0
  9
$DIMSAH
 70
0
  9
$DIMBLK1
  1

  9
$DIMBLK2
  1

  9
$LUNITS
 70
2
  9
$LUPREC
 70
4
  9
$AXISMODE
 70
0
  9
$AXISUNIT
 10
0.0
 20
0.0
  9
$SKETCHINC
 40
0.1
  9
$FILLETRAD
 40
0.0
  9
$AUNITS
 70
0
  9
$AUPREC
 70
0
  9
$MENU
  1
acad
  9
$ELEVATION
 40
0.0
  9
$THICKNESS
 40
0.0
  9
$LIMCHECK
 70
0
  9
$BLIPMODE
 70
1
  9
$CHAMFERA
 40
0.0
  9
$CHAMFERB
 40
0.0
  9
$SKPOLY
 70
0
  9
$TDCREATE
 40
0.0
  9
$TDUPDATE
 40
0.0
  9
$TDINDWG
 40
0.0
  9
$TDUSRTIMER
 40
0.0
  9
$USRTIMER
 70
1
  9
$ANGBASE
 50
0.0
  9
$ANGDIR
 70
0
  9
$PDMODE
 70
0
  9
$PDSIZE
 40
0.0
  9
$PLINEWID
 40
0.0
  9
$COORDS
 70
0
  9
$SPLFRAME
 70
0
  9
$SPLINETYPE
 70
6
  9
$SPLINESEGS
 70
10
  9
$ATTDIA
 70
0
  9
$ATTREQ
 70
1
  9
$HANDLING
 70
1
  9
$HANDSEED
  5
134
  9
$SURFTAB1
 70
6
  9
$SURFTAB2
 70
6
  9
$SURFTYPE
 70
6
  9
$SURFU
 70
10
  9
$SURFV
 70
10
  9
$FLATLAND
 70
0
  9
$UCSNAME
  2

  9
$UCSORG
 10
0.0
 20
0.0
 30
0.0
  9
$UCSXDIR
 10
1.0
 20
0.0
 30
0.0
  9
$UCSYDIR
 10
0.0
 20
1.0
 30
0.0
  9
$USERI1
 70
0
  9
$USERI2
 70
0
  9
$USERI3
 70
0
  9
$USERI4
 70
0
  9
$USERI5
 70
0
  9
$USERR1
 40
0.0
  9
$USERR2
 40
0.0
  9
$USERR3
 40
0.0
  9
$USERR4
 40
0.0
  9
$USERR5
 40
0.0
  9
$WORLDVIEW
 70
1
  0
ENDSEC
  0
SECTION
  2
TABLES
  0
TABLE
  2
LTYPE
 70
7
  0
LTYPE
  2
CONTINUOUS
 70
64
  3
Solid line
 72
65
 73
0
 40
0.0
  0
LTYPE
  2
DOT
 70
64
  3
. . . . . . . . . . . . . . . . . . . . . . . . . . . . . . . . .
 72
65
 73
2
 40
0.25
 49
0.0
 49
-0.25
  0
LTYPE
  2
HIDDEN
 70
64
  3
__ __ __ __ __ __ __ __ __ __ __ __ __ __ __ __ __ __ __ __ __ 
 72
65
 73
2
 40
0.375
 49
0.25
 49
-0.125
  0
LTYPE
  2
DASHED
 70
64
  3
__ __ __ __ __ __ __ __ __ __ __ __ __ __ __ __ __ __ __ __ __
 72
65
 73
2
 40
0.75
 49
0.5
 49
-0.25
  0
LTYPE
  2
DASHDOT
 70
64
  3
__ . __ . __ . __ . __ . __ . __ . __ . __ . __ . __ . __ . _
 72
65
 73
4
 40
1.0
 49
0.5
 49
-0.25
 49
0.0
 49
-0.25
  0
LTYPE
  2
DIVIDE
 70
64
  3
____ . . ____ . . ____ . . ____ . . ____ . . ____ . . ____ . .
 72
65
 73
6
 40
1.25
 49
0.5
 49
-0.25
 49
0.0
 49
-0.25
 49
0.0
 49
-0.25
  0
LTYPE
  2
CENTER
 70
64
  3
____ _ ____ _ ____ _ ____ _ ____ _ ____ _ ____ _ ____ _ ____ _
 72
65
 73
4
 40
2.0
 49
1.25
 49
-0.25
 49
0.25
 49
-0.25
  0
ENDTAB
  0
TABLE
  2
LAYER
 70
4
  0
LAYER
  2
0
 70
0
 62
7
  6
CONTINUOUS
  0
LAYER
  2
CONSTRUCTION_CLASS
 70
0
 62
7
  6
CONTINUOUS
  0
LAYER
  2
PATTERN_CLASS
 70
0
 62
7
  6
CONTINUOUS
  0
LAYER
  2
1
 70
0
 62
7
  6
CONTINUOUS
  0
ENDTAB
  0
TABLE
  2
STYLE
 70
1
  0
STYLE
  2
STANDARD
 70
0
 40
0.2
 41
1.0
 50
0.0
 71
0
 42
0.0
  3
txt
  4

  0
ENDTAB
  0
TABLE
  2
UCS
 70
0
  0
ENDTAB
  0
TABLE
  2
VIEW
 70
0
  0
ENDTAB
  0
TABLE
  2
VPORT
 70
1
  0
VPORT
  2
*ACTIVE
 70
0
 10
0.0
 20
0.0
 11
1.0
 21
1.0
 12
0.0
 22
0.0
 13
0.0
 23
0.0
 14
0.0
 24
0.0
 15
0.0
 25
0.0
 16
0.0
 26
0.0
 36
1.0
 17
778.195694
 27
22.648965
 37
0.0
 40
269.24699
 41
1.356745
 42
50.0
 43
0.00004
 44
0.0
 50
0.0
 51
0.0
 71
0
 72
100
 73
1
 74
0
 75
0
 76
0
 77
0
 78
0
  0
ENDTAB
  0
ENDSEC
  0
SECTION
  2
BLOCKS
  0
ENDSEC
  0
SECTION
  2
ENTITIES
  0
POLYLINE
  8
1
  5
3
  6
CONTINUOUS
 62
7
 10
0.0
 20
0.0
 30
0.0
 66
1
 70
0
  0
VERTEX
  8
1
  5
4
  6
CONTINUOUS
 62
7
 10
765.495973
 20
86.99968
 30
0.0
 42
0.074209
  0
VERTEX
  8
1
  5
5
  6
CONTINUOUS
 62
7
 10
765.852489
 20
84.540777
 30
0.0
 42
0.067603
  0
VERTEX
  8
1
  5
6
  6
CONTINUOUS
 62
7
 10
766.937967
 20
82.17202
 30
0.0
 42
0.058009
  0
VERTEX
  8
1
  5
7
  6
CONTINUOUS
 62
7
 10
768.710635
 20
79.984571
 30
0.0
 42
0.048895
  0
VERTEX
  8
1
  5
8
  6
CONTINUOUS
 62
7
 10
771.102271
 20
78.062611
 30
0.0
 42
0.041767
  0
VERTEX
  8
1
  5
9
  6
CONTINUOUS
 62
7
 10
774.020836
 20
76.480108
 30
0.0
 42
0.036801
  0
VERTEX
  8
1
  5
A
  6
CONTINUOUS
 62
7
 10
777.354011
 20
75.297961
 30
0.0
 42
0.03373
  0
VERTEX
  8
1
  5
B
  6
CONTINUOUS
 62
7
 10
780.973519
 20
74.561665
 30
0.0
 42
0.032276
  0
VERTEX
  8
1
  5
C
  6
CONTINUOUS
 62
7
 10
784.740067
 20
74.299557
 30
0.0
 42
0.032276
  0
SEQEND
  8
1
  5
D
  0
POLYLINE
  8
1
  5
E
  6
CONTINUOUS
 62
7
 10
0.0
 20
0.0
 30
0.0
 66
1
 70
0
  0
VERTEX
  8
1
  5
F
  6
CONTINUOUS
 62
7
 10
784.740067
 20
74.299622
 30
0.0
 42
-0.996912
  0
VERTEX
  8
1
  5
10
  6
CONTINUOUS
 62
7
 10
784.721957
 20
66.099682
 30
0.0
  0
SEQEND
  8
1
  5
11
  0
POLYLINE
  8
1
  5
13
  6
CONTINUOUS
 62
7
 10
0.0
 20
0.0
 30
0.0
 66
1
 70
0
  0
VERTEX
  8
1
  5
14
  6
CONTINUOUS
 62
7
 10
784.721957
 20
66.099683
 30
0.0
 42
-0.031536
  0
VERTEX
  8
1
  5
15
  6
CONTINUOUS
 62
7
 10
777.781332
 20
66.528862
 30
0.0
 42
-0.03323
  0
VERTEX
  8
1
  5
16
  6
CONTINUOUS
 62
7
 10
771.128578
 20
67.810801
 30
0.0
 42
-0.036861
  0
VERTEX
  8
1
  5
17
  6
CONTINUOUS
 62
7
 10
765.040452
 20
69.892171
 30
0.0
 42
-0.042899
  0
VERTEX
  8
1
  5
18
  6
CONTINUOUS
 62
7
 10
759.770223
 20
72.686385
 30
0.0
 42
-0.051885
  0
VERTEX
  8
1
  5
19
  6
CONTINUOUS
 62
7
 10
755.537134
 20
76.077203
 30
0.0
 42
-0.063733
  0
VERTEX
  8
1
  5
1A
  6
CONTINUOUS
 62
7
 10
752.517285
 20
79.923566
 30
0.0
 42
-0.063733
  0
SEQEND
  8
1
  5
1B
  0
POLYLINE
  8
1
  5
1C
  6
CONTINUOUS
 62
7
 10
0.0
 20
0.0
 30
0.0
 66
1
 70
0
  0
VERTEX
  8
1
  5
1D
  6
CONTINUOUS
 62
7
 10
752.517285
 20
79.923566
 30
0.0
 42
0.562746
  0
VERTEX
  8
1
  5
1E
  6
CONTINUOUS
 62
7
 10
745.508639
 20
80.019925
 30
0.0
  0
SEQEND
  8
1
  5
1F
  0
POLYLINE
  8
1
  5
21
  6
CONTINUOUS
 62
7
 10
0.0
 20
0.0
 30
0.0
 66
1
 70
0
  0
VERTEX
  8
1
  5
22
  6
CONTINUOUS
 62
7
 10
745.508639
 20
80.019925
 30
0.0
 42
0.045742
  0
VERTEX
  8
1
  5
23
  6
CONTINUOUS
 62
7
 10
742.909639
 20
74.860267
 30
0.0
 42
0.043504
  0
VERTEX
  8
1
  5
24
  6
CONTINUOUS
 62
7
 10
741.22285
 20
69.181198
 30
0.0
 42
0.043504
  0
SEQEND
  8
1
  5
25
  0
POLYLINE
  8
1
  5
26
  6
CONTINUOUS
 62
7
 10
0.0
 20
0.0
 30
0.0
 66
1
 70
0
  0
VERTEX
  8
1
  5
27
  6
CONTINUOUS
 62
7
 10
741.22285
 20
69.181198
 30
0.0
 42
0.218428
  0
VERTEX
  8
1
  5
28
  6
CONTINUOUS
 62
7
 10
741.993875
 20
65.850175
 30
0.0
  0
VERTEX
  8
1
  5
29
  6
CONTINUOUS
 62
7
 10
741.993875
 20
65.850175
 30
0.0
 42
-0.341164
  0
VERTEX
  8
1
  5
2A
  6
CONTINUOUS
 62
7
 10
741.993875
 20
58.149185
 30
0.0
  0
VERTEX
  8
1
  5
2B
  6
CONTINUOUS
 62
7
 10
741.993875
 20
58.149185
 30
0.0
 42
0.218428
  0
VERTEX
  8
1
  5
2C
  6
CONTINUOUS
 62
7
 10
741.222851
 20
54.818159
 30
0.0
  0
SEQEND
  8
1
  5
2D
  0
POLYLINE
  8
1
  5
2F
  6
CONTINUOUS
 62
7
 10
0.0
 20
0.0
 30
0.0
 66
1
 70
0
  0
VERTEX
  8
1
  5
30
  6
CONTINUOUS
 62
7
 10
741.222851
 20
54.818159
 30
0.0
 42
0.043504
  0
VERTEX
  8
1
  5
31
  6
CONTINUOUS
 62
7
 10
742.909639
 20
49.139093
 30
0.0
 42
0.045742
  0
VERTEX
  8
1
  5
32
  6
CONTINUOUS
 62
7
 10
745.508638
 20
43.979437
 30
0.0
 42
0.045742
  0
SEQEND
  8
1
  5
33
  0
POLYLINE
  8
1
  5
34
  6
CONTINUOUS
 62
7
 10
0.0
 20
0.0
 30
0.0
 66
1
 70
0
  0
VERTEX
  8
1
  5
35
  6
CONTINUOUS
 62
7
 10
745.508638
 20
43.979437
 30
0.0
 42
0.562746
  0
VERTEX
  8
1
  5
36
  6
CONTINUOUS
 62
7
 10
752.517282
 20
44.075789
 30
0.0
  0
SEQEND
  8
1
  5
37
  0
POLYLINE
  8
1
  5
39
  6
CONTINUOUS
 62
7
 10
0.0
 20
0.0
 30
0.0
 66
1
 70
0
  0
VERTEX
  8
1
  5
3A
  6
CONTINUOUS
 62
7
 10
752.517282
 20
44.075789
 30
0.0
 42
-0.063733
  0
VERTEX
  8
1
  5
3B
  6
CONTINUOUS
 62
7
 10
755.53713
 20
47.922153
 30
0.0
 42
-0.051885
  0
VERTEX
  8
1
  5
3C
  6
CONTINUOUS
 62
7
 10
759.770218
 20
51.312972
 30
0.0
 42
-0.042899
  0
VERTEX
  8
1
  5
3D
  6
CONTINUOUS
 62
7
 10
765.040448
 20
54.107188
 30
0.0
 42
-0.036861
  0
VERTEX
  8
1
  5
3E
  6
CONTINUOUS
 62
7
 10
771.128575
 20
56.188558
 30
0.0
 42
-0.03323
  0
VERTEX
  8
1
  5
3F
  6
CONTINUOUS
 62
7
 10
777.78133
 20
57.470498
 30
0.0
 42
-0.031536
  0
VERTEX
  8
1
  5
40
  6
CONTINUOUS
 62
7
 10
784.721955
 20
57.899677
 30
0.0
 42
-0.031536
  0
SEQEND
  8
1
  5
41
  0
POLYLINE
  8
1
  5
42
  6
CONTINUOUS
 62
7
 10
0.0
 20
0.0
 30
0.0
 66
1
 70
0
  0
VERTEX
  8
1
  5
43
  6
CONTINUOUS
 62
7
 10
784.721955
 20
57.899678
 30
0.0
 42
-0.996913
  0
VERTEX
  8
1
  5
44
  6
CONTINUOUS
 62
7
 10
784.740068
 20
49.699738
 30
0.0
  0
SEQEND
  8
1
  5
45
  0
POLYLINE
  8
1
  5
47
  6
CONTINUOUS
 62
7
 10
0.0
 20
0.0
 30
0.0
 66
1
 70
0
  0
VERTEX
  8
1
  5
48
  6
CONTINUOUS
 62
7
 10
784.740067
 20
49.699803
 30
0.0
 42
0.032276
  0
VERTEX
  8
1
  5
49
  6
CONTINUOUS
 62
7
 10
780.973519
 20
49.437695
 30
0.0
 42
0.03373
  0
VERTEX
  8
1
  5
4A
  6
CONTINUOUS
 62
7
 10
777.354011
 20
48.701399
 30
0.0
 42
0.036801
  0
VERTEX
  8
1
  5
4B
  6
CONTINUOUS
 62
7
 10
774.020836
 20
47.519252
 30
0.0
 42
0.041767
  0
VERTEX
  8
1
  5
4C
  6
CONTINUOUS
 62
7
 10
771.102271
 20
45.936749
 30
0.0
 42
0.048895
  0
VERTEX
  8
1
  5
4D
  6
CONTINUOUS
 62
7
 10
768.710635
 20
44.014789
 30
0.0
 42
0.058009
  0
VERTEX
  8
1
  5
4E
  6
CONTINUOUS
 62
7
 10
766.937967
 20
41.82734
 30
0.0
 42
0.067603
  0
VERTEX
  8
1
  5
4F
  6
CONTINUOUS
 62
7
 10
765.852489
 20
39.458583
 30
0.0
 42
0.074209
  0
VERTEX
  8
1
  5
50
  6
CONTINUOUS
 62
7
 10
765.495973
 20
36.99968
 30
0.0
 42
0.074209
  0
SEQEND
  8
1
  5
51
  0
POLYLINE
  8
1
  5
54
  6
CONTINUOUS
 62
7
 10
0.0
 20
0.0
 30
0.0
 66
1
 70
0
  0
VERTEX
  8
1
  5
55
  6
CONTINUOUS
 62
7
 10
765.495973
 20
86.99968
 30
0.0
 42
0.074209
  0
VERTEX
  8
1
  5
56
  6
CONTINUOUS
 62
7
 10
765.852489
 20
84.540777
 30
0.0
 42
0.067603
  0
VERTEX
  8
1
  5
57
  6
CONTINUOUS
 62
7
 10
766.937967
 20
82.17202
 30
0.0
 42
0.058009
  0
VERTEX
  8
1
  5
58
  6
CONTINUOUS
 62
7
 10
768.710635
 20
79.984571
 30
0.0
 42
0.048895
  0
VERTEX
  8
1
  5
59
  6
CONTINUOUS
 62
7
 10
771.102271
 20
78.062611
 30
0.0
 42
0.041767
  0
VERTEX
  8
1
  5
5A
  6
CONTINUOUS
 62
7
 10
774.020836
 20
76.480108
 30
0.0
 42
0.036801
  0
VERTEX
  8
1
  5
5B
  6
CONTINUOUS
 62
7
 10
777.354011
 20
75.297961
 30
0.0
 42
0.03373
  0
VERTEX
  8
1
  5
5C
  6
CONTINUOUS
 62
7
 10
780.973519
 20
74.561665
 30
0.0
 42
0.032276
  0
VERTEX
  8
1
  5
5D
  6
CONTINUOUS
 62
7
 10
784.740067
 20
74.299557
 30
0.0
 42
0.032276
  0
SEQEND
  8
1
  5
5E
  0
POLYLINE
  8
1
  5
5F
  6
CONTINUOUS
 62
7
 10
0.0
 20
0.0
 30
0.0
 66
1
 70
0
  0
VERTEX
  8
1
  5
60
  6
CONTINUOUS
 62
7
 10
784.740067
 20
74.299622
 30
0.0
 42
-0.996912
  0
VERTEX
  8
1
  5
61
  6
CONTINUOUS
 62
7
 10
784.721957
 20
66.099682
 30
0.0
  0
SEQEND
  8
1
  5
62
  0
POLYLINE
  8
1
  5
64
  6
CONTINUOUS
 62
7
 10
0.0
 20
0.0
 30
0.0
 66
1
 70
0
  0
VERTEX
  8
1
  5
65
  6
CONTINUOUS
 62
7
 10
784.721957
 20
66.099683
 30
0.0
 42
-0.032987
  0
VERTEX
  8
1
  5
66
  6
CONTINUOUS
 62
7
 10
777.472698
 20
66.568621
 30
0.0
 42
-0.034927
  0
VERTEX
  8
1
  5
67
  6
CONTINUOUS
 62
7
 10
770.551803
 20
67.966935
 30
0.0
 42
-0.034927
  0
SEQEND
  8
1
  5
68
  0
POLYLINE
  8
1
  5
69
  6
CONTINUOUS
 62
7
 10
0.0
 20
0.0
 30
0.0
 66
1
 70
0
  0
VERTEX
  8
1
  5
6A
  6
CONTINUOUS
 62
7
 10
770.551266
 20
67.96472
 30
0.0
 42
0.466083
  0
VERTEX
  8
1
  5
6B
  6
CONTINUOUS
 62
7
 10
765.500855
 20
64.232839
 30
0.0
  0
SEQEND
  8
1
  5
6C
  0
POLYLINE
  8
1
  5
6E
  6
CONTINUOUS
 62
7
 10
0.0
 20
0.0
 30
0.0
 66
1
 70
0
  0
VERTEX
  8
1
  5
6F
  6
CONTINUOUS
 62
7
 10
765.500855
 20
64.23284
 30
0.0
 42
0.015532
  0
VERTEX
  8
1
  5
70
  6
CONTINUOUS
 62
7
 10
765.431495
 20
61.999681
 30
0.0
 42
0.015532
  0
VERTEX
  8
1
  5
71
  6
CONTINUOUS
 62
7
 10
765.500855
 20
59.766523
 30
0.0
 42
0.015532
  0
SEQEND
  8
1
  5
72
  0
POLYLINE
  8
1
  5
73
  6
CONTINUOUS
 62
7
 10
0.0
 20
0.0
 30
0.0
 66
1
 70
0
  0
VERTEX
  8
1
  5
74
  6
CONTINUOUS
 62
7
 10
765.500855
 20
59.766523
 30
0.0
 42
0.462277
  0
VERTEX
  8
1
  5
75
  6
CONTINUOUS
 62
7
 10
770.501255
 20
56.022948
 30
0.0
  0
SEQEND
  8
1
  5
76
  0
POLYLINE
  8
1
  5
78
  6
CONTINUOUS
 62
7
 10
0.0
 20
0.0
 30
0.0
 66
1
 70
0
  0
VERTEX
  8
1
  5
79
  6
CONTINUOUS
 62
7
 10
769.853472
 20
55.832811
 30
0.0
 42
-0.037039
  0
VERTEX
  8
1
  5
7A
  6
CONTINUOUS
 62
7
 10
777.096348
 20
57.379786
 30
0.0
 42
-0.034766
  0
VERTEX
  8
1
  5
7B
  6
CONTINUOUS
 62
7
 10
784.721955
 20
57.899677
 30
0.0
 42
-0.034766
  0
SEQEND
  8
1
  5
7C
  0
POLYLINE
  8
1
  5
7D
  6
CONTINUOUS
 62
7
 10
0.0
 20
0.0
 30
0.0
 66
1
 70
0
  0
VERTEX
  8
1
  5
7E
  6
CONTINUOUS
 62
7
 10
784.721955
 20
57.899678
 30
0.0
 42
-0.996913
  0
VERTEX
  8
1
  5
7F
  6
CONTINUOUS
 62
7
 10
784.740068
 20
49.699738
 30
0.0
  0
SEQEND
  8
1
  5
80
  0
POLYLINE
  8
1
  5
82
  6
CONTINUOUS
 62
7
 10
0.0
 20
0.0
 30
0.0
 66
1
 70
0
  0
VERTEX
  8
1
  5
83
  6
CONTINUOUS
 62
7
 10
784.740067
 20
49.699803
 30
0.0
 42
0.032276
  0
VERTEX
  8
1
  5
84
  6
CONTINUOUS
 62
7
 10
780.973519
 20
49.437695
 30
0.0
 42
0.03373
  0
VERTEX
  8
1
  5
85
  6
CONTINUOUS
 62
7
 10
777.354011
 20
48.701399
 30
0.0
 42
0.036801
  0
VERTEX
  8
1
  5
86
  6
CONTINUOUS
 62
7
 10
774.020836
 20
47.519252
 30
0.0
 42
0.041767
  0
VERTEX
  8
1
  5
87
  6
CONTINUOUS
 62
7
 10
771.102271
 20
45.936749
 30
0.0
 42
0.048895
  0
VERTEX
  8
1
  5
88
  6
CONTINUOUS
 62
7
 10
768.710635
 20
44.014789
 30
0.0
 42
0.058009
  0
VERTEX
  8
1
  5
89
  6
CONTINUOUS
 62
7
 10
766.937967
 20
41.82734
 30
0.0
 42
0.067603
  0
VERTEX
  8
1
  5
8A
  6
CONTINUOUS
 62
7
 10
765.852489
 20
39.458583
 30
0.0
 42
0.074209
  0
VERTEX
  8
1
  5
8B
  6
CONTINUOUS
 62
7
 10
765.495973
 20
36.99968
 30
0.0
 42
0.074209
  0
SEQEND
  8
1
  5
8C
  0
POLYLINE
  8
1
  5
8E
  6
CONTINUOUS
 62
7
 10
0.0
 20
0.0
 30
0.0
 66
1
 70
0
  0
VERTEX
  8
1
  5
8F
  6
CONTINUOUS
 62
7
 10
831.49598
 20
86.99968
 30
0.0
  0
VERTEX
  8
1
  5
90
  6
CONTINUOUS
 62
7
 10
996.49598
 20
86.99968
 30
0.0
  0
VERTEX
  8
1
  5
91
  6
CONTINUOUS
 62
7
 10
996.49598
 20
86.99968
 30
0.0
  0
VERTEX
  8
1
  5
92
  6
CONTINUOUS
 62
7
 10
996.49598
 20
36.99968
 30
0.0
  0
VERTEX
  8
1
  5
93
  6
CONTINUOUS
 62
7
 10
996.49598
 20
36.99968
 30
0.0
  0
VERTEX
  8
1
  5
94
  6
CONTINUOUS
 62
7
 10
831.49598
 20
36.99968
 30
0.0
  0
SEQEND
  8
1
  5
95
  0
POLYLINE
  8
1
  5
98
  6
CONTINUOUS
 62
7
 10
0.0
 20
0.0
 30
0.0
 66
1
 70
0
  0
VERTEX
  8
1
  5
99
  6
CONTINUOUS
 62
7
 10
831.495973
 20
86.99968
 30
0.0
 42
0.074209
  0
VERTEX
  8
1
  5
9A
  6
CONTINUOUS
 62
7
 10
831.852489
 20
84.540777
 30
0.0
 42
0.067603
  0
VERTEX
  8
1
  5
9B
  6
CONTINUOUS
 62
7
 10
832.937967
 20
82.17202
 30
0.0
 42
0.058009
  0
VERTEX
  8
1
  5
9C
  6
CONTINUOUS
 62
7
 10
834.710635
 20
79.984571
 30
0.0
 42
0.048895
  0
VERTEX
  8
1
  5
9D
  6
CONTINUOUS
 62
7
 10
837.102271
 20
78.062611
 30
0.0
 42
0.041767
  0
VERTEX
  8
1
  5
9E
  6
CONTINUOUS
 62
7
 10
840.020836
 20
76.480108
 30
0.0
 42
0.036801
  0
VERTEX
  8
1
  5
9F
  6
CONTINUOUS
 62
7
 10
843.354011
 20
75.297961
 30
0.0
 42
0.03373
  0
VERTEX
  8
1
  5
A0
  6
CONTINUOUS
 62
7
 10
846.973519
 20
74.561665
 30
0.0
 42
0.032276
  0
VERTEX
  8
1
  5
A1
  6
CONTINUOUS
 62
7
 10
850.740067
 20
74.299557
 30
0.0
 42
0.032276
  0
SEQEND
  8
1
  5
A2
  0
POLYLINE
  8
1
  5
A3
  6
CONTINUOUS
 62
7
 10
0.0
 20
0.0
 30
0.0
 66
1
 70
0
  0
VERTEX
  8
1
  5
A4
  6
CONTINUOUS
 62
7
 10
850.740068
 20
74.299622
 30
0.0
 42
-0.996913
  0
VERTEX
  8
1
  5
A5
  6
CONTINUOUS
 62
7
 10
850.721955
 20
66.099682
 30
0.0
  0
SEQEND
  8
1
  5
A6
  0
POLYLINE
  8
1
  5
A8
  6
CONTINUOUS
 62
7
 10
0.0
 20
0.0
 30
0.0
 66
1
 70
0
  0
VERTEX
  8
1
  5
A9
  6
CONTINUOUS
 62
7
 10
850.721955
 20
66.099683
 30
0.0
 42
-0.032668
  0
VERTEX
  8
1
  5
AA
  6
CONTINUOUS
 62
7
 10
843.540511
 20
66.559729
 30
0.0
 42
-0.034552
  0
VERTEX
  8
1
  5
AB
  6
CONTINUOUS
 62
7
 10
836.678223
 20
67.932045
 30
0.0
 42
-0.034552
  0
SEQEND
  8
1
  5
AC
  0
POLYLINE
  8
1
  5
AE
  6
CONTINUOUS
 62
7
 10
0.0
 20
0.0
 30
0.0
 66
1
 70
0
  0
VERTEX
  8
1
  5
AF
  6
CONTINUOUS
 62
7
 10
836.656458
 20
67.938025
 30
0.0
 42
-0.036481
  0
VERTEX
  8
1
  5
B0
  6
CONTINUOUS
 62
7
 10
830.725003
 20
70.029214
 30
0.0
 42
-0.042442
  0
VERTEX
  8
1
  5
B1
  6
CONTINUOUS
 62
7
 10
825.594273
 20
72.801768
 30
0.0
 42
-0.051209
  0
VERTEX
  8
1
  5
B2
  6
CONTINUOUS
 62
7
 10
821.469926
 20
76.144551
 30
0.0
 42
-0.062668
  0
VERTEX
  8
1
  5
B3
  6
CONTINUOUS
 62
7
 10
818.517282
 20
79.923571
 30
0.0
 42
-0.062668
  0
SEQEND
  8
1
  5
B4
  0
POLYLINE
  8
1
  5
B5
  6
CONTINUOUS
 62
7
 10
0.0
 20
0.0
 30
0.0
 66
1
 70
0
  0
VERTEX
  8
1
  5
B6
  6
CONTINUOUS
 62
7
 10
818.517282
 20
79.923571
 30
0.0
 42
0.562746
  0
VERTEX
  8
1
  5
B7
  6
CONTINUOUS
 62
7
 10
811.508638
 20
80.019923
 30
0.0
  0
SEQEND
  8
1
  5
B8
  0
POLYLINE
  8
1
  5
BA
  6
CONTINUOUS
 62
7
 10
0.0
 20
0.0
 30
0.0
 66
1
 70
0
  0
VERTEX
  8
1
  5
BB
  6
CONTINUOUS
 62
7
 10
811.508638
 20
80.019923
 30
0.0
 42
0.045742
  0
VERTEX
  8
1
  5
BC
  6
CONTINUOUS
 62
7
 10
808.909639
 20
74.860267
 30
0.0
 42
0.043504
  0
VERTEX
  8
1
  5
BD
  6
CONTINUOUS
 62
7
 10
807.222851
 20
69.181201
 30
0.0
 42
0.043504
  0
SEQEND
  8
1
  5
BE
  0
POLYLINE
  8
1
  5
BF
  6
CONTINUOUS
 62
7
 10
0.0
 20
0.0
 30
0.0
 66
1
 70
0
  0
VERTEX
  8
1
  5
C0
  6
CONTINUOUS
 62
7
 10
807.222851
 20
69.181201
 30
0.0
 42
0.218428
  0
VERTEX
  8
1
  5
C1
  6
CONTINUOUS
 62
7
 10
807.993875
 20
65.850175
 30
0.0
  0
VERTEX
  8
1
  5
C2
  6
CONTINUOUS
 62
7
 10
807.993875
 20
65.850175
 30
0.0
 42
-0.341164
  0
VERTEX
  8
1
  5
C3
  6
CONTINUOUS
 62
7
 10
807.993875
 20
58.149185
 30
0.0
  0
VERTEX
  8
1
  5
C4
  6
CONTINUOUS
 62
7
 10
807.993875
 20
58.149185
 30
0.0
 42
0.218428
  0
VERTEX
  8
1
  5
C5
  6
CONTINUOUS
 62
7
 10
807.22285
 20
54.818162
 30
0.0
  0
SEQEND
  8
1
  5
C6
  0
POLYLINE
  8
1
  5
C8
  6
CONTINUOUS
 62
7
 10
0.0
 20
0.0
 30
0.0
 66
1
 70
0
  0
VERTEX
  8
1
  5
C9
  6
CONTINUOUS
 62
7
 10
807.22285
 20
54.818162
 30
0.0
 42
0.043504
  0
VERTEX
  8
1
  5
CA
  6
CONTINUOUS
 62
7
 10
808.909639
 20
49.139093
 30
0.0
 42
0.045742
  0
VERTEX
  8
1
  5
CB
  6
CONTINUOUS
 62
7
 10
811.508639
 20
43.979435
 30
0.0
 42
0.045742
  0
SEQEND
  8
1
  5
CC
  0
POLYLINE
  8
1
  5
CD
  6
CONTINUOUS
 62
7
 10
0.0
 20
0.0
 30
0.0
 66
1
 70
0
  0
VERTEX
  8
1
  5
CE
  6
CONTINUOUS
 62
7
 10
811.508639
 20
43.979435
 30
0.0
 42
0.562746
  0
VERTEX
  8
1
  5
CF
  6
CONTINUOUS
 62
7
 10
818.517285
 20
44.075794
 30
0.0
  0
SEQEND
  8
1
  5
D0
  0
POLYLINE
  8
1
  5
D2
  6
CONTINUOUS
 62
7
 10
0.0
 20
0.0
 30
0.0
 66
1
 70
0
  0
VERTEX
  8
1
  5
D3
  6
CONTINUOUS
 62
7
 10
818.517285
 20
44.075794
 30
0.0
 42
-0.062718
  0
VERTEX
  8
1
  5
D4
  6
CONTINUOUS
 62
7
 10
821.473028
 20
47.85793
 30
0.0
 42
-0.05124
  0
VERTEX
  8
1
  5
D5
  6
CONTINUOUS
 62
7
 10
825.60238
 20
51.202947
 30
0.0
 42
-0.042463
  0
VERTEX
  8
1
  5
D6
  6
CONTINUOUS
 62
7
 10
830.739536
 20
53.976532
 30
0.0
 42
-0.036499
  0
VERTEX
  8
1
  5
D7
  6
CONTINUOUS
 62
7
 10
836.67822
 20
56.067314
 30
0.0
 42
-0.036499
  0
SEQEND
  8
1
  5
D8
  0
POLYLINE
  8
1
  5
DA
  6
CONTINUOUS
 62
7
 10
0.0
 20
0.0
 30
0.0
 66
1
 70
0
  0
VERTEX
  8
1
  5
DB
  6
CONTINUOUS
 62
7
 10
836.67822
 20
56.067314
 30
0.0
 42
-0.034552
  0
VERTEX
  8
1
  5
DC
  6
CONTINUOUS
 62
7
 10
843.54051
 20
57.43963
 30
0.0
 42
-0.032668
  0
VERTEX
  8
1
  5
DD
  6
CONTINUOUS
 62
7
 10
850.721957
 20
57.899677
 30
0.0
 42
-0.032668
  0
SEQEND
  8
1
  5
DE
  0
POLYLINE
  8
1
  5
DF
  6
CONTINUOUS
 62
7
 10
0.0
 20
0.0
 30
0.0
 66
1
 70
0
  0
VERTEX
  8
1
  5
E0
  6
CONTINUOUS
 62
7
 10
850.721957
 20
57.899678
 30
0.0
 42
-0.996912
  0
VERTEX
  8
1
  5
E1
  6
CONTINUOUS
 62
7
 10
850.740067
 20
49.699738
 30
0.0
  0
SEQEND
  8
1
  5
E2
  0
POLYLINE
  8
1
  5
E4
  6
CONTINUOUS
 62
7
 10
0.0
 20
0.0
 30
0.0
 66
1
 70
0
  0
VERTEX
  8
1
  5
E5
  6
CONTINUOUS
 62
7
 10
850.740067
 20
49.699803
 30
0.0
 42
0.032276
  0
VERTEX
  8
1
  5
E6
  6
CONTINUOUS
 62
7
 10
846.973519
 20
49.437695
 30
0.0
 42
0.03373
  0
VERTEX
  8
1
  5
E7
  6
CONTINUOUS
 62
7
 10
843.354011
 20
48.701399
 30
0.0
 42
0.036801
  0
VERTEX
  8
1
  5
E8
  6
CONTINUOUS
 62
7
 10
840.020836
 20
47.519252
 30
0.0
 42
0.041767
  0
VERTEX
  8
1
  5
E9
  6
CONTINUOUS
 62
7
 10
837.102271
 20
45.936749
 30
0.0
 42
0.048895
  0
VERTEX
  8
1
  5
EA
  6
CONTINUOUS
 62
7
 10
834.710635
 20
44.014789
 30
0.0
 42
0.058009
  0
VERTEX
  8
1
  5
EB
  6
CONTINUOUS
 62
7
 10
832.937967
 20
41.82734
 30
0.0
 42
0.067603
  0
VERTEX
  8
1
  5
EC
  6
CONTINUOUS
 62
7
 10
831.852489
 20
39.458583
 30
0.0
 42
0.074209
  0
VERTEX
  8
1
  5
ED
  6
CONTINUOUS
 62
7
 10
831.495973
 20
36.99968
 30
0.0
 42
0.074209
  0
SEQEND
  8
1
  5
EE
  0
POLYLINE
  8
1
  5
F1
  6
CONTINUOUS
 62
7
 10
0.0
 20
0.0
 30
0.0
 66
1
 70
0
  0
VERTEX
  8
1
  5
F2
  6
CONTINUOUS
 62
7
 10
831.495983
 20
86.99968
 30
0.0
 42
0.074209
  0
VERTEX
  8
1
  5
F3
  6
CONTINUOUS
 62
7
 10
831.852499
 20
84.540777
 30
0.0
 42
0.067603
  0
VERTEX
  8
1
  5
F4
  6
CONTINUOUS
 62
7
 10
832.937977
 20
82.17202
 30
0.0
 42
0.058009
  0
VERTEX
  8
1
  5
F5
  6
CONTINUOUS
 62
7
 10
834.710645
 20
79.984571
 30
0.0
 42
0.048895
  0
VERTEX
  8
1
  5
F6
  6
CONTINUOUS
 62
7
 10
837.102281
 20
78.062611
 30
0.0
 42
0.041767
  0
VERTEX
  8
1
  5
F7
  6
CONTINUOUS
 62
7
 10
840.020846
 20
76.480108
 30
0.0
 42
0.036801
  0
VERTEX
  8
1
  5
F8
  6
CONTINUOUS
 62
7
 10
843.354021
 20
75.297961
 30
0.0
 42
0.03373
  0
VERTEX
  8
1
  5
F9
  6
CONTINUOUS
 62
7
 10
846.973529
 20
74.561665
 30
0.0
 42
0.032276
  0
VERTEX
  8
1
  5
FA
  6
CONTINUOUS
 62
7
 10
850.740077
 20
74.299557
 30
0.0
 42
0.032276
  0
SEQEND
  8
1
  5
FB
  0
POLYLINE
  8
1
  5
FC
  6
CONTINUOUS
 62
7
 10
0.0
 20
0.0
 30
0.0
 66
1
 70
0
  0
VERTEX
  8
1
  5
FD
  6
CONTINUOUS
 62
7
 10
850.740078
 20
74.299622
 30
0.0
 42
-0.996913
  0
VERTEX
  8
1
  5
FE
  6
CONTINUOUS
 62
7
 10
850.721965
 20
66.099682
 30
0.0
  0
SEQEND
  8
1
  5
FF
  0
POLYLINE
  8
1
  5
101
  6
CONTINUOUS
 62
7
 10
0.0
 20
0.0
 30
0.0
 66
1
 70
0
  0
VERTEX
  8
1
  5
102
  6
CONTINUOUS
 62
7
 10
850.721965
 20
66.099683
 30
0.0
 42
-0.032668
  0
VERTEX
  8
1
  5
103
  6
CONTINUOUS
 62
7
 10
843.540521
 20
66.559729
 30
0.0
 42
-0.034552
  0
VERTEX
  8
1
  5
104
  6
CONTINUOUS
 62
7
 10
836.678233
 20
67.932045
 30
0.0
 42
-0.034552
  0
SEQEND
  8
1
  5
105
  0
POLYLINE
  8
1
  5
106
  6
CONTINUOUS
 62
7
 10
0.0
 20
0.0
 30
0.0
 66
1
 70
0
  0
VERTEX
  8
1
  5
107
  6
CONTINUOUS
 62
7
 10
836.678233
 20
67.932045
 30
0.0
 42
0.47585
  0
VERTEX
  8
1
  5
108
  6
CONTINUOUS
 62
7
 10
831.500865
 20
64.232837
 30
0.0
  0
SEQEND
  8
1
  5
109
  0
POLYLINE
  8
1
  5
10B
  6
CONTINUOUS
 62
7
 10
0.0
 20
0.0
 30
0.0
 66
1
 70
0
  0
VERTEX
  8
1
  5
10C
  6
CONTINUOUS
 62
7
 10
831.500865
 20
64.232837
 30
0.0
 42
0.015532
  0
VERTEX
  8
1
  5
10D
  6
CONTINUOUS
 62
7
 10
831.431505
 20
61.999679
 30
0.0
 42
0.015532
  0
VERTEX
  8
1
  5
10E
  6
CONTINUOUS
 62
7
 10
831.500865
 20
59.76652
 30
0.0
 42
0.015532
  0
SEQEND
  8
1
  5
10F
  0
POLYLINE
  8
1
  5
110
  6
CONTINUOUS
 62
7
 10
0.0
 20
0.0
 30
0.0
 66
1
 70
0
  0
VERTEX
  8
1
  5
111
  6
CONTINUOUS
 62
7
 10
831.500865
 20
59.766521
 30
0.0
 42
0.47585
  0
VERTEX
  8
1
  5
112
  6
CONTINUOUS
 62
7
 10
836.67823
 20
56.067314
 30
0.0
  0
SEQEND
  8
1
  5
113
  0
POLYLINE
  8
1
  5
115
  6
CONTINUOUS
 62
7
 10
0.0
 20
0.0
 30
0.0
 66
1
 70
0
  0
VERTEX
  8
1
  5
116
  6
CONTINUOUS
 62
7
 10
836.67823
 20
56.067314
 30
0.0
 42
-0.034552
  0
VERTEX
  8
1
  5
117
  6
CONTINUOUS
 62
7
 10
843.54052
 20
57.43963
 30
0.0
 42
-0.032668
  0
VERTEX
  8
1
  5
118
  6
CONTINUOUS
 62
7
 10
850.721967
 20
57.899677
 30
0.0
 42
-0.032668
  0
SEQEND
  8
1
  5
119
  0
POLYLINE
  8
1
  5
11A
  6
CONTINUOUS
 62
7
 10
0.0
 20
0.0
 30
0.0
 66
1
 70
0
  0
VERTEX
  8
1
  5
11B
  6
CONTINUOUS
 62
7
 10
850.721967
 20
57.899678
 30
0.0
 42
-0.996912
  0
VERTEX
  8
1
  5
11C
  6
CONTINUOUS
 62
7
 10
850.740077
 20
49.699738
 30
0.0
  0
SEQEND
  8
1
  5
11D
  0
POLYLINE
  8
1
  5
11F
  6
CONTINUOUS
 62
7
 10
0.0
 20
0.0
 30
0.0
 66
1
 70
0
  0
VERTEX
  8
1
  5
120
  6
CONTINUOUS
 62
7
 10
850.740077
 20
49.699803
 30
0.0
 42
0.032276
  0
VERTEX
  8
1
  5
121
  6
CONTINUOUS
 62
7
 10
846.973529
 20
49.437695
 30
0.0
 42
0.03373
  0
VERTEX
  8
1
  5
122
  6
CONTINUOUS
 62
7
 10
843.354021
 20
48.701399
 30
0.0
 42
0.036801
  0
VERTEX
  8
1
  5
123
  6
CONTINUOUS
 62
7
 10
840.020846
 20
47.519252
 30
0.0
 42
0.041767
  0
VERTEX
  8
1
  5
124
  6
CONTINUOUS
 62
7
 10
837.102281
 20
45.936749
 30
0.0
 42
0.048895
  0
VERTEX
  8
1
  5
125
  6
CONTINUOUS
 62
7
 10
834.710645
 20
44.014789
 30
0.0
 42
0.058009
  0
VERTEX
  8
1
  5
126
  6
CONTINUOUS
 62
7
 10
832.937977
 20
41.82734
 30
0.0
 42
0.067603
  0
VERTEX
  8
1
  5
127
  6
CONTINUOUS
 62
7
 10
831.852499
 20
39.458583
 30
0.0
 42
0.074209
  0
VERTEX
  8
1
  5
128
  6
CONTINUOUS
 62
7
 10
831.495983
 20
36.99968
 30
0.0
 42
0.074209
  0
SEQEND
  8
1
  5
129
  0
POLYLINE
  8
1
  5
12B
  6
CONTINUOUS
 62
7
 10
0.0
 20
0.0
 30
0.0
 66
1
 70
0
  0
VERTEX
  8
1
  5
12C
  6
CONTINUOUS
 62
7
 10
765.49598
 20
86.99968
 30
0.0
  0
VERTEX
  8
1
  5
12D
  6
CONTINUOUS
 62
7
 10
600.49598
 20
86.99968
 30
0.0
  0
VERTEX
  8
1
  5
12E
  6
CONTINUOUS
 62
7
 10
600.49598
 20
86.99968
 30
0.0
  0
VERTEX
  8
1
  5
12F
  6
CONTINUOUS
 62
7
 10
600.49598
 20
36.99968
 30
0.0
  0
VERTEX
  8
1
  5
130
  6
CONTINUOUS
 62
7
 10
600.49598
 20
36.99968
 30
0.0
  0
VERTEX
  8
1
  5
131
  6
CONTINUOUS
 62
7
 10
765.49598
 20
36.99968
 30
0.0
  0
SEQEND
  8
1
  5
132
  0
ENDSEC
  0
EOF
