  0
SECTION
  2
HEADER
  9
$ACADVER
  1
AC1006
  9
$INSBASE
 10
0.0
 20
0.0
 30
0.0
  9
$EXTMAX
 10
430.0
 20
-49.99999
  9
$EXTMIN
 10
30.0
 20
-99.99999
  9
$LIMMAX
 10
12.0
 20
9.0
  9
$LIMMIN
 10
0.0
 20
0.0
  9
$ORTHOMODE
 70
0
  9
$REGENMODE
 70
1
  9
$FILLMODE
 70
1
  9
$QTEXTMODE
 70
0
  9
$MIRRTEXT
 70
1
  9
$DRAGMODE
 70
2
  9
$LTSCALE
 40
1.0
  9
$OSMODE
 70
0
  9
$ATTMODE
 70
1
  9
$TEXTSIZE
 40
0.2
  9
$TRACEWID
 40
0.05
  9
$TEXTSTYLE
  7
STANDARD
  9
$CLAYER
  8
0
  9
$CELTYPE
  6
CONTINUOUS
  9
$CECOLOR
 62
256
  9
$DIMSCALE
 40
1.0
  9
$DIMASZ
 40
0.18
  9
$DIMEXO
 40
0.0625
  9
$DIMDLI
 40
0.38
  9
$DIMRND
 40
0.0
  9
$DIMDLE
 40
0.0
  9
$DIMEXE
 40
0.18
  9
$DIMTP
 40
0.0
  9
$DIMTM
 40
0.0
  9
$DIMTXT
 40
0.18
  9
$DIMCEN
 40
0.09
  9
$DIMTSZ
 40
0.0
  9
$DIMTOL
 70
0
  9
$DIMLIM
 70
0
  9
$DIMTIH
 70
1
  9
$DIMTOH
 70
1
  9
$DIMSE1
 70
0
  9
$DIMSE2
 70
0
  9
$DIMTAD
 70
0
  9
$DIMZIN
 70
0
  9
$DIMBLK
  1

  9
$DIMASO
 70
1
  9
$DIMSHO
 70
1
  9
$DIMPOST
  1

  9
$DIMAPOST
  1

  9
$DIMALT
 70
0
  9
$DIMALTD
 70
2
  9
$DIMALTF
 40
25.4
  9
$DIMLFAC
 40
1.0
  9
$DIMTOFL
 70
0
  9
$DIMTVP
 40
0.0
  9
$DIMTIX
 70
0
  9
$DIMSOXD
 70
0
  9
$DIMSAH
 70
0
  9
$DIMBLK1
  1

  9
$DIMBLK2
  1

  9
$LUNITS
 70
2
  9
$LUPREC
 70
4
  9
$AXISMODE
 70
0
  9
$AXISUNIT
 10
0.0
 20
0.0
  9
$SKETCHINC
 40
0.1
  9
$FILLETRAD
 40
0.0
  9
$AUNITS
 70
0
  9
$AUPREC
 70
0
  9
$MENU
  1
acad
  9
$ELEVATION
 40
0.0
  9
$THICKNESS
 40
0.0
  9
$LIMCHECK
 70
0
  9
$BLIPMODE
 70
1
  9
$CHAMFERA
 40
0.0
  9
$CHAMFERB
 40
0.0
  9
$SKPOLY
 70
0
  9
$TDCREATE
 40
0.0
  9
$TDUPDATE
 40
0.0
  9
$TDINDWG
 40
0.0
  9
$TDUSRTIMER
 40
0.0
  9
$USRTIMER
 70
1
  9
$ANGBASE
 50
0.0
  9
$ANGDIR
 70
0
  9
$PDMODE
 70
0
  9
$PDSIZE
 40
0.0
  9
$PLINEWID
 40
0.0
  9
$COORDS
 70
0
  9
$SPLFRAME
 70
0
  9
$SPLINETYPE
 70
6
  9
$SPLINESEGS
 70
10
  9
$ATTDIA
 70
0
  9
$ATTREQ
 70
1
  9
$HANDLING
 70
1
  9
$HANDSEED
  5
9E
  9
$SURFTAB1
 70
6
  9
$SURFTAB2
 70
6
  9
$SURFTYPE
 70
6
  9
$SURFU
 70
10
  9
$SURFV
 70
10
  9
$FLATLAND
 70
0
  9
$UCSNAME
  2

  9
$UCSORG
 10
0.0
 20
0.0
 30
0.0
  9
$UCSXDIR
 10
1.0
 20
0.0
 30
0.0
  9
$UCSYDIR
 10
0.0
 20
1.0
 30
0.0
  9
$USERI1
 70
0
  9
$USERI2
 70
0
  9
$USERI3
 70
0
  9
$USERI4
 70
0
  9
$USERI5
 70
0
  9
$USERR1
 40
0.0
  9
$USERR2
 40
0.0
  9
$USERR3
 40
0.0
  9
$USERR4
 40
0.0
  9
$USERR5
 40
0.0
  9
$WORLDVIEW
 70
1
  0
ENDSEC
  0
SECTION
  2
TABLES
  0
TABLE
  2
LTYPE
 70
7
  0
LTYPE
  2
CONTINUOUS
 70
64
  3
Solid line
 72
65
 73
0
 40
0.0
  0
LTYPE
  2
DOT
 70
64
  3
. . . . . . . . . . . . . . . . . . . . . . . . . . . . . . . . .
 72
65
 73
2
 40
0.25
 49
0.0
 49
-0.25
  0
LTYPE
  2
HIDDEN
 70
64
  3
__ __ __ __ __ __ __ __ __ __ __ __ __ __ __ __ __ __ __ __ __ 
 72
65
 73
2
 40
0.375
 49
0.25
 49
-0.125
  0
LTYPE
  2
DASHED
 70
64
  3
__ __ __ __ __ __ __ __ __ __ __ __ __ __ __ __ __ __ __ __ __
 72
65
 73
2
 40
0.75
 49
0.5
 49
-0.25
  0
LTYPE
  2
DASHDOT
 70
64
  3
__ . __ . __ . __ . __ . __ . __ . __ . __ . __ . __ . __ . _
 72
65
 73
4
 40
1.0
 49
0.5
 49
-0.25
 49
0.0
 49
-0.25
  0
LTYPE
  2
DIVIDE
 70
64
  3
____ . . ____ . . ____ . . ____ . . ____ . . ____ . . ____ . .
 72
65
 73
6
 40
1.25
 49
0.5
 49
-0.25
 49
0.0
 49
-0.25
 49
0.0
 49
-0.25
  0
LTYPE
  2
CENTER
 70
64
  3
____ _ ____ _ ____ _ ____ _ ____ _ ____ _ ____ _ ____ _ ____ _
 72
65
 73
4
 40
2.0
 49
1.25
 49
-0.25
 49
0.25
 49
-0.25
  0
ENDTAB
  0
TABLE
  2
LAYER
 70
4
  0
LAYER
  2
0
 70
0
 62
7
  6
CONTINUOUS
  0
LAYER
  2
CONSTRUCTION_CLASS
 70
0
 62
7
  6
CONTINUOUS
  0
LAYER
  2
PATTERN_CLASS
 70
0
 62
7
  6
CONTINUOUS
  0
LAYER
  2
1
 70
0
 62
7
  6
CONTINUOUS
  0
ENDTAB
  0
TABLE
  2
STYLE
 70
1
  0
STYLE
  2
STANDARD
 70
0
 40
0.2
 41
1.0
 50
0.0
 71
0
 42
0.0
  3
txt
  4

  0
ENDTAB
  0
TABLE
  2
UCS
 70
0
  0
ENDTAB
  0
TABLE
  2
VIEW
 70
0
  0
ENDTAB
  0
TABLE
  2
VPORT
 70
1
  0
VPORT
  2
*ACTIVE
 70
0
 10
0.0
 20
0.0
 11
1.0
 21
1.0
 12
0.0
 22
0.0
 13
0.0
 23
0.0
 14
0.0
 24
0.0
 15
0.0
 25
0.0
 16
0.0
 26
0.0
 36
1.0
 17
211.571474
 27
-74.999985
 37
0.0
 40
275.33473
 41
1.355234
 42
50.0
 43
0.0
 44
0.0
 50
0.0
 51
0.0
 71
0
 72
100
 73
1
 74
0
 75
0
 76
0
 77
0
 78
0
  0
ENDTAB
  0
ENDSEC
  0
SECTION
  2
BLOCKS
  0
ENDSEC
  0
SECTION
  2
ENTITIES
  0
POLYLINE
  8
1
  5
2
  6
CONTINUOUS
 62
7
 10
0.0
 20
0.0
 30
0.0
 66
1
 70
0
  0
VERTEX
  8
1
  5
3
  6
CONTINUOUS
 62
7
 10
184.0
 20
-99.99999
 30
0.0
  0
VERTEX
  8
1
  5
4
  6
CONTINUOUS
 62
7
 10
184.0
 20
-94.09999
 30
0.0
  0
VERTEX
  8
1
  5
5
  6
CONTINUOUS
 62
7
 10
184.0
 20
-94.09999
 30
0.0
 42
0.414214
  0
VERTEX
  8
1
  5
6
  6
CONTINUOUS
 62
7
 10
179.9
 20
-89.99999
 30
0.0
  0
VERTEX
  8
1
  5
7
  6
CONTINUOUS
 62
7
 10
179.9
 20
-89.99999
 30
0.0
  0
VERTEX
  8
1
  5
8
  6
CONTINUOUS
 62
7
 10
172.1
 20
-89.99999
 30
0.0
  0
VERTEX
  8
1
  5
9
  6
CONTINUOUS
 62
7
 10
172.1
 20
-89.99999
 30
0.0
 42
-0.414214
  0
VERTEX
  8
1
  5
A
  6
CONTINUOUS
 62
7
 10
168.0
 20
-85.89999
 30
0.0
  0
VERTEX
  8
1
  5
B
  6
CONTINUOUS
 62
7
 10
168.0
 20
-85.89999
 30
0.0
  0
VERTEX
  8
1
  5
C
  6
CONTINUOUS
 62
7
 10
168.0
 20
-84.09999
 30
0.0
  0
VERTEX
  8
1
  5
D
  6
CONTINUOUS
 62
7
 10
168.0
 20
-84.09999
 30
0.0
 42
-0.414214
  0
VERTEX
  8
1
  5
E
  6
CONTINUOUS
 62
7
 10
172.1
 20
-79.99999
 30
0.0
  0
VERTEX
  8
1
  5
F
  6
CONTINUOUS
 62
7
 10
172.1
 20
-79.99999
 30
0.0
  0
VERTEX
  8
1
  5
10
  6
CONTINUOUS
 62
7
 10
199.9
 20
-79.99999
 30
0.0
  0
VERTEX
  8
1
  5
11
  6
CONTINUOUS
 62
7
 10
199.9
 20
-79.99999
 30
0.0
 42
-0.414214
  0
VERTEX
  8
1
  5
12
  6
CONTINUOUS
 62
7
 10
204.0
 20
-84.09999
 30
0.0
  0
VERTEX
  8
1
  5
13
  6
CONTINUOUS
 62
7
 10
204.0
 20
-84.656766
 30
0.0
 42
0.493145
  0
VERTEX
  8
1
  5
14
  6
CONTINUOUS
 62
7
 10
209.161158
 20
-88.617062
 30
0.0
  0
VERTEX
  8
1
  5
15
  6
CONTINUOUS
 62
7
 10
209.16116
 20
-88.61706
 30
0.0
  0
VERTEX
  8
1
  5
16
  6
CONTINUOUS
 62
7
 10
216.96116
 20
-86.52706
 30
0.0
  0
VERTEX
  8
1
  5
17
  6
CONTINUOUS
 62
7
 10
216.961158
 20
-86.527058
 30
0.0
 42
0.339454
  0
VERTEX
  8
1
  5
18
  6
CONTINUOUS
 62
7
 10
220.0
 20
-82.566763
 30
0.0
  0
VERTEX
  8
1
  5
19
  6
CONTINUOUS
 62
7
 10
220.0
 20
-82.56676
 30
0.0
  0
VERTEX
  8
1
  5
1A
  6
CONTINUOUS
 62
7
 10
220.0
 20
-67.43322
 30
0.0
  0
VERTEX
  8
1
  5
1B
  6
CONTINUOUS
 62
7
 10
220.0
 20
-67.433217
 30
0.0
 42
0.339454
  0
VERTEX
  8
1
  5
1C
  6
CONTINUOUS
 62
7
 10
216.961158
 20
-63.472922
 30
0.0
  0
VERTEX
  8
1
  5
1D
  6
CONTINUOUS
 62
7
 10
216.96116
 20
-63.47292
 30
0.0
  0
VERTEX
  8
1
  5
1E
  6
CONTINUOUS
 62
7
 10
209.16116
 20
-61.38292
 30
0.0
  0
VERTEX
  8
1
  5
1F
  6
CONTINUOUS
 62
7
 10
209.161158
 20
-61.382918
 30
0.0
 42
0.493145
  0
VERTEX
  8
1
  5
20
  6
CONTINUOUS
 62
7
 10
204.0
 20
-65.343214
 30
0.0
  0
VERTEX
  8
1
  5
21
  6
CONTINUOUS
 62
7
 10
204.0
 20
-65.89999
 30
0.0
 42
-0.414214
  0
VERTEX
  8
1
  5
22
  6
CONTINUOUS
 62
7
 10
199.9
 20
-69.99999
 30
0.0
  0
VERTEX
  8
1
  5
23
  6
CONTINUOUS
 62
7
 10
199.9
 20
-69.99999
 30
0.0
  0
VERTEX
  8
1
  5
24
  6
CONTINUOUS
 62
7
 10
172.1
 20
-69.99999
 30
0.0
  0
VERTEX
  8
1
  5
25
  6
CONTINUOUS
 62
7
 10
172.1
 20
-69.99999
 30
0.0
 42
-0.414214
  0
VERTEX
  8
1
  5
26
  6
CONTINUOUS
 62
7
 10
168.0
 20
-65.89999
 30
0.0
  0
VERTEX
  8
1
  5
27
  6
CONTINUOUS
 62
7
 10
168.0
 20
-65.89999
 30
0.0
  0
VERTEX
  8
1
  5
28
  6
CONTINUOUS
 62
7
 10
168.0
 20
-64.09999
 30
0.0
  0
VERTEX
  8
1
  5
29
  6
CONTINUOUS
 62
7
 10
168.0
 20
-64.09999
 30
0.0
 42
-0.414214
  0
VERTEX
  8
1
  5
2A
  6
CONTINUOUS
 62
7
 10
172.1
 20
-59.99999
 30
0.0
  0
VERTEX
  8
1
  5
2B
  6
CONTINUOUS
 62
7
 10
172.1
 20
-59.99999
 30
0.0
  0
VERTEX
  8
1
  5
2C
  6
CONTINUOUS
 62
7
 10
179.9
 20
-59.99999
 30
0.0
  0
VERTEX
  8
1
  5
2D
  6
CONTINUOUS
 62
7
 10
179.9
 20
-59.99999
 30
0.0
 42
0.414214
  0
VERTEX
  8
1
  5
2E
  6
CONTINUOUS
 62
7
 10
184.0
 20
-55.89999
 30
0.0
  0
VERTEX
  8
1
  5
2F
  6
CONTINUOUS
 62
7
 10
184.0
 20
-55.89999
 30
0.0
  0
VERTEX
  8
1
  5
30
  6
CONTINUOUS
 62
7
 10
184.0
 20
-49.99999
 30
0.0
  0
SEQEND
  8
1
  5
31
  0
POLYLINE
  8
1
  5
33
  6
CONTINUOUS
 62
7
 10
0.0
 20
0.0
 30
0.0
 66
1
 70
0
  0
VERTEX
  8
1
  5
34
  6
CONTINUOUS
 62
7
 10
168.0
 20
-99.99999
 30
0.0
  0
VERTEX
  8
1
  5
35
  6
CONTINUOUS
 62
7
 10
168.0
 20
-84.09999
 30
0.0
  0
VERTEX
  8
1
  5
36
  6
CONTINUOUS
 62
7
 10
168.0
 20
-84.09999
 30
0.0
 42
-0.414214
  0
VERTEX
  8
1
  5
37
  6
CONTINUOUS
 62
7
 10
172.1
 20
-79.99999
 30
0.0
  0
VERTEX
  8
1
  5
38
  6
CONTINUOUS
 62
7
 10
172.1
 20
-79.99999
 30
0.0
  0
VERTEX
  8
1
  5
39
  6
CONTINUOUS
 62
7
 10
179.9
 20
-79.99999
 30
0.0
  0
VERTEX
  8
1
  5
3A
  6
CONTINUOUS
 62
7
 10
179.9
 20
-79.99999
 30
0.0
 42
0.414214
  0
VERTEX
  8
1
  5
3B
  6
CONTINUOUS
 62
7
 10
184.0
 20
-75.89999
 30
0.0
  0
VERTEX
  8
1
  5
3C
  6
CONTINUOUS
 62
7
 10
184.0
 20
-74.09999
 30
0.0
 42
0.414214
  0
VERTEX
  8
1
  5
3D
  6
CONTINUOUS
 62
7
 10
179.9
 20
-69.99999
 30
0.0
  0
VERTEX
  8
1
  5
3E
  6
CONTINUOUS
 62
7
 10
179.9
 20
-69.99999
 30
0.0
  0
VERTEX
  8
1
  5
3F
  6
CONTINUOUS
 62
7
 10
172.1
 20
-69.99999
 30
0.0
  0
VERTEX
  8
1
  5
40
  6
CONTINUOUS
 62
7
 10
172.1
 20
-69.99999
 30
0.0
 42
-0.414214
  0
VERTEX
  8
1
  5
41
  6
CONTINUOUS
 62
7
 10
168.0
 20
-65.89999
 30
0.0
  0
VERTEX
  8
1
  5
42
  6
CONTINUOUS
 62
7
 10
168.0
 20
-65.89999
 30
0.0
  0
VERTEX
  8
1
  5
43
  6
CONTINUOUS
 62
7
 10
168.0
 20
-49.99999
 30
0.0
  0
SEQEND
  8
1
  5
44
  0
POLYLINE
  8
1
  5
46
  6
CONTINUOUS
 62
7
 10
0.0
 20
0.0
 30
0.0
 66
1
 70
0
  0
VERTEX
  8
1
  5
47
  6
CONTINUOUS
 62
7
 10
240.0
 20
-49.99999
 30
0.0
  0
VERTEX
  8
1
  5
48
  6
CONTINUOUS
 62
7
 10
430.0
 20
-49.99999
 30
0.0
  0
VERTEX
  8
1
  5
49
  6
CONTINUOUS
 62
7
 10
430.0
 20
-49.99999
 30
0.0
  0
VERTEX
  8
1
  5
4A
  6
CONTINUOUS
 62
7
 10
430.0
 20
-99.99999
 30
0.0
  0
VERTEX
  8
1
  5
4B
  6
CONTINUOUS
 62
7
 10
430.0
 20
-99.99999
 30
0.0
  0
VERTEX
  8
1
  5
4C
  6
CONTINUOUS
 62
7
 10
240.0
 20
-99.99999
 30
0.0
  0
SEQEND
  8
1
  5
4D
  0
POLYLINE
  8
1
  5
4F
  6
CONTINUOUS
 62
7
 10
0.0
 20
0.0
 30
0.0
 66
1
 70
0
  0
VERTEX
  8
1
  5
50
  6
CONTINUOUS
 62
7
 10
240.0
 20
-49.99999
 30
0.0
  0
VERTEX
  8
1
  5
51
  6
CONTINUOUS
 62
7
 10
240.0
 20
-65.89999
 30
0.0
  0
VERTEX
  8
1
  5
52
  6
CONTINUOUS
 62
7
 10
240.0
 20
-65.89999
 30
0.0
 42
0.414214
  0
VERTEX
  8
1
  5
53
  6
CONTINUOUS
 62
7
 10
244.1
 20
-69.99999
 30
0.0
  0
VERTEX
  8
1
  5
54
  6
CONTINUOUS
 62
7
 10
244.1
 20
-69.99999
 30
0.0
  0
VERTEX
  8
1
  5
55
  6
CONTINUOUS
 62
7
 10
251.9
 20
-69.99999
 30
0.0
  0
VERTEX
  8
1
  5
56
  6
CONTINUOUS
 62
7
 10
251.9
 20
-69.99999
 30
0.0
 42
-0.414214
  0
VERTEX
  8
1
  5
57
  6
CONTINUOUS
 62
7
 10
256.0
 20
-74.09999
 30
0.0
  0
VERTEX
  8
1
  5
58
  6
CONTINUOUS
 62
7
 10
256.0
 20
-74.09999
 30
0.0
  0
VERTEX
  8
1
  5
59
  6
CONTINUOUS
 62
7
 10
256.0
 20
-75.89999
 30
0.0
  0
VERTEX
  8
1
  5
5A
  6
CONTINUOUS
 62
7
 10
256.0
 20
-75.89999
 30
0.0
 42
-0.414214
  0
VERTEX
  8
1
  5
5B
  6
CONTINUOUS
 62
7
 10
251.9
 20
-79.99999
 30
0.0
  0
VERTEX
  8
1
  5
5C
  6
CONTINUOUS
 62
7
 10
251.9
 20
-79.99999
 30
0.0
  0
VERTEX
  8
1
  5
5D
  6
CONTINUOUS
 62
7
 10
244.1
 20
-79.99999
 30
0.0
  0
VERTEX
  8
1
  5
5E
  6
CONTINUOUS
 62
7
 10
244.1
 20
-79.99999
 30
0.0
 42
0.414214
  0
VERTEX
  8
1
  5
5F
  6
CONTINUOUS
 62
7
 10
240.0
 20
-84.09999
 30
0.0
  0
VERTEX
  8
1
  5
60
  6
CONTINUOUS
 62
7
 10
240.0
 20
-84.09999
 30
0.0
  0
VERTEX
  8
1
  5
61
  6
CONTINUOUS
 62
7
 10
240.0
 20
-99.99999
 30
0.0
  0
SEQEND
  8
1
  5
62
  0
POLYLINE
  8
1
  5
64
  6
CONTINUOUS
 62
7
 10
0.0
 20
0.0
 30
0.0
 66
1
 70
0
  0
VERTEX
  8
1
  5
65
  6
CONTINUOUS
 62
7
 10
256.0
 20
-49.99999
 30
0.0
  0
VERTEX
  8
1
  5
66
  6
CONTINUOUS
 62
7
 10
256.0
 20
-55.89999
 30
0.0
  0
VERTEX
  8
1
  5
67
  6
CONTINUOUS
 62
7
 10
256.0
 20
-55.89999
 30
0.0
 42
-0.414214
  0
VERTEX
  8
1
  5
68
  6
CONTINUOUS
 62
7
 10
251.9
 20
-59.99999
 30
0.0
  0
VERTEX
  8
1
  5
69
  6
CONTINUOUS
 62
7
 10
251.9
 20
-59.99999
 30
0.0
  0
VERTEX
  8
1
  5
6A
  6
CONTINUOUS
 62
7
 10
244.1
 20
-59.99999
 30
0.0
  0
VERTEX
  8
1
  5
6B
  6
CONTINUOUS
 62
7
 10
244.1
 20
-59.99999
 30
0.0
 42
0.414214
  0
VERTEX
  8
1
  5
6C
  6
CONTINUOUS
 62
7
 10
240.0
 20
-64.09999
 30
0.0
  0
VERTEX
  8
1
  5
6D
  6
CONTINUOUS
 62
7
 10
240.0
 20
-64.09999
 30
0.0
  0
VERTEX
  8
1
  5
6E
  6
CONTINUOUS
 62
7
 10
240.0
 20
-65.89999
 30
0.0
  0
VERTEX
  8
1
  5
6F
  6
CONTINUOUS
 62
7
 10
240.0
 20
-65.89999
 30
0.0
 42
0.414214
  0
VERTEX
  8
1
  5
70
  6
CONTINUOUS
 62
7
 10
244.1
 20
-69.99999
 30
0.0
  0
VERTEX
  8
1
  5
71
  6
CONTINUOUS
 62
7
 10
244.1
 20
-69.99999
 30
0.0
  0
VERTEX
  8
1
  5
72
  6
CONTINUOUS
 62
7
 10
271.9
 20
-69.99999
 30
0.0
  0
VERTEX
  8
1
  5
73
  6
CONTINUOUS
 62
7
 10
271.9
 20
-69.99999
 30
0.0
 42
0.414214
  0
VERTEX
  8
1
  5
74
  6
CONTINUOUS
 62
7
 10
276.0
 20
-65.89999
 30
0.0
  0
VERTEX
  8
1
  5
75
  6
CONTINUOUS
 62
7
 10
276.0
 20
-65.343214
 30
0.0
 42
-0.493145
  0
VERTEX
  8
1
  5
76
  6
CONTINUOUS
 62
7
 10
281.161158
 20
-61.382918
 30
0.0
  0
VERTEX
  8
1
  5
77
  6
CONTINUOUS
 62
7
 10
281.16116
 20
-61.38292
 30
0.0
  0
VERTEX
  8
1
  5
78
  6
CONTINUOUS
 62
7
 10
288.96116
 20
-63.47292
 30
0.0
  0
VERTEX
  8
1
  5
79
  6
CONTINUOUS
 62
7
 10
288.961158
 20
-63.472922
 30
0.0
 42
-0.339454
  0
VERTEX
  8
1
  5
7A
  6
CONTINUOUS
 62
7
 10
292.0
 20
-67.433217
 30
0.0
  0
VERTEX
  8
1
  5
7B
  6
CONTINUOUS
 62
7
 10
292.0
 20
-67.43322
 30
0.0
  0
VERTEX
  8
1
  5
7C
  6
CONTINUOUS
 62
7
 10
292.0
 20
-82.56676
 30
0.0
  0
VERTEX
  8
1
  5
7D
  6
CONTINUOUS
 62
7
 10
292.0
 20
-82.566763
 30
0.0
 42
-0.339454
  0
VERTEX
  8
1
  5
7E
  6
CONTINUOUS
 62
7
 10
288.961158
 20
-86.527058
 30
0.0
  0
VERTEX
  8
1
  5
7F
  6
CONTINUOUS
 62
7
 10
288.96116
 20
-86.52706
 30
0.0
  0
VERTEX
  8
1
  5
80
  6
CONTINUOUS
 62
7
 10
281.16116
 20
-88.61706
 30
0.0
  0
VERTEX
  8
1
  5
81
  6
CONTINUOUS
 62
7
 10
281.161158
 20
-88.617062
 30
0.0
 42
-0.493145
  0
VERTEX
  8
1
  5
82
  6
CONTINUOUS
 62
7
 10
276.0
 20
-84.656766
 30
0.0
  0
VERTEX
  8
1
  5
83
  6
CONTINUOUS
 62
7
 10
276.0
 20
-84.09999
 30
0.0
 42
0.414214
  0
VERTEX
  8
1
  5
84
  6
CONTINUOUS
 62
7
 10
271.9
 20
-79.99999
 30
0.0
  0
VERTEX
  8
1
  5
85
  6
CONTINUOUS
 62
7
 10
271.9
 20
-79.99999
 30
0.0
  0
VERTEX
  8
1
  5
86
  6
CONTINUOUS
 62
7
 10
244.1
 20
-79.99999
 30
0.0
  0
VERTEX
  8
1
  5
87
  6
CONTINUOUS
 62
7
 10
244.1
 20
-79.99999
 30
0.0
 42
0.414214
  0
VERTEX
  8
1
  5
88
  6
CONTINUOUS
 62
7
 10
240.0
 20
-84.09999
 30
0.0
  0
VERTEX
  8
1
  5
89
  6
CONTINUOUS
 62
7
 10
240.0
 20
-84.09999
 30
0.0
  0
VERTEX
  8
1
  5
8A
  6
CONTINUOUS
 62
7
 10
240.0
 20
-85.89999
 30
0.0
  0
VERTEX
  8
1
  5
8B
  6
CONTINUOUS
 62
7
 10
240.0
 20
-85.89999
 30
0.0
 42
0.414214
  0
VERTEX
  8
1
  5
8C
  6
CONTINUOUS
 62
7
 10
244.1
 20
-89.99999
 30
0.0
  0
VERTEX
  8
1
  5
8D
  6
CONTINUOUS
 62
7
 10
244.1
 20
-89.99999
 30
0.0
  0
VERTEX
  8
1
  5
8E
  6
CONTINUOUS
 62
7
 10
251.9
 20
-89.99999
 30
0.0
  0
VERTEX
  8
1
  5
8F
  6
CONTINUOUS
 62
7
 10
251.9
 20
-89.99999
 30
0.0
 42
-0.414214
  0
VERTEX
  8
1
  5
90
  6
CONTINUOUS
 62
7
 10
256.0
 20
-94.09999
 30
0.0
  0
VERTEX
  8
1
  5
91
  6
CONTINUOUS
 62
7
 10
256.0
 20
-94.09999
 30
0.0
  0
VERTEX
  8
1
  5
92
  6
CONTINUOUS
 62
7
 10
256.0
 20
-99.99999
 30
0.0
  0
SEQEND
  8
1
  5
93
  0
POLYLINE
  8
1
  5
95
  6
CONTINUOUS
 62
7
 10
0.0
 20
0.0
 30
0.0
 66
1
 70
0
  0
VERTEX
  8
1
  5
96
  6
CONTINUOUS
 62
7
 10
184.0
 20
-49.99999
 30
0.0
  0
VERTEX
  8
1
  5
97
  6
CONTINUOUS
 62
7
 10
30.0
 20
-49.99999
 30
0.0
  0
VERTEX
  8
1
  5
98
  6
CONTINUOUS
 62
7
 10
30.0
 20
-49.99999
 30
0.0
  0
VERTEX
  8
1
  5
99
  6
CONTINUOUS
 62
7
 10
30.0
 20
-99.99999
 30
0.0
  0
VERTEX
  8
1
  5
9A
  6
CONTINUOUS
 62
7
 10
30.0
 20
-99.99999
 30
0.0
  0
VERTEX
  8
1
  5
9B
  6
CONTINUOUS
 62
7
 10
184.0
 20
-99.99999
 30
0.0
  0
SEQEND
  8
1
  5
9C
  0
ENDSEC
  0
EOF
