  0
SECTION
  2
HEADER
  9
$ACADVER
  1
AC1006
  9
$INSBASE
 10
0.0
 20
0.0
 30
0.0
  9
$EXTMAX
 10
771.47537
 20
245.20843
  9
$EXTMIN
 10
257.0151
 20
80.20843
  9
$LIMMAX
 10
12.0
 20
9.0
  9
$LIMMIN
 10
0.0
 20
0.0
  9
$ORTHOMODE
 70
0
  9
$REGENMODE
 70
1
  9
$FILLMODE
 70
1
  9
$QTEXTMODE
 70
0
  9
$MIRRTEXT
 70
1
  9
$DRAGMODE
 70
2
  9
$LTSCALE
 40
1.0
  9
$OSMODE
 70
0
  9
$ATTMODE
 70
1
  9
$TEXTSIZE
 40
0.2
  9
$TRACEWID
 40
0.05
  9
$TEXTSTYLE
  7
STANDARD
  9
$CLAYER
  8
0
  9
$CELTYPE
  6
CONTINUOUS
  9
$CECOLOR
 62
256
  9
$DIMSCALE
 40
1.0
  9
$DIMASZ
 40
0.18
  9
$DIMEXO
 40
0.0625
  9
$DIMDLI
 40
0.38
  9
$DIMRND
 40
0.0
  9
$DIMDLE
 40
0.0
  9
$DIMEXE
 40
0.18
  9
$DIMTP
 40
0.0
  9
$DIMTM
 40
0.0
  9
$DIMTXT
 40
0.18
  9
$DIMCEN
 40
0.09
  9
$DIMTSZ
 40
0.0
  9
$DIMTOL
 70
0
  9
$DIMLIM
 70
0
  9
$DIMTIH
 70
1
  9
$DIMTOH
 70
1
  9
$DIMSE1
 70
0
  9
$DIMSE2
 70
0
  9
$DIMTAD
 70
0
  9
$DIMZIN
 70
0
  9
$DIMBLK
  1

  9
$DIMASO
 70
1
  9
$DIMSHO
 70
1
  9
$DIMPOST
  1

  9
$DIMAPOST
  1

  9
$DIMALT
 70
0
  9
$DIMALTD
 70
2
  9
$DIMALTF
 40
25.4
  9
$DIMLFAC
 40
1.0
  9
$DIMTOFL
 70
0
  9
$DIMTVP
 40
0.0
  9
$DIMTIX
 70
0
  9
$DIMSOXD
 70
0
  9
$DIMSAH
 70
0
  9
$DIMBLK1
  1

  9
$DIMBLK2
  1

  9
$LUNITS
 70
2
  9
$LUPREC
 70
4
  9
$AXISMODE
 70
0
  9
$AXISUNIT
 10
0.0
 20
0.0
  9
$SKETCHINC
 40
0.1
  9
$FILLETRAD
 40
0.0
  9
$AUNITS
 70
0
  9
$AUPREC
 70
0
  9
$MENU
  1
acad
  9
$ELEVATION
 40
0.0
  9
$THICKNESS
 40
0.0
  9
$LIMCHECK
 70
0
  9
$BLIPMODE
 70
1
  9
$CHAMFERA
 40
0.0
  9
$CHAMFERB
 40
0.0
  9
$SKPOLY
 70
0
  9
$TDCREATE
 40
0.0
  9
$TDUPDATE
 40
0.0
  9
$TDINDWG
 40
0.0
  9
$TDUSRTIMER
 40
0.0
  9
$USRTIMER
 70
1
  9
$ANGBASE
 50
0.0
  9
$ANGDIR
 70
0
  9
$PDMODE
 70
0
  9
$PDSIZE
 40
0.0
  9
$PLINEWID
 40
0.0
  9
$COORDS
 70
0
  9
$SPLFRAME
 70
0
  9
$SPLINETYPE
 70
6
  9
$SPLINESEGS
 70
10
  9
$ATTDIA
 70
0
  9
$ATTREQ
 70
1
  9
$HANDLING
 70
1
  9
$HANDSEED
  5
11F
  9
$SURFTAB1
 70
6
  9
$SURFTAB2
 70
6
  9
$SURFTYPE
 70
6
  9
$SURFU
 70
10
  9
$SURFV
 70
10
  9
$FLATLAND
 70
0
  9
$UCSNAME
  2

  9
$UCSORG
 10
0.0
 20
0.0
 30
0.0
  9
$UCSXDIR
 10
1.0
 20
0.0
 30
0.0
  9
$UCSYDIR
 10
0.0
 20
1.0
 30
0.0
  9
$USERI1
 70
0
  9
$USERI2
 70
0
  9
$USERI3
 70
0
  9
$USERI4
 70
0
  9
$USERI5
 70
0
  9
$USERR1
 40
0.0
  9
$USERR2
 40
0.0
  9
$USERR3
 40
0.0
  9
$USERR4
 40
0.0
  9
$USERR5
 40
0.0
  9
$WORLDVIEW
 70
1
  0
ENDSEC
  0
SECTION
  2
TABLES
  0
TABLE
  2
LTYPE
 70
7
  0
LTYPE
  2
CONTINUOUS
 70
64
  3
Solid line
 72
65
 73
0
 40
0.0
  0
LTYPE
  2
DOT
 70
64
  3
. . . . . . . . . . . . . . . . . . . . . . . . . . . . . . . . .
 72
65
 73
2
 40
0.25
 49
0.0
 49
-0.25
  0
LTYPE
  2
HIDDEN
 70
64
  3
__ __ __ __ __ __ __ __ __ __ __ __ __ __ __ __ __ __ __ __ __ 
 72
65
 73
2
 40
0.375
 49
0.25
 49
-0.125
  0
LTYPE
  2
DASHED
 70
64
  3
__ __ __ __ __ __ __ __ __ __ __ __ __ __ __ __ __ __ __ __ __
 72
65
 73
2
 40
0.75
 49
0.5
 49
-0.25
  0
LTYPE
  2
DASHDOT
 70
64
  3
__ . __ . __ . __ . __ . __ . __ . __ . __ . __ . __ . __ . _
 72
65
 73
4
 40
1.0
 49
0.5
 49
-0.25
 49
0.0
 49
-0.25
  0
LTYPE
  2
DIVIDE
 70
64
  3
____ . . ____ . . ____ . . ____ . . ____ . . ____ . . ____ . .
 72
65
 73
6
 40
1.25
 49
0.5
 49
-0.25
 49
0.0
 49
-0.25
 49
0.0
 49
-0.25
  0
LTYPE
  2
CENTER
 70
64
  3
____ _ ____ _ ____ _ ____ _ ____ _ ____ _ ____ _ ____ _ ____ _
 72
65
 73
4
 40
2.0
 49
1.25
 49
-0.25
 49
0.25
 49
-0.25
  0
ENDTAB
  0
TABLE
  2
LAYER
 70
4
  0
LAYER
  2
0
 70
0
 62
7
  6
CONTINUOUS
  0
LAYER
  2
CONSTRUCTION_CLASS
 70
0
 62
7
  6
CONTINUOUS
  0
LAYER
  2
PATTERN_CLASS
 70
0
 62
7
  6
CONTINUOUS
  0
LAYER
  2
1
 70
0
 62
7
  6
CONTINUOUS
  0
ENDTAB
  0
TABLE
  2
STYLE
 70
1
  0
STYLE
  2
STANDARD
 70
0
 40
0.2
 41
1.0
 50
0.0
 71
0
 42
0.0
  3
txt
  4

  0
ENDTAB
  0
TABLE
  2
UCS
 70
0
  0
ENDTAB
  0
TABLE
  2
VIEW
 70
0
  0
ENDTAB
  0
TABLE
  2
VPORT
 70
1
  0
VPORT
  2
*ACTIVE
 70
0
 10
0.0
 20
0.0
 11
1.0
 21
1.0
 12
2.842171E-014
 22
-2.842171E-014
 13
0.0
 23
0.0
 14
0.0
 24
0.0
 15
0.0
 25
0.0
 16
0.0
 26
0.0
 36
1.0
 17
487.400211
 27
162.708425
 37
0.0
 40
349.48339
 41
1.355234
 42
50.0
 43
0.00004
 44
0.0
 50
0.0
 51
0.0
 71
0
 72
100
 73
1
 74
0
 75
0
 76
0
 77
0
 78
0
  0
ENDTAB
  0
ENDSEC
  0
SECTION
  2
BLOCKS
  0
ENDSEC
  0
SECTION
  2
ENTITIES
  0
POLYLINE
  8
1
  5
2
  6
CONTINUOUS
 62
7
 10
0.0
 20
0.0
 30
0.0
 66
1
 70
0
  0
VERTEX
  8
1
  5
3
  6
CONTINUOUS
 62
7
 10
482.01739
 20
245.20843
 30
0.0
  0
VERTEX
  8
1
  5
4
  6
CONTINUOUS
 62
7
 10
257.0151
 20
245.20843
 30
0.0
  0
VERTEX
  8
1
  5
5
  6
CONTINUOUS
 62
7
 10
257.0151
 20
245.20843
 30
0.0
  0
VERTEX
  8
1
  5
6
  6
CONTINUOUS
 62
7
 10
257.0151
 20
80.20843
 30
0.0
  0
VERTEX
  8
1
  5
7
  6
CONTINUOUS
 62
7
 10
257.0151
 20
80.20843
 30
0.0
  0
VERTEX
  8
1
  5
8
  6
CONTINUOUS
 62
7
 10
482.01739
 20
80.20843
 30
0.0
  0
SEQEND
  8
1
  5
9
  0
POLYLINE
  8
1
  5
B
  6
CONTINUOUS
 62
7
 10
0.0
 20
0.0
 30
0.0
 66
1
 70
0
  0
VERTEX
  8
1
  5
C
  6
CONTINUOUS
 62
7
 10
531.47537
 20
80.20843
 30
0.0
  0
VERTEX
  8
1
  5
D
  6
CONTINUOUS
 62
7
 10
771.47537
 20
80.20843
 30
0.0
  0
VERTEX
  8
1
  5
E
  6
CONTINUOUS
 62
7
 10
771.47537
 20
80.20843
 30
0.0
  0
VERTEX
  8
1
  5
F
  6
CONTINUOUS
 62
7
 10
771.47537
 20
245.20843
 30
0.0
  0
VERTEX
  8
1
  5
10
  6
CONTINUOUS
 62
7
 10
771.47537
 20
245.20843
 30
0.0
  0
VERTEX
  8
1
  5
11
  6
CONTINUOUS
 62
7
 10
531.47537
 20
245.20843
 30
0.0
  0
SEQEND
  8
1
  5
12
  0
POLYLINE
  8
1
  5
14
  6
CONTINUOUS
 62
7
 10
0.0
 20
0.0
 30
0.0
 66
1
 70
0
  0
VERTEX
  8
1
  5
15
  6
CONTINUOUS
 62
7
 10
531.47537
 20
245.20843
 30
0.0
  0
VERTEX
  8
1
  5
16
  6
CONTINUOUS
 62
7
 10
531.47537
 20
226.25843
 30
0.0
  0
VERTEX
  8
1
  5
17
  6
CONTINUOUS
 62
7
 10
531.47537
 20
226.25843
 30
0.0
  0
VERTEX
  8
1
  5
18
  6
CONTINUOUS
 62
7
 10
538.97537
 20
226.25843
 30
0.0
  0
VERTEX
  8
1
  5
19
  6
CONTINUOUS
 62
7
 10
538.97537
 20
226.25843
 30
0.0
  0
VERTEX
  8
1
  5
1A
  6
CONTINUOUS
 62
7
 10
538.97537
 20
230.35843
 30
0.0
  0
VERTEX
  8
1
  5
1B
  6
CONTINUOUS
 62
7
 10
538.975368
 20
230.358426
 30
0.0
 42
-0.414214
  0
VERTEX
  8
1
  5
1C
  6
CONTINUOUS
 62
7
 10
543.075368
 20
234.458426
 30
0.0
  0
VERTEX
  8
1
  5
1D
  6
CONTINUOUS
 62
7
 10
543.07537
 20
234.45843
 30
0.0
  0
VERTEX
  8
1
  5
1E
  6
CONTINUOUS
 62
7
 10
550.57537
 20
234.45843
 30
0.0
  0
VERTEX
  8
1
  5
1F
  6
CONTINUOUS
 62
7
 10
550.575368
 20
234.458426
 30
0.0
 42
-0.414214
  0
VERTEX
  8
1
  5
20
  6
CONTINUOUS
 62
7
 10
554.675368
 20
230.358426
 30
0.0
  0
VERTEX
  8
1
  5
21
  6
CONTINUOUS
 62
7
 10
554.67537
 20
230.35843
 30
0.0
  0
VERTEX
  8
1
  5
22
  6
CONTINUOUS
 62
7
 10
554.67537
 20
224.20843
 30
0.0
  0
VERTEX
  8
1
  5
23
  6
CONTINUOUS
 62
7
 10
554.675368
 20
224.208426
 30
0.0
 42
-0.414214
  0
VERTEX
  8
1
  5
24
  6
CONTINUOUS
 62
7
 10
550.575368
 20
220.108426
 30
0.0
  0
VERTEX
  8
1
  5
25
  6
CONTINUOUS
 62
7
 10
550.57537
 20
220.10843
 30
0.0
  0
VERTEX
  8
1
  5
26
  6
CONTINUOUS
 62
7
 10
546.47537
 20
220.10843
 30
0.0
  0
VERTEX
  8
1
  5
27
  6
CONTINUOUS
 62
7
 10
546.47537
 20
220.10843
 30
0.0
  0
VERTEX
  8
1
  5
28
  6
CONTINUOUS
 62
7
 10
546.47537
 20
211.90843
 30
0.0
  0
VERTEX
  8
1
  5
29
  6
CONTINUOUS
 62
7
 10
546.47537
 20
211.90843
 30
0.0
  0
VERTEX
  8
1
  5
2A
  6
CONTINUOUS
 62
7
 10
550.57537
 20
211.90843
 30
0.0
  0
VERTEX
  8
1
  5
2B
  6
CONTINUOUS
 62
7
 10
550.575368
 20
211.908426
 30
0.0
 42
-0.414214
  0
VERTEX
  8
1
  5
2C
  6
CONTINUOUS
 62
7
 10
554.675368
 20
207.808426
 30
0.0
  0
VERTEX
  8
1
  5
2D
  6
CONTINUOUS
 62
7
 10
554.67537
 20
207.80843
 30
0.0
  0
VERTEX
  8
1
  5
2E
  6
CONTINUOUS
 62
7
 10
554.67537
 20
201.65843
 30
0.0
  0
VERTEX
  8
1
  5
2F
  6
CONTINUOUS
 62
7
 10
554.675368
 20
201.658426
 30
0.0
 42
-0.414214
  0
VERTEX
  8
1
  5
30
  6
CONTINUOUS
 62
7
 10
550.575368
 20
197.558426
 30
0.0
  0
VERTEX
  8
1
  5
31
  6
CONTINUOUS
 62
7
 10
550.57537
 20
197.55843
 30
0.0
  0
VERTEX
  8
1
  5
32
  6
CONTINUOUS
 62
7
 10
543.07537
 20
197.55843
 30
0.0
  0
VERTEX
  8
1
  5
33
  6
CONTINUOUS
 62
7
 10
543.075368
 20
197.558426
 30
0.0
 42
-0.414214
  0
VERTEX
  8
1
  5
34
  6
CONTINUOUS
 62
7
 10
538.975368
 20
201.658426
 30
0.0
  0
VERTEX
  8
1
  5
35
  6
CONTINUOUS
 62
7
 10
538.97537
 20
201.65843
 30
0.0
  0
VERTEX
  8
1
  5
36
  6
CONTINUOUS
 62
7
 10
538.97537
 20
205.75843
 30
0.0
  0
VERTEX
  8
1
  5
37
  6
CONTINUOUS
 62
7
 10
538.97537
 20
205.75843
 30
0.0
  0
VERTEX
  8
1
  5
38
  6
CONTINUOUS
 62
7
 10
531.47537
 20
205.75843
 30
0.0
  0
VERTEX
  8
1
  5
39
  6
CONTINUOUS
 62
7
 10
531.47537
 20
205.75843
 30
0.0
  0
VERTEX
  8
1
  5
3A
  6
CONTINUOUS
 62
7
 10
531.47537
 20
172.95843
 30
0.0
  0
VERTEX
  8
1
  5
3B
  6
CONTINUOUS
 62
7
 10
531.47537
 20
172.95843
 30
0.0
  0
VERTEX
  8
1
  5
3C
  6
CONTINUOUS
 62
7
 10
538.97537
 20
172.95843
 30
0.0
  0
VERTEX
  8
1
  5
3D
  6
CONTINUOUS
 62
7
 10
538.97537
 20
172.95843
 30
0.0
  0
VERTEX
  8
1
  5
3E
  6
CONTINUOUS
 62
7
 10
538.97537
 20
177.05843
 30
0.0
  0
VERTEX
  8
1
  5
3F
  6
CONTINUOUS
 62
7
 10
538.975368
 20
177.058426
 30
0.0
 42
-0.414214
  0
VERTEX
  8
1
  5
40
  6
CONTINUOUS
 62
7
 10
543.075368
 20
181.158426
 30
0.0
  0
VERTEX
  8
1
  5
41
  6
CONTINUOUS
 62
7
 10
543.07537
 20
181.15843
 30
0.0
  0
VERTEX
  8
1
  5
42
  6
CONTINUOUS
 62
7
 10
550.57537
 20
181.15843
 30
0.0
  0
VERTEX
  8
1
  5
43
  6
CONTINUOUS
 62
7
 10
550.575368
 20
181.158426
 30
0.0
 42
-0.414214
  0
VERTEX
  8
1
  5
44
  6
CONTINUOUS
 62
7
 10
554.675368
 20
177.058426
 30
0.0
  0
VERTEX
  8
1
  5
45
  6
CONTINUOUS
 62
7
 10
554.67537
 20
177.05843
 30
0.0
  0
VERTEX
  8
1
  5
46
  6
CONTINUOUS
 62
7
 10
554.67537
 20
170.90843
 30
0.0
  0
VERTEX
  8
1
  5
47
  6
CONTINUOUS
 62
7
 10
554.675368
 20
170.908426
 30
0.0
 42
-0.414214
  0
VERTEX
  8
1
  5
48
  6
CONTINUOUS
 62
7
 10
550.575368
 20
166.808426
 30
0.0
  0
VERTEX
  8
1
  5
49
  6
CONTINUOUS
 62
7
 10
550.57537
 20
166.80843
 30
0.0
  0
VERTEX
  8
1
  5
4A
  6
CONTINUOUS
 62
7
 10
546.47537
 20
166.80843
 30
0.0
  0
VERTEX
  8
1
  5
4B
  6
CONTINUOUS
 62
7
 10
546.47537
 20
166.80843
 30
0.0
  0
VERTEX
  8
1
  5
4C
  6
CONTINUOUS
 62
7
 10
546.47537
 20
158.60843
 30
0.0
  0
VERTEX
  8
1
  5
4D
  6
CONTINUOUS
 62
7
 10
546.47537
 20
158.60843
 30
0.0
  0
VERTEX
  8
1
  5
4E
  6
CONTINUOUS
 62
7
 10
550.57537
 20
158.60843
 30
0.0
  0
VERTEX
  8
1
  5
4F
  6
CONTINUOUS
 62
7
 10
550.575368
 20
158.608426
 30
0.0
 42
-0.414214
  0
VERTEX
  8
1
  5
50
  6
CONTINUOUS
 62
7
 10
554.675368
 20
154.508426
 30
0.0
  0
VERTEX
  8
1
  5
51
  6
CONTINUOUS
 62
7
 10
554.67537
 20
154.50843
 30
0.0
  0
VERTEX
  8
1
  5
52
  6
CONTINUOUS
 62
7
 10
554.67537
 20
148.35843
 30
0.0
  0
VERTEX
  8
1
  5
53
  6
CONTINUOUS
 62
7
 10
554.675368
 20
148.358426
 30
0.0
 42
-0.414214
  0
VERTEX
  8
1
  5
54
  6
CONTINUOUS
 62
7
 10
550.575368
 20
144.258426
 30
0.0
  0
VERTEX
  8
1
  5
55
  6
CONTINUOUS
 62
7
 10
550.57537
 20
144.25843
 30
0.0
  0
VERTEX
  8
1
  5
56
  6
CONTINUOUS
 62
7
 10
543.07537
 20
144.25843
 30
0.0
  0
VERTEX
  8
1
  5
57
  6
CONTINUOUS
 62
7
 10
543.075368
 20
144.258426
 30
0.0
 42
-0.414214
  0
VERTEX
  8
1
  5
58
  6
CONTINUOUS
 62
7
 10
538.975368
 20
148.358426
 30
0.0
  0
VERTEX
  8
1
  5
59
  6
CONTINUOUS
 62
7
 10
538.97537
 20
148.35843
 30
0.0
  0
VERTEX
  8
1
  5
5A
  6
CONTINUOUS
 62
7
 10
538.97537
 20
152.45843
 30
0.0
  0
VERTEX
  8
1
  5
5B
  6
CONTINUOUS
 62
7
 10
538.97537
 20
152.45843
 30
0.0
  0
VERTEX
  8
1
  5
5C
  6
CONTINUOUS
 62
7
 10
531.47537
 20
152.45843
 30
0.0
  0
VERTEX
  8
1
  5
5D
  6
CONTINUOUS
 62
7
 10
531.47537
 20
152.45843
 30
0.0
  0
VERTEX
  8
1
  5
5E
  6
CONTINUOUS
 62
7
 10
531.47537
 20
119.65843
 30
0.0
  0
VERTEX
  8
1
  5
5F
  6
CONTINUOUS
 62
7
 10
531.47537
 20
119.65843
 30
0.0
  0
VERTEX
  8
1
  5
60
  6
CONTINUOUS
 62
7
 10
538.97537
 20
119.65843
 30
0.0
  0
VERTEX
  8
1
  5
61
  6
CONTINUOUS
 62
7
 10
538.97537
 20
119.65843
 30
0.0
  0
VERTEX
  8
1
  5
62
  6
CONTINUOUS
 62
7
 10
538.97537
 20
123.75843
 30
0.0
  0
VERTEX
  8
1
  5
63
  6
CONTINUOUS
 62
7
 10
538.975368
 20
123.758426
 30
0.0
 42
-0.414214
  0
VERTEX
  8
1
  5
64
  6
CONTINUOUS
 62
7
 10
543.075368
 20
127.858426
 30
0.0
  0
VERTEX
  8
1
  5
65
  6
CONTINUOUS
 62
7
 10
543.07537
 20
127.85843
 30
0.0
  0
VERTEX
  8
1
  5
66
  6
CONTINUOUS
 62
7
 10
550.57537
 20
127.85843
 30
0.0
  0
VERTEX
  8
1
  5
67
  6
CONTINUOUS
 62
7
 10
550.575368
 20
127.858426
 30
0.0
 42
-0.414214
  0
VERTEX
  8
1
  5
68
  6
CONTINUOUS
 62
7
 10
554.675368
 20
123.758426
 30
0.0
  0
VERTEX
  8
1
  5
69
  6
CONTINUOUS
 62
7
 10
554.67537
 20
123.75843
 30
0.0
  0
VERTEX
  8
1
  5
6A
  6
CONTINUOUS
 62
7
 10
554.67537
 20
117.60843
 30
0.0
  0
VERTEX
  8
1
  5
6B
  6
CONTINUOUS
 62
7
 10
554.675368
 20
117.608426
 30
0.0
 42
-0.414214
  0
VERTEX
  8
1
  5
6C
  6
CONTINUOUS
 62
7
 10
550.575368
 20
113.508426
 30
0.0
  0
VERTEX
  8
1
  5
6D
  6
CONTINUOUS
 62
7
 10
550.57537
 20
113.50843
 30
0.0
  0
VERTEX
  8
1
  5
6E
  6
CONTINUOUS
 62
7
 10
546.47537
 20
113.50843
 30
0.0
  0
VERTEX
  8
1
  5
6F
  6
CONTINUOUS
 62
7
 10
546.47537
 20
113.50843
 30
0.0
  0
VERTEX
  8
1
  5
70
  6
CONTINUOUS
 62
7
 10
546.47537
 20
105.30843
 30
0.0
  0
VERTEX
  8
1
  5
71
  6
CONTINUOUS
 62
7
 10
546.47537
 20
105.30843
 30
0.0
  0
VERTEX
  8
1
  5
72
  6
CONTINUOUS
 62
7
 10
550.57537
 20
105.30843
 30
0.0
  0
VERTEX
  8
1
  5
73
  6
CONTINUOUS
 62
7
 10
550.575368
 20
105.308426
 30
0.0
 42
-0.414214
  0
VERTEX
  8
1
  5
74
  6
CONTINUOUS
 62
7
 10
554.675368
 20
101.208426
 30
0.0
  0
VERTEX
  8
1
  5
75
  6
CONTINUOUS
 62
7
 10
554.67537
 20
101.20843
 30
0.0
  0
VERTEX
  8
1
  5
76
  6
CONTINUOUS
 62
7
 10
554.67537
 20
95.05843
 30
0.0
  0
VERTEX
  8
1
  5
77
  6
CONTINUOUS
 62
7
 10
554.675368
 20
95.058426
 30
0.0
 42
-0.414214
  0
VERTEX
  8
1
  5
78
  6
CONTINUOUS
 62
7
 10
550.575368
 20
90.958426
 30
0.0
  0
VERTEX
  8
1
  5
79
  6
CONTINUOUS
 62
7
 10
550.57537
 20
90.95843
 30
0.0
  0
VERTEX
  8
1
  5
7A
  6
CONTINUOUS
 62
7
 10
543.07537
 20
90.95843
 30
0.0
  0
VERTEX
  8
1
  5
7B
  6
CONTINUOUS
 62
7
 10
543.075368
 20
90.958426
 30
0.0
 42
-0.414214
  0
VERTEX
  8
1
  5
7C
  6
CONTINUOUS
 62
7
 10
538.975368
 20
95.058426
 30
0.0
  0
VERTEX
  8
1
  5
7D
  6
CONTINUOUS
 62
7
 10
538.97537
 20
95.05843
 30
0.0
  0
VERTEX
  8
1
  5
7E
  6
CONTINUOUS
 62
7
 10
538.97537
 20
99.15843
 30
0.0
  0
VERTEX
  8
1
  5
7F
  6
CONTINUOUS
 62
7
 10
538.97537
 20
99.15843
 30
0.0
  0
VERTEX
  8
1
  5
80
  6
CONTINUOUS
 62
7
 10
531.47537
 20
99.15843
 30
0.0
  0
VERTEX
  8
1
  5
81
  6
CONTINUOUS
 62
7
 10
531.47537
 20
99.15843
 30
0.0
  0
VERTEX
  8
1
  5
82
  6
CONTINUOUS
 62
7
 10
531.47537
 20
80.20843
 30
0.0
  0
SEQEND
  8
1
  5
83
  0
POLYLINE
  8
1
  5
85
  6
CONTINUOUS
 62
7
 10
0.0
 20
0.0
 30
0.0
 66
1
 70
0
  0
VERTEX
  8
1
  5
86
  6
CONTINUOUS
 62
7
 10
482.01739
 20
245.20843
 30
0.0
  0
VERTEX
  8
1
  5
87
  6
CONTINUOUS
 62
7
 10
482.01739
 20
238.55843
 30
0.0
  0
VERTEX
  8
1
  5
88
  6
CONTINUOUS
 62
7
 10
482.01739
 20
238.55843
 30
0.0
  0
VERTEX
  8
1
  5
89
  6
CONTINUOUS
 62
7
 10
477.91739
 20
238.55843
 30
0.0
  0
VERTEX
  8
1
  5
8A
  6
CONTINUOUS
 62
7
 10
477.917388
 20
238.558426
 30
0.0
 42
0.414214
  0
VERTEX
  8
1
  5
8B
  6
CONTINUOUS
 62
7
 10
473.817388
 20
234.458426
 30
0.0
  0
VERTEX
  8
1
  5
8C
  6
CONTINUOUS
 62
7
 10
473.817388
 20
234.458426
 30
0.0
 42
0.414214
  0
VERTEX
  8
1
  5
8D
  6
CONTINUOUS
 62
7
 10
477.917388
 20
230.358426
 30
0.0
  0
VERTEX
  8
1
  5
8E
  6
CONTINUOUS
 62
7
 10
477.91739
 20
230.35843
 30
0.0
  0
VERTEX
  8
1
  5
8F
  6
CONTINUOUS
 62
7
 10
497.0151
 20
230.35843
 30
0.0
  0
VERTEX
  8
1
  5
90
  6
CONTINUOUS
 62
7
 10
497.0151
 20
230.35843
 30
0.0
  0
VERTEX
  8
1
  5
91
  6
CONTINUOUS
 62
7
 10
497.0151
 20
226.25843
 30
0.0
  0
VERTEX
  8
1
  5
92
  6
CONTINUOUS
 62
7
 10
497.0151
 20
226.25843
 30
0.0
  0
VERTEX
  8
1
  5
93
  6
CONTINUOUS
 62
7
 10
497.0151
 20
205.75843
 30
0.0
  0
VERTEX
  8
1
  5
94
  6
CONTINUOUS
 62
7
 10
497.0151
 20
205.75843
 30
0.0
  0
VERTEX
  8
1
  5
95
  6
CONTINUOUS
 62
7
 10
497.0151
 20
201.65843
 30
0.0
  0
VERTEX
  8
1
  5
96
  6
CONTINUOUS
 62
7
 10
497.0151
 20
201.65843
 30
0.0
  0
VERTEX
  8
1
  5
97
  6
CONTINUOUS
 62
7
 10
477.91739
 20
201.65843
 30
0.0
  0
VERTEX
  8
1
  5
98
  6
CONTINUOUS
 62
7
 10
477.917388
 20
201.658426
 30
0.0
 42
0.414214
  0
VERTEX
  8
1
  5
99
  6
CONTINUOUS
 62
7
 10
473.817388
 20
197.558426
 30
0.0
  0
VERTEX
  8
1
  5
9A
  6
CONTINUOUS
 62
7
 10
473.817388
 20
197.558426
 30
0.0
 42
0.414214
  0
VERTEX
  8
1
  5
9B
  6
CONTINUOUS
 62
7
 10
477.917388
 20
193.458426
 30
0.0
  0
VERTEX
  8
1
  5
9C
  6
CONTINUOUS
 62
7
 10
477.91739
 20
193.45843
 30
0.0
  0
VERTEX
  8
1
  5
9D
  6
CONTINUOUS
 62
7
 10
482.01739
 20
193.45843
 30
0.0
  0
VERTEX
  8
1
  5
9E
  6
CONTINUOUS
 62
7
 10
482.01739
 20
193.45843
 30
0.0
  0
VERTEX
  8
1
  5
9F
  6
CONTINUOUS
 62
7
 10
482.01739
 20
185.25843
 30
0.0
  0
VERTEX
  8
1
  5
A0
  6
CONTINUOUS
 62
7
 10
482.01739
 20
185.25843
 30
0.0
  0
VERTEX
  8
1
  5
A1
  6
CONTINUOUS
 62
7
 10
477.91739
 20
185.25843
 30
0.0
  0
VERTEX
  8
1
  5
A2
  6
CONTINUOUS
 62
7
 10
477.917388
 20
185.258426
 30
0.0
 42
0.414214
  0
VERTEX
  8
1
  5
A3
  6
CONTINUOUS
 62
7
 10
473.817388
 20
181.158426
 30
0.0
  0
VERTEX
  8
1
  5
A4
  6
CONTINUOUS
 62
7
 10
473.817388
 20
181.158426
 30
0.0
 42
0.414214
  0
VERTEX
  8
1
  5
A5
  6
CONTINUOUS
 62
7
 10
477.917388
 20
177.058426
 30
0.0
  0
VERTEX
  8
1
  5
A6
  6
CONTINUOUS
 62
7
 10
477.91739
 20
177.05843
 30
0.0
  0
VERTEX
  8
1
  5
A7
  6
CONTINUOUS
 62
7
 10
497.0151
 20
177.05843
 30
0.0
  0
VERTEX
  8
1
  5
A8
  6
CONTINUOUS
 62
7
 10
497.0151
 20
177.05843
 30
0.0
  0
VERTEX
  8
1
  5
A9
  6
CONTINUOUS
 62
7
 10
497.0151
 20
172.95843
 30
0.0
  0
VERTEX
  8
1
  5
AA
  6
CONTINUOUS
 62
7
 10
497.0151
 20
172.95843
 30
0.0
  0
VERTEX
  8
1
  5
AB
  6
CONTINUOUS
 62
7
 10
497.0151
 20
152.45843
 30
0.0
  0
VERTEX
  8
1
  5
AC
  6
CONTINUOUS
 62
7
 10
497.0151
 20
152.45843
 30
0.0
  0
VERTEX
  8
1
  5
AD
  6
CONTINUOUS
 62
7
 10
497.0151
 20
148.35843
 30
0.0
  0
VERTEX
  8
1
  5
AE
  6
CONTINUOUS
 62
7
 10
497.0151
 20
148.35843
 30
0.0
  0
VERTEX
  8
1
  5
AF
  6
CONTINUOUS
 62
7
 10
477.91739
 20
148.35843
 30
0.0
  0
VERTEX
  8
1
  5
B0
  6
CONTINUOUS
 62
7
 10
477.917388
 20
148.358426
 30
0.0
 42
0.414214
  0
VERTEX
  8
1
  5
B1
  6
CONTINUOUS
 62
7
 10
473.817388
 20
144.258426
 30
0.0
  0
VERTEX
  8
1
  5
B2
  6
CONTINUOUS
 62
7
 10
473.817388
 20
144.258426
 30
0.0
 42
0.414214
  0
VERTEX
  8
1
  5
B3
  6
CONTINUOUS
 62
7
 10
477.917388
 20
140.158426
 30
0.0
  0
VERTEX
  8
1
  5
B4
  6
CONTINUOUS
 62
7
 10
477.91739
 20
140.15843
 30
0.0
  0
VERTEX
  8
1
  5
B5
  6
CONTINUOUS
 62
7
 10
482.01739
 20
140.15843
 30
0.0
  0
VERTEX
  8
1
  5
B6
  6
CONTINUOUS
 62
7
 10
482.01739
 20
140.15843
 30
0.0
  0
VERTEX
  8
1
  5
B7
  6
CONTINUOUS
 62
7
 10
482.01739
 20
131.95843
 30
0.0
  0
VERTEX
  8
1
  5
B8
  6
CONTINUOUS
 62
7
 10
482.01739
 20
131.95843
 30
0.0
  0
VERTEX
  8
1
  5
B9
  6
CONTINUOUS
 62
7
 10
477.91739
 20
131.95843
 30
0.0
  0
VERTEX
  8
1
  5
BA
  6
CONTINUOUS
 62
7
 10
477.917388
 20
131.958426
 30
0.0
 42
0.414214
  0
VERTEX
  8
1
  5
BB
  6
CONTINUOUS
 62
7
 10
473.817388
 20
127.858426
 30
0.0
  0
VERTEX
  8
1
  5
BC
  6
CONTINUOUS
 62
7
 10
473.817388
 20
127.858426
 30
0.0
 42
0.414214
  0
VERTEX
  8
1
  5
BD
  6
CONTINUOUS
 62
7
 10
477.917388
 20
123.758426
 30
0.0
  0
VERTEX
  8
1
  5
BE
  6
CONTINUOUS
 62
7
 10
477.91739
 20
123.75843
 30
0.0
  0
VERTEX
  8
1
  5
BF
  6
CONTINUOUS
 62
7
 10
497.0151
 20
123.75843
 30
0.0
  0
VERTEX
  8
1
  5
C0
  6
CONTINUOUS
 62
7
 10
497.0151
 20
123.75843
 30
0.0
  0
VERTEX
  8
1
  5
C1
  6
CONTINUOUS
 62
7
 10
497.0151
 20
119.65843
 30
0.0
  0
VERTEX
  8
1
  5
C2
  6
CONTINUOUS
 62
7
 10
497.0151
 20
119.65843
 30
0.0
  0
VERTEX
  8
1
  5
C3
  6
CONTINUOUS
 62
7
 10
497.0151
 20
99.15843
 30
0.0
  0
VERTEX
  8
1
  5
C4
  6
CONTINUOUS
 62
7
 10
497.0151
 20
99.15843
 30
0.0
  0
VERTEX
  8
1
  5
C5
  6
CONTINUOUS
 62
7
 10
497.0151
 20
95.05843
 30
0.0
  0
VERTEX
  8
1
  5
C6
  6
CONTINUOUS
 62
7
 10
497.0151
 20
95.05843
 30
0.0
  0
VERTEX
  8
1
  5
C7
  6
CONTINUOUS
 62
7
 10
477.91739
 20
95.05843
 30
0.0
  0
VERTEX
  8
1
  5
C8
  6
CONTINUOUS
 62
7
 10
477.917388
 20
95.058426
 30
0.0
 42
0.414214
  0
VERTEX
  8
1
  5
C9
  6
CONTINUOUS
 62
7
 10
473.817388
 20
90.958426
 30
0.0
  0
VERTEX
  8
1
  5
CA
  6
CONTINUOUS
 62
7
 10
473.817388
 20
90.958426
 30
0.0
 42
0.414214
  0
VERTEX
  8
1
  5
CB
  6
CONTINUOUS
 62
7
 10
477.917388
 20
86.858426
 30
0.0
  0
VERTEX
  8
1
  5
CC
  6
CONTINUOUS
 62
7
 10
477.91739
 20
86.85843
 30
0.0
  0
VERTEX
  8
1
  5
CD
  6
CONTINUOUS
 62
7
 10
482.01739
 20
86.85843
 30
0.0
  0
VERTEX
  8
1
  5
CE
  6
CONTINUOUS
 62
7
 10
482.01739
 20
86.85843
 30
0.0
  0
VERTEX
  8
1
  5
CF
  6
CONTINUOUS
 62
7
 10
482.01739
 20
80.20843
 30
0.0
  0
SEQEND
  8
1
  5
D0
  0
POLYLINE
  8
1
  5
D2
  6
CONTINUOUS
 62
7
 10
0.0
 20
0.0
 30
0.0
 66
1
 70
0
  0
VERTEX
  8
1
  5
D3
  6
CONTINUOUS
 62
7
 10
482.01739
 20
245.20843
 30
0.0
  0
VERTEX
  8
1
  5
D4
  6
CONTINUOUS
 62
7
 10
482.01739
 20
238.55843
 30
0.0
  0
VERTEX
  8
1
  5
D5
  6
CONTINUOUS
 62
7
 10
482.01739
 20
238.55843
 30
0.0
  0
VERTEX
  8
1
  5
D6
  6
CONTINUOUS
 62
7
 10
477.91739
 20
238.55843
 30
0.0
  0
VERTEX
  8
1
  5
D7
  6
CONTINUOUS
 62
7
 10
477.917388
 20
238.558426
 30
0.0
 42
0.414214
  0
VERTEX
  8
1
  5
D8
  6
CONTINUOUS
 62
7
 10
473.817388
 20
234.458426
 30
0.0
  0
VERTEX
  8
1
  5
D9
  6
CONTINUOUS
 62
7
 10
473.81739
 20
234.45843
 30
0.0
  0
VERTEX
  8
1
  5
DA
  6
CONTINUOUS
 62
7
 10
473.81739
 20
230.35843
 30
0.0
  0
VERTEX
  8
1
  5
DB
  6
CONTINUOUS
 62
7
 10
473.817388
 20
230.358426
 30
0.0
 42
0.414214
  0
VERTEX
  8
1
  5
DC
  6
CONTINUOUS
 62
7
 10
477.917388
 20
226.258426
 30
0.0
  0
VERTEX
  8
1
  5
DD
  6
CONTINUOUS
 62
7
 10
477.91739
 20
226.25843
 30
0.0
  0
VERTEX
  8
1
  5
DE
  6
CONTINUOUS
 62
7
 10
497.0151
 20
226.25843
 30
0.0
  0
VERTEX
  8
1
  5
DF
  6
CONTINUOUS
 62
7
 10
497.0151
 20
226.25843
 30
0.0
  0
VERTEX
  8
1
  5
E0
  6
CONTINUOUS
 62
7
 10
497.0151
 20
205.75843
 30
0.0
  0
VERTEX
  8
1
  5
E1
  6
CONTINUOUS
 62
7
 10
497.0151
 20
205.75843
 30
0.0
  0
VERTEX
  8
1
  5
E2
  6
CONTINUOUS
 62
7
 10
477.91739
 20
205.75843
 30
0.0
  0
VERTEX
  8
1
  5
E3
  6
CONTINUOUS
 62
7
 10
477.917388
 20
205.758426
 30
0.0
 42
0.414214
  0
VERTEX
  8
1
  5
E4
  6
CONTINUOUS
 62
7
 10
473.817388
 20
201.658426
 30
0.0
  0
VERTEX
  8
1
  5
E5
  6
CONTINUOUS
 62
7
 10
473.81739
 20
201.65843
 30
0.0
  0
VERTEX
  8
1
  5
E6
  6
CONTINUOUS
 62
7
 10
473.81739
 20
197.55843
 30
0.0
  0
VERTEX
  8
1
  5
E7
  6
CONTINUOUS
 62
7
 10
473.817388
 20
197.558426
 30
0.0
 42
0.414214
  0
VERTEX
  8
1
  5
E8
  6
CONTINUOUS
 62
7
 10
477.917388
 20
193.458426
 30
0.0
  0
VERTEX
  8
1
  5
E9
  6
CONTINUOUS
 62
7
 10
477.91739
 20
193.45843
 30
0.0
  0
VERTEX
  8
1
  5
EA
  6
CONTINUOUS
 62
7
 10
482.01739
 20
193.45843
 30
0.0
  0
VERTEX
  8
1
  5
EB
  6
CONTINUOUS
 62
7
 10
482.01739
 20
193.45843
 30
0.0
  0
VERTEX
  8
1
  5
EC
  6
CONTINUOUS
 62
7
 10
482.01739
 20
185.25843
 30
0.0
  0
VERTEX
  8
1
  5
ED
  6
CONTINUOUS
 62
7
 10
482.01739
 20
185.25843
 30
0.0
  0
VERTEX
  8
1
  5
EE
  6
CONTINUOUS
 62
7
 10
477.91739
 20
185.25843
 30
0.0
  0
VERTEX
  8
1
  5
EF
  6
CONTINUOUS
 62
7
 10
477.917388
 20
185.258426
 30
0.0
 42
0.414214
  0
VERTEX
  8
1
  5
F0
  6
CONTINUOUS
 62
7
 10
473.817388
 20
181.158426
 30
0.0
  0
VERTEX
  8
1
  5
F1
  6
CONTINUOUS
 62
7
 10
473.81739
 20
181.15843
 30
0.0
  0
VERTEX
  8
1
  5
F2
  6
CONTINUOUS
 62
7
 10
473.81739
 20
177.05843
 30
0.0
  0
VERTEX
  8
1
  5
F3
  6
CONTINUOUS
 62
7
 10
473.817388
 20
177.058426
 30
0.0
 42
0.414214
  0
VERTEX
  8
1
  5
F4
  6
CONTINUOUS
 62
7
 10
477.917388
 20
172.958426
 30
0.0
  0
VERTEX
  8
1
  5
F5
  6
CONTINUOUS
 62
7
 10
477.91739
 20
172.95843
 30
0.0
  0
VERTEX
  8
1
  5
F6
  6
CONTINUOUS
 62
7
 10
497.0151
 20
172.95843
 30
0.0
  0
VERTEX
  8
1
  5
F7
  6
CONTINUOUS
 62
7
 10
497.0151
 20
172.95843
 30
0.0
  0
VERTEX
  8
1
  5
F8
  6
CONTINUOUS
 62
7
 10
497.0151
 20
152.45843
 30
0.0
  0
VERTEX
  8
1
  5
F9
  6
CONTINUOUS
 62
7
 10
497.0151
 20
152.45843
 30
0.0
  0
VERTEX
  8
1
  5
FA
  6
CONTINUOUS
 62
7
 10
477.91739
 20
152.45843
 30
0.0
  0
VERTEX
  8
1
  5
FB
  6
CONTINUOUS
 62
7
 10
477.917388
 20
152.458426
 30
0.0
 42
0.414214
  0
VERTEX
  8
1
  5
FC
  6
CONTINUOUS
 62
7
 10
473.817388
 20
148.358426
 30
0.0
  0
VERTEX
  8
1
  5
FD
  6
CONTINUOUS
 62
7
 10
473.81739
 20
148.35843
 30
0.0
  0
VERTEX
  8
1
  5
FE
  6
CONTINUOUS
 62
7
 10
473.81739
 20
144.25843
 30
0.0
  0
VERTEX
  8
1
  5
FF
  6
CONTINUOUS
 62
7
 10
473.817388
 20
144.258426
 30
0.0
 42
0.414214
  0
VERTEX
  8
1
  5
100
  6
CONTINUOUS
 62
7
 10
477.917388
 20
140.158426
 30
0.0
  0
VERTEX
  8
1
  5
101
  6
CONTINUOUS
 62
7
 10
477.91739
 20
140.15843
 30
0.0
  0
VERTEX
  8
1
  5
102
  6
CONTINUOUS
 62
7
 10
482.01739
 20
140.15843
 30
0.0
  0
VERTEX
  8
1
  5
103
  6
CONTINUOUS
 62
7
 10
482.01739
 20
140.15843
 30
0.0
  0
VERTEX
  8
1
  5
104
  6
CONTINUOUS
 62
7
 10
482.01739
 20
131.95843
 30
0.0
  0
VERTEX
  8
1
  5
105
  6
CONTINUOUS
 62
7
 10
482.01739
 20
131.95843
 30
0.0
  0
VERTEX
  8
1
  5
106
  6
CONTINUOUS
 62
7
 10
477.91739
 20
131.95843
 30
0.0
  0
VERTEX
  8
1
  5
107
  6
CONTINUOUS
 62
7
 10
477.917388
 20
131.958426
 30
0.0
 42
0.414214
  0
VERTEX
  8
1
  5
108
  6
CONTINUOUS
 62
7
 10
473.817388
 20
127.858426
 30
0.0
  0
VERTEX
  8
1
  5
109
  6
CONTINUOUS
 62
7
 10
473.81739
 20
127.85843
 30
0.0
  0
VERTEX
  8
1
  5
10A
  6
CONTINUOUS
 62
7
 10
473.81739
 20
123.75843
 30
0.0
  0
VERTEX
  8
1
  5
10B
  6
CONTINUOUS
 62
7
 10
473.817388
 20
123.758426
 30
0.0
 42
0.414214
  0
VERTEX
  8
1
  5
10C
  6
CONTINUOUS
 62
7
 10
477.917388
 20
119.658426
 30
0.0
  0
VERTEX
  8
1
  5
10D
  6
CONTINUOUS
 62
7
 10
477.91739
 20
119.65843
 30
0.0
  0
VERTEX
  8
1
  5
10E
  6
CONTINUOUS
 62
7
 10
497.0151
 20
119.65843
 30
0.0
  0
VERTEX
  8
1
  5
10F
  6
CONTINUOUS
 62
7
 10
497.0151
 20
119.65843
 30
0.0
  0
VERTEX
  8
1
  5
110
  6
CONTINUOUS
 62
7
 10
497.0151
 20
99.15843
 30
0.0
  0
VERTEX
  8
1
  5
111
  6
CONTINUOUS
 62
7
 10
497.0151
 20
99.15843
 30
0.0
  0
VERTEX
  8
1
  5
112
  6
CONTINUOUS
 62
7
 10
477.91739
 20
99.15843
 30
0.0
  0
VERTEX
  8
1
  5
113
  6
CONTINUOUS
 62
7
 10
477.917388
 20
99.158426
 30
0.0
 42
0.414214
  0
VERTEX
  8
1
  5
114
  6
CONTINUOUS
 62
7
 10
473.817388
 20
95.058426
 30
0.0
  0
VERTEX
  8
1
  5
115
  6
CONTINUOUS
 62
7
 10
473.81739
 20
95.05843
 30
0.0
  0
VERTEX
  8
1
  5
116
  6
CONTINUOUS
 62
7
 10
473.81739
 20
90.95843
 30
0.0
  0
VERTEX
  8
1
  5
117
  6
CONTINUOUS
 62
7
 10
473.817388
 20
90.958426
 30
0.0
 42
0.414214
  0
VERTEX
  8
1
  5
118
  6
CONTINUOUS
 62
7
 10
477.917388
 20
86.858426
 30
0.0
  0
VERTEX
  8
1
  5
119
  6
CONTINUOUS
 62
7
 10
477.91739
 20
86.85843
 30
0.0
  0
VERTEX
  8
1
  5
11A
  6
CONTINUOUS
 62
7
 10
482.01739
 20
86.85843
 30
0.0
  0
VERTEX
  8
1
  5
11B
  6
CONTINUOUS
 62
7
 10
482.01739
 20
86.85843
 30
0.0
  0
VERTEX
  8
1
  5
11C
  6
CONTINUOUS
 62
7
 10
482.01739
 20
80.20843
 30
0.0
  0
SEQEND
  8
1
  5
11D
  0
ENDSEC
  0
EOF
