  0
SECTION
  2
HEADER
  9
$ACADVER
  1
AC1006
  9
$INSBASE
 10
0.0
 20
0.0
 30
0.0
  9
$EXTMAX
 10
139.66396
 20
109.99974
  9
$EXTMIN
 10
-190.00001
 20
-10.00025
  9
$LIMMAX
 10
12.0
 20
9.0
  9
$LIMMIN
 10
0.0
 20
0.0
  9
$ORTHOMODE
 70
0
  9
$REGENMODE
 70
1
  9
$FILLMODE
 70
1
  9
$QTEXTMODE
 70
0
  9
$MIRRTEXT
 70
1
  9
$DRAGMODE
 70
2
  9
$LTSCALE
 40
1.0
  9
$OSMODE
 70
0
  9
$ATTMODE
 70
1
  9
$TEXTSIZE
 40
0.2
  9
$TRACEWID
 40
0.05
  9
$TEXTSTYLE
  7
STANDARD
  9
$CLAYER
  8
0
  9
$CELTYPE
  6
CONTINUOUS
  9
$CECOLOR
 62
256
  9
$DIMSCALE
 40
1.0
  9
$DIMASZ
 40
0.18
  9
$DIMEXO
 40
0.0625
  9
$DIMDLI
 40
0.38
  9
$DIMRND
 40
0.0
  9
$DIMDLE
 40
0.0
  9
$DIMEXE
 40
0.18
  9
$DIMTP
 40
0.0
  9
$DIMTM
 40
0.0
  9
$DIMTXT
 40
0.18
  9
$DIMCEN
 40
0.09
  9
$DIMTSZ
 40
0.0
  9
$DIMTOL
 70
0
  9
$DIMLIM
 70
0
  9
$DIMTIH
 70
1
  9
$DIMTOH
 70
1
  9
$DIMSE1
 70
0
  9
$DIMSE2
 70
0
  9
$DIMTAD
 70
0
  9
$DIMZIN
 70
0
  9
$DIMBLK
  1

  9
$DIMASO
 70
1
  9
$DIMSHO
 70
1
  9
$DIMPOST
  1

  9
$DIMAPOST
  1

  9
$DIMALT
 70
0
  9
$DIMALTD
 70
2
  9
$DIMALTF
 40
25.4
  9
$DIMLFAC
 40
1.0
  9
$DIMTOFL
 70
0
  9
$DIMTVP
 40
0.0
  9
$DIMTIX
 70
0
  9
$DIMSOXD
 70
0
  9
$DIMSAH
 70
0
  9
$DIMBLK1
  1

  9
$DIMBLK2
  1

  9
$LUNITS
 70
2
  9
$LUPREC
 70
4
  9
$AXISMODE
 70
0
  9
$AXISUNIT
 10
0.0
 20
0.0
  9
$SKETCHINC
 40
0.1
  9
$FILLETRAD
 40
0.0
  9
$AUNITS
 70
0
  9
$AUPREC
 70
0
  9
$MENU
  1
acad
  9
$ELEVATION
 40
0.0
  9
$THICKNESS
 40
0.0
  9
$LIMCHECK
 70
0
  9
$BLIPMODE
 70
1
  9
$CHAMFERA
 40
0.0
  9
$CHAMFERB
 40
0.0
  9
$SKPOLY
 70
0
  9
$TDCREATE
 40
0.0
  9
$TDUPDATE
 40
0.0
  9
$TDINDWG
 40
0.0
  9
$TDUSRTIMER
 40
0.0
  9
$USRTIMER
 70
1
  9
$ANGBASE
 50
0.0
  9
$ANGDIR
 70
0
  9
$PDMODE
 70
0
  9
$PDSIZE
 40
0.0
  9
$PLINEWID
 40
0.0
  9
$COORDS
 70
0
  9
$SPLFRAME
 70
0
  9
$SPLINETYPE
 70
6
  9
$SPLINESEGS
 70
10
  9
$ATTDIA
 70
0
  9
$ATTREQ
 70
1
  9
$HANDLING
 70
1
  9
$HANDSEED
  5
7C
  9
$SURFTAB1
 70
6
  9
$SURFTAB2
 70
6
  9
$SURFTYPE
 70
6
  9
$SURFU
 70
10
  9
$SURFV
 70
10
  9
$FLATLAND
 70
0
  9
$UCSNAME
  2

  9
$UCSORG
 10
0.0
 20
0.0
 30
0.0
  9
$UCSXDIR
 10
1.0
 20
0.0
 30
0.0
  9
$UCSYDIR
 10
0.0
 20
1.0
 30
0.0
  9
$USERI1
 70
0
  9
$USERI2
 70
0
  9
$USERI3
 70
0
  9
$USERI4
 70
0
  9
$USERI5
 70
0
  9
$USERR1
 40
0.0
  9
$USERR2
 40
0.0
  9
$USERR3
 40
0.0
  9
$USERR4
 40
0.0
  9
$USERR5
 40
0.0
  9
$WORLDVIEW
 70
1
  0
ENDSEC
  0
SECTION
  2
TABLES
  0
TABLE
  2
LTYPE
 70
7
  0
LTYPE
  2
CONTINUOUS
 70
64
  3
Solid line
 72
65
 73
0
 40
0.0
  0
LTYPE
  2
DOT
 70
64
  3
. . . . . . . . . . . . . . . . . . . . . . . . . . . . . . . . .
 72
65
 73
2
 40
0.25
 49
0.0
 49
-0.25
  0
LTYPE
  2
HIDDEN
 70
64
  3
__ __ __ __ __ __ __ __ __ __ __ __ __ __ __ __ __ __ __ __ __ 
 72
65
 73
2
 40
0.375
 49
0.25
 49
-0.125
  0
LTYPE
  2
DASHED
 70
64
  3
__ __ __ __ __ __ __ __ __ __ __ __ __ __ __ __ __ __ __ __ __
 72
65
 73
2
 40
0.75
 49
0.5
 49
-0.25
  0
LTYPE
  2
DASHDOT
 70
64
  3
__ . __ . __ . __ . __ . __ . __ . __ . __ . __ . __ . __ . _
 72
65
 73
4
 40
1.0
 49
0.5
 49
-0.25
 49
0.0
 49
-0.25
  0
LTYPE
  2
DIVIDE
 70
64
  3
____ . . ____ . . ____ . . ____ . . ____ . . ____ . . ____ . .
 72
65
 73
6
 40
1.25
 49
0.5
 49
-0.25
 49
0.0
 49
-0.25
 49
0.0
 49
-0.25
  0
LTYPE
  2
CENTER
 70
64
  3
____ _ ____ _ ____ _ ____ _ ____ _ ____ _ ____ _ ____ _ ____ _
 72
65
 73
4
 40
2.0
 49
1.25
 49
-0.25
 49
0.25
 49
-0.25
  0
ENDTAB
  0
TABLE
  2
LAYER
 70
4
  0
LAYER
  2
0
 70
0
 62
7
  6
CONTINUOUS
  0
LAYER
  2
CONSTRUCTION_CLASS
 70
0
 62
7
  6
CONTINUOUS
  0
LAYER
  2
PATTERN_CLASS
 70
0
 62
7
  6
CONTINUOUS
  0
LAYER
  2
1
 70
0
 62
7
  6
CONTINUOUS
  0
ENDTAB
  0
TABLE
  2
STYLE
 70
1
  0
STYLE
  2
STANDARD
 70
0
 40
0.2
 41
1.0
 50
0.0
 71
0
 42
0.0
  3
txt
  4

  0
ENDTAB
  0
TABLE
  2
UCS
 70
0
  0
ENDTAB
  0
TABLE
  2
VIEW
 70
0
  0
ENDTAB
  0
TABLE
  2
VPORT
 70
1
  0
VPORT
  2
*ACTIVE
 70
0
 10
0.0
 20
0.0
 11
1.0
 21
1.0
 12
0.0
 22
0.0
 13
0.0
 23
0.0
 14
0.0
 24
0.0
 15
0.0
 25
0.0
 16
0.0
 26
0.0
 36
1.0
 17
-42.393329
 27
50.283225
 37
0.0
 40
223.66401
 41
1.356745
 42
50.0
 43
0.00004
 44
0.0
 50
0.0
 51
0.0
 71
0
 72
100
 73
1
 74
0
 75
0
 76
0
 77
0
 78
0
  0
ENDTAB
  0
ENDSEC
  0
SECTION
  2
BLOCKS
  0
ENDSEC
  0
SECTION
  2
ENTITIES
  0
POLYLINE
  8
1
  5
2
  6
CONTINUOUS
 62
7
 10
0.0
 20
0.0
 30
0.0
 66
1
 70
1
  0
VERTEX
  8
1
  5
3
  6
CONTINUOUS
 62
7
 10
-25.00001
 20
74.99975
 30
0.0
  0
VERTEX
  8
1
  5
4
  6
CONTINUOUS
 62
7
 10
-190.00001
 20
74.99975
 30
0.0
  0
VERTEX
  8
1
  5
5
  6
CONTINUOUS
 62
7
 10
-190.00001
 20
74.99975
 30
0.0
  0
VERTEX
  8
1
  5
6
  6
CONTINUOUS
 62
7
 10
-190.00001
 20
24.99975
 30
0.0
  0
VERTEX
  8
1
  5
7
  6
CONTINUOUS
 62
7
 10
-190.00001
 20
24.99975
 30
0.0
  0
VERTEX
  8
1
  5
8
  6
CONTINUOUS
 62
7
 10
-25.00001
 20
24.99975
 30
0.0
  0
VERTEX
  8
1
  5
9
  6
CONTINUOUS
 62
7
 10
-25.00001
 20
24.99975
 30
0.0
  0
VERTEX
  8
1
  5
A
  6
CONTINUOUS
 62
7
 10
-11.67106
 20
38.3287
 30
0.0
  0
VERTEX
  8
1
  5
B
  6
CONTINUOUS
 62
7
 10
-11.671056
 20
38.328704
 30
0.0
 42
0.0
  0
VERTEX
  8
1
  5
C
  6
CONTINUOUS
 62
7
 10
-11.671075
 20
38.328723
 30
0.0
  0
VERTEX
  8
1
  5
D
  6
CONTINUOUS
 62
7
 10
-11.67106
 20
38.3287
 30
0.0
  0
VERTEX
  8
1
  5
E
  6
CONTINUOUS
 62
7
 10
-0.00001
 20
49.99975
 30
0.0
  0
VERTEX
  8
1
  5
F
  6
CONTINUOUS
 62
7
 10
-0.00001
 20
49.99975
 30
0.0
  0
VERTEX
  8
1
  5
10
  6
CONTINUOUS
 62
7
 10
-11.67106
 20
61.6708
 30
0.0
  0
VERTEX
  8
1
  5
11
  6
CONTINUOUS
 62
7
 10
-11.67106
 20
61.6708
 30
0.0
  0
SEQEND
  8
1
  5
12
  0
POLYLINE
  8
1
  5
14
  6
CONTINUOUS
 62
7
 10
0.0
 20
0.0
 30
0.0
 66
1
 70
0
  0
VERTEX
  8
1
  5
15
  6
CONTINUOUS
 62
7
 10
-11.671056
 20
61.670796
 30
0.0
 42
-0.450918
  0
VERTEX
  8
1
  5
16
  6
CONTINUOUS
 62
7
 10
-39.87139
 20
63.4168
 30
0.0
  0
VERTEX
  8
1
  5
17
  6
CONTINUOUS
 62
7
 10
-39.871386
 20
63.416802
 30
0.0
 42
0.336108
  0
VERTEX
  8
1
  5
18
  6
CONTINUOUS
 62
7
 10
-44.656861
 20
64.692819
 30
0.0
  0
SEQEND
  8
1
  5
19
  0
POLYLINE
  8
1
  5
1B
  6
CONTINUOUS
 62
7
 10
0.0
 20
0.0
 30
0.0
 66
1
 70
0
  0
VERTEX
  8
1
  5
1C
  6
CONTINUOUS
 62
7
 10
-44.656863
 20
64.692818
 30
0.0
 42
0.044824
  0
VERTEX
  8
1
  5
1D
  6
CONTINUOUS
 62
7
 10
-51.997913
 20
60.976614
 30
0.0
 42
0.070072
  0
VERTEX
  8
1
  5
1E
  6
CONTINUOUS
 62
7
 10
-57.076891
 20
56.782882
 30
0.0
 42
0.111795
  0
VERTEX
  8
1
  5
1F
  6
CONTINUOUS
 62
7
 10
-59.672845
 20
52.294063
 30
0.0
 42
0.140179
  0
VERTEX
  8
1
  5
20
  6
CONTINUOUS
 62
7
 10
-59.672844
 20
47.705433
 30
0.0
 42
0.111795
  0
VERTEX
  8
1
  5
21
  6
CONTINUOUS
 62
7
 10
-57.076887
 20
43.216614
 30
0.0
 42
0.070072
  0
VERTEX
  8
1
  5
22
  6
CONTINUOUS
 62
7
 10
-51.997907
 20
39.022882
 30
0.0
 42
0.044824
  0
VERTEX
  8
1
  5
23
  6
CONTINUOUS
 62
7
 10
-44.656855
 20
35.306679
 30
0.0
 42
0.044824
  0
SEQEND
  8
1
  5
24
  0
POLYLINE
  8
1
  5
25
  6
CONTINUOUS
 62
7
 10
0.0
 20
0.0
 30
0.0
 66
1
 70
0
  0
VERTEX
  8
1
  5
26
  6
CONTINUOUS
 62
7
 10
-44.656855
 20
35.306679
 30
0.0
 42
0.336107
  0
VERTEX
  8
1
  5
27
  6
CONTINUOUS
 62
7
 10
-39.871392
 20
36.582691
 30
0.0
  0
VERTEX
  8
1
  5
28
  6
CONTINUOUS
 62
7
 10
-39.87139
 20
36.58269
 30
0.0
 42
-0.450918
  0
VERTEX
  8
1
  5
29
  6
CONTINUOUS
 62
7
 10
-11.671056
 20
38.328704
 30
0.0
  0
SEQEND
  8
1
  5
2A
  0
POLYLINE
  8
1
  5
2C
  6
CONTINUOUS
 62
7
 10
0.0
 20
0.0
 30
0.0
 66
1
 70
1
  0
VERTEX
  8
1
  5
2D
  6
CONTINUOUS
 62
7
 10
39.79259
 20
63.4168
 30
0.0
 42
1.132002
  0
VERTEX
  8
1
  5
2E
  6
CONTINUOUS
 62
7
 10
66.24691
 20
89.87113
 30
0.0
  0
VERTEX
  8
1
  5
2F
  6
CONTINUOUS
 62
7
 10
66.246911
 20
89.871132
 30
0.0
 42
-0.336107
  0
VERTEX
  8
1
  5
30
  6
CONTINUOUS
 62
7
 10
64.970899
 20
94.656595
 30
0.0
  0
SEQEND
  8
1
  5
31
  0
POLYLINE
  8
1
  5
33
  6
CONTINUOUS
 62
7
 10
0.0
 20
0.0
 30
0.0
 66
1
 70
0
  0
VERTEX
  8
1
  5
34
  6
CONTINUOUS
 62
7
 10
64.970899
 20
94.656595
 30
0.0
 42
-0.044824
  0
VERTEX
  8
1
  5
35
  6
CONTINUOUS
 62
7
 10
68.687102
 20
101.997647
 30
0.0
 42
-0.070072
  0
VERTEX
  8
1
  5
36
  6
CONTINUOUS
 62
7
 10
72.880834
 20
107.076627
 30
0.0
 42
-0.111795
  0
VERTEX
  8
1
  5
37
  6
CONTINUOUS
 62
7
 10
77.369653
 20
109.672584
 30
0.0
 42
-0.140179
  0
VERTEX
  8
1
  5
38
  6
CONTINUOUS
 62
7
 10
81.958283
 20
109.672585
 30
0.0
 42
-0.111795
  0
VERTEX
  8
1
  5
39
  6
CONTINUOUS
 62
7
 10
86.447102
 20
107.076631
 30
0.0
 42
-0.070072
  0
VERTEX
  8
1
  5
3A
  6
CONTINUOUS
 62
7
 10
90.640834
 20
101.997653
 30
0.0
 42
-0.044824
  0
VERTEX
  8
1
  5
3B
  6
CONTINUOUS
 62
7
 10
94.357038
 20
94.656603
 30
0.0
 42
-0.044824
  0
SEQEND
  8
1
  5
3C
  0
POLYLINE
  8
1
  5
3D
  6
CONTINUOUS
 62
7
 10
0.0
 20
0.0
 30
0.0
 66
1
 70
1
  0
VERTEX
  8
1
  5
3E
  6
CONTINUOUS
 62
7
 10
94.357039
 20
94.656601
 30
0.0
 42
-0.336108
  0
VERTEX
  8
1
  5
3F
  6
CONTINUOUS
 62
7
 10
93.081022
 20
89.871126
 30
0.0
  0
VERTEX
  8
1
  5
40
  6
CONTINUOUS
 62
7
 10
93.08102
 20
89.87113
 30
0.0
 42
1.132002
  0
VERTEX
  8
1
  5
41
  6
CONTINUOUS
 62
7
 10
119.53535
 20
63.41681
 30
0.0
  0
VERTEX
  8
1
  5
42
  6
CONTINUOUS
 62
7
 10
119.535352
 20
63.416809
 30
0.0
 42
-0.336107
  0
VERTEX
  8
1
  5
43
  6
CONTINUOUS
 62
7
 10
124.320815
 20
64.692821
 30
0.0
  0
SEQEND
  8
1
  5
44
  0
POLYLINE
  8
1
  5
46
  6
CONTINUOUS
 62
7
 10
0.0
 20
0.0
 30
0.0
 66
1
 70
0
  0
VERTEX
  8
1
  5
47
  6
CONTINUOUS
 62
7
 10
124.320815
 20
64.692821
 30
0.0
 42
-0.044824
  0
VERTEX
  8
1
  5
48
  6
CONTINUOUS
 62
7
 10
131.661867
 20
60.976618
 30
0.0
 42
-0.070072
  0
VERTEX
  8
1
  5
49
  6
CONTINUOUS
 62
7
 10
136.740847
 20
56.782886
 30
0.0
 42
-0.111795
  0
VERTEX
  8
1
  5
4A
  6
CONTINUOUS
 62
7
 10
139.336804
 20
52.294067
 30
0.0
 42
-0.140179
  0
VERTEX
  8
1
  5
4B
  6
CONTINUOUS
 62
7
 10
139.336805
 20
47.705437
 30
0.0
 42
-0.111795
  0
VERTEX
  8
1
  5
4C
  6
CONTINUOUS
 62
7
 10
136.740851
 20
43.216618
 30
0.0
 42
-0.070072
  0
VERTEX
  8
1
  5
4D
  6
CONTINUOUS
 62
7
 10
131.661873
 20
39.022886
 30
0.0
 42
-0.044824
  0
VERTEX
  8
1
  5
4E
  6
CONTINUOUS
 62
7
 10
124.320823
 20
35.306682
 30
0.0
 42
-0.044824
  0
SEQEND
  8
1
  5
4F
  0
POLYLINE
  8
1
  5
50
  6
CONTINUOUS
 62
7
 10
0.0
 20
0.0
 30
0.0
 66
1
 70
1
  0
VERTEX
  8
1
  5
51
  6
CONTINUOUS
 62
7
 10
124.320821
 20
35.306681
 30
0.0
 42
-0.336108
  0
VERTEX
  8
1
  5
52
  6
CONTINUOUS
 62
7
 10
119.535346
 20
36.582698
 30
0.0
  0
VERTEX
  8
1
  5
53
  6
CONTINUOUS
 62
7
 10
119.53535
 20
36.5827
 30
0.0
 42
1.132002
  0
VERTEX
  8
1
  5
54
  6
CONTINUOUS
 62
7
 10
93.08103
 20
10.12837
 30
0.0
  0
VERTEX
  8
1
  5
55
  6
CONTINUOUS
 62
7
 10
93.081029
 20
10.128368
 30
0.0
 42
-0.336107
  0
VERTEX
  8
1
  5
56
  6
CONTINUOUS
 62
7
 10
94.357041
 20
5.342905
 30
0.0
  0
SEQEND
  8
1
  5
57
  0
POLYLINE
  8
1
  5
59
  6
CONTINUOUS
 62
7
 10
0.0
 20
0.0
 30
0.0
 66
1
 70
0
  0
VERTEX
  8
1
  5
5A
  6
CONTINUOUS
 62
7
 10
94.357041
 20
5.342905
 30
0.0
 42
-0.044824
  0
VERTEX
  8
1
  5
5B
  6
CONTINUOUS
 62
7
 10
90.640838
 20
-1.998147
 30
0.0
 42
-0.070072
  0
VERTEX
  8
1
  5
5C
  6
CONTINUOUS
 62
7
 10
86.447106
 20
-7.077127
 30
0.0
 42
-0.111795
  0
VERTEX
  8
1
  5
5D
  6
CONTINUOUS
 62
7
 10
81.958287
 20
-9.673084
 30
0.0
 42
-0.140179
  0
VERTEX
  8
1
  5
5E
  6
CONTINUOUS
 62
7
 10
77.369657
 20
-9.673085
 30
0.0
 42
-0.111795
  0
VERTEX
  8
1
  5
5F
  6
CONTINUOUS
 62
7
 10
72.880838
 20
-7.077131
 30
0.0
 42
-0.070072
  0
VERTEX
  8
1
  5
60
  6
CONTINUOUS
 62
7
 10
68.687106
 20
-1.998153
 30
0.0
 42
-0.044824
  0
VERTEX
  8
1
  5
61
  6
CONTINUOUS
 62
7
 10
64.970902
 20
5.342897
 30
0.0
 42
-0.044824
  0
SEQEND
  8
1
  5
62
  0
POLYLINE
  8
1
  5
63
  6
CONTINUOUS
 62
7
 10
0.0
 20
0.0
 30
0.0
 66
1
 70
1
  0
VERTEX
  8
1
  5
64
  6
CONTINUOUS
 62
7
 10
64.970901
 20
5.342899
 30
0.0
 42
-0.336108
  0
VERTEX
  8
1
  5
65
  6
CONTINUOUS
 62
7
 10
66.246918
 20
10.128374
 30
0.0
  0
VERTEX
  8
1
  5
66
  6
CONTINUOUS
 62
7
 10
66.24692
 20
10.12837
 30
0.0
 42
1.132002
  0
VERTEX
  8
1
  5
67
  6
CONTINUOUS
 62
7
 10
39.79259
 20
36.58269
 30
0.0
  0
VERTEX
  8
1
  5
68
  6
CONTINUOUS
 62
7
 10
39.792588
 20
36.582691
 30
0.0
 42
-0.336107
  0
VERTEX
  8
1
  5
69
  6
CONTINUOUS
 62
7
 10
35.007125
 20
35.306679
 30
0.0
  0
SEQEND
  8
1
  5
6A
  0
POLYLINE
  8
1
  5
6C
  6
CONTINUOUS
 62
7
 10
0.0
 20
0.0
 30
0.0
 66
1
 70
0
  0
VERTEX
  8
1
  5
6D
  6
CONTINUOUS
 62
7
 10
35.007125
 20
35.306679
 30
0.0
 42
-0.044824
  0
VERTEX
  8
1
  5
6E
  6
CONTINUOUS
 62
7
 10
27.666073
 20
39.022882
 30
0.0
 42
-0.070072
  0
VERTEX
  8
1
  5
6F
  6
CONTINUOUS
 62
7
 10
22.587093
 20
43.216614
 30
0.0
 42
-0.111795
  0
VERTEX
  8
1
  5
70
  6
CONTINUOUS
 62
7
 10
19.991136
 20
47.705433
 30
0.0
 42
-0.140179
  0
VERTEX
  8
1
  5
71
  6
CONTINUOUS
 62
7
 10
19.991135
 20
52.294063
 30
0.0
 42
-0.111795
  0
VERTEX
  8
1
  5
72
  6
CONTINUOUS
 62
7
 10
22.587089
 20
56.782882
 30
0.0
 42
-0.070072
  0
VERTEX
  8
1
  5
73
  6
CONTINUOUS
 62
7
 10
27.666067
 20
60.976614
 30
0.0
 42
-0.044824
  0
VERTEX
  8
1
  5
74
  6
CONTINUOUS
 62
7
 10
35.007117
 20
64.692818
 30
0.0
 42
-0.044824
  0
SEQEND
  8
1
  5
75
  0
POLYLINE
  8
1
  5
76
  6
CONTINUOUS
 62
7
 10
0.0
 20
0.0
 30
0.0
 66
1
 70
1
  0
VERTEX
  8
1
  5
77
  6
CONTINUOUS
 62
7
 10
35.007119
 20
64.692819
 30
0.0
 42
-0.336108
  0
VERTEX
  8
1
  5
78
  6
CONTINUOUS
 62
7
 10
39.79259
 20
63.4168
 30
0.0
  0
VERTEX
  8
1
  5
79
  6
CONTINUOUS
 62
7
 10
39.79259
 20
63.4168
 30
0.0
  0
SEQEND
  8
1
  5
7A
  0
ENDSEC
  0
EOF
