  0
SECTION
  2
HEADER
  9
$ACADVER
  1
AC1006
  9
$INSBASE
 10
0.0
 20
0.0
 30
0.0
  9
$EXTMAX
 10
190.0
 20
140.0
  9
$EXTMIN
 10
0.0
 20
0.0
  9
$LIMMAX
 10
12.0
 20
9.0
  9
$LIMMIN
 10
0.0
 20
0.0
  9
$ORTHOMODE
 70
0
  9
$REGENMODE
 70
1
  9
$FILLMODE
 70
1
  9
$QTEXTMODE
 70
0
  9
$MIRRTEXT
 70
1
  9
$DRAGMODE
 70
2
  9
$LTSCALE
 40
1.0
  9
$OSMODE
 70
0
  9
$ATTMODE
 70
1
  9
$TEXTSIZE
 40
0.2
  9
$TRACEWID
 40
0.05
  9
$TEXTSTYLE
  7
STANDARD
  9
$CLAYER
  8
0
  9
$CELTYPE
  6
CONTINUOUS
  9
$CECOLOR
 62
256
  9
$DIMSCALE
 40
1.0
  9
$DIMASZ
 40
0.18
  9
$DIMEXO
 40
0.0625
  9
$DIMDLI
 40
0.38
  9
$DIMRND
 40
0.0
  9
$DIMDLE
 40
0.0
  9
$DIMEXE
 40
0.18
  9
$DIMTP
 40
0.0
  9
$DIMTM
 40
0.0
  9
$DIMTXT
 40
0.18
  9
$DIMCEN
 40
0.09
  9
$DIMTSZ
 40
0.0
  9
$DIMTOL
 70
0
  9
$DIMLIM
 70
0
  9
$DIMTIH
 70
1
  9
$DIMTOH
 70
1
  9
$DIMSE1
 70
0
  9
$DIMSE2
 70
0
  9
$DIMTAD
 70
0
  9
$DIMZIN
 70
0
  9
$DIMBLK
  1

  9
$DIMASO
 70
1
  9
$DIMSHO
 70
1
  9
$DIMPOST
  1

  9
$DIMAPOST
  1

  9
$DIMALT
 70
0
  9
$DIMALTD
 70
2
  9
$DIMALTF
 40
25.4
  9
$DIMLFAC
 40
1.0
  9
$DIMTOFL
 70
0
  9
$DIMTVP
 40
0.0
  9
$DIMTIX
 70
0
  9
$DIMSOXD
 70
0
  9
$DIMSAH
 70
0
  9
$DIMBLK1
  1

  9
$DIMBLK2
  1

  9
$LUNITS
 70
2
  9
$LUPREC
 70
4
  9
$AXISMODE
 70
0
  9
$AXISUNIT
 10
0.0
 20
0.0
  9
$SKETCHINC
 40
0.1
  9
$FILLETRAD
 40
0.0
  9
$AUNITS
 70
0
  9
$AUPREC
 70
0
  9
$MENU
  1
acad
  9
$ELEVATION
 40
0.0
  9
$THICKNESS
 40
0.0
  9
$LIMCHECK
 70
0
  9
$BLIPMODE
 70
1
  9
$CHAMFERA
 40
0.0
  9
$CHAMFERB
 40
0.0
  9
$SKPOLY
 70
0
  9
$TDCREATE
 40
0.0
  9
$TDUPDATE
 40
0.0
  9
$TDINDWG
 40
0.0
  9
$TDUSRTIMER
 40
0.0
  9
$USRTIMER
 70
1
  9
$ANGBASE
 50
0.0
  9
$ANGDIR
 70
0
  9
$PDMODE
 70
0
  9
$PDSIZE
 40
0.0
  9
$PLINEWID
 40
0.0
  9
$COORDS
 70
0
  9
$SPLFRAME
 70
0
  9
$SPLINETYPE
 70
6
  9
$SPLINESEGS
 70
10
  9
$ATTDIA
 70
0
  9
$ATTREQ
 70
1
  9
$HANDLING
 70
1
  9
$HANDSEED
  5
FC
  9
$SURFTAB1
 70
6
  9
$SURFTAB2
 70
6
  9
$SURFTYPE
 70
6
  9
$SURFU
 70
10
  9
$SURFV
 70
10
  9
$FLATLAND
 70
0
  9
$UCSNAME
  2

  9
$UCSORG
 10
0.0
 20
0.0
 30
0.0
  9
$UCSXDIR
 10
1.0
 20
0.0
 30
0.0
  9
$UCSYDIR
 10
0.0
 20
1.0
 30
0.0
  9
$USERI1
 70
0
  9
$USERI2
 70
0
  9
$USERI3
 70
0
  9
$USERI4
 70
0
  9
$USERI5
 70
0
  9
$USERR1
 40
0.0
  9
$USERR2
 40
0.0
  9
$USERR3
 40
0.0
  9
$USERR4
 40
0.0
  9
$USERR5
 40
0.0
  9
$WORLDVIEW
 70
1
  0
ENDSEC
  0
SECTION
  2
TABLES
  0
TABLE
  2
LTYPE
 70
7
  0
LTYPE
  2
CONTINUOUS
 70
64
  3
Solid line
 72
65
 73
0
 40
0.0
  0
LTYPE
  2
DOT
 70
64
  3
. . . . . . . . . . . . . . . . . . . . . . . . . . . . . . . . .
 72
65
 73
2
 40
0.25
 49
0.0
 49
-0.25
  0
LTYPE
  2
HIDDEN
 70
64
  3
__ __ __ __ __ __ __ __ __ __ __ __ __ __ __ __ __ __ __ __ __ 
 72
65
 73
2
 40
0.375
 49
0.25
 49
-0.125
  0
LTYPE
  2
DASHED
 70
64
  3
__ __ __ __ __ __ __ __ __ __ __ __ __ __ __ __ __ __ __ __ __
 72
65
 73
2
 40
0.75
 49
0.5
 49
-0.25
  0
LTYPE
  2
DASHDOT
 70
64
  3
__ . __ . __ . __ . __ . __ . __ . __ . __ . __ . __ . __ . _
 72
65
 73
4
 40
1.0
 49
0.5
 49
-0.25
 49
0.0
 49
-0.25
  0
LTYPE
  2
DIVIDE
 70
64
  3
____ . . ____ . . ____ . . ____ . . ____ . . ____ . . ____ . .
 72
65
 73
6
 40
1.25
 49
0.5
 49
-0.25
 49
0.0
 49
-0.25
 49
0.0
 49
-0.25
  0
LTYPE
  2
CENTER
 70
64
  3
____ _ ____ _ ____ _ ____ _ ____ _ ____ _ ____ _ ____ _ ____ _
 72
65
 73
4
 40
2.0
 49
1.25
 49
-0.25
 49
0.25
 49
-0.25
  0
ENDTAB
  0
TABLE
  2
LAYER
 70
4
  0
LAYER
  2
0
 70
0
 62
7
  6
CONTINUOUS
  0
LAYER
  2
CONSTRUCTION_CLASS
 70
0
 62
7
  6
CONTINUOUS
  0
LAYER
  2
PATTERN_CLASS
 70
0
 62
7
  6
CONTINUOUS
  0
LAYER
  2
1
 70
0
 62
7
  6
CONTINUOUS
  0
ENDTAB
  0
TABLE
  2
STYLE
 70
1
  0
STYLE
  2
STANDARD
 70
0
 40
0.2
 41
1.0
 50
0.0
 71
0
 42
0.0
  3
txt
  4

  0
ENDTAB
  0
TABLE
  2
UCS
 70
0
  0
ENDTAB
  0
TABLE
  2
VIEW
 70
0
  0
ENDTAB
  0
TABLE
  2
VPORT
 70
1
  0
VPORT
  2
*ACTIVE
 70
0
 10
0.0
 20
0.0
 11
1.0
 21
1.0
 12
0.0
 22
0.0
 13
0.0
 23
0.0
 14
0.0
 24
0.0
 15
0.0
 25
0.0
 16
0.0
 26
0.0
 36
1.0
 17
78.552246
 27
70.352415
 37
0.0
 40
215.98567
 41
1.355234
 42
50.0
 43
0.00004
 44
0.0
 50
0.0
 51
0.0
 71
0
 72
100
 73
1
 74
0
 75
0
 76
0
 77
0
 78
0
  0
ENDTAB
  0
ENDSEC
  0
SECTION
  2
BLOCKS
  0
ENDSEC
  0
SECTION
  2
ENTITIES
  0
POLYLINE
  8
1
  5
2
  6
CONTINUOUS
 62
7
 10
0.0
 20
0.0
 30
0.0
 66
1
 70
0
  0
VERTEX
  8
1
  5
3
  6
CONTINUOUS
 62
7
 10
70.0
 20
50.0
 30
0.0
  0
VERTEX
  8
1
  5
4
  6
CONTINUOUS
 62
7
 10
0.0
 20
50.0
 30
0.0
  0
VERTEX
  8
1
  5
5
  6
CONTINUOUS
 62
7
 10
0.0
 20
50.0
 30
0.0
  0
VERTEX
  8
1
  5
6
  6
CONTINUOUS
 62
7
 10
0.0
 20
0.0
 30
0.0
  0
VERTEX
  8
1
  5
7
  6
CONTINUOUS
 62
7
 10
0.0
 20
0.0
 30
0.0
  0
VERTEX
  8
1
  5
8
  6
CONTINUOUS
 62
7
 10
70.00335
 20
0.0
 30
0.0
  0
SEQEND
  8
1
  5
9
  0
POLYLINE
  8
1
  5
B
  6
CONTINUOUS
 62
7
 10
0.0
 20
0.0
 30
0.0
 66
1
 70
0
  0
VERTEX
  8
1
  5
C
  6
CONTINUOUS
 62
7
 10
120.0
 20
0.0
 30
0.0
  0
VERTEX
  8
1
  5
D
  6
CONTINUOUS
 62
7
 10
190.0
 20
0.0
 30
0.0
  0
VERTEX
  8
1
  5
E
  6
CONTINUOUS
 62
7
 10
190.0
 20
0.0
 30
0.0
  0
VERTEX
  8
1
  5
F
  6
CONTINUOUS
 62
7
 10
190.0
 20
50.0
 30
0.0
  0
VERTEX
  8
1
  5
10
  6
CONTINUOUS
 62
7
 10
190.0
 20
50.0
 30
0.0
  0
VERTEX
  8
1
  5
11
  6
CONTINUOUS
 62
7
 10
119.99665
 20
50.0
 30
0.0
  0
SEQEND
  8
1
  5
12
  0
POLYLINE
  8
1
  5
14
  6
CONTINUOUS
 62
7
 10
0.0
 20
0.0
 30
0.0
 66
1
 70
0
  0
VERTEX
  8
1
  5
15
  6
CONTINUOUS
 62
7
 10
69.998331
 20
49.998501
 30
0.0
 42
0.154488
  0
VERTEX
  8
1
  5
16
  6
CONTINUOUS
 62
7
 10
73.147444
 20
48.15111
 30
0.0
  0
SEQEND
  8
1
  5
17
  0
POLYLINE
  8
1
  5
19
  6
CONTINUOUS
 62
7
 10
0.0
 20
0.0
 30
0.0
 66
1
 70
0
  0
VERTEX
  8
1
  5
1A
  6
CONTINUOUS
 62
7
 10
73.14344
 20
48.15184
 30
0.0
  0
VERTEX
  8
1
  5
1B
  6
CONTINUOUS
 62
7
 10
77.091914
 20
47.407897
 30
0.0
  0
VERTEX
  8
1
  5
1C
  6
CONTINUOUS
 62
7
 10
79.556706
 20
47.139681
 30
0.0
  0
VERTEX
  8
1
  5
1D
  6
CONTINUOUS
 62
7
 10
84.087353
 20
46.975439
 30
0.0
  0
VERTEX
  8
1
  5
1E
  6
CONTINUOUS
 62
7
 10
91.572281
 20
47.050573
 30
0.0
  0
VERTEX
  8
1
  5
1F
  6
CONTINUOUS
 62
7
 10
94.53764
 20
46.669865
 30
0.0
  0
VERTEX
  8
1
  5
20
  6
CONTINUOUS
 62
7
 10
96.230492
 20
46.050622
 30
0.0
  0
VERTEX
  8
1
  5
21
  6
CONTINUOUS
 62
7
 10
96.992317
 20
45.59692
 30
0.0
  0
VERTEX
  8
1
  5
22
  6
CONTINUOUS
 62
7
 10
98.02988
 20
44.70397
 30
0.0
  0
SEQEND
  8
1
  5
23
  0
POLYLINE
  8
1
  5
24
  6
CONTINUOUS
 62
7
 10
0.0
 20
0.0
 30
0.0
 66
1
 70
0
  0
VERTEX
  8
1
  5
25
  6
CONTINUOUS
 62
7
 10
98.029885
 20
44.703971
 30
0.0
 42
-0.331708
  0
VERTEX
  8
1
  5
26
  6
CONTINUOUS
 62
7
 10
98.885075
 20
39.878382
 30
0.0
  0
VERTEX
  8
1
  5
27
  6
CONTINUOUS
 62
7
 10
98.885074
 20
39.878383
 30
0.0
 42
1.831001
  0
VERTEX
  8
1
  5
28
  6
CONTINUOUS
 62
7
 10
112.60588
 20
41.336212
 30
0.0
  0
VERTEX
  8
1
  5
29
  6
CONTINUOUS
 62
7
 10
112.60588
 20
41.336212
 30
0.0
 42
-0.619489
  0
VERTEX
  8
1
  5
2A
  6
CONTINUOUS
 62
7
 10
115.682349
 20
48.002574
 30
0.0
  0
VERTEX
  8
1
  5
2B
  6
CONTINUOUS
 62
7
 10
115.682349
 20
48.002574
 30
0.0
 42
0.204761
  0
VERTEX
  8
1
  5
2C
  6
CONTINUOUS
 62
7
 10
119.998497
 20
49.998333
 30
0.0
  0
SEQEND
  8
1
  5
2D
  0
POLYLINE
  8
1
  5
2F
  6
CONTINUOUS
 62
7
 10
0.0
 20
0.0
 30
0.0
 66
1
 70
0
  0
VERTEX
  8
1
  5
30
  6
CONTINUOUS
 62
7
 10
120.000832
 20
0.000752
 30
0.0
 42
0.15453
  0
VERTEX
  8
1
  5
31
  6
CONTINUOUS
 62
7
 10
116.851046
 20
1.84889
 30
0.0
  0
SEQEND
  8
1
  5
32
  0
POLYLINE
  8
1
  5
34
  6
CONTINUOUS
 62
7
 10
0.0
 20
0.0
 30
0.0
 66
1
 70
0
  0
VERTEX
  8
1
  5
35
  6
CONTINUOUS
 62
7
 10
116.85105
 20
1.84889
 30
0.0
  0
VERTEX
  8
1
  5
36
  6
CONTINUOUS
 62
7
 10
111.984329
 20
2.709483
 30
0.0
  0
VERTEX
  8
1
  5
37
  6
CONTINUOUS
 62
7
 10
109.002598
 20
2.954772
 30
0.0
  0
VERTEX
  8
1
  5
38
  6
CONTINUOUS
 62
7
 10
103.669381
 20
2.9944
 30
0.0
  0
VERTEX
  8
1
  5
39
  6
CONTINUOUS
 62
7
 10
98.873824
 20
2.933989
 30
0.0
  0
VERTEX
  8
1
  5
3A
  6
CONTINUOUS
 62
7
 10
96.814853
 20
3.080777
 30
0.0
  0
VERTEX
  8
1
  5
3B
  6
CONTINUOUS
 62
7
 10
94.143336
 20
3.772284
 30
0.0
  0
VERTEX
  8
1
  5
3C
  6
CONTINUOUS
 62
7
 10
92.994206
 20
4.411375
 30
0.0
  0
VERTEX
  8
1
  5
3D
  6
CONTINUOUS
 62
7
 10
91.96861
 20
5.29603
 30
0.0
  0
SEQEND
  8
1
  5
3E
  0
POLYLINE
  8
1
  5
3F
  6
CONTINUOUS
 62
7
 10
0.0
 20
0.0
 30
0.0
 66
1
 70
0
  0
VERTEX
  8
1
  5
40
  6
CONTINUOUS
 62
7
 10
91.968605
 20
5.296029
 30
0.0
 42
-0.331708
  0
VERTEX
  8
1
  5
41
  6
CONTINUOUS
 62
7
 10
91.113415
 20
10.121618
 30
0.0
  0
VERTEX
  8
1
  5
42
  6
CONTINUOUS
 62
7
 10
91.113416
 20
10.121617
 30
0.0
 42
1.831001
  0
VERTEX
  8
1
  5
43
  6
CONTINUOUS
 62
7
 10
77.39261
 20
8.663788
 30
0.0
  0
VERTEX
  8
1
  5
44
  6
CONTINUOUS
 62
7
 10
77.39261
 20
8.663788
 30
0.0
 42
-0.619489
  0
VERTEX
  8
1
  5
45
  6
CONTINUOUS
 62
7
 10
74.316141
 20
1.997426
 30
0.0
  0
VERTEX
  8
1
  5
46
  6
CONTINUOUS
 62
7
 10
74.316141
 20
1.997426
 30
0.0
 42
0.204718
  0
VERTEX
  8
1
  5
47
  6
CONTINUOUS
 62
7
 10
70.000671
 20
0.002419
 30
0.0
  0
SEQEND
  8
1
  5
48
  0
POLYLINE
  8
1
  5
4A
  6
CONTINUOUS
 62
7
 10
0.0
 20
0.0
 30
0.0
 66
1
 70
0
  0
VERTEX
  8
1
  5
4B
  6
CONTINUOUS
 62
7
 10
70.003349
 20
-7.492830E-008
 30
0.0
 42
0.154382
  0
VERTEX
  8
1
  5
4C
  6
CONTINUOUS
 62
7
 10
71.84889
 20
3.147444
 30
0.0
  0
SEQEND
  8
1
  5
4D
  0
POLYLINE
  8
1
  5
4F
  6
CONTINUOUS
 62
7
 10
0.0
 20
0.0
 30
0.0
 66
1
 70
0
  0
VERTEX
  8
1
  5
50
  6
CONTINUOUS
 62
7
 10
71.84889
 20
3.14744
 30
0.0
  0
VERTEX
  8
1
  5
51
  6
CONTINUOUS
 62
7
 10
72.709483
 20
8.014161
 30
0.0
  0
VERTEX
  8
1
  5
52
  6
CONTINUOUS
 62
7
 10
72.954772
 20
10.995892
 30
0.0
  0
VERTEX
  8
1
  5
53
  6
CONTINUOUS
 62
7
 10
72.9944
 20
16.329109
 30
0.0
  0
VERTEX
  8
1
  5
54
  6
CONTINUOUS
 62
7
 10
72.933989
 20
21.124666
 30
0.0
  0
VERTEX
  8
1
  5
55
  6
CONTINUOUS
 62
7
 10
73.080777
 20
23.183637
 30
0.0
  0
VERTEX
  8
1
  5
56
  6
CONTINUOUS
 62
7
 10
73.772284
 20
25.855154
 30
0.0
  0
VERTEX
  8
1
  5
57
  6
CONTINUOUS
 62
7
 10
74.411375
 20
27.004284
 30
0.0
  0
VERTEX
  8
1
  5
58
  6
CONTINUOUS
 62
7
 10
75.29603
 20
28.02988
 30
0.0
  0
SEQEND
  8
1
  5
59
  0
POLYLINE
  8
1
  5
5A
  6
CONTINUOUS
 62
7
 10
0.0
 20
0.0
 30
0.0
 66
1
 70
0
  0
VERTEX
  8
1
  5
5B
  6
CONTINUOUS
 62
7
 10
75.296029
 20
28.029885
 30
0.0
 42
-0.331708
  0
VERTEX
  8
1
  5
5C
  6
CONTINUOUS
 62
7
 10
80.121618
 20
28.885075
 30
0.0
  0
VERTEX
  8
1
  5
5D
  6
CONTINUOUS
 62
7
 10
80.121617
 20
28.885074
 30
0.0
 42
1.831001
  0
VERTEX
  8
1
  5
5E
  6
CONTINUOUS
 62
7
 10
78.663788
 20
42.60588
 30
0.0
  0
VERTEX
  8
1
  5
5F
  6
CONTINUOUS
 62
7
 10
78.663847
 20
42.605928
 30
0.0
 42
-0.619496
  0
VERTEX
  8
1
  5
60
  6
CONTINUOUS
 62
7
 10
71.997426
 20
45.682349
 30
0.0
  0
VERTEX
  8
1
  5
61
  6
CONTINUOUS
 62
7
 10
71.997426
 20
45.682349
 30
0.0
 42
0.204858
  0
VERTEX
  8
1
  5
62
  6
CONTINUOUS
 62
7
 10
70.0
 20
50.0
 30
0.0
  0
SEQEND
  8
1
  5
63
  0
POLYLINE
  8
1
  5
65
  6
CONTINUOUS
 62
7
 10
0.0
 20
0.0
 30
0.0
 66
1
 70
0
  0
VERTEX
  8
1
  5
66
  6
CONTINUOUS
 62
7
 10
119.996651
 20
50.0
 30
0.0
 42
0.154382
  0
VERTEX
  8
1
  5
67
  6
CONTINUOUS
 62
7
 10
118.15111
 20
46.852556
 30
0.0
  0
SEQEND
  8
1
  5
68
  0
POLYLINE
  8
1
  5
6A
  6
CONTINUOUS
 62
7
 10
0.0
 20
0.0
 30
0.0
 66
1
 70
0
  0
VERTEX
  8
1
  5
6B
  6
CONTINUOUS
 62
7
 10
118.15111
 20
46.85256
 30
0.0
  0
VERTEX
  8
1
  5
6C
  6
CONTINUOUS
 62
7
 10
117.290517
 20
41.985839
 30
0.0
  0
VERTEX
  8
1
  5
6D
  6
CONTINUOUS
 62
7
 10
117.045228
 20
39.004108
 30
0.0
  0
VERTEX
  8
1
  5
6E
  6
CONTINUOUS
 62
7
 10
117.0056
 20
33.670891
 30
0.0
  0
VERTEX
  8
1
  5
6F
  6
CONTINUOUS
 62
7
 10
117.066011
 20
28.875334
 30
0.0
  0
VERTEX
  8
1
  5
70
  6
CONTINUOUS
 62
7
 10
116.919223
 20
26.816363
 30
0.0
  0
VERTEX
  8
1
  5
71
  6
CONTINUOUS
 62
7
 10
116.227716
 20
24.144846
 30
0.0
  0
VERTEX
  8
1
  5
72
  6
CONTINUOUS
 62
7
 10
115.588625
 20
22.995716
 30
0.0
  0
VERTEX
  8
1
  5
73
  6
CONTINUOUS
 62
7
 10
114.70397
 20
21.97012
 30
0.0
  0
SEQEND
  8
1
  5
74
  0
POLYLINE
  8
1
  5
75
  6
CONTINUOUS
 62
7
 10
0.0
 20
0.0
 30
0.0
 66
1
 70
0
  0
VERTEX
  8
1
  5
76
  6
CONTINUOUS
 62
7
 10
114.703971
 20
21.970115
 30
0.0
 42
-0.331708
  0
VERTEX
  8
1
  5
77
  6
CONTINUOUS
 62
7
 10
109.878382
 20
21.114925
 30
0.0
  0
VERTEX
  8
1
  5
78
  6
CONTINUOUS
 62
7
 10
109.878383
 20
21.114926
 30
0.0
 42
1.831001
  0
VERTEX
  8
1
  5
79
  6
CONTINUOUS
 62
7
 10
111.336212
 20
7.39412
 30
0.0
  0
VERTEX
  8
1
  5
7A
  6
CONTINUOUS
 62
7
 10
111.336212
 20
7.39412
 30
0.0
 42
-0.619489
  0
VERTEX
  8
1
  5
7B
  6
CONTINUOUS
 62
7
 10
118.002574
 20
4.317651
 30
0.0
  0
VERTEX
  8
1
  5
7C
  6
CONTINUOUS
 62
7
 10
118.002574
 20
4.317651
 30
0.0
 42
0.204858
  0
VERTEX
  8
1
  5
7D
  6
CONTINUOUS
 62
7
 10
120.0
 20
-2.902730E-008
 30
0.0
  0
SEQEND
  8
1
  5
7E
  0
POLYLINE
  8
1
  5
80
  6
CONTINUOUS
 62
7
 10
0.0
 20
0.0
 30
0.0
 66
1
 70
0
  0
VERTEX
  8
1
  5
81
  6
CONTINUOUS
 62
7
 10
70.00335
 20
140.0
 30
0.0
  0
VERTEX
  8
1
  5
82
  6
CONTINUOUS
 62
7
 10
0.0
 20
140.0
 30
0.0
  0
VERTEX
  8
1
  5
83
  6
CONTINUOUS
 62
7
 10
0.0
 20
140.0
 30
0.0
  0
VERTEX
  8
1
  5
84
  6
CONTINUOUS
 62
7
 10
0.0
 20
90.0
 30
0.0
  0
VERTEX
  8
1
  5
85
  6
CONTINUOUS
 62
7
 10
0.0
 20
90.0
 30
0.0
  0
VERTEX
  8
1
  5
86
  6
CONTINUOUS
 62
7
 10
70.0
 20
90.0
 30
0.0
  0
SEQEND
  8
1
  5
87
  0
POLYLINE
  8
1
  5
89
  6
CONTINUOUS
 62
7
 10
0.0
 20
0.0
 30
0.0
 66
1
 70
0
  0
VERTEX
  8
1
  5
8A
  6
CONTINUOUS
 62
7
 10
119.99665
 20
90.0
 30
0.0
  0
VERTEX
  8
1
  5
8B
  6
CONTINUOUS
 62
7
 10
190.0
 20
90.0
 30
0.0
  0
VERTEX
  8
1
  5
8C
  6
CONTINUOUS
 62
7
 10
190.0
 20
90.0
 30
0.0
  0
VERTEX
  8
1
  5
8D
  6
CONTINUOUS
 62
7
 10
190.0
 20
140.0
 30
0.0
  0
VERTEX
  8
1
  5
8E
  6
CONTINUOUS
 62
7
 10
190.0
 20
140.0
 30
0.0
  0
VERTEX
  8
1
  5
8F
  6
CONTINUOUS
 62
7
 10
120.0
 20
140.0
 30
0.0
  0
SEQEND
  8
1
  5
90
  0
POLYLINE
  8
1
  5
92
  6
CONTINUOUS
 62
7
 10
0.0
 20
0.0
 30
0.0
 66
1
 70
0
  0
VERTEX
  8
1
  5
93
  6
CONTINUOUS
 62
7
 10
70.000671
 20
139.997581
 30
0.0
 42
0.204718
  0
VERTEX
  8
1
  5
94
  6
CONTINUOUS
 62
7
 10
74.316141
 20
138.002574
 30
0.0
  0
VERTEX
  8
1
  5
95
  6
CONTINUOUS
 62
7
 10
74.316141
 20
138.002574
 30
0.0
 42
-0.619489
  0
VERTEX
  8
1
  5
96
  6
CONTINUOUS
 62
7
 10
77.39261
 20
131.336212
 30
0.0
  0
VERTEX
  8
1
  5
97
  6
CONTINUOUS
 62
7
 10
77.39261
 20
131.336212
 30
0.0
 42
1.831001
  0
VERTEX
  8
1
  5
98
  6
CONTINUOUS
 62
7
 10
91.113416
 20
129.878383
 30
0.0
  0
VERTEX
  8
1
  5
99
  6
CONTINUOUS
 62
7
 10
91.113415
 20
129.878382
 30
0.0
 42
-0.331708
  0
VERTEX
  8
1
  5
9A
  6
CONTINUOUS
 62
7
 10
91.968605
 20
134.703971
 30
0.0
  0
SEQEND
  8
1
  5
9B
  0
POLYLINE
  8
1
  5
9D
  6
CONTINUOUS
 62
7
 10
0.0
 20
0.0
 30
0.0
 66
1
 70
0
  0
VERTEX
  8
1
  5
9E
  6
CONTINUOUS
 62
7
 10
91.96861
 20
134.70397
 30
0.0
  0
VERTEX
  8
1
  5
9F
  6
CONTINUOUS
 62
7
 10
93.572263
 20
135.947008
 30
0.0
  0
VERTEX
  8
1
  5
A0
  6
CONTINUOUS
 62
7
 10
94.799495
 20
136.478633
 30
0.0
  0
VERTEX
  8
1
  5
A1
  6
CONTINUOUS
 62
7
 10
97.636542
 20
137.003311
 30
0.0
  0
VERTEX
  8
1
  5
A2
  6
CONTINUOUS
 62
7
 10
109.257502
 20
137.05902
 30
0.0
  0
VERTEX
  8
1
  5
A3
  6
CONTINUOUS
 62
7
 10
114.185968
 20
137.604905
 30
0.0
  0
VERTEX
  8
1
  5
A4
  6
CONTINUOUS
 62
7
 10
116.85105
 20
138.15111
 30
0.0
  0
SEQEND
  8
1
  5
A5
  0
POLYLINE
  8
1
  5
A6
  6
CONTINUOUS
 62
7
 10
0.0
 20
0.0
 30
0.0
 66
1
 70
0
  0
VERTEX
  8
1
  5
A7
  6
CONTINUOUS
 62
7
 10
116.851046
 20
138.15111
 30
0.0
 42
0.15453
  0
VERTEX
  8
1
  5
A8
  6
CONTINUOUS
 62
7
 10
120.000832
 20
139.999248
 30
0.0
  0
SEQEND
  8
1
  5
A9
  0
POLYLINE
  8
1
  5
AB
  6
CONTINUOUS
 62
7
 10
0.0
 20
0.0
 30
0.0
 66
1
 70
0
  0
VERTEX
  8
1
  5
AC
  6
CONTINUOUS
 62
7
 10
69.998331
 20
90.001499
 30
0.0
 42
-0.154488
  0
VERTEX
  8
1
  5
AD
  6
CONTINUOUS
 62
7
 10
73.147444
 20
91.84889
 30
0.0
  0
SEQEND
  8
1
  5
AE
  0
POLYLINE
  8
1
  5
B0
  6
CONTINUOUS
 62
7
 10
0.0
 20
0.0
 30
0.0
 66
1
 70
0
  0
VERTEX
  8
1
  5
B1
  6
CONTINUOUS
 62
7
 10
73.14391
 20
91.84827
 30
0.0
  0
VERTEX
  8
1
  5
B2
  6
CONTINUOUS
 62
7
 10
78.013657
 20
92.709262
 30
0.0
  0
VERTEX
  8
1
  5
B3
  6
CONTINUOUS
 62
7
 10
80.996934
 20
92.954595
 30
0.0
  0
VERTEX
  8
1
  5
B4
  6
CONTINUOUS
 62
7
 10
86.332108
 20
92.99417
 30
0.0
  0
VERTEX
  8
1
  5
B5
  6
CONTINUOUS
 62
7
 10
91.126546
 20
92.934
 30
0.0
  0
VERTEX
  8
1
  5
B6
  6
CONTINUOUS
 62
7
 10
93.18495
 20
93.08094
 30
0.0
  0
VERTEX
  8
1
  5
B7
  6
CONTINUOUS
 62
7
 10
95.855725
 20
93.77254
 30
0.0
  0
VERTEX
  8
1
  5
B8
  6
CONTINUOUS
 62
7
 10
97.004546
 20
94.411561
 30
0.0
  0
VERTEX
  8
1
  5
B9
  6
CONTINUOUS
 62
7
 10
98.02988
 20
95.29603
 30
0.0
  0
SEQEND
  8
1
  5
BA
  0
POLYLINE
  8
1
  5
BB
  6
CONTINUOUS
 62
7
 10
0.0
 20
0.0
 30
0.0
 66
1
 70
0
  0
VERTEX
  8
1
  5
BC
  6
CONTINUOUS
 62
7
 10
98.029885
 20
95.296029
 30
0.0
 42
0.331708
  0
VERTEX
  8
1
  5
BD
  6
CONTINUOUS
 62
7
 10
98.885075
 20
100.121618
 30
0.0
  0
VERTEX
  8
1
  5
BE
  6
CONTINUOUS
 62
7
 10
98.885074
 20
100.121617
 30
0.0
 42
-1.831001
  0
VERTEX
  8
1
  5
BF
  6
CONTINUOUS
 62
7
 10
112.60588
 20
98.663788
 30
0.0
  0
VERTEX
  8
1
  5
C0
  6
CONTINUOUS
 62
7
 10
112.60588
 20
98.663788
 30
0.0
 42
0.619489
  0
VERTEX
  8
1
  5
C1
  6
CONTINUOUS
 62
7
 10
115.682349
 20
91.997426
 30
0.0
  0
VERTEX
  8
1
  5
C2
  6
CONTINUOUS
 62
7
 10
115.682349
 20
91.997426
 30
0.0
 42
-0.204761
  0
VERTEX
  8
1
  5
C3
  6
CONTINUOUS
 62
7
 10
119.998497
 20
90.001667
 30
0.0
  0
SEQEND
  8
1
  5
C4
  0
POLYLINE
  8
1
  5
C6
  6
CONTINUOUS
 62
7
 10
0.0
 20
0.0
 30
0.0
 66
1
 70
0
  0
VERTEX
  8
1
  5
C7
  6
CONTINUOUS
 62
7
 10
70.0
 20
90.0
 30
0.0
 42
0.204858
  0
VERTEX
  8
1
  5
C8
  6
CONTINUOUS
 62
7
 10
71.997426
 20
94.317651
 30
0.0
  0
VERTEX
  8
1
  5
C9
  6
CONTINUOUS
 62
7
 10
71.997426
 20
94.317651
 30
0.0
 42
-0.619496
  0
VERTEX
  8
1
  5
CA
  6
CONTINUOUS
 62
7
 10
78.663847
 20
97.394072
 30
0.0
  0
VERTEX
  8
1
  5
CB
  6
CONTINUOUS
 62
7
 10
78.663788
 20
97.39412
 30
0.0
 42
1.831001
  0
VERTEX
  8
1
  5
CC
  6
CONTINUOUS
 62
7
 10
80.121617
 20
111.114926
 30
0.0
  0
VERTEX
  8
1
  5
CD
  6
CONTINUOUS
 62
7
 10
80.121618
 20
111.114925
 30
0.0
 42
-0.331708
  0
VERTEX
  8
1
  5
CE
  6
CONTINUOUS
 62
7
 10
75.296029
 20
111.970115
 30
0.0
  0
SEQEND
  8
1
  5
CF
  0
POLYLINE
  8
1
  5
D1
  6
CONTINUOUS
 62
7
 10
0.0
 20
0.0
 30
0.0
 66
1
 70
0
  0
VERTEX
  8
1
  5
D2
  6
CONTINUOUS
 62
7
 10
75.29603
 20
111.97012
 30
0.0
  0
VERTEX
  8
1
  5
D3
  6
CONTINUOUS
 62
7
 10
74.411375
 20
112.995716
 30
0.0
  0
VERTEX
  8
1
  5
D4
  6
CONTINUOUS
 62
7
 10
73.772284
 20
114.144846
 30
0.0
  0
VERTEX
  8
1
  5
D5
  6
CONTINUOUS
 62
7
 10
73.080777
 20
116.816363
 30
0.0
  0
VERTEX
  8
1
  5
D6
  6
CONTINUOUS
 62
7
 10
72.933989
 20
118.875334
 30
0.0
  0
VERTEX
  8
1
  5
D7
  6
CONTINUOUS
 62
7
 10
72.9944
 20
123.670891
 30
0.0
  0
VERTEX
  8
1
  5
D8
  6
CONTINUOUS
 62
7
 10
72.954772
 20
129.004108
 30
0.0
  0
VERTEX
  8
1
  5
D9
  6
CONTINUOUS
 62
7
 10
72.709483
 20
131.985839
 30
0.0
  0
VERTEX
  8
1
  5
DA
  6
CONTINUOUS
 62
7
 10
71.84889
 20
136.85256
 30
0.0
  0
SEQEND
  8
1
  5
DB
  0
POLYLINE
  8
1
  5
DC
  6
CONTINUOUS
 62
7
 10
0.0
 20
0.0
 30
0.0
 66
1
 70
0
  0
VERTEX
  8
1
  5
DD
  6
CONTINUOUS
 62
7
 10
71.84889
 20
136.852556
 30
0.0
 42
0.154382
  0
VERTEX
  8
1
  5
DE
  6
CONTINUOUS
 62
7
 10
70.003349
 20
140.0
 30
0.0
  0
SEQEND
  8
1
  5
DF
  0
POLYLINE
  8
1
  5
E1
  6
CONTINUOUS
 62
7
 10
0.0
 20
0.0
 30
0.0
 66
1
 70
0
  0
VERTEX
  8
1
  5
E2
  6
CONTINUOUS
 62
7
 10
119.996651
 20
90.0
 30
0.0
 42
-0.154382
  0
VERTEX
  8
1
  5
E3
  6
CONTINUOUS
 62
7
 10
118.15111
 20
93.147444
 30
0.0
  0
SEQEND
  8
1
  5
E4
  0
POLYLINE
  8
1
  5
E6
  6
CONTINUOUS
 62
7
 10
0.0
 20
0.0
 30
0.0
 66
1
 70
0
  0
VERTEX
  8
1
  5
E7
  6
CONTINUOUS
 62
7
 10
118.15111
 20
93.14744
 30
0.0
  0
VERTEX
  8
1
  5
E8
  6
CONTINUOUS
 62
7
 10
117.290517
 20
98.014161
 30
0.0
  0
VERTEX
  8
1
  5
E9
  6
CONTINUOUS
 62
7
 10
117.045228
 20
100.995892
 30
0.0
  0
VERTEX
  8
1
  5
EA
  6
CONTINUOUS
 62
7
 10
117.0056
 20
106.329109
 30
0.0
  0
VERTEX
  8
1
  5
EB
  6
CONTINUOUS
 62
7
 10
117.066011
 20
111.124666
 30
0.0
  0
VERTEX
  8
1
  5
EC
  6
CONTINUOUS
 62
7
 10
116.919223
 20
113.183637
 30
0.0
  0
VERTEX
  8
1
  5
ED
  6
CONTINUOUS
 62
7
 10
116.227716
 20
115.855154
 30
0.0
  0
VERTEX
  8
1
  5
EE
  6
CONTINUOUS
 62
7
 10
115.588625
 20
117.004284
 30
0.0
  0
VERTEX
  8
1
  5
EF
  6
CONTINUOUS
 62
7
 10
114.70397
 20
118.02988
 30
0.0
  0
SEQEND
  8
1
  5
F0
  0
POLYLINE
  8
1
  5
F1
  6
CONTINUOUS
 62
7
 10
0.0
 20
0.0
 30
0.0
 66
1
 70
0
  0
VERTEX
  8
1
  5
F2
  6
CONTINUOUS
 62
7
 10
114.703971
 20
118.029885
 30
0.0
 42
0.331708
  0
VERTEX
  8
1
  5
F3
  6
CONTINUOUS
 62
7
 10
109.878382
 20
118.885075
 30
0.0
  0
VERTEX
  8
1
  5
F4
  6
CONTINUOUS
 62
7
 10
109.878383
 20
118.885074
 30
0.0
 42
-1.831001
  0
VERTEX
  8
1
  5
F5
  6
CONTINUOUS
 62
7
 10
111.336212
 20
132.60588
 30
0.0
  0
VERTEX
  8
1
  5
F6
  6
CONTINUOUS
 62
7
 10
111.336212
 20
132.60588
 30
0.0
 42
0.619489
  0
VERTEX
  8
1
  5
F7
  6
CONTINUOUS
 62
7
 10
118.002574
 20
135.682349
 30
0.0
  0
VERTEX
  8
1
  5
F8
  6
CONTINUOUS
 62
7
 10
118.002574
 20
135.682349
 30
0.0
 42
-0.204858
  0
VERTEX
  8
1
  5
F9
  6
CONTINUOUS
 62
7
 10
120.0
 20
140.0
 30
0.0
  0
SEQEND
  8
1
  5
FA
  0
ENDSEC
  0
EOF
