  0
SECTION
  2
HEADER
  9
$ACADVER
  1
AC1006
  9
$INSBASE
 10
0.0
 20
0.0
 30
0.0
  9
$EXTMAX
 10
283.90071
 20
74.99975
  9
$EXTMIN
 10
93.90071
 20
24.99975
  9
$LIMMAX
 10
12.0
 20
9.0
  9
$LIMMIN
 10
0.0
 20
0.0
  9
$ORTHOMODE
 70
0
  9
$REGENMODE
 70
1
  9
$FILLMODE
 70
1
  9
$QTEXTMODE
 70
0
  9
$MIRRTEXT
 70
1
  9
$DRAGMODE
 70
2
  9
$LTSCALE
 40
1.0
  9
$OSMODE
 70
0
  9
$ATTMODE
 70
1
  9
$TEXTSIZE
 40
0.2
  9
$TRACEWID
 40
0.05
  9
$TEXTSTYLE
  7
STANDARD
  9
$CLAYER
  8
0
  9
$CELTYPE
  6
CONTINUOUS
  9
$CECOLOR
 62
256
  9
$DIMSCALE
 40
1.0
  9
$DIMASZ
 40
0.18
  9
$DIMEXO
 40
0.0625
  9
$DIMDLI
 40
0.38
  9
$DIMRND
 40
0.0
  9
$DIMDLE
 40
0.0
  9
$DIMEXE
 40
0.18
  9
$DIMTP
 40
0.0
  9
$DIMTM
 40
0.0
  9
$DIMTXT
 40
0.18
  9
$DIMCEN
 40
0.09
  9
$DIMTSZ
 40
0.0
  9
$DIMTOL
 70
0
  9
$DIMLIM
 70
0
  9
$DIMTIH
 70
1
  9
$DIMTOH
 70
1
  9
$DIMSE1
 70
0
  9
$DIMSE2
 70
0
  9
$DIMTAD
 70
0
  9
$DIMZIN
 70
0
  9
$DIMBLK
  1

  9
$DIMASO
 70
1
  9
$DIMSHO
 70
1
  9
$DIMPOST
  1

  9
$DIMAPOST
  1

  9
$DIMALT
 70
0
  9
$DIMALTD
 70
2
  9
$DIMALTF
 40
25.4
  9
$DIMLFAC
 40
1.0
  9
$DIMTOFL
 70
0
  9
$DIMTVP
 40
0.0
  9
$DIMTIX
 70
0
  9
$DIMSOXD
 70
0
  9
$DIMSAH
 70
0
  9
$DIMBLK1
  1

  9
$DIMBLK2
  1

  9
$LUNITS
 70
2
  9
$LUPREC
 70
4
  9
$AXISMODE
 70
0
  9
$AXISUNIT
 10
0.0
 20
0.0
  9
$SKETCHINC
 40
0.1
  9
$FILLETRAD
 40
0.0
  9
$AUNITS
 70
0
  9
$AUPREC
 70
0
  9
$MENU
  1
acad
  9
$ELEVATION
 40
0.0
  9
$THICKNESS
 40
0.0
  9
$LIMCHECK
 70
0
  9
$BLIPMODE
 70
1
  9
$CHAMFERA
 40
0.0
  9
$CHAMFERB
 40
0.0
  9
$SKPOLY
 70
0
  9
$TDCREATE
 40
0.0
  9
$TDUPDATE
 40
0.0
  9
$TDINDWG
 40
0.0
  9
$TDUSRTIMER
 40
0.0
  9
$USRTIMER
 70
1
  9
$ANGBASE
 50
0.0
  9
$ANGDIR
 70
0
  9
$PDMODE
 70
0
  9
$PDSIZE
 40
0.0
  9
$PLINEWID
 40
0.0
  9
$COORDS
 70
0
  9
$SPLFRAME
 70
0
  9
$SPLINETYPE
 70
6
  9
$SPLINESEGS
 70
10
  9
$ATTDIA
 70
0
  9
$ATTREQ
 70
1
  9
$HANDLING
 70
1
  9
$HANDSEED
  5
7E
  9
$SURFTAB1
 70
6
  9
$SURFTAB2
 70
6
  9
$SURFTYPE
 70
6
  9
$SURFU
 70
10
  9
$SURFV
 70
10
  9
$FLATLAND
 70
0
  9
$UCSNAME
  2

  9
$UCSORG
 10
0.0
 20
0.0
 30
0.0
  9
$UCSXDIR
 10
1.0
 20
0.0
 30
0.0
  9
$UCSYDIR
 10
0.0
 20
1.0
 30
0.0
  9
$USERI1
 70
0
  9
$USERI2
 70
0
  9
$USERI3
 70
0
  9
$USERI4
 70
0
  9
$USERI5
 70
0
  9
$USERR1
 40
0.0
  9
$USERR2
 40
0.0
  9
$USERR3
 40
0.0
  9
$USERR4
 40
0.0
  9
$USERR5
 40
0.0
  9
$WORLDVIEW
 70
1
  0
ENDSEC
  0
SECTION
  2
TABLES
  0
TABLE
  2
LTYPE
 70
7
  0
LTYPE
  2
CONTINUOUS
 70
64
  3
Solid line
 72
65
 73
0
 40
0.0
  0
LTYPE
  2
DOT
 70
64
  3
. . . . . . . . . . . . . . . . . . . . . . . . . . . . . . . . .
 72
65
 73
2
 40
0.25
 49
0.0
 49
-0.25
  0
LTYPE
  2
HIDDEN
 70
64
  3
__ __ __ __ __ __ __ __ __ __ __ __ __ __ __ __ __ __ __ __ __ 
 72
65
 73
2
 40
0.375
 49
0.25
 49
-0.125
  0
LTYPE
  2
DASHED
 70
64
  3
__ __ __ __ __ __ __ __ __ __ __ __ __ __ __ __ __ __ __ __ __
 72
65
 73
2
 40
0.75
 49
0.5
 49
-0.25
  0
LTYPE
  2
DASHDOT
 70
64
  3
__ . __ . __ . __ . __ . __ . __ . __ . __ . __ . __ . __ . _
 72
65
 73
4
 40
1.0
 49
0.5
 49
-0.25
 49
0.0
 49
-0.25
  0
LTYPE
  2
DIVIDE
 70
64
  3
____ . . ____ . . ____ . . ____ . . ____ . . ____ . . ____ . .
 72
65
 73
6
 40
1.25
 49
0.5
 49
-0.25
 49
0.0
 49
-0.25
 49
0.0
 49
-0.25
  0
LTYPE
  2
CENTER
 70
64
  3
____ _ ____ _ ____ _ ____ _ ____ _ ____ _ ____ _ ____ _ ____ _
 72
65
 73
4
 40
2.0
 49
1.25
 49
-0.25
 49
0.25
 49
-0.25
  0
ENDTAB
  0
TABLE
  2
LAYER
 70
4
  0
LAYER
  2
0
 70
0
 62
7
  6
CONTINUOUS
  0
LAYER
  2
CONSTRUCTION_CLASS
 70
0
 62
7
  6
CONTINUOUS
  0
LAYER
  2
PATTERN_CLASS
 70
0
 62
7
  6
CONTINUOUS
  0
LAYER
  2
1
 70
0
 62
7
  6
CONTINUOUS
  0
ENDTAB
  0
TABLE
  2
STYLE
 70
1
  0
STYLE
  2
STANDARD
 70
0
 40
0.2
 41
1.0
 50
0.0
 71
0
 42
0.0
  3
txt
  4

  0
ENDTAB
  0
TABLE
  2
UCS
 70
0
  0
ENDTAB
  0
TABLE
  2
VIEW
 70
0
  0
ENDTAB
  0
TABLE
  2
VPORT
 70
1
  0
VPORT
  2
*ACTIVE
 70
0
 10
0.0
 20
0.0
 11
1.0
 21
1.0
 12
0.0
 22
0.0
 13
0.0
 23
0.0
 14
0.0
 24
0.0
 15
0.0
 25
0.0
 16
0.0
 26
0.0
 36
1.0
 17
173.676645
 27
49.99975
 37
0.0
 40
192.87112
 41
1.356745
 42
50.0
 43
0.00004
 44
0.0
 50
0.0
 51
0.0
 71
0
 72
100
 73
1
 74
0
 75
0
 76
0
 77
0
 78
0
  0
ENDTAB
  0
ENDSEC
  0
SECTION
  2
BLOCKS
  0
ENDSEC
  0
SECTION
  2
ENTITIES
  0
ARC
  8
1
  5
2
  6
CONTINUOUS
 62
7
 10
161.80071
 20
28.698026
 30
0.0
 40
4.1
 50
315.0
 51
360.0
  0
ARC
  8
1
  5
4
  6
CONTINUOUS
 62
7
 10
210.202434
 20
22.89975
 30
0.0
 40
4.1
 50
45.0
 51
90.0
  0
ARC
  8
1
  5
6
  6
CONTINUOUS
 62
7
 10
210.202434
 20
77.09975
 30
0.0
 40
4.1
 50
270.0
 51
314.845725
  0
LINE
  8
1
  5
8
  6
CONTINUOUS
 62
7
 10
198.95573
 20
72.99975
 30
0.0
 11
210.20243
 21
72.99975
 31
0.0
  0
ARC
  8
1
  5
A
  6
CONTINUOUS
 62
7
 10
198.955725
 20
68.89975
 30
0.0
 40
4.1
 50
90.0
 51
192.3953444444
  0
LINE
  8
1
  5
C
  6
CONTINUOUS
 62
7
 10
195.86346
 20
63.86929
 30
0.0
 11
194.9513
 21
68.01966
 31
0.0
  0
ARC
  8
1
  5
E
  6
CONTINUOUS
 62
7
 10
191.85903
 20
62.989206
 30
0.0
 40
4.1
 50
284.3581444444
 51
12.3953055556
  0
LINE
  8
1
  5
10
  6
CONTINUOUS
 62
7
 10
189.91953
 20
58.26054
 30
0.0
 11
192.87576
 21
59.01727
 31
0.0
  0
ARC
  8
1
  5
12
  6
CONTINUOUS
 62
7
 10
188.9028
 20
62.232477
 30
0.0
 40
4.1
 50
255.5854277778
 51
284.3581472222
  0
LINE
  8
1
  5
14
  6
CONTINUOUS
 62
7
 10
184.90359
 20
59.02712
 30
0.0
 11
187.88216
 21
58.26155
 31
0.0
  0
ARC
  8
1
  5
16
  6
CONTINUOUS
 62
7
 10
185.924229
 20
62.998052
 30
0.0
 40
4.1
 50
167.3597972222
 51
255.5854277778
  0
LINE
  8
1
  5
18
  6
CONTINUOUS
 62
7
 10
182.84472
 20
68.00255
 30
0.0
 11
181.9236
 21
63.89525
 31
0.0
  0
ARC
  8
1
  5
1A
  6
CONTINUOUS
 62
7
 10
178.844087
 20
68.89975
 30
0.0
 40
4.1
 50
347.359775
 51
90.0
  0
LINE
  8
1
  5
1C
  6
CONTINUOUS
 62
7
 10
167.59899
 20
72.99975
 30
0.0
 11
178.84409
 21
72.99975
 31
0.0
  0
ARC
  8
1
  5
1E
  6
CONTINUOUS
 62
7
 10
167.598986
 20
77.09975
 30
0.0
 40
4.1
 50
225.0285166667
 51
270.0
  0
ARC
  8
1
  5
20
  6
CONTINUOUS
 62
7
 10
167.598986
 20
22.89975
 30
0.0
 40
4.1
 50
90.0
 51
135.0
  0
LINE
  8
1
  5
22
  6
CONTINUOUS
 62
7
 10
178.84409
 20
26.99975
 30
0.0
 11
167.59899
 21
26.99975
 31
0.0
  0
ARC
  8
1
  5
24
  6
CONTINUOUS
 62
7
 10
178.844087
 20
31.09975
 30
0.0
 40
4.1
 50
270.0
 51
12.640225
  0
LINE
  8
1
  5
26
  6
CONTINUOUS
 62
7
 10
181.9236
 20
36.10425
 30
0.0
 11
182.84472
 21
31.99695
 31
0.0
  0
ARC
  8
1
  5
28
  6
CONTINUOUS
 62
7
 10
185.924229
 20
37.001448
 30
0.0
 40
4.1
 50
104.4145722222
 51
192.6402027778
  0
LINE
  8
1
  5
2A
  6
CONTINUOUS
 62
7
 10
187.88216
 20
41.73795
 30
0.0
 11
184.90359
 21
40.97238
 31
0.0
  0
ARC
  8
1
  5
2C
  6
CONTINUOUS
 62
7
 10
188.9028
 20
37.767023
 30
0.0
 40
4.1
 50
75.6418527778
 51
104.4145722222
  0
LINE
  8
1
  5
2E
  6
CONTINUOUS
 62
7
 10
192.87576
 20
40.98223
 30
0.0
 11
189.91953
 21
41.73896
 31
0.0
  0
ARC
  8
1
  5
30
  6
CONTINUOUS
 62
7
 10
191.85903
 20
37.010294
 30
0.0
 40
4.1
 50
347.6046944444
 51
75.6418555556
  0
LINE
  8
1
  5
32
  6
CONTINUOUS
 62
7
 10
194.9513
 20
31.97984
 30
0.0
 11
195.86346
 21
36.13021
 31
0.0
  0
ARC
  8
1
  5
34
  6
CONTINUOUS
 62
7
 10
198.955725
 20
31.09975
 30
0.0
 40
4.1
 50
167.6046555556
 51
270.0
  0
LINE
  8
1
  5
36
  6
CONTINUOUS
 62
7
 10
210.20243
 20
26.99975
 30
0.0
 11
198.95573
 21
26.99975
 31
0.0
  0
LINE
  8
1
  5
38
  6
CONTINUOUS
 62
7
 10
165.90071
 20
28.69803
 30
0.0
 11
165.90071
 21
39.94313
 31
0.0
  0
ARC
  8
1
  5
3A
  6
CONTINUOUS
 62
7
 10
170.00071
 20
39.943127
 30
0.0
 40
4.1
 50
77.3597944444
 51
180.0
  0
LINE
  8
1
  5
3C
  6
CONTINUOUS
 62
7
 10
170.8979
 20
43.94376
 30
0.0
 11
175.00521
 21
43.02264
 31
0.0
  0
ARC
  8
1
  5
3E
  6
CONTINUOUS
 62
7
 10
175.902408
 20
47.023269
 30
0.0
 40
4.1
 50
257.3597472222
 51
345.5854277778
  0
LINE
  8
1
  5
40
  6
CONTINUOUS
 62
7
 10
179.87334
 20
46.00263
 30
0.0
 11
180.63891
 21
48.9812
 31
0.0
  0
ARC
  8
1
  5
42
  6
CONTINUOUS
 62
7
 10
176.667983
 20
50.00184
 30
0.0
 40
4.1
 50
345.5854277778
 51
14.3581472222
  0
LINE
  8
1
  5
44
  6
CONTINUOUS
 62
7
 10
180.63992
 20
51.01857
 30
0.0
 11
179.88319
 21
53.9748
 31
0.0
  0
ARC
  8
1
  5
46
  6
CONTINUOUS
 62
7
 10
175.911254
 20
52.95807
 30
0.0
 40
4.1
 50
14.3581444444
 51
102.3953055556
  0
LINE
  8
1
  5
48
  6
CONTINUOUS
 62
7
 10
175.03117
 20
56.9625
 30
0.0
 11
170.8808
 21
56.05034
 31
0.0
  0
ARC
  8
1
  5
4A
  6
CONTINUOUS
 62
7
 10
170.00071
 20
60.054765
 30
0.0
 40
4.1
 50
180.0
 51
282.3953444444
  0
LINE
  8
1
  5
4C
  6
CONTINUOUS
 62
7
 10
165.90071
 20
60.05477
 30
0.0
 11
165.90071
 21
71.30147
 31
0.0
  0
ARC
  8
1
  5
4E
  6
CONTINUOUS
 62
7
 10
161.80071
 20
71.301474
 30
0.0
 40
4.1
 50
0.0
 51
45.0
  0
ARC
  8
1
  5
50
  6
CONTINUOUS
 62
7
 10
216.00071
 20
71.301474
 30
0.0
 40
4.1
 50
135.0
 51
180.0
  0
LINE
  8
1
  5
52
  6
CONTINUOUS
 62
7
 10
211.90071
 20
71.30147
 30
0.0
 11
211.90071
 21
60.05477
 31
0.0
  0
ARC
  8
1
  5
54
  6
CONTINUOUS
 62
7
 10
207.80071
 20
60.054765
 30
0.0
 40
4.1
 50
257.6046555556
 51
5.0888874903E-014
  0
LINE
  8
1
  5
56
  6
CONTINUOUS
 62
7
 10
206.92062
 20
56.05034
 30
0.0
 11
202.77025
 21
56.9625
 31
0.0
  0
ARC
  8
1
  5
58
  6
CONTINUOUS
 62
7
 10
201.890166
 20
52.95807
 30
0.0
 40
4.1
 50
77.6046944444
 51
165.6418555556
  0
LINE
  8
1
  5
5A
  6
CONTINUOUS
 62
7
 10
197.91823
 20
53.9748
 30
0.0
 11
197.1615
 21
51.01857
 31
0.0
  0
ARC
  8
1
  5
5C
  6
CONTINUOUS
 62
7
 10
201.133437
 20
50.00184
 30
0.0
 40
4.1
 50
165.6418527778
 51
194.4145722222
  0
LINE
  8
1
  5
5E
  6
CONTINUOUS
 62
7
 10
197.16251
 20
48.9812
 30
0.0
 11
197.92808
 21
46.00263
 31
0.0
  0
ARC
  8
1
  5
60
  6
CONTINUOUS
 62
7
 10
201.899012
 20
47.023269
 30
0.0
 40
4.1
 50
194.4145722222
 51
282.6402527778
  0
LINE
  8
1
  5
62
  6
CONTINUOUS
 62
7
 10
202.79621
 20
43.02264
 30
0.0
 11
206.90352
 21
43.94376
 31
0.0
  0
ARC
  8
1
  5
64
  6
CONTINUOUS
 62
7
 10
207.80071
 20
39.943127
 30
0.0
 40
4.1
 50
0.0
 51
102.6402055556
  0
LINE
  8
1
  5
66
  6
CONTINUOUS
 62
7
 10
211.90071
 20
39.94313
 30
0.0
 11
211.90071
 21
28.69803
 31
0.0
  0
ARC
  8
1
  5
68
  6
CONTINUOUS
 62
7
 10
216.00071
 20
28.698026
 30
0.0
 40
4.1
 50
180.0
 51
225.0
  0
LINE
  8
1
  5
6A
  6
CONTINUOUS
 62
7
 10
213.10157
 20
25.79889
 30
0.0
 11
213.90071
 21
24.99975
 31
0.0
  0
LINE
  8
1
  5
6C
  6
CONTINUOUS
 62
7
 10
164.69985
 20
74.20061
 30
0.0
 11
163.90071
 21
74.99975
 31
0.0
  0
LINE
  8
1
  5
6E
  6
CONTINUOUS
 62
7
 10
93.90071
 20
74.99975
 30
0.0
 11
163.90071
 21
74.99975
 31
0.0
  0
LINE
  8
1
  5
70
  6
CONTINUOUS
 62
7
 10
93.90071
 20
24.99975
 30
0.0
 11
93.90071
 21
74.99975
 31
0.0
  0
LINE
  8
1
  5
72
  6
CONTINUOUS
 62
7
 10
163.90071
 20
24.99975
 30
0.0
 11
93.90071
 21
24.99975
 31
0.0
  0
LINE
  8
1
  5
74
  6
CONTINUOUS
 62
7
 10
163.90071
 20
24.99975
 30
0.0
 11
164.69985
 21
25.79889
 31
0.0
  0
LINE
  8
1
  5
76
  6
CONTINUOUS
 62
7
 10
213.90071
 20
74.99975
 30
0.0
 11
213.10157
 21
74.20061
 31
0.0
  0
LINE
  8
1
  5
78
  6
CONTINUOUS
 62
7
 10
213.90071
 20
74.99975
 30
0.0
 11
283.90071
 21
74.99975
 31
0.0
  0
LINE
  8
1
  5
7A
  6
CONTINUOUS
 62
7
 10
283.90071
 20
24.99975
 30
0.0
 11
213.90071
 21
24.99975
 31
0.0
  0
LINE
  8
1
  5
7C
  6
CONTINUOUS
 62
7
 10
283.90071
 20
74.99975
 30
0.0
 11
283.90071
 21
24.99975
 31
0.0
  0
ENDSEC
  0
EOF
