  0
SECTION
  2
HEADER
  9
$ACADVER
  1
AC1006
  9
$INSBASE
 10
0.0
 20
0.0
 30
0.0
  9
$EXTMAX
 10
755.07179
 20
-84.08594
  9
$EXTMIN
 10
231.67082
 20
-274.54826
  9
$LIMMAX
 10
12.0
 20
9.0
  9
$LIMMIN
 10
0.0
 20
0.0
  9
$ORTHOMODE
 70
0
  9
$REGENMODE
 70
1
  9
$FILLMODE
 70
1
  9
$QTEXTMODE
 70
0
  9
$MIRRTEXT
 70
1
  9
$DRAGMODE
 70
2
  9
$LTSCALE
 40
1.0
  9
$OSMODE
 70
0
  9
$ATTMODE
 70
1
  9
$TEXTSIZE
 40
0.2
  9
$TRACEWID
 40
0.05
  9
$TEXTSTYLE
  7
STANDARD
  9
$CLAYER
  8
0
  9
$CELTYPE
  6
CONTINUOUS
  9
$CECOLOR
 62
256
  9
$DIMSCALE
 40
1.0
  9
$DIMASZ
 40
0.18
  9
$DIMEXO
 40
0.0625
  9
$DIMDLI
 40
0.38
  9
$DIMRND
 40
0.0
  9
$DIMDLE
 40
0.0
  9
$DIMEXE
 40
0.18
  9
$DIMTP
 40
0.0
  9
$DIMTM
 40
0.0
  9
$DIMTXT
 40
0.18
  9
$DIMCEN
 40
0.09
  9
$DIMTSZ
 40
0.0
  9
$DIMTOL
 70
0
  9
$DIMLIM
 70
0
  9
$DIMTIH
 70
1
  9
$DIMTOH
 70
1
  9
$DIMSE1
 70
0
  9
$DIMSE2
 70
0
  9
$DIMTAD
 70
0
  9
$DIMZIN
 70
0
  9
$DIMBLK
  1

  9
$DIMASO
 70
1
  9
$DIMSHO
 70
1
  9
$DIMPOST
  1

  9
$DIMAPOST
  1

  9
$DIMALT
 70
0
  9
$DIMALTD
 70
2
  9
$DIMALTF
 40
25.4
  9
$DIMLFAC
 40
1.0
  9
$DIMTOFL
 70
0
  9
$DIMTVP
 40
0.0
  9
$DIMTIX
 70
0
  9
$DIMSOXD
 70
0
  9
$DIMSAH
 70
0
  9
$DIMBLK1
  1

  9
$DIMBLK2
  1

  9
$LUNITS
 70
2
  9
$LUPREC
 70
4
  9
$AXISMODE
 70
0
  9
$AXISUNIT
 10
0.0
 20
0.0
  9
$SKETCHINC
 40
0.1
  9
$FILLETRAD
 40
0.0
  9
$AUNITS
 70
0
  9
$AUPREC
 70
0
  9
$MENU
  1
acad
  9
$ELEVATION
 40
0.0
  9
$THICKNESS
 40
0.0
  9
$LIMCHECK
 70
0
  9
$BLIPMODE
 70
1
  9
$CHAMFERA
 40
0.0
  9
$CHAMFERB
 40
0.0
  9
$SKPOLY
 70
0
  9
$TDCREATE
 40
0.0
  9
$TDUPDATE
 40
0.0
  9
$TDINDWG
 40
0.0
  9
$TDUSRTIMER
 40
0.0
  9
$USRTIMER
 70
1
  9
$ANGBASE
 50
0.0
  9
$ANGDIR
 70
0
  9
$PDMODE
 70
0
  9
$PDSIZE
 40
0.0
  9
$PLINEWID
 40
0.0
  9
$COORDS
 70
0
  9
$SPLFRAME
 70
0
  9
$SPLINETYPE
 70
6
  9
$SPLINESEGS
 70
10
  9
$ATTDIA
 70
0
  9
$ATTREQ
 70
1
  9
$HANDLING
 70
1
  9
$HANDSEED
  5
C2
  9
$SURFTAB1
 70
6
  9
$SURFTAB2
 70
6
  9
$SURFTYPE
 70
6
  9
$SURFU
 70
10
  9
$SURFV
 70
10
  9
$FLATLAND
 70
0
  9
$UCSNAME
  2

  9
$UCSORG
 10
0.0
 20
0.0
 30
0.0
  9
$UCSXDIR
 10
1.0
 20
0.0
 30
0.0
  9
$UCSYDIR
 10
0.0
 20
1.0
 30
0.0
  9
$USERI1
 70
0
  9
$USERI2
 70
0
  9
$USERI3
 70
0
  9
$USERI4
 70
0
  9
$USERI5
 70
0
  9
$USERR1
 40
0.0
  9
$USERR2
 40
0.0
  9
$USERR3
 40
0.0
  9
$USERR4
 40
0.0
  9
$USERR5
 40
0.0
  9
$WORLDVIEW
 70
1
  0
ENDSEC
  0
SECTION
  2
TABLES
  0
TABLE
  2
LTYPE
 70
7
  0
LTYPE
  2
CONTINUOUS
 70
64
  3
Solid line
 72
65
 73
0
 40
0.0
  0
LTYPE
  2
DOT
 70
64
  3
. . . . . . . . . . . . . . . . . . . . . . . . . . . . . . . . .
 72
65
 73
2
 40
0.25
 49
0.0
 49
-0.25
  0
LTYPE
  2
HIDDEN
 70
64
  3
__ __ __ __ __ __ __ __ __ __ __ __ __ __ __ __ __ __ __ __ __ 
 72
65
 73
2
 40
0.375
 49
0.25
 49
-0.125
  0
LTYPE
  2
DASHED
 70
64
  3
__ __ __ __ __ __ __ __ __ __ __ __ __ __ __ __ __ __ __ __ __
 72
65
 73
2
 40
0.75
 49
0.5
 49
-0.25
  0
LTYPE
  2
DASHDOT
 70
64
  3
__ . __ . __ . __ . __ . __ . __ . __ . __ . __ . __ . __ . _
 72
65
 73
4
 40
1.0
 49
0.5
 49
-0.25
 49
0.0
 49
-0.25
  0
LTYPE
  2
DIVIDE
 70
64
  3
____ . . ____ . . ____ . . ____ . . ____ . . ____ . . ____ . .
 72
65
 73
6
 40
1.25
 49
0.5
 49
-0.25
 49
0.0
 49
-0.25
 49
0.0
 49
-0.25
  0
LTYPE
  2
CENTER
 70
64
  3
____ _ ____ _ ____ _ ____ _ ____ _ ____ _ ____ _ ____ _ ____ _
 72
65
 73
4
 40
2.0
 49
1.25
 49
-0.25
 49
0.25
 49
-0.25
  0
ENDTAB
  0
TABLE
  2
LAYER
 70
4
  0
LAYER
  2
0
 70
0
 62
7
  6
CONTINUOUS
  0
LAYER
  2
CONSTRUCTION_CLASS
 70
0
 62
7
  6
CONTINUOUS
  0
LAYER
  2
PATTERN_CLASS
 70
0
 62
7
  6
CONTINUOUS
  0
LAYER
  2
1
 70
0
 62
7
  6
CONTINUOUS
  0
ENDTAB
  0
TABLE
  2
STYLE
 70
1
  0
STYLE
  2
STANDARD
 70
0
 40
0.2
 41
1.0
 50
0.0
 71
0
 42
0.0
  3
txt
  4

  0
ENDTAB
  0
TABLE
  2
UCS
 70
0
  0
ENDTAB
  0
TABLE
  2
VIEW
 70
0
  0
ENDTAB
  0
TABLE
  2
VPORT
 70
1
  0
VPORT
  2
*ACTIVE
 70
0
 10
0.0
 20
0.0
 11
1.0
 21
1.0
 12
0.0
 22
0.0
 13
0.0
 23
0.0
 14
0.0
 24
0.0
 15
0.0
 25
0.0
 16
0.0
 26
0.0
 36
1.0
 17
466.271188
 27
-178.711005
 37
0.0
 40
355.86903
 41
1.355234
 42
50.0
 43
0.00004
 44
0.0
 50
0.0
 51
0.0
 71
0
 72
100
 73
1
 74
0
 75
0
 76
0
 77
0
 78
0
  0
ENDTAB
  0
ENDSEC
  0
SECTION
  2
BLOCKS
  0
ENDSEC
  0
SECTION
  2
ENTITIES
  0
LINE
  8
1
  5
2
  6
CONTINUOUS
 62
3
 10
459.67082
 20
-194.08594
 30
0.0
 11
459.67082
 21
-194.08593
 31
0.0
  0
LINE
  8
1
  5
4
  6
CONTINUOUS
 62
7
 10
431.67082
 20
-151.38594
 30
0.0
 11
431.67082
 21
-126.78594
 31
0.0
  0
LINE
  8
1
  5
6
  6
CONTINUOUS
 62
7
 10
431.67082
 20
-102.18594
 30
0.0
 11
431.67082
 21
-84.08594
 31
0.0
  0
LINE
  8
1
  5
8
  6
CONTINUOUS
 62
7
 10
459.67082
 20
-84.08594
 30
0.0
 11
459.67082
 21
-194.08594
 31
0.0
  0
LINE
  8
1
  5
A
  6
CONTINUOUS
 62
7
 10
431.67082
 20
-194.08594
 30
0.0
 11
431.67082
 21
-175.98594
 31
0.0
  0
LINE
  8
1
  5
C
  6
CONTINUOUS
 62
7
 10
567.07179
 20
-102.18594
 30
0.0
 11
567.07179
 21
-126.78594
 31
0.0
  0
LINE
  8
1
  5
E
  6
CONTINUOUS
 62
3
 10
567.07179
 20
-126.78594
 30
0.0
 11
567.07179
 21
-126.78593
 31
0.0
  0
LINE
  8
1
  5
10
  6
CONTINUOUS
 62
7
 10
527.07179
 20
-126.78594
 30
0.0
 11
527.07179
 21
-102.18594
 31
0.0
  0
LINE
  8
1
  5
12
  6
CONTINUOUS
 62
7
 10
527.07179
 20
-175.98594
 30
0.0
 11
527.07179
 21
-151.38594
 31
0.0
  0
LINE
  8
1
  5
14
  6
CONTINUOUS
 62
3
 10
567.07179
 20
-175.98594
 30
0.0
 11
567.07179
 21
-175.98593
 31
0.0
  0
LINE
  8
1
  5
16
  6
CONTINUOUS
 62
7
 10
567.07179
 20
-151.38594
 30
0.0
 11
567.07179
 21
-175.98594
 31
0.0
  0
LINE
  8
1
  5
18
  6
CONTINUOUS
 62
3
 10
526.70736
 20
-274.54826
 30
0.0
 11
526.70736
 21
-274.54825
 31
0.0
  0
LINE
  8
1
  5
1A
  6
CONTINUOUS
 62
3
 10
526.70736
 20
-274.54826
 30
0.0
 11
526.70736
 21
-274.54825
 31
0.0
  0
LINE
  8
1
  5
1C
  6
CONTINUOUS
 62
3
 10
526.70736
 20
-262.54826
 30
0.0
 11
526.70736
 21
-262.54825
 31
0.0
  0
LINE
  8
1
  5
1E
  6
CONTINUOUS
 62
7
 10
526.70736
 20
-234.54826
 30
0.0
 11
526.70736
 21
-262.54826
 31
0.0
  0
POLYLINE
  8
1
  5
20
  6
CONTINUOUS
 62
7
 10
0.0
 20
0.0
 30
0.0
 66
1
 70
1
  0
VERTEX
  8
1
  5
21
  6
CONTINUOUS
 62
7
 10
755.07179
 20
-84.08594
 30
0.0
  0
VERTEX
  8
1
  5
22
  6
CONTINUOUS
 62
7
 10
577.07179
 20
-84.08594
 30
0.0
  0
VERTEX
  8
1
  5
23
  6
CONTINUOUS
 62
7
 10
577.07179
 20
-84.08594
 30
0.0
  0
VERTEX
  8
1
  5
24
  6
CONTINUOUS
 62
7
 10
577.07179
 20
-93.98594
 30
0.0
  0
VERTEX
  8
1
  5
25
  6
CONTINUOUS
 62
7
 10
577.07179
 20
-93.98594
 30
0.0
  0
VERTEX
  8
1
  5
26
  6
CONTINUOUS
 62
7
 10
584.97179
 20
-93.98594
 30
0.0
  0
VERTEX
  8
1
  5
27
  6
CONTINUOUS
 62
7
 10
584.971794
 20
-93.985937
 30
0.0
 42
-1.0
  0
VERTEX
  8
1
  5
28
  6
CONTINUOUS
 62
7
 10
584.971794
 20
-102.185937
 30
0.0
  0
VERTEX
  8
1
  5
29
  6
CONTINUOUS
 62
7
 10
584.97179
 20
-102.18594
 30
0.0
  0
VERTEX
  8
1
  5
2A
  6
CONTINUOUS
 62
7
 10
567.07179
 20
-102.18594
 30
0.0
  0
VERTEX
  8
1
  5
2B
  6
CONTINUOUS
 62
7
 10
567.07178
 20
-102.18594
 30
0.0
  0
VERTEX
  8
1
  5
2C
  6
CONTINUOUS
 62
7
 10
527.07179
 20
-102.18594
 30
0.0
  0
VERTEX
  8
1
  5
2D
  6
CONTINUOUS
 62
7
 10
527.07179
 20
-102.18594
 30
0.0
  0
VERTEX
  8
1
  5
2E
  6
CONTINUOUS
 62
7
 10
515.07179
 20
-102.18594
 30
0.0
  0
VERTEX
  8
1
  5
2F
  6
CONTINUOUS
 62
7
 10
515.07179
 20
-102.18594
 30
0.0
  0
VERTEX
  8
1
  5
30
  6
CONTINUOUS
 62
7
 10
515.07179
 20
-126.78594
 30
0.0
  0
VERTEX
  8
1
  5
31
  6
CONTINUOUS
 62
7
 10
515.07179
 20
-126.78594
 30
0.0
  0
VERTEX
  8
1
  5
32
  6
CONTINUOUS
 62
7
 10
527.07179
 20
-126.78594
 30
0.0
  0
VERTEX
  8
1
  5
33
  6
CONTINUOUS
 62
7
 10
527.07179
 20
-126.78594
 30
0.0
  0
VERTEX
  8
1
  5
34
  6
CONTINUOUS
 62
7
 10
567.07179
 20
-126.78594
 30
0.0
  0
VERTEX
  8
1
  5
35
  6
CONTINUOUS
 62
7
 10
567.07179
 20
-126.78594
 30
0.0
  0
VERTEX
  8
1
  5
36
  6
CONTINUOUS
 62
7
 10
584.97179
 20
-126.78594
 30
0.0
  0
VERTEX
  8
1
  5
37
  6
CONTINUOUS
 62
7
 10
584.971794
 20
-126.785937
 30
0.0
 42
-1.0
  0
VERTEX
  8
1
  5
38
  6
CONTINUOUS
 62
7
 10
584.971794
 20
-134.985937
 30
0.0
  0
VERTEX
  8
1
  5
39
  6
CONTINUOUS
 62
7
 10
584.97179
 20
-134.98594
 30
0.0
  0
VERTEX
  8
1
  5
3A
  6
CONTINUOUS
 62
7
 10
577.07179
 20
-134.98594
 30
0.0
  0
VERTEX
  8
1
  5
3B
  6
CONTINUOUS
 62
7
 10
577.07179
 20
-134.98594
 30
0.0
  0
VERTEX
  8
1
  5
3C
  6
CONTINUOUS
 62
7
 10
577.07179
 20
-143.18594
 30
0.0
  0
VERTEX
  8
1
  5
3D
  6
CONTINUOUS
 62
7
 10
577.07179
 20
-143.18594
 30
0.0
  0
VERTEX
  8
1
  5
3E
  6
CONTINUOUS
 62
7
 10
584.97179
 20
-143.18594
 30
0.0
  0
VERTEX
  8
1
  5
3F
  6
CONTINUOUS
 62
7
 10
584.971794
 20
-143.185937
 30
0.0
 42
-1.0
  0
VERTEX
  8
1
  5
40
  6
CONTINUOUS
 62
7
 10
584.971794
 20
-151.385937
 30
0.0
  0
VERTEX
  8
1
  5
41
  6
CONTINUOUS
 62
7
 10
584.97179
 20
-151.38594
 30
0.0
  0
VERTEX
  8
1
  5
42
  6
CONTINUOUS
 62
7
 10
567.07179
 20
-151.38594
 30
0.0
  0
VERTEX
  8
1
  5
43
  6
CONTINUOUS
 62
7
 10
567.07178
 20
-151.38594
 30
0.0
  0
VERTEX
  8
1
  5
44
  6
CONTINUOUS
 62
7
 10
527.07179
 20
-151.38594
 30
0.0
  0
VERTEX
  8
1
  5
45
  6
CONTINUOUS
 62
7
 10
527.07179
 20
-151.38594
 30
0.0
  0
VERTEX
  8
1
  5
46
  6
CONTINUOUS
 62
7
 10
515.07179
 20
-151.38594
 30
0.0
  0
VERTEX
  8
1
  5
47
  6
CONTINUOUS
 62
7
 10
515.07179
 20
-151.38594
 30
0.0
  0
VERTEX
  8
1
  5
48
  6
CONTINUOUS
 62
7
 10
515.07179
 20
-175.98594
 30
0.0
  0
VERTEX
  8
1
  5
49
  6
CONTINUOUS
 62
7
 10
515.07179
 20
-175.98594
 30
0.0
  0
VERTEX
  8
1
  5
4A
  6
CONTINUOUS
 62
7
 10
527.07179
 20
-175.98594
 30
0.0
  0
VERTEX
  8
1
  5
4B
  6
CONTINUOUS
 62
7
 10
527.07179
 20
-175.98594
 30
0.0
  0
VERTEX
  8
1
  5
4C
  6
CONTINUOUS
 62
7
 10
567.07179
 20
-175.98594
 30
0.0
  0
VERTEX
  8
1
  5
4D
  6
CONTINUOUS
 62
7
 10
567.07179
 20
-175.98594
 30
0.0
  0
VERTEX
  8
1
  5
4E
  6
CONTINUOUS
 62
7
 10
584.97179
 20
-175.98594
 30
0.0
  0
VERTEX
  8
1
  5
4F
  6
CONTINUOUS
 62
7
 10
584.971794
 20
-175.985937
 30
0.0
 42
-1.0
  0
VERTEX
  8
1
  5
50
  6
CONTINUOUS
 62
7
 10
584.971794
 20
-184.185937
 30
0.0
  0
VERTEX
  8
1
  5
51
  6
CONTINUOUS
 62
7
 10
584.97179
 20
-184.18594
 30
0.0
  0
VERTEX
  8
1
  5
52
  6
CONTINUOUS
 62
7
 10
577.07179
 20
-184.18594
 30
0.0
  0
VERTEX
  8
1
  5
53
  6
CONTINUOUS
 62
7
 10
577.07179
 20
-184.18594
 30
0.0
  0
VERTEX
  8
1
  5
54
  6
CONTINUOUS
 62
7
 10
577.07179
 20
-194.08594
 30
0.0
  0
VERTEX
  8
1
  5
55
  6
CONTINUOUS
 62
7
 10
577.07179
 20
-194.08594
 30
0.0
  0
VERTEX
  8
1
  5
56
  6
CONTINUOUS
 62
7
 10
755.07179
 20
-194.08594
 30
0.0
  0
VERTEX
  8
1
  5
57
  6
CONTINUOUS
 62
7
 10
755.07179
 20
-194.08594
 30
0.0
  0
SEQEND
  8
1
  5
58
  0
POLYLINE
  8
1
  5
5A
  6
CONTINUOUS
 62
7
 10
0.0
 20
0.0
 30
0.0
 66
1
 70
1
  0
VERTEX
  8
1
  5
5B
  6
CONTINUOUS
 62
7
 10
431.67082
 20
-102.18594
 30
0.0
  0
VERTEX
  8
1
  5
5C
  6
CONTINUOUS
 62
7
 10
413.77082
 20
-102.18594
 30
0.0
  0
VERTEX
  8
1
  5
5D
  6
CONTINUOUS
 62
7
 10
413.770824
 20
-102.185937
 30
0.0
 42
1.0
  0
VERTEX
  8
1
  5
5E
  6
CONTINUOUS
 62
7
 10
413.770824
 20
-110.385937
 30
0.0
  0
VERTEX
  8
1
  5
5F
  6
CONTINUOUS
 62
7
 10
413.77082
 20
-110.38594
 30
0.0
  0
VERTEX
  8
1
  5
60
  6
CONTINUOUS
 62
7
 10
421.67082
 20
-110.38594
 30
0.0
  0
VERTEX
  8
1
  5
61
  6
CONTINUOUS
 62
7
 10
421.67082
 20
-110.38594
 30
0.0
  0
VERTEX
  8
1
  5
62
  6
CONTINUOUS
 62
7
 10
421.67082
 20
-118.58594
 30
0.0
  0
VERTEX
  8
1
  5
63
  6
CONTINUOUS
 62
7
 10
421.67082
 20
-118.58594
 30
0.0
  0
VERTEX
  8
1
  5
64
  6
CONTINUOUS
 62
7
 10
413.77082
 20
-118.58594
 30
0.0
  0
VERTEX
  8
1
  5
65
  6
CONTINUOUS
 62
7
 10
413.770824
 20
-118.585937
 30
0.0
 42
1.0
  0
VERTEX
  8
1
  5
66
  6
CONTINUOUS
 62
7
 10
413.770824
 20
-126.785937
 30
0.0
  0
VERTEX
  8
1
  5
67
  6
CONTINUOUS
 62
7
 10
413.77082
 20
-126.78594
 30
0.0
  0
VERTEX
  8
1
  5
68
  6
CONTINUOUS
 62
7
 10
431.67082
 20
-126.78594
 30
0.0
  0
VERTEX
  8
1
  5
69
  6
CONTINUOUS
 62
7
 10
431.67082
 20
-126.78594
 30
0.0
  0
VERTEX
  8
1
  5
6A
  6
CONTINUOUS
 62
7
 10
444.57082
 20
-126.78594
 30
0.0
  0
VERTEX
  8
1
  5
6B
  6
CONTINUOUS
 62
7
 10
444.570824
 20
-126.785937
 30
0.0
 42
1.0
  0
VERTEX
  8
1
  5
6C
  6
CONTINUOUS
 62
7
 10
444.570824
 20
-118.585937
 30
0.0
  0
VERTEX
  8
1
  5
6D
  6
CONTINUOUS
 62
7
 10
444.57082
 20
-118.58594
 30
0.0
  0
VERTEX
  8
1
  5
6E
  6
CONTINUOUS
 62
7
 10
436.67082
 20
-118.58594
 30
0.0
  0
VERTEX
  8
1
  5
6F
  6
CONTINUOUS
 62
7
 10
436.67082
 20
-118.58594
 30
0.0
  0
VERTEX
  8
1
  5
70
  6
CONTINUOUS
 62
7
 10
436.67082
 20
-110.38594
 30
0.0
  0
VERTEX
  8
1
  5
71
  6
CONTINUOUS
 62
7
 10
436.67082
 20
-110.38594
 30
0.0
  0
VERTEX
  8
1
  5
72
  6
CONTINUOUS
 62
7
 10
444.57082
 20
-110.38594
 30
0.0
  0
VERTEX
  8
1
  5
73
  6
CONTINUOUS
 62
7
 10
444.570824
 20
-110.385937
 30
0.0
 42
1.0
  0
VERTEX
  8
1
  5
74
  6
CONTINUOUS
 62
7
 10
444.570824
 20
-102.185937
 30
0.0
  0
VERTEX
  8
1
  5
75
  6
CONTINUOUS
 62
7
 10
444.57082
 20
-102.18594
 30
0.0
  0
SEQEND
  8
1
  5
76
  0
POLYLINE
  8
1
  5
78
  6
CONTINUOUS
 62
7
 10
0.0
 20
0.0
 30
0.0
 66
1
 70
1
  0
VERTEX
  8
1
  5
79
  6
CONTINUOUS
 62
7
 10
431.67082
 20
-151.38594
 30
0.0
  0
VERTEX
  8
1
  5
7A
  6
CONTINUOUS
 62
7
 10
413.77082
 20
-151.38594
 30
0.0
  0
VERTEX
  8
1
  5
7B
  6
CONTINUOUS
 62
7
 10
413.770824
 20
-151.385937
 30
0.0
 42
1.0
  0
VERTEX
  8
1
  5
7C
  6
CONTINUOUS
 62
7
 10
413.770824
 20
-159.585937
 30
0.0
  0
VERTEX
  8
1
  5
7D
  6
CONTINUOUS
 62
7
 10
413.77082
 20
-159.58594
 30
0.0
  0
VERTEX
  8
1
  5
7E
  6
CONTINUOUS
 62
7
 10
421.67082
 20
-159.58594
 30
0.0
  0
VERTEX
  8
1
  5
7F
  6
CONTINUOUS
 62
7
 10
421.67082
 20
-159.58594
 30
0.0
  0
VERTEX
  8
1
  5
80
  6
CONTINUOUS
 62
7
 10
421.67082
 20
-167.78594
 30
0.0
  0
VERTEX
  8
1
  5
81
  6
CONTINUOUS
 62
7
 10
421.67082
 20
-167.78594
 30
0.0
  0
VERTEX
  8
1
  5
82
  6
CONTINUOUS
 62
7
 10
413.77082
 20
-167.78594
 30
0.0
  0
VERTEX
  8
1
  5
83
  6
CONTINUOUS
 62
7
 10
413.770824
 20
-167.785937
 30
0.0
 42
1.0
  0
VERTEX
  8
1
  5
84
  6
CONTINUOUS
 62
7
 10
413.770824
 20
-175.985937
 30
0.0
  0
VERTEX
  8
1
  5
85
  6
CONTINUOUS
 62
7
 10
413.77082
 20
-175.98594
 30
0.0
  0
VERTEX
  8
1
  5
86
  6
CONTINUOUS
 62
7
 10
431.67082
 20
-175.98594
 30
0.0
  0
VERTEX
  8
1
  5
87
  6
CONTINUOUS
 62
7
 10
431.67082
 20
-175.98594
 30
0.0
  0
VERTEX
  8
1
  5
88
  6
CONTINUOUS
 62
7
 10
444.57082
 20
-175.98594
 30
0.0
  0
VERTEX
  8
1
  5
89
  6
CONTINUOUS
 62
7
 10
444.570824
 20
-175.985937
 30
0.0
 42
1.0
  0
VERTEX
  8
1
  5
8A
  6
CONTINUOUS
 62
7
 10
444.570824
 20
-167.785937
 30
0.0
  0
VERTEX
  8
1
  5
8B
  6
CONTINUOUS
 62
7
 10
444.57082
 20
-167.78594
 30
0.0
  0
VERTEX
  8
1
  5
8C
  6
CONTINUOUS
 62
7
 10
436.67082
 20
-167.78594
 30
0.0
  0
VERTEX
  8
1
  5
8D
  6
CONTINUOUS
 62
7
 10
436.67082
 20
-167.78594
 30
0.0
  0
VERTEX
  8
1
  5
8E
  6
CONTINUOUS
 62
7
 10
436.67082
 20
-159.58594
 30
0.0
  0
VERTEX
  8
1
  5
8F
  6
CONTINUOUS
 62
7
 10
436.67082
 20
-159.58594
 30
0.0
  0
VERTEX
  8
1
  5
90
  6
CONTINUOUS
 62
7
 10
444.57082
 20
-159.58594
 30
0.0
  0
VERTEX
  8
1
  5
91
  6
CONTINUOUS
 62
7
 10
444.570824
 20
-159.585937
 30
0.0
 42
1.0
  0
VERTEX
  8
1
  5
92
  6
CONTINUOUS
 62
7
 10
444.570824
 20
-151.385937
 30
0.0
  0
VERTEX
  8
1
  5
93
  6
CONTINUOUS
 62
7
 10
444.57082
 20
-151.38594
 30
0.0
  0
SEQEND
  8
1
  5
94
  0
POLYLINE
  8
1
  5
96
  6
CONTINUOUS
 62
7
 10
0.0
 20
0.0
 30
0.0
 66
1
 70
1
  0
VERTEX
  8
1
  5
97
  6
CONTINUOUS
 62
7
 10
431.67082
 20
-84.08594
 30
0.0
  0
VERTEX
  8
1
  5
98
  6
CONTINUOUS
 62
7
 10
231.67082
 20
-84.08594
 30
0.0
  0
VERTEX
  8
1
  5
99
  6
CONTINUOUS
 62
7
 10
231.67082
 20
-84.08594
 30
0.0
  0
VERTEX
  8
1
  5
9A
  6
CONTINUOUS
 62
7
 10
231.67082
 20
-194.08594
 30
0.0
  0
VERTEX
  8
1
  5
9B
  6
CONTINUOUS
 62
7
 10
231.67082
 20
-194.08594
 30
0.0
  0
VERTEX
  8
1
  5
9C
  6
CONTINUOUS
 62
7
 10
431.67082
 20
-194.08594
 30
0.0
  0
VERTEX
  8
1
  5
9D
  6
CONTINUOUS
 62
7
 10
431.67082
 20
-194.08594
 30
0.0
  0
VERTEX
  8
1
  5
9E
  6
CONTINUOUS
 62
7
 10
459.67082
 20
-194.08594
 30
0.0
  0
VERTEX
  8
1
  5
9F
  6
CONTINUOUS
 62
7
 10
459.67082
 20
-194.08594
 30
0.0
  0
VERTEX
  8
1
  5
A0
  6
CONTINUOUS
 62
7
 10
471.67082
 20
-194.08594
 30
0.0
  0
VERTEX
  8
1
  5
A1
  6
CONTINUOUS
 62
7
 10
471.67082
 20
-194.08594
 30
0.0
  0
VERTEX
  8
1
  5
A2
  6
CONTINUOUS
 62
7
 10
471.67082
 20
-84.08594
 30
0.0
  0
VERTEX
  8
1
  5
A3
  6
CONTINUOUS
 62
7
 10
471.67082
 20
-84.08594
 30
0.0
  0
VERTEX
  8
1
  5
A4
  6
CONTINUOUS
 62
7
 10
459.67082
 20
-84.08594
 30
0.0
  0
VERTEX
  8
1
  5
A5
  6
CONTINUOUS
 62
7
 10
459.67081
 20
-84.08594
 30
0.0
  0
SEQEND
  8
1
  5
A6
  0
POLYLINE
  8
1
  5
A8
  6
CONTINUOUS
 62
7
 10
0.0
 20
0.0
 30
0.0
 66
1
 70
0
  0
VERTEX
  8
1
  5
A9
  6
CONTINUOUS
 62
7
 10
416.70736
 20
-262.54826
 30
0.0
  0
VERTEX
  8
1
  5
AA
  6
CONTINUOUS
 62
7
 10
526.70736
 20
-262.54826
 30
0.0
  0
VERTEX
  8
1
  5
AB
  6
CONTINUOUS
 62
7
 10
526.707364
 20
-262.548257
 30
0.0
 42
-1.0
  0
VERTEX
  8
1
  5
AC
  6
CONTINUOUS
 62
7
 10
526.707364
 20
-270.748257
 30
0.0
  0
VERTEX
  8
1
  5
AD
  6
CONTINUOUS
 62
7
 10
526.70736
 20
-270.74826
 30
0.0
  0
VERTEX
  8
1
  5
AE
  6
CONTINUOUS
 62
7
 10
526.70736
 20
-274.54826
 30
0.0
  0
SEQEND
  8
1
  5
AF
  0
POLYLINE
  8
1
  5
B1
  6
CONTINUOUS
 62
7
 10
0.0
 20
0.0
 30
0.0
 66
1
 70
1
  0
VERTEX
  8
1
  5
B2
  6
CONTINUOUS
 62
7
 10
526.70735
 20
-234.54826
 30
0.0
  0
VERTEX
  8
1
  5
B3
  6
CONTINUOUS
 62
7
 10
416.70736
 20
-234.54826
 30
0.0
  0
VERTEX
  8
1
  5
B4
  6
CONTINUOUS
 62
7
 10
416.70736
 20
-234.54826
 30
0.0
  0
VERTEX
  8
1
  5
B5
  6
CONTINUOUS
 62
7
 10
416.70736
 20
-262.54826
 30
0.0
  0
VERTEX
  8
1
  5
B6
  6
CONTINUOUS
 62
7
 10
416.70736
 20
-262.54826
 30
0.0
  0
VERTEX
  8
1
  5
B7
  6
CONTINUOUS
 62
7
 10
416.70736
 20
-274.54826
 30
0.0
  0
VERTEX
  8
1
  5
B8
  6
CONTINUOUS
 62
7
 10
416.70736
 20
-274.54826
 30
0.0
  0
VERTEX
  8
1
  5
B9
  6
CONTINUOUS
 62
7
 10
526.70736
 20
-274.54826
 30
0.0
  0
VERTEX
  8
1
  5
BA
  6
CONTINUOUS
 62
7
 10
526.70736
 20
-274.54826
 30
0.0
  0
VERTEX
  8
1
  5
BB
  6
CONTINUOUS
 62
7
 10
606.70736
 20
-274.54826
 30
0.0
  0
VERTEX
  8
1
  5
BC
  6
CONTINUOUS
 62
7
 10
606.70736
 20
-274.54826
 30
0.0
  0
VERTEX
  8
1
  5
BD
  6
CONTINUOUS
 62
7
 10
606.70736
 20
-234.54826
 30
0.0
  0
VERTEX
  8
1
  5
BE
  6
CONTINUOUS
 62
7
 10
606.70736
 20
-234.54826
 30
0.0
  0
VERTEX
  8
1
  5
BF
  6
CONTINUOUS
 62
7
 10
526.70736
 20
-234.54826
 30
0.0
  0
SEQEND
  8
1
  5
C0
  0
ENDSEC
  0
EOF
