  0
SECTION
  2
HEADER
  9
$ACADVER
  1
AC1006
  9
$INSBASE
 10
0.0
 20
0.0
 30
0.0
  9
$EXTMAX
 10
247.41308
 20
284.40406
  9
$EXTMIN
 10
-15.75958
 20
94.40403
  9
$LIMMAX
 10
12.0
 20
9.0
  9
$LIMMIN
 10
0.0
 20
0.0
  9
$ORTHOMODE
 70
0
  9
$REGENMODE
 70
1
  9
$FILLMODE
 70
1
  9
$QTEXTMODE
 70
0
  9
$MIRRTEXT
 70
1
  9
$DRAGMODE
 70
2
  9
$LTSCALE
 40
1.0
  9
$OSMODE
 70
0
  9
$ATTMODE
 70
1
  9
$TEXTSIZE
 40
0.2
  9
$TRACEWID
 40
0.05
  9
$TEXTSTYLE
  7
STANDARD
  9
$CLAYER
  8
0
  9
$CELTYPE
  6
CONTINUOUS
  9
$CECOLOR
 62
256
  9
$DIMSCALE
 40
1.0
  9
$DIMASZ
 40
0.18
  9
$DIMEXO
 40
0.0625
  9
$DIMDLI
 40
0.38
  9
$DIMRND
 40
0.0
  9
$DIMDLE
 40
0.0
  9
$DIMEXE
 40
0.18
  9
$DIMTP
 40
0.0
  9
$DIMTM
 40
0.0
  9
$DIMTXT
 40
0.18
  9
$DIMCEN
 40
0.09
  9
$DIMTSZ
 40
0.0
  9
$DIMTOL
 70
0
  9
$DIMLIM
 70
0
  9
$DIMTIH
 70
1
  9
$DIMTOH
 70
1
  9
$DIMSE1
 70
0
  9
$DIMSE2
 70
0
  9
$DIMTAD
 70
0
  9
$DIMZIN
 70
0
  9
$DIMBLK
  1

  9
$DIMASO
 70
1
  9
$DIMSHO
 70
1
  9
$DIMPOST
  1

  9
$DIMAPOST
  1

  9
$DIMALT
 70
0
  9
$DIMALTD
 70
2
  9
$DIMALTF
 40
25.4
  9
$DIMLFAC
 40
1.0
  9
$DIMTOFL
 70
0
  9
$DIMTVP
 40
0.0
  9
$DIMTIX
 70
0
  9
$DIMSOXD
 70
0
  9
$DIMSAH
 70
0
  9
$DIMBLK1
  1

  9
$DIMBLK2
  1

  9
$LUNITS
 70
2
  9
$LUPREC
 70
4
  9
$AXISMODE
 70
0
  9
$AXISUNIT
 10
0.0
 20
0.0
  9
$SKETCHINC
 40
0.1
  9
$FILLETRAD
 40
0.0
  9
$AUNITS
 70
0
  9
$AUPREC
 70
0
  9
$MENU
  1
acad
  9
$ELEVATION
 40
0.0
  9
$THICKNESS
 40
0.0
  9
$LIMCHECK
 70
0
  9
$BLIPMODE
 70
1
  9
$CHAMFERA
 40
0.0
  9
$CHAMFERB
 40
0.0
  9
$SKPOLY
 70
0
  9
$TDCREATE
 40
0.0
  9
$TDUPDATE
 40
0.0
  9
$TDINDWG
 40
0.0
  9
$TDUSRTIMER
 40
0.0
  9
$USRTIMER
 70
1
  9
$ANGBASE
 50
0.0
  9
$ANGDIR
 70
0
  9
$PDMODE
 70
0
  9
$PDSIZE
 40
0.0
  9
$PLINEWID
 40
0.0
  9
$COORDS
 70
0
  9
$SPLFRAME
 70
0
  9
$SPLINETYPE
 70
6
  9
$SPLINESEGS
 70
10
  9
$ATTDIA
 70
0
  9
$ATTREQ
 70
1
  9
$HANDLING
 70
1
  9
$HANDSEED
  5
5A
  9
$SURFTAB1
 70
6
  9
$SURFTAB2
 70
6
  9
$SURFTYPE
 70
6
  9
$SURFU
 70
10
  9
$SURFV
 70
10
  9
$FLATLAND
 70
0
  9
$UCSNAME
  2

  9
$UCSORG
 10
0.0
 20
0.0
 30
0.0
  9
$UCSXDIR
 10
1.0
 20
0.0
 30
0.0
  9
$UCSYDIR
 10
0.0
 20
1.0
 30
0.0
  9
$USERI1
 70
0
  9
$USERI2
 70
0
  9
$USERI3
 70
0
  9
$USERI4
 70
0
  9
$USERI5
 70
0
  9
$USERR1
 40
0.0
  9
$USERR2
 40
0.0
  9
$USERR3
 40
0.0
  9
$USERR4
 40
0.0
  9
$USERR5
 40
0.0
  9
$WORLDVIEW
 70
1
  0
ENDSEC
  0
SECTION
  2
TABLES
  0
TABLE
  2
LTYPE
 70
7
  0
LTYPE
  2
CONTINUOUS
 70
64
  3
Solid line
 72
65
 73
0
 40
0.0
  0
LTYPE
  2
DOT
 70
64
  3
. . . . . . . . . . . . . . . . . . . . . . . . . . . . . . . . .
 72
65
 73
2
 40
0.25
 49
0.0
 49
-0.25
  0
LTYPE
  2
HIDDEN
 70
64
  3
__ __ __ __ __ __ __ __ __ __ __ __ __ __ __ __ __ __ __ __ __ 
 72
65
 73
2
 40
0.375
 49
0.25
 49
-0.125
  0
LTYPE
  2
DASHED
 70
64
  3
__ __ __ __ __ __ __ __ __ __ __ __ __ __ __ __ __ __ __ __ __
 72
65
 73
2
 40
0.75
 49
0.5
 49
-0.25
  0
LTYPE
  2
DASHDOT
 70
64
  3
__ . __ . __ . __ . __ . __ . __ . __ . __ . __ . __ . __ . _
 72
65
 73
4
 40
1.0
 49
0.5
 49
-0.25
 49
0.0
 49
-0.25
  0
LTYPE
  2
DIVIDE
 70
64
  3
____ . . ____ . . ____ . . ____ . . ____ . . ____ . . ____ . .
 72
65
 73
6
 40
1.25
 49
0.5
 49
-0.25
 49
0.0
 49
-0.25
 49
0.0
 49
-0.25
  0
LTYPE
  2
CENTER
 70
64
  3
____ _ ____ _ ____ _ ____ _ ____ _ ____ _ ____ _ ____ _ ____ _
 72
65
 73
4
 40
2.0
 49
1.25
 49
-0.25
 49
0.25
 49
-0.25
  0
ENDTAB
  0
TABLE
  2
LAYER
 70
4
  0
LAYER
  2
0
 70
0
 62
7
  6
CONTINUOUS
  0
LAYER
  2
CONSTRUCTION_CLASS
 70
0
 62
7
  6
CONTINUOUS
  0
LAYER
  2
PATTERN_CLASS
 70
0
 62
7
  6
CONTINUOUS
  0
LAYER
  2
1
 70
0
 62
7
  6
CONTINUOUS
  0
ENDTAB
  0
TABLE
  2
STYLE
 70
1
  0
STYLE
  2
STANDARD
 70
0
 40
0.2
 41
1.0
 50
0.0
 71
0
 42
0.0
  3
txt
  4

  0
ENDTAB
  0
TABLE
  2
UCS
 70
0
  0
ENDTAB
  0
TABLE
  2
VIEW
 70
0
  0
ENDTAB
  0
TABLE
  2
VPORT
 70
1
  0
VPORT
  2
*ACTIVE
 70
0
 10
0.0
 20
0.0
 11
1.0
 21
1.0
 12
0.0
 22
0.0
 13
0.0
 23
0.0
 14
0.0
 24
0.0
 15
0.0
 25
0.0
 16
0.0
 26
0.0
 36
1.0
 17
93.504825
 27
189.82062
 37
0.0
 40
293.1235
 41
1.355234
 42
50.0
 43
0.00004
 44
0.0
 50
0.0
 51
0.0
 71
0
 72
100
 73
1
 74
0
 75
0
 76
0
 77
0
 78
0
  0
ENDTAB
  0
ENDSEC
  0
SECTION
  2
BLOCKS
  0
ENDSEC
  0
SECTION
  2
ENTITIES
  0
POINT
  8
1
  5
2
  6
CONTINUOUS
 62
7
 10
89.65567
 20
234.70155
 30
0.0
 50
0.0
  0
POLYLINE
  8
1
  5
4
  6
CONTINUOUS
 62
7
 10
0.0
 20
0.0
 30
0.0
 66
1
 70
0
  0
VERTEX
  8
1
  5
5
  6
CONTINUOUS
 62
7
 10
57.413076
 20
184.701554
 30
0.0
 42
0.060555
  0
VERTEX
  8
1
  5
6
  6
CONTINUOUS
 62
7
 10
64.113874
 20
185.519753
 30
0.0
 42
0.058531
  0
VERTEX
  8
1
  5
7
  6
CONTINUOUS
 62
7
 10
70.540543
 20
187.940879
 30
0.0
 42
0.055137
  0
VERTEX
  8
1
  5
8
  6
CONTINUOUS
 62
7
 10
76.430167
 20
191.865883
 30
0.0
 42
0.051282
  0
VERTEX
  8
1
  5
9
  6
CONTINUOUS
 62
7
 10
81.541802
 20
197.134193
 30
0.0
 42
0.047722
  0
VERTEX
  8
1
  5
A
  6
CONTINUOUS
 62
7
 10
85.666332
 20
203.530284
 30
0.0
 42
0.044913
  0
VERTEX
  8
1
  5
B
  6
CONTINUOUS
 62
7
 10
88.635022
 20
210.79249
 30
0.0
 42
0.04307
  0
VERTEX
  8
1
  5
C
  6
CONTINUOUS
 62
7
 10
90.326424
 20
218.623716
 30
0.0
 42
0.042271
  0
VERTEX
  8
1
  5
D
  6
CONTINUOUS
 62
7
 10
90.671341
 20
226.703586
 30
0.0
 42
0.042534
  0
VERTEX
  8
1
  5
E
  6
CONTINUOUS
 62
7
 10
89.655663
 20
234.701553
 30
0.0
 42
0.042534
  0
SEQEND
  8
1
  5
F
  0
LINE
  8
1
  5
11
  6
CONTINUOUS
 62
7
 10
107.41308
 20
184.70155
 30
0.0
 11
57.41308
 21
184.70155
 31
0.0
  0
LINE
  8
1
  5
13
  6
CONTINUOUS
 62
7
 10
107.41308
 20
184.70157
 30
0.0
 11
107.41308
 21
184.70155
 31
0.0
  0
LINE
  8
1
  5
15
  6
CONTINUOUS
 62
7
 10
89.65567
 20
234.70155
 30
0.0
 11
107.41306
 21
234.70155
 31
0.0
  0
LINE
  8
1
  5
17
  6
CONTINUOUS
 62
7
 10
107.41308
 20
234.70155
 30
0.0
 11
107.41308
 21
184.70155
 31
0.0
  0
LINE
  8
1
  5
19
  6
CONTINUOUS
 62
7
 10
247.41308
 20
184.70155
 30
0.0
 11
107.41308
 21
184.70155
 31
0.0
  0
LINE
  8
1
  5
1B
  6
CONTINUOUS
 62
7
 10
57.41308
 20
234.70155
 30
0.0
 11
89.65567
 21
234.70155
 31
0.0
  0
LINE
  8
1
  5
1D
  6
CONTINUOUS
 62
7
 10
57.41308
 20
184.70155
 30
0.0
 11
57.41308
 21
234.70155
 31
0.0
  0
LINE
  8
1
  5
1F
  6
CONTINUOUS
 62
7
 10
247.41308
 20
234.70155
 30
0.0
 11
247.41308
 21
184.70155
 31
0.0
  0
LINE
  8
1
  5
21
  6
CONTINUOUS
 62
7
 10
107.41308
 20
234.70155
 30
0.0
 11
247.41308
 21
234.70155
 31
0.0
  0
LINE
  8
1
  5
23
  6
CONTINUOUS
 62
7
 10
34.24042
 20
184.70155
 30
0.0
 11
-15.75958
 21
184.70155
 31
0.0
  0
LINE
  8
1
  5
25
  6
CONTINUOUS
 62
7
 10
34.2404
 20
184.70155
 30
0.0
 11
34.24042
 21
184.70155
 31
0.0
  0
POLYLINE
  8
1
  5
27
  6
CONTINUOUS
 62
7
 10
0.0
 20
0.0
 30
0.0
 66
1
 70
0
  0
VERTEX
  8
1
  5
28
  6
CONTINUOUS
 62
7
 10
34.240395
 20
184.701553
 30
0.0
 42
8.728634E-008
  0
VERTEX
  8
1
  5
29
  6
CONTINUOUS
 62
7
 10
34.240405
 20
184.701553
 30
0.0
 42
8.728634E-008
  0
VERTEX
  8
1
  5
2A
  6
CONTINUOUS
 62
7
 10
34.240414
 20
184.701553
 30
0.0
 42
8.728634E-008
  0
SEQEND
  8
1
  5
2B
  0
LINE
  8
1
  5
2D
  6
CONTINUOUS
 62
7
 10
-15.75958
 20
184.70157
 30
0.0
 11
-15.75958
 21
234.70155
 31
0.0
  0
LINE
  8
1
  5
2F
  6
CONTINUOUS
 62
7
 10
-15.75958
 20
234.70155
 30
0.0
 11
1.99783
 21
234.70155
 31
0.0
  0
LINE
  8
1
  5
31
  6
CONTINUOUS
 62
7
 10
-15.75958
 20
284.40406
 30
0.0
 11
-15.75958
 21
234.70155
 31
0.0
  0
LINE
  8
1
  5
33
  6
CONTINUOUS
 62
7
 10
-15.75958
 20
184.70155
 30
0.0
 11
-15.75958
 21
94.40403
 31
0.0
  0
LINE
  8
1
  5
35
  6
CONTINUOUS
 62
7
 10
-15.75958
 20
94.40403
 30
0.0
 11
34.24042
 21
94.40403
 31
0.0
  0
LINE
  8
1
  5
37
  6
CONTINUOUS
 62
7
 10
34.24042
 20
94.40403
 30
0.0
 11
34.24042
 21
184.70155
 31
0.0
  0
POLYLINE
  8
1
  5
3A
  6
CONTINUOUS
 62
7
 10
0.0
 20
0.0
 30
0.0
 66
1
 70
0
  0
VERTEX
  8
1
  5
3B
  6
CONTINUOUS
 62
7
 10
34.207628
 20
184.701572
 30
0.0
 42
-0.060518
  0
VERTEX
  8
1
  5
3C
  6
CONTINUOUS
 62
7
 10
27.511072
 20
185.526812
 30
0.0
 42
-0.058488
  0
VERTEX
  8
1
  5
3D
  6
CONTINUOUS
 62
7
 10
21.089517
 20
187.952965
 30
0.0
 42
-0.055094
  0
VERTEX
  8
1
  5
3E
  6
CONTINUOUS
 62
7
 10
15.205386
 20
191.880884
 30
0.0
 42
-0.051243
  0
VERTEX
  8
1
  5
3F
  6
CONTINUOUS
 62
7
 10
10.09914
 20
197.150051
 30
0.0
 42
-0.047688
  0
VERTEX
  8
1
  5
40
  6
CONTINUOUS
 62
7
 10
5.97945
 20
203.545136
 30
0.0
 42
-0.044884
  0
VERTEX
  8
1
  5
41
  6
CONTINUOUS
 62
7
 10
3.014671
 20
210.804799
 30
0.0
 42
-0.043045
  0
VERTEX
  8
1
  5
42
  6
CONTINUOUS
 62
7
 10
1.325962
 20
218.632366
 30
0.0
 42
-0.042248
  0
VERTEX
  8
1
  5
43
  6
CONTINUOUS
 62
7
 10
0.982334
 20
226.707956
 30
0.0
 42
-0.042511
  0
VERTEX
  8
1
  5
44
  6
CONTINUOUS
 62
7
 10
1.997829
 20
234.701552
 30
0.0
 42
-0.042511
  0
SEQEND
  8
1
  5
45
  0
POLYLINE
  8
1
  5
47
  6
CONTINUOUS
 62
7
 10
0.0
 20
0.0
 30
0.0
 66
1
 70
0
  0
VERTEX
  8
1
  5
48
  6
CONTINUOUS
 62
7
 10
1.997829
 20
234.701552
 30
0.0
 42
-0.043799
  0
VERTEX
  8
1
  5
49
  6
CONTINUOUS
 62
7
 10
4.328954
 20
242.281592
 30
0.0
 42
-0.046128
  0
VERTEX
  8
1
  5
4A
  6
CONTINUOUS
 62
7
 10
7.880799
 20
249.144171
 30
0.0
 42
-0.049338
  0
VERTEX
  8
1
  5
4B
  6
CONTINUOUS
 62
7
 10
12.508411
 20
255.009218
 30
0.0
 42
-0.05311
  0
VERTEX
  8
1
  5
4C
  6
CONTINUOUS
 62
7
 10
18.022932
 20
259.637374
 30
0.0
 42
-0.05311
  0
SEQEND
  8
1
  5
4D
  0
POLYLINE
  8
1
  5
4E
  6
CONTINUOUS
 62
7
 10
0.0
 20
0.0
 30
0.0
 66
1
 70
0
  0
VERTEX
  8
1
  5
4F
  6
CONTINUOUS
 62
7
 10
18.022933
 20
259.63737
 30
0.0
 42
0.492776
  0
VERTEX
  8
1
  5
50
  6
CONTINUOUS
 62
7
 10
18.506827
 20
266.042347
 30
0.0
  0
SEQEND
  8
1
  5
51
  0
POLYLINE
  8
1
  5
53
  6
CONTINUOUS
 62
7
 10
0.0
 20
0.0
 30
0.0
 66
1
 70
0
  0
VERTEX
  8
1
  5
54
  6
CONTINUOUS
 62
7
 10
18.506829
 20
266.042347
 30
0.0
 42
0.041792
  0
VERTEX
  8
1
  5
55
  6
CONTINUOUS
 62
7
 10
8.835971
 20
273.33603
 30
0.0
 42
0.035818
  0
VERTEX
  8
1
  5
56
  6
CONTINUOUS
 62
7
 10
-2.696988
 20
279.515987
 30
0.0
 42
0.031518
  0
VERTEX
  8
1
  5
57
  6
CONTINUOUS
 62
7
 10
-15.759586
 20
284.404067
 30
0.0
 42
0.031518
  0
SEQEND
  8
1
  5
58
  0
ENDSEC
  0
EOF
