  0
SECTION
  2
HEADER
  9
$ACADVER
  1
AC1006
  9
$INSBASE
 10
0.0
 20
0.0
 30
0.0
  9
$EXTMAX
 10
250.0
 20
-20.00001
  9
$EXTMIN
 10
-10.0
 20
-210.00001
  9
$LIMMAX
 10
12.0
 20
9.0
  9
$LIMMIN
 10
0.0
 20
0.0
  9
$ORTHOMODE
 70
0
  9
$REGENMODE
 70
1
  9
$FILLMODE
 70
1
  9
$QTEXTMODE
 70
0
  9
$MIRRTEXT
 70
1
  9
$DRAGMODE
 70
2
  9
$LTSCALE
 40
1.0
  9
$OSMODE
 70
0
  9
$ATTMODE
 70
1
  9
$TEXTSIZE
 40
0.2
  9
$TRACEWID
 40
0.05
  9
$TEXTSTYLE
  7
STANDARD
  9
$CLAYER
  8
0
  9
$CELTYPE
  6
CONTINUOUS
  9
$CECOLOR
 62
256
  9
$DIMSCALE
 40
1.0
  9
$DIMASZ
 40
0.18
  9
$DIMEXO
 40
0.0625
  9
$DIMDLI
 40
0.38
  9
$DIMRND
 40
0.0
  9
$DIMDLE
 40
0.0
  9
$DIMEXE
 40
0.18
  9
$DIMTP
 40
0.0
  9
$DIMTM
 40
0.0
  9
$DIMTXT
 40
0.18
  9
$DIMCEN
 40
0.09
  9
$DIMTSZ
 40
0.0
  9
$DIMTOL
 70
0
  9
$DIMLIM
 70
0
  9
$DIMTIH
 70
1
  9
$DIMTOH
 70
1
  9
$DIMSE1
 70
0
  9
$DIMSE2
 70
0
  9
$DIMTAD
 70
0
  9
$DIMZIN
 70
0
  9
$DIMBLK
  1

  9
$DIMASO
 70
1
  9
$DIMSHO
 70
1
  9
$DIMPOST
  1

  9
$DIMAPOST
  1

  9
$DIMALT
 70
0
  9
$DIMALTD
 70
2
  9
$DIMALTF
 40
25.4
  9
$DIMLFAC
 40
1.0
  9
$DIMTOFL
 70
0
  9
$DIMTVP
 40
0.0
  9
$DIMTIX
 70
0
  9
$DIMSOXD
 70
0
  9
$DIMSAH
 70
0
  9
$DIMBLK1
  1

  9
$DIMBLK2
  1

  9
$LUNITS
 70
2
  9
$LUPREC
 70
4
  9
$AXISMODE
 70
0
  9
$AXISUNIT
 10
0.0
 20
0.0
  9
$SKETCHINC
 40
0.1
  9
$FILLETRAD
 40
0.0
  9
$AUNITS
 70
0
  9
$AUPREC
 70
0
  9
$MENU
  1
acad
  9
$ELEVATION
 40
0.0
  9
$THICKNESS
 40
0.0
  9
$LIMCHECK
 70
0
  9
$BLIPMODE
 70
1
  9
$CHAMFERA
 40
0.0
  9
$CHAMFERB
 40
0.0
  9
$SKPOLY
 70
0
  9
$TDCREATE
 40
0.0
  9
$TDUPDATE
 40
0.0
  9
$TDINDWG
 40
0.0
  9
$TDUSRTIMER
 40
0.0
  9
$USRTIMER
 70
1
  9
$ANGBASE
 50
0.0
  9
$ANGDIR
 70
0
  9
$PDMODE
 70
0
  9
$PDSIZE
 40
0.0
  9
$PLINEWID
 40
0.0
  9
$COORDS
 70
0
  9
$SPLFRAME
 70
0
  9
$SPLINETYPE
 70
6
  9
$SPLINESEGS
 70
10
  9
$ATTDIA
 70
0
  9
$ATTREQ
 70
1
  9
$HANDLING
 70
1
  9
$HANDSEED
  5
4A
  9
$SURFTAB1
 70
6
  9
$SURFTAB2
 70
6
  9
$SURFTYPE
 70
6
  9
$SURFU
 70
10
  9
$SURFV
 70
10
  9
$FLATLAND
 70
0
  9
$UCSNAME
  2

  9
$UCSORG
 10
0.0
 20
0.0
 30
0.0
  9
$UCSXDIR
 10
1.0
 20
0.0
 30
0.0
  9
$UCSYDIR
 10
0.0
 20
1.0
 30
0.0
  9
$USERI1
 70
0
  9
$USERI2
 70
0
  9
$USERI3
 70
0
  9
$USERI4
 70
0
  9
$USERI5
 70
0
  9
$USERR1
 40
0.0
  9
$USERR2
 40
0.0
  9
$USERR3
 40
0.0
  9
$USERR4
 40
0.0
  9
$USERR5
 40
0.0
  9
$WORLDVIEW
 70
1
  0
ENDSEC
  0
SECTION
  2
TABLES
  0
TABLE
  2
LTYPE
 70
7
  0
LTYPE
  2
CONTINUOUS
 70
64
  3
Solid line
 72
65
 73
0
 40
0.0
  0
LTYPE
  2
DOT
 70
64
  3
. . . . . . . . . . . . . . . . . . . . . . . . . . . . . . . . .
 72
65
 73
2
 40
0.25
 49
0.0
 49
-0.25
  0
LTYPE
  2
HIDDEN
 70
64
  3
__ __ __ __ __ __ __ __ __ __ __ __ __ __ __ __ __ __ __ __ __ 
 72
65
 73
2
 40
0.375
 49
0.25
 49
-0.125
  0
LTYPE
  2
DASHED
 70
64
  3
__ __ __ __ __ __ __ __ __ __ __ __ __ __ __ __ __ __ __ __ __
 72
65
 73
2
 40
0.75
 49
0.5
 49
-0.25
  0
LTYPE
  2
DASHDOT
 70
64
  3
__ . __ . __ . __ . __ . __ . __ . __ . __ . __ . __ . __ . _
 72
65
 73
4
 40
1.0
 49
0.5
 49
-0.25
 49
0.0
 49
-0.25
  0
LTYPE
  2
DIVIDE
 70
64
  3
____ . . ____ . . ____ . . ____ . . ____ . . ____ . . ____ . .
 72
65
 73
6
 40
1.25
 49
0.5
 49
-0.25
 49
0.0
 49
-0.25
 49
0.0
 49
-0.25
  0
LTYPE
  2
CENTER
 70
64
  3
____ _ ____ _ ____ _ ____ _ ____ _ ____ _ ____ _ ____ _ ____ _
 72
65
 73
4
 40
2.0
 49
1.25
 49
-0.25
 49
0.25
 49
-0.25
  0
ENDTAB
  0
TABLE
  2
LAYER
 70
4
  0
LAYER
  2
0
 70
0
 62
7
  6
CONTINUOUS
  0
LAYER
  2
CONSTRUCTION_CLASS
 70
0
 62
7
  6
CONTINUOUS
  0
LAYER
  2
PATTERN_CLASS
 70
0
 62
7
  6
CONTINUOUS
  0
LAYER
  2
1
 70
0
 62
7
  6
CONTINUOUS
  0
ENDTAB
  0
TABLE
  2
STYLE
 70
1
  0
STYLE
  2
STANDARD
 70
0
 40
0.2
 41
1.0
 50
0.0
 71
0
 42
0.0
  3
txt
  4

  0
ENDTAB
  0
TABLE
  2
UCS
 70
0
  0
ENDTAB
  0
TABLE
  2
VIEW
 70
0
  0
ENDTAB
  0
TABLE
  2
VPORT
 70
1
  0
VPORT
  2
*ACTIVE
 70
0
 10
0.0
 20
0.0
 11
1.0
 21
1.0
 12
0.0
 22
0.0
 13
0.0
 23
0.0
 14
0.0
 24
0.0
 15
0.0
 25
0.0
 16
0.0
 26
0.0
 36
1.0
 17
95.681808
 27
-114.75703
 37
0.0
 40
198.25142
 41
1.355234
 42
50.0
 43
0.00004
 44
0.0
 50
0.0
 51
0.0
 71
0
 72
100
 73
1
 74
0
 75
0
 76
0
 77
0
 78
0
  0
ENDTAB
  0
ENDSEC
  0
SECTION
  2
BLOCKS
  0
ENDSEC
  0
SECTION
  2
ENTITIES
  0
LINE
  8
1
  5
2
  6
CONTINUOUS
 62
7
 10
60.0
 20
-20.00001
 30
0.0
 11
110.0
 21
-20.00001
 31
0.0
  0
LINE
  8
1
  5
4
  6
CONTINUOUS
 62
7
 10
110.0
 20
-70.00001
 30
0.0
 11
250.0
 21
-70.00001
 31
0.0
  0
LINE
  8
1
  5
6
  6
CONTINUOUS
 62
7
 10
250.0
 20
-70.00001
 30
0.0
 11
250.0
 21
-20.00001
 31
0.0
  0
LINE
  8
1
  5
8
  6
CONTINUOUS
 62
7
 10
250.0
 20
-20.00001
 30
0.0
 11
110.0
 21
-20.00001
 31
0.0
  0
LINE
  8
1
  5
A
  6
CONTINUOUS
 62
7
 10
110.0
 20
-20.00001
 30
0.0
 11
110.0
 21
-70.00001
 31
0.0
  0
LINE
  8
1
  5
C
  6
CONTINUOUS
 62
7
 10
82.70926
 20
-27.66298
 30
0.0
 11
77.903
 21
-32.24389
 31
0.0
  0
ARC
  8
1
  5
E
  6
CONTINUOUS
 62
7
 10
75.074274
 20
-29.276008
 30
0.0
 40
4.1
 50
225.0
 51
313.6247972222
  0
LINE
  8
1
  5
10
  6
CONTINUOUS
 62
7
 10
72.17514
 20
-32.17515
 30
0.0
 11
60.0
 21
-20.00001
 31
0.0
  0
LINE
  8
1
  5
12
  6
CONTINUOUS
 62
7
 10
110.0
 20
-70.00001
 30
0.0
 11
101.51025
 21
-61.51026
 31
0.0
  0
ARC
  8
1
  5
14
  6
CONTINUOUS
 62
7
 10
98.611111
 20
-64.409397
 30
0.0
 40
4.1
 50
45.0
 51
134.9999888889
  0
LINE
  8
1
  5
16
  6
CONTINUOUS
 62
7
 10
95.71197
 20
-61.51026
 30
0.0
 11
90.12136
 21
-67.10087
 31
0.0
  0
ARC
  8
1
  5
18
  6
CONTINUOUS
 62
7
 10
87.222222
 20
-64.201734
 30
0.0
 40
4.1
 50
225.0
 51
315.0000111111
  0
LINE
  8
1
  5
1A
  6
CONTINUOUS
 62
7
 10
84.32308
 20
-67.10087
 30
0.0
 11
71.99914
 21
-54.77693
 31
0.0
  0
ARC
  8
1
  5
1C
  6
CONTINUOUS
 62
7
 10
74.898276
 20
-51.877788
 30
0.0
 40
4.1
 50
89.9999944444
 51
225.0
  0
LINE
  8
1
  5
1E
  6
CONTINUOUS
 62
7
 10
74.89828
 20
-47.77779
 30
0.0
 11
99.56954
 21
-47.77779
 31
0.0
  0
ARC
  8
1
  5
20
  6
CONTINUOUS
 62
7
 10
99.569539
 20
-43.677788
 30
0.0
 40
4.1
 50
270.0000055556
 51
47.0824611111
  0
LINE
  8
1
  5
22
  6
CONTINUOUS
 62
7
 10
102.36141
 20
-40.67522
 30
0.0
 11
88.32986
 21
-27.62829
 31
0.0
  0
ARC
  8
1
  5
24
  6
CONTINUOUS
 62
7
 10
85.537988
 20
-30.630859
 30
0.0
 40
4.1
 50
47.0824611111
 51
133.6248027778
  0
LINE
  8
1
  5
26
  6
CONTINUOUS
 62
7
 10
12.70926
 20
-27.66298
 30
0.0
 11
7.903
 21
-32.24389
 31
0.0
  0
ARC
  8
1
  5
28
  6
CONTINUOUS
 62
7
 10
5.074274
 20
-29.276008
 30
0.0
 40
4.1
 50
225.0
 51
313.6247972222
  0
LINE
  8
1
  5
2A
  6
CONTINUOUS
 62
7
 10
2.17514
 20
-32.17515
 30
0.0
 11
-10.0
 21
-20.00001
 31
0.0
  0
LINE
  8
1
  5
2C
  6
CONTINUOUS
 62
7
 10
40.0
 20
-70.00001
 30
0.0
 11
31.51025
 21
-61.51026
 31
0.0
  0
ARC
  8
1
  5
2E
  6
CONTINUOUS
 62
7
 10
28.611111
 20
-64.409397
 30
0.0
 40
4.1
 50
45.0
 51
134.9999888889
  0
LINE
  8
1
  5
30
  6
CONTINUOUS
 62
7
 10
25.71197
 20
-61.51026
 30
0.0
 11
20.12136
 21
-67.10087
 31
0.0
  0
ARC
  8
1
  5
32
  6
CONTINUOUS
 62
7
 10
17.222222
 20
-64.201734
 30
0.0
 40
4.1
 50
225.0
 51
315.0000111111
  0
LINE
  8
1
  5
34
  6
CONTINUOUS
 62
7
 10
14.32308
 20
-67.10087
 30
0.0
 11
1.99914
 21
-54.77693
 31
0.0
  0
ARC
  8
1
  5
36
  6
CONTINUOUS
 62
7
 10
4.898276
 20
-51.877788
 30
0.0
 40
4.1
 50
89.9999944444
 51
225.0
  0
LINE
  8
1
  5
38
  6
CONTINUOUS
 62
7
 10
4.89828
 20
-47.77779
 30
0.0
 11
29.56954
 21
-47.77779
 31
0.0
  0
ARC
  8
1
  5
3A
  6
CONTINUOUS
 62
7
 10
29.569539
 20
-43.677788
 30
0.0
 40
4.1
 50
270.0000055556
 51
47.0824611111
  0
LINE
  8
1
  5
3C
  6
CONTINUOUS
 62
7
 10
32.36141
 20
-40.67522
 30
0.0
 11
18.32986
 21
-27.62829
 31
0.0
  0
ARC
  8
1
  5
3E
  6
CONTINUOUS
 62
7
 10
15.537988
 20
-30.630859
 30
0.0
 40
4.1
 50
47.0824611111
 51
133.6248027778
  0
LINE
  8
1
  5
40
  6
CONTINUOUS
 62
7
 10
40.0
 20
-20.00001
 30
0.0
 11
40.0
 21
-70.00001
 31
0.0
  0
LINE
  8
1
  5
42
  6
CONTINUOUS
 62
7
 10
-10.0
 20
-20.00001
 30
0.0
 11
40.0
 21
-20.00001
 31
0.0
  0
LINE
  8
1
  5
44
  6
CONTINUOUS
 62
7
 10
40.0
 20
-210.00001
 30
0.0
 11
40.0
 21
-70.00001
 31
0.0
  0
LINE
  8
1
  5
46
  6
CONTINUOUS
 62
7
 10
40.0
 20
-210.00001
 30
0.0
 11
-10.0
 21
-210.00001
 31
0.0
  0
LINE
  8
1
  5
48
  6
CONTINUOUS
 62
7
 10
-10.0
 20
-210.00001
 30
0.0
 11
-10.0
 21
-20.00001
 31
0.0
  0
ENDSEC
  0
EOF
