  0
SECTION
  2
HEADER
  9
$ACADVER
  1
AC1006
  9
$INSBASE
 10
0.0
 20
0.0
 30
0.0
  9
$EXTMAX
 10
808.9973
 20
398.3249
  9
$EXTMIN
 10
268.9973
 20
132.77408
  9
$LIMMAX
 10
12.0
 20
9.0
  9
$LIMMIN
 10
0.0
 20
0.0
  9
$ORTHOMODE
 70
0
  9
$REGENMODE
 70
1
  9
$FILLMODE
 70
1
  9
$QTEXTMODE
 70
0
  9
$MIRRTEXT
 70
1
  9
$DRAGMODE
 70
2
  9
$LTSCALE
 40
1.0
  9
$OSMODE
 70
0
  9
$ATTMODE
 70
1
  9
$TEXTSIZE
 40
0.2
  9
$TRACEWID
 40
0.05
  9
$TEXTSTYLE
  7
STANDARD
  9
$CLAYER
  8
0
  9
$CELTYPE
  6
CONTINUOUS
  9
$CECOLOR
 62
256
  9
$DIMSCALE
 40
1.0
  9
$DIMASZ
 40
0.18
  9
$DIMEXO
 40
0.0625
  9
$DIMDLI
 40
0.38
  9
$DIMRND
 40
0.0
  9
$DIMDLE
 40
0.0
  9
$DIMEXE
 40
0.18
  9
$DIMTP
 40
0.0
  9
$DIMTM
 40
0.0
  9
$DIMTXT
 40
0.18
  9
$DIMCEN
 40
0.09
  9
$DIMTSZ
 40
0.0
  9
$DIMTOL
 70
0
  9
$DIMLIM
 70
0
  9
$DIMTIH
 70
1
  9
$DIMTOH
 70
1
  9
$DIMSE1
 70
0
  9
$DIMSE2
 70
0
  9
$DIMTAD
 70
0
  9
$DIMZIN
 70
0
  9
$DIMBLK
  1

  9
$DIMASO
 70
1
  9
$DIMSHO
 70
1
  9
$DIMPOST
  1

  9
$DIMAPOST
  1

  9
$DIMALT
 70
0
  9
$DIMALTD
 70
2
  9
$DIMALTF
 40
25.4
  9
$DIMLFAC
 40
1.0
  9
$DIMTOFL
 70
0
  9
$DIMTVP
 40
0.0
  9
$DIMTIX
 70
0
  9
$DIMSOXD
 70
0
  9
$DIMSAH
 70
0
  9
$DIMBLK1
  1

  9
$DIMBLK2
  1

  9
$LUNITS
 70
2
  9
$LUPREC
 70
4
  9
$AXISMODE
 70
0
  9
$AXISUNIT
 10
0.0
 20
0.0
  9
$SKETCHINC
 40
0.1
  9
$FILLETRAD
 40
0.0
  9
$AUNITS
 70
0
  9
$AUPREC
 70
0
  9
$MENU
  1
acad
  9
$ELEVATION
 40
0.0
  9
$THICKNESS
 40
0.0
  9
$LIMCHECK
 70
0
  9
$BLIPMODE
 70
1
  9
$CHAMFERA
 40
0.0
  9
$CHAMFERB
 40
0.0
  9
$SKPOLY
 70
0
  9
$TDCREATE
 40
0.0
  9
$TDUPDATE
 40
0.0
  9
$TDINDWG
 40
0.0
  9
$TDUSRTIMER
 40
0.0
  9
$USRTIMER
 70
1
  9
$ANGBASE
 50
0.0
  9
$ANGDIR
 70
0
  9
$PDMODE
 70
0
  9
$PDSIZE
 40
0.0
  9
$PLINEWID
 40
0.0
  9
$COORDS
 70
0
  9
$SPLFRAME
 70
0
  9
$SPLINETYPE
 70
6
  9
$SPLINESEGS
 70
10
  9
$ATTDIA
 70
0
  9
$ATTREQ
 70
1
  9
$HANDLING
 70
1
  9
$HANDSEED
  5
174
  9
$SURFTAB1
 70
6
  9
$SURFTAB2
 70
6
  9
$SURFTYPE
 70
6
  9
$SURFU
 70
10
  9
$SURFV
 70
10
  9
$FLATLAND
 70
0
  9
$UCSNAME
  2

  9
$UCSORG
 10
0.0
 20
0.0
 30
0.0
  9
$UCSXDIR
 10
1.0
 20
0.0
 30
0.0
  9
$UCSYDIR
 10
0.0
 20
1.0
 30
0.0
  9
$USERI1
 70
0
  9
$USERI2
 70
0
  9
$USERI3
 70
0
  9
$USERI4
 70
0
  9
$USERI5
 70
0
  9
$USERR1
 40
0.0
  9
$USERR2
 40
0.0
  9
$USERR3
 40
0.0
  9
$USERR4
 40
0.0
  9
$USERR5
 40
0.0
  9
$WORLDVIEW
 70
1
  0
ENDSEC
  0
SECTION
  2
TABLES
  0
TABLE
  2
LTYPE
 70
7
  0
LTYPE
  2
CONTINUOUS
 70
64
  3
Solid line
 72
65
 73
0
 40
0.0
  0
LTYPE
  2
DOT
 70
64
  3
. . . . . . . . . . . . . . . . . . . . . . . . . . . . . . . . .
 72
65
 73
2
 40
0.25
 49
0.0
 49
-0.25
  0
LTYPE
  2
HIDDEN
 70
64
  3
__ __ __ __ __ __ __ __ __ __ __ __ __ __ __ __ __ __ __ __ __ 
 72
65
 73
2
 40
0.375
 49
0.25
 49
-0.125
  0
LTYPE
  2
DASHED
 70
64
  3
__ __ __ __ __ __ __ __ __ __ __ __ __ __ __ __ __ __ __ __ __
 72
65
 73
2
 40
0.75
 49
0.5
 49
-0.25
  0
LTYPE
  2
DASHDOT
 70
64
  3
__ . __ . __ . __ . __ . __ . __ . __ . __ . __ . __ . __ . _
 72
65
 73
4
 40
1.0
 49
0.5
 49
-0.25
 49
0.0
 49
-0.25
  0
LTYPE
  2
DIVIDE
 70
64
  3
____ . . ____ . . ____ . . ____ . . ____ . . ____ . . ____ . .
 72
65
 73
6
 40
1.25
 49
0.5
 49
-0.25
 49
0.0
 49
-0.25
 49
0.0
 49
-0.25
  0
LTYPE
  2
CENTER
 70
64
  3
____ _ ____ _ ____ _ ____ _ ____ _ ____ _ ____ _ ____ _ ____ _
 72
65
 73
4
 40
2.0
 49
1.25
 49
-0.25
 49
0.25
 49
-0.25
  0
ENDTAB
  0
TABLE
  2
LAYER
 70
4
  0
LAYER
  2
0
 70
0
 62
7
  6
CONTINUOUS
  0
LAYER
  2
CONSTRUCTION_CLASS
 70
0
 62
7
  6
CONTINUOUS
  0
LAYER
  2
PATTERN_CLASS
 70
0
 62
7
  6
CONTINUOUS
  0
LAYER
  2
1
 70
0
 62
7
  6
CONTINUOUS
  0
ENDTAB
  0
TABLE
  2
STYLE
 70
1
  0
STYLE
  2
STANDARD
 70
0
 40
0.2
 41
1.0
 50
0.0
 71
0
 42
0.0
  3
txt
  4

  0
ENDTAB
  0
TABLE
  2
UCS
 70
0
  0
ENDTAB
  0
TABLE
  2
VIEW
 70
0
  0
ENDTAB
  0
TABLE
  2
VPORT
 70
1
  0
VPORT
  2
*ACTIVE
 70
0
 10
0.0
 20
0.0
 11
1.0
 21
1.0
 12
0.0
 22
2.842171E-014
 13
0.0
 23
0.0
 14
0.0
 24
0.0
 15
0.0
 25
0.0
 16
0.0
 26
0.0
 36
1.0
 17
511.315101
 27
266.87178
 37
0.0
 40
367.155
 41
1.356745
 42
50.0
 43
0.00004
 44
0.0
 50
0.0
 51
0.0
 71
0
 72
100
 73
1
 74
0
 75
0
 76
0
 77
0
 78
0
  0
ENDTAB
  0
ENDSEC
  0
SECTION
  2
BLOCKS
  0
ENDSEC
  0
SECTION
  2
ENTITIES
  0
POINT
  8
1
  5
2
  6
CONTINUOUS
 62
7
 10
775.19476
 20
215.27408
 30
0.0
 50
0.0
  0
LINE
  8
1
  5
4
  6
CONTINUOUS
 62
7
 10
568.9973
 20
360.78472
 30
0.0
 11
605.9973
 21
360.78472
 31
0.0
  0
LINE
  8
1
  5
6
  6
CONTINUOUS
 62
7
 10
617.9973
 20
360.78472
 30
0.0
 11
692.39984
 21
360.78472
 31
0.0
  0
LINE
  8
1
  5
8
  6
CONTINUOUS
 62
7
 10
775.19476
 20
360.78472
 30
0.0
 11
808.9973
 21
360.78472
 31
0.0
  0
LINE
  8
1
  5
A
  6
CONTINUOUS
 62
7
 10
617.9973
 20
215.27408
 30
0.0
 11
692.39984
 21
215.27408
 31
0.0
  0
LINE
  8
1
  5
C
  6
CONTINUOUS
 62
7
 10
568.9973
 20
215.27408
 30
0.0
 11
605.9973
 21
215.27408
 31
0.0
  0
LINE
  8
1
  5
E
  6
CONTINUOUS
 62
7
 10
775.19476
 20
215.27408
 30
0.0
 11
808.9973
 21
215.27408
 31
0.0
  0
LINE
  8
1
  5
10
  6
CONTINUOUS
 62
7
 10
456.9973
 20
174.02408
 30
0.0
 11
456.9973
 21
256.52408
 31
0.0
  0
POINT
  8
1
  5
12
  6
CONTINUOUS
 62
7
 10
471.9973
 20
174.02408
 30
0.0
 50
0.0
  0
LINE
  8
1
  5
14
  6
CONTINUOUS
 62
7
 10
471.9973
 20
256.52408
 30
0.0
 11
471.9973
 21
174.02408
 31
0.0
  0
POLYLINE
  8
1
  5
16
  6
CONTINUOUS
 62
7
 10
0.0
 20
0.0
 30
0.0
 66
1
 70
0
  0
VERTEX
  8
1
  5
17
  6
CONTINUOUS
 62
7
 10
456.9973
 20
297.77408
 30
0.0
  0
VERTEX
  8
1
  5
18
  6
CONTINUOUS
 62
7
 10
268.9973
 20
297.77408
 30
0.0
  0
VERTEX
  8
1
  5
19
  6
CONTINUOUS
 62
7
 10
268.9973
 20
297.77408
 30
0.0
  0
VERTEX
  8
1
  5
1A
  6
CONTINUOUS
 62
7
 10
268.9973
 20
132.77408
 30
0.0
  0
VERTEX
  8
1
  5
1B
  6
CONTINUOUS
 62
7
 10
268.9973
 20
132.77408
 30
0.0
  0
VERTEX
  8
1
  5
1C
  6
CONTINUOUS
 62
7
 10
456.9973
 20
132.77408
 30
0.0
  0
SEQEND
  8
1
  5
1D
  0
POLYLINE
  8
1
  5
1F
  6
CONTINUOUS
 62
7
 10
0.0
 20
0.0
 30
0.0
 66
1
 70
0
  0
VERTEX
  8
1
  5
20
  6
CONTINUOUS
 62
7
 10
471.9973
 20
297.77408
 30
0.0
  0
VERTEX
  8
1
  5
21
  6
CONTINUOUS
 62
7
 10
508.9973
 20
297.77408
 30
0.0
  0
VERTEX
  8
1
  5
22
  6
CONTINUOUS
 62
7
 10
508.9973
 20
297.77408
 30
0.0
  0
VERTEX
  8
1
  5
23
  6
CONTINUOUS
 62
7
 10
508.9973
 20
132.77408
 30
0.0
  0
VERTEX
  8
1
  5
24
  6
CONTINUOUS
 62
7
 10
508.9973
 20
132.77408
 30
0.0
  0
VERTEX
  8
1
  5
25
  6
CONTINUOUS
 62
7
 10
471.9973
 20
132.77408
 30
0.0
  0
SEQEND
  8
1
  5
26
  0
POLYLINE
  8
1
  5
28
  6
CONTINUOUS
 62
7
 10
0.0
 20
0.0
 30
0.0
 66
1
 70
0
  0
VERTEX
  8
1
  5
29
  6
CONTINUOUS
 62
7
 10
456.9973
 20
297.77408
 30
0.0
  0
VERTEX
  8
1
  5
2A
  6
CONTINUOUS
 62
7
 10
456.9973
 20
268.52408
 30
0.0
  0
VERTEX
  8
1
  5
2B
  6
CONTINUOUS
 62
7
 10
456.9973
 20
268.52408
 30
0.0
  0
VERTEX
  8
1
  5
2C
  6
CONTINUOUS
 62
7
 10
452.5973
 20
268.52408
 30
0.0
  0
VERTEX
  8
1
  5
2D
  6
CONTINUOUS
 62
7
 10
452.5973
 20
268.524082
 30
0.0
 42
0.414214
  0
VERTEX
  8
1
  5
2E
  6
CONTINUOUS
 62
7
 10
448.4973
 20
264.424082
 30
0.0
  0
VERTEX
  8
1
  5
2F
  6
CONTINUOUS
 62
7
 10
448.4973
 20
264.42408
 30
0.0
  0
VERTEX
  8
1
  5
30
  6
CONTINUOUS
 62
7
 10
448.4973
 20
260.62408
 30
0.0
  0
VERTEX
  8
1
  5
31
  6
CONTINUOUS
 62
7
 10
448.4973
 20
260.624082
 30
0.0
 42
0.414214
  0
VERTEX
  8
1
  5
32
  6
CONTINUOUS
 62
7
 10
452.5973
 20
256.524082
 30
0.0
  0
VERTEX
  8
1
  5
33
  6
CONTINUOUS
 62
7
 10
452.5973
 20
256.52408
 30
0.0
  0
VERTEX
  8
1
  5
34
  6
CONTINUOUS
 62
7
 10
456.9973
 20
256.52408
 30
0.0
  0
VERTEX
  8
1
  5
35
  6
CONTINUOUS
 62
7
 10
456.9973
 20
256.52408
 30
0.0
  0
VERTEX
  8
1
  5
36
  6
CONTINUOUS
 62
7
 10
471.9973
 20
256.52408
 30
0.0
  0
VERTEX
  8
1
  5
37
  6
CONTINUOUS
 62
7
 10
471.9973
 20
256.52408
 30
0.0
  0
VERTEX
  8
1
  5
38
  6
CONTINUOUS
 62
7
 10
476.3973
 20
256.52408
 30
0.0
  0
VERTEX
  8
1
  5
39
  6
CONTINUOUS
 62
7
 10
476.3973
 20
256.524082
 30
0.0
 42
0.414214
  0
VERTEX
  8
1
  5
3A
  6
CONTINUOUS
 62
7
 10
480.4973
 20
260.624082
 30
0.0
  0
VERTEX
  8
1
  5
3B
  6
CONTINUOUS
 62
7
 10
480.4973
 20
260.62408
 30
0.0
  0
VERTEX
  8
1
  5
3C
  6
CONTINUOUS
 62
7
 10
480.4973
 20
264.42408
 30
0.0
  0
VERTEX
  8
1
  5
3D
  6
CONTINUOUS
 62
7
 10
480.4973
 20
264.424082
 30
0.0
 42
0.414214
  0
VERTEX
  8
1
  5
3E
  6
CONTINUOUS
 62
7
 10
476.3973
 20
268.524082
 30
0.0
  0
VERTEX
  8
1
  5
3F
  6
CONTINUOUS
 62
7
 10
476.3973
 20
268.52408
 30
0.0
  0
VERTEX
  8
1
  5
40
  6
CONTINUOUS
 62
7
 10
471.9973
 20
268.52408
 30
0.0
  0
VERTEX
  8
1
  5
41
  6
CONTINUOUS
 62
7
 10
471.9973
 20
268.52408
 30
0.0
  0
VERTEX
  8
1
  5
42
  6
CONTINUOUS
 62
7
 10
471.9973
 20
297.77408
 30
0.0
  0
SEQEND
  8
1
  5
43
  0
POLYLINE
  8
1
  5
45
  6
CONTINUOUS
 62
7
 10
0.0
 20
0.0
 30
0.0
 66
1
 70
0
  0
VERTEX
  8
1
  5
46
  6
CONTINUOUS
 62
7
 10
456.9973
 20
132.77408
 30
0.0
  0
VERTEX
  8
1
  5
47
  6
CONTINUOUS
 62
7
 10
456.9973
 20
162.02408
 30
0.0
  0
VERTEX
  8
1
  5
48
  6
CONTINUOUS
 62
7
 10
456.9973
 20
162.02408
 30
0.0
  0
VERTEX
  8
1
  5
49
  6
CONTINUOUS
 62
7
 10
452.5973
 20
162.02408
 30
0.0
  0
VERTEX
  8
1
  5
4A
  6
CONTINUOUS
 62
7
 10
452.5973
 20
162.024082
 30
0.0
 42
-0.414214
  0
VERTEX
  8
1
  5
4B
  6
CONTINUOUS
 62
7
 10
448.4973
 20
166.124082
 30
0.0
  0
VERTEX
  8
1
  5
4C
  6
CONTINUOUS
 62
7
 10
448.4973
 20
166.12408
 30
0.0
  0
VERTEX
  8
1
  5
4D
  6
CONTINUOUS
 62
7
 10
448.4973
 20
169.92408
 30
0.0
  0
VERTEX
  8
1
  5
4E
  6
CONTINUOUS
 62
7
 10
448.4973
 20
169.924082
 30
0.0
 42
-0.414214
  0
VERTEX
  8
1
  5
4F
  6
CONTINUOUS
 62
7
 10
452.5973
 20
174.024082
 30
0.0
  0
VERTEX
  8
1
  5
50
  6
CONTINUOUS
 62
7
 10
452.5973
 20
174.02408
 30
0.0
  0
VERTEX
  8
1
  5
51
  6
CONTINUOUS
 62
7
 10
456.9973
 20
174.02408
 30
0.0
  0
VERTEX
  8
1
  5
52
  6
CONTINUOUS
 62
7
 10
456.9973
 20
174.02408
 30
0.0
  0
VERTEX
  8
1
  5
53
  6
CONTINUOUS
 62
7
 10
471.9973
 20
174.02408
 30
0.0
  0
VERTEX
  8
1
  5
54
  6
CONTINUOUS
 62
7
 10
471.9973
 20
174.02408
 30
0.0
  0
VERTEX
  8
1
  5
55
  6
CONTINUOUS
 62
7
 10
476.3973
 20
174.02408
 30
0.0
  0
VERTEX
  8
1
  5
56
  6
CONTINUOUS
 62
7
 10
476.3973
 20
174.024082
 30
0.0
 42
-0.414214
  0
VERTEX
  8
1
  5
57
  6
CONTINUOUS
 62
7
 10
480.4973
 20
169.924082
 30
0.0
  0
VERTEX
  8
1
  5
58
  6
CONTINUOUS
 62
7
 10
480.4973
 20
169.92408
 30
0.0
  0
VERTEX
  8
1
  5
59
  6
CONTINUOUS
 62
7
 10
480.4973
 20
166.12408
 30
0.0
  0
VERTEX
  8
1
  5
5A
  6
CONTINUOUS
 62
7
 10
480.4973
 20
166.124082
 30
0.0
 42
-0.414214
  0
VERTEX
  8
1
  5
5B
  6
CONTINUOUS
 62
7
 10
476.3973
 20
162.024082
 30
0.0
  0
VERTEX
  8
1
  5
5C
  6
CONTINUOUS
 62
7
 10
476.3973
 20
162.02408
 30
0.0
  0
VERTEX
  8
1
  5
5D
  6
CONTINUOUS
 62
7
 10
471.9973
 20
162.02408
 30
0.0
  0
VERTEX
  8
1
  5
5E
  6
CONTINUOUS
 62
7
 10
471.9973
 20
162.02408
 30
0.0
  0
VERTEX
  8
1
  5
5F
  6
CONTINUOUS
 62
7
 10
471.9973
 20
132.77408
 30
0.0
  0
SEQEND
  8
1
  5
60
  0
POLYLINE
  8
1
  5
62
  6
CONTINUOUS
 62
7
 10
0.0
 20
0.0
 30
0.0
 66
1
 70
0
  0
VERTEX
  8
1
  5
63
  6
CONTINUOUS
 62
7
 10
568.9973
 20
360.78472
 30
0.0
  0
VERTEX
  8
1
  5
64
  6
CONTINUOUS
 62
7
 10
568.9973
 20
278.28472
 30
0.0
  0
VERTEX
  8
1
  5
65
  6
CONTINUOUS
 62
7
 10
568.9973
 20
278.28472
 30
0.0
  0
VERTEX
  8
1
  5
66
  6
CONTINUOUS
 62
7
 10
808.9973
 20
278.28472
 30
0.0
  0
VERTEX
  8
1
  5
67
  6
CONTINUOUS
 62
7
 10
808.9973
 20
278.28472
 30
0.0
  0
VERTEX
  8
1
  5
68
  6
CONTINUOUS
 62
7
 10
808.9973
 20
360.78472
 30
0.0
  0
SEQEND
  8
1
  5
69
  0
POLYLINE
  8
1
  5
6B
  6
CONTINUOUS
 62
7
 10
0.0
 20
0.0
 30
0.0
 66
1
 70
0
  0
VERTEX
  8
1
  5
6C
  6
CONTINUOUS
 62
7
 10
605.9973
 20
360.78472
 30
0.0
  0
VERTEX
  8
1
  5
6D
  6
CONTINUOUS
 62
7
 10
605.9973
 20
331.53472
 30
0.0
  0
VERTEX
  8
1
  5
6E
  6
CONTINUOUS
 62
7
 10
605.9973
 20
331.53472
 30
0.0
  0
VERTEX
  8
1
  5
6F
  6
CONTINUOUS
 62
7
 10
601.5973
 20
331.53472
 30
0.0
  0
VERTEX
  8
1
  5
70
  6
CONTINUOUS
 62
7
 10
601.5973
 20
331.534722
 30
0.0
 42
0.414214
  0
VERTEX
  8
1
  5
71
  6
CONTINUOUS
 62
7
 10
597.4973
 20
327.434722
 30
0.0
  0
VERTEX
  8
1
  5
72
  6
CONTINUOUS
 62
7
 10
597.4973
 20
327.43472
 30
0.0
  0
VERTEX
  8
1
  5
73
  6
CONTINUOUS
 62
7
 10
597.4973
 20
323.63472
 30
0.0
  0
VERTEX
  8
1
  5
74
  6
CONTINUOUS
 62
7
 10
597.4973
 20
323.634722
 30
0.0
 42
0.414214
  0
VERTEX
  8
1
  5
75
  6
CONTINUOUS
 62
7
 10
601.5973
 20
319.534722
 30
0.0
  0
VERTEX
  8
1
  5
76
  6
CONTINUOUS
 62
7
 10
601.5973
 20
319.53472
 30
0.0
  0
VERTEX
  8
1
  5
77
  6
CONTINUOUS
 62
7
 10
625.3973
 20
319.53472
 30
0.0
  0
VERTEX
  8
1
  5
78
  6
CONTINUOUS
 62
7
 10
625.3973
 20
319.534722
 30
0.0
 42
0.414214
  0
VERTEX
  8
1
  5
79
  6
CONTINUOUS
 62
7
 10
629.4973
 20
323.634722
 30
0.0
  0
VERTEX
  8
1
  5
7A
  6
CONTINUOUS
 62
7
 10
629.4973
 20
323.63472
 30
0.0
  0
VERTEX
  8
1
  5
7B
  6
CONTINUOUS
 62
7
 10
629.4973
 20
327.43472
 30
0.0
  0
VERTEX
  8
1
  5
7C
  6
CONTINUOUS
 62
7
 10
629.4973
 20
327.434722
 30
0.0
 42
0.414214
  0
VERTEX
  8
1
  5
7D
  6
CONTINUOUS
 62
7
 10
625.3973
 20
331.534722
 30
0.0
  0
VERTEX
  8
1
  5
7E
  6
CONTINUOUS
 62
7
 10
625.3973
 20
331.53472
 30
0.0
  0
VERTEX
  8
1
  5
7F
  6
CONTINUOUS
 62
7
 10
617.9973
 20
331.53472
 30
0.0
  0
VERTEX
  8
1
  5
80
  6
CONTINUOUS
 62
7
 10
617.9973
 20
331.53472
 30
0.0
  0
VERTEX
  8
1
  5
81
  6
CONTINUOUS
 62
7
 10
617.9973
 20
360.78472
 30
0.0
  0
SEQEND
  8
1
  5
82
  0
POLYLINE
  8
1
  5
84
  6
CONTINUOUS
 62
7
 10
0.0
 20
0.0
 30
0.0
 66
1
 70
0
  0
VERTEX
  8
1
  5
85
  6
CONTINUOUS
 62
7
 10
741.297301
 20
390.784722
 30
0.0
 42
0.123106
  0
VERTEX
  8
1
  5
86
  6
CONTINUOUS
 62
7
 10
726.297301
 20
390.784723
 30
0.0
  0
VERTEX
  8
1
  5
87
  6
CONTINUOUS
 62
7
 10
726.2973
 20
390.78472
 30
0.0
  0
VERTEX
  8
1
  5
88
  6
CONTINUOUS
 62
7
 10
726.2974
 20
390.7843
 30
0.0
  0
VERTEX
  8
1
  5
89
  6
CONTINUOUS
 62
7
 10
726.2974
 20
390.784304
 30
0.0
 42
0.791683
  0
VERTEX
  8
1
  5
8A
  6
CONTINUOUS
 62
7
 10
726.2973
 20
382.80305
 30
0.0
  0
VERTEX
  8
1
  5
8B
  6
CONTINUOUS
 62
7
 10
726.2973
 20
382.80305
 30
0.0
  0
VERTEX
  8
1
  5
8C
  6
CONTINUOUS
 62
7
 10
726.2973
 20
368.28472
 30
0.0
  0
VERTEX
  8
1
  5
8D
  6
CONTINUOUS
 62
7
 10
726.2973
 20
368.28472
 30
0.0
  0
VERTEX
  8
1
  5
8E
  6
CONTINUOUS
 62
7
 10
719.31808
 20
368.28472
 30
0.0
  0
VERTEX
  8
1
  5
8F
  6
CONTINUOUS
 62
7
 10
719.31808
 20
368.284722
 30
0.0
 42
0.740121
  0
VERTEX
  8
1
  5
90
  6
CONTINUOUS
 62
7
 10
717.026792
 20
360.784722
 30
0.0
  0
VERTEX
  8
1
  5
91
  6
CONTINUOUS
 62
7
 10
717.02679
 20
360.784722
 30
0.0
 42
0.284079
  0
VERTEX
  8
1
  5
92
  6
CONTINUOUS
 62
7
 10
726.2973
 20
345.784722
 30
0.0
  0
VERTEX
  8
1
  5
93
  6
CONTINUOUS
 62
7
 10
726.2973
 20
345.78472
 30
0.0
  0
VERTEX
  8
1
  5
94
  6
CONTINUOUS
 62
7
 10
726.2973
 20
338.76639
 30
0.0
  0
VERTEX
  8
1
  5
95
  6
CONTINUOUS
 62
7
 10
726.2973
 20
338.766395
 30
0.0
 42
0.791592
  0
VERTEX
  8
1
  5
96
  6
CONTINUOUS
 62
7
 10
726.296509
 20
330.785351
 30
0.0
  0
VERTEX
  8
1
  5
97
  6
CONTINUOUS
 62
7
 10
726.29651
 20
330.78535
 30
0.0
  0
VERTEX
  8
1
  5
98
  6
CONTINUOUS
 62
7
 10
726.2973
 20
330.78472
 30
0.0
  0
VERTEX
  8
1
  5
99
  6
CONTINUOUS
 62
7
 10
726.297299
 20
330.784722
 30
0.0
 42
0.123629
  0
VERTEX
  8
1
  5
9A
  6
CONTINUOUS
 62
7
 10
741.359158
 20
330.800254
 30
0.0
  0
VERTEX
  8
1
  5
9B
  6
CONTINUOUS
 62
7
 10
741.359159
 20
330.800255
 30
0.0
 42
0.785406
  0
VERTEX
  8
1
  5
9C
  6
CONTINUOUS
 62
7
 10
741.297004
 20
338.766465
 30
0.0
  0
VERTEX
  8
1
  5
9D
  6
CONTINUOUS
 62
7
 10
741.297
 20
338.76646
 30
0.0
  0
VERTEX
  8
1
  5
9E
  6
CONTINUOUS
 62
7
 10
741.2973
 20
353.28472
 30
0.0
  0
VERTEX
  8
1
  5
9F
  6
CONTINUOUS
 62
7
 10
741.2973
 20
353.28472
 30
0.0
  0
VERTEX
  8
1
  5
A0
  6
CONTINUOUS
 62
7
 10
748.27652
 20
353.28472
 30
0.0
  0
VERTEX
  8
1
  5
A1
  6
CONTINUOUS
 62
7
 10
748.27652
 20
353.284722
 30
0.0
 42
0.740121
  0
VERTEX
  8
1
  5
A2
  6
CONTINUOUS
 62
7
 10
750.56781
 20
360.78472
 30
0.0
  0
VERTEX
  8
1
  5
A3
  6
CONTINUOUS
 62
7
 10
750.56781
 20
360.78472
 30
0.0
  0
VERTEX
  8
1
  5
A4
  6
CONTINUOUS
 62
7
 10
750.56781
 20
360.784722
 30
0.0
 42
0.284079
  0
VERTEX
  8
1
  5
A5
  6
CONTINUOUS
 62
7
 10
741.2973
 20
375.784722
 30
0.0
  0
VERTEX
  8
1
  5
A6
  6
CONTINUOUS
 62
7
 10
741.2973
 20
375.78472
 30
0.0
  0
VERTEX
  8
1
  5
A7
  6
CONTINUOUS
 62
7
 10
741.2973
 20
382.80305
 30
0.0
  0
VERTEX
  8
1
  5
A8
  6
CONTINUOUS
 62
7
 10
741.2973
 20
382.80305
 30
0.0
 42
0.791683
  0
VERTEX
  8
1
  5
A9
  6
CONTINUOUS
 62
7
 10
741.2972
 20
390.784304
 30
0.0
  0
VERTEX
  8
1
  5
AA
  6
CONTINUOUS
 62
7
 10
741.2972
 20
390.7843
 30
0.0
  0
VERTEX
  8
1
  5
AB
  6
CONTINUOUS
 62
7
 10
741.2973
 20
390.78472
 30
0.0
  0
SEQEND
  8
1
  5
AC
  0
POLYLINE
  8
1
  5
AE
  6
CONTINUOUS
 62
7
 10
0.0
 20
0.0
 30
0.0
 66
1
 70
0
  0
VERTEX
  8
1
  5
AF
  6
CONTINUOUS
 62
7
 10
692.406296
 20
360.784727
 30
0.0
 42
0.385134
  0
VERTEX
  8
1
  5
B0
  6
CONTINUOUS
 62
7
 10
696.479875
 20
364.480636
 30
0.0
  0
VERTEX
  8
1
  5
B1
  6
CONTINUOUS
 62
7
 10
696.479875
 20
364.480636
 30
0.0
 42
-0.905853
  0
VERTEX
  8
1
  5
B2
  6
CONTINUOUS
 62
7
 10
771.114725
 20
364.480636
 30
0.0
  0
VERTEX
  8
1
  5
B3
  6
CONTINUOUS
 62
7
 10
771.114725
 20
364.480636
 30
0.0
 42
0.385134
  0
VERTEX
  8
1
  5
B4
  6
CONTINUOUS
 62
7
 10
775.188294
 20
360.784727
 30
0.0
  0
SEQEND
  8
1
  5
B5
  0
POLYLINE
  8
1
  5
B7
  6
CONTINUOUS
 62
7
 10
0.0
 20
0.0
 30
0.0
 66
1
 70
0
  0
VERTEX
  8
1
  5
B8
  6
CONTINUOUS
 62
7
 10
692.399836
 20
360.784722
 30
0.0
 42
-0.385587
  0
VERTEX
  8
1
  5
B9
  6
CONTINUOUS
 62
7
 10
696.479875
 20
357.088809
 30
0.0
  0
VERTEX
  8
1
  5
BA
  6
CONTINUOUS
 62
7
 10
696.479875
 20
357.088809
 30
0.0
 42
0.905853
  0
VERTEX
  8
1
  5
BB
  6
CONTINUOUS
 62
7
 10
771.114725
 20
357.088809
 30
0.0
  0
VERTEX
  8
1
  5
BC
  6
CONTINUOUS
 62
7
 10
771.114725
 20
357.088809
 30
0.0
 42
-0.385587
  0
VERTEX
  8
1
  5
BD
  6
CONTINUOUS
 62
7
 10
775.194764
 20
360.784722
 30
0.0
  0
SEQEND
  8
1
  5
BE
  0
POLYLINE
  8
1
  5
C0
  6
CONTINUOUS
 62
7
 10
0.0
 20
0.0
 30
0.0
 66
1
 70
0
  0
VERTEX
  8
1
  5
C1
  6
CONTINUOUS
 62
7
 10
568.9973
 20
215.27408
 30
0.0
  0
VERTEX
  8
1
  5
C2
  6
CONTINUOUS
 62
7
 10
568.9973
 20
132.77408
 30
0.0
  0
VERTEX
  8
1
  5
C3
  6
CONTINUOUS
 62
7
 10
568.9973
 20
132.77408
 30
0.0
  0
VERTEX
  8
1
  5
C4
  6
CONTINUOUS
 62
7
 10
808.9973
 20
132.77408
 30
0.0
  0
VERTEX
  8
1
  5
C5
  6
CONTINUOUS
 62
7
 10
808.9973
 20
132.77408
 30
0.0
  0
VERTEX
  8
1
  5
C6
  6
CONTINUOUS
 62
7
 10
808.9973
 20
215.27408
 30
0.0
  0
SEQEND
  8
1
  5
C7
  0
POLYLINE
  8
1
  5
C9
  6
CONTINUOUS
 62
7
 10
0.0
 20
0.0
 30
0.0
 66
1
 70
0
  0
VERTEX
  8
1
  5
CA
  6
CONTINUOUS
 62
7
 10
605.9973
 20
215.27408
 30
0.0
  0
VERTEX
  8
1
  5
CB
  6
CONTINUOUS
 62
7
 10
605.9973
 20
186.02408
 30
0.0
  0
VERTEX
  8
1
  5
CC
  6
CONTINUOUS
 62
7
 10
605.9973
 20
186.02408
 30
0.0
  0
VERTEX
  8
1
  5
CD
  6
CONTINUOUS
 62
7
 10
601.5973
 20
186.02408
 30
0.0
  0
VERTEX
  8
1
  5
CE
  6
CONTINUOUS
 62
7
 10
601.5973
 20
186.024082
 30
0.0
 42
0.414214
  0
VERTEX
  8
1
  5
CF
  6
CONTINUOUS
 62
7
 10
597.4973
 20
181.924082
 30
0.0
  0
VERTEX
  8
1
  5
D0
  6
CONTINUOUS
 62
7
 10
597.4973
 20
181.92408
 30
0.0
  0
VERTEX
  8
1
  5
D1
  6
CONTINUOUS
 62
7
 10
597.4973
 20
178.12408
 30
0.0
  0
VERTEX
  8
1
  5
D2
  6
CONTINUOUS
 62
7
 10
597.4973
 20
178.124082
 30
0.0
 42
0.414214
  0
VERTEX
  8
1
  5
D3
  6
CONTINUOUS
 62
7
 10
601.5973
 20
174.024082
 30
0.0
  0
VERTEX
  8
1
  5
D4
  6
CONTINUOUS
 62
7
 10
601.5973
 20
174.02408
 30
0.0
  0
VERTEX
  8
1
  5
D5
  6
CONTINUOUS
 62
7
 10
625.3973
 20
174.02408
 30
0.0
  0
VERTEX
  8
1
  5
D6
  6
CONTINUOUS
 62
7
 10
625.3973
 20
174.024082
 30
0.0
 42
0.414214
  0
VERTEX
  8
1
  5
D7
  6
CONTINUOUS
 62
7
 10
629.4973
 20
178.124082
 30
0.0
  0
VERTEX
  8
1
  5
D8
  6
CONTINUOUS
 62
7
 10
629.4973
 20
178.12408
 30
0.0
  0
VERTEX
  8
1
  5
D9
  6
CONTINUOUS
 62
7
 10
629.4973
 20
181.92408
 30
0.0
  0
VERTEX
  8
1
  5
DA
  6
CONTINUOUS
 62
7
 10
629.4973
 20
181.924082
 30
0.0
 42
0.414214
  0
VERTEX
  8
1
  5
DB
  6
CONTINUOUS
 62
7
 10
625.3973
 20
186.024082
 30
0.0
  0
VERTEX
  8
1
  5
DC
  6
CONTINUOUS
 62
7
 10
625.3973
 20
186.02408
 30
0.0
  0
VERTEX
  8
1
  5
DD
  6
CONTINUOUS
 62
7
 10
617.9973
 20
186.02408
 30
0.0
  0
VERTEX
  8
1
  5
DE
  6
CONTINUOUS
 62
7
 10
617.9973
 20
186.02408
 30
0.0
  0
VERTEX
  8
1
  5
DF
  6
CONTINUOUS
 62
7
 10
617.9973
 20
215.27408
 30
0.0
  0
SEQEND
  8
1
  5
E0
  0
POLYLINE
  8
1
  5
E2
  6
CONTINUOUS
 62
7
 10
0.0
 20
0.0
 30
0.0
 66
1
 70
0
  0
VERTEX
  8
1
  5
E3
  6
CONTINUOUS
 62
7
 10
726.296509
 20
245.273454
 30
0.0
 42
0.791592
  0
VERTEX
  8
1
  5
E4
  6
CONTINUOUS
 62
7
 10
726.2973
 20
237.29241
 30
0.0
  0
VERTEX
  8
1
  5
E5
  6
CONTINUOUS
 62
7
 10
726.2973
 20
237.29241
 30
0.0
  0
VERTEX
  8
1
  5
E6
  6
CONTINUOUS
 62
7
 10
726.2973
 20
230.27408
 30
0.0
  0
VERTEX
  8
1
  5
E7
  6
CONTINUOUS
 62
7
 10
726.2973
 20
230.274082
 30
0.0
 42
0.284079
  0
VERTEX
  8
1
  5
E8
  6
CONTINUOUS
 62
7
 10
717.02679
 20
215.274082
 30
0.0
  0
VERTEX
  8
1
  5
E9
  6
CONTINUOUS
 62
7
 10
717.026792
 20
215.274082
 30
0.0
 42
0.740121
  0
VERTEX
  8
1
  5
EA
  6
CONTINUOUS
 62
7
 10
719.31808
 20
207.774082
 30
0.0
  0
VERTEX
  8
1
  5
EB
  6
CONTINUOUS
 62
7
 10
719.31808
 20
207.77408
 30
0.0
  0
VERTEX
  8
1
  5
EC
  6
CONTINUOUS
 62
7
 10
726.2973
 20
207.77408
 30
0.0
  0
VERTEX
  8
1
  5
ED
  6
CONTINUOUS
 62
7
 10
726.2973
 20
207.77408
 30
0.0
  0
VERTEX
  8
1
  5
EE
  6
CONTINUOUS
 62
7
 10
726.2973
 20
193.25575
 30
0.0
  0
VERTEX
  8
1
  5
EF
  6
CONTINUOUS
 62
7
 10
726.2973
 20
193.255755
 30
0.0
 42
0.791683
  0
VERTEX
  8
1
  5
F0
  6
CONTINUOUS
 62
7
 10
726.2974
 20
185.274501
 30
0.0
  0
VERTEX
  8
1
  5
F1
  6
CONTINUOUS
 62
7
 10
726.2974
 20
185.2745
 30
0.0
  0
VERTEX
  8
1
  5
F2
  6
CONTINUOUS
 62
7
 10
726.2973
 20
185.27408
 30
0.0
  0
VERTEX
  8
1
  5
F3
  6
CONTINUOUS
 62
7
 10
726.297301
 20
185.274082
 30
0.0
 42
0.123106
  0
VERTEX
  8
1
  5
F4
  6
CONTINUOUS
 62
7
 10
741.297301
 20
185.274082
 30
0.0
  0
VERTEX
  8
1
  5
F5
  6
CONTINUOUS
 62
7
 10
741.2973
 20
185.27408
 30
0.0
  0
VERTEX
  8
1
  5
F6
  6
CONTINUOUS
 62
7
 10
741.2972
 20
185.2745
 30
0.0
  0
VERTEX
  8
1
  5
F7
  6
CONTINUOUS
 62
7
 10
741.2972
 20
185.274501
 30
0.0
 42
0.791683
  0
VERTEX
  8
1
  5
F8
  6
CONTINUOUS
 62
7
 10
741.2973
 20
193.255755
 30
0.0
  0
VERTEX
  8
1
  5
F9
  6
CONTINUOUS
 62
7
 10
741.2973
 20
193.25575
 30
0.0
  0
VERTEX
  8
1
  5
FA
  6
CONTINUOUS
 62
7
 10
741.2973
 20
200.27408
 30
0.0
  0
VERTEX
  8
1
  5
FB
  6
CONTINUOUS
 62
7
 10
741.2973
 20
200.274082
 30
0.0
 42
0.284079
  0
VERTEX
  8
1
  5
FC
  6
CONTINUOUS
 62
7
 10
750.56781
 20
215.274082
 30
0.0
  0
VERTEX
  8
1
  5
FD
  6
CONTINUOUS
 62
7
 10
750.567808
 20
215.274082
 30
0.0
 42
0.740121
  0
VERTEX
  8
1
  5
FE
  6
CONTINUOUS
 62
7
 10
748.27652
 20
222.774082
 30
0.0
  0
VERTEX
  8
1
  5
FF
  6
CONTINUOUS
 62
7
 10
748.27652
 20
222.77408
 30
0.0
  0
VERTEX
  8
1
  5
100
  6
CONTINUOUS
 62
7
 10
741.2973
 20
222.77408
 30
0.0
  0
VERTEX
  8
1
  5
101
  6
CONTINUOUS
 62
7
 10
741.2973
 20
222.77408
 30
0.0
  0
VERTEX
  8
1
  5
102
  6
CONTINUOUS
 62
7
 10
741.297
 20
237.29234
 30
0.0
  0
VERTEX
  8
1
  5
103
  6
CONTINUOUS
 62
7
 10
741.297004
 20
237.29234
 30
0.0
 42
0.785406
  0
VERTEX
  8
1
  5
104
  6
CONTINUOUS
 62
7
 10
741.359159
 20
245.25855
 30
0.0
  0
VERTEX
  8
1
  5
105
  6
CONTINUOUS
 62
7
 10
741.359158
 20
245.25855
 30
0.0
 42
0.123629
  0
VERTEX
  8
1
  5
106
  6
CONTINUOUS
 62
7
 10
726.297299
 20
245.274082
 30
0.0
  0
VERTEX
  8
1
  5
107
  6
CONTINUOUS
 62
7
 10
726.2973
 20
245.27408
 30
0.0
  0
VERTEX
  8
1
  5
108
  6
CONTINUOUS
 62
7
 10
726.29651
 20
245.27345
 30
0.0
  0
SEQEND
  8
1
  5
109
  0
POLYLINE
  8
1
  5
10B
  6
CONTINUOUS
 62
7
 10
0.0
 20
0.0
 30
0.0
 66
1
 70
0
  0
VERTEX
  8
1
  5
10C
  6
CONTINUOUS
 62
7
 10
692.399836
 20
215.274082
 30
0.0
 42
0.385587
  0
VERTEX
  8
1
  5
10D
  6
CONTINUOUS
 62
7
 10
696.479875
 20
218.969996
 30
0.0
  0
VERTEX
  8
1
  5
10E
  6
CONTINUOUS
 62
7
 10
696.479875
 20
218.969996
 30
0.0
 42
-0.905853
  0
VERTEX
  8
1
  5
10F
  6
CONTINUOUS
 62
7
 10
771.114725
 20
218.969996
 30
0.0
  0
VERTEX
  8
1
  5
110
  6
CONTINUOUS
 62
7
 10
771.114725
 20
218.969996
 30
0.0
 42
0.385587
  0
VERTEX
  8
1
  5
111
  6
CONTINUOUS
 62
7
 10
775.194764
 20
215.274082
 30
0.0
  0
SEQEND
  8
1
  5
112
  0
POLYLINE
  8
1
  5
114
  6
CONTINUOUS
 62
7
 10
0.0
 20
0.0
 30
0.0
 66
1
 70
0
  0
VERTEX
  8
1
  5
115
  6
CONTINUOUS
 62
7
 10
692.399836
 20
215.274082
 30
0.0
 42
-0.385587
  0
VERTEX
  8
1
  5
116
  6
CONTINUOUS
 62
7
 10
696.479875
 20
211.578169
 30
0.0
  0
VERTEX
  8
1
  5
117
  6
CONTINUOUS
 62
7
 10
696.479875
 20
211.578169
 30
0.0
 42
0.905853
  0
VERTEX
  8
1
  5
118
  6
CONTINUOUS
 62
7
 10
771.114725
 20
211.578169
 30
0.0
  0
VERTEX
  8
1
  5
119
  6
CONTINUOUS
 62
7
 10
771.114725
 20
211.578169
 30
0.0
 42
-0.385587
  0
VERTEX
  8
1
  5
11A
  6
CONTINUOUS
 62
7
 10
775.194764
 20
215.274082
 30
0.0
  0
SEQEND
  8
1
  5
11B
  0
POLYLINE
  8
1
  5
11E
  6
CONTINUOUS
 62
7
 10
0.0
 20
0.0
 30
0.0
 66
1
 70
0
  0
VERTEX
  8
1
  5
11F
  6
CONTINUOUS
 62
7
 10
456.997298
 20
381.233022
 30
0.0
 42
0.058272
  0
VERTEX
  8
1
  5
120
  6
CONTINUOUS
 62
7
 10
455.114911
 20
385.254784
 30
0.0
 42
0.052883
  0
VERTEX
  8
1
  5
121
  6
CONTINUOUS
 62
7
 10
452.255034
 20
388.938137
 30
0.0
 42
0.047411
  0
VERTEX
  8
1
  5
122
  6
CONTINUOUS
 62
7
 10
448.520298
 20
392.150898
 30
0.0
 42
0.042737
  0
VERTEX
  8
1
  5
123
  6
CONTINUOUS
 62
7
 10
444.044732
 20
394.777769
 30
0.0
 42
0.039216
  0
VERTEX
  8
1
  5
124
  6
CONTINUOUS
 62
7
 10
438.98895
 20
396.724482
 30
0.0
 42
0.036909
  0
VERTEX
  8
1
  5
125
  6
CONTINUOUS
 62
7
 10
433.534386
 20
397.921175
 30
0.0
 42
0.035775
  0
VERTEX
  8
1
  5
126
  6
CONTINUOUS
 62
7
 10
427.87679
 20
398.324902
 30
0.0
 42
0.035775
  0
VERTEX
  8
1
  5
127
  6
CONTINUOUS
 62
7
 10
422.219194
 20
397.921175
 30
0.0
 42
0.036909
  0
VERTEX
  8
1
  5
128
  6
CONTINUOUS
 62
7
 10
416.76463
 20
396.724482
 30
0.0
 42
0.039216
  0
VERTEX
  8
1
  5
129
  6
CONTINUOUS
 62
7
 10
411.708848
 20
394.777769
 30
0.0
 42
0.042737
  0
VERTEX
  8
1
  5
12A
  6
CONTINUOUS
 62
7
 10
407.233282
 20
392.150898
 30
0.0
 42
0.047411
  0
VERTEX
  8
1
  5
12B
  6
CONTINUOUS
 62
7
 10
403.498546
 20
388.938137
 30
0.0
 42
0.052883
  0
VERTEX
  8
1
  5
12C
  6
CONTINUOUS
 62
7
 10
400.638669
 20
385.254784
 30
0.0
 42
0.058272
  0
VERTEX
  8
1
  5
12D
  6
CONTINUOUS
 62
7
 10
398.756282
 20
381.233022
 30
0.0
 42
0.058272
  0
SEQEND
  8
1
  5
12E
  0
POLYLINE
  8
1
  5
12F
  6
CONTINUOUS
 62
7
 10
0.0
 20
0.0
 30
0.0
 66
1
 70
0
  0
VERTEX
  8
1
  5
130
  6
CONTINUOUS
 62
7
 10
398.75637
 20
381.232992
 30
0.0
 42
0.512857
  0
VERTEX
  8
1
  5
131
  6
CONTINUOUS
 62
7
 10
402.6421
 20
375.824902
 30
0.0
  0
VERTEX
  8
1
  5
132
  6
CONTINUOUS
 62
7
 10
402.6421
 20
375.8249
 30
0.0
  0
VERTEX
  8
1
  5
133
  6
CONTINUOUS
 62
7
 10
412.07851
 20
375.8249
 30
0.0
  0
VERTEX
  8
1
  5
134
  6
CONTINUOUS
 62
7
 10
412.07851
 20
375.8249
 30
0.0
  0
VERTEX
  8
1
  5
135
  6
CONTINUOUS
 62
7
 10
414.97765
 20
378.72404
 30
0.0
  0
VERTEX
  8
1
  5
136
  6
CONTINUOUS
 62
7
 10
414.977654
 20
378.724042
 30
0.0
 42
-0.999999
  0
VERTEX
  8
1
  5
137
  6
CONTINUOUS
 62
7
 10
420.77593
 20
372.925767
 30
0.0
  0
VERTEX
  8
1
  5
138
  6
CONTINUOUS
 62
7
 10
420.77593
 20
372.92576
 30
0.0
  0
VERTEX
  8
1
  5
139
  6
CONTINUOUS
 62
7
 10
417.87679
 20
370.02662
 30
0.0
  0
VERTEX
  8
1
  5
13A
  6
CONTINUOUS
 62
7
 10
417.87679
 20
370.02662
 30
0.0
  0
VERTEX
  8
1
  5
13B
  6
CONTINUOUS
 62
7
 10
417.87679
 20
366.62318
 30
0.0
  0
VERTEX
  8
1
  5
13C
  6
CONTINUOUS
 62
7
 10
417.87679
 20
366.62318
 30
0.0
  0
VERTEX
  8
1
  5
13D
  6
CONTINUOUS
 62
7
 10
420.77593
 20
363.72404
 30
0.0
  0
VERTEX
  8
1
  5
13E
  6
CONTINUOUS
 62
7
 10
420.77593
 20
363.724038
 30
0.0
 42
-0.999999
  0
VERTEX
  8
1
  5
13F
  6
CONTINUOUS
 62
7
 10
414.977654
 20
357.925762
 30
0.0
  0
VERTEX
  8
1
  5
140
  6
CONTINUOUS
 62
7
 10
414.97765
 20
357.92576
 30
0.0
  0
VERTEX
  8
1
  5
141
  6
CONTINUOUS
 62
7
 10
412.07851
 20
360.8249
 30
0.0
  0
VERTEX
  8
1
  5
142
  6
CONTINUOUS
 62
7
 10
412.07851
 20
360.8249
 30
0.0
  0
VERTEX
  8
1
  5
143
  6
CONTINUOUS
 62
7
 10
402.6421
 20
360.8249
 30
0.0
  0
VERTEX
  8
1
  5
144
  6
CONTINUOUS
 62
7
 10
402.6421
 20
360.824902
 30
0.0
 42
0.512856
  0
VERTEX
  8
1
  5
145
  6
CONTINUOUS
 62
7
 10
398.75637
 20
355.416813
 30
0.0
  0
SEQEND
  8
1
  5
146
  0
POLYLINE
  8
1
  5
148
  6
CONTINUOUS
 62
7
 10
0.0
 20
0.0
 30
0.0
 66
1
 70
0
  0
VERTEX
  8
1
  5
149
  6
CONTINUOUS
 62
7
 10
398.756282
 20
355.416782
 30
0.0
 42
0.058272
  0
VERTEX
  8
1
  5
14A
  6
CONTINUOUS
 62
7
 10
400.638669
 20
351.39502
 30
0.0
 42
0.052883
  0
VERTEX
  8
1
  5
14B
  6
CONTINUOUS
 62
7
 10
403.498546
 20
347.711667
 30
0.0
 42
0.047411
  0
VERTEX
  8
1
  5
14C
  6
CONTINUOUS
 62
7
 10
407.233282
 20
344.498907
 30
0.0
 42
0.042737
  0
VERTEX
  8
1
  5
14D
  6
CONTINUOUS
 62
7
 10
411.708848
 20
341.872035
 30
0.0
 42
0.039216
  0
VERTEX
  8
1
  5
14E
  6
CONTINUOUS
 62
7
 10
416.76463
 20
339.925322
 30
0.0
 42
0.036909
  0
VERTEX
  8
1
  5
14F
  6
CONTINUOUS
 62
7
 10
422.219194
 20
338.728629
 30
0.0
 42
0.035775
  0
VERTEX
  8
1
  5
150
  6
CONTINUOUS
 62
7
 10
427.87679
 20
338.324902
 30
0.0
 42
0.035775
  0
VERTEX
  8
1
  5
151
  6
CONTINUOUS
 62
7
 10
433.534386
 20
338.728629
 30
0.0
 42
0.036909
  0
VERTEX
  8
1
  5
152
  6
CONTINUOUS
 62
7
 10
438.98895
 20
339.925322
 30
0.0
 42
0.039216
  0
VERTEX
  8
1
  5
153
  6
CONTINUOUS
 62
7
 10
444.044732
 20
341.872035
 30
0.0
 42
0.042737
  0
VERTEX
  8
1
  5
154
  6
CONTINUOUS
 62
7
 10
448.520298
 20
344.498907
 30
0.0
 42
0.047411
  0
VERTEX
  8
1
  5
155
  6
CONTINUOUS
 62
7
 10
452.255034
 20
347.711667
 30
0.0
 42
0.052883
  0
VERTEX
  8
1
  5
156
  6
CONTINUOUS
 62
7
 10
455.114911
 20
351.39502
 30
0.0
 42
0.058272
  0
VERTEX
  8
1
  5
157
  6
CONTINUOUS
 62
7
 10
456.997298
 20
355.416782
 30
0.0
 42
0.058272
  0
SEQEND
  8
1
  5
158
  0
POLYLINE
  8
1
  5
159
  6
CONTINUOUS
 62
7
 10
0.0
 20
0.0
 30
0.0
 66
1
 70
0
  0
VERTEX
  8
1
  5
15A
  6
CONTINUOUS
 62
7
 10
456.9973
 20
355.416782
 30
0.0
 42
0.512859
  0
VERTEX
  8
1
  5
15B
  6
CONTINUOUS
 62
7
 10
453.11158
 20
360.824902
 30
0.0
  0
VERTEX
  8
1
  5
15C
  6
CONTINUOUS
 62
7
 10
453.11158
 20
360.8249
 30
0.0
  0
VERTEX
  8
1
  5
15D
  6
CONTINUOUS
 62
7
 10
443.67507
 20
360.8249
 30
0.0
  0
VERTEX
  8
1
  5
15E
  6
CONTINUOUS
 62
7
 10
443.67507
 20
360.8249
 30
0.0
  0
VERTEX
  8
1
  5
15F
  6
CONTINUOUS
 62
7
 10
440.77593
 20
357.92576
 30
0.0
  0
VERTEX
  8
1
  5
160
  6
CONTINUOUS
 62
7
 10
440.775926
 20
357.925762
 30
0.0
 42
-0.999999
  0
VERTEX
  8
1
  5
161
  6
CONTINUOUS
 62
7
 10
434.97765
 20
363.724038
 30
0.0
  0
VERTEX
  8
1
  5
162
  6
CONTINUOUS
 62
7
 10
434.97765
 20
363.72404
 30
0.0
  0
VERTEX
  8
1
  5
163
  6
CONTINUOUS
 62
7
 10
437.87679
 20
366.62318
 30
0.0
  0
VERTEX
  8
1
  5
164
  6
CONTINUOUS
 62
7
 10
437.87679
 20
366.62318
 30
0.0
  0
VERTEX
  8
1
  5
165
  6
CONTINUOUS
 62
7
 10
437.87679
 20
370.02662
 30
0.0
  0
VERTEX
  8
1
  5
166
  6
CONTINUOUS
 62
7
 10
437.87679
 20
370.02662
 30
0.0
  0
VERTEX
  8
1
  5
167
  6
CONTINUOUS
 62
7
 10
434.97765
 20
372.92576
 30
0.0
  0
VERTEX
  8
1
  5
168
  6
CONTINUOUS
 62
7
 10
434.97765
 20
372.925767
 30
0.0
 42
-0.999999
  0
VERTEX
  8
1
  5
169
  6
CONTINUOUS
 62
7
 10
440.775926
 20
378.724042
 30
0.0
  0
VERTEX
  8
1
  5
16A
  6
CONTINUOUS
 62
7
 10
440.77593
 20
378.72404
 30
0.0
  0
VERTEX
  8
1
  5
16B
  6
CONTINUOUS
 62
7
 10
443.67507
 20
375.8249
 30
0.0
  0
VERTEX
  8
1
  5
16C
  6
CONTINUOUS
 62
7
 10
443.67507
 20
375.8249
 30
0.0
  0
VERTEX
  8
1
  5
16D
  6
CONTINUOUS
 62
7
 10
453.11158
 20
375.8249
 30
0.0
  0
VERTEX
  8
1
  5
16E
  6
CONTINUOUS
 62
7
 10
453.11158
 20
375.824902
 30
0.0
 42
0.512867
  0
VERTEX
  8
1
  5
16F
  6
CONTINUOUS
 62
7
 10
456.997268
 20
381.233117
 30
0.0
  0
VERTEX
  8
1
  5
170
  6
CONTINUOUS
 62
7
 10
456.99727
 20
381.23311
 30
0.0
  0
VERTEX
  8
1
  5
171
  6
CONTINUOUS
 62
7
 10
456.9973
 20
381.23302
 30
0.0
  0
SEQEND
  8
1
  5
172
  0
ENDSEC
  0
EOF
