  0
SECTION
  2
HEADER
  9
$ACADVER
  1
AC1006
  9
$INSBASE
 10
0.0
 20
0.0
 30
0.0
  9
$EXTMAX
 10
275.0
 20
-30.00049
  9
$EXTMIN
 10
50.0015
 20
-255.00049
  9
$LIMMAX
 10
12.0
 20
9.0
  9
$LIMMIN
 10
0.0
 20
0.0
  9
$ORTHOMODE
 70
0
  9
$REGENMODE
 70
1
  9
$FILLMODE
 70
1
  9
$QTEXTMODE
 70
0
  9
$MIRRTEXT
 70
1
  9
$DRAGMODE
 70
2
  9
$LTSCALE
 40
1.0
  9
$OSMODE
 70
0
  9
$ATTMODE
 70
1
  9
$TEXTSIZE
 40
0.2
  9
$TRACEWID
 40
0.05
  9
$TEXTSTYLE
  7
STANDARD
  9
$CLAYER
  8
0
  9
$CELTYPE
  6
CONTINUOUS
  9
$CECOLOR
 62
256
  9
$DIMSCALE
 40
1.0
  9
$DIMASZ
 40
0.18
  9
$DIMEXO
 40
0.0625
  9
$DIMDLI
 40
0.38
  9
$DIMRND
 40
0.0
  9
$DIMDLE
 40
0.0
  9
$DIMEXE
 40
0.18
  9
$DIMTP
 40
0.0
  9
$DIMTM
 40
0.0
  9
$DIMTXT
 40
0.18
  9
$DIMCEN
 40
0.09
  9
$DIMTSZ
 40
0.0
  9
$DIMTOL
 70
0
  9
$DIMLIM
 70
0
  9
$DIMTIH
 70
1
  9
$DIMTOH
 70
1
  9
$DIMSE1
 70
0
  9
$DIMSE2
 70
0
  9
$DIMTAD
 70
0
  9
$DIMZIN
 70
0
  9
$DIMBLK
  1

  9
$DIMASO
 70
1
  9
$DIMSHO
 70
1
  9
$DIMPOST
  1

  9
$DIMAPOST
  1

  9
$DIMALT
 70
0
  9
$DIMALTD
 70
2
  9
$DIMALTF
 40
25.4
  9
$DIMLFAC
 40
1.0
  9
$DIMTOFL
 70
0
  9
$DIMTVP
 40
0.0
  9
$DIMTIX
 70
0
  9
$DIMSOXD
 70
0
  9
$DIMSAH
 70
0
  9
$DIMBLK1
  1

  9
$DIMBLK2
  1

  9
$LUNITS
 70
2
  9
$LUPREC
 70
4
  9
$AXISMODE
 70
0
  9
$AXISUNIT
 10
0.0
 20
0.0
  9
$SKETCHINC
 40
0.1
  9
$FILLETRAD
 40
0.0
  9
$AUNITS
 70
0
  9
$AUPREC
 70
0
  9
$MENU
  1
acad
  9
$ELEVATION
 40
0.0
  9
$THICKNESS
 40
0.0
  9
$LIMCHECK
 70
0
  9
$BLIPMODE
 70
1
  9
$CHAMFERA
 40
0.0
  9
$CHAMFERB
 40
0.0
  9
$SKPOLY
 70
0
  9
$TDCREATE
 40
0.0
  9
$TDUPDATE
 40
0.0
  9
$TDINDWG
 40
0.0
  9
$TDUSRTIMER
 40
0.0
  9
$USRTIMER
 70
1
  9
$ANGBASE
 50
0.0
  9
$ANGDIR
 70
0
  9
$PDMODE
 70
0
  9
$PDSIZE
 40
0.0
  9
$PLINEWID
 40
0.0
  9
$COORDS
 70
0
  9
$SPLFRAME
 70
0
  9
$SPLINETYPE
 70
6
  9
$SPLINESEGS
 70
10
  9
$ATTDIA
 70
0
  9
$ATTREQ
 70
1
  9
$HANDLING
 70
1
  9
$HANDSEED
  5
A4
  9
$SURFTAB1
 70
6
  9
$SURFTAB2
 70
6
  9
$SURFTYPE
 70
6
  9
$SURFU
 70
10
  9
$SURFV
 70
10
  9
$FLATLAND
 70
0
  9
$UCSNAME
  2

  9
$UCSORG
 10
0.0
 20
0.0
 30
0.0
  9
$UCSXDIR
 10
1.0
 20
0.0
 30
0.0
  9
$UCSYDIR
 10
0.0
 20
1.0
 30
0.0
  9
$USERI1
 70
0
  9
$USERI2
 70
0
  9
$USERI3
 70
0
  9
$USERI4
 70
0
  9
$USERI5
 70
0
  9
$USERR1
 40
0.0
  9
$USERR2
 40
0.0
  9
$USERR3
 40
0.0
  9
$USERR4
 40
0.0
  9
$USERR5
 40
0.0
  9
$WORLDVIEW
 70
1
  0
ENDSEC
  0
SECTION
  2
TABLES
  0
TABLE
  2
LTYPE
 70
7
  0
LTYPE
  2
CONTINUOUS
 70
64
  3
Solid line
 72
65
 73
0
 40
0.0
  0
LTYPE
  2
DOT
 70
64
  3
. . . . . . . . . . . . . . . . . . . . . . . . . . . . . . . . .
 72
65
 73
2
 40
0.25
 49
0.0
 49
-0.25
  0
LTYPE
  2
HIDDEN
 70
64
  3
__ __ __ __ __ __ __ __ __ __ __ __ __ __ __ __ __ __ __ __ __ 
 72
65
 73
2
 40
0.375
 49
0.25
 49
-0.125
  0
LTYPE
  2
DASHED
 70
64
  3
__ __ __ __ __ __ __ __ __ __ __ __ __ __ __ __ __ __ __ __ __
 72
65
 73
2
 40
0.75
 49
0.5
 49
-0.25
  0
LTYPE
  2
DASHDOT
 70
64
  3
__ . __ . __ . __ . __ . __ . __ . __ . __ . __ . __ . __ . _
 72
65
 73
4
 40
1.0
 49
0.5
 49
-0.25
 49
0.0
 49
-0.25
  0
LTYPE
  2
DIVIDE
 70
64
  3
____ . . ____ . . ____ . . ____ . . ____ . . ____ . . ____ . .
 72
65
 73
6
 40
1.25
 49
0.5
 49
-0.25
 49
0.0
 49
-0.25
 49
0.0
 49
-0.25
  0
LTYPE
  2
CENTER
 70
64
  3
____ _ ____ _ ____ _ ____ _ ____ _ ____ _ ____ _ ____ _ ____ _
 72
65
 73
4
 40
2.0
 49
1.25
 49
-0.25
 49
0.25
 49
-0.25
  0
ENDTAB
  0
TABLE
  2
LAYER
 70
4
  0
LAYER
  2
0
 70
0
 62
7
  6
CONTINUOUS
  0
LAYER
  2
CONSTRUCTION_CLASS
 70
0
 62
7
  6
CONTINUOUS
  0
LAYER
  2
PATTERN_CLASS
 70
0
 62
7
  6
CONTINUOUS
  0
LAYER
  2
1
 70
0
 62
7
  6
CONTINUOUS
  0
ENDTAB
  0
TABLE
  2
STYLE
 70
1
  0
STYLE
  2
STANDARD
 70
0
 40
0.2
 41
1.0
 50
0.0
 71
0
 42
0.0
  3
txt
  4

  0
ENDTAB
  0
TABLE
  2
UCS
 70
0
  0
ENDTAB
  0
TABLE
  2
VIEW
 70
0
  0
ENDTAB
  0
TABLE
  2
VPORT
 70
1
  0
VPORT
  2
*ACTIVE
 70
0
 10
0.0
 20
0.0
 11
1.0
 21
1.0
 12
0.0
 22
0.0
 13
0.0
 23
0.0
 14
0.0
 24
0.0
 15
0.0
 25
0.0
 16
0.0
 26
0.0
 36
1.0
 17
133.987395
 27
-142.841895
 37
0.0
 40
233.89107
 41
1.356745
 42
50.0
 43
0.00004
 44
0.0
 50
0.0
 51
0.0
 71
0
 72
100
 73
1
 74
0
 75
0
 76
0
 77
0
 78
0
  0
ENDTAB
  0
ENDSEC
  0
SECTION
  2
BLOCKS
  0
ENDSEC
  0
SECTION
  2
ENTITIES
  0
LINE
  8
1
  5
2
  6
CONTINUOUS
 62
7
 10
146.9
 20
-63.33333
 30
0.0
 11
118.33333
 21
-63.33333
 31
0.0
  0
ARC
  8
1
  5
4
  6
CONTINUOUS
 62
7
 10
146.9
 20
-59.233333
 30
0.0
 40
4.1
 50
269.9999944444
 51
0.0
  0
LINE
  8
1
  5
6
  6
CONTINUOUS
 62
7
 10
151.0
 20
-50.76667
 30
0.0
 11
151.0
 21
-59.23333
 31
0.0
  0
ARC
  8
1
  5
8
  6
CONTINUOUS
 62
7
 10
146.9
 20
-50.766667
 30
0.0
 40
4.1
 50
0.0
 51
90.0000055556
  0
LINE
  8
1
  5
A
  6
CONTINUOUS
 62
7
 10
101.66667
 20
-46.66667
 30
0.0
 11
146.9
 21
-46.66667
 31
0.0
  0
LINE
  8
1
  5
C
  6
CONTINUOUS
 62
7
 10
118.33333
 20
-63.33382
 30
0.0
 11
101.66667
 21
-46.66716
 31
0.0
  0
LINE
  8
1
  5
E
  6
CONTINUOUS
 62
7
 10
135.0
 20
-80.00049
 30
0.0
 11
118.33333
 21
-63.33382
 31
0.0
  0
LINE
  8
1
  5
10
  6
CONTINUOUS
 62
7
 10
155.1
 20
-80.00049
 30
0.0
 11
135.0
 21
-80.00049
 31
0.0
  0
LINE
  8
1
  5
12
  6
CONTINUOUS
 62
7
 10
85.0
 20
-30.00049
 30
0.0
 11
155.1
 21
-30.00049
 31
0.0
  0
LINE
  8
1
  5
14
  6
CONTINUOUS
 62
7
 10
101.66667
 20
-46.66716
 30
0.0
 11
85.0
 21
-30.00049
 31
0.0
  0
LINE
  8
1
  5
16
  6
CONTINUOUS
 62
7
 10
155.1
 20
-68.74322
 30
0.0
 11
155.1
 21
-80.00049
 31
0.0
  0
LINE
  8
1
  5
18
  6
CONTINUOUS
 62
7
 10
155.1
 20
-30.00049
 30
0.0
 11
155.1
 21
-41.35678
 31
0.0
  0
ARC
  8
1
  5
1A
  6
CONTINUOUS
 62
7
 10
159.2
 20
-68.743224
 30
0.0
 40
4.1
 50
74.9999722222
 51
180.0
  0
LINE
  8
1
  5
1C
  6
CONTINUOUS
 62
7
 10
169.93884
 20
-67.37606
 30
0.0
 11
160.26116
 21
-64.78293
 31
0.0
  0
ARC
  8
1
  5
1E
  6
CONTINUOUS
 62
7
 10
171.0
 20
-63.41576
 30
0.0
 40
4.1
 50
255.0000083333
 51
0.0
  0
LINE
  8
1
  5
20
  6
CONTINUOUS
 62
7
 10
175.1
 20
-46.68424
 30
0.0
 11
175.1
 21
-63.41576
 31
0.0
  0
ARC
  8
1
  5
22
  6
CONTINUOUS
 62
7
 10
171.0
 20
-46.68424
 30
0.0
 40
4.1
 50
0.0
 51
104.9999916667
  0
LINE
  8
1
  5
24
  6
CONTINUOUS
 62
7
 10
160.26116
 20
-45.31707
 30
0.0
 11
169.93884
 21
-42.72394
 31
0.0
  0
ARC
  8
1
  5
26
  6
CONTINUOUS
 62
7
 10
159.2
 20
-41.356776
 30
0.0
 40
4.1
 50
180.0
 51
285.0000277778
  0
LINE
  8
1
  5
28
  6
CONTINUOUS
 62
7
 10
275.0
 20
-80.00049
 30
0.0
 11
155.1
 21
-80.00049
 31
0.0
  0
LINE
  8
1
  5
2A
  6
CONTINUOUS
 62
7
 10
275.0
 20
-30.00049
 30
0.0
 11
275.0
 21
-80.00049
 31
0.0
  0
LINE
  8
1
  5
2C
  6
CONTINUOUS
 62
7
 10
155.1
 20
-30.00049
 30
0.0
 11
275.0
 21
-30.00049
 31
0.0
  0
ARC
  8
1
  5
2E
  6
CONTINUOUS
 62
7
 10
70.766667
 20
-126.9
 30
0.0
 40
4.1
 50
179.9999944444
 51
270.0
  0
LINE
  8
1
  5
30
  6
CONTINUOUS
 62
7
 10
79.23333
 20
-131.0
 30
0.0
 11
70.76667
 21
-131.0
 31
0.0
  0
ARC
  8
1
  5
32
  6
CONTINUOUS
 62
7
 10
79.233333
 20
-126.9
 30
0.0
 40
4.1
 50
270.0
 51
0.0000055556
  0
LINE
  8
1
  5
34
  6
CONTINUOUS
 62
7
 10
83.33333
 20
-98.33333
 30
0.0
 11
83.33333
 21
-126.9
 31
0.0
  0
LINE
  8
1
  5
36
  6
CONTINUOUS
 62
7
 10
66.66667
 20
-126.9
 30
0.0
 11
66.66667
 21
-81.66667
 31
0.0
  0
LINE
  8
1
  5
38
  6
CONTINUOUS
 62
7
 10
66.66768
 20
-81.66667
 30
0.0
 11
83.33434
 21
-98.33333
 31
0.0
  0
LINE
  8
1
  5
3A
  6
CONTINUOUS
 62
7
 10
50.0015
 20
-65.00049
 30
0.0
 11
66.66768
 21
-81.66667
 31
0.0
  0
LINE
  8
1
  5
3C
  6
CONTINUOUS
 62
7
 10
50.0015
 20
-135.1
 30
0.0
 11
50.0015
 21
-65.00049
 31
0.0
  0
LINE
  8
1
  5
3E
  6
CONTINUOUS
 62
7
 10
100.0015
 20
-115.00049
 30
0.0
 11
100.0015
 21
-135.1
 31
0.0
  0
LINE
  8
1
  5
40
  6
CONTINUOUS
 62
7
 10
83.33434
 20
-98.33333
 30
0.0
 11
100.0015
 21
-115.00049
 31
0.0
  0
LINE
  8
1
  5
42
  6
CONTINUOUS
 62
7
 10
61.35678
 20
-135.1
 30
0.0
 11
50.0015
 21
-135.1
 31
0.0
  0
LINE
  8
1
  5
44
  6
CONTINUOUS
 62
7
 10
62.72395
 20
-149.93884
 30
0.0
 11
65.31707
 21
-140.26116
 31
0.0
  0
ARC
  8
1
  5
46
  6
CONTINUOUS
 62
7
 10
66.684244
 20
-151.0
 30
0.0
 40
4.1
 50
165.0000305556
 51
270.0003972222
  0
LINE
  8
1
  5
48
  6
CONTINUOUS
 62
7
 10
83.41576
 20
-155.1
 30
0.0
 11
66.68424
 21
-155.1
 31
0.0
  0
ARC
  8
1
  5
4A
  6
CONTINUOUS
 62
7
 10
83.415763
 20
-151.0
 30
0.0
 40
4.1
 50
270.0
 51
15.0000111111
  0
LINE
  8
1
  5
4C
  6
CONTINUOUS
 62
7
 10
84.78293
 20
-140.26116
 30
0.0
 11
87.37606
 21
-149.93884
 31
0.0
  0
ARC
  8
1
  5
4E
  6
CONTINUOUS
 62
7
 10
88.743225
 20
-139.2
 30
0.0
 40
4.1
 50
90.0
 51
195.0000194444
  0
LINE
  8
1
  5
50
  6
CONTINUOUS
 62
7
 10
100.0015
 20
-135.1
 30
0.0
 11
88.74323
 21
-135.1
 31
0.0
  0
ARC
  8
1
  5
52
  6
CONTINUOUS
 62
7
 10
61.356777
 20
-139.2
 30
0.0
 40
4.1
 50
345.0000222222
 51
90.0
  0
LINE
  8
1
  5
54
  6
CONTINUOUS
 62
7
 10
50.0015
 20
-255.00049
 30
0.0
 11
50.0015
 21
-135.1
 31
0.0
  0
LINE
  8
1
  5
56
  6
CONTINUOUS
 62
7
 10
100.0015
 20
-135.1
 30
0.0
 11
100.0015
 21
-255.00049
 31
0.0
  0
LINE
  8
1
  5
58
  6
CONTINUOUS
 62
7
 10
50.0015
 20
-255.00049
 30
0.0
 11
100.0015
 21
-255.00049
 31
0.0
  0
LINE
  8
1
  5
5A
  6
CONTINUOUS
 62
7
 10
172.50429
 20
-212.44838
 30
0.0
 11
169.91117
 21
-222.12606
 31
0.0
  0
ARC
  8
1
  5
5C
  6
CONTINUOUS
 62
7
 10
173.871464
 20
-223.18722
 30
0.0
 40
4.1
 50
165.0000305556
 51
270.0003972222
  0
LINE
  8
1
  5
5E
  6
CONTINUOUS
 62
7
 10
173.87146
 20
-227.28722
 30
0.0
 11
190.60298
 21
-227.28722
 31
0.0
  0
ARC
  8
1
  5
60
  6
CONTINUOUS
 62
7
 10
190.602983
 20
-223.18722
 30
0.0
 40
4.1
 50
270.0
 51
15.0000111111
  0
LINE
  8
1
  5
62
  6
CONTINUOUS
 62
7
 10
194.56328
 20
-222.12606
 30
0.0
 11
191.97015
 21
-212.44838
 31
0.0
  0
ARC
  8
1
  5
64
  6
CONTINUOUS
 62
7
 10
195.930445
 20
-211.38722
 30
0.0
 40
4.1
 50
90.0
 51
195.0000194444
  0
LINE
  8
1
  5
66
  6
CONTINUOUS
 62
7
 10
195.93045
 20
-207.28722
 30
0.0
 11
207.28722
 21
-207.28722
 31
0.0
  0
LINE
  8
1
  5
68
  6
CONTINUOUS
 62
7
 10
207.28722
 20
-207.28722
 30
0.0
 11
207.28722
 21
-191.38722
 31
0.0
  0
ARC
  8
1
  5
6A
  6
CONTINUOUS
 62
7
 10
211.38722
 20
-191.38722
 30
0.0
 40
4.1
 50
90.0
 51
180.0
  0
LINE
  8
1
  5
6C
  6
CONTINUOUS
 62
7
 10
211.38722
 20
-187.28722
 30
0.0
 11
227.28722
 21
-187.28722
 31
0.0
  0
LINE
  8
1
  5
6E
  6
CONTINUOUS
 62
7
 10
227.28722
 20
-187.28722
 30
0.0
 11
227.28722
 21
-175.93044
 31
0.0
  0
ARC
  8
1
  5
70
  6
CONTINUOUS
 62
7
 10
231.38722
 20
-175.930444
 30
0.0
 40
4.1
 50
74.9999722222
 51
180.0
  0
LINE
  8
1
  5
72
  6
CONTINUOUS
 62
7
 10
232.44838
 20
-171.97015
 30
0.0
 11
242.12606
 21
-174.56328
 31
0.0
  0
ARC
  8
1
  5
74
  6
CONTINUOUS
 62
7
 10
243.18722
 20
-170.60298
 30
0.0
 40
4.1
 50
255.0000083333
 51
5.0888874903E-014
  0
LINE
  8
1
  5
76
  6
CONTINUOUS
 62
7
 10
247.28722
 20
-170.60298
 30
0.0
 11
247.28722
 21
-153.87146
 31
0.0
  0
ARC
  8
1
  5
78
  6
CONTINUOUS
 62
7
 10
243.18722
 20
-153.87146
 30
0.0
 40
4.1
 50
0.0
 51
104.9999916667
  0
LINE
  8
1
  5
7A
  6
CONTINUOUS
 62
7
 10
242.12606
 20
-149.91116
 30
0.0
 11
232.44838
 21
-152.50429
 31
0.0
  0
ARC
  8
1
  5
7C
  6
CONTINUOUS
 62
7
 10
231.38722
 20
-148.543996
 30
0.0
 40
4.1
 50
180.0
 51
285.0000277778
  0
LINE
  8
1
  5
7E
  6
CONTINUOUS
 62
7
 10
227.28722
 20
-148.544
 30
0.0
 11
227.28722
 21
-137.18722
 31
0.0
  0
LINE
  8
1
  5
80
  6
CONTINUOUS
 62
7
 10
227.28722
 20
-137.18722
 30
0.0
 11
157.18722
 21
-137.18722
 31
0.0
  0
LINE
  8
1
  5
82
  6
CONTINUOUS
 62
7
 10
157.18722
 20
-137.18722
 30
0.0
 11
157.18722
 21
-207.28722
 31
0.0
  0
LINE
  8
1
  5
84
  6
CONTINUOUS
 62
7
 10
157.18722
 20
-207.28722
 30
0.0
 11
168.544
 21
-207.28722
 31
0.0
  0
ARC
  8
1
  5
86
  6
CONTINUOUS
 62
7
 10
168.543997
 20
-211.38722
 30
0.0
 40
4.1
 50
345.0000222222
 51
90.0
  0
ARC
  8
1
  5
88
  6
CONTINUOUS
 62
7
 10
190.520563
 20
-170.521033
 30
0.0
 40
4.1
 50
45.0000416667
 51
224.9999555556
  0
LINE
  8
1
  5
8A
  6
CONTINUOUS
 62
7
 10
193.4197
 20
-167.62189
 30
0.0
 11
196.31884
 21
-170.52103
 31
0.0
  0
LINE
  8
1
  5
8C
  6
CONTINUOUS
 62
7
 10
196.31884
 20
-170.52103
 30
0.0
 11
219.08723
 21
-170.52103
 31
0.0
  0
ARC
  8
1
  5
8E
  6
CONTINUOUS
 62
7
 10
219.08723
 20
-166.421033
 30
0.0
 40
4.1
 50
269.9999916667
 51
5.0888874903E-014
  0
LINE
  8
1
  5
90
  6
CONTINUOUS
 62
7
 10
223.18723
 20
-166.42103
 30
0.0
 11
223.18723
 21
-157.95437
 31
0.0
  0
ARC
  8
1
  5
92
  6
CONTINUOUS
 62
7
 10
219.08723
 20
-157.954367
 30
0.0
 40
4.1
 50
0.0
 51
90.0
  0
LINE
  8
1
  5
94
  6
CONTINUOUS
 62
7
 10
219.08723
 20
-153.85437
 30
0.0
 11
177.9539
 21
-153.85437
 31
0.0
  0
ARC
  8
1
  5
96
  6
CONTINUOUS
 62
7
 10
177.953897
 20
-157.954367
 30
0.0
 40
4.1
 50
90.0
 51
180.0
  0
LINE
  8
1
  5
98
  6
CONTINUOUS
 62
7
 10
173.8539
 20
-157.95437
 30
0.0
 11
173.8539
 21
-199.0877
 31
0.0
  0
ARC
  8
1
  5
9A
  6
CONTINUOUS
 62
7
 10
177.953897
 20
-199.0877
 30
0.0
 40
4.1
 50
180.0
 51
270.0
  0
LINE
  8
1
  5
9C
  6
CONTINUOUS
 62
7
 10
177.9539
 20
-203.1877
 30
0.0
 11
186.42056
 21
-203.1877
 31
0.0
  0
ARC
  8
1
  5
9E
  6
CONTINUOUS
 62
7
 10
186.420563
 20
-199.0877
 30
0.0
 40
4.1
 50
270.0
 51
0.0000083333
  0
LINE
  8
1
  5
A0
  6
CONTINUOUS
 62
7
 10
190.52056
 20
-199.0877
 30
0.0
 11
190.52056
 21
-176.31931
 31
0.0
  0
LINE
  8
1
  5
A2
  6
CONTINUOUS
 62
7
 10
190.52056
 20
-176.31931
 30
0.0
 11
187.62142
 21
-173.42017
 31
0.0
  0
ENDSEC
  0
EOF
