  0
SECTION
  2
HEADER
  9
$ACADVER
  1
AC1006
  9
$INSBASE
 10
0.0
 20
0.0
 30
0.0
  9
$EXTMAX
 10
52.28462
 20
93.28443
  9
$EXTMIN
 10
-194.28392
 20
-153.28412
  9
$LIMMAX
 10
12.0
 20
9.0
  9
$LIMMIN
 10
0.0
 20
0.0
  9
$ORTHOMODE
 70
0
  9
$REGENMODE
 70
1
  9
$FILLMODE
 70
1
  9
$QTEXTMODE
 70
0
  9
$MIRRTEXT
 70
1
  9
$DRAGMODE
 70
2
  9
$LTSCALE
 40
1.0
  9
$OSMODE
 70
0
  9
$ATTMODE
 70
1
  9
$TEXTSIZE
 40
0.2
  9
$TRACEWID
 40
0.05
  9
$TEXTSTYLE
  7
STANDARD
  9
$CLAYER
  8
0
  9
$CELTYPE
  6
CONTINUOUS
  9
$CECOLOR
 62
256
  9
$DIMSCALE
 40
1.0
  9
$DIMASZ
 40
0.18
  9
$DIMEXO
 40
0.0625
  9
$DIMDLI
 40
0.38
  9
$DIMRND
 40
0.0
  9
$DIMDLE
 40
0.0
  9
$DIMEXE
 40
0.18
  9
$DIMTP
 40
0.0
  9
$DIMTM
 40
0.0
  9
$DIMTXT
 40
0.18
  9
$DIMCEN
 40
0.09
  9
$DIMTSZ
 40
0.0
  9
$DIMTOL
 70
0
  9
$DIMLIM
 70
0
  9
$DIMTIH
 70
1
  9
$DIMTOH
 70
1
  9
$DIMSE1
 70
0
  9
$DIMSE2
 70
0
  9
$DIMTAD
 70
0
  9
$DIMZIN
 70
0
  9
$DIMBLK
  1

  9
$DIMASO
 70
1
  9
$DIMSHO
 70
1
  9
$DIMPOST
  1

  9
$DIMAPOST
  1

  9
$DIMALT
 70
0
  9
$DIMALTD
 70
2
  9
$DIMALTF
 40
25.4
  9
$DIMLFAC
 40
1.0
  9
$DIMTOFL
 70
0
  9
$DIMTVP
 40
0.0
  9
$DIMTIX
 70
0
  9
$DIMSOXD
 70
0
  9
$DIMSAH
 70
0
  9
$DIMBLK1
  1

  9
$DIMBLK2
  1

  9
$LUNITS
 70
2
  9
$LUPREC
 70
4
  9
$AXISMODE
 70
0
  9
$AXISUNIT
 10
0.0
 20
0.0
  9
$SKETCHINC
 40
0.1
  9
$FILLETRAD
 40
0.0
  9
$AUNITS
 70
0
  9
$AUPREC
 70
0
  9
$MENU
  1
acad
  9
$ELEVATION
 40
0.0
  9
$THICKNESS
 40
0.0
  9
$LIMCHECK
 70
0
  9
$BLIPMODE
 70
1
  9
$CHAMFERA
 40
0.0
  9
$CHAMFERB
 40
0.0
  9
$SKPOLY
 70
0
  9
$TDCREATE
 40
0.0
  9
$TDUPDATE
 40
0.0
  9
$TDINDWG
 40
0.0
  9
$TDUSRTIMER
 40
0.0
  9
$USRTIMER
 70
1
  9
$ANGBASE
 50
0.0
  9
$ANGDIR
 70
0
  9
$PDMODE
 70
0
  9
$PDSIZE
 40
0.0
  9
$PLINEWID
 40
0.0
  9
$COORDS
 70
0
  9
$SPLFRAME
 70
0
  9
$SPLINETYPE
 70
6
  9
$SPLINESEGS
 70
10
  9
$ATTDIA
 70
0
  9
$ATTREQ
 70
1
  9
$HANDLING
 70
1
  9
$HANDSEED
  5
5B
  9
$SURFTAB1
 70
6
  9
$SURFTAB2
 70
6
  9
$SURFTYPE
 70
6
  9
$SURFU
 70
10
  9
$SURFV
 70
10
  9
$FLATLAND
 70
0
  9
$UCSNAME
  2

  9
$UCSORG
 10
0.0
 20
0.0
 30
0.0
  9
$UCSXDIR
 10
1.0
 20
0.0
 30
0.0
  9
$UCSYDIR
 10
0.0
 20
1.0
 30
0.0
  9
$USERI1
 70
0
  9
$USERI2
 70
0
  9
$USERI3
 70
0
  9
$USERI4
 70
0
  9
$USERI5
 70
0
  9
$USERR1
 40
0.0
  9
$USERR2
 40
0.0
  9
$USERR3
 40
0.0
  9
$USERR4
 40
0.0
  9
$USERR5
 40
0.0
  9
$WORLDVIEW
 70
1
  0
ENDSEC
  0
SECTION
  2
TABLES
  0
TABLE
  2
LTYPE
 70
7
  0
LTYPE
  2
CONTINUOUS
 70
64
  3
Solid line
 72
65
 73
0
 40
0.0
  0
LTYPE
  2
DOT
 70
64
  3
. . . . . . . . . . . . . . . . . . . . . . . . . . . . . . . . .
 72
65
 73
2
 40
0.25
 49
0.0
 49
-0.25
  0
LTYPE
  2
HIDDEN
 70
64
  3
__ __ __ __ __ __ __ __ __ __ __ __ __ __ __ __ __ __ __ __ __ 
 72
65
 73
2
 40
0.375
 49
0.25
 49
-0.125
  0
LTYPE
  2
DASHED
 70
64
  3
__ __ __ __ __ __ __ __ __ __ __ __ __ __ __ __ __ __ __ __ __
 72
65
 73
2
 40
0.75
 49
0.5
 49
-0.25
  0
LTYPE
  2
DASHDOT
 70
64
  3
__ . __ . __ . __ . __ . __ . __ . __ . __ . __ . __ . __ . _
 72
65
 73
4
 40
1.0
 49
0.5
 49
-0.25
 49
0.0
 49
-0.25
  0
LTYPE
  2
DIVIDE
 70
64
  3
____ . . ____ . . ____ . . ____ . . ____ . . ____ . . ____ . .
 72
65
 73
6
 40
1.25
 49
0.5
 49
-0.25
 49
0.0
 49
-0.25
 49
0.0
 49
-0.25
  0
LTYPE
  2
CENTER
 70
64
  3
____ _ ____ _ ____ _ ____ _ ____ _ ____ _ ____ _ ____ _ ____ _
 72
65
 73
4
 40
2.0
 49
1.25
 49
-0.25
 49
0.25
 49
-0.25
  0
ENDTAB
  0
TABLE
  2
LAYER
 70
4
  0
LAYER
  2
0
 70
0
 62
7
  6
CONTINUOUS
  0
LAYER
  2
CONSTRUCTION_CLASS
 70
0
 62
7
  6
CONTINUOUS
  0
LAYER
  2
PATTERN_CLASS
 70
0
 62
7
  6
CONTINUOUS
  0
LAYER
  2
1
 70
0
 62
7
  6
CONTINUOUS
  0
ENDTAB
  0
TABLE
  2
STYLE
 70
1
  0
STYLE
  2
STANDARD
 70
0
 40
0.2
 41
1.0
 50
0.0
 71
0
 42
0.0
  3
txt
  4

  0
ENDTAB
  0
TABLE
  2
UCS
 70
0
  0
ENDTAB
  0
TABLE
  2
VIEW
 70
0
  0
ENDTAB
  0
TABLE
  2
VPORT
 70
1
  0
VPORT
  2
*ACTIVE
 70
0
 10
0.0
 20
0.0
 11
1.0
 21
1.0
 12
0.0
 22
0.0
 13
0.0
 23
0.0
 14
0.0
 24
0.0
 15
0.0
 25
0.0
 16
0.0
 26
0.0
 36
1.0
 17
-90.251996
 27
-28.69234
 37
0.0
 40
255.34778
 41
1.356745
 42
50.0
 43
0.00004
 44
0.0
 50
0.0
 51
0.0
 71
0
 72
100
 73
1
 74
0
 75
0
 76
0
 77
0
 78
0
  0
ENDTAB
  0
ENDSEC
  0
SECTION
  2
BLOCKS
  0
ENDSEC
  0
SECTION
  2
ENTITIES
  0
POLYLINE
  8
1
  5
2
  6
CONTINUOUS
 62
7
 10
0.0
 20
0.0
 30
0.0
 66
1
 70
1
  0
VERTEX
  8
1
  5
3
  6
CONTINUOUS
 62
7
 10
-194.28392
 20
36.71588
 30
0.0
  0
VERTEX
  8
1
  5
4
  6
CONTINUOUS
 62
7
 10
-194.28392
 20
-153.28412
 30
0.0
  0
VERTEX
  8
1
  5
5
  6
CONTINUOUS
 62
7
 10
-194.28392
 20
-153.28412
 30
0.0
  0
VERTEX
  8
1
  5
6
  6
CONTINUOUS
 62
7
 10
-144.28392
 20
-153.28412
 30
0.0
  0
VERTEX
  8
1
  5
7
  6
CONTINUOUS
 62
7
 10
-144.28392
 20
-153.28412
 30
0.0
  0
VERTEX
  8
1
  5
8
  6
CONTINUOUS
 62
7
 10
-144.28392
 20
-13.28412
 30
0.0
  0
VERTEX
  8
1
  5
9
  6
CONTINUOUS
 62
7
 10
-144.28392
 20
-13.28412
 30
0.0
  0
VERTEX
  8
1
  5
A
  6
CONTINUOUS
 62
7
 10
-151.35499
 20
-6.21305
 30
0.0
  0
VERTEX
  8
1
  5
B
  6
CONTINUOUS
 62
7
 10
-151.35501
 20
-6.21303
 30
0.0
  0
VERTEX
  8
1
  5
C
  6
CONTINUOUS
 62
7
 10
-159.96831
 20
2.40027
 30
0.0
  0
VERTEX
  8
1
  5
D
  6
CONTINUOUS
 62
7
 10
-159.96831
 20
2.40027
 30
0.0
  0
SEQEND
  8
1
  5
E
  0
POLYLINE
  8
1
  5
10
  6
CONTINUOUS
 62
7
 10
0.0
 20
0.0
 30
0.0
 66
1
 70
0
  0
VERTEX
  8
1
  5
11
  6
CONTINUOUS
 62
7
 10
-159.968309
 20
2.400269
 30
0.0
 42
-0.065543
  0
VERTEX
  8
1
  5
12
  6
CONTINUOUS
 62
7
 10
-161.666584
 20
1.097136
 30
0.0
  0
VERTEX
  8
1
  5
13
  6
CONTINUOUS
 62
7
 10
-161.66658
 20
1.09714
 30
0.0
  0
VERTEX
  8
1
  5
14
  6
CONTINUOUS
 62
7
 10
-177.55079
 20
-8.07361
 30
0.0
  0
VERTEX
  8
1
  5
15
  6
CONTINUOUS
 62
7
 10
-177.550786
 20
-8.073612
 30
0.0
 42
0.493145
  0
VERTEX
  8
1
  5
16
  6
CONTINUOUS
 62
7
 10
-178.399924
 20
-14.523455
 30
0.0
  0
VERTEX
  8
1
  5
17
  6
CONTINUOUS
 62
7
 10
-178.39992
 20
-14.52345
 30
0.0
  0
VERTEX
  8
1
  5
18
  6
CONTINUOUS
 62
7
 10
-168.27871
 20
-24.64466
 30
0.0
  0
VERTEX
  8
1
  5
19
  6
CONTINUOUS
 62
7
 10
-168.278715
 20
-24.644664
 30
0.0
 42
0.493145
  0
VERTEX
  8
1
  5
1A
  6
CONTINUOUS
 62
7
 10
-161.828872
 20
-23.795526
 30
0.0
  0
VERTEX
  8
1
  5
1B
  6
CONTINUOUS
 62
7
 10
-161.82887
 20
-23.79553
 30
0.0
  0
VERTEX
  8
1
  5
1C
  6
CONTINUOUS
 62
7
 10
-152.65812
 20
-7.91132
 30
0.0
  0
VERTEX
  8
1
  5
1D
  6
CONTINUOUS
 62
7
 10
-152.658124
 20
-7.911324
 30
0.0
 42
-0.065543
  0
VERTEX
  8
1
  5
1E
  6
CONTINUOUS
 62
7
 10
-151.354991
 20
-6.213049
 30
0.0
  0
SEQEND
  8
1
  5
1F
  0
POLYLINE
  8
1
  5
21
  6
CONTINUOUS
 62
7
 10
0.0
 20
0.0
 30
0.0
 66
1
 70
1
  0
VERTEX
  8
1
  5
22
  6
CONTINUOUS
 62
7
 10
52.28462
 20
93.28443
 30
0.0
  0
VERTEX
  8
1
  5
23
  6
CONTINUOUS
 62
7
 10
-137.71538
 20
93.28443
 30
0.0
  0
VERTEX
  8
1
  5
24
  6
CONTINUOUS
 62
7
 10
-137.71538
 20
93.28443
 30
0.0
  0
VERTEX
  8
1
  5
25
  6
CONTINUOUS
 62
7
 10
-103.39976
 20
58.96881
 30
0.0
  0
VERTEX
  8
1
  5
26
  6
CONTINUOUS
 62
7
 10
-103.39976
 20
58.96881
 30
0.0
  0
VERTEX
  8
1
  5
27
  6
CONTINUOUS
 62
7
 10
-94.78645
 20
50.3555
 30
0.0
  0
VERTEX
  8
1
  5
28
  6
CONTINUOUS
 62
7
 10
-94.78645
 20
50.3555
 30
0.0
  0
VERTEX
  8
1
  5
29
  6
CONTINUOUS
 62
7
 10
-87.71538
 20
43.28443
 30
0.0
  0
VERTEX
  8
1
  5
2A
  6
CONTINUOUS
 62
7
 10
-87.71538
 20
43.28443
 30
0.0
  0
VERTEX
  8
1
  5
2B
  6
CONTINUOUS
 62
7
 10
52.28462
 20
43.28443
 30
0.0
  0
VERTEX
  8
1
  5
2C
  6
CONTINUOUS
 62
7
 10
52.28462
 20
43.28443
 30
0.0
  0
SEQEND
  8
1
  5
2D
  0
POLYLINE
  8
1
  5
2F
  6
CONTINUOUS
 62
7
 10
0.0
 20
0.0
 30
0.0
 66
1
 70
0
  0
VERTEX
  8
1
  5
30
  6
CONTINUOUS
 62
7
 10
-103.399763
 20
58.968814
 30
0.0
 42
0.065543
  0
VERTEX
  8
1
  5
31
  6
CONTINUOUS
 62
7
 10
-102.096636
 20
60.667084
 30
0.0
  0
VERTEX
  8
1
  5
32
  6
CONTINUOUS
 62
7
 10
-102.09664
 20
60.66708
 30
0.0
  0
VERTEX
  8
1
  5
33
  6
CONTINUOUS
 62
7
 10
-92.92589
 20
76.55129
 30
0.0
  0
VERTEX
  8
1
  5
34
  6
CONTINUOUS
 62
7
 10
-92.925888
 20
76.551286
 30
0.0
 42
-0.493145
  0
VERTEX
  8
1
  5
35
  6
CONTINUOUS
 62
7
 10
-86.476045
 20
77.400424
 30
0.0
  0
VERTEX
  8
1
  5
36
  6
CONTINUOUS
 62
7
 10
-86.47605
 20
77.40042
 30
0.0
  0
VERTEX
  8
1
  5
37
  6
CONTINUOUS
 62
7
 10
-76.35484
 20
67.27921
 30
0.0
  0
VERTEX
  8
1
  5
38
  6
CONTINUOUS
 62
7
 10
-76.354836
 20
67.279215
 30
0.0
 42
-0.493145
  0
VERTEX
  8
1
  5
39
  6
CONTINUOUS
 62
7
 10
-77.203974
 20
60.829372
 30
0.0
  0
VERTEX
  8
1
  5
3A
  6
CONTINUOUS
 62
7
 10
-77.20397
 20
60.82937
 30
0.0
  0
VERTEX
  8
1
  5
3B
  6
CONTINUOUS
 62
7
 10
-93.08818
 20
51.65862
 30
0.0
  0
VERTEX
  8
1
  5
3C
  6
CONTINUOUS
 62
7
 10
-93.088176
 20
51.658624
 30
0.0
 42
0.065543
  0
VERTEX
  8
1
  5
3D
  6
CONTINUOUS
 62
7
 10
-94.786446
 20
50.355497
 30
0.0
  0
SEQEND
  8
1
  5
3E
  0
POLYLINE
  8
1
  5
40
  6
CONTINUOUS
 62
7
 10
0.0
 20
0.0
 30
0.0
 66
1
 70
1
  0
VERTEX
  8
1
  5
41
  6
CONTINUOUS
 62
7
 10
-133.38231
 20
29.3814
 30
0.0
  0
VERTEX
  8
1
  5
42
  6
CONTINUOUS
 62
7
 10
-149.26651
 20
20.21066
 30
0.0
  0
VERTEX
  8
1
  5
43
  6
CONTINUOUS
 62
7
 10
-149.266516
 20
20.210658
 30
0.0
 42
0.493145
  0
VERTEX
  8
1
  5
44
  6
CONTINUOUS
 62
7
 10
-150.115654
 20
13.760815
 30
0.0
  0
VERTEX
  8
1
  5
45
  6
CONTINUOUS
 62
7
 10
-150.11566
 20
13.76082
 30
0.0
  0
VERTEX
  8
1
  5
46
  6
CONTINUOUS
 62
7
 10
-139.99444
 20
3.6396
 30
0.0
  0
VERTEX
  8
1
  5
47
  6
CONTINUOUS
 62
7
 10
-139.994445
 20
3.639606
 30
0.0
 42
0.493145
  0
VERTEX
  8
1
  5
48
  6
CONTINUOUS
 62
7
 10
-133.544602
 20
4.488744
 30
0.0
  0
VERTEX
  8
1
  5
49
  6
CONTINUOUS
 62
7
 10
-133.5446
 20
4.48875
 30
0.0
  0
VERTEX
  8
1
  5
4A
  6
CONTINUOUS
 62
7
 10
-124.37386
 20
20.37295
 30
0.0
  0
VERTEX
  8
1
  5
4B
  6
CONTINUOUS
 62
7
 10
-124.373854
 20
20.372946
 30
0.0
 42
-0.131652
  0
VERTEX
  8
1
  5
4C
  6
CONTINUOUS
 62
7
 10
-121.372446
 20
23.374354
 30
0.0
  0
VERTEX
  8
1
  5
4D
  6
CONTINUOUS
 62
7
 10
-121.37245
 20
23.37436
 30
0.0
  0
VERTEX
  8
1
  5
4E
  6
CONTINUOUS
 62
7
 10
-105.48825
 20
32.5451
 30
0.0
  0
VERTEX
  8
1
  5
4F
  6
CONTINUOUS
 62
7
 10
-105.488244
 20
32.545102
 30
0.0
 42
0.493145
  0
VERTEX
  8
1
  5
50
  6
CONTINUOUS
 62
7
 10
-104.639106
 20
38.994945
 30
0.0
  0
VERTEX
  8
1
  5
51
  6
CONTINUOUS
 62
7
 10
-104.6391
 20
38.99494
 30
0.0
  0
VERTEX
  8
1
  5
52
  6
CONTINUOUS
 62
7
 10
-114.76032
 20
49.11616
 30
0.0
  0
VERTEX
  8
1
  5
53
  6
CONTINUOUS
 62
7
 10
-114.760315
 20
49.116154
 30
0.0
 42
0.493145
  0
VERTEX
  8
1
  5
54
  6
CONTINUOUS
 62
7
 10
-121.210158
 20
48.267016
 30
0.0
  0
VERTEX
  8
1
  5
55
  6
CONTINUOUS
 62
7
 10
-121.21016
 20
48.26701
 30
0.0
  0
VERTEX
  8
1
  5
56
  6
CONTINUOUS
 62
7
 10
-130.3809
 20
32.38281
 30
0.0
  0
VERTEX
  8
1
  5
57
  6
CONTINUOUS
 62
7
 10
-130.380906
 20
32.382814
 30
0.0
 42
-0.131652
  0
VERTEX
  8
1
  5
58
  6
CONTINUOUS
 62
7
 10
-133.38231
 20
29.38141
 30
0.0
  0
SEQEND
  8
1
  5
59
  0
ENDSEC
  0
EOF
