  0
SECTION
  2
HEADER
  9
$ACADVER
  1
AC1006
  9
$INSBASE
 10
0.0
 20
0.0
 30
0.0
  9
$EXTMAX
 10
767.4974
 20
225.14099
  9
$EXTMIN
 10
268.4974
 20
0.141
  9
$LIMMAX
 10
12.0
 20
9.0
  9
$LIMMIN
 10
0.0
 20
0.0
  9
$ORTHOMODE
 70
0
  9
$REGENMODE
 70
1
  9
$FILLMODE
 70
1
  9
$QTEXTMODE
 70
0
  9
$MIRRTEXT
 70
1
  9
$DRAGMODE
 70
2
  9
$LTSCALE
 40
1.0
  9
$OSMODE
 70
0
  9
$ATTMODE
 70
1
  9
$TEXTSIZE
 40
0.2
  9
$TRACEWID
 40
0.05
  9
$TEXTSTYLE
  7
STANDARD
  9
$CLAYER
  8
0
  9
$CELTYPE
  6
CONTINUOUS
  9
$CECOLOR
 62
256
  9
$DIMSCALE
 40
1.0
  9
$DIMASZ
 40
0.18
  9
$DIMEXO
 40
0.0625
  9
$DIMDLI
 40
0.38
  9
$DIMRND
 40
0.0
  9
$DIMDLE
 40
0.0
  9
$DIMEXE
 40
0.18
  9
$DIMTP
 40
0.0
  9
$DIMTM
 40
0.0
  9
$DIMTXT
 40
0.18
  9
$DIMCEN
 40
0.09
  9
$DIMTSZ
 40
0.0
  9
$DIMTOL
 70
0
  9
$DIMLIM
 70
0
  9
$DIMTIH
 70
1
  9
$DIMTOH
 70
1
  9
$DIMSE1
 70
0
  9
$DIMSE2
 70
0
  9
$DIMTAD
 70
0
  9
$DIMZIN
 70
0
  9
$DIMBLK
  1

  9
$DIMASO
 70
1
  9
$DIMSHO
 70
1
  9
$DIMPOST
  1

  9
$DIMAPOST
  1

  9
$DIMALT
 70
0
  9
$DIMALTD
 70
2
  9
$DIMALTF
 40
25.4
  9
$DIMLFAC
 40
1.0
  9
$DIMTOFL
 70
0
  9
$DIMTVP
 40
0.0
  9
$DIMTIX
 70
0
  9
$DIMSOXD
 70
0
  9
$DIMSAH
 70
0
  9
$DIMBLK1
  1

  9
$DIMBLK2
  1

  9
$LUNITS
 70
2
  9
$LUPREC
 70
4
  9
$AXISMODE
 70
0
  9
$AXISUNIT
 10
0.0
 20
0.0
  9
$SKETCHINC
 40
0.1
  9
$FILLETRAD
 40
0.0
  9
$AUNITS
 70
0
  9
$AUPREC
 70
0
  9
$MENU
  1
acad
  9
$ELEVATION
 40
0.0
  9
$THICKNESS
 40
0.0
  9
$LIMCHECK
 70
0
  9
$BLIPMODE
 70
1
  9
$CHAMFERA
 40
0.0
  9
$CHAMFERB
 40
0.0
  9
$SKPOLY
 70
0
  9
$TDCREATE
 40
0.0
  9
$TDUPDATE
 40
0.0
  9
$TDINDWG
 40
0.0
  9
$TDUSRTIMER
 40
0.0
  9
$USRTIMER
 70
1
  9
$ANGBASE
 50
0.0
  9
$ANGDIR
 70
0
  9
$PDMODE
 70
0
  9
$PDSIZE
 40
0.0
  9
$PLINEWID
 40
0.0
  9
$COORDS
 70
0
  9
$SPLFRAME
 70
0
  9
$SPLINETYPE
 70
6
  9
$SPLINESEGS
 70
10
  9
$ATTDIA
 70
0
  9
$ATTREQ
 70
1
  9
$HANDLING
 70
1
  9
$HANDSEED
  5
100
  9
$SURFTAB1
 70
6
  9
$SURFTAB2
 70
6
  9
$SURFTYPE
 70
6
  9
$SURFU
 70
10
  9
$SURFV
 70
10
  9
$FLATLAND
 70
0
  9
$UCSNAME
  2

  9
$UCSORG
 10
0.0
 20
0.0
 30
0.0
  9
$UCSXDIR
 10
1.0
 20
0.0
 30
0.0
  9
$UCSYDIR
 10
0.0
 20
1.0
 30
0.0
  9
$USERI1
 70
0
  9
$USERI2
 70
0
  9
$USERI3
 70
0
  9
$USERI4
 70
0
  9
$USERI5
 70
0
  9
$USERR1
 40
0.0
  9
$USERR2
 40
0.0
  9
$USERR3
 40
0.0
  9
$USERR4
 40
0.0
  9
$USERR5
 40
0.0
  9
$WORLDVIEW
 70
1
  0
ENDSEC
  0
SECTION
  2
TABLES
  0
TABLE
  2
LTYPE
 70
7
  0
LTYPE
  2
CONTINUOUS
 70
64
  3
Solid line
 72
65
 73
0
 40
0.0
  0
LTYPE
  2
DOT
 70
64
  3
. . . . . . . . . . . . . . . . . . . . . . . . . . . . . . . . .
 72
65
 73
2
 40
0.25
 49
0.0
 49
-0.25
  0
LTYPE
  2
HIDDEN
 70
64
  3
__ __ __ __ __ __ __ __ __ __ __ __ __ __ __ __ __ __ __ __ __ 
 72
65
 73
2
 40
0.375
 49
0.25
 49
-0.125
  0
LTYPE
  2
DASHED
 70
64
  3
__ __ __ __ __ __ __ __ __ __ __ __ __ __ __ __ __ __ __ __ __
 72
65
 73
2
 40
0.75
 49
0.5
 49
-0.25
  0
LTYPE
  2
DASHDOT
 70
64
  3
__ . __ . __ . __ . __ . __ . __ . __ . __ . __ . __ . __ . _
 72
65
 73
4
 40
1.0
 49
0.5
 49
-0.25
 49
0.0
 49
-0.25
  0
LTYPE
  2
DIVIDE
 70
64
  3
____ . . ____ . . ____ . . ____ . . ____ . . ____ . . ____ . .
 72
65
 73
6
 40
1.25
 49
0.5
 49
-0.25
 49
0.0
 49
-0.25
 49
0.0
 49
-0.25
  0
LTYPE
  2
CENTER
 70
64
  3
____ _ ____ _ ____ _ ____ _ ____ _ ____ _ ____ _ ____ _ ____ _
 72
65
 73
4
 40
2.0
 49
1.25
 49
-0.25
 49
0.25
 49
-0.25
  0
ENDTAB
  0
TABLE
  2
LAYER
 70
4
  0
LAYER
  2
0
 70
0
 62
7
  6
CONTINUOUS
  0
LAYER
  2
CONSTRUCTION_CLASS
 70
0
 62
7
  6
CONTINUOUS
  0
LAYER
  2
PATTERN_CLASS
 70
0
 62
7
  6
CONTINUOUS
  0
LAYER
  2
1
 70
0
 62
7
  6
CONTINUOUS
  0
ENDTAB
  0
TABLE
  2
STYLE
 70
1
  0
STYLE
  2
STANDARD
 70
0
 40
0.2
 41
1.0
 50
0.0
 71
0
 42
0.0
  3
txt
  4

  0
ENDTAB
  0
TABLE
  2
UCS
 70
0
  0
ENDTAB
  0
TABLE
  2
VIEW
 70
0
  0
ENDTAB
  0
TABLE
  2
VPORT
 70
1
  0
VPORT
  2
*ACTIVE
 70
0
 10
0.0
 20
0.0
 11
1.0
 21
1.0
 12
-2.842171E-014
 22
0.0
 13
0.0
 23
0.0
 14
0.0
 24
0.0
 15
0.0
 25
0.0
 16
0.0
 26
0.0
 36
1.0
 17
492.1607
 27
113.00429
 37
0.0
 40
339.27842
 41
1.355234
 42
50.0
 43
0.00004
 44
0.0
 50
0.0
 51
0.0
 71
0
 72
100
 73
1
 74
0
 75
0
 76
0
 77
0
 78
0
  0
ENDTAB
  0
ENDSEC
  0
SECTION
  2
BLOCKS
  0
ENDSEC
  0
SECTION
  2
ENTITIES
  0
LINE
  8
1
  5
2
  6
CONTINUOUS
 62
7
 10
567.9974
 20
0.14101
 30
0.0
 11
567.9974
 21
0.141
 31
0.0
  0
LINE
  8
1
  5
4
  6
CONTINUOUS
 62
7
 10
561.9974
 20
165.141
 30
0.0
 11
567.9974
 21
165.141
 31
0.0
  0
LINE
  8
1
  5
6
  6
CONTINUOUS
 62
7
 10
567.9974
 20
0.141
 30
0.0
 11
561.9974
 21
0.141
 31
0.0
  0
LINE
  8
1
  5
8
  6
CONTINUOUS
 62
7
 10
473.9974
 20
0.141
 30
0.0
 11
467.9974
 21
0.141
 31
0.0
  0
LINE
  8
1
  5
A
  6
CONTINUOUS
 62
7
 10
467.9974
 20
165.141
 30
0.0
 11
473.9974
 21
165.141
 31
0.0
  0
POLYLINE
  8
1
  5
D
  6
CONTINUOUS
 62
7
 10
0.0
 20
0.0
 30
0.0
 66
1
 70
0
  0
VERTEX
  8
1
  5
E
  6
CONTINUOUS
 62
7
 10
488.876897
 20
182.232877
 30
0.0
 42
0.058272
  0
VERTEX
  8
1
  5
F
  6
CONTINUOUS
 62
7
 10
490.759284
 20
178.211115
 30
0.0
 42
0.052883
  0
VERTEX
  8
1
  5
10
  6
CONTINUOUS
 62
7
 10
493.619161
 20
174.527762
 30
0.0
 42
0.047411
  0
VERTEX
  8
1
  5
11
  6
CONTINUOUS
 62
7
 10
497.353897
 20
171.315001
 30
0.0
 42
0.042737
  0
VERTEX
  8
1
  5
12
  6
CONTINUOUS
 62
7
 10
501.829463
 20
168.68813
 30
0.0
 42
0.039216
  0
VERTEX
  8
1
  5
13
  6
CONTINUOUS
 62
7
 10
506.885245
 20
166.741417
 30
0.0
 42
0.036909
  0
VERTEX
  8
1
  5
14
  6
CONTINUOUS
 62
7
 10
512.339809
 20
165.544724
 30
0.0
 42
0.035775
  0
VERTEX
  8
1
  5
15
  6
CONTINUOUS
 62
7
 10
517.997405
 20
165.140997
 30
0.0
 42
0.035775
  0
VERTEX
  8
1
  5
16
  6
CONTINUOUS
 62
7
 10
523.655001
 20
165.544724
 30
0.0
 42
0.036909
  0
VERTEX
  8
1
  5
17
  6
CONTINUOUS
 62
7
 10
529.109565
 20
166.741417
 30
0.0
 42
0.039216
  0
VERTEX
  8
1
  5
18
  6
CONTINUOUS
 62
7
 10
534.165347
 20
168.68813
 30
0.0
 42
0.042737
  0
VERTEX
  8
1
  5
19
  6
CONTINUOUS
 62
7
 10
538.640913
 20
171.315001
 30
0.0
 42
0.047411
  0
VERTEX
  8
1
  5
1A
  6
CONTINUOUS
 62
7
 10
542.375649
 20
174.527762
 30
0.0
 42
0.052883
  0
VERTEX
  8
1
  5
1B
  6
CONTINUOUS
 62
7
 10
545.235526
 20
178.211115
 30
0.0
 42
0.058272
  0
VERTEX
  8
1
  5
1C
  6
CONTINUOUS
 62
7
 10
547.117913
 20
182.232877
 30
0.0
 42
0.058272
  0
SEQEND
  8
1
  5
1D
  0
POLYLINE
  8
1
  5
1E
  6
CONTINUOUS
 62
7
 10
0.0
 20
0.0
 30
0.0
 66
1
 70
0
  0
VERTEX
  8
1
  5
1F
  6
CONTINUOUS
 62
7
 10
547.117915
 20
182.232877
 30
0.0
 42
0.512859
  0
VERTEX
  8
1
  5
20
  6
CONTINUOUS
 62
7
 10
543.232195
 20
187.640997
 30
0.0
  0
VERTEX
  8
1
  5
21
  6
CONTINUOUS
 62
7
 10
543.2322
 20
187.641
 30
0.0
  0
VERTEX
  8
1
  5
22
  6
CONTINUOUS
 62
7
 10
533.79568
 20
187.641
 30
0.0
  0
VERTEX
  8
1
  5
23
  6
CONTINUOUS
 62
7
 10
533.79568
 20
187.641
 30
0.0
  0
VERTEX
  8
1
  5
24
  6
CONTINUOUS
 62
7
 10
530.89654
 20
184.74186
 30
0.0
  0
VERTEX
  8
1
  5
25
  6
CONTINUOUS
 62
7
 10
530.896541
 20
184.741857
 30
0.0
 42
-0.999999
  0
VERTEX
  8
1
  5
26
  6
CONTINUOUS
 62
7
 10
525.098265
 20
190.540132
 30
0.0
  0
VERTEX
  8
1
  5
27
  6
CONTINUOUS
 62
7
 10
525.09826
 20
190.54014
 30
0.0
  0
VERTEX
  8
1
  5
28
  6
CONTINUOUS
 62
7
 10
527.9974
 20
193.43928
 30
0.0
  0
VERTEX
  8
1
  5
29
  6
CONTINUOUS
 62
7
 10
527.9974
 20
193.43928
 30
0.0
  0
VERTEX
  8
1
  5
2A
  6
CONTINUOUS
 62
7
 10
527.9974
 20
196.84272
 30
0.0
  0
VERTEX
  8
1
  5
2B
  6
CONTINUOUS
 62
7
 10
527.9974
 20
196.84272
 30
0.0
  0
VERTEX
  8
1
  5
2C
  6
CONTINUOUS
 62
7
 10
525.09826
 20
199.74186
 30
0.0
  0
VERTEX
  8
1
  5
2D
  6
CONTINUOUS
 62
7
 10
525.098265
 20
199.741861
 30
0.0
 42
-0.999999
  0
VERTEX
  8
1
  5
2E
  6
CONTINUOUS
 62
7
 10
530.896541
 20
205.540137
 30
0.0
  0
VERTEX
  8
1
  5
2F
  6
CONTINUOUS
 62
7
 10
530.89654
 20
205.54014
 30
0.0
  0
VERTEX
  8
1
  5
30
  6
CONTINUOUS
 62
7
 10
533.79568
 20
202.641
 30
0.0
  0
VERTEX
  8
1
  5
31
  6
CONTINUOUS
 62
7
 10
533.79568
 20
202.641
 30
0.0
  0
VERTEX
  8
1
  5
32
  6
CONTINUOUS
 62
7
 10
543.2322
 20
202.641
 30
0.0
  0
VERTEX
  8
1
  5
33
  6
CONTINUOUS
 62
7
 10
543.232195
 20
202.640997
 30
0.0
 42
0.512867
  0
VERTEX
  8
1
  5
34
  6
CONTINUOUS
 62
7
 10
547.117883
 20
208.049211
 30
0.0
  0
VERTEX
  8
1
  5
35
  6
CONTINUOUS
 62
7
 10
547.11788
 20
208.04921
 30
0.0
  0
VERTEX
  8
1
  5
36
  6
CONTINUOUS
 62
7
 10
547.11792
 20
208.04912
 30
0.0
  0
SEQEND
  8
1
  5
37
  0
POLYLINE
  8
1
  5
39
  6
CONTINUOUS
 62
7
 10
0.0
 20
0.0
 30
0.0
 66
1
 70
0
  0
VERTEX
  8
1
  5
3A
  6
CONTINUOUS
 62
7
 10
547.117913
 20
208.049117
 30
0.0
 42
0.058272
  0
VERTEX
  8
1
  5
3B
  6
CONTINUOUS
 62
7
 10
545.235526
 20
212.070879
 30
0.0
 42
0.052883
  0
VERTEX
  8
1
  5
3C
  6
CONTINUOUS
 62
7
 10
542.375649
 20
215.754232
 30
0.0
 42
0.047411
  0
VERTEX
  8
1
  5
3D
  6
CONTINUOUS
 62
7
 10
538.640913
 20
218.966992
 30
0.0
 42
0.042737
  0
VERTEX
  8
1
  5
3E
  6
CONTINUOUS
 62
7
 10
534.165347
 20
221.593864
 30
0.0
 42
0.039216
  0
VERTEX
  8
1
  5
3F
  6
CONTINUOUS
 62
7
 10
529.109565
 20
223.540577
 30
0.0
 42
0.036909
  0
VERTEX
  8
1
  5
40
  6
CONTINUOUS
 62
7
 10
523.655001
 20
224.73727
 30
0.0
 42
0.035775
  0
VERTEX
  8
1
  5
41
  6
CONTINUOUS
 62
7
 10
517.997405
 20
225.140997
 30
0.0
 42
0.035775
  0
VERTEX
  8
1
  5
42
  6
CONTINUOUS
 62
7
 10
512.339809
 20
224.73727
 30
0.0
 42
0.036909
  0
VERTEX
  8
1
  5
43
  6
CONTINUOUS
 62
7
 10
506.885245
 20
223.540577
 30
0.0
 42
0.039216
  0
VERTEX
  8
1
  5
44
  6
CONTINUOUS
 62
7
 10
501.829463
 20
221.593864
 30
0.0
 42
0.042737
  0
VERTEX
  8
1
  5
45
  6
CONTINUOUS
 62
7
 10
497.353897
 20
218.966992
 30
0.0
 42
0.047411
  0
VERTEX
  8
1
  5
46
  6
CONTINUOUS
 62
7
 10
493.619161
 20
215.754232
 30
0.0
 42
0.052883
  0
VERTEX
  8
1
  5
47
  6
CONTINUOUS
 62
7
 10
490.759284
 20
212.070879
 30
0.0
 42
0.058272
  0
VERTEX
  8
1
  5
48
  6
CONTINUOUS
 62
7
 10
488.876897
 20
208.049117
 30
0.0
 42
0.058272
  0
SEQEND
  8
1
  5
49
  0
POLYLINE
  8
1
  5
4A
  6
CONTINUOUS
 62
7
 10
0.0
 20
0.0
 30
0.0
 66
1
 70
0
  0
VERTEX
  8
1
  5
4B
  6
CONTINUOUS
 62
7
 10
488.876985
 20
208.049087
 30
0.0
 42
0.512857
  0
VERTEX
  8
1
  5
4C
  6
CONTINUOUS
 62
7
 10
492.762715
 20
202.640997
 30
0.0
  0
VERTEX
  8
1
  5
4D
  6
CONTINUOUS
 62
7
 10
492.76272
 20
202.641
 30
0.0
  0
VERTEX
  8
1
  5
4E
  6
CONTINUOUS
 62
7
 10
502.19912
 20
202.641
 30
0.0
  0
VERTEX
  8
1
  5
4F
  6
CONTINUOUS
 62
7
 10
502.19912
 20
202.641
 30
0.0
  0
VERTEX
  8
1
  5
50
  6
CONTINUOUS
 62
7
 10
505.09826
 20
205.54014
 30
0.0
  0
VERTEX
  8
1
  5
51
  6
CONTINUOUS
 62
7
 10
505.098269
 20
205.540137
 30
0.0
 42
-0.999999
  0
VERTEX
  8
1
  5
52
  6
CONTINUOUS
 62
7
 10
510.896545
 20
199.741861
 30
0.0
  0
VERTEX
  8
1
  5
53
  6
CONTINUOUS
 62
7
 10
510.89654
 20
199.74186
 30
0.0
  0
VERTEX
  8
1
  5
54
  6
CONTINUOUS
 62
7
 10
507.9974
 20
196.84272
 30
0.0
  0
VERTEX
  8
1
  5
55
  6
CONTINUOUS
 62
7
 10
507.9974
 20
196.84272
 30
0.0
  0
VERTEX
  8
1
  5
56
  6
CONTINUOUS
 62
7
 10
507.9974
 20
193.43928
 30
0.0
  0
VERTEX
  8
1
  5
57
  6
CONTINUOUS
 62
7
 10
507.9974
 20
193.43928
 30
0.0
  0
VERTEX
  8
1
  5
58
  6
CONTINUOUS
 62
7
 10
510.89654
 20
190.54014
 30
0.0
  0
VERTEX
  8
1
  5
59
  6
CONTINUOUS
 62
7
 10
510.896545
 20
190.540132
 30
0.0
 42
-0.999999
  0
VERTEX
  8
1
  5
5A
  6
CONTINUOUS
 62
7
 10
505.098269
 20
184.741857
 30
0.0
  0
VERTEX
  8
1
  5
5B
  6
CONTINUOUS
 62
7
 10
505.09826
 20
184.74186
 30
0.0
  0
VERTEX
  8
1
  5
5C
  6
CONTINUOUS
 62
7
 10
502.19912
 20
187.641
 30
0.0
  0
VERTEX
  8
1
  5
5D
  6
CONTINUOUS
 62
7
 10
502.19912
 20
187.641
 30
0.0
  0
VERTEX
  8
1
  5
5E
  6
CONTINUOUS
 62
7
 10
492.76272
 20
187.641
 30
0.0
  0
VERTEX
  8
1
  5
5F
  6
CONTINUOUS
 62
7
 10
492.762715
 20
187.640997
 30
0.0
 42
0.512856
  0
VERTEX
  8
1
  5
60
  6
CONTINUOUS
 62
7
 10
488.876985
 20
182.232907
 30
0.0
  0
VERTEX
  8
1
  5
61
  6
CONTINUOUS
 62
7
 10
488.87698
 20
182.23291
 30
0.0
  0
VERTEX
  8
1
  5
62
  6
CONTINUOUS
 62
7
 10
488.8769
 20
182.23288
 30
0.0
  0
VERTEX
  8
1
  5
63
  6
CONTINUOUS
 62
7
 10
488.8769
 20
182.23288
 30
0.0
  0
SEQEND
  8
1
  5
64
  0
POLYLINE
  8
1
  5
66
  6
CONTINUOUS
 62
7
 10
0.0
 20
0.0
 30
0.0
 66
1
 70
0
  0
VERTEX
  8
1
  5
67
  6
CONTINUOUS
 62
7
 10
467.9974
 20
165.141
 30
0.0
  0
VERTEX
  8
1
  5
68
  6
CONTINUOUS
 62
7
 10
268.4974
 20
165.141
 30
0.0
  0
VERTEX
  8
1
  5
69
  6
CONTINUOUS
 62
7
 10
268.4974
 20
165.141
 30
0.0
  0
VERTEX
  8
1
  5
6A
  6
CONTINUOUS
 62
7
 10
268.4974
 20
0.141
 30
0.0
  0
VERTEX
  8
1
  5
6B
  6
CONTINUOUS
 62
7
 10
268.4974
 20
0.141
 30
0.0
  0
VERTEX
  8
1
  5
6C
  6
CONTINUOUS
 62
7
 10
467.9974
 20
0.141
 30
0.0
  0
SEQEND
  8
1
  5
6D
  0
POLYLINE
  8
1
  5
6F
  6
CONTINUOUS
 62
7
 10
0.0
 20
0.0
 30
0.0
 66
1
 70
0
  0
VERTEX
  8
1
  5
70
  6
CONTINUOUS
 62
7
 10
567.9974
 20
165.141
 30
0.0
  0
VERTEX
  8
1
  5
71
  6
CONTINUOUS
 62
7
 10
767.4974
 20
165.141
 30
0.0
  0
VERTEX
  8
1
  5
72
  6
CONTINUOUS
 62
7
 10
767.4974
 20
165.141
 30
0.0
  0
VERTEX
  8
1
  5
73
  6
CONTINUOUS
 62
7
 10
767.4974
 20
0.141
 30
0.0
  0
VERTEX
  8
1
  5
74
  6
CONTINUOUS
 62
7
 10
767.4974
 20
0.141
 30
0.0
  0
VERTEX
  8
1
  5
75
  6
CONTINUOUS
 62
7
 10
567.9974
 20
0.141
 30
0.0
  0
SEQEND
  8
1
  5
76
  0
POLYLINE
  8
1
  5
78
  6
CONTINUOUS
 62
7
 10
0.0
 20
0.0
 30
0.0
 66
1
 70
0
  0
VERTEX
  8
1
  5
79
  6
CONTINUOUS
 62
7
 10
561.9974
 20
165.141
 30
0.0
  0
VERTEX
  8
1
  5
7A
  6
CONTINUOUS
 62
7
 10
561.9974
 20
123.63063
 30
0.0
  0
VERTEX
  8
1
  5
7B
  6
CONTINUOUS
 62
7
 10
561.997405
 20
123.63063
 30
0.0
 42
-0.364826
  0
VERTEX
  8
1
  5
7C
  6
CONTINUOUS
 62
7
 10
558.597165
 20
119.590786
 30
0.0
  0
VERTEX
  8
1
  5
7D
  6
CONTINUOUS
 62
7
 10
558.597165
 20
119.590786
 30
0.0
 42
0.841676
  0
VERTEX
  8
1
  5
7E
  6
CONTINUOUS
 62
7
 10
558.597165
 20
45.691208
 30
0.0
  0
VERTEX
  8
1
  5
7F
  6
CONTINUOUS
 62
7
 10
558.597165
 20
45.691208
 30
0.0
 42
-0.364826
  0
VERTEX
  8
1
  5
80
  6
CONTINUOUS
 62
7
 10
561.997405
 20
41.651364
 30
0.0
  0
VERTEX
  8
1
  5
81
  6
CONTINUOUS
 62
7
 10
561.9974
 20
35.141
 30
0.0
  0
VERTEX
  8
1
  5
82
  6
CONTINUOUS
 62
7
 10
561.9974
 20
0.141
 30
0.0
  0
SEQEND
  8
1
  5
83
  0
POLYLINE
  8
1
  5
85
  6
CONTINUOUS
 62
7
 10
0.0
 20
0.0
 30
0.0
 66
1
 70
0
  0
VERTEX
  8
1
  5
86
  6
CONTINUOUS
 62
7
 10
567.9974
 20
165.141
 30
0.0
  0
VERTEX
  8
1
  5
87
  6
CONTINUOUS
 62
7
 10
567.9974
 20
123.63063
 30
0.0
  0
VERTEX
  8
1
  5
88
  6
CONTINUOUS
 62
7
 10
567.997405
 20
123.63063
 30
0.0
 42
0.364826
  0
VERTEX
  8
1
  5
89
  6
CONTINUOUS
 62
7
 10
571.397645
 20
119.590786
 30
0.0
  0
VERTEX
  8
1
  5
8A
  6
CONTINUOUS
 62
7
 10
571.397645
 20
119.590786
 30
0.0
 42
-0.841676
  0
VERTEX
  8
1
  5
8B
  6
CONTINUOUS
 62
7
 10
571.397645
 20
45.691208
 30
0.0
  0
VERTEX
  8
1
  5
8C
  6
CONTINUOUS
 62
7
 10
571.397645
 20
45.691208
 30
0.0
 42
0.364826
  0
VERTEX
  8
1
  5
8D
  6
CONTINUOUS
 62
7
 10
567.997405
 20
41.651364
 30
0.0
  0
VERTEX
  8
1
  5
8E
  6
CONTINUOUS
 62
7
 10
567.9974
 20
35.141
 30
0.0
  0
VERTEX
  8
1
  5
8F
  6
CONTINUOUS
 62
7
 10
567.9974
 20
0.141
 30
0.0
  0
SEQEND
  8
1
  5
90
  0
POLYLINE
  8
1
  5
92
  6
CONTINUOUS
 62
7
 10
0.0
 20
0.0
 30
0.0
 66
1
 70
0
  0
VERTEX
  8
1
  5
93
  6
CONTINUOUS
 62
7
 10
579.997405
 20
90.140997
 30
0.0
 42
0.284079
  0
VERTEX
  8
1
  5
94
  6
CONTINUOUS
 62
7
 10
564.9974
 20
99.41151
 30
0.0
  0
VERTEX
  8
1
  5
95
  6
CONTINUOUS
 62
7
 10
564.9974
 20
99.41151
 30
0.0
  0
VERTEX
  8
1
  5
96
  6
CONTINUOUS
 62
7
 10
564.997405
 20
99.411505
 30
0.0
 42
0.740121
  0
VERTEX
  8
1
  5
97
  6
CONTINUOUS
 62
7
 10
557.497405
 20
97.120217
 30
0.0
  0
VERTEX
  8
1
  5
98
  6
CONTINUOUS
 62
7
 10
557.4974
 20
97.12022
 30
0.0
  0
VERTEX
  8
1
  5
99
  6
CONTINUOUS
 62
7
 10
557.4974
 20
90.141
 30
0.0
  0
VERTEX
  8
1
  5
9A
  6
CONTINUOUS
 62
7
 10
557.4974
 20
90.141
 30
0.0
  0
VERTEX
  8
1
  5
9B
  6
CONTINUOUS
 62
7
 10
542.97908
 20
90.141
 30
0.0
  0
VERTEX
  8
1
  5
9C
  6
CONTINUOUS
 62
7
 10
542.979078
 20
90.140997
 30
0.0
 42
0.791683
  0
VERTEX
  8
1
  5
9D
  6
CONTINUOUS
 62
7
 10
534.997824
 20
90.140897
 30
0.0
  0
VERTEX
  8
1
  5
9E
  6
CONTINUOUS
 62
7
 10
534.99782
 20
90.1409
 30
0.0
  0
VERTEX
  8
1
  5
9F
  6
CONTINUOUS
 62
7
 10
534.9974
 20
90.141
 30
0.0
  0
VERTEX
  8
1
  5
A0
  6
CONTINUOUS
 62
7
 10
534.997405
 20
90.140996
 30
0.0
 42
0.123106
  0
VERTEX
  8
1
  5
A1
  6
CONTINUOUS
 62
7
 10
534.997405
 20
75.140996
 30
0.0
  0
VERTEX
  8
1
  5
A2
  6
CONTINUOUS
 62
7
 10
534.9974
 20
75.141
 30
0.0
  0
VERTEX
  8
1
  5
A3
  6
CONTINUOUS
 62
7
 10
534.99782
 20
75.1411
 30
0.0
  0
VERTEX
  8
1
  5
A4
  6
CONTINUOUS
 62
7
 10
534.997824
 20
75.141096
 30
0.0
 42
0.791683
  0
VERTEX
  8
1
  5
A5
  6
CONTINUOUS
 62
7
 10
542.979078
 20
75.140997
 30
0.0
  0
VERTEX
  8
1
  5
A6
  6
CONTINUOUS
 62
7
 10
542.97908
 20
75.141
 30
0.0
  0
VERTEX
  8
1
  5
A7
  6
CONTINUOUS
 62
7
 10
549.9974
 20
75.141
 30
0.0
  0
VERTEX
  8
1
  5
A8
  6
CONTINUOUS
 62
7
 10
549.997405
 20
75.140996
 30
0.0
 42
0.284079
  0
VERTEX
  8
1
  5
A9
  6
CONTINUOUS
 62
7
 10
564.997405
 20
65.870487
 30
0.0
  0
VERTEX
  8
1
  5
AA
  6
CONTINUOUS
 62
7
 10
564.997405
 20
65.870489
 30
0.0
 42
0.740121
  0
VERTEX
  8
1
  5
AB
  6
CONTINUOUS
 62
7
 10
572.497405
 20
68.161777
 30
0.0
  0
VERTEX
  8
1
  5
AC
  6
CONTINUOUS
 62
7
 10
572.4974
 20
68.16178
 30
0.0
  0
VERTEX
  8
1
  5
AD
  6
CONTINUOUS
 62
7
 10
572.4974
 20
75.141
 30
0.0
  0
VERTEX
  8
1
  5
AE
  6
CONTINUOUS
 62
7
 10
572.4974
 20
75.141
 30
0.0
  0
VERTEX
  8
1
  5
AF
  6
CONTINUOUS
 62
7
 10
587.01566
 20
75.1413
 30
0.0
  0
VERTEX
  8
1
  5
B0
  6
CONTINUOUS
 62
7
 10
587.015663
 20
75.141293
 30
0.0
 42
0.785406
  0
VERTEX
  8
1
  5
B1
  6
CONTINUOUS
 62
7
 10
594.981873
 20
75.079138
 30
0.0
  0
VERTEX
  8
1
  5
B2
  6
CONTINUOUS
 62
7
 10
594.981873
 20
75.079139
 30
0.0
 42
0.123629
  0
VERTEX
  8
1
  5
B3
  6
CONTINUOUS
 62
7
 10
594.997405
 20
90.140997
 30
0.0
  0
VERTEX
  8
1
  5
B4
  6
CONTINUOUS
 62
7
 10
594.9974
 20
90.141
 30
0.0
  0
VERTEX
  8
1
  5
B5
  6
CONTINUOUS
 62
7
 10
594.99678
 20
90.14179
 30
0.0
  0
VERTEX
  8
1
  5
B6
  6
CONTINUOUS
 62
7
 10
594.996776
 20
90.141787
 30
0.0
 42
0.791592
  0
VERTEX
  8
1
  5
B7
  6
CONTINUOUS
 62
7
 10
587.015732
 20
90.140997
 30
0.0
  0
VERTEX
  8
1
  5
B8
  6
CONTINUOUS
 62
7
 10
587.01574
 20
90.141
 30
0.0
  0
VERTEX
  8
1
  5
B9
  6
CONTINUOUS
 62
7
 10
579.9974
 20
90.141
 30
0.0
  0
SEQEND
  8
1
  5
BA
  0
POLYLINE
  8
1
  5
BC
  6
CONTINUOUS
 62
7
 10
0.0
 20
0.0
 30
0.0
 66
1
 70
0
  0
VERTEX
  8
1
  5
BD
  6
CONTINUOUS
 62
7
 10
470.997405
 20
99.411507
 30
0.0
 42
0.284079
  0
VERTEX
  8
1
  5
BE
  6
CONTINUOUS
 62
7
 10
455.997405
 20
90.140997
 30
0.0
  0
VERTEX
  8
1
  5
BF
  6
CONTINUOUS
 62
7
 10
455.9974
 20
90.141
 30
0.0
  0
VERTEX
  8
1
  5
C0
  6
CONTINUOUS
 62
7
 10
448.97908
 20
90.141
 30
0.0
  0
VERTEX
  8
1
  5
C1
  6
CONTINUOUS
 62
7
 10
448.979078
 20
90.140997
 30
0.0
 42
0.791683
  0
VERTEX
  8
1
  5
C2
  6
CONTINUOUS
 62
7
 10
440.997824
 20
90.140897
 30
0.0
  0
VERTEX
  8
1
  5
C3
  6
CONTINUOUS
 62
7
 10
440.99782
 20
90.1409
 30
0.0
  0
VERTEX
  8
1
  5
C4
  6
CONTINUOUS
 62
7
 10
440.9974
 20
90.141
 30
0.0
  0
VERTEX
  8
1
  5
C5
  6
CONTINUOUS
 62
7
 10
440.997405
 20
90.140997
 30
0.0
 42
0.123106
  0
VERTEX
  8
1
  5
C6
  6
CONTINUOUS
 62
7
 10
440.997405
 20
75.140998
 30
0.0
  0
VERTEX
  8
1
  5
C7
  6
CONTINUOUS
 62
7
 10
440.9974
 20
75.141
 30
0.0
  0
VERTEX
  8
1
  5
C8
  6
CONTINUOUS
 62
7
 10
440.99782
 20
75.1411
 30
0.0
  0
VERTEX
  8
1
  5
C9
  6
CONTINUOUS
 62
7
 10
440.997824
 20
75.141096
 30
0.0
 42
0.791683
  0
VERTEX
  8
1
  5
CA
  6
CONTINUOUS
 62
7
 10
448.979078
 20
75.140997
 30
0.0
  0
VERTEX
  8
1
  5
CB
  6
CONTINUOUS
 62
7
 10
448.97908
 20
75.141
 30
0.0
  0
VERTEX
  8
1
  5
CC
  6
CONTINUOUS
 62
7
 10
463.4974
 20
75.141
 30
0.0
  0
VERTEX
  8
1
  5
CD
  6
CONTINUOUS
 62
7
 10
463.4974
 20
75.141
 30
0.0
  0
VERTEX
  8
1
  5
CE
  6
CONTINUOUS
 62
7
 10
463.4974
 20
68.16178
 30
0.0
  0
VERTEX
  8
1
  5
CF
  6
CONTINUOUS
 62
7
 10
463.497405
 20
68.161777
 30
0.0
 42
0.740121
  0
VERTEX
  8
1
  5
D0
  6
CONTINUOUS
 62
7
 10
470.997405
 20
65.870489
 30
0.0
  0
VERTEX
  8
1
  5
D1
  6
CONTINUOUS
 62
7
 10
470.997405
 20
65.870487
 30
0.0
 42
0.284079
  0
VERTEX
  8
1
  5
D2
  6
CONTINUOUS
 62
7
 10
485.997405
 20
75.140996
 30
0.0
  0
VERTEX
  8
1
  5
D3
  6
CONTINUOUS
 62
7
 10
485.9974
 20
75.141
 30
0.0
  0
VERTEX
  8
1
  5
D4
  6
CONTINUOUS
 62
7
 10
493.01574
 20
75.141
 30
0.0
  0
VERTEX
  8
1
  5
D5
  6
CONTINUOUS
 62
7
 10
493.015732
 20
75.140997
 30
0.0
 42
0.791592
  0
VERTEX
  8
1
  5
D6
  6
CONTINUOUS
 62
7
 10
500.996776
 20
75.140206
 30
0.0
  0
VERTEX
  8
1
  5
D7
  6
CONTINUOUS
 62
7
 10
500.99678
 20
75.14021
 30
0.0
  0
VERTEX
  8
1
  5
D8
  6
CONTINUOUS
 62
7
 10
500.9974
 20
75.141
 30
0.0
  0
VERTEX
  8
1
  5
D9
  6
CONTINUOUS
 62
7
 10
500.997405
 20
75.140996
 30
0.0
 42
0.123629
  0
VERTEX
  8
1
  5
DA
  6
CONTINUOUS
 62
7
 10
500.981873
 20
90.202855
 30
0.0
  0
VERTEX
  8
1
  5
DB
  6
CONTINUOUS
 62
7
 10
500.981873
 20
90.202855
 30
0.0
 42
0.785406
  0
VERTEX
  8
1
  5
DC
  6
CONTINUOUS
 62
7
 10
493.015663
 20
90.140701
 30
0.0
  0
VERTEX
  8
1
  5
DD
  6
CONTINUOUS
 62
7
 10
493.01566
 20
90.1407
 30
0.0
  0
VERTEX
  8
1
  5
DE
  6
CONTINUOUS
 62
7
 10
478.4974
 20
90.141
 30
0.0
  0
VERTEX
  8
1
  5
DF
  6
CONTINUOUS
 62
7
 10
478.4974
 20
90.141
 30
0.0
  0
VERTEX
  8
1
  5
E0
  6
CONTINUOUS
 62
7
 10
478.4974
 20
97.12022
 30
0.0
  0
VERTEX
  8
1
  5
E1
  6
CONTINUOUS
 62
7
 10
478.497405
 20
97.120217
 30
0.0
 42
0.740121
  0
VERTEX
  8
1
  5
E2
  6
CONTINUOUS
 62
7
 10
470.9974
 20
99.41151
 30
0.0
  0
VERTEX
  8
1
  5
E3
  6
CONTINUOUS
 62
7
 10
470.9974
 20
99.41151
 30
0.0
  0
SEQEND
  8
1
  5
E4
  0
POLYLINE
  8
1
  5
E6
  6
CONTINUOUS
 62
7
 10
0.0
 20
0.0
 30
0.0
 66
1
 70
0
  0
VERTEX
  8
1
  5
E7
  6
CONTINUOUS
 62
7
 10
467.9974
 20
165.141
 30
0.0
  0
VERTEX
  8
1
  5
E8
  6
CONTINUOUS
 62
7
 10
467.9974
 20
130.141
 30
0.0
  0
VERTEX
  8
1
  5
E9
  6
CONTINUOUS
 62
7
 10
467.997405
 20
123.63063
 30
0.0
 42
-0.364826
  0
VERTEX
  8
1
  5
EA
  6
CONTINUOUS
 62
7
 10
464.597165
 20
119.590786
 30
0.0
  0
VERTEX
  8
1
  5
EB
  6
CONTINUOUS
 62
7
 10
464.597165
 20
119.590786
 30
0.0
 42
0.841676
  0
VERTEX
  8
1
  5
EC
  6
CONTINUOUS
 62
7
 10
464.597165
 20
45.691208
 30
0.0
  0
VERTEX
  8
1
  5
ED
  6
CONTINUOUS
 62
7
 10
464.597165
 20
45.691208
 30
0.0
 42
-0.364826
  0
VERTEX
  8
1
  5
EE
  6
CONTINUOUS
 62
7
 10
467.997405
 20
41.651364
 30
0.0
  0
VERTEX
  8
1
  5
EF
  6
CONTINUOUS
 62
7
 10
467.9974
 20
41.65137
 30
0.0
  0
VERTEX
  8
1
  5
F0
  6
CONTINUOUS
 62
7
 10
467.9974
 20
0.141
 30
0.0
  0
SEQEND
  8
1
  5
F1
  0
POLYLINE
  8
1
  5
F3
  6
CONTINUOUS
 62
7
 10
0.0
 20
0.0
 30
0.0
 66
1
 70
0
  0
VERTEX
  8
1
  5
F4
  6
CONTINUOUS
 62
7
 10
473.9974
 20
0.141
 30
0.0
  0
VERTEX
  8
1
  5
F5
  6
CONTINUOUS
 62
7
 10
473.9974
 20
41.65137
 30
0.0
  0
VERTEX
  8
1
  5
F6
  6
CONTINUOUS
 62
7
 10
473.997405
 20
41.651364
 30
0.0
 42
-0.364826
  0
VERTEX
  8
1
  5
F7
  6
CONTINUOUS
 62
7
 10
477.397645
 20
45.691208
 30
0.0
  0
VERTEX
  8
1
  5
F8
  6
CONTINUOUS
 62
7
 10
477.397645
 20
45.691208
 30
0.0
 42
0.841676
  0
VERTEX
  8
1
  5
F9
  6
CONTINUOUS
 62
7
 10
477.397645
 20
119.590786
 30
0.0
  0
VERTEX
  8
1
  5
FA
  6
CONTINUOUS
 62
7
 10
477.397645
 20
119.590786
 30
0.0
 42
-0.364826
  0
VERTEX
  8
1
  5
FB
  6
CONTINUOUS
 62
7
 10
473.997405
 20
123.63063
 30
0.0
  0
VERTEX
  8
1
  5
FC
  6
CONTINUOUS
 62
7
 10
473.9974
 20
130.141
 30
0.0
  0
VERTEX
  8
1
  5
FD
  6
CONTINUOUS
 62
7
 10
473.9974
 20
165.141
 30
0.0
  0
SEQEND
  8
1
  5
FE
  0
ENDSEC
  0
EOF
