  0
SECTION
  2
HEADER
  9
$ACADVER
  1
AC1009
  9
$INSBASE
 10
0.0
 20
0.0
 30
0.0
  9
$EXTMIN
 10
-300.0000080382142187
 20
-307.251658602534917
 30
0.0
  9
$EXTMAX
 10
15189.5940318476295943
 20
7378.0207632720348556
 30
0.0
  9
$LIMMIN
 10
0.0
 20
0.0
  9
$LIMMAX
 10
12.0
 20
9.0
  9
$ORTHOMODE
 70
     0
  9
$REGENMODE
 70
     1
  9
$FILLMODE
 70
     1
  9
$QTEXTMODE
 70
     0
  9
$MIRRTEXT
 70
     1
  9
$DRAGMODE
 70
     2
  9
$LTSCALE
 40
1.0
  9
$OSMODE
 70
  4095
  9
$ATTMODE
 70
     1
  9
$TEXTSIZE
 40
0.2
  9
$TRACEWID
 40
0.05
  9
$TEXTSTYLE
  7
STANDARD
  9
$CLAYER
  8
TOP_CUTOUT_18MM_OUTSIDE
  9
$CELTYPE
  6
BYLAYER
  9
$CECOLOR
 62
   256
  9
$DIMSCALE
 40
1.0
  9
$DIMASZ
 40
0.18
  9
$DIMEXO
 40
0.0625
  9
$DIMDLI
 40
0.38
  9
$DIMRND
 40
0.0
  9
$DIMDLE
 40
0.0
  9
$DIMEXE
 40
0.18
  9
$DIMTP
 40
0.0
  9
$DIMTM
 40
0.0
  9
$DIMTXT
 40
0.18
  9
$DIMCEN
 40
0.09
  9
$DIMTSZ
 40
0.0
  9
$DIMTOL
 70
     0
  9
$DIMLIM
 70
     0
  9
$DIMTIH
 70
     1
  9
$DIMTOH
 70
     1
  9
$DIMSE1
 70
     0
  9
$DIMSE2
 70
     0
  9
$DIMTAD
 70
     0
  9
$DIMZIN
 70
     0
  9
$DIMBLK
  1

  9
$DIMASO
 70
     1
  9
$DIMSHO
 70
     1
  9
$DIMPOST
  1

  9
$DIMAPOST
  1

  9
$DIMALT
 70
     0
  9
$DIMALTD
 70
     2
  9
$DIMALTF
 40
25.3999999999999986
  9
$DIMLFAC
 40
1.0
  9
$DIMTOFL
 70
     0
  9
$DIMTVP
 40
0.0
  9
$DIMTIX
 70
     0
  9
$DIMSOXD
 70
     0
  9
$DIMSAH
 70
     0
  9
$DIMBLK1
  1

  9
$DIMBLK2
  1

  9
$DIMSTYLE
  2
STANDARD
  9
$DIMCLRD
 70
     0
  9
$DIMCLRE
 70
     0
  9
$DIMCLRT
 70
     0
  9
$DIMTFAC
 40
1.0
  9
$DIMGAP
 40
0.09
  9
$LUNITS
 70
     2
  9
$LUPREC
 70
     4
  9
$SKETCHINC
 40
0.1
  9
$FILLETRAD
 40
0.5
  9
$AUNITS
 70
     0
  9
$AUPREC
 70
     0
  9
$MENU
  1
.
  9
$ELEVATION
 40
0.0
  9
$PELEVATION
 40
0.0
  9
$THICKNESS
 40
0.0
  9
$LIMCHECK
 70
     0
  9
$BLIPMODE
 70
     0
  9
$CHAMFERA
 40
0.0
  9
$CHAMFERB
 40
0.0
  9
$SKPOLY
 70
     0
  9
$TDCREATE
 40
2457204.798958333209157
  9
$TDUPDATE
 40
2457210.5943189011886716
  9
$TDINDWG
 40
0.0036148264
  9
$TDUSRTIMER
 40
0.0036143403
  9
$USRTIMER
 70
     1
  9
$ANGBASE
 50
0.0
  9
$ANGDIR
 70
     0
  9
$PDMODE
 70
     0
  9
$PDSIZE
 40
0.0
  9
$PLINEWID
 40
0.0
  9
$COORDS
 70
     1
  9
$SPLFRAME
 70
     0
  9
$SPLINETYPE
 70
     6
  9
$SPLINESEGS
 70
     8
  9
$ATTDIA
 70
     1
  9
$ATTREQ
 70
     1
  9
$HANDLING
 70
     1
  9
$HANDSEED
  5
840
  9
$SURFTAB1
 70
     6
  9
$SURFTAB2
 70
     6
  9
$SURFTYPE
 70
     6
  9
$SURFU
 70
     6
  9
$SURFV
 70
     6
  9
$UCSNAME
  2

  9
$UCSORG
 10
0.0
 20
0.0
 30
0.0
  9
$UCSXDIR
 10
1.0
 20
0.0
 30
0.0
  9
$UCSYDIR
 10
0.0
 20
1.0
 30
0.0
  9
$PUCSNAME
  2

  9
$PUCSORG
 10
0.0
 20
0.0
 30
0.0
  9
$PUCSXDIR
 10
1.0
 20
0.0
 30
0.0
  9
$PUCSYDIR
 10
0.0
 20
1.0
 30
0.0
  9
$USERI1
 70
     0
  9
$USERI2
 70
     0
  9
$USERI3
 70
     0
  9
$USERI4
 70
     0
  9
$USERI5
 70
     0
  9
$USERR1
 40
0.0
  9
$USERR2
 40
0.0
  9
$USERR3
 40
0.0
  9
$USERR4
 40
0.0
  9
$USERR5
 40
0.0
  9
$WORLDVIEW
 70
     1
  9
$SHADEDGE
 70
     3
  9
$SHADEDIF
 70
    70
  9
$TILEMODE
 70
     1
  9
$MAXACTVP
 70
    64
  9
$PLIMCHECK
 70
     0
  9
$PEXTMIN
 10
1.0000000000000000E+20
 20
1.0000000000000000E+20
 30
1.0000000000000000E+20
  9
$PEXTMAX
 10
-1.0000000000000000E+20
 20
-1.0000000000000000E+20
 30
-1.0000000000000000E+20
  9
$PLIMMIN
 10
0.0
 20
0.0
  9
$PLIMMAX
 10
12.0
 20
9.0
  9
$UNITMODE
 70
     0
  9
$VISRETAIN
 70
     1
  9
$PLINEGEN
 70
     0
  9
$PSLTSCALE
 70
     1
  0
ENDSEC
  0
SECTION
  2
TABLES
  0
TABLE
  2
VPORT
 70
     1
  0
VPORT
  2
*ACTIVE
 70
     0
 10
0.0
 20
0.0
 11
1.0
 21
1.0
 12
4291.4781411628955539
 22
1848.2083424935240146
 13
0.0
 23
0.0
 14
0.5
 24
0.5
 15
0.5
 25
0.5
 16
0.0
 26
0.0
 36
1.0
 17
0.0
 27
0.0
 37
0.0
 40
6457.111312694379194
 41
1.71021377672209
 42
50.0
 43
0.0
 44
0.0
 50
0.0
 51
0.0
 71
     0
 72
   100
 73
     1
 74
     3
 75
     0
 76
     0
 77
     0
 78
     0
  0
ENDTAB
  0
TABLE
  2
LTYPE
 70
     2
  0
LTYPE
  2
CONTINUOUS
 70
     0
  3
Solid line
 72
    65
 73
     0
 40
0.0
  0
LTYPE
  2
DGN_STYLE_5
 70
     0
  3

 72
    65
 73
     2
 40
22.1794395642604414
 49
9.5054740989687616
 49
-12.6739654652916798
  0
ENDTAB
  0
TABLE
  2
LAYER
 70
     7
  0
LAYER
  2
0
 70
     0
 62
     7
  6
CONTINUOUS
  0
LAYER
  2
TOP_CUTOUT_18MM_OUTSIDE
 70
     0
 62
    31
  6
CONTINUOUS
  0
LAYER
  2
HOLE_6MM_DIAM_18MM_DEEP
 70
     0
 62
   220
  6
CONTINUOUS
  0
LAYER
  2
TOP_CUTOUT_18MM_INSIDE
 70
     0
 62
   173
  6
CONTINUOUS
  0
LAYER
  2
00-NOPRINT_TEXT
 70
     0
 62
     7
  6
CONTINUOUS
  0
LAYER
  2
00_NOPRINT_TOLERANCE
 70
     0
 62
     7
  6
DGN_STYLE_5
  0
LAYER
  2
BOARD_$TH-NOMINAL
 70
     0
 62
     3
  6
CONTINUOUS
  0
ENDTAB
  0
TABLE
  2
STYLE
 70
     7
  0
STYLE
  2
STANDARD
 70
     0
 40
0.0
 41
1.0
 50
0.0
 71
     0
 42
0.2
  3
txt
  4

  0
STYLE
  2
ANNOTATIVE
 70
     0
 40
0.0
 41
1.0
 50
0.0
 71
     0
 42
0.2
  3
txt
  4

  0
STYLE
  2
OD-SIMPLEX-20
 70
     0
 40
20.0
 41
1.0
 50
0.0
 71
     0
 42
20.0
  3
simplex.shx
  4

  0
STYLE
  2
OD-SIMPLEX-13
 70
     0
 40
13.0
 41
1.0
 50
0.0
 71
     0
 42
15.0
  3
simplex.shx
  4

  0
STYLE
  2
OD-SIMPLEX-25
 70
     0
 40
25.0
 41
1.0
 50
0.0
 71
     0
 42
25.0
  3
simplex.shx
  4

  0
STYLE
  2
OD-SIMPLEX-30
 70
     0
 40
30.0
 41
1.0
 50
0.0
 71
     0
 42
30.0
  3
simplex.shx
  4

  0
STYLE
  2
OD-ISOCP-17
 70
     0
 40
17.0
 41
1.0
 50
0.0
 71
     0
 42
17.0
  3
isocp.shx
  4

  0
ENDTAB
  0
TABLE
  2
VIEW
 70
     0
  0
ENDTAB
  0
TABLE
  2
UCS
 70
     0
  0
ENDTAB
  0
TABLE
  2
APPID
 70
     4
  0
APPID
  2
ACAD
 70
     0
  0
APPID
  2
ACADANNOTATIVE
 70
     0
  0
APPID
  2
ACAD_NAV_VCDISPLAY
 70
     0
  0
APPID
  2
ACAD_MLEADERVER
 70
     0
  0
ENDTAB
  0
TABLE
  2
DIMSTYLE
 70
     2
  0
DIMSTYLE
  2
STANDARD
 70
     0
  3

  4

  5

  6

  7

 40
1.0
 41
0.18
 42
0.0625
 43
0.38
 44
0.18
 45
0.0
 46
0.0
 47
0.0
 48
0.0
140
0.18
141
0.09
142
0.0
143
25.3999999999999986
144
1.0
145
0.0
146
1.0
147
0.09
 71
     0
 72
     0
 73
     1
 74
     1
 75
     0
 76
     0
 77
     0
 78
     0
170
     0
171
     2
172
     0
173
     0
174
     0
175
     0
176
     0
177
     0
178
     0
  0
DIMSTYLE
  2
ANNOTATIVE
 70
     0
  3

  4

  5

  6

  7

 40
1.0
 41
0.18
 42
0.0625
 43
0.38
 44
0.18
 45
0.0
 46
0.0
 47
0.0
 48
0.0
140
0.18
141
0.09
142
0.0
143
25.3999999999999986
144
1.0
145
0.0
146
1.0
147
0.09
 71
     0
 72
     0
 73
     1
 74
     1
 75
     0
 76
     0
 77
     0
 78
     0
170
     0
171
     2
172
     0
173
     0
174
     0
175
     0
176
     0
177
     0
178
     0
  0
ENDTAB
  0
ENDSEC
  0
SECTION
  2
BLOCKS
  0
BLOCK
  8
0
  2
$MODEL_SPACE
 70
     0
 10
0.0
 20
0.0
 30
0.0
  3
$MODEL_SPACE
  1

  0
ENDBLK
  5
365
  8
0
  0
BLOCK
 67
     1
  8
0
  2
$PAPER_SPACE
 70
     0
 10
0.0
 20
0.0
 30
0.0
  3
$PAPER_SPACE
  1

  0
ENDBLK
  5
361
 67
     1
  8
0
  0
BLOCK
  8
0
  2
_X0
 70
     0
 10
0.0
 20
0.0
 30
0.0
  3
_X0
  1

  0
TEXT
  5
1B4
  8
00-NOPRINT_TEXT
  6
CONTINUOUS
 10
5637.4480462928204361
 20
6137.6918885846544072
 30
0.0
 40
25.0
  1
30 / 06
  0
TEXT
  5
1B5
  8
00-NOPRINT_TEXT
  6
CONTINUOUS
 10
5640.1050981995304028
 20
6097.5312460143732096
 30
0.0
 40
25.0
  1
/15
  0
ENDBLK
  5
1B7
  8
0
  0
BLOCK
  8
0
  2
*X3
 70
     1
 10
0.0
 20
0.0
 30
0.0
  3
*X3
  1

  0
TEXT
  5
2F1
  8
00-NOPRINT_TEXT
  6
CONTINUOUS
 10
5737.3727199143404505
 20
6515.5417037644028824
 30
0.0
 40
13.0
  1
2440mm x
  0
TEXT
  5
2F2
  8
00-NOPRINT_TEXT
  6
CONTINUOUS
 10
5735.515577057198243
 20
6494.6581696278572053
 30
0.0
 40
13.0
  1
1220mm
  0
ENDBLK
  5
2F4
  8
0
  0
ENDSEC
  0
SECTION
  2
ENTITIES
  0
POLYLINE
  5
127
  8
TOP_CUTOUT_18MM_OUTSIDE
 66
     1
 10
0.0
 20
0.0
 30
0.0
 70
     1
  0
VERTEX
  5
51D
  8
TOP_CUTOUT_18MM_OUTSIDE
 10
244.5759336656938103
 20
3500.6914544053211102
 30
0.0
 42
0.4142135725969827
  0
VERTEX
  5
51E
  8
TOP_CUTOUT_18MM_OUTSIDE
 10
253.5759331944555015
 20
3491.6914536199237773
 30
0.0
  0
VERTEX
  5
51F
  8
TOP_CUTOUT_18MM_OUTSIDE
 10
271.1562551944552979
 20
3491.6914536199251415
 30
0.0
 42
0.3948374641655323
  0
VERTEX
  5
520
  8
TOP_CUTOUT_18MM_OUTSIDE
 10
280.1363004184694887
 20
3500.0924575947638004
 30
0.0
  0
VERTEX
  5
521
  8
TOP_CUTOUT_18MM_OUTSIDE
 10
301.387871188679128
 20
3818.6925364899470878
 30
0.0
 42
-0.3948374490351506
  0
VERTEX
  5
522
  8
TOP_CUTOUT_18MM_OUTSIDE
 10
349.6458161333011958
 20
3863.8387736199238134
 30
0.0
  0
VERTEX
  5
523
  8
TOP_CUTOUT_18MM_OUTSIDE
 10
449.5759336656938103
 20
3863.8387616199252079
 30
0.0
  0
VERTEX
  5
524
  8
TOP_CUTOUT_18MM_OUTSIDE
 10
549.506045133297448
 20
3863.8387736199238134
 30
0.0
 42
-0.3948374641655987
  0
VERTEX
  5
525
  8
TOP_CUTOUT_18MM_OUTSIDE
 10
597.763994974164234
 20
3818.6925390167298247
 30
0.0
  0
VERTEX
  5
526
  8
TOP_CUTOUT_18MM_OUTSIDE
 10
619.0155658815547213
 20
3500.0924580649570999
 30
0.0
 42
0.3948374490351672
  0
VERTEX
  5
527
  8
TOP_CUTOUT_18MM_OUTSIDE
 10
627.9956101944552529
 20
3491.6914536199237773
 30
0.0
  0
VERTEX
  5
528
  8
TOP_CUTOUT_18MM_OUTSIDE
 10
645.575872194454746
 20
3491.6914536199237773
 30
0.0
 42
0.4142135777089093
  0
VERTEX
  5
529
  8
TOP_CUTOUT_18MM_OUTSIDE
 10
654.5758726656931685
 20
3500.6914536199251415
 30
0.0
  0
VERTEX
  5
52A
  8
TOP_CUTOUT_18MM_OUTSIDE
 10
654.5758726656931685
 20
3786.6853496199228175
 30
0.0
  0
VERTEX
  5
52B
  8
TOP_CUTOUT_18MM_OUTSIDE
 10
642.2327269151865039
 20
3786.6853496199260007
 30
0.0
 42
-1.0000000000000191
  0
VERTEX
  5
52C
  8
TOP_CUTOUT_18MM_OUTSIDE
 10
636.5758726656949875
 20
3792.3422038694161529
 30
0.0
  0
VERTEX
  5
52D
  8
TOP_CUTOUT_18MM_OUTSIDE
 10
636.5758726656930548
 20
3930.8387616199252079
 30
0.0
  0
VERTEX
  5
52E
  8
TOP_CUTOUT_18MM_OUTSIDE
 10
262.5759336656938103
 20
3930.8387616199252079
 30
0.0
  0
VERTEX
  5
52F
  8
TOP_CUTOUT_18MM_OUTSIDE
 10
262.5759336656938103
 20
3792.3422038694170624
 30
0.0
 42
-1.000000000000079
  0
VERTEX
  5
530
  8
TOP_CUTOUT_18MM_OUTSIDE
 10
256.9190794162022939
 20
3786.6853496199228175
 30
0.0
  0
VERTEX
  5
531
  8
TOP_CUTOUT_18MM_OUTSIDE
 10
244.5759336656938103
 20
3786.6853496199228175
 30
0.0
  0
SEQEND
  5
532
  8
TOP_CUTOUT_18MM_OUTSIDE
  0
CIRCLE
  5
13E
  8
HOLE_6MM_DIAM_18MM_DEEP
 10
906.7952205753099406
 20
3336.8154551353209172
 30
0.0
 40
3.0
  0
CIRCLE
  5
13F
  8
HOLE_6MM_DIAM_18MM_DEEP
 10
789.4785095753086352
 20
3031.4021251353228763
 30
0.0
 40
3.0
  0
CIRCLE
  5
140
  8
HOLE_6MM_DIAM_18MM_DEEP
 10
974.1450745753099909
 20
3356.127711135321988
 30
0.0
 40
3.0
  0
CIRCLE
  5
141
  8
HOLE_6MM_DIAM_18MM_DEEP
 10
789.4785095753086352
 20
3346.1629431353221662
 30
0.0
 40
3.0
  0
CIRCLE
  5
142
  8
HOLE_6MM_DIAM_18MM_DEEP
 10
849.297906575309753
 20
3066.5862071353230931
 30
0.0
 40
3.0
  0
CIRCLE
  5
143
  8
HOLE_6MM_DIAM_18MM_DEEP
 10
723.9148495753088355
 20
3361.2994941353231297
 30
0.0
 40
3.0
  0
CIRCLE
  5
144
  8
HOLE_6MM_DIAM_18MM_DEEP
 10
849.297906575309753
 20
3277.7676721353218454
 30
0.0
 40
3.0
  0
CIRCLE
  5
145
  8
HOLE_6MM_DIAM_18MM_DEEP
 10
723.9148495753088355
 20
3016.2655591353232012
 30
0.0
 40
3.0
  0
POLYLINE
  5
146
  8
TOP_CUTOUT_18MM_OUTSIDE
 66
     1
 10
0.0
 20
0.0
 30
0.0
 70
     1
  0
VERTEX
  5
533
  8
TOP_CUTOUT_18MM_OUTSIDE
 10
843.2969266418276675
 20
3034.590321604050132
 30
0.0
 42
0.349215623630674
  0
VERTEX
  5
534
  8
TOP_CUTOUT_18MM_OUTSIDE
 10
858.797906575309753
 20
3054.0777213899928029
 30
0.0
  0
VERTEX
  5
535
  8
TOP_CUTOUT_18MM_OUTSIDE
 10
858.797906575309753
 20
3283.547587135321919
 30
0.0
 42
-0.3345953097984663
  0
VERTEX
  5
536
  8
TOP_CUTOUT_18MM_OUTSIDE
 10
887.7724110004545537
 20
3321.998054587992101
 30
0.0
  0
VERTEX
  5
537
  8
TOP_CUTOUT_18MM_OUTSIDE
 10
996.3122495753085559
 20
3353.1213481353211137
 30
0.0
  0
VERTEX
  5
538
  8
TOP_CUTOUT_18MM_OUTSIDE
 10
991.3507625753100001
 20
3370.4240521353231088
 30
0.0
  0
VERTEX
  5
539
  8
TOP_CUTOUT_18MM_OUTSIDE
 10
909.5744814644366443
 20
3346.975078466190098
 30
0.0
 42
-0.1272160680011995
  0
VERTEX
  5
53A
  8
TOP_CUTOUT_18MM_OUTSIDE
 10
834.4862199745311955
 20
3345.0088218286400661
 30
0.0
  0
VERTEX
  5
53B
  8
TOP_CUTOUT_18MM_OUTSIDE
 10
703.4395075753089941
 20
3375.263346135322081
 30
0.0
  0
VERTEX
  5
53C
  8
TOP_CUTOUT_18MM_OUTSIDE
 10
699.3903745753086696
 20
3357.7246801353230694
 30
0.0
  0
VERTEX
  5
53D
  8
TOP_CUTOUT_18MM_OUTSIDE
 10
756.7939868413650402
 20
3344.4720162604180587
 30
0.0
 42
-0.3492156236305513
  0
VERTEX
  5
53E
  8
TOP_CUTOUT_18MM_OUTSIDE
 10
818.797906575307934
 20
3266.5224171166610176
 30
0.0
  0
VERTEX
  5
53F
  8
TOP_CUTOUT_18MM_OUTSIDE
 10
818.797906575307934
 20
3111.0426361540048674
 30
0.0
 42
-0.3492156236307085
  0
VERTEX
  5
540
  8
TOP_CUTOUT_18MM_OUTSIDE
 10
756.793986841385049
 20
3033.0930370102310007
 30
0.0
  0
VERTEX
  5
541
  8
TOP_CUTOUT_18MM_OUTSIDE
 10
696.1820005753088481
 20
3019.0996341353220487
 30
0.0
  0
VERTEX
  5
542
  8
TOP_CUTOUT_18MM_OUTSIDE
 10
700.2311335753091726
 20
3001.5609991353230726
 30
0.0
  0
SEQEND
  5
543
  8
TOP_CUTOUT_18MM_OUTSIDE
  0
POLYLINE
  5
158
  8
TOP_CUTOUT_18MM_OUTSIDE
 66
     1
 10
0.0
 20
0.0
 30
0.0
 70
     1
  0
VERTEX
  5
544
  8
TOP_CUTOUT_18MM_OUTSIDE
 10
589.4746866398089651
 20
2863.7769086061739472
 30
0.0
  0
VERTEX
  5
545
  8
TOP_CUTOUT_18MM_OUTSIDE
 10
606.9746869016089477
 20
2863.7769086061739472
 30
0.0
  0
VERTEX
  5
546
  8
TOP_CUTOUT_18MM_OUTSIDE
 10
606.9746869016089477
 20
3170.9675841769671933
 30
0.0
 42
0.4142135725970305
  0
VERTEX
  5
547
  8
TOP_CUTOUT_18MM_OUTSIDE
 10
576.974684283615602
 20
3200.9675826061720727
 30
0.0
  0
VERTEX
  5
548
  8
TOP_CUTOUT_18MM_OUTSIDE
 10
262.9746895196021796
 20
3200.9675826061720727
 30
0.0
 42
0.4142135725971657
  0
VERTEX
  5
549
  8
TOP_CUTOUT_18MM_OUTSIDE
 10
232.9746869016088908
 20
3170.9675841769690123
 30
0.0
  0
VERTEX
  5
54A
  8
TOP_CUTOUT_18MM_OUTSIDE
 10
232.9746869016088908
 20
2863.7769086061739472
 30
0.0
  0
VERTEX
  5
54B
  8
TOP_CUTOUT_18MM_OUTSIDE
 10
250.4746866398108978
 20
2863.7769086061739472
 30
0.0
 42
-0.4142135725970606
  0
VERTEX
  5
54C
  8
TOP_CUTOUT_18MM_OUTSIDE
 10
253.4746869016088908
 20
2860.7769087632527771
 30
0.0
  0
VERTEX
  5
54D
  8
TOP_CUTOUT_18MM_OUTSIDE
 10
253.4746869016088908
 20
2840.9675836533751863
 30
0.0
 42
0.4142135777089539
  0
VERTEX
  5
54E
  8
TOP_CUTOUT_18MM_OUTSIDE
 10
273.4746869016053097
 20
2820.9675826061720727
 30
0.0
  0
VERTEX
  5
54F
  8
TOP_CUTOUT_18MM_OUTSIDE
 10
566.4746869016089477
 20
2820.9675826061720727
 30
0.0
 42
0.414213577708793
  0
VERTEX
  5
550
  8
TOP_CUTOUT_18MM_OUTSIDE
 10
586.4746869016089477
 20
2840.967583653370184
 30
0.0
  0
VERTEX
  5
551
  8
TOP_CUTOUT_18MM_OUTSIDE
 10
586.4746869016089477
 20
2860.7769087632527771
 30
0.0
 42
-0.4142135214775167
  0
SEQEND
  5
552
  8
TOP_CUTOUT_18MM_OUTSIDE
  0
POLYLINE
  5
168
  8
TOP_CUTOUT_18MM_INSIDE
 66
     1
 10
0.0
 20
0.0
 30
0.0
 70
     1
  0
VERTEX
  5
553
  8
TOP_CUTOUT_18MM_INSIDE
 10
661.8559653108912926
 20
2927.5682670827959555
 30
0.0
  0
VERTEX
  5
554
  8
TOP_CUTOUT_18MM_INSIDE
 10
661.8559653108912926
 20
2872.5682670827918628
 30
0.0
 42
0.4142135725970303
  0
VERTEX
  5
555
  8
TOP_CUTOUT_18MM_INSIDE
 10
681.8559642636937497
 20
2852.5682653374628899
 30
0.0
  0
VERTEX
  5
556
  8
TOP_CUTOUT_18MM_INSIDE
 10
975.8559642636992066
 20
2852.5682653374628899
 30
0.0
 42
0.4142135777087713
  0
VERTEX
  5
557
  8
TOP_CUTOUT_18MM_INSIDE
 10
995.8559653108912926
 20
2872.5682653374678921
 30
0.0
  0
VERTEX
  5
558
  8
TOP_CUTOUT_18MM_INSIDE
 10
995.8559653108912926
 20
2927.5682653374628899
 30
0.0
 42
0.4142135777089277
  0
VERTEX
  5
559
  8
TOP_CUTOUT_18MM_INSIDE
 10
975.8559642636937497
 20
2947.5682653374628899
 30
0.0
  0
VERTEX
  5
55A
  8
TOP_CUTOUT_18MM_INSIDE
 10
681.8559642636992066
 20
2947.5682653374610709
 30
0.0
 42
0.4142135214773647
  0
SEQEND
  5
55B
  8
TOP_CUTOUT_18MM_INSIDE
  0
POLYLINE
  5
172
  8
TOP_CUTOUT_18MM_OUTSIDE
 66
     1
 10
0.0
 20
0.0
 30
0.0
 70
     1
  0
VERTEX
  5
55C
  8
TOP_CUTOUT_18MM_OUTSIDE
 10
587.1565008286905822
 20
3221.3460914938300448
 30
0.0
  0
VERTEX
  5
55D
  8
TOP_CUTOUT_18MM_OUTSIDE
 10
571.7139348286908671
 20
3288.2351294938298452
 30
0.0
  0
VERTEX
  5
55E
  8
TOP_CUTOUT_18MM_OUTSIDE
 10
299.1226338286905957
 20
3288.2351294938298452
 30
0.0
  0
VERTEX
  5
55F
  8
TOP_CUTOUT_18MM_OUTSIDE
 10
283.6800608286920919
 20
3221.3460914938300448
 30
0.0
  0
VERTEX
  5
560
  8
TOP_CUTOUT_18MM_OUTSIDE
 10
293.8074948807824853
 20
3219.0079135843279801
 30
0.0
 42
0.3043891499192805
  0
VERTEX
  5
561
  8
TOP_CUTOUT_18MM_OUTSIDE
 10
303.5980048422551931
 20
3222.7385903004769716
 30
0.0
  0
VERTEX
  5
562
  8
TOP_CUTOUT_18MM_OUTSIDE
 10
325.5903995047538046
 20
3253.8210915804302203
 30
0.0
 42
-0.2433979922400471
  0
VERTEX
  5
563
  8
TOP_CUTOUT_18MM_OUTSIDE
 10
343.783423828690502
 20
3263.2350924938291428
 30
0.0
  0
VERTEX
  5
564
  8
TOP_CUTOUT_18MM_OUTSIDE
 10
435.4182868286915777
 20
3263.2351294938298452
 30
0.0
  0
VERTEX
  5
565
  8
TOP_CUTOUT_18MM_OUTSIDE
 10
527.0531528286919638
 20
3263.2350924938291428
 30
0.0
 42
-0.2433979922401256
  0
VERTEX
  5
566
  8
TOP_CUTOUT_18MM_OUTSIDE
 10
545.2461771526250232
 20
3253.8210915804361321
 30
0.0
  0
VERTEX
  5
567
  8
TOP_CUTOUT_18MM_OUTSIDE
 10
567.2385638151263265
 20
3222.7385903004801548
 30
0.0
 42
0.3043891499190526
  0
VERTEX
  5
568
  8
TOP_CUTOUT_18MM_OUTSIDE
 10
577.0290737765953963
 20
3219.0079135843270706
 30
0.0
  0
SEQEND
  5
569
  8
TOP_CUTOUT_18MM_OUTSIDE
  0
POLYLINE
  5
181
  8
TOP_CUTOUT_18MM_OUTSIDE
 66
     1
 10
0.0
 20
0.0
 30
0.0
 70
     1
  0
VERTEX
  5
56A
  8
TOP_CUTOUT_18MM_OUTSIDE
 10
285.9798307599011764
 20
3378.2155244448517806
 30
0.0
  0
VERTEX
  5
56B
  8
TOP_CUTOUT_18MM_OUTSIDE
 10
301.4223967599010052
 20
3311.3264864448519802
 30
0.0
  0
VERTEX
  5
56C
  8
TOP_CUTOUT_18MM_OUTSIDE
 10
574.0136897599021495
 20
3311.3264864448519802
 30
0.0
  0
VERTEX
  5
56D
  8
TOP_CUTOUT_18MM_OUTSIDE
 10
589.4562557599018646
 20
3378.2155244448517806
 30
0.0
  0
VERTEX
  5
56E
  8
TOP_CUTOUT_18MM_OUTSIDE
 10
579.3288437078081188
 20
3380.5537023543511168
 30
0.0
 42
0.3043891499192362
  0
VERTEX
  5
56F
  8
TOP_CUTOUT_18MM_OUTSIDE
 10
569.53833374633723
 20
3376.8230256382030348
 30
0.0
  0
VERTEX
  5
570
  8
TOP_CUTOUT_18MM_OUTSIDE
 10
547.5459480838399031
 20
3345.7405243582520598
 30
0.0
 42
-0.2433979922400407
  0
VERTEX
  5
571
  8
TOP_CUTOUT_18MM_OUTSIDE
 10
529.3529237599012731
 20
3336.3265234448517731
 30
0.0
  0
VERTEX
  5
572
  8
TOP_CUTOUT_18MM_OUTSIDE
 10
437.7180507599023258
 20
3336.3264864448519802
 30
0.0
  0
VERTEX
  5
573
  8
TOP_CUTOUT_18MM_OUTSIDE
 10
346.083185759902392
 20
3336.3265234448517731
 30
0.0
 42
-0.2433979922401003
  0
VERTEX
  5
574
  8
TOP_CUTOUT_18MM_OUTSIDE
 10
327.8901614359655809
 20
3345.740524358247967
 30
0.0
  0
VERTEX
  5
575
  8
TOP_CUTOUT_18MM_OUTSIDE
 10
305.8977677734674216
 20
3376.8230256382012158
 30
0.0
 42
0.3043891499190722
  0
VERTEX
  5
576
  8
TOP_CUTOUT_18MM_OUTSIDE
 10
296.1072578119947138
 20
3380.5537023543511168
 30
0.0
  0
SEQEND
  5
577
  8
TOP_CUTOUT_18MM_OUTSIDE
  0
POLYLINE
  5
190
  8
TOP_CUTOUT_18MM_OUTSIDE
 66
     1
 10
0.0
 20
0.0
 30
0.0
 70
     1
  0
VERTEX
  5
578
  8
TOP_CUTOUT_18MM_OUTSIDE
 10
813.4304945878684521
 20
3558.3133464268212265
 30
0.0
 42
-0.3492156383169618
  0
VERTEX
  5
579
  8
TOP_CUTOUT_18MM_OUTSIDE
 10
797.9295153346264442
 20
3577.8007478010490559
 30
0.0
  0
VERTEX
  5
57A
  8
TOP_CUTOUT_18MM_OUTSIDE
 10
797.9295153346247389
 20
3807.2705783103901922
 30
0.0
 42
0.3345953389093226
  0
VERTEX
  5
57B
  8
TOP_CUTOUT_18MM_OUTSIDE
 10
768.9550102383926742
 20
3845.7210494461501185
 30
0.0
  0
VERTEX
  5
57C
  8
TOP_CUTOUT_18MM_OUTSIDE
 10
660.4152333346263504
 20
3876.8443428010491516
 30
0.0
  0
VERTEX
  5
57D
  8
TOP_CUTOUT_18MM_OUTSIDE
 10
665.3766593346261971
 20
3894.1470468010479635
 30
0.0
  0
VERTEX
  5
57E
  8
TOP_CUTOUT_18MM_OUTSIDE
 10
747.152937928940446
 20
3870.6980738535298769
 30
0.0
 42
0.1272160635670583
  0
VERTEX
  5
57F
  8
TOP_CUTOUT_18MM_OUTSIDE
 10
822.2411968335381971
 20
3868.7318153165060721
 30
0.0
  0
VERTEX
  5
580
  8
TOP_CUTOUT_18MM_OUTSIDE
 10
953.2879133346250455
 20
3898.9863408010469357
 30
0.0
  0
VERTEX
  5
581
  8
TOP_CUTOUT_18MM_OUTSIDE
 10
957.3369863346269995
 20
3881.4476748010488336
 30
0.0
  0
VERTEX
  5
582
  8
TOP_CUTOUT_18MM_OUTSIDE
 10
899.9334323475976589
 20
3868.1950102979581061
 30
0.0
 42
0.3492156383170001
  0
VERTEX
  5
583
  8
TOP_CUTOUT_18MM_OUTSIDE
 10
837.9295153346265579
 20
3790.2454048010517909
 30
0.0
  0
VERTEX
  5
584
  8
TOP_CUTOUT_18MM_OUTSIDE
 10
837.9295153346246252
 20
3634.7656528010488728
 30
0.0
 42
0.3492156383169912
  0
VERTEX
  5
585
  8
TOP_CUTOUT_18MM_OUTSIDE
 10
899.9334323475942483
 20
3556.8160473041389196
 30
0.0
  0
VERTEX
  5
586
  8
TOP_CUTOUT_18MM_OUTSIDE
 10
960.5454213346256438
 20
3542.8226598010478483
 30
0.0
  0
VERTEX
  5
587
  8
TOP_CUTOUT_18MM_OUTSIDE
 10
956.4962873346266861
 20
3525.2839938010488368
 30
0.0
  0
SEQEND
  5
588
  8
TOP_CUTOUT_18MM_OUTSIDE
  0
CIRCLE
  5
1A2
  8
HOLE_6MM_DIAM_18MM_DEEP
 10
932.8125723346256564
 20
3885.022488801047075
 30
0.0
 40
3.0
  0
CIRCLE
  5
1A3
  8
HOLE_6MM_DIAM_18MM_DEEP
 10
867.2489123346258566
 20
3869.8859378010488399
 30
0.0
 40
3.0
  0
CIRCLE
  5
1A4
  8
HOLE_6MM_DIAM_18MM_DEEP
 10
682.5823473346263199
 20
3879.8507058010491164
 30
0.0
 40
3.0
  0
CIRCLE
  5
1A5
  8
HOLE_6MM_DIAM_18MM_DEEP
 10
807.4295153346265579
 20
3801.4906588010480846
 30
0.0
 40
3.0
  0
CIRCLE
  5
1A6
  8
HOLE_6MM_DIAM_18MM_DEEP
 10
807.4295153346265579
 20
3590.3092018010479478
 30
0.0
 40
3.0
  0
CIRCLE
  5
1A7
  8
HOLE_6MM_DIAM_18MM_DEEP
 10
867.2489123346258566
 20
3555.1250888010490598
 30
0.0
 40
3.0
  0
CIRCLE
  5
1A8
  8
HOLE_6MM_DIAM_18MM_DEEP
 10
932.8125723346256564
 20
3539.9885538010489654
 30
0.0
 40
3.0
  0
CIRCLE
  5
1A9
  8
HOLE_6MM_DIAM_18MM_DEEP
 10
749.9322013346262565
 20
3860.5384498010480456
 30
0.0
 40
3.0
  0
CIRCLE
  5
1AA
  8
HOLE_6MM_DIAM_18MM_DEEP
 10
569.5759336656938103
 20
3878.3888106199237882
 30
0.0
 40
3.0
  0
CIRCLE
  5
1AB
  8
HOLE_6MM_DIAM_18MM_DEEP
 10
329.5759336656938103
 20
3917.2639936199229851
 30
0.0
 40
3.0
  0
CIRCLE
  5
1AC
  8
HOLE_6MM_DIAM_18MM_DEEP
 10
329.5759336656938103
 20
3878.3888106199237882
 30
0.0
 40
3.0
  0
CIRCLE
  5
1AD
  8
HOLE_6MM_DIAM_18MM_DEEP
 10
569.5759336656938103
 20
3917.2639936199229851
 30
0.0
 40
3.0
  0
CIRCLE
  5
2BA
  8
HOLE_6MM_DIAM_18MM_DEEP
 10
402.87973996775861
 20
3407.9290121633212038
 30
0.0
 40
3.0
  0
CIRCLE
  5
2BB
  8
HOLE_6MM_DIAM_18MM_DEEP
 10
642.8797399677587237
 20
3446.8041951633208555
 30
0.0
 40
3.0
  0
CIRCLE
  5
2BC
  8
HOLE_6MM_DIAM_18MM_DEEP
 10
642.8797399677587237
 20
3407.9290121633212038
 30
0.0
 40
3.0
  0
CIRCLE
  5
2BD
  8
HOLE_6MM_DIAM_18MM_DEEP
 10
402.87973996775861
 20
3446.8041951633208555
 30
0.0
 40
3.0
  0
POLYLINE
  5
2BE
  8
TOP_CUTOUT_18MM_OUTSIDE
 66
     1
 10
0.0
 20
0.0
 30
0.0
 70
     1
  0
VERTEX
  5
589
  8
TOP_CUTOUT_18MM_OUTSIDE
 10
727.87973996775861
 20
3824.5015513779230787
 30
0.0
 42
0.4142135725969962
  0
VERTEX
  5
58A
  8
TOP_CUTOUT_18MM_OUTSIDE
 10
718.8797404389988515
 20
3833.5015521633208664
 30
0.0
  0
VERTEX
  5
58B
  8
TOP_CUTOUT_18MM_OUTSIDE
 10
701.2994184389990551
 20
3833.5015521633199569
 30
0.0
 42
0.3948374641655994
  0
VERTEX
  5
58C
  8
TOP_CUTOUT_18MM_OUTSIDE
 10
692.3193732149846937
 20
3825.1005481884822075
 30
0.0
  0
VERTEX
  5
58D
  8
TOP_CUTOUT_18MM_OUTSIDE
 10
671.067802444773406
 20
3506.5004692932971011
 30
0.0
 42
-0.3948374490351562
  0
VERTEX
  5
58E
  8
TOP_CUTOUT_18MM_OUTSIDE
 10
622.8098575001530435
 20
3461.3542321633208303
 30
0.0
  0
VERTEX
  5
58F
  8
TOP_CUTOUT_18MM_OUTSIDE
 10
522.8797399677587237
 20
3461.354244163318981
 30
0.0
  0
VERTEX
  5
590
  8
TOP_CUTOUT_18MM_OUTSIDE
 10
422.9496285001549722
 20
3461.3542321633199208
 30
0.0
 42
-0.3948374641655822
  0
VERTEX
  5
591
  8
TOP_CUTOUT_18MM_OUTSIDE
 10
374.6916786592883
 20
3506.5004667665161833
 30
0.0
  0
VERTEX
  5
592
  8
TOP_CUTOUT_18MM_OUTSIDE
 10
353.4401077518978127
 20
3825.1005477182879986
 30
0.0
 42
0.3948374490351589
  0
VERTEX
  5
593
  8
TOP_CUTOUT_18MM_OUTSIDE
 10
344.4600634389989864
 20
3833.5015521633208664
 30
0.0
  0
VERTEX
  5
594
  8
TOP_CUTOUT_18MM_OUTSIDE
 10
326.8798014389976743
 20
3833.5015521633208664
 30
0.0
 42
0.4142135777089134
  0
VERTEX
  5
595
  8
TOP_CUTOUT_18MM_OUTSIDE
 10
317.8798009677594223
 20
3824.5015521633199569
 30
0.0
  0
VERTEX
  5
596
  8
TOP_CUTOUT_18MM_OUTSIDE
 10
317.8798009677594223
 20
3538.5076561633209167
 30
0.0
  0
VERTEX
  5
597
  8
TOP_CUTOUT_18MM_OUTSIDE
 10
330.2229467182659732
 20
3538.5076561633209167
 30
0.0
 42
-1.00000000000028
  0
VERTEX
  5
598
  8
TOP_CUTOUT_18MM_OUTSIDE
 10
335.8798009677594223
 20
3532.850801913828036
 30
0.0
  0
VERTEX
  5
599
  8
TOP_CUTOUT_18MM_OUTSIDE
 10
335.8798009677594223
 20
3394.3542441633198905
 30
0.0
  0
VERTEX
  5
59A
  8
TOP_CUTOUT_18MM_OUTSIDE
 10
709.8797399677587237
 20
3394.3542441633198905
 30
0.0
  0
VERTEX
  5
59B
  8
TOP_CUTOUT_18MM_OUTSIDE
 10
709.8797399677605426
 20
3532.850801913828036
 30
0.0
 42
-1.0
  0
VERTEX
  5
59C
  8
TOP_CUTOUT_18MM_OUTSIDE
 10
715.536594217252059
 20
3538.5076561633209167
 30
0.0
  0
VERTEX
  5
59D
  8
TOP_CUTOUT_18MM_OUTSIDE
 10
727.87973996775861
 20
3538.5076561633209167
 30
0.0
  0
SEQEND
  5
59E
  8
TOP_CUTOUT_18MM_OUTSIDE
  0
POLYLINE
  5
2D5
  8
TOP_CUTOUT_18MM_OUTSIDE
 66
     1
 10
0.0
 20
0.0
 30
0.0
 70
     1
  0
VERTEX
  5
59F
  8
TOP_CUTOUT_18MM_OUTSIDE
 10
641.8559653108914063
 20
3243.8441513374627903
 30
0.0
  0
VERTEX
  5
5A0
  8
TOP_CUTOUT_18MM_OUTSIDE
 10
661.8559653108912926
 20
3243.8441513374627903
 30
0.0
  0
VERTEX
  5
5A1
  8
TOP_CUTOUT_18MM_OUTSIDE
 10
661.8559653108912926
 20
3002.568263592132098
 30
0.0
 42
0.4142135214775133
  0
VERTEX
  5
5A2
  8
TOP_CUTOUT_18MM_OUTSIDE
 10
681.8559642636937497
 20
2982.5682653374628899
 30
0.0
  0
VERTEX
  5
5A3
  8
TOP_CUTOUT_18MM_OUTSIDE
 10
975.8559642636992066
 20
2982.5682653374628899
 30
0.0
 42
0.4142135777087975
  0
VERTEX
  5
5A4
  8
TOP_CUTOUT_18MM_OUTSIDE
 10
995.8559653108912926
 20
3002.5682653374678921
 30
0.0
  0
VERTEX
  5
5A5
  8
TOP_CUTOUT_18MM_OUTSIDE
 10
995.8559653108912926
 20
3243.8441513374627903
 30
0.0
  0
VERTEX
  5
5A6
  8
TOP_CUTOUT_18MM_OUTSIDE
 10
1015.8559653108909515
 20
3243.8441513374627903
 30
0.0
  0
VERTEX
  5
5A7
  8
TOP_CUTOUT_18MM_OUTSIDE
 10
1015.8559653108909515
 20
3079.9320895869541346
 30
0.0
 42
0.9999999999997989
  0
VERTEX
  5
5A8
  8
TOP_CUTOUT_18MM_OUTSIDE
 10
1021.512819560384969
 20
3074.2752353374630729
 30
0.0
  0
VERTEX
  5
5A9
  8
TOP_CUTOUT_18MM_OUTSIDE
 10
1033.8559653108909515
 20
3074.2752353374630729
 30
0.0
  0
VERTEX
  5
5AA
  8
TOP_CUTOUT_18MM_OUTSIDE
 10
1033.8559653108909515
 20
2852.5682653374710753
 30
0.0
 42
-0.4142135777089421
  0
VERTEX
  5
5AB
  8
TOP_CUTOUT_18MM_OUTSIDE
 10
998.8559634783068759
 20
2817.5682653374628899
 30
0.0
  0
VERTEX
  5
5AC
  8
TOP_CUTOUT_18MM_OUTSIDE
 10
658.8559634782958483
 20
2817.5682653374628899
 30
0.0
 42
-0.4142135470372352
  0
VERTEX
  5
5AD
  8
TOP_CUTOUT_18MM_OUTSIDE
 10
623.8559653108914063
 20
2852.5682653374628899
 30
0.0
  0
VERTEX
  5
5AE
  8
TOP_CUTOUT_18MM_OUTSIDE
 10
623.8559653108914063
 20
3074.2752353374630729
 30
0.0
  0
VERTEX
  5
5AF
  8
TOP_CUTOUT_18MM_OUTSIDE
 10
636.1991110613998899
 20
3074.2752353374630729
 30
0.0
 42
1.00000000000026
  0
VERTEX
  5
5B0
  8
TOP_CUTOUT_18MM_OUTSIDE
 10
641.8559653108932253
 20
3079.9320895869541346
 30
0.0
  0
SEQEND
  5
5B1
  8
TOP_CUTOUT_18MM_OUTSIDE
  0
POLYLINE
  5
414
  8
00-NOPRINT_TEXT
 66
     1
 10
0.0
 20
0.0
 30
0.0
 70
   128
  0
VERTEX
  5
6D1
  8
00-NOPRINT_TEXT
 10
2.9746869016089472
 20
-307.251658602534917
 30
0.0
  0
VERTEX
  5
6D2
  8
00-NOPRINT_TEXT
 10
2.9746869016089472
 20
-7.2516586025335519
 30
0.0
  0
VERTEX
  5
6D3
  8
00-NOPRINT_TEXT
 10
-297.0253130983909955
 20
-7.2516586025321876
 30
0.0
  0
SEQEND
  5
6D4
  8
00-NOPRINT_TEXT
  0
POLYLINE
  5
415
  8
00-NOPRINT_TEXT
 66
     1
 10
0.0
 20
0.0
 30
0.0
 70
   129
  0
VERTEX
  5
6D5
  8
00-NOPRINT_TEXT
 10
2.9746869867467458
 20
4150.7483415161441371
 30
0.0
  0
VERTEX
  5
6D6
  8
00-NOPRINT_TEXT
 10
5882.9746869016071287
 20
4150.748341397466902
 30
0.0
  0
VERTEX
  5
6D7
  8
00-NOPRINT_TEXT
 10
5882.9746868178417571
 20
-7.2516587225768481
 30
0.0
  0
VERTEX
  5
6D8
  8
00-NOPRINT_TEXT
 10
2.9746869016089472
 20
-7.251658602533098
 30
0.0
  0
SEQEND
  5
6D9
  8
00-NOPRINT_TEXT
  0
POLYLINE
  5
416
  8
00_NOPRINT_TOLERANCE
 66
     1
 10
0.0
 20
0.0
 30
0.0
 70
   129
  0
VERTEX
  5
6DA
  8
00_NOPRINT_TOLERANCE
 10
212.9746869016090045
 20
3950.748341397466902
 30
0.0
  0
VERTEX
  5
6DB
  8
00_NOPRINT_TOLERANCE
 10
1432.9746869016089477
 20
3950.748341397466902
 30
0.0
  0
VERTEX
  5
6DC
  8
00_NOPRINT_TOLERANCE
 10
1432.9746869016089477
 20
1510.7483413974680388
 30
0.0
  0
VERTEX
  5
6DD
  8
00_NOPRINT_TOLERANCE
 10
212.9746869016090045
 20
1510.7483413974680388
 30
0.0
  0
SEQEND
  5
6DE
  8
00_NOPRINT_TOLERANCE
  0
POLYLINE
  5
417
  8
00_NOPRINT_TOLERANCE
 66
     1
 10
0.0
 20
0.0
 30
0.0
 70
   129
  0
VERTEX
  5
6DF
  8
00_NOPRINT_TOLERANCE
 10
1832.9746869016089477
 20
3950.748341397466902
 30
0.0
  0
VERTEX
  5
6E0
  8
00_NOPRINT_TOLERANCE
 10
3052.9746869016089477
 20
3950.748341397466902
 30
0.0
  0
VERTEX
  5
6E1
  8
00_NOPRINT_TOLERANCE
 10
3052.9746869016089477
 20
1510.7483413974680388
 30
0.0
  0
VERTEX
  5
6E2
  8
00_NOPRINT_TOLERANCE
 10
1832.9746869016069013
 20
1510.7483413974680388
 30
0.0
  0
SEQEND
  5
6E3
  8
00_NOPRINT_TOLERANCE
  0
POLYLINE
  5
418
  8
00_NOPRINT_TOLERANCE
 66
     1
 10
0.0
 20
0.0
 30
0.0
 70
   129
  0
VERTEX
  5
6E4
  8
00_NOPRINT_TOLERANCE
 10
3452.9746869016071287
 20
3950.748341397466902
 30
0.0
  0
VERTEX
  5
6E5
  8
00_NOPRINT_TOLERANCE
 10
4672.9746869016071287
 20
3950.748341397466902
 30
0.0
  0
VERTEX
  5
6E6
  8
00_NOPRINT_TOLERANCE
 10
4672.9746869016071287
 20
1510.7483413974680388
 30
0.0
  0
VERTEX
  5
6E7
  8
00_NOPRINT_TOLERANCE
 10
3452.9746869016071287
 20
1510.7483413974680388
 30
0.0
  0
SEQEND
  5
6E8
  8
00_NOPRINT_TOLERANCE
  0
TEXT
  5
419
  8
00-NOPRINT_TEXT
 62
     7
 10
3452.9746869012019488
 20
1210.170205519179035
 30
0.0
 40
20.0
  1
SUMMARY TERMS AND CONDITIONS
 50
359.9999999988356194
  7
OD-SIMPLEX-20
 11
3452.9746869016089477
 21
1230.170205519179035
 31
0.0
 73
     3
  0
TEXT
  5
41A
  8
00-NOPRINT_TEXT
 62
     7
 10
3452.974686900998222
 20
1414.0683091881910514
 30
0.0
 40
30.0
  1
BOTH FACES
 50
359.9999999988356194
  7
OD-SIMPLEX-30
 11
3452.9746869016071287
 21
1444.0683091881910514
 31
0.0
 73
     3
  0
TEXT
  5
41B
  8
00-NOPRINT_TEXT
 62
     7
 10
1832.9746869009989041
 20
1414.0683091881910514
 30
0.0
 40
30.0
  1
REVERSE FACE
 50
359.9999999988356194
  7
OD-SIMPLEX-30
 11
1832.9746869016089477
 21
1444.0683091881910514
 31
0.0
 73
     3
  0
TEXT
  5
41C
  8
00-NOPRINT_TEXT
 62
     7
 10
212.974686900999302
 20
1414.0683091881910514
 30
0.0
 40
30.0
  1
FRONT FACE
 50
359.9999999988356194
  7
OD-SIMPLEX-30
 11
212.9746869016090045
 21
1444.0683091881910514
 31
0.0
 73
     3
  0
TEXT
  5
41D
  8
00-NOPRINT_TEXT
 62
     7
 10
1832.9746869011999024
 20
1210.170205519179035
 30
0.0
 40
20.0
  1
FABRICATION GUIDELINES
 50
359.9999999988356194
  7
OD-SIMPLEX-20
 11
1832.9746869016069013
 21
1230.170205519179035
 31
0.0
 73
     3
  0
TEXT
  5
41E
  8
00-NOPRINT_TEXT
 62
     7
 10
212.9746869012024888
 20
1210.170205519179035
 30
0.0
 40
20.0
  1
USING THIS DRAWING
 50
359.9999999988356194
  7
OD-SIMPLEX-20
 11
212.9746869016090045
 21
1230.170205519179035
 31
0.0
 73
     3
  0
TEXT
  5
41F
  8
00-NOPRINT_TEXT
 62
     7
 10
3451.4460283646772041
 20
1147.4111410670379883
 30
0.0
 40
17.0
  1
This file represents the latest version of an open source product, designed to be CNC-milled from standard sheet
 50
359.9999999988356194
  7
OD-ISOCP-17
  0
TEXT
  5
420
  8
00-NOPRINT_TEXT
 62
     7
 10
3451.4460283641001297
 20
1119.0778077337040486
 30
0.0
 40
17.0
  1
materials. Whilst OpenDesk make every effort to provide fully prototyped and tested designs, it is the responsiblity of
 50
359.9999999988356194
  7
OD-ISOCP-17
  0
TEXT
  5
421
  8
00-NOPRINT_TEXT
 62
     7
 10
3451.4460283635248743
 20
1090.7444744003710184
 30
0.0
 40
17.0
  1
the end user (maker) to check file contents prior to fabrication, and ensure suitable due diligence and reasonable skill
 50
359.9999999988356194
  7
OD-ISOCP-17
  0
TEXT
  5
422
  8
00-NOPRINT_TEXT
 62
     7
 10
3451.4460283629500736
 20
1062.4111410670379883
 30
0.0
 40
17.0
  1
and care in fabrication and assembly.
 50
359.9999999988356194
  7
OD-ISOCP-17
  0
TEXT
  5
423
  8
00-NOPRINT_TEXT
 62
     7
 10
3451.4460283617968344
 20
1005.7444744003710184
 30
0.0
 40
17.0
  1
All OpenDesk designs are open source and provided as is. OpenDesk cannot accept any liability for any error or
 50
359.9999999988356194
  7
OD-ISOCP-17
  0
TEXT
  5
424
  8
00-NOPRINT_TEXT
 62
     7
 10
3451.4460283612220337
 20
977.4111410670379883
 30
0.0
 40
17.0
  1
ommission in the information contained herein. OpenDesk accepts no design liability, and provides no guarantee of
 50
359.9999999988356194
  7
OD-ISOCP-17
  0
TEXT
  5
425
  8
00-NOPRINT_TEXT
 62
     7
 10
3452.0621710346767941
 20
949.0778077336923388
 30
0.0
 40
17.0
  1
quality or warranty of fitness for purpose on any open product in the OpenDesk library.
 50
359.9999999988356194
  7
OD-ISOCP-17
  0
TEXT
  5
426
  8
00-NOPRINT_TEXT
 62
     7
 10
3451.4460283594939938
 20
892.4111410670378746
 30
0.0
 40
17.0
  1
By using this file you agree to the following:
 50
359.9999999988356194
  7
OD-ISOCP-17
  0
TEXT
  5
427
  8
00-NOPRINT_TEXT
 62
     7
 10
3451.4460283583448472
 20
835.7444744003711321
 30
0.0
 40
17.0
  1
- You expressly agree to hold harmless all OpenDesk designers or employees for any property damage, personal injury,
 50
359.9999999988356194
  7
OD-ISOCP-17
  0
TEXT
  5
428
  8
00-NOPRINT_TEXT
 62
     7
 10
3452.0621710317991528
 20
807.4111410670251416
 30
0.0
 40
17.0
  1
death, fudiciary loss, or any other loss or damage arising out of the use of this digital file and its contents, or
 50
359.9999999988356194
  7
OD-ISOCP-17
  0
TEXT
  5
429
  8
00-NOPRINT_TEXT
 62
     7
 10
3451.991166152470214
 20
779.0778077336931347
 30
0.0
 40
17.0
  1
subsequent physical products fabricated from the information contained herein.
 50
359.9999999988356194
  7
OD-ISOCP-17
  0
TEXT
  5
42A
  8
00-NOPRINT_TEXT
 62
     7
 10
3451.4460283560420066
 20
722.4111410670379883
 30
0.0
 40
17.0
  1
- You agree that the information provided in this file is to be used at your own risk, without any guarantee of quality
 50
359.9999999988356194
  7
OD-ISOCP-17
  0
TEXT
  5
42B
  8
00-NOPRINT_TEXT
 62
     7
 10
3451.4460283554681155
 20
694.0778077337045033
 30
0.0
 40
17.0
  1
or warranty expressly made.
 50
359.9999999988356194
  7
OD-ISOCP-17
  0
TEXT
  5
42C
  8
00-NOPRINT_TEXT
 62
     7
 10
3451.4460283543139667
 20
637.4111410670375335
 30
0.0
 40
17.0
  1
- You agree to indemnify OpenDesk, its designers and employees against any damages, losses, obligations, liabilities,
 50
359.9999999988356194
  7
OD-ISOCP-17
  0
TEXT
  5
42D
  8
00-NOPRINT_TEXT
 62
     7
 10
3452.0621710277678176
 20
609.0778077336916567
 30
0.0
 40
17.0
  1
costs and expenses arising from the use of OpenDesk designs or any derivative designs permitted under the associated
 50
359.9999999988356194
  7
OD-ISOCP-17
  0
TEXT
  5
42E
  8
00-NOPRINT_TEXT
 62
     7
 10
3451.798109881180153
 20
580.7444744003637425
 30
0.0
 40
17.0
  1
license of use.
 50
359.9999999988356194
  7
OD-ISOCP-17
  0
TEXT
  5
42F
  8
00-NOPRINT_TEXT
 62
     7
 10
3451.4460283514367802
 20
495.7444744003709047
 30
0.0
 40
17.0
  1
We hope you enjoy your OpenDesk product! Please feel free to notify us of any errors or omissions, share back any
 50
359.9999999988356194
  7
OD-ISOCP-17
  0
TEXT
  5
430
  8
00-NOPRINT_TEXT
 62
     7
 10
3451.4460283508601606
 20
467.4111410670374767
 30
0.0
 40
17.0
  1
feedback or developments on this design, or ask a question by emailing us on hello@opendesk.cc.
 50
359.9999999988356194
  7
OD-ISOCP-17
  0
TEXT
  5
431
  8
00-NOPRINT_TEXT
 62
     7
 10
3451.446028349709195
 20
410.7444744003710184
 30
0.0
 40
17.0
  1
Welcome to the industrial revolution and thanks for trailblazing!
 50
359.9999999988356194
  7
OD-ISOCP-17
  0
LINE
  5
432
  8
00_NOPRINT_TOLERANCE
 10
1632.9746869016089477
 20
1335.9408099151210081
 30
0.0
 11
1632.9746869016089477
 21
4000.748341397466902
 31
0.0
  0
TEXT
  5
433
  8
00-NOPRINT_TEXT
 10
1516.3080202349428873
 20
4042.6679403394578003
 30
0.0
 40
25.0
  1
MIRROR LINE
  7
OD-SIMPLEX-25
  0
TEXT
  5
434
  8
00-NOPRINT_TEXT
 62
     7
 10
1831.6441990974360579
 20
1147.4111410670479927
 30
0.0
 40
17.0
  1
Before starting to cut your product please take account of the following guidelines. These reflect our personal
 50
359.9999999988356194
  7
OD-ISOCP-17
  0
TEXT
  5
435
  8
00-NOPRINT_TEXT
 62
     7
 10
1831.6441990968619393
 20
1119.0778077337149625
 30
0.0
 40
17.0
  1
research and learning and are by no means comprehensive. Please let us know if you have any recommendations for
 50
359.9999999988356194
  7
OD-ISOCP-17
  0
TEXT
  5
436
  8
00-NOPRINT_TEXT
 62
     7
 10
1831.6441990962850923
 20
1090.7444744003819324
 30
0.0
 40
17.0
  1
improved standards, and/or cutting methods:
 50
359.9999999988356194
  7
OD-ISOCP-17
  0
TEXT
  5
437
  8
00-NOPRINT_TEXT
 62
     7
 10
1831.6441990951329899
 20
1034.0778077337149625
 30
0.0
 40
17.0
  1
- Every CNC-machine is slightly different, you should follow your machine manufacturer's guidelines for best practice,
 50
359.9999999988356194
  7
OD-ISOCP-17
  0
TEXT
  5
438
  8
00-NOPRINT_TEXT
 62
     7
 10
1831.6441990945590987
 20
1005.744474400382046
 30
0.0
 40
17.0
  1
and consult your supplier for suitable drill bits and other recommendations. In our experience the best quality finish is
 50
359.9999999988356194
  7
OD-ISOCP-17
  0
TEXT
  5
439
  8
00-NOPRINT_TEXT
 62
     7
 10
1831.6441990939820244
 20
977.4111410670489022
 30
0.0
 40
17.0
  1
achieved using a suitable vacuum bed to prevent material slippage, and a compression cutter to prevent splintering of
 50
359.9999999988356194
  7
OD-ISOCP-17
  0
TEXT
  5
43A
  8
00-NOPRINT_TEXT
 62
     7
 10
1831.64419909340495
 20
949.0778077337149625
 30
0.0
 40
17.0
  1
the surface of the material, however these will not always be available and such details are left to the discretion and
 50
359.9999999988356194
  7
OD-ISOCP-17
  0
TEXT
  5
43B
  8
00-NOPRINT_TEXT
 62
     7
 10
1832.1723213848579235
 20
920.7444744003719279
 30
0.0
 40
17.0
  1
experience of the fabricator.
 50
359.9999999988356194
  7
OD-ISOCP-17
  0
TEXT
  5
43C
  8
00-NOPRINT_TEXT
 62
     7
 10
1831.6441990916789564
 20
864.0778077337157583
 30
0.0
 40
17.0
  1
- It is strongly recommended that you perform some test cuts using the appropriate material prior to fabrication, to
 50
359.9999999988356194
  7
OD-ISOCP-17
  0
TEXT
  5
43D
  8
00-NOPRINT_TEXT
 62
     7
 10
1832.260341765135081
 20
835.7444744003696542
 30
0.0
 40
17.0
  1
calibrate for suitable tolerance and bit size. A test sheet is included in this file. The test file includes some of the
 50
359.9999999988356194
  7
OD-ISOCP-17
  0
TEXT
  5
43E
  8
00-NOPRINT_TEXT
 62
     7
 10
1832.1893368858040958
 20
807.4111410670376472
 30
0.0
 40
17.0
  1
standard OpenDesk joints of different types in three varying degrees of tolerance to account for variations in material
 50
359.9999999988356194
  7
OD-ISOCP-17
  0
TEXT
  5
43F
  8
00-NOPRINT_TEXT
 62
     7
 10
1831.6441990899529628
 20
779.0778077337153036
 30
0.0
 40
17.0
  1
thickness (+/- 1%%%). Please refer to the test sheet guidelines for more information.
 50
359.9999999988356194
  7
OD-ISOCP-17
  0
TEXT
  5
440
  8
00-NOPRINT_TEXT
 62
     7
 10
1831.6441990887999509
 20
722.4111410670489022
 30
0.0
 40
17.0
  1
- It is highly recommended that you accurately measure the thickness of sheet you are using prior to fabrication, for
 50
359.9999999988356194
  7
OD-ISOCP-17
  0
TEXT
  5
441
  8
00-NOPRINT_TEXT
 62
     7
 10
1832.1723213802511054
 20
694.0778077337045033
 30
0.0
 40
17.0
  1
example using calipers at several points along the sheet. For best results ensure your sheet is adequately flat and
 50
359.9999999988356194
  7
OD-ISOCP-17
  0
TEXT
  5
442
  8
00-NOPRINT_TEXT
 62
     7
 10
1831.6441990876498949
 20
665.7444744003819324
 30
0.0
 40
17.0
  1
free of any warping, knots, or imperfections.
 50
359.9999999988356194
  7
OD-ISOCP-17
  0
TEXT
  5
443
  8
00-NOPRINT_TEXT
 62
     7
 10
1831.6441990864989293
 20
609.0778077337154173
 30
0.0
 40
17.0
  1
- When performing double-side cuts it is important to locate the flipped sheet exactly, to ensure cuts to both faces
 50
359.9999999988356194
  7
OD-ISOCP-17
  0
TEXT
  5
444
  8
00-NOPRINT_TEXT
 62
     7
 10
1831.6441990859220823
 20
580.7444744003819324
 30
0.0
 40
17.0
  1
align correctly. This can be achieved using a suitable jig or locating pucks/noggins according to your machine bed.
 50
359.9999999988356194
  7
OD-ISOCP-17
  0
TEXT
  5
445
  8
00-NOPRINT_TEXT
 62
     7
 10
1831.6441990853470543
 20
552.4111410670484474
 30
0.0
 40
17.0
  1
OpenDesk drawings requiring double-side cutting include at least two no. indicative locations for locator pucks (shown
 50
359.9999999988356194
  7
OD-ISOCP-17
  0
TEXT
  5
446
  8
00-NOPRINT_TEXT
 62
     7
 10
1831.6441990847699799
 20
524.0778077337148488
 30
0.0
 40
17.0
  1
as 60mm diameter circles at opposite corners of the sheet). For more information consult the guidance on
 50
359.9999999988356194
  7
OD-ISOCP-17
  0
TEXT
  5
447
  8
00-NOPRINT_TEXT
 62
     7
 10
1831.6441990841940424
 20
495.7444744003818755
 30
0.0
 40
17.0
  1
www.opendesk.cc.
 50
359.9999999988356194
  7
OD-ISOCP-17
  0
TEXT
  5
448
  8
00-NOPRINT_TEXT
 62
     7
 10
1831.6441990830439863
 20
439.0778077337150194
 30
0.0
 40
17.0
  1
- Inside cuts may produce offcut pieces that can vibrate out of place and interfere with cutting. It is recommended to
 50
359.9999999988356194
  7
OD-ISOCP-17
  0
TEXT
  5
449
  8
00-NOPRINT_TEXT
 62
     7
 10
1832.1893368777439264
 20
410.7444744003705068
 30
0.0
 40
17.0
  1
secure such pieces to the bed prior to cutting for removal afterwards.
 50
359.9999999988356194
  7
OD-ISOCP-17
  0
TEXT
  5
44A
  8
00-NOPRINT_TEXT
 62
     7
 10
1831.6441990813159464
 20
354.0778077337149057
 30
0.0
 40
17.0
  1
- Where designs include chamfering and pocketing it is strongly advisable to start with these cuts prior to full-depth
 50
359.9999999988356194
  7
OD-ISOCP-17
  0
TEXT
  5
44B
  8
00-NOPRINT_TEXT
 62
     7
 10
1832.2603417547709341
 20
325.7444744003691994
 30
0.0
 40
17.0
  1
cut-outs in order to avoid any slippage and misalignment in the material.
 50
359.9999999988356194
  7
OD-ISOCP-17
  0
TEXT
  5
44C
  8
00-NOPRINT_TEXT
 62
     7
 10
1831.6441990795899528
 20
269.0778077337149057
 30
0.0
 40
17.0
  1
- Each OpenDesk part can be cut using single of multi-pass cutting. Slower speeds and multiple passes will tend to
 50
359.9999999988356194
  7
OD-ISOCP-17
  0
TEXT
  5
44D
  8
00-NOPRINT_TEXT
 62
     7
 10
1831.6441990790131058
 20
240.7444744003819039
 30
0.0
 40
17.0
  1
produce higher quality cuts and reduce the need for sanding and finishing at the expense of cutting time. This is left to
 50
359.9999999988356194
  7
OD-ISOCP-17
  0
TEXT
  5
44E
  8
00-NOPRINT_TEXT
 62
     7
 10
1831.6441990784389873
 20
212.4111410670483906
 30
0.0
 40
17.0
  1
the discretion of the user based on their time and machine.
 50
359.9999999988356194
  7
OD-ISOCP-17
  0
POLYLINE
  5
44F
  8
BOARD_$TH-NOMINAL
 66
     1
 10
0.0
 20
0.0
 30
0.0
 70
   129
  0
VERTEX
  5
6E9
  8
BOARD_$TH-NOMINAL
 10
212.9746869016090045
 20
3950.748341397466902
 30
0.0
  0
VERTEX
  5
6EA
  8
BOARD_$TH-NOMINAL
 10
1432.9746869016089477
 20
3950.748341397466902
 30
0.0
  0
VERTEX
  5
6EB
  8
BOARD_$TH-NOMINAL
 10
1432.9746869016089477
 20
1510.748341397466902
 30
0.0
  0
VERTEX
  5
6EC
  8
BOARD_$TH-NOMINAL
 10
212.9746869016090045
 20
1510.7483413974680388
 30
0.0
  0
SEQEND
  5
6ED
  8
BOARD_$TH-NOMINAL
  0
POLYLINE
  5
450
  8
BOARD_$TH-NOMINAL
 66
     1
 10
0.0
 20
0.0
 30
0.0
 70
   129
  0
VERTEX
  5
6EE
  8
BOARD_$TH-NOMINAL
 10
1832.9746869016089477
 20
3950.748341397466902
 30
0.0
  0
VERTEX
  5
6EF
  8
BOARD_$TH-NOMINAL
 10
3052.9746869016089477
 20
3950.748341397466902
 30
0.0
  0
VERTEX
  5
6F0
  8
BOARD_$TH-NOMINAL
 10
3052.9746869016089477
 20
1510.748341397466902
 30
0.0
  0
VERTEX
  5
6F1
  8
BOARD_$TH-NOMINAL
 10
1832.9746869016069013
 20
1510.7483413974680388
 30
0.0
  0
SEQEND
  5
6F2
  8
BOARD_$TH-NOMINAL
  0
POLYLINE
  5
451
  8
BOARD_$TH-NOMINAL
 66
     1
 10
0.0
 20
0.0
 30
0.0
 70
   129
  0
VERTEX
  5
6F3
  8
BOARD_$TH-NOMINAL
 10
3452.9746869016089477
 20
3950.748341397466902
 30
0.0
  0
VERTEX
  5
6F4
  8
BOARD_$TH-NOMINAL
 10
4672.9746869016071287
 20
3950.748341397466902
 30
0.0
  0
VERTEX
  5
6F5
  8
BOARD_$TH-NOMINAL
 10
4672.9746869016071287
 20
1510.748341397466902
 30
0.0
  0
VERTEX
  5
6F6
  8
BOARD_$TH-NOMINAL
 10
3452.9746869016071287
 20
1510.7483413974680388
 30
0.0
  0
SEQEND
  5
6F7
  8
BOARD_$TH-NOMINAL
  0
POLYLINE
  5
452
  8
00_NOPRINT_TOLERANCE
 66
     1
 10
0.0
 20
0.0
 30
0.0
 70
   129
  0
VERTEX
  5
6F8
  8
00_NOPRINT_TOLERANCE
 10
232.9746869016088908
 20
3930.748341397466902
 30
0.0
  0
VERTEX
  5
6F9
  8
00_NOPRINT_TOLERANCE
 10
1412.9746869016089477
 20
3930.748341397466902
 30
0.0
  0
VERTEX
  5
6FA
  8
00_NOPRINT_TOLERANCE
 10
1412.9746869016089477
 20
1530.7483413974680388
 30
0.0
  0
VERTEX
  5
6FB
  8
00_NOPRINT_TOLERANCE
 10
232.9746869016088908
 20
1530.7483413974680388
 30
0.0
  0
SEQEND
  5
6FC
  8
00_NOPRINT_TOLERANCE
  0
POLYLINE
  5
453
  8
00_NOPRINT_TOLERANCE
 66
     1
 10
0.0
 20
0.0
 30
0.0
 70
   129
  0
VERTEX
  5
6FD
  8
00_NOPRINT_TOLERANCE
 10
1852.9746869016089477
 20
3930.748341397466902
 30
0.0
  0
VERTEX
  5
6FE
  8
00_NOPRINT_TOLERANCE
 10
3032.9746869016089477
 20
3930.748341397466902
 30
0.0
  0
VERTEX
  5
6FF
  8
00_NOPRINT_TOLERANCE
 10
3032.9746869016071287
 20
1530.7483413974680388
 30
0.0
  0
VERTEX
  5
700
  8
00_NOPRINT_TOLERANCE
 10
1852.9746869016069013
 20
1530.7483413974680388
 30
0.0
  0
SEQEND
  5
701
  8
00_NOPRINT_TOLERANCE
  0
POLYLINE
  5
454
  8
00_NOPRINT_TOLERANCE
 66
     1
 10
0.0
 20
0.0
 30
0.0
 70
   129
  0
VERTEX
  5
702
  8
00_NOPRINT_TOLERANCE
 10
3472.9746869016089477
 20
3930.748341397466902
 30
0.0
  0
VERTEX
  5
703
  8
00_NOPRINT_TOLERANCE
 10
4652.9746869016071287
 20
3930.748341397466902
 30
0.0
  0
VERTEX
  5
704
  8
00_NOPRINT_TOLERANCE
 10
4652.9746869016071287
 20
1530.7483413974680388
 30
0.0
  0
VERTEX
  5
705
  8
00_NOPRINT_TOLERANCE
 10
3472.9746869016089477
 20
1530.7483413974680388
 30
0.0
  0
SEQEND
  5
706
  8
00_NOPRINT_TOLERANCE
  0
TEXT
  5
455
  8
00-NOPRINT_TEXT
 62
     7
 10
210.4246869012623051
 20
1147.4111410670379883
 30
0.0
 40
17.0
  1
OpenDesk products are designed to be CNC-milled from standard sheet materials such as plywood. This file as provided
 50
359.9999999988356194
  7
OD-ISOCP-17
  0
TEXT
  5
456
  8
00-NOPRINT_TEXT
 62
     7
 10
210.4246869006873908
 20
1119.0778077337040486
 30
0.0
 40
17.0
  1
is mastered for use with the recommended sheet material specification, sheet sizes and thicknesses, and bit sizes
 50
359.9999999988356194
  7
OD-ISOCP-17
  0
TEXT
  5
457
  8
00-NOPRINT_TEXT
 62
     7
 10
210.4246869001107996
 20
1090.7444744003710184
 30
0.0
 40
17.0
  1
provided, however the exact materials being used, tolerances, drill bits, and other local considerations are at the
 50
359.9999999988356194
  7
OD-ISOCP-17
  0
TEXT
  5
458
  8
00-NOPRINT_TEXT
 62
     7
 10
211.0408295735651905
 20
1062.411141067025028
 30
0.0
 40
17.0
  1
discretion of the end user (maker). If you are working with variations on these you may need to reposition and nest
 50
359.9999999988356194
  7
OD-ISOCP-17
  0
TEXT
  5
459
  8
00-NOPRINT_TEXT
 62
     7
 10
210.4246868989594077
 20
1034.0778077337049581
 30
0.0
 40
17.0
  1
parts within your own sheet frames accordingly, and take account of any changes in tolerance particularly on joints,
 50
359.9999999988356194
  7
OD-ISOCP-17
  0
TEXT
  5
45A
  8
00-NOPRINT_TEXT
 62
     7
 10
210.424686898384607
 20
1005.7444744003710184
 30
0.0
 40
17.0
  1
tabs, and slots prior to cutting.
 50
359.9999999988356194
  7
OD-ISOCP-17
  0
TEXT
  5
45B
  8
00-NOPRINT_TEXT
 62
     7
 10
210.4246868972331868
 20
949.0778077337048444
 30
0.0
 40
17.0
  1
All OpenDesk drawings are drawn in 'Top' projection, and all vectors are arranged into suitably named layers describing
 50
359.9999999988356194
  7
OD-ISOCP-17
  0
TEXT
  5
45C
  8
00-NOPRINT_TEXT
 62
     7
 10
210.4246868966565955
 20
920.7444744003719279
 30
0.0
 40
17.0
  1
the type and depth of cut required. All such cut depths are assumed to be measured from the top (maximum z-index)
 50
359.9999999988356194
  7
OD-ISOCP-17
  0
TEXT
  5
45D
  8
00-NOPRINT_TEXT
 62
     7
 10
210.9698246913557966
 20
892.4111410670270743
 30
0.0
 40
17.0
  1
surface of the material. For example the layer 'POCKET_14MM_INSIDE' describes a pocketting inside-line cut of depth
 50
359.9999999988356194
  7
OD-ISOCP-17
  0
TEXT
  5
45E
  8
00-NOPRINT_TEXT
 62
     7
 10
210.42468689550509
 20
864.0778077337043896
 30
0.0
 40
17.0
  1
14mm from the top surface of the material.*
 50
359.9999999988356194
  7
OD-ISOCP-17
  0
TEXT
  5
45F
  8
00-NOPRINT_TEXT
 62
     7
 10
210.4246868943536981
 20
807.4111410670378746
 30
0.0
 40
17.0
  1
All OpenDesk drawings are provided in dxf format. After importing into your CNC-machine's CAM software you will need
 50
359.9999999988356194
  7
OD-ISOCP-17
  0
TEXT
  5
460
  8
00-NOPRINT_TEXT
 62
     7
 10
210.4246868937771069
 20
779.0778077337045033
 30
0.0
 40
17.0
  1
to ensure that all vectors are visible and all polylines are closed where necessary. A pdf version of the drawing is
 50
359.9999999988356194
  7
OD-ISOCP-17
  0
TEXT
  5
461
  8
00-NOPRINT_TEXT
 62
     7
 10
210.4246868932023062
 20
750.7444744003710184
 30
0.0
 40
17.0
  1
provided with each download for reference.
 50
359.9999999988356194
  7
OD-ISOCP-17
  0
TEXT
  5
462
  8
00-NOPRINT_TEXT
 62
     7
 10
210.4246868920508859
 20
694.0778077337045033
 30
0.0
 40
17.0
  1
Layers with names beginning '00_NOPRINT' should not be milled. For convenience you can turn these layers off or
 50
359.9999999988356194
  7
OD-ISOCP-17
  0
TEXT
  5
463
  8
00-NOPRINT_TEXT
 62
     7
 10
211.0408295655051916
 20
665.7444744003582855
 30
0.0
 40
17.0
  1
delete their elements before setting up your CAM software.
 50
359.9999999988356194
  7
OD-ISOCP-17
  0
TEXT
  5
464
  8
00-NOPRINT_TEXT
 62
     7
 10
210.4246868903227892
 20
609.0778077337040486
 30
0.0
 40
17.0
  1
Most OpenDesk products require some combination of 'inside cuts', and 'outside cuts', and in some instances 'on-line
 50
359.9999999988356194
  7
OD-ISOCP-17
  0
TEXT
  5
465
  8
00-NOPRINT_TEXT
 62
     7
 10
211.0408295637772085
 20
580.7444744003581718
 30
0.0
 40
17.0
  1
cuts', 'pocketing', or 'chamfering'. Some OpenDesk products require double-side cutting (ie cutting to both front and
 50
359.9999999988356194
  7
OD-ISOCP-17
  0
TEXT
  5
466
  8
00-NOPRINT_TEXT
 62
     7
 10
210.4246868891713973
 20
552.4111410670375335
 30
0.0
 40
17.0
  1
reverse faces of a single sheet). As a result each sheet is drawn in 'Front Face', 'Reverse Face', and 'Both Faces'
 50
359.9999999988356194
  7
OD-ISOCP-17
  0
TEXT
  5
467
  8
00-NOPRINT_TEXT
 62
     7
 10
210.7767684166119864
 20
524.0778077336966589
 30
0.0
 40
17.0
  1
layouts, with corresponding layers and vectors in each for you to choose your preferred setup according to your
 50
359.9999999988356194
  7
OD-ISOCP-17
  0
TEXT
  5
468
  8
00-NOPRINT_TEXT
 62
     7
 10
211.2168703260576876
 20
495.7444744003545907
 30
0.0
 40
17.0
  1
CNC-software and machine.
 50
359.9999999988356194
  7
OD-ISOCP-17
  0
TEXT
  5
469
  8
00-NOPRINT_TEXT
 62
     7
 10
210.4246868868686136
 20
439.0778077337039917
 30
0.0
 40
17.0
  1
A minimum of 15mm tolerance is left between parts on OpenDesk sheets when nested. This should be sufficient for most
 50
359.9999999988356194
  7
OD-ISOCP-17
  0
TEXT
  5
46A
  8
00-NOPRINT_TEXT
 62
     7
 10
210.4246868862919939
 20
410.7444744003710184
 30
0.0
 40
17.0
  1
bit diameters.
 50
359.9999999988356194
  7
OD-ISOCP-17
  0
TEXT
  5
46B
  8
00-NOPRINT_TEXT
 62
     7
 10
227.424686885140602
 20
354.0778077333583838
 30
0.0
 40
17.0
  1
*      Such a pocketed may be accompanied by a corresponding second line in, for example, 'POCKET_14MM_OUTSIDE',
 50
359.9999999988356194
  7
OD-ISOCP-17
  0
TEXT
  5
46C
  8
00-NOPRINT_TEXT
 62
     7
 10
279.040829558594794
 20
325.7444743989768199
 30
0.0
 40
17.0
  1
describing the limits of the associated pocket.
 50
359.9999999988356194
  7
OD-ISOCP-17
  0
POLYLINE
  5
46D
  8
00-NOPRINT_TEXT
 66
     1
 10
0.0
 20
0.0
 30
0.0
 70
     1
  0
VERTEX
  5
707
  8
00-NOPRINT_TEXT
 10
4942.3079631705340944
 20
3890.7078002048419876
 30
0.0
  0
VERTEX
  5
708
  8
00-NOPRINT_TEXT
 10
4942.3079631705340944
 20
3862.8937243877207948
 30
0.0
 42
-1.0
  0
VERTEX
  5
709
  8
00-NOPRINT_TEXT
 10
4905.911711869039209
 20
3862.8937243877207948
 30
0.0
  0
VERTEX
  5
70A
  8
00-NOPRINT_TEXT
 10
4905.911711869039209
 20
3890.7078002048419876
 30
0.0
 42
-1.0
  0
SEQEND
  5
70B
  8
00-NOPRINT_TEXT
  0
POLYLINE
  5
46E
  8
00-NOPRINT_TEXT
 66
     1
 10
0.0
 20
0.0
 30
0.0
 70
     1
  0
VERTEX
  5
70C
  8
00-NOPRINT_TEXT
 10
4897.9746869013088144
 20
3890.7078002048419876
 30
0.0
  0
VERTEX
  5
70D
  8
00-NOPRINT_TEXT
 10
4897.9746869013088144
 20
3862.8937243877207948
 30
0.0
 42
1.0
  0
VERTEX
  5
70E
  8
00-NOPRINT_TEXT
 10
4950.2449881382617605
 20
3862.8937243877207948
 30
0.0
  0
VERTEX
  5
70F
  8
00-NOPRINT_TEXT
 10
4950.2449881382617605
 20
3890.7078002048419876
 30
0.0
 42
1.0
  0
SEQEND
  5
710
  8
00-NOPRINT_TEXT
  0
POLYLINE
  5
46F
  8
00-NOPRINT_TEXT
 66
     1
 10
0.0
 20
0.0
 30
0.0
 70
     1
  0
VERTEX
  5
711
  8
00-NOPRINT_TEXT
 10
4984.2798143338595764
 20
3890.7078002048419876
 30
0.0
 42
-1.0
  0
VERTEX
  5
712
  8
00-NOPRINT_TEXT
 10
5020.6760656353599188
 20
3890.7078002048419876
 30
0.0
  0
VERTEX
  5
713
  8
00-NOPRINT_TEXT
 10
5020.6760656353599188
 20
3862.8937243877207948
 30
0.0
 42
-1.0
  0
VERTEX
  5
714
  8
00-NOPRINT_TEXT
 10
4984.2798143338595764
 20
3862.8937243877207948
 30
0.0
  0
SEQEND
  5
715
  8
00-NOPRINT_TEXT
  0
POLYLINE
  5
470
  8
00-NOPRINT_TEXT
 66
     1
 10
0.0
 20
0.0
 30
0.0
 70
     1
  0
VERTEX
  5
716
  8
00-NOPRINT_TEXT
 10
5028.6130906030839469
 20
3890.7078002048419876
 30
0.0
 42
0.6627114835317702
  0
VERTEX
  5
717
  8
00-NOPRINT_TEXT
 10
4984.2798143338595764
 20
3909.466113579184821
 30
0.0
  0
VERTEX
  5
718
  8
00-NOPRINT_TEXT
 10
4984.2798143338595764
 20
3912.8744383394528086
 30
0.0
 42
1.0
  0
VERTEX
  5
719
  8
00-NOPRINT_TEXT
 10
4976.3427893661337293
 20
3912.8744383394528086
 30
0.0
  0
VERTEX
  5
71A
  8
00-NOPRINT_TEXT
 10
4976.3427893661337293
 20
3806.8216956729611411
 30
0.0
 42
1.0
  0
VERTEX
  5
71B
  8
00-NOPRINT_TEXT
 10
4984.2798143338595764
 20
3806.8216956729611411
 30
0.0
  0
VERTEX
  5
71C
  8
00-NOPRINT_TEXT
 10
4984.2798143338595764
 20
3844.1354110133770519
 30
0.0
 42
0.66271148353177
  0
VERTEX
  5
71D
  8
00-NOPRINT_TEXT
 10
5028.6130906030839469
 20
3862.8937243877207948
 30
0.0
  0
SEQEND
  5
71E
  8
00-NOPRINT_TEXT
  0
POLYLINE
  5
471
  8
00-NOPRINT_TEXT
 66
     1
 10
0.0
 20
0.0
 30
0.0
 70
     1
  0
VERTEX
  5
71F
  8
00-NOPRINT_TEXT
 10
5097.3333833646383937
 20
3880.8220883054841579
 30
0.0
  0
VERTEX
  5
720
  8
00-NOPRINT_TEXT
 10
5060.9371320631407798
 20
3880.8220883054841579
 30
0.0
  0
VERTEX
  5
721
  8
00-NOPRINT_TEXT
 10
5060.9371320631407798
 20
3890.7078002048419876
 30
0.0
 42
-1.0
  0
VERTEX
  5
722
  8
00-NOPRINT_TEXT
 10
5097.3333833646383937
 20
3890.7078002048419876
 30
0.0
  0
SEQEND
  5
723
  8
00-NOPRINT_TEXT
  0
POLYLINE
  5
472
  8
00-NOPRINT_TEXT
 66
     1
 10
0.0
 20
0.0
 30
0.0
 70
     1
  0
VERTEX
  5
724
  8
00-NOPRINT_TEXT
 10
5105.2704083323660598
 20
3890.7078002048419876
 30
0.0
 42
1.0
  0
VERTEX
  5
725
  8
00-NOPRINT_TEXT
 10
5053.0001070954149327
 20
3890.7078002048419876
 30
0.0
  0
VERTEX
  5
726
  8
00-NOPRINT_TEXT
 10
5053.0001070954149327
 20
3862.8937243877207948
 30
0.0
 42
0.8392911393501922
  0
VERTEX
  5
727
  8
00-NOPRINT_TEXT
 10
5103.6982812367859879
 20
3853.9660162123727787
 30
0.0
 42
1.0
  0
VERTEX
  5
728
  8
00-NOPRINT_TEXT
 10
5096.238698017614297
 20
3856.6772859397510729
 30
0.0
 42
-0.8392911393501705
  0
VERTEX
  5
729
  8
00-NOPRINT_TEXT
 10
5060.9371320631407798
 20
3862.8937243877207948
 30
0.0
  0
VERTEX
  5
72A
  8
00-NOPRINT_TEXT
 10
5060.9371320631407798
 20
3872.8850633377560371
 30
0.0
  0
VERTEX
  5
72B
  8
00-NOPRINT_TEXT
 10
5101.30189584850541
 20
3872.8850633377560371
 30
0.0
 42
0.4142135623730951
  0
VERTEX
  5
72C
  8
00-NOPRINT_TEXT
 10
5105.2704083323660598
 20
3876.8535758216180511
 30
0.0
  0
SEQEND
  5
72D
  8
00-NOPRINT_TEXT
  0
POLYLINE
  5
473
  8
00-NOPRINT_TEXT
 66
     1
 10
0.0
 20
0.0
 30
0.0
 70
     1
  0
VERTEX
  5
72E
  8
00-NOPRINT_TEXT
 10
5181.8294871615689772
 20
3890.7078002048419876
 30
0.0
 42
0.6627114835317652
  0
VERTEX
  5
72F
  8
00-NOPRINT_TEXT
 10
5137.4962108923482447
 20
3909.466113579184821
 30
0.0
  0
VERTEX
  5
730
  8
00-NOPRINT_TEXT
 10
5137.4962108923482447
 20
3912.8744383394528086
 30
0.0
 42
1.0
  0
VERTEX
  5
731
  8
00-NOPRINT_TEXT
 10
5129.5591859246178501
 20
3912.8744383394528086
 30
0.0
  0
VERTEX
  5
732
  8
00-NOPRINT_TEXT
 10
5129.5591859246205786
 20
3840.7270862531090643
 30
0.0
 42
1.0
  0
VERTEX
  5
733
  8
00-NOPRINT_TEXT
 10
5137.4962108923482447
 20
3840.7270862531090643
 30
0.0
  0
VERTEX
  5
734
  8
00-NOPRINT_TEXT
 10
5137.4962108923482447
 20
3890.7078002048419876
 30
0.0
 42
-1.0
  0
VERTEX
  5
735
  8
00-NOPRINT_TEXT
 10
5173.8924621938440396
 20
3890.7078002048419876
 30
0.0
  0
VERTEX
  5
736
  8
00-NOPRINT_TEXT
 10
5173.8924621938440396
 20
3840.7270862531090643
 30
0.0
 42
1.0
  0
VERTEX
  5
737
  8
00-NOPRINT_TEXT
 10
5181.8294871615689772
 20
3840.7270862531090643
 30
0.0
  0
SEQEND
  5
738
  8
00-NOPRINT_TEXT
  0
POLYLINE
  5
474
  8
00-NOPRINT_TEXT
 66
     1
 10
0.0
 20
0.0
 30
0.0
 70
     1
  0
VERTEX
  5
739
  8
00-NOPRINT_TEXT
 10
5250.3325484145498194
 20
3862.8937243877207948
 30
0.0
 42
-1.0
  0
VERTEX
  5
73A
  8
00-NOPRINT_TEXT
 10
5213.9362971130558435
 20
3862.8937243877207948
 30
0.0
  0
VERTEX
  5
73B
  8
00-NOPRINT_TEXT
 10
5213.9362971130558435
 20
3890.7078002048419876
 30
0.0
 42
-1.0
  0
VERTEX
  5
73C
  8
00-NOPRINT_TEXT
 10
5250.3325484145498194
 20
3890.7078002048419876
 30
0.0
  0
SEQEND
  5
73D
  8
00-NOPRINT_TEXT
  0
POLYLINE
  5
475
  8
00-NOPRINT_TEXT
 66
     1
 10
0.0
 20
0.0
 30
0.0
 70
     1
  0
VERTEX
  5
73E
  8
00-NOPRINT_TEXT
 10
5205.9992721453290869
 20
3862.8937243877207948
 30
0.0
 42
0.6627114835317702
  0
VERTEX
  5
73F
  8
00-NOPRINT_TEXT
 10
5250.3325484145498194
 20
3844.1354110133788708
 30
0.0
  0
VERTEX
  5
740
  8
00-NOPRINT_TEXT
 10
5250.3325484145498194
 20
3840.7270862531090643
 30
0.0
 42
1.0
  0
VERTEX
  5
741
  8
00-NOPRINT_TEXT
 10
5258.269573382280214
 20
3840.7270862531090643
 30
0.0
  0
VERTEX
  5
742
  8
00-NOPRINT_TEXT
 10
5258.269573382280214
 20
3946.7798289196011865
 30
0.0
 42
1.0
  0
VERTEX
  5
743
  8
00-NOPRINT_TEXT
 10
5250.3325484145498194
 20
3946.7798289196011865
 30
0.0
  0
VERTEX
  5
744
  8
00-NOPRINT_TEXT
 10
5250.3325484145498194
 20
3909.466113579184821
 30
0.0
 42
0.66271148353177
  0
VERTEX
  5
745
  8
00-NOPRINT_TEXT
 10
5205.9992721453290869
 20
3890.7078002048419876
 30
0.0
  0
SEQEND
  5
746
  8
00-NOPRINT_TEXT
  0
POLYLINE
  5
476
  8
00-NOPRINT_TEXT
 66
     1
 10
0.0
 20
0.0
 30
0.0
 70
     1
  0
VERTEX
  5
747
  8
00-NOPRINT_TEXT
 10
5331.9538282310813884
 20
3880.8220883054818842
 30
0.0
  0
VERTEX
  5
748
  8
00-NOPRINT_TEXT
 10
5295.557576929584684
 20
3880.8220883054818842
 30
0.0
  0
VERTEX
  5
749
  8
00-NOPRINT_TEXT
 10
5295.557576929584684
 20
3890.7078002048419876
 30
0.0
 42
-1.0
  0
VERTEX
  5
74A
  8
00-NOPRINT_TEXT
 10
5331.9538282310813884
 20
3890.7078002048419876
 30
0.0
  0
SEQEND
  5
74B
  8
00-NOPRINT_TEXT
  0
POLYLINE
  5
477
  8
00-NOPRINT_TEXT
 66
     1
 10
0.0
 20
0.0
 30
0.0
 70
     1
  0
VERTEX
  5
74C
  8
00-NOPRINT_TEXT
 10
5339.8908531988090544
 20
3890.7078002048419876
 30
0.0
 42
1.0
  0
VERTEX
  5
74D
  8
00-NOPRINT_TEXT
 10
5287.6205519618542894
 20
3890.7078002048419876
 30
0.0
  0
VERTEX
  5
74E
  8
00-NOPRINT_TEXT
 10
5287.6205519618542894
 20
3862.8937243877207948
 30
0.0
 42
0.8392911393501922
  0
VERTEX
  5
74F
  8
00-NOPRINT_TEXT
 10
5338.3187261032226161
 20
3853.9660162123727787
 30
0.0
 42
1.0
  0
VERTEX
  5
750
  8
00-NOPRINT_TEXT
 10
5330.8591428840545632
 20
3856.6772859397510729
 30
0.0
 42
-0.8392911393501705
  0
VERTEX
  5
751
  8
00-NOPRINT_TEXT
 10
5295.557576929584684
 20
3862.8937243877207948
 30
0.0
  0
VERTEX
  5
752
  8
00-NOPRINT_TEXT
 10
5295.557576929584684
 20
3872.8850633377560371
 30
0.0
  0
VERTEX
  5
753
  8
00-NOPRINT_TEXT
 10
5335.9223407149420382
 20
3872.8850633377560371
 30
0.0
 42
0.4142135623730951
  0
VERTEX
  5
754
  8
00-NOPRINT_TEXT
 10
5339.8908531988090544
 20
3876.8535758216180511
 30
0.0
  0
SEQEND
  5
755
  8
00-NOPRINT_TEXT
  0
POLYLINE
  5
478
  8
00-NOPRINT_TEXT
 66
     1
 10
0.0
 20
0.0
 30
0.0
 70
     1
  0
VERTEX
  5
756
  8
00-NOPRINT_TEXT
 10
5403.1032081623798149
 20
3913.0377212647049419
 30
0.0
 42
0.0457067288387406
  0
VERTEX
  5
757
  8
00-NOPRINT_TEXT
 10
5398.6034855808948123
 20
3915.0158169256951624
 30
0.0
 42
0.0401941578067522
  0
VERTEX
  5
758
  8
00-NOPRINT_TEXT
 10
5393.8225868012768842
 20
3916.1983572423009718
 30
0.0
 42
0.0405559563879494
  0
VERTEX
  5
759
  8
00-NOPRINT_TEXT
 10
5386.5170282088238309
 20
3916.7919013263940542
 30
0.0
 42
0.0949732897878055
  0
VERTEX
  5
75A
  8
00-NOPRINT_TEXT
 10
5374.6328077330599626
 20
3914.5139876841290061
 30
0.0
 42
0.0708722825397191
  0
VERTEX
  5
75B
  8
00-NOPRINT_TEXT
 10
5368.7663583857547565
 20
3911.1530177211438968
 30
0.0
 42
0.0483457727037197
  0
VERTEX
  5
75C
  8
00-NOPRINT_TEXT
 10
5366.106012548477338
 20
3908.6326314584971442
 30
0.0
 42
0.0448797265187802
  0
VERTEX
  5
75D
  8
00-NOPRINT_TEXT
 10
5364.1118958192519131
 20
3905.875071199328886
 30
0.0
 42
0.0722728677010993
  0
VERTEX
  5
75E
  8
00-NOPRINT_TEXT
 10
5362.350212577423008
 20
3901.3375439861229097
 30
0.0
 42
0.3093075497333693
  0
VERTEX
  5
75F
  8
00-NOPRINT_TEXT
 10
5369.9043151324622158
 20
3882.1316920181270689
 30
0.0
 42
0.0534583832098243
  0
VERTEX
  5
760
  8
00-NOPRINT_TEXT
 10
5374.9583923952941404
 20
3879.4411273991217968
 30
0.0
 42
0.0412448156230092
  0
VERTEX
  5
761
  8
00-NOPRINT_TEXT
 10
5382.0258108039397484
 20
3877.2554023064490138
 30
0.0
 42
-0.0058632209555069
  0
VERTEX
  5
762
  8
00-NOPRINT_TEXT
 10
5390.3969877364761487
 20
3875.3022246345840358
 30
0.0
 42
-0.0307734774359857
  0
VERTEX
  5
763
  8
00-NOPRINT_TEXT
 10
5397.6612765805348317
 20
3873.035403748519002
 30
0.0
 42
-0.1326074700036995
  0
VERTEX
  5
764
  8
00-NOPRINT_TEXT
 10
5403.8257735657416561
 20
3868.5626561644307913
 30
0.0
 42
-0.0934082332813141
  0
VERTEX
  5
765
  8
00-NOPRINT_TEXT
 10
5405.4015792120708284
 20
3865.6307085675380222
 30
0.0
 42
-0.1484702512325273
  0
VERTEX
  5
766
  8
00-NOPRINT_TEXT
 10
5405.5253535000210832
 20
3855.4035306244768435
 30
0.0
 42
-0.2016386478785572
  0
VERTEX
  5
767
  8
00-NOPRINT_TEXT
 10
5399.4512797183779185
 20
3847.901878425806899
 30
0.0
 42
-0.2228311772947458
  0
VERTEX
  5
768
  8
00-NOPRINT_TEXT
 10
5376.1860439340243829
 20
3846.6506308621678727
 30
0.0
 42
-0.1906174759338407
  0
VERTEX
  5
769
  8
00-NOPRINT_TEXT
 10
5366.2512089390220353
 20
3856.1213093652781936
 30
0.0
 42
1.0
  0
VERTEX
  5
76A
  8
00-NOPRINT_TEXT
 10
5359.0453411960388621
 20
3852.7938726027041412
 30
0.0
 42
0.1906174759338448
  0
VERTEX
  5
76B
  8
00-NOPRINT_TEXT
 10
5373.2069265474101485
 20
3839.2939179457130194
 30
0.0
 42
0.2228311772947499
  0
VERTEX
  5
76C
  8
00-NOPRINT_TEXT
 10
5403.2022457703233158
 20
3840.9071218885492272
 30
0.0
 42
0.2016386478785569
  0
VERTEX
  5
76D
  8
00-NOPRINT_TEXT
 10
5413.1473572842824069
 20
3853.1896147157240193
 30
0.0
 42
0.1484702512325262
  0
VERTEX
  5
76E
  8
00-NOPRINT_TEXT
 10
5412.9677706015390868
 20
3868.0284394107070511
 30
0.0
 42
0.0934082332813456
  0
VERTEX
  5
76F
  8
00-NOPRINT_TEXT
 10
5410.0001771413308234
 20
3873.5499506037122046
 30
0.0
 42
0.1326074700036619
  0
VERTEX
  5
770
  8
00-NOPRINT_TEXT
 10
5400.4869937659213974
 20
3880.4523901801198917
 30
0.0
 42
0.0307734774359815
  0
VERTEX
  5
771
  8
00-NOPRINT_TEXT
 10
5392.2909414861751429
 20
3883.0099677888651968
 30
0.0
 42
0.0058632209555075
  0
VERTEX
  5
772
  8
00-NOPRINT_TEXT
 10
5383.7384935536783814
 20
3885.00543992810708
 30
0.0
 42
-0.0412448156229785
  0
VERTEX
  5
773
  8
00-NOPRINT_TEXT
 10
5377.9199349669343064
 20
3886.8049328646879985
 30
0.0
 42
-0.0534583832108002
  0
VERTEX
  5
774
  8
00-NOPRINT_TEXT
 10
5374.3597277690923875
 20
3888.7002278957588715
 30
0.0
 42
-0.3052584999940819
  0
VERTEX
  5
775
  8
00-NOPRINT_TEXT
 10
5370.0523271980109712
 20
3899.4093743297448782
 30
0.0
 42
-0.0741895556533406
  0
VERTEX
  5
776
  8
00-NOPRINT_TEXT
 10
5370.9796874445491994
 20
3901.8947175688081188
 30
0.0
 42
-0.042878157842419
  0
VERTEX
  5
777
  8
00-NOPRINT_TEXT
 10
5372.0950901566729954
 20
3903.4242425769580223
 30
0.0
 42
-0.0483457727037104
  0
VERTEX
  5
778
  8
00-NOPRINT_TEXT
 10
5373.6437915991864429
 20
3904.8914675467199231
 30
0.0
 42
-0.0708722825397227
  0
VERTEX
  5
779
  8
00-NOPRINT_TEXT
 10
5377.5676492667607818
 20
3907.1394998707000923
 30
0.0
 42
-0.0949732897878214
  0
VERTEX
  5
77A
  8
00-NOPRINT_TEXT
 10
5386.5170282088238309
 20
3908.8548763586659334
 30
0.0
 42
-0.0405559563879528
  0
VERTEX
  5
77B
  8
00-NOPRINT_TEXT
 10
5392.5413482232861497
 20
3908.3654272001899699
 30
0.0
 42
-0.0401941578067489
  0
VERTEX
  5
77C
  8
00-NOPRINT_TEXT
 10
5396.0854882875273688
 20
3907.4887952724170646
 30
0.0
 42
-0.0457067288387209
  0
VERTEX
  5
77D
  8
00-NOPRINT_TEXT
 10
5399.2595710980549484
 20
3906.0934560439559391
 30
0.0
 42
-0.0622018130379019
  0
VERTEX
  5
77E
  8
00-NOPRINT_TEXT
 10
5403.0661592882261175
 20
3903.319366453360999
 30
0.0
 42
1.0
  0
VERTEX
  5
77F
  8
00-NOPRINT_TEXT
 10
5408.4995988239261351
 20
3909.1050470658938139
 30
0.0
 42
0.0622018130379014
  0
SEQEND
  5
780
  8
00-NOPRINT_TEXT
  0
POLYLINE
  5
479
  8
00-NOPRINT_TEXT
 66
     1
 10
0.0
 20
0.0
 30
0.0
 70
     1
  0
VERTEX
  5
781
  8
00-NOPRINT_TEXT
 10
5462.1019807223692624
 20
3878.7855515278838539
 30
0.0
  0
VERTEX
  5
782
  8
00-NOPRINT_TEXT
 10
5485.06795768216125
 20
3838.7523313187321037
 30
0.0
 42
1.0
  0
VERTEX
  5
783
  8
00-NOPRINT_TEXT
 10
5491.9525591328620067
 20
3842.7018411874869344
 30
0.0
  0
VERTEX
  5
784
  8
00-NOPRINT_TEXT
 10
5467.7887528129776911
 20
3884.8230616863529576
 30
0.0
  0
VERTEX
  5
785
  8
00-NOPRINT_TEXT
 10
5490.8749586360881949
 20
3909.333135231909182
 30
0.0
 42
1.0
  0
VERTEX
  5
786
  8
00-NOPRINT_TEXT
 10
5485.0973235667552217
 20
3914.7751291995600695
 30
0.0
  0
VERTEX
  5
787
  8
00-NOPRINT_TEXT
 10
5447.3443800878094407
 20
3874.6937304491448231
 30
0.0
  0
VERTEX
  5
788
  8
00-NOPRINT_TEXT
 10
5447.3443800878094407
 20
3946.7798289196011865
 30
0.0
 42
1.0
  0
VERTEX
  5
789
  8
00-NOPRINT_TEXT
 10
5439.4073551200799557
 20
3946.7798289196011865
 30
0.0
  0
VERTEX
  5
78A
  8
00-NOPRINT_TEXT
 10
5439.4073551200799557
 20
3840.7270862531090643
 30
0.0
 42
1.0
  0
VERTEX
  5
78B
  8
00-NOPRINT_TEXT
 10
5447.3443800878094407
 20
3840.7270862531090643
 30
0.0
  0
VERTEX
  5
78C
  8
00-NOPRINT_TEXT
 10
5447.3443800878094407
 20
3863.1177592678391193
 30
0.0
  0
SEQEND
  5
78D
  8
00-NOPRINT_TEXT
  0
CIRCLE
  5
47A
  8
00-NOPRINT_TEXT
 10
5585.8699060099816052
 20
3893.7534575863551254
 30
0.0
 40
56.9948838171099865
  0
POLYLINE
  5
47B
  8
00-NOPRINT_TEXT
 66
     1
 10
0.0
 20
0.0
 30
0.0
 70
     1
  0
VERTEX
  5
78E
  8
00-NOPRINT_TEXT
 10
5556.6438058673729756
 20
3902.3313798512558606
 30
0.0
  0
VERTEX
  5
78F
  8
00-NOPRINT_TEXT
 10
5556.6438058673729756
 20
3880.1976530609249494
 30
0.0
  0
VERTEX
  5
790
  8
00-NOPRINT_TEXT
 10
5571.7383770636370173
 20
3896.254660514598072
 30
0.0
  0
SEQEND
  5
791
  8
00-NOPRINT_TEXT
  0
POLYLINE
  5
47C
  8
00-NOPRINT_TEXT
 66
     1
 10
0.0
 20
0.0
 30
0.0
 70
     1
  0
VERTEX
  5
792
  8
00-NOPRINT_TEXT
 10
5598.2045431160722728
 20
3863.4662777604171424
 30
0.0
  0
VERTEX
  5
793
  8
00-NOPRINT_TEXT
 10
5614.5169484012340035
 20
3880.8187689206902178
 30
0.0
  0
VERTEX
  5
794
  8
00-NOPRINT_TEXT
 10
5614.5169484012340035
 20
3905.1889348181530295
 30
0.0
  0
VERTEX
  5
795
  8
00-NOPRINT_TEXT
 10
5598.2045431160722728
 20
3887.8364436578808636
 30
0.0
  0
SEQEND
  5
796
  8
00-NOPRINT_TEXT
  0
POLYLINE
  5
47D
  8
00-NOPRINT_TEXT
 66
     1
 10
0.0
 20
0.0
 30
0.0
 70
     1
  0
VERTEX
  5
797
  8
00-NOPRINT_TEXT
 10
5595.6047308826200606
 20
3891.0933468551888836
 30
0.0
  0
VERTEX
  5
798
  8
00-NOPRINT_TEXT
 10
5613.0096004414217532
 20
3909.6079582742418097
 30
0.0
  0
VERTEX
  5
799
  8
00-NOPRINT_TEXT
 10
5575.5560233859878281
 20
3924.6858874820659366
 30
0.0
  0
VERTEX
  5
79A
  8
00-NOPRINT_TEXT
 10
5558.151153827181588
 20
3906.1712760630180128
 30
0.0
  0
SEQEND
  5
79B
  8
00-NOPRINT_TEXT
  0
POLYLINE
  5
47E
  8
00-NOPRINT_TEXT
 66
     1
 10
0.0
 20
0.0
 30
0.0
 70
     1
  0
VERTEX
  5
79C
  8
00-NOPRINT_TEXT
 10
5618.0821970012293605
 20
3878.5888587218569228
 30
0.0
 42
0.1908976533707676
  0
VERTEX
  5
79D
  8
00-NOPRINT_TEXT
 10
5618.641948401234913
 20
3880.0015345145361607
 30
0.0
  0
VERTEX
  5
79E
  8
00-NOPRINT_TEXT
 10
5618.641948401234913
 20
3910.3941809727161854
 30
0.0
 42
0.3060715845518373
  0
VERTEX
  5
79F
  8
00-NOPRINT_TEXT
 10
5617.3496893745987109
 20
3912.3074595966900233
 30
0.0
  0
VERTEX
  5
7A0
  8
00-NOPRINT_TEXT
 10
5575.7889521259039611
 20
3929.0388348971969208
 30
0.0
 42
0.3090648432082206
  0
VERTEX
  5
7A1
  8
00-NOPRINT_TEXT
 10
5573.5159625525466254
 20
3928.538232065901866
 30
0.0
  0
VERTEX
  5
7A2
  8
00-NOPRINT_TEXT
 10
5553.0785572673794377
 20
3906.7977291572210561
 30
0.0
 42
0.1908976533707673
  0
VERTEX
  5
7A3
  8
00-NOPRINT_TEXT
 10
5552.5188058673720661
 20
3905.3850533645418182
 30
0.0
  0
VERTEX
  5
7A4
  8
00-NOPRINT_TEXT
 10
5552.5188058673720661
 20
3874.9924069063631578
 30
0.0
 42
0.6794054420538282
  0
VERTEX
  5
7A5
  8
00-NOPRINT_TEXT
 10
5556.0840544673683326
 20
3873.5797311136839198
 30
0.0
  0
VERTEX
  5
7A6
  8
00-NOPRINT_TEXT
 10
5575.8455372568960229
 20
3894.60121442191803
 30
0.0
  0
VERTEX
  5
7A7
  8
00-NOPRINT_TEXT
 10
5594.0795431160704538
 20
3887.2606325300280332
 30
0.0
  0
VERTEX
  5
7A8
  8
00-NOPRINT_TEXT
 10
5594.0795431160704538
 20
3858.2610316058539865
 30
0.0
 42
0.6794054420538282
  0
VERTEX
  5
7A9
  8
00-NOPRINT_TEXT
 10
5597.6447917160639918
 20
3856.8483558131752034
 30
0.0
  0
SEQEND
  5
7AA
  8
00-NOPRINT_TEXT
  0
CIRCLE
  5
47F
  8
00-NOPRINT_TEXT
 10
5585.8699060099816052
 20
3893.7534575863551254
 30
0.0
 40
52.8698838171095673
  0
TEXT
  5
480
  8
00-NOPRINT_TEXT
 10
4897.9746869005275585
 20
3465.1189131707551496
 30
0.0
 40
20.0
  1
DESIGNERS:
  7
OD-SIMPLEX-20
  0
TEXT
  5
481
  8
00-NOPRINT_TEXT
 10
4897.9746869005275585
 20
3430.1189131707551496
 30
0.0
 40
13.0
  1
$DESIGNER-LIST
  7
OD-SIMPLEX-13
  0
TEXT
  5
482
  8
00-NOPRINT_TEXT
 10
4897.9746869005275585
 20
3345.109674763284147
 30
0.0
 40
20.0
  1
DESIGNED FOR CNC-MILLING:
  7
OD-SIMPLEX-20
  0
TEXT
  5
483
  8
00-NOPRINT_TEXT
 10
4897.9746869005275585
 20
3310.109674763284147
 30
0.0
 40
13.0
  1
Recommended drill bit (unless otherwise noted):
  7
OD-SIMPLEX-13
  0
TEXT
  5
484
  8
00-NOPRINT_TEXT
 10
4897.9746869005275585
 20
3280.109674763284147
 30
0.0
 40
13.0
  1
Recommended sheet size (unless otherwise noted):
  7
OD-SIMPLEX-13
  0
TEXT
  5
485
  8
00-NOPRINT_TEXT
 10
4897.9746869005275585
 20
3250.109674763284147
 30
0.0
 40
13.0
  1
Recommended sheet thickness (unless otherwise noted):
  7
OD-SIMPLEX-13
  0
TEXT
  5
486
  8
00-NOPRINT_TEXT
 10
4897.9746869005275585
 20
3165.100436355815873
 30
0.0
 40
20.0
  1
PUBLISHED UNDER CREATIVE COMMONS:
  7
OD-SIMPLEX-20
  0
TEXT
  5
487
  8
00-NOPRINT_TEXT
 10
4897.9746869005275585
 20
3130.1004363558181467
 30
0.0
 40
13.0
  1
For full license terms visit: www.opendesk.cc/license
  7
OD-SIMPLEX-13
  0
TEXT
  5
488
  8
00-NOPRINT_TEXT
 10
4897.9746869005275585
 20
3045.0911979483489631
 30
0.0
 40
20.0
  1
TERMS AND CONDITIONS APPLY:
  7
OD-SIMPLEX-20
  0
TEXT
  5
489
  8
00-NOPRINT_TEXT
 10
4897.9746869005275585
 20
3010.0911979483480536
 30
0.0
 40
13.0
  1
Saving this file serves as acceptance of the Opendesk terms of use 
  7
OD-SIMPLEX-13
  0
TEXT
  5
48A
  8
00-NOPRINT_TEXT
 10
4897.9746869005275585
 20
3550.128151578222969
 30
0.0
 40
20.0
  1
License:
  7
OD-SIMPLEX-20
  0
TEXT
  5
48B
  8
00-NOPRINT_TEXT
 10
4897.9746869005275585
 20
3600.4069642425470192
 30
0.0
 40
20.0
  1
Version:
  7
OD-SIMPLEX-20
  0
TEXT
  5
48C
  8
00-NOPRINT_TEXT
 10
5217.8003105619773123
 20
3600.4069642425470192
 30
0.0
 40
20.0
  1
Published:
  7
OD-SIMPLEX-20
  0
TEXT
  5
48D
  8
00-NOPRINT_TEXT
 10
4897.9746869005275585
 20
3713.6857769068687958
 30
0.0
 40
30.0
  1
DESIGN:
  7
OD-SIMPLEX-30
  0
TEXT
  5
48E
  8
00-NOPRINT_TEXT
 10
4917.9746869005275585
 20
2925.08195954087887
 30
0.0
 40
20.0
  1
Sheet:
  7
OD-SIMPLEX-20
  0
TEXT
  5
48F
  8
00-NOPRINT_TEXT
 10
5237.8003105619773123
 20
2925.08195954087887
 30
0.0
 40
20.0
  1
Date:
  7
OD-SIMPLEX-20
  0
LINE
  5
490
  8
00-NOPRINT_TEXT
 62
     7
 10
4897.9746868987340349
 20
2965.760299250126991
 30
0.0
 11
4897.9746868961283326
 21
2904.0207388598619218
 31
0.0
  0
LINE
  5
491
  8
00-NOPRINT_TEXT
 62
     7
 10
5217.8003105619773123
 20
2904.0255205491689594
 30
0.0
 11
5217.8003105619773123
 21
2965.7602992488218661
 31
0.0
  0
TEXT
  5
492
  8
00-NOPRINT_TEXT
 10
5090.7646969507713948
 20
3713.6857769068687958
 30
0.0
 40
30.0
  1
$DESIGN
  7
OD-SIMPLEX-30
  0
TEXT
  5
493
  8
00-NOPRINT_TEXT
 10
5027.1263484644423443
 20
3550.128151578222969
 30
0.0
 40
20.0
  1
$LIC
  7
OD-SIMPLEX-20
  0
TEXT
  5
494
  8
00-NOPRINT_TEXT
 10
5027.1263484644423443
 20
3600.4069642425470192
 30
0.0
 40
20.0
  1
$VER
  7
OD-SIMPLEX-20
  0
TEXT
  5
495
  8
00-NOPRINT_TEXT
 10
5377.0970054113704464
 20
3600.4069642425470192
 30
0.0
 40
20.0
  1
$PUB-DATE
  7
OD-SIMPLEX-20
  0
TEXT
  5
496
  8
00-NOPRINT_TEXT
 10
5023.5588194830243083
 20
2925.08195954087887
 30
0.0
 40
20.0
  1
$SHEET-NO
  7
OD-SIMPLEX-20
  0
TEXT
  5
497
  8
00-NOPRINT_TEXT
 10
5327.3868394465362144
 20
2925.08195954087887
 30
0.0
 40
20.0
  1
$DATE
  7
OD-SIMPLEX-20
  0
TEXT
  5
498
  8
00-NOPRINT_TEXT
 10
4897.9746869005275585
 20
3650.6857769068687958
 30
0.0
 40
20.0
  1
Range:
  7
OD-SIMPLEX-20
  0
TEXT
  5
499
  8
00-NOPRINT_TEXT
 10
5008.270000668279863
 20
3650.6857769068687958
 30
0.0
 40
20.0
  1
$RANGE
  7
OD-SIMPLEX-20
  0
TEXT
  5
49A
  8
00-NOPRINT_TEXT
 10
5398.4490111715876992
 20
3310.109674763284147
 30
0.0
 40
13.0
  1
$BIT-SIZE
  7
OD-SIMPLEX-13
  0
TEXT
  5
49B
  8
00-NOPRINT_TEXT
 10
5481.7539740107313264
 20
3250.109674763284147
 30
0.0
 40
13.0
  1
$TH-NOMINAL
  7
OD-SIMPLEX-13
  0
TEXT
  5
49C
  8
00-NOPRINT_TEXT
 10
5427.8962357467780748
 20
3280.109674763284147
 30
0.0
 40
13.0
  1
2440mm x 1220mm
  7
OD-SIMPLEX-13
  0
POLYLINE
  5
4E1
  8
TOP_CUTOUT_18MM_OUTSIDE
 66
     1
 10
0.0
 20
0.0
 30
0.0
 70
     1
  0
VERTEX
  5
7AB
  8
TOP_CUTOUT_18MM_OUTSIDE
 10
3484.5759336656919913
 20
3500.6914544053211102
 30
0.0
 42
0.4142135725969827
  0
VERTEX
  5
7AC
  8
TOP_CUTOUT_18MM_OUTSIDE
 10
3493.5759331944541373
 20
3491.6914536199237773
 30
0.0
  0
VERTEX
  5
7AD
  8
TOP_CUTOUT_18MM_OUTSIDE
 10
3511.1562551944539337
 20
3491.6914536199251415
 30
0.0
 42
0.3948374641655323
  0
VERTEX
  5
7AE
  8
TOP_CUTOUT_18MM_OUTSIDE
 10
3520.1363004184681813
 20
3500.0924575947638004
 30
0.0
  0
VERTEX
  5
7AF
  8
TOP_CUTOUT_18MM_OUTSIDE
 10
3541.3878711886768542
 20
3818.6925364899470878
 30
0.0
 42
-0.3948374490351506
  0
VERTEX
  5
7B0
  8
TOP_CUTOUT_18MM_OUTSIDE
 10
3589.6458161332998316
 20
3863.8387736199238134
 30
0.0
  0
VERTEX
  5
7B1
  8
TOP_CUTOUT_18MM_OUTSIDE
 10
3689.5759336656919913
 20
3863.8387616199252079
 30
0.0
  0
VERTEX
  5
7B2
  8
TOP_CUTOUT_18MM_OUTSIDE
 10
3789.5060451332960838
 20
3863.8387736199238134
 30
0.0
 42
-0.3948374641655987
  0
VERTEX
  5
7B3
  8
TOP_CUTOUT_18MM_OUTSIDE
 10
3837.7639949741628698
 20
3818.6925390167298247
 30
0.0
  0
VERTEX
  5
7B4
  8
TOP_CUTOUT_18MM_OUTSIDE
 10
3859.0155658815538118
 20
3500.0924580649570999
 30
0.0
 42
0.3948374490351672
  0
VERTEX
  5
7B5
  8
TOP_CUTOUT_18MM_OUTSIDE
 10
3867.9956101944540023
 20
3491.6914536199237773
 30
0.0
  0
VERTEX
  5
7B6
  8
TOP_CUTOUT_18MM_OUTSIDE
 10
3885.5758721944530407
 20
3491.6914536199237773
 30
0.0
 42
0.4142135777089093
  0
VERTEX
  5
7B7
  8
TOP_CUTOUT_18MM_OUTSIDE
 10
3894.5758726656908948
 20
3500.6914536199251415
 30
0.0
  0
VERTEX
  5
7B8
  8
TOP_CUTOUT_18MM_OUTSIDE
 10
3894.5758726656908948
 20
3786.6853496199228175
 30
0.0
  0
VERTEX
  5
7B9
  8
TOP_CUTOUT_18MM_OUTSIDE
 10
3882.2327269151851397
 20
3786.6853496199260007
 30
0.0
 42
-1.0000000000000191
  0
VERTEX
  5
7BA
  8
TOP_CUTOUT_18MM_OUTSIDE
 10
3876.5758726656931685
 20
3792.3422038694161529
 30
0.0
  0
VERTEX
  5
7BB
  8
TOP_CUTOUT_18MM_OUTSIDE
 10
3876.5758726656908948
 20
3930.8387616199252079
 30
0.0
  0
VERTEX
  5
7BC
  8
TOP_CUTOUT_18MM_OUTSIDE
 10
3502.5759336656919913
 20
3930.8387616199252079
 30
0.0
  0
VERTEX
  5
7BD
  8
TOP_CUTOUT_18MM_OUTSIDE
 10
3502.5759336656919913
 20
3792.3422038694170624
 30
0.0
 42
-1.000000000000079
  0
VERTEX
  5
7BE
  8
TOP_CUTOUT_18MM_OUTSIDE
 10
3496.9190794162000202
 20
3786.6853496199228175
 30
0.0
  0
VERTEX
  5
7BF
  8
TOP_CUTOUT_18MM_OUTSIDE
 10
3484.5759336656919913
 20
3786.6853496199228175
 30
0.0
  0
SEQEND
  5
7C0
  8
TOP_CUTOUT_18MM_OUTSIDE
  0
CIRCLE
  5
4E2
  8
HOLE_6MM_DIAM_18MM_DEEP
 10
4146.7952205753081216
 20
3336.8154551353209172
 30
0.0
 40
3.0
  0
CIRCLE
  5
4E3
  8
HOLE_6MM_DIAM_18MM_DEEP
 10
4029.4785095753068163
 20
3031.4021251353228763
 30
0.0
 40
3.0
  0
CIRCLE
  5
4E4
  8
HOLE_6MM_DIAM_18MM_DEEP
 10
4214.1450745753081719
 20
3356.127711135321988
 30
0.0
 40
3.0
  0
CIRCLE
  5
4E5
  8
HOLE_6MM_DIAM_18MM_DEEP
 10
4029.4785095753068163
 20
3346.1629431353221662
 30
0.0
 40
3.0
  0
CIRCLE
  5
4E6
  8
HOLE_6MM_DIAM_18MM_DEEP
 10
4089.297906575307934
 20
3066.5862071353230931
 30
0.0
 40
3.0
  0
CIRCLE
  5
4E7
  8
HOLE_6MM_DIAM_18MM_DEEP
 10
3963.9148495753070165
 20
3361.2994941353231297
 30
0.0
 40
3.0
  0
CIRCLE
  5
4E8
  8
HOLE_6MM_DIAM_18MM_DEEP
 10
4089.297906575307934
 20
3277.7676721353218454
 30
0.0
 40
3.0
  0
CIRCLE
  5
4E9
  8
HOLE_6MM_DIAM_18MM_DEEP
 10
3963.9148495753070165
 20
3016.2655591353232012
 30
0.0
 40
3.0
  0
POLYLINE
  5
4EA
  8
TOP_CUTOUT_18MM_OUTSIDE
 66
     1
 10
0.0
 20
0.0
 30
0.0
 70
     1
  0
VERTEX
  5
7C1
  8
TOP_CUTOUT_18MM_OUTSIDE
 10
4083.2969266418258485
 20
3034.590321604050132
 30
0.0
 42
0.349215623630674
  0
VERTEX
  5
7C2
  8
TOP_CUTOUT_18MM_OUTSIDE
 10
4098.797906575307934
 20
3054.0777213899928029
 30
0.0
  0
VERTEX
  5
7C3
  8
TOP_CUTOUT_18MM_OUTSIDE
 10
4098.797906575307934
 20
3283.547587135321919
 30
0.0
 42
-0.3345953097984663
  0
VERTEX
  5
7C4
  8
TOP_CUTOUT_18MM_OUTSIDE
 10
4127.7724110004519389
 20
3321.998054587992101
 30
0.0
  0
VERTEX
  5
7C5
  8
TOP_CUTOUT_18MM_OUTSIDE
 10
4236.3122495753059411
 20
3353.1213481353211137
 30
0.0
  0
VERTEX
  5
7C6
  8
TOP_CUTOUT_18MM_OUTSIDE
 10
4231.3507625753081811
 20
3370.4240521353231088
 30
0.0
  0
VERTEX
  5
7C7
  8
TOP_CUTOUT_18MM_OUTSIDE
 10
4149.5744814644340295
 20
3346.975078466190098
 30
0.0
 42
-0.1272160680011995
  0
VERTEX
  5
7C8
  8
TOP_CUTOUT_18MM_OUTSIDE
 10
4074.4862199745289217
 20
3345.0088218286400661
 30
0.0
  0
VERTEX
  5
7C9
  8
TOP_CUTOUT_18MM_OUTSIDE
 10
3943.4395075753081983
 20
3375.263346135322081
 30
0.0
  0
VERTEX
  5
7CA
  8
TOP_CUTOUT_18MM_OUTSIDE
 10
3939.3903745753068506
 20
3357.7246801353230694
 30
0.0
  0
VERTEX
  5
7CB
  8
TOP_CUTOUT_18MM_OUTSIDE
 10
3996.7939868413632212
 20
3344.4720162604180587
 30
0.0
 42
-0.3492156236305513
  0
VERTEX
  5
7CC
  8
TOP_CUTOUT_18MM_OUTSIDE
 10
4058.797906575306115
 20
3266.5224171166610176
 30
0.0
  0
VERTEX
  5
7CD
  8
TOP_CUTOUT_18MM_OUTSIDE
 10
4058.797906575306115
 20
3111.0426361540048674
 30
0.0
 42
-0.3492156236307085
  0
VERTEX
  5
7CE
  8
TOP_CUTOUT_18MM_OUTSIDE
 10
3996.7939868413841396
 20
3033.0930370102310007
 30
0.0
  0
VERTEX
  5
7CF
  8
TOP_CUTOUT_18MM_OUTSIDE
 10
3936.1820005753070291
 20
3019.0996341353220487
 30
0.0
  0
VERTEX
  5
7D0
  8
TOP_CUTOUT_18MM_OUTSIDE
 10
3940.231133575307922
 20
3001.5609991353230726
 30
0.0
  0
SEQEND
  5
7D1
  8
TOP_CUTOUT_18MM_OUTSIDE
  0
POLYLINE
  5
4EB
  8
TOP_CUTOUT_18MM_OUTSIDE
 66
     1
 10
0.0
 20
0.0
 30
0.0
 70
     1
  0
VERTEX
  5
7D2
  8
TOP_CUTOUT_18MM_OUTSIDE
 10
3829.474686639806805
 20
2863.7769086061739472
 30
0.0
  0
VERTEX
  5
7D3
  8
TOP_CUTOUT_18MM_OUTSIDE
 10
3846.9746869016071287
 20
2863.7769086061739472
 30
0.0
  0
VERTEX
  5
7D4
  8
TOP_CUTOUT_18MM_OUTSIDE
 10
3846.9746869016071287
 20
3170.9675841769671933
 30
0.0
 42
0.4142135725970305
  0
VERTEX
  5
7D5
  8
TOP_CUTOUT_18MM_OUTSIDE
 10
3816.9746842836138967
 20
3200.9675826061720727
 30
0.0
  0
VERTEX
  5
7D6
  8
TOP_CUTOUT_18MM_OUTSIDE
 10
3502.9746895196008154
 20
3200.9675826061720727
 30
0.0
 42
0.4142135725971657
  0
VERTEX
  5
7D7
  8
TOP_CUTOUT_18MM_OUTSIDE
 10
3472.9746869016080382
 20
3170.9675841769690123
 30
0.0
  0
VERTEX
  5
7D8
  8
TOP_CUTOUT_18MM_OUTSIDE
 10
3472.9746869016080382
 20
2863.7769086061739472
 30
0.0
  0
VERTEX
  5
7D9
  8
TOP_CUTOUT_18MM_OUTSIDE
 10
3490.4746866398090788
 20
2863.7769086061739472
 30
0.0
 42
-0.4142135725970606
  0
VERTEX
  5
7DA
  8
TOP_CUTOUT_18MM_OUTSIDE
 10
3493.4746869016080382
 20
2860.7769087632527771
 30
0.0
  0
VERTEX
  5
7DB
  8
TOP_CUTOUT_18MM_OUTSIDE
 10
3493.4746869016080382
 20
2840.9675836533751863
 30
0.0
 42
0.4142135777089539
  0
VERTEX
  5
7DC
  8
TOP_CUTOUT_18MM_OUTSIDE
 10
3513.4746869016039454
 20
2820.9675826061720727
 30
0.0
  0
VERTEX
  5
7DD
  8
TOP_CUTOUT_18MM_OUTSIDE
 10
3806.4746869016071287
 20
2820.9675826061720727
 30
0.0
 42
0.414213577708793
  0
VERTEX
  5
7DE
  8
TOP_CUTOUT_18MM_OUTSIDE
 10
3826.4746869016071287
 20
2840.967583653370184
 30
0.0
  0
VERTEX
  5
7DF
  8
TOP_CUTOUT_18MM_OUTSIDE
 10
3826.4746869016071287
 20
2860.7769087632527771
 30
0.0
 42
-0.4142135214775167
  0
SEQEND
  5
7E0
  8
TOP_CUTOUT_18MM_OUTSIDE
  0
POLYLINE
  5
4EC
  8
TOP_CUTOUT_18MM_INSIDE
 66
     1
 10
0.0
 20
0.0
 30
0.0
 70
     1
  0
VERTEX
  5
7E1
  8
TOP_CUTOUT_18MM_INSIDE
 10
3901.855965310890042
 20
2927.5682670827959555
 30
0.0
  0
VERTEX
  5
7E2
  8
TOP_CUTOUT_18MM_INSIDE
 10
3901.855965310890042
 20
2872.5682670827918628
 30
0.0
 42
0.4142135725970303
  0
VERTEX
  5
7E3
  8
TOP_CUTOUT_18MM_INSIDE
 10
3921.8559642636919307
 20
2852.5682653374628899
 30
0.0
  0
VERTEX
  5
7E4
  8
TOP_CUTOUT_18MM_INSIDE
 10
4215.8559642636973877
 20
2852.5682653374628899
 30
0.0
 42
0.4142135777087713
  0
VERTEX
  5
7E5
  8
TOP_CUTOUT_18MM_INSIDE
 10
4235.8559653108886778
 20
2872.5682653374678921
 30
0.0
  0
VERTEX
  5
7E6
  8
TOP_CUTOUT_18MM_INSIDE
 10
4235.8559653108886778
 20
2927.5682653374628899
 30
0.0
 42
0.4142135777089277
  0
VERTEX
  5
7E7
  8
TOP_CUTOUT_18MM_INSIDE
 10
4215.8559642636919307
 20
2947.5682653374628899
 30
0.0
  0
VERTEX
  5
7E8
  8
TOP_CUTOUT_18MM_INSIDE
 10
3921.8559642636978424
 20
2947.5682653374610709
 30
0.0
 42
0.4142135214773647
  0
SEQEND
  5
7E9
  8
TOP_CUTOUT_18MM_INSIDE
  0
POLYLINE
  5
4ED
  8
TOP_CUTOUT_18MM_OUTSIDE
 66
     1
 10
0.0
 20
0.0
 30
0.0
 70
     1
  0
VERTEX
  5
7EA
  8
TOP_CUTOUT_18MM_OUTSIDE
 10
3827.1565008286888769
 20
3221.3460914938300448
 30
0.0
  0
VERTEX
  5
7EB
  8
TOP_CUTOUT_18MM_OUTSIDE
 10
3811.7139348286891618
 20
3288.2351294938298452
 30
0.0
  0
VERTEX
  5
7EC
  8
TOP_CUTOUT_18MM_OUTSIDE
 10
3539.1226338286887767
 20
3288.2351294938298452
 30
0.0
  0
VERTEX
  5
7ED
  8
TOP_CUTOUT_18MM_OUTSIDE
 10
3523.6800608286907845
 20
3221.3460914938300448
 30
0.0
  0
VERTEX
  5
7EE
  8
TOP_CUTOUT_18MM_OUTSIDE
 10
3533.8074948807811779
 20
3219.0079135843279801
 30
0.0
 42
0.3043891499192805
  0
VERTEX
  5
7EF
  8
TOP_CUTOUT_18MM_OUTSIDE
 10
3543.5980048422538857
 20
3222.7385903004769716
 30
0.0
  0
VERTEX
  5
7F0
  8
TOP_CUTOUT_18MM_OUTSIDE
 10
3565.5903995047528952
 20
3253.8210915804302203
 30
0.0
 42
-0.2433979922400471
  0
VERTEX
  5
7F1
  8
TOP_CUTOUT_18MM_OUTSIDE
 10
3583.7834238286891377
 20
3263.2350924938291428
 30
0.0
  0
VERTEX
  5
7F2
  8
TOP_CUTOUT_18MM_OUTSIDE
 10
3675.4182868286898156
 20
3263.2351294938298452
 30
0.0
  0
VERTEX
  5
7F3
  8
TOP_CUTOUT_18MM_OUTSIDE
 10
3767.0531528286901448
 20
3263.2350924938291428
 30
0.0
 42
-0.2433979922401256
  0
VERTEX
  5
7F4
  8
TOP_CUTOUT_18MM_OUTSIDE
 10
3785.2461771526232042
 20
3253.8210915804361321
 30
0.0
  0
VERTEX
  5
7F5
  8
TOP_CUTOUT_18MM_OUTSIDE
 10
3807.2385638151249623
 20
3222.7385903004801548
 30
0.0
 42
0.3043891499190526
  0
VERTEX
  5
7F6
  8
TOP_CUTOUT_18MM_OUTSIDE
 10
3817.0290737765940321
 20
3219.0079135843270706
 30
0.0
  0
SEQEND
  5
7F7
  8
TOP_CUTOUT_18MM_OUTSIDE
  0
POLYLINE
  5
4EE
  8
TOP_CUTOUT_18MM_OUTSIDE
 66
     1
 10
0.0
 20
0.0
 30
0.0
 70
     1
  0
VERTEX
  5
7F8
  8
TOP_CUTOUT_18MM_OUTSIDE
 10
3525.9798307598989595
 20
3378.2155244448517806
 30
0.0
  0
VERTEX
  5
7F9
  8
TOP_CUTOUT_18MM_OUTSIDE
 10
3541.4223967598991294
 20
3311.3264864448519802
 30
0.0
  0
VERTEX
  5
7FA
  8
TOP_CUTOUT_18MM_OUTSIDE
 10
3814.0136897599008989
 20
3311.3264864448519802
 30
0.0
  0
VERTEX
  5
7FB
  8
TOP_CUTOUT_18MM_OUTSIDE
 10
3829.4562557599001593
 20
3378.2155244448517806
 30
0.0
  0
VERTEX
  5
7FC
  8
TOP_CUTOUT_18MM_OUTSIDE
 10
3819.3288437078072093
 20
3380.5537023543511168
 30
0.0
 42
0.3043891499192362
  0
VERTEX
  5
7FD
  8
TOP_CUTOUT_18MM_OUTSIDE
 10
3809.5383337463349562
 20
3376.8230256382030348
 30
0.0
  0
VERTEX
  5
7FE
  8
TOP_CUTOUT_18MM_OUTSIDE
 10
3787.5459480838380841
 20
3345.7405243582520598
 30
0.0
 42
-0.2433979922400407
  0
VERTEX
  5
7FF
  8
TOP_CUTOUT_18MM_OUTSIDE
 10
3769.3529237599000226
 20
3336.3265234448517731
 30
0.0
  0
VERTEX
  5
800
  8
TOP_CUTOUT_18MM_OUTSIDE
 10
3677.7180507599009616
 20
3336.3264864448519802
 30
0.0
  0
VERTEX
  5
801
  8
TOP_CUTOUT_18MM_OUTSIDE
 10
3586.0831857599000614
 20
3336.3265234448517731
 30
0.0
 42
-0.2433979922401003
  0
VERTEX
  5
802
  8
TOP_CUTOUT_18MM_OUTSIDE
 10
3567.8901614359638188
 20
3345.740524358247967
 30
0.0
  0
VERTEX
  5
803
  8
TOP_CUTOUT_18MM_OUTSIDE
 10
3545.8977677734660574
 20
3376.8230256382012158
 30
0.0
 42
0.3043891499190722
  0
VERTEX
  5
804
  8
TOP_CUTOUT_18MM_OUTSIDE
 10
3536.1072578119928949
 20
3380.5537023543511168
 30
0.0
  0
SEQEND
  5
805
  8
TOP_CUTOUT_18MM_OUTSIDE
  0
POLYLINE
  5
4EF
  8
TOP_CUTOUT_18MM_OUTSIDE
 66
     1
 10
0.0
 20
0.0
 30
0.0
 70
     1
  0
VERTEX
  5
806
  8
TOP_CUTOUT_18MM_OUTSIDE
 10
4053.4304945878670878
 20
3558.3133464268212265
 30
0.0
 42
-0.3492156383169618
  0
VERTEX
  5
807
  8
TOP_CUTOUT_18MM_OUTSIDE
 10
4037.9295153346238294
 20
3577.8007478010490559
 30
0.0
  0
VERTEX
  5
808
  8
TOP_CUTOUT_18MM_OUTSIDE
 10
4037.9295153346229199
 20
3807.2705783103901922
 30
0.0
 42
0.3345953389093226
  0
VERTEX
  5
809
  8
TOP_CUTOUT_18MM_OUTSIDE
 10
4008.9550102383900594
 20
3845.7210494461501185
 30
0.0
  0
VERTEX
  5
80A
  8
TOP_CUTOUT_18MM_OUTSIDE
 10
3900.4152333346250998
 20
3876.8443428010491516
 30
0.0
  0
VERTEX
  5
80B
  8
TOP_CUTOUT_18MM_OUTSIDE
 10
3905.376659334624037
 20
3894.1470468010479635
 30
0.0
  0
VERTEX
  5
80C
  8
TOP_CUTOUT_18MM_OUTSIDE
 10
3987.1529379289381723
 20
3870.6980738535298769
 30
0.0
 42
0.1272160635670583
  0
VERTEX
  5
80D
  8
TOP_CUTOUT_18MM_OUTSIDE
 10
4062.2411968335359234
 20
3868.7318153165060721
 30
0.0
  0
VERTEX
  5
80E
  8
TOP_CUTOUT_18MM_OUTSIDE
 10
4193.2879133346232265
 20
3898.9863408010469357
 30
0.0
  0
VERTEX
  5
80F
  8
TOP_CUTOUT_18MM_OUTSIDE
 10
4197.3369863346251805
 20
3881.4476748010488336
 30
0.0
  0
VERTEX
  5
810
  8
TOP_CUTOUT_18MM_OUTSIDE
 10
4139.9334323475959536
 20
3868.1950102979581061
 30
0.0
 42
0.3492156383170001
  0
VERTEX
  5
811
  8
TOP_CUTOUT_18MM_OUTSIDE
 10
4077.9295153346238294
 20
3790.2454048010517909
 30
0.0
  0
VERTEX
  5
812
  8
TOP_CUTOUT_18MM_OUTSIDE
 10
4077.9295153346229199
 20
3634.7656528010488728
 30
0.0
 42
0.3492156383169912
  0
VERTEX
  5
813
  8
TOP_CUTOUT_18MM_OUTSIDE
 10
4139.9334323475923156
 20
3556.8160473041389196
 30
0.0
  0
VERTEX
  5
814
  8
TOP_CUTOUT_18MM_OUTSIDE
 10
4200.5454213346238248
 20
3542.8226598010478483
 30
0.0
  0
VERTEX
  5
815
  8
TOP_CUTOUT_18MM_OUTSIDE
 10
4196.4962873346248671
 20
3525.2839938010488368
 30
0.0
  0
SEQEND
  5
816
  8
TOP_CUTOUT_18MM_OUTSIDE
  0
CIRCLE
  5
4F0
  8
HOLE_6MM_DIAM_18MM_DEEP
 10
4172.8125723346229279
 20
3885.022488801047075
 30
0.0
 40
3.0
  0
CIRCLE
  5
4F1
  8
HOLE_6MM_DIAM_18MM_DEEP
 10
4107.2489123346240376
 20
3869.8859378010488399
 30
0.0
 40
3.0
  0
CIRCLE
  5
4F2
  8
HOLE_6MM_DIAM_18MM_DEEP
 10
3922.5823473346249557
 20
3879.8507058010491164
 30
0.0
 40
3.0
  0
CIRCLE
  5
4F3
  8
HOLE_6MM_DIAM_18MM_DEEP
 10
4047.4295153346238294
 20
3801.4906588010480846
 30
0.0
 40
3.0
  0
CIRCLE
  5
4F4
  8
HOLE_6MM_DIAM_18MM_DEEP
 10
4047.4295153346238294
 20
3590.3092018010479478
 30
0.0
 40
3.0
  0
CIRCLE
  5
4F5
  8
HOLE_6MM_DIAM_18MM_DEEP
 10
4107.2489123346240376
 20
3555.1250888010490598
 30
0.0
 40
3.0
  0
CIRCLE
  5
4F6
  8
HOLE_6MM_DIAM_18MM_DEEP
 10
4172.8125723346229279
 20
3539.9885538010489654
 30
0.0
 40
3.0
  0
CIRCLE
  5
4F7
  8
HOLE_6MM_DIAM_18MM_DEEP
 10
3989.932201334625006
 20
3860.5384498010480456
 30
0.0
 40
3.0
  0
CIRCLE
  5
4F8
  8
HOLE_6MM_DIAM_18MM_DEEP
 10
3809.5759336656919913
 20
3878.3888106199237882
 30
0.0
 40
3.0
  0
CIRCLE
  5
4F9
  8
HOLE_6MM_DIAM_18MM_DEEP
 10
3569.5759336656919913
 20
3917.2639936199229851
 30
0.0
 40
3.0
  0
CIRCLE
  5
4FA
  8
HOLE_6MM_DIAM_18MM_DEEP
 10
3569.5759336656919913
 20
3878.3888106199237882
 30
0.0
 40
3.0
  0
CIRCLE
  5
4FB
  8
HOLE_6MM_DIAM_18MM_DEEP
 10
3809.5759336656919913
 20
3917.2639936199229851
 30
0.0
 40
3.0
  0
CIRCLE
  5
4FC
  8
HOLE_6MM_DIAM_18MM_DEEP
 10
3642.8797399677569047
 20
3407.9290121633212038
 30
0.0
 40
3.0
  0
CIRCLE
  5
4FD
  8
HOLE_6MM_DIAM_18MM_DEEP
 10
3882.8797399677569047
 20
3446.8041951633208555
 30
0.0
 40
3.0
  0
CIRCLE
  5
4FE
  8
HOLE_6MM_DIAM_18MM_DEEP
 10
3882.8797399677569047
 20
3407.9290121633212038
 30
0.0
 40
3.0
  0
CIRCLE
  5
4FF
  8
HOLE_6MM_DIAM_18MM_DEEP
 10
3642.8797399677569047
 20
3446.8041951633208555
 30
0.0
 40
3.0
  0
POLYLINE
  5
500
  8
TOP_CUTOUT_18MM_OUTSIDE
 66
     1
 10
0.0
 20
0.0
 30
0.0
 70
     1
  0
VERTEX
  5
817
  8
TOP_CUTOUT_18MM_OUTSIDE
 10
3967.8797399677569047
 20
3824.5015513779230787
 30
0.0
 42
0.4142135725969962
  0
VERTEX
  5
818
  8
TOP_CUTOUT_18MM_OUTSIDE
 10
3958.8797404389970325
 20
3833.5015521633208664
 30
0.0
  0
VERTEX
  5
819
  8
TOP_CUTOUT_18MM_OUTSIDE
 10
3941.2994184389981456
 20
3833.5015521633199569
 30
0.0
 42
0.3948374641655994
  0
VERTEX
  5
81A
  8
TOP_CUTOUT_18MM_OUTSIDE
 10
3932.3193732149829884
 20
3825.1005481884822075
 30
0.0
  0
VERTEX
  5
81B
  8
TOP_CUTOUT_18MM_OUTSIDE
 10
3911.0678024447720418
 20
3506.5004692932971011
 30
0.0
 42
-0.3948374490351562
  0
VERTEX
  5
81C
  8
TOP_CUTOUT_18MM_OUTSIDE
 10
3862.8098575001517929
 20
3461.3542321633208303
 30
0.0
  0
VERTEX
  5
81D
  8
TOP_CUTOUT_18MM_OUTSIDE
 10
3762.8797399677578142
 20
3461.354244163318981
 30
0.0
  0
VERTEX
  5
81E
  8
TOP_CUTOUT_18MM_OUTSIDE
 10
3662.9496285001541764
 20
3461.3542321633199208
 30
0.0
 42
-0.3948374641655822
  0
VERTEX
  5
81F
  8
TOP_CUTOUT_18MM_OUTSIDE
 10
3614.6916786592869357
 20
3506.5004667665161833
 30
0.0
  0
VERTEX
  5
820
  8
TOP_CUTOUT_18MM_OUTSIDE
 10
3593.4401077518959937
 20
3825.1005477182879986
 30
0.0
 42
0.3948374490351589
  0
VERTEX
  5
821
  8
TOP_CUTOUT_18MM_OUTSIDE
 10
3584.4600634389971674
 20
3833.5015521633208664
 30
0.0
  0
VERTEX
  5
822
  8
TOP_CUTOUT_18MM_OUTSIDE
 10
3566.8798014389958553
 20
3833.5015521633208664
 30
0.0
 42
0.4142135777089134
  0
VERTEX
  5
823
  8
TOP_CUTOUT_18MM_OUTSIDE
 10
3557.8798009677580012
 20
3824.5015521633199569
 30
0.0
  0
VERTEX
  5
824
  8
TOP_CUTOUT_18MM_OUTSIDE
 10
3557.8798009677580012
 20
3538.5076561633209167
 30
0.0
  0
VERTEX
  5
825
  8
TOP_CUTOUT_18MM_OUTSIDE
 10
3570.2229467182642111
 20
3538.5076561633209167
 30
0.0
 42
-1.00000000000028
  0
VERTEX
  5
826
  8
TOP_CUTOUT_18MM_OUTSIDE
 10
3575.8798009677580012
 20
3532.850801913828036
 30
0.0
  0
VERTEX
  5
827
  8
TOP_CUTOUT_18MM_OUTSIDE
 10
3575.8798009677580012
 20
3394.3542441633198905
 30
0.0
  0
VERTEX
  5
828
  8
TOP_CUTOUT_18MM_OUTSIDE
 10
3949.8797399677569047
 20
3394.3542441633198905
 30
0.0
  0
VERTEX
  5
829
  8
TOP_CUTOUT_18MM_OUTSIDE
 10
3949.8797399677591784
 20
3532.850801913828036
 30
0.0
 42
-1.0
  0
VERTEX
  5
82A
  8
TOP_CUTOUT_18MM_OUTSIDE
 10
3955.5365942172497853
 20
3538.5076561633209167
 30
0.0
  0
VERTEX
  5
82B
  8
TOP_CUTOUT_18MM_OUTSIDE
 10
3967.8797399677569047
 20
3538.5076561633209167
 30
0.0
  0
SEQEND
  5
82C
  8
TOP_CUTOUT_18MM_OUTSIDE
  0
POLYLINE
  5
501
  8
TOP_CUTOUT_18MM_OUTSIDE
 66
     1
 10
0.0
 20
0.0
 30
0.0
 70
     1
  0
VERTEX
  5
82D
  8
TOP_CUTOUT_18MM_OUTSIDE
 10
3881.855965310890042
 20
3243.8441513374627903
 30
0.0
  0
VERTEX
  5
82E
  8
TOP_CUTOUT_18MM_OUTSIDE
 10
3901.855965310890042
 20
3243.8441513374627903
 30
0.0
  0
VERTEX
  5
82F
  8
TOP_CUTOUT_18MM_OUTSIDE
 10
3901.855965310890042
 20
3002.568263592132098
 30
0.0
 42
0.4142135214775133
  0
VERTEX
  5
830
  8
TOP_CUTOUT_18MM_OUTSIDE
 10
3921.8559642636919307
 20
2982.5682653374628899
 30
0.0
  0
VERTEX
  5
831
  8
TOP_CUTOUT_18MM_OUTSIDE
 10
4215.8559642636973877
 20
2982.5682653374628899
 30
0.0
 42
0.4142135777087975
  0
VERTEX
  5
832
  8
TOP_CUTOUT_18MM_OUTSIDE
 10
4235.8559653108886778
 20
3002.5682653374678921
 30
0.0
  0
VERTEX
  5
833
  8
TOP_CUTOUT_18MM_OUTSIDE
 10
4235.8559653108886778
 20
3243.8441513374627903
 30
0.0
  0
VERTEX
  5
834
  8
TOP_CUTOUT_18MM_OUTSIDE
 10
4255.8559653108886778
 20
3243.8441513374627903
 30
0.0
  0
VERTEX
  5
835
  8
TOP_CUTOUT_18MM_OUTSIDE
 10
4255.8559653108886778
 20
3079.9320895869541346
 30
0.0
 42
0.9999999999997989
  0
VERTEX
  5
836
  8
TOP_CUTOUT_18MM_OUTSIDE
 10
4261.5128195603820132
 20
3074.2752353374630729
 30
0.0
  0
VERTEX
  5
837
  8
TOP_CUTOUT_18MM_OUTSIDE
 10
4273.8559653108886778
 20
3074.2752353374630729
 30
0.0
  0
VERTEX
  5
838
  8
TOP_CUTOUT_18MM_OUTSIDE
 10
4273.8559653108886778
 20
2852.5682653374710753
 30
0.0
 42
-0.4142135777089421
  0
VERTEX
  5
839
  8
TOP_CUTOUT_18MM_OUTSIDE
 10
4238.8559634783050569
 20
2817.5682653374628899
 30
0.0
  0
VERTEX
  5
83A
  8
TOP_CUTOUT_18MM_OUTSIDE
 10
3898.8559634782950525
 20
2817.5682653374628899
 30
0.0
 42
-0.4142135470372352
  0
VERTEX
  5
83B
  8
TOP_CUTOUT_18MM_OUTSIDE
 10
3863.855965310890042
 20
2852.5682653374628899
 30
0.0
  0
VERTEX
  5
83C
  8
TOP_CUTOUT_18MM_OUTSIDE
 10
3863.855965310890042
 20
3074.2752353374630729
 30
0.0
  0
VERTEX
  5
83D
  8
TOP_CUTOUT_18MM_OUTSIDE
 10
3876.1991110613980709
 20
3074.2752353374630729
 30
0.0
 42
1.00000000000026
  0
VERTEX
  5
83E
  8
TOP_CUTOUT_18MM_OUTSIDE
 10
3881.855965310891861
 20
3079.9320895869541346
 30
0.0
  0
SEQEND
  5
83F
  8
TOP_CUTOUT_18MM_OUTSIDE
  0
ENDSEC
  0
EOF
