999
dxflib 3.7.5.0
  0
SECTION
  2
HEADER
  9
$ACADVER
  1
AC1015
  9
$HANDSEED
  5
FFFF
  9
$ANGBASE
 50
0.0
  9
$ANGDIR
 70
0
  9
$ATTMODE
 70
1
  9
$AUNITS
 70
0
  9
$AUPREC
 70
0
  9
$CECOLOR
 62
256
  9
$CHAMFERA
 40
0.0
  9
$CHAMFERB
 40
0.0
  9
$DIMADEC
 70
0
  9
$DIMALT
 70
0
  9
$DIMALTD
 70
2
  9
$DIMALTF
 40
25.399999999999999
  9
$DIMAPOST
  1

  9
$DIMASZ
 40
0.18
  9
$DIMAUNIT
 70
0
  9
$DIMAZIN
 70
0
  9
$DIMBLK
  1

  9
$DIMBLK1
  1

  9
$DIMBLK2
  1

  9
$DIMCEN
 40
0.09
  9
$DIMCLRD
 70
0
  9
$DIMCLRE
 70
0
  9
$DIMCLRT
 70
0
  9
$DIMDEC
 70
4
  9
$DIMDLE
 40
0.0
  9
$DIMDLI
 40
0.38
  9
$DIMEXE
 40
0.18
  9
$DIMEXO
 40
0.0625
  9
$DIMGAP
 40
0.09
  9
$DIMLFAC
 40
1.0
  9
$DIMLIM
 70
0
  9
$DIMLUNIT
 70
2
  9
$DIMPOST
  1

  9
$DIMRND
 40
0.0
  9
$DIMSAH
 70
0
  9
$DIMSCALE
 40
1.0
  9
$DIMSE1
 70
0
  9
$DIMSE2
 70
0
  9
$DIMSOXD
 70
0
  9
$DIMTAD
 70
0
  9
$DIMTFAC
 40
1.0
  9
$DIMTIH
 70
1
  9
$DIMTIX
 70
0
  9
$DIMTM
 40
0.0
  9
$DIMTOFL
 70
0
  9
$DIMTOH
 70
1
  9
$DIMTOL
 70
0
  9
$DIMTP
 40
0.0
  9
$DIMTSZ
 40
0.0
  9
$DIMTVP
 40
0.0
  9
$DIMTXT
 40
0.18
  9
$DIMZIN
 70
0
  9
$DWGCODEPAGE
  3
ANSI_1252
  9
$ELEVATION
 40
0.0
  9
$EXTMAX
 10
15189.59403184763
 20
7378.0207632720349
 30
0.0
  9
$EXTMIN
 10
-300.00000803821422
 20
-307.25165860253492
 30
0.0
  9
$FILLETRAD
 40
0.5
  9
$FILLMODE
 70
1
  9
$INSBASE
 10
0.0
 20
0.0
 30
0.0
  9
$INSUNITS
 70
0
  9
$LIMCHECK
 70
0
  9
$LIMMAX
 10
12.0
 20
9.0
  9
$LIMMIN
 10
0.0
 20
0.0
  9
$LTSCALE
 40
1
  9
$LUNITS
 70
2
  9
$LUPREC
 70
4
  9
$MAXACTVP
 70
64
  9
$MIRRTEXT
 70
1
  9
$ORTHOMODE
 70
0
  9
$PDMODE
 70
0
  9
$PDSIZE
 40
0.0
  9
$PELEVATION
 40
0.0
  9
$PEXTMAX
 10
-100000000000000000000.0
 20
-100000000000000000000.0
 30
-100000000000000000000.0
  9
$PEXTMIN
 10
100000000000000000000.0
 20
100000000000000000000.0
 30
100000000000000000000.0
  9
$PLIMCHECK
 70
0
  9
$PLIMMAX
 10
12.0
 20
9.0
  9
$PLIMMIN
 10
0.0
 20
0.0
  9
$PLINEGEN
 70
0
  9
$PLINEWID
 40
0.0
  9
$PSLTSCALE
 70
1
  9
$PUCSNAME
  2

  9
$PUCSORG
 10
0.0
 20
0.0
 30
0.0
  9
$PUCSXDIR
 10
1.0
 20
0.0
 30
0.0
  9
$PUCSYDIR
 10
0.0
 20
1.0
 30
0.0
  9
$QTEXTMODE
 70
0
  9
$REGENMODE
 70
1
  9
$SHADEDGE
 70
3
  9
$SHADEDIF
 70
70
  9
$SKETCHINC
 40
0.1
  9
$SKPOLY
 70
0
  9
$SPLFRAME
 70
0
  9
$SPLINESEGS
 70
8
  9
$SPLINETYPE
 70
6
  9
$SURFTAB1
 70
6
  9
$SURFTAB2
 70
6
  9
$SURFTYPE
 70
6
  9
$SURFU
 70
6
  9
$SURFV
 70
6
  9
$TEXTSIZE
 40
0.2
  9
$TEXTSTYLE
  7
STANDARD
  9
$THICKNESS
 40
0.0
  9
$TILEMODE
 70
1
  9
$TRACEWID
 40
0.05
  9
$UCSNAME
  2

  9
$UCSORG
 10
0.0
 20
0.0
 30
0.0
  9
$UCSXDIR
 10
1.0
 20
0.0
 30
0.0
  9
$UCSYDIR
 10
0.0
 20
1.0
 30
0.0
  9
$UNITMODE
 70
0
  9
$USERI1
 70
0
  9
$USERI2
 70
0
  9
$USERI3
 70
0
  9
$USERI4
 70
0
  9
$USERI5
 70
0
  9
$USERR1
 40
0.0
  9
$USERR2
 40
0.0
  9
$USERR3
 40
0.0
  9
$USERR4
 40
0.0
  9
$USERR5
 40
0.0
  9
$USRTIMER
 70
1
  9
$VISRETAIN
 70
1
  0
ENDSEC
  0
SECTION
  2
TABLES
  0
TABLE
  2
VPORT
  5
8
100
AcDbSymbolTable
 70
1
  0
VPORT
  5
30
100
AcDbSymbolTableRecord
100
AcDbViewportTableRecord
  2
*Active
 70
0
 10
0.0
 20
0.0
 11
1.0
 21
1.0
 12
286.30555555555549
 22
148.5
 13
0.0
 23
0.0
 14
10.0
 24
10.0
 15
10.0
 25
10.0
 16
0.0
 26
0.0
 36
1.0
 17
0.0
 27
0.0
 37
0.0
 40
297.0
 41
1.92798353909465
 42
50.0
 43
0.0
 44
0.0
 50
0.0
 51
0.0
 71
0
 72
100
 73
1
 74
3
 75
1
 76
1
 77
0
 78
0
281
0
 65
1
110
0.0
120
0.0
130
0.0
111
1.0
121
0.0
131
0.0
112
0.0
122
1.0
132
0.0
 79
0
146
0.0
  0
ENDTAB
  0
TABLE
  2
LTYPE
  5
5
100
AcDbSymbolTable
 70
42
  0
LTYPE
  5
16
100
AcDbSymbolTableRecord
100
AcDbLinetypeTableRecord
  2
CONTINUOUS
 70
0
  3
Solid line
 72
65
 73
0
 40
0.0
  0
LTYPE
  5
31
100
AcDbSymbolTableRecord
100
AcDbLinetypeTableRecord
  2
ACAD_ISO15W100
 70
0
  3
ISO double-dash triple-dot __ __ . . . __ __ . .
 72
65
 73
10
 40
39.0
 49
12.0
 74
0
 49
-3.0
 74
0
 49
12.0
 74
0
 49
-3.0
 74
0
 49
0.0
 74
0
 49
-3.0
 74
0
 49
0.0
 74
0
 49
-3.0
 74
0
 49
0.0
 74
0
 49
-3.0
 74
0
  0
LTYPE
  5
32
100
AcDbSymbolTableRecord
100
AcDbLinetypeTableRecord
  2
DIVIDE
 70
0
  3
Divide ____ . . ____ . . ____ . . ____ . . ____
 72
65
 73
6
 40
31.75
 49
12.699999999999999
 74
0
 49
-6.3499999999999996
 74
0
 49
0.0
 74
0
 49
-6.3499999999999996
 74
0
 49
0.0
 74
0
 49
-6.3499999999999996
 74
0
  0
LTYPE
  5
33
100
AcDbSymbolTableRecord
100
AcDbLinetypeTableRecord
  2
ACAD_ISO10W100
 70
0
  3
ISO dash dot __ . __ . __ . __ . __ . __ . __ . 
 72
65
 73
4
 40
18.0
 49
12.0
 74
0
 49
-3.0
 74
0
 49
0.0
 74
0
 49
-3.0
 74
0
  0
LTYPE
  5
34
100
AcDbSymbolTableRecord
100
AcDbLinetypeTableRecord
  2
ACAD_ISO04W100
 70
0
  3
ISO long-dash dot ____ . ____ . ____ . ____ . _
 72
65
 73
4
 40
30.0
 49
24.0
 74
0
 49
-3.0
 74
0
 49
0.0
 74
0
 49
-3.0
 74
0
  0
LTYPE
  5
35
100
AcDbSymbolTableRecord
100
AcDbLinetypeTableRecord
  2
CENTER2
 70
0
  3
Center (.5x) ___ _ ___ _ ___ _ ___ _ ___ _ ___
 72
65
 73
4
 40
28.575000000000003
 49
19.050000000000001
 74
0
 49
-3.1749999999999998
 74
0
 49
3.1749999999999998
 74
0
 49
-3.1749999999999998
 74
0
  0
LTYPE
  5
36
100
AcDbSymbolTableRecord
100
AcDbLinetypeTableRecord
  2
ACAD_ISO11W100
 70
0
  3
ISO double-dash dot __ __ . __ __ . __ __ . __ _
 72
65
 73
6
 40
33.0
 49
12.0
 74
0
 49
-3.0
 74
0
 49
12.0
 74
0
 49
-3.0
 74
0
 49
0.0
 74
0
 49
-3.0
 74
0
  0
LTYPE
  5
37
100
AcDbSymbolTableRecord
100
AcDbLinetypeTableRecord
  2
HIDDEN2
 70
0
  3
Hidden (.5x) _ _ _ _ _ _ _ _ _ _ _ _ _ _ _ _ _ 
 72
65
 73
2
 40
4.7624999999999993
 49
3.1749999999999998
 74
0
 49
-1.5874999999999999
 74
0
  0
LTYPE
  5
38
100
AcDbSymbolTableRecord
100
AcDbLinetypeTableRecord
  2
BORDERX2
 70
0
  3
Border (2x) ____  ____  .  ____  ____  .  ___
 72
65
 73
6
 40
88.899999999999991
 49
25.399999999999999
 74
0
 49
-12.699999999999999
 74
0
 49
25.399999999999999
 74
0
 49
-12.699999999999999
 74
0
 49
0.0
 74
0
 49
-12.699999999999999
 74
0
  0
LTYPE
  5
39
100
AcDbSymbolTableRecord
100
AcDbLinetypeTableRecord
  2
ACAD_ISO05W100
 70
0
  3
ISO long-dash double-dot ____ .. ____ .. ____ . 
 72
65
 73
6
 40
33.0
 49
24.0
 74
0
 49
-3.0
 74
0
 49
0.0
 74
0
 49
-3.0
 74
0
 49
0.0
 74
0
 49
-3.0
 74
0
  0
LTYPE
  5
3A
100
AcDbSymbolTableRecord
100
AcDbLinetypeTableRecord
  2
DASHDOTX2
 70
0
  3
Dash dot (2x) ____  .  ____  .  ____  .  ___
 72
65
 73
4
 40
50.799999999999997
 49
25.399999999999999
 74
0
 49
-12.699999999999999
 74
0
 49
0.0
 74
0
 49
-12.699999999999999
 74
0
  0
LTYPE
  5
3B
100
AcDbSymbolTableRecord
100
AcDbLinetypeTableRecord
  2
HIDDENX2
 70
0
  3
Hidden (2x) ____ ____ ____ ____ ____ ____ ____ 
 72
65
 73
2
 40
19.049999999999997
 49
12.699999999999999
 74
0
 49
-6.3499999999999996
 74
0
  0
LTYPE
  5
3C
100
AcDbSymbolTableRecord
100
AcDbLinetypeTableRecord
  2
CENTERX2
 70
0
  3
Center (2x) ________  __  ________  __  _____
 72
65
 73
4
 40
101.60000000000001
 49
63.5
 74
0
 49
-12.699999999999999
 74
0
 49
12.699999999999999
 74
0
 49
-12.699999999999999
 74
0
  0
LTYPE
  5
3D
100
AcDbSymbolTableRecord
100
AcDbLinetypeTableRecord
  2
BORDER2
 70
0
  3
Border (.5x) __.__.__.__.__.__.__.__.__.__.__.
 72
65
 73
6
 40
22.224999999999998
 49
6.3499999999999996
 74
0
 49
-3.1749999999999998
 74
0
 49
6.3499999999999996
 74
0
 49
-3.1749999999999998
 74
0
 49
0.0
 74
0
 49
-3.1749999999999998
 74
0
  0
LTYPE
  5
3E
100
AcDbSymbolTableRecord
100
AcDbLinetypeTableRecord
  2
DASHDOT2
 70
0
  3
Dash dot (.5x) _._._._._._._._._._._._._._._.
 72
65
 73
4
 40
12.699999999999999
 49
6.3499999999999996
 74
0
 49
-3.1749999999999998
 74
0
 49
0.0
 74
0
 49
-3.1749999999999998
 74
0
  0
LTYPE
  5
3F
100
AcDbSymbolTableRecord
100
AcDbLinetypeTableRecord
  2
ACAD_ISO12W100
 70
0
  3
ISO dash double-dot __ . . __ . . __ . . __ . . 
 72
65
 73
6
 40
21.0
 49
12.0
 74
0
 49
-3.0
 74
0
 49
0.0
 74
0
 49
-3.0
 74
0
 49
0.0
 74
0
 49
-3.0
 74
0
  0
LTYPE
  5
40
100
AcDbSymbolTableRecord
100
AcDbLinetypeTableRecord
  2
ACAD_ISO07W100
 70
0
  3
ISO dot . . . . . . . . . . . . . . . . . . . . 
 72
65
 73
2
 40
3.0
 49
0.0
 74
0
 49
-3.0
 74
0
  0
LTYPE
  5
41
100
AcDbSymbolTableRecord
100
AcDbLinetypeTableRecord
  2
HIDDEN
 70
0
  3
Hidden __ __ __ __ __ __ __ __ __ __ __ __ __ __
 72
65
 73
2
 40
9.5249999999999986
 49
6.3499999999999996
 74
0
 49
-3.1749999999999998
 74
0
  0
LTYPE
  5
42
100
AcDbSymbolTableRecord
100
AcDbLinetypeTableRecord
  2
ACAD_ISO06W100
 70
0
  3
ISO long-dash triple-dot ____ ... ____ ... ____
 72
65
 73
8
 40
36.0
 49
24.0
 74
0
 49
-3.0
 74
0
 49
0.0
 74
0
 49
-3.0
 74
0
 49
0.0
 74
0
 49
-3.0
 74
0
 49
0.0
 74
0
 49
-3.0
 74
0
  0
LTYPE
  5
43
100
AcDbSymbolTableRecord
100
AcDbLinetypeTableRecord
  2
CENTER
 70
0
  3
Center ____ _ ____ _ ____ _ ____ _ ____ _ ____
 72
65
 73
4
 40
50.800000000000004
 49
31.75
 74
0
 49
-6.3499999999999996
 74
0
 49
6.3499999999999996
 74
0
 49
-6.3499999999999996
 74
0
  0
LTYPE
  5
44
100
AcDbSymbolTableRecord
100
AcDbLinetypeTableRecord
  2
DOTX2
 70
0
  3
Dot (2x) .  .  .  .  .  .  .  .  .  .  .  .  .  .
 72
65
 73
2
 40
12.699999999999999
 49
0.0
 74
0
 49
-12.699999999999999
 74
0
  0
LTYPE
  5
45
100
AcDbSymbolTableRecord
100
AcDbLinetypeTableRecord
  2
PHANTOM
 70
0
  3
Phantom ______  __  __  ______  __  __  ______ 
 72
65
 73
6
 40
63.500000000000007
 49
31.75
 74
0
 49
-6.3499999999999996
 74
0
 49
6.3499999999999996
 74
0
 49
-6.3499999999999996
 74
0
 49
6.3499999999999996
 74
0
 49
-6.3499999999999996
 74
0
  0
LTYPE
  5
46
100
AcDbSymbolTableRecord
100
AcDbLinetypeTableRecord
  2
ACAD_ISO08W100
 70
0
  3
ISO long-dash short-dash ____ __ ____ __ ____ _
 72
65
 73
4
 40
36.0
 49
24.0
 74
0
 49
-3.0
 74
0
 49
6.0
 74
0
 49
-3.0
 74
0
  0
LTYPE
  5
47
100
AcDbSymbolTableRecord
100
AcDbLinetypeTableRecord
  2
DASHEDX2
 70
0
  3
Dashed (2x) ____  ____  ____  ____  ____  ___
 72
65
 73
2
 40
38.099999999999994
 49
25.399999999999999
 74
0
 49
-12.699999999999999
 74
0
  0
LTYPE
  5
48
100
AcDbSymbolTableRecord
100
AcDbLinetypeTableRecord
  2
ACAD_ISO02W100
 70
0
  3
ISO dash __ __ __ __ __ __ __ __ __ __ __ __ __
 72
65
 73
2
 40
15.0
 49
12.0
 74
0
 49
-3.0
 74
0
  0
LTYPE
  5
49
100
AcDbSymbolTableRecord
100
AcDbLinetypeTableRecord
  2
PHANTOM2
 70
0
  3
Phantom (.5x) ___ _ _ ___ _ _ ___ _ _ ___ _ _
 72
65
 73
6
 40
31.750000000000004
 49
15.875
 74
0
 49
-3.1749999999999998
 74
0
 49
3.1749999999999998
 74
0
 49
-3.1749999999999998
 74
0
 49
3.1749999999999998
 74
0
 49
-3.1749999999999998
 74
0
  0
LTYPE
  5
4A
100
AcDbSymbolTableRecord
100
AcDbLinetypeTableRecord
  2
DASHED2
 70
0
  3
Dashed (.5x) _ _ _ _ _ _ _ _ _ _ _ _ _ _ _ _ _ 
 72
65
 73
2
 40
9.5249999999999986
 49
6.3499999999999996
 74
0
 49
-3.1749999999999998
 74
0
  0
LTYPE
  5
4B
100
AcDbSymbolTableRecord
100
AcDbLinetypeTableRecord
  2
ACAD_ISO09W100
 70
0
  3
ISO long-dash double-short-dash ____ __ __ ____
 72
65
 73
6
 40
45.0
 49
24.0
 74
0
 49
-3.0
 74
0
 49
6.0
 74
0
 49
-3.0
 74
0
 49
6.0
 74
0
 49
-3.0
 74
0
  0
LTYPE
  5
4C
100
AcDbSymbolTableRecord
100
AcDbLinetypeTableRecord
  2
ACAD_ISO13W100
 70
0
  3
ISO double-dash double-dot __ __ . . __ __ . . _
 72
65
 73
8
 40
36.0
 49
12.0
 74
0
 49
-3.0
 74
0
 49
12.0
 74
0
 49
-3.0
 74
0
 49
0.0
 74
0
 49
-3.0
 74
0
 49
0.0
 74
0
 49
-3.0
 74
0
  0
LTYPE
  5
4D
100
AcDbSymbolTableRecord
100
AcDbLinetypeTableRecord
  2
DOT2
 70
0
  3
Dot (.5x) ........................................
 72
65
 73
2
 40
3.1749999999999998
 49
0.0
 74
0
 49
-3.1749999999999998
 74
0
  0
LTYPE
  5
4E
100
AcDbSymbolTableRecord
100
AcDbLinetypeTableRecord
  2
DASHED
 70
0
  3
Dashed __ __ __ __ __ __ __ __ __ __ __ __ __ _
 72
65
 73
2
 40
19.049999999999997
 49
12.699999999999999
 74
0
 49
-6.3499999999999996
 74
0
  0
LTYPE
  5
4F
100
AcDbSymbolTableRecord
100
AcDbLinetypeTableRecord
  2
ACAD_ISO14W100
 70
0
  3
ISO dash triple-dot __ . . . __ . . . __ . . . _
 72
65
 73
8
 40
24.0
 49
12.0
 74
0
 49
-3.0
 74
0
 49
0.0
 74
0
 49
-3.0
 74
0
 49
0.0
 74
0
 49
-3.0
 74
0
 49
0.0
 74
0
 49
-3.0
 74
0
  0
LTYPE
  5
15
100
AcDbSymbolTableRecord
100
AcDbLinetypeTableRecord
  2
BYLAYER
 70
0
  3

 72
65
 73
0
 40
0.0
  0
LTYPE
  5
50
100
AcDbSymbolTableRecord
100
AcDbLinetypeTableRecord
  2
PHANTOMX2
 70
0
  3
Phantom (2x) ____________    ____    ____   _
 72
65
 73
6
 40
127.00000000000001
 49
63.5
 74
0
 49
-12.699999999999999
 74
0
 49
12.699999999999999
 74
0
 49
-12.699999999999999
 74
0
 49
12.699999999999999
 74
0
 49
-12.699999999999999
 74
0
  0
LTYPE
  5
14
100
AcDbSymbolTableRecord
100
AcDbLinetypeTableRecord
  2
BYBLOCK
 70
0
  3

 72
65
 73
0
 40
0.0
  0
LTYPE
  5
51
100
AcDbSymbolTableRecord
100
AcDbLinetypeTableRecord
  2
DGN_STYLE_5
 70
0
  3

 72
65
 73
2
 40
22.179439564260441
 49
9.5054740989687616
 74
0
 49
-12.67396546529168
 74
0
  0
LTYPE
  5
52
100
AcDbSymbolTableRecord
100
AcDbLinetypeTableRecord
  2
DIVIDEX2
 70
0
  3
Divide (2x) ________  .  .  ________  .  .  _
 72
65
 73
6
 40
63.5
 49
25.399999999999999
 74
0
 49
-12.699999999999999
 74
0
 49
0.0
 74
0
 49
-12.699999999999999
 74
0
 49
0.0
 74
0
 49
-12.699999999999999
 74
0
  0
LTYPE
  5
53
100
AcDbSymbolTableRecord
100
AcDbLinetypeTableRecord
  2
BORDER
 70
0
  3
Border __ __ . __ __ . __ __ . __ __ . __ __ .
 72
65
 73
6
 40
44.449999999999996
 49
12.699999999999999
 74
0
 49
-6.3499999999999996
 74
0
 49
12.699999999999999
 74
0
 49
-6.3499999999999996
 74
0
 49
0.0
 74
0
 49
-6.3499999999999996
 74
0
  0
LTYPE
  5
54
100
AcDbSymbolTableRecord
100
AcDbLinetypeTableRecord
  2
DIVIDE2
 70
0
  3
Divide (.5x) __..__..__..__..__..__..__..__.._
 72
65
 73
6
 40
15.875
 49
6.3499999999999996
 74
0
 49
-3.1749999999999998
 74
0
 49
0.0
 74
0
 49
-3.1749999999999998
 74
0
 49
0.0
 74
0
 49
-3.1749999999999998
 74
0
  0
LTYPE
  5
55
100
AcDbSymbolTableRecord
100
AcDbLinetypeTableRecord
  2
DOT
 70
0
  3
Dot . . . . . . . . . . . . . . . . . . . . . . . .
 72
65
 73
2
 40
6.3499999999999996
 49
0.0
 74
0
 49
-6.3499999999999996
 74
0
  0
LTYPE
  5
56
100
AcDbSymbolTableRecord
100
AcDbLinetypeTableRecord
  2
DASHDOT
 70
0
  3
Dash dot __ . __ . __ . __ . __ . __ . __ . __
 72
65
 73
4
 40
25.399999999999999
 49
12.699999999999999
 74
0
 49
-6.3499999999999996
 74
0
 49
0.0
 74
0
 49
-6.3499999999999996
 74
0
  0
LTYPE
  5
57
100
AcDbSymbolTableRecord
100
AcDbLinetypeTableRecord
  2
ACAD_ISO03W100
 70
0
  3
ISO dash space __    __    __    __    __    __
 72
65
 73
2
 40
30.0
 49
12.0
 74
0
 49
-18.0
 74
0
  0
ENDTAB
  0
TABLE
  2
LAYER
  5
2
100
AcDbSymbolTable
 70
7
  0
LAYER
  5
58
100
AcDbSymbolTableRecord
100
AcDbLayerTableRecord
  2
TOP_CUTOUT_18MM_OUTSIDE
 70
0
 62
31
420
16760703
  6
CONTINUOUS
370
5
390
F
  0
LAYER
  5
59
100
AcDbSymbolTableRecord
100
AcDbLayerTableRecord
  2
HOLE_6MM_DIAM_18MM_DEEP
 70
0
 62
220
420
16711871
  6
CONTINUOUS
370
5
390
F
  0
LAYER
  5
5A
100
AcDbSymbolTableRecord
100
AcDbLayerTableRecord
  2
TOP_CUTOUT_18MM_INSIDE
 70
0
 62
173
420
5395109
  6
CONTINUOUS
370
5
390
F
  0
LAYER
  5
5B
100
AcDbSymbolTableRecord
100
AcDbLayerTableRecord
  2
BOARD_$TH-NOMINAL
 70
0
 62
3
420
65280
  6
CONTINUOUS
370
5
390
F
  0
LAYER
  5
10
100
AcDbSymbolTableRecord
100
AcDbLayerTableRecord
  2
0
 70
0
 62
7
420
16777215
  6
CONTINUOUS
370
5
390
F
  0
LAYER
  5
5C
100
AcDbSymbolTableRecord
100
AcDbLayerTableRecord
  2
00_NOPRINT_TOLERANCE
 70
0
 62
7
420
16777215
  6
DGN_STYLE_5
370
5
390
F
  0
LAYER
  5
5D
100
AcDbSymbolTableRecord
100
AcDbLayerTableRecord
  2
00-NOPRINT_TEXT
 70
0
 62
7
420
16777215
  6
CONTINUOUS
370
5
390
F
  0
ENDTAB
  0
TABLE
  2
STYLE
  5
3
100
AcDbSymbolTable
 70
109
  0
STYLE
  5
5E
100
AcDbSymbolTableRecord
100
AcDbTextStyleTableRecord
  2
Standard
 70
0
 40
0.0
 41
1.0
 50
0.0
 71
0
 42
2.5
  3

  4

1001
ACAD
1000
txt
1071
0
  0
STYLE
  5
5F
100
AcDbSymbolTableRecord
100
AcDbTextStyleTableRecord
  2
textstyle0
 70
0
 40
0.0
 41
1.0
 50
0.0
 71
0
 42
25.0
  3

  4

1001
ACAD
1000

1071
0
  0
STYLE
  5
60
100
AcDbSymbolTableRecord
100
AcDbTextStyleTableRecord
  2
textstyle1
 70
0
 40
0.0
 41
1.0
 50
0.0
 71
0
 42
25.0
  3

  4

1001
ACAD
1000

1071
0
  0
STYLE
  5
61
100
AcDbSymbolTableRecord
100
AcDbTextStyleTableRecord
  2
textstyle2
 70
0
 40
0.0
 41
1.0
 50
0.0
 71
0
 42
13.0
  3

  4

1001
ACAD
1000

1071
0
  0
STYLE
  5
62
100
AcDbSymbolTableRecord
100
AcDbTextStyleTableRecord
  2
textstyle3
 70
0
 40
0.0
 41
1.0
 50
0.0
 71
0
 42
13.0
  3

  4

1001
ACAD
1000

1071
0
  0
STYLE
  5
63
100
AcDbSymbolTableRecord
100
AcDbTextStyleTableRecord
  2
textstyle4
 70
0
 40
0.0
 41
1.0
 50
0.0
 71
0
 42
20.0
  3

  4

1001
ACAD
1000
simplex.shx
1071
0
  0
STYLE
  5
64
100
AcDbSymbolTableRecord
100
AcDbTextStyleTableRecord
  2
textstyle5
 70
0
 40
0.0
 41
1.0
 50
0.0
 71
0
 42
30.0
  3

  4

1001
ACAD
1000
simplex.shx
1071
0
  0
STYLE
  5
65
100
AcDbSymbolTableRecord
100
AcDbTextStyleTableRecord
  2
textstyle6
 70
0
 40
0.0
 41
1.0
 50
0.0
 71
0
 42
30.0
  3

  4

1001
ACAD
1000
simplex.shx
1071
0
  0
STYLE
  5
66
100
AcDbSymbolTableRecord
100
AcDbTextStyleTableRecord
  2
textstyle7
 70
0
 40
0.0
 41
1.0
 50
0.0
 71
0
 42
30.0
  3

  4

1001
ACAD
1000
simplex.shx
1071
0
  0
STYLE
  5
67
100
AcDbSymbolTableRecord
100
AcDbTextStyleTableRecord
  2
textstyle8
 70
0
 40
0.0
 41
1.0
 50
0.0
 71
0
 42
20.0
  3

  4

1001
ACAD
1000
simplex.shx
1071
0
  0
STYLE
  5
68
100
AcDbSymbolTableRecord
100
AcDbTextStyleTableRecord
  2
textstyle9
 70
0
 40
0.0
 41
1.0
 50
0.0
 71
0
 42
20.0
  3

  4

1001
ACAD
1000
simplex.shx
1071
0
  0
STYLE
  5
69
100
AcDbSymbolTableRecord
100
AcDbTextStyleTableRecord
  2
textstyle10
 70
0
 40
0.0
 41
1.0
 50
0.0
 71
0
 42
17.0
  3

  4

1001
ACAD
1000
isocp.shx
1071
0
  0
STYLE
  5
6A
100
AcDbSymbolTableRecord
100
AcDbTextStyleTableRecord
  2
textstyle11
 70
0
 40
0.0
 41
1.0
 50
0.0
 71
0
 42
17.0
  3

  4

1001
ACAD
1000
isocp.shx
1071
0
  0
STYLE
  5
6B
100
AcDbSymbolTableRecord
100
AcDbTextStyleTableRecord
  2
textstyle12
 70
0
 40
0.0
 41
1.0
 50
0.0
 71
0
 42
17.0
  3

  4

1001
ACAD
1000
isocp.shx
1071
0
  0
STYLE
  5
6C
100
AcDbSymbolTableRecord
100
AcDbTextStyleTableRecord
  2
textstyle13
 70
0
 40
0.0
 41
1.0
 50
0.0
 71
0
 42
17.0
  3

  4

1001
ACAD
1000
isocp.shx
1071
0
  0
STYLE
  5
6D
100
AcDbSymbolTableRecord
100
AcDbTextStyleTableRecord
  2
textstyle14
 70
0
 40
0.0
 41
1.0
 50
0.0
 71
0
 42
17.0
  3

  4

1001
ACAD
1000
isocp.shx
1071
0
  0
STYLE
  5
6E
100
AcDbSymbolTableRecord
100
AcDbTextStyleTableRecord
  2
textstyle15
 70
0
 40
0.0
 41
1.0
 50
0.0
 71
0
 42
17.0
  3

  4

1001
ACAD
1000
isocp.shx
1071
0
  0
STYLE
  5
6F
100
AcDbSymbolTableRecord
100
AcDbTextStyleTableRecord
  2
textstyle16
 70
0
 40
0.0
 41
1.0
 50
0.0
 71
0
 42
17.0
  3

  4

1001
ACAD
1000
isocp.shx
1071
0
  0
STYLE
  5
70
100
AcDbSymbolTableRecord
100
AcDbTextStyleTableRecord
  2
textstyle17
 70
0
 40
0.0
 41
1.0
 50
0.0
 71
0
 42
17.0
  3

  4

1001
ACAD
1000
isocp.shx
1071
0
  0
STYLE
  5
71
100
AcDbSymbolTableRecord
100
AcDbTextStyleTableRecord
  2
textstyle18
 70
0
 40
0.0
 41
1.0
 50
0.0
 71
0
 42
17.0
  3

  4

1001
ACAD
1000
isocp.shx
1071
0
  0
STYLE
  5
72
100
AcDbSymbolTableRecord
100
AcDbTextStyleTableRecord
  2
textstyle19
 70
0
 40
0.0
 41
1.0
 50
0.0
 71
0
 42
17.0
  3

  4

1001
ACAD
1000
isocp.shx
1071
0
  0
STYLE
  5
73
100
AcDbSymbolTableRecord
100
AcDbTextStyleTableRecord
  2
textstyle20
 70
0
 40
0.0
 41
1.0
 50
0.0
 71
0
 42
17.0
  3

  4

1001
ACAD
1000
isocp.shx
1071
0
  0
STYLE
  5
74
100
AcDbSymbolTableRecord
100
AcDbTextStyleTableRecord
  2
textstyle21
 70
0
 40
0.0
 41
1.0
 50
0.0
 71
0
 42
17.0
  3

  4

1001
ACAD
1000
isocp.shx
1071
0
  0
STYLE
  5
75
100
AcDbSymbolTableRecord
100
AcDbTextStyleTableRecord
  2
textstyle22
 70
0
 40
0.0
 41
1.0
 50
0.0
 71
0
 42
17.0
  3

  4

1001
ACAD
1000
isocp.shx
1071
0
  0
STYLE
  5
76
100
AcDbSymbolTableRecord
100
AcDbTextStyleTableRecord
  2
textstyle23
 70
0
 40
0.0
 41
1.0
 50
0.0
 71
0
 42
17.0
  3

  4

1001
ACAD
1000
isocp.shx
1071
0
  0
STYLE
  5
77
100
AcDbSymbolTableRecord
100
AcDbTextStyleTableRecord
  2
textstyle24
 70
0
 40
0.0
 41
1.0
 50
0.0
 71
0
 42
17.0
  3

  4

1001
ACAD
1000
isocp.shx
1071
0
  0
STYLE
  5
78
100
AcDbSymbolTableRecord
100
AcDbTextStyleTableRecord
  2
textstyle25
 70
0
 40
0.0
 41
1.0
 50
0.0
 71
0
 42
17.0
  3

  4

1001
ACAD
1000
isocp.shx
1071
0
  0
STYLE
  5
79
100
AcDbSymbolTableRecord
100
AcDbTextStyleTableRecord
  2
textstyle26
 70
0
 40
0.0
 41
1.0
 50
0.0
 71
0
 42
17.0
  3

  4

1001
ACAD
1000
isocp.shx
1071
0
  0
STYLE
  5
7A
100
AcDbSymbolTableRecord
100
AcDbTextStyleTableRecord
  2
textstyle27
 70
0
 40
0.0
 41
1.0
 50
0.0
 71
0
 42
17.0
  3

  4

1001
ACAD
1000
isocp.shx
1071
0
  0
STYLE
  5
7B
100
AcDbSymbolTableRecord
100
AcDbTextStyleTableRecord
  2
textstyle28
 70
0
 40
0.0
 41
1.0
 50
0.0
 71
0
 42
17.0
  3

  4

1001
ACAD
1000
isocp.shx
1071
0
  0
STYLE
  5
7C
100
AcDbSymbolTableRecord
100
AcDbTextStyleTableRecord
  2
textstyle29
 70
0
 40
0.0
 41
1.0
 50
0.0
 71
0
 42
25.0
  3

  4

1001
ACAD
1000
simplex.shx
1071
0
  0
STYLE
  5
7D
100
AcDbSymbolTableRecord
100
AcDbTextStyleTableRecord
  2
textstyle30
 70
0
 40
0.0
 41
1.0
 50
0.0
 71
0
 42
17.0
  3

  4

1001
ACAD
1000
isocp.shx
1071
0
  0
STYLE
  5
7E
100
AcDbSymbolTableRecord
100
AcDbTextStyleTableRecord
  2
textstyle31
 70
0
 40
0.0
 41
1.0
 50
0.0
 71
0
 42
17.0
  3

  4

1001
ACAD
1000
isocp.shx
1071
0
  0
STYLE
  5
7F
100
AcDbSymbolTableRecord
100
AcDbTextStyleTableRecord
  2
textstyle32
 70
0
 40
0.0
 41
1.0
 50
0.0
 71
0
 42
17.0
  3

  4

1001
ACAD
1000
isocp.shx
1071
0
  0
STYLE
  5
80
100
AcDbSymbolTableRecord
100
AcDbTextStyleTableRecord
  2
textstyle33
 70
0
 40
0.0
 41
1.0
 50
0.0
 71
0
 42
17.0
  3

  4

1001
ACAD
1000
isocp.shx
1071
0
  0
STYLE
  5
81
100
AcDbSymbolTableRecord
100
AcDbTextStyleTableRecord
  2
textstyle34
 70
0
 40
0.0
 41
1.0
 50
0.0
 71
0
 42
17.0
  3

  4

1001
ACAD
1000
isocp.shx
1071
0
  0
STYLE
  5
82
100
AcDbSymbolTableRecord
100
AcDbTextStyleTableRecord
  2
textstyle35
 70
0
 40
0.0
 41
1.0
 50
0.0
 71
0
 42
17.0
  3

  4

1001
ACAD
1000
isocp.shx
1071
0
  0
STYLE
  5
83
100
AcDbSymbolTableRecord
100
AcDbTextStyleTableRecord
  2
textstyle36
 70
0
 40
0.0
 41
1.0
 50
0.0
 71
0
 42
17.0
  3

  4

1001
ACAD
1000
isocp.shx
1071
0
  0
STYLE
  5
84
100
AcDbSymbolTableRecord
100
AcDbTextStyleTableRecord
  2
textstyle37
 70
0
 40
0.0
 41
1.0
 50
0.0
 71
0
 42
17.0
  3

  4

1001
ACAD
1000
isocp.shx
1071
0
  0
STYLE
  5
85
100
AcDbSymbolTableRecord
100
AcDbTextStyleTableRecord
  2
textstyle38
 70
0
 40
0.0
 41
1.0
 50
0.0
 71
0
 42
17.0
  3

  4

1001
ACAD
1000
isocp.shx
1071
0
  0
STYLE
  5
86
100
AcDbSymbolTableRecord
100
AcDbTextStyleTableRecord
  2
textstyle39
 70
0
 40
0.0
 41
1.0
 50
0.0
 71
0
 42
17.0
  3

  4

1001
ACAD
1000
isocp.shx
1071
0
  0
STYLE
  5
87
100
AcDbSymbolTableRecord
100
AcDbTextStyleTableRecord
  2
textstyle40
 70
0
 40
0.0
 41
1.0
 50
0.0
 71
0
 42
17.0
  3

  4

1001
ACAD
1000
isocp.shx
1071
0
  0
STYLE
  5
88
100
AcDbSymbolTableRecord
100
AcDbTextStyleTableRecord
  2
textstyle41
 70
0
 40
0.0
 41
1.0
 50
0.0
 71
0
 42
17.0
  3

  4

1001
ACAD
1000
isocp.shx
1071
0
  0
STYLE
  5
89
100
AcDbSymbolTableRecord
100
AcDbTextStyleTableRecord
  2
textstyle42
 70
0
 40
0.0
 41
1.0
 50
0.0
 71
0
 42
17.0
  3

  4

1001
ACAD
1000
isocp.shx
1071
0
  0
STYLE
  5
8A
100
AcDbSymbolTableRecord
100
AcDbTextStyleTableRecord
  2
textstyle43
 70
0
 40
0.0
 41
1.0
 50
0.0
 71
0
 42
17.0
  3

  4

1001
ACAD
1000
isocp.shx
1071
0
  0
STYLE
  5
8B
100
AcDbSymbolTableRecord
100
AcDbTextStyleTableRecord
  2
textstyle44
 70
0
 40
0.0
 41
1.0
 50
0.0
 71
0
 42
17.0
  3

  4

1001
ACAD
1000
isocp.shx
1071
0
  0
STYLE
  5
8C
100
AcDbSymbolTableRecord
100
AcDbTextStyleTableRecord
  2
textstyle45
 70
0
 40
0.0
 41
1.0
 50
0.0
 71
0
 42
17.0
  3

  4

1001
ACAD
1000
isocp.shx
1071
0
  0
STYLE
  5
8D
100
AcDbSymbolTableRecord
100
AcDbTextStyleTableRecord
  2
textstyle46
 70
0
 40
0.0
 41
1.0
 50
0.0
 71
0
 42
17.0
  3

  4

1001
ACAD
1000
isocp.shx
1071
0
  0
STYLE
  5
8E
100
AcDbSymbolTableRecord
100
AcDbTextStyleTableRecord
  2
textstyle47
 70
0
 40
0.0
 41
1.0
 50
0.0
 71
0
 42
17.0
  3

  4

1001
ACAD
1000
isocp.shx
1071
0
  0
STYLE
  5
8F
100
AcDbSymbolTableRecord
100
AcDbTextStyleTableRecord
  2
textstyle48
 70
0
 40
0.0
 41
1.0
 50
0.0
 71
0
 42
17.0
  3

  4

1001
ACAD
1000
isocp.shx
1071
0
  0
STYLE
  5
90
100
AcDbSymbolTableRecord
100
AcDbTextStyleTableRecord
  2
textstyle49
 70
0
 40
0.0
 41
1.0
 50
0.0
 71
0
 42
17.0
  3

  4

1001
ACAD
1000
isocp.shx
1071
0
  0
STYLE
  5
91
100
AcDbSymbolTableRecord
100
AcDbTextStyleTableRecord
  2
textstyle50
 70
0
 40
0.0
 41
1.0
 50
0.0
 71
0
 42
17.0
  3

  4

1001
ACAD
1000
isocp.shx
1071
0
  0
STYLE
  5
92
100
AcDbSymbolTableRecord
100
AcDbTextStyleTableRecord
  2
textstyle51
 70
0
 40
0.0
 41
1.0
 50
0.0
 71
0
 42
17.0
  3

  4

1001
ACAD
1000
isocp.shx
1071
0
  0
STYLE
  5
93
100
AcDbSymbolTableRecord
100
AcDbTextStyleTableRecord
  2
textstyle52
 70
0
 40
0.0
 41
1.0
 50
0.0
 71
0
 42
17.0
  3

  4

1001
ACAD
1000
isocp.shx
1071
0
  0
STYLE
  5
94
100
AcDbSymbolTableRecord
100
AcDbTextStyleTableRecord
  2
textstyle53
 70
0
 40
0.0
 41
1.0
 50
0.0
 71
0
 42
17.0
  3

  4

1001
ACAD
1000
isocp.shx
1071
0
  0
STYLE
  5
95
100
AcDbSymbolTableRecord
100
AcDbTextStyleTableRecord
  2
textstyle54
 70
0
 40
0.0
 41
1.0
 50
0.0
 71
0
 42
17.0
  3

  4

1001
ACAD
1000
isocp.shx
1071
0
  0
STYLE
  5
96
100
AcDbSymbolTableRecord
100
AcDbTextStyleTableRecord
  2
textstyle55
 70
0
 40
0.0
 41
1.0
 50
0.0
 71
0
 42
17.0
  3

  4

1001
ACAD
1000
isocp.shx
1071
0
  0
STYLE
  5
97
100
AcDbSymbolTableRecord
100
AcDbTextStyleTableRecord
  2
textstyle56
 70
0
 40
0.0
 41
1.0
 50
0.0
 71
0
 42
17.0
  3

  4

1001
ACAD
1000
isocp.shx
1071
0
  0
STYLE
  5
98
100
AcDbSymbolTableRecord
100
AcDbTextStyleTableRecord
  2
textstyle57
 70
0
 40
0.0
 41
1.0
 50
0.0
 71
0
 42
17.0
  3

  4

1001
ACAD
1000
isocp.shx
1071
0
  0
STYLE
  5
99
100
AcDbSymbolTableRecord
100
AcDbTextStyleTableRecord
  2
textstyle58
 70
0
 40
0.0
 41
1.0
 50
0.0
 71
0
 42
17.0
  3

  4

1001
ACAD
1000
isocp.shx
1071
0
  0
STYLE
  5
9A
100
AcDbSymbolTableRecord
100
AcDbTextStyleTableRecord
  2
textstyle59
 70
0
 40
0.0
 41
1.0
 50
0.0
 71
0
 42
17.0
  3

  4

1001
ACAD
1000
isocp.shx
1071
0
  0
STYLE
  5
9B
100
AcDbSymbolTableRecord
100
AcDbTextStyleTableRecord
  2
textstyle60
 70
0
 40
0.0
 41
1.0
 50
0.0
 71
0
 42
17.0
  3

  4

1001
ACAD
1000
isocp.shx
1071
0
  0
STYLE
  5
9C
100
AcDbSymbolTableRecord
100
AcDbTextStyleTableRecord
  2
textstyle61
 70
0
 40
0.0
 41
1.0
 50
0.0
 71
0
 42
17.0
  3

  4

1001
ACAD
1000
isocp.shx
1071
0
  0
STYLE
  5
9D
100
AcDbSymbolTableRecord
100
AcDbTextStyleTableRecord
  2
textstyle62
 70
0
 40
0.0
 41
1.0
 50
0.0
 71
0
 42
17.0
  3

  4

1001
ACAD
1000
isocp.shx
1071
0
  0
STYLE
  5
9E
100
AcDbSymbolTableRecord
100
AcDbTextStyleTableRecord
  2
textstyle63
 70
0
 40
0.0
 41
1.0
 50
0.0
 71
0
 42
17.0
  3

  4

1001
ACAD
1000
isocp.shx
1071
0
  0
STYLE
  5
9F
100
AcDbSymbolTableRecord
100
AcDbTextStyleTableRecord
  2
textstyle64
 70
0
 40
0.0
 41
1.0
 50
0.0
 71
0
 42
17.0
  3

  4

1001
ACAD
1000
isocp.shx
1071
0
  0
STYLE
  5
A0
100
AcDbSymbolTableRecord
100
AcDbTextStyleTableRecord
  2
textstyle65
 70
0
 40
0.0
 41
1.0
 50
0.0
 71
0
 42
17.0
  3

  4

1001
ACAD
1000
isocp.shx
1071
0
  0
STYLE
  5
A1
100
AcDbSymbolTableRecord
100
AcDbTextStyleTableRecord
  2
textstyle66
 70
0
 40
0.0
 41
1.0
 50
0.0
 71
0
 42
17.0
  3

  4

1001
ACAD
1000
isocp.shx
1071
0
  0
STYLE
  5
A2
100
AcDbSymbolTableRecord
100
AcDbTextStyleTableRecord
  2
textstyle67
 70
0
 40
0.0
 41
1.0
 50
0.0
 71
0
 42
17.0
  3

  4

1001
ACAD
1000
isocp.shx
1071
0
  0
STYLE
  5
A3
100
AcDbSymbolTableRecord
100
AcDbTextStyleTableRecord
  2
textstyle68
 70
0
 40
0.0
 41
1.0
 50
0.0
 71
0
 42
17.0
  3

  4

1001
ACAD
1000
isocp.shx
1071
0
  0
STYLE
  5
A4
100
AcDbSymbolTableRecord
100
AcDbTextStyleTableRecord
  2
textstyle69
 70
0
 40
0.0
 41
1.0
 50
0.0
 71
0
 42
17.0
  3

  4

1001
ACAD
1000
isocp.shx
1071
0
  0
STYLE
  5
A5
100
AcDbSymbolTableRecord
100
AcDbTextStyleTableRecord
  2
textstyle70
 70
0
 40
0.0
 41
1.0
 50
0.0
 71
0
 42
17.0
  3

  4

1001
ACAD
1000
isocp.shx
1071
0
  0
STYLE
  5
A6
100
AcDbSymbolTableRecord
100
AcDbTextStyleTableRecord
  2
textstyle71
 70
0
 40
0.0
 41
1.0
 50
0.0
 71
0
 42
17.0
  3

  4

1001
ACAD
1000
isocp.shx
1071
0
  0
STYLE
  5
A7
100
AcDbSymbolTableRecord
100
AcDbTextStyleTableRecord
  2
textstyle72
 70
0
 40
0.0
 41
1.0
 50
0.0
 71
0
 42
17.0
  3

  4

1001
ACAD
1000
isocp.shx
1071
0
  0
STYLE
  5
A8
100
AcDbSymbolTableRecord
100
AcDbTextStyleTableRecord
  2
textstyle73
 70
0
 40
0.0
 41
1.0
 50
0.0
 71
0
 42
17.0
  3

  4

1001
ACAD
1000
isocp.shx
1071
0
  0
STYLE
  5
A9
100
AcDbSymbolTableRecord
100
AcDbTextStyleTableRecord
  2
textstyle74
 70
0
 40
0.0
 41
1.0
 50
0.0
 71
0
 42
17.0
  3

  4

1001
ACAD
1000
isocp.shx
1071
0
  0
STYLE
  5
AA
100
AcDbSymbolTableRecord
100
AcDbTextStyleTableRecord
  2
textstyle75
 70
0
 40
0.0
 41
1.0
 50
0.0
 71
0
 42
17.0
  3

  4

1001
ACAD
1000
isocp.shx
1071
0
  0
STYLE
  5
AB
100
AcDbSymbolTableRecord
100
AcDbTextStyleTableRecord
  2
textstyle76
 70
0
 40
0.0
 41
1.0
 50
0.0
 71
0
 42
17.0
  3

  4

1001
ACAD
1000
isocp.shx
1071
0
  0
STYLE
  5
AC
100
AcDbSymbolTableRecord
100
AcDbTextStyleTableRecord
  2
textstyle77
 70
0
 40
0.0
 41
1.0
 50
0.0
 71
0
 42
17.0
  3

  4

1001
ACAD
1000
isocp.shx
1071
0
  0
STYLE
  5
AD
100
AcDbSymbolTableRecord
100
AcDbTextStyleTableRecord
  2
textstyle78
 70
0
 40
0.0
 41
1.0
 50
0.0
 71
0
 42
17.0
  3

  4

1001
ACAD
1000
isocp.shx
1071
0
  0
STYLE
  5
AE
100
AcDbSymbolTableRecord
100
AcDbTextStyleTableRecord
  2
textstyle79
 70
0
 40
0.0
 41
1.0
 50
0.0
 71
0
 42
17.0
  3

  4

1001
ACAD
1000
isocp.shx
1071
0
  0
STYLE
  5
AF
100
AcDbSymbolTableRecord
100
AcDbTextStyleTableRecord
  2
textstyle80
 70
0
 40
0.0
 41
1.0
 50
0.0
 71
0
 42
17.0
  3

  4

1001
ACAD
1000
isocp.shx
1071
0
  0
STYLE
  5
B0
100
AcDbSymbolTableRecord
100
AcDbTextStyleTableRecord
  2
textstyle81
 70
0
 40
0.0
 41
1.0
 50
0.0
 71
0
 42
20.0
  3

  4

1001
ACAD
1000
simplex.shx
1071
0
  0
STYLE
  5
B1
100
AcDbSymbolTableRecord
100
AcDbTextStyleTableRecord
  2
textstyle82
 70
0
 40
0.0
 41
1.0
 50
0.0
 71
0
 42
13.0
  3

  4

1001
ACAD
1000
simplex.shx
1071
0
  0
STYLE
  5
B2
100
AcDbSymbolTableRecord
100
AcDbTextStyleTableRecord
  2
textstyle83
 70
0
 40
0.0
 41
1.0
 50
0.0
 71
0
 42
20.0
  3

  4

1001
ACAD
1000
simplex.shx
1071
0
  0
STYLE
  5
B3
100
AcDbSymbolTableRecord
100
AcDbTextStyleTableRecord
  2
textstyle84
 70
0
 40
0.0
 41
1.0
 50
0.0
 71
0
 42
13.0
  3

  4

1001
ACAD
1000
simplex.shx
1071
0
  0
STYLE
  5
B4
100
AcDbSymbolTableRecord
100
AcDbTextStyleTableRecord
  2
textstyle85
 70
0
 40
0.0
 41
1.0
 50
0.0
 71
0
 42
13.0
  3

  4

1001
ACAD
1000
simplex.shx
1071
0
  0
STYLE
  5
B5
100
AcDbSymbolTableRecord
100
AcDbTextStyleTableRecord
  2
textstyle86
 70
0
 40
0.0
 41
1.0
 50
0.0
 71
0
 42
13.0
  3

  4

1001
ACAD
1000
simplex.shx
1071
0
  0
STYLE
  5
B6
100
AcDbSymbolTableRecord
100
AcDbTextStyleTableRecord
  2
textstyle87
 70
0
 40
0.0
 41
1.0
 50
0.0
 71
0
 42
20.0
  3

  4

1001
ACAD
1000
simplex.shx
1071
0
  0
STYLE
  5
B7
100
AcDbSymbolTableRecord
100
AcDbTextStyleTableRecord
  2
textstyle88
 70
0
 40
0.0
 41
1.0
 50
0.0
 71
0
 42
13.0
  3

  4

1001
ACAD
1000
simplex.shx
1071
0
  0
STYLE
  5
B8
100
AcDbSymbolTableRecord
100
AcDbTextStyleTableRecord
  2
textstyle89
 70
0
 40
0.0
 41
1.0
 50
0.0
 71
0
 42
20.0
  3

  4

1001
ACAD
1000
simplex.shx
1071
0
  0
STYLE
  5
B9
100
AcDbSymbolTableRecord
100
AcDbTextStyleTableRecord
  2
textstyle90
 70
0
 40
0.0
 41
1.0
 50
0.0
 71
0
 42
13.0
  3

  4

1001
ACAD
1000
simplex.shx
1071
0
  0
STYLE
  5
BA
100
AcDbSymbolTableRecord
100
AcDbTextStyleTableRecord
  2
textstyle91
 70
0
 40
0.0
 41
1.0
 50
0.0
 71
0
 42
20.0
  3

  4

1001
ACAD
1000
simplex.shx
1071
0
  0
STYLE
  5
BB
100
AcDbSymbolTableRecord
100
AcDbTextStyleTableRecord
  2
textstyle92
 70
0
 40
0.0
 41
1.0
 50
0.0
 71
0
 42
20.0
  3

  4

1001
ACAD
1000
simplex.shx
1071
0
  0
STYLE
  5
BC
100
AcDbSymbolTableRecord
100
AcDbTextStyleTableRecord
  2
textstyle93
 70
0
 40
0.0
 41
1.0
 50
0.0
 71
0
 42
20.0
  3

  4

1001
ACAD
1000
simplex.shx
1071
0
  0
STYLE
  5
BD
100
AcDbSymbolTableRecord
100
AcDbTextStyleTableRecord
  2
textstyle94
 70
0
 40
0.0
 41
1.0
 50
0.0
 71
0
 42
30.0
  3

  4

1001
ACAD
1000
simplex.shx
1071
0
  0
STYLE
  5
BE
100
AcDbSymbolTableRecord
100
AcDbTextStyleTableRecord
  2
textstyle95
 70
0
 40
0.0
 41
1.0
 50
0.0
 71
0
 42
20.0
  3

  4

1001
ACAD
1000
simplex.shx
1071
0
  0
STYLE
  5
BF
100
AcDbSymbolTableRecord
100
AcDbTextStyleTableRecord
  2
textstyle96
 70
0
 40
0.0
 41
1.0
 50
0.0
 71
0
 42
20.0
  3

  4

1001
ACAD
1000
simplex.shx
1071
0
  0
STYLE
  5
C0
100
AcDbSymbolTableRecord
100
AcDbTextStyleTableRecord
  2
textstyle97
 70
0
 40
0.0
 41
1.0
 50
0.0
 71
0
 42
30.0
  3

  4

1001
ACAD
1000
simplex.shx
1071
0
  0
STYLE
  5
C1
100
AcDbSymbolTableRecord
100
AcDbTextStyleTableRecord
  2
textstyle98
 70
0
 40
0.0
 41
1.0
 50
0.0
 71
0
 42
20.0
  3

  4

1001
ACAD
1000
simplex.shx
1071
0
  0
STYLE
  5
C2
100
AcDbSymbolTableRecord
100
AcDbTextStyleTableRecord
  2
textstyle99
 70
0
 40
0.0
 41
1.0
 50
0.0
 71
0
 42
20.0
  3

  4

1001
ACAD
1000
simplex.shx
1071
0
  0
STYLE
  5
C3
100
AcDbSymbolTableRecord
100
AcDbTextStyleTableRecord
  2
textstyle100
 70
0
 40
0.0
 41
1.0
 50
0.0
 71
0
 42
20.0
  3

  4

1001
ACAD
1000
simplex.shx
1071
0
  0
STYLE
  5
C4
100
AcDbSymbolTableRecord
100
AcDbTextStyleTableRecord
  2
textstyle101
 70
0
 40
0.0
 41
1.0
 50
0.0
 71
0
 42
20.0
  3

  4

1001
ACAD
1000
simplex.shx
1071
0
  0
STYLE
  5
C5
100
AcDbSymbolTableRecord
100
AcDbTextStyleTableRecord
  2
textstyle102
 70
0
 40
0.0
 41
1.0
 50
0.0
 71
0
 42
20.0
  3

  4

1001
ACAD
1000
simplex.shx
1071
0
  0
STYLE
  5
C6
100
AcDbSymbolTableRecord
100
AcDbTextStyleTableRecord
  2
textstyle103
 70
0
 40
0.0
 41
1.0
 50
0.0
 71
0
 42
20.0
  3

  4

1001
ACAD
1000
simplex.shx
1071
0
  0
STYLE
  5
C7
100
AcDbSymbolTableRecord
100
AcDbTextStyleTableRecord
  2
textstyle104
 70
0
 40
0.0
 41
1.0
 50
0.0
 71
0
 42
20.0
  3

  4

1001
ACAD
1000
simplex.shx
1071
0
  0
STYLE
  5
C8
100
AcDbSymbolTableRecord
100
AcDbTextStyleTableRecord
  2
textstyle105
 70
0
 40
0.0
 41
1.0
 50
0.0
 71
0
 42
13.0
  3

  4

1001
ACAD
1000
simplex.shx
1071
0
  0
STYLE
  5
C9
100
AcDbSymbolTableRecord
100
AcDbTextStyleTableRecord
  2
textstyle106
 70
0
 40
0.0
 41
1.0
 50
0.0
 71
0
 42
13.0
  3

  4

1001
ACAD
1000
simplex.shx
1071
0
  0
STYLE
  5
CA
100
AcDbSymbolTableRecord
100
AcDbTextStyleTableRecord
  2
textstyle107
 70
0
 40
0.0
 41
1.0
 50
0.0
 71
0
 42
13.0
  3

  4

1001
ACAD
1000
simplex.shx
1071
0
  0
ENDTAB
  0
TABLE
  2
VIEW
  5
6
100
AcDbSymbolTable
 70
0
  0
ENDTAB
  0
TABLE
  2
UCS
  5
7
100
AcDbSymbolTable
 70
0
  0
ENDTAB
  0
TABLE
  2
APPID
  5
9
100
AcDbSymbolTable
 70
1
  0
APPID
  5
12
100
AcDbSymbolTableRecord
100
AcDbRegAppTableRecord
  2
ACAD
 70
0
  0
APPID
  5
CB
100
AcDbSymbolTableRecord
100
AcDbRegAppTableRecord
  2
QCAD
 70
0
  0
ENDTAB
  0
TABLE
  2
DIMSTYLE
  5
A
100
AcDbSymbolTable
 70
1
100
AcDbDimStyleTable
 71
0
  0
DIMSTYLE
105
27
100
AcDbSymbolTableRecord
100
AcDbDimStyleTableRecord
  2
Standard
 41
0.18
 42
0.0625
 43
3.75
 44
0.18
 70
0
 73
0
 74
0
 77
1
 78
8
140
0.18
141
2.5
143
0.03937007874016
147
0.09
171
3
172
1
271
2
272
2
274
3
278
44
283
0
284
8
340
5E
  0
ENDTAB
  0
TABLE
  2
BLOCK_RECORD
  5
1
100
AcDbSymbolTable
 70
1
  0
BLOCK_RECORD
  5
1F
100
AcDbSymbolTableRecord
100
AcDbBlockTableRecord
  2
*Model_Space
340
22
  0
BLOCK_RECORD
  5
1B
100
AcDbSymbolTableRecord
100
AcDbBlockTableRecord
  2
*Paper_Space
340
1E
  0
BLOCK_RECORD
  5
23
100
AcDbSymbolTableRecord
100
AcDbBlockTableRecord
  2
*Paper_Space0
340
26
  0
BLOCK_RECORD
  5
CC
100
AcDbSymbolTableRecord
100
AcDbBlockTableRecord
  2
_X0
340
0
  0
BLOCK_RECORD
  5
CD
100
AcDbSymbolTableRecord
100
AcDbBlockTableRecord
  2
$PAPER_SPACE
340
0
  0
BLOCK_RECORD
  5
CE
100
AcDbSymbolTableRecord
100
AcDbBlockTableRecord
  2
$MODEL_SPACE
340
0
  0
ENDTAB
  0
ENDSEC
  0
SECTION
  2
BLOCKS
  0
BLOCK
  5
20
100
AcDbEntity
  8
0
100
AcDbBlockBegin
  2
*Model_Space
 70
0
 10
0.0
 20
0.0
 30
0.0
  3
*Model_Space
  1

  0
ENDBLK
  5
21
100
AcDbEntity
  8
0
100
AcDbBlockEnd
  0
BLOCK
  5
1C
100
AcDbEntity
 67
1
  8
0
100
AcDbBlockBegin
  2
*Paper_Space
 70
0
 10
0.0
 20
0.0
 30
0.0
  3
*Paper_Space
  1

  0
ENDBLK
  5
1D
100
AcDbEntity
 67
1
  8
0
100
AcDbBlockEnd
  0
BLOCK
  5
24
100
AcDbEntity
  8
0
100
AcDbBlockBegin
  2
*Paper_Space0
 70
0
 10
0.0
 20
0.0
 30
0.0
  3
*Paper_Space0
  1

  0
ENDBLK
  5
25
100
AcDbEntity
  8
0
100
AcDbBlockEnd
  0
BLOCK
  5
CF
100
AcDbEntity
  8
0
100
AcDbBlockBegin
  2
_X0
 70
0
 10
0.0
 20
0.0
 30
0.0
  3
_X0
  1

  0
TEXT
  5
D0
100
AcDbEntity
100
AcDbText
  8
00-NOPRINT_TEXT
 62
256
370
-1
 48
1.0
  6
CONTINUOUS
 10
5637.4480462928204
 20
6137.6918885846544
 30
0.0
 40
25.0
  1
30 / 06
 50
0.0
 41
1.0
  7
textstyle0
 71
0
 72
0
 11
0.0
 21
0.0
 31
0.0
100
AcDbText
 73
1
  0
TEXT
  5
D1
100
AcDbEntity
100
AcDbText
  8
00-NOPRINT_TEXT
 62
256
370
-1
 48
1.0
  6
CONTINUOUS
 10
5640.1050981995304
 20
6097.5312460143732
 30
0.0
 40
25.0
  1
/15
 50
0.0
 41
1.0
  7
textstyle1
 71
0
 72
0
 11
0.0
 21
0.0
 31
0.0
100
AcDbText
 73
1
  0
ENDBLK
  5
D2
100
AcDbEntity
  8
0
100
AcDbBlockEnd
  0
BLOCK
  5
D3
100
AcDbEntity
  8
0
100
AcDbBlockBegin
  2
$PAPER_SPACE
 70
0
 10
0.0
 20
0.0
 30
0.0
  3
$PAPER_SPACE
  1

  0
ENDBLK
  5
D4
100
AcDbEntity
  8
0
100
AcDbBlockEnd
  0
BLOCK
  5
D5
100
AcDbEntity
  8
0
100
AcDbBlockBegin
  2
*X3
 70
0
 10
0.0
 20
0.0
 30
0.0
  3
*X3
  1

  0
TEXT
  5
D6
100
AcDbEntity
100
AcDbText
  8
00-NOPRINT_TEXT
 62
256
370
-1
 48
1.0
  6
CONTINUOUS
 10
5737.3727199143405
 20
6515.5417037644029
 30
0.0
 40
13.0
  1
2440mm x
 50
0.0
 41
1.0
  7
textstyle2
 71
0
 72
0
 11
0.0
 21
0.0
 31
0.0
100
AcDbText
 73
1
  0
TEXT
  5
D7
100
AcDbEntity
100
AcDbText
  8
00-NOPRINT_TEXT
 62
256
370
-1
 48
1.0
  6
CONTINUOUS
 10
5735.5155770571982
 20
6494.6581696278572
 30
0.0
 40
13.0
  1
1220mm
 50
0.0
 41
1.0
  7
textstyle3
 71
0
 72
0
 11
0.0
 21
0.0
 31
0.0
100
AcDbText
 73
1
  0
ENDBLK
  5
D8
100
AcDbEntity
  8
0
100
AcDbBlockEnd
  0
BLOCK
  5
D9
100
AcDbEntity
  8
0
100
AcDbBlockBegin
  2
$MODEL_SPACE
 70
0
 10
0.0
 20
0.0
 30
0.0
  3
$MODEL_SPACE
  1

  0
ENDBLK
  5
DA
100
AcDbEntity
  8
0
100
AcDbBlockEnd
  0
ENDSEC
  0
SECTION
  2
ENTITIES
  0
LWPOLYLINE
  5
DB
  8
TOP_CUTOUT_18MM_OUTSIDE
 62
256
370
-1
 48
1.0
  6
BYLAYER
100
AcDbEntity
100
AcDbPolyline
 90
21
 70
1
 10
244.57593366569381
 20
3500.6914544053211
 30
0.0
 42
0.4142135725969827
 10
253.5759331944555
 20
3491.6914536199238
 30
0.0
 10
271.1562551944553
 20
3491.6914536199251
 30
0.0
 42
0.3948374641655323
 10
280.13630041846949
 20
3500.0924575947638
 30
0.0
 10
301.38787118867913
 20
3818.6925364899471
 30
0.0
 42
-0.3948374490351506
 10
349.6458161333012
 20
3863.8387736199238
 30
0.0
 10
449.57593366569381
 20
3863.8387616199252
 30
0.0
 10
549.50604513329745
 20
3863.8387736199238
 30
0.0
 42
-0.3948374641655987
 10
597.76399497416423
 20
3818.6925390167298
 30
0.0
 10
619.01556588155472
 20
3500.0924580649571
 30
0.0
 42
0.3948374490351672
 10
627.99561019445525
 20
3491.6914536199238
 30
0.0
 10
645.57587219445475
 20
3491.6914536199238
 30
0.0
 42
0.4142135777089093
 10
654.57587266569317
 20
3500.6914536199251
 30
0.0
 10
654.57587266569317
 20
3786.6853496199228
 30
0.0
 10
642.2327269151865
 20
3786.685349619926
 30
0.0
 42
-1.0000000000000191
 10
636.57587266569499
 20
3792.3422038694162
 30
0.0
 10
636.57587266569305
 20
3930.8387616199252
 30
0.0
 10
262.57593366569381
 20
3930.8387616199252
 30
0.0
 10
262.57593366569381
 20
3792.3422038694171
 30
0.0
 42
-1.000000000000079
 10
256.91907941620229
 20
3786.6853496199228
 30
0.0
 10
244.57593366569381
 20
3786.6853496199228
 30
0.0
  0
CIRCLE
  5
DC
100
AcDbEntity
100
AcDbCircle
  8
HOLE_6MM_DIAM_18MM_DEEP
 62
256
370
-1
 48
1.0
  6
BYLAYER
 10
906.79522057530994
 20
3336.8154551353209
 30
0.0
 40
3.0
  0
CIRCLE
  5
DD
100
AcDbEntity
100
AcDbCircle
  8
HOLE_6MM_DIAM_18MM_DEEP
 62
256
370
-1
 48
1.0
  6
BYLAYER
 10
789.47850957530864
 20
3031.4021251353229
 30
0.0
 40
3.0
  0
CIRCLE
  5
DE
100
AcDbEntity
100
AcDbCircle
  8
HOLE_6MM_DIAM_18MM_DEEP
 62
256
370
-1
 48
1.0
  6
BYLAYER
 10
974.14507457530999
 20
3356.127711135322
 30
0.0
 40
3.0
  0
CIRCLE
  5
DF
100
AcDbEntity
100
AcDbCircle
  8
HOLE_6MM_DIAM_18MM_DEEP
 62
256
370
-1
 48
1.0
  6
BYLAYER
 10
789.47850957530864
 20
3346.1629431353222
 30
0.0
 40
3.0
  0
CIRCLE
  5
E0
100
AcDbEntity
100
AcDbCircle
  8
HOLE_6MM_DIAM_18MM_DEEP
 62
256
370
-1
 48
1.0
  6
BYLAYER
 10
849.29790657530975
 20
3066.5862071353231
 30
0.0
 40
3.0
  0
CIRCLE
  5
E1
100
AcDbEntity
100
AcDbCircle
  8
HOLE_6MM_DIAM_18MM_DEEP
 62
256
370
-1
 48
1.0
  6
BYLAYER
 10
723.91484957530884
 20
3361.2994941353231
 30
0.0
 40
3.0
  0
CIRCLE
  5
E2
100
AcDbEntity
100
AcDbCircle
  8
HOLE_6MM_DIAM_18MM_DEEP
 62
256
370
-1
 48
1.0
  6
BYLAYER
 10
849.29790657530975
 20
3277.7676721353218
 30
0.0
 40
3.0
  0
CIRCLE
  5
E3
100
AcDbEntity
100
AcDbCircle
  8
HOLE_6MM_DIAM_18MM_DEEP
 62
256
370
-1
 48
1.0
  6
BYLAYER
 10
723.91484957530884
 20
3016.2655591353232
 30
0.0
 40
3.0
  0
LWPOLYLINE
  5
E4
  8
TOP_CUTOUT_18MM_OUTSIDE
 62
256
370
-1
 48
1.0
  6
BYLAYER
100
AcDbEntity
100
AcDbPolyline
 90
16
 70
1
 10
843.29692664182767
 20
3034.5903216040501
 30
0.0
 42
0.349215623630674
 10
858.79790657530975
 20
3054.0777213899928
 30
0.0
 10
858.79790657530975
 20
3283.5475871353219
 30
0.0
 42
-0.3345953097984663
 10
887.77241100045455
 20
3321.9980545879921
 30
0.0
 10
996.31224957530856
 20
3353.1213481353211
 30
0.0
 10
991.35076257531
 20
3370.4240521353231
 30
0.0
 10
909.57448146443664
 20
3346.9750784661901
 30
0.0
 42
-0.1272160680011995
 10
834.4862199745312
 20
3345.0088218286401
 30
0.0
 10
703.43950757530899
 20
3375.2633461353221
 30
0.0
 10
699.39037457530867
 20
3357.7246801353231
 30
0.0
 10
756.79398684136504
 20
3344.4720162604181
 30
0.0
 42
-0.3492156236305513
 10
818.79790657530793
 20
3266.522417116661
 30
0.0
 10
818.79790657530793
 20
3111.0426361540049
 30
0.0
 42
-0.3492156236307085
 10
756.79398684138505
 20
3033.093037010231
 30
0.0
 10
696.18200057530885
 20
3019.099634135322
 30
0.0
 10
700.23113357530917
 20
3001.5609991353231
 30
0.0
  0
LWPOLYLINE
  5
E5
  8
TOP_CUTOUT_18MM_OUTSIDE
 62
256
370
-1
 48
1.0
  6
BYLAYER
100
AcDbEntity
100
AcDbPolyline
 90
14
 70
1
 10
589.47468663980897
 20
2863.7769086061739
 30
0.0
 10
606.97468690160895
 20
2863.7769086061739
 30
0.0
 10
606.97468690160895
 20
3170.9675841769672
 30
0.0
 42
0.4142135725970305
 10
576.9746842836156
 20
3200.9675826061721
 30
0.0
 10
262.97468951960218
 20
3200.9675826061721
 30
0.0
 42
0.4142135725971657
 10
232.97468690160889
 20
3170.967584176969
 30
0.0
 10
232.97468690160889
 20
2863.7769086061739
 30
0.0
 10
250.4746866398109
 20
2863.7769086061739
 30
0.0
 42
-0.4142135725970606
 10
253.47468690160889
 20
2860.7769087632528
 30
0.0
 10
253.47468690160889
 20
2840.9675836533752
 30
0.0
 42
0.4142135777089539
 10
273.47468690160531
 20
2820.9675826061721
 30
0.0
 10
566.47468690160895
 20
2820.9675826061721
 30
0.0
 42
0.414213577708793
 10
586.47468690160895
 20
2840.9675836533702
 30
0.0
 10
586.47468690160895
 20
2860.7769087632528
 30
0.0
 42
-0.4142135214775167
  0
LWPOLYLINE
  5
E6
  8
TOP_CUTOUT_18MM_INSIDE
 62
256
370
-1
 48
1.0
  6
BYLAYER
100
AcDbEntity
100
AcDbPolyline
 90
8
 70
1
 10
661.85596531089129
 20
2927.568267082796
 30
0.0
 10
661.85596531089129
 20
2872.5682670827919
 30
0.0
 42
0.4142135725970303
 10
681.85596426369375
 20
2852.5682653374629
 30
0.0
 10
975.85596426369921
 20
2852.5682653374629
 30
0.0
 42
0.4142135777087713
 10
995.85596531089129
 20
2872.5682653374679
 30
0.0
 10
995.85596531089129
 20
2927.5682653374629
 30
0.0
 42
0.4142135777089277
 10
975.85596426369375
 20
2947.5682653374629
 30
0.0
 10
681.85596426369921
 20
2947.5682653374611
 30
0.0
 42
0.4142135214773647
  0
LWPOLYLINE
  5
E7
  8
TOP_CUTOUT_18MM_OUTSIDE
 62
256
370
-1
 48
1.0
  6
BYLAYER
100
AcDbEntity
100
AcDbPolyline
 90
13
 70
1
 10
587.15650082869058
 20
3221.34609149383
 30
0.0
 10
571.71393482869087
 20
3288.2351294938298
 30
0.0
 10
299.1226338286906
 20
3288.2351294938298
 30
0.0
 10
283.68006082869209
 20
3221.34609149383
 30
0.0
 10
293.80749488078249
 20
3219.007913584328
 30
0.0
 42
0.3043891499192805
 10
303.59800484225519
 20
3222.738590300477
 30
0.0
 10
325.5903995047538
 20
3253.8210915804302
 30
0.0
 42
-0.2433979922400471
 10
343.7834238286905
 20
3263.2350924938291
 30
0.0
 10
435.41828682869158
 20
3263.2351294938298
 30
0.0
 10
527.05315282869196
 20
3263.2350924938291
 30
0.0
 42
-0.2433979922401256
 10
545.24617715262502
 20
3253.8210915804361
 30
0.0
 10
567.23856381512633
 20
3222.7385903004802
 30
0.0
 42
0.3043891499190526
 10
577.0290737765954
 20
3219.0079135843271
 30
0.0
  0
LWPOLYLINE
  5
E8
  8
TOP_CUTOUT_18MM_OUTSIDE
 62
256
370
-1
 48
1.0
  6
BYLAYER
100
AcDbEntity
100
AcDbPolyline
 90
13
 70
1
 10
285.97983075990118
 20
3378.2155244448518
 30
0.0
 10
301.42239675990101
 20
3311.326486444852
 30
0.0
 10
574.01368975990215
 20
3311.326486444852
 30
0.0
 10
589.45625575990186
 20
3378.2155244448518
 30
0.0
 10
579.32884370780812
 20
3380.5537023543511
 30
0.0
 42
0.3043891499192362
 10
569.53833374633723
 20
3376.823025638203
 30
0.0
 10
547.5459480838399
 20
3345.7405243582521
 30
0.0
 42
-0.2433979922400407
 10
529.35292375990127
 20
3336.3265234448518
 30
0.0
 10
437.71805075990233
 20
3336.326486444852
 30
0.0
 10
346.08318575990239
 20
3336.3265234448518
 30
0.0
 42
-0.2433979922401003
 10
327.89016143596558
 20
3345.740524358248
 30
0.0
 10
305.89776777346742
 20
3376.8230256382012
 30
0.0
 42
0.3043891499190722
 10
296.10725781199471
 20
3380.5537023543511
 30
0.0
  0
LWPOLYLINE
  5
E9
  8
TOP_CUTOUT_18MM_OUTSIDE
 62
256
370
-1
 48
1.0
  6
BYLAYER
100
AcDbEntity
100
AcDbPolyline
 90
16
 70
1
 10
813.43049458786845
 20
3558.3133464268212
 30
0.0
 42
-0.3492156383169618
 10
797.92951533462644
 20
3577.8007478010491
 30
0.0
 10
797.92951533462474
 20
3807.2705783103902
 30
0.0
 42
0.3345953389093226
 10
768.95501023839267
 20
3845.7210494461501
 30
0.0
 10
660.41523333462635
 20
3876.8443428010492
 30
0.0
 10
665.3766593346262
 20
3894.147046801048
 30
0.0
 10
747.15293792894045
 20
3870.6980738535299
 30
0.0
 42
0.1272160635670583
 10
822.2411968335382
 20
3868.7318153165061
 30
0.0
 10
953.28791333462505
 20
3898.9863408010469
 30
0.0
 10
957.336986334627
 20
3881.4476748010488
 30
0.0
 10
899.93343234759766
 20
3868.1950102979581
 30
0.0
 42
0.3492156383170001
 10
837.92951533462656
 20
3790.2454048010518
 30
0.0
 10
837.92951533462463
 20
3634.7656528010489
 30
0.0
 42
0.3492156383169912
 10
899.93343234759425
 20
3556.8160473041389
 30
0.0
 10
960.54542133462564
 20
3542.8226598010478
 30
0.0
 10
956.49628733462669
 20
3525.2839938010488
 30
0.0
  0
CIRCLE
  5
EA
100
AcDbEntity
100
AcDbCircle
  8
HOLE_6MM_DIAM_18MM_DEEP
 62
256
370
-1
 48
1.0
  6
BYLAYER
 10
932.81257233462566
 20
3885.0224888010471
 30
0.0
 40
3.0
  0
CIRCLE
  5
EB
100
AcDbEntity
100
AcDbCircle
  8
HOLE_6MM_DIAM_18MM_DEEP
 62
256
370
-1
 48
1.0
  6
BYLAYER
 10
867.24891233462586
 20
3869.8859378010488
 30
0.0
 40
3.0
  0
CIRCLE
  5
EC
100
AcDbEntity
100
AcDbCircle
  8
HOLE_6MM_DIAM_18MM_DEEP
 62
256
370
-1
 48
1.0
  6
BYLAYER
 10
682.58234733462632
 20
3879.8507058010491
 30
0.0
 40
3.0
  0
CIRCLE
  5
ED
100
AcDbEntity
100
AcDbCircle
  8
HOLE_6MM_DIAM_18MM_DEEP
 62
256
370
-1
 48
1.0
  6
BYLAYER
 10
807.42951533462656
 20
3801.4906588010481
 30
0.0
 40
3.0
  0
CIRCLE
  5
EE
100
AcDbEntity
100
AcDbCircle
  8
HOLE_6MM_DIAM_18MM_DEEP
 62
256
370
-1
 48
1.0
  6
BYLAYER
 10
807.42951533462656
 20
3590.3092018010479
 30
0.0
 40
3.0
  0
CIRCLE
  5
EF
100
AcDbEntity
100
AcDbCircle
  8
HOLE_6MM_DIAM_18MM_DEEP
 62
256
370
-1
 48
1.0
  6
BYLAYER
 10
867.24891233462586
 20
3555.1250888010491
 30
0.0
 40
3.0
  0
CIRCLE
  5
F0
100
AcDbEntity
100
AcDbCircle
  8
HOLE_6MM_DIAM_18MM_DEEP
 62
256
370
-1
 48
1.0
  6
BYLAYER
 10
932.81257233462566
 20
3539.988553801049
 30
0.0
 40
3.0
  0
CIRCLE
  5
F1
100
AcDbEntity
100
AcDbCircle
  8
HOLE_6MM_DIAM_18MM_DEEP
 62
256
370
-1
 48
1.0
  6
BYLAYER
 10
749.93220133462626
 20
3860.538449801048
 30
0.0
 40
3.0
  0
CIRCLE
  5
F2
100
AcDbEntity
100
AcDbCircle
  8
HOLE_6MM_DIAM_18MM_DEEP
 62
256
370
-1
 48
1.0
  6
BYLAYER
 10
569.57593366569381
 20
3878.3888106199238
 30
0.0
 40
3.0
  0
CIRCLE
  5
F3
100
AcDbEntity
100
AcDbCircle
  8
HOLE_6MM_DIAM_18MM_DEEP
 62
256
370
-1
 48
1.0
  6
BYLAYER
 10
329.57593366569381
 20
3917.263993619923
 30
0.0
 40
3.0
  0
CIRCLE
  5
F4
100
AcDbEntity
100
AcDbCircle
  8
HOLE_6MM_DIAM_18MM_DEEP
 62
256
370
-1
 48
1.0
  6
BYLAYER
 10
329.57593366569381
 20
3878.3888106199238
 30
0.0
 40
3.0
  0
CIRCLE
  5
F5
100
AcDbEntity
100
AcDbCircle
  8
HOLE_6MM_DIAM_18MM_DEEP
 62
256
370
-1
 48
1.0
  6
BYLAYER
 10
569.57593366569381
 20
3917.263993619923
 30
0.0
 40
3.0
  0
CIRCLE
  5
F6
100
AcDbEntity
100
AcDbCircle
  8
HOLE_6MM_DIAM_18MM_DEEP
 62
256
370
-1
 48
1.0
  6
BYLAYER
 10
402.87973996775861
 20
3407.9290121633212
 30
0.0
 40
3.0
  0
CIRCLE
  5
F7
100
AcDbEntity
100
AcDbCircle
  8
HOLE_6MM_DIAM_18MM_DEEP
 62
256
370
-1
 48
1.0
  6
BYLAYER
 10
642.87973996775872
 20
3446.8041951633209
 30
0.0
 40
3.0
  0
CIRCLE
  5
F8
100
AcDbEntity
100
AcDbCircle
  8
HOLE_6MM_DIAM_18MM_DEEP
 62
256
370
-1
 48
1.0
  6
BYLAYER
 10
642.87973996775872
 20
3407.9290121633212
 30
0.0
 40
3.0
  0
CIRCLE
  5
F9
100
AcDbEntity
100
AcDbCircle
  8
HOLE_6MM_DIAM_18MM_DEEP
 62
256
370
-1
 48
1.0
  6
BYLAYER
 10
402.87973996775861
 20
3446.8041951633209
 30
0.0
 40
3.0
  0
LWPOLYLINE
  5
FA
  8
TOP_CUTOUT_18MM_OUTSIDE
 62
256
370
-1
 48
1.0
  6
BYLAYER
100
AcDbEntity
100
AcDbPolyline
 90
21
 70
1
 10
727.87973996775861
 20
3824.5015513779231
 30
0.0
 42
0.4142135725969962
 10
718.87974043899885
 20
3833.5015521633209
 30
0.0
 10
701.29941843899906
 20
3833.50155216332
 30
0.0
 42
0.3948374641655994
 10
692.31937321498469
 20
3825.1005481884822
 30
0.0
 10
671.06780244477341
 20
3506.5004692932971
 30
0.0
 42
-0.3948374490351562
 10
622.80985750015304
 20
3461.3542321633208
 30
0.0
 10
522.87973996775872
 20
3461.354244163319
 30
0.0
 10
422.94962850015497
 20
3461.3542321633199
 30
0.0
 42
-0.3948374641655822
 10
374.6916786592883
 20
3506.5004667665162
 30
0.0
 10
353.44010775189781
 20
3825.100547718288
 30
0.0
 42
0.3948374490351589
 10
344.46006343899899
 20
3833.5015521633209
 30
0.0
 10
326.87980143899767
 20
3833.5015521633209
 30
0.0
 42
0.4142135777089134
 10
317.87980096775942
 20
3824.50155216332
 30
0.0
 10
317.87980096775942
 20
3538.5076561633209
 30
0.0
 10
330.22294671826597
 20
3538.5076561633209
 30
0.0
 42
-1.00000000000028
 10
335.87980096775942
 20
3532.850801913828
 30
0.0
 10
335.87980096775942
 20
3394.3542441633199
 30
0.0
 10
709.87973996775872
 20
3394.3542441633199
 30
0.0
 10
709.87973996776054
 20
3532.850801913828
 30
0.0
 42
-1.0
 10
715.53659421725206
 20
3538.5076561633209
 30
0.0
 10
727.87973996775861
 20
3538.5076561633209
 30
0.0
  0
LWPOLYLINE
  5
FB
  8
TOP_CUTOUT_18MM_OUTSIDE
 62
256
370
-1
 48
1.0
  6
BYLAYER
100
AcDbEntity
100
AcDbPolyline
 90
18
 70
1
 10
641.85596531089141
 20
3243.8441513374628
 30
0.0
 10
661.85596531089129
 20
3243.8441513374628
 30
0.0
 10
661.85596531089129
 20
3002.5682635921321
 30
0.0
 42
0.4142135214775133
 10
681.85596426369375
 20
2982.5682653374629
 30
0.0
 10
975.85596426369921
 20
2982.5682653374629
 30
0.0
 42
0.4142135777087975
 10
995.85596531089129
 20
3002.5682653374679
 30
0.0
 10
995.85596531089129
 20
3243.8441513374628
 30
0.0
 10
1015.855965310891
 20
3243.8441513374628
 30
0.0
 10
1015.855965310891
 20
3079.9320895869541
 30
0.0
 42
0.9999999999997989
 10
1021.512819560385
 20
3074.2752353374631
 30
0.0
 10
1033.855965310891
 20
3074.2752353374631
 30
0.0
 10
1033.855965310891
 20
2852.5682653374711
 30
0.0
 42
-0.4142135777089421
 10
998.85596347830688
 20
2817.5682653374629
 30
0.0
 10
658.85596347829585
 20
2817.5682653374629
 30
0.0
 42
-0.4142135470372352
 10
623.85596531089141
 20
2852.5682653374629
 30
0.0
 10
623.85596531089141
 20
3074.2752353374631
 30
0.0
 10
636.19911106139989
 20
3074.2752353374631
 30
0.0
 42
1.00000000000026
 10
641.85596531089323
 20
3079.9320895869541
 30
0.0
  0
LWPOLYLINE
  5
FC
  8
00-NOPRINT_TEXT
 62
256
370
-1
 48
1.0
  6
BYLAYER
100
AcDbEntity
100
AcDbPolyline
 90
3
 70
128
 10
2.9746869016089472
 20
-307.25165860253492
 30
0.0
 10
2.9746869016089472
 20
-7.2516586025335519
 30
0.0
 10
-297.025313098391
 20
-7.2516586025321876
 30
0.0
  0
LWPOLYLINE
  5
FD
  8
00-NOPRINT_TEXT
 62
256
370
-1
 48
1.0
  6
BYLAYER
100
AcDbEntity
100
AcDbPolyline
 90
4
 70
129
 10
2.9746869867467458
 20
4150.7483415161441
 30
0.0
 10
5882.9746869016071
 20
4150.7483413974669
 30
0.0
 10
5882.9746868178418
 20
-7.2516587225768481
 30
0.0
 10
2.9746869016089472
 20
-7.251658602533098
 30
0.0
  0
LWPOLYLINE
  5
FE
  8
00_NOPRINT_TOLERANCE
 62
256
370
-1
 48
1.0
  6
BYLAYER
100
AcDbEntity
100
AcDbPolyline
 90
4
 70
129
 10
212.974686901609
 20
3950.7483413974669
 30
0.0
 10
1432.9746869016089
 20
3950.7483413974669
 30
0.0
 10
1432.9746869016089
 20
1510.748341397468
 30
0.0
 10
212.974686901609
 20
1510.748341397468
 30
0.0
  0
LWPOLYLINE
  5
FF
  8
00_NOPRINT_TOLERANCE
 62
256
370
-1
 48
1.0
  6
BYLAYER
100
AcDbEntity
100
AcDbPolyline
 90
4
 70
129
 10
1832.9746869016089
 20
3950.7483413974669
 30
0.0
 10
3052.9746869016089
 20
3950.7483413974669
 30
0.0
 10
3052.9746869016089
 20
1510.748341397468
 30
0.0
 10
1832.9746869016069
 20
1510.748341397468
 30
0.0
  0
LWPOLYLINE
  5
100
  8
00_NOPRINT_TOLERANCE
 62
256
370
-1
 48
1.0
  6
BYLAYER
100
AcDbEntity
100
AcDbPolyline
 90
4
 70
129
 10
3452.9746869016071
 20
3950.7483413974669
 30
0.0
 10
4672.9746869016071
 20
3950.7483413974669
 30
0.0
 10
4672.9746869016071
 20
1510.748341397468
 30
0.0
 10
3452.9746869016071
 20
1510.748341397468
 30
0.0
  0
TEXT
  5
101
100
AcDbEntity
100
AcDbText
  8
00-NOPRINT_TEXT
 62
7
420
16777215
370
-1
 48
1.0
  6
BYLAYER
 10
3452.9746869012019
 20
1210.170205519179
 30
0.0
 40
20.0
  1
SUMMARY TERMS AND CONDITIONS
 50
359.99999999883562
 41
1.0
  7
textstyle4
 71
0
 72
0
 11
3452.9746869016089
 21
1230.170205519179
 31
0.0
100
AcDbText
 73
3
  0
TEXT
  5
102
100
AcDbEntity
100
AcDbText
  8
00-NOPRINT_TEXT
 62
7
420
16777215
370
-1
 48
1.0
  6
BYLAYER
 10
3452.9746869009982
 20
1414.0683091881911
 30
0.0
 40
30.0
  1
BOTH FACES
 50
359.99999999883562
 41
1.0
  7
textstyle5
 71
0
 72
0
 11
3452.9746869016071
 21
1444.0683091881911
 31
0.0
100
AcDbText
 73
3
  0
TEXT
  5
103
100
AcDbEntity
100
AcDbText
  8
00-NOPRINT_TEXT
 62
7
420
16777215
370
-1
 48
1.0
  6
BYLAYER
 10
1832.9746869009989
 20
1414.0683091881911
 30
0.0
 40
30.0
  1
REVERSE FACE
 50
359.99999999883562
 41
1.0
  7
textstyle6
 71
0
 72
0
 11
1832.9746869016089
 21
1444.0683091881911
 31
0.0
100
AcDbText
 73
3
  0
TEXT
  5
104
100
AcDbEntity
100
AcDbText
  8
00-NOPRINT_TEXT
 62
7
420
16777215
370
-1
 48
1.0
  6
BYLAYER
 10
212.9746869009993
 20
1414.0683091881911
 30
0.0
 40
30.0
  1
FRONT FACE
 50
359.99999999883562
 41
1.0
  7
textstyle7
 71
0
 72
0
 11
212.974686901609
 21
1444.0683091881911
 31
0.0
100
AcDbText
 73
3
  0
TEXT
  5
105
100
AcDbEntity
100
AcDbText
  8
00-NOPRINT_TEXT
 62
7
420
16777215
370
-1
 48
1.0
  6
BYLAYER
 10
1832.9746869011999
 20
1210.170205519179
 30
0.0
 40
20.0
  1
FABRICATION GUIDELINES
 50
359.99999999883562
 41
1.0
  7
textstyle8
 71
0
 72
0
 11
1832.9746869016069
 21
1230.170205519179
 31
0.0
100
AcDbText
 73
3
  0
TEXT
  5
106
100
AcDbEntity
100
AcDbText
  8
00-NOPRINT_TEXT
 62
7
420
16777215
370
-1
 48
1.0
  6
BYLAYER
 10
212.97468690120249
 20
1210.170205519179
 30
0.0
 40
20.0
  1
USING THIS DRAWING
 50
359.99999999883562
 41
1.0
  7
textstyle9
 71
0
 72
0
 11
212.974686901609
 21
1230.170205519179
 31
0.0
100
AcDbText
 73
3
  0
TEXT
  5
107
100
AcDbEntity
100
AcDbText
  8
00-NOPRINT_TEXT
 62
7
420
16777215
370
-1
 48
1.0
  6
BYLAYER
 10
3451.4460283646772
 20
1147.411141067038
 30
0.0
 40
17.0
  1
This file represents the latest version of an open source product, designed to be CNC-milled from standard sheet
 50
359.99999999883562
 41
1.0
  7
textstyle10
 71
0
 72
0
 11
0.0
 21
0.0
 31
0.0
100
AcDbText
 73
1
  0
TEXT
  5
108
100
AcDbEntity
100
AcDbText
  8
00-NOPRINT_TEXT
 62
7
420
16777215
370
-1
 48
1.0
  6
BYLAYER
 10
3451.4460283641001
 20
1119.077807733704
 30
0.0
 40
17.0
  1
materials. Whilst OpenDesk make every effort to provide fully prototyped and tested designs, it is the responsiblity of
 50
359.99999999883562
 41
1.0
  7
textstyle11
 71
0
 72
0
 11
0.0
 21
0.0
 31
0.0
100
AcDbText
 73
1
  0
TEXT
  5
109
100
AcDbEntity
100
AcDbText
  8
00-NOPRINT_TEXT
 62
7
420
16777215
370
-1
 48
1.0
  6
BYLAYER
 10
3451.4460283635249
 20
1090.744474400371
 30
0.0
 40
17.0
  1
the end user (maker) to check file contents prior to fabrication, and ensure suitable due diligence and reasonable skill
 50
359.99999999883562
 41
1.0
  7
textstyle12
 71
0
 72
0
 11
0.0
 21
0.0
 31
0.0
100
AcDbText
 73
1
  0
TEXT
  5
10A
100
AcDbEntity
100
AcDbText
  8
00-NOPRINT_TEXT
 62
7
420
16777215
370
-1
 48
1.0
  6
BYLAYER
 10
3451.4460283629501
 20
1062.411141067038
 30
0.0
 40
17.0
  1
and care in fabrication and assembly.
 50
359.99999999883562
 41
1.0
  7
textstyle13
 71
0
 72
0
 11
0.0
 21
0.0
 31
0.0
100
AcDbText
 73
1
  0
TEXT
  5
10B
100
AcDbEntity
100
AcDbText
  8
00-NOPRINT_TEXT
 62
7
420
16777215
370
-1
 48
1.0
  6
BYLAYER
 10
3451.4460283617968
 20
1005.744474400371
 30
0.0
 40
17.0
  1
All OpenDesk designs are open source and provided as is. OpenDesk cannot accept any liability for any error or
 50
359.99999999883562
 41
1.0
  7
textstyle14
 71
0
 72
0
 11
0.0
 21
0.0
 31
0.0
100
AcDbText
 73
1
  0
TEXT
  5
10C
100
AcDbEntity
100
AcDbText
  8
00-NOPRINT_TEXT
 62
7
420
16777215
370
-1
 48
1.0
  6
BYLAYER
 10
3451.446028361222
 20
977.41114106703799
 30
0.0
 40
17.0
  1
ommission in the information contained herein. OpenDesk accepts no design liability, and provides no guarantee of
 50
359.99999999883562
 41
1.0
  7
textstyle15
 71
0
 72
0
 11
0.0
 21
0.0
 31
0.0
100
AcDbText
 73
1
  0
TEXT
  5
10D
100
AcDbEntity
100
AcDbText
  8
00-NOPRINT_TEXT
 62
7
420
16777215
370
-1
 48
1.0
  6
BYLAYER
 10
3452.0621710346768
 20
949.07780773369234
 30
0.0
 40
17.0
  1
quality or warranty of fitness for purpose on any open product in the OpenDesk library.
 50
359.99999999883562
 41
1.0
  7
textstyle16
 71
0
 72
0
 11
0.0
 21
0.0
 31
0.0
100
AcDbText
 73
1
  0
TEXT
  5
10E
100
AcDbEntity
100
AcDbText
  8
00-NOPRINT_TEXT
 62
7
420
16777215
370
-1
 48
1.0
  6
BYLAYER
 10
3451.446028359494
 20
892.41114106703787
 30
0.0
 40
17.0
  1
By using this file you agree to the following:
 50
359.99999999883562
 41
1.0
  7
textstyle17
 71
0
 72
0
 11
0.0
 21
0.0
 31
0.0
100
AcDbText
 73
1
  0
TEXT
  5
10F
100
AcDbEntity
100
AcDbText
  8
00-NOPRINT_TEXT
 62
7
420
16777215
370
-1
 48
1.0
  6
BYLAYER
 10
3451.4460283583448
 20
835.74447440037113
 30
0.0
 40
17.0
  1
- You expressly agree to hold harmless all OpenDesk designers or employees for any property damage, personal injury,
 50
359.99999999883562
 41
1.0
  7
textstyle18
 71
0
 72
0
 11
0.0
 21
0.0
 31
0.0
100
AcDbText
 73
1
  0
TEXT
  5
110
100
AcDbEntity
100
AcDbText
  8
00-NOPRINT_TEXT
 62
7
420
16777215
370
-1
 48
1.0
  6
BYLAYER
 10
3452.0621710317992
 20
807.41114106702514
 30
0.0
 40
17.0
  1
death, fudiciary loss, or any other loss or damage arising out of the use of this digital file and its contents, or
 50
359.99999999883562
 41
1.0
  7
textstyle19
 71
0
 72
0
 11
0.0
 21
0.0
 31
0.0
100
AcDbText
 73
1
  0
TEXT
  5
111
100
AcDbEntity
100
AcDbText
  8
00-NOPRINT_TEXT
 62
7
420
16777215
370
-1
 48
1.0
  6
BYLAYER
 10
3451.9911661524702
 20
779.07780773369313
 30
0.0
 40
17.0
  1
subsequent physical products fabricated from the information contained herein.
 50
359.99999999883562
 41
1.0
  7
textstyle20
 71
0
 72
0
 11
0.0
 21
0.0
 31
0.0
100
AcDbText
 73
1
  0
TEXT
  5
112
100
AcDbEntity
100
AcDbText
  8
00-NOPRINT_TEXT
 62
7
420
16777215
370
-1
 48
1.0
  6
BYLAYER
 10
3451.446028356042
 20
722.41114106703799
 30
0.0
 40
17.0
  1
- You agree that the information provided in this file is to be used at your own risk, without any guarantee of quality
 50
359.99999999883562
 41
1.0
  7
textstyle21
 71
0
 72
0
 11
0.0
 21
0.0
 31
0.0
100
AcDbText
 73
1
  0
TEXT
  5
113
100
AcDbEntity
100
AcDbText
  8
00-NOPRINT_TEXT
 62
7
420
16777215
370
-1
 48
1.0
  6
BYLAYER
 10
3451.4460283554681
 20
694.0778077337045
 30
0.0
 40
17.0
  1
or warranty expressly made.
 50
359.99999999883562
 41
1.0
  7
textstyle22
 71
0
 72
0
 11
0.0
 21
0.0
 31
0.0
100
AcDbText
 73
1
  0
TEXT
  5
114
100
AcDbEntity
100
AcDbText
  8
00-NOPRINT_TEXT
 62
7
420
16777215
370
-1
 48
1.0
  6
BYLAYER
 10
3451.446028354314
 20
637.41114106703753
 30
0.0
 40
17.0
  1
- You agree to indemnify OpenDesk, its designers and employees against any damages, losses, obligations, liabilities,
 50
359.99999999883562
 41
1.0
  7
textstyle23
 71
0
 72
0
 11
0.0
 21
0.0
 31
0.0
100
AcDbText
 73
1
  0
TEXT
  5
115
100
AcDbEntity
100
AcDbText
  8
00-NOPRINT_TEXT
 62
7
420
16777215
370
-1
 48
1.0
  6
BYLAYER
 10
3452.0621710277678
 20
609.07780773369166
 30
0.0
 40
17.0
  1
costs and expenses arising from the use of OpenDesk designs or any derivative designs permitted under the associated
 50
359.99999999883562
 41
1.0
  7
textstyle24
 71
0
 72
0
 11
0.0
 21
0.0
 31
0.0
100
AcDbText
 73
1
  0
TEXT
  5
116
100
AcDbEntity
100
AcDbText
  8
00-NOPRINT_TEXT
 62
7
420
16777215
370
-1
 48
1.0
  6
BYLAYER
 10
3451.7981098811802
 20
580.74447440036374
 30
0.0
 40
17.0
  1
license of use.
 50
359.99999999883562
 41
1.0
  7
textstyle25
 71
0
 72
0
 11
0.0
 21
0.0
 31
0.0
100
AcDbText
 73
1
  0
TEXT
  5
117
100
AcDbEntity
100
AcDbText
  8
00-NOPRINT_TEXT
 62
7
420
16777215
370
-1
 48
1.0
  6
BYLAYER
 10
3451.4460283514368
 20
495.7444744003709
 30
0.0
 40
17.0
  1
We hope you enjoy your OpenDesk product! Please feel free to notify us of any errors or omissions, share back any
 50
359.99999999883562
 41
1.0
  7
textstyle26
 71
0
 72
0
 11
0.0
 21
0.0
 31
0.0
100
AcDbText
 73
1
  0
TEXT
  5
118
100
AcDbEntity
100
AcDbText
  8
00-NOPRINT_TEXT
 62
7
420
16777215
370
-1
 48
1.0
  6
BYLAYER
 10
3451.4460283508602
 20
467.41114106703748
 30
0.0
 40
17.0
  1
feedback or developments on this design, or ask a question by emailing us on hello@opendesk.cc.
 50
359.99999999883562
 41
1.0
  7
textstyle27
 71
0
 72
0
 11
0.0
 21
0.0
 31
0.0
100
AcDbText
 73
1
  0
TEXT
  5
119
100
AcDbEntity
100
AcDbText
  8
00-NOPRINT_TEXT
 62
7
420
16777215
370
-1
 48
1.0
  6
BYLAYER
 10
3451.4460283497092
 20
410.74447440037102
 30
0.0
 40
17.0
  1
Welcome to the industrial revolution and thanks for trailblazing!
 50
359.99999999883562
 41
1.0
  7
textstyle28
 71
0
 72
0
 11
0.0
 21
0.0
 31
0.0
100
AcDbText
 73
1
  0
LINE
  5
11A
100
AcDbEntity
100
AcDbLine
  8
00_NOPRINT_TOLERANCE
 62
256
370
-1
 48
1.0
  6
BYLAYER
 10
1632.9746869016089
 20
1335.940809915121
 30
0.0
 11
1632.9746869016089
 21
4000.7483413974669
 31
0.0
  0
TEXT
  5
11B
100
AcDbEntity
100
AcDbText
  8
00-NOPRINT_TEXT
 62
256
370
-1
 48
1.0
  6
BYLAYER
 10
1516.3080202349429
 20
4042.6679403394578
 30
0.0
 40
25.0
  1
MIRROR LINE
 50
0.0
 41
1.0
  7
textstyle29
 71
0
 72
0
 11
0.0
 21
0.0
 31
0.0
100
AcDbText
 73
1
  0
TEXT
  5
11C
100
AcDbEntity
100
AcDbText
  8
00-NOPRINT_TEXT
 62
7
420
16777215
370
-1
 48
1.0
  6
BYLAYER
 10
1831.6441990974361
 20
1147.411141067048
 30
0.0
 40
17.0
  1
Before starting to cut your product please take account of the following guidelines. These reflect our personal
 50
359.99999999883562
 41
1.0
  7
textstyle30
 71
0
 72
0
 11
0.0
 21
0.0
 31
0.0
100
AcDbText
 73
1
  0
TEXT
  5
11D
100
AcDbEntity
100
AcDbText
  8
00-NOPRINT_TEXT
 62
7
420
16777215
370
-1
 48
1.0
  6
BYLAYER
 10
1831.6441990968619
 20
1119.077807733715
 30
0.0
 40
17.0
  1
research and learning and are by no means comprehensive. Please let us know if you have any recommendations for
 50
359.99999999883562
 41
1.0
  7
textstyle31
 71
0
 72
0
 11
0.0
 21
0.0
 31
0.0
100
AcDbText
 73
1
  0
TEXT
  5
11E
100
AcDbEntity
100
AcDbText
  8
00-NOPRINT_TEXT
 62
7
420
16777215
370
-1
 48
1.0
  6
BYLAYER
 10
1831.6441990962851
 20
1090.7444744003819
 30
0.0
 40
17.0
  1
improved standards, and/or cutting methods:
 50
359.99999999883562
 41
1.0
  7
textstyle32
 71
0
 72
0
 11
0.0
 21
0.0
 31
0.0
100
AcDbText
 73
1
  0
TEXT
  5
11F
100
AcDbEntity
100
AcDbText
  8
00-NOPRINT_TEXT
 62
7
420
16777215
370
-1
 48
1.0
  6
BYLAYER
 10
1831.644199095133
 20
1034.077807733715
 30
0.0
 40
17.0
  1
- Every CNC-machine is slightly different, you should follow your machine manufacturer's guidelines for best practice,
 50
359.99999999883562
 41
1.0
  7
textstyle33
 71
0
 72
0
 11
0.0
 21
0.0
 31
0.0
100
AcDbText
 73
1
  0
TEXT
  5
120
100
AcDbEntity
100
AcDbText
  8
00-NOPRINT_TEXT
 62
7
420
16777215
370
-1
 48
1.0
  6
BYLAYER
 10
1831.6441990945591
 20
1005.744474400382
 30
0.0
 40
17.0
  1
and consult your supplier for suitable drill bits and other recommendations. In our experience the best quality finish is
 50
359.99999999883562
 41
1.0
  7
textstyle34
 71
0
 72
0
 11
0.0
 21
0.0
 31
0.0
100
AcDbText
 73
1
  0
TEXT
  5
121
100
AcDbEntity
100
AcDbText
  8
00-NOPRINT_TEXT
 62
7
420
16777215
370
-1
 48
1.0
  6
BYLAYER
 10
1831.644199093982
 20
977.4111410670489
 30
0.0
 40
17.0
  1
achieved using a suitable vacuum bed to prevent material slippage, and a compression cutter to prevent splintering of
 50
359.99999999883562
 41
1.0
  7
textstyle35
 71
0
 72
0
 11
0.0
 21
0.0
 31
0.0
100
AcDbText
 73
1
  0
TEXT
  5
122
100
AcDbEntity
100
AcDbText
  8
00-NOPRINT_TEXT
 62
7
420
16777215
370
-1
 48
1.0
  6
BYLAYER
 10
1831.6441990934049
 20
949.07780773371496
 30
0.0
 40
17.0
  1
the surface of the material, however these will not always be available and such details are left to the discretion and
 50
359.99999999883562
 41
1.0
  7
textstyle36
 71
0
 72
0
 11
0.0
 21
0.0
 31
0.0
100
AcDbText
 73
1
  0
TEXT
  5
123
100
AcDbEntity
100
AcDbText
  8
00-NOPRINT_TEXT
 62
7
420
16777215
370
-1
 48
1.0
  6
BYLAYER
 10
1832.1723213848579
 20
920.74447440037193
 30
0.0
 40
17.0
  1
experience of the fabricator.
 50
359.99999999883562
 41
1.0
  7
textstyle37
 71
0
 72
0
 11
0.0
 21
0.0
 31
0.0
100
AcDbText
 73
1
  0
TEXT
  5
124
100
AcDbEntity
100
AcDbText
  8
00-NOPRINT_TEXT
 62
7
420
16777215
370
-1
 48
1.0
  6
BYLAYER
 10
1831.644199091679
 20
864.07780773371576
 30
0.0
 40
17.0
  1
- It is strongly recommended that you perform some test cuts using the appropriate material prior to fabrication, to
 50
359.99999999883562
 41
1.0
  7
textstyle38
 71
0
 72
0
 11
0.0
 21
0.0
 31
0.0
100
AcDbText
 73
1
  0
TEXT
  5
125
100
AcDbEntity
100
AcDbText
  8
00-NOPRINT_TEXT
 62
7
420
16777215
370
-1
 48
1.0
  6
BYLAYER
 10
1832.2603417651351
 20
835.74447440036965
 30
0.0
 40
17.0
  1
calibrate for suitable tolerance and bit size. A test sheet is included in this file. The test file includes some of the
 50
359.99999999883562
 41
1.0
  7
textstyle39
 71
0
 72
0
 11
0.0
 21
0.0
 31
0.0
100
AcDbText
 73
1
  0
TEXT
  5
126
100
AcDbEntity
100
AcDbText
  8
00-NOPRINT_TEXT
 62
7
420
16777215
370
-1
 48
1.0
  6
BYLAYER
 10
1832.1893368858041
 20
807.41114106703765
 30
0.0
 40
17.0
  1
standard OpenDesk joints of different types in three varying degrees of tolerance to account for variations in material
 50
359.99999999883562
 41
1.0
  7
textstyle40
 71
0
 72
0
 11
0.0
 21
0.0
 31
0.0
100
AcDbText
 73
1
  0
TEXT
  5
127
100
AcDbEntity
100
AcDbText
  8
00-NOPRINT_TEXT
 62
7
420
16777215
370
-1
 48
1.0
  6
BYLAYER
 10
1831.644199089953
 20
779.0778077337153
 30
0.0
 40
17.0
  1
thickness (+/- 1%%%). Please refer to the test sheet guidelines for more information.
 50
359.99999999883562
 41
1.0
  7
textstyle41
 71
0
 72
0
 11
0.0
 21
0.0
 31
0.0
100
AcDbText
 73
1
  0
TEXT
  5
128
100
AcDbEntity
100
AcDbText
  8
00-NOPRINT_TEXT
 62
7
420
16777215
370
-1
 48
1.0
  6
BYLAYER
 10
1831.6441990888
 20
722.4111410670489
 30
0.0
 40
17.0
  1
- It is highly recommended that you accurately measure the thickness of sheet you are using prior to fabrication, for
 50
359.99999999883562
 41
1.0
  7
textstyle42
 71
0
 72
0
 11
0.0
 21
0.0
 31
0.0
100
AcDbText
 73
1
  0
TEXT
  5
129
100
AcDbEntity
100
AcDbText
  8
00-NOPRINT_TEXT
 62
7
420
16777215
370
-1
 48
1.0
  6
BYLAYER
 10
1832.1723213802511
 20
694.0778077337045
 30
0.0
 40
17.0
  1
example using calipers at several points along the sheet. For best results ensure your sheet is adequately flat and
 50
359.99999999883562
 41
1.0
  7
textstyle43
 71
0
 72
0
 11
0.0
 21
0.0
 31
0.0
100
AcDbText
 73
1
  0
TEXT
  5
12A
100
AcDbEntity
100
AcDbText
  8
00-NOPRINT_TEXT
 62
7
420
16777215
370
-1
 48
1.0
  6
BYLAYER
 10
1831.6441990876499
 20
665.74447440038193
 30
0.0
 40
17.0
  1
free of any warping, knots, or imperfections.
 50
359.99999999883562
 41
1.0
  7
textstyle44
 71
0
 72
0
 11
0.0
 21
0.0
 31
0.0
100
AcDbText
 73
1
  0
TEXT
  5
12B
100
AcDbEntity
100
AcDbText
  8
00-NOPRINT_TEXT
 62
7
420
16777215
370
-1
 48
1.0
  6
BYLAYER
 10
1831.6441990864989
 20
609.07780773371542
 30
0.0
 40
17.0
  1
- When performing double-side cuts it is important to locate the flipped sheet exactly, to ensure cuts to both faces
 50
359.99999999883562
 41
1.0
  7
textstyle45
 71
0
 72
0
 11
0.0
 21
0.0
 31
0.0
100
AcDbText
 73
1
  0
TEXT
  5
12C
100
AcDbEntity
100
AcDbText
  8
00-NOPRINT_TEXT
 62
7
420
16777215
370
-1
 48
1.0
  6
BYLAYER
 10
1831.6441990859221
 20
580.74447440038193
 30
0.0
 40
17.0
  1
align correctly. This can be achieved using a suitable jig or locating pucks/noggins according to your machine bed.
 50
359.99999999883562
 41
1.0
  7
textstyle46
 71
0
 72
0
 11
0.0
 21
0.0
 31
0.0
100
AcDbText
 73
1
  0
TEXT
  5
12D
100
AcDbEntity
100
AcDbText
  8
00-NOPRINT_TEXT
 62
7
420
16777215
370
-1
 48
1.0
  6
BYLAYER
 10
1831.6441990853471
 20
552.41114106704845
 30
0.0
 40
17.0
  1
OpenDesk drawings requiring double-side cutting include at least two no. indicative locations for locator pucks (shown
 50
359.99999999883562
 41
1.0
  7
textstyle47
 71
0
 72
0
 11
0.0
 21
0.0
 31
0.0
100
AcDbText
 73
1
  0
TEXT
  5
12E
100
AcDbEntity
100
AcDbText
  8
00-NOPRINT_TEXT
 62
7
420
16777215
370
-1
 48
1.0
  6
BYLAYER
 10
1831.64419908477
 20
524.07780773371485
 30
0.0
 40
17.0
  1
as 60mm diameter circles at opposite corners of the sheet). For more information consult the guidance on
 50
359.99999999883562
 41
1.0
  7
textstyle48
 71
0
 72
0
 11
0.0
 21
0.0
 31
0.0
100
AcDbText
 73
1
  0
TEXT
  5
12F
100
AcDbEntity
100
AcDbText
  8
00-NOPRINT_TEXT
 62
7
420
16777215
370
-1
 48
1.0
  6
BYLAYER
 10
1831.644199084194
 20
495.74447440038188
 30
0.0
 40
17.0
  1
www.opendesk.cc.
 50
359.99999999883562
 41
1.0
  7
textstyle49
 71
0
 72
0
 11
0.0
 21
0.0
 31
0.0
100
AcDbText
 73
1
  0
TEXT
  5
130
100
AcDbEntity
100
AcDbText
  8
00-NOPRINT_TEXT
 62
7
420
16777215
370
-1
 48
1.0
  6
BYLAYER
 10
1831.644199083044
 20
439.07780773371502
 30
0.0
 40
17.0
  1
- Inside cuts may produce offcut pieces that can vibrate out of place and interfere with cutting. It is recommended to
 50
359.99999999883562
 41
1.0
  7
textstyle50
 71
0
 72
0
 11
0.0
 21
0.0
 31
0.0
100
AcDbText
 73
1
  0
TEXT
  5
131
100
AcDbEntity
100
AcDbText
  8
00-NOPRINT_TEXT
 62
7
420
16777215
370
-1
 48
1.0
  6
BYLAYER
 10
1832.1893368777439
 20
410.74447440037051
 30
0.0
 40
17.0
  1
secure such pieces to the bed prior to cutting for removal afterwards.
 50
359.99999999883562
 41
1.0
  7
textstyle51
 71
0
 72
0
 11
0.0
 21
0.0
 31
0.0
100
AcDbText
 73
1
  0
TEXT
  5
132
100
AcDbEntity
100
AcDbText
  8
00-NOPRINT_TEXT
 62
7
420
16777215
370
-1
 48
1.0
  6
BYLAYER
 10
1831.6441990813159
 20
354.07780773371491
 30
0.0
 40
17.0
  1
- Where designs include chamfering and pocketing it is strongly advisable to start with these cuts prior to full-depth
 50
359.99999999883562
 41
1.0
  7
textstyle52
 71
0
 72
0
 11
0.0
 21
0.0
 31
0.0
100
AcDbText
 73
1
  0
TEXT
  5
133
100
AcDbEntity
100
AcDbText
  8
00-NOPRINT_TEXT
 62
7
420
16777215
370
-1
 48
1.0
  6
BYLAYER
 10
1832.2603417547709
 20
325.7444744003692
 30
0.0
 40
17.0
  1
cut-outs in order to avoid any slippage and misalignment in the material.
 50
359.99999999883562
 41
1.0
  7
textstyle53
 71
0
 72
0
 11
0.0
 21
0.0
 31
0.0
100
AcDbText
 73
1
  0
TEXT
  5
134
100
AcDbEntity
100
AcDbText
  8
00-NOPRINT_TEXT
 62
7
420
16777215
370
-1
 48
1.0
  6
BYLAYER
 10
1831.64419907959
 20
269.07780773371491
 30
0.0
 40
17.0
  1
- Each OpenDesk part can be cut using single of multi-pass cutting. Slower speeds and multiple passes will tend to
 50
359.99999999883562
 41
1.0
  7
textstyle54
 71
0
 72
0
 11
0.0
 21
0.0
 31
0.0
100
AcDbText
 73
1
  0
TEXT
  5
135
100
AcDbEntity
100
AcDbText
  8
00-NOPRINT_TEXT
 62
7
420
16777215
370
-1
 48
1.0
  6
BYLAYER
 10
1831.6441990790131
 20
240.7444744003819
 30
0.0
 40
17.0
  1
produce higher quality cuts and reduce the need for sanding and finishing at the expense of cutting time. This is left to
 50
359.99999999883562
 41
1.0
  7
textstyle55
 71
0
 72
0
 11
0.0
 21
0.0
 31
0.0
100
AcDbText
 73
1
  0
TEXT
  5
136
100
AcDbEntity
100
AcDbText
  8
00-NOPRINT_TEXT
 62
7
420
16777215
370
-1
 48
1.0
  6
BYLAYER
 10
1831.644199078439
 20
212.41114106704839
 30
0.0
 40
17.0
  1
the discretion of the user based on their time and machine.
 50
359.99999999883562
 41
1.0
  7
textstyle56
 71
0
 72
0
 11
0.0
 21
0.0
 31
0.0
100
AcDbText
 73
1
  0
LWPOLYLINE
  5
137
  8
BOARD_$TH-NOMINAL
 62
256
370
-1
 48
1.0
  6
BYLAYER
100
AcDbEntity
100
AcDbPolyline
 90
4
 70
129
 10
212.974686901609
 20
3950.7483413974669
 30
0.0
 10
1432.9746869016089
 20
3950.7483413974669
 30
0.0
 10
1432.9746869016089
 20
1510.7483413974669
 30
0.0
 10
212.974686901609
 20
1510.748341397468
 30
0.0
  0
LWPOLYLINE
  5
138
  8
BOARD_$TH-NOMINAL
 62
256
370
-1
 48
1.0
  6
BYLAYER
100
AcDbEntity
100
AcDbPolyline
 90
4
 70
129
 10
1832.9746869016089
 20
3950.7483413974669
 30
0.0
 10
3052.9746869016089
 20
3950.7483413974669
 30
0.0
 10
3052.9746869016089
 20
1510.7483413974669
 30
0.0
 10
1832.9746869016069
 20
1510.748341397468
 30
0.0
  0
LWPOLYLINE
  5
139
  8
BOARD_$TH-NOMINAL
 62
256
370
-1
 48
1.0
  6
BYLAYER
100
AcDbEntity
100
AcDbPolyline
 90
4
 70
129
 10
3452.9746869016089
 20
3950.7483413974669
 30
0.0
 10
4672.9746869016071
 20
3950.7483413974669
 30
0.0
 10
4672.9746869016071
 20
1510.7483413974669
 30
0.0
 10
3452.9746869016071
 20
1510.748341397468
 30
0.0
  0
LWPOLYLINE
  5
13A
  8
00_NOPRINT_TOLERANCE
 62
256
370
-1
 48
1.0
  6
BYLAYER
100
AcDbEntity
100
AcDbPolyline
 90
4
 70
129
 10
232.97468690160889
 20
3930.7483413974669
 30
0.0
 10
1412.9746869016089
 20
3930.7483413974669
 30
0.0
 10
1412.9746869016089
 20
1530.748341397468
 30
0.0
 10
232.97468690160889
 20
1530.748341397468
 30
0.0
  0
LWPOLYLINE
  5
13B
  8
00_NOPRINT_TOLERANCE
 62
256
370
-1
 48
1.0
  6
BYLAYER
100
AcDbEntity
100
AcDbPolyline
 90
4
 70
129
 10
1852.9746869016089
 20
3930.7483413974669
 30
0.0
 10
3032.9746869016089
 20
3930.7483413974669
 30
0.0
 10
3032.9746869016071
 20
1530.748341397468
 30
0.0
 10
1852.9746869016069
 20
1530.748341397468
 30
0.0
  0
LWPOLYLINE
  5
13C
  8
00_NOPRINT_TOLERANCE
 62
256
370
-1
 48
1.0
  6
BYLAYER
100
AcDbEntity
100
AcDbPolyline
 90
4
 70
129
 10
3472.9746869016089
 20
3930.7483413974669
 30
0.0
 10
4652.9746869016071
 20
3930.7483413974669
 30
0.0
 10
4652.9746869016071
 20
1530.748341397468
 30
0.0
 10
3472.9746869016089
 20
1530.748341397468
 30
0.0
  0
TEXT
  5
13D
100
AcDbEntity
100
AcDbText
  8
00-NOPRINT_TEXT
 62
7
420
16777215
370
-1
 48
1.0
  6
BYLAYER
 10
210.42468690126231
 20
1147.411141067038
 30
0.0
 40
17.0
  1
OpenDesk products are designed to be CNC-milled from standard sheet materials such as plywood. This file as provided
 50
359.99999999883562
 41
1.0
  7
textstyle57
 71
0
 72
0
 11
0.0
 21
0.0
 31
0.0
100
AcDbText
 73
1
  0
TEXT
  5
13E
100
AcDbEntity
100
AcDbText
  8
00-NOPRINT_TEXT
 62
7
420
16777215
370
-1
 48
1.0
  6
BYLAYER
 10
210.42468690068739
 20
1119.077807733704
 30
0.0
 40
17.0
  1
is mastered for use with the recommended sheet material specification, sheet sizes and thicknesses, and bit sizes
 50
359.99999999883562
 41
1.0
  7
textstyle58
 71
0
 72
0
 11
0.0
 21
0.0
 31
0.0
100
AcDbText
 73
1
  0
TEXT
  5
13F
100
AcDbEntity
100
AcDbText
  8
00-NOPRINT_TEXT
 62
7
420
16777215
370
-1
 48
1.0
  6
BYLAYER
 10
210.4246869001108
 20
1090.744474400371
 30
0.0
 40
17.0
  1
provided, however the exact materials being used, tolerances, drill bits, and other local considerations are at the
 50
359.99999999883562
 41
1.0
  7
textstyle59
 71
0
 72
0
 11
0.0
 21
0.0
 31
0.0
100
AcDbText
 73
1
  0
TEXT
  5
140
100
AcDbEntity
100
AcDbText
  8
00-NOPRINT_TEXT
 62
7
420
16777215
370
-1
 48
1.0
  6
BYLAYER
 10
211.04082957356519
 20
1062.411141067025
 30
0.0
 40
17.0
  1
discretion of the end user (maker). If you are working with variations on these you may need to reposition and nest
 50
359.99999999883562
 41
1.0
  7
textstyle60
 71
0
 72
0
 11
0.0
 21
0.0
 31
0.0
100
AcDbText
 73
1
  0
TEXT
  5
141
100
AcDbEntity
100
AcDbText
  8
00-NOPRINT_TEXT
 62
7
420
16777215
370
-1
 48
1.0
  6
BYLAYER
 10
210.42468689895941
 20
1034.077807733705
 30
0.0
 40
17.0
  1
parts within your own sheet frames accordingly, and take account of any changes in tolerance particularly on joints,
 50
359.99999999883562
 41
1.0
  7
textstyle61
 71
0
 72
0
 11
0.0
 21
0.0
 31
0.0
100
AcDbText
 73
1
  0
TEXT
  5
142
100
AcDbEntity
100
AcDbText
  8
00-NOPRINT_TEXT
 62
7
420
16777215
370
-1
 48
1.0
  6
BYLAYER
 10
210.42468689838461
 20
1005.744474400371
 30
0.0
 40
17.0
  1
tabs, and slots prior to cutting.
 50
359.99999999883562
 41
1.0
  7
textstyle62
 71
0
 72
0
 11
0.0
 21
0.0
 31
0.0
100
AcDbText
 73
1
  0
TEXT
  5
143
100
AcDbEntity
100
AcDbText
  8
00-NOPRINT_TEXT
 62
7
420
16777215
370
-1
 48
1.0
  6
BYLAYER
 10
210.42468689723319
 20
949.07780773370484
 30
0.0
 40
17.0
  1
All OpenDesk drawings are drawn in 'Top' projection, and all vectors are arranged into suitably named layers describing
 50
359.99999999883562
 41
1.0
  7
textstyle63
 71
0
 72
0
 11
0.0
 21
0.0
 31
0.0
100
AcDbText
 73
1
  0
TEXT
  5
144
100
AcDbEntity
100
AcDbText
  8
00-NOPRINT_TEXT
 62
7
420
16777215
370
-1
 48
1.0
  6
BYLAYER
 10
210.4246868966566
 20
920.74447440037193
 30
0.0
 40
17.0
  1
the type and depth of cut required. All such cut depths are assumed to be measured from the top (maximum z-index)
 50
359.99999999883562
 41
1.0
  7
textstyle64
 71
0
 72
0
 11
0.0
 21
0.0
 31
0.0
100
AcDbText
 73
1
  0
TEXT
  5
145
100
AcDbEntity
100
AcDbText
  8
00-NOPRINT_TEXT
 62
7
420
16777215
370
-1
 48
1.0
  6
BYLAYER
 10
210.9698246913558
 20
892.41114106702707
 30
0.0
 40
17.0
  1
surface of the material. For example the layer 'POCKET_14MM_INSIDE' describes a pocketting inside-line cut of depth
 50
359.99999999883562
 41
1.0
  7
textstyle65
 71
0
 72
0
 11
0.0
 21
0.0
 31
0.0
100
AcDbText
 73
1
  0
TEXT
  5
146
100
AcDbEntity
100
AcDbText
  8
00-NOPRINT_TEXT
 62
7
420
16777215
370
-1
 48
1.0
  6
BYLAYER
 10
210.42468689550509
 20
864.07780773370439
 30
0.0
 40
17.0
  1
14mm from the top surface of the material.*
 50
359.99999999883562
 41
1.0
  7
textstyle66
 71
0
 72
0
 11
0.0
 21
0.0
 31
0.0
100
AcDbText
 73
1
  0
TEXT
  5
147
100
AcDbEntity
100
AcDbText
  8
00-NOPRINT_TEXT
 62
7
420
16777215
370
-1
 48
1.0
  6
BYLAYER
 10
210.4246868943537
 20
807.41114106703787
 30
0.0
 40
17.0
  1
All OpenDesk drawings are provided in dxf format. After importing into your CNC-machine's CAM software you will need
 50
359.99999999883562
 41
1.0
  7
textstyle67
 71
0
 72
0
 11
0.0
 21
0.0
 31
0.0
100
AcDbText
 73
1
  0
TEXT
  5
148
100
AcDbEntity
100
AcDbText
  8
00-NOPRINT_TEXT
 62
7
420
16777215
370
-1
 48
1.0
  6
BYLAYER
 10
210.42468689377711
 20
779.0778077337045
 30
0.0
 40
17.0
  1
to ensure that all vectors are visible and all polylines are closed where necessary. A pdf version of the drawing is
 50
359.99999999883562
 41
1.0
  7
textstyle68
 71
0
 72
0
 11
0.0
 21
0.0
 31
0.0
100
AcDbText
 73
1
  0
TEXT
  5
149
100
AcDbEntity
100
AcDbText
  8
00-NOPRINT_TEXT
 62
7
420
16777215
370
-1
 48
1.0
  6
BYLAYER
 10
210.42468689320231
 20
750.74447440037102
 30
0.0
 40
17.0
  1
provided with each download for reference.
 50
359.99999999883562
 41
1.0
  7
textstyle69
 71
0
 72
0
 11
0.0
 21
0.0
 31
0.0
100
AcDbText
 73
1
  0
TEXT
  5
14A
100
AcDbEntity
100
AcDbText
  8
00-NOPRINT_TEXT
 62
7
420
16777215
370
-1
 48
1.0
  6
BYLAYER
 10
210.42468689205089
 20
694.0778077337045
 30
0.0
 40
17.0
  1
Layers with names beginning '00_NOPRINT' should not be milled. For convenience you can turn these layers off or
 50
359.99999999883562
 41
1.0
  7
textstyle70
 71
0
 72
0
 11
0.0
 21
0.0
 31
0.0
100
AcDbText
 73
1
  0
TEXT
  5
14B
100
AcDbEntity
100
AcDbText
  8
00-NOPRINT_TEXT
 62
7
420
16777215
370
-1
 48
1.0
  6
BYLAYER
 10
211.04082956550519
 20
665.74447440035829
 30
0.0
 40
17.0
  1
delete their elements before setting up your CAM software.
 50
359.99999999883562
 41
1.0
  7
textstyle71
 71
0
 72
0
 11
0.0
 21
0.0
 31
0.0
100
AcDbText
 73
1
  0
TEXT
  5
14C
100
AcDbEntity
100
AcDbText
  8
00-NOPRINT_TEXT
 62
7
420
16777215
370
-1
 48
1.0
  6
BYLAYER
 10
210.42468689032279
 20
609.07780773370405
 30
0.0
 40
17.0
  1
Most OpenDesk products require some combination of 'inside cuts', and 'outside cuts', and in some instances 'on-line
 50
359.99999999883562
 41
1.0
  7
textstyle72
 71
0
 72
0
 11
0.0
 21
0.0
 31
0.0
100
AcDbText
 73
1
  0
TEXT
  5
14D
100
AcDbEntity
100
AcDbText
  8
00-NOPRINT_TEXT
 62
7
420
16777215
370
-1
 48
1.0
  6
BYLAYER
 10
211.04082956377721
 20
580.74447440035817
 30
0.0
 40
17.0
  1
cuts', 'pocketing', or 'chamfering'. Some OpenDesk products require double-side cutting (ie cutting to both front and
 50
359.99999999883562
 41
1.0
  7
textstyle73
 71
0
 72
0
 11
0.0
 21
0.0
 31
0.0
100
AcDbText
 73
1
  0
TEXT
  5
14E
100
AcDbEntity
100
AcDbText
  8
00-NOPRINT_TEXT
 62
7
420
16777215
370
-1
 48
1.0
  6
BYLAYER
 10
210.4246868891714
 20
552.41114106703753
 30
0.0
 40
17.0
  1
reverse faces of a single sheet). As a result each sheet is drawn in 'Front Face', 'Reverse Face', and 'Both Faces'
 50
359.99999999883562
 41
1.0
  7
textstyle74
 71
0
 72
0
 11
0.0
 21
0.0
 31
0.0
100
AcDbText
 73
1
  0
TEXT
  5
14F
100
AcDbEntity
100
AcDbText
  8
00-NOPRINT_TEXT
 62
7
420
16777215
370
-1
 48
1.0
  6
BYLAYER
 10
210.77676841661199
 20
524.07780773369666
 30
0.0
 40
17.0
  1
layouts, with corresponding layers and vectors in each for you to choose your preferred setup according to your
 50
359.99999999883562
 41
1.0
  7
textstyle75
 71
0
 72
0
 11
0.0
 21
0.0
 31
0.0
100
AcDbText
 73
1
  0
TEXT
  5
150
100
AcDbEntity
100
AcDbText
  8
00-NOPRINT_TEXT
 62
7
420
16777215
370
-1
 48
1.0
  6
BYLAYER
 10
211.21687032605769
 20
495.74447440035459
 30
0.0
 40
17.0
  1
CNC-software and machine.
 50
359.99999999883562
 41
1.0
  7
textstyle76
 71
0
 72
0
 11
0.0
 21
0.0
 31
0.0
100
AcDbText
 73
1
  0
TEXT
  5
151
100
AcDbEntity
100
AcDbText
  8
00-NOPRINT_TEXT
 62
7
420
16777215
370
-1
 48
1.0
  6
BYLAYER
 10
210.42468688686861
 20
439.07780773370399
 30
0.0
 40
17.0
  1
A minimum of 15mm tolerance is left between parts on OpenDesk sheets when nested. This should be sufficient for most
 50
359.99999999883562
 41
1.0
  7
textstyle77
 71
0
 72
0
 11
0.0
 21
0.0
 31
0.0
100
AcDbText
 73
1
  0
TEXT
  5
152
100
AcDbEntity
100
AcDbText
  8
00-NOPRINT_TEXT
 62
7
420
16777215
370
-1
 48
1.0
  6
BYLAYER
 10
210.42468688629199
 20
410.74447440037102
 30
0.0
 40
17.0
  1
bit diameters.
 50
359.99999999883562
 41
1.0
  7
textstyle78
 71
0
 72
0
 11
0.0
 21
0.0
 31
0.0
100
AcDbText
 73
1
  0
TEXT
  5
153
100
AcDbEntity
100
AcDbText
  8
00-NOPRINT_TEXT
 62
7
420
16777215
370
-1
 48
1.0
  6
BYLAYER
 10
227.4246868851406
 20
354.07780773335838
 30
0.0
 40
17.0
  1
*      Such a pocketed may be accompanied by a corresponding second line in, for example, 'POCKET_14MM_OUTSIDE',
 50
359.99999999883562
 41
1.0
  7
textstyle79
 71
0
 72
0
 11
0.0
 21
0.0
 31
0.0
100
AcDbText
 73
1
  0
TEXT
  5
154
100
AcDbEntity
100
AcDbText
  8
00-NOPRINT_TEXT
 62
7
420
16777215
370
-1
 48
1.0
  6
BYLAYER
 10
279.04082955859479
 20
325.74447439897682
 30
0.0
 40
17.0
  1
describing the limits of the associated pocket.
 50
359.99999999883562
 41
1.0
  7
textstyle80
 71
0
 72
0
 11
0.0
 21
0.0
 31
0.0
100
AcDbText
 73
1
  0
LWPOLYLINE
  5
155
  8
00-NOPRINT_TEXT
 62
256
370
-1
 48
1.0
  6
BYLAYER
100
AcDbEntity
100
AcDbPolyline
 90
4
 70
1
 10
4942.3079631705341
 20
3890.707800204842
 30
0.0
 10
4942.3079631705341
 20
3862.8937243877208
 30
0.0
 42
-1.0
 10
4905.9117118690392
 20
3862.8937243877208
 30
0.0
 10
4905.9117118690392
 20
3890.707800204842
 30
0.0
 42
-1.0
  0
LWPOLYLINE
  5
156
  8
00-NOPRINT_TEXT
 62
256
370
-1
 48
1.0
  6
BYLAYER
100
AcDbEntity
100
AcDbPolyline
 90
4
 70
1
 10
4897.9746869013088
 20
3890.707800204842
 30
0.0
 10
4897.9746869013088
 20
3862.8937243877208
 30
0.0
 42
1.0
 10
4950.2449881382618
 20
3862.8937243877208
 30
0.0
 10
4950.2449881382618
 20
3890.707800204842
 30
0.0
 42
1.0
  0
LWPOLYLINE
  5
157
  8
00-NOPRINT_TEXT
 62
256
370
-1
 48
1.0
  6
BYLAYER
100
AcDbEntity
100
AcDbPolyline
 90
4
 70
1
 10
4984.2798143338596
 20
3890.707800204842
 30
0.0
 42
-1.0
 10
5020.6760656353599
 20
3890.707800204842
 30
0.0
 10
5020.6760656353599
 20
3862.8937243877208
 30
0.0
 42
-1.0
 10
4984.2798143338596
 20
3862.8937243877208
 30
0.0
  0
LWPOLYLINE
  5
158
  8
00-NOPRINT_TEXT
 62
256
370
-1
 48
1.0
  6
BYLAYER
100
AcDbEntity
100
AcDbPolyline
 90
8
 70
1
 10
5028.6130906030839
 20
3890.707800204842
 30
0.0
 42
0.6627114835317702
 10
4984.2798143338596
 20
3909.4661135791848
 30
0.0
 10
4984.2798143338596
 20
3912.8744383394528
 30
0.0
 42
1.0
 10
4976.3427893661337
 20
3912.8744383394528
 30
0.0
 10
4976.3427893661337
 20
3806.8216956729611
 30
0.0
 42
1.0
 10
4984.2798143338596
 20
3806.8216956729611
 30
0.0
 10
4984.2798143338596
 20
3844.1354110133771
 30
0.0
 42
0.66271148353177
 10
5028.6130906030839
 20
3862.8937243877208
 30
0.0
  0
LWPOLYLINE
  5
159
  8
00-NOPRINT_TEXT
 62
256
370
-1
 48
1.0
  6
BYLAYER
100
AcDbEntity
100
AcDbPolyline
 90
4
 70
1
 10
5097.3333833646384
 20
3880.8220883054842
 30
0.0
 10
5060.9371320631408
 20
3880.8220883054842
 30
0.0
 10
5060.9371320631408
 20
3890.707800204842
 30
0.0
 42
-1.0
 10
5097.3333833646384
 20
3890.707800204842
 30
0.0
  0
LWPOLYLINE
  5
15A
  8
00-NOPRINT_TEXT
 62
256
370
-1
 48
1.0
  6
BYLAYER
100
AcDbEntity
100
AcDbPolyline
 90
9
 70
1
 10
5105.2704083323661
 20
3890.707800204842
 30
0.0
 42
1.0
 10
5053.0001070954149
 20
3890.707800204842
 30
0.0
 10
5053.0001070954149
 20
3862.8937243877208
 30
0.0
 42
0.8392911393501922
 10
5103.698281236786
 20
3853.9660162123728
 30
0.0
 42
1.0
 10
5096.2386980176143
 20
3856.6772859397511
 30
0.0
 42
-0.8392911393501705
 10
5060.9371320631408
 20
3862.8937243877208
 30
0.0
 10
5060.9371320631408
 20
3872.885063337756
 30
0.0
 10
5101.3018958485054
 20
3872.885063337756
 30
0.0
 42
0.4142135623730951
 10
5105.2704083323661
 20
3876.8535758216181
 30
0.0
  0
LWPOLYLINE
  5
15B
  8
00-NOPRINT_TEXT
 62
256
370
-1
 48
1.0
  6
BYLAYER
100
AcDbEntity
100
AcDbPolyline
 90
10
 70
1
 10
5181.829487161569
 20
3890.707800204842
 30
0.0
 42
0.6627114835317652
 10
5137.4962108923482
 20
3909.4661135791848
 30
0.0
 10
5137.4962108923482
 20
3912.8744383394528
 30
0.0
 42
1.0
 10
5129.5591859246179
 20
3912.8744383394528
 30
0.0
 10
5129.5591859246206
 20
3840.7270862531091
 30
0.0
 42
1.0
 10
5137.4962108923482
 20
3840.7270862531091
 30
0.0
 10
5137.4962108923482
 20
3890.707800204842
 30
0.0
 42
-1.0
 10
5173.892462193844
 20
3890.707800204842
 30
0.0
 10
5173.892462193844
 20
3840.7270862531091
 30
0.0
 42
1.0
 10
5181.829487161569
 20
3840.7270862531091
 30
0.0
  0
LWPOLYLINE
  5
15C
  8
00-NOPRINT_TEXT
 62
256
370
-1
 48
1.0
  6
BYLAYER
100
AcDbEntity
100
AcDbPolyline
 90
4
 70
1
 10
5250.3325484145498
 20
3862.8937243877208
 30
0.0
 42
-1.0
 10
5213.9362971130558
 20
3862.8937243877208
 30
0.0
 10
5213.9362971130558
 20
3890.707800204842
 30
0.0
 42
-1.0
 10
5250.3325484145498
 20
3890.707800204842
 30
0.0
  0
LWPOLYLINE
  5
15D
  8
00-NOPRINT_TEXT
 62
256
370
-1
 48
1.0
  6
BYLAYER
100
AcDbEntity
100
AcDbPolyline
 90
8
 70
1
 10
5205.9992721453291
 20
3862.8937243877208
 30
0.0
 42
0.6627114835317702
 10
5250.3325484145498
 20
3844.1354110133789
 30
0.0
 10
5250.3325484145498
 20
3840.7270862531091
 30
0.0
 42
1.0
 10
5258.2695733822802
 20
3840.7270862531091
 30
0.0
 10
5258.2695733822802
 20
3946.7798289196012
 30
0.0
 42
1.0
 10
5250.3325484145498
 20
3946.7798289196012
 30
0.0
 10
5250.3325484145498
 20
3909.4661135791848
 30
0.0
 42
0.66271148353177
 10
5205.9992721453291
 20
3890.707800204842
 30
0.0
  0
LWPOLYLINE
  5
15E
  8
00-NOPRINT_TEXT
 62
256
370
-1
 48
1.0
  6
BYLAYER
100
AcDbEntity
100
AcDbPolyline
 90
4
 70
1
 10
5331.9538282310814
 20
3880.8220883054819
 30
0.0
 10
5295.5575769295847
 20
3880.8220883054819
 30
0.0
 10
5295.5575769295847
 20
3890.707800204842
 30
0.0
 42
-1.0
 10
5331.9538282310814
 20
3890.707800204842
 30
0.0
  0
LWPOLYLINE
  5
15F
  8
00-NOPRINT_TEXT
 62
256
370
-1
 48
1.0
  6
BYLAYER
100
AcDbEntity
100
AcDbPolyline
 90
9
 70
1
 10
5339.8908531988091
 20
3890.707800204842
 30
0.0
 42
1.0
 10
5287.6205519618543
 20
3890.707800204842
 30
0.0
 10
5287.6205519618543
 20
3862.8937243877208
 30
0.0
 42
0.8392911393501922
 10
5338.3187261032226
 20
3853.9660162123728
 30
0.0
 42
1.0
 10
5330.8591428840546
 20
3856.6772859397511
 30
0.0
 42
-0.8392911393501705
 10
5295.5575769295847
 20
3862.8937243877208
 30
0.0
 10
5295.5575769295847
 20
3872.885063337756
 30
0.0
 10
5335.922340714942
 20
3872.885063337756
 30
0.0
 42
0.4142135623730951
 10
5339.8908531988091
 20
3876.8535758216181
 30
0.0
  0
LWPOLYLINE
  5
160
  8
00-NOPRINT_TEXT
 62
256
370
-1
 48
1.0
  6
BYLAYER
100
AcDbEntity
100
AcDbPolyline
 90
42
 70
1
 10
5403.1032081623798
 20
3913.0377212647049
 30
0.0
 42
0.0457067288387406
 10
5398.6034855808948
 20
3915.0158169256952
 30
0.0
 42
0.0401941578067522
 10
5393.8225868012769
 20
3916.198357242301
 30
0.0
 42
0.0405559563879494
 10
5386.5170282088238
 20
3916.7919013263941
 30
0.0
 42
0.0949732897878055
 10
5374.63280773306
 20
3914.513987684129
 30
0.0
 42
0.0708722825397191
 10
5368.7663583857548
 20
3911.1530177211439
 30
0.0
 42
0.0483457727037197
 10
5366.1060125484773
 20
3908.6326314584971
 30
0.0
 42
0.0448797265187802
 10
5364.1118958192519
 20
3905.8750711993289
 30
0.0
 42
0.0722728677010993
 10
5362.350212577423
 20
3901.3375439861229
 30
0.0
 42
0.3093075497333693
 10
5369.9043151324622
 20
3882.1316920181271
 30
0.0
 42
0.0534583832098243
 10
5374.9583923952941
 20
3879.4411273991218
 30
0.0
 42
0.0412448156230092
 10
5382.0258108039397
 20
3877.255402306449
 30
0.0
 42
-0.0058632209555069
 10
5390.3969877364761
 20
3875.302224634584
 30
0.0
 42
-0.0307734774359857
 10
5397.6612765805348
 20
3873.035403748519
 30
0.0
 42
-0.1326074700036995
 10
5403.8257735657417
 20
3868.5626561644308
 30
0.0
 42
-0.0934082332813141
 10
5405.4015792120708
 20
3865.630708567538
 30
0.0
 42
-0.1484702512325273
 10
5405.5253535000211
 20
3855.4035306244768
 30
0.0
 42
-0.2016386478785572
 10
5399.4512797183779
 20
3847.9018784258069
 30
0.0
 42
-0.2228311772947458
 10
5376.1860439340244
 20
3846.6506308621679
 30
0.0
 42
-0.1906174759338407
 10
5366.251208939022
 20
3856.1213093652782
 30
0.0
 42
1.0
 10
5359.0453411960389
 20
3852.7938726027041
 30
0.0
 42
0.1906174759338448
 10
5373.2069265474101
 20
3839.293917945713
 30
0.0
 42
0.2228311772947499
 10
5403.2022457703233
 20
3840.9071218885492
 30
0.0
 42
0.2016386478785569
 10
5413.1473572842824
 20
3853.189614715724
 30
0.0
 42
0.1484702512325262
 10
5412.9677706015391
 20
3868.0284394107071
 30
0.0
 42
0.0934082332813456
 10
5410.0001771413308
 20
3873.5499506037122
 30
0.0
 42
0.1326074700036619
 10
5400.4869937659214
 20
3880.4523901801199
 30
0.0
 42
0.0307734774359815
 10
5392.2909414861751
 20
3883.0099677888652
 30
0.0
 42
0.0058632209555075
 10
5383.7384935536784
 20
3885.0054399281071
 30
0.0
 42
-0.0412448156229785
 10
5377.9199349669343
 20
3886.804932864688
 30
0.0
 42
-0.0534583832108002
 10
5374.3597277690924
 20
3888.7002278957589
 30
0.0
 42
-0.3052584999940819
 10
5370.052327198011
 20
3899.4093743297449
 30
0.0
 42
-0.0741895556533406
 10
5370.9796874445492
 20
3901.8947175688081
 30
0.0
 42
-0.042878157842419
 10
5372.095090156673
 20
3903.424242576958
 30
0.0
 42
-0.0483457727037104
 10
5373.6437915991864
 20
3904.8914675467199
 30
0.0
 42
-0.0708722825397227
 10
5377.5676492667608
 20
3907.1394998707001
 30
0.0
 42
-0.0949732897878214
 10
5386.5170282088238
 20
3908.8548763586659
 30
0.0
 42
-0.0405559563879528
 10
5392.5413482232861
 20
3908.36542720019
 30
0.0
 42
-0.0401941578067489
 10
5396.0854882875274
 20
3907.4887952724171
 30
0.0
 42
-0.0457067288387209
 10
5399.2595710980549
 20
3906.0934560439559
 30
0.0
 42
-0.0622018130379019
 10
5403.0661592882261
 20
3903.319366453361
 30
0.0
 42
1.0
 10
5408.4995988239261
 20
3909.1050470658938
 30
0.0
 42
0.0622018130379014
  0
LWPOLYLINE
  5
161
  8
00-NOPRINT_TEXT
 62
256
370
-1
 48
1.0
  6
BYLAYER
100
AcDbEntity
100
AcDbPolyline
 90
12
 70
1
 10
5462.1019807223693
 20
3878.7855515278839
 30
0.0
 10
5485.0679576821612
 20
3838.7523313187321
 30
0.0
 42
1.0
 10
5491.952559132862
 20
3842.7018411874869
 30
0.0
 10
5467.7887528129777
 20
3884.823061686353
 30
0.0
 10
5490.8749586360882
 20
3909.3331352319092
 30
0.0
 42
1.0
 10
5485.0973235667552
 20
3914.7751291995601
 30
0.0
 10
5447.3443800878094
 20
3874.6937304491448
 30
0.0
 10
5447.3443800878094
 20
3946.7798289196012
 30
0.0
 42
1.0
 10
5439.40735512008
 20
3946.7798289196012
 30
0.0
 10
5439.40735512008
 20
3840.7270862531091
 30
0.0
 42
1.0
 10
5447.3443800878094
 20
3840.7270862531091
 30
0.0
 10
5447.3443800878094
 20
3863.1177592678391
 30
0.0
  0
CIRCLE
  5
162
100
AcDbEntity
100
AcDbCircle
  8
00-NOPRINT_TEXT
 62
256
370
-1
 48
1.0
  6
BYLAYER
 10
5585.8699060099816
 20
3893.7534575863551
 30
0.0
 40
56.994883817109987
  0
LWPOLYLINE
  5
163
  8
00-NOPRINT_TEXT
 62
256
370
-1
 48
1.0
  6
BYLAYER
100
AcDbEntity
100
AcDbPolyline
 90
3
 70
1
 10
5556.643805867373
 20
3902.3313798512559
 30
0.0
 10
5556.643805867373
 20
3880.1976530609249
 30
0.0
 10
5571.738377063637
 20
3896.2546605145981
 30
0.0
  0
LWPOLYLINE
  5
164
  8
00-NOPRINT_TEXT
 62
256
370
-1
 48
1.0
  6
BYLAYER
100
AcDbEntity
100
AcDbPolyline
 90
4
 70
1
 10
5598.2045431160723
 20
3863.4662777604171
 30
0.0
 10
5614.516948401234
 20
3880.8187689206902
 30
0.0
 10
5614.516948401234
 20
3905.188934818153
 30
0.0
 10
5598.2045431160723
 20
3887.8364436578809
 30
0.0
  0
LWPOLYLINE
  5
165
  8
00-NOPRINT_TEXT
 62
256
370
-1
 48
1.0
  6
BYLAYER
100
AcDbEntity
100
AcDbPolyline
 90
4
 70
1
 10
5595.6047308826201
 20
3891.0933468551889
 30
0.0
 10
5613.0096004414218
 20
3909.6079582742418
 30
0.0
 10
5575.5560233859878
 20
3924.6858874820659
 30
0.0
 10
5558.1511538271816
 20
3906.171276063018
 30
0.0
  0
LWPOLYLINE
  5
166
  8
00-NOPRINT_TEXT
 62
256
370
-1
 48
1.0
  6
BYLAYER
100
AcDbEntity
100
AcDbPolyline
 90
14
 70
1
 10
5618.0821970012294
 20
3878.5888587218569
 30
0.0
 42
0.1908976533707676
 10
5618.6419484012349
 20
3880.0015345145362
 30
0.0
 10
5618.6419484012349
 20
3910.3941809727162
 30
0.0
 42
0.3060715845518373
 10
5617.3496893745987
 20
3912.30745959669
 30
0.0
 10
5575.788952125904
 20
3929.0388348971969
 30
0.0
 42
0.3090648432082206
 10
5573.5159625525466
 20
3928.5382320659019
 30
0.0
 10
5553.0785572673794
 20
3906.7977291572211
 30
0.0
 42
0.1908976533707673
 10
5552.5188058673721
 20
3905.3850533645418
 30
0.0
 10
5552.5188058673721
 20
3874.9924069063632
 30
0.0
 42
0.6794054420538283
 10
5556.0840544673683
 20
3873.5797311136839
 30
0.0
 10
5575.845537256896
 20
3894.601214421918
 30
0.0
 10
5594.0795431160705
 20
3887.260632530028
 30
0.0
 10
5594.0795431160705
 20
3858.261031605854
 30
0.0
 42
0.6794054420538283
 10
5597.644791716064
 20
3856.8483558131752
 30
0.0
  0
CIRCLE
  5
167
100
AcDbEntity
100
AcDbCircle
  8
00-NOPRINT_TEXT
 62
256
370
-1
 48
1.0
  6
BYLAYER
 10
5585.8699060099816
 20
3893.7534575863551
 30
0.0
 40
52.869883817109567
  0
TEXT
  5
168
100
AcDbEntity
100
AcDbText
  8
00-NOPRINT_TEXT
 62
256
370
-1
 48
1.0
  6
BYLAYER
 10
4897.9746869005276
 20
3465.1189131707551
 30
0.0
 40
20.0
  1
DESIGNERS:
 50
0.0
 41
1.0
  7
textstyle81
 71
0
 72
0
 11
0.0
 21
0.0
 31
0.0
100
AcDbText
 73
1
  0
TEXT
  5
169
100
AcDbEntity
100
AcDbText
  8
00-NOPRINT_TEXT
 62
256
370
-1
 48
1.0
  6
BYLAYER
 10
4897.9746869005276
 20
3430.1189131707551
 30
0.0
 40
13.0
  1
$DESIGNER-LIST
 50
0.0
 41
1.0
  7
textstyle82
 71
0
 72
0
 11
0.0
 21
0.0
 31
0.0
100
AcDbText
 73
1
  0
TEXT
  5
16A
100
AcDbEntity
100
AcDbText
  8
00-NOPRINT_TEXT
 62
256
370
-1
 48
1.0
  6
BYLAYER
 10
4897.9746869005276
 20
3345.1096747632841
 30
0.0
 40
20.0
  1
DESIGNED FOR CNC-MILLING:
 50
0.0
 41
1.0
  7
textstyle83
 71
0
 72
0
 11
0.0
 21
0.0
 31
0.0
100
AcDbText
 73
1
  0
TEXT
  5
16B
100
AcDbEntity
100
AcDbText
  8
00-NOPRINT_TEXT
 62
256
370
-1
 48
1.0
  6
BYLAYER
 10
4897.9746869005276
 20
3310.1096747632841
 30
0.0
 40
13.0
  1
Recommended drill bit (unless otherwise noted):
 50
0.0
 41
1.0
  7
textstyle84
 71
0
 72
0
 11
0.0
 21
0.0
 31
0.0
100
AcDbText
 73
1
  0
TEXT
  5
16C
100
AcDbEntity
100
AcDbText
  8
00-NOPRINT_TEXT
 62
256
370
-1
 48
1.0
  6
BYLAYER
 10
4897.9746869005276
 20
3280.1096747632841
 30
0.0
 40
13.0
  1
Recommended sheet size (unless otherwise noted):
 50
0.0
 41
1.0
  7
textstyle85
 71
0
 72
0
 11
0.0
 21
0.0
 31
0.0
100
AcDbText
 73
1
  0
TEXT
  5
16D
100
AcDbEntity
100
AcDbText
  8
00-NOPRINT_TEXT
 62
256
370
-1
 48
1.0
  6
BYLAYER
 10
4897.9746869005276
 20
3250.1096747632841
 30
0.0
 40
13.0
  1
Recommended sheet thickness (unless otherwise noted):
 50
0.0
 41
1.0
  7
textstyle86
 71
0
 72
0
 11
0.0
 21
0.0
 31
0.0
100
AcDbText
 73
1
  0
TEXT
  5
16E
100
AcDbEntity
100
AcDbText
  8
00-NOPRINT_TEXT
 62
256
370
-1
 48
1.0
  6
BYLAYER
 10
4897.9746869005276
 20
3165.1004363558159
 30
0.0
 40
20.0
  1
PUBLISHED UNDER CREATIVE COMMONS:
 50
0.0
 41
1.0
  7
textstyle87
 71
0
 72
0
 11
0.0
 21
0.0
 31
0.0
100
AcDbText
 73
1
  0
TEXT
  5
16F
100
AcDbEntity
100
AcDbText
  8
00-NOPRINT_TEXT
 62
256
370
-1
 48
1.0
  6
BYLAYER
 10
4897.9746869005276
 20
3130.1004363558181
 30
0.0
 40
13.0
  1
For full license terms visit: www.opendesk.cc/license
 50
0.0
 41
1.0
  7
textstyle88
 71
0
 72
0
 11
0.0
 21
0.0
 31
0.0
100
AcDbText
 73
1
  0
TEXT
  5
170
100
AcDbEntity
100
AcDbText
  8
00-NOPRINT_TEXT
 62
256
370
-1
 48
1.0
  6
BYLAYER
 10
4897.9746869005276
 20
3045.091197948349
 30
0.0
 40
20.0
  1
TERMS AND CONDITIONS APPLY:
 50
0.0
 41
1.0
  7
textstyle89
 71
0
 72
0
 11
0.0
 21
0.0
 31
0.0
100
AcDbText
 73
1
  0
TEXT
  5
171
100
AcDbEntity
100
AcDbText
  8
00-NOPRINT_TEXT
 62
256
370
-1
 48
1.0
  6
BYLAYER
 10
4897.9746869005276
 20
3010.0911979483481
 30
0.0
 40
13.0
  1
Saving this file serves as acceptance of the Opendesk terms of use 
 50
0.0
 41
1.0
  7
textstyle90
 71
0
 72
0
 11
0.0
 21
0.0
 31
0.0
100
AcDbText
 73
1
  0
TEXT
  5
172
100
AcDbEntity
100
AcDbText
  8
00-NOPRINT_TEXT
 62
256
370
-1
 48
1.0
  6
BYLAYER
 10
4897.9746869005276
 20
3550.128151578223
 30
0.0
 40
20.0
  1
License:
 50
0.0
 41
1.0
  7
textstyle91
 71
0
 72
0
 11
0.0
 21
0.0
 31
0.0
100
AcDbText
 73
1
  0
TEXT
  5
173
100
AcDbEntity
100
AcDbText
  8
00-NOPRINT_TEXT
 62
256
370
-1
 48
1.0
  6
BYLAYER
 10
4897.9746869005276
 20
3600.406964242547
 30
0.0
 40
20.0
  1
Version:
 50
0.0
 41
1.0
  7
textstyle92
 71
0
 72
0
 11
0.0
 21
0.0
 31
0.0
100
AcDbText
 73
1
  0
TEXT
  5
174
100
AcDbEntity
100
AcDbText
  8
00-NOPRINT_TEXT
 62
256
370
-1
 48
1.0
  6
BYLAYER
 10
5217.8003105619773
 20
3600.406964242547
 30
0.0
 40
20.0
  1
Published:
 50
0.0
 41
1.0
  7
textstyle93
 71
0
 72
0
 11
0.0
 21
0.0
 31
0.0
100
AcDbText
 73
1
  0
TEXT
  5
175
100
AcDbEntity
100
AcDbText
  8
00-NOPRINT_TEXT
 62
256
370
-1
 48
1.0
  6
BYLAYER
 10
4897.9746869005276
 20
3713.6857769068688
 30
0.0
 40
30.0
  1
DESIGN:
 50
0.0
 41
1.0
  7
textstyle94
 71
0
 72
0
 11
0.0
 21
0.0
 31
0.0
100
AcDbText
 73
1
  0
TEXT
  5
176
100
AcDbEntity
100
AcDbText
  8
00-NOPRINT_TEXT
 62
256
370
-1
 48
1.0
  6
BYLAYER
 10
4917.9746869005276
 20
2925.0819595408789
 30
0.0
 40
20.0
  1
Sheet:
 50
0.0
 41
1.0
  7
textstyle95
 71
0
 72
0
 11
0.0
 21
0.0
 31
0.0
100
AcDbText
 73
1
  0
TEXT
  5
177
100
AcDbEntity
100
AcDbText
  8
00-NOPRINT_TEXT
 62
256
370
-1
 48
1.0
  6
BYLAYER
 10
5237.8003105619773
 20
2925.0819595408789
 30
0.0
 40
20.0
  1
Date:
 50
0.0
 41
1.0
  7
textstyle96
 71
0
 72
0
 11
0.0
 21
0.0
 31
0.0
100
AcDbText
 73
1
  0
LINE
  5
178
100
AcDbEntity
100
AcDbLine
  8
00-NOPRINT_TEXT
 62
7
420
16777215
370
-1
 48
1.0
  6
BYLAYER
 10
4897.974686898734
 20
2965.760299250127
 30
0.0
 11
4897.9746868961283
 21
2904.0207388598619
 31
0.0
  0
LINE
  5
179
100
AcDbEntity
100
AcDbLine
  8
00-NOPRINT_TEXT
 62
7
420
16777215
370
-1
 48
1.0
  6
BYLAYER
 10
5217.8003105619773
 20
2904.025520549169
 30
0.0
 11
5217.8003105619773
 21
2965.7602992488219
 31
0.0
  0
TEXT
  5
17A
100
AcDbEntity
100
AcDbText
  8
00-NOPRINT_TEXT
 62
256
370
-1
 48
1.0
  6
BYLAYER
 10
5090.7646969507714
 20
3713.6857769068688
 30
0.0
 40
30.0
  1
$DESIGN
 50
0.0
 41
1.0
  7
textstyle97
 71
0
 72
0
 11
0.0
 21
0.0
 31
0.0
100
AcDbText
 73
1
  0
TEXT
  5
17B
100
AcDbEntity
100
AcDbText
  8
00-NOPRINT_TEXT
 62
256
370
-1
 48
1.0
  6
BYLAYER
 10
5027.1263484644423
 20
3550.128151578223
 30
0.0
 40
20.0
  1
$LIC
 50
0.0
 41
1.0
  7
textstyle98
 71
0
 72
0
 11
0.0
 21
0.0
 31
0.0
100
AcDbText
 73
1
  0
TEXT
  5
17C
100
AcDbEntity
100
AcDbText
  8
00-NOPRINT_TEXT
 62
256
370
-1
 48
1.0
  6
BYLAYER
 10
5027.1263484644423
 20
3600.406964242547
 30
0.0
 40
20.0
  1
$VER
 50
0.0
 41
1.0
  7
textstyle99
 71
0
 72
0
 11
0.0
 21
0.0
 31
0.0
100
AcDbText
 73
1
  0
TEXT
  5
17D
100
AcDbEntity
100
AcDbText
  8
00-NOPRINT_TEXT
 62
256
370
-1
 48
1.0
  6
BYLAYER
 10
5377.0970054113704
 20
3600.406964242547
 30
0.0
 40
20.0
  1
$PUB-DATE
 50
0.0
 41
1.0
  7
textstyle100
 71
0
 72
0
 11
0.0
 21
0.0
 31
0.0
100
AcDbText
 73
1
  0
TEXT
  5
17E
100
AcDbEntity
100
AcDbText
  8
00-NOPRINT_TEXT
 62
256
370
-1
 48
1.0
  6
BYLAYER
 10
5023.5588194830243
 20
2925.0819595408789
 30
0.0
 40
20.0
  1
$SHEET-NO
 50
0.0
 41
1.0
  7
textstyle101
 71
0
 72
0
 11
0.0
 21
0.0
 31
0.0
100
AcDbText
 73
1
  0
TEXT
  5
17F
100
AcDbEntity
100
AcDbText
  8
00-NOPRINT_TEXT
 62
256
370
-1
 48
1.0
  6
BYLAYER
 10
5327.3868394465362
 20
2925.0819595408789
 30
0.0
 40
20.0
  1
$DATE
 50
0.0
 41
1.0
  7
textstyle102
 71
0
 72
0
 11
0.0
 21
0.0
 31
0.0
100
AcDbText
 73
1
  0
TEXT
  5
180
100
AcDbEntity
100
AcDbText
  8
00-NOPRINT_TEXT
 62
256
370
-1
 48
1.0
  6
BYLAYER
 10
4897.9746869005276
 20
3650.6857769068688
 30
0.0
 40
20.0
  1
Range:
 50
0.0
 41
1.0
  7
textstyle103
 71
0
 72
0
 11
0.0
 21
0.0
 31
0.0
100
AcDbText
 73
1
  0
TEXT
  5
181
100
AcDbEntity
100
AcDbText
  8
00-NOPRINT_TEXT
 62
256
370
-1
 48
1.0
  6
BYLAYER
 10
5008.2700006682799
 20
3650.6857769068688
 30
0.0
 40
20.0
  1
$RANGE
 50
0.0
 41
1.0
  7
textstyle104
 71
0
 72
0
 11
0.0
 21
0.0
 31
0.0
100
AcDbText
 73
1
  0
TEXT
  5
182
100
AcDbEntity
100
AcDbText
  8
00-NOPRINT_TEXT
 62
256
370
-1
 48
1.0
  6
BYLAYER
 10
5398.4490111715877
 20
3310.1096747632841
 30
0.0
 40
13.0
  1
$BIT-SIZE
 50
0.0
 41
1.0
  7
textstyle105
 71
0
 72
0
 11
0.0
 21
0.0
 31
0.0
100
AcDbText
 73
1
  0
TEXT
  5
183
100
AcDbEntity
100
AcDbText
  8
00-NOPRINT_TEXT
 62
256
370
-1
 48
1.0
  6
BYLAYER
 10
5481.7539740107313
 20
3250.1096747632841
 30
0.0
 40
13.0
  1
$TH-NOMINAL
 50
0.0
 41
1.0
  7
textstyle106
 71
0
 72
0
 11
0.0
 21
0.0
 31
0.0
100
AcDbText
 73
1
  0
TEXT
  5
184
100
AcDbEntity
100
AcDbText
  8
00-NOPRINT_TEXT
 62
256
370
-1
 48
1.0
  6
BYLAYER
 10
5427.8962357467781
 20
3280.1096747632841
 30
0.0
 40
13.0
  1
2440mm x 1220mm
 50
0.0
 41
1.0
  7
textstyle107
 71
0
 72
0
 11
0.0
 21
0.0
 31
0.0
100
AcDbText
 73
1
  0
LWPOLYLINE
  5
185
  8
TOP_CUTOUT_18MM_OUTSIDE
 62
256
370
-1
 48
1.0
  6
BYLAYER
100
AcDbEntity
100
AcDbPolyline
 90
21
 70
1
 10
3484.575933665692
 20
3500.6914544053211
 30
0.0
 42
0.4142135725969827
 10
3493.5759331944541
 20
3491.6914536199238
 30
0.0
 10
3511.1562551944539
 20
3491.6914536199251
 30
0.0
 42
0.3948374641655323
 10
3520.1363004184682
 20
3500.0924575947638
 30
0.0
 10
3541.3878711886769
 20
3818.6925364899471
 30
0.0
 42
-0.3948374490351506
 10
3589.6458161332998
 20
3863.8387736199238
 30
0.0
 10
3689.575933665692
 20
3863.8387616199252
 30
0.0
 10
3789.5060451332961
 20
3863.8387736199238
 30
0.0
 42
-0.3948374641655987
 10
3837.7639949741629
 20
3818.6925390167298
 30
0.0
 10
3859.0155658815538
 20
3500.0924580649571
 30
0.0
 42
0.3948374490351672
 10
3867.995610194454
 20
3491.6914536199238
 30
0.0
 10
3885.575872194453
 20
3491.6914536199238
 30
0.0
 42
0.4142135777089093
 10
3894.5758726656909
 20
3500.6914536199251
 30
0.0
 10
3894.5758726656909
 20
3786.6853496199228
 30
0.0
 10
3882.2327269151851
 20
3786.685349619926
 30
0.0
 42
-1.0000000000000191
 10
3876.5758726656932
 20
3792.3422038694162
 30
0.0
 10
3876.5758726656909
 20
3930.8387616199252
 30
0.0
 10
3502.575933665692
 20
3930.8387616199252
 30
0.0
 10
3502.575933665692
 20
3792.3422038694171
 30
0.0
 42
-1.000000000000079
 10
3496.9190794162
 20
3786.6853496199228
 30
0.0
 10
3484.575933665692
 20
3786.6853496199228
 30
0.0
  0
CIRCLE
  5
186
100
AcDbEntity
100
AcDbCircle
  8
HOLE_6MM_DIAM_18MM_DEEP
 62
256
370
-1
 48
1.0
  6
BYLAYER
 10
4146.7952205753081
 20
3336.8154551353209
 30
0.0
 40
3.0
  0
CIRCLE
  5
187
100
AcDbEntity
100
AcDbCircle
  8
HOLE_6MM_DIAM_18MM_DEEP
 62
256
370
-1
 48
1.0
  6
BYLAYER
 10
4029.4785095753068
 20
3031.4021251353229
 30
0.0
 40
3.0
  0
CIRCLE
  5
188
100
AcDbEntity
100
AcDbCircle
  8
HOLE_6MM_DIAM_18MM_DEEP
 62
256
370
-1
 48
1.0
  6
BYLAYER
 10
4214.1450745753082
 20
3356.127711135322
 30
0.0
 40
3.0
  0
CIRCLE
  5
189
100
AcDbEntity
100
AcDbCircle
  8
HOLE_6MM_DIAM_18MM_DEEP
 62
256
370
-1
 48
1.0
  6
BYLAYER
 10
4029.4785095753068
 20
3346.1629431353222
 30
0.0
 40
3.0
  0
CIRCLE
  5
18A
100
AcDbEntity
100
AcDbCircle
  8
HOLE_6MM_DIAM_18MM_DEEP
 62
256
370
-1
 48
1.0
  6
BYLAYER
 10
4089.2979065753079
 20
3066.5862071353231
 30
0.0
 40
3.0
  0
CIRCLE
  5
18B
100
AcDbEntity
100
AcDbCircle
  8
HOLE_6MM_DIAM_18MM_DEEP
 62
256
370
-1
 48
1.0
  6
BYLAYER
 10
3963.914849575307
 20
3361.2994941353231
 30
0.0
 40
3.0
  0
CIRCLE
  5
18C
100
AcDbEntity
100
AcDbCircle
  8
HOLE_6MM_DIAM_18MM_DEEP
 62
256
370
-1
 48
1.0
  6
BYLAYER
 10
4089.2979065753079
 20
3277.7676721353218
 30
0.0
 40
3.0
  0
CIRCLE
  5
18D
100
AcDbEntity
100
AcDbCircle
  8
HOLE_6MM_DIAM_18MM_DEEP
 62
256
370
-1
 48
1.0
  6
BYLAYER
 10
3963.914849575307
 20
3016.2655591353232
 30
0.0
 40
3.0
  0
LWPOLYLINE
  5
18E
  8
TOP_CUTOUT_18MM_OUTSIDE
 62
256
370
-1
 48
1.0
  6
BYLAYER
100
AcDbEntity
100
AcDbPolyline
 90
16
 70
1
 10
4083.2969266418258
 20
3034.5903216040501
 30
0.0
 42
0.349215623630674
 10
4098.7979065753079
 20
3054.0777213899928
 30
0.0
 10
4098.7979065753079
 20
3283.5475871353219
 30
0.0
 42
-0.3345953097984663
 10
4127.7724110004519
 20
3321.9980545879921
 30
0.0
 10
4236.3122495753059
 20
3353.1213481353211
 30
0.0
 10
4231.3507625753082
 20
3370.4240521353231
 30
0.0
 10
4149.574481464434
 20
3346.9750784661901
 30
0.0
 42
-0.1272160680011995
 10
4074.4862199745289
 20
3345.0088218286401
 30
0.0
 10
3943.4395075753082
 20
3375.2633461353221
 30
0.0
 10
3939.3903745753069
 20
3357.7246801353231
 30
0.0
 10
3996.7939868413632
 20
3344.4720162604181
 30
0.0
 42
-0.3492156236305513
 10
4058.7979065753061
 20
3266.522417116661
 30
0.0
 10
4058.7979065753061
 20
3111.0426361540049
 30
0.0
 42
-0.3492156236307085
 10
3996.7939868413841
 20
3033.093037010231
 30
0.0
 10
3936.182000575307
 20
3019.099634135322
 30
0.0
 10
3940.2311335753079
 20
3001.5609991353231
 30
0.0
  0
LWPOLYLINE
  5
18F
  8
TOP_CUTOUT_18MM_OUTSIDE
 62
256
370
-1
 48
1.0
  6
BYLAYER
100
AcDbEntity
100
AcDbPolyline
 90
14
 70
1
 10
3829.4746866398068
 20
2863.7769086061739
 30
0.0
 10
3846.9746869016071
 20
2863.7769086061739
 30
0.0
 10
3846.9746869016071
 20
3170.9675841769672
 30
0.0
 42
0.4142135725970305
 10
3816.9746842836139
 20
3200.9675826061721
 30
0.0
 10
3502.9746895196008
 20
3200.9675826061721
 30
0.0
 42
0.4142135725971657
 10
3472.974686901608
 20
3170.967584176969
 30
0.0
 10
3472.974686901608
 20
2863.7769086061739
 30
0.0
 10
3490.4746866398091
 20
2863.7769086061739
 30
0.0
 42
-0.4142135725970606
 10
3493.474686901608
 20
2860.7769087632528
 30
0.0
 10
3493.474686901608
 20
2840.9675836533752
 30
0.0
 42
0.4142135777089539
 10
3513.4746869016039
 20
2820.9675826061721
 30
0.0
 10
3806.4746869016071
 20
2820.9675826061721
 30
0.0
 42
0.414213577708793
 10
3826.4746869016071
 20
2840.9675836533702
 30
0.0
 10
3826.4746869016071
 20
2860.7769087632528
 30
0.0
 42
-0.4142135214775167
  0
LWPOLYLINE
  5
190
  8
TOP_CUTOUT_18MM_INSIDE
 62
256
370
-1
 48
1.0
  6
BYLAYER
100
AcDbEntity
100
AcDbPolyline
 90
8
 70
1
 10
3901.85596531089
 20
2927.568267082796
 30
0.0
 10
3901.85596531089
 20
2872.5682670827919
 30
0.0
 42
0.4142135725970303
 10
3921.8559642636919
 20
2852.5682653374629
 30
0.0
 10
4215.8559642636974
 20
2852.5682653374629
 30
0.0
 42
0.4142135777087713
 10
4235.8559653108887
 20
2872.5682653374679
 30
0.0
 10
4235.8559653108887
 20
2927.5682653374629
 30
0.0
 42
0.4142135777089277
 10
4215.8559642636919
 20
2947.5682653374629
 30
0.0
 10
3921.8559642636978
 20
2947.5682653374611
 30
0.0
 42
0.4142135214773647
  0
LWPOLYLINE
  5
191
  8
TOP_CUTOUT_18MM_OUTSIDE
 62
256
370
-1
 48
1.0
  6
BYLAYER
100
AcDbEntity
100
AcDbPolyline
 90
13
 70
1
 10
3827.1565008286889
 20
3221.34609149383
 30
0.0
 10
3811.7139348286892
 20
3288.2351294938298
 30
0.0
 10
3539.1226338286888
 20
3288.2351294938298
 30
0.0
 10
3523.6800608286908
 20
3221.34609149383
 30
0.0
 10
3533.8074948807812
 20
3219.007913584328
 30
0.0
 42
0.3043891499192805
 10
3543.5980048422539
 20
3222.738590300477
 30
0.0
 10
3565.5903995047529
 20
3253.8210915804302
 30
0.0
 42
-0.2433979922400471
 10
3583.7834238286891
 20
3263.2350924938291
 30
0.0
 10
3675.4182868286898
 20
3263.2351294938298
 30
0.0
 10
3767.0531528286901
 20
3263.2350924938291
 30
0.0
 42
-0.2433979922401256
 10
3785.2461771526232
 20
3253.8210915804361
 30
0.0
 10
3807.238563815125
 20
3222.7385903004802
 30
0.0
 42
0.3043891499190526
 10
3817.029073776594
 20
3219.0079135843271
 30
0.0
  0
LWPOLYLINE
  5
192
  8
TOP_CUTOUT_18MM_OUTSIDE
 62
256
370
-1
 48
1.0
  6
BYLAYER
100
AcDbEntity
100
AcDbPolyline
 90
13
 70
1
 10
3525.979830759899
 20
3378.2155244448518
 30
0.0
 10
3541.4223967598991
 20
3311.326486444852
 30
0.0
 10
3814.0136897599009
 20
3311.326486444852
 30
0.0
 10
3829.4562557599002
 20
3378.2155244448518
 30
0.0
 10
3819.3288437078072
 20
3380.5537023543511
 30
0.0
 42
0.3043891499192362
 10
3809.538333746335
 20
3376.823025638203
 30
0.0
 10
3787.5459480838381
 20
3345.7405243582521
 30
0.0
 42
-0.2433979922400407
 10
3769.3529237599
 20
3336.3265234448518
 30
0.0
 10
3677.718050759901
 20
3336.326486444852
 30
0.0
 10
3586.0831857599001
 20
3336.3265234448518
 30
0.0
 42
-0.2433979922401003
 10
3567.8901614359638
 20
3345.740524358248
 30
0.0
 10
3545.8977677734661
 20
3376.8230256382012
 30
0.0
 42
0.3043891499190722
 10
3536.1072578119929
 20
3380.5537023543511
 30
0.0
  0
LWPOLYLINE
  5
193
  8
TOP_CUTOUT_18MM_OUTSIDE
 62
256
370
-1
 48
1.0
  6
BYLAYER
100
AcDbEntity
100
AcDbPolyline
 90
16
 70
1
 10
4053.4304945878671
 20
3558.3133464268212
 30
0.0
 42
-0.3492156383169618
 10
4037.9295153346238
 20
3577.8007478010491
 30
0.0
 10
4037.9295153346229
 20
3807.2705783103902
 30
0.0
 42
0.3345953389093226
 10
4008.9550102383901
 20
3845.7210494461501
 30
0.0
 10
3900.4152333346251
 20
3876.8443428010492
 30
0.0
 10
3905.376659334624
 20
3894.147046801048
 30
0.0
 10
3987.1529379289382
 20
3870.6980738535299
 30
0.0
 42
0.1272160635670583
 10
4062.2411968335359
 20
3868.7318153165061
 30
0.0
 10
4193.2879133346232
 20
3898.9863408010469
 30
0.0
 10
4197.3369863346252
 20
3881.4476748010488
 30
0.0
 10
4139.933432347596
 20
3868.1950102979581
 30
0.0
 42
0.3492156383170001
 10
4077.9295153346238
 20
3790.2454048010518
 30
0.0
 10
4077.9295153346229
 20
3634.7656528010489
 30
0.0
 42
0.3492156383169912
 10
4139.9334323475923
 20
3556.8160473041389
 30
0.0
 10
4200.5454213346238
 20
3542.8226598010478
 30
0.0
 10
4196.4962873346249
 20
3525.2839938010488
 30
0.0
  0
CIRCLE
  5
194
100
AcDbEntity
100
AcDbCircle
  8
HOLE_6MM_DIAM_18MM_DEEP
 62
256
370
-1
 48
1.0
  6
BYLAYER
 10
4172.8125723346229
 20
3885.0224888010471
 30
0.0
 40
3.0
  0
CIRCLE
  5
195
100
AcDbEntity
100
AcDbCircle
  8
HOLE_6MM_DIAM_18MM_DEEP
 62
256
370
-1
 48
1.0
  6
BYLAYER
 10
4107.248912334624
 20
3869.8859378010488
 30
0.0
 40
3.0
  0
CIRCLE
  5
196
100
AcDbEntity
100
AcDbCircle
  8
HOLE_6MM_DIAM_18MM_DEEP
 62
256
370
-1
 48
1.0
  6
BYLAYER
 10
3922.582347334625
 20
3879.8507058010491
 30
0.0
 40
3.0
  0
CIRCLE
  5
197
100
AcDbEntity
100
AcDbCircle
  8
HOLE_6MM_DIAM_18MM_DEEP
 62
256
370
-1
 48
1.0
  6
BYLAYER
 10
4047.4295153346238
 20
3801.4906588010481
 30
0.0
 40
3.0
  0
CIRCLE
  5
198
100
AcDbEntity
100
AcDbCircle
  8
HOLE_6MM_DIAM_18MM_DEEP
 62
256
370
-1
 48
1.0
  6
BYLAYER
 10
4047.4295153346238
 20
3590.3092018010479
 30
0.0
 40
3.0
  0
CIRCLE
  5
199
100
AcDbEntity
100
AcDbCircle
  8
HOLE_6MM_DIAM_18MM_DEEP
 62
256
370
-1
 48
1.0
  6
BYLAYER
 10
4107.248912334624
 20
3555.1250888010491
 30
0.0
 40
3.0
  0
CIRCLE
  5
19A
100
AcDbEntity
100
AcDbCircle
  8
HOLE_6MM_DIAM_18MM_DEEP
 62
256
370
-1
 48
1.0
  6
BYLAYER
 10
4172.8125723346229
 20
3539.988553801049
 30
0.0
 40
3.0
  0
CIRCLE
  5
19B
100
AcDbEntity
100
AcDbCircle
  8
HOLE_6MM_DIAM_18MM_DEEP
 62
256
370
-1
 48
1.0
  6
BYLAYER
 10
3989.932201334625
 20
3860.538449801048
 30
0.0
 40
3.0
  0
CIRCLE
  5
19C
100
AcDbEntity
100
AcDbCircle
  8
HOLE_6MM_DIAM_18MM_DEEP
 62
256
370
-1
 48
1.0
  6
BYLAYER
 10
3809.575933665692
 20
3878.3888106199238
 30
0.0
 40
3.0
  0
CIRCLE
  5
19D
100
AcDbEntity
100
AcDbCircle
  8
HOLE_6MM_DIAM_18MM_DEEP
 62
256
370
-1
 48
1.0
  6
BYLAYER
 10
3569.575933665692
 20
3917.263993619923
 30
0.0
 40
3.0
  0
CIRCLE
  5
19E
100
AcDbEntity
100
AcDbCircle
  8
HOLE_6MM_DIAM_18MM_DEEP
 62
256
370
-1
 48
1.0
  6
BYLAYER
 10
3569.575933665692
 20
3878.3888106199238
 30
0.0
 40
3.0
  0
CIRCLE
  5
19F
100
AcDbEntity
100
AcDbCircle
  8
HOLE_6MM_DIAM_18MM_DEEP
 62
256
370
-1
 48
1.0
  6
BYLAYER
 10
3809.575933665692
 20
3917.263993619923
 30
0.0
 40
3.0
  0
CIRCLE
  5
1A0
100
AcDbEntity
100
AcDbCircle
  8
HOLE_6MM_DIAM_18MM_DEEP
 62
256
370
-1
 48
1.0
  6
BYLAYER
 10
3642.8797399677569
 20
3407.9290121633212
 30
0.0
 40
3.0
  0
CIRCLE
  5
1A1
100
AcDbEntity
100
AcDbCircle
  8
HOLE_6MM_DIAM_18MM_DEEP
 62
256
370
-1
 48
1.0
  6
BYLAYER
 10
3882.8797399677569
 20
3446.8041951633209
 30
0.0
 40
3.0
  0
CIRCLE
  5
1A2
100
AcDbEntity
100
AcDbCircle
  8
HOLE_6MM_DIAM_18MM_DEEP
 62
256
370
-1
 48
1.0
  6
BYLAYER
 10
3882.8797399677569
 20
3407.9290121633212
 30
0.0
 40
3.0
  0
CIRCLE
  5
1A3
100
AcDbEntity
100
AcDbCircle
  8
HOLE_6MM_DIAM_18MM_DEEP
 62
256
370
-1
 48
1.0
  6
BYLAYER
 10
3642.8797399677569
 20
3446.8041951633209
 30
0.0
 40
3.0
  0
LWPOLYLINE
  5
1A4
  8
TOP_CUTOUT_18MM_OUTSIDE
 62
256
370
-1
 48
1.0
  6
BYLAYER
100
AcDbEntity
100
AcDbPolyline
 90
21
 70
1
 10
3967.8797399677569
 20
3824.5015513779231
 30
0.0
 42
0.4142135725969962
 10
3958.879740438997
 20
3833.5015521633209
 30
0.0
 10
3941.2994184389981
 20
3833.50155216332
 30
0.0
 42
0.3948374641655994
 10
3932.319373214983
 20
3825.1005481884822
 30
0.0
 10
3911.067802444772
 20
3506.5004692932971
 30
0.0
 42
-0.3948374490351562
 10
3862.8098575001518
 20
3461.3542321633208
 30
0.0
 10
3762.8797399677578
 20
3461.354244163319
 30
0.0
 10
3662.9496285001542
 20
3461.3542321633199
 30
0.0
 42
-0.3948374641655822
 10
3614.6916786592869
 20
3506.5004667665162
 30
0.0
 10
3593.440107751896
 20
3825.100547718288
 30
0.0
 42
0.3948374490351589
 10
3584.4600634389972
 20
3833.5015521633209
 30
0.0
 10
3566.8798014389959
 20
3833.5015521633209
 30
0.0
 42
0.4142135777089134
 10
3557.879800967758
 20
3824.50155216332
 30
0.0
 10
3557.879800967758
 20
3538.5076561633209
 30
0.0
 10
3570.2229467182642
 20
3538.5076561633209
 30
0.0
 42
-1.00000000000028
 10
3575.879800967758
 20
3532.850801913828
 30
0.0
 10
3575.879800967758
 20
3394.3542441633199
 30
0.0
 10
3949.8797399677569
 20
3394.3542441633199
 30
0.0
 10
3949.8797399677592
 20
3532.850801913828
 30
0.0
 42
-1.0
 10
3955.5365942172498
 20
3538.5076561633209
 30
0.0
 10
3967.8797399677569
 20
3538.5076561633209
 30
0.0
  0
LWPOLYLINE
  5
1A5
  8
TOP_CUTOUT_18MM_OUTSIDE
 62
256
370
-1
 48
1.0
  6
BYLAYER
100
AcDbEntity
100
AcDbPolyline
 90
18
 70
1
 10
3881.85596531089
 20
3243.8441513374628
 30
0.0
 10
3901.85596531089
 20
3243.8441513374628
 30
0.0
 10
3901.85596531089
 20
3002.5682635921321
 30
0.0
 42
0.4142135214775133
 10
3921.8559642636919
 20
2982.5682653374629
 30
0.0
 10
4215.8559642636974
 20
2982.5682653374629
 30
0.0
 42
0.4142135777087975
 10
4235.8559653108887
 20
3002.5682653374679
 30
0.0
 10
4235.8559653108887
 20
3243.8441513374628
 30
0.0
 10
4255.8559653108887
 20
3243.8441513374628
 30
0.0
 10
4255.8559653108887
 20
3079.9320895869541
 30
0.0
 42
0.9999999999997989
 10
4261.512819560382
 20
3074.2752353374631
 30
0.0
 10
4273.8559653108887
 20
3074.2752353374631
 30
0.0
 10
4273.8559653108887
 20
2852.5682653374711
 30
0.0
 42
-0.4142135777089421
 10
4238.8559634783051
 20
2817.5682653374629
 30
0.0
 10
3898.8559634782951
 20
2817.5682653374629
 30
0.0
 42
-0.4142135470372352
 10
3863.85596531089
 20
2852.5682653374629
 30
0.0
 10
3863.85596531089
 20
3074.2752353374631
 30
0.0
 10
3876.1991110613981
 20
3074.2752353374631
 30
0.0
 42
1.00000000000026
 10
3881.8559653108919
 20
3079.9320895869541
 30
0.0
  0
ENDSEC
  0
SECTION
  2
OBJECTS
  0
DICTIONARY
  5
C
100
AcDbDictionary
280
0
281
1
  3
ACAD_GROUP
350
D
  3
ACAD_LAYOUT
350
1A
  3
ACAD_MLINESTYLE
350
17
  3
ACAD_PLOTSETTINGS
350
19
  3
ACAD_PLOTSTYLENAME
350
E
  3
AcDbVariableDictionary
350
1A6
  3
QCAD_OBJECTS
350
1A7
  0
DICTIONARY
  5
D
100
AcDbDictionary
280
0
281
1
  0
ACDBDICTIONARYWDFLT
  5
E
100
AcDbDictionary
281
1
  3
Normal
350
F
100
AcDbDictionaryWithDefault
340
F
  0
ACDBPLACEHOLDER
  5
F
  0
DICTIONARY
  5
17
100
AcDbDictionary
280
0
281
1
  3
Standard
350
18
  0
MLINESTYLE
  5
18
100
AcDbMlineStyle
  2
STANDARD
 70
0
  3

 62
256
 51
90.0
 52
90.0
 71
2
 49
0.5
 62
256
  6
BYLAYER
 49
-0.5
 62
256
  6
BYLAYER
  0
DICTIONARY
  5
19
100
AcDbDictionary
280
0
281
1
  0
DICTIONARY
  5
1A
100
AcDbDictionary
281
1
  3
Layout1
350
1E
  3
Layout2
350
26
  3
Model
350
22
  0
LAYOUT
  5
1E
100
AcDbPlotSettings
  1

  2
none_device
  4

  6

 40
0.0
 41
0.0
 42
0.0
 43
0.0
 44
0.0
 45
0.0
 46
0.0
 47
0.0
 48
0.0
 49
0.0
140
0.0
141
0.0
142
1.0
143
1.0
 70
688
 72
0
 73
0
 74
5
  7

 75
16
147
1.0
148
0.0
149
0.0
100
AcDbLayout
  1
Layout1
 70
1
 71
1
 10
0.0
 20
0.0
 11
420.0
 21
297.0
 12
0.0
 22
0.0
 32
0.0
 14
100000000000000000000.0
 24
100000000000000000000.0
 34
100000000000000000000.0
 15
-100000000000000000000.0
 25
-100000000000000000000.0
 35
-100000000000000000000.0
146
0.0
 13
0.0
 23
0.0
 33
0.0
 16
1.0
 26
0.0
 36
0.0
 17
0.0
 27
1.0
 37
0.0
 76
0
330
1B
  0
LAYOUT
  5
22
100
AcDbPlotSettings
  1

  2
none_device
  4

  6

 40
0.0
 41
0.0
 42
0.0
 43
0.0
 44
0.0
 45
0.0
 46
0.0
 47
0.0
 48
0.0
 49
0.0
140
0.0
141
0.0
142
1.0
143
1.0
 70
1712
 72
0
 73
0
 74
0
  7

 75
0
147
1.0
148
0.0
149
0.0
100
AcDbLayout
  1
Model
 70
1
 71
0
 10
0.0
 20
0.0
 11
12.0
 21
9.0
 12
0.0
 22
0.0
 32
0.0
 14
0.0
 24
0.0
 34
0.0
 15
0.0
 25
0.0
 35
0.0
146
0.0
 13
0.0
 23
0.0
 33
0.0
 16
1.0
 26
0.0
 36
0.0
 17
0.0
 27
1.0
 37
0.0
 76
0
330
1F
  0
LAYOUT
  5
26
100
AcDbPlotSettings
  1

  2
none_device
  4

  6

 40
0.0
 41
0.0
 42
0.0
 43
0.0
 44
0.0
 45
0.0
 46
0.0
 47
0.0
 48
0.0
 49
0.0
140
0.0
141
0.0
142
1.0
143
1.0
 70
688
 72
0
 73
0
 74
5
  7

 75
16
147
1.0
148
0.0
149
0.0
100
AcDbLayout
  1
Layout2
 70
1
 71
2
 10
0.0
 20
0.0
 11
12.0
 21
9.0
 12
0.0
 22
0.0
 32
0.0
 14
0.0
 24
0.0
 34
0.0
 15
0.0
 25
0.0
 35
0.0
146
0.0
 13
0.0
 23
0.0
 33
0.0
 16
1.0
 26
0.0
 36
0.0
 17
0.0
 27
1.0
 37
0.0
 76
0
330
23
  0
DICTIONARY
  5
1A6
100
AcDbDictionary
281
1
  3
DIMASSOC
350
1A9
  3
HIDETEXT
350
1A8
  0
DICTIONARYVAR
  5
1A8
100
DictionaryVariables
280
0
  1
2
  0
DICTIONARYVAR
  5
1A9
100
DictionaryVariables
280
0
  1
1
  0
DICTIONARY
  5
1A7
100
AcDbDictionary
281
1
  3
ColorSettings/BackgroundColor
350
1AA
  3
ColorSettings/ColorMode
350
1AB
  3
Grid/DisplayGrid00
350
1AC
  3
Grid/DisplayGrid01
350
1AD
  3
Grid/DisplayGrid02
350
1AE
  3
Grid/DisplayGrid03
350
1AF
  3
Grid/GridSpacingX00
350
1B0
  3
Grid/GridSpacingX01
350
1B1
  3
Grid/GridSpacingX02
350
1B2
  3
Grid/GridSpacingX03
350
1B3
  3
Grid/GridSpacingY00
350
1B4
  3
Grid/GridSpacingY01
350
1B5
  3
Grid/GridSpacingY02
350
1B6
  3
Grid/GridSpacingY03
350
1B7
  3
Grid/IsometricGrid00
350
1B8
  3
Grid/IsometricGrid01
350
1B9
  3
Grid/IsometricGrid02
350
1BA
  3
Grid/IsometricGrid03
350
1BB
  3
Grid/IsometricProjection00
350
1BC
  3
Grid/IsometricProjection01
350
1BD
  3
Grid/IsometricProjection02
350
1BE
  3
Grid/IsometricProjection03
350
1BF
  3
Grid/MetaGridSpacingX00
350
1C0
  3
Grid/MetaGridSpacingX01
350
1C1
  3
Grid/MetaGridSpacingX02
350
1C2
  3
Grid/MetaGridSpacingX03
350
1C3
  3
Grid/MetaGridSpacingY00
350
1C4
  3
Grid/MetaGridSpacingY01
350
1C5
  3
Grid/MetaGridSpacingY02
350
1C6
  3
Grid/MetaGridSpacingY03
350
1C7
  3
MultiPageSettings/Columns
350
1C8
  3
MultiPageSettings/GlueMarginsBottom
350
1C9
  3
MultiPageSettings/GlueMarginsLeft
350
1CA
  3
MultiPageSettings/GlueMarginsRight
350
1CB
  3
MultiPageSettings/GlueMarginsTop
350
1CC
  3
MultiPageSettings/PrintCropMarks
350
1CD
  3
MultiPageSettings/Rows
350
1CE
  3
PageSettings/OffsetX
350
1CF
  3
PageSettings/OffsetY
350
1D0
  3
PageSettings/PageOrientation
350
1D1
  3
PageSettings/PaperHeight
350
1D2
  3
PageSettings/PaperWidth
350
1D3
  3
PageSettings/Scale
350
1D4
  3
PageSettings/ShowPaperBorders
350
1D5
  3
UnitSettings/PaperUnit
350
1D6
  0
XRECORD
  5
1AA
330
1A7
100
AcDbXrecord
280
1
1000
White
  0
XRECORD
  5
1AB
330
1A7
100
AcDbXrecord
280
1
1000
FullColor
  0
XRECORD
  5
1AC
330
1A7
100
AcDbXrecord
280
1
290
1
  0
XRECORD
  5
1AD
330
1A7
100
AcDbXrecord
280
1
290
1
  0
XRECORD
  5
1AE
330
1A7
100
AcDbXrecord
280
1
290
1
  0
XRECORD
  5
1AF
330
1A7
100
AcDbXrecord
280
1
290
1
  0
XRECORD
  5
1B0
330
1A7
100
AcDbXrecord
280
1
1000
auto
  0
XRECORD
  5
1B1
330
1A7
100
AcDbXrecord
280
1
1000
auto
  0
XRECORD
  5
1B2
330
1A7
100
AcDbXrecord
280
1
1000
auto
  0
XRECORD
  5
1B3
330
1A7
100
AcDbXrecord
280
1
1000
auto
  0
XRECORD
  5
1B4
330
1A7
100
AcDbXrecord
280
1
1000
auto
  0
XRECORD
  5
1B5
330
1A7
100
AcDbXrecord
280
1
1000
auto
  0
XRECORD
  5
1B6
330
1A7
100
AcDbXrecord
280
1
1000
auto
  0
XRECORD
  5
1B7
330
1A7
100
AcDbXrecord
280
1
1000
auto
  0
XRECORD
  5
1B8
330
1A7
100
AcDbXrecord
280
1
290
0
  0
XRECORD
  5
1B9
330
1A7
100
AcDbXrecord
280
1
290
0
  0
XRECORD
  5
1BA
330
1A7
100
AcDbXrecord
280
1
290
0
  0
XRECORD
  5
1BB
330
1A7
100
AcDbXrecord
280
1
290
0
  0
XRECORD
  5
1BC
330
1A7
100
AcDbXrecord
280
1
 90
0
  0
XRECORD
  5
1BD
330
1A7
100
AcDbXrecord
280
1
 90
0
  0
XRECORD
  5
1BE
330
1A7
100
AcDbXrecord
280
1
 90
0
  0
XRECORD
  5
1BF
330
1A7
100
AcDbXrecord
280
1
 90
0
  0
XRECORD
  5
1C0
330
1A7
100
AcDbXrecord
280
1
1000
auto
  0
XRECORD
  5
1C1
330
1A7
100
AcDbXrecord
280
1
1000
auto
  0
XRECORD
  5
1C2
330
1A7
100
AcDbXrecord
280
1
1000
auto
  0
XRECORD
  5
1C3
330
1A7
100
AcDbXrecord
280
1
1000
auto
  0
XRECORD
  5
1C4
330
1A7
100
AcDbXrecord
280
1
1000
auto
  0
XRECORD
  5
1C5
330
1A7
100
AcDbXrecord
280
1
1000
auto
  0
XRECORD
  5
1C6
330
1A7
100
AcDbXrecord
280
1
1000
auto
  0
XRECORD
  5
1C7
330
1A7
100
AcDbXrecord
280
1
1000
auto
  0
XRECORD
  5
1C8
330
1A7
100
AcDbXrecord
280
1
 90
1
  0
XRECORD
  5
1C9
330
1A7
100
AcDbXrecord
280
1
 40
0.5
  0
XRECORD
  5
1CA
330
1A7
100
AcDbXrecord
280
1
 40
0.5
  0
XRECORD
  5
1CB
330
1A7
100
AcDbXrecord
280
1
 40
0.5
  0
XRECORD
  5
1CC
330
1A7
100
AcDbXrecord
280
1
 40
0.5
  0
XRECORD
  5
1CD
330
1A7
100
AcDbXrecord
280
1
290
0
  0
XRECORD
  5
1CE
330
1A7
100
AcDbXrecord
280
1
 90
1
  0
XRECORD
  5
1CF
330
1A7
100
AcDbXrecord
280
1
 40
0.0
  0
XRECORD
  5
1D0
330
1A7
100
AcDbXrecord
280
1
 40
0.0
  0
XRECORD
  5
1D1
330
1A7
100
AcDbXrecord
280
1
1000
Portrait
  0
XRECORD
  5
1D2
330
1A7
100
AcDbXrecord
280
1
 40
11.692913385826801
  0
XRECORD
  5
1D3
330
1A7
100
AcDbXrecord
280
1
 40
8.2677165354330704
  0
XRECORD
  5
1D4
330
1A7
100
AcDbXrecord
280
1
1000
1:1
  0
XRECORD
  5
1D5
330
1A7
100
AcDbXrecord
280
1
290
1
  0
XRECORD
  5
1D6
330
1A7
100
AcDbXrecord
280
1
 90
1
  0
ENDSEC
  0
EOF
