  0
SECTION
  2
HEADER
  9
$ACADVER
  1
AC1009
  9
$INSBASE
 10
0.0
 20
0.0
 30
0.0
  9
$EXTMAX
 10
555.81542
 20
121.73266
 30
-0.12034
  9
$EXTMIN
 10
25.81542
 20
-43.26734
 30
-15.12035
  9
$LIMMAX
 10
12.0
 20
9.0
  9
$LIMMIN
 10
0.0
 20
0.0
  9
$ORTHOMODE
 70
0
  9
$REGENMODE
 70
1
  9
$FILLMODE
 70
1
  9
$QTEXTMODE
 70
0
  9
$MIRRTEXT
 70
1
  9
$DRAGMODE
 70
2
  9
$LTSCALE
 40
1.0
  9
$OSMODE
 70
0
  9
$ATTMODE
 70
1
  9
$TEXTSIZE
 40
0.2
  9
$TRACEWID
 40
0.05
  9
$TEXTSTYLE
  7
STANDARD
  9
$CLAYER
  8
0
  9
$CELTYPE
  6
CONTINUOUS
  9
$CECOLOR
 62
256
  9
$DIMSCALE
 40
1.0
  9
$DIMASZ
 40
0.18
  9
$DIMEXO
 40
0.0625
  9
$DIMDLI
 40
0.38
  9
$DIMRND
 40
0.0
  9
$DIMDLE
 40
0.0
  9
$DIMEXE
 40
0.18
  9
$DIMTP
 40
0.0
  9
$DIMTM
 40
0.0
  9
$DIMTXT
 40
0.18
  9
$DIMCEN
 40
0.09
  9
$DIMTSZ
 40
0.0
  9
$DIMTOL
 70
0
  9
$DIMLIM
 70
0
  9
$DIMTIH
 70
1
  9
$DIMTOH
 70
1
  9
$DIMSE1
 70
0
  9
$DIMSE2
 70
0
  9
$DIMTAD
 70
0
  9
$DIMZIN
 70
0
  9
$DIMBLK
  1

  9
$DIMASO
 70
1
  9
$DIMSHO
 70
1
  9
$DIMPOST
  1

  9
$DIMAPOST
  1

  9
$DIMALT
 70
0
  9
$DIMALTD
 70
2
  9
$DIMALTF
 40
25.4
  9
$DIMLFAC
 40
1.0
  9
$DIMTOFL
 70
0
  9
$DIMTVP
 40
0.0
  9
$DIMTIX
 70
0
  9
$DIMSOXD
 70
0
  9
$DIMSAH
 70
0
  9
$DIMBLK1
  1

  9
$DIMBLK2
  1

  9
$DIMSTYLE
  2
*UNNAMED
  9
$DIMCLRD
 70
0
  9
$DIMCLRE
 70
0
  9
$DIMCLRT
 70
0
  9
$DIMTFAC
 40
1.0
  9
$DIMGAP
 40
0.09
  9
$LUNITS
 70
2
  9
$LUPREC
 70
4
  9
$AXISMODE
 70
0
  9
$AXISUNIT
 10
0.0
 20
0.0
  9
$SKETCHINC
 40
0.1
  9
$FILLETRAD
 40
0.0
  9
$AUNITS
 70
0
  9
$AUPREC
 70
0
  9
$MENU
  1
acad
  9
$ELEVATION
 40
0.0
  9
$PELEVATION
 40
0.0
  9
$THICKNESS
 40
0.0
  9
$LIMCHECK
 70
0
  9
$BLIPMODE
 70
1
  9
$CHAMFERA
 40
0.0
  9
$CHAMFERB
 40
0.0
  9
$SKPOLY
 70
0
  9
$TDCREATE
 40
0.0
  9
$TDUPDATE
 40
0.0
  9
$TDINDWG
 40
0.0
  9
$TDUSRTIMER
 40
0.0
  9
$USRTIMER
 70
1
  9
$ANGBASE
 50
0.0
  9
$ANGDIR
 70
0
  9
$PDMODE
 70
0
  9
$PDSIZE
 40
0.0
  9
$PLINEWID
 40
0.0
  9
$COORDS
 70
0
  9
$SPLFRAME
 70
0
  9
$SPLINETYPE
 70
6
  9
$SPLINESEGS
 70
10
  9
$ATTDIA
 70
0
  9
$ATTREQ
 70
1
  9
$HANDLING
 70
1
  9
$HANDSEED
  5
1F0
  9
$SURFTAB1
 70
6
  9
$SURFTAB2
 70
6
  9
$SURFTYPE
 70
6
  9
$SURFU
 70
10
  9
$SURFV
 70
10
  9
$UCSNAME
  2

  9
$UCSORG
 10
0.0
 20
0.0
 30
0.0
  9
$UCSXDIR
 10
1.0
 20
0.0
 30
0.0
  9
$UCSYDIR
 10
0.0
 20
1.0
 30
0.0
  9
$PUCSNAME
  2
 
  9
$PUCSORG
 10
0.0
 20
0.0
 30
0.0
  9
$PUCSXDIR
 10
1.0
 20
0.0
 30
0.0
  9
$PUCSYDIR
 10
0.0
 20
1.0
 30
0.0
  9
$USERI1
 70
0
  9
$USERI2
 70
0
  9
$USERI3
 70
0
  9
$USERI4
 70
0
  9
$USERI5
 70
0
  9
$USERR1
 40
0.0
  9
$USERR2
 40
0.0
  9
$USERR3
 40
0.0
  9
$USERR4
 40
0.0
  9
$USERR5
 40
0.0
  9
$WORLDVIEW
 70
1
  9
$SHADEDGE
 70
3
  9
$SHADEDIF
 70
70
  9
$TILEMODE
 70
1
  9
$MAXACTVP
 70
16
  9
$PINSBASE
 10
0.0
 20
0.0
 30
0.0
  9
$PLIMCHECK
 70
0
  9
$PEXTMIN
 10
-1.000000E+020
 20
-1.000000E+020
 30
-1.000000E+020
  9
$PEXTMAX
 10
-1.000000E+020
 20
-1.000000E+020
 30
-1.000000E+020
  9
$PLIMMIN
 10
0.0
 20
0.0
  9
$PLIMMAX
 10
12.0
 20
9.0
  9
$UNITMODE
 70
0
  9
$VISRETAIN
 70
0
  0
ENDSEC
  0
SECTION
  2
TABLES
  0
TABLE
  2
LTYPE
 70
7
  0
LTYPE
  2
CONTINUOUS
 70
64
  3
Solid line
 72
65
 73
0
 40
0.0
  0
LTYPE
  2
DOT
 70
64
  3
. . . . . . . . . . . . . . . . . . . . . . . . . . . . . . . . .
 72
65
 73
2
 40
0.25
 49
0.0
 49
-0.25
  0
LTYPE
  2
HIDDEN
 70
64
  3
__ __ __ __ __ __ __ __ __ __ __ __ __ __ __ __ __ __ __ __ __ 
 72
65
 73
2
 40
0.375
 49
0.25
 49
-0.125
  0
LTYPE
  2
DASHED
 70
64
  3
__ __ __ __ __ __ __ __ __ __ __ __ __ __ __ __ __ __ __ __ __
 72
65
 73
2
 40
0.75
 49
0.5
 49
-0.25
  0
LTYPE
  2
DASHDOT
 70
64
  3
__ . __ . __ . __ . __ . __ . __ . __ . __ . __ . __ . __ . _
 72
65
 73
4
 40
1.0
 49
0.5
 49
-0.25
 49
0.0
 49
-0.25
  0
LTYPE
  2
DIVIDE
 70
64
  3
____ . . ____ . . ____ . . ____ . . ____ . . ____ . . ____ . .
 72
65
 73
6
 40
1.25
 49
0.5
 49
-0.25
 49
0.0
 49
-0.25
 49
0.0
 49
-0.25
  0
LTYPE
  2
CENTER
 70
64
  3
____ _ ____ _ ____ _ ____ _ ____ _ ____ _ ____ _ ____ _ ____ _
 72
65
 73
4
 40
2.0
 49
1.25
 49
-0.25
 49
0.25
 49
-0.25
  0
ENDTAB
  0
TABLE
  2
APPID
 70
1
  0
APPID
  2
ACAD
 70
0
  0
ENDTAB
  0
TABLE
  2
DIMSTYLE
 70
0
  0
ENDTAB
  0
TABLE
  2
LAYER
 70
4
  0
LAYER
  2
0
 70
0
 62
7
  6
CONTINUOUS
  0
LAYER
  2
CONSTRUCTION_CLASS
 70
0
 62
7
  6
CONTINUOUS
  0
LAYER
  2
PATTERN_CLASS
 70
0
 62
7
  6
CONTINUOUS
  0
LAYER
  2
1
 70
0
 62
7
  6
CONTINUOUS
  0
ENDTAB
  0
TABLE
  2
STYLE
 70
1
  0
STYLE
  2
STANDARD
 70
0
 40
0.2
 41
1.0
 50
0.0
 71
0
 42
0.0
  3
txt
  4

  0
ENDTAB
  0
TABLE
  2
UCS
 70
0
  0
ENDTAB
  0
TABLE
  2
VIEW
 70
0
  0
ENDTAB
  0
TABLE
  2
VPORT
 70
4
  0
VPORT
  2
*ACTIVE
 70
0
 10
0.500821
 20
0.50171
 11
0.998358
 21
0.997719
 12
2.842171E-014
 22
0.0
 13
0.0
 23
0.0
 14
0.0
 24
0.0
 15
0.0
 25
0.0
 16
0.0
 26
-1.889913E-015
 36
30.86564
 17
268.413625
 27
39.232665
 37
-7.62035
 40
357.79569
 41
1.393103
 42
50.0
 43
15.43282
 44
-15.43282
 50
0.0
 51
0.0
 71
22
 72
100
 73
1
 74
0
 75
0
 76
0
 77
0
 78
0
  0
VPORT
  2
*ACTIVE
 70
0
 10
0.001642
 20
0.50171
 11
0.499179
 21
0.997719
 12
-2.842171E-014
 22
2.842171E-014
 13
0.0
 23
0.0
 14
0.0
 24
0.0
 15
0.0
 25
0.0
 16
-245.160245
 26
-245.160245
 36
245.160245
 17
276.127444
 27
53.920628
 37
-7.620351
 40
331.76383
 41
1.393103
 42
50.0
 43
212.315
 44
-212.315
 50
0.0
 51
0.0
 71
22
 72
100
 73
1
 74
0
 75
0
 76
0
 77
0
 78
0
  0
VPORT
  2
*ACTIVE
 70
0
 10
0.001642
 20
0.003421
 11
0.499179
 21
0.49943
 12
2.842171E-014
 22
0.0
 13
0.0
 23
0.0
 14
0.0
 24
0.0
 15
0.0
 25
0.0
 16
0.0
 26
-180.86562
 36
0.0
 17
268.413625
 27
39.23266
 37
-7.620345
 40
357.79569
 41
1.393103
 42
50.0
 43
90.43281
 44
-90.43281
 50
0.0
 51
0.0
 71
22
 72
100
 73
1
 74
0
 75
0
 76
0
 77
0
 78
0
  0
VPORT
  2
*ACTIVE
 70
0
 10
0.500821
 20
0.003421
 11
0.998358
 21
0.49943
 12
0.0
 22
0.0
 13
0.0
 23
0.0
 14
0.0
 24
0.0
 15
0.0
 25
0.0
 16
543.25
 26
0.0
 36
0.0
 17
290.81542
 27
31.972314
 37
-7.62034
 40
115.96044
 41
1.393103
 42
50.0
 43
271.625
 44
-271.625
 50
0.0
 51
0.0
 71
22
 72
100
 73
1
 74
0
 75
0
 76
0
 77
0
 78
0
  0
ENDTAB
  0
ENDSEC
  0
SECTION
  2
BLOCKS
  0
BLOCK
  8
1
  5
6
 70
1
 10
0.0
 20
0.0
 30
0.0
  2
*M0
  3
*M0
  0
LINE
  8
1
  5
8
  6
CONTINUOUS
 62
7
 10
119.5
 20
-128.5
 30
0.0
 11
119.5
 21
-128.5
 31
-15.0
  0
LINE
  8
1
  5
A
  6
CONTINUOUS
 62
7
 10
115.0
 20
-133.0
 30
0.0
 11
115.0
 21
-133.0
 31
-15.0
  0
LINE
  8
1
  5
C
  6
CONTINUOUS
 62
7
 10
119.5
 20
-110.5
 30
0.0
 11
119.5
 21
-110.5
 31
-15.0
  0
LINE
  8
1
  5
E
  6
CONTINUOUS
 62
7
 10
115.0
 20
-115.0
 30
0.0
 11
115.0
 21
-115.0
 31
-15.0
  0
LINE
  8
1
  5
10
  6
CONTINUOUS
 62
7
 10
189.5
 20
-92.5
 30
0.0
 11
189.5
 21
-92.5
 31
-15.0
  0
LINE
  8
1
  5
12
  6
CONTINUOUS
 62
7
 10
185.0
 20
-97.0
 30
0.0
 11
185.0
 21
-97.0
 31
-15.0
  0
LINE
  8
1
  5
14
  6
CONTINUOUS
 62
7
 10
185.0
 20
-68.0
 30
0.0
 11
185.0
 21
-68.0
 31
-15.0
  0
LINE
  8
1
  5
16
  6
CONTINUOUS
 62
7
 10
189.5
 20
-63.5
 30
0.0
 11
189.5
 21
-63.5
 31
-15.0
  0
LINE
  8
1
  5
18
  6
CONTINUOUS
 62
7
 10
115.0
 20
-50.0
 30
0.0
 11
115.0
 21
-50.0
 31
-15.0
  0
LINE
  8
1
  5
1A
  6
CONTINUOUS
 62
7
 10
119.5
 20
-45.5
 30
0.0
 11
119.5
 21
-45.5
 31
-15.0
  0
LINE
  8
1
  5
1C
  6
CONTINUOUS
 62
7
 10
115.0
 20
-32.0
 30
0.0
 11
115.0
 21
-32.0
 31
-15.0
  0
LINE
  8
1
  5
1E
  6
CONTINUOUS
 62
7
 10
119.5
 20
-27.5
 30
0.0
 11
119.5
 21
-27.5
 31
-15.0
  0
LINE
  8
1
  5
20
  6
CONTINUOUS
 62
7
 10
205.0
 20
-165.0
 30
-15.0
 11
205.0
 21
-137.5
 31
-15.0
  0
LINE
  8
1
  5
22
  6
CONTINUOUS
 62
7
 10
205.0
 20
-137.5
 30
0.0
 11
205.0
 21
-137.5
 31
-15.0
  0
LINE
  8
1
  5
24
  6
CONTINUOUS
 62
7
 10
205.0
 20
-137.5
 30
0.0
 11
205.0
 21
-165.0
 31
0.0
  0
LINE
  8
1
  5
26
  6
CONTINUOUS
 62
7
 10
205.0
 20
-165.0
 30
0.0
 11
205.0
 21
-165.0
 31
-15.0
  0
LINE
  8
1
  5
28
  6
CONTINUOUS
 62
7
 10
205.0
 20
-137.5
 30
-15.0
 11
119.5
 21
-137.5
 31
-15.0
  0
LINE
  8
1
  5
2A
  6
CONTINUOUS
 62
7
 10
119.5
 20
-137.5
 30
0.0
 11
119.5
 21
-137.5
 31
-15.0
  0
LINE
  8
1
  5
2C
  6
CONTINUOUS
 62
7
 10
119.5
 20
-137.5
 30
0.0
 11
205.0
 21
-137.5
 31
0.0
  0
ARC
  8
1
  5
2E
  6
CONTINUOUS
 62
7
 210
0.0
 220
0.0
 230
-1.0
 10
-119.5
 20
-133.0
 30
15.0
 40
4.5
 50
270.0
 51
90.0
  0
LINE
  8
1
  5
30
  6
CONTINUOUS
 62
7
 10
119.5
 20
-128.5
 30
0.0
 11
119.5
 21
-128.5
 31
-15.0
  0
ARC
  8
1
  5
32
  6
CONTINUOUS
 62
7
 10
119.5
 20
-133.0
 30
1.398803E-014
 40
4.5
 50
90.0
 51
270.0
  0
LINE
  8
1
  5
34
  6
CONTINUOUS
 62
7
 10
119.5
 20
-128.5
 30
-15.0
 11
215.5
 21
-128.5
 31
-15.0
  0
LINE
  8
1
  5
36
  6
CONTINUOUS
 62
7
 10
215.5
 20
-128.5
 30
0.0
 11
215.5
 21
-128.5
 31
-15.0
  0
LINE
  8
1
  5
38
  6
CONTINUOUS
 62
7
 10
215.5
 20
-128.5
 30
0.0
 11
119.5
 21
-128.5
 31
0.0
  0
ARC
  8
1
  5
3A
  6
CONTINUOUS
 62
7
 210
0.0
 220
0.0
 230
-1.0
 10
-215.5
 20
-133.0
 30
15.0
 40
4.5
 50
90.0
 51
180.0
  0
LINE
  8
1
  5
3C
  6
CONTINUOUS
 62
7
 10
220.0
 20
-133.0
 30
0.0
 11
220.0
 21
-133.0
 31
-15.0
  0
ARC
  8
1
  5
3E
  6
CONTINUOUS
 62
7
 10
215.5
 20
-133.0
 30
1.398803E-014
 40
4.5
 50
0.0
 51
90.0
  0
LINE
  8
1
  5
40
  6
CONTINUOUS
 62
7
 10
220.0
 20
-133.0
 30
-15.0
 11
220.0
 21
-137.5
 31
-15.0
  0
LINE
  8
1
  5
42
  6
CONTINUOUS
 62
7
 10
220.0
 20
-137.5
 30
0.0
 11
220.0
 21
-137.5
 31
-15.0
  0
LINE
  8
1
  5
44
  6
CONTINUOUS
 62
7
 10
220.0
 20
-137.5
 30
0.0
 11
220.0
 21
-133.0
 31
0.0
  0
LINE
  8
1
  5
46
  6
CONTINUOUS
 62
7
 10
220.0
 20
-137.5
 30
-15.0
 11
235.5
 21
-137.5
 31
-15.0
  0
LINE
  8
1
  5
48
  6
CONTINUOUS
 62
7
 10
235.5
 20
-137.5
 30
0.0
 11
235.5
 21
-137.5
 31
-15.0
  0
LINE
  8
1
  5
4A
  6
CONTINUOUS
 62
7
 10
235.5
 20
-137.5
 30
0.0
 11
220.0
 21
-137.5
 31
0.0
  0
ARC
  8
1
  5
4C
  6
CONTINUOUS
 62
7
 10
235.5
 20
-133.0
 30
-15.0
 40
4.5
 50
270.0
 51
360.0
  0
LINE
  8
1
  5
4E
  6
CONTINUOUS
 62
7
 10
240.0
 20
-133.0
 30
0.0
 11
240.0
 21
-133.0
 31
-15.0
  0
ARC
  8
1
  5
50
  6
CONTINUOUS
 62
7
 210
0.0
 220
0.0
 230
-1.0
 10
-235.5
 20
-133.0
 30
-1.398803E-014
 40
4.5
 50
180.0
 51
270.0
  0
LINE
  8
1
  5
52
  6
CONTINUOUS
 62
7
 10
240.0
 20
-133.0
 30
-15.0
 11
240.0
 21
-119.5
 31
-15.0
  0
LINE
  8
1
  5
54
  6
CONTINUOUS
 62
7
 10
240.0
 20
-119.5
 30
0.0
 11
240.0
 21
-119.5
 31
-15.0
  0
LINE
  8
1
  5
56
  6
CONTINUOUS
 62
7
 10
240.0
 20
-119.5
 30
0.0
 11
240.0
 21
-133.0
 31
0.0
  0
LINE
  8
1
  5
58
  6
CONTINUOUS
 62
7
 10
240.0
 20
-119.5
 30
-15.0
 11
119.5
 21
-119.5
 31
-15.0
  0
LINE
  8
1
  5
5A
  6
CONTINUOUS
 62
7
 10
119.5
 20
-119.5
 30
0.0
 11
119.5
 21
-119.5
 31
-15.0
  0
LINE
  8
1
  5
5C
  6
CONTINUOUS
 62
7
 10
119.5
 20
-119.5
 30
0.0
 11
240.0
 21
-119.5
 31
0.0
  0
ARC
  8
1
  5
5E
  6
CONTINUOUS
 62
7
 210
0.0
 220
0.0
 230
-1.0
 10
-119.5
 20
-115.0
 30
15.0
 40
4.5
 50
270.0
 51
90.0
  0
LINE
  8
1
  5
60
  6
CONTINUOUS
 62
7
 10
119.5
 20
-110.5
 30
0.0
 11
119.5
 21
-110.5
 31
-15.0
  0
ARC
  8
1
  5
62
  6
CONTINUOUS
 62
7
 10
119.5
 20
-115.0
 30
9.331416E-015
 40
4.5
 50
90.0
 51
270.0
  0
LINE
  8
1
  5
64
  6
CONTINUOUS
 62
7
 10
119.5
 20
-110.5
 30
-15.0
 11
205.0
 21
-110.5
 31
-15.0
  0
LINE
  8
1
  5
66
  6
CONTINUOUS
 62
7
 10
205.0
 20
-110.5
 30
0.0
 11
205.0
 21
-110.5
 31
-15.0
  0
LINE
  8
1
  5
68
  6
CONTINUOUS
 62
7
 10
205.0
 20
-110.5
 30
0.0
 11
119.5
 21
-110.5
 31
0.0
  0
LINE
  8
1
  5
6A
  6
CONTINUOUS
 62
7
 10
205.0
 20
-110.5
 30
-15.0
 11
205.0
 21
-101.5
 31
-15.0
  0
LINE
  8
1
  5
6C
  6
CONTINUOUS
 62
7
 10
205.0
 20
-101.5
 30
0.0
 11
205.0
 21
-101.5
 31
-15.0
  0
LINE
  8
1
  5
6E
  6
CONTINUOUS
 62
7
 10
205.0
 20
-101.5
 30
0.0
 11
205.0
 21
-110.5
 31
0.0
  0
LINE
  8
1
  5
70
  6
CONTINUOUS
 62
7
 10
205.0
 20
-101.5
 30
-15.0
 11
189.5
 21
-101.5
 31
-15.0
  0
LINE
  8
1
  5
72
  6
CONTINUOUS
 62
7
 10
189.5
 20
-101.5
 30
0.0
 11
189.5
 21
-101.5
 31
-15.0
  0
LINE
  8
1
  5
74
  6
CONTINUOUS
 62
7
 10
189.5
 20
-101.5
 30
0.0
 11
205.0
 21
-101.5
 31
0.0
  0
ARC
  8
1
  5
76
  6
CONTINUOUS
 62
7
 210
0.0
 220
0.0
 230
-1.0
 10
-189.5
 20
-97.0
 30
15.0
 40
4.5
 50
270.0
 51
90.0
  0
LINE
  8
1
  5
78
  6
CONTINUOUS
 62
7
 10
189.5
 20
-92.5
 30
0.0
 11
189.5
 21
-92.5
 31
-15.0
  0
ARC
  8
1
  5
7A
  6
CONTINUOUS
 62
7
 10
189.5
 20
-97.0
 30
9.331416E-015
 40
4.5
 50
90.0
 51
270.0
  0
LINE
  8
1
  5
7C
  6
CONTINUOUS
 62
7
 10
189.5
 20
-92.5
 30
-15.0
 11
204.96786
 21
-92.5
 31
-15.0
  0
LINE
  8
1
  5
7E
  6
CONTINUOUS
 62
7
 10
204.96786
 20
-92.5
 30
0.0
 11
204.96786
 21
-92.5
 31
-15.0
  0
LINE
  8
1
  5
80
  6
CONTINUOUS
 62
7
 10
204.96786
 20
-92.5
 30
0.0
 11
189.5
 21
-92.5
 31
0.0
  0
ARC
  8
1
  5
82
  6
CONTINUOUS
 62
7
 10
204.967859
 20
-88.0
 30
-15.0
 40
4.5
 50
269.9999999534
 51
270.8184555089
  0
LINE
  8
1
  5
84
  6
CONTINUOUS
 62
7
 10
205.03214
 20
-92.49954
 30
0.0
 11
205.03214
 21
-92.49954
 31
-15.0
  0
ARC
  8
1
  5
86
  6
CONTINUOUS
 62
7
 210
0.0
 220
0.0
 230
-1.0
 10
-204.967859
 20
-88.0
 30
-9.331416E-015
 40
4.5
 50
269.1815444911
 51
270.0000000466
  0
LINE
  8
1
  5
88
  6
CONTINUOUS
 62
7
 10
205.03214
 20
-92.49954
 30
-15.0
 11
235.56428
 21
-92.06337
 31
-15.0
  0
LINE
  8
1
  5
8A
  6
CONTINUOUS
 62
7
 10
235.56428
 20
-92.06337
 30
0.0
 11
235.56428
 21
-92.06337
 31
-15.0
  0
LINE
  8
1
  5
8C
  6
CONTINUOUS
 62
7
 10
235.56428
 20
-92.06337
 30
0.0
 11
205.03214
 21
-92.49954
 31
0.0
  0
ARC
  8
1
  5
8E
  6
CONTINUOUS
 62
7
 10
235.5
 20
-87.563827
 30
-15.0
 40
4.5
 50
270.8184555556
 51
360.0
  0
LINE
  8
1
  5
90
  6
CONTINUOUS
 62
7
 10
240.0
 20
-87.56383
 30
0.0
 11
240.0
 21
-87.56383
 31
-15.0
  0
ARC
  8
1
  5
92
  6
CONTINUOUS
 62
7
 210
0.0
 220
0.0
 230
-1.0
 10
-235.5
 20
-87.563827
 30
-9.331416E-015
 40
4.5
 50
180.0
 51
269.1815444444
  0
LINE
  8
1
  5
94
  6
CONTINUOUS
 62
7
 10
240.0
 20
-87.56383
 30
-15.0
 11
240.0
 21
-77.43617
 31
-15.0
  0
LINE
  8
1
  5
96
  6
CONTINUOUS
 62
7
 10
240.0
 20
-77.43617
 30
0.0
 11
240.0
 21
-77.43617
 31
-15.0
  0
LINE
  8
1
  5
98
  6
CONTINUOUS
 62
7
 10
240.0
 20
-77.43617
 30
0.0
 11
240.0
 21
-87.56383
 31
0.0
  0
ARC
  8
1
  5
9A
  6
CONTINUOUS
 62
7
 10
235.5
 20
-77.436173
 30
-15.0
 40
4.5
 50
0.0
 51
89.1815444444
  0
LINE
  8
1
  5
9C
  6
CONTINUOUS
 62
7
 10
235.56428
 20
-72.93663
 30
0.0
 11
235.56428
 21
-72.93663
 31
-15.0
  0
ARC
  8
1
  5
9E
  6
CONTINUOUS
 62
7
 210
0.0
 220
0.0
 230
-1.0
 10
-235.5
 20
-77.436173
 30
-9.331416E-015
 40
4.5
 50
90.8184555556
 51
180.0
  0
LINE
  8
1
  5
A0
  6
CONTINUOUS
 62
7
 10
235.56428
 20
-72.93663
 30
-15.0
 11
205.03214
 21
-72.50046
 31
-15.0
  0
LINE
  8
1
  5
A2
  6
CONTINUOUS
 62
7
 10
205.03214
 20
-72.50046
 30
0.0
 11
205.03214
 21
-72.50046
 31
-15.0
  0
LINE
  8
1
  5
A4
  6
CONTINUOUS
 62
7
 10
205.03214
 20
-72.50046
 30
0.0
 11
235.56428
 21
-72.93663
 31
0.0
  0
ARC
  8
1
  5
A6
  6
CONTINUOUS
 62
7
 10
204.967859
 20
-77.0
 30
-15.0
 40
4.5
 50
89.1815444911
 51
90.0000000466
  0
LINE
  8
1
  5
A8
  6
CONTINUOUS
 62
7
 10
204.96786
 20
-72.5
 30
0.0
 11
204.96786
 21
-72.5
 31
-15.0
  0
ARC
  8
1
  5
AA
  6
CONTINUOUS
 62
7
 210
0.0
 220
0.0
 230
-1.0
 10
-204.967859
 20
-77.0
 30
-9.331416E-015
 40
4.5
 50
89.9999999534
 51
90.8184555089
  0
LINE
  8
1
  5
AC
  6
CONTINUOUS
 62
7
 10
204.96786
 20
-72.5
 30
-15.0
 11
189.5
 21
-72.5
 31
-15.0
  0
LINE
  8
1
  5
AE
  6
CONTINUOUS
 62
7
 10
189.5
 20
-72.5
 30
0.0
 11
189.5
 21
-72.5
 31
-15.0
  0
LINE
  8
1
  5
B0
  6
CONTINUOUS
 62
7
 10
189.5
 20
-72.5
 30
0.0
 11
204.96786
 21
-72.5
 31
0.0
  0
ARC
  8
1
  5
B2
  6
CONTINUOUS
 62
7
 210
0.0
 220
0.0
 230
-1.0
 10
-189.5
 20
-68.0
 30
15.0
 40
4.5
 50
270.0
 51
90.0
  0
LINE
  8
1
  5
B4
  6
CONTINUOUS
 62
7
 10
189.5
 20
-63.5
 30
0.0
 11
189.5
 21
-63.5
 31
-15.0
  0
ARC
  8
1
  5
B6
  6
CONTINUOUS
 62
7
 10
189.5
 20
-68.0
 30
9.331416E-015
 40
4.5
 50
90.0
 51
270.0
  0
LINE
  8
1
  5
B8
  6
CONTINUOUS
 62
7
 10
189.5
 20
-63.5
 30
-15.0
 11
205.0
 21
-63.5
 31
-15.0
  0
LINE
  8
1
  5
BA
  6
CONTINUOUS
 62
7
 10
205.0
 20
-63.5
 30
0.0
 11
205.0
 21
-63.5
 31
-15.0
  0
LINE
  8
1
  5
BC
  6
CONTINUOUS
 62
7
 10
205.0
 20
-63.5
 30
0.0
 11
189.5
 21
-63.5
 31
0.0
  0
LINE
  8
1
  5
BE
  6
CONTINUOUS
 62
7
 10
205.0
 20
-63.5
 30
-15.0
 11
205.0
 21
-54.5
 31
-15.0
  0
LINE
  8
1
  5
C0
  6
CONTINUOUS
 62
7
 10
205.0
 20
-54.5
 30
0.0
 11
205.0
 21
-54.5
 31
-15.0
  0
LINE
  8
1
  5
C2
  6
CONTINUOUS
 62
7
 10
205.0
 20
-54.5
 30
0.0
 11
205.0
 21
-63.5
 31
0.0
  0
LINE
  8
1
  5
C4
  6
CONTINUOUS
 62
7
 10
205.0
 20
-54.5
 30
-15.0
 11
119.5
 21
-54.5
 31
-15.0
  0
LINE
  8
1
  5
C6
  6
CONTINUOUS
 62
7
 10
119.5
 20
-54.5
 30
0.0
 11
119.5
 21
-54.5
 31
-15.0
  0
LINE
  8
1
  5
C8
  6
CONTINUOUS
 62
7
 10
119.5
 20
-54.5
 30
0.0
 11
205.0
 21
-54.5
 31
0.0
  0
ARC
  8
1
  5
CA
  6
CONTINUOUS
 62
7
 210
0.0
 220
0.0
 230
-1.0
 10
-119.5
 20
-50.0
 30
15.0
 40
4.5
 50
270.0
 51
90.0
  0
LINE
  8
1
  5
CC
  6
CONTINUOUS
 62
7
 10
119.5
 20
-45.5
 30
0.0
 11
119.5
 21
-45.5
 31
-15.0
  0
ARC
  8
1
  5
CE
  6
CONTINUOUS
 62
7
 10
119.5
 20
-50.0
 30
1.818989E-017
 40
4.5
 50
90.0
 51
270.0
  0
LINE
  8
1
  5
D0
  6
CONTINUOUS
 62
7
 10
119.5
 20
-45.5
 30
-15.0
 11
240.0
 21
-45.5
 31
-15.0
  0
LINE
  8
1
  5
D2
  6
CONTINUOUS
 62
7
 10
240.0
 20
-45.5
 30
0.0
 11
240.0
 21
-45.5
 31
-15.0
  0
LINE
  8
1
  5
D4
  6
CONTINUOUS
 62
7
 10
240.0
 20
-45.5
 30
0.0
 11
119.5
 21
-45.5
 31
0.0
  0
LINE
  8
1
  5
D6
  6
CONTINUOUS
 62
7
 10
240.0
 20
-45.5
 30
-15.0
 11
240.0
 21
-32.0
 31
-15.0
  0
LINE
  8
1
  5
D8
  6
CONTINUOUS
 62
7
 10
240.0
 20
-32.0
 30
0.0
 11
240.0
 21
-32.0
 31
-15.0
  0
LINE
  8
1
  5
DA
  6
CONTINUOUS
 62
7
 10
240.0
 20
-32.0
 30
0.0
 11
240.0
 21
-45.5
 31
0.0
  0
ARC
  8
1
  5
DC
  6
CONTINUOUS
 62
7
 10
235.5
 20
-32.0
 30
-15.0
 40
4.5
 50
0.0
 51
90.0
  0
LINE
  8
1
  5
DE
  6
CONTINUOUS
 62
7
 10
235.5
 20
-27.5
 30
0.0
 11
235.5
 21
-27.5
 31
-15.0
  0
ARC
  8
1
  5
E0
  6
CONTINUOUS
 62
7
 210
0.0
 220
0.0
 230
-1.0
 10
-235.5
 20
-32.0
 30
-4.674803E-015
 40
4.5
 50
90.0
 51
180.0
  0
LINE
  8
1
  5
E2
  6
CONTINUOUS
 62
7
 10
235.5
 20
-27.5
 30
-15.0
 11
220.0
 21
-27.5
 31
-15.0
  0
LINE
  8
1
  5
E4
  6
CONTINUOUS
 62
7
 10
220.0
 20
-27.5
 30
0.0
 11
220.0
 21
-27.5
 31
-15.0
  0
LINE
  8
1
  5
E6
  6
CONTINUOUS
 62
7
 10
220.0
 20
-27.5
 30
0.0
 11
235.5
 21
-27.5
 31
0.0
  0
LINE
  8
1
  5
E8
  6
CONTINUOUS
 62
7
 10
220.0
 20
-27.5
 30
-15.0
 11
220.0
 21
-32.0
 31
-15.0
  0
LINE
  8
1
  5
EA
  6
CONTINUOUS
 62
7
 10
220.0
 20
-32.0
 30
0.0
 11
220.0
 21
-32.0
 31
-15.0
  0
LINE
  8
1
  5
EC
  6
CONTINUOUS
 62
7
 10
220.0
 20
-32.0
 30
0.0
 11
220.0
 21
-27.5
 31
0.0
  0
ARC
  8
1
  5
EE
  6
CONTINUOUS
 62
7
 210
0.0
 220
0.0
 230
-1.0
 10
-215.5
 20
-32.0
 30
15.0
 40
4.5
 50
180.0
 51
270.0
  0
LINE
  8
1
  5
F0
  6
CONTINUOUS
 62
7
 10
215.5
 20
-36.5
 30
0.0
 11
215.5
 21
-36.5
 31
-15.0
  0
ARC
  8
1
  5
F2
  6
CONTINUOUS
 62
7
 10
215.5
 20
-32.0
 30
4.674803E-015
 40
4.5
 50
270.0
 51
360.0
  0
LINE
  8
1
  5
F4
  6
CONTINUOUS
 62
7
 10
215.5
 20
-36.5
 30
-15.0
 11
119.5
 21
-36.5
 31
-15.0
  0
LINE
  8
1
  5
F6
  6
CONTINUOUS
 62
7
 10
119.5
 20
-36.5
 30
0.0
 11
119.5
 21
-36.5
 31
-15.0
  0
LINE
  8
1
  5
F8
  6
CONTINUOUS
 62
7
 10
119.5
 20
-36.5
 30
0.0
 11
215.5
 21
-36.5
 31
0.0
  0
ARC
  8
1
  5
FA
  6
CONTINUOUS
 62
7
 210
0.0
 220
0.0
 230
-1.0
 10
-119.5
 20
-32.0
 30
15.0
 40
4.5
 50
270.0
 51
90.0
  0
LINE
  8
1
  5
FC
  6
CONTINUOUS
 62
7
 10
119.5
 20
-27.5
 30
0.0
 11
119.5
 21
-27.5
 31
-15.0
  0
ARC
  8
1
  5
FE
  6
CONTINUOUS
 62
7
 10
119.5
 20
-32.0
 30
1.818989E-017
 40
4.5
 50
90.0
 51
270.0
  0
LINE
  8
1
  5
100
  6
CONTINUOUS
 62
7
 10
119.5
 20
-27.5
 30
-15.0
 11
205.0
 21
-27.5
 31
-15.0
  0
LINE
  8
1
  5
102
  6
CONTINUOUS
 62
7
 10
205.0
 20
-27.5
 30
0.0
 11
205.0
 21
-27.5
 31
-15.0
  0
LINE
  8
1
  5
104
  6
CONTINUOUS
 62
7
 10
205.0
 20
-27.5
 30
0.0
 11
119.5
 21
-27.5
 31
0.0
  0
LINE
  8
1
  5
106
  6
CONTINUOUS
 62
7
 10
205.0
 20
-27.5
 30
-15.0
 11
205.0
 21
0.0
 31
-15.0
  0
LINE
  8
1
  5
108
  6
CONTINUOUS
 62
7
 10
205.0
 20
0.0
 30
0.0
 11
205.0
 21
0.0
 31
-15.0
  0
LINE
  8
1
  5
10A
  6
CONTINUOUS
 62
7
 10
205.0
 20
0.0
 30
0.0
 11
205.0
 21
-27.5
 31
0.0
  0
LINE
  8
1
  5
10C
  6
CONTINUOUS
 62
7
 10
205.0
 20
0.0
 30
-15.0
 11
0.0
 21
0.0
 31
-15.0
  0
LINE
  8
1
  5
10E
  6
CONTINUOUS
 62
7
 10
0.0
 20
0.0
 30
0.0
 11
0.0
 21
0.0
 31
-15.0
  0
LINE
  8
1
  5
110
  6
CONTINUOUS
 62
7
 10
0.0
 20
0.0
 30
0.0
 11
205.0
 21
0.0
 31
0.0
  0
LINE
  8
1
  5
112
  6
CONTINUOUS
 62
7
 10
0.0
 20
0.0
 30
-15.0
 11
0.0
 21
-165.0
 31
-15.0
  0
LINE
  8
1
  5
114
  6
CONTINUOUS
 62
7
 10
0.0
 20
-165.0
 30
0.0
 11
0.0
 21
-165.0
 31
-15.0
  0
LINE
  8
1
  5
116
  6
CONTINUOUS
 62
7
 10
0.0
 20
-165.0
 30
0.0
 11
0.0
 21
0.0
 31
0.0
  0
LINE
  8
1
  5
118
  6
CONTINUOUS
 62
7
 10
0.0
 20
-165.0
 30
-15.0
 11
205.0
 21
-165.0
 31
-15.0
  0
LINE
  8
1
  5
11A
  6
CONTINUOUS
 62
7
 10
205.0
 20
-165.0
 30
0.0
 11
0.0
 21
-165.0
 31
0.0
  0
ENDBLK
  8
1
  5
11B
  0
BLOCK
  8
1
  5
11D
 70
1
 10
0.0
 20
0.0
 30
0.0
  2
*M1
  3
*M1
  0
LINE
  8
1
  5
11F
  6
CONTINUOUS
 62
7
 10
-430.5
 20
133.0
 30
0.0
 11
-430.5
 21
133.0
 31
-15.0
  0
LINE
  8
1
  5
121
  6
CONTINUOUS
 62
7
 10
-435.0
 20
128.5
 30
0.0
 11
-435.0
 21
128.5
 31
-15.0
  0
LINE
  8
1
  5
123
  6
CONTINUOUS
 62
7
 10
-409.5
 20
124.0
 30
0.0
 11
-409.5
 21
124.0
 31
-15.0
  0
LINE
  8
1
  5
125
  6
CONTINUOUS
 62
7
 10
-405.0
 20
128.5
 30
0.0
 11
-405.0
 21
128.5
 31
-15.0
  0
LINE
  8
1
  5
127
  6
CONTINUOUS
 62
7
 10
-405.0
 20
36.5
 30
0.0
 11
-405.0
 21
36.5
 31
-15.0
  0
LINE
  8
1
  5
129
  6
CONTINUOUS
 62
7
 10
-409.5
 20
32.0
 30
0.0
 11
-409.5
 21
32.0
 31
-15.0
  0
LINE
  8
1
  5
12B
  6
CONTINUOUS
 62
7
 10
-435.0
 20
36.5
 30
0.0
 11
-435.0
 21
36.5
 31
-15.0
  0
LINE
  8
1
  5
12D
  6
CONTINUOUS
 62
7
 10
-430.5
 20
41.0
 30
0.0
 11
-430.5
 21
41.0
 31
-15.0
  0
LINE
  8
1
  5
12F
  6
CONTINUOUS
 62
7
 10
-300.0
 20
0.0
 30
-15.0
 11
-300.0
 21
165.0
 31
-15.0
  0
LINE
  8
1
  5
131
  6
CONTINUOUS
 62
7
 10
-300.0
 20
165.0
 30
0.0
 11
-300.0
 21
165.0
 31
-15.0
  0
LINE
  8
1
  5
133
  6
CONTINUOUS
 62
7
 10
-300.0
 20
165.0
 30
0.0
 11
-300.0
 21
0.0
 31
0.0
  0
LINE
  8
1
  5
135
  6
CONTINUOUS
 62
7
 10
-300.0
 20
0.0
 30
0.0
 11
-300.0
 21
0.0
 31
-15.0
  0
LINE
  8
1
  5
137
  6
CONTINUOUS
 62
7
 10
-300.0
 20
165.0
 30
-15.0
 11
-540.0
 21
165.0
 31
-15.0
  0
LINE
  8
1
  5
139
  6
CONTINUOUS
 62
7
 10
-540.0
 20
165.0
 30
0.0
 11
-540.0
 21
165.0
 31
-15.0
  0
LINE
  8
1
  5
13B
  6
CONTINUOUS
 62
7
 10
-540.0
 20
165.0
 30
0.0
 11
-300.0
 21
165.0
 31
0.0
  0
LINE
  8
1
  5
13D
  6
CONTINUOUS
 62
7
 10
-540.0
 20
165.0
 30
-15.0
 11
-540.0
 21
0.0
 31
-15.0
  0
LINE
  8
1
  5
13F
  6
CONTINUOUS
 62
7
 10
-540.0
 20
0.0
 30
0.0
 11
-540.0
 21
0.0
 31
-15.0
  0
LINE
  8
1
  5
141
  6
CONTINUOUS
 62
7
 10
-540.0
 20
0.0
 30
0.0
 11
-540.0
 21
165.0
 31
0.0
  0
LINE
  8
1
  5
143
  6
CONTINUOUS
 62
7
 10
-540.0
 20
0.0
 30
-15.0
 11
-300.0
 21
0.0
 31
-15.0
  0
LINE
  8
1
  5
145
  6
CONTINUOUS
 62
7
 10
-300.0
 20
0.0
 30
0.0
 11
-540.0
 21
0.0
 31
0.0
  0
LINE
  8
1
  5
147
  6
CONTINUOUS
 62
7
 10
-412.5
 20
124.0
 30
-15.0
 11
-412.5
 21
115.0
 31
-15.0
  0
LINE
  8
1
  5
149
  6
CONTINUOUS
 62
7
 10
-412.5
 20
115.0
 30
0.0
 11
-412.5
 21
115.0
 31
-15.0
  0
LINE
  8
1
  5
14B
  6
CONTINUOUS
 62
7
 10
-412.5
 20
115.0
 30
0.0
 11
-412.5
 21
124.0
 31
0.0
  0
LINE
  8
1
  5
14D
  6
CONTINUOUS
 62
7
 10
-412.5
 20
124.0
 30
0.0
 11
-412.5
 21
124.0
 31
-15.0
  0
ARC
  8
1
  5
14F
  6
CONTINUOUS
 62
7
 210
0.0
 220
0.0
 230
-1.0
 10
417.0
 20
115.0
 30
15.0
 40
4.5
 50
180.0
 51
270.0
  0
LINE
  8
1
  5
151
  6
CONTINUOUS
 62
7
 10
-417.0
 20
110.5
 30
0.0
 11
-417.0
 21
110.5
 31
-15.0
  0
ARC
  8
1
  5
153
  6
CONTINUOUS
 62
7
 10
-417.0
 20
115.0
 30
3.261448E-014
 40
4.5
 50
270.0
 51
360.0
  0
LINE
  8
1
  5
155
  6
CONTINUOUS
 62
7
 10
-417.0
 20
110.5
 30
-15.0
 11
-423.0
 21
110.5
 31
-15.0
  0
LINE
  8
1
  5
157
  6
CONTINUOUS
 62
7
 10
-423.0
 20
110.5
 30
0.0
 11
-423.0
 21
110.5
 31
-15.0
  0
LINE
  8
1
  5
159
  6
CONTINUOUS
 62
7
 10
-423.0
 20
110.5
 30
0.0
 11
-417.0
 21
110.5
 31
0.0
  0
ARC
  8
1
  5
15B
  6
CONTINUOUS
 62
7
 210
0.0
 220
0.0
 230
-1.0
 10
423.0
 20
115.0
 30
15.0
 40
4.5
 50
270.0
 51
360.0
  0
LINE
  8
1
  5
15D
  6
CONTINUOUS
 62
7
 10
-427.5
 20
115.0
 30
0.0
 11
-427.5
 21
115.0
 31
-15.0
  0
ARC
  8
1
  5
15F
  6
CONTINUOUS
 62
7
 10
-423.0
 20
115.0
 30
3.261448E-014
 40
4.5
 50
180.0
 51
270.0
  0
LINE
  8
1
  5
161
  6
CONTINUOUS
 62
7
 10
-427.5
 20
115.0
 30
-15.0
 11
-427.5
 21
124.0
 31
-15.0
  0
LINE
  8
1
  5
163
  6
CONTINUOUS
 62
7
 10
-427.5
 20
124.0
 30
0.0
 11
-427.5
 21
124.0
 31
-15.0
  0
LINE
  8
1
  5
165
  6
CONTINUOUS
 62
7
 10
-427.5
 20
124.0
 30
0.0
 11
-427.5
 21
115.0
 31
0.0
  0
LINE
  8
1
  5
167
  6
CONTINUOUS
 62
7
 10
-427.5
 20
124.0
 30
-15.0
 11
-430.5
 21
124.0
 31
-15.0
  0
LINE
  8
1
  5
169
  6
CONTINUOUS
 62
7
 10
-430.5
 20
124.0
 30
0.0
 11
-430.5
 21
124.0
 31
-15.0
  0
LINE
  8
1
  5
16B
  6
CONTINUOUS
 62
7
 10
-430.5
 20
124.0
 30
0.0
 11
-427.5
 21
124.0
 31
0.0
  0
ARC
  8
1
  5
16D
  6
CONTINUOUS
 62
7
 210
0.0
 220
0.0
 230
-1.0
 10
430.5
 20
128.5
 30
15.0
 40
4.5
 50
270.0
 51
90.0
  0
LINE
  8
1
  5
16F
  6
CONTINUOUS
 62
7
 10
-430.5
 20
133.0
 30
0.0
 11
-430.5
 21
133.0
 31
-15.0
  0
ARC
  8
1
  5
171
  6
CONTINUOUS
 62
7
 10
-430.5
 20
128.5
 30
3.261448E-014
 40
4.5
 50
90.0
 51
270.0
  0
LINE
  8
1
  5
173
  6
CONTINUOUS
 62
7
 10
-430.5
 20
133.0
 30
-15.0
 11
-409.5
 21
133.0
 31
-15.0
  0
LINE
  8
1
  5
175
  6
CONTINUOUS
 62
7
 10
-409.5
 20
133.0
 30
0.0
 11
-409.5
 21
133.0
 31
-15.0
  0
LINE
  8
1
  5
177
  6
CONTINUOUS
 62
7
 10
-409.5
 20
133.0
 30
0.0
 11
-430.5
 21
133.0
 31
0.0
  0
ARC
  8
1
  5
179
  6
CONTINUOUS
 62
7
 210
0.0
 220
0.0
 230
-1.0
 10
409.5
 20
128.5
 30
15.0
 40
4.5
 50
90.0
 51
270.0
  0
LINE
  8
1
  5
17B
  6
CONTINUOUS
 62
7
 10
-409.5
 20
124.0
 30
0.0
 11
-409.5
 21
124.0
 31
-15.0
  0
ARC
  8
1
  5
17D
  6
CONTINUOUS
 62
7
 10
-409.5
 20
128.5
 30
3.261448E-014
 40
4.5
 50
270.0
 51
90.0
  0
LINE
  8
1
  5
17F
  6
CONTINUOUS
 62
7
 10
-409.5
 20
124.0
 30
-15.0
 11
-412.5
 21
124.0
 31
-15.0
  0
LINE
  8
1
  5
181
  6
CONTINUOUS
 62
7
 10
-412.5
 20
124.0
 30
0.0
 11
-409.5
 21
124.0
 31
0.0
  0
LINE
  8
1
  5
183
  6
CONTINUOUS
 62
7
 10
-430.5
 20
92.5
 30
-15.0
 11
-409.5
 21
92.5
 31
-15.0
  0
LINE
  8
1
  5
185
  6
CONTINUOUS
 62
7
 10
-409.5
 20
92.5
 30
0.0
 11
-409.5
 21
92.5
 31
-15.0
  0
LINE
  8
1
  5
187
  6
CONTINUOUS
 62
7
 10
-409.5
 20
92.5
 30
0.0
 11
-430.5
 21
92.5
 31
0.0
  0
LINE
  8
1
  5
189
  6
CONTINUOUS
 62
7
 10
-430.5
 20
92.5
 30
0.0
 11
-430.5
 21
92.5
 31
-15.0
  0
ARC
  8
1
  5
18B
  6
CONTINUOUS
 62
7
 210
0.0
 220
0.0
 230
-1.0
 10
409.5
 20
88.0
 30
15.0
 40
4.5
 50
90.0
 51
180.0
  0
LINE
  8
1
  5
18D
  6
CONTINUOUS
 62
7
 10
-405.0
 20
88.0
 30
0.0
 11
-405.0
 21
88.0
 31
-15.0
  0
ARC
  8
1
  5
18F
  6
CONTINUOUS
 62
7
 10
-409.5
 20
88.0
 30
3.727109E-014
 40
4.5
 50
360.0
 51
90.0
  0
LINE
  8
1
  5
191
  6
CONTINUOUS
 62
7
 10
-405.0
 20
88.0
 30
-15.0
 11
-405.0
 21
77.0
 31
-15.0
  0
LINE
  8
1
  5
193
  6
CONTINUOUS
 62
7
 10
-405.0
 20
77.0
 30
0.0
 11
-405.0
 21
77.0
 31
-15.0
  0
LINE
  8
1
  5
195
  6
CONTINUOUS
 62
7
 10
-405.0
 20
77.0
 30
0.0
 11
-405.0
 21
88.0
 31
0.0
  0
ARC
  8
1
  5
197
  6
CONTINUOUS
 62
7
 210
0.0
 220
0.0
 230
-1.0
 10
409.5
 20
77.0
 30
15.0
 40
4.5
 50
180.0
 51
270.0
  0
LINE
  8
1
  5
199
  6
CONTINUOUS
 62
7
 10
-409.5
 20
72.5
 30
0.0
 11
-409.5
 21
72.5
 31
-15.0
  0
ARC
  8
1
  5
19B
  6
CONTINUOUS
 62
7
 10
-409.5
 20
77.0
 30
3.727109E-014
 40
4.5
 50
270.0
 51
360.0
  0
LINE
  8
1
  5
19D
  6
CONTINUOUS
 62
7
 10
-409.5
 20
72.5
 30
-15.0
 11
-430.5
 21
72.5
 31
-15.0
  0
LINE
  8
1
  5
19F
  6
CONTINUOUS
 62
7
 10
-430.5
 20
72.5
 30
0.0
 11
-430.5
 21
72.5
 31
-15.0
  0
LINE
  8
1
  5
1A1
  6
CONTINUOUS
 62
7
 10
-430.5
 20
72.5
 30
0.0
 11
-409.5
 21
72.5
 31
0.0
  0
ARC
  8
1
  5
1A3
  6
CONTINUOUS
 62
7
 210
0.0
 220
0.0
 230
-1.0
 10
430.5
 20
77.0
 30
15.0
 40
4.5
 50
270.0
 51
360.0
  0
LINE
  8
1
  5
1A5
  6
CONTINUOUS
 62
7
 10
-435.0
 20
77.0
 30
0.0
 11
-435.0
 21
77.0
 31
-15.0
  0
ARC
  8
1
  5
1A7
  6
CONTINUOUS
 62
7
 10
-430.5
 20
77.0
 30
3.727109E-014
 40
4.5
 50
180.0
 51
270.0
  0
LINE
  8
1
  5
1A9
  6
CONTINUOUS
 62
7
 10
-435.0
 20
77.0
 30
-15.0
 11
-435.0
 21
88.0
 31
-15.0
  0
LINE
  8
1
  5
1AB
  6
CONTINUOUS
 62
7
 10
-435.0
 20
88.0
 30
0.0
 11
-435.0
 21
88.0
 31
-15.0
  0
LINE
  8
1
  5
1AD
  6
CONTINUOUS
 62
7
 10
-435.0
 20
88.0
 30
0.0
 11
-435.0
 21
77.0
 31
0.0
  0
ARC
  8
1
  5
1AF
  6
CONTINUOUS
 62
7
 210
0.0
 220
0.0
 230
-1.0
 10
430.5
 20
88.0
 30
15.0
 40
4.5
 50
0.0
 51
90.0
  0
ARC
  8
1
  5
1B1
  6
CONTINUOUS
 62
7
 10
-430.5
 20
88.0
 30
3.727109E-014
 40
4.5
 50
90.0
 51
180.0
  0
LINE
  8
1
  5
1B3
  6
CONTINUOUS
 62
7
 10
-412.5
 20
41.0
 30
-15.0
 11
-409.5
 21
41.0
 31
-15.0
  0
LINE
  8
1
  5
1B5
  6
CONTINUOUS
 62
7
 10
-409.5
 20
41.0
 30
0.0
 11
-409.5
 21
41.0
 31
-15.0
  0
LINE
  8
1
  5
1B7
  6
CONTINUOUS
 62
7
 10
-409.5
 20
41.0
 30
0.0
 11
-412.5
 21
41.0
 31
0.0
  0
LINE
  8
1
  5
1B9
  6
CONTINUOUS
 62
7
 10
-412.5
 20
41.0
 30
0.0
 11
-412.5
 21
41.0
 31
-15.0
  0
ARC
  8
1
  5
1BB
  6
CONTINUOUS
 62
7
 210
0.0
 220
0.0
 230
-1.0
 10
409.5
 20
36.5
 30
15.0
 40
4.5
 50
90.0
 51
270.0
  0
LINE
  8
1
  5
1BD
  6
CONTINUOUS
 62
7
 10
-409.5
 20
32.0
 30
0.0
 11
-409.5
 21
32.0
 31
-15.0
  0
ARC
  8
1
  5
1BF
  6
CONTINUOUS
 62
7
 10
-409.5
 20
36.5
 30
3.727109E-014
 40
4.5
 50
270.0
 51
90.0
  0
LINE
  8
1
  5
1C1
  6
CONTINUOUS
 62
7
 10
-409.5
 20
32.0
 30
-15.0
 11
-430.5
 21
32.0
 31
-15.0
  0
LINE
  8
1
  5
1C3
  6
CONTINUOUS
 62
7
 10
-430.5
 20
32.0
 30
0.0
 11
-430.5
 21
32.0
 31
-15.0
  0
LINE
  8
1
  5
1C5
  6
CONTINUOUS
 62
7
 10
-430.5
 20
32.0
 30
0.0
 11
-409.5
 21
32.0
 31
0.0
  0
ARC
  8
1
  5
1C7
  6
CONTINUOUS
 62
7
 210
0.0
 220
0.0
 230
-1.0
 10
430.5
 20
36.5
 30
15.0
 40
4.5
 50
270.0
 51
90.0
  0
LINE
  8
1
  5
1C9
  6
CONTINUOUS
 62
7
 10
-430.5
 20
41.0
 30
0.0
 11
-430.5
 21
41.0
 31
-15.0
  0
ARC
  8
1
  5
1CB
  6
CONTINUOUS
 62
7
 10
-430.5
 20
36.5
 30
3.727109E-014
 40
4.5
 50
90.0
 51
270.0
  0
LINE
  8
1
  5
1CD
  6
CONTINUOUS
 62
7
 10
-430.5
 20
41.0
 30
-15.0
 11
-427.5
 21
41.0
 31
-15.0
  0
LINE
  8
1
  5
1CF
  6
CONTINUOUS
 62
7
 10
-427.5
 20
41.0
 30
0.0
 11
-427.5
 21
41.0
 31
-15.0
  0
LINE
  8
1
  5
1D1
  6
CONTINUOUS
 62
7
 10
-427.5
 20
41.0
 30
0.0
 11
-430.5
 21
41.0
 31
0.0
  0
LINE
  8
1
  5
1D3
  6
CONTINUOUS
 62
7
 10
-427.5
 20
41.0
 30
-15.0
 11
-427.5
 21
50.0
 31
-15.0
  0
LINE
  8
1
  5
1D5
  6
CONTINUOUS
 62
7
 10
-427.5
 20
50.0
 30
0.0
 11
-427.5
 21
50.0
 31
-15.0
  0
LINE
  8
1
  5
1D7
  6
CONTINUOUS
 62
7
 10
-427.5
 20
50.0
 30
0.0
 11
-427.5
 21
41.0
 31
0.0
  0
ARC
  8
1
  5
1D9
  6
CONTINUOUS
 62
7
 210
0.0
 220
0.0
 230
-1.0
 10
423.0
 20
50.0
 30
15.0
 40
4.5
 50
0.0
 51
90.0
  0
LINE
  8
1
  5
1DB
  6
CONTINUOUS
 62
7
 10
-423.0
 20
54.5
 30
0.0
 11
-423.0
 21
54.5
 31
-15.0
  0
ARC
  8
1
  5
1DD
  6
CONTINUOUS
 62
7
 10
-423.0
 20
50.0
 30
3.727109E-014
 40
4.5
 50
90.0
 51
180.0
  0
LINE
  8
1
  5
1DF
  6
CONTINUOUS
 62
7
 10
-423.0
 20
54.5
 30
-15.0
 11
-417.0
 21
54.5
 31
-15.0
  0
LINE
  8
1
  5
1E1
  6
CONTINUOUS
 62
7
 10
-417.0
 20
54.5
 30
0.0
 11
-417.0
 21
54.5
 31
-15.0
  0
LINE
  8
1
  5
1E3
  6
CONTINUOUS
 62
7
 10
-417.0
 20
54.5
 30
0.0
 11
-423.0
 21
54.5
 31
0.0
  0
ARC
  8
1
  5
1E5
  6
CONTINUOUS
 62
7
 210
0.0
 220
0.0
 230
-1.0
 10
417.0
 20
50.0
 30
15.0
 40
4.5
 50
90.0
 51
180.0
  0
LINE
  8
1
  5
1E7
  6
CONTINUOUS
 62
7
 10
-412.5
 20
50.0
 30
0.0
 11
-412.5
 21
50.0
 31
-15.0
  0
ARC
  8
1
  5
1E9
  6
CONTINUOUS
 62
7
 10
-417.0
 20
50.0
 30
3.727109E-014
 40
4.5
 50
360.0
 51
90.0
  0
LINE
  8
1
  5
1EB
  6
CONTINUOUS
 62
7
 10
-412.5
 20
50.0
 30
-15.0
 11
-412.5
 21
41.0
 31
-15.0
  0
LINE
  8
1
  5
1ED
  6
CONTINUOUS
 62
7
 10
-412.5
 20
41.0
 30
0.0
 11
-412.5
 21
50.0
 31
0.0
  0
ENDBLK
  8
1
  5
1EE
  0
ENDSEC
  0
SECTION
  2
ENTITIES
  0
INSERT
  8
1
  5
2
  6
CONTINUOUS
 62
7
  2
*M0
 10
25.81542
 20
121.73266
 30
-0.12035
 41
1.0
 42
1.0
 43
1.0
 70
1
 71
1
  0
INSERT
  8
1
  5
4
  6
CONTINUOUS
 62
7
  2
*M1
 10
855.81542
 20
-43.26734
 30
-0.12035
 41
1.0
 42
1.0
 43
1.0
 70
1
 71
1
  0
ENDSEC
  0
EOF
