  0
SECTION
  2
HEADER
  9
$ACADVER
  1
AC1009
  9
$INSBASE
 10
0.0
 20
0.0
 30
0.0
  9
$EXTMAX
 10
344.72517
 20
240.0
 30
-83.53056
  9
$EXTMIN
 10
-35.27449
 20
0.0
 30
-98.53057
  9
$LIMMAX
 10
12.0
 20
9.0
  9
$LIMMIN
 10
0.0
 20
0.0
  9
$ORTHOMODE
 70
0
  9
$REGENMODE
 70
1
  9
$FILLMODE
 70
1
  9
$QTEXTMODE
 70
0
  9
$MIRRTEXT
 70
1
  9
$DRAGMODE
 70
2
  9
$LTSCALE
 40
1.0
  9
$OSMODE
 70
0
  9
$ATTMODE
 70
1
  9
$TEXTSIZE
 40
0.2
  9
$TRACEWID
 40
0.05
  9
$TEXTSTYLE
  7
STANDARD
  9
$CLAYER
  8
0
  9
$CELTYPE
  6
CONTINUOUS
  9
$CECOLOR
 62
256
  9
$DIMSCALE
 40
1.0
  9
$DIMASZ
 40
0.18
  9
$DIMEXO
 40
0.0625
  9
$DIMDLI
 40
0.38
  9
$DIMRND
 40
0.0
  9
$DIMDLE
 40
0.0
  9
$DIMEXE
 40
0.18
  9
$DIMTP
 40
0.0
  9
$DIMTM
 40
0.0
  9
$DIMTXT
 40
0.18
  9
$DIMCEN
 40
0.09
  9
$DIMTSZ
 40
0.0
  9
$DIMTOL
 70
0
  9
$DIMLIM
 70
0
  9
$DIMTIH
 70
1
  9
$DIMTOH
 70
1
  9
$DIMSE1
 70
0
  9
$DIMSE2
 70
0
  9
$DIMTAD
 70
0
  9
$DIMZIN
 70
0
  9
$DIMBLK
  1

  9
$DIMASO
 70
1
  9
$DIMSHO
 70
1
  9
$DIMPOST
  1

  9
$DIMAPOST
  1

  9
$DIMALT
 70
0
  9
$DIMALTD
 70
2
  9
$DIMALTF
 40
25.4
  9
$DIMLFAC
 40
1.0
  9
$DIMTOFL
 70
0
  9
$DIMTVP
 40
0.0
  9
$DIMTIX
 70
0
  9
$DIMSOXD
 70
0
  9
$DIMSAH
 70
0
  9
$DIMBLK1
  1

  9
$DIMBLK2
  1

  9
$DIMSTYLE
  2
*UNNAMED
  9
$DIMCLRD
 70
0
  9
$DIMCLRE
 70
0
  9
$DIMCLRT
 70
0
  9
$DIMTFAC
 40
1.0
  9
$DIMGAP
 40
0.09
  9
$LUNITS
 70
2
  9
$LUPREC
 70
4
  9
$AXISMODE
 70
0
  9
$AXISUNIT
 10
0.0
 20
0.0
  9
$SKETCHINC
 40
0.1
  9
$FILLETRAD
 40
0.0
  9
$AUNITS
 70
0
  9
$AUPREC
 70
0
  9
$MENU
  1
acad
  9
$ELEVATION
 40
0.0
  9
$PELEVATION
 40
0.0
  9
$THICKNESS
 40
0.0
  9
$LIMCHECK
 70
0
  9
$BLIPMODE
 70
1
  9
$CHAMFERA
 40
0.0
  9
$CHAMFERB
 40
0.0
  9
$SKPOLY
 70
0
  9
$TDCREATE
 40
0.0
  9
$TDUPDATE
 40
0.0
  9
$TDINDWG
 40
0.0
  9
$TDUSRTIMER
 40
0.0
  9
$USRTIMER
 70
1
  9
$ANGBASE
 50
0.0
  9
$ANGDIR
 70
0
  9
$PDMODE
 70
0
  9
$PDSIZE
 40
0.0
  9
$PLINEWID
 40
0.0
  9
$COORDS
 70
0
  9
$SPLFRAME
 70
0
  9
$SPLINETYPE
 70
6
  9
$SPLINESEGS
 70
10
  9
$ATTDIA
 70
0
  9
$ATTREQ
 70
1
  9
$HANDLING
 70
1
  9
$HANDSEED
  5
223
  9
$SURFTAB1
 70
6
  9
$SURFTAB2
 70
6
  9
$SURFTYPE
 70
6
  9
$SURFU
 70
10
  9
$SURFV
 70
10
  9
$UCSNAME
  2

  9
$UCSORG
 10
0.0
 20
0.0
 30
0.0
  9
$UCSXDIR
 10
1.0
 20
0.0
 30
0.0
  9
$UCSYDIR
 10
0.0
 20
1.0
 30
0.0
  9
$PUCSNAME
  2
 
  9
$PUCSORG
 10
0.0
 20
0.0
 30
0.0
  9
$PUCSXDIR
 10
1.0
 20
0.0
 30
0.0
  9
$PUCSYDIR
 10
0.0
 20
1.0
 30
0.0
  9
$USERI1
 70
0
  9
$USERI2
 70
0
  9
$USERI3
 70
0
  9
$USERI4
 70
0
  9
$USERI5
 70
0
  9
$USERR1
 40
0.0
  9
$USERR2
 40
0.0
  9
$USERR3
 40
0.0
  9
$USERR4
 40
0.0
  9
$USERR5
 40
0.0
  9
$WORLDVIEW
 70
1
  9
$SHADEDGE
 70
3
  9
$SHADEDIF
 70
70
  9
$TILEMODE
 70
1
  9
$MAXACTVP
 70
16
  9
$PINSBASE
 10
0.0
 20
0.0
 30
0.0
  9
$PLIMCHECK
 70
0
  9
$PEXTMIN
 10
-1.000000E+020
 20
-1.000000E+020
 30
-1.000000E+020
  9
$PEXTMAX
 10
-1.000000E+020
 20
-1.000000E+020
 30
-1.000000E+020
  9
$PLIMMIN
 10
0.0
 20
0.0
  9
$PLIMMAX
 10
12.0
 20
9.0
  9
$UNITMODE
 70
0
  9
$VISRETAIN
 70
0
  0
ENDSEC
  0
SECTION
  2
TABLES
  0
TABLE
  2
LTYPE
 70
7
  0
LTYPE
  2
CONTINUOUS
 70
64
  3
Solid line
 72
65
 73
0
 40
0.0
  0
LTYPE
  2
DOT
 70
64
  3
. . . . . . . . . . . . . . . . . . . . . . . . . . . . . . . . .
 72
65
 73
2
 40
0.25
 49
0.0
 49
-0.25
  0
LTYPE
  2
HIDDEN
 70
64
  3
__ __ __ __ __ __ __ __ __ __ __ __ __ __ __ __ __ __ __ __ __ 
 72
65
 73
2
 40
0.375
 49
0.25
 49
-0.125
  0
LTYPE
  2
DASHED
 70
64
  3
__ __ __ __ __ __ __ __ __ __ __ __ __ __ __ __ __ __ __ __ __
 72
65
 73
2
 40
0.75
 49
0.5
 49
-0.25
  0
LTYPE
  2
DASHDOT
 70
64
  3
__ . __ . __ . __ . __ . __ . __ . __ . __ . __ . __ . __ . _
 72
65
 73
4
 40
1.0
 49
0.5
 49
-0.25
 49
0.0
 49
-0.25
  0
LTYPE
  2
DIVIDE
 70
64
  3
____ . . ____ . . ____ . . ____ . . ____ . . ____ . . ____ . .
 72
65
 73
6
 40
1.25
 49
0.5
 49
-0.25
 49
0.0
 49
-0.25
 49
0.0
 49
-0.25
  0
LTYPE
  2
CENTER
 70
64
  3
____ _ ____ _ ____ _ ____ _ ____ _ ____ _ ____ _ ____ _ ____ _
 72
65
 73
4
 40
2.0
 49
1.25
 49
-0.25
 49
0.25
 49
-0.25
  0
ENDTAB
  0
TABLE
  2
APPID
 70
1
  0
APPID
  2
ACAD
 70
0
  0
ENDTAB
  0
TABLE
  2
DIMSTYLE
 70
0
  0
ENDTAB
  0
TABLE
  2
LAYER
 70
4
  0
LAYER
  2
0
 70
0
 62
7
  6
CONTINUOUS
  0
LAYER
  2
CONSTRUCTION_CLASS
 70
0
 62
7
  6
CONTINUOUS
  0
LAYER
  2
PATTERN_CLASS
 70
0
 62
7
  6
CONTINUOUS
  0
LAYER
  2
1
 70
0
 62
7
  6
CONTINUOUS
  0
ENDTAB
  0
TABLE
  2
STYLE
 70
1
  0
STYLE
  2
STANDARD
 70
0
 40
0.2
 41
1.0
 50
0.0
 71
0
 42
0.0
  3
txt
  4

  0
ENDTAB
  0
TABLE
  2
UCS
 70
0
  0
ENDTAB
  0
TABLE
  2
VIEW
 70
0
  0
ENDTAB
  0
TABLE
  2
VPORT
 70
4
  0
VPORT
  2
*ACTIVE
 70
0
 10
0.500821
 20
0.50171
 11
0.998358
 21
0.997719
 12
-2.842171E-014
 22
0.0
 13
0.0
 23
0.0
 14
0.0
 24
0.0
 15
0.0
 25
0.0
 16
0.0
 26
-1.614972E-015
 36
26.37536
 17
138.663686
 27
120.000005
 37
-91.03056
 40
256.53253
 41
1.393103
 42
50.0
 43
13.18768
 44
-13.18768
 50
0.0
 51
0.0
 71
22
 72
100
 73
1
 74
0
 75
0
 76
0
 77
0
 78
0
  0
VPORT
  2
*ACTIVE
 70
0
 10
0.001642
 20
0.50171
 11
0.499179
 21
0.997719
 12
-7.844022E-009
 22
1.117053E-008
 13
0.0
 23
0.0
 14
0.0
 24
0.0
 15
0.0
 25
0.0
 16
-219.243557
 26
-219.243557
 36
219.243557
 17
141.622408
 27
133.102932
 37
-91.030564
 40
295.96182
 41
1.393103
 42
50.0
 43
189.87049
 44
-189.87049
 50
0.0
 51
0.0
 71
22
 72
100
 73
1
 74
0
 75
0
 76
0
 77
0
 78
0
  0
VPORT
  2
*ACTIVE
 70
0
 10
0.001642
 20
0.003421
 11
0.499179
 21
0.49943
 12
0.0
 22
0.0
 13
0.0
 23
0.0
 14
0.0
 24
0.0
 15
0.0
 25
0.0
 16
0.0
 26
-251.37534
 36
0.0
 17
138.663686
 27
120.0
 37
-91.030565
 40
256.53253
 41
1.393103
 42
50.0
 43
125.68767
 44
-125.68767
 50
0.0
 51
0.0
 71
22
 72
100
 73
1
 74
0
 75
0
 76
0
 77
0
 78
0
  0
VPORT
  2
*ACTIVE
 70
0
 10
0.500821
 20
0.003421
 11
0.998358
 21
0.49943
 12
0.0
 22
0.0
 13
0.0
 23
0.0
 14
0.0
 24
0.0
 15
0.0
 25
0.0
 16
389.49966
 26
0.0
 36
0.0
 17
154.72534
 27
109.776054
 37
-91.03056
 40
163.29434
 41
1.393103
 42
50.0
 43
194.74983
 44
-194.74983
 50
0.0
 51
0.0
 71
22
 72
100
 73
1
 74
0
 75
0
 76
0
 77
0
 78
0
  0
ENDTAB
  0
ENDSEC
  0
SECTION
  2
BLOCKS
  0
BLOCK
  8
1
  5
1D
 70
1
 10
0.0
 20
0.0
 30
0.0
  2
*M0
  3
*M0
  0
LINE
  8
1
  5
1F
  6
CONTINUOUS
 62
7
 10
110.9
 20
-138.2
 30
0.0
 11
110.9
 21
-138.2
 31
-6.8
  0
LINE
  8
1
  5
21
  6
CONTINUOUS
 62
7
 10
125.9
 20
-120.0
 30
0.0
 11
125.9
 21
-120.0
 31
-6.8
  0
LINE
  8
1
  5
23
  6
CONTINUOUS
 62
7
 10
30.0
 20
-191.8
 30
-6.8
 11
30.0
 21
-191.8
 31
0.0
  0
LINE
  8
1
  5
25
  6
CONTINUOUS
 62
7
 10
30.0
 20
-221.8
 30
-6.8
 11
30.0
 21
-191.8
 31
-6.8
  0
LINE
  8
1
  5
27
  6
CONTINUOUS
 62
7
 10
30.0
 20
-221.8
 30
0.0
 11
30.0
 21
-221.8
 31
-6.8
  0
LINE
  8
1
  5
29
  6
CONTINUOUS
 62
7
 10
30.0
 20
-191.8
 30
0.0
 11
30.0
 21
-221.8
 31
0.0
  0
ARC
  8
1
  5
2B
  6
CONTINUOUS
 62
7
 10
110.9
 20
-134.1
 30
-6.8
 40
4.1
 50
270.0
 51
90.0
  0
POLYLINE
  8
1
  5
2D
  6
CONTINUOUS
 62
7
 10
0.0
 20
0.0
 30
-6.8
 66
1
 70
0
  0
VERTEX
  8
1
  5
2E
  6
CONTINUOUS
 62
7
 10
110.9
 20
-138.2
 30
-6.8
 42
0.059274
  0
VERTEX
  8
1
  5
2F
  6
CONTINUOUS
 62
7
 10
113.826355
 20
-137.850292
 30
-6.8
 42
0.057285
  0
VERTEX
  8
1
  5
30
  6
CONTINUOUS
 62
7
 10
116.640251
 20
-136.814607
 30
-6.8
 42
0.053936
  0
VERTEX
  8
1
  5
31
  6
CONTINUOUS
 62
7
 10
119.233553
 20
-135.132747
 30
-6.8
 42
0.050102
  0
VERTEX
  8
1
  5
32
  6
CONTINUOUS
 62
7
 10
121.506602
 20
-132.869343
 30
-6.8
 42
0.046516
  0
VERTEX
  8
1
  5
33
  6
CONTINUOUS
 62
7
 10
123.372044
 20
-130.111378
 30
-6.8
 42
0.043627
  0
VERTEX
  8
1
  5
34
  6
CONTINUOUS
 62
7
 10
124.758193
 20
-126.964838
 30
-6.8
 42
0.041646
  0
VERTEX
  8
1
  5
35
  6
CONTINUOUS
 62
7
 10
125.611779
 20
-123.550644
 30
-6.8
 42
0.040646
  0
VERTEX
  8
1
  5
36
  6
CONTINUOUS
 62
7
 10
125.9
 20
-120.0
 30
-6.8
 42
0.040646
  0
VERTEX
  8
1
  5
37
  6
CONTINUOUS
 62
7
 10
125.611779
 20
-116.449356
 30
-6.8
 42
0.041646
  0
VERTEX
  8
1
  5
38
  6
CONTINUOUS
 62
7
 10
124.758193
 20
-113.035162
 30
-6.8
 42
0.043627
  0
VERTEX
  8
1
  5
39
  6
CONTINUOUS
 62
7
 10
123.372044
 20
-109.888622
 30
-6.8
 42
0.046516
  0
VERTEX
  8
1
  5
3A
  6
CONTINUOUS
 62
7
 10
121.506602
 20
-107.130657
 30
-6.8
 42
0.050102
  0
VERTEX
  8
1
  5
3B
  6
CONTINUOUS
 62
7
 10
119.233553
 20
-104.867253
 30
-6.8
 42
0.053936
  0
VERTEX
  8
1
  5
3C
  6
CONTINUOUS
 62
7
 10
116.640251
 20
-103.185393
 30
-6.8
 42
0.057285
  0
VERTEX
  8
1
  5
3D
  6
CONTINUOUS
 62
7
 10
113.826355
 20
-102.149708
 30
-6.8
 42
0.059274
  0
VERTEX
  8
1
  5
3E
  6
CONTINUOUS
 62
7
 10
110.9
 20
-101.8
 30
-6.8
 42
0.059274
  0
SEQEND
  8
1
  5
3F
  0
ARC
  8
1
  5
41
  6
CONTINUOUS
 62
7
 10
110.9
 20
-105.9
 30
-6.8
 40
4.1
 50
270.0
 51
90.0
  0
LINE
  8
1
  5
43
  6
CONTINUOUS
 62
7
 10
19.1
 20
-110.0
 30
-6.8
 11
110.9
 21
-110.0
 31
-6.8
  0
ARC
  8
1
  5
45
  6
CONTINUOUS
 62
7
 10
19.1
 20
-105.9
 30
-6.8
 40
4.1
 50
180.0
 51
270.0
  0
LINE
  8
1
  5
47
  6
CONTINUOUS
 62
7
 10
15.0
 20
-96.8
 30
-6.8
 11
15.0
 21
-105.9
 31
-6.8
  0
POLYLINE
  8
1
  5
49
  6
CONTINUOUS
 62
7
 210
0.0
 220
0.0
 230
-1.0
 10
0.0
 20
0.0
 30
6.8
 66
1
 70
0
  0
VERTEX
  8
1
  5
4A
  6
CONTINUOUS
 62
7
 10
-0.000345
 20
-120.0
 30
6.8
 42
0.031659
  0
VERTEX
  8
1
  5
4B
  6
CONTINUOUS
 62
7
 10
-0.305845
 20
-115.465545
 30
6.8
 42
0.033163
  0
VERTEX
  8
1
  5
4C
  6
CONTINUOUS
 62
7
 10
-1.171183
 20
-111.109885
 30
6.8
 42
0.036291
  0
VERTEX
  8
1
  5
4D
  6
CONTINUOUS
 62
7
 10
-2.56339
 20
-107.098968
 30
6.8
 42
0.041345
  0
VERTEX
  8
1
  5
4E
  6
CONTINUOUS
 62
7
 10
-4.429425
 20
-103.585608
 30
6.8
 42
0.04863
  0
VERTEX
  8
1
  5
4F
  6
CONTINUOUS
 62
7
 10
-6.698192
 20
-100.703662
 30
6.8
 42
0.058017
  0
VERTEX
  8
1
  5
50
  6
CONTINUOUS
 62
7
 10
-9.283253
 20
-98.562929
 30
6.8
 42
0.067994
  0
VERTEX
  8
1
  5
51
  6
CONTINUOUS
 62
7
 10
-12.086118
 20
-97.244971
 30
6.8
 42
0.074921
  0
VERTEX
  8
1
  5
52
  6
CONTINUOUS
 62
7
 10
-15.0
 20
-96.8
 30
6.8
 42
0.074921
  0
SEQEND
  8
1
  5
53
  0
POLYLINE
  8
1
  5
55
  6
CONTINUOUS
 62
7
 210
0.0
 220
0.0
 230
-1.0
 10
0.0
 20
0.0
 30
6.8
 66
1
 70
0
  0
VERTEX
  8
1
  5
56
  6
CONTINUOUS
 62
7
 10
-15.0
 20
-143.2
 30
6.8
 42
0.074921
  0
VERTEX
  8
1
  5
57
  6
CONTINUOUS
 62
7
 10
-12.086118
 20
-142.755029
 30
6.8
 42
0.067994
  0
VERTEX
  8
1
  5
58
  6
CONTINUOUS
 62
7
 10
-9.283253
 20
-141.437071
 30
6.8
 42
0.058017
  0
VERTEX
  8
1
  5
59
  6
CONTINUOUS
 62
7
 10
-6.698192
 20
-139.296338
 30
6.8
 42
0.04863
  0
VERTEX
  8
1
  5
5A
  6
CONTINUOUS
 62
7
 10
-4.429425
 20
-136.414392
 30
6.8
 42
0.041345
  0
VERTEX
  8
1
  5
5B
  6
CONTINUOUS
 62
7
 10
-2.56339
 20
-132.901032
 30
6.8
 42
0.036291
  0
VERTEX
  8
1
  5
5C
  6
CONTINUOUS
 62
7
 10
-1.171183
 20
-128.890115
 30
6.8
 42
0.033163
  0
VERTEX
  8
1
  5
5D
  6
CONTINUOUS
 62
7
 10
-0.305845
 20
-124.534455
 30
6.8
 42
0.031659
  0
VERTEX
  8
1
  5
5E
  6
CONTINUOUS
 62
7
 10
-0.000345
 20
-120.0
 30
6.8
 42
0.031659
  0
SEQEND
  8
1
  5
5F
  0
LINE
  8
1
  5
61
  6
CONTINUOUS
 62
7
 10
15.0
 20
-134.1
 30
-6.8
 11
15.0
 21
-143.2
 31
-6.8
  0
ARC
  8
1
  5
63
  6
CONTINUOUS
 62
7
 10
19.1
 20
-134.1
 30
-6.8
 40
4.1
 50
90.0
 51
180.0
  0
LINE
  8
1
  5
65
  6
CONTINUOUS
 62
7
 10
110.9
 20
-130.0
 30
-6.8
 11
19.1
 21
-130.0
 31
-6.8
  0
LINE
  8
1
  5
67
  6
CONTINUOUS
 62
7
 10
15.0
 20
-191.8
 30
-6.8
 11
30.0
 21
-191.8
 31
-6.8
  0
LINE
  8
1
  5
69
  6
CONTINUOUS
 62
7
 10
15.0
 20
-221.8
 30
-6.8
 11
15.0
 21
-191.8
 31
-6.8
  0
LINE
  8
1
  5
6B
  6
CONTINUOUS
 62
7
 10
30.0
 20
-221.8
 30
-6.8
 11
15.0
 21
-221.8
 31
-6.8
  0
LINE
  8
1
  5
6D
  6
CONTINUOUS
 62
7
 10
30.0
 20
-18.2
 30
-6.8
 11
30.0
 21
-18.2
 31
0.0
  0
LINE
  8
1
  5
6F
  6
CONTINUOUS
 62
7
 10
30.0
 20
-48.2
 30
-6.8
 11
30.0
 21
-18.2
 31
-6.8
  0
LINE
  8
1
  5
71
  6
CONTINUOUS
 62
7
 10
30.0
 20
-48.2
 30
0.0
 11
30.0
 21
-48.2
 31
-6.8
  0
LINE
  8
1
  5
73
  6
CONTINUOUS
 62
7
 10
30.0
 20
-18.2
 30
0.0
 11
30.0
 21
-48.2
 31
0.0
  0
POLYLINE
  8
1
  5
75
  6
CONTINUOUS
 62
7
 210
0.0
 220
0.0
 230
-1.0
 10
0.0
 20
0.0
 30
-9.313226E-015
 66
1
 70
0
  0
VERTEX
  8
1
  5
76
  6
CONTINUOUS
 62
7
 10
-110.9
 20
-101.8
 30
-9.313226E-015
 42
0.059274
  0
VERTEX
  8
1
  5
77
  6
CONTINUOUS
 62
7
 10
-113.826355
 20
-102.149708
 30
-9.313226E-015
 42
0.057285
  0
VERTEX
  8
1
  5
78
  6
CONTINUOUS
 62
7
 10
-116.640251
 20
-103.185393
 30
-9.313226E-015
 42
0.053936
  0
VERTEX
  8
1
  5
79
  6
CONTINUOUS
 62
7
 10
-119.233553
 20
-104.867253
 30
-9.313226E-015
 42
0.050102
  0
VERTEX
  8
1
  5
7A
  6
CONTINUOUS
 62
7
 10
-121.506602
 20
-107.130657
 30
-9.313226E-015
 42
0.046516
  0
VERTEX
  8
1
  5
7B
  6
CONTINUOUS
 62
7
 10
-123.372044
 20
-109.888622
 30
-9.313226E-015
 42
0.043627
  0
VERTEX
  8
1
  5
7C
  6
CONTINUOUS
 62
7
 10
-124.758193
 20
-113.035162
 30
-9.313226E-015
 42
0.041646
  0
VERTEX
  8
1
  5
7D
  6
CONTINUOUS
 62
7
 10
-125.611779
 20
-116.449356
 30
-9.313226E-015
 42
0.040646
  0
VERTEX
  8
1
  5
7E
  6
CONTINUOUS
 62
7
 10
-125.9
 20
-120.0
 30
-9.313226E-015
 42
0.040646
  0
VERTEX
  8
1
  5
7F
  6
CONTINUOUS
 62
7
 10
-125.611779
 20
-123.550644
 30
-9.313226E-015
 42
0.041646
  0
VERTEX
  8
1
  5
80
  6
CONTINUOUS
 62
7
 10
-124.758193
 20
-126.964838
 30
-9.313226E-015
 42
0.043627
  0
VERTEX
  8
1
  5
81
  6
CONTINUOUS
 62
7
 10
-123.372044
 20
-130.111378
 30
-9.313226E-015
 42
0.046516
  0
VERTEX
  8
1
  5
82
  6
CONTINUOUS
 62
7
 10
-121.506602
 20
-132.869343
 30
-9.313226E-015
 42
0.050102
  0
VERTEX
  8
1
  5
83
  6
CONTINUOUS
 62
7
 10
-119.233553
 20
-135.132747
 30
-9.313226E-015
 42
0.053936
  0
VERTEX
  8
1
  5
84
  6
CONTINUOUS
 62
7
 10
-116.640251
 20
-136.814607
 30
-9.313226E-015
 42
0.057285
  0
VERTEX
  8
1
  5
85
  6
CONTINUOUS
 62
7
 10
-113.826355
 20
-137.850292
 30
-9.313226E-015
 42
0.059274
  0
VERTEX
  8
1
  5
86
  6
CONTINUOUS
 62
7
 10
-110.9
 20
-138.2
 30
-9.313226E-015
 42
0.059274
  0
SEQEND
  8
1
  5
87
  0
LINE
  8
1
  5
89
  6
CONTINUOUS
 62
7
 10
110.9
 20
-101.8
 30
0.0
 11
110.9
 21
-101.8
 31
-6.8
  0
LINE
  8
1
  5
8B
  6
CONTINUOUS
 62
7
 10
110.9
 20
-138.2
 30
-6.8
 11
110.9
 21
-138.2
 31
0.0
  0
LINE
  8
1
  5
8D
  6
CONTINUOUS
 62
7
 10
15.0
 20
-18.2
 30
-6.8
 11
30.0
 21
-18.2
 31
-6.8
  0
LINE
  8
1
  5
8F
  6
CONTINUOUS
 62
7
 10
15.0
 20
-48.2
 30
-6.8
 11
15.0
 21
-18.2
 31
-6.8
  0
LINE
  8
1
  5
91
  6
CONTINUOUS
 62
7
 10
30.0
 20
-48.2
 30
-6.8
 11
15.0
 21
-48.2
 31
-6.8
  0
ENDBLK
  8
1
  5
92
  0
BLOCK
  8
1
  5
94
 70
1
 10
0.0
 20
0.0
 30
0.0
  2
*M1
  3
*M1
  0
LINE
  8
1
  5
96
  6
CONTINUOUS
 62
7
 10
110.9
 20
-110.0
 30
-6.8
 11
110.9
 21
-110.0
 31
-15.0
  0
LINE
  8
1
  5
98
  6
CONTINUOUS
 62
7
 10
115.0
 20
-105.9
 30
-6.8
 11
115.0
 21
-105.9
 31
-15.0
  0
LINE
  8
1
  5
9A
  6
CONTINUOUS
 62
7
 10
35.9
 20
-18.2
 30
0.0
 11
35.9
 21
-18.2
 31
-15.0
  0
LINE
  8
1
  5
9C
  6
CONTINUOUS
 62
7
 10
40.0
 20
-14.1
 30
0.0
 11
40.0
 21
-14.1
 31
-15.0
  0
LINE
  8
1
  5
9E
  6
CONTINUOUS
 62
7
 10
35.9
 20
-56.4
 30
0.0
 11
35.9
 21
-56.4
 31
-15.0
  0
LINE
  8
1
  5
A0
  6
CONTINUOUS
 62
7
 10
40.0
 20
-52.3
 30
0.0
 11
40.0
 21
-52.3
 31
-15.0
  0
LINE
  8
1
  5
A2
  6
CONTINUOUS
 62
7
 10
110.9
 20
-138.2
 30
-6.8
 11
110.9
 21
-138.2
 31
-15.0
  0
LINE
  8
1
  5
A4
  6
CONTINUOUS
 62
7
 10
115.0
 20
-134.1
 30
-6.8
 11
115.0
 21
-134.1
 31
-15.0
  0
LINE
  8
1
  5
A6
  6
CONTINUOUS
 62
7
 10
35.9
 20
-191.8
 30
0.0
 11
35.9
 21
-191.8
 31
-15.0
  0
LINE
  8
1
  5
A8
  6
CONTINUOUS
 62
7
 10
40.0
 20
-187.7
 30
0.0
 11
40.0
 21
-187.7
 31
-15.0
  0
LINE
  8
1
  5
AA
  6
CONTINUOUS
 62
7
 10
35.9
 20
-230.0
 30
0.0
 11
35.9
 21
-230.0
 31
-15.0
  0
LINE
  8
1
  5
AC
  6
CONTINUOUS
 62
7
 10
40.0
 20
-225.9
 30
0.0
 11
40.0
 21
-225.9
 31
-15.0
  0
LINE
  8
1
  5
AE
  6
CONTINUOUS
 62
7
 10
30.0
 20
-18.2
 30
0.0
 11
35.9
 21
-18.2
 31
0.0
  0
LINE
  8
1
  5
B0
  6
CONTINUOUS
 62
7
 10
35.9
 20
-18.2
 30
0.0
 11
35.9
 21
-18.2
 31
-15.0
  0
LINE
  8
1
  5
B2
  6
CONTINUOUS
 62
7
 10
35.9
 20
-18.2
 30
-15.0
 11
15.0
 21
-18.2
 31
-15.0
  0
LINE
  8
1
  5
B4
  6
CONTINUOUS
 62
7
 10
15.0
 20
-18.2
 30
-6.8
 11
15.0
 21
-18.2
 31
-15.0
  0
LINE
  8
1
  5
B6
  6
CONTINUOUS
 62
7
 10
30.0
 20
0.0
 30
0.0
 11
30.0
 21
0.0
 31
-15.0
  0
LINE
  8
1
  5
B8
  6
CONTINUOUS
 62
7
 10
30.0
 20
0.0
 30
-15.0
 11
30.0
 21
-10.0
 31
-15.0
  0
LINE
  8
1
  5
BA
  6
CONTINUOUS
 62
7
 10
30.0
 20
-10.0
 30
0.0
 11
30.0
 21
-10.0
 31
-15.0
  0
LINE
  8
1
  5
BC
  6
CONTINUOUS
 62
7
 10
30.0
 20
0.0
 30
0.0
 11
30.0
 21
-10.0
 31
0.0
  0
LINE
  8
1
  5
BE
  6
CONTINUOUS
 62
7
 10
30.0
 20
-191.8
 30
0.0
 11
35.9
 21
-191.8
 31
0.0
  0
LINE
  8
1
  5
C0
  6
CONTINUOUS
 62
7
 10
35.9
 20
-191.8
 30
0.0
 11
35.9
 21
-191.8
 31
-15.0
  0
LINE
  8
1
  5
C2
  6
CONTINUOUS
 62
7
 10
35.9
 20
-191.8
 30
-15.0
 11
15.0
 21
-191.8
 31
-15.0
  0
LINE
  8
1
  5
C4
  6
CONTINUOUS
 62
7
 10
15.0
 20
-191.8
 30
-6.8
 11
15.0
 21
-191.8
 31
-15.0
  0
LINE
  8
1
  5
C6
  6
CONTINUOUS
 62
7
 10
30.0
 20
-230.0
 30
0.0
 11
30.0
 21
-230.0
 31
-15.0
  0
LINE
  8
1
  5
C8
  6
CONTINUOUS
 62
7
 10
30.0
 20
-230.0
 30
-15.0
 11
30.0
 21
-240.0
 31
-15.0
  0
LINE
  8
1
  5
CA
  6
CONTINUOUS
 62
7
 10
30.0
 20
-240.0
 30
0.0
 11
30.0
 21
-240.0
 31
-15.0
  0
LINE
  8
1
  5
CC
  6
CONTINUOUS
 62
7
 10
30.0
 20
-230.0
 30
0.0
 11
30.0
 21
-240.0
 31
0.0
  0
LINE
  8
1
  5
CE
  6
CONTINUOUS
 62
7
 10
0.00034
 20
-120.0
 30
-6.8
 11
0.00034
 21
-120.0
 31
-15.0
  0
POLYLINE
  8
1
  5
D0
  6
CONTINUOUS
 62
7
 10
0.0
 20
0.0
 30
-15.0
 66
1
 70
0
  0
VERTEX
  8
1
  5
D1
  6
CONTINUOUS
 62
7
 10
0.000345
 20
-120.0
 30
-15.0
 42
0.031659
  0
VERTEX
  8
1
  5
D2
  6
CONTINUOUS
 62
7
 10
0.305845
 20
-124.534455
 30
-15.0
 42
0.033163
  0
VERTEX
  8
1
  5
D3
  6
CONTINUOUS
 62
7
 10
1.171183
 20
-128.890115
 30
-15.0
 42
0.036291
  0
VERTEX
  8
1
  5
D4
  6
CONTINUOUS
 62
7
 10
2.56339
 20
-132.901032
 30
-15.0
 42
0.041345
  0
VERTEX
  8
1
  5
D5
  6
CONTINUOUS
 62
7
 10
4.429425
 20
-136.414392
 30
-15.0
 42
0.04863
  0
VERTEX
  8
1
  5
D6
  6
CONTINUOUS
 62
7
 10
6.698192
 20
-139.296338
 30
-15.0
 42
0.058017
  0
VERTEX
  8
1
  5
D7
  6
CONTINUOUS
 62
7
 10
9.283253
 20
-141.437071
 30
-15.0
 42
0.067994
  0
VERTEX
  8
1
  5
D8
  6
CONTINUOUS
 62
7
 10
12.086118
 20
-142.755029
 30
-15.0
 42
0.074921
  0
VERTEX
  8
1
  5
D9
  6
CONTINUOUS
 62
7
 10
15.0
 20
-143.2
 30
-15.0
 42
0.074921
  0
SEQEND
  8
1
  5
DA
  0
LINE
  8
1
  5
DC
  6
CONTINUOUS
 62
7
 10
15.0
 20
-143.2
 30
-6.8
 11
15.0
 21
-143.2
 31
-15.0
  0
LINE
  8
1
  5
DE
  6
CONTINUOUS
 62
7
 10
15.0
 20
-96.8
 30
-6.8
 11
15.0
 21
-96.8
 31
-15.0
  0
POLYLINE
  8
1
  5
E0
  6
CONTINUOUS
 62
7
 10
0.0
 20
0.0
 30
-15.0
 66
1
 70
0
  0
VERTEX
  8
1
  5
E1
  6
CONTINUOUS
 62
7
 10
15.0
 20
-96.8
 30
-15.0
 42
0.074921
  0
VERTEX
  8
1
  5
E2
  6
CONTINUOUS
 62
7
 10
12.086118
 20
-97.244971
 30
-15.0
 42
0.067994
  0
VERTEX
  8
1
  5
E3
  6
CONTINUOUS
 62
7
 10
9.283253
 20
-98.562929
 30
-15.0
 42
0.058017
  0
VERTEX
  8
1
  5
E4
  6
CONTINUOUS
 62
7
 10
6.698192
 20
-100.703662
 30
-15.0
 42
0.04863
  0
VERTEX
  8
1
  5
E5
  6
CONTINUOUS
 62
7
 10
4.429425
 20
-103.585608
 30
-15.0
 42
0.041345
  0
VERTEX
  8
1
  5
E6
  6
CONTINUOUS
 62
7
 10
2.56339
 20
-107.098968
 30
-15.0
 42
0.036291
  0
VERTEX
  8
1
  5
E7
  6
CONTINUOUS
 62
7
 10
1.171183
 20
-111.109885
 30
-15.0
 42
0.033163
  0
VERTEX
  8
1
  5
E8
  6
CONTINUOUS
 62
7
 10
0.305845
 20
-115.465545
 30
-15.0
 42
0.031659
  0
VERTEX
  8
1
  5
E9
  6
CONTINUOUS
 62
7
 10
0.000345
 20
-120.0
 30
-15.0
 42
0.031659
  0
SEQEND
  8
1
  5
EA
  0
LINE
  8
1
  5
EC
  6
CONTINUOUS
 62
7
 10
30.0
 20
-138.2
 30
0.0
 11
30.0
 21
-138.2
 31
-15.0
  0
LINE
  8
1
  5
EE
  6
CONTINUOUS
 62
7
 10
30.0
 20
-138.2
 30
-15.0
 11
30.0
 21
-183.6
 31
-15.0
  0
LINE
  8
1
  5
F0
  6
CONTINUOUS
 62
7
 10
30.0
 20
-183.6
 30
0.0
 11
30.0
 21
-183.6
 31
-15.0
  0
LINE
  8
1
  5
F2
  6
CONTINUOUS
 62
7
 10
30.0
 20
-138.2
 30
0.0
 11
30.0
 21
-183.6
 31
0.0
  0
LINE
  8
1
  5
F4
  6
CONTINUOUS
 62
7
 10
15.0
 20
-105.9
 30
-6.8
 11
15.0
 21
-105.9
 31
-15.0
  0
LINE
  8
1
  5
F6
  6
CONTINUOUS
 62
7
 10
15.0
 20
-105.9
 30
-15.0
 11
15.0
 21
-96.8
 31
-15.0
  0
LINE
  8
1
  5
F8
  6
CONTINUOUS
 62
7
 10
110.9
 20
-138.2
 30
-6.8
 11
110.9
 21
-138.2
 31
-15.0
  0
LINE
  8
1
  5
FA
  6
CONTINUOUS
 62
7
 10
110.9
 20
-138.2
 30
-15.0
 11
30.0
 21
-138.2
 31
-15.0
  0
LINE
  8
1
  5
FC
  6
CONTINUOUS
 62
7
 10
110.9
 20
-138.2
 30
0.0
 11
30.0
 21
-138.2
 31
0.0
  0
LINE
  8
1
  5
FE
  6
CONTINUOUS
 62
7
 10
19.1
 20
-110.0
 30
-6.8
 11
19.1
 21
-110.0
 31
-15.0
  0
ARC
  8
1
  5
100
  6
CONTINUOUS
 62
7
 210
0.0
 220
0.0
 230
-1.0
 10
-19.1
 20
-105.9
 30
15.0
 40
4.1
 50
270.0
 51
360.0
  0
LINE
  8
1
  5
102
  6
CONTINUOUS
 62
7
 10
110.9
 20
-110.0
 30
-6.8
 11
110.9
 21
-110.0
 31
-15.0
  0
LINE
  8
1
  5
104
  6
CONTINUOUS
 62
7
 10
110.9
 20
-110.0
 30
-15.0
 11
19.1
 21
-110.0
 31
-15.0
  0
LINE
  8
1
  5
106
  6
CONTINUOUS
 62
7
 10
35.9
 20
-48.2
 30
0.0
 11
30.0
 21
-48.2
 31
0.0
  0
ARC
  8
1
  5
108
  6
CONTINUOUS
 62
7
 10
35.9
 20
-52.3
 30
-9.313226E-015
 40
4.1
 50
270.0
 51
90.0
  0
LINE
  8
1
  5
10A
  6
CONTINUOUS
 62
7
 10
30.0
 20
-56.4
 30
0.0
 11
35.9
 21
-56.4
 31
0.0
  0
LINE
  8
1
  5
10C
  6
CONTINUOUS
 62
7
 10
30.0
 20
-56.4
 30
0.0
 11
30.0
 21
-101.8
 31
0.0
  0
LINE
  8
1
  5
10E
  6
CONTINUOUS
 62
7
 10
30.0
 20
-101.8
 30
0.0
 11
110.9
 21
-101.8
 31
0.0
  0
LINE
  8
1
  5
110
  6
CONTINUOUS
 62
7
 10
35.9
 20
-183.6
 30
0.0
 11
30.0
 21
-183.6
 31
0.0
  0
ARC
  8
1
  5
112
  6
CONTINUOUS
 62
7
 10
35.9
 20
-187.7
 30
3.725290E-014
 40
4.1
 50
270.0
 51
90.0
  0
LINE
  8
1
  5
114
  6
CONTINUOUS
 62
7
 10
35.9
 20
-221.8
 30
0.0
 11
30.0
 21
-221.8
 31
0.0
  0
ARC
  8
1
  5
116
  6
CONTINUOUS
 62
7
 10
35.9
 20
-225.9
 30
4.656613E-014
 40
4.1
 50
270.0
 51
90.0
  0
LINE
  8
1
  5
118
  6
CONTINUOUS
 62
7
 10
30.0
 20
-230.0
 30
0.0
 11
35.9
 21
-230.0
 31
0.0
  0
LINE
  8
1
  5
11A
  6
CONTINUOUS
 62
7
 10
165.0
 20
-240.0
 30
0.0
 11
30.0
 21
-240.0
 31
0.0
  0
LINE
  8
1
  5
11C
  6
CONTINUOUS
 62
7
 10
165.0
 20
0.0
 30
0.0
 11
165.0
 21
-240.0
 31
0.0
  0
LINE
  8
1
  5
11E
  6
CONTINUOUS
 62
7
 10
30.0
 20
0.0
 30
0.0
 11
165.0
 21
0.0
 31
0.0
  0
LINE
  8
1
  5
120
  6
CONTINUOUS
 62
7
 10
35.9
 20
-10.0
 30
0.0
 11
30.0
 21
-10.0
 31
0.0
  0
ARC
  8
1
  5
122
  6
CONTINUOUS
 62
7
 10
35.9
 20
-14.1
 30
-2.793968E-014
 40
4.1
 50
270.0
 51
90.0
  0
LINE
  8
1
  5
124
  6
CONTINUOUS
 62
7
 10
110.9
 20
-101.8
 30
-6.8
 11
110.9
 21
-101.8
 31
-15.0
  0
ARC
  8
1
  5
126
  6
CONTINUOUS
 62
7
 210
0.0
 220
0.0
 230
-1.0
 10
-110.9
 20
-105.9
 30
15.0
 40
4.1
 50
90.0
 51
270.0
  0
LINE
  8
1
  5
128
  6
CONTINUOUS
 62
7
 10
30.0
 20
-10.0
 30
-15.0
 11
35.9
 21
-10.0
 31
-15.0
  0
LINE
  8
1
  5
12A
  6
CONTINUOUS
 62
7
 10
35.9
 20
-10.0
 30
0.0
 11
35.9
 21
-10.0
 31
-15.0
  0
ARC
  8
1
  5
12C
  6
CONTINUOUS
 62
7
 210
0.0
 220
0.0
 230
-1.0
 10
-35.9
 20
-14.1
 30
15.0
 40
4.1
 50
90.0
 51
270.0
  0
LINE
  8
1
  5
12E
  6
CONTINUOUS
 62
7
 10
15.0
 20
-18.2
 30
-15.0
 11
15.0
 21
-48.2
 31
-15.0
  0
LINE
  8
1
  5
130
  6
CONTINUOUS
 62
7
 10
15.0
 20
-48.2
 30
-6.8
 11
15.0
 21
-48.2
 31
-15.0
  0
LINE
  8
1
  5
132
  6
CONTINUOUS
 62
7
 10
15.0
 20
-48.2
 30
-15.0
 11
35.9
 21
-48.2
 31
-15.0
  0
LINE
  8
1
  5
134
  6
CONTINUOUS
 62
7
 10
35.9
 20
-48.2
 30
0.0
 11
35.9
 21
-48.2
 31
-15.0
  0
ARC
  8
1
  5
136
  6
CONTINUOUS
 62
7
 210
0.0
 220
0.0
 230
-1.0
 10
-35.9
 20
-52.3
 30
15.0
 40
4.1
 50
90.0
 51
270.0
  0
LINE
  8
1
  5
138
  6
CONTINUOUS
 62
7
 10
35.9
 20
-56.4
 30
0.0
 11
35.9
 21
-56.4
 31
-15.0
  0
LINE
  8
1
  5
13A
  6
CONTINUOUS
 62
7
 10
35.9
 20
-56.4
 30
-15.0
 11
30.0
 21
-56.4
 31
-15.0
  0
LINE
  8
1
  5
13C
  6
CONTINUOUS
 62
7
 10
30.0
 20
-56.4
 30
0.0
 11
30.0
 21
-56.4
 31
-15.0
  0
LINE
  8
1
  5
13E
  6
CONTINUOUS
 62
7
 10
30.0
 20
-56.4
 30
-15.0
 11
30.0
 21
-101.8
 31
-15.0
  0
LINE
  8
1
  5
140
  6
CONTINUOUS
 62
7
 10
30.0
 20
-101.8
 30
0.0
 11
30.0
 21
-101.8
 31
-15.0
  0
LINE
  8
1
  5
142
  6
CONTINUOUS
 62
7
 10
30.0
 20
-101.8
 30
-15.0
 11
110.9
 21
-101.8
 31
-15.0
  0
LINE
  8
1
  5
144
  6
CONTINUOUS
 62
7
 10
15.0
 20
-143.2
 30
-15.0
 11
15.0
 21
-134.1
 31
-15.0
  0
LINE
  8
1
  5
146
  6
CONTINUOUS
 62
7
 10
15.0
 20
-134.1
 30
-6.8
 11
15.0
 21
-134.1
 31
-15.0
  0
ARC
  8
1
  5
148
  6
CONTINUOUS
 62
7
 210
0.0
 220
0.0
 230
-1.0
 10
-19.1
 20
-134.1
 30
15.0
 40
4.1
 50
360.0
 51
90.0
  0
LINE
  8
1
  5
14A
  6
CONTINUOUS
 62
7
 10
19.1
 20
-130.0
 30
-6.8
 11
19.1
 21
-130.0
 31
-15.0
  0
LINE
  8
1
  5
14C
  6
CONTINUOUS
 62
7
 10
19.1
 20
-130.0
 30
-15.0
 11
110.9
 21
-130.0
 31
-15.0
  0
LINE
  8
1
  5
14E
  6
CONTINUOUS
 62
7
 10
110.9
 20
-130.0
 30
-6.8
 11
110.9
 21
-130.0
 31
-15.0
  0
ARC
  8
1
  5
150
  6
CONTINUOUS
 62
7
 210
0.0
 220
0.0
 230
-1.0
 10
-110.9
 20
-134.1
 30
15.0
 40
4.1
 50
90.0
 51
270.0
  0
LINE
  8
1
  5
152
  6
CONTINUOUS
 62
7
 10
30.0
 20
-183.6
 30
-15.0
 11
35.9
 21
-183.6
 31
-15.0
  0
LINE
  8
1
  5
154
  6
CONTINUOUS
 62
7
 10
35.9
 20
-183.6
 30
0.0
 11
35.9
 21
-183.6
 31
-15.0
  0
ARC
  8
1
  5
156
  6
CONTINUOUS
 62
7
 210
0.0
 220
0.0
 230
-1.0
 10
-35.9
 20
-187.7
 30
15.0
 40
4.1
 50
90.0
 51
270.0
  0
LINE
  8
1
  5
158
  6
CONTINUOUS
 62
7
 10
15.0
 20
-191.8
 30
-15.0
 11
15.0
 21
-221.8
 31
-15.0
  0
LINE
  8
1
  5
15A
  6
CONTINUOUS
 62
7
 10
15.0
 20
-221.8
 30
-6.8
 11
15.0
 21
-221.8
 31
-15.0
  0
LINE
  8
1
  5
15C
  6
CONTINUOUS
 62
7
 10
15.0
 20
-221.8
 30
-15.0
 11
35.9
 21
-221.8
 31
-15.0
  0
LINE
  8
1
  5
15E
  6
CONTINUOUS
 62
7
 10
35.9
 20
-221.8
 30
0.0
 11
35.9
 21
-221.8
 31
-15.0
  0
ARC
  8
1
  5
160
  6
CONTINUOUS
 62
7
 210
0.0
 220
0.0
 230
-1.0
 10
-35.9
 20
-225.9
 30
15.0
 40
4.1
 50
90.0
 51
270.0
  0
LINE
  8
1
  5
162
  6
CONTINUOUS
 62
7
 10
35.9
 20
-230.0
 30
0.0
 11
35.9
 21
-230.0
 31
-15.0
  0
LINE
  8
1
  5
164
  6
CONTINUOUS
 62
7
 10
35.9
 20
-230.0
 30
-15.0
 11
30.0
 21
-230.0
 31
-15.0
  0
LINE
  8
1
  5
166
  6
CONTINUOUS
 62
7
 10
30.0
 20
-240.0
 30
-15.0
 11
165.0
 21
-240.0
 31
-15.0
  0
LINE
  8
1
  5
168
  6
CONTINUOUS
 62
7
 10
165.0
 20
-240.0
 30
0.0
 11
165.0
 21
-240.0
 31
-15.0
  0
LINE
  8
1
  5
16A
  6
CONTINUOUS
 62
7
 10
165.0
 20
-240.0
 30
-15.0
 11
165.0
 21
0.0
 31
-15.0
  0
LINE
  8
1
  5
16C
  6
CONTINUOUS
 62
7
 10
165.0
 20
0.0
 30
0.0
 11
165.0
 21
0.0
 31
-15.0
  0
LINE
  8
1
  5
16E
  6
CONTINUOUS
 62
7
 10
165.0
 20
0.0
 30
-15.0
 11
30.0
 21
0.0
 31
-15.0
  0
ENDBLK
  8
1
  5
16F
  0
BLOCK
  8
1
  5
171
 70
1
 10
0.0
 20
0.0
 30
0.0
  2
*M2
  3
*M2
  0
INSERT
  8
1
  5
173
  6
CONTINUOUS
 62
7
  2
*M0
 10
0.0
 20
0.0
 30
0.0
 41
1.0
 42
1.0
 43
1.0
 70
1
 71
1
  0
INSERT
  8
1
  5
175
  6
CONTINUOUS
 62
7
  2
*M1
 10
0.0
 20
0.0
 30
0.0
 41
1.0
 42
1.0
 43
1.0
 70
1
 71
1
  0
ENDBLK
  8
1
  5
176
  0
BLOCK
  8
1
  5
178
 70
1
 10
0.0
 20
0.0
 30
0.0
  2
*M3
  3
*M3
  0
LINE
  8
1
  5
17A
  6
CONTINUOUS
 62
7
 10
115.62551
 20
139.3
 30
-98.53057
 11
115.62551
 21
139.3
 31
-83.53057
  0
LINE
  8
1
  5
17C
  6
CONTINUOUS
 62
7
 10
119.72551
 20
135.2
 30
-98.53057
 11
119.72551
 21
135.2
 31
-83.53057
  0
LINE
  8
1
  5
17E
  6
CONTINUOUS
 62
7
 10
115.62551
 20
100.7
 30
-98.53057
 11
115.62551
 21
100.7
 31
-83.53057
  0
LINE
  8
1
  5
180
  6
CONTINUOUS
 62
7
 10
119.72551
 20
96.6
 30
-98.53057
 11
119.72551
 21
96.6
 31
-83.53057
  0
LINE
  8
1
  5
182
  6
CONTINUOUS
 62
7
 10
111.52551
 20
221.8
 30
-98.53057
 11
111.52551
 21
221.8
 31
-83.53057
  0
LINE
  8
1
  5
184
  6
CONTINUOUS
 62
7
 10
115.62551
 20
225.9
 30
-98.53057
 11
115.62551
 21
225.9
 31
-83.53057
  0
LINE
  8
1
  5
186
  6
CONTINUOUS
 62
7
 10
115.62551
 20
187.7
 30
-98.53057
 11
115.62551
 21
187.7
 31
-83.53057
  0
LINE
  8
1
  5
188
  6
CONTINUOUS
 62
7
 10
119.72551
 20
191.8
 30
-98.53057
 11
119.72551
 21
191.8
 31
-83.53057
  0
LINE
  8
1
  5
18A
  6
CONTINUOUS
 62
7
 10
115.62551
 20
14.1
 30
-98.53057
 11
115.62551
 21
14.1
 31
-83.53057
  0
LINE
  8
1
  5
18C
  6
CONTINUOUS
 62
7
 10
119.72551
 20
18.2
 30
-98.53057
 11
119.72551
 21
18.2
 31
-83.53057
  0
LINE
  8
1
  5
18E
  6
CONTINUOUS
 62
7
 10
111.52551
 20
48.2
 30
-98.53057
 11
111.52551
 21
48.2
 31
-83.53057
  0
LINE
  8
1
  5
190
  6
CONTINUOUS
 62
7
 10
115.62551
 20
52.3
 30
-98.53057
 11
115.62551
 21
52.3
 31
-83.53057
  0
LINE
  8
1
  5
192
  6
CONTINUOUS
 62
7
 10
129.72551
 20
240.0
 30
-83.53057
 11
129.72551
 21
143.4
 31
-83.53057
  0
LINE
  8
1
  5
194
  6
CONTINUOUS
 62
7
 10
129.72551
 20
143.4
 30
-98.53057
 11
129.72551
 21
143.4
 31
-83.53057
  0
LINE
  8
1
  5
196
  6
CONTINUOUS
 62
7
 10
129.72551
 20
240.0
 30
-98.53057
 11
129.72551
 21
143.4
 31
-98.53057
  0
LINE
  8
1
  5
198
  6
CONTINUOUS
 62
7
 10
129.72551
 20
240.0
 30
-98.53057
 11
129.72551
 21
240.0
 31
-83.53057
  0
LINE
  8
1
  5
19A
  6
CONTINUOUS
 62
7
 10
129.72551
 20
143.4
 30
-83.53057
 11
119.72551
 21
143.4
 31
-83.53057
  0
LINE
  8
1
  5
19C
  6
CONTINUOUS
 62
7
 10
119.72551
 20
143.4
 30
-98.53057
 11
119.72551
 21
143.4
 31
-83.53057
  0
LINE
  8
1
  5
19E
  6
CONTINUOUS
 62
7
 10
129.72551
 20
143.4
 30
-98.53057
 11
119.72551
 21
143.4
 31
-98.53057
  0
ARC
  8
1
  5
1A0
  6
CONTINUOUS
 62
7
 10
119.72551
 20
139.3
 30
-83.53057
 40
4.1
 50
90.0
 51
270.0
  0
LINE
  8
1
  5
1A2
  6
CONTINUOUS
 62
7
 10
119.72551
 20
135.2
 30
-98.53057
 11
119.72551
 21
135.2
 31
-83.53057
  0
ARC
  8
1
  5
1A4
  6
CONTINUOUS
 62
7
 10
119.72551
 20
139.3
 30
-98.53057
 40
4.1
 50
90.0
 51
270.0
  0
LINE
  8
1
  5
1A6
  6
CONTINUOUS
 62
7
 10
119.72551
 20
135.2
 30
-83.53057
 11
119.72551
 21
130.0
 31
-83.53057
  0
LINE
  8
1
  5
1A8
  6
CONTINUOUS
 62
7
 10
119.72551
 20
130.0
 30
-98.53057
 11
119.72551
 21
130.0
 31
-83.53057
  0
LINE
  8
1
  5
1AA
  6
CONTINUOUS
 62
7
 10
119.72551
 20
135.2
 30
-98.53057
 11
119.72551
 21
130.0
 31
-98.53057
  0
LINE
  8
1
  5
1AC
  6
CONTINUOUS
 62
7
 10
119.72551
 20
130.0
 30
-83.53057
 11
111.52551
 21
130.0
 31
-83.53057
  0
LINE
  8
1
  5
1AE
  6
CONTINUOUS
 62
7
 10
111.52551
 20
130.0
 30
-98.53057
 11
111.52551
 21
130.0
 31
-83.53057
  0
LINE
  8
1
  5
1B0
  6
CONTINUOUS
 62
7
 10
119.72551
 20
130.0
 30
-98.53057
 11
111.52551
 21
130.0
 31
-98.53057
  0
ARC
  8
1
  5
1B2
  6
CONTINUOUS
 62
7
 10
111.52551
 20
125.9
 30
-83.53057
 40
4.1
 50
90.0
 51
180.0
  0
LINE
  8
1
  5
1B4
  6
CONTINUOUS
 62
7
 10
107.42551
 20
125.9
 30
-98.53057
 11
107.42551
 21
125.9
 31
-83.53057
  0
ARC
  8
1
  5
1B6
  6
CONTINUOUS
 62
7
 10
111.52551
 20
125.9
 30
-98.53057
 40
4.1
 50
90.0
 51
180.0
  0
LINE
  8
1
  5
1B8
  6
CONTINUOUS
 62
7
 10
107.42551
 20
125.9
 30
-83.53057
 11
107.42551
 21
114.1
 31
-83.53057
  0
LINE
  8
1
  5
1BA
  6
CONTINUOUS
 62
7
 10
107.42551
 20
114.1
 30
-98.53057
 11
107.42551
 21
114.1
 31
-83.53057
  0
LINE
  8
1
  5
1BC
  6
CONTINUOUS
 62
7
 10
107.42551
 20
125.9
 30
-98.53057
 11
107.42551
 21
114.1
 31
-98.53057
  0
ARC
  8
1
  5
1BE
  6
CONTINUOUS
 62
7
 10
111.52551
 20
114.1
 30
-83.53057
 40
4.1
 50
180.0
 51
270.0
  0
LINE
  8
1
  5
1C0
  6
CONTINUOUS
 62
7
 10
111.52551
 20
110.0
 30
-98.53057
 11
111.52551
 21
110.0
 31
-83.53057
  0
ARC
  8
1
  5
1C2
  6
CONTINUOUS
 62
7
 10
111.52551
 20
114.1
 30
-98.53057
 40
4.1
 50
180.0
 51
270.0
  0
LINE
  8
1
  5
1C4
  6
CONTINUOUS
 62
7
 10
111.52551
 20
110.0
 30
-83.53057
 11
119.72551
 21
110.0
 31
-83.53057
  0
LINE
  8
1
  5
1C6
  6
CONTINUOUS
 62
7
 10
119.72551
 20
110.0
 30
-98.53057
 11
119.72551
 21
110.0
 31
-83.53057
  0
LINE
  8
1
  5
1C8
  6
CONTINUOUS
 62
7
 10
111.52551
 20
110.0
 30
-98.53057
 11
119.72551
 21
110.0
 31
-98.53057
  0
LINE
  8
1
  5
1CA
  6
CONTINUOUS
 62
7
 10
119.72551
 20
110.0
 30
-83.53057
 11
119.72551
 21
104.8
 31
-83.53057
  0
LINE
  8
1
  5
1CC
  6
CONTINUOUS
 62
7
 10
119.72551
 20
104.8
 30
-98.53057
 11
119.72551
 21
104.8
 31
-83.53057
  0
LINE
  8
1
  5
1CE
  6
CONTINUOUS
 62
7
 10
119.72551
 20
110.0
 30
-98.53057
 11
119.72551
 21
104.8
 31
-98.53057
  0
ARC
  8
1
  5
1D0
  6
CONTINUOUS
 62
7
 10
119.72551
 20
100.7
 30
-83.53057
 40
4.1
 50
90.0
 51
270.0
  0
LINE
  8
1
  5
1D2
  6
CONTINUOUS
 62
7
 10
119.72551
 20
96.6
 30
-98.53057
 11
119.72551
 21
96.6
 31
-83.53057
  0
ARC
  8
1
  5
1D4
  6
CONTINUOUS
 62
7
 10
119.72551
 20
100.7
 30
-98.53057
 40
4.1
 50
90.0
 51
270.0
  0
LINE
  8
1
  5
1D6
  6
CONTINUOUS
 62
7
 10
119.72551
 20
96.6
 30
-83.53057
 11
129.72551
 21
96.6
 31
-83.53057
  0
LINE
  8
1
  5
1D8
  6
CONTINUOUS
 62
7
 10
129.72551
 20
96.6
 30
-98.53057
 11
129.72551
 21
96.6
 31
-83.53057
  0
LINE
  8
1
  5
1DA
  6
CONTINUOUS
 62
7
 10
119.72551
 20
96.6
 30
-98.53057
 11
129.72551
 21
96.6
 31
-98.53057
  0
LINE
  8
1
  5
1DC
  6
CONTINUOUS
 62
7
 10
129.72551
 20
96.6
 30
-83.53057
 11
129.72551
 21
0.0
 31
-83.53057
  0
LINE
  8
1
  5
1DE
  6
CONTINUOUS
 62
7
 10
129.72551
 20
0.0
 30
-98.53057
 11
129.72551
 21
0.0
 31
-83.53057
  0
LINE
  8
1
  5
1E0
  6
CONTINUOUS
 62
7
 10
129.72551
 20
96.6
 30
-98.53057
 11
129.72551
 21
0.0
 31
-98.53057
  0
LINE
  8
1
  5
1E2
  6
CONTINUOUS
 62
7
 10
129.72551
 20
0.0
 30
-83.53057
 11
-35.27449
 21
0.0
 31
-83.53057
  0
LINE
  8
1
  5
1E4
  6
CONTINUOUS
 62
7
 10
-35.27449
 20
0.0
 30
-98.53057
 11
-35.27449
 21
0.0
 31
-83.53057
  0
LINE
  8
1
  5
1E6
  6
CONTINUOUS
 62
7
 10
129.72551
 20
0.0
 30
-98.53057
 11
-35.27449
 21
0.0
 31
-98.53057
  0
LINE
  8
1
  5
1E8
  6
CONTINUOUS
 62
7
 10
-35.27449
 20
0.0
 30
-83.53057
 11
-35.27449
 21
240.0
 31
-83.53057
  0
LINE
  8
1
  5
1EA
  6
CONTINUOUS
 62
7
 10
-35.27449
 20
240.0
 30
-98.53057
 11
-35.27449
 21
240.0
 31
-83.53057
  0
LINE
  8
1
  5
1EC
  6
CONTINUOUS
 62
7
 10
-35.27449
 20
0.0
 30
-98.53057
 11
-35.27449
 21
240.0
 31
-98.53057
  0
LINE
  8
1
  5
1EE
  6
CONTINUOUS
 62
7
 10
-35.27449
 20
240.0
 30
-83.53057
 11
129.72551
 21
240.0
 31
-83.53057
  0
LINE
  8
1
  5
1F0
  6
CONTINUOUS
 62
7
 10
-35.27449
 20
240.0
 30
-98.53057
 11
129.72551
 21
240.0
 31
-98.53057
  0
LINE
  8
1
  5
1F2
  6
CONTINUOUS
 62
7
 10
119.72551
 20
191.8
 30
-83.53057
 11
119.72551
 21
221.8
 31
-83.53057
  0
LINE
  8
1
  5
1F4
  6
CONTINUOUS
 62
7
 10
119.72551
 20
221.8
 30
-98.53057
 11
119.72551
 21
221.8
 31
-83.53057
  0
LINE
  8
1
  5
1F6
  6
CONTINUOUS
 62
7
 10
119.72551
 20
191.8
 30
-98.53057
 11
119.72551
 21
221.8
 31
-98.53057
  0
LINE
  8
1
  5
1F8
  6
CONTINUOUS
 62
7
 10
119.72551
 20
191.8
 30
-98.53057
 11
119.72551
 21
191.8
 31
-83.53057
  0
ARC
  8
1
  5
1FA
  6
CONTINUOUS
 62
7
 10
115.62551
 20
221.8
 30
-83.53057
 40
4.1
 50
360.0
 51
180.0
  0
LINE
  8
1
  5
1FC
  6
CONTINUOUS
 62
7
 10
111.52551
 20
221.8
 30
-98.53057
 11
111.52551
 21
221.8
 31
-83.53057
  0
ARC
  8
1
  5
1FE
  6
CONTINUOUS
 62
7
 10
115.62551
 20
221.8
 30
-98.53057
 40
4.1
 50
360.0
 51
180.0
  0
LINE
  8
1
  5
200
  6
CONTINUOUS
 62
7
 10
111.52551
 20
221.8
 30
-83.53057
 11
111.52551
 21
191.8
 31
-83.53057
  0
LINE
  8
1
  5
202
  6
CONTINUOUS
 62
7
 10
111.52551
 20
191.8
 30
-98.53057
 11
111.52551
 21
191.8
 31
-83.53057
  0
LINE
  8
1
  5
204
  6
CONTINUOUS
 62
7
 10
111.52551
 20
221.8
 30
-98.53057
 11
111.52551
 21
191.8
 31
-98.53057
  0
ARC
  8
1
  5
206
  6
CONTINUOUS
 62
7
 10
115.62551
 20
191.8
 30
-83.53057
 40
4.1
 50
180.0
 51
360.0
  0
ARC
  8
1
  5
208
  6
CONTINUOUS
 62
7
 10
115.62551
 20
191.8
 30
-98.53057
 40
4.1
 50
180.0
 51
360.0
  0
ARC
  8
1
  5
20A
  6
CONTINUOUS
 62
7
 10
115.62551
 20
18.2
 30
-83.53057
 40
4.1
 50
180.0
 51
360.0
  0
LINE
  8
1
  5
20C
  6
CONTINUOUS
 62
7
 10
119.72551
 20
18.2
 30
-98.53057
 11
119.72551
 21
18.2
 31
-83.53057
  0
ARC
  8
1
  5
20E
  6
CONTINUOUS
 62
7
 10
115.62551
 20
18.2
 30
-98.53057
 40
4.1
 50
180.0
 51
360.0
  0
LINE
  8
1
  5
210
  6
CONTINUOUS
 62
7
 10
111.52551
 20
18.2
 30
-98.53057
 11
111.52551
 21
18.2
 31
-83.53057
  0
LINE
  8
1
  5
212
  6
CONTINUOUS
 62
7
 10
119.72551
 20
18.2
 30
-83.53057
 11
119.72551
 21
48.2
 31
-83.53057
  0
LINE
  8
1
  5
214
  6
CONTINUOUS
 62
7
 10
119.72551
 20
48.2
 30
-98.53057
 11
119.72551
 21
48.2
 31
-83.53057
  0
LINE
  8
1
  5
216
  6
CONTINUOUS
 62
7
 10
119.72551
 20
18.2
 30
-98.53057
 11
119.72551
 21
48.2
 31
-98.53057
  0
ARC
  8
1
  5
218
  6
CONTINUOUS
 62
7
 10
115.62551
 20
48.2
 30
-83.53057
 40
4.1
 50
360.0
 51
180.0
  0
LINE
  8
1
  5
21A
  6
CONTINUOUS
 62
7
 10
111.52551
 20
48.2
 30
-98.53057
 11
111.52551
 21
48.2
 31
-83.53057
  0
ARC
  8
1
  5
21C
  6
CONTINUOUS
 62
7
 10
115.62551
 20
48.2
 30
-98.53057
 40
4.1
 50
360.0
 51
180.0
  0
LINE
  8
1
  5
21E
  6
CONTINUOUS
 62
7
 10
111.52551
 20
48.2
 30
-83.53057
 11
111.52551
 21
18.2
 31
-83.53057
  0
LINE
  8
1
  5
220
  6
CONTINUOUS
 62
7
 10
111.52551
 20
48.2
 30
-98.53057
 11
111.52551
 21
18.2
 31
-98.53057
  0
ENDBLK
  8
1
  5
221
  0
ENDSEC
  0
SECTION
  2
ENTITIES
  0
INSERT
  8
1
  5
2
  6
CONTINUOUS
 62
7
  2
*M2
 10
179.72517
 20
240.0
 30
-83.53057
 41
1.0
 42
1.0
 43
1.0
 70
1
 71
1
  0
POLYLINE
  8
1
  5
4
  6
CONTINUOUS
 62
7
 10
0.0
 20
0.0
 30
-98.53057
 66
1
 70
0
  0
VERTEX
  8
1
  5
5
  6
CONTINUOUS
 62
7
 10
129.72551
 20
143.4
 30
-98.53057
  0
VERTEX
  8
1
  5
6
  6
CONTINUOUS
 62
7
 10
119.72551
 20
143.4
 30
-98.53057
  0
VERTEX
  8
1
  5
7
  6
CONTINUOUS
 62
7
 10
119.72551
 20
143.4
 30
-98.53057
 42
1.0
  0
VERTEX
  8
1
  5
8
  6
CONTINUOUS
 62
7
 10
119.72551
 20
135.2
 30
-98.53057
  0
VERTEX
  8
1
  5
9
  6
CONTINUOUS
 62
7
 10
119.72551
 20
135.2
 30
-98.53057
  0
VERTEX
  8
1
  5
A
  6
CONTINUOUS
 62
7
 10
119.72551
 20
130.0
 30
-98.53057
  0
VERTEX
  8
1
  5
B
  6
CONTINUOUS
 62
7
 10
111.52551
 20
130.0
 30
-98.53057
  0
VERTEX
  8
1
  5
C
  6
CONTINUOUS
 62
7
 10
111.52551
 20
130.0
 30
-98.53057
 42
0.414214
  0
VERTEX
  8
1
  5
D
  6
CONTINUOUS
 62
7
 10
107.42551
 20
125.9
 30
-98.53057
  0
VERTEX
  8
1
  5
E
  6
CONTINUOUS
 62
7
 10
107.42551
 20
125.9
 30
-98.53057
  0
VERTEX
  8
1
  5
F
  6
CONTINUOUS
 62
7
 10
107.42551
 20
114.1
 30
-98.53057
  0
VERTEX
  8
1
  5
10
  6
CONTINUOUS
 62
7
 10
107.42551
 20
114.1
 30
-98.53057
 42
0.414214
  0
VERTEX
  8
1
  5
11
  6
CONTINUOUS
 62
7
 10
111.52551
 20
110.0
 30
-98.53057
  0
VERTEX
  8
1
  5
12
  6
CONTINUOUS
 62
7
 10
111.52551
 20
110.0
 30
-98.53057
  0
VERTEX
  8
1
  5
13
  6
CONTINUOUS
 62
7
 10
119.72551
 20
110.0
 30
-98.53057
  0
VERTEX
  8
1
  5
14
  6
CONTINUOUS
 62
7
 10
119.72551
 20
104.8
 30
-98.53057
  0
VERTEX
  8
1
  5
15
  6
CONTINUOUS
 62
7
 10
119.72551
 20
104.8
 30
-98.53057
 42
1.0
  0
VERTEX
  8
1
  5
16
  6
CONTINUOUS
 62
7
 10
119.72551
 20
96.6
 30
-98.53057
  0
VERTEX
  8
1
  5
17
  6
CONTINUOUS
 62
7
 10
119.72551
 20
96.6
 30
-98.53057
  0
VERTEX
  8
1
  5
18
  6
CONTINUOUS
 62
7
 10
129.72551
 20
96.6
 30
-98.53057
  0
SEQEND
  8
1
  5
19
  0
INSERT
  8
1
  5
1B
  6
CONTINUOUS
 62
7
  2
*M3
 10
0.0
 20
0.0
 30
0.0
 41
1.0
 42
1.0
 43
1.0
 70
1
 71
1
  0
ENDSEC
  0
EOF
