  0
SECTION
  2
HEADER
  9
$ACADVER
  1
AC1009
  9
$INSBASE
 10
0.0
 20
0.0
 30
0.0
  9
$EXTMAX
 10
512.88637
 20
-18.36003
 30
11.0
  9
$EXTMIN
 10
-17.11363
 20
-183.36003
 30
-4.0
  9
$LIMMAX
 10
12.0
 20
9.0
  9
$LIMMIN
 10
0.0
 20
0.0
  9
$ORTHOMODE
 70
0
  9
$REGENMODE
 70
1
  9
$FILLMODE
 70
1
  9
$QTEXTMODE
 70
0
  9
$MIRRTEXT
 70
1
  9
$DRAGMODE
 70
2
  9
$LTSCALE
 40
1.0
  9
$OSMODE
 70
0
  9
$ATTMODE
 70
1
  9
$TEXTSIZE
 40
0.2
  9
$TRACEWID
 40
0.05
  9
$TEXTSTYLE
  7
STANDARD
  9
$CLAYER
  8
0
  9
$CELTYPE
  6
CONTINUOUS
  9
$CECOLOR
 62
256
  9
$DIMSCALE
 40
1.0
  9
$DIMASZ
 40
0.18
  9
$DIMEXO
 40
0.0625
  9
$DIMDLI
 40
0.38
  9
$DIMRND
 40
0.0
  9
$DIMDLE
 40
0.0
  9
$DIMEXE
 40
0.18
  9
$DIMTP
 40
0.0
  9
$DIMTM
 40
0.0
  9
$DIMTXT
 40
0.18
  9
$DIMCEN
 40
0.09
  9
$DIMTSZ
 40
0.0
  9
$DIMTOL
 70
0
  9
$DIMLIM
 70
0
  9
$DIMTIH
 70
1
  9
$DIMTOH
 70
1
  9
$DIMSE1
 70
0
  9
$DIMSE2
 70
0
  9
$DIMTAD
 70
0
  9
$DIMZIN
 70
0
  9
$DIMBLK
  1

  9
$DIMASO
 70
1
  9
$DIMSHO
 70
1
  9
$DIMPOST
  1

  9
$DIMAPOST
  1

  9
$DIMALT
 70
0
  9
$DIMALTD
 70
2
  9
$DIMALTF
 40
25.4
  9
$DIMLFAC
 40
1.0
  9
$DIMTOFL
 70
0
  9
$DIMTVP
 40
0.0
  9
$DIMTIX
 70
0
  9
$DIMSOXD
 70
0
  9
$DIMSAH
 70
0
  9
$DIMBLK1
  1

  9
$DIMBLK2
  1

  9
$DIMSTYLE
  2
*UNNAMED
  9
$DIMCLRD
 70
0
  9
$DIMCLRE
 70
0
  9
$DIMCLRT
 70
0
  9
$DIMTFAC
 40
1.0
  9
$DIMGAP
 40
0.09
  9
$LUNITS
 70
2
  9
$LUPREC
 70
4
  9
$AXISMODE
 70
0
  9
$AXISUNIT
 10
0.0
 20
0.0
  9
$SKETCHINC
 40
0.1
  9
$FILLETRAD
 40
0.0
  9
$AUNITS
 70
0
  9
$AUPREC
 70
0
  9
$MENU
  1
acad
  9
$ELEVATION
 40
0.0
  9
$PELEVATION
 40
0.0
  9
$THICKNESS
 40
0.0
  9
$LIMCHECK
 70
0
  9
$BLIPMODE
 70
1
  9
$CHAMFERA
 40
0.0
  9
$CHAMFERB
 40
0.0
  9
$SKPOLY
 70
0
  9
$TDCREATE
 40
0.0
  9
$TDUPDATE
 40
0.0
  9
$TDINDWG
 40
0.0
  9
$TDUSRTIMER
 40
0.0
  9
$USRTIMER
 70
1
  9
$ANGBASE
 50
0.0
  9
$ANGDIR
 70
0
  9
$PDMODE
 70
0
  9
$PDSIZE
 40
0.0
  9
$PLINEWID
 40
0.0
  9
$COORDS
 70
0
  9
$SPLFRAME
 70
0
  9
$SPLINETYPE
 70
6
  9
$SPLINESEGS
 70
10
  9
$ATTDIA
 70
0
  9
$ATTREQ
 70
1
  9
$HANDLING
 70
1
  9
$HANDSEED
  5
174
  9
$SURFTAB1
 70
6
  9
$SURFTAB2
 70
6
  9
$SURFTYPE
 70
6
  9
$SURFU
 70
10
  9
$SURFV
 70
10
  9
$UCSNAME
  2

  9
$UCSORG
 10
0.0
 20
0.0
 30
0.0
  9
$UCSXDIR
 10
1.0
 20
0.0
 30
0.0
  9
$UCSYDIR
 10
0.0
 20
1.0
 30
0.0
  9
$PUCSNAME
  2
 
  9
$PUCSORG
 10
0.0
 20
0.0
 30
0.0
  9
$PUCSXDIR
 10
1.0
 20
0.0
 30
0.0
  9
$PUCSYDIR
 10
0.0
 20
1.0
 30
0.0
  9
$USERI1
 70
0
  9
$USERI2
 70
0
  9
$USERI3
 70
0
  9
$USERI4
 70
0
  9
$USERI5
 70
0
  9
$USERR1
 40
0.0
  9
$USERR2
 40
0.0
  9
$USERR3
 40
0.0
  9
$USERR4
 40
0.0
  9
$USERR5
 40
0.0
  9
$WORLDVIEW
 70
1
  9
$SHADEDGE
 70
3
  9
$SHADEDIF
 70
70
  9
$TILEMODE
 70
1
  9
$MAXACTVP
 70
16
  9
$PINSBASE
 10
0.0
 20
0.0
 30
0.0
  9
$PLIMCHECK
 70
0
  9
$PEXTMIN
 10
-1.000000E+020
 20
-1.000000E+020
 30
-1.000000E+020
  9
$PEXTMAX
 10
-1.000000E+020
 20
-1.000000E+020
 30
-1.000000E+020
  9
$PLIMMIN
 10
0.0
 20
0.0
  9
$PLIMMAX
 10
12.0
 20
9.0
  9
$UNITMODE
 70
0
  9
$VISRETAIN
 70
0
  0
ENDSEC
  0
SECTION
  2
TABLES
  0
TABLE
  2
LTYPE
 70
7
  0
LTYPE
  2
CONTINUOUS
 70
64
  3
Solid line
 72
65
 73
0
 40
0.0
  0
LTYPE
  2
DOT
 70
64
  3
. . . . . . . . . . . . . . . . . . . . . . . . . . . . . . . . .
 72
65
 73
2
 40
0.25
 49
0.0
 49
-0.25
  0
LTYPE
  2
HIDDEN
 70
64
  3
__ __ __ __ __ __ __ __ __ __ __ __ __ __ __ __ __ __ __ __ __ 
 72
65
 73
2
 40
0.375
 49
0.25
 49
-0.125
  0
LTYPE
  2
DASHED
 70
64
  3
__ __ __ __ __ __ __ __ __ __ __ __ __ __ __ __ __ __ __ __ __
 72
65
 73
2
 40
0.75
 49
0.5
 49
-0.25
  0
LTYPE
  2
DASHDOT
 70
64
  3
__ . __ . __ . __ . __ . __ . __ . __ . __ . __ . __ . __ . _
 72
65
 73
4
 40
1.0
 49
0.5
 49
-0.25
 49
0.0
 49
-0.25
  0
LTYPE
  2
DIVIDE
 70
64
  3
____ . . ____ . . ____ . . ____ . . ____ . . ____ . . ____ . .
 72
65
 73
6
 40
1.25
 49
0.5
 49
-0.25
 49
0.0
 49
-0.25
 49
0.0
 49
-0.25
  0
LTYPE
  2
CENTER
 70
64
  3
____ _ ____ _ ____ _ ____ _ ____ _ ____ _ ____ _ ____ _ ____ _
 72
65
 73
4
 40
2.0
 49
1.25
 49
-0.25
 49
0.25
 49
-0.25
  0
ENDTAB
  0
TABLE
  2
APPID
 70
1
  0
APPID
  2
ACAD
 70
0
  0
ENDTAB
  0
TABLE
  2
DIMSTYLE
 70
0
  0
ENDTAB
  0
TABLE
  2
LAYER
 70
4
  0
LAYER
  2
0
 70
0
 62
7
  6
CONTINUOUS
  0
LAYER
  2
CONSTRUCTION_CLASS
 70
0
 62
7
  6
CONTINUOUS
  0
LAYER
  2
PATTERN_CLASS
 70
0
 62
7
  6
CONTINUOUS
  0
LAYER
  2
1
 70
0
 62
7
  6
CONTINUOUS
  0
ENDTAB
  0
TABLE
  2
STYLE
 70
1
  0
STYLE
  2
STANDARD
 70
0
 40
0.2
 41
1.0
 50
0.0
 71
0
 42
0.0
  3
txt
  4

  0
ENDTAB
  0
TABLE
  2
UCS
 70
0
  0
ENDTAB
  0
TABLE
  2
VIEW
 70
0
  0
ENDTAB
  0
TABLE
  2
VPORT
 70
4
  0
VPORT
  2
*ACTIVE
 70
0
 10
0.002463
 20
0.50171
 11
0.498358
 21
0.996579
 12
0.0
 22
0.0
 13
0.0
 23
0.0
 14
0.0
 24
0.0
 15
0.0
 25
0.0
 16
0.0
 26
-1.890158E-015
 36
30.86964
 17
225.44189
 27
-100.86003
 37
3.5
 40
358.09386
 41
1.391705
 42
50.0
 43
15.43482
 44
-15.43482
 50
0.0
 51
0.0
 71
22
 72
100
 73
1
 74
0
 75
0
 76
0
 77
0
 78
0
  0
VPORT
  2
*ACTIVE
 70
0
 10
0.500821
 20
0.50171
 11
0.996716
 21
0.996579
 12
-8.791375E-009
 22
1.257257E-008
 13
0.0
 23
0.0
 14
0.0
 24
0.0
 15
0.0
 25
0.0
 16
-245.162381
 26
-245.162381
 36
245.162381
 17
233.170417
 27
-86.14407
 37
3.499999
 40
332.04031
 41
1.391705
 42
50.0
 43
212.31685
 44
-212.31685
 50
0.0
 51
0.0
 71
22
 72
100
 73
1
 74
0
 75
0
 76
0
 77
0
 78
0
  0
VPORT
  2
*ACTIVE
 70
0
 10
0.002463
 20
0.004561
 11
0.498358
 21
0.49829
 12
0.0
 22
0.0
 13
0.0
 23
0.0
 14
0.0
 24
0.0
 15
0.0
 25
0.0
 16
0.0
 26
-180.85702
 36
0.0
 17
225.361836
 27
-100.86003
 37
3.5
 40
357.15398
 41
1.394919
 42
50.0
 43
90.42851
 44
-90.42851
 50
0.0
 51
0.0
 71
22
 72
100
 73
1
 74
0
 75
0
 76
0
 77
0
 78
0
  0
VPORT
  2
*ACTIVE
 70
0
 10
0.500821
 20
0.004561
 11
0.996716
 21
0.49829
 12
0.0
 22
0.0
 13
0.0
 23
0.0
 14
0.0
 24
0.0
 15
0.0
 25
0.0
 16
543.25
 26
0.0
 36
0.0
 17
247.88637
 27
-108.160412
 37
3.500005
 40
115.75641
 41
1.394919
 42
50.0
 43
271.625
 44
-271.625
 50
0.0
 51
0.0
 71
22
 72
100
 73
1
 74
0
 75
0
 76
0
 77
0
 78
0
  0
ENDTAB
  0
ENDSEC
  0
SECTION
  2
BLOCKS
  0
BLOCK
  8
1
  5
6
 70
1
 10
0.0
 20
0.0
 30
0.0
  2
*M0
  3
*M0
  0
LINE
  8
1
  5
8
  6
CONTINUOUS
 62
7
 10
222.88637
 20
-51.36003
 30
0.0
 11
202.01137
 21
-51.36003
 31
0.0
  0
LINE
  8
1
  5
A
  6
CONTINUOUS
 62
7
 10
222.88637
 20
-51.36003
 30
0.0
 11
222.88637
 21
-51.36003
 31
11.0
  0
ARC
  8
1
  5
C
  6
CONTINUOUS
 62
7
 10
202.01137
 20
-55.48503
 30
0.0
 40
4.125
 50
90.0
 51
270.0
  0
LINE
  8
1
  5
E
  6
CONTINUOUS
 62
7
 10
202.01137
 20
-59.61003
 30
0.0
 11
207.88637
 21
-59.61003
 31
0.0
  0
LINE
  8
1
  5
10
  6
CONTINUOUS
 62
7
 10
207.88637
 20
-59.61003
 30
0.0
 11
207.88637
 21
-67.86003
 31
0.0
  0
LINE
  8
1
  5
12
  6
CONTINUOUS
 62
7
 10
207.88637
 20
-67.86003
 30
0.0
 11
202.01137
 21
-67.86003
 31
0.0
  0
ARC
  8
1
  5
14
  6
CONTINUOUS
 62
7
 10
202.01137
 20
-71.98503
 30
0.0
 40
4.125
 50
90.0
 51
270.0
  0
LINE
  8
1
  5
16
  6
CONTINUOUS
 62
7
 10
222.88637
 20
-76.11003
 30
0.0
 11
222.88637
 21
-76.11003
 31
11.0
  0
LINE
  8
1
  5
18
  6
CONTINUOUS
 62
7
 10
202.01137
 20
-76.11003
 30
0.0
 11
222.88637
 21
-76.11003
 31
0.0
  0
LINE
  8
1
  5
1A
  6
CONTINUOUS
 62
7
 10
222.88637
 20
-100.86003
 30
0.0
 11
202.01137
 21
-100.86003
 31
0.0
  0
LINE
  8
1
  5
1C
  6
CONTINUOUS
 62
7
 10
222.88637
 20
-100.86003
 30
0.0
 11
222.88637
 21
-100.86003
 31
11.0
  0
ARC
  8
1
  5
1E
  6
CONTINUOUS
 62
7
 10
202.01137
 20
-104.98503
 30
0.0
 40
4.125
 50
90.0
 51
270.0
  0
LINE
  8
1
  5
20
  6
CONTINUOUS
 62
7
 10
202.01137
 20
-109.11003
 30
0.0
 11
207.88637
 21
-109.11003
 31
0.0
  0
LINE
  8
1
  5
22
  6
CONTINUOUS
 62
7
 10
207.88637
 20
-109.11003
 30
0.0
 11
207.88637
 21
-117.36003
 31
0.0
  0
LINE
  8
1
  5
24
  6
CONTINUOUS
 62
7
 10
207.88637
 20
-117.36003
 30
0.0
 11
202.01137
 21
-117.36003
 31
0.0
  0
ARC
  8
1
  5
26
  6
CONTINUOUS
 62
7
 10
202.01137
 20
-121.48503
 30
0.0
 40
4.125
 50
90.0
 51
270.0
  0
LINE
  8
1
  5
28
  6
CONTINUOUS
 62
7
 10
222.88637
 20
-125.61003
 30
0.0
 11
222.88637
 21
-125.61003
 31
11.0
  0
LINE
  8
1
  5
2A
  6
CONTINUOUS
 62
7
 10
202.01137
 20
-125.61003
 30
0.0
 11
222.88637
 21
-125.61003
 31
0.0
  0
LINE
  8
1
  5
2C
  6
CONTINUOUS
 62
7
 10
222.88637
 20
-150.36003
 30
0.0
 11
202.01137
 21
-150.36003
 31
0.0
  0
LINE
  8
1
  5
2E
  6
CONTINUOUS
 62
7
 10
222.88637
 20
-150.36003
 30
0.0
 11
222.88637
 21
-150.36003
 31
11.0
  0
ARC
  8
1
  5
30
  6
CONTINUOUS
 62
7
 10
202.01137
 20
-154.48503
 30
0.0
 40
4.125
 50
90.0
 51
270.0
  0
LINE
  8
1
  5
32
  6
CONTINUOUS
 62
7
 10
202.01137
 20
-158.61003
 30
0.0
 11
207.88637
 21
-158.61003
 31
0.0
  0
LINE
  8
1
  5
34
  6
CONTINUOUS
 62
7
 10
207.88637
 20
-183.36003
 30
0.0
 11
207.88637
 21
-183.36003
 31
11.0
  0
LINE
  8
1
  5
36
  6
CONTINUOUS
 62
7
 10
207.88637
 20
-158.61003
 30
0.0
 11
207.88637
 21
-183.36003
 31
0.0
  0
LINE
  8
1
  5
38
  6
CONTINUOUS
 62
7
 10
222.88637
 20
-18.36003
 30
11.0
 11
222.88637
 21
-51.36003
 31
11.0
  0
LINE
  8
1
  5
3A
  6
CONTINUOUS
 62
7
 10
-17.11363
 20
-18.36003
 30
11.0
 11
222.88637
 21
-18.36003
 31
11.0
  0
LINE
  8
1
  5
3C
  6
CONTINUOUS
 62
7
 10
-17.11363
 20
-183.36003
 30
11.0
 11
-17.11363
 21
-18.36003
 31
11.0
  0
LINE
  8
1
  5
3E
  6
CONTINUOUS
 62
7
 10
207.88637
 20
-183.36003
 30
11.0
 11
-17.11363
 21
-183.36003
 31
11.0
  0
LINE
  8
1
  5
40
  6
CONTINUOUS
 62
7
 10
222.88637
 20
-125.61003
 30
11.0
 11
222.88637
 21
-150.36003
 31
11.0
  0
LINE
  8
1
  5
42
  6
CONTINUOUS
 62
7
 10
222.88637
 20
-76.11003
 30
11.0
 11
222.88637
 21
-100.86003
 31
11.0
  0
LINE
  8
1
  5
44
  6
CONTINUOUS
 62
7
 10
207.88637
 20
-183.36003
 30
0.0
 11
222.88637
 21
-183.36003
 31
0.0
  0
LINE
  8
1
  5
46
  6
CONTINUOUS
 62
7
 10
222.88637
 20
-183.36003
 30
0.0
 11
222.88637
 21
-150.36003
 31
0.0
  0
LINE
  8
1
  5
48
  6
CONTINUOUS
 62
7
 10
222.88637
 20
-76.11003
 30
0.0
 11
222.88637
 21
-51.36003
 31
0.0
  0
LINE
  8
1
  5
4A
  6
CONTINUOUS
 62
7
 10
222.88637
 20
-125.61003
 30
0.0
 11
222.88637
 21
-100.86003
 31
0.0
  0
LINE
  8
1
  5
4C
  6
CONTINUOUS
 62
7
 10
222.88637
 20
-18.36003
 30
-4.0
 11
222.88637
 21
-183.36003
 31
-4.0
  0
LINE
  8
1
  5
4E
  6
CONTINUOUS
 62
7
 10
222.88637
 20
-183.36003
 30
-4.0
 11
-17.11363
 21
-183.36003
 31
-4.0
  0
LINE
  8
1
  5
50
  6
CONTINUOUS
 62
7
 10
-17.11363
 20
-183.36003
 30
-4.0
 11
-17.11363
 21
-18.36003
 31
-4.0
  0
LINE
  8
1
  5
52
  6
CONTINUOUS
 62
7
 10
-17.11363
 20
-18.36003
 30
-4.0
 11
222.88637
 21
-18.36003
 31
-4.0
  0
LINE
  8
1
  5
54
  6
CONTINUOUS
 62
7
 10
-17.11363
 20
-183.36003
 30
-4.0
 11
-17.11363
 21
-183.36003
 31
11.0
  0
LINE
  8
1
  5
56
  6
CONTINUOUS
 62
7
 10
222.88637
 20
-183.36003
 30
0.0
 11
222.88637
 21
-183.36003
 31
-4.0
  0
LINE
  8
1
  5
58
  6
CONTINUOUS
 62
7
 10
-17.11363
 20
-18.36003
 30
-4.0
 11
-17.11363
 21
-18.36003
 31
11.0
  0
LINE
  8
1
  5
5A
  6
CONTINUOUS
 62
7
 10
222.88637
 20
-18.36003
 30
-4.0
 11
222.88637
 21
-18.36003
 31
11.0
  0
ENDBLK
  8
1
  5
5B
  0
BLOCK
  8
1
  5
5D
 70
1
 10
0.0
 20
0.0
 30
0.0
  2
*M1
  3
*M1
  0
LINE
  8
1
  5
5F
  6
CONTINUOUS
 62
7
 10
197.88637
 20
-55.48503
 30
0.0
 11
197.88637
 21
-55.48503
 31
11.0
  0
LINE
  8
1
  5
61
  6
CONTINUOUS
 62
7
 10
202.01137
 20
-59.61003
 30
0.0
 11
202.01137
 21
-59.61003
 31
11.0
  0
LINE
  8
1
  5
63
  6
CONTINUOUS
 62
7
 10
197.88637
 20
-71.98503
 30
0.0
 11
197.88637
 21
-71.98503
 31
11.0
  0
LINE
  8
1
  5
65
  6
CONTINUOUS
 62
7
 10
202.01137
 20
-76.11003
 30
0.0
 11
202.01137
 21
-76.11003
 31
11.0
  0
LINE
  8
1
  5
67
  6
CONTINUOUS
 62
7
 10
197.88637
 20
-104.98503
 30
0.0
 11
197.88637
 21
-104.98503
 31
11.0
  0
LINE
  8
1
  5
69
  6
CONTINUOUS
 62
7
 10
202.01137
 20
-109.11003
 30
0.0
 11
202.01137
 21
-109.11003
 31
11.0
  0
LINE
  8
1
  5
6B
  6
CONTINUOUS
 62
7
 10
197.88637
 20
-121.48503
 30
0.0
 11
197.88637
 21
-121.48503
 31
11.0
  0
LINE
  8
1
  5
6D
  6
CONTINUOUS
 62
7
 10
202.01137
 20
-125.61003
 30
0.0
 11
202.01137
 21
-125.61003
 31
11.0
  0
LINE
  8
1
  5
6F
  6
CONTINUOUS
 62
7
 10
197.88637
 20
-154.48503
 30
0.0
 11
197.88637
 21
-154.48503
 31
11.0
  0
LINE
  8
1
  5
71
  6
CONTINUOUS
 62
7
 10
202.01137
 20
-158.61003
 30
0.0
 11
202.01137
 21
-158.61003
 31
11.0
  0
LINE
  8
1
  5
73
  6
CONTINUOUS
 62
7
 10
222.88637
 20
-51.36003
 30
11.0
 11
202.01137
 21
-51.36003
 31
11.0
  0
LINE
  8
1
  5
75
  6
CONTINUOUS
 62
7
 10
202.01137
 20
-51.36003
 30
0.0
 11
202.01137
 21
-51.36003
 31
11.0
  0
ARC
  8
1
  5
77
  6
CONTINUOUS
 62
7
 10
202.01137
 20
-55.48503
 30
11.0
 40
4.125
 50
90.0
 51
270.0
  0
LINE
  8
1
  5
79
  6
CONTINUOUS
 62
7
 10
202.01137
 20
-59.61003
 30
0.0
 11
202.01137
 21
-59.61003
 31
11.0
  0
LINE
  8
1
  5
7B
  6
CONTINUOUS
 62
7
 10
202.01137
 20
-59.61003
 30
11.0
 11
207.88637
 21
-59.61003
 31
11.0
  0
LINE
  8
1
  5
7D
  6
CONTINUOUS
 62
7
 10
207.88637
 20
-59.61003
 30
0.0
 11
207.88637
 21
-59.61003
 31
11.0
  0
LINE
  8
1
  5
7F
  6
CONTINUOUS
 62
7
 10
207.88637
 20
-59.61003
 30
11.0
 11
207.88637
 21
-67.86003
 31
11.0
  0
LINE
  8
1
  5
81
  6
CONTINUOUS
 62
7
 10
207.88637
 20
-67.86003
 30
0.0
 11
207.88637
 21
-67.86003
 31
11.0
  0
LINE
  8
1
  5
83
  6
CONTINUOUS
 62
7
 10
207.88637
 20
-67.86003
 30
11.0
 11
202.01137
 21
-67.86003
 31
11.0
  0
LINE
  8
1
  5
85
  6
CONTINUOUS
 62
7
 10
202.01137
 20
-67.86003
 30
0.0
 11
202.01137
 21
-67.86003
 31
11.0
  0
ARC
  8
1
  5
87
  6
CONTINUOUS
 62
7
 10
202.01137
 20
-71.98503
 30
11.0
 40
4.125
 50
90.0
 51
270.0
  0
LINE
  8
1
  5
89
  6
CONTINUOUS
 62
7
 10
202.01137
 20
-76.11003
 30
0.0
 11
202.01137
 21
-76.11003
 31
11.0
  0
LINE
  8
1
  5
8B
  6
CONTINUOUS
 62
7
 10
202.01137
 20
-76.11003
 30
11.0
 11
222.88637
 21
-76.11003
 31
11.0
  0
LINE
  8
1
  5
8D
  6
CONTINUOUS
 62
7
 10
222.88637
 20
-100.86003
 30
11.0
 11
202.01137
 21
-100.86003
 31
11.0
  0
LINE
  8
1
  5
8F
  6
CONTINUOUS
 62
7
 10
202.01137
 20
-100.86003
 30
0.0
 11
202.01137
 21
-100.86003
 31
11.0
  0
ARC
  8
1
  5
91
  6
CONTINUOUS
 62
7
 10
202.01137
 20
-104.98503
 30
11.0
 40
4.125
 50
90.0
 51
270.0
  0
LINE
  8
1
  5
93
  6
CONTINUOUS
 62
7
 10
202.01137
 20
-109.11003
 30
0.0
 11
202.01137
 21
-109.11003
 31
11.0
  0
LINE
  8
1
  5
95
  6
CONTINUOUS
 62
7
 10
202.01137
 20
-109.11003
 30
11.0
 11
207.88637
 21
-109.11003
 31
11.0
  0
LINE
  8
1
  5
97
  6
CONTINUOUS
 62
7
 10
207.88637
 20
-109.11003
 30
0.0
 11
207.88637
 21
-109.11003
 31
11.0
  0
LINE
  8
1
  5
99
  6
CONTINUOUS
 62
7
 10
207.88637
 20
-109.11003
 30
11.0
 11
207.88637
 21
-117.36003
 31
11.0
  0
LINE
  8
1
  5
9B
  6
CONTINUOUS
 62
7
 10
207.88637
 20
-117.36003
 30
0.0
 11
207.88637
 21
-117.36003
 31
11.0
  0
LINE
  8
1
  5
9D
  6
CONTINUOUS
 62
7
 10
207.88637
 20
-117.36003
 30
11.0
 11
202.01137
 21
-117.36003
 31
11.0
  0
LINE
  8
1
  5
9F
  6
CONTINUOUS
 62
7
 10
202.01137
 20
-117.36003
 30
0.0
 11
202.01137
 21
-117.36003
 31
11.0
  0
ARC
  8
1
  5
A1
  6
CONTINUOUS
 62
7
 10
202.01137
 20
-121.48503
 30
11.0
 40
4.125
 50
90.0
 51
270.0
  0
LINE
  8
1
  5
A3
  6
CONTINUOUS
 62
7
 10
202.01137
 20
-125.61003
 30
0.0
 11
202.01137
 21
-125.61003
 31
11.0
  0
LINE
  8
1
  5
A5
  6
CONTINUOUS
 62
7
 10
202.01137
 20
-125.61003
 30
11.0
 11
222.88637
 21
-125.61003
 31
11.0
  0
LINE
  8
1
  5
A7
  6
CONTINUOUS
 62
7
 10
222.88637
 20
-150.36003
 30
11.0
 11
202.01137
 21
-150.36003
 31
11.0
  0
LINE
  8
1
  5
A9
  6
CONTINUOUS
 62
7
 10
202.01137
 20
-150.36003
 30
0.0
 11
202.01137
 21
-150.36003
 31
11.0
  0
ARC
  8
1
  5
AB
  6
CONTINUOUS
 62
7
 10
202.01137
 20
-154.48503
 30
11.0
 40
4.125
 50
90.0
 51
270.0
  0
LINE
  8
1
  5
AD
  6
CONTINUOUS
 62
7
 10
202.01137
 20
-158.61003
 30
0.0
 11
202.01137
 21
-158.61003
 31
11.0
  0
LINE
  8
1
  5
AF
  6
CONTINUOUS
 62
7
 10
202.01137
 20
-158.61003
 30
11.0
 11
207.88637
 21
-158.61003
 31
11.0
  0
LINE
  8
1
  5
B1
  6
CONTINUOUS
 62
7
 10
207.88637
 20
-158.61003
 30
0.0
 11
207.88637
 21
-158.61003
 31
11.0
  0
LINE
  8
1
  5
B3
  6
CONTINUOUS
 62
7
 10
207.88637
 20
-158.61003
 30
11.0
 11
207.88637
 21
-183.36003
 31
11.0
  0
ENDBLK
  8
1
  5
B4
  0
BLOCK
  8
1
  5
B6
 70
1
 10
0.0
 20
0.0
 30
0.0
  2
*M2
  3
*M2
  0
INSERT
  8
1
  5
B8
  6
CONTINUOUS
 62
7
  2
*M0
 10
0.0
 20
0.0
 30
0.0
 41
1.0
 42
1.0
 43
1.0
 70
1
 71
1
  0
INSERT
  8
1
  5
BA
  6
CONTINUOUS
 62
7
  2
*M1
 10
0.0
 20
0.0
 30
0.0
 41
1.0
 42
1.0
 43
1.0
 70
1
 71
1
  0
ENDBLK
  8
1
  5
BB
  0
BLOCK
  8
1
  5
BD
 70
1
 10
0.0
 20
0.0
 30
0.0
  2
*M3
  3
*M3
  0
LINE
  8
1
  5
BF
  6
CONTINUOUS
 62
7
 10
-222.88637
 20
51.36003
 30
0.0
 11
-202.01137
 21
51.36003
 31
0.0
  0
LINE
  8
1
  5
C1
  6
CONTINUOUS
 62
7
 10
-222.88637
 20
51.36003
 30
0.0
 11
-222.88637
 21
51.36003
 31
11.0
  0
ARC
  8
1
  5
C3
  6
CONTINUOUS
 62
7
 10
-202.01137
 20
55.48503
 30
-3.701702E-015
 40
4.125
 50
270.0
 51
90.0
  0
LINE
  8
1
  5
C5
  6
CONTINUOUS
 62
7
 10
-202.01137
 20
59.61003
 30
0.0
 11
-207.88637
 21
59.61003
 31
0.0
  0
LINE
  8
1
  5
C7
  6
CONTINUOUS
 62
7
 10
-207.88637
 20
59.61003
 30
0.0
 11
-207.88637
 21
67.86003
 31
0.0
  0
LINE
  8
1
  5
C9
  6
CONTINUOUS
 62
7
 10
-207.88637
 20
67.86003
 30
0.0
 11
-202.01137
 21
67.86003
 31
0.0
  0
ARC
  8
1
  5
CB
  6
CONTINUOUS
 62
7
 10
-202.01137
 20
71.98503
 30
-1.681101E-015
 40
4.125
 50
270.0
 51
90.0
  0
LINE
  8
1
  5
CD
  6
CONTINUOUS
 62
7
 10
-222.88637
 20
76.11003
 30
0.0
 11
-222.88637
 21
76.11003
 31
11.0
  0
LINE
  8
1
  5
CF
  6
CONTINUOUS
 62
7
 10
-202.01137
 20
76.11003
 30
0.0
 11
-222.88637
 21
76.11003
 31
0.0
  0
LINE
  8
1
  5
D1
  6
CONTINUOUS
 62
7
 10
-222.88637
 20
100.86003
 30
0.0
 11
-202.01137
 21
100.86003
 31
0.0
  0
LINE
  8
1
  5
D3
  6
CONTINUOUS
 62
7
 10
-222.88637
 20
100.86003
 30
0.0
 11
-222.88637
 21
100.86003
 31
11.0
  0
ARC
  8
1
  5
D5
  6
CONTINUOUS
 62
7
 10
-202.01137
 20
104.98503
 30
2.360100E-015
 40
4.125
 50
270.0
 51
90.0
  0
LINE
  8
1
  5
D7
  6
CONTINUOUS
 62
7
 10
-202.01137
 20
109.11003
 30
0.0
 11
-207.88637
 21
109.11003
 31
0.0
  0
LINE
  8
1
  5
D9
  6
CONTINUOUS
 62
7
 10
-207.88637
 20
109.11003
 30
0.0
 11
-207.88637
 21
117.36003
 31
0.0
  0
LINE
  8
1
  5
DB
  6
CONTINUOUS
 62
7
 10
-207.88637
 20
117.36003
 30
0.0
 11
-202.01137
 21
117.36003
 31
0.0
  0
ARC
  8
1
  5
DD
  6
CONTINUOUS
 62
7
 10
-202.01137
 20
121.48503
 30
4.380700E-015
 40
4.125
 50
270.0
 51
90.0
  0
LINE
  8
1
  5
DF
  6
CONTINUOUS
 62
7
 10
-222.88637
 20
125.61003
 30
0.0
 11
-222.88637
 21
125.61003
 31
11.0
  0
LINE
  8
1
  5
E1
  6
CONTINUOUS
 62
7
 10
-202.01137
 20
125.61003
 30
0.0
 11
-222.88637
 21
125.61003
 31
0.0
  0
LINE
  8
1
  5
E3
  6
CONTINUOUS
 62
7
 10
-222.88637
 20
150.36003
 30
0.0
 11
-202.01137
 21
150.36003
 31
0.0
  0
LINE
  8
1
  5
E5
  6
CONTINUOUS
 62
7
 10
-222.88637
 20
150.36003
 30
0.0
 11
-222.88637
 21
150.36003
 31
11.0
  0
ARC
  8
1
  5
E7
  6
CONTINUOUS
 62
7
 10
-202.01137
 20
154.48503
 30
8.421901E-015
 40
4.125
 50
270.0
 51
90.0
  0
LINE
  8
1
  5
E9
  6
CONTINUOUS
 62
7
 10
-202.01137
 20
158.61003
 30
0.0
 11
-207.88637
 21
158.61003
 31
0.0
  0
LINE
  8
1
  5
EB
  6
CONTINUOUS
 62
7
 10
-207.88637
 20
183.36003
 30
0.0
 11
-207.88637
 21
183.36003
 31
11.0
  0
LINE
  8
1
  5
ED
  6
CONTINUOUS
 62
7
 10
-207.88637
 20
158.61003
 30
0.0
 11
-207.88637
 21
183.36003
 31
0.0
  0
LINE
  8
1
  5
EF
  6
CONTINUOUS
 62
7
 10
-222.88637
 20
18.36003
 30
11.0
 11
-222.88637
 21
51.36003
 31
11.0
  0
LINE
  8
1
  5
F1
  6
CONTINUOUS
 62
7
 10
17.11363
 20
18.36003
 30
11.0
 11
-222.88637
 21
18.36003
 31
11.0
  0
LINE
  8
1
  5
F3
  6
CONTINUOUS
 62
7
 10
17.11363
 20
183.36003
 30
11.0
 11
17.11363
 21
18.36003
 31
11.0
  0
LINE
  8
1
  5
F5
  6
CONTINUOUS
 62
7
 10
-207.88637
 20
183.36003
 30
11.0
 11
17.11363
 21
183.36003
 31
11.0
  0
LINE
  8
1
  5
F7
  6
CONTINUOUS
 62
7
 10
-222.88637
 20
125.61003
 30
11.0
 11
-222.88637
 21
150.36003
 31
11.0
  0
LINE
  8
1
  5
F9
  6
CONTINUOUS
 62
7
 10
-222.88637
 20
76.11003
 30
11.0
 11
-222.88637
 21
100.86003
 31
11.0
  0
LINE
  8
1
  5
FB
  6
CONTINUOUS
 62
7
 10
-207.88637
 20
183.36003
 30
0.0
 11
-222.88637
 21
183.36003
 31
0.0
  0
LINE
  8
1
  5
FD
  6
CONTINUOUS
 62
7
 10
-222.88637
 20
183.36003
 30
0.0
 11
-222.88637
 21
150.36003
 31
0.0
  0
LINE
  8
1
  5
FF
  6
CONTINUOUS
 62
7
 10
-222.88637
 20
76.11003
 30
0.0
 11
-222.88637
 21
51.36003
 31
0.0
  0
LINE
  8
1
  5
101
  6
CONTINUOUS
 62
7
 10
-222.88637
 20
125.61003
 30
0.0
 11
-222.88637
 21
100.86003
 31
0.0
  0
LINE
  8
1
  5
103
  6
CONTINUOUS
 62
7
 10
-222.88637
 20
18.36003
 30
-4.0
 11
-222.88637
 21
183.36003
 31
-4.0
  0
LINE
  8
1
  5
105
  6
CONTINUOUS
 62
7
 10
-222.88637
 20
183.36003
 30
-4.0
 11
17.11363
 21
183.36003
 31
-4.0
  0
LINE
  8
1
  5
107
  6
CONTINUOUS
 62
7
 10
17.11363
 20
183.36003
 30
-4.0
 11
17.11363
 21
18.36003
 31
-4.0
  0
LINE
  8
1
  5
109
  6
CONTINUOUS
 62
7
 10
17.11363
 20
18.36003
 30
-4.0
 11
-222.88637
 21
18.36003
 31
-4.0
  0
LINE
  8
1
  5
10B
  6
CONTINUOUS
 62
7
 10
17.11363
 20
183.36003
 30
-4.0
 11
17.11363
 21
183.36003
 31
11.0
  0
LINE
  8
1
  5
10D
  6
CONTINUOUS
 62
7
 10
-222.88637
 20
183.36003
 30
0.0
 11
-222.88637
 21
183.36003
 31
-4.0
  0
LINE
  8
1
  5
10F
  6
CONTINUOUS
 62
7
 10
17.11363
 20
18.36003
 30
-4.0
 11
17.11363
 21
18.36003
 31
11.0
  0
LINE
  8
1
  5
111
  6
CONTINUOUS
 62
7
 10
-222.88637
 20
18.36003
 30
-4.0
 11
-222.88637
 21
18.36003
 31
11.0
  0
ENDBLK
  8
1
  5
112
  0
BLOCK
  8
1
  5
114
 70
1
 10
0.0
 20
0.0
 30
0.0
  2
*M4
  3
*M4
  0
LINE
  8
1
  5
116
  6
CONTINUOUS
 62
7
 10
-197.88637
 20
55.48503
 30
0.0
 11
-197.88637
 21
55.48503
 31
11.0
  0
LINE
  8
1
  5
118
  6
CONTINUOUS
 62
7
 10
-202.01137
 20
59.61003
 30
0.0
 11
-202.01137
 21
59.61003
 31
11.0
  0
LINE
  8
1
  5
11A
  6
CONTINUOUS
 62
7
 10
-197.88637
 20
71.98503
 30
0.0
 11
-197.88637
 21
71.98503
 31
11.0
  0
LINE
  8
1
  5
11C
  6
CONTINUOUS
 62
7
 10
-202.01137
 20
76.11003
 30
0.0
 11
-202.01137
 21
76.11003
 31
11.0
  0
LINE
  8
1
  5
11E
  6
CONTINUOUS
 62
7
 10
-197.88637
 20
104.98503
 30
0.0
 11
-197.88637
 21
104.98503
 31
11.0
  0
LINE
  8
1
  5
120
  6
CONTINUOUS
 62
7
 10
-202.01137
 20
109.11003
 30
0.0
 11
-202.01137
 21
109.11003
 31
11.0
  0
LINE
  8
1
  5
122
  6
CONTINUOUS
 62
7
 10
-197.88637
 20
121.48503
 30
0.0
 11
-197.88637
 21
121.48503
 31
11.0
  0
LINE
  8
1
  5
124
  6
CONTINUOUS
 62
7
 10
-202.01137
 20
125.61003
 30
0.0
 11
-202.01137
 21
125.61003
 31
11.0
  0
LINE
  8
1
  5
126
  6
CONTINUOUS
 62
7
 10
-197.88637
 20
154.48503
 30
0.0
 11
-197.88637
 21
154.48503
 31
11.0
  0
LINE
  8
1
  5
128
  6
CONTINUOUS
 62
7
 10
-202.01137
 20
158.61003
 30
0.0
 11
-202.01137
 21
158.61003
 31
11.0
  0
LINE
  8
1
  5
12A
  6
CONTINUOUS
 62
7
 10
-222.88637
 20
51.36003
 30
11.0
 11
-202.01137
 21
51.36003
 31
11.0
  0
LINE
  8
1
  5
12C
  6
CONTINUOUS
 62
7
 10
-202.01137
 20
51.36003
 30
0.0
 11
-202.01137
 21
51.36003
 31
11.0
  0
ARC
  8
1
  5
12E
  6
CONTINUOUS
 62
7
 10
-202.01137
 20
55.48503
 30
11.0
 40
4.125
 50
270.0
 51
90.0
  0
LINE
  8
1
  5
130
  6
CONTINUOUS
 62
7
 10
-202.01137
 20
59.61003
 30
0.0
 11
-202.01137
 21
59.61003
 31
11.0
  0
LINE
  8
1
  5
132
  6
CONTINUOUS
 62
7
 10
-202.01137
 20
59.61003
 30
11.0
 11
-207.88637
 21
59.61003
 31
11.0
  0
LINE
  8
1
  5
134
  6
CONTINUOUS
 62
7
 10
-207.88637
 20
59.61003
 30
0.0
 11
-207.88637
 21
59.61003
 31
11.0
  0
LINE
  8
1
  5
136
  6
CONTINUOUS
 62
7
 10
-207.88637
 20
59.61003
 30
11.0
 11
-207.88637
 21
67.86003
 31
11.0
  0
LINE
  8
1
  5
138
  6
CONTINUOUS
 62
7
 10
-207.88637
 20
67.86003
 30
0.0
 11
-207.88637
 21
67.86003
 31
11.0
  0
LINE
  8
1
  5
13A
  6
CONTINUOUS
 62
7
 10
-207.88637
 20
67.86003
 30
11.0
 11
-202.01137
 21
67.86003
 31
11.0
  0
LINE
  8
1
  5
13C
  6
CONTINUOUS
 62
7
 10
-202.01137
 20
67.86003
 30
0.0
 11
-202.01137
 21
67.86003
 31
11.0
  0
ARC
  8
1
  5
13E
  6
CONTINUOUS
 62
7
 10
-202.01137
 20
71.98503
 30
11.0
 40
4.125
 50
270.0
 51
90.0
  0
LINE
  8
1
  5
140
  6
CONTINUOUS
 62
7
 10
-202.01137
 20
76.11003
 30
0.0
 11
-202.01137
 21
76.11003
 31
11.0
  0
LINE
  8
1
  5
142
  6
CONTINUOUS
 62
7
 10
-202.01137
 20
76.11003
 30
11.0
 11
-222.88637
 21
76.11003
 31
11.0
  0
LINE
  8
1
  5
144
  6
CONTINUOUS
 62
7
 10
-222.88637
 20
100.86003
 30
11.0
 11
-202.01137
 21
100.86003
 31
11.0
  0
LINE
  8
1
  5
146
  6
CONTINUOUS
 62
7
 10
-202.01137
 20
100.86003
 30
0.0
 11
-202.01137
 21
100.86003
 31
11.0
  0
ARC
  8
1
  5
148
  6
CONTINUOUS
 62
7
 10
-202.01137
 20
104.98503
 30
11.0
 40
4.125
 50
270.0
 51
90.0
  0
LINE
  8
1
  5
14A
  6
CONTINUOUS
 62
7
 10
-202.01137
 20
109.11003
 30
0.0
 11
-202.01137
 21
109.11003
 31
11.0
  0
LINE
  8
1
  5
14C
  6
CONTINUOUS
 62
7
 10
-202.01137
 20
109.11003
 30
11.0
 11
-207.88637
 21
109.11003
 31
11.0
  0
LINE
  8
1
  5
14E
  6
CONTINUOUS
 62
7
 10
-207.88637
 20
109.11003
 30
0.0
 11
-207.88637
 21
109.11003
 31
11.0
  0
LINE
  8
1
  5
150
  6
CONTINUOUS
 62
7
 10
-207.88637
 20
109.11003
 30
11.0
 11
-207.88637
 21
117.36003
 31
11.0
  0
LINE
  8
1
  5
152
  6
CONTINUOUS
 62
7
 10
-207.88637
 20
117.36003
 30
0.0
 11
-207.88637
 21
117.36003
 31
11.0
  0
LINE
  8
1
  5
154
  6
CONTINUOUS
 62
7
 10
-207.88637
 20
117.36003
 30
11.0
 11
-202.01137
 21
117.36003
 31
11.0
  0
LINE
  8
1
  5
156
  6
CONTINUOUS
 62
7
 10
-202.01137
 20
117.36003
 30
0.0
 11
-202.01137
 21
117.36003
 31
11.0
  0
ARC
  8
1
  5
158
  6
CONTINUOUS
 62
7
 10
-202.01137
 20
121.48503
 30
11.0
 40
4.125
 50
270.0
 51
90.0
  0
LINE
  8
1
  5
15A
  6
CONTINUOUS
 62
7
 10
-202.01137
 20
125.61003
 30
0.0
 11
-202.01137
 21
125.61003
 31
11.0
  0
LINE
  8
1
  5
15C
  6
CONTINUOUS
 62
7
 10
-202.01137
 20
125.61003
 30
11.0
 11
-222.88637
 21
125.61003
 31
11.0
  0
LINE
  8
1
  5
15E
  6
CONTINUOUS
 62
7
 10
-222.88637
 20
150.36003
 30
11.0
 11
-202.01137
 21
150.36003
 31
11.0
  0
LINE
  8
1
  5
160
  6
CONTINUOUS
 62
7
 10
-202.01137
 20
150.36003
 30
0.0
 11
-202.01137
 21
150.36003
 31
11.0
  0
ARC
  8
1
  5
162
  6
CONTINUOUS
 62
7
 10
-202.01137
 20
154.48503
 30
11.0
 40
4.125
 50
270.0
 51
90.0
  0
LINE
  8
1
  5
164
  6
CONTINUOUS
 62
7
 10
-202.01137
 20
158.61003
 30
0.0
 11
-202.01137
 21
158.61003
 31
11.0
  0
LINE
  8
1
  5
166
  6
CONTINUOUS
 62
7
 10
-202.01137
 20
158.61003
 30
11.0
 11
-207.88637
 21
158.61003
 31
11.0
  0
LINE
  8
1
  5
168
  6
CONTINUOUS
 62
7
 10
-207.88637
 20
158.61003
 30
0.0
 11
-207.88637
 21
158.61003
 31
11.0
  0
LINE
  8
1
  5
16A
  6
CONTINUOUS
 62
7
 10
-207.88637
 20
158.61003
 30
11.0
 11
-207.88637
 21
183.36003
 31
11.0
  0
ENDBLK
  8
1
  5
16B
  0
BLOCK
  8
1
  5
16D
 70
1
 10
0.0
 20
0.0
 30
0.0
  2
*M5
  3
*M5
  0
INSERT
  8
1
  5
16F
  6
CONTINUOUS
 62
7
  2
*M3
 10
0.0
 20
0.0
 30
0.0
 41
1.0
 42
1.0
 43
1.0
 70
1
 71
1
  0
INSERT
  8
1
  5
171
  6
CONTINUOUS
 62
7
  2
*M4
 10
0.0
 20
0.0
 30
0.0
 41
1.0
 42
1.0
 43
1.0
 70
1
 71
1
  0
ENDBLK
  8
1
  5
172
  0
ENDSEC
  0
SECTION
  2
ENTITIES
  0
INSERT
  8
1
  5
2
  6
CONTINUOUS
 62
7
  2
*M2
 10
0.0
 20
0.0
 30
0.0
 41
1.0
 42
1.0
 43
1.0
 70
1
 71
1
  0
INSERT
  8
1
  5
4
  6
CONTINUOUS
 62
7
  2
*M5
 10
495.77274
 20
-201.72006
 30
0.0
 41
1.0
 42
1.0
 43
1.0
 70
1
 71
1
  0
ENDSEC
  0
EOF
