  0
SECTION
  2
HEADER
  9
$ACADVER
  1
AC1009
  9
$INSBASE
 10
0.0
 20
0.0
 30
0.0
  9
$EXTMAX
 10
530.00976
 20
65.0
 30
15.0
  9
$EXTMIN
 10
0.00976
 20
-164.99938
 30
0.0
  9
$LIMMAX
 10
12.0
 20
9.0
  9
$LIMMIN
 10
0.0
 20
0.0
  9
$ORTHOMODE
 70
0
  9
$REGENMODE
 70
1
  9
$FILLMODE
 70
1
  9
$QTEXTMODE
 70
0
  9
$MIRRTEXT
 70
1
  9
$DRAGMODE
 70
2
  9
$LTSCALE
 40
1.0
  9
$OSMODE
 70
0
  9
$ATTMODE
 70
1
  9
$TEXTSIZE
 40
0.2
  9
$TRACEWID
 40
0.05
  9
$TEXTSTYLE
  7
STANDARD
  9
$CLAYER
  8
0
  9
$CELTYPE
  6
CONTINUOUS
  9
$CECOLOR
 62
256
  9
$DIMSCALE
 40
1.0
  9
$DIMASZ
 40
0.18
  9
$DIMEXO
 40
0.0625
  9
$DIMDLI
 40
0.38
  9
$DIMRND
 40
0.0
  9
$DIMDLE
 40
0.0
  9
$DIMEXE
 40
0.18
  9
$DIMTP
 40
0.0
  9
$DIMTM
 40
0.0
  9
$DIMTXT
 40
0.18
  9
$DIMCEN
 40
0.09
  9
$DIMTSZ
 40
0.0
  9
$DIMTOL
 70
0
  9
$DIMLIM
 70
0
  9
$DIMTIH
 70
1
  9
$DIMTOH
 70
1
  9
$DIMSE1
 70
0
  9
$DIMSE2
 70
0
  9
$DIMTAD
 70
0
  9
$DIMZIN
 70
0
  9
$DIMBLK
  1

  9
$DIMASO
 70
1
  9
$DIMSHO
 70
1
  9
$DIMPOST
  1

  9
$DIMAPOST
  1

  9
$DIMALT
 70
0
  9
$DIMALTD
 70
2
  9
$DIMALTF
 40
25.4
  9
$DIMLFAC
 40
1.0
  9
$DIMTOFL
 70
0
  9
$DIMTVP
 40
0.0
  9
$DIMTIX
 70
0
  9
$DIMSOXD
 70
0
  9
$DIMSAH
 70
0
  9
$DIMBLK1
  1

  9
$DIMBLK2
  1

  9
$DIMSTYLE
  2
*UNNAMED
  9
$DIMCLRD
 70
0
  9
$DIMCLRE
 70
0
  9
$DIMCLRT
 70
0
  9
$DIMTFAC
 40
1.0
  9
$DIMGAP
 40
0.09
  9
$LUNITS
 70
2
  9
$LUPREC
 70
4
  9
$AXISMODE
 70
0
  9
$AXISUNIT
 10
0.0
 20
0.0
  9
$SKETCHINC
 40
0.1
  9
$FILLETRAD
 40
0.0
  9
$AUNITS
 70
0
  9
$AUPREC
 70
0
  9
$MENU
  1
acad
  9
$ELEVATION
 40
0.0
  9
$PELEVATION
 40
0.0
  9
$THICKNESS
 40
0.0
  9
$LIMCHECK
 70
0
  9
$BLIPMODE
 70
1
  9
$CHAMFERA
 40
0.0
  9
$CHAMFERB
 40
0.0
  9
$SKPOLY
 70
0
  9
$TDCREATE
 40
0.0
  9
$TDUPDATE
 40
0.0
  9
$TDINDWG
 40
0.0
  9
$TDUSRTIMER
 40
0.0
  9
$USRTIMER
 70
1
  9
$ANGBASE
 50
0.0
  9
$ANGDIR
 70
0
  9
$PDMODE
 70
0
  9
$PDSIZE
 40
0.0
  9
$PLINEWID
 40
0.0
  9
$COORDS
 70
0
  9
$SPLFRAME
 70
0
  9
$SPLINETYPE
 70
6
  9
$SPLINESEGS
 70
10
  9
$ATTDIA
 70
0
  9
$ATTREQ
 70
1
  9
$HANDLING
 70
1
  9
$HANDSEED
  5
3C9
  9
$SURFTAB1
 70
6
  9
$SURFTAB2
 70
6
  9
$SURFTYPE
 70
6
  9
$SURFU
 70
10
  9
$SURFV
 70
10
  9
$UCSNAME
  2

  9
$UCSORG
 10
0.0
 20
0.0
 30
0.0
  9
$UCSXDIR
 10
1.0
 20
0.0
 30
0.0
  9
$UCSYDIR
 10
0.0
 20
1.0
 30
0.0
  9
$PUCSNAME
  2
 
  9
$PUCSORG
 10
0.0
 20
0.0
 30
0.0
  9
$PUCSXDIR
 10
1.0
 20
0.0
 30
0.0
  9
$PUCSYDIR
 10
0.0
 20
1.0
 30
0.0
  9
$USERI1
 70
0
  9
$USERI2
 70
0
  9
$USERI3
 70
0
  9
$USERI4
 70
0
  9
$USERI5
 70
0
  9
$USERR1
 40
0.0
  9
$USERR2
 40
0.0
  9
$USERR3
 40
0.0
  9
$USERR4
 40
0.0
  9
$USERR5
 40
0.0
  9
$WORLDVIEW
 70
1
  9
$SHADEDGE
 70
3
  9
$SHADEDIF
 70
70
  9
$TILEMODE
 70
1
  9
$MAXACTVP
 70
16
  9
$PINSBASE
 10
0.0
 20
0.0
 30
0.0
  9
$PLIMCHECK
 70
0
  9
$PEXTMIN
 10
-1.000000E+020
 20
-1.000000E+020
 30
-1.000000E+020
  9
$PEXTMAX
 10
-1.000000E+020
 20
-1.000000E+020
 30
-1.000000E+020
  9
$PLIMMIN
 10
0.0
 20
0.0
  9
$PLIMMAX
 10
12.0
 20
9.0
  9
$UNITMODE
 70
0
  9
$VISRETAIN
 70
0
  0
ENDSEC
  0
SECTION
  2
TABLES
  0
TABLE
  2
LTYPE
 70
7
  0
LTYPE
  2
CONTINUOUS
 70
64
  3
Solid line
 72
65
 73
0
 40
0.0
  0
LTYPE
  2
DOT
 70
64
  3
. . . . . . . . . . . . . . . . . . . . . . . . . . . . . . . . .
 72
65
 73
2
 40
0.25
 49
0.0
 49
-0.25
  0
LTYPE
  2
HIDDEN
 70
64
  3
__ __ __ __ __ __ __ __ __ __ __ __ __ __ __ __ __ __ __ __ __ 
 72
65
 73
2
 40
0.375
 49
0.25
 49
-0.125
  0
LTYPE
  2
DASHED
 70
64
  3
__ __ __ __ __ __ __ __ __ __ __ __ __ __ __ __ __ __ __ __ __
 72
65
 73
2
 40
0.75
 49
0.5
 49
-0.25
  0
LTYPE
  2
DASHDOT
 70
64
  3
__ . __ . __ . __ . __ . __ . __ . __ . __ . __ . __ . __ . _
 72
65
 73
4
 40
1.0
 49
0.5
 49
-0.25
 49
0.0
 49
-0.25
  0
LTYPE
  2
DIVIDE
 70
64
  3
____ . . ____ . . ____ . . ____ . . ____ . . ____ . . ____ . .
 72
65
 73
6
 40
1.25
 49
0.5
 49
-0.25
 49
0.0
 49
-0.25
 49
0.0
 49
-0.25
  0
LTYPE
  2
CENTER
 70
64
  3
____ _ ____ _ ____ _ ____ _ ____ _ ____ _ ____ _ ____ _ ____ _
 72
65
 73
4
 40
2.0
 49
1.25
 49
-0.25
 49
0.25
 49
-0.25
  0
ENDTAB
  0
TABLE
  2
APPID
 70
1
  0
APPID
  2
ACAD
 70
0
  0
ENDTAB
  0
TABLE
  2
DIMSTYLE
 70
0
  0
ENDTAB
  0
TABLE
  2
LAYER
 70
4
  0
LAYER
  2
0
 70
0
 62
7
  6
CONTINUOUS
  0
LAYER
  2
CONSTRUCTION_CLASS
 70
0
 62
7
  6
CONTINUOUS
  0
LAYER
  2
PATTERN_CLASS
 70
0
 62
7
  6
CONTINUOUS
  0
LAYER
  2
1
 70
0
 62
7
  6
CONTINUOUS
  0
ENDTAB
  0
TABLE
  2
STYLE
 70
1
  0
STYLE
  2
STANDARD
 70
0
 40
0.2
 41
1.0
 50
0.0
 71
0
 42
0.0
  3
txt
  4

  0
ENDTAB
  0
TABLE
  2
UCS
 70
0
  0
ENDTAB
  0
TABLE
  2
VIEW
 70
0
  0
ENDTAB
  0
TABLE
  2
VPORT
 70
4
  0
VPORT
  2
*ACTIVE
 70
0
 10
0.500821
 20
0.50171
 11
0.998358
 21
0.997719
 12
0.0
 22
0.0
 13
0.0
 23
0.0
 14
0.0
 24
0.0
 15
0.0
 25
0.0
 16
0.0
 26
-1.988391E-015
 36
32.47396
 17
267.200598
 27
-49.999695
 37
7.5
 40
394.06611
 41
1.393103
 42
50.0
 43
16.23698
 44
-16.23698
 50
0.0
 51
0.0
 71
22
 72
100
 73
1
 74
0
 75
0
 76
0
 77
0
 78
0
  0
VPORT
  2
*ACTIVE
 70
0
 10
0.001642
 20
0.50171
 11
0.499179
 21
0.997719
 12
-9.427993E-009
 22
1.335903E-008
 13
0.0
 23
0.0
 14
0.0
 24
0.0
 15
0.0
 25
0.0
 16
-264.858916
 26
-264.858916
 36
264.858916
 17
276.124451
 27
-64.986281
 37
7.500004
 40
355.72655
 41
1.393103
 42
50.0
 43
229.37455
 44
-229.37455
 50
0.0
 51
0.0
 71
22
 72
100
 73
1
 74
0
 75
0
 76
0
 77
0
 78
0
  0
VPORT
  2
*ACTIVE
 70
0
 10
0.001642
 20
0.003421
 11
0.499179
 21
0.49943
 12
0.0
 22
0.0
 13
0.0
 23
0.0
 14
0.0
 24
0.0
 15
0.0
 25
0.0
 16
0.0
 26
-244.49528
 36
0.0
 17
221.663595
 27
-49.99969
 37
7.500005
 40
326.90591
 41
1.393103
 42
50.0
 43
122.24764
 44
-122.24764
 50
0.0
 51
0.0
 71
22
 72
100
 73
1
 74
0
 75
0
 76
0
 77
0
 78
0
  0
VPORT
  2
*ACTIVE
 70
0
 10
0.500821
 20
0.003421
 11
0.998358
 21
0.49943
 12
0.0
 22
0.0
 13
0.0
 23
0.0
 14
0.0
 24
0.0
 15
0.0
 25
0.0
 16
496.34928
 26
0.0
 36
0.0
 17
242.13136
 27
-59.901005
 37
7.499995
 40
158.14117
 41
1.393103
 42
50.0
 43
248.17464
 44
-248.17464
 50
0.0
 51
0.0
 71
22
 72
100
 73
1
 74
0
 75
0
 76
0
 77
0
 78
0
  0
ENDTAB
  0
ENDSEC
  0
SECTION
  2
BLOCKS
  0
BLOCK
  8
1
  5
8
 70
1
 10
0.0
 20
0.0
 30
0.0
  2
*M0
  3
*M0
  0
LINE
  8
1
  5
A
  6
CONTINUOUS
 62
7
 10
340.0
 20
50.0
 30
0.0
 11
340.0
 21
35.0
 31
0.0
  0
LINE
  8
1
  5
C
  6
CONTINUOUS
 62
7
 10
340.0
 20
35.0
 30
0.0
 11
175.0
 21
35.0
 31
0.0
  0
LINE
  8
1
  5
E
  6
CONTINUOUS
 62
7
 10
175.0
 20
35.0
 30
0.0
 11
175.0
 21
50.0
 31
0.0
  0
LINE
  8
1
  5
10
  6
CONTINUOUS
 62
7
 10
175.0
 20
50.0
 30
0.0
 11
340.0
 21
50.0
 31
0.0
  0
LINE
  8
1
  5
12
  6
CONTINUOUS
 62
7
 10
340.0
 20
35.0
 30
15.0
 11
340.0
 21
50.0
 31
15.0
  0
LINE
  8
1
  5
14
  6
CONTINUOUS
 62
7
 10
340.0
 20
50.0
 30
15.0
 11
175.0
 21
50.0
 31
15.0
  0
LINE
  8
1
  5
16
  6
CONTINUOUS
 62
7
 10
175.0
 20
50.0
 30
15.0
 11
175.0
 21
35.0
 31
15.0
  0
LINE
  8
1
  5
18
  6
CONTINUOUS
 62
7
 10
175.0
 20
35.0
 30
15.0
 11
340.0
 21
35.0
 31
15.0
  0
LINE
  8
1
  5
1A
  6
CONTINUOUS
 62
7
 10
175.0
 20
50.0
 30
0.0
 11
175.0
 21
50.0
 31
15.0
  0
LINE
  8
1
  5
1C
  6
CONTINUOUS
 62
7
 10
340.0
 20
50.0
 30
0.0
 11
340.0
 21
50.0
 31
15.0
  0
LINE
  8
1
  5
1E
  6
CONTINUOUS
 62
7
 10
175.0
 20
35.0
 30
0.0
 11
175.0
 21
35.0
 31
15.0
  0
LINE
  8
1
  5
20
  6
CONTINUOUS
 62
7
 10
340.0
 20
35.0
 30
0.0
 11
340.0
 21
35.0
 31
15.0
  0
ENDBLK
  8
1
  5
21
  0
BLOCK
  8
1
  5
23
 70
1
 10
0.0
 20
0.0
 30
0.0
  2
*M1
  3
*M1
  0
LINE
  8
1
  5
25
  6
CONTINUOUS
 62
7
 10
225.00976
 20
-49.49938
 30
12.0
 11
225.00976
 21
-49.49938
 31
15.0
  0
LINE
  8
1
  5
27
  6
CONTINUOUS
 62
7
 10
225.00976
 20
-57.74938
 30
12.0
 11
225.00976
 21
-49.49938
 31
12.0
  0
LINE
  8
1
  5
29
  6
CONTINUOUS
 62
7
 10
225.00976
 20
-57.74938
 30
15.0
 11
225.00976
 21
-57.74938
 31
12.0
  0
LINE
  8
1
  5
2B
  6
CONTINUOUS
 62
7
 10
225.00976
 20
-49.49938
 30
15.0
 11
225.00976
 21
-57.74938
 31
15.0
  0
LINE
  8
1
  5
2D
  6
CONTINUOUS
 62
7
 10
225.00976
 20
-65.99938
 30
12.0
 11
225.00976
 21
-65.99938
 31
15.0
  0
LINE
  8
1
  5
2F
  6
CONTINUOUS
 62
7
 10
225.00976
 20
-74.24938
 30
12.0
 11
225.00976
 21
-65.99938
 31
12.0
  0
LINE
  8
1
  5
31
  6
CONTINUOUS
 62
7
 10
225.00976
 20
-74.24938
 30
15.0
 11
225.00976
 21
-74.24938
 31
12.0
  0
LINE
  8
1
  5
33
  6
CONTINUOUS
 62
7
 10
225.00976
 20
-65.99938
 30
15.0
 11
225.00976
 21
-74.24938
 31
15.0
  0
LINE
  8
1
  5
35
  6
CONTINUOUS
 62
7
 10
225.00976
 20
-82.49938
 30
12.0
 11
225.00976
 21
-82.49938
 31
15.0
  0
LINE
  8
1
  5
37
  6
CONTINUOUS
 62
7
 10
225.00976
 20
-90.74938
 30
12.0
 11
225.00976
 21
-82.49938
 31
12.0
  0
LINE
  8
1
  5
39
  6
CONTINUOUS
 62
7
 10
225.00976
 20
-90.74938
 30
15.0
 11
225.00976
 21
-90.74938
 31
12.0
  0
LINE
  8
1
  5
3B
  6
CONTINUOUS
 62
7
 10
225.00976
 20
-82.49938
 30
15.0
 11
225.00976
 21
-90.74938
 31
15.0
  0
LINE
  8
1
  5
3D
  6
CONTINUOUS
 62
7
 10
225.00976
 20
-98.99938
 30
12.0
 11
225.00976
 21
-98.99938
 31
15.0
  0
LINE
  8
1
  5
3F
  6
CONTINUOUS
 62
7
 10
225.00976
 20
-107.24938
 30
12.0
 11
225.00976
 21
-98.99938
 31
12.0
  0
LINE
  8
1
  5
41
  6
CONTINUOUS
 62
7
 10
225.00976
 20
-107.24938
 30
15.0
 11
225.00976
 21
-107.24938
 31
12.0
  0
LINE
  8
1
  5
43
  6
CONTINUOUS
 62
7
 10
225.00976
 20
-98.99938
 30
15.0
 11
225.00976
 21
-107.24938
 31
15.0
  0
LINE
  8
1
  5
45
  6
CONTINUOUS
 62
7
 10
225.00976
 20
-115.49938
 30
12.0
 11
225.00976
 21
-115.49938
 31
15.0
  0
LINE
  8
1
  5
47
  6
CONTINUOUS
 62
7
 10
225.00976
 20
-123.74938
 30
12.0
 11
225.00976
 21
-115.49938
 31
12.0
  0
LINE
  8
1
  5
49
  6
CONTINUOUS
 62
7
 10
225.00976
 20
-123.74938
 30
15.0
 11
225.00976
 21
-123.74938
 31
12.0
  0
LINE
  8
1
  5
4B
  6
CONTINUOUS
 62
7
 10
225.00976
 20
-115.49938
 30
15.0
 11
225.00976
 21
-123.74938
 31
15.0
  0
LINE
  8
1
  5
4D
  6
CONTINUOUS
 62
7
 10
225.00976
 20
-148.49938
 30
15.0
 11
225.00976
 21
-164.99938
 31
15.0
  0
LINE
  8
1
  5
4F
  6
CONTINUOUS
 62
7
 10
225.00976
 20
-148.49938
 30
12.0
 11
225.00976
 21
-148.49938
 31
15.0
  0
LINE
  8
1
  5
51
  6
CONTINUOUS
 62
7
 10
225.00976
 20
-164.99938
 30
12.0
 11
225.00976
 21
-148.49938
 31
12.0
  0
LINE
  8
1
  5
53
  6
CONTINUOUS
 62
7
 10
225.00976
 20
-164.99938
 30
15.0
 11
225.00976
 21
-164.99938
 31
12.0
  0
LINE
  8
1
  5
55
  6
CONTINUOUS
 62
7
 10
225.00976
 20
-16.49938
 30
15.0
 11
225.00976
 21
-41.24938
 31
15.0
  0
LINE
  8
1
  5
57
  6
CONTINUOUS
 62
7
 10
225.00976
 20
-16.49938
 30
12.0
 11
225.00976
 21
-16.49938
 31
15.0
  0
LINE
  8
1
  5
59
  6
CONTINUOUS
 62
7
 10
225.00976
 20
-41.24938
 30
12.0
 11
225.00976
 21
-16.49938
 31
12.0
  0
LINE
  8
1
  5
5B
  6
CONTINUOUS
 62
7
 10
225.00976
 20
-41.24938
 30
15.0
 11
225.00976
 21
-41.24938
 31
12.0
  0
LINE
  8
1
  5
5D
  6
CONTINUOUS
 62
7
 10
210.00976
 20
-148.49938
 30
12.0
 11
225.00976
 21
-148.49938
 31
12.0
  0
LINE
  8
1
  5
5F
  6
CONTINUOUS
 62
7
 10
210.00976
 20
-148.49938
 30
12.0
 11
210.00976
 21
-164.99938
 31
12.0
  0
LINE
  8
1
  5
61
  6
CONTINUOUS
 62
7
 10
225.00976
 20
-164.99938
 30
12.0
 11
210.00976
 21
-164.99938
 31
12.0
  0
LINE
  8
1
  5
63
  6
CONTINUOUS
 62
7
 10
210.00976
 20
-115.49938
 30
12.0
 11
225.00976
 21
-115.49938
 31
12.0
  0
LINE
  8
1
  5
65
  6
CONTINUOUS
 62
7
 10
210.00976
 20
-115.49938
 30
12.0
 11
210.00976
 21
-123.74938
 31
12.0
  0
LINE
  8
1
  5
67
  6
CONTINUOUS
 62
7
 10
225.00976
 20
-123.74938
 30
12.0
 11
210.00976
 21
-123.74938
 31
12.0
  0
LINE
  8
1
  5
69
  6
CONTINUOUS
 62
7
 10
210.00976
 20
-98.99938
 30
12.0
 11
225.00976
 21
-98.99938
 31
12.0
  0
LINE
  8
1
  5
6B
  6
CONTINUOUS
 62
7
 10
210.00976
 20
-98.99938
 30
12.0
 11
210.00976
 21
-107.24938
 31
12.0
  0
LINE
  8
1
  5
6D
  6
CONTINUOUS
 62
7
 10
225.00976
 20
-107.24938
 30
12.0
 11
210.00976
 21
-107.24938
 31
12.0
  0
LINE
  8
1
  5
6F
  6
CONTINUOUS
 62
7
 10
210.00976
 20
-82.49938
 30
12.0
 11
225.00976
 21
-82.49938
 31
12.0
  0
LINE
  8
1
  5
71
  6
CONTINUOUS
 62
7
 10
210.00976
 20
-82.49938
 30
12.0
 11
210.00976
 21
-90.74938
 31
12.0
  0
LINE
  8
1
  5
73
  6
CONTINUOUS
 62
7
 10
225.00976
 20
-90.74938
 30
12.0
 11
210.00976
 21
-90.74938
 31
12.0
  0
LINE
  8
1
  5
75
  6
CONTINUOUS
 62
7
 10
210.00976
 20
-65.99938
 30
12.0
 11
225.00976
 21
-65.99938
 31
12.0
  0
LINE
  8
1
  5
77
  6
CONTINUOUS
 62
7
 10
210.00976
 20
-65.99938
 30
12.0
 11
210.00976
 21
-74.24938
 31
12.0
  0
LINE
  8
1
  5
79
  6
CONTINUOUS
 62
7
 10
225.00976
 20
-74.24938
 30
12.0
 11
210.00976
 21
-74.24938
 31
12.0
  0
LINE
  8
1
  5
7B
  6
CONTINUOUS
 62
7
 10
210.00976
 20
-49.49938
 30
12.0
 11
225.00976
 21
-49.49938
 31
12.0
  0
LINE
  8
1
  5
7D
  6
CONTINUOUS
 62
7
 10
210.00976
 20
-49.49938
 30
12.0
 11
210.00976
 21
-57.74938
 31
12.0
  0
LINE
  8
1
  5
7F
  6
CONTINUOUS
 62
7
 10
225.00976
 20
-57.74938
 30
12.0
 11
210.00976
 21
-57.74938
 31
12.0
  0
LINE
  8
1
  5
81
  6
CONTINUOUS
 62
7
 10
225.00976
 20
-41.24938
 30
12.0
 11
210.00976
 21
-41.24938
 31
12.0
  0
LINE
  8
1
  5
83
  6
CONTINUOUS
 62
7
 10
210.00976
 20
-16.49938
 30
12.0
 11
225.00976
 21
-16.49938
 31
12.0
  0
LINE
  8
1
  5
85
  6
CONTINUOUS
 62
7
 10
210.00976
 20
-16.49938
 30
12.0
 11
210.00976
 21
-41.24938
 31
12.0
  0
LINE
  8
1
  5
87
  6
CONTINUOUS
 62
7
 10
210.00976
 20
-164.99938
 30
15.0
 11
210.00976
 21
-148.49938
 31
15.0
  0
LINE
  8
1
  5
89
  6
CONTINUOUS
 62
7
 10
210.00976
 20
-164.99938
 30
12.0
 11
210.00976
 21
-164.99938
 31
15.0
  0
LINE
  8
1
  5
8B
  6
CONTINUOUS
 62
7
 10
210.00976
 20
-148.49938
 30
15.0
 11
210.00976
 21
-148.49938
 31
12.0
  0
LINE
  8
1
  5
8D
  6
CONTINUOUS
 62
7
 10
210.00976
 20
-115.49938
 30
15.0
 11
210.00976
 21
-115.49938
 31
12.0
  0
LINE
  8
1
  5
8F
  6
CONTINUOUS
 62
7
 10
210.00976
 20
-123.74938
 30
15.0
 11
210.00976
 21
-115.49938
 31
15.0
  0
LINE
  8
1
  5
91
  6
CONTINUOUS
 62
7
 10
210.00976
 20
-123.74938
 30
12.0
 11
210.00976
 21
-123.74938
 31
15.0
  0
LINE
  8
1
  5
93
  6
CONTINUOUS
 62
7
 10
210.00976
 20
-98.99938
 30
15.0
 11
210.00976
 21
-98.99938
 31
12.0
  0
LINE
  8
1
  5
95
  6
CONTINUOUS
 62
7
 10
210.00976
 20
-107.24938
 30
15.0
 11
210.00976
 21
-98.99938
 31
15.0
  0
LINE
  8
1
  5
97
  6
CONTINUOUS
 62
7
 10
210.00976
 20
-107.24938
 30
12.0
 11
210.00976
 21
-107.24938
 31
15.0
  0
LINE
  8
1
  5
99
  6
CONTINUOUS
 62
7
 10
210.00976
 20
-82.49938
 30
15.0
 11
210.00976
 21
-82.49938
 31
12.0
  0
LINE
  8
1
  5
9B
  6
CONTINUOUS
 62
7
 10
210.00976
 20
-90.74938
 30
15.0
 11
210.00976
 21
-82.49938
 31
15.0
  0
LINE
  8
1
  5
9D
  6
CONTINUOUS
 62
7
 10
210.00976
 20
-90.74938
 30
12.0
 11
210.00976
 21
-90.74938
 31
15.0
  0
LINE
  8
1
  5
9F
  6
CONTINUOUS
 62
7
 10
210.00976
 20
-65.99938
 30
15.0
 11
210.00976
 21
-65.99938
 31
12.0
  0
LINE
  8
1
  5
A1
  6
CONTINUOUS
 62
7
 10
210.00976
 20
-74.24938
 30
15.0
 11
210.00976
 21
-65.99938
 31
15.0
  0
LINE
  8
1
  5
A3
  6
CONTINUOUS
 62
7
 10
210.00976
 20
-74.24938
 30
12.0
 11
210.00976
 21
-74.24938
 31
15.0
  0
LINE
  8
1
  5
A5
  6
CONTINUOUS
 62
7
 10
210.00976
 20
-49.49938
 30
15.0
 11
210.00976
 21
-49.49938
 31
12.0
  0
LINE
  8
1
  5
A7
  6
CONTINUOUS
 62
7
 10
210.00976
 20
-57.74938
 30
15.0
 11
210.00976
 21
-49.49938
 31
15.0
  0
LINE
  8
1
  5
A9
  6
CONTINUOUS
 62
7
 10
210.00976
 20
-57.74938
 30
12.0
 11
210.00976
 21
-57.74938
 31
15.0
  0
LINE
  8
1
  5
AB
  6
CONTINUOUS
 62
7
 10
210.00976
 20
-41.24938
 30
15.0
 11
210.00976
 21
-16.49938
 31
15.0
  0
LINE
  8
1
  5
AD
  6
CONTINUOUS
 62
7
 10
210.00976
 20
-41.24938
 30
12.0
 11
210.00976
 21
-41.24938
 31
15.0
  0
LINE
  8
1
  5
AF
  6
CONTINUOUS
 62
7
 10
210.00976
 20
-16.49938
 30
15.0
 11
210.00976
 21
-16.49938
 31
12.0
  0
ENDBLK
  8
1
  5
B0
  0
BLOCK
  8
1
  5
B2
 70
1
 10
0.0
 20
0.0
 30
0.0
  2
*M2
  3
*M2
  0
LINE
  8
1
  5
B4
  6
CONTINUOUS
 62
7
 10
183.00976
 20
-12.37438
 30
0.0
 11
183.00976
 21
-12.37438
 31
15.0
  0
LINE
  8
1
  5
B6
  6
CONTINUOUS
 62
7
 10
187.13476
 20
-16.49938
 30
0.0
 11
187.13476
 21
-16.49938
 31
15.0
  0
LINE
  8
1
  5
B8
  6
CONTINUOUS
 62
7
 10
183.00976
 20
-45.37438
 30
0.0
 11
183.00976
 21
-45.37438
 31
15.0
  0
LINE
  8
1
  5
BA
  6
CONTINUOUS
 62
7
 10
187.13476
 20
-49.49938
 30
0.0
 11
187.13476
 21
-49.49938
 31
15.0
  0
LINE
  8
1
  5
BC
  6
CONTINUOUS
 62
7
 10
240.00976
 20
-53.62438
 30
0.0
 11
240.00976
 21
-53.62438
 31
15.0
  0
LINE
  8
1
  5
BE
  6
CONTINUOUS
 62
7
 10
235.88476
 20
-57.74938
 30
0.0
 11
235.88476
 21
-57.74938
 31
15.0
  0
LINE
  8
1
  5
C0
  6
CONTINUOUS
 62
7
 10
183.00976
 20
-61.87438
 30
0.0
 11
183.00976
 21
-61.87438
 31
15.0
  0
LINE
  8
1
  5
C2
  6
CONTINUOUS
 62
7
 10
187.13476
 20
-65.99938
 30
0.0
 11
187.13476
 21
-65.99938
 31
15.0
  0
LINE
  8
1
  5
C4
  6
CONTINUOUS
 62
7
 10
240.00976
 20
-70.12438
 30
0.0
 11
240.00976
 21
-70.12438
 31
15.0
  0
LINE
  8
1
  5
C6
  6
CONTINUOUS
 62
7
 10
235.88476
 20
-74.24938
 30
0.0
 11
235.88476
 21
-74.24938
 31
15.0
  0
LINE
  8
1
  5
C8
  6
CONTINUOUS
 62
7
 10
183.00976
 20
-78.37438
 30
0.0
 11
183.00976
 21
-78.37438
 31
15.0
  0
LINE
  8
1
  5
CA
  6
CONTINUOUS
 62
7
 10
187.13476
 20
-82.49938
 30
0.0
 11
187.13476
 21
-82.49938
 31
15.0
  0
LINE
  8
1
  5
CC
  6
CONTINUOUS
 62
7
 10
240.00976
 20
-86.62438
 30
0.0
 11
240.00976
 21
-86.62438
 31
15.0
  0
LINE
  8
1
  5
CE
  6
CONTINUOUS
 62
7
 10
235.88476
 20
-90.74938
 30
0.0
 11
235.88476
 21
-90.74938
 31
15.0
  0
LINE
  8
1
  5
D0
  6
CONTINUOUS
 62
7
 10
183.00976
 20
-94.87438
 30
0.0
 11
183.00976
 21
-94.87438
 31
15.0
  0
LINE
  8
1
  5
D2
  6
CONTINUOUS
 62
7
 10
187.13476
 20
-98.99938
 30
0.0
 11
187.13476
 21
-98.99938
 31
15.0
  0
LINE
  8
1
  5
D4
  6
CONTINUOUS
 62
7
 10
240.00976
 20
-103.12438
 30
0.0
 11
240.00976
 21
-103.12438
 31
15.0
  0
LINE
  8
1
  5
D6
  6
CONTINUOUS
 62
7
 10
235.88476
 20
-107.24938
 30
0.0
 11
235.88476
 21
-107.24938
 31
15.0
  0
LINE
  8
1
  5
D8
  6
CONTINUOUS
 62
7
 10
183.00976
 20
-111.37438
 30
0.0
 11
183.00976
 21
-111.37438
 31
15.0
  0
LINE
  8
1
  5
DA
  6
CONTINUOUS
 62
7
 10
187.13476
 20
-115.49938
 30
0.0
 11
187.13476
 21
-115.49938
 31
15.0
  0
LINE
  8
1
  5
DC
  6
CONTINUOUS
 62
7
 10
240.00976
 20
-119.62438
 30
0.0
 11
240.00976
 21
-119.62438
 31
15.0
  0
LINE
  8
1
  5
DE
  6
CONTINUOUS
 62
7
 10
235.88476
 20
-123.74938
 30
0.0
 11
235.88476
 21
-123.74938
 31
15.0
  0
LINE
  8
1
  5
E0
  6
CONTINUOUS
 62
7
 10
183.00976
 20
-127.87438
 30
0.0
 11
183.00976
 21
-127.87438
 31
15.0
  0
LINE
  8
1
  5
E2
  6
CONTINUOUS
 62
7
 10
187.13476
 20
-131.99938
 30
0.0
 11
187.13476
 21
-131.99938
 31
15.0
  0
LINE
  8
1
  5
E4
  6
CONTINUOUS
 62
7
 10
183.00976
 20
-144.37438
 30
0.0
 11
183.00976
 21
-144.37438
 31
15.0
  0
LINE
  8
1
  5
E6
  6
CONTINUOUS
 62
7
 10
187.13476
 20
-148.49938
 30
0.0
 11
187.13476
 21
-148.49938
 31
15.0
  0
LINE
  8
1
  5
E8
  6
CONTINUOUS
 62
7
 10
210.00976
 20
-41.24938
 30
15.0
 11
187.13476
 21
-41.24938
 31
15.0
  0
LINE
  8
1
  5
EA
  6
CONTINUOUS
 62
7
 10
187.13476
 20
-41.24938
 30
0.0
 11
187.13476
 21
-41.24938
 31
15.0
  0
LINE
  8
1
  5
EC
  6
CONTINUOUS
 62
7
 10
235.88476
 20
-41.24938
 30
0.0
 11
187.13476
 21
-41.24938
 31
0.0
  0
LINE
  8
1
  5
EE
  6
CONTINUOUS
 62
7
 10
235.88476
 20
-41.24938
 30
0.0
 11
235.88476
 21
-41.24938
 31
15.0
  0
LINE
  8
1
  5
F0
  6
CONTINUOUS
 62
7
 10
235.88476
 20
-41.24938
 30
15.0
 11
225.00976
 21
-41.24938
 31
15.0
  0
LINE
  8
1
  5
F2
  6
CONTINUOUS
 62
7
 10
210.00976
 20
-57.74938
 30
15.0
 11
187.13476
 21
-57.74938
 31
15.0
  0
LINE
  8
1
  5
F4
  6
CONTINUOUS
 62
7
 10
187.13476
 20
-57.74938
 30
0.0
 11
187.13476
 21
-57.74938
 31
15.0
  0
LINE
  8
1
  5
F6
  6
CONTINUOUS
 62
7
 10
235.88476
 20
-57.74938
 30
0.0
 11
187.13476
 21
-57.74938
 31
0.0
  0
LINE
  8
1
  5
F8
  6
CONTINUOUS
 62
7
 10
235.88476
 20
-57.74938
 30
0.0
 11
235.88476
 21
-57.74938
 31
15.0
  0
LINE
  8
1
  5
FA
  6
CONTINUOUS
 62
7
 10
235.88476
 20
-57.74938
 30
15.0
 11
225.00976
 21
-57.74938
 31
15.0
  0
LINE
  8
1
  5
FC
  6
CONTINUOUS
 62
7
 10
210.00976
 20
-74.24938
 30
15.0
 11
187.13476
 21
-74.24938
 31
15.0
  0
LINE
  8
1
  5
FE
  6
CONTINUOUS
 62
7
 10
187.13476
 20
-74.24938
 30
0.0
 11
187.13476
 21
-74.24938
 31
15.0
  0
LINE
  8
1
  5
100
  6
CONTINUOUS
 62
7
 10
235.88476
 20
-74.24938
 30
0.0
 11
187.13476
 21
-74.24938
 31
0.0
  0
LINE
  8
1
  5
102
  6
CONTINUOUS
 62
7
 10
235.88476
 20
-74.24938
 30
0.0
 11
235.88476
 21
-74.24938
 31
15.0
  0
LINE
  8
1
  5
104
  6
CONTINUOUS
 62
7
 10
235.88476
 20
-74.24938
 30
15.0
 11
225.00976
 21
-74.24938
 31
15.0
  0
LINE
  8
1
  5
106
  6
CONTINUOUS
 62
7
 10
210.00976
 20
-90.74938
 30
15.0
 11
187.13476
 21
-90.74938
 31
15.0
  0
LINE
  8
1
  5
108
  6
CONTINUOUS
 62
7
 10
187.13476
 20
-90.74938
 30
0.0
 11
187.13476
 21
-90.74938
 31
15.0
  0
LINE
  8
1
  5
10A
  6
CONTINUOUS
 62
7
 10
235.88476
 20
-90.74938
 30
0.0
 11
187.13476
 21
-90.74938
 31
0.0
  0
LINE
  8
1
  5
10C
  6
CONTINUOUS
 62
7
 10
235.88476
 20
-90.74938
 30
0.0
 11
235.88476
 21
-90.74938
 31
15.0
  0
LINE
  8
1
  5
10E
  6
CONTINUOUS
 62
7
 10
235.88476
 20
-90.74938
 30
15.0
 11
225.00976
 21
-90.74938
 31
15.0
  0
LINE
  8
1
  5
110
  6
CONTINUOUS
 62
7
 10
210.00976
 20
-107.24938
 30
15.0
 11
187.13476
 21
-107.24938
 31
15.0
  0
LINE
  8
1
  5
112
  6
CONTINUOUS
 62
7
 10
187.13476
 20
-107.24938
 30
0.0
 11
187.13476
 21
-107.24938
 31
15.0
  0
LINE
  8
1
  5
114
  6
CONTINUOUS
 62
7
 10
235.88476
 20
-107.24938
 30
0.0
 11
187.13476
 21
-107.24938
 31
0.0
  0
LINE
  8
1
  5
116
  6
CONTINUOUS
 62
7
 10
235.88476
 20
-107.24938
 30
0.0
 11
235.88476
 21
-107.24938
 31
15.0
  0
LINE
  8
1
  5
118
  6
CONTINUOUS
 62
7
 10
235.88476
 20
-107.24938
 30
15.0
 11
225.00976
 21
-107.24938
 31
15.0
  0
LINE
  8
1
  5
11A
  6
CONTINUOUS
 62
7
 10
210.00976
 20
-123.74938
 30
15.0
 11
187.13476
 21
-123.74938
 31
15.0
  0
LINE
  8
1
  5
11C
  6
CONTINUOUS
 62
7
 10
187.13476
 20
-123.74938
 30
0.0
 11
187.13476
 21
-123.74938
 31
15.0
  0
LINE
  8
1
  5
11E
  6
CONTINUOUS
 62
7
 10
235.88476
 20
-123.74938
 30
0.0
 11
187.13476
 21
-123.74938
 31
0.0
  0
LINE
  8
1
  5
120
  6
CONTINUOUS
 62
7
 10
235.88476
 20
-123.74938
 30
0.0
 11
235.88476
 21
-123.74938
 31
15.0
  0
LINE
  8
1
  5
122
  6
CONTINUOUS
 62
7
 10
235.88476
 20
-123.74938
 30
15.0
 11
225.00976
 21
-123.74938
 31
15.0
  0
LINE
  8
1
  5
124
  6
CONTINUOUS
 62
7
 10
210.00976
 20
-164.99938
 30
15.0
 11
0.00976
 21
-164.99938
 31
15.0
  0
LINE
  8
1
  5
126
  6
CONTINUOUS
 62
7
 10
0.00976
 20
-164.99938
 30
0.0
 11
0.00976
 21
-164.99938
 31
15.0
  0
LINE
  8
1
  5
128
  6
CONTINUOUS
 62
7
 10
240.00976
 20
-164.99938
 30
0.0
 11
0.00976
 21
-164.99938
 31
0.0
  0
LINE
  8
1
  5
12A
  6
CONTINUOUS
 62
7
 10
240.00976
 20
-164.99938
 30
0.0
 11
240.00976
 21
-164.99938
 31
15.0
  0
LINE
  8
1
  5
12C
  6
CONTINUOUS
 62
7
 10
240.00976
 20
-164.99938
 30
15.0
 11
225.00976
 21
-164.99938
 31
15.0
  0
LINE
  8
1
  5
12E
  6
CONTINUOUS
 62
7
 10
240.00976
 20
-152.62438
 30
15.0
 11
240.00976
 21
-164.99938
 31
15.0
  0
ARC
  8
1
  5
130
  6
CONTINUOUS
 62
7
 210
0.0
 220
0.0
 230
-1.0
 10
-235.88476
 20
-152.62438
 30
-15.0
 40
4.125
 50
90.0
 51
180.0
  0
LINE
  8
1
  5
132
  6
CONTINUOUS
 62
7
 10
225.00976
 20
-148.49938
 30
15.0
 11
235.88476
 21
-148.49938
 31
15.0
  0
ARC
  8
1
  5
134
  6
CONTINUOUS
 62
7
 210
0.0
 220
0.0
 230
-1.0
 10
-235.88476
 20
-119.62438
 30
-15.0
 40
4.125
 50
90.0
 51
270.0
  0
LINE
  8
1
  5
136
  6
CONTINUOUS
 62
7
 10
225.00976
 20
-115.49938
 30
15.0
 11
235.88476
 21
-115.49938
 31
15.0
  0
ARC
  8
1
  5
138
  6
CONTINUOUS
 62
7
 210
0.0
 220
0.0
 230
-1.0
 10
-235.88476
 20
-103.12438
 30
-15.0
 40
4.125
 50
90.0
 51
270.0
  0
LINE
  8
1
  5
13A
  6
CONTINUOUS
 62
7
 10
225.00976
 20
-98.99938
 30
15.0
 11
235.88476
 21
-98.99938
 31
15.0
  0
ARC
  8
1
  5
13C
  6
CONTINUOUS
 62
7
 210
0.0
 220
0.0
 230
-1.0
 10
-235.88476
 20
-86.62438
 30
-15.0
 40
4.125
 50
90.0
 51
270.0
  0
LINE
  8
1
  5
13E
  6
CONTINUOUS
 62
7
 10
225.00976
 20
-82.49938
 30
15.0
 11
235.88476
 21
-82.49938
 31
15.0
  0
ARC
  8
1
  5
140
  6
CONTINUOUS
 62
7
 210
0.0
 220
0.0
 230
-1.0
 10
-235.88476
 20
-70.12438
 30
-15.0
 40
4.125
 50
90.0
 51
270.0
  0
LINE
  8
1
  5
142
  6
CONTINUOUS
 62
7
 10
225.00976
 20
-65.99938
 30
15.0
 11
235.88476
 21
-65.99938
 31
15.0
  0
ARC
  8
1
  5
144
  6
CONTINUOUS
 62
7
 210
0.0
 220
0.0
 230
-1.0
 10
-235.88476
 20
-53.62438
 30
-15.0
 40
4.125
 50
90.0
 51
270.0
  0
LINE
  8
1
  5
146
  6
CONTINUOUS
 62
7
 10
225.00976
 20
-49.49938
 30
15.0
 11
235.88476
 21
-49.49938
 31
15.0
  0
LINE
  8
1
  5
148
  6
CONTINUOUS
 62
7
 10
187.13476
 20
-16.49938
 30
15.0
 11
210.00976
 21
-16.49938
 31
15.0
  0
ARC
  8
1
  5
14A
  6
CONTINUOUS
 62
7
 10
187.13476
 20
-12.37438
 30
15.0
 40
4.125
 50
90.0
 51
270.0
  0
LINE
  8
1
  5
14C
  6
CONTINUOUS
 62
7
 10
198.00976
 20
-8.24938
 30
15.0
 11
187.13476
 21
-8.24938
 31
15.0
  0
LINE
  8
1
  5
14E
  6
CONTINUOUS
 62
7
 10
198.00976
 20
0.00062
 30
15.0
 11
198.00976
 21
-8.24938
 31
15.0
  0
LINE
  8
1
  5
150
  6
CONTINUOUS
 62
7
 10
0.00976
 20
0.00062
 30
15.0
 11
198.00976
 21
0.00062
 31
15.0
  0
LINE
  8
1
  5
152
  6
CONTINUOUS
 62
7
 10
0.00976
 20
-164.99938
 30
15.0
 11
0.00976
 21
0.00062
 31
15.0
  0
LINE
  8
1
  5
154
  6
CONTINUOUS
 62
7
 10
187.13476
 20
-148.49938
 30
15.0
 11
210.00976
 21
-148.49938
 31
15.0
  0
ARC
  8
1
  5
156
  6
CONTINUOUS
 62
7
 10
187.13476
 20
-144.37438
 30
15.0
 40
4.125
 50
90.0
 51
270.0
  0
LINE
  8
1
  5
158
  6
CONTINUOUS
 62
7
 10
198.00976
 20
-140.24938
 30
15.0
 11
187.13476
 21
-140.24938
 31
15.0
  0
LINE
  8
1
  5
15A
  6
CONTINUOUS
 62
7
 10
198.00976
 20
-131.99938
 30
15.0
 11
198.00976
 21
-140.24938
 31
15.0
  0
LINE
  8
1
  5
15C
  6
CONTINUOUS
 62
7
 10
187.13476
 20
-131.99938
 30
15.0
 11
198.00976
 21
-131.99938
 31
15.0
  0
ARC
  8
1
  5
15E
  6
CONTINUOUS
 62
7
 10
187.13476
 20
-127.87438
 30
15.0
 40
4.125
 50
90.0
 51
270.0
  0
LINE
  8
1
  5
160
  6
CONTINUOUS
 62
7
 10
187.13476
 20
-115.49938
 30
15.0
 11
210.00976
 21
-115.49938
 31
15.0
  0
ARC
  8
1
  5
162
  6
CONTINUOUS
 62
7
 10
187.13476
 20
-111.37438
 30
15.0
 40
4.125
 50
90.0
 51
270.0
  0
LINE
  8
1
  5
164
  6
CONTINUOUS
 62
7
 10
187.13476
 20
-98.99938
 30
15.0
 11
210.00976
 21
-98.99938
 31
15.0
  0
ARC
  8
1
  5
166
  6
CONTINUOUS
 62
7
 10
187.13476
 20
-94.87438
 30
15.0
 40
4.125
 50
90.0
 51
270.0
  0
LINE
  8
1
  5
168
  6
CONTINUOUS
 62
7
 10
187.13476
 20
-82.49938
 30
15.0
 11
210.00976
 21
-82.49938
 31
15.0
  0
ARC
  8
1
  5
16A
  6
CONTINUOUS
 62
7
 10
187.13476
 20
-78.37438
 30
15.0
 40
4.125
 50
90.0
 51
270.0
  0
LINE
  8
1
  5
16C
  6
CONTINUOUS
 62
7
 10
187.13476
 20
-65.99938
 30
15.0
 11
210.00976
 21
-65.99938
 31
15.0
  0
ARC
  8
1
  5
16E
  6
CONTINUOUS
 62
7
 10
187.13476
 20
-61.87438
 30
15.0
 40
4.125
 50
90.0
 51
270.0
  0
LINE
  8
1
  5
170
  6
CONTINUOUS
 62
7
 10
187.13476
 20
-49.49938
 30
15.0
 11
210.00976
 21
-49.49938
 31
15.0
  0
ARC
  8
1
  5
172
  6
CONTINUOUS
 62
7
 10
187.13476
 20
-45.37438
 30
15.0
 40
4.125
 50
90.0
 51
270.0
  0
ARC
  8
1
  5
174
  6
CONTINUOUS
 62
7
 210
0.0
 220
0.0
 230
-1.0
 10
-235.88476
 20
-37.12438
 30
-15.0
 40
4.125
 50
180.0
 51
270.0
  0
LINE
  8
1
  5
176
  6
CONTINUOUS
 62
7
 10
240.00976
 20
-20.62438
 30
15.0
 11
240.00976
 21
-37.12438
 31
15.0
  0
ARC
  8
1
  5
178
  6
CONTINUOUS
 62
7
 210
0.0
 220
0.0
 230
-1.0
 10
-235.88476
 20
-20.62438
 30
-15.0
 40
4.125
 50
90.0
 51
180.0
  0
LINE
  8
1
  5
17A
  6
CONTINUOUS
 62
7
 10
225.00976
 20
-16.49938
 30
15.0
 11
235.88476
 21
-16.49938
 31
15.0
  0
LINE
  8
1
  5
17C
  6
CONTINUOUS
 62
7
 10
0.00976
 20
0.00062
 30
0.0
 11
0.00976
 21
0.00062
 31
15.0
  0
LINE
  8
1
  5
17E
  6
CONTINUOUS
 62
7
 10
0.00976
 20
-164.99938
 30
0.0
 11
0.00976
 21
0.00062
 31
0.0
  0
LINE
  8
1
  5
180
  6
CONTINUOUS
 62
7
 10
198.00976
 20
0.00062
 30
0.0
 11
198.00976
 21
0.00062
 31
15.0
  0
LINE
  8
1
  5
182
  6
CONTINUOUS
 62
7
 10
0.00976
 20
0.00062
 30
0.0
 11
198.00976
 21
0.00062
 31
0.0
  0
LINE
  8
1
  5
184
  6
CONTINUOUS
 62
7
 10
198.00976
 20
-8.24938
 30
0.0
 11
198.00976
 21
-8.24938
 31
15.0
  0
LINE
  8
1
  5
186
  6
CONTINUOUS
 62
7
 10
198.00976
 20
0.00062
 30
0.0
 11
198.00976
 21
-8.24938
 31
0.0
  0
LINE
  8
1
  5
188
  6
CONTINUOUS
 62
7
 10
187.13476
 20
-8.24938
 30
0.0
 11
187.13476
 21
-8.24938
 31
15.0
  0
LINE
  8
1
  5
18A
  6
CONTINUOUS
 62
7
 10
198.00976
 20
-8.24938
 30
0.0
 11
187.13476
 21
-8.24938
 31
0.0
  0
LINE
  8
1
  5
18C
  6
CONTINUOUS
 62
7
 10
187.13476
 20
-16.49938
 30
0.0
 11
187.13476
 21
-16.49938
 31
15.0
  0
ARC
  8
1
  5
18E
  6
CONTINUOUS
 62
7
 10
187.13476
 20
-12.37438
 30
0.0
 40
4.125
 50
90.0
 51
270.0
  0
LINE
  8
1
  5
190
  6
CONTINUOUS
 62
7
 10
235.88476
 20
-16.49938
 30
0.0
 11
235.88476
 21
-16.49938
 31
15.0
  0
LINE
  8
1
  5
192
  6
CONTINUOUS
 62
7
 10
187.13476
 20
-16.49938
 30
0.0
 11
235.88476
 21
-16.49938
 31
0.0
  0
LINE
  8
1
  5
194
  6
CONTINUOUS
 62
7
 10
240.00976
 20
-20.62438
 30
0.0
 11
240.00976
 21
-20.62438
 31
15.0
  0
ARC
  8
1
  5
196
  6
CONTINUOUS
 62
7
 210
0.0
 220
0.0
 230
-1.0
 10
-235.88476
 20
-20.62438
 30
0.0
 40
4.125
 50
90.0
 51
180.0
  0
LINE
  8
1
  5
198
  6
CONTINUOUS
 62
7
 10
240.00976
 20
-37.12438
 30
0.0
 11
240.00976
 21
-37.12438
 31
15.0
  0
LINE
  8
1
  5
19A
  6
CONTINUOUS
 62
7
 10
240.00976
 20
-20.62438
 30
0.0
 11
240.00976
 21
-37.12438
 31
0.0
  0
ARC
  8
1
  5
19C
  6
CONTINUOUS
 62
7
 210
0.0
 220
0.0
 230
-1.0
 10
-235.88476
 20
-37.12438
 30
0.0
 40
4.125
 50
180.0
 51
270.0
  0
LINE
  8
1
  5
19E
  6
CONTINUOUS
 62
7
 10
187.13476
 20
-49.49938
 30
0.0
 11
187.13476
 21
-49.49938
 31
15.0
  0
ARC
  8
1
  5
1A0
  6
CONTINUOUS
 62
7
 10
187.13476
 20
-45.37438
 30
0.0
 40
4.125
 50
90.0
 51
270.0
  0
LINE
  8
1
  5
1A2
  6
CONTINUOUS
 62
7
 10
235.88476
 20
-49.49938
 30
0.0
 11
235.88476
 21
-49.49938
 31
15.0
  0
LINE
  8
1
  5
1A4
  6
CONTINUOUS
 62
7
 10
187.13476
 20
-49.49938
 30
0.0
 11
235.88476
 21
-49.49938
 31
0.0
  0
ARC
  8
1
  5
1A6
  6
CONTINUOUS
 62
7
 210
0.0
 220
0.0
 230
-1.0
 10
-235.88476
 20
-53.62438
 30
0.0
 40
4.125
 50
90.0
 51
270.0
  0
LINE
  8
1
  5
1A8
  6
CONTINUOUS
 62
7
 10
187.13476
 20
-65.99938
 30
0.0
 11
187.13476
 21
-65.99938
 31
15.0
  0
ARC
  8
1
  5
1AA
  6
CONTINUOUS
 62
7
 10
187.13476
 20
-61.87438
 30
0.0
 40
4.125
 50
90.0
 51
270.0
  0
LINE
  8
1
  5
1AC
  6
CONTINUOUS
 62
7
 10
235.88476
 20
-65.99938
 30
0.0
 11
235.88476
 21
-65.99938
 31
15.0
  0
LINE
  8
1
  5
1AE
  6
CONTINUOUS
 62
7
 10
187.13476
 20
-65.99938
 30
0.0
 11
235.88476
 21
-65.99938
 31
0.0
  0
ARC
  8
1
  5
1B0
  6
CONTINUOUS
 62
7
 210
0.0
 220
0.0
 230
-1.0
 10
-235.88476
 20
-70.12438
 30
0.0
 40
4.125
 50
90.0
 51
270.0
  0
LINE
  8
1
  5
1B2
  6
CONTINUOUS
 62
7
 10
187.13476
 20
-82.49938
 30
0.0
 11
187.13476
 21
-82.49938
 31
15.0
  0
ARC
  8
1
  5
1B4
  6
CONTINUOUS
 62
7
 10
187.13476
 20
-78.37438
 30
0.0
 40
4.125
 50
90.0
 51
270.0
  0
LINE
  8
1
  5
1B6
  6
CONTINUOUS
 62
7
 10
235.88476
 20
-82.49938
 30
0.0
 11
235.88476
 21
-82.49938
 31
15.0
  0
LINE
  8
1
  5
1B8
  6
CONTINUOUS
 62
7
 10
187.13476
 20
-82.49938
 30
0.0
 11
235.88476
 21
-82.49938
 31
0.0
  0
ARC
  8
1
  5
1BA
  6
CONTINUOUS
 62
7
 210
0.0
 220
0.0
 230
-1.0
 10
-235.88476
 20
-86.62438
 30
0.0
 40
4.125
 50
90.0
 51
270.0
  0
LINE
  8
1
  5
1BC
  6
CONTINUOUS
 62
7
 10
187.13476
 20
-98.99938
 30
0.0
 11
187.13476
 21
-98.99938
 31
15.0
  0
ARC
  8
1
  5
1BE
  6
CONTINUOUS
 62
7
 10
187.13476
 20
-94.87438
 30
0.0
 40
4.125
 50
90.0
 51
270.0
  0
LINE
  8
1
  5
1C0
  6
CONTINUOUS
 62
7
 10
235.88476
 20
-98.99938
 30
0.0
 11
235.88476
 21
-98.99938
 31
15.0
  0
LINE
  8
1
  5
1C2
  6
CONTINUOUS
 62
7
 10
187.13476
 20
-98.99938
 30
0.0
 11
235.88476
 21
-98.99938
 31
0.0
  0
ARC
  8
1
  5
1C4
  6
CONTINUOUS
 62
7
 210
0.0
 220
0.0
 230
-1.0
 10
-235.88476
 20
-103.12438
 30
0.0
 40
4.125
 50
90.0
 51
270.0
  0
LINE
  8
1
  5
1C6
  6
CONTINUOUS
 62
7
 10
187.13476
 20
-115.49938
 30
0.0
 11
187.13476
 21
-115.49938
 31
15.0
  0
ARC
  8
1
  5
1C8
  6
CONTINUOUS
 62
7
 10
187.13476
 20
-111.37438
 30
0.0
 40
4.125
 50
90.0
 51
270.0
  0
LINE
  8
1
  5
1CA
  6
CONTINUOUS
 62
7
 10
235.88476
 20
-115.49938
 30
0.0
 11
235.88476
 21
-115.49938
 31
15.0
  0
LINE
  8
1
  5
1CC
  6
CONTINUOUS
 62
7
 10
187.13476
 20
-115.49938
 30
0.0
 11
235.88476
 21
-115.49938
 31
0.0
  0
ARC
  8
1
  5
1CE
  6
CONTINUOUS
 62
7
 210
0.0
 220
0.0
 230
-1.0
 10
-235.88476
 20
-119.62438
 30
0.0
 40
4.125
 50
90.0
 51
270.0
  0
LINE
  8
1
  5
1D0
  6
CONTINUOUS
 62
7
 10
187.13476
 20
-131.99938
 30
0.0
 11
187.13476
 21
-131.99938
 31
15.0
  0
ARC
  8
1
  5
1D2
  6
CONTINUOUS
 62
7
 10
187.13476
 20
-127.87438
 30
0.0
 40
4.125
 50
90.0
 51
270.0
  0
LINE
  8
1
  5
1D4
  6
CONTINUOUS
 62
7
 10
198.00976
 20
-131.99938
 30
0.0
 11
198.00976
 21
-131.99938
 31
15.0
  0
LINE
  8
1
  5
1D6
  6
CONTINUOUS
 62
7
 10
187.13476
 20
-131.99938
 30
0.0
 11
198.00976
 21
-131.99938
 31
0.0
  0
LINE
  8
1
  5
1D8
  6
CONTINUOUS
 62
7
 10
198.00976
 20
-140.24938
 30
0.0
 11
198.00976
 21
-140.24938
 31
15.0
  0
LINE
  8
1
  5
1DA
  6
CONTINUOUS
 62
7
 10
198.00976
 20
-131.99938
 30
0.0
 11
198.00976
 21
-140.24938
 31
0.0
  0
LINE
  8
1
  5
1DC
  6
CONTINUOUS
 62
7
 10
187.13476
 20
-140.24938
 30
0.0
 11
187.13476
 21
-140.24938
 31
15.0
  0
LINE
  8
1
  5
1DE
  6
CONTINUOUS
 62
7
 10
198.00976
 20
-140.24938
 30
0.0
 11
187.13476
 21
-140.24938
 31
0.0
  0
LINE
  8
1
  5
1E0
  6
CONTINUOUS
 62
7
 10
187.13476
 20
-148.49938
 30
0.0
 11
187.13476
 21
-148.49938
 31
15.0
  0
ARC
  8
1
  5
1E2
  6
CONTINUOUS
 62
7
 10
187.13476
 20
-144.37438
 30
0.0
 40
4.125
 50
90.0
 51
270.0
  0
LINE
  8
1
  5
1E4
  6
CONTINUOUS
 62
7
 10
235.88476
 20
-148.49938
 30
0.0
 11
235.88476
 21
-148.49938
 31
15.0
  0
LINE
  8
1
  5
1E6
  6
CONTINUOUS
 62
7
 10
187.13476
 20
-148.49938
 30
0.0
 11
235.88476
 21
-148.49938
 31
0.0
  0
LINE
  8
1
  5
1E8
  6
CONTINUOUS
 62
7
 10
240.00976
 20
-152.62438
 30
0.0
 11
240.00976
 21
-152.62438
 31
15.0
  0
ARC
  8
1
  5
1EA
  6
CONTINUOUS
 62
7
 210
0.0
 220
0.0
 230
-1.0
 10
-235.88476
 20
-152.62438
 30
0.0
 40
4.125
 50
90.0
 51
180.0
  0
LINE
  8
1
  5
1EC
  6
CONTINUOUS
 62
7
 10
240.00976
 20
-152.62438
 30
0.0
 11
240.00976
 21
-164.99938
 31
0.0
  0
ENDBLK
  8
1
  5
1ED
  0
BLOCK
  8
1
  5
1EF
 70
1
 10
0.0
 20
0.0
 30
0.0
  2
*M3
  3
*M3
  0
INSERT
  8
1
  5
1F1
  6
CONTINUOUS
 62
7
  2
*M1
 10
0.0
 20
0.0
 30
0.0
 41
1.0
 42
1.0
 43
1.0
 70
1
 71
1
  0
INSERT
  8
1
  5
1F3
  6
CONTINUOUS
 62
7
  2
*M2
 10
0.0
 20
0.0
 30
0.0
 41
1.0
 42
1.0
 43
1.0
 70
1
 71
1
  0
ENDBLK
  8
1
  5
1F4
  0
BLOCK
  8
1
  5
1F6
 70
1
 10
0.0
 20
0.0
 30
0.0
  2
*M4
  3
*M4
  0
LINE
  8
1
  5
1F8
  6
CONTINUOUS
 62
7
 10
-225.00976
 20
49.49938
 30
12.0
 11
-225.00976
 21
49.49938
 31
15.0
  0
LINE
  8
1
  5
1FA
  6
CONTINUOUS
 62
7
 10
-225.00976
 20
57.74938
 30
12.0
 11
-225.00976
 21
49.49938
 31
12.0
  0
LINE
  8
1
  5
1FC
  6
CONTINUOUS
 62
7
 10
-225.00976
 20
57.74938
 30
15.0
 11
-225.00976
 21
57.74938
 31
12.0
  0
LINE
  8
1
  5
1FE
  6
CONTINUOUS
 62
7
 10
-225.00976
 20
49.49938
 30
15.0
 11
-225.00976
 21
57.74938
 31
15.0
  0
LINE
  8
1
  5
200
  6
CONTINUOUS
 62
7
 10
-225.00976
 20
65.99938
 30
12.0
 11
-225.00976
 21
65.99938
 31
15.0
  0
LINE
  8
1
  5
202
  6
CONTINUOUS
 62
7
 10
-225.00976
 20
74.24938
 30
12.0
 11
-225.00976
 21
65.99938
 31
12.0
  0
LINE
  8
1
  5
204
  6
CONTINUOUS
 62
7
 10
-225.00976
 20
74.24938
 30
15.0
 11
-225.00976
 21
74.24938
 31
12.0
  0
LINE
  8
1
  5
206
  6
CONTINUOUS
 62
7
 10
-225.00976
 20
65.99938
 30
15.0
 11
-225.00976
 21
74.24938
 31
15.0
  0
LINE
  8
1
  5
208
  6
CONTINUOUS
 62
7
 10
-225.00976
 20
82.49938
 30
12.0
 11
-225.00976
 21
82.49938
 31
15.0
  0
LINE
  8
1
  5
20A
  6
CONTINUOUS
 62
7
 10
-225.00976
 20
90.74938
 30
12.0
 11
-225.00976
 21
82.49938
 31
12.0
  0
LINE
  8
1
  5
20C
  6
CONTINUOUS
 62
7
 10
-225.00976
 20
90.74938
 30
15.0
 11
-225.00976
 21
90.74938
 31
12.0
  0
LINE
  8
1
  5
20E
  6
CONTINUOUS
 62
7
 10
-225.00976
 20
82.49938
 30
15.0
 11
-225.00976
 21
90.74938
 31
15.0
  0
LINE
  8
1
  5
210
  6
CONTINUOUS
 62
7
 10
-225.00976
 20
98.99938
 30
12.0
 11
-225.00976
 21
98.99938
 31
15.0
  0
LINE
  8
1
  5
212
  6
CONTINUOUS
 62
7
 10
-225.00976
 20
107.24938
 30
12.0
 11
-225.00976
 21
98.99938
 31
12.0
  0
LINE
  8
1
  5
214
  6
CONTINUOUS
 62
7
 10
-225.00976
 20
107.24938
 30
15.0
 11
-225.00976
 21
107.24938
 31
12.0
  0
LINE
  8
1
  5
216
  6
CONTINUOUS
 62
7
 10
-225.00976
 20
98.99938
 30
15.0
 11
-225.00976
 21
107.24938
 31
15.0
  0
LINE
  8
1
  5
218
  6
CONTINUOUS
 62
7
 10
-225.00976
 20
115.49938
 30
12.0
 11
-225.00976
 21
115.49938
 31
15.0
  0
LINE
  8
1
  5
21A
  6
CONTINUOUS
 62
7
 10
-225.00976
 20
123.74938
 30
12.0
 11
-225.00976
 21
115.49938
 31
12.0
  0
LINE
  8
1
  5
21C
  6
CONTINUOUS
 62
7
 10
-225.00976
 20
123.74938
 30
15.0
 11
-225.00976
 21
123.74938
 31
12.0
  0
LINE
  8
1
  5
21E
  6
CONTINUOUS
 62
7
 10
-225.00976
 20
115.49938
 30
15.0
 11
-225.00976
 21
123.74938
 31
15.0
  0
LINE
  8
1
  5
220
  6
CONTINUOUS
 62
7
 10
-225.00976
 20
148.49938
 30
15.0
 11
-225.00976
 21
164.99938
 31
15.0
  0
LINE
  8
1
  5
222
  6
CONTINUOUS
 62
7
 10
-225.00976
 20
148.49938
 30
12.0
 11
-225.00976
 21
148.49938
 31
15.0
  0
LINE
  8
1
  5
224
  6
CONTINUOUS
 62
7
 10
-225.00976
 20
164.99938
 30
12.0
 11
-225.00976
 21
148.49938
 31
12.0
  0
LINE
  8
1
  5
226
  6
CONTINUOUS
 62
7
 10
-225.00976
 20
164.99938
 30
15.0
 11
-225.00976
 21
164.99938
 31
12.0
  0
LINE
  8
1
  5
228
  6
CONTINUOUS
 62
7
 10
-225.00976
 20
16.49938
 30
15.0
 11
-225.00976
 21
41.24938
 31
15.0
  0
LINE
  8
1
  5
22A
  6
CONTINUOUS
 62
7
 10
-225.00976
 20
16.49938
 30
12.0
 11
-225.00976
 21
16.49938
 31
15.0
  0
LINE
  8
1
  5
22C
  6
CONTINUOUS
 62
7
 10
-225.00976
 20
41.24938
 30
12.0
 11
-225.00976
 21
16.49938
 31
12.0
  0
LINE
  8
1
  5
22E
  6
CONTINUOUS
 62
7
 10
-225.00976
 20
41.24938
 30
15.0
 11
-225.00976
 21
41.24938
 31
12.0
  0
LINE
  8
1
  5
230
  6
CONTINUOUS
 62
7
 10
-210.00976
 20
148.49938
 30
12.0
 11
-225.00976
 21
148.49938
 31
12.0
  0
LINE
  8
1
  5
232
  6
CONTINUOUS
 62
7
 10
-210.00976
 20
148.49938
 30
12.0
 11
-210.00976
 21
164.99938
 31
12.0
  0
LINE
  8
1
  5
234
  6
CONTINUOUS
 62
7
 10
-225.00976
 20
164.99938
 30
12.0
 11
-210.00976
 21
164.99938
 31
12.0
  0
LINE
  8
1
  5
236
  6
CONTINUOUS
 62
7
 10
-210.00976
 20
115.49938
 30
12.0
 11
-225.00976
 21
115.49938
 31
12.0
  0
LINE
  8
1
  5
238
  6
CONTINUOUS
 62
7
 10
-210.00976
 20
115.49938
 30
12.0
 11
-210.00976
 21
123.74938
 31
12.0
  0
LINE
  8
1
  5
23A
  6
CONTINUOUS
 62
7
 10
-225.00976
 20
123.74938
 30
12.0
 11
-210.00976
 21
123.74938
 31
12.0
  0
LINE
  8
1
  5
23C
  6
CONTINUOUS
 62
7
 10
-210.00976
 20
98.99938
 30
12.0
 11
-225.00976
 21
98.99938
 31
12.0
  0
LINE
  8
1
  5
23E
  6
CONTINUOUS
 62
7
 10
-210.00976
 20
98.99938
 30
12.0
 11
-210.00976
 21
107.24938
 31
12.0
  0
LINE
  8
1
  5
240
  6
CONTINUOUS
 62
7
 10
-225.00976
 20
107.24938
 30
12.0
 11
-210.00976
 21
107.24938
 31
12.0
  0
LINE
  8
1
  5
242
  6
CONTINUOUS
 62
7
 10
-210.00976
 20
82.49938
 30
12.0
 11
-225.00976
 21
82.49938
 31
12.0
  0
LINE
  8
1
  5
244
  6
CONTINUOUS
 62
7
 10
-210.00976
 20
82.49938
 30
12.0
 11
-210.00976
 21
90.74938
 31
12.0
  0
LINE
  8
1
  5
246
  6
CONTINUOUS
 62
7
 10
-225.00976
 20
90.74938
 30
12.0
 11
-210.00976
 21
90.74938
 31
12.0
  0
LINE
  8
1
  5
248
  6
CONTINUOUS
 62
7
 10
-210.00976
 20
65.99938
 30
12.0
 11
-225.00976
 21
65.99938
 31
12.0
  0
LINE
  8
1
  5
24A
  6
CONTINUOUS
 62
7
 10
-210.00976
 20
65.99938
 30
12.0
 11
-210.00976
 21
74.24938
 31
12.0
  0
LINE
  8
1
  5
24C
  6
CONTINUOUS
 62
7
 10
-225.00976
 20
74.24938
 30
12.0
 11
-210.00976
 21
74.24938
 31
12.0
  0
LINE
  8
1
  5
24E
  6
CONTINUOUS
 62
7
 10
-210.00976
 20
49.49938
 30
12.0
 11
-225.00976
 21
49.49938
 31
12.0
  0
LINE
  8
1
  5
250
  6
CONTINUOUS
 62
7
 10
-210.00976
 20
49.49938
 30
12.0
 11
-210.00976
 21
57.74938
 31
12.0
  0
LINE
  8
1
  5
252
  6
CONTINUOUS
 62
7
 10
-225.00976
 20
57.74938
 30
12.0
 11
-210.00976
 21
57.74938
 31
12.0
  0
LINE
  8
1
  5
254
  6
CONTINUOUS
 62
7
 10
-225.00976
 20
41.24938
 30
12.0
 11
-210.00976
 21
41.24938
 31
12.0
  0
LINE
  8
1
  5
256
  6
CONTINUOUS
 62
7
 10
-210.00976
 20
16.49938
 30
12.0
 11
-225.00976
 21
16.49938
 31
12.0
  0
LINE
  8
1
  5
258
  6
CONTINUOUS
 62
7
 10
-210.00976
 20
16.49938
 30
12.0
 11
-210.00976
 21
41.24938
 31
12.0
  0
LINE
  8
1
  5
25A
  6
CONTINUOUS
 62
7
 10
-210.00976
 20
164.99938
 30
15.0
 11
-210.00976
 21
148.49938
 31
15.0
  0
LINE
  8
1
  5
25C
  6
CONTINUOUS
 62
7
 10
-210.00976
 20
164.99938
 30
12.0
 11
-210.00976
 21
164.99938
 31
15.0
  0
LINE
  8
1
  5
25E
  6
CONTINUOUS
 62
7
 10
-210.00976
 20
148.49938
 30
15.0
 11
-210.00976
 21
148.49938
 31
12.0
  0
LINE
  8
1
  5
260
  6
CONTINUOUS
 62
7
 10
-210.00976
 20
115.49938
 30
15.0
 11
-210.00976
 21
115.49938
 31
12.0
  0
LINE
  8
1
  5
262
  6
CONTINUOUS
 62
7
 10
-210.00976
 20
123.74938
 30
15.0
 11
-210.00976
 21
115.49938
 31
15.0
  0
LINE
  8
1
  5
264
  6
CONTINUOUS
 62
7
 10
-210.00976
 20
123.74938
 30
12.0
 11
-210.00976
 21
123.74938
 31
15.0
  0
LINE
  8
1
  5
266
  6
CONTINUOUS
 62
7
 10
-210.00976
 20
98.99938
 30
15.0
 11
-210.00976
 21
98.99938
 31
12.0
  0
LINE
  8
1
  5
268
  6
CONTINUOUS
 62
7
 10
-210.00976
 20
107.24938
 30
15.0
 11
-210.00976
 21
98.99938
 31
15.0
  0
LINE
  8
1
  5
26A
  6
CONTINUOUS
 62
7
 10
-210.00976
 20
107.24938
 30
12.0
 11
-210.00976
 21
107.24938
 31
15.0
  0
LINE
  8
1
  5
26C
  6
CONTINUOUS
 62
7
 10
-210.00976
 20
82.49938
 30
15.0
 11
-210.00976
 21
82.49938
 31
12.0
  0
LINE
  8
1
  5
26E
  6
CONTINUOUS
 62
7
 10
-210.00976
 20
90.74938
 30
15.0
 11
-210.00976
 21
82.49938
 31
15.0
  0
LINE
  8
1
  5
270
  6
CONTINUOUS
 62
7
 10
-210.00976
 20
90.74938
 30
12.0
 11
-210.00976
 21
90.74938
 31
15.0
  0
LINE
  8
1
  5
272
  6
CONTINUOUS
 62
7
 10
-210.00976
 20
65.99938
 30
15.0
 11
-210.00976
 21
65.99938
 31
12.0
  0
LINE
  8
1
  5
274
  6
CONTINUOUS
 62
7
 10
-210.00976
 20
74.24938
 30
15.0
 11
-210.00976
 21
65.99938
 31
15.0
  0
LINE
  8
1
  5
276
  6
CONTINUOUS
 62
7
 10
-210.00976
 20
74.24938
 30
12.0
 11
-210.00976
 21
74.24938
 31
15.0
  0
LINE
  8
1
  5
278
  6
CONTINUOUS
 62
7
 10
-210.00976
 20
49.49938
 30
15.0
 11
-210.00976
 21
49.49938
 31
12.0
  0
LINE
  8
1
  5
27A
  6
CONTINUOUS
 62
7
 10
-210.00976
 20
57.74938
 30
15.0
 11
-210.00976
 21
49.49938
 31
15.0
  0
LINE
  8
1
  5
27C
  6
CONTINUOUS
 62
7
 10
-210.00976
 20
57.74938
 30
12.0
 11
-210.00976
 21
57.74938
 31
15.0
  0
LINE
  8
1
  5
27E
  6
CONTINUOUS
 62
7
 10
-210.00976
 20
41.24938
 30
15.0
 11
-210.00976
 21
16.49938
 31
15.0
  0
LINE
  8
1
  5
280
  6
CONTINUOUS
 62
7
 10
-210.00976
 20
41.24938
 30
12.0
 11
-210.00976
 21
41.24938
 31
15.0
  0
LINE
  8
1
  5
282
  6
CONTINUOUS
 62
7
 10
-210.00976
 20
16.49938
 30
15.0
 11
-210.00976
 21
16.49938
 31
12.0
  0
ENDBLK
  8
1
  5
283
  0
BLOCK
  8
1
  5
285
 70
1
 10
0.0
 20
0.0
 30
0.0
  2
*M5
  3
*M5
  0
LINE
  8
1
  5
287
  6
CONTINUOUS
 62
7
 10
-183.00976
 20
12.37438
 30
0.0
 11
-183.00976
 21
12.37438
 31
15.0
  0
LINE
  8
1
  5
289
  6
CONTINUOUS
 62
7
 10
-187.13476
 20
16.49938
 30
0.0
 11
-187.13476
 21
16.49938
 31
15.0
  0
LINE
  8
1
  5
28B
  6
CONTINUOUS
 62
7
 10
-183.00976
 20
45.37438
 30
0.0
 11
-183.00976
 21
45.37438
 31
15.0
  0
LINE
  8
1
  5
28D
  6
CONTINUOUS
 62
7
 10
-187.13476
 20
49.49938
 30
0.0
 11
-187.13476
 21
49.49938
 31
15.0
  0
LINE
  8
1
  5
28F
  6
CONTINUOUS
 62
7
 10
-240.00976
 20
53.62438
 30
0.0
 11
-240.00976
 21
53.62438
 31
15.0
  0
LINE
  8
1
  5
291
  6
CONTINUOUS
 62
7
 10
-235.88476
 20
57.74938
 30
0.0
 11
-235.88476
 21
57.74938
 31
15.0
  0
LINE
  8
1
  5
293
  6
CONTINUOUS
 62
7
 10
-183.00976
 20
61.87438
 30
0.0
 11
-183.00976
 21
61.87438
 31
15.0
  0
LINE
  8
1
  5
295
  6
CONTINUOUS
 62
7
 10
-187.13476
 20
65.99938
 30
0.0
 11
-187.13476
 21
65.99938
 31
15.0
  0
LINE
  8
1
  5
297
  6
CONTINUOUS
 62
7
 10
-240.00976
 20
70.12438
 30
0.0
 11
-240.00976
 21
70.12438
 31
15.0
  0
LINE
  8
1
  5
299
  6
CONTINUOUS
 62
7
 10
-235.88476
 20
74.24938
 30
0.0
 11
-235.88476
 21
74.24938
 31
15.0
  0
LINE
  8
1
  5
29B
  6
CONTINUOUS
 62
7
 10
-183.00976
 20
78.37438
 30
0.0
 11
-183.00976
 21
78.37438
 31
15.0
  0
LINE
  8
1
  5
29D
  6
CONTINUOUS
 62
7
 10
-187.13476
 20
82.49938
 30
0.0
 11
-187.13476
 21
82.49938
 31
15.0
  0
LINE
  8
1
  5
29F
  6
CONTINUOUS
 62
7
 10
-240.00976
 20
86.62438
 30
0.0
 11
-240.00976
 21
86.62438
 31
15.0
  0
LINE
  8
1
  5
2A1
  6
CONTINUOUS
 62
7
 10
-235.88476
 20
90.74938
 30
0.0
 11
-235.88476
 21
90.74938
 31
15.0
  0
LINE
  8
1
  5
2A3
  6
CONTINUOUS
 62
7
 10
-183.00976
 20
94.87438
 30
0.0
 11
-183.00976
 21
94.87438
 31
15.0
  0
LINE
  8
1
  5
2A5
  6
CONTINUOUS
 62
7
 10
-187.13476
 20
98.99938
 30
0.0
 11
-187.13476
 21
98.99938
 31
15.0
  0
LINE
  8
1
  5
2A7
  6
CONTINUOUS
 62
7
 10
-240.00976
 20
103.12438
 30
0.0
 11
-240.00976
 21
103.12438
 31
15.0
  0
LINE
  8
1
  5
2A9
  6
CONTINUOUS
 62
7
 10
-235.88476
 20
107.24938
 30
0.0
 11
-235.88476
 21
107.24938
 31
15.0
  0
LINE
  8
1
  5
2AB
  6
CONTINUOUS
 62
7
 10
-183.00976
 20
111.37438
 30
0.0
 11
-183.00976
 21
111.37438
 31
15.0
  0
LINE
  8
1
  5
2AD
  6
CONTINUOUS
 62
7
 10
-187.13476
 20
115.49938
 30
0.0
 11
-187.13476
 21
115.49938
 31
15.0
  0
LINE
  8
1
  5
2AF
  6
CONTINUOUS
 62
7
 10
-240.00976
 20
119.62438
 30
0.0
 11
-240.00976
 21
119.62438
 31
15.0
  0
LINE
  8
1
  5
2B1
  6
CONTINUOUS
 62
7
 10
-235.88476
 20
123.74938
 30
0.0
 11
-235.88476
 21
123.74938
 31
15.0
  0
LINE
  8
1
  5
2B3
  6
CONTINUOUS
 62
7
 10
-183.00976
 20
127.87438
 30
0.0
 11
-183.00976
 21
127.87438
 31
15.0
  0
LINE
  8
1
  5
2B5
  6
CONTINUOUS
 62
7
 10
-187.13476
 20
131.99938
 30
0.0
 11
-187.13476
 21
131.99938
 31
15.0
  0
LINE
  8
1
  5
2B7
  6
CONTINUOUS
 62
7
 10
-183.00976
 20
144.37438
 30
0.0
 11
-183.00976
 21
144.37438
 31
15.0
  0
LINE
  8
1
  5
2B9
  6
CONTINUOUS
 62
7
 10
-187.13476
 20
148.49938
 30
0.0
 11
-187.13476
 21
148.49938
 31
15.0
  0
LINE
  8
1
  5
2BB
  6
CONTINUOUS
 62
7
 10
-210.00976
 20
41.24938
 30
15.0
 11
-187.13476
 21
41.24938
 31
15.0
  0
LINE
  8
1
  5
2BD
  6
CONTINUOUS
 62
7
 10
-187.13476
 20
41.24938
 30
0.0
 11
-187.13476
 21
41.24938
 31
15.0
  0
LINE
  8
1
  5
2BF
  6
CONTINUOUS
 62
7
 10
-235.88476
 20
41.24938
 30
0.0
 11
-187.13476
 21
41.24938
 31
0.0
  0
LINE
  8
1
  5
2C1
  6
CONTINUOUS
 62
7
 10
-235.88476
 20
41.24938
 30
0.0
 11
-235.88476
 21
41.24938
 31
15.0
  0
LINE
  8
1
  5
2C3
  6
CONTINUOUS
 62
7
 10
-235.88476
 20
41.24938
 30
15.0
 11
-225.00976
 21
41.24938
 31
15.0
  0
LINE
  8
1
  5
2C5
  6
CONTINUOUS
 62
7
 10
-210.00976
 20
57.74938
 30
15.0
 11
-187.13476
 21
57.74938
 31
15.0
  0
LINE
  8
1
  5
2C7
  6
CONTINUOUS
 62
7
 10
-187.13476
 20
57.74938
 30
0.0
 11
-187.13476
 21
57.74938
 31
15.0
  0
LINE
  8
1
  5
2C9
  6
CONTINUOUS
 62
7
 10
-235.88476
 20
57.74938
 30
0.0
 11
-187.13476
 21
57.74938
 31
0.0
  0
LINE
  8
1
  5
2CB
  6
CONTINUOUS
 62
7
 10
-235.88476
 20
57.74938
 30
0.0
 11
-235.88476
 21
57.74938
 31
15.0
  0
LINE
  8
1
  5
2CD
  6
CONTINUOUS
 62
7
 10
-235.88476
 20
57.74938
 30
15.0
 11
-225.00976
 21
57.74938
 31
15.0
  0
LINE
  8
1
  5
2CF
  6
CONTINUOUS
 62
7
 10
-210.00976
 20
74.24938
 30
15.0
 11
-187.13476
 21
74.24938
 31
15.0
  0
LINE
  8
1
  5
2D1
  6
CONTINUOUS
 62
7
 10
-187.13476
 20
74.24938
 30
0.0
 11
-187.13476
 21
74.24938
 31
15.0
  0
LINE
  8
1
  5
2D3
  6
CONTINUOUS
 62
7
 10
-235.88476
 20
74.24938
 30
0.0
 11
-187.13476
 21
74.24938
 31
0.0
  0
LINE
  8
1
  5
2D5
  6
CONTINUOUS
 62
7
 10
-235.88476
 20
74.24938
 30
0.0
 11
-235.88476
 21
74.24938
 31
15.0
  0
LINE
  8
1
  5
2D7
  6
CONTINUOUS
 62
7
 10
-235.88476
 20
74.24938
 30
15.0
 11
-225.00976
 21
74.24938
 31
15.0
  0
LINE
  8
1
  5
2D9
  6
CONTINUOUS
 62
7
 10
-210.00976
 20
90.74938
 30
15.0
 11
-187.13476
 21
90.74938
 31
15.0
  0
LINE
  8
1
  5
2DB
  6
CONTINUOUS
 62
7
 10
-187.13476
 20
90.74938
 30
0.0
 11
-187.13476
 21
90.74938
 31
15.0
  0
LINE
  8
1
  5
2DD
  6
CONTINUOUS
 62
7
 10
-235.88476
 20
90.74938
 30
0.0
 11
-187.13476
 21
90.74938
 31
0.0
  0
LINE
  8
1
  5
2DF
  6
CONTINUOUS
 62
7
 10
-235.88476
 20
90.74938
 30
0.0
 11
-235.88476
 21
90.74938
 31
15.0
  0
LINE
  8
1
  5
2E1
  6
CONTINUOUS
 62
7
 10
-235.88476
 20
90.74938
 30
15.0
 11
-225.00976
 21
90.74938
 31
15.0
  0
LINE
  8
1
  5
2E3
  6
CONTINUOUS
 62
7
 10
-210.00976
 20
107.24938
 30
15.0
 11
-187.13476
 21
107.24938
 31
15.0
  0
LINE
  8
1
  5
2E5
  6
CONTINUOUS
 62
7
 10
-187.13476
 20
107.24938
 30
0.0
 11
-187.13476
 21
107.24938
 31
15.0
  0
LINE
  8
1
  5
2E7
  6
CONTINUOUS
 62
7
 10
-235.88476
 20
107.24938
 30
0.0
 11
-187.13476
 21
107.24938
 31
0.0
  0
LINE
  8
1
  5
2E9
  6
CONTINUOUS
 62
7
 10
-235.88476
 20
107.24938
 30
0.0
 11
-235.88476
 21
107.24938
 31
15.0
  0
LINE
  8
1
  5
2EB
  6
CONTINUOUS
 62
7
 10
-235.88476
 20
107.24938
 30
15.0
 11
-225.00976
 21
107.24938
 31
15.0
  0
LINE
  8
1
  5
2ED
  6
CONTINUOUS
 62
7
 10
-210.00976
 20
123.74938
 30
15.0
 11
-187.13476
 21
123.74938
 31
15.0
  0
LINE
  8
1
  5
2EF
  6
CONTINUOUS
 62
7
 10
-187.13476
 20
123.74938
 30
0.0
 11
-187.13476
 21
123.74938
 31
15.0
  0
LINE
  8
1
  5
2F1
  6
CONTINUOUS
 62
7
 10
-235.88476
 20
123.74938
 30
0.0
 11
-187.13476
 21
123.74938
 31
0.0
  0
LINE
  8
1
  5
2F3
  6
CONTINUOUS
 62
7
 10
-235.88476
 20
123.74938
 30
0.0
 11
-235.88476
 21
123.74938
 31
15.0
  0
LINE
  8
1
  5
2F5
  6
CONTINUOUS
 62
7
 10
-235.88476
 20
123.74938
 30
15.0
 11
-225.00976
 21
123.74938
 31
15.0
  0
LINE
  8
1
  5
2F7
  6
CONTINUOUS
 62
7
 10
-210.00976
 20
164.99938
 30
15.0
 11
-0.00976
 21
164.99938
 31
15.0
  0
LINE
  8
1
  5
2F9
  6
CONTINUOUS
 62
7
 10
-0.00976
 20
164.99938
 30
0.0
 11
-0.00976
 21
164.99938
 31
15.0
  0
LINE
  8
1
  5
2FB
  6
CONTINUOUS
 62
7
 10
-240.00976
 20
164.99938
 30
0.0
 11
-0.00976
 21
164.99938
 31
0.0
  0
LINE
  8
1
  5
2FD
  6
CONTINUOUS
 62
7
 10
-240.00976
 20
164.99938
 30
0.0
 11
-240.00976
 21
164.99938
 31
15.0
  0
LINE
  8
1
  5
2FF
  6
CONTINUOUS
 62
7
 10
-240.00976
 20
164.99938
 30
15.0
 11
-225.00976
 21
164.99938
 31
15.0
  0
LINE
  8
1
  5
301
  6
CONTINUOUS
 62
7
 10
-240.00976
 20
152.62438
 30
15.0
 11
-240.00976
 21
164.99938
 31
15.0
  0
ARC
  8
1
  5
303
  6
CONTINUOUS
 62
7
 210
0.0
 220
0.0
 230
-1.0
 10
235.88476
 20
152.62438
 30
-15.0
 40
4.125
 50
270.0
 51
360.0
  0
LINE
  8
1
  5
305
  6
CONTINUOUS
 62
7
 10
-225.00976
 20
148.49938
 30
15.0
 11
-235.88476
 21
148.49938
 31
15.0
  0
ARC
  8
1
  5
307
  6
CONTINUOUS
 62
7
 210
0.0
 220
0.0
 230
-1.0
 10
235.88476
 20
119.62438
 30
-15.0
 40
4.125
 50
270.0
 51
90.0
  0
LINE
  8
1
  5
309
  6
CONTINUOUS
 62
7
 10
-225.00976
 20
115.49938
 30
15.0
 11
-235.88476
 21
115.49938
 31
15.0
  0
ARC
  8
1
  5
30B
  6
CONTINUOUS
 62
7
 210
0.0
 220
0.0
 230
-1.0
 10
235.88476
 20
103.12438
 30
-15.0
 40
4.125
 50
270.0
 51
90.0
  0
LINE
  8
1
  5
30D
  6
CONTINUOUS
 62
7
 10
-225.00976
 20
98.99938
 30
15.0
 11
-235.88476
 21
98.99938
 31
15.0
  0
ARC
  8
1
  5
30F
  6
CONTINUOUS
 62
7
 210
0.0
 220
0.0
 230
-1.0
 10
235.88476
 20
86.62438
 30
-15.0
 40
4.125
 50
270.0
 51
90.0
  0
LINE
  8
1
  5
311
  6
CONTINUOUS
 62
7
 10
-225.00976
 20
82.49938
 30
15.0
 11
-235.88476
 21
82.49938
 31
15.0
  0
ARC
  8
1
  5
313
  6
CONTINUOUS
 62
7
 210
0.0
 220
0.0
 230
-1.0
 10
235.88476
 20
70.12438
 30
-15.0
 40
4.125
 50
270.0
 51
90.0
  0
LINE
  8
1
  5
315
  6
CONTINUOUS
 62
7
 10
-225.00976
 20
65.99938
 30
15.0
 11
-235.88476
 21
65.99938
 31
15.0
  0
ARC
  8
1
  5
317
  6
CONTINUOUS
 62
7
 210
0.0
 220
0.0
 230
-1.0
 10
235.88476
 20
53.62438
 30
-15.0
 40
4.125
 50
270.0
 51
90.0
  0
LINE
  8
1
  5
319
  6
CONTINUOUS
 62
7
 10
-225.00976
 20
49.49938
 30
15.0
 11
-235.88476
 21
49.49938
 31
15.0
  0
LINE
  8
1
  5
31B
  6
CONTINUOUS
 62
7
 10
-187.13476
 20
16.49938
 30
15.0
 11
-210.00976
 21
16.49938
 31
15.0
  0
ARC
  8
1
  5
31D
  6
CONTINUOUS
 62
7
 10
-187.13476
 20
12.37438
 30
15.0
 40
4.125
 50
270.0
 51
90.0
  0
LINE
  8
1
  5
31F
  6
CONTINUOUS
 62
7
 10
-198.00976
 20
8.24938
 30
15.0
 11
-187.13476
 21
8.24938
 31
15.0
  0
LINE
  8
1
  5
321
  6
CONTINUOUS
 62
7
 10
-198.00976
 20
-0.00062
 30
15.0
 11
-198.00976
 21
8.24938
 31
15.0
  0
LINE
  8
1
  5
323
  6
CONTINUOUS
 62
7
 10
-0.00976
 20
-0.00062
 30
15.0
 11
-198.00976
 21
-0.00062
 31
15.0
  0
LINE
  8
1
  5
325
  6
CONTINUOUS
 62
7
 10
-0.00976
 20
164.99938
 30
15.0
 11
-0.00976
 21
-0.00062
 31
15.0
  0
LINE
  8
1
  5
327
  6
CONTINUOUS
 62
7
 10
-187.13476
 20
148.49938
 30
15.0
 11
-210.00976
 21
148.49938
 31
15.0
  0
ARC
  8
1
  5
329
  6
CONTINUOUS
 62
7
 10
-187.13476
 20
144.37438
 30
15.0
 40
4.125
 50
270.0
 51
90.0
  0
LINE
  8
1
  5
32B
  6
CONTINUOUS
 62
7
 10
-198.00976
 20
140.24938
 30
15.0
 11
-187.13476
 21
140.24938
 31
15.0
  0
LINE
  8
1
  5
32D
  6
CONTINUOUS
 62
7
 10
-198.00976
 20
131.99938
 30
15.0
 11
-198.00976
 21
140.24938
 31
15.0
  0
LINE
  8
1
  5
32F
  6
CONTINUOUS
 62
7
 10
-187.13476
 20
131.99938
 30
15.0
 11
-198.00976
 21
131.99938
 31
15.0
  0
ARC
  8
1
  5
331
  6
CONTINUOUS
 62
7
 10
-187.13476
 20
127.87438
 30
15.0
 40
4.125
 50
270.0
 51
90.0
  0
LINE
  8
1
  5
333
  6
CONTINUOUS
 62
7
 10
-187.13476
 20
115.49938
 30
15.0
 11
-210.00976
 21
115.49938
 31
15.0
  0
ARC
  8
1
  5
335
  6
CONTINUOUS
 62
7
 10
-187.13476
 20
111.37438
 30
15.0
 40
4.125
 50
270.0
 51
90.0
  0
LINE
  8
1
  5
337
  6
CONTINUOUS
 62
7
 10
-187.13476
 20
98.99938
 30
15.0
 11
-210.00976
 21
98.99938
 31
15.0
  0
ARC
  8
1
  5
339
  6
CONTINUOUS
 62
7
 10
-187.13476
 20
94.87438
 30
15.0
 40
4.125
 50
270.0
 51
90.0
  0
LINE
  8
1
  5
33B
  6
CONTINUOUS
 62
7
 10
-187.13476
 20
82.49938
 30
15.0
 11
-210.00976
 21
82.49938
 31
15.0
  0
ARC
  8
1
  5
33D
  6
CONTINUOUS
 62
7
 10
-187.13476
 20
78.37438
 30
15.0
 40
4.125
 50
270.0
 51
90.0
  0
LINE
  8
1
  5
33F
  6
CONTINUOUS
 62
7
 10
-187.13476
 20
65.99938
 30
15.0
 11
-210.00976
 21
65.99938
 31
15.0
  0
ARC
  8
1
  5
341
  6
CONTINUOUS
 62
7
 10
-187.13476
 20
61.87438
 30
15.0
 40
4.125
 50
270.0
 51
90.0
  0
LINE
  8
1
  5
343
  6
CONTINUOUS
 62
7
 10
-187.13476
 20
49.49938
 30
15.0
 11
-210.00976
 21
49.49938
 31
15.0
  0
ARC
  8
1
  5
345
  6
CONTINUOUS
 62
7
 10
-187.13476
 20
45.37438
 30
15.0
 40
4.125
 50
270.0
 51
90.0
  0
ARC
  8
1
  5
347
  6
CONTINUOUS
 62
7
 210
0.0
 220
0.0
 230
-1.0
 10
235.88476
 20
37.12438
 30
-15.0
 40
4.125
 50
0.0
 51
90.0
  0
LINE
  8
1
  5
349
  6
CONTINUOUS
 62
7
 10
-240.00976
 20
20.62438
 30
15.0
 11
-240.00976
 21
37.12438
 31
15.0
  0
ARC
  8
1
  5
34B
  6
CONTINUOUS
 62
7
 210
0.0
 220
0.0
 230
-1.0
 10
235.88476
 20
20.62438
 30
-15.0
 40
4.125
 50
270.0
 51
360.0
  0
LINE
  8
1
  5
34D
  6
CONTINUOUS
 62
7
 10
-225.00976
 20
16.49938
 30
15.0
 11
-235.88476
 21
16.49938
 31
15.0
  0
LINE
  8
1
  5
34F
  6
CONTINUOUS
 62
7
 10
-0.00976
 20
-0.00062
 30
0.0
 11
-0.00976
 21
-0.00062
 31
15.0
  0
LINE
  8
1
  5
351
  6
CONTINUOUS
 62
7
 10
-0.00976
 20
164.99938
 30
0.0
 11
-0.00976
 21
-0.00062
 31
0.0
  0
LINE
  8
1
  5
353
  6
CONTINUOUS
 62
7
 10
-198.00976
 20
-0.00062
 30
0.0
 11
-198.00976
 21
-0.00062
 31
15.0
  0
LINE
  8
1
  5
355
  6
CONTINUOUS
 62
7
 10
-0.00976
 20
-0.00062
 30
0.0
 11
-198.00976
 21
-0.00062
 31
0.0
  0
LINE
  8
1
  5
357
  6
CONTINUOUS
 62
7
 10
-198.00976
 20
8.24938
 30
0.0
 11
-198.00976
 21
8.24938
 31
15.0
  0
LINE
  8
1
  5
359
  6
CONTINUOUS
 62
7
 10
-198.00976
 20
-0.00062
 30
0.0
 11
-198.00976
 21
8.24938
 31
0.0
  0
LINE
  8
1
  5
35B
  6
CONTINUOUS
 62
7
 10
-187.13476
 20
8.24938
 30
0.0
 11
-187.13476
 21
8.24938
 31
15.0
  0
LINE
  8
1
  5
35D
  6
CONTINUOUS
 62
7
 10
-198.00976
 20
8.24938
 30
0.0
 11
-187.13476
 21
8.24938
 31
0.0
  0
LINE
  8
1
  5
35F
  6
CONTINUOUS
 62
7
 10
-187.13476
 20
16.49938
 30
0.0
 11
-187.13476
 21
16.49938
 31
15.0
  0
ARC
  8
1
  5
361
  6
CONTINUOUS
 62
7
 10
-187.13476
 20
12.37438
 30
0.0
 40
4.125
 50
270.0
 51
90.0
  0
LINE
  8
1
  5
363
  6
CONTINUOUS
 62
7
 10
-235.88476
 20
16.49938
 30
0.0
 11
-235.88476
 21
16.49938
 31
15.0
  0
LINE
  8
1
  5
365
  6
CONTINUOUS
 62
7
 10
-187.13476
 20
16.49938
 30
0.0
 11
-235.88476
 21
16.49938
 31
0.0
  0
LINE
  8
1
  5
367
  6
CONTINUOUS
 62
7
 10
-240.00976
 20
20.62438
 30
0.0
 11
-240.00976
 21
20.62438
 31
15.0
  0
ARC
  8
1
  5
369
  6
CONTINUOUS
 62
7
 210
0.0
 220
0.0
 230
-1.0
 10
235.88476
 20
20.62438
 30
0.0
 40
4.125
 50
270.0
 51
360.0
  0
LINE
  8
1
  5
36B
  6
CONTINUOUS
 62
7
 10
-240.00976
 20
37.12438
 30
0.0
 11
-240.00976
 21
37.12438
 31
15.0
  0
LINE
  8
1
  5
36D
  6
CONTINUOUS
 62
7
 10
-240.00976
 20
20.62438
 30
0.0
 11
-240.00976
 21
37.12438
 31
0.0
  0
ARC
  8
1
  5
36F
  6
CONTINUOUS
 62
7
 210
0.0
 220
0.0
 230
-1.0
 10
235.88476
 20
37.12438
 30
0.0
 40
4.125
 50
0.0
 51
90.0
  0
LINE
  8
1
  5
371
  6
CONTINUOUS
 62
7
 10
-187.13476
 20
49.49938
 30
0.0
 11
-187.13476
 21
49.49938
 31
15.0
  0
ARC
  8
1
  5
373
  6
CONTINUOUS
 62
7
 10
-187.13476
 20
45.37438
 30
0.0
 40
4.125
 50
270.0
 51
90.0
  0
LINE
  8
1
  5
375
  6
CONTINUOUS
 62
7
 10
-235.88476
 20
49.49938
 30
0.0
 11
-235.88476
 21
49.49938
 31
15.0
  0
LINE
  8
1
  5
377
  6
CONTINUOUS
 62
7
 10
-187.13476
 20
49.49938
 30
0.0
 11
-235.88476
 21
49.49938
 31
0.0
  0
ARC
  8
1
  5
379
  6
CONTINUOUS
 62
7
 210
0.0
 220
0.0
 230
-1.0
 10
235.88476
 20
53.62438
 30
0.0
 40
4.125
 50
270.0
 51
90.0
  0
LINE
  8
1
  5
37B
  6
CONTINUOUS
 62
7
 10
-187.13476
 20
65.99938
 30
0.0
 11
-187.13476
 21
65.99938
 31
15.0
  0
ARC
  8
1
  5
37D
  6
CONTINUOUS
 62
7
 10
-187.13476
 20
61.87438
 30
0.0
 40
4.125
 50
270.0
 51
90.0
  0
LINE
  8
1
  5
37F
  6
CONTINUOUS
 62
7
 10
-235.88476
 20
65.99938
 30
0.0
 11
-235.88476
 21
65.99938
 31
15.0
  0
LINE
  8
1
  5
381
  6
CONTINUOUS
 62
7
 10
-187.13476
 20
65.99938
 30
0.0
 11
-235.88476
 21
65.99938
 31
0.0
  0
ARC
  8
1
  5
383
  6
CONTINUOUS
 62
7
 210
0.0
 220
0.0
 230
-1.0
 10
235.88476
 20
70.12438
 30
0.0
 40
4.125
 50
270.0
 51
90.0
  0
LINE
  8
1
  5
385
  6
CONTINUOUS
 62
7
 10
-187.13476
 20
82.49938
 30
0.0
 11
-187.13476
 21
82.49938
 31
15.0
  0
ARC
  8
1
  5
387
  6
CONTINUOUS
 62
7
 10
-187.13476
 20
78.37438
 30
0.0
 40
4.125
 50
270.0
 51
90.0
  0
LINE
  8
1
  5
389
  6
CONTINUOUS
 62
7
 10
-235.88476
 20
82.49938
 30
0.0
 11
-235.88476
 21
82.49938
 31
15.0
  0
LINE
  8
1
  5
38B
  6
CONTINUOUS
 62
7
 10
-187.13476
 20
82.49938
 30
0.0
 11
-235.88476
 21
82.49938
 31
0.0
  0
ARC
  8
1
  5
38D
  6
CONTINUOUS
 62
7
 210
0.0
 220
0.0
 230
-1.0
 10
235.88476
 20
86.62438
 30
0.0
 40
4.125
 50
270.0
 51
90.0
  0
LINE
  8
1
  5
38F
  6
CONTINUOUS
 62
7
 10
-187.13476
 20
98.99938
 30
0.0
 11
-187.13476
 21
98.99938
 31
15.0
  0
ARC
  8
1
  5
391
  6
CONTINUOUS
 62
7
 10
-187.13476
 20
94.87438
 30
0.0
 40
4.125
 50
270.0
 51
90.0
  0
LINE
  8
1
  5
393
  6
CONTINUOUS
 62
7
 10
-235.88476
 20
98.99938
 30
0.0
 11
-235.88476
 21
98.99938
 31
15.0
  0
LINE
  8
1
  5
395
  6
CONTINUOUS
 62
7
 10
-187.13476
 20
98.99938
 30
0.0
 11
-235.88476
 21
98.99938
 31
0.0
  0
ARC
  8
1
  5
397
  6
CONTINUOUS
 62
7
 210
0.0
 220
0.0
 230
-1.0
 10
235.88476
 20
103.12438
 30
0.0
 40
4.125
 50
270.0
 51
90.0
  0
LINE
  8
1
  5
399
  6
CONTINUOUS
 62
7
 10
-187.13476
 20
115.49938
 30
0.0
 11
-187.13476
 21
115.49938
 31
15.0
  0
ARC
  8
1
  5
39B
  6
CONTINUOUS
 62
7
 10
-187.13476
 20
111.37438
 30
0.0
 40
4.125
 50
270.0
 51
90.0
  0
LINE
  8
1
  5
39D
  6
CONTINUOUS
 62
7
 10
-235.88476
 20
115.49938
 30
0.0
 11
-235.88476
 21
115.49938
 31
15.0
  0
LINE
  8
1
  5
39F
  6
CONTINUOUS
 62
7
 10
-187.13476
 20
115.49938
 30
0.0
 11
-235.88476
 21
115.49938
 31
0.0
  0
ARC
  8
1
  5
3A1
  6
CONTINUOUS
 62
7
 210
0.0
 220
0.0
 230
-1.0
 10
235.88476
 20
119.62438
 30
0.0
 40
4.125
 50
270.0
 51
90.0
  0
LINE
  8
1
  5
3A3
  6
CONTINUOUS
 62
7
 10
-187.13476
 20
131.99938
 30
0.0
 11
-187.13476
 21
131.99938
 31
15.0
  0
ARC
  8
1
  5
3A5
  6
CONTINUOUS
 62
7
 10
-187.13476
 20
127.87438
 30
0.0
 40
4.125
 50
270.0
 51
90.0
  0
LINE
  8
1
  5
3A7
  6
CONTINUOUS
 62
7
 10
-198.00976
 20
131.99938
 30
0.0
 11
-198.00976
 21
131.99938
 31
15.0
  0
LINE
  8
1
  5
3A9
  6
CONTINUOUS
 62
7
 10
-187.13476
 20
131.99938
 30
0.0
 11
-198.00976
 21
131.99938
 31
0.0
  0
LINE
  8
1
  5
3AB
  6
CONTINUOUS
 62
7
 10
-198.00976
 20
140.24938
 30
0.0
 11
-198.00976
 21
140.24938
 31
15.0
  0
LINE
  8
1
  5
3AD
  6
CONTINUOUS
 62
7
 10
-198.00976
 20
131.99938
 30
0.0
 11
-198.00976
 21
140.24938
 31
0.0
  0
LINE
  8
1
  5
3AF
  6
CONTINUOUS
 62
7
 10
-187.13476
 20
140.24938
 30
0.0
 11
-187.13476
 21
140.24938
 31
15.0
  0
LINE
  8
1
  5
3B1
  6
CONTINUOUS
 62
7
 10
-198.00976
 20
140.24938
 30
0.0
 11
-187.13476
 21
140.24938
 31
0.0
  0
LINE
  8
1
  5
3B3
  6
CONTINUOUS
 62
7
 10
-187.13476
 20
148.49938
 30
0.0
 11
-187.13476
 21
148.49938
 31
15.0
  0
ARC
  8
1
  5
3B5
  6
CONTINUOUS
 62
7
 10
-187.13476
 20
144.37438
 30
0.0
 40
4.125
 50
270.0
 51
90.0
  0
LINE
  8
1
  5
3B7
  6
CONTINUOUS
 62
7
 10
-235.88476
 20
148.49938
 30
0.0
 11
-235.88476
 21
148.49938
 31
15.0
  0
LINE
  8
1
  5
3B9
  6
CONTINUOUS
 62
7
 10
-187.13476
 20
148.49938
 30
0.0
 11
-235.88476
 21
148.49938
 31
0.0
  0
LINE
  8
1
  5
3BB
  6
CONTINUOUS
 62
7
 10
-240.00976
 20
152.62438
 30
0.0
 11
-240.00976
 21
152.62438
 31
15.0
  0
ARC
  8
1
  5
3BD
  6
CONTINUOUS
 62
7
 210
0.0
 220
0.0
 230
-1.0
 10
235.88476
 20
152.62438
 30
0.0
 40
4.125
 50
270.0
 51
360.0
  0
LINE
  8
1
  5
3BF
  6
CONTINUOUS
 62
7
 10
-240.00976
 20
152.62438
 30
0.0
 11
-240.00976
 21
164.99938
 31
0.0
  0
ENDBLK
  8
1
  5
3C0
  0
BLOCK
  8
1
  5
3C2
 70
1
 10
0.0
 20
0.0
 30
0.0
  2
*M6
  3
*M6
  0
INSERT
  8
1
  5
3C4
  6
CONTINUOUS
 62
7
  2
*M4
 10
0.0
 20
0.0
 30
0.0
 41
1.0
 42
1.0
 43
1.0
 70
1
 71
1
  0
INSERT
  8
1
  5
3C6
  6
CONTINUOUS
 62
7
  2
*M5
 10
0.0
 20
0.0
 30
0.0
 41
1.0
 42
1.0
 43
1.0
 70
1
 71
1
  0
ENDBLK
  8
1
  5
3C7
  0
ENDSEC
  0
SECTION
  2
ENTITIES
  0
INSERT
  8
1
  5
2
  6
CONTINUOUS
 62
7
  2
*M0
 10
7.50976
 20
15.0
 30
0.0
 41
1.0
 42
1.0
 43
1.0
 70
1
 71
1
  0
INSERT
  8
1
  5
4
  6
CONTINUOUS
 62
7
  2
*M3
 10
0.0
 20
0.0
 30
0.0
 41
1.0
 42
1.0
 43
1.0
 70
1
 71
1
  0
INSERT
  8
1
  5
6
  6
CONTINUOUS
 62
7
  2
*M6
 10
530.01952
 20
-164.99876
 30
0.0
 41
1.0
 42
1.0
 43
1.0
 70
1
 71
1
  0
ENDSEC
  0
EOF
