  0
SECTION
  2
HEADER
  9
$ACADVER
  1
AC1009
  9
$INSBASE
 10
0.0
 20
0.0
 30
0.0
  9
$EXTMAX
 10
862.809
 20
30.0
 30
-34.0
  9
$EXTMIN
 10
433.452
 20
-20.0
 30
-66.0
  9
$LIMMAX
 10
12.0
 20
9.0
  9
$LIMMIN
 10
0.0
 20
0.0
  9
$ORTHOMODE
 70
0
  9
$REGENMODE
 70
1
  9
$FILLMODE
 70
1
  9
$QTEXTMODE
 70
0
  9
$MIRRTEXT
 70
1
  9
$DRAGMODE
 70
2
  9
$LTSCALE
 40
1.0
  9
$OSMODE
 70
0
  9
$ATTMODE
 70
1
  9
$TEXTSIZE
 40
0.2
  9
$TRACEWID
 40
0.05
  9
$TEXTSTYLE
  7
STANDARD
  9
$CLAYER
  8
0
  9
$CELTYPE
  6
CONTINUOUS
  9
$CECOLOR
 62
256
  9
$DIMSCALE
 40
1.0
  9
$DIMASZ
 40
0.18
  9
$DIMEXO
 40
0.0625
  9
$DIMDLI
 40
0.38
  9
$DIMRND
 40
0.0
  9
$DIMDLE
 40
0.0
  9
$DIMEXE
 40
0.18
  9
$DIMTP
 40
0.0
  9
$DIMTM
 40
0.0
  9
$DIMTXT
 40
0.18
  9
$DIMCEN
 40
0.09
  9
$DIMTSZ
 40
0.0
  9
$DIMTOL
 70
0
  9
$DIMLIM
 70
0
  9
$DIMTIH
 70
1
  9
$DIMTOH
 70
1
  9
$DIMSE1
 70
0
  9
$DIMSE2
 70
0
  9
$DIMTAD
 70
0
  9
$DIMZIN
 70
0
  9
$DIMBLK
  1

  9
$DIMASO
 70
1
  9
$DIMSHO
 70
1
  9
$DIMPOST
  1

  9
$DIMAPOST
  1

  9
$DIMALT
 70
0
  9
$DIMALTD
 70
2
  9
$DIMALTF
 40
25.4
  9
$DIMLFAC
 40
1.0
  9
$DIMTOFL
 70
0
  9
$DIMTVP
 40
0.0
  9
$DIMTIX
 70
0
  9
$DIMSOXD
 70
0
  9
$DIMSAH
 70
0
  9
$DIMBLK1
  1

  9
$DIMBLK2
  1

  9
$DIMSTYLE
  2
*UNNAMED
  9
$DIMCLRD
 70
0
  9
$DIMCLRE
 70
0
  9
$DIMCLRT
 70
0
  9
$DIMTFAC
 40
1.0
  9
$DIMGAP
 40
0.09
  9
$LUNITS
 70
2
  9
$LUPREC
 70
4
  9
$AXISMODE
 70
0
  9
$AXISUNIT
 10
0.0
 20
0.0
  9
$SKETCHINC
 40
0.1
  9
$FILLETRAD
 40
0.0
  9
$AUNITS
 70
0
  9
$AUPREC
 70
0
  9
$MENU
  1
acad
  9
$ELEVATION
 40
0.0
  9
$PELEVATION
 40
0.0
  9
$THICKNESS
 40
0.0
  9
$LIMCHECK
 70
0
  9
$BLIPMODE
 70
1
  9
$CHAMFERA
 40
0.0
  9
$CHAMFERB
 40
0.0
  9
$SKPOLY
 70
0
  9
$TDCREATE
 40
0.0
  9
$TDUPDATE
 40
0.0
  9
$TDINDWG
 40
0.0
  9
$TDUSRTIMER
 40
0.0
  9
$USRTIMER
 70
1
  9
$ANGBASE
 50
0.0
  9
$ANGDIR
 70
0
  9
$PDMODE
 70
0
  9
$PDSIZE
 40
0.0
  9
$PLINEWID
 40
0.0
  9
$COORDS
 70
0
  9
$SPLFRAME
 70
0
  9
$SPLINETYPE
 70
6
  9
$SPLINESEGS
 70
10
  9
$ATTDIA
 70
0
  9
$ATTREQ
 70
1
  9
$HANDLING
 70
1
  9
$HANDSEED
  5
239
  9
$SURFTAB1
 70
6
  9
$SURFTAB2
 70
6
  9
$SURFTYPE
 70
6
  9
$SURFU
 70
10
  9
$SURFV
 70
10
  9
$UCSNAME
  2

  9
$UCSORG
 10
0.0
 20
0.0
 30
0.0
  9
$UCSXDIR
 10
1.0
 20
0.0
 30
0.0
  9
$UCSYDIR
 10
0.0
 20
1.0
 30
0.0
  9
$PUCSNAME
  2
 
  9
$PUCSORG
 10
0.0
 20
0.0
 30
0.0
  9
$PUCSXDIR
 10
1.0
 20
0.0
 30
0.0
  9
$PUCSYDIR
 10
0.0
 20
1.0
 30
0.0
  9
$USERI1
 70
0
  9
$USERI2
 70
0
  9
$USERI3
 70
0
  9
$USERI4
 70
0
  9
$USERI5
 70
0
  9
$USERR1
 40
0.0
  9
$USERR2
 40
0.0
  9
$USERR3
 40
0.0
  9
$USERR4
 40
0.0
  9
$USERR5
 40
0.0
  9
$WORLDVIEW
 70
1
  9
$SHADEDGE
 70
3
  9
$SHADEDIF
 70
70
  9
$TILEMODE
 70
1
  9
$MAXACTVP
 70
16
  9
$PINSBASE
 10
0.0
 20
0.0
 30
0.0
  9
$PLIMCHECK
 70
0
  9
$PEXTMIN
 10
-1.000000E+020
 20
-1.000000E+020
 30
-1.000000E+020
  9
$PEXTMAX
 10
-1.000000E+020
 20
-1.000000E+020
 30
-1.000000E+020
  9
$PLIMMIN
 10
0.0
 20
0.0
  9
$PLIMMAX
 10
12.0
 20
9.0
  9
$UNITMODE
 70
0
  9
$VISRETAIN
 70
0
  0
ENDSEC
  0
SECTION
  2
TABLES
  0
TABLE
  2
LTYPE
 70
7
  0
LTYPE
  2
CONTINUOUS
 70
64
  3
Solid line
 72
65
 73
0
 40
0.0
  0
LTYPE
  2
DOT
 70
64
  3
. . . . . . . . . . . . . . . . . . . . . . . . . . . . . . . . .
 72
65
 73
2
 40
0.25
 49
0.0
 49
-0.25
  0
LTYPE
  2
HIDDEN
 70
64
  3
__ __ __ __ __ __ __ __ __ __ __ __ __ __ __ __ __ __ __ __ __ 
 72
65
 73
2
 40
0.375
 49
0.25
 49
-0.125
  0
LTYPE
  2
DASHED
 70
64
  3
__ __ __ __ __ __ __ __ __ __ __ __ __ __ __ __ __ __ __ __ __
 72
65
 73
2
 40
0.75
 49
0.5
 49
-0.25
  0
LTYPE
  2
DASHDOT
 70
64
  3
__ . __ . __ . __ . __ . __ . __ . __ . __ . __ . __ . __ . _
 72
65
 73
4
 40
1.0
 49
0.5
 49
-0.25
 49
0.0
 49
-0.25
  0
LTYPE
  2
DIVIDE
 70
64
  3
____ . . ____ . . ____ . . ____ . . ____ . . ____ . . ____ . .
 72
65
 73
6
 40
1.25
 49
0.5
 49
-0.25
 49
0.0
 49
-0.25
 49
0.0
 49
-0.25
  0
LTYPE
  2
CENTER
 70
64
  3
____ _ ____ _ ____ _ ____ _ ____ _ ____ _ ____ _ ____ _ ____ _
 72
65
 73
4
 40
2.0
 49
1.25
 49
-0.25
 49
0.25
 49
-0.25
  0
ENDTAB
  0
TABLE
  2
APPID
 70
1
  0
APPID
  2
ACAD
 70
0
  0
ENDTAB
  0
TABLE
  2
DIMSTYLE
 70
0
  0
ENDTAB
  0
TABLE
  2
LAYER
 70
4
  0
LAYER
  2
0
 70
0
 62
7
  6
CONTINUOUS
  0
LAYER
  2
CONSTRUCTION_CLASS
 70
0
 62
7
  6
CONTINUOUS
  0
LAYER
  2
PATTERN_CLASS
 70
0
 62
7
  6
CONTINUOUS
  0
LAYER
  2
1
 70
0
 62
7
  6
CONTINUOUS
  0
ENDTAB
  0
TABLE
  2
STYLE
 70
1
  0
STYLE
  2
STANDARD
 70
0
 40
0.2
 41
1.0
 50
0.0
 71
0
 42
0.0
  3
txt
  4

  0
ENDTAB
  0
TABLE
  2
UCS
 70
0
  0
ENDTAB
  0
TABLE
  2
VIEW
 70
1
  0
VIEW
  2
AN_4
 70
0
 40
184.086
 41
266.947
 10
2.842171E-014
 20
-5.684342E-014
 11
1380.792862
 21
1027.638203
 31
652.788368
 12
84.288958
 22
-71.590642
 32
-0.00032
 42
50.0
 43
920.4295
 44
-920.4295
 50
0.0
 71
0
  0
ENDTAB
  0
TABLE
  2
VPORT
 70
1
  0
VPORT
  2
*ACTIVE
 70
0
 10
0.0
 20
0.0
 11
1.0
 21
1.0
 12
0.0
 22
0.0
 13
0.0
 23
0.0
 14
0.0
 24
0.0
 15
0.0
 25
0.0
 16
-176.401292
 26
-176.401292
 36
176.401292
 17
643.291619
 27
9.839603
 37
-49.99984
 40
240.306
 41
1.388826
 42
50.0
 43
152.768
 44
-152.768
 50
0.0
 51
0.0
 71
22
 72
100
 73
1
 74
0
 75
0
 76
0
 77
0
 78
0
  0
ENDTAB
  0
ENDSEC
  0
SECTION
  2
BLOCKS
  0
BLOCK
  8
1
  5
4
 70
1
 10
0.0
 20
0.0
 30
0.0
  2
*M0
  3
*M0
  0
LINE
  8
1
  5
6
  6
CONTINUOUS
 62
7
 10
24.679
 20
-8.2
 30
-16.0
 11
24.679
 21
-8.2
 31
16.0
  0
LINE
  8
1
  5
8
  6
CONTINUOUS
 62
7
 10
24.679
 20
8.2
 30
-16.0
 11
24.679
 21
8.2
 31
16.0
  0
ARC
  8
1
  5
A
  6
CONTINUOUS
 62
7
 10
64.513604
 20
15.844498
 30
0.0
 40
4.1
 50
32.0506972222
 51
149.5245583333
  0
LINE
  8
1
  5
C
  6
CONTINUOUS
 62
7
 10
60.98
 20
17.924
 30
16.0
 11
60.98
 21
17.924
 31
0.0
  0
POLYLINE
  8
1
  5
E
  6
CONTINUOUS
 62
7
 10
0.0
 20
0.0
 30
0.0
 66
1
 70
0
  0
VERTEX
  8
1
  5
F
  6
CONTINUOUS
 62
7
 10
72.274464
 20
7.181521
 30
0.0
 42
0.043504
  0
VERTEX
  8
1
  5
10
  6
CONTINUOUS
 62
7
 10
70.587676
 20
12.860587
 30
0.0
  0
VERTEX
  8
1
  5
11
  6
CONTINUOUS
 62
7
 10
70.587676
 20
12.860587
 30
0.0
 42
0.045742
  0
VERTEX
  8
1
  5
12
  6
CONTINUOUS
 62
7
 10
67.988677
 20
18.020243
 30
0.0
  0
SEQEND
  8
1
  5
13
  0
ARC
  8
1
  5
15
  6
CONTINUOUS
 62
7
 10
68.258355
 20
6.356373
 30
0.0
 40
4.1
 50
322.3244222222
 51
11.6103944444
  0
ARC
  8
1
  5
17
  6
CONTINUOUS
 62
7
 210
0.0
 220
0.0
 230
-1.0
 10
-76.48979
 20
0.0
 30
0.0
 40
6.3
 50
322.3244222222
 51
37.6755777778
  0
ARC
  8
1
  5
19
  6
CONTINUOUS
 62
7
 10
68.258355
 20
-6.356373
 30
0.0
 40
4.1
 50
348.3896472222
 51
37.6755777778
  0
POLYLINE
  8
1
  5
1B
  6
CONTINUOUS
 62
7
 10
0.0
 20
0.0
 30
0.0
 66
1
 70
0
  0
VERTEX
  8
1
  5
1C
  6
CONTINUOUS
 62
7
 10
67.988676
 20
-18.020245
 30
0.0
 42
0.045742
  0
VERTEX
  8
1
  5
1D
  6
CONTINUOUS
 62
7
 10
70.587676
 20
-12.860587
 30
0.0
  0
VERTEX
  8
1
  5
1E
  6
CONTINUOUS
 62
7
 10
70.587676
 20
-12.860587
 30
0.0
 42
0.043504
  0
VERTEX
  8
1
  5
1F
  6
CONTINUOUS
 62
7
 10
72.274465
 20
-7.181518
 30
0.0
  0
SEQEND
  8
1
  5
20
  0
ARC
  8
1
  5
22
  6
CONTINUOUS
 62
7
 10
64.513604
 20
-15.844498
 30
0.0
 40
4.1
 50
210.4753638889
 51
327.9492638889
  0
LINE
  8
1
  5
24
  6
CONTINUOUS
 62
7
 10
60.98
 20
-17.924
 30
16.0
 11
60.98
 21
-17.924
 31
0.0
  0
LINE
  8
1
  5
26
  6
CONTINUOUS
 62
7
 10
214.679
 20
25.0
 30
16.0
 11
48.001
 21
25.0
 31
16.0
  0
POLYLINE
  8
1
  5
28
  6
CONTINUOUS
 62
7
 10
0.0
 20
0.0
 30
16.0
 66
1
 70
0
  0
VERTEX
  8
1
  5
29
  6
CONTINUOUS
 62
7
 10
48.001342
 20
25.0
 30
16.0
 42
-0.074209
  0
VERTEX
  8
1
  5
2A
  6
CONTINUOUS
 62
7
 10
47.644826
 20
22.541097
 30
16.0
  0
VERTEX
  8
1
  5
2B
  6
CONTINUOUS
 62
7
 10
47.644826
 20
22.541097
 30
16.0
 42
-0.067603
  0
VERTEX
  8
1
  5
2C
  6
CONTINUOUS
 62
7
 10
46.559348
 20
20.17234
 30
16.0
  0
VERTEX
  8
1
  5
2D
  6
CONTINUOUS
 62
7
 10
46.559348
 20
20.17234
 30
16.0
 42
-0.058009
  0
VERTEX
  8
1
  5
2E
  6
CONTINUOUS
 62
7
 10
44.78668
 20
17.984891
 30
16.0
  0
VERTEX
  8
1
  5
2F
  6
CONTINUOUS
 62
7
 10
44.78668
 20
17.984891
 30
16.0
 42
-0.048895
  0
VERTEX
  8
1
  5
30
  6
CONTINUOUS
 62
7
 10
42.395044
 20
16.062931
 30
16.0
  0
VERTEX
  8
1
  5
31
  6
CONTINUOUS
 62
7
 10
42.395044
 20
16.062931
 30
16.0
 42
-0.041767
  0
VERTEX
  8
1
  5
32
  6
CONTINUOUS
 62
7
 10
39.476479
 20
14.480428
 30
16.0
  0
VERTEX
  8
1
  5
33
  6
CONTINUOUS
 62
7
 10
39.476479
 20
14.480428
 30
16.0
 42
-0.036801
  0
VERTEX
  8
1
  5
34
  6
CONTINUOUS
 62
7
 10
36.143303
 20
13.298281
 30
16.0
  0
VERTEX
  8
1
  5
35
  6
CONTINUOUS
 62
7
 10
36.143304
 20
13.298281
 30
16.0
 42
-0.03373
  0
VERTEX
  8
1
  5
36
  6
CONTINUOUS
 62
7
 10
32.523796
 20
12.561985
 30
16.0
  0
VERTEX
  8
1
  5
37
  6
CONTINUOUS
 62
7
 10
32.523796
 20
12.561985
 30
16.0
 42
-0.032276
  0
VERTEX
  8
1
  5
38
  6
CONTINUOUS
 62
7
 10
28.757248
 20
12.299877
 30
16.0
  0
SEQEND
  8
1
  5
39
  0
ARC
  8
1
  5
3B
  6
CONTINUOUS
 62
7
 10
28.778982
 20
8.2
 30
16.0
 40
4.1
 50
90.3037333333
 51
269.9493888889
  0
POLYLINE
  8
1
  5
3D
  6
CONTINUOUS
 62
7
 10
0.0
 20
0.0
 30
16.0
 66
1
 70
0
  0
VERTEX
  8
1
  5
3E
  6
CONTINUOUS
 62
7
 10
28.775359
 20
4.100003
 30
16.0
 42
0.031536
  0
VERTEX
  8
1
  5
3F
  6
CONTINUOUS
 62
7
 10
35.715985
 20
4.529182
 30
16.0
  0
VERTEX
  8
1
  5
40
  6
CONTINUOUS
 62
7
 10
35.715986
 20
4.529182
 30
16.0
 42
0.03323
  0
VERTEX
  8
1
  5
41
  6
CONTINUOUS
 62
7
 10
42.36874
 20
5.811122
 30
16.0
  0
VERTEX
  8
1
  5
42
  6
CONTINUOUS
 62
7
 10
42.368739
 20
5.811122
 30
16.0
 42
0.036861
  0
VERTEX
  8
1
  5
43
  6
CONTINUOUS
 62
7
 10
48.456867
 20
7.892492
 30
16.0
  0
VERTEX
  8
1
  5
44
  6
CONTINUOUS
 62
7
 10
48.456867
 20
7.892492
 30
16.0
 42
0.042899
  0
VERTEX
  8
1
  5
45
  6
CONTINUOUS
 62
7
 10
53.727097
 20
10.686708
 30
16.0
  0
VERTEX
  8
1
  5
46
  6
CONTINUOUS
 62
7
 10
53.727097
 20
10.686708
 30
16.0
 42
0.051885
  0
VERTEX
  8
1
  5
47
  6
CONTINUOUS
 62
7
 10
57.960184
 20
14.077527
 30
16.0
  0
VERTEX
  8
1
  5
48
  6
CONTINUOUS
 62
7
 10
57.960184
 20
14.077527
 30
16.0
 42
0.063733
  0
VERTEX
  8
1
  5
49
  6
CONTINUOUS
 62
7
 10
60.980033
 20
17.923891
 30
16.0
  0
SEQEND
  8
1
  5
4A
  0
POLYLINE
  8
1
  5
4C
  6
CONTINUOUS
 62
7
 10
0.0
 20
0.0
 30
16.0
 66
1
 70
0
  0
VERTEX
  8
1
  5
4D
  6
CONTINUOUS
 62
7
 10
60.98003
 20
-17.923886
 30
16.0
 42
0.063733
  0
VERTEX
  8
1
  5
4E
  6
CONTINUOUS
 62
7
 10
57.96018
 20
-14.077522
 30
16.0
  0
VERTEX
  8
1
  5
4F
  6
CONTINUOUS
 62
7
 10
57.960181
 20
-14.077523
 30
16.0
 42
0.051885
  0
VERTEX
  8
1
  5
50
  6
CONTINUOUS
 62
7
 10
53.727092
 20
-10.686705
 30
16.0
  0
VERTEX
  8
1
  5
51
  6
CONTINUOUS
 62
7
 10
53.727091
 20
-10.686705
 30
16.0
 42
0.042899
  0
VERTEX
  8
1
  5
52
  6
CONTINUOUS
 62
7
 10
48.456862
 20
-7.892491
 30
16.0
  0
VERTEX
  8
1
  5
53
  6
CONTINUOUS
 62
7
 10
48.456863
 20
-7.892491
 30
16.0
 42
0.036861
  0
VERTEX
  8
1
  5
54
  6
CONTINUOUS
 62
7
 10
42.368736
 20
-5.811121
 30
16.0
  0
VERTEX
  8
1
  5
55
  6
CONTINUOUS
 62
7
 10
42.368738
 20
-5.811121
 30
16.0
 42
0.03323
  0
VERTEX
  8
1
  5
56
  6
CONTINUOUS
 62
7
 10
35.715985
 20
-4.529182
 30
16.0
  0
VERTEX
  8
1
  5
57
  6
CONTINUOUS
 62
7
 10
35.715983
 20
-4.529182
 30
16.0
 42
0.031536
  0
VERTEX
  8
1
  5
58
  6
CONTINUOUS
 62
7
 10
28.775357
 20
-4.100003
 30
16.0
  0
SEQEND
  8
1
  5
59
  0
ARC
  8
1
  5
5B
  6
CONTINUOUS
 62
7
 10
28.778982
 20
-8.2
 30
16.0
 40
4.1
 50
90.0506333333
 51
269.696275
  0
POLYLINE
  8
1
  5
5D
  6
CONTINUOUS
 62
7
 10
0.0
 20
0.0
 30
16.0
 66
1
 70
0
  0
VERTEX
  8
1
  5
5E
  6
CONTINUOUS
 62
7
 10
28.757248
 20
-12.299877
 30
16.0
 42
-0.032276
  0
VERTEX
  8
1
  5
5F
  6
CONTINUOUS
 62
7
 10
32.523796
 20
-12.561985
 30
16.0
  0
VERTEX
  8
1
  5
60
  6
CONTINUOUS
 62
7
 10
32.523796
 20
-12.561985
 30
16.0
 42
-0.03373
  0
VERTEX
  8
1
  5
61
  6
CONTINUOUS
 62
7
 10
36.143304
 20
-13.298281
 30
16.0
  0
VERTEX
  8
1
  5
62
  6
CONTINUOUS
 62
7
 10
36.143304
 20
-13.298281
 30
16.0
 42
-0.036801
  0
VERTEX
  8
1
  5
63
  6
CONTINUOUS
 62
7
 10
39.47648
 20
-14.480428
 30
16.0
  0
VERTEX
  8
1
  5
64
  6
CONTINUOUS
 62
7
 10
39.476479
 20
-14.480428
 30
16.0
 42
-0.041767
  0
VERTEX
  8
1
  5
65
  6
CONTINUOUS
 62
7
 10
42.395044
 20
-16.062931
 30
16.0
  0
VERTEX
  8
1
  5
66
  6
CONTINUOUS
 62
7
 10
42.395044
 20
-16.062931
 30
16.0
 42
-0.048895
  0
VERTEX
  8
1
  5
67
  6
CONTINUOUS
 62
7
 10
44.78668
 20
-17.984891
 30
16.0
  0
VERTEX
  8
1
  5
68
  6
CONTINUOUS
 62
7
 10
44.78668
 20
-17.984891
 30
16.0
 42
-0.058009
  0
VERTEX
  8
1
  5
69
  6
CONTINUOUS
 62
7
 10
46.559348
 20
-20.17234
 30
16.0
  0
VERTEX
  8
1
  5
6A
  6
CONTINUOUS
 62
7
 10
46.559348
 20
-20.17234
 30
16.0
 42
-0.067603
  0
VERTEX
  8
1
  5
6B
  6
CONTINUOUS
 62
7
 10
47.644826
 20
-22.541097
 30
16.0
  0
VERTEX
  8
1
  5
6C
  6
CONTINUOUS
 62
7
 10
47.644826
 20
-22.541097
 30
16.0
 42
-0.074209
  0
VERTEX
  8
1
  5
6D
  6
CONTINUOUS
 62
7
 10
48.001342
 20
-25.0
 30
16.0
  0
SEQEND
  8
1
  5
6E
  0
LINE
  8
1
  5
70
  6
CONTINUOUS
 62
7
 10
48.001
 20
-25.0
 30
16.0
 11
214.679
 21
-25.0
 31
16.0
  0
LINE
  8
1
  5
72
  6
CONTINUOUS
 62
7
 10
214.679
 20
-25.0
 30
16.0
 11
214.679
 21
25.0
 31
16.0
  0
LINE
  8
1
  5
74
  6
CONTINUOUS
 62
7
 10
214.679
 20
25.0
 30
-16.0
 11
214.679
 21
25.0
 31
16.0
  0
LINE
  8
1
  5
76
  6
CONTINUOUS
 62
7
 10
214.679
 20
25.0
 30
-16.0
 11
48.001
 21
25.0
 31
-16.0
  0
LINE
  8
1
  5
78
  6
CONTINUOUS
 62
7
 10
48.001
 20
25.0
 30
-16.0
 11
48.001
 21
25.0
 31
16.0
  0
LINE
  8
1
  5
7A
  6
CONTINUOUS
 62
7
 10
214.679
 20
-25.0
 30
-16.0
 11
214.679
 21
-25.0
 31
16.0
  0
LINE
  8
1
  5
7C
  6
CONTINUOUS
 62
7
 10
214.679
 20
-25.0
 30
-16.0
 11
214.679
 21
25.0
 31
-16.0
  0
LINE
  8
1
  5
7E
  6
CONTINUOUS
 62
7
 10
48.001
 20
-25.0
 30
-16.0
 11
48.001
 21
-25.0
 31
16.0
  0
LINE
  8
1
  5
80
  6
CONTINUOUS
 62
7
 10
48.001
 20
-25.0
 30
-16.0
 11
214.679
 21
-25.0
 31
-16.0
  0
POLYLINE
  8
1
  5
82
  6
CONTINUOUS
 62
7
 10
0.0
 20
0.0
 30
-16.0
 66
1
 70
0
  0
VERTEX
  8
1
  5
83
  6
CONTINUOUS
 62
7
 10
28.757248
 20
-12.299877
 30
-16.0
 42
-0.032276
  0
VERTEX
  8
1
  5
84
  6
CONTINUOUS
 62
7
 10
32.523796
 20
-12.561985
 30
-16.0
  0
VERTEX
  8
1
  5
85
  6
CONTINUOUS
 62
7
 10
32.523796
 20
-12.561985
 30
-16.0
 42
-0.03373
  0
VERTEX
  8
1
  5
86
  6
CONTINUOUS
 62
7
 10
36.143304
 20
-13.298281
 30
-16.0
  0
VERTEX
  8
1
  5
87
  6
CONTINUOUS
 62
7
 10
36.143304
 20
-13.298281
 30
-16.0
 42
-0.036801
  0
VERTEX
  8
1
  5
88
  6
CONTINUOUS
 62
7
 10
39.47648
 20
-14.480428
 30
-16.0
  0
VERTEX
  8
1
  5
89
  6
CONTINUOUS
 62
7
 10
39.476479
 20
-14.480428
 30
-16.0
 42
-0.041767
  0
VERTEX
  8
1
  5
8A
  6
CONTINUOUS
 62
7
 10
42.395044
 20
-16.062931
 30
-16.0
  0
VERTEX
  8
1
  5
8B
  6
CONTINUOUS
 62
7
 10
42.395044
 20
-16.062931
 30
-16.0
 42
-0.048895
  0
VERTEX
  8
1
  5
8C
  6
CONTINUOUS
 62
7
 10
44.78668
 20
-17.984891
 30
-16.0
  0
VERTEX
  8
1
  5
8D
  6
CONTINUOUS
 62
7
 10
44.78668
 20
-17.984891
 30
-16.0
 42
-0.058009
  0
VERTEX
  8
1
  5
8E
  6
CONTINUOUS
 62
7
 10
46.559348
 20
-20.17234
 30
-16.0
  0
VERTEX
  8
1
  5
8F
  6
CONTINUOUS
 62
7
 10
46.559348
 20
-20.17234
 30
-16.0
 42
-0.067603
  0
VERTEX
  8
1
  5
90
  6
CONTINUOUS
 62
7
 10
47.644826
 20
-22.541097
 30
-16.0
  0
VERTEX
  8
1
  5
91
  6
CONTINUOUS
 62
7
 10
47.644826
 20
-22.541097
 30
-16.0
 42
-0.074209
  0
VERTEX
  8
1
  5
92
  6
CONTINUOUS
 62
7
 10
48.001342
 20
-25.0
 30
-16.0
  0
SEQEND
  8
1
  5
93
  0
ARC
  8
1
  5
95
  6
CONTINUOUS
 62
7
 10
28.778982
 20
-8.2
 30
-16.0
 40
4.1
 50
90.0506333333
 51
269.696275
  0
LINE
  8
1
  5
97
  6
CONTINUOUS
 62
7
 10
42.819
 20
-5.932
 30
-16.0
 11
42.819
 21
-5.932
 31
0.0
  0
POLYLINE
  8
1
  5
99
  6
CONTINUOUS
 62
7
 10
0.0
 20
0.0
 30
-16.0
 66
1
 70
0
  0
VERTEX
  8
1
  5
9A
  6
CONTINUOUS
 62
7
 10
42.819096
 20
-5.932366
 30
-16.0
 42
0.034552
  0
VERTEX
  8
1
  5
9B
  6
CONTINUOUS
 62
7
 10
35.956806
 20
-4.56005
 30
-16.0
  0
VERTEX
  8
1
  5
9C
  6
CONTINUOUS
 62
7
 10
35.956805
 20
-4.56005
 30
-16.0
 42
0.032668
  0
VERTEX
  8
1
  5
9D
  6
CONTINUOUS
 62
7
 10
28.775359
 20
-4.100003
 30
-16.0
  0
SEQEND
  8
1
  5
9E
  0
POLYLINE
  8
1
  5
A0
  6
CONTINUOUS
 62
7
 10
0.0
 20
0.0
 30
0.0
 66
1
 70
0
  0
VERTEX
  8
1
  5
A1
  6
CONTINUOUS
 62
7
 10
42.819096
 20
-5.932366
 30
0.0
 42
-0.036499
  0
VERTEX
  8
1
  5
A2
  6
CONTINUOUS
 62
7
 10
48.757781
 20
-8.023149
 30
0.0
  0
VERTEX
  8
1
  5
A3
  6
CONTINUOUS
 62
7
 10
48.757779
 20
-8.023148
 30
0.0
 42
-0.042463
  0
VERTEX
  8
1
  5
A4
  6
CONTINUOUS
 62
7
 10
53.894936
 20
-10.796733
 30
0.0
  0
VERTEX
  8
1
  5
A5
  6
CONTINUOUS
 62
7
 10
53.894935
 20
-10.796733
 30
0.0
 42
-0.05124
  0
VERTEX
  8
1
  5
A6
  6
CONTINUOUS
 62
7
 10
58.024287
 20
-14.14175
 30
0.0
  0
VERTEX
  8
1
  5
A7
  6
CONTINUOUS
 62
7
 10
58.024287
 20
-14.14175
 30
0.0
 42
-0.062718
  0
VERTEX
  8
1
  5
A8
  6
CONTINUOUS
 62
7
 10
60.98003
 20
-17.923886
 30
0.0
  0
SEQEND
  8
1
  5
A9
  0
ARC
  8
1
  5
AB
  6
CONTINUOUS
 62
7
 10
43.904369
 20
-1.978611
 30
0.0
 40
4.1
 50
254.6508083333
 51
356.4404944444
  0
LINE
  8
1
  5
AD
  6
CONTINUOUS
 62
7
 10
47.996
 20
-2.233
 30
-16.0
 11
47.996
 21
-2.233
 31
0.0
  0
ARC
  8
1
  5
AF
  6
CONTINUOUS
 62
7
 210
0.0
 220
0.0
 230
-1.0
 10
-43.904369
 20
-1.978611
 30
16.0
 40
4.1
 50
183.5595055556
 51
285.3491916667
  0
POLYLINE
  8
1
  5
B1
  6
CONTINUOUS
 62
7
 10
0.0
 20
0.0
 30
0.0
 66
1
 70
0
  0
VERTEX
  8
1
  5
B2
  6
CONTINUOUS
 62
7
 10
47.99646
 20
-2.233159
 30
0.0
 42
0.015532
  0
VERTEX
  8
1
  5
B3
  6
CONTINUOUS
 62
7
 10
48.06582
 20
-0.0
 30
0.0
  0
VERTEX
  8
1
  5
B4
  6
CONTINUOUS
 62
7
 10
48.06582
 20
-0.0
 30
0.0
 42
0.015532
  0
VERTEX
  8
1
  5
B5
  6
CONTINUOUS
 62
7
 10
47.99646
 20
2.233158
 30
0.0
  0
SEQEND
  8
1
  5
B6
  0
LINE
  8
1
  5
B8
  6
CONTINUOUS
 62
7
 10
47.996
 20
2.233
 30
-16.0
 11
47.996
 21
2.233
 31
0.0
  0
POLYLINE
  8
1
  5
BA
  6
CONTINUOUS
 62
7
 10
0.0
 20
0.0
 30
-16.0
 66
1
 70
0
  0
VERTEX
  8
1
  5
BB
  6
CONTINUOUS
 62
7
 10
47.99646
 20
2.233158
 30
-16.0
 42
-0.015532
  0
VERTEX
  8
1
  5
BC
  6
CONTINUOUS
 62
7
 10
48.06582
 20
-0.0
 30
-16.0
  0
VERTEX
  8
1
  5
BD
  6
CONTINUOUS
 62
7
 10
48.06582
 20
-0.0
 30
-16.0
 42
-0.015532
  0
VERTEX
  8
1
  5
BE
  6
CONTINUOUS
 62
7
 10
47.99646
 20
-2.233159
 30
-16.0
  0
SEQEND
  8
1
  5
BF
  0
ARC
  8
1
  5
C1
  6
CONTINUOUS
 62
7
 10
43.904369
 20
1.978611
 30
0.0
 40
4.1
 50
3.5594638889
 51
105.3492333333
  0
LINE
  8
1
  5
C3
  6
CONTINUOUS
 62
7
 10
42.819
 20
5.932
 30
-16.0
 11
42.819
 21
5.932
 31
0.0
  0
ARC
  8
1
  5
C5
  6
CONTINUOUS
 62
7
 210
0.0
 220
0.0
 230
-1.0
 10
-43.904369
 20
1.978611
 30
16.0
 40
4.1
 50
74.6507666667
 51
176.4405361111
  0
POLYLINE
  8
1
  5
C7
  6
CONTINUOUS
 62
7
 10
0.0
 20
0.0
 30
-16.0
 66
1
 70
0
  0
VERTEX
  8
1
  5
C8
  6
CONTINUOUS
 62
7
 10
28.775359
 20
4.100003
 30
-16.0
 42
0.032668
  0
VERTEX
  8
1
  5
C9
  6
CONTINUOUS
 62
7
 10
35.956803
 20
4.56005
 30
-16.0
  0
VERTEX
  8
1
  5
CA
  6
CONTINUOUS
 62
7
 10
35.956804
 20
4.56005
 30
-16.0
 42
0.034552
  0
VERTEX
  8
1
  5
CB
  6
CONTINUOUS
 62
7
 10
42.819092
 20
5.932365
 30
-16.0
  0
SEQEND
  8
1
  5
CC
  0
POLYLINE
  8
1
  5
CE
  6
CONTINUOUS
 62
7
 10
0.0
 20
0.0
 30
0.0
 66
1
 70
0
  0
VERTEX
  8
1
  5
CF
  6
CONTINUOUS
 62
7
 10
60.980033
 20
17.923891
 30
0.0
 42
-0.062718
  0
VERTEX
  8
1
  5
D0
  6
CONTINUOUS
 62
7
 10
58.02429
 20
14.141753
 30
0.0
  0
VERTEX
  8
1
  5
D1
  6
CONTINUOUS
 62
7
 10
58.02429
 20
14.141753
 30
0.0
 42
-0.05124
  0
VERTEX
  8
1
  5
D2
  6
CONTINUOUS
 62
7
 10
53.894936
 20
10.796734
 30
0.0
  0
VERTEX
  8
1
  5
D3
  6
CONTINUOUS
 62
7
 10
53.894936
 20
10.796734
 30
0.0
 42
-0.042463
  0
VERTEX
  8
1
  5
D4
  6
CONTINUOUS
 62
7
 10
48.757778
 20
8.023148
 30
0.0
  0
VERTEX
  8
1
  5
D5
  6
CONTINUOUS
 62
7
 10
48.757779
 20
8.023148
 30
0.0
 42
-0.036499
  0
VERTEX
  8
1
  5
D6
  6
CONTINUOUS
 62
7
 10
42.819091
 20
5.932365
 30
0.0
  0
SEQEND
  8
1
  5
D7
  0
ARC
  8
1
  5
D9
  6
CONTINUOUS
 62
7
 10
28.778982
 20
8.2
 30
-16.0
 40
4.1
 50
90.3037333333
 51
269.9493888889
  0
POLYLINE
  8
1
  5
DB
  6
CONTINUOUS
 62
7
 10
0.0
 20
0.0
 30
-16.0
 66
1
 70
0
  0
VERTEX
  8
1
  5
DC
  6
CONTINUOUS
 62
7
 10
48.001342
 20
25.0
 30
-16.0
 42
-0.074209
  0
VERTEX
  8
1
  5
DD
  6
CONTINUOUS
 62
7
 10
47.644826
 20
22.541097
 30
-16.0
  0
VERTEX
  8
1
  5
DE
  6
CONTINUOUS
 62
7
 10
47.644826
 20
22.541097
 30
-16.0
 42
-0.067603
  0
VERTEX
  8
1
  5
DF
  6
CONTINUOUS
 62
7
 10
46.559348
 20
20.17234
 30
-16.0
  0
VERTEX
  8
1
  5
E0
  6
CONTINUOUS
 62
7
 10
46.559348
 20
20.17234
 30
-16.0
 42
-0.058009
  0
VERTEX
  8
1
  5
E1
  6
CONTINUOUS
 62
7
 10
44.78668
 20
17.984891
 30
-16.0
  0
VERTEX
  8
1
  5
E2
  6
CONTINUOUS
 62
7
 10
44.78668
 20
17.984891
 30
-16.0
 42
-0.048895
  0
VERTEX
  8
1
  5
E3
  6
CONTINUOUS
 62
7
 10
42.395044
 20
16.062931
 30
-16.0
  0
VERTEX
  8
1
  5
E4
  6
CONTINUOUS
 62
7
 10
42.395044
 20
16.062931
 30
-16.0
 42
-0.041767
  0
VERTEX
  8
1
  5
E5
  6
CONTINUOUS
 62
7
 10
39.476479
 20
14.480428
 30
-16.0
  0
VERTEX
  8
1
  5
E6
  6
CONTINUOUS
 62
7
 10
39.476479
 20
14.480428
 30
-16.0
 42
-0.036801
  0
VERTEX
  8
1
  5
E7
  6
CONTINUOUS
 62
7
 10
36.143303
 20
13.298281
 30
-16.0
  0
VERTEX
  8
1
  5
E8
  6
CONTINUOUS
 62
7
 10
36.143304
 20
13.298281
 30
-16.0
 42
-0.03373
  0
VERTEX
  8
1
  5
E9
  6
CONTINUOUS
 62
7
 10
32.523796
 20
12.561985
 30
-16.0
  0
VERTEX
  8
1
  5
EA
  6
CONTINUOUS
 62
7
 10
32.523796
 20
12.561985
 30
-16.0
 42
-0.032276
  0
VERTEX
  8
1
  5
EB
  6
CONTINUOUS
 62
7
 10
28.757248
 20
12.299877
 30
-16.0
  0
SEQEND
  8
1
  5
EC
  0
LINE
  8
1
  5
EE
  6
CONTINUOUS
 62
7
 10
72.358
 20
6.356
 30
16.0
 11
72.358
 21
6.356
 31
0.0
  0
LINE
  8
1
  5
F0
  6
CONTINUOUS
 62
7
 10
72.358
 20
-6.356
 30
16.0
 11
72.358
 21
-6.356
 31
0.0
  0
LINE
  8
1
  5
F2
  6
CONTINUOUS
 62
7
 10
67.989
 20
18.02
 30
16.0
 11
67.989
 21
18.02
 31
0.0
  0
ARC
  8
1
  5
F4
  6
CONTINUOUS
 62
7
 210
0.0
 220
0.0
 230
-1.0
 10
-64.513604
 20
15.844498
 30
-16.0
 40
4.1
 50
30.4754416667
 51
147.9493027778
  0
LINE
  8
1
  5
F6
  6
CONTINUOUS
 62
7
 10
72.274
 20
7.182
 30
16.0
 11
72.274
 21
7.182
 31
0.0
  0
POLYLINE
  8
1
  5
F8
  6
CONTINUOUS
 62
7
 10
0.0
 20
0.0
 30
16.0
 66
1
 70
0
  0
VERTEX
  8
1
  5
F9
  6
CONTINUOUS
 62
7
 10
67.988677
 20
18.020243
 30
16.0
 42
-0.045742
  0
VERTEX
  8
1
  5
FA
  6
CONTINUOUS
 62
7
 10
70.587676
 20
12.860587
 30
16.0
  0
VERTEX
  8
1
  5
FB
  6
CONTINUOUS
 62
7
 10
70.587676
 20
12.860587
 30
16.0
 42
-0.043504
  0
VERTEX
  8
1
  5
FC
  6
CONTINUOUS
 62
7
 10
72.274464
 20
7.181521
 30
16.0
  0
SEQEND
  8
1
  5
FD
  0
LINE
  8
1
  5
FF
  6
CONTINUOUS
 62
7
 10
71.503
 20
3.85
 30
16.0
 11
71.503
 21
3.85
 31
0.0
  0
ARC
  8
1
  5
101
  6
CONTINUOUS
 62
7
 210
0.0
 220
0.0
 230
-1.0
 10
-68.258355
 20
6.356373
 30
-16.0
 40
4.1
 50
168.3896055556
 51
217.6755777778
  0
LINE
  8
1
  5
103
  6
CONTINUOUS
 62
7
 10
71.503
 20
-3.85
 30
16.0
 11
71.503
 21
-3.85
 31
0.0
  0
ARC
  8
1
  5
105
  6
CONTINUOUS
 62
7
 10
76.48979
 20
0.0
 30
16.0
 40
6.3
 50
142.3244222222
 51
217.6755777778
  0
LINE
  8
1
  5
107
  6
CONTINUOUS
 62
7
 10
72.274
 20
-7.182
 30
16.0
 11
72.274
 21
-7.182
 31
0.0
  0
ARC
  8
1
  5
109
  6
CONTINUOUS
 62
7
 210
0.0
 220
0.0
 230
-1.0
 10
-68.258355
 20
-6.356373
 30
-16.0
 40
4.1
 50
142.3244222222
 51
191.6103527778
  0
LINE
  8
1
  5
10B
  6
CONTINUOUS
 62
7
 10
67.989
 20
-18.02
 30
16.0
 11
67.989
 21
-18.02
 31
0.0
  0
POLYLINE
  8
1
  5
10D
  6
CONTINUOUS
 62
7
 10
0.0
 20
0.0
 30
16.0
 66
1
 70
0
  0
VERTEX
  8
1
  5
10E
  6
CONTINUOUS
 62
7
 10
72.274465
 20
-7.181518
 30
16.0
 42
-0.043504
  0
VERTEX
  8
1
  5
10F
  6
CONTINUOUS
 62
7
 10
70.587676
 20
-12.860587
 30
16.0
  0
VERTEX
  8
1
  5
110
  6
CONTINUOUS
 62
7
 10
70.587676
 20
-12.860587
 30
16.0
 42
-0.045742
  0
VERTEX
  8
1
  5
111
  6
CONTINUOUS
 62
7
 10
67.988676
 20
-18.020245
 30
16.0
  0
SEQEND
  8
1
  5
112
  0
ARC
  8
1
  5
114
  6
CONTINUOUS
 62
7
 210
0.0
 220
0.0
 230
-1.0
 10
-64.513604
 20
-15.844498
 30
-16.0
 40
4.1
 50
212.0507361111
 51
329.5246361111
  0
LINE
  8
1
  5
116
  6
CONTINUOUS
 62
7
 10
-73.0
 20
8.2
 30
-16.0
 11
-73.0
 21
8.2
 31
16.0
  0
LINE
  8
1
  5
118
  6
CONTINUOUS
 62
7
 10
-73.0
 20
-8.2
 30
-16.0
 11
-73.0
 21
-8.2
 31
16.0
  0
ARC
  8
1
  5
11A
  6
CONTINUOUS
 62
7
 210
0.0
 220
0.0
 230
-1.0
 10
53.775011
 20
-1.978611
 30
0.0
 40
4.1
 50
183.5595055556
 51
285.3491916667
  0
POLYLINE
  8
1
  5
11C
  6
CONTINUOUS
 62
7
 10
0.0
 20
0.0
 30
0.0
 66
1
 70
0
  0
VERTEX
  8
1
  5
11D
  6
CONTINUOUS
 62
7
 10
-49.68292
 20
2.233158
 30
0.0
 42
-0.015532
  0
VERTEX
  8
1
  5
11E
  6
CONTINUOUS
 62
7
 10
-49.61356
 20
-0.0
 30
0.0
  0
VERTEX
  8
1
  5
11F
  6
CONTINUOUS
 62
7
 10
-49.61356
 20
-0.0
 30
0.0
 42
-0.015532
  0
VERTEX
  8
1
  5
120
  6
CONTINUOUS
 62
7
 10
-49.68292
 20
-2.233159
 30
0.0
  0
SEQEND
  8
1
  5
121
  0
ARC
  8
1
  5
123
  6
CONTINUOUS
 62
7
 210
0.0
 220
0.0
 230
-1.0
 10
53.775011
 20
1.978611
 30
0.0
 40
4.1
 50
74.6507666667
 51
176.4405361111
  0
POLYLINE
  8
1
  5
125
  6
CONTINUOUS
 62
7
 10
0.0
 20
0.0
 30
0.0
 66
1
 70
0
  0
VERTEX
  8
1
  5
126
  6
CONTINUOUS
 62
7
 10
-36.699348
 20
17.923891
 30
0.0
 42
-0.062718
  0
VERTEX
  8
1
  5
127
  6
CONTINUOUS
 62
7
 10
-39.655091
 20
14.141752
 30
0.0
  0
VERTEX
  8
1
  5
128
  6
CONTINUOUS
 62
7
 10
-39.65509
 20
14.141753
 30
0.0
 42
-0.05124
  0
VERTEX
  8
1
  5
129
  6
CONTINUOUS
 62
7
 10
-43.784444
 20
10.796734
 30
0.0
  0
VERTEX
  8
1
  5
12A
  6
CONTINUOUS
 62
7
 10
-43.784444
 20
10.796734
 30
0.0
 42
-0.042463
  0
VERTEX
  8
1
  5
12B
  6
CONTINUOUS
 62
7
 10
-48.921602
 20
8.023148
 30
0.0
  0
VERTEX
  8
1
  5
12C
  6
CONTINUOUS
 62
7
 10
-48.921601
 20
8.023148
 30
0.0
 42
-0.036499
  0
VERTEX
  8
1
  5
12D
  6
CONTINUOUS
 62
7
 10
-54.860289
 20
5.932365
 30
0.0
  0
SEQEND
  8
1
  5
12E
  0
POLYLINE
  8
1
  5
130
  6
CONTINUOUS
 62
7
 10
0.0
 20
0.0
 30
0.0
 66
1
 70
0
  0
VERTEX
  8
1
  5
131
  6
CONTINUOUS
 62
7
 10
-54.860284
 20
-5.932366
 30
0.0
 42
-0.036499
  0
VERTEX
  8
1
  5
132
  6
CONTINUOUS
 62
7
 10
-48.921599
 20
-8.023149
 30
0.0
  0
VERTEX
  8
1
  5
133
  6
CONTINUOUS
 62
7
 10
-48.921601
 20
-8.023148
 30
0.0
 42
-0.042463
  0
VERTEX
  8
1
  5
134
  6
CONTINUOUS
 62
7
 10
-43.784444
 20
-10.796733
 30
0.0
  0
VERTEX
  8
1
  5
135
  6
CONTINUOUS
 62
7
 10
-43.784445
 20
-10.796733
 30
0.0
 42
-0.05124
  0
VERTEX
  8
1
  5
136
  6
CONTINUOUS
 62
7
 10
-39.655093
 20
-14.14175
 30
0.0
  0
VERTEX
  8
1
  5
137
  6
CONTINUOUS
 62
7
 10
-39.655093
 20
-14.14175
 30
0.0
 42
-0.062718
  0
VERTEX
  8
1
  5
138
  6
CONTINUOUS
 62
7
 10
-36.69935
 20
-17.923886
 30
0.0
  0
SEQEND
  8
1
  5
139
  0
LINE
  8
1
  5
13B
  6
CONTINUOUS
 62
7
 10
-36.699
 20
-17.924
 30
16.0
 11
-36.699
 21
-17.924
 31
0.0
  0
LINE
  8
1
  5
13D
  6
CONTINUOUS
 62
7
 10
-36.699
 20
17.924
 30
16.0
 11
-36.699
 21
17.924
 31
0.0
  0
LINE
  8
1
  5
13F
  6
CONTINUOUS
 62
7
 10
-49.678
 20
-25.0
 30
16.0
 11
-214.678
 21
-25.0
 31
16.0
  0
POLYLINE
  8
1
  5
141
  6
CONTINUOUS
 62
7
 10
0.0
 20
0.0
 30
16.0
 66
1
 70
0
  0
VERTEX
  8
1
  5
142
  6
CONTINUOUS
 62
7
 10
-68.922132
 20
-12.299877
 30
16.0
 42
-0.032276
  0
VERTEX
  8
1
  5
143
  6
CONTINUOUS
 62
7
 10
-65.155584
 20
-12.561985
 30
16.0
  0
VERTEX
  8
1
  5
144
  6
CONTINUOUS
 62
7
 10
-65.155584
 20
-12.561985
 30
16.0
 42
-0.03373
  0
VERTEX
  8
1
  5
145
  6
CONTINUOUS
 62
7
 10
-61.536076
 20
-13.298281
 30
16.0
  0
VERTEX
  8
1
  5
146
  6
CONTINUOUS
 62
7
 10
-61.536076
 20
-13.298281
 30
16.0
 42
-0.036801
  0
VERTEX
  8
1
  5
147
  6
CONTINUOUS
 62
7
 10
-58.2029
 20
-14.480428
 30
16.0
  0
VERTEX
  8
1
  5
148
  6
CONTINUOUS
 62
7
 10
-58.202901
 20
-14.480428
 30
16.0
 42
-0.041767
  0
VERTEX
  8
1
  5
149
  6
CONTINUOUS
 62
7
 10
-55.284336
 20
-16.062931
 30
16.0
  0
VERTEX
  8
1
  5
14A
  6
CONTINUOUS
 62
7
 10
-55.284336
 20
-16.062931
 30
16.0
 42
-0.048895
  0
VERTEX
  8
1
  5
14B
  6
CONTINUOUS
 62
7
 10
-52.8927
 20
-17.984891
 30
16.0
  0
VERTEX
  8
1
  5
14C
  6
CONTINUOUS
 62
7
 10
-52.8927
 20
-17.984891
 30
16.0
 42
-0.058009
  0
VERTEX
  8
1
  5
14D
  6
CONTINUOUS
 62
7
 10
-51.120032
 20
-20.17234
 30
16.0
  0
VERTEX
  8
1
  5
14E
  6
CONTINUOUS
 62
7
 10
-51.120032
 20
-20.17234
 30
16.0
 42
-0.067603
  0
VERTEX
  8
1
  5
14F
  6
CONTINUOUS
 62
7
 10
-50.034554
 20
-22.541097
 30
16.0
  0
VERTEX
  8
1
  5
150
  6
CONTINUOUS
 62
7
 10
-50.034554
 20
-22.541097
 30
16.0
 42
-0.074209
  0
VERTEX
  8
1
  5
151
  6
CONTINUOUS
 62
7
 10
-49.678038
 20
-25.0
 30
16.0
  0
SEQEND
  8
1
  5
152
  0
ARC
  8
1
  5
154
  6
CONTINUOUS
 62
7
 10
-68.900398
 20
-8.2
 30
16.0
 40
4.1
 50
90.0506333333
 51
269.696275
  0
POLYLINE
  8
1
  5
156
  6
CONTINUOUS
 62
7
 10
0.0
 20
0.0
 30
16.0
 66
1
 70
0
  0
VERTEX
  8
1
  5
157
  6
CONTINUOUS
 62
7
 10
-36.69935
 20
-17.923886
 30
16.0
 42
0.063733
  0
VERTEX
  8
1
  5
158
  6
CONTINUOUS
 62
7
 10
-39.7192
 20
-14.077522
 30
16.0
  0
VERTEX
  8
1
  5
159
  6
CONTINUOUS
 62
7
 10
-39.719199
 20
-14.077523
 30
16.0
 42
0.051885
  0
VERTEX
  8
1
  5
15A
  6
CONTINUOUS
 62
7
 10
-43.952288
 20
-10.686705
 30
16.0
  0
VERTEX
  8
1
  5
15B
  6
CONTINUOUS
 62
7
 10
-43.952289
 20
-10.686705
 30
16.0
 42
0.042899
  0
VERTEX
  8
1
  5
15C
  6
CONTINUOUS
 62
7
 10
-49.222518
 20
-7.892491
 30
16.0
  0
VERTEX
  8
1
  5
15D
  6
CONTINUOUS
 62
7
 10
-49.222517
 20
-7.892491
 30
16.0
 42
0.036861
  0
VERTEX
  8
1
  5
15E
  6
CONTINUOUS
 62
7
 10
-55.310644
 20
-5.811121
 30
16.0
  0
VERTEX
  8
1
  5
15F
  6
CONTINUOUS
 62
7
 10
-55.310642
 20
-5.811121
 30
16.0
 42
0.03323
  0
VERTEX
  8
1
  5
160
  6
CONTINUOUS
 62
7
 10
-61.963395
 20
-4.529182
 30
16.0
  0
VERTEX
  8
1
  5
161
  6
CONTINUOUS
 62
7
 10
-61.963397
 20
-4.529182
 30
16.0
 42
0.031536
  0
VERTEX
  8
1
  5
162
  6
CONTINUOUS
 62
7
 10
-68.904023
 20
-4.100003
 30
16.0
  0
SEQEND
  8
1
  5
163
  0
POLYLINE
  8
1
  5
165
  6
CONTINUOUS
 62
7
 10
0.0
 20
0.0
 30
16.0
 66
1
 70
0
  0
VERTEX
  8
1
  5
166
  6
CONTINUOUS
 62
7
 10
-68.904021
 20
4.100003
 30
16.0
 42
0.031536
  0
VERTEX
  8
1
  5
167
  6
CONTINUOUS
 62
7
 10
-61.963395
 20
4.529182
 30
16.0
  0
VERTEX
  8
1
  5
168
  6
CONTINUOUS
 62
7
 10
-61.963394
 20
4.529182
 30
16.0
 42
0.03323
  0
VERTEX
  8
1
  5
169
  6
CONTINUOUS
 62
7
 10
-55.31064
 20
5.811122
 30
16.0
  0
VERTEX
  8
1
  5
16A
  6
CONTINUOUS
 62
7
 10
-55.310641
 20
5.811122
 30
16.0
 42
0.036861
  0
VERTEX
  8
1
  5
16B
  6
CONTINUOUS
 62
7
 10
-49.222513
 20
7.892492
 30
16.0
  0
VERTEX
  8
1
  5
16C
  6
CONTINUOUS
 62
7
 10
-49.222513
 20
7.892492
 30
16.0
 42
0.042899
  0
VERTEX
  8
1
  5
16D
  6
CONTINUOUS
 62
7
 10
-43.952283
 20
10.686708
 30
16.0
  0
VERTEX
  8
1
  5
16E
  6
CONTINUOUS
 62
7
 10
-43.952284
 20
10.686708
 30
16.0
 42
0.051885
  0
VERTEX
  8
1
  5
16F
  6
CONTINUOUS
 62
7
 10
-39.719195
 20
14.077528
 30
16.0
  0
VERTEX
  8
1
  5
170
  6
CONTINUOUS
 62
7
 10
-39.719196
 20
14.077527
 30
16.0
 42
0.063733
  0
VERTEX
  8
1
  5
171
  6
CONTINUOUS
 62
7
 10
-36.699348
 20
17.923891
 30
16.0
  0
SEQEND
  8
1
  5
172
  0
ARC
  8
1
  5
174
  6
CONTINUOUS
 62
7
 10
-68.900398
 20
8.2
 30
16.0
 40
4.1
 50
90.3037333333
 51
269.9493888889
  0
POLYLINE
  8
1
  5
176
  6
CONTINUOUS
 62
7
 10
0.0
 20
0.0
 30
16.0
 66
1
 70
0
  0
VERTEX
  8
1
  5
177
  6
CONTINUOUS
 62
7
 10
-49.678038
 20
25.0
 30
16.0
 42
-0.074209
  0
VERTEX
  8
1
  5
178
  6
CONTINUOUS
 62
7
 10
-50.034554
 20
22.541097
 30
16.0
  0
VERTEX
  8
1
  5
179
  6
CONTINUOUS
 62
7
 10
-50.034554
 20
22.541097
 30
16.0
 42
-0.067603
  0
VERTEX
  8
1
  5
17A
  6
CONTINUOUS
 62
7
 10
-51.120032
 20
20.17234
 30
16.0
  0
VERTEX
  8
1
  5
17B
  6
CONTINUOUS
 62
7
 10
-51.120032
 20
20.17234
 30
16.0
 42
-0.058009
  0
VERTEX
  8
1
  5
17C
  6
CONTINUOUS
 62
7
 10
-52.8927
 20
17.984891
 30
16.0
  0
VERTEX
  8
1
  5
17D
  6
CONTINUOUS
 62
7
 10
-52.8927
 20
17.984891
 30
16.0
 42
-0.048895
  0
VERTEX
  8
1
  5
17E
  6
CONTINUOUS
 62
7
 10
-55.284336
 20
16.062931
 30
16.0
  0
VERTEX
  8
1
  5
17F
  6
CONTINUOUS
 62
7
 10
-55.284336
 20
16.062931
 30
16.0
 42
-0.041767
  0
VERTEX
  8
1
  5
180
  6
CONTINUOUS
 62
7
 10
-58.202901
 20
14.480428
 30
16.0
  0
VERTEX
  8
1
  5
181
  6
CONTINUOUS
 62
7
 10
-58.202901
 20
14.480428
 30
16.0
 42
-0.036801
  0
VERTEX
  8
1
  5
182
  6
CONTINUOUS
 62
7
 10
-61.536077
 20
13.298281
 30
16.0
  0
VERTEX
  8
1
  5
183
  6
CONTINUOUS
 62
7
 10
-61.536076
 20
13.298281
 30
16.0
 42
-0.03373
  0
VERTEX
  8
1
  5
184
  6
CONTINUOUS
 62
7
 10
-65.155584
 20
12.561985
 30
16.0
  0
VERTEX
  8
1
  5
185
  6
CONTINUOUS
 62
7
 10
-65.155584
 20
12.561985
 30
16.0
 42
-0.032276
  0
VERTEX
  8
1
  5
186
  6
CONTINUOUS
 62
7
 10
-68.922132
 20
12.299877
 30
16.0
  0
SEQEND
  8
1
  5
187
  0
LINE
  8
1
  5
189
  6
CONTINUOUS
 62
7
 10
-214.678
 20
25.0
 30
16.0
 11
-49.678
 21
25.0
 31
16.0
  0
LINE
  8
1
  5
18B
  6
CONTINUOUS
 62
7
 10
-214.678
 20
-25.0
 30
16.0
 11
-214.678
 21
25.0
 31
16.0
  0
LINE
  8
1
  5
18D
  6
CONTINUOUS
 62
7
 10
-68.922
 20
12.3
 30
-16.0
 11
-68.922
 21
12.3
 31
16.0
  0
POLYLINE
  8
1
  5
18F
  6
CONTINUOUS
 62
7
 10
0.0
 20
0.0
 30
-16.0
 66
1
 70
0
  0
VERTEX
  8
1
  5
190
  6
CONTINUOUS
 62
7
 10
-68.922132
 20
12.299877
 30
-16.0
 42
0.032276
  0
VERTEX
  8
1
  5
191
  6
CONTINUOUS
 62
7
 10
-65.155584
 20
12.561985
 30
-16.0
  0
VERTEX
  8
1
  5
192
  6
CONTINUOUS
 62
7
 10
-65.155584
 20
12.561985
 30
-16.0
 42
0.03373
  0
VERTEX
  8
1
  5
193
  6
CONTINUOUS
 62
7
 10
-61.536076
 20
13.298281
 30
-16.0
  0
VERTEX
  8
1
  5
194
  6
CONTINUOUS
 62
7
 10
-61.536076
 20
13.298281
 30
-16.0
 42
0.036801
  0
VERTEX
  8
1
  5
195
  6
CONTINUOUS
 62
7
 10
-58.2029
 20
14.480428
 30
-16.0
  0
VERTEX
  8
1
  5
196
  6
CONTINUOUS
 62
7
 10
-58.202901
 20
14.480428
 30
-16.0
 42
0.041767
  0
VERTEX
  8
1
  5
197
  6
CONTINUOUS
 62
7
 10
-55.284336
 20
16.062931
 30
-16.0
  0
VERTEX
  8
1
  5
198
  6
CONTINUOUS
 62
7
 10
-55.284336
 20
16.062931
 30
-16.0
 42
0.048895
  0
VERTEX
  8
1
  5
199
  6
CONTINUOUS
 62
7
 10
-52.8927
 20
17.984891
 30
-16.0
  0
VERTEX
  8
1
  5
19A
  6
CONTINUOUS
 62
7
 10
-52.8927
 20
17.984891
 30
-16.0
 42
0.058009
  0
VERTEX
  8
1
  5
19B
  6
CONTINUOUS
 62
7
 10
-51.120032
 20
20.17234
 30
-16.0
  0
VERTEX
  8
1
  5
19C
  6
CONTINUOUS
 62
7
 10
-51.120032
 20
20.17234
 30
-16.0
 42
0.067603
  0
VERTEX
  8
1
  5
19D
  6
CONTINUOUS
 62
7
 10
-50.034554
 20
22.541097
 30
-16.0
  0
VERTEX
  8
1
  5
19E
  6
CONTINUOUS
 62
7
 10
-50.034554
 20
22.541097
 30
-16.0
 42
0.074209
  0
VERTEX
  8
1
  5
19F
  6
CONTINUOUS
 62
7
 10
-49.678038
 20
25.0
 30
-16.0
  0
SEQEND
  8
1
  5
1A0
  0
LINE
  8
1
  5
1A2
  6
CONTINUOUS
 62
7
 10
-49.678
 20
25.0
 30
-16.0
 11
-49.678
 21
25.0
 31
16.0
  0
LINE
  8
1
  5
1A4
  6
CONTINUOUS
 62
7
 10
-68.922
 20
12.3
 30
-16.0
 11
-68.922
 21
12.3
 31
16.0
  0
ARC
  8
1
  5
1A6
  6
CONTINUOUS
 62
7
 210
0.0
 220
0.0
 230
-1.0
 10
68.900398
 20
8.2
 30
16.0
 40
4.1
 50
270.0506111111
 51
89.6962666667
  0
LINE
  8
1
  5
1A8
  6
CONTINUOUS
 62
7
 10
-54.86
 20
5.932
 30
-16.0
 11
-54.86
 21
5.932
 31
0.0
  0
POLYLINE
  8
1
  5
1AA
  6
CONTINUOUS
 62
7
 10
0.0
 20
0.0
 30
-16.0
 66
1
 70
0
  0
VERTEX
  8
1
  5
1AB
  6
CONTINUOUS
 62
7
 10
-54.860288
 20
5.932365
 30
-16.0
 42
-0.034552
  0
VERTEX
  8
1
  5
1AC
  6
CONTINUOUS
 62
7
 10
-61.722576
 20
4.56005
 30
-16.0
  0
VERTEX
  8
1
  5
1AD
  6
CONTINUOUS
 62
7
 10
-61.722575
 20
4.56005
 30
-16.0
 42
-0.032668
  0
VERTEX
  8
1
  5
1AE
  6
CONTINUOUS
 62
7
 10
-68.904018
 20
4.100003
 30
-16.0
  0
SEQEND
  8
1
  5
1AF
  0
LINE
  8
1
  5
1B1
  6
CONTINUOUS
 62
7
 10
-49.683
 20
2.233
 30
-16.0
 11
-49.683
 21
2.233
 31
0.0
  0
ARC
  8
1
  5
1B3
  6
CONTINUOUS
 62
7
 10
-53.775011
 20
1.978611
 30
-16.0
 40
4.1
 50
3.5594638889
 51
105.3492333333
  0
LINE
  8
1
  5
1B5
  6
CONTINUOUS
 62
7
 10
-49.683
 20
-2.233
 30
-16.0
 11
-49.683
 21
-2.233
 31
0.0
  0
POLYLINE
  8
1
  5
1B7
  6
CONTINUOUS
 62
7
 10
0.0
 20
0.0
 30
-16.0
 66
1
 70
0
  0
VERTEX
  8
1
  5
1B8
  6
CONTINUOUS
 62
7
 10
-49.68292
 20
-2.233159
 30
-16.0
 42
0.015532
  0
VERTEX
  8
1
  5
1B9
  6
CONTINUOUS
 62
7
 10
-49.61356
 20
-0.0
 30
-16.0
  0
VERTEX
  8
1
  5
1BA
  6
CONTINUOUS
 62
7
 10
-49.61356
 20
-0.0
 30
-16.0
 42
0.015532
  0
VERTEX
  8
1
  5
1BB
  6
CONTINUOUS
 62
7
 10
-49.68292
 20
2.233158
 30
-16.0
  0
SEQEND
  8
1
  5
1BC
  0
LINE
  8
1
  5
1BE
  6
CONTINUOUS
 62
7
 10
-54.86
 20
-5.932
 30
-16.0
 11
-54.86
 21
-5.932
 31
0.0
  0
ARC
  8
1
  5
1C0
  6
CONTINUOUS
 62
7
 10
-53.775011
 20
-1.978611
 30
-16.0
 40
4.1
 50
254.6508083333
 51
356.4404944444
  0
POLYLINE
  8
1
  5
1C2
  6
CONTINUOUS
 62
7
 10
0.0
 20
0.0
 30
-16.0
 66
1
 70
0
  0
VERTEX
  8
1
  5
1C3
  6
CONTINUOUS
 62
7
 10
-68.904021
 20
-4.100003
 30
-16.0
 42
-0.032668
  0
VERTEX
  8
1
  5
1C4
  6
CONTINUOUS
 62
7
 10
-61.722575
 20
-4.56005
 30
-16.0
  0
VERTEX
  8
1
  5
1C5
  6
CONTINUOUS
 62
7
 10
-61.722574
 20
-4.56005
 30
-16.0
 42
-0.034552
  0
VERTEX
  8
1
  5
1C6
  6
CONTINUOUS
 62
7
 10
-54.860284
 20
-5.932366
 30
-16.0
  0
SEQEND
  8
1
  5
1C7
  0
ARC
  8
1
  5
1C9
  6
CONTINUOUS
 62
7
 210
0.0
 220
0.0
 230
-1.0
 10
68.900398
 20
-8.2
 30
16.0
 40
4.1
 50
270.303725
 51
89.9493666667
  0
LINE
  8
1
  5
1CB
  6
CONTINUOUS
 62
7
 10
-49.678
 20
-25.0
 30
-16.0
 11
-49.678
 21
-25.0
 31
16.0
  0
POLYLINE
  8
1
  5
1CD
  6
CONTINUOUS
 62
7
 10
0.0
 20
0.0
 30
-16.0
 66
1
 70
0
  0
VERTEX
  8
1
  5
1CE
  6
CONTINUOUS
 62
7
 10
-49.678038
 20
-25.0
 30
-16.0
 42
0.074209
  0
VERTEX
  8
1
  5
1CF
  6
CONTINUOUS
 62
7
 10
-50.034554
 20
-22.541097
 30
-16.0
  0
VERTEX
  8
1
  5
1D0
  6
CONTINUOUS
 62
7
 10
-50.034554
 20
-22.541097
 30
-16.0
 42
0.067603
  0
VERTEX
  8
1
  5
1D1
  6
CONTINUOUS
 62
7
 10
-51.120032
 20
-20.17234
 30
-16.0
  0
VERTEX
  8
1
  5
1D2
  6
CONTINUOUS
 62
7
 10
-51.120032
 20
-20.17234
 30
-16.0
 42
0.058009
  0
VERTEX
  8
1
  5
1D3
  6
CONTINUOUS
 62
7
 10
-52.8927
 20
-17.984891
 30
-16.0
  0
VERTEX
  8
1
  5
1D4
  6
CONTINUOUS
 62
7
 10
-52.8927
 20
-17.984891
 30
-16.0
 42
0.048895
  0
VERTEX
  8
1
  5
1D5
  6
CONTINUOUS
 62
7
 10
-55.284336
 20
-16.062931
 30
-16.0
  0
VERTEX
  8
1
  5
1D6
  6
CONTINUOUS
 62
7
 10
-55.284336
 20
-16.062931
 30
-16.0
 42
0.041767
  0
VERTEX
  8
1
  5
1D7
  6
CONTINUOUS
 62
7
 10
-58.202901
 20
-14.480428
 30
-16.0
  0
VERTEX
  8
1
  5
1D8
  6
CONTINUOUS
 62
7
 10
-58.202901
 20
-14.480428
 30
-16.0
 42
0.036801
  0
VERTEX
  8
1
  5
1D9
  6
CONTINUOUS
 62
7
 10
-61.536077
 20
-13.298281
 30
-16.0
  0
VERTEX
  8
1
  5
1DA
  6
CONTINUOUS
 62
7
 10
-61.536076
 20
-13.298281
 30
-16.0
 42
0.03373
  0
VERTEX
  8
1
  5
1DB
  6
CONTINUOUS
 62
7
 10
-65.155584
 20
-12.561985
 30
-16.0
  0
VERTEX
  8
1
  5
1DC
  6
CONTINUOUS
 62
7
 10
-65.155584
 20
-12.561985
 30
-16.0
 42
0.032276
  0
VERTEX
  8
1
  5
1DD
  6
CONTINUOUS
 62
7
 10
-68.922132
 20
-12.299877
 30
-16.0
  0
SEQEND
  8
1
  5
1DE
  0
LINE
  8
1
  5
1E0
  6
CONTINUOUS
 62
7
 10
-214.678
 20
-25.0
 30
-16.0
 11
-214.678
 21
-25.0
 31
16.0
  0
LINE
  8
1
  5
1E2
  6
CONTINUOUS
 62
7
 10
-214.678
 20
-25.0
 30
-16.0
 11
-49.678
 21
-25.0
 31
-16.0
  0
LINE
  8
1
  5
1E4
  6
CONTINUOUS
 62
7
 10
-214.678
 20
25.0
 30
-16.0
 11
-214.678
 21
25.0
 31
16.0
  0
LINE
  8
1
  5
1E6
  6
CONTINUOUS
 62
7
 10
-214.678
 20
25.0
 30
-16.0
 11
-214.678
 21
-25.0
 31
-16.0
  0
LINE
  8
1
  5
1E8
  6
CONTINUOUS
 62
7
 10
-49.678
 20
25.0
 30
-16.0
 11
-214.678
 21
25.0
 31
-16.0
  0
LINE
  8
1
  5
1EA
  6
CONTINUOUS
 62
7
 10
-25.321
 20
-6.356
 30
16.0
 11
-25.321
 21
-6.356
 31
0.0
  0
LINE
  8
1
  5
1EC
  6
CONTINUOUS
 62
7
 10
-25.321
 20
6.356
 30
16.0
 11
-25.321
 21
6.356
 31
0.0
  0
ARC
  8
1
  5
1EE
  6
CONTINUOUS
 62
7
 10
-33.165776
 20
15.844498
 30
0.0
 40
4.1
 50
32.0506972222
 51
149.5245583333
  0
POLYLINE
  8
1
  5
1F0
  6
CONTINUOUS
 62
7
 10
0.0
 20
0.0
 30
0.0
 66
1
 70
0
  0
VERTEX
  8
1
  5
1F1
  6
CONTINUOUS
 62
7
 10
-25.404916
 20
7.181521
 30
0.0
 42
0.043504
  0
VERTEX
  8
1
  5
1F2
  6
CONTINUOUS
 62
7
 10
-27.091704
 20
12.860587
 30
0.0
  0
VERTEX
  8
1
  5
1F3
  6
CONTINUOUS
 62
7
 10
-27.091704
 20
12.860587
 30
0.0
 42
0.045742
  0
VERTEX
  8
1
  5
1F4
  6
CONTINUOUS
 62
7
 10
-29.690703
 20
18.020243
 30
0.0
  0
SEQEND
  8
1
  5
1F5
  0
ARC
  8
1
  5
1F7
  6
CONTINUOUS
 62
7
 10
-29.421025
 20
6.356373
 30
0.0
 40
4.1
 50
322.3244222222
 51
11.6103944444
  0
ARC
  8
1
  5
1F9
  6
CONTINUOUS
 62
7
 210
0.0
 220
0.0
 230
-1.0
 10
21.18959
 20
0.0
 30
0.0
 40
6.3
 50
322.3244222222
 51
37.6755777778
  0
ARC
  8
1
  5
1FB
  6
CONTINUOUS
 62
7
 10
-29.421025
 20
-6.356373
 30
0.0
 40
4.1
 50
348.3896444444
 51
37.6755777778
  0
POLYLINE
  8
1
  5
1FD
  6
CONTINUOUS
 62
7
 10
0.0
 20
0.0
 30
0.0
 66
1
 70
0
  0
VERTEX
  8
1
  5
1FE
  6
CONTINUOUS
 62
7
 10
-29.690704
 20
-18.020245
 30
0.0
 42
0.045742
  0
VERTEX
  8
1
  5
1FF
  6
CONTINUOUS
 62
7
 10
-27.091704
 20
-12.860587
 30
0.0
  0
VERTEX
  8
1
  5
200
  6
CONTINUOUS
 62
7
 10
-27.091704
 20
-12.860587
 30
0.0
 42
0.043504
  0
VERTEX
  8
1
  5
201
  6
CONTINUOUS
 62
7
 10
-25.404915
 20
-7.181518
 30
0.0
  0
SEQEND
  8
1
  5
202
  0
ARC
  8
1
  5
204
  6
CONTINUOUS
 62
7
 10
-33.165776
 20
-15.844498
 30
0.0
 40
4.1
 50
210.4753638889
 51
327.9492638889
  0
LINE
  8
1
  5
206
  6
CONTINUOUS
 62
7
 10
-29.691
 20
-18.02
 30
16.0
 11
-29.691
 21
-18.02
 31
0.0
  0
ARC
  8
1
  5
208
  6
CONTINUOUS
 62
7
 210
0.0
 220
0.0
 230
-1.0
 10
33.165776
 20
-15.844498
 30
-16.0
 40
4.1
 50
212.0507361111
 51
329.5246361111
  0
LINE
  8
1
  5
20A
  6
CONTINUOUS
 62
7
 10
-25.405
 20
-7.182
 30
16.0
 11
-25.405
 21
-7.182
 31
0.0
  0
POLYLINE
  8
1
  5
20C
  6
CONTINUOUS
 62
7
 10
0.0
 20
0.0
 30
16.0
 66
1
 70
0
  0
VERTEX
  8
1
  5
20D
  6
CONTINUOUS
 62
7
 10
-25.404915
 20
-7.181518
 30
16.0
 42
-0.043504
  0
VERTEX
  8
1
  5
20E
  6
CONTINUOUS
 62
7
 10
-27.091704
 20
-12.860587
 30
16.0
  0
VERTEX
  8
1
  5
20F
  6
CONTINUOUS
 62
7
 10
-27.091704
 20
-12.860587
 30
16.0
 42
-0.045742
  0
VERTEX
  8
1
  5
210
  6
CONTINUOUS
 62
7
 10
-29.690704
 20
-18.020245
 30
16.0
  0
SEQEND
  8
1
  5
211
  0
LINE
  8
1
  5
213
  6
CONTINUOUS
 62
7
 10
-26.176
 20
-3.85
 30
16.0
 11
-26.176
 21
-3.85
 31
0.0
  0
ARC
  8
1
  5
215
  6
CONTINUOUS
 62
7
 210
0.0
 220
0.0
 230
-1.0
 10
29.421025
 20
-6.356373
 30
-16.0
 40
4.1
 50
142.3244222222
 51
191.6103555556
  0
LINE
  8
1
  5
217
  6
CONTINUOUS
 62
7
 10
-26.176
 20
3.85
 30
16.0
 11
-26.176
 21
3.85
 31
0.0
  0
ARC
  8
1
  5
219
  6
CONTINUOUS
 62
7
 10
-21.18959
 20
0.0
 30
16.0
 40
6.3
 50
142.3244222222
 51
217.6755777778
  0
LINE
  8
1
  5
21B
  6
CONTINUOUS
 62
7
 10
-25.405
 20
7.182
 30
16.0
 11
-25.405
 21
7.182
 31
0.0
  0
ARC
  8
1
  5
21D
  6
CONTINUOUS
 62
7
 210
0.0
 220
0.0
 230
-1.0
 10
29.421025
 20
6.356373
 30
-16.0
 40
4.1
 50
168.3896055556
 51
217.6755777778
  0
LINE
  8
1
  5
21F
  6
CONTINUOUS
 62
7
 10
-29.691
 20
18.02
 30
16.0
 11
-29.691
 21
18.02
 31
0.0
  0
POLYLINE
  8
1
  5
221
  6
CONTINUOUS
 62
7
 10
0.0
 20
0.0
 30
16.0
 66
1
 70
0
  0
VERTEX
  8
1
  5
222
  6
CONTINUOUS
 62
7
 10
-29.690703
 20
18.020243
 30
16.0
 42
-0.045742
  0
VERTEX
  8
1
  5
223
  6
CONTINUOUS
 62
7
 10
-27.091704
 20
12.860587
 30
16.0
  0
VERTEX
  8
1
  5
224
  6
CONTINUOUS
 62
7
 10
-27.091704
 20
12.860587
 30
16.0
 42
-0.043504
  0
VERTEX
  8
1
  5
225
  6
CONTINUOUS
 62
7
 10
-25.404916
 20
7.181521
 30
16.0
  0
SEQEND
  8
1
  5
226
  0
ARC
  8
1
  5
228
  6
CONTINUOUS
 62
7
 210
0.0
 220
0.0
 230
-1.0
 10
33.165776
 20
15.844498
 30
-16.0
 40
4.1
 50
30.4754416667
 51
147.9493027778
  0
LINE
  8
1
  5
22A
  6
CONTINUOUS
 62
7
 10
-68.904
 20
4.1
 30
16.0
 11
-68.904
 21
4.1
 31
-16.0
  0
LINE
  8
1
  5
22C
  6
CONTINUOUS
 62
7
 10
-68.904
 20
-4.1
 30
16.0
 11
-68.904
 21
-4.1
 31
-16.0
  0
LINE
  8
1
  5
22E
  6
CONTINUOUS
 62
7
 10
28.775
 20
4.1
 30
16.0
 11
28.775
 21
4.1
 31
-16.0
  0
LINE
  8
1
  5
230
  6
CONTINUOUS
 62
7
 10
28.775
 20
-4.1
 30
16.0
 11
28.775
 21
-4.1
 31
-16.0
  0
LINE
  8
1
  5
232
  6
CONTINUOUS
 62
7
 10
28.757
 20
-12.3
 30
16.0
 11
28.757
 21
-12.3
 31
-16.0
  0
LINE
  8
1
  5
234
  6
CONTINUOUS
 62
7
 10
28.757
 20
12.3
 30
16.0
 11
28.757
 21
12.3
 31
-16.0
  0
LINE
  8
1
  5
236
  6
CONTINUOUS
 62
7
 10
-68.922
 20
-12.3
 30
16.0
 11
-68.922
 21
-12.3
 31
-16.0
  0
ENDBLK
  8
1
  5
237
  0
ENDSEC
  0
SECTION
  2
ENTITIES
  0
INSERT
  8
1
  5
2
  6
CONTINUOUS
 62
7
  2
*M0
 10
648.13
 20
5.0
 30
-50.0
 41
1.0
 42
1.0
 43
1.0
 70
1
 71
1
  0
ENDSEC
  0
EOF
