  0
SECTION
  2
HEADER
  9
$ACADVER
  1
AC1009
  9
$INSBASE
 10
0.0
 20
0.0
 30
0.0
  9
$EXTMAX
 10
453.55178
 20
-66.21051
 30
16.0
  9
$EXTMIN
 10
23.55178
 20
-116.21051
 30
-16.0
  9
$LIMMAX
 10
12.0
 20
9.0
  9
$LIMMIN
 10
0.0
 20
0.0
  9
$ORTHOMODE
 70
0
  9
$REGENMODE
 70
1
  9
$FILLMODE
 70
1
  9
$QTEXTMODE
 70
0
  9
$MIRRTEXT
 70
1
  9
$DRAGMODE
 70
2
  9
$LTSCALE
 40
1.0
  9
$OSMODE
 70
0
  9
$ATTMODE
 70
1
  9
$TEXTSIZE
 40
0.2
  9
$TRACEWID
 40
0.05
  9
$TEXTSTYLE
  7
STANDARD
  9
$CLAYER
  8
0
  9
$CELTYPE
  6
CONTINUOUS
  9
$CECOLOR
 62
256
  9
$DIMSCALE
 40
1.0
  9
$DIMASZ
 40
0.18
  9
$DIMEXO
 40
0.0625
  9
$DIMDLI
 40
0.38
  9
$DIMRND
 40
0.0
  9
$DIMDLE
 40
0.0
  9
$DIMEXE
 40
0.18
  9
$DIMTP
 40
0.0
  9
$DIMTM
 40
0.0
  9
$DIMTXT
 40
0.18
  9
$DIMCEN
 40
0.09
  9
$DIMTSZ
 40
0.0
  9
$DIMTOL
 70
0
  9
$DIMLIM
 70
0
  9
$DIMTIH
 70
1
  9
$DIMTOH
 70
1
  9
$DIMSE1
 70
0
  9
$DIMSE2
 70
0
  9
$DIMTAD
 70
0
  9
$DIMZIN
 70
0
  9
$DIMBLK
  1

  9
$DIMASO
 70
1
  9
$DIMSHO
 70
1
  9
$DIMPOST
  1

  9
$DIMAPOST
  1

  9
$DIMALT
 70
0
  9
$DIMALTD
 70
2
  9
$DIMALTF
 40
25.4
  9
$DIMLFAC
 40
1.0
  9
$DIMTOFL
 70
0
  9
$DIMTVP
 40
0.0
  9
$DIMTIX
 70
0
  9
$DIMSOXD
 70
0
  9
$DIMSAH
 70
0
  9
$DIMBLK1
  1

  9
$DIMBLK2
  1

  9
$DIMSTYLE
  2
*UNNAMED
  9
$DIMCLRD
 70
0
  9
$DIMCLRE
 70
0
  9
$DIMCLRT
 70
0
  9
$DIMTFAC
 40
1.0
  9
$DIMGAP
 40
0.09
  9
$LUNITS
 70
2
  9
$LUPREC
 70
4
  9
$AXISMODE
 70
0
  9
$AXISUNIT
 10
0.0
 20
0.0
  9
$SKETCHINC
 40
0.1
  9
$FILLETRAD
 40
0.0
  9
$AUNITS
 70
0
  9
$AUPREC
 70
0
  9
$MENU
  1
acad
  9
$ELEVATION
 40
0.0
  9
$PELEVATION
 40
0.0
  9
$THICKNESS
 40
0.0
  9
$LIMCHECK
 70
0
  9
$BLIPMODE
 70
1
  9
$CHAMFERA
 40
0.0
  9
$CHAMFERB
 40
0.0
  9
$SKPOLY
 70
0
  9
$TDCREATE
 40
0.0
  9
$TDUPDATE
 40
0.0
  9
$TDINDWG
 40
0.0
  9
$TDUSRTIMER
 40
0.0
  9
$USRTIMER
 70
1
  9
$ANGBASE
 50
0.0
  9
$ANGDIR
 70
0
  9
$PDMODE
 70
0
  9
$PDSIZE
 40
0.0
  9
$PLINEWID
 40
0.0
  9
$COORDS
 70
0
  9
$SPLFRAME
 70
0
  9
$SPLINETYPE
 70
6
  9
$SPLINESEGS
 70
10
  9
$ATTDIA
 70
0
  9
$ATTREQ
 70
1
  9
$HANDLING
 70
1
  9
$HANDSEED
  5
1C0
  9
$SURFTAB1
 70
6
  9
$SURFTAB2
 70
6
  9
$SURFTYPE
 70
6
  9
$SURFU
 70
10
  9
$SURFV
 70
10
  9
$UCSNAME
  2

  9
$UCSORG
 10
0.0
 20
0.0
 30
0.0
  9
$UCSXDIR
 10
1.0
 20
0.0
 30
0.0
  9
$UCSYDIR
 10
0.0
 20
1.0
 30
0.0
  9
$PUCSNAME
  2
 
  9
$PUCSORG
 10
0.0
 20
0.0
 30
0.0
  9
$PUCSXDIR
 10
1.0
 20
0.0
 30
0.0
  9
$PUCSYDIR
 10
0.0
 20
1.0
 30
0.0
  9
$USERI1
 70
0
  9
$USERI2
 70
0
  9
$USERI3
 70
0
  9
$USERI4
 70
0
  9
$USERI5
 70
0
  9
$USERR1
 40
0.0
  9
$USERR2
 40
0.0
  9
$USERR3
 40
0.0
  9
$USERR4
 40
0.0
  9
$USERR5
 40
0.0
  9
$WORLDVIEW
 70
1
  9
$SHADEDGE
 70
3
  9
$SHADEDIF
 70
70
  9
$TILEMODE
 70
1
  9
$MAXACTVP
 70
16
  9
$PINSBASE
 10
0.0
 20
0.0
 30
0.0
  9
$PLIMCHECK
 70
0
  9
$PEXTMIN
 10
-1.000000E+020
 20
-1.000000E+020
 30
-1.000000E+020
  9
$PEXTMAX
 10
-1.000000E+020
 20
-1.000000E+020
 30
-1.000000E+020
  9
$PLIMMIN
 10
0.0
 20
0.0
  9
$PLIMMAX
 10
12.0
 20
9.0
  9
$UNITMODE
 70
0
  9
$VISRETAIN
 70
0
  0
ENDSEC
  0
SECTION
  2
TABLES
  0
TABLE
  2
LTYPE
 70
7
  0
LTYPE
  2
CONTINUOUS
 70
64
  3
Solid line
 72
65
 73
0
 40
0.0
  0
LTYPE
  2
DOT
 70
64
  3
. . . . . . . . . . . . . . . . . . . . . . . . . . . . . . . . .
 72
65
 73
2
 40
0.25
 49
0.0
 49
-0.25
  0
LTYPE
  2
HIDDEN
 70
64
  3
__ __ __ __ __ __ __ __ __ __ __ __ __ __ __ __ __ __ __ __ __ 
 72
65
 73
2
 40
0.375
 49
0.25
 49
-0.125
  0
LTYPE
  2
DASHED
 70
64
  3
__ __ __ __ __ __ __ __ __ __ __ __ __ __ __ __ __ __ __ __ __
 72
65
 73
2
 40
0.75
 49
0.5
 49
-0.25
  0
LTYPE
  2
DASHDOT
 70
64
  3
__ . __ . __ . __ . __ . __ . __ . __ . __ . __ . __ . __ . _
 72
65
 73
4
 40
1.0
 49
0.5
 49
-0.25
 49
0.0
 49
-0.25
  0
LTYPE
  2
DIVIDE
 70
64
  3
____ . . ____ . . ____ . . ____ . . ____ . . ____ . . ____ . .
 72
65
 73
6
 40
1.25
 49
0.5
 49
-0.25
 49
0.0
 49
-0.25
 49
0.0
 49
-0.25
  0
LTYPE
  2
CENTER
 70
64
  3
____ _ ____ _ ____ _ ____ _ ____ _ ____ _ ____ _ ____ _ ____ _
 72
65
 73
4
 40
2.0
 49
1.25
 49
-0.25
 49
0.25
 49
-0.25
  0
ENDTAB
  0
TABLE
  2
APPID
 70
1
  0
APPID
  2
ACAD
 70
0
  0
ENDTAB
  0
TABLE
  2
DIMSTYLE
 70
0
  0
ENDTAB
  0
TABLE
  2
LAYER
 70
4
  0
LAYER
  2
0
 70
0
 62
7
  6
CONTINUOUS
  0
LAYER
  2
CONSTRUCTION_CLASS
 70
0
 62
7
  6
CONTINUOUS
  0
LAYER
  2
PATTERN_CLASS
 70
0
 62
7
  6
CONTINUOUS
  0
LAYER
  2
1
 70
0
 62
7
  6
CONTINUOUS
  0
ENDTAB
  0
TABLE
  2
STYLE
 70
1
  0
STYLE
  2
STANDARD
 70
0
 40
0.2
 41
1.0
 50
0.0
 71
0
 42
0.0
  3
txt
  4

  0
ENDTAB
  0
TABLE
  2
UCS
 70
0
  0
ENDTAB
  0
TABLE
  2
VIEW
 70
0
  0
ENDTAB
  0
TABLE
  2
VPORT
 70
4
  0
VPORT
  2
*ACTIVE
 70
0
 10
0.500821
 20
0.50171
 11
0.998358
 21
0.997719
 12
0.0
 22
0.0
 13
0.0
 23
0.0
 14
0.0
 24
0.0
 15
0.0
 25
0.0
 16
0.0
 26
-2.747534E-015
 36
44.87212
 17
220.376739
 27
-91.210505
 37
1.065814E-014
 40
290.28707
 41
1.393103
 42
50.0
 43
22.43606
 44
-22.43606
 50
0.0
 51
0.0
 71
22
 72
100
 73
1
 74
0
 75
0
 76
0
 77
0
 78
0
  0
VPORT
  2
*ACTIVE
 70
0
 10
0.001642
 20
0.50171
 11
0.499179
 21
0.997719
 12
-2.842171E-014
 22
-2.842171E-014
 13
0.0
 23
0.0
 14
0.0
 24
0.0
 15
0.0
 25
0.0
 16
-176.532731
 26
-176.532731
 36
176.532731
 17
228.407572
 27
-81.066303
 37
0.000006
 40
229.13186
 41
1.393103
 42
50.0
 43
152.88183
 44
-152.88183
 50
0.0
 51
0.0
 71
22
 72
100
 73
1
 74
0
 75
0
 76
0
 77
0
 78
0
  0
VPORT
  2
*ACTIVE
 70
0
 10
0.001642
 20
0.003421
 11
0.499179
 21
0.49943
 12
0.0
 22
0.0
 13
0.0
 23
0.0
 14
0.0
 24
0.0
 15
0.0
 25
0.0
 16
0.0
 26
-62.87212
 36
0.0
 17
220.376739
 27
-91.21051
 37
0.000005
 40
290.28707
 41
1.393103
 42
50.0
 43
31.43606
 44
-31.43606
 50
0.0
 51
0.0
 71
22
 72
100
 73
1
 74
0
 75
0
 76
0
 77
0
 78
0
  0
VPORT
  2
*ACTIVE
 70
0
 10
0.500821
 20
0.003421
 11
0.998358
 21
0.49943
 12
3.552714E-015
 22
0.0
 13
0.0
 23
0.0
 14
0.0
 24
0.0
 15
0.0
 25
0.0
 16
440.75
 26
0.0
 36
0.0
 17
238.55178
 27
-93.642553
 37
0.0
 40
38.84396
 41
1.393103
 42
50.0
 43
220.375
 44
-220.375
 50
0.0
 51
0.0
 71
22
 72
100
 73
1
 74
0
 75
0
 76
0
 77
0
 78
0
  0
ENDTAB
  0
ENDSEC
  0
SECTION
  2
BLOCKS
  0
BLOCK
  8
1
  5
6
 70
1
 10
0.0
 20
0.0
 30
0.0
  2
*M0
  3
*M0
  0
LINE
  8
1
  5
8
  6
CONTINUOUS
 62
7
 10
197.55178
 20
-110.31051
 30
0.0
 11
197.55178
 21
-116.21051
 31
0.0
  0
LINE
  8
1
  5
A
  6
CONTINUOUS
 62
7
 10
197.55178
 20
-116.21051
 30
16.0
 11
197.55178
 21
-116.21051
 31
0.0
  0
ARC
  8
1
  5
C
  6
CONTINUOUS
 62
7
 10
201.65178
 20
-110.31051
 30
4.656613E-015
 40
4.1
 50
90.0
 51
180.0
  0
LINE
  8
1
  5
E
  6
CONTINUOUS
 62
7
 10
209.45178
 20
-106.21051
 30
0.0
 11
201.65178
 21
-106.21051
 31
0.0
  0
ARC
  8
1
  5
10
  6
CONTINUOUS
 62
7
 210
0.0
 220
0.0
 230
-1.0
 10
-209.45178
 20
-102.11051
 30
-4.656613E-015
 40
4.1
 50
180.0
 51
270.0
  0
LINE
  8
1
  5
12
  6
CONTINUOUS
 62
7
 10
213.55178
 20
-102.11051
 30
16.0
 11
213.55178
 21
-102.11051
 31
0.0
  0
ARC
  8
1
  5
14
  6
CONTINUOUS
 62
7
 210
0.0
 220
0.0
 230
-1.0
 10
-181.65178
 20
-100.31051
 30
-4.656613E-015
 40
4.1
 50
0.0
 51
90.0
  0
LINE
  8
1
  5
16
  6
CONTINUOUS
 62
7
 10
181.65178
 20
-96.21051
 30
16.0
 11
181.65178
 21
-96.21051
 31
0.0
  0
LINE
  8
1
  5
18
  6
CONTINUOUS
 62
7
 10
177.55178
 20
-100.86729
 30
0.0
 11
177.55178
 21
-100.31051
 31
0.0
  0
ARC
  8
1
  5
1A
  6
CONTINUOUS
 62
7
 10
173.45178
 20
-100.867286
 30
4.656613E-015
 40
4.1
 50
255.0
 51
360.0
  0
LINE
  8
1
  5
1C
  6
CONTINUOUS
 62
7
 10
164.59062
 20
-102.73758
 30
0.0
 11
172.39062
 21
-104.82758
 31
0.0
  0
ARC
  8
1
  5
1E
  6
CONTINUOUS
 62
7
 10
165.65178
 20
-98.777283
 30
4.656613E-015
 40
4.1
 50
180.0
 51
255.0
  0
LINE
  8
1
  5
20
  6
CONTINUOUS
 62
7
 10
161.55178
 20
-83.64374
 30
0.0
 11
161.55178
 21
-98.77728
 31
0.0
  0
ARC
  8
1
  5
22
  6
CONTINUOUS
 62
7
 10
165.65178
 20
-83.643737
 30
4.656613E-015
 40
4.1
 50
105.0
 51
180.0
  0
LINE
  8
1
  5
24
  6
CONTINUOUS
 62
7
 10
172.39062
 20
-77.59344
 30
0.0
 11
164.59062
 21
-79.68344
 31
0.0
  0
ARC
  8
1
  5
26
  6
CONTINUOUS
 62
7
 10
173.45178
 20
-81.553734
 30
4.656613E-015
 40
4.1
 50
360.0
 51
105.0
  0
LINE
  8
1
  5
28
  6
CONTINUOUS
 62
7
 10
177.55178
 20
-82.11051
 30
0.0
 11
177.55178
 21
-81.55373
 31
0.0
  0
ARC
  8
1
  5
2A
  6
CONTINUOUS
 62
7
 210
0.0
 220
0.0
 230
-1.0
 10
-181.65178
 20
-82.11051
 30
-4.656613E-015
 40
4.1
 50
270.0
 51
360.0
  0
LINE
  8
1
  5
2C
  6
CONTINUOUS
 62
7
 10
181.65178
 20
-86.21051
 30
16.0
 11
181.65178
 21
-86.21051
 31
0.0
  0
ARC
  8
1
  5
2E
  6
CONTINUOUS
 62
7
 210
0.0
 220
0.0
 230
-1.0
 10
-209.45178
 20
-80.31051
 30
-4.656613E-015
 40
4.1
 50
90.0
 51
180.0
  0
LINE
  8
1
  5
30
  6
CONTINUOUS
 62
7
 10
213.55178
 20
-80.31051
 30
16.0
 11
213.55178
 21
-80.31051
 31
0.0
  0
LINE
  8
1
  5
32
  6
CONTINUOUS
 62
7
 10
201.65178
 20
-76.21051
 30
0.0
 11
209.45178
 21
-76.21051
 31
0.0
  0
ARC
  8
1
  5
34
  6
CONTINUOUS
 62
7
 10
201.65178
 20
-72.11051
 30
4.656613E-015
 40
4.1
 50
180.0
 51
270.0
  0
LINE
  8
1
  5
36
  6
CONTINUOUS
 62
7
 10
197.55178
 20
-66.21051
 30
0.0
 11
197.55178
 21
-72.11051
 31
0.0
  0
LINE
  8
1
  5
38
  6
CONTINUOUS
 62
7
 10
197.55178
 20
-66.21051
 30
16.0
 11
197.55178
 21
-66.21051
 31
0.0
  0
LINE
  8
1
  5
3A
  6
CONTINUOUS
 62
7
 10
23.55178
 20
-66.21051
 30
16.0
 11
197.55178
 21
-66.21051
 31
16.0
  0
LINE
  8
1
  5
3C
  6
CONTINUOUS
 62
7
 10
23.55178
 20
-116.21051
 30
16.0
 11
23.55178
 21
-66.21051
 31
16.0
  0
LINE
  8
1
  5
3E
  6
CONTINUOUS
 62
7
 10
197.55178
 20
-116.21051
 30
16.0
 11
23.55178
 21
-116.21051
 31
16.0
  0
LINE
  8
1
  5
40
  6
CONTINUOUS
 62
7
 10
213.55178
 20
-100.31051
 30
16.0
 11
213.55178
 21
-102.11051
 31
16.0
  0
ARC
  8
1
  5
42
  6
CONTINUOUS
 62
7
 210
0.0
 220
0.0
 230
-1.0
 10
-209.45178
 20
-100.31051
 30
-16.0
 40
4.1
 50
90.0
 51
180.0
  0
LINE
  8
1
  5
44
  6
CONTINUOUS
 62
7
 10
181.65178
 20
-96.21051
 30
16.0
 11
209.45178
 21
-96.21051
 31
16.0
  0
LINE
  8
1
  5
46
  6
CONTINUOUS
 62
7
 10
209.45178
 20
-86.21051
 30
16.0
 11
181.65178
 21
-86.21051
 31
16.0
  0
ARC
  8
1
  5
48
  6
CONTINUOUS
 62
7
 210
0.0
 220
0.0
 230
-1.0
 10
-209.45178
 20
-82.11051
 30
-16.0
 40
4.1
 50
180.0
 51
270.0
  0
LINE
  8
1
  5
4A
  6
CONTINUOUS
 62
7
 10
213.55178
 20
-80.31051
 30
16.0
 11
213.55178
 21
-82.11051
 31
16.0
  0
LINE
  8
1
  5
4C
  6
CONTINUOUS
 62
7
 10
213.55178
 20
-66.21051
 30
0.0
 11
213.55178
 21
-80.31051
 31
0.0
  0
LINE
  8
1
  5
4E
  6
CONTINUOUS
 62
7
 10
197.55178
 20
-66.21051
 30
0.0
 11
213.55178
 21
-66.21051
 31
0.0
  0
LINE
  8
1
  5
50
  6
CONTINUOUS
 62
7
 10
213.55178
 20
-116.21051
 30
0.0
 11
197.55178
 21
-116.21051
 31
0.0
  0
LINE
  8
1
  5
52
  6
CONTINUOUS
 62
7
 10
213.55178
 20
-102.11051
 30
0.0
 11
213.55178
 21
-116.21051
 31
0.0
  0
LINE
  8
1
  5
54
  6
CONTINUOUS
 62
7
 10
213.55178
 20
-82.11051
 30
-16.0
 11
213.55178
 21
-82.11051
 31
16.0
  0
LINE
  8
1
  5
56
  6
CONTINUOUS
 62
7
 10
213.55178
 20
-66.21051
 30
-16.0
 11
213.55178
 21
-82.11051
 31
-16.0
  0
LINE
  8
1
  5
58
  6
CONTINUOUS
 62
7
 10
213.55178
 20
-66.21051
 30
-16.0
 11
213.55178
 21
-66.21051
 31
0.0
  0
LINE
  8
1
  5
5A
  6
CONTINUOUS
 62
7
 10
209.45178
 20
-86.21051
 30
-16.0
 11
209.45178
 21
-86.21051
 31
0.0
  0
ARC
  8
1
  5
5C
  6
CONTINUOUS
 62
7
 210
0.0
 220
0.0
 230
-1.0
 10
-209.45178
 20
-82.11051
 30
16.0
 40
4.1
 50
180.0
 51
270.0
  0
LINE
  8
1
  5
5E
  6
CONTINUOUS
 62
7
 10
209.45178
 20
-86.21051
 30
16.0
 11
209.45178
 21
-86.21051
 31
0.0
  0
LINE
  8
1
  5
60
  6
CONTINUOUS
 62
7
 10
201.65178
 20
-86.21051
 30
-16.0
 11
201.65178
 21
-86.21051
 31
0.0
  0
LINE
  8
1
  5
62
  6
CONTINUOUS
 62
7
 10
209.45178
 20
-86.21051
 30
-16.0
 11
201.65178
 21
-86.21051
 31
-16.0
  0
LINE
  8
1
  5
64
  6
CONTINUOUS
 62
7
 10
201.65178
 20
-86.21051
 30
0.0
 11
181.65178
 21
-86.21051
 31
0.0
  0
ARC
  8
1
  5
66
  6
CONTINUOUS
 62
7
 10
201.65178
 20
-90.31051
 30
4.656613E-015
 40
4.1
 50
90.0
 51
180.0
  0
LINE
  8
1
  5
68
  6
CONTINUOUS
 62
7
 10
197.55178
 20
-90.31051
 30
-16.0
 11
197.55178
 21
-90.31051
 31
0.0
  0
ARC
  8
1
  5
6A
  6
CONTINUOUS
 62
7
 10
201.65178
 20
-90.31051
 30
-16.0
 40
4.1
 50
90.0
 51
180.0
  0
LINE
  8
1
  5
6C
  6
CONTINUOUS
 62
7
 10
197.55178
 20
-90.31051
 30
0.0
 11
197.55178
 21
-92.11051
 31
0.0
  0
LINE
  8
1
  5
6E
  6
CONTINUOUS
 62
7
 10
197.55178
 20
-92.11051
 30
-16.0
 11
197.55178
 21
-92.11051
 31
0.0
  0
LINE
  8
1
  5
70
  6
CONTINUOUS
 62
7
 10
197.55178
 20
-90.31051
 30
-16.0
 11
197.55178
 21
-92.11051
 31
-16.0
  0
ARC
  8
1
  5
72
  6
CONTINUOUS
 62
7
 10
201.65178
 20
-92.11051
 30
4.656613E-015
 40
4.1
 50
180.0
 51
270.0
  0
LINE
  8
1
  5
74
  6
CONTINUOUS
 62
7
 10
201.65178
 20
-96.21051
 30
-16.0
 11
201.65178
 21
-96.21051
 31
0.0
  0
ARC
  8
1
  5
76
  6
CONTINUOUS
 62
7
 10
201.65178
 20
-92.11051
 30
-16.0
 40
4.1
 50
180.0
 51
270.0
  0
LINE
  8
1
  5
78
  6
CONTINUOUS
 62
7
 10
209.45178
 20
-96.21051
 30
-16.0
 11
209.45178
 21
-96.21051
 31
16.0
  0
LINE
  8
1
  5
7A
  6
CONTINUOUS
 62
7
 10
201.65178
 20
-96.21051
 30
-16.0
 11
209.45178
 21
-96.21051
 31
-16.0
  0
LINE
  8
1
  5
7C
  6
CONTINUOUS
 62
7
 10
181.65178
 20
-96.21051
 30
0.0
 11
201.65178
 21
-96.21051
 31
0.0
  0
LINE
  8
1
  5
7E
  6
CONTINUOUS
 62
7
 10
213.55178
 20
-100.31051
 30
-16.0
 11
213.55178
 21
-100.31051
 31
0.0
  0
ARC
  8
1
  5
80
  6
CONTINUOUS
 62
7
 210
0.0
 220
0.0
 230
-1.0
 10
-209.45178
 20
-100.31051
 30
16.0
 40
4.1
 50
90.0
 51
180.0
  0
LINE
  8
1
  5
82
  6
CONTINUOUS
 62
7
 10
213.55178
 20
-100.31051
 30
16.0
 11
213.55178
 21
-100.31051
 31
0.0
  0
LINE
  8
1
  5
84
  6
CONTINUOUS
 62
7
 10
213.55178
 20
-116.21051
 30
-16.0
 11
213.55178
 21
-116.21051
 31
0.0
  0
LINE
  8
1
  5
86
  6
CONTINUOUS
 62
7
 10
213.55178
 20
-100.31051
 30
-16.0
 11
213.55178
 21
-116.21051
 31
-16.0
  0
LINE
  8
1
  5
88
  6
CONTINUOUS
 62
7
 10
23.55178
 20
-116.21051
 30
-16.0
 11
23.55178
 21
-116.21051
 31
16.0
  0
LINE
  8
1
  5
8A
  6
CONTINUOUS
 62
7
 10
213.55178
 20
-116.21051
 30
-16.0
 11
23.55178
 21
-116.21051
 31
-16.0
  0
LINE
  8
1
  5
8C
  6
CONTINUOUS
 62
7
 10
23.55178
 20
-66.21051
 30
-16.0
 11
23.55178
 21
-66.21051
 31
16.0
  0
LINE
  8
1
  5
8E
  6
CONTINUOUS
 62
7
 10
23.55178
 20
-116.21051
 30
-16.0
 11
23.55178
 21
-66.21051
 31
-16.0
  0
LINE
  8
1
  5
90
  6
CONTINUOUS
 62
7
 10
23.55178
 20
-66.21051
 30
-16.0
 11
213.55178
 21
-66.21051
 31
-16.0
  0
ENDBLK
  8
1
  5
91
  0
BLOCK
  8
1
  5
93
 70
1
 10
0.0
 20
0.0
 30
0.0
  2
*M1
  3
*M1
  0
LINE
  8
1
  5
95
  6
CONTINUOUS
 62
7
 10
197.55178
 20
-110.31051
 30
16.0
 11
197.55178
 21
-110.31051
 31
0.0
  0
LINE
  8
1
  5
97
  6
CONTINUOUS
 62
7
 10
197.55178
 20
-110.31051
 30
16.0
 11
197.55178
 21
-116.21051
 31
16.0
  0
LINE
  8
1
  5
99
  6
CONTINUOUS
 62
7
 10
201.65178
 20
-106.21051
 30
16.0
 11
201.65178
 21
-106.21051
 31
0.0
  0
ARC
  8
1
  5
9B
  6
CONTINUOUS
 62
7
 10
201.65178
 20
-110.31051
 30
16.0
 40
4.1
 50
90.0
 51
180.0
  0
LINE
  8
1
  5
9D
  6
CONTINUOUS
 62
7
 10
209.45178
 20
-106.21051
 30
16.0
 11
209.45178
 21
-106.21051
 31
0.0
  0
LINE
  8
1
  5
9F
  6
CONTINUOUS
 62
7
 10
209.45178
 20
-106.21051
 30
16.0
 11
201.65178
 21
-106.21051
 31
16.0
  0
ARC
  8
1
  5
A1
  6
CONTINUOUS
 62
7
 210
0.0
 220
0.0
 230
-1.0
 10
-209.45178
 20
-102.11051
 30
-16.0
 40
4.1
 50
180.0
 51
270.0
  0
LINE
  8
1
  5
A3
  6
CONTINUOUS
 62
7
 10
177.55178
 20
-100.31051
 30
16.0
 11
177.55178
 21
-100.31051
 31
0.0
  0
ARC
  8
1
  5
A5
  6
CONTINUOUS
 62
7
 210
0.0
 220
0.0
 230
-1.0
 10
-181.65178
 20
-100.31051
 30
-16.0
 40
4.1
 50
0.0
 51
90.0
  0
LINE
  8
1
  5
A7
  6
CONTINUOUS
 62
7
 10
177.55178
 20
-100.86729
 30
16.0
 11
177.55178
 21
-100.86729
 31
0.0
  0
LINE
  8
1
  5
A9
  6
CONTINUOUS
 62
7
 10
177.55178
 20
-100.86729
 30
16.0
 11
177.55178
 21
-100.31051
 31
16.0
  0
LINE
  8
1
  5
AB
  6
CONTINUOUS
 62
7
 10
172.39062
 20
-104.82758
 30
16.0
 11
172.39062
 21
-104.82758
 31
0.0
  0
ARC
  8
1
  5
AD
  6
CONTINUOUS
 62
7
 10
173.45178
 20
-100.867286
 30
16.0
 40
4.1
 50
255.0
 51
360.0
  0
LINE
  8
1
  5
AF
  6
CONTINUOUS
 62
7
 10
164.59062
 20
-102.73758
 30
16.0
 11
164.59062
 21
-102.73758
 31
0.0
  0
LINE
  8
1
  5
B1
  6
CONTINUOUS
 62
7
 10
164.59062
 20
-102.73758
 30
16.0
 11
172.39062
 21
-104.82758
 31
16.0
  0
LINE
  8
1
  5
B3
  6
CONTINUOUS
 62
7
 10
161.55178
 20
-98.77728
 30
16.0
 11
161.55178
 21
-98.77728
 31
0.0
  0
ARC
  8
1
  5
B5
  6
CONTINUOUS
 62
7
 10
165.65178
 20
-98.777283
 30
16.0
 40
4.1
 50
180.0
 51
255.0
  0
LINE
  8
1
  5
B7
  6
CONTINUOUS
 62
7
 10
161.55178
 20
-83.64374
 30
16.0
 11
161.55178
 21
-83.64374
 31
0.0
  0
LINE
  8
1
  5
B9
  6
CONTINUOUS
 62
7
 10
161.55178
 20
-83.64374
 30
16.0
 11
161.55178
 21
-98.77728
 31
16.0
  0
LINE
  8
1
  5
BB
  6
CONTINUOUS
 62
7
 10
164.59062
 20
-79.68344
 30
16.0
 11
164.59062
 21
-79.68344
 31
0.0
  0
ARC
  8
1
  5
BD
  6
CONTINUOUS
 62
7
 10
165.65178
 20
-83.643737
 30
16.0
 40
4.1
 50
105.0
 51
180.0
  0
LINE
  8
1
  5
BF
  6
CONTINUOUS
 62
7
 10
172.39062
 20
-77.59344
 30
16.0
 11
172.39062
 21
-77.59344
 31
0.0
  0
LINE
  8
1
  5
C1
  6
CONTINUOUS
 62
7
 10
172.39062
 20
-77.59344
 30
16.0
 11
164.59062
 21
-79.68344
 31
16.0
  0
LINE
  8
1
  5
C3
  6
CONTINUOUS
 62
7
 10
177.55178
 20
-81.55373
 30
16.0
 11
177.55178
 21
-81.55373
 31
0.0
  0
ARC
  8
1
  5
C5
  6
CONTINUOUS
 62
7
 10
173.45178
 20
-81.553734
 30
16.0
 40
4.1
 50
360.0
 51
105.0
  0
LINE
  8
1
  5
C7
  6
CONTINUOUS
 62
7
 10
177.55178
 20
-82.11051
 30
16.0
 11
177.55178
 21
-82.11051
 31
0.0
  0
LINE
  8
1
  5
C9
  6
CONTINUOUS
 62
7
 10
177.55178
 20
-82.11051
 30
16.0
 11
177.55178
 21
-81.55373
 31
16.0
  0
ARC
  8
1
  5
CB
  6
CONTINUOUS
 62
7
 210
0.0
 220
0.0
 230
-1.0
 10
-181.65178
 20
-82.11051
 30
-16.0
 40
4.1
 50
270.0
 51
360.0
  0
LINE
  8
1
  5
CD
  6
CONTINUOUS
 62
7
 10
209.45178
 20
-76.21051
 30
16.0
 11
209.45178
 21
-76.21051
 31
0.0
  0
ARC
  8
1
  5
CF
  6
CONTINUOUS
 62
7
 210
0.0
 220
0.0
 230
-1.0
 10
-209.45178
 20
-80.31051
 30
-16.0
 40
4.1
 50
90.0
 51
180.0
  0
LINE
  8
1
  5
D1
  6
CONTINUOUS
 62
7
 10
201.65178
 20
-76.21051
 30
16.0
 11
201.65178
 21
-76.21051
 31
0.0
  0
LINE
  8
1
  5
D3
  6
CONTINUOUS
 62
7
 10
201.65178
 20
-76.21051
 30
16.0
 11
209.45178
 21
-76.21051
 31
16.0
  0
LINE
  8
1
  5
D5
  6
CONTINUOUS
 62
7
 10
197.55178
 20
-72.11051
 30
16.0
 11
197.55178
 21
-72.11051
 31
0.0
  0
ARC
  8
1
  5
D7
  6
CONTINUOUS
 62
7
 10
201.65178
 20
-72.11051
 30
16.0
 40
4.1
 50
180.0
 51
270.0
  0
LINE
  8
1
  5
D9
  6
CONTINUOUS
 62
7
 10
197.55178
 20
-66.21051
 30
16.0
 11
197.55178
 21
-72.11051
 31
16.0
  0
ENDBLK
  8
1
  5
DA
  0
BLOCK
  8
1
  5
DC
 70
1
 10
0.0
 20
0.0
 30
0.0
  2
*M2
  3
*M2
  0
INSERT
  8
1
  5
DE
  6
CONTINUOUS
 62
7
  2
*M0
 10
0.0
 20
0.0
 30
0.0
 41
1.0
 42
1.0
 43
1.0
 70
1
 71
1
  0
INSERT
  8
1
  5
E0
  6
CONTINUOUS
 62
7
  2
*M1
 10
0.0
 20
0.0
 30
0.0
 41
1.0
 42
1.0
 43
1.0
 70
1
 71
1
  0
ENDBLK
  8
1
  5
E1
  0
BLOCK
  8
1
  5
E3
 70
1
 10
0.0
 20
0.0
 30
0.0
  2
*M3
  3
*M3
  0
LINE
  8
1
  5
E5
  6
CONTINUOUS
 62
7
 10
213.55178
 20
-116.21051
 30
48.4137
 11
213.55178
 21
-102.11051
 31
48.4137
  0
LINE
  8
1
  5
E7
  6
CONTINUOUS
 62
7
 10
197.55178
 20
-116.21051
 30
48.4137
 11
213.55178
 21
-116.21051
 31
48.4137
  0
LINE
  8
1
  5
E9
  6
CONTINUOUS
 62
7
 10
213.55178
 20
-80.31051
 30
48.4137
 11
213.55178
 21
-66.21051
 31
48.4137
  0
LINE
  8
1
  5
EB
  6
CONTINUOUS
 62
7
 10
213.55178
 20
-66.21051
 30
48.4137
 11
197.55178
 21
-66.21051
 31
48.4137
  0
ARC
  8
1
  5
ED
  6
CONTINUOUS
 62
7
 210
0.0
 220
0.0
 230
-1.0
 10
-201.65178
 20
-90.31051
 30
-48.4137
 40
4.1
 50
0.0
 51
90.0
  0
LINE
  8
1
  5
EF
  6
CONTINUOUS
 62
7
 10
197.55178
 20
-92.11051
 30
48.4137
 11
197.55178
 21
-90.31051
 31
48.4137
  0
ARC
  8
1
  5
F1
  6
CONTINUOUS
 62
7
 210
0.0
 220
0.0
 230
-1.0
 10
-201.65178
 20
-92.11051
 30
-48.4137
 40
4.1
 50
270.0
 51
360.0
  0
LINE
  8
1
  5
F3
  6
CONTINUOUS
 62
7
 10
181.65178
 20
-96.21051
 30
48.4137
 11
201.65178
 21
-96.21051
 31
48.4137
  0
LINE
  8
1
  5
F5
  6
CONTINUOUS
 62
7
 10
201.65178
 20
-86.21051
 30
48.4137
 11
181.65178
 21
-86.21051
 31
48.4137
  0
LINE
  8
1
  5
F7
  6
CONTINUOUS
 62
7
 10
197.55178
 20
-66.21051
 30
64.4137
 11
197.55178
 21
-66.21051
 31
48.4137
  0
LINE
  8
1
  5
F9
  6
CONTINUOUS
 62
7
 10
213.55178
 20
-80.31051
 30
64.4137
 11
213.55178
 21
-80.31051
 31
48.4137
  0
LINE
  8
1
  5
FB
  6
CONTINUOUS
 62
7
 10
181.65178
 20
-86.21051
 30
64.4137
 11
181.65178
 21
-86.21051
 31
48.4137
  0
LINE
  8
1
  5
FD
  6
CONTINUOUS
 62
7
 10
181.65178
 20
-96.21051
 30
64.4137
 11
181.65178
 21
-96.21051
 31
48.4137
  0
LINE
  8
1
  5
FF
  6
CONTINUOUS
 62
7
 10
213.55178
 20
-102.11051
 30
64.4137
 11
213.55178
 21
-102.11051
 31
48.4137
  0
LINE
  8
1
  5
101
  6
CONTINUOUS
 62
7
 10
197.55178
 20
-116.21051
 30
64.4137
 11
197.55178
 21
-116.21051
 31
48.4137
  0
LINE
  8
1
  5
103
  6
CONTINUOUS
 62
7
 10
351.55178
 20
-66.21051
 30
64.4137
 11
197.55178
 21
-66.21051
 31
64.4137
  0
LINE
  8
1
  5
105
  6
CONTINUOUS
 62
7
 10
213.55178
 20
-80.31051
 30
64.4137
 11
213.55178
 21
-82.11051
 31
64.4137
  0
ARC
  8
1
  5
107
  6
CONTINUOUS
 62
7
 210
0.0
 220
0.0
 230
-1.0
 10
-209.45178
 20
-82.11051
 30
-64.4137
 40
4.1
 50
180.0
 51
270.0
  0
LINE
  8
1
  5
109
  6
CONTINUOUS
 62
7
 10
209.45178
 20
-86.21051
 30
64.4137
 11
181.65178
 21
-86.21051
 31
64.4137
  0
LINE
  8
1
  5
10B
  6
CONTINUOUS
 62
7
 10
181.65178
 20
-96.21051
 30
64.4137
 11
209.45178
 21
-96.21051
 31
64.4137
  0
ARC
  8
1
  5
10D
  6
CONTINUOUS
 62
7
 210
0.0
 220
0.0
 230
-1.0
 10
-209.45178
 20
-100.31051
 30
-64.4137
 40
4.1
 50
90.0
 51
180.0
  0
LINE
  8
1
  5
10F
  6
CONTINUOUS
 62
7
 10
213.55178
 20
-100.31051
 30
64.4137
 11
213.55178
 21
-102.11051
 31
64.4137
  0
LINE
  8
1
  5
111
  6
CONTINUOUS
 62
7
 10
197.55178
 20
-116.21051
 30
64.4137
 11
351.55178
 21
-116.21051
 31
64.4137
  0
LINE
  8
1
  5
113
  6
CONTINUOUS
 62
7
 10
351.55178
 20
-116.21051
 30
64.4137
 11
351.55178
 21
-66.21051
 31
64.4137
  0
LINE
  8
1
  5
115
  6
CONTINUOUS
 62
7
 10
351.55178
 20
-116.21051
 30
32.4137
 11
351.55178
 21
-116.21051
 31
64.4137
  0
LINE
  8
1
  5
117
  6
CONTINUOUS
 62
7
 10
351.55178
 20
-116.21051
 30
32.4137
 11
351.55178
 21
-66.21051
 31
32.4137
  0
LINE
  8
1
  5
119
  6
CONTINUOUS
 62
7
 10
351.55178
 20
-66.21051
 30
32.4137
 11
351.55178
 21
-66.21051
 31
64.4137
  0
LINE
  8
1
  5
11B
  6
CONTINUOUS
 62
7
 10
213.55178
 20
-116.21051
 30
32.4137
 11
213.55178
 21
-116.21051
 31
48.4137
  0
LINE
  8
1
  5
11D
  6
CONTINUOUS
 62
7
 10
213.55178
 20
-116.21051
 30
32.4137
 11
351.55178
 21
-116.21051
 31
32.4137
  0
LINE
  8
1
  5
11F
  6
CONTINUOUS
 62
7
 10
213.55178
 20
-100.31051
 30
64.4137
 11
213.55178
 21
-100.31051
 31
48.4137
  0
LINE
  8
1
  5
121
  6
CONTINUOUS
 62
7
 10
213.55178
 20
-100.31051
 30
32.4137
 11
213.55178
 21
-100.31051
 31
48.4137
  0
LINE
  8
1
  5
123
  6
CONTINUOUS
 62
7
 10
213.55178
 20
-100.31051
 30
32.4137
 11
213.55178
 21
-116.21051
 31
32.4137
  0
LINE
  8
1
  5
125
  6
CONTINUOUS
 62
7
 10
209.45178
 20
-96.21051
 30
32.4137
 11
209.45178
 21
-96.21051
 31
64.4137
  0
ARC
  8
1
  5
127
  6
CONTINUOUS
 62
7
 210
0.0
 220
0.0
 230
-1.0
 10
-209.45178
 20
-100.31051
 30
-32.4137
 40
4.1
 50
90.0
 51
180.0
  0
LINE
  8
1
  5
129
  6
CONTINUOUS
 62
7
 10
201.65178
 20
-96.21051
 30
32.4137
 11
201.65178
 21
-96.21051
 31
48.4137
  0
LINE
  8
1
  5
12B
  6
CONTINUOUS
 62
7
 10
201.65178
 20
-96.21051
 30
32.4137
 11
209.45178
 21
-96.21051
 31
32.4137
  0
LINE
  8
1
  5
12D
  6
CONTINUOUS
 62
7
 10
197.55178
 20
-92.11051
 30
32.4137
 11
197.55178
 21
-92.11051
 31
48.4137
  0
ARC
  8
1
  5
12F
  6
CONTINUOUS
 62
7
 10
201.65178
 20
-92.11051
 30
32.4137
 40
4.1
 50
180.0
 51
270.0
  0
LINE
  8
1
  5
131
  6
CONTINUOUS
 62
7
 10
197.55178
 20
-90.31051
 30
32.4137
 11
197.55178
 21
-90.31051
 31
48.4137
  0
LINE
  8
1
  5
133
  6
CONTINUOUS
 62
7
 10
197.55178
 20
-90.31051
 30
32.4137
 11
197.55178
 21
-92.11051
 31
32.4137
  0
LINE
  8
1
  5
135
  6
CONTINUOUS
 62
7
 10
201.65178
 20
-86.21051
 30
32.4137
 11
201.65178
 21
-86.21051
 31
48.4137
  0
ARC
  8
1
  5
137
  6
CONTINUOUS
 62
7
 10
201.65178
 20
-90.31051
 30
32.4137
 40
4.1
 50
90.0
 51
180.0
  0
LINE
  8
1
  5
139
  6
CONTINUOUS
 62
7
 10
209.45178
 20
-86.21051
 30
32.4137
 11
209.45178
 21
-86.21051
 31
48.4137
  0
LINE
  8
1
  5
13B
  6
CONTINUOUS
 62
7
 10
209.45178
 20
-86.21051
 30
32.4137
 11
201.65178
 21
-86.21051
 31
32.4137
  0
LINE
  8
1
  5
13D
  6
CONTINUOUS
 62
7
 10
209.45178
 20
-86.21051
 30
64.4137
 11
209.45178
 21
-86.21051
 31
48.4137
  0
LINE
  8
1
  5
13F
  6
CONTINUOUS
 62
7
 10
213.55178
 20
-82.11051
 30
32.4137
 11
213.55178
 21
-82.11051
 31
64.4137
  0
ARC
  8
1
  5
141
  6
CONTINUOUS
 62
7
 210
0.0
 220
0.0
 230
-1.0
 10
-209.45178
 20
-82.11051
 30
-32.4137
 40
4.1
 50
180.0
 51
270.0
  0
LINE
  8
1
  5
143
  6
CONTINUOUS
 62
7
 10
213.55178
 20
-66.21051
 30
32.4137
 11
213.55178
 21
-66.21051
 31
48.4137
  0
LINE
  8
1
  5
145
  6
CONTINUOUS
 62
7
 10
213.55178
 20
-66.21051
 30
32.4137
 11
213.55178
 21
-82.11051
 31
32.4137
  0
LINE
  8
1
  5
147
  6
CONTINUOUS
 62
7
 10
351.55178
 20
-66.21051
 30
32.4137
 11
213.55178
 21
-66.21051
 31
32.4137
  0
ENDBLK
  8
1
  5
148
  0
BLOCK
  8
1
  5
14A
 70
1
 10
0.0
 20
0.0
 30
0.0
  2
*M4
  3
*M4
  0
LINE
  8
1
  5
14C
  6
CONTINUOUS
 62
7
 10
197.55178
 20
-110.31051
 30
48.4137
 11
197.55178
 21
-116.21051
 31
48.4137
  0
ARC
  8
1
  5
14E
  6
CONTINUOUS
 62
7
 10
201.65178
 20
-110.31051
 30
48.4137
 40
4.1
 50
90.0
 51
180.0
  0
LINE
  8
1
  5
150
  6
CONTINUOUS
 62
7
 10
209.45178
 20
-106.21051
 30
48.4137
 11
201.65178
 21
-106.21051
 31
48.4137
  0
ARC
  8
1
  5
152
  6
CONTINUOUS
 62
7
 210
0.0
 220
0.0
 230
-1.0
 10
-209.45178
 20
-102.11051
 30
-48.4137
 40
4.1
 50
180.0
 51
270.0
  0
ARC
  8
1
  5
154
  6
CONTINUOUS
 62
7
 210
0.0
 220
0.0
 230
-1.0
 10
-209.45178
 20
-80.31051
 30
-48.4137
 40
4.1
 50
90.0
 51
180.0
  0
LINE
  8
1
  5
156
  6
CONTINUOUS
 62
7
 10
201.65178
 20
-76.21051
 30
48.4137
 11
209.45178
 21
-76.21051
 31
48.4137
  0
ARC
  8
1
  5
158
  6
CONTINUOUS
 62
7
 10
201.65178
 20
-72.11051
 30
48.4137
 40
4.1
 50
180.0
 51
270.0
  0
LINE
  8
1
  5
15A
  6
CONTINUOUS
 62
7
 10
197.55178
 20
-66.21051
 30
48.4137
 11
197.55178
 21
-72.11051
 31
48.4137
  0
ARC
  8
1
  5
15C
  6
CONTINUOUS
 62
7
 210
0.0
 220
0.0
 230
-1.0
 10
-181.65178
 20
-100.31051
 30
-48.4137
 40
4.1
 50
0.0
 51
90.0
  0
LINE
  8
1
  5
15E
  6
CONTINUOUS
 62
7
 10
177.55178
 20
-100.86729
 30
48.4137
 11
177.55178
 21
-100.31051
 31
48.4137
  0
ARC
  8
1
  5
160
  6
CONTINUOUS
 62
7
 10
173.45178
 20
-100.867286
 30
48.4137
 40
4.1
 50
255.0
 51
360.0
  0
LINE
  8
1
  5
162
  6
CONTINUOUS
 62
7
 10
164.59062
 20
-102.73758
 30
48.4137
 11
172.39062
 21
-104.82758
 31
48.4137
  0
ARC
  8
1
  5
164
  6
CONTINUOUS
 62
7
 10
165.65178
 20
-98.777283
 30
48.4137
 40
4.1
 50
180.0
 51
255.0
  0
LINE
  8
1
  5
166
  6
CONTINUOUS
 62
7
 10
161.55178
 20
-83.64374
 30
48.4137
 11
161.55178
 21
-98.77728
 31
48.4137
  0
ARC
  8
1
  5
168
  6
CONTINUOUS
 62
7
 10
165.65178
 20
-83.643737
 30
48.4137
 40
4.1
 50
105.0
 51
180.0
  0
LINE
  8
1
  5
16A
  6
CONTINUOUS
 62
7
 10
172.39062
 20
-77.59344
 30
48.4137
 11
164.59062
 21
-79.68344
 31
48.4137
  0
ARC
  8
1
  5
16C
  6
CONTINUOUS
 62
7
 10
173.45178
 20
-81.553734
 30
48.4137
 40
4.1
 50
360.0
 51
105.0
  0
LINE
  8
1
  5
16E
  6
CONTINUOUS
 62
7
 10
177.55178
 20
-82.11051
 30
48.4137
 11
177.55178
 21
-81.55373
 31
48.4137
  0
ARC
  8
1
  5
170
  6
CONTINUOUS
 62
7
 210
0.0
 220
0.0
 230
-1.0
 10
-181.65178
 20
-82.11051
 30
-48.4137
 40
4.1
 50
270.0
 51
360.0
  0
LINE
  8
1
  5
172
  6
CONTINUOUS
 62
7
 10
197.55178
 20
-72.11051
 30
64.4137
 11
197.55178
 21
-72.11051
 31
48.4137
  0
LINE
  8
1
  5
174
  6
CONTINUOUS
 62
7
 10
197.55178
 20
-66.21051
 30
64.4137
 11
197.55178
 21
-72.11051
 31
64.4137
  0
LINE
  8
1
  5
176
  6
CONTINUOUS
 62
7
 10
201.65178
 20
-76.21051
 30
64.4137
 11
201.65178
 21
-76.21051
 31
48.4137
  0
ARC
  8
1
  5
178
  6
CONTINUOUS
 62
7
 10
201.65178
 20
-72.11051
 30
64.4137
 40
4.1
 50
180.0
 51
270.0
  0
LINE
  8
1
  5
17A
  6
CONTINUOUS
 62
7
 10
209.45178
 20
-76.21051
 30
64.4137
 11
209.45178
 21
-76.21051
 31
48.4137
  0
LINE
  8
1
  5
17C
  6
CONTINUOUS
 62
7
 10
201.65178
 20
-76.21051
 30
64.4137
 11
209.45178
 21
-76.21051
 31
64.4137
  0
ARC
  8
1
  5
17E
  6
CONTINUOUS
 62
7
 210
0.0
 220
0.0
 230
-1.0
 10
-209.45178
 20
-80.31051
 30
-64.4137
 40
4.1
 50
90.0
 51
180.0
  0
LINE
  8
1
  5
180
  6
CONTINUOUS
 62
7
 10
177.55178
 20
-82.11051
 30
64.4137
 11
177.55178
 21
-82.11051
 31
48.4137
  0
ARC
  8
1
  5
182
  6
CONTINUOUS
 62
7
 210
0.0
 220
0.0
 230
-1.0
 10
-181.65178
 20
-82.11051
 30
-64.4137
 40
4.1
 50
270.0
 51
360.0
  0
LINE
  8
1
  5
184
  6
CONTINUOUS
 62
7
 10
177.55178
 20
-81.55373
 30
64.4137
 11
177.55178
 21
-81.55373
 31
48.4137
  0
LINE
  8
1
  5
186
  6
CONTINUOUS
 62
7
 10
177.55178
 20
-82.11051
 30
64.4137
 11
177.55178
 21
-81.55373
 31
64.4137
  0
LINE
  8
1
  5
188
  6
CONTINUOUS
 62
7
 10
172.39062
 20
-77.59344
 30
64.4137
 11
172.39062
 21
-77.59344
 31
48.4137
  0
ARC
  8
1
  5
18A
  6
CONTINUOUS
 62
7
 10
173.45178
 20
-81.553734
 30
64.4137
 40
4.1
 50
360.0
 51
105.0
  0
LINE
  8
1
  5
18C
  6
CONTINUOUS
 62
7
 10
164.59062
 20
-79.68344
 30
64.4137
 11
164.59062
 21
-79.68344
 31
48.4137
  0
LINE
  8
1
  5
18E
  6
CONTINUOUS
 62
7
 10
172.39062
 20
-77.59344
 30
64.4137
 11
164.59062
 21
-79.68344
 31
64.4137
  0
LINE
  8
1
  5
190
  6
CONTINUOUS
 62
7
 10
161.55178
 20
-83.64374
 30
64.4137
 11
161.55178
 21
-83.64374
 31
48.4137
  0
ARC
  8
1
  5
192
  6
CONTINUOUS
 62
7
 10
165.65178
 20
-83.643737
 30
64.4137
 40
4.1
 50
105.0
 51
180.0
  0
LINE
  8
1
  5
194
  6
CONTINUOUS
 62
7
 10
161.55178
 20
-98.77728
 30
64.4137
 11
161.55178
 21
-98.77728
 31
48.4137
  0
LINE
  8
1
  5
196
  6
CONTINUOUS
 62
7
 10
161.55178
 20
-83.64374
 30
64.4137
 11
161.55178
 21
-98.77728
 31
64.4137
  0
LINE
  8
1
  5
198
  6
CONTINUOUS
 62
7
 10
164.59062
 20
-102.73758
 30
64.4137
 11
164.59062
 21
-102.73758
 31
48.4137
  0
ARC
  8
1
  5
19A
  6
CONTINUOUS
 62
7
 10
165.65178
 20
-98.777283
 30
64.4137
 40
4.1
 50
180.0
 51
255.0
  0
LINE
  8
1
  5
19C
  6
CONTINUOUS
 62
7
 10
172.39062
 20
-104.82758
 30
64.4137
 11
172.39062
 21
-104.82758
 31
48.4137
  0
LINE
  8
1
  5
19E
  6
CONTINUOUS
 62
7
 10
164.59062
 20
-102.73758
 30
64.4137
 11
172.39062
 21
-104.82758
 31
64.4137
  0
LINE
  8
1
  5
1A0
  6
CONTINUOUS
 62
7
 10
177.55178
 20
-100.86729
 30
64.4137
 11
177.55178
 21
-100.86729
 31
48.4137
  0
ARC
  8
1
  5
1A2
  6
CONTINUOUS
 62
7
 10
173.45178
 20
-100.867286
 30
64.4137
 40
4.1
 50
255.0
 51
360.0
  0
LINE
  8
1
  5
1A4
  6
CONTINUOUS
 62
7
 10
177.55178
 20
-100.31051
 30
64.4137
 11
177.55178
 21
-100.31051
 31
48.4137
  0
LINE
  8
1
  5
1A6
  6
CONTINUOUS
 62
7
 10
177.55178
 20
-100.86729
 30
64.4137
 11
177.55178
 21
-100.31051
 31
64.4137
  0
ARC
  8
1
  5
1A8
  6
CONTINUOUS
 62
7
 210
0.0
 220
0.0
 230
-1.0
 10
-181.65178
 20
-100.31051
 30
-64.4137
 40
4.1
 50
0.0
 51
90.0
  0
LINE
  8
1
  5
1AA
  6
CONTINUOUS
 62
7
 10
209.45178
 20
-106.21051
 30
64.4137
 11
209.45178
 21
-106.21051
 31
48.4137
  0
ARC
  8
1
  5
1AC
  6
CONTINUOUS
 62
7
 210
0.0
 220
0.0
 230
-1.0
 10
-209.45178
 20
-102.11051
 30
-64.4137
 40
4.1
 50
180.0
 51
270.0
  0
LINE
  8
1
  5
1AE
  6
CONTINUOUS
 62
7
 10
201.65178
 20
-106.21051
 30
64.4137
 11
201.65178
 21
-106.21051
 31
48.4137
  0
LINE
  8
1
  5
1B0
  6
CONTINUOUS
 62
7
 10
209.45178
 20
-106.21051
 30
64.4137
 11
201.65178
 21
-106.21051
 31
64.4137
  0
LINE
  8
1
  5
1B2
  6
CONTINUOUS
 62
7
 10
197.55178
 20
-110.31051
 30
64.4137
 11
197.55178
 21
-110.31051
 31
48.4137
  0
ARC
  8
1
  5
1B4
  6
CONTINUOUS
 62
7
 10
201.65178
 20
-110.31051
 30
64.4137
 40
4.1
 50
90.0
 51
180.0
  0
LINE
  8
1
  5
1B6
  6
CONTINUOUS
 62
7
 10
197.55178
 20
-110.31051
 30
64.4137
 11
197.55178
 21
-116.21051
 31
64.4137
  0
ENDBLK
  8
1
  5
1B7
  0
BLOCK
  8
1
  5
1B9
 70
1
 10
0.0
 20
0.0
 30
0.0
  2
*M5
  3
*M5
  0
INSERT
  8
1
  5
1BB
  6
CONTINUOUS
 62
7
  2
*M3
 10
0.0
 20
0.0
 30
0.0
 41
1.0
 42
1.0
 43
1.0
 70
1
 71
1
  0
INSERT
  8
1
  5
1BD
  6
CONTINUOUS
 62
7
  2
*M4
 10
0.0
 20
0.0
 30
0.0
 41
1.0
 42
1.0
 43
1.0
 70
1
 71
1
  0
ENDBLK
  8
1
  5
1BE
  0
ENDSEC
  0
SECTION
  2
ENTITIES
  0
INSERT
  8
1
  5
2
  6
CONTINUOUS
 62
7
  2
*M2
 10
0.0
 20
0.0
 30
0.0
 41
1.0
 42
1.0
 43
1.0
 70
1
 71
1
  0
INSERT
  8
1
  5
4
  6
CONTINUOUS
 62
7
  2
*M5
 10
102.0
 20
0.0
 30
-48.4137
 41
1.0
 42
1.0
 43
1.0
 70
1
 71
1
  0
ENDSEC
  0
EOF
