  0
SECTION
  2
HEADER
  9
$ACADVER
  1
AC1009
  9
$INSBASE
 10
0.0
 20
0.0
 30
0.0
  9
$EXTMAX
 10
530.0
 20
163.85462
 30
14.07342
  9
$EXTMIN
 10
0.0
 20
-1.14538
 30
-0.92658
  9
$LIMMAX
 10
12.0
 20
9.0
  9
$LIMMIN
 10
0.0
 20
0.0
  9
$ORTHOMODE
 70
0
  9
$REGENMODE
 70
1
  9
$FILLMODE
 70
1
  9
$QTEXTMODE
 70
0
  9
$MIRRTEXT
 70
1
  9
$DRAGMODE
 70
2
  9
$LTSCALE
 40
1.0
  9
$OSMODE
 70
0
  9
$ATTMODE
 70
1
  9
$TEXTSIZE
 40
0.2
  9
$TRACEWID
 40
0.05
  9
$TEXTSTYLE
  7
STANDARD
  9
$CLAYER
  8
0
  9
$CELTYPE
  6
CONTINUOUS
  9
$CECOLOR
 62
256
  9
$DIMSCALE
 40
1.0
  9
$DIMASZ
 40
0.18
  9
$DIMEXO
 40
0.0625
  9
$DIMDLI
 40
0.38
  9
$DIMRND
 40
0.0
  9
$DIMDLE
 40
0.0
  9
$DIMEXE
 40
0.18
  9
$DIMTP
 40
0.0
  9
$DIMTM
 40
0.0
  9
$DIMTXT
 40
0.18
  9
$DIMCEN
 40
0.09
  9
$DIMTSZ
 40
0.0
  9
$DIMTOL
 70
0
  9
$DIMLIM
 70
0
  9
$DIMTIH
 70
1
  9
$DIMTOH
 70
1
  9
$DIMSE1
 70
0
  9
$DIMSE2
 70
0
  9
$DIMTAD
 70
0
  9
$DIMZIN
 70
0
  9
$DIMBLK
  1

  9
$DIMASO
 70
1
  9
$DIMSHO
 70
1
  9
$DIMPOST
  1

  9
$DIMAPOST
  1

  9
$DIMALT
 70
0
  9
$DIMALTD
 70
2
  9
$DIMALTF
 40
25.4
  9
$DIMLFAC
 40
1.0
  9
$DIMTOFL
 70
0
  9
$DIMTVP
 40
0.0
  9
$DIMTIX
 70
0
  9
$DIMSOXD
 70
0
  9
$DIMSAH
 70
0
  9
$DIMBLK1
  1

  9
$DIMBLK2
  1

  9
$DIMSTYLE
  2
*UNNAMED
  9
$DIMCLRD
 70
0
  9
$DIMCLRE
 70
0
  9
$DIMCLRT
 70
0
  9
$DIMTFAC
 40
1.0
  9
$DIMGAP
 40
0.09
  9
$LUNITS
 70
2
  9
$LUPREC
 70
4
  9
$AXISMODE
 70
0
  9
$AXISUNIT
 10
0.0
 20
0.0
  9
$SKETCHINC
 40
0.1
  9
$FILLETRAD
 40
0.0
  9
$AUNITS
 70
0
  9
$AUPREC
 70
0
  9
$MENU
  1
acad
  9
$ELEVATION
 40
0.0
  9
$PELEVATION
 40
0.0
  9
$THICKNESS
 40
0.0
  9
$LIMCHECK
 70
0
  9
$BLIPMODE
 70
1
  9
$CHAMFERA
 40
0.0
  9
$CHAMFERB
 40
0.0
  9
$SKPOLY
 70
0
  9
$TDCREATE
 40
0.0
  9
$TDUPDATE
 40
0.0
  9
$TDINDWG
 40
0.0
  9
$TDUSRTIMER
 40
0.0
  9
$USRTIMER
 70
1
  9
$ANGBASE
 50
0.0
  9
$ANGDIR
 70
0
  9
$PDMODE
 70
0
  9
$PDSIZE
 40
0.0
  9
$PLINEWID
 40
0.0
  9
$COORDS
 70
0
  9
$SPLFRAME
 70
0
  9
$SPLINETYPE
 70
6
  9
$SPLINESEGS
 70
10
  9
$ATTDIA
 70
0
  9
$ATTREQ
 70
1
  9
$HANDLING
 70
1
  9
$HANDSEED
  5
2CC
  9
$SURFTAB1
 70
6
  9
$SURFTAB2
 70
6
  9
$SURFTYPE
 70
6
  9
$SURFU
 70
10
  9
$SURFV
 70
10
  9
$UCSNAME
  2

  9
$UCSORG
 10
0.0
 20
0.0
 30
0.0
  9
$UCSXDIR
 10
1.0
 20
0.0
 30
0.0
  9
$UCSYDIR
 10
0.0
 20
1.0
 30
0.0
  9
$PUCSNAME
  2
 
  9
$PUCSORG
 10
0.0
 20
0.0
 30
0.0
  9
$PUCSXDIR
 10
1.0
 20
0.0
 30
0.0
  9
$PUCSYDIR
 10
0.0
 20
1.0
 30
0.0
  9
$USERI1
 70
0
  9
$USERI2
 70
0
  9
$USERI3
 70
0
  9
$USERI4
 70
0
  9
$USERI5
 70
0
  9
$USERR1
 40
0.0
  9
$USERR2
 40
0.0
  9
$USERR3
 40
0.0
  9
$USERR4
 40
0.0
  9
$USERR5
 40
0.0
  9
$WORLDVIEW
 70
1
  9
$SHADEDGE
 70
3
  9
$SHADEDIF
 70
70
  9
$TILEMODE
 70
1
  9
$MAXACTVP
 70
16
  9
$PINSBASE
 10
0.0
 20
0.0
 30
0.0
  9
$PLIMCHECK
 70
0
  9
$PEXTMIN
 10
-1.000000E+020
 20
-1.000000E+020
 30
-1.000000E+020
  9
$PEXTMAX
 10
-1.000000E+020
 20
-1.000000E+020
 30
-1.000000E+020
  9
$PLIMMIN
 10
0.0
 20
0.0
  9
$PLIMMAX
 10
12.0
 20
9.0
  9
$UNITMODE
 70
0
  9
$VISRETAIN
 70
0
  0
ENDSEC
  0
SECTION
  2
TABLES
  0
TABLE
  2
LTYPE
 70
7
  0
LTYPE
  2
CONTINUOUS
 70
64
  3
Solid line
 72
65
 73
0
 40
0.0
  0
LTYPE
  2
DOT
 70
64
  3
. . . . . . . . . . . . . . . . . . . . . . . . . . . . . . . . .
 72
65
 73
2
 40
0.25
 49
0.0
 49
-0.25
  0
LTYPE
  2
HIDDEN
 70
64
  3
__ __ __ __ __ __ __ __ __ __ __ __ __ __ __ __ __ __ __ __ __ 
 72
65
 73
2
 40
0.375
 49
0.25
 49
-0.125
  0
LTYPE
  2
DASHED
 70
64
  3
__ __ __ __ __ __ __ __ __ __ __ __ __ __ __ __ __ __ __ __ __
 72
65
 73
2
 40
0.75
 49
0.5
 49
-0.25
  0
LTYPE
  2
DASHDOT
 70
64
  3
__ . __ . __ . __ . __ . __ . __ . __ . __ . __ . __ . __ . _
 72
65
 73
4
 40
1.0
 49
0.5
 49
-0.25
 49
0.0
 49
-0.25
  0
LTYPE
  2
DIVIDE
 70
64
  3
____ . . ____ . . ____ . . ____ . . ____ . . ____ . . ____ . .
 72
65
 73
6
 40
1.25
 49
0.5
 49
-0.25
 49
0.0
 49
-0.25
 49
0.0
 49
-0.25
  0
LTYPE
  2
CENTER
 70
64
  3
____ _ ____ _ ____ _ ____ _ ____ _ ____ _ ____ _ ____ _ ____ _
 72
65
 73
4
 40
2.0
 49
1.25
 49
-0.25
 49
0.25
 49
-0.25
  0
ENDTAB
  0
TABLE
  2
APPID
 70
1
  0
APPID
  2
ACAD
 70
0
  0
ENDTAB
  0
TABLE
  2
DIMSTYLE
 70
0
  0
ENDTAB
  0
TABLE
  2
LAYER
 70
4
  0
LAYER
  2
0
 70
0
 62
7
  6
CONTINUOUS
  0
LAYER
  2
CONSTRUCTION_CLASS
 70
0
 62
7
  6
CONTINUOUS
  0
LAYER
  2
PATTERN_CLASS
 70
0
 62
7
  6
CONTINUOUS
  0
LAYER
  2
1
 70
0
 62
7
  6
CONTINUOUS
  0
ENDTAB
  0
TABLE
  2
STYLE
 70
1
  0
STYLE
  2
STANDARD
 70
0
 40
0.2
 41
1.0
 50
0.0
 71
0
 42
0.0
  3
txt
  4

  0
ENDTAB
  0
TABLE
  2
UCS
 70
0
  0
ENDTAB
  0
TABLE
  2
VIEW
 70
0
  0
ENDTAB
  0
TABLE
  2
VPORT
 70
4
  0
VPORT
  2
*ACTIVE
 70
0
 10
0.500821
 20
0.50171
 11
0.998358
 21
0.997719
 12
0.0
 22
-2.842171E-014
 13
0.0
 23
0.0
 14
0.0
 24
0.0
 15
0.0
 25
0.0
 16
0.0
 26
-7.749169E-014
 36
1265.57714
 17
226.108766
 27
73.38149
 37
6.57342
 40
333.84386
 41
1.393103
 42
50.0
 43
632.78857
 44
-632.78857
 50
0.0
 51
0.0
 71
22
 72
100
 73
1
 74
0
 75
0
 76
0
 77
0
 78
0
  0
VPORT
  2
*ACTIVE
 70
0
 10
0.001642
 20
0.50171
 11
0.499179
 21
0.997719
 12
-2.842171E-014
 22
0.0
 13
0.0
 23
0.0
 14
0.0
 24
0.0
 15
0.0
 25
0.0
 16
-245.160245
 26
-245.160245
 36
245.160245
 17
250.312024
 27
96.042588
 37
6.573419
 40
331.76383
 41
1.393103
 42
50.0
 43
212.315
 44
-212.315
 50
0.0
 51
0.0
 71
22
 72
100
 73
1
 74
0
 75
0
 76
0
 77
0
 78
0
  0
VPORT
  2
*ACTIVE
 70
0
 10
0.001642
 20
0.003421
 11
0.499179
 21
0.49943
 12
0.0
 22
0.0
 13
0.0
 23
0.0
 14
0.0
 24
0.0
 15
0.0
 25
0.0
 16
0.0
 26
-1244.7732
 36
0.0
 17
223.849731
 27
81.92731
 37
6.573415
 40
330.60069
 41
1.393103
 42
50.0
 43
622.3866
 44
-622.3866
 50
0.0
 51
0.0
 71
22
 72
100
 73
1
 74
0
 75
0
 76
0
 77
0
 78
0
  0
VPORT
  2
*ACTIVE
 70
0
 10
0.500821
 20
0.003421
 11
0.998358
 21
0.49943
 12
-1.421085E-014
 22
0.0
 13
0.0
 23
0.0
 14
0.0
 24
0.0
 15
0.0
 25
0.0
 16
2160.0
 26
0.0
 36
0.0
 17
270.0
 27
70.685958
 37
7.036705
 40
111.33463
 41
1.393103
 42
50.0
 43
1080.0
 44
-1080.0
 50
0.0
 51
0.0
 71
22
 72
100
 73
1
 74
0
 75
0
 76
0
 77
0
 78
0
  0
ENDTAB
  0
ENDSEC
  0
SECTION
  2
BLOCKS
  0
BLOCK
  8
1
  5
6
 70
1
 10
0.0
 20
0.0
 30
0.0
  2
*M0
  3
*M0
  0
LINE
  8
1
  5
8
  6
CONTINUOUS
 62
7
 10
220.90229
 20
-14.85
 30
-7.5
 11
240.0
 21
-14.85
 31
-7.5
  0
LINE
  8
1
  5
A
  6
CONTINUOUS
 62
7
 10
220.90229
 20
-14.85
 30
0.0
 11
220.90229
 21
-14.85
 31
-7.5
  0
LINE
  8
1
  5
C
  6
CONTINUOUS
 62
7
 10
240.0
 20
-14.85
 30
0.0
 11
220.90229
 21
-14.85
 31
0.0
  0
LINE
  8
1
  5
E
  6
CONTINUOUS
 62
7
 10
240.0
 20
-14.85
 30
-7.5
 11
240.0
 21
-14.85
 31
0.0
  0
LINE
  8
1
  5
10
  6
CONTINUOUS
 62
7
 10
220.90229
 20
-68.15
 30
-7.5
 11
240.0
 21
-68.15
 31
-7.5
  0
LINE
  8
1
  5
12
  6
CONTINUOUS
 62
7
 10
220.90229
 20
-68.15
 30
0.0
 11
220.90229
 21
-68.15
 31
-7.5
  0
LINE
  8
1
  5
14
  6
CONTINUOUS
 62
7
 10
240.0
 20
-68.15
 30
0.0
 11
220.90229
 21
-68.15
 31
0.0
  0
LINE
  8
1
  5
16
  6
CONTINUOUS
 62
7
 10
240.0
 20
-68.15
 30
-7.5
 11
240.0
 21
-68.15
 31
0.0
  0
LINE
  8
1
  5
18
  6
CONTINUOUS
 62
7
 10
220.90229
 20
-121.45
 30
-7.5
 11
240.0
 21
-121.45
 31
-7.5
  0
LINE
  8
1
  5
1A
  6
CONTINUOUS
 62
7
 10
220.90229
 20
-121.45
 30
0.0
 11
220.90229
 21
-121.45
 31
-7.5
  0
LINE
  8
1
  5
1C
  6
CONTINUOUS
 62
7
 10
240.0
 20
-121.45
 30
0.0
 11
220.90229
 21
-121.45
 31
0.0
  0
LINE
  8
1
  5
1E
  6
CONTINUOUS
 62
7
 10
240.0
 20
-121.45
 30
-7.5
 11
240.0
 21
-121.45
 31
0.0
  0
LINE
  8
1
  5
20
  6
CONTINUOUS
 62
7
 10
240.0
 20
-43.55
 30
-7.5
 11
220.90229
 21
-43.55
 31
-7.5
  0
LINE
  8
1
  5
22
  6
CONTINUOUS
 62
7
 10
240.0
 20
-43.55
 30
0.0
 11
240.0
 21
-43.55
 31
-7.5
  0
LINE
  8
1
  5
24
  6
CONTINUOUS
 62
7
 10
220.90229
 20
-43.55
 30
0.0
 11
240.0
 21
-43.55
 31
0.0
  0
LINE
  8
1
  5
26
  6
CONTINUOUS
 62
7
 10
220.90229
 20
-43.55
 30
0.0
 11
220.90229
 21
-43.55
 31
-7.5
  0
LINE
  8
1
  5
28
  6
CONTINUOUS
 62
7
 10
240.0
 20
-96.85
 30
-7.5
 11
220.90229
 21
-96.85
 31
-7.5
  0
LINE
  8
1
  5
2A
  6
CONTINUOUS
 62
7
 10
240.0
 20
-96.85
 30
0.0
 11
240.0
 21
-96.85
 31
-7.5
  0
LINE
  8
1
  5
2C
  6
CONTINUOUS
 62
7
 10
220.90229
 20
-96.85
 30
0.0
 11
240.0
 21
-96.85
 31
0.0
  0
LINE
  8
1
  5
2E
  6
CONTINUOUS
 62
7
 10
220.90229
 20
-96.85
 30
0.0
 11
220.90229
 21
-96.85
 31
-7.5
  0
LINE
  8
1
  5
30
  6
CONTINUOUS
 62
7
 10
240.0
 20
-150.15
 30
-7.5
 11
220.90229
 21
-150.15
 31
-7.5
  0
LINE
  8
1
  5
32
  6
CONTINUOUS
 62
7
 10
240.0
 20
-150.15
 30
0.0
 11
240.0
 21
-150.15
 31
-7.5
  0
LINE
  8
1
  5
34
  6
CONTINUOUS
 62
7
 10
220.90229
 20
-150.15
 30
0.0
 11
240.0
 21
-150.15
 31
0.0
  0
LINE
  8
1
  5
36
  6
CONTINUOUS
 62
7
 10
220.90229
 20
-150.15
 30
0.0
 11
220.90229
 21
-150.15
 31
-7.5
  0
ENDBLK
  8
1
  5
37
  0
BLOCK
  8
1
  5
39
 70
1
 10
0.0
 20
0.0
 30
0.0
  2
*M1
  3
*M1
  0
LINE
  8
1
  5
3B
  6
CONTINUOUS
 62
7
 10
216.80229
 20
-47.65
 30
-7.5
 11
216.80229
 21
-47.65
 31
0.0
  0
LINE
  8
1
  5
3D
  6
CONTINUOUS
 62
7
 10
220.90229
 20
-51.75
 30
-7.5
 11
220.90229
 21
-51.75
 31
7.5
  0
LINE
  8
1
  5
3F
  6
CONTINUOUS
 62
7
 10
216.80229
 20
-100.95
 30
-7.5
 11
216.80229
 21
-100.95
 31
0.0
  0
LINE
  8
1
  5
41
  6
CONTINUOUS
 62
7
 10
220.90229
 20
-105.05
 30
-7.5
 11
220.90229
 21
-105.05
 31
7.5
  0
LINE
  8
1
  5
43
  6
CONTINUOUS
 62
7
 10
216.80229
 20
-154.25
 30
-7.5
 11
216.80229
 21
-154.25
 31
0.0
  0
LINE
  8
1
  5
45
  6
CONTINUOUS
 62
7
 10
220.90229
 20
-158.35
 30
-7.5
 11
220.90229
 21
-158.35
 31
7.5
  0
LINE
  8
1
  5
47
  6
CONTINUOUS
 62
7
 10
216.80229
 20
-117.35
 30
-7.5
 11
216.80229
 21
-117.35
 31
7.5
  0
LINE
  8
1
  5
49
  6
CONTINUOUS
 62
7
 10
220.90229
 20
-121.45
 30
-7.5
 11
220.90229
 21
-121.45
 31
0.0
  0
LINE
  8
1
  5
4B
  6
CONTINUOUS
 62
7
 10
216.80229
 20
-64.05
 30
-7.5
 11
216.80229
 21
-64.05
 31
7.5
  0
LINE
  8
1
  5
4D
  6
CONTINUOUS
 62
7
 10
220.90229
 20
-68.15
 30
-7.5
 11
220.90229
 21
-68.15
 31
0.0
  0
LINE
  8
1
  5
4F
  6
CONTINUOUS
 62
7
 10
216.80229
 20
-10.75
 30
-7.5
 11
216.80229
 21
-10.75
 31
7.5
  0
LINE
  8
1
  5
51
  6
CONTINUOUS
 62
7
 10
220.90229
 20
-14.85
 30
-7.5
 11
220.90229
 21
-14.85
 31
0.0
  0
ARC
  8
1
  5
53
  6
CONTINUOUS
 62
7
 210
0.0
 220
0.0
 230
-1.0
 10
-220.90229
 20
-64.05
 30
2.328306E-015
 40
4.1
 50
270.0
 51
360.0
  0
LINE
  8
1
  5
55
  6
CONTINUOUS
 62
7
 10
216.80229
 20
-64.05
 30
0.0
 11
216.80229
 21
-68.15
 31
0.0
  0
ARC
  8
1
  5
57
  6
CONTINUOUS
 62
7
 10
220.90229
 20
-68.15
 30
-2.328306E-015
 40
4.1
 50
180.0
 51
270.0
  0
LINE
  8
1
  5
59
  6
CONTINUOUS
 62
7
 10
220.90229
 20
-72.25
 30
0.0
 11
240.0
 21
-72.25
 31
0.0
  0
LINE
  8
1
  5
5B
  6
CONTINUOUS
 62
7
 10
240.0
 20
-72.25
 30
0.0
 11
240.0
 21
-68.15
 31
0.0
  0
ARC
  8
1
  5
5D
  6
CONTINUOUS
 62
7
 210
0.0
 220
0.0
 230
-1.0
 10
-220.90229
 20
-47.65
 30
4.656613E-015
 40
4.1
 50
0.0
 51
90.0
  0
LINE
  8
1
  5
5F
  6
CONTINUOUS
 62
7
 10
240.0
 20
-43.55
 30
0.0
 11
240.0
 21
-39.45
 31
0.0
  0
LINE
  8
1
  5
61
  6
CONTINUOUS
 62
7
 10
240.0
 20
-39.45
 30
0.0
 11
220.90229
 21
-39.45
 31
0.0
  0
ARC
  8
1
  5
63
  6
CONTINUOUS
 62
7
 10
220.90229
 20
-43.55
 30
-4.656613E-015
 40
4.1
 50
90.0
 51
180.0
  0
LINE
  8
1
  5
65
  6
CONTINUOUS
 62
7
 10
216.80229
 20
-43.55
 30
0.0
 11
216.80229
 21
-47.65
 31
0.0
  0
ARC
  8
1
  5
67
  6
CONTINUOUS
 62
7
 210
0.0
 220
0.0
 230
-1.0
 10
-220.90229
 20
-117.35
 30
-3.492460E-015
 40
4.1
 50
270.0
 51
360.0
  0
LINE
  8
1
  5
69
  6
CONTINUOUS
 62
7
 10
216.80229
 20
-117.35
 30
0.0
 11
216.80229
 21
-121.45
 31
0.0
  0
ARC
  8
1
  5
6B
  6
CONTINUOUS
 62
7
 10
220.90229
 20
-121.45
 30
4.656613E-015
 40
4.1
 50
180.0
 51
270.0
  0
LINE
  8
1
  5
6D
  6
CONTINUOUS
 62
7
 10
220.90229
 20
-125.55
 30
0.0
 11
240.0
 21
-125.55
 31
0.0
  0
LINE
  8
1
  5
6F
  6
CONTINUOUS
 62
7
 10
240.0
 20
-125.55
 30
0.0
 11
240.0
 21
-121.45
 31
0.0
  0
ARC
  8
1
  5
71
  6
CONTINUOUS
 62
7
 210
0.0
 220
0.0
 230
-1.0
 10
-220.90229
 20
-100.95
 30
-2.328306E-015
 40
4.1
 50
0.0
 51
90.0
  0
LINE
  8
1
  5
73
  6
CONTINUOUS
 62
7
 10
240.0
 20
-96.85
 30
0.0
 11
240.0
 21
-92.75
 31
0.0
  0
LINE
  8
1
  5
75
  6
CONTINUOUS
 62
7
 10
240.0
 20
-92.75
 30
0.0
 11
220.90229
 21
-92.75
 31
0.0
  0
ARC
  8
1
  5
77
  6
CONTINUOUS
 62
7
 10
220.90229
 20
-96.85
 30
1.164153E-015
 40
4.1
 50
90.0
 51
180.0
  0
LINE
  8
1
  5
79
  6
CONTINUOUS
 62
7
 10
216.80229
 20
-96.85
 30
0.0
 11
216.80229
 21
-100.95
 31
0.0
  0
LINE
  8
1
  5
7B
  6
CONTINUOUS
 62
7
 10
225.00229
 20
0.0
 30
-7.5
 11
225.00229
 21
-6.65
 31
-7.5
  0
LINE
  8
1
  5
7D
  6
CONTINUOUS
 62
7
 10
225.00229
 20
-6.65
 30
-7.5
 11
220.90229
 21
-6.65
 31
-7.5
  0
ARC
  8
1
  5
7F
  6
CONTINUOUS
 62
7
 10
220.90229
 20
-10.75
 30
-7.5
 40
4.1
 50
90.0
 51
270.0
  0
ARC
  8
1
  5
81
  6
CONTINUOUS
 62
7
 10
220.90229
 20
-47.65
 30
-7.5
 40
4.1
 50
90.0
 51
270.0
  0
LINE
  8
1
  5
83
  6
CONTINUOUS
 62
7
 10
220.90229
 20
-51.75
 30
-7.5
 11
225.00229
 21
-51.75
 31
-7.5
  0
LINE
  8
1
  5
85
  6
CONTINUOUS
 62
7
 10
225.00229
 20
-51.75
 30
-7.5
 11
225.00229
 21
-59.95
 31
-7.5
  0
LINE
  8
1
  5
87
  6
CONTINUOUS
 62
7
 10
225.00229
 20
-59.95
 30
-7.5
 11
220.90229
 21
-59.95
 31
-7.5
  0
ARC
  8
1
  5
89
  6
CONTINUOUS
 62
7
 10
220.90229
 20
-64.05
 30
-7.5
 40
4.1
 50
90.0
 51
270.0
  0
ARC
  8
1
  5
8B
  6
CONTINUOUS
 62
7
 10
220.90229
 20
-100.95
 30
-7.5
 40
4.1
 50
90.0
 51
270.0
  0
LINE
  8
1
  5
8D
  6
CONTINUOUS
 62
7
 10
220.90229
 20
-105.05
 30
-7.5
 11
225.00229
 21
-105.05
 31
-7.5
  0
LINE
  8
1
  5
8F
  6
CONTINUOUS
 62
7
 10
225.00229
 20
-105.05
 30
-7.5
 11
225.00229
 21
-113.25
 31
-7.5
  0
LINE
  8
1
  5
91
  6
CONTINUOUS
 62
7
 10
225.00229
 20
-113.25
 30
-7.5
 11
220.90229
 21
-113.25
 31
-7.5
  0
ARC
  8
1
  5
93
  6
CONTINUOUS
 62
7
 10
220.90229
 20
-117.35
 30
-7.5
 40
4.1
 50
90.0
 51
270.0
  0
ARC
  8
1
  5
95
  6
CONTINUOUS
 62
7
 10
220.90229
 20
-154.25
 30
-7.5
 40
4.1
 50
90.0
 51
270.0
  0
LINE
  8
1
  5
97
  6
CONTINUOUS
 62
7
 10
220.90229
 20
-158.35
 30
-7.5
 11
225.00229
 21
-158.35
 31
-7.5
  0
LINE
  8
1
  5
99
  6
CONTINUOUS
 62
7
 10
225.00229
 20
-158.35
 30
-7.5
 11
225.00229
 21
-165.0
 31
-7.5
  0
LINE
  8
1
  5
9B
  6
CONTINUOUS
 62
7
 10
225.00229
 20
-165.0
 30
-7.5
 11
225.00229
 21
-165.0
 31
7.5
  0
ARC
  8
1
  5
9D
  6
CONTINUOUS
 62
7
 210
0.0
 220
0.0
 230
-1.0
 10
-220.90229
 20
-154.25
 30
-8.149073E-015
 40
4.1
 50
0.0
 51
90.0
  0
LINE
  8
1
  5
9F
  6
CONTINUOUS
 62
7
 10
240.0
 20
-150.15
 30
0.0
 11
240.0
 21
-146.05
 31
0.0
  0
LINE
  8
1
  5
A1
  6
CONTINUOUS
 62
7
 10
240.0
 20
-146.05
 30
0.0
 11
220.90229
 21
-146.05
 31
0.0
  0
ARC
  8
1
  5
A3
  6
CONTINUOUS
 62
7
 10
220.90229
 20
-150.15
 30
8.149073E-015
 40
4.1
 50
90.0
 51
180.0
  0
LINE
  8
1
  5
A5
  6
CONTINUOUS
 62
7
 10
216.80229
 20
-150.15
 30
0.0
 11
216.80229
 21
-154.25
 31
0.0
  0
LINE
  8
1
  5
A7
  6
CONTINUOUS
 62
7
 10
240.0
 20
-125.55
 30
0.0
 11
240.0
 21
-125.55
 31
7.5
  0
LINE
  8
1
  5
A9
  6
CONTINUOUS
 62
7
 10
240.0
 20
-146.05
 30
7.5
 11
240.0
 21
-146.05
 31
0.0
  0
LINE
  8
1
  5
AB
  6
CONTINUOUS
 62
7
 10
240.0
 20
-72.25
 30
0.0
 11
240.0
 21
-72.25
 31
7.5
  0
LINE
  8
1
  5
AD
  6
CONTINUOUS
 62
7
 10
240.0
 20
-92.75
 30
7.5
 11
240.0
 21
-92.75
 31
0.0
  0
LINE
  8
1
  5
AF
  6
CONTINUOUS
 62
7
 10
240.0
 20
-18.95
 30
0.0
 11
240.0
 21
-18.95
 31
7.5
  0
LINE
  8
1
  5
B1
  6
CONTINUOUS
 62
7
 10
240.0
 20
-39.45
 30
7.5
 11
240.0
 21
-39.45
 31
0.0
  0
LINE
  8
1
  5
B3
  6
CONTINUOUS
 62
7
 10
240.0
 20
-18.95
 30
0.0
 11
240.0
 21
-14.85
 31
0.0
  0
LINE
  8
1
  5
B5
  6
CONTINUOUS
 62
7
 10
220.90229
 20
-6.65
 30
7.5
 11
225.00229
 21
-6.65
 31
7.5
  0
LINE
  8
1
  5
B7
  6
CONTINUOUS
 62
7
 10
220.90229
 20
-6.65
 30
7.5
 11
220.90229
 21
-6.65
 31
-7.5
  0
LINE
  8
1
  5
B9
  6
CONTINUOUS
 62
7
 10
225.00229
 20
-6.65
 30
7.5
 11
225.00229
 21
-6.65
 31
-7.5
  0
LINE
  8
1
  5
BB
  6
CONTINUOUS
 62
7
 10
225.00229
 20
-51.75
 30
7.5
 11
220.90229
 21
-51.75
 31
7.5
  0
LINE
  8
1
  5
BD
  6
CONTINUOUS
 62
7
 10
225.00229
 20
-51.75
 30
7.5
 11
225.00229
 21
-51.75
 31
-7.5
  0
LINE
  8
1
  5
BF
  6
CONTINUOUS
 62
7
 10
220.90229
 20
-51.75
 30
7.5
 11
220.90229
 21
-51.75
 31
-7.5
  0
LINE
  8
1
  5
C1
  6
CONTINUOUS
 62
7
 10
225.00229
 20
-6.65
 30
7.5
 11
225.00229
 21
0.0
 31
7.5
  0
LINE
  8
1
  5
C3
  6
CONTINUOUS
 62
7
 10
225.00229
 20
0.0
 30
7.5
 11
225.00229
 21
0.0
 31
-7.5
  0
ARC
  8
1
  5
C5
  6
CONTINUOUS
 62
7
 210
0.0
 220
0.0
 230
-1.0
 10
-220.90229
 20
-47.65
 30
-7.5
 40
4.1
 50
270.0
 51
360.0
  0
LINE
  8
1
  5
C7
  6
CONTINUOUS
 62
7
 10
216.80229
 20
-47.65
 30
0.0
 11
216.80229
 21
-47.65
 31
7.5
  0
LINE
  8
1
  5
C9
  6
CONTINUOUS
 62
7
 10
216.80229
 20
-47.65
 30
7.5
 11
216.80229
 21
-43.55
 31
7.5
  0
LINE
  8
1
  5
CB
  6
CONTINUOUS
 62
7
 10
216.80229
 20
-43.55
 30
0.0
 11
216.80229
 21
-43.55
 31
7.5
  0
ARC
  8
1
  5
CD
  6
CONTINUOUS
 62
7
 210
0.0
 220
0.0
 230
-1.0
 10
-220.90229
 20
-43.55
 30
-7.5
 40
4.1
 50
360.0
 51
90.0
  0
LINE
  8
1
  5
CF
  6
CONTINUOUS
 62
7
 10
220.90229
 20
-39.45
 30
0.0
 11
220.90229
 21
-39.45
 31
7.5
  0
ARC
  8
1
  5
D1
  6
CONTINUOUS
 62
7
 210
0.0
 220
0.0
 230
-1.0
 10
-220.90229
 20
-100.95
 30
-7.5
 40
4.1
 50
270.0
 51
360.0
  0
LINE
  8
1
  5
D3
  6
CONTINUOUS
 62
7
 10
220.90229
 20
-105.05
 30
7.5
 11
220.90229
 21
-105.05
 31
-7.5
  0
LINE
  8
1
  5
D5
  6
CONTINUOUS
 62
7
 10
216.80229
 20
-100.95
 30
0.0
 11
216.80229
 21
-100.95
 31
7.5
  0
LINE
  8
1
  5
D7
  6
CONTINUOUS
 62
7
 10
220.90229
 20
-39.45
 30
7.5
 11
240.0
 21
-39.45
 31
7.5
  0
LINE
  8
1
  5
D9
  6
CONTINUOUS
 62
7
 10
216.80229
 20
-100.95
 30
7.5
 11
216.80229
 21
-96.85
 31
7.5
  0
LINE
  8
1
  5
DB
  6
CONTINUOUS
 62
7
 10
216.80229
 20
-96.85
 30
0.0
 11
216.80229
 21
-96.85
 31
7.5
  0
ARC
  8
1
  5
DD
  6
CONTINUOUS
 62
7
 210
0.0
 220
0.0
 230
-1.0
 10
-220.90229
 20
-96.85
 30
-7.5
 40
4.1
 50
360.0
 51
90.0
  0
LINE
  8
1
  5
DF
  6
CONTINUOUS
 62
7
 10
220.90229
 20
-92.75
 30
0.0
 11
220.90229
 21
-92.75
 31
7.5
  0
ARC
  8
1
  5
E1
  6
CONTINUOUS
 62
7
 210
0.0
 220
0.0
 230
-1.0
 10
-220.90229
 20
-154.25
 30
-7.5
 40
4.1
 50
270.0
 51
360.0
  0
LINE
  8
1
  5
E3
  6
CONTINUOUS
 62
7
 10
220.90229
 20
-158.35
 30
7.5
 11
220.90229
 21
-158.35
 31
-7.5
  0
LINE
  8
1
  5
E5
  6
CONTINUOUS
 62
7
 10
216.80229
 20
-154.25
 30
0.0
 11
216.80229
 21
-154.25
 31
7.5
  0
LINE
  8
1
  5
E7
  6
CONTINUOUS
 62
7
 10
220.90229
 20
-92.75
 30
7.5
 11
240.0
 21
-92.75
 31
7.5
  0
LINE
  8
1
  5
E9
  6
CONTINUOUS
 62
7
 10
216.80229
 20
-154.25
 30
7.5
 11
216.80229
 21
-150.15
 31
7.5
  0
LINE
  8
1
  5
EB
  6
CONTINUOUS
 62
7
 10
216.80229
 20
-150.15
 30
0.0
 11
216.80229
 21
-150.15
 31
7.5
  0
ARC
  8
1
  5
ED
  6
CONTINUOUS
 62
7
 210
0.0
 220
0.0
 230
-1.0
 10
-220.90229
 20
-150.15
 30
-7.5
 40
4.1
 50
360.0
 51
90.0
  0
LINE
  8
1
  5
EF
  6
CONTINUOUS
 62
7
 10
220.90229
 20
-146.05
 30
0.0
 11
220.90229
 21
-146.05
 31
7.5
  0
ARC
  8
1
  5
F1
  6
CONTINUOUS
 62
7
 210
0.0
 220
0.0
 230
-1.0
 10
-220.90229
 20
-10.75
 30
9.313226E-015
 40
4.1
 50
270.0
 51
360.0
  0
LINE
  8
1
  5
F3
  6
CONTINUOUS
 62
7
 10
216.80229
 20
-10.75
 30
0.0
 11
216.80229
 21
-14.85
 31
0.0
  0
ARC
  8
1
  5
F5
  6
CONTINUOUS
 62
7
 10
220.90229
 20
-14.85
 30
-8.149073E-015
 40
4.1
 50
180.0
 51
270.0
  0
LINE
  8
1
  5
F7
  6
CONTINUOUS
 62
7
 10
220.90229
 20
-18.95
 30
0.0
 11
240.0
 21
-18.95
 31
0.0
  0
LINE
  8
1
  5
F9
  6
CONTINUOUS
 62
7
 10
220.90229
 20
-146.05
 30
7.5
 11
240.0
 21
-146.05
 31
7.5
  0
ARC
  8
1
  5
FB
  6
CONTINUOUS
 62
7
 210
0.0
 220
0.0
 230
-1.0
 10
-220.90229
 20
-121.45
 30
-7.5
 40
4.1
 50
270.0
 51
360.0
  0
LINE
  8
1
  5
FD
  6
CONTINUOUS
 62
7
 10
220.90229
 20
-125.55
 30
0.0
 11
220.90229
 21
-125.55
 31
7.5
  0
LINE
  8
1
  5
FF
  6
CONTINUOUS
 62
7
 10
216.80229
 20
-121.45
 30
0.0
 11
216.80229
 21
-121.45
 31
7.5
  0
LINE
  8
1
  5
101
  6
CONTINUOUS
 62
7
 10
216.80229
 20
-121.45
 30
7.5
 11
216.80229
 21
-117.35
 31
7.5
  0
LINE
  8
1
  5
103
  6
CONTINUOUS
 62
7
 10
216.80229
 20
-117.35
 30
0.0
 11
216.80229
 21
-117.35
 31
7.5
  0
ARC
  8
1
  5
105
  6
CONTINUOUS
 62
7
 210
0.0
 220
0.0
 230
-1.0
 10
-220.90229
 20
-117.35
 30
-7.5
 40
4.1
 50
360.0
 51
90.0
  0
LINE
  8
1
  5
107
  6
CONTINUOUS
 62
7
 10
220.90229
 20
-113.25
 30
7.5
 11
220.90229
 21
-113.25
 31
-7.5
  0
LINE
  8
1
  5
109
  6
CONTINUOUS
 62
7
 10
220.90229
 20
-113.25
 30
7.5
 11
225.00229
 21
-113.25
 31
7.5
  0
LINE
  8
1
  5
10B
  6
CONTINUOUS
 62
7
 10
225.00229
 20
-113.25
 30
7.5
 11
225.00229
 21
-113.25
 31
-7.5
  0
LINE
  8
1
  5
10D
  6
CONTINUOUS
 62
7
 10
225.00229
 20
-113.25
 30
7.5
 11
225.00229
 21
-105.05
 31
7.5
  0
LINE
  8
1
  5
10F
  6
CONTINUOUS
 62
7
 10
225.00229
 20
-105.05
 30
7.5
 11
225.00229
 21
-105.05
 31
-7.5
  0
LINE
  8
1
  5
111
  6
CONTINUOUS
 62
7
 10
225.00229
 20
-105.05
 30
7.5
 11
220.90229
 21
-105.05
 31
7.5
  0
LINE
  8
1
  5
113
  6
CONTINUOUS
 62
7
 10
240.0
 20
-72.25
 30
7.5
 11
220.90229
 21
-72.25
 31
7.5
  0
LINE
  8
1
  5
115
  6
CONTINUOUS
 62
7
 10
220.90229
 20
-72.25
 30
0.0
 11
220.90229
 21
-72.25
 31
7.5
  0
ARC
  8
1
  5
117
  6
CONTINUOUS
 62
7
 210
0.0
 220
0.0
 230
-1.0
 10
-220.90229
 20
-68.15
 30
-7.5
 40
4.1
 50
270.0
 51
360.0
  0
LINE
  8
1
  5
119
  6
CONTINUOUS
 62
7
 10
216.80229
 20
-68.15
 30
0.0
 11
216.80229
 21
-68.15
 31
7.5
  0
LINE
  8
1
  5
11B
  6
CONTINUOUS
 62
7
 10
216.80229
 20
-68.15
 30
7.5
 11
216.80229
 21
-64.05
 31
7.5
  0
LINE
  8
1
  5
11D
  6
CONTINUOUS
 62
7
 10
216.80229
 20
-64.05
 30
0.0
 11
216.80229
 21
-64.05
 31
7.5
  0
ARC
  8
1
  5
11F
  6
CONTINUOUS
 62
7
 210
0.0
 220
0.0
 230
-1.0
 10
-220.90229
 20
-64.05
 30
-7.5
 40
4.1
 50
360.0
 51
90.0
  0
LINE
  8
1
  5
121
  6
CONTINUOUS
 62
7
 10
220.90229
 20
-59.95
 30
7.5
 11
220.90229
 21
-59.95
 31
-7.5
  0
LINE
  8
1
  5
123
  6
CONTINUOUS
 62
7
 10
220.90229
 20
-59.95
 30
7.5
 11
225.00229
 21
-59.95
 31
7.5
  0
LINE
  8
1
  5
125
  6
CONTINUOUS
 62
7
 10
225.00229
 20
-59.95
 30
7.5
 11
225.00229
 21
-59.95
 31
-7.5
  0
LINE
  8
1
  5
127
  6
CONTINUOUS
 62
7
 10
225.00229
 20
-59.95
 30
7.5
 11
225.00229
 21
-51.75
 31
7.5
  0
LINE
  8
1
  5
129
  6
CONTINUOUS
 62
7
 10
240.0
 20
-18.95
 30
7.5
 11
220.90229
 21
-18.95
 31
7.5
  0
LINE
  8
1
  5
12B
  6
CONTINUOUS
 62
7
 10
220.90229
 20
-18.95
 30
0.0
 11
220.90229
 21
-18.95
 31
7.5
  0
ARC
  8
1
  5
12D
  6
CONTINUOUS
 62
7
 210
0.0
 220
0.0
 230
-1.0
 10
-220.90229
 20
-14.85
 30
-7.5
 40
4.1
 50
270.0
 51
360.0
  0
LINE
  8
1
  5
12F
  6
CONTINUOUS
 62
7
 10
216.80229
 20
-14.85
 30
0.0
 11
216.80229
 21
-14.85
 31
7.5
  0
LINE
  8
1
  5
131
  6
CONTINUOUS
 62
7
 10
216.80229
 20
-14.85
 30
7.5
 11
216.80229
 21
-10.75
 31
7.5
  0
LINE
  8
1
  5
133
  6
CONTINUOUS
 62
7
 10
216.80229
 20
-10.75
 30
0.0
 11
216.80229
 21
-10.75
 31
7.5
  0
ARC
  8
1
  5
135
  6
CONTINUOUS
 62
7
 210
0.0
 220
0.0
 230
-1.0
 10
-220.90229
 20
-10.75
 30
-7.5
 40
4.1
 50
360.0
 51
90.0
  0
LINE
  8
1
  5
137
  6
CONTINUOUS
 62
7
 10
225.00229
 20
-165.0
 30
7.5
 11
225.00229
 21
-158.35
 31
7.5
  0
LINE
  8
1
  5
139
  6
CONTINUOUS
 62
7
 10
225.00229
 20
-158.35
 30
7.5
 11
225.00229
 21
-158.35
 31
-7.5
  0
LINE
  8
1
  5
13B
  6
CONTINUOUS
 62
7
 10
225.00229
 20
-158.35
 30
7.5
 11
220.90229
 21
-158.35
 31
7.5
  0
LINE
  8
1
  5
13D
  6
CONTINUOUS
 62
7
 10
240.0
 20
-125.55
 30
7.5
 11
220.90229
 21
-125.55
 31
7.5
  0
ENDBLK
  8
1
  5
13E
  0
BLOCK
  8
1
  5
140
 70
1
 10
0.0
 20
0.0
 30
0.0
  2
*M2
  3
*M2
  0
LINE
  8
1
  5
142
  6
CONTINUOUS
 62
7
 10
240.0
 20
-14.85
 30
-15.0
 11
240.0
 21
-43.55
 31
-15.0
  0
LINE
  8
1
  5
144
  6
CONTINUOUS
 62
7
 10
240.0
 20
-68.15
 30
-15.0
 11
240.0
 21
-96.85
 31
-15.0
  0
LINE
  8
1
  5
146
  6
CONTINUOUS
 62
7
 10
240.0
 20
-121.45
 30
-15.0
 11
240.0
 21
-150.15
 31
-15.0
  0
LINE
  8
1
  5
148
  6
CONTINUOUS
 62
7
 10
0.0
 20
-165.0
 30
-15.0
 11
225.00229
 21
-165.0
 31
-15.0
  0
LINE
  8
1
  5
14A
  6
CONTINUOUS
 62
7
 10
0.0
 20
0.0
 30
-15.0
 11
0.0
 21
-165.0
 31
-15.0
  0
LINE
  8
1
  5
14C
  6
CONTINUOUS
 62
7
 10
225.00229
 20
0.0
 30
-15.0
 11
0.0
 21
0.0
 31
-15.0
  0
LINE
  8
1
  5
14E
  6
CONTINUOUS
 62
7
 10
225.00229
 20
-165.0
 30
0.0
 11
0.0
 21
-165.0
 31
0.0
  0
LINE
  8
1
  5
150
  6
CONTINUOUS
 62
7
 10
0.0
 20
-165.0
 30
0.0
 11
0.0
 21
-165.0
 31
-15.0
  0
LINE
  8
1
  5
152
  6
CONTINUOUS
 62
7
 10
240.0
 20
-146.05
 30
0.0
 11
240.0
 21
-125.55
 31
0.0
  0
LINE
  8
1
  5
154
  6
CONTINUOUS
 62
7
 10
240.0
 20
-92.75
 30
0.0
 11
240.0
 21
-72.25
 31
0.0
  0
LINE
  8
1
  5
156
  6
CONTINUOUS
 62
7
 10
240.0
 20
-39.45
 30
0.0
 11
240.0
 21
-18.95
 31
0.0
  0
LINE
  8
1
  5
158
  6
CONTINUOUS
 62
7
 10
0.0
 20
0.0
 30
0.0
 11
0.0
 21
0.0
 31
-15.0
  0
LINE
  8
1
  5
15A
  6
CONTINUOUS
 62
7
 10
0.0
 20
0.0
 30
0.0
 11
225.00229
 21
0.0
 31
0.0
  0
LINE
  8
1
  5
15C
  6
CONTINUOUS
 62
7
 10
0.0
 20
-165.0
 30
0.0
 11
0.0
 21
0.0
 31
0.0
  0
ENDBLK
  8
1
  5
15D
  0
BLOCK
  8
1
  5
15F
 70
1
 10
0.0
 20
0.0
 30
0.0
  2
*M3
  3
*M3
  0
INSERT
  8
1
  5
161
  6
CONTINUOUS
 62
7
  2
*M1
 10
0.0
 20
0.0
 30
-7.5
 41
1.0
 42
1.0
 43
1.0
 70
1
 71
1
  0
INSERT
  8
1
  5
163
  6
CONTINUOUS
 62
7
  2
*M2
 10
0.0
 20
0.0
 30
0.0
 41
1.0
 42
1.0
 43
1.0
 70
1
 71
1
  0
ENDBLK
  8
1
  5
164
  0
BLOCK
  8
1
  5
166
 70
1
 10
0.0
 20
0.0
 30
0.0
  2
*M4
  3
*M4
  0
INSERT
  8
1
  5
168
  6
CONTINUOUS
 62
7
  2
*M0
 10
0.0
 20
0.0
 30
-7.5
 41
1.0
 42
1.0
 43
1.0
 70
1
 71
1
  0
INSERT
  8
1
  5
16A
  6
CONTINUOUS
 62
7
  2
*M3
 10
0.0
 20
0.0
 30
0.0
 41
1.0
 42
1.0
 43
1.0
 70
1
 71
1
  0
ENDBLK
  8
1
  5
16B
  0
BLOCK
  8
1
  5
16D
 70
1
 10
0.0
 20
0.0
 30
0.0
  2
*M5
  3
*M5
  0
LINE
  8
1
  5
16F
  6
CONTINUOUS
 62
7
 10
540.0
 20
165.0
 30
15.0
 11
540.0
 21
0.0
 31
15.0
  0
LINE
  8
1
  5
171
  6
CONTINUOUS
 62
7
 10
540.0
 20
0.0
 30
0.0
 11
540.0
 21
0.0
 31
15.0
  0
LINE
  8
1
  5
173
  6
CONTINUOUS
 62
7
 10
540.0
 20
0.0
 30
0.0
 11
540.0
 21
165.0
 31
0.0
  0
LINE
  8
1
  5
175
  6
CONTINUOUS
 62
7
 10
540.0
 20
165.0
 30
0.0
 11
540.0
 21
165.0
 31
15.0
  0
LINE
  8
1
  5
177
  6
CONTINUOUS
 62
7
 10
540.0
 20
0.0
 30
15.0
 11
300.0
 21
0.0
 31
15.0
  0
LINE
  8
1
  5
179
  6
CONTINUOUS
 62
7
 10
300.0
 20
0.0
 30
0.0
 11
300.0
 21
0.0
 31
15.0
  0
LINE
  8
1
  5
17B
  6
CONTINUOUS
 62
7
 10
300.0
 20
0.0
 30
0.0
 11
540.0
 21
0.0
 31
0.0
  0
LINE
  8
1
  5
17D
  6
CONTINUOUS
 62
7
 10
300.0
 20
0.0
 30
15.0
 11
300.0
 21
18.95
 31
15.0
  0
LINE
  8
1
  5
17F
  6
CONTINUOUS
 62
7
 10
300.0
 20
18.95
 30
0.0
 11
300.0
 21
18.95
 31
15.0
  0
LINE
  8
1
  5
181
  6
CONTINUOUS
 62
7
 10
300.0
 20
18.95
 30
0.0
 11
300.0
 21
0.0
 31
0.0
  0
LINE
  8
1
  5
183
  6
CONTINUOUS
 62
7
 10
300.0
 20
18.95
 30
15.0
 11
307.5
 21
18.95
 31
15.0
  0
LINE
  8
1
  5
185
  6
CONTINUOUS
 62
7
 10
307.5
 20
18.95
 30
0.0
 11
307.5
 21
18.95
 31
15.0
  0
LINE
  8
1
  5
187
  6
CONTINUOUS
 62
7
 10
307.5
 20
18.95
 30
0.0
 11
300.0
 21
18.95
 31
0.0
  0
LINE
  8
1
  5
189
  6
CONTINUOUS
 62
7
 10
307.5
 20
18.95
 30
15.0
 11
307.5
 21
14.85
 31
15.0
  0
LINE
  8
1
  5
18B
  6
CONTINUOUS
 62
7
 10
307.5
 20
14.85
 30
0.0
 11
307.5
 21
14.85
 31
15.0
  0
LINE
  8
1
  5
18D
  6
CONTINUOUS
 62
7
 10
307.5
 20
14.85
 30
0.0
 11
307.5
 21
18.95
 31
0.0
  0
ARC
  8
1
  5
18F
  6
CONTINUOUS
 62
7
 10
311.6
 20
14.85
 30
15.0
 40
4.1
 50
180.0
 51
270.0
  0
LINE
  8
1
  5
191
  6
CONTINUOUS
 62
7
 10
311.6
 20
10.75
 30
0.0
 11
311.6
 21
10.75
 31
15.0
  0
ARC
  8
1
  5
193
  6
CONTINUOUS
 62
7
 210
0.0
 220
0.0
 230
-1.0
 10
-311.6
 20
14.85
 30
0.0
 40
4.1
 50
270.0
 51
360.0
  0
LINE
  8
1
  5
195
  6
CONTINUOUS
 62
7
 10
311.6
 20
10.75
 30
15.0
 11
319.1
 21
10.75
 31
15.0
  0
LINE
  8
1
  5
197
  6
CONTINUOUS
 62
7
 10
319.1
 20
10.75
 30
0.0
 11
319.1
 21
10.75
 31
15.0
  0
LINE
  8
1
  5
199
  6
CONTINUOUS
 62
7
 10
319.1
 20
10.75
 30
0.0
 11
311.6
 21
10.75
 31
0.0
  0
ARC
  8
1
  5
19B
  6
CONTINUOUS
 62
7
 10
319.1
 20
14.85
 30
15.0
 40
4.1
 50
270.0
 51
360.0
  0
LINE
  8
1
  5
19D
  6
CONTINUOUS
 62
7
 10
323.2
 20
14.85
 30
0.0
 11
323.2
 21
14.85
 31
15.0
  0
ARC
  8
1
  5
19F
  6
CONTINUOUS
 62
7
 210
0.0
 220
0.0
 230
-1.0
 10
-319.1
 20
14.85
 30
0.0
 40
4.1
 50
180.0
 51
270.0
  0
LINE
  8
1
  5
1A1
  6
CONTINUOUS
 62
7
 10
323.2
 20
14.85
 30
15.0
 11
323.2
 21
21.0
 31
15.0
  0
LINE
  8
1
  5
1A3
  6
CONTINUOUS
 62
7
 10
323.2
 20
21.0
 30
0.0
 11
323.2
 21
21.0
 31
15.0
  0
LINE
  8
1
  5
1A5
  6
CONTINUOUS
 62
7
 10
323.2
 20
21.0
 30
0.0
 11
323.2
 21
14.85
 31
0.0
  0
ARC
  8
1
  5
1A7
  6
CONTINUOUS
 62
7
 10
319.1
 20
21.0
 30
15.0
 40
4.1
 50
360.0
 51
90.0
  0
LINE
  8
1
  5
1A9
  6
CONTINUOUS
 62
7
 10
319.1
 20
25.1
 30
0.0
 11
319.1
 21
25.1
 31
15.0
  0
ARC
  8
1
  5
1AB
  6
CONTINUOUS
 62
7
 210
0.0
 220
0.0
 230
-1.0
 10
-319.1
 20
21.0
 30
0.0
 40
4.1
 50
90.0
 51
180.0
  0
LINE
  8
1
  5
1AD
  6
CONTINUOUS
 62
7
 10
319.1
 20
25.1
 30
15.0
 11
315.0
 21
25.1
 31
15.0
  0
LINE
  8
1
  5
1AF
  6
CONTINUOUS
 62
7
 10
315.0
 20
25.1
 30
0.0
 11
315.0
 21
25.1
 31
15.0
  0
LINE
  8
1
  5
1B1
  6
CONTINUOUS
 62
7
 10
315.0
 20
25.1
 30
0.0
 11
319.1
 21
25.1
 31
0.0
  0
LINE
  8
1
  5
1B3
  6
CONTINUOUS
 62
7
 10
315.0
 20
25.1
 30
15.0
 11
315.0
 21
33.3
 31
15.0
  0
LINE
  8
1
  5
1B5
  6
CONTINUOUS
 62
7
 10
315.0
 20
33.3
 30
0.0
 11
315.0
 21
33.3
 31
15.0
  0
LINE
  8
1
  5
1B7
  6
CONTINUOUS
 62
7
 10
315.0
 20
33.3
 30
0.0
 11
315.0
 21
25.1
 31
0.0
  0
LINE
  8
1
  5
1B9
  6
CONTINUOUS
 62
7
 10
315.0
 20
33.3
 30
15.0
 11
319.1
 21
33.3
 31
15.0
  0
LINE
  8
1
  5
1BB
  6
CONTINUOUS
 62
7
 10
319.1
 20
33.3
 30
0.0
 11
319.1
 21
33.3
 31
15.0
  0
LINE
  8
1
  5
1BD
  6
CONTINUOUS
 62
7
 10
319.1
 20
33.3
 30
0.0
 11
315.0
 21
33.3
 31
0.0
  0
ARC
  8
1
  5
1BF
  6
CONTINUOUS
 62
7
 10
319.1
 20
37.4
 30
15.0
 40
4.1
 50
270.0
 51
360.0
  0
LINE
  8
1
  5
1C1
  6
CONTINUOUS
 62
7
 10
323.2
 20
37.4
 30
0.0
 11
323.2
 21
37.4
 31
15.0
  0
ARC
  8
1
  5
1C3
  6
CONTINUOUS
 62
7
 210
0.0
 220
0.0
 230
-1.0
 10
-319.1
 20
37.4
 30
0.0
 40
4.1
 50
180.0
 51
270.0
  0
LINE
  8
1
  5
1C5
  6
CONTINUOUS
 62
7
 10
323.2
 20
37.4
 30
15.0
 11
323.2
 21
43.55
 31
15.0
  0
LINE
  8
1
  5
1C7
  6
CONTINUOUS
 62
7
 10
323.2
 20
43.55
 30
0.0
 11
323.2
 21
43.55
 31
15.0
  0
LINE
  8
1
  5
1C9
  6
CONTINUOUS
 62
7
 10
323.2
 20
43.55
 30
0.0
 11
323.2
 21
37.4
 31
0.0
  0
ARC
  8
1
  5
1CB
  6
CONTINUOUS
 62
7
 10
319.1
 20
43.55
 30
15.0
 40
4.1
 50
360.0
 51
90.0
  0
LINE
  8
1
  5
1CD
  6
CONTINUOUS
 62
7
 10
319.1
 20
47.65
 30
0.0
 11
319.1
 21
47.65
 31
15.0
  0
ARC
  8
1
  5
1CF
  6
CONTINUOUS
 62
7
 210
0.0
 220
0.0
 230
-1.0
 10
-319.1
 20
43.55
 30
0.0
 40
4.1
 50
90.0
 51
180.0
  0
LINE
  8
1
  5
1D1
  6
CONTINUOUS
 62
7
 10
319.1
 20
47.65
 30
15.0
 11
311.6
 21
47.65
 31
15.0
  0
LINE
  8
1
  5
1D3
  6
CONTINUOUS
 62
7
 10
311.6
 20
47.65
 30
0.0
 11
311.6
 21
47.65
 31
15.0
  0
LINE
  8
1
  5
1D5
  6
CONTINUOUS
 62
7
 10
311.6
 20
47.65
 30
0.0
 11
319.1
 21
47.65
 31
0.0
  0
ARC
  8
1
  5
1D7
  6
CONTINUOUS
 62
7
 10
311.6
 20
43.55
 30
15.0
 40
4.1
 50
90.0
 51
180.0
  0
LINE
  8
1
  5
1D9
  6
CONTINUOUS
 62
7
 10
307.5
 20
43.55
 30
0.0
 11
307.5
 21
43.55
 31
15.0
  0
ARC
  8
1
  5
1DB
  6
CONTINUOUS
 62
7
 210
0.0
 220
0.0
 230
-1.0
 10
-311.6
 20
43.55
 30
0.0
 40
4.1
 50
0.0
 51
90.0
  0
LINE
  8
1
  5
1DD
  6
CONTINUOUS
 62
7
 10
307.5
 20
43.55
 30
15.0
 11
307.5
 21
39.45
 31
15.0
  0
LINE
  8
1
  5
1DF
  6
CONTINUOUS
 62
7
 10
307.5
 20
39.45
 30
0.0
 11
307.5
 21
39.45
 31
15.0
  0
LINE
  8
1
  5
1E1
  6
CONTINUOUS
 62
7
 10
307.5
 20
39.45
 30
0.0
 11
307.5
 21
43.55
 31
0.0
  0
LINE
  8
1
  5
1E3
  6
CONTINUOUS
 62
7
 10
307.5
 20
39.45
 30
15.0
 11
300.0
 21
39.45
 31
15.0
  0
LINE
  8
1
  5
1E5
  6
CONTINUOUS
 62
7
 10
300.0
 20
39.45
 30
0.0
 11
300.0
 21
39.45
 31
15.0
  0
LINE
  8
1
  5
1E7
  6
CONTINUOUS
 62
7
 10
300.0
 20
39.45
 30
0.0
 11
307.5
 21
39.45
 31
0.0
  0
LINE
  8
1
  5
1E9
  6
CONTINUOUS
 62
7
 10
300.0
 20
39.45
 30
15.0
 11
300.0
 21
72.25
 31
15.0
  0
LINE
  8
1
  5
1EB
  6
CONTINUOUS
 62
7
 10
300.0
 20
72.25
 30
0.0
 11
300.0
 21
72.25
 31
15.0
  0
LINE
  8
1
  5
1ED
  6
CONTINUOUS
 62
7
 10
300.0
 20
72.25
 30
0.0
 11
300.0
 21
39.45
 31
0.0
  0
LINE
  8
1
  5
1EF
  6
CONTINUOUS
 62
7
 10
300.0
 20
72.25
 30
15.0
 11
307.5
 21
72.25
 31
15.0
  0
LINE
  8
1
  5
1F1
  6
CONTINUOUS
 62
7
 10
307.5
 20
72.25
 30
0.0
 11
307.5
 21
72.25
 31
15.0
  0
LINE
  8
1
  5
1F3
  6
CONTINUOUS
 62
7
 10
307.5
 20
72.25
 30
0.0
 11
300.0
 21
72.25
 31
0.0
  0
LINE
  8
1
  5
1F5
  6
CONTINUOUS
 62
7
 10
307.5
 20
72.25
 30
15.0
 11
307.5
 21
68.15
 31
15.0
  0
LINE
  8
1
  5
1F7
  6
CONTINUOUS
 62
7
 10
307.5
 20
68.15
 30
0.0
 11
307.5
 21
68.15
 31
15.0
  0
LINE
  8
1
  5
1F9
  6
CONTINUOUS
 62
7
 10
307.5
 20
68.15
 30
0.0
 11
307.5
 21
72.25
 31
0.0
  0
ARC
  8
1
  5
1FB
  6
CONTINUOUS
 62
7
 10
311.6
 20
68.15
 30
15.0
 40
4.1
 50
180.0
 51
270.0
  0
LINE
  8
1
  5
1FD
  6
CONTINUOUS
 62
7
 10
311.6
 20
64.05
 30
0.0
 11
311.6
 21
64.05
 31
15.0
  0
ARC
  8
1
  5
1FF
  6
CONTINUOUS
 62
7
 210
0.0
 220
0.0
 230
-1.0
 10
-311.6
 20
68.15
 30
0.0
 40
4.1
 50
270.0
 51
360.0
  0
LINE
  8
1
  5
201
  6
CONTINUOUS
 62
7
 10
311.6
 20
64.05
 30
15.0
 11
319.1
 21
64.05
 31
15.0
  0
LINE
  8
1
  5
203
  6
CONTINUOUS
 62
7
 10
319.1
 20
64.05
 30
0.0
 11
319.1
 21
64.05
 31
15.0
  0
LINE
  8
1
  5
205
  6
CONTINUOUS
 62
7
 10
319.1
 20
64.05
 30
0.0
 11
311.6
 21
64.05
 31
0.0
  0
ARC
  8
1
  5
207
  6
CONTINUOUS
 62
7
 10
319.1
 20
68.15
 30
15.0
 40
4.1
 50
270.0
 51
360.0
  0
LINE
  8
1
  5
209
  6
CONTINUOUS
 62
7
 10
323.2
 20
68.15
 30
0.0
 11
323.2
 21
68.15
 31
15.0
  0
ARC
  8
1
  5
20B
  6
CONTINUOUS
 62
7
 210
0.0
 220
0.0
 230
-1.0
 10
-319.1
 20
68.15
 30
0.0
 40
4.1
 50
180.0
 51
270.0
  0
LINE
  8
1
  5
20D
  6
CONTINUOUS
 62
7
 10
323.2
 20
68.15
 30
15.0
 11
323.2
 21
74.3
 31
15.0
  0
LINE
  8
1
  5
20F
  6
CONTINUOUS
 62
7
 10
323.2
 20
74.3
 30
0.0
 11
323.2
 21
74.3
 31
15.0
  0
LINE
  8
1
  5
211
  6
CONTINUOUS
 62
7
 10
323.2
 20
74.3
 30
0.0
 11
323.2
 21
68.15
 31
0.0
  0
ARC
  8
1
  5
213
  6
CONTINUOUS
 62
7
 10
319.1
 20
74.3
 30
15.0
 40
4.1
 50
360.0
 51
90.0
  0
LINE
  8
1
  5
215
  6
CONTINUOUS
 62
7
 10
319.1
 20
78.4
 30
0.0
 11
319.1
 21
78.4
 31
15.0
  0
ARC
  8
1
  5
217
  6
CONTINUOUS
 62
7
 210
0.0
 220
0.0
 230
-1.0
 10
-319.1
 20
74.3
 30
0.0
 40
4.1
 50
90.0
 51
180.0
  0
LINE
  8
1
  5
219
  6
CONTINUOUS
 62
7
 10
319.1
 20
78.4
 30
15.0
 11
315.0
 21
78.4
 31
15.0
  0
LINE
  8
1
  5
21B
  6
CONTINUOUS
 62
7
 10
315.0
 20
78.4
 30
0.0
 11
315.0
 21
78.4
 31
15.0
  0
LINE
  8
1
  5
21D
  6
CONTINUOUS
 62
7
 10
315.0
 20
78.4
 30
0.0
 11
319.1
 21
78.4
 31
0.0
  0
LINE
  8
1
  5
21F
  6
CONTINUOUS
 62
7
 10
315.0
 20
78.4
 30
15.0
 11
315.0
 21
86.6
 31
15.0
  0
LINE
  8
1
  5
221
  6
CONTINUOUS
 62
7
 10
315.0
 20
86.6
 30
0.0
 11
315.0
 21
86.6
 31
15.0
  0
LINE
  8
1
  5
223
  6
CONTINUOUS
 62
7
 10
315.0
 20
86.6
 30
0.0
 11
315.0
 21
78.4
 31
0.0
  0
LINE
  8
1
  5
225
  6
CONTINUOUS
 62
7
 10
315.0
 20
86.6
 30
15.0
 11
319.1
 21
86.6
 31
15.0
  0
LINE
  8
1
  5
227
  6
CONTINUOUS
 62
7
 10
319.1
 20
86.6
 30
0.0
 11
319.1
 21
86.6
 31
15.0
  0
LINE
  8
1
  5
229
  6
CONTINUOUS
 62
7
 10
319.1
 20
86.6
 30
0.0
 11
315.0
 21
86.6
 31
0.0
  0
ARC
  8
1
  5
22B
  6
CONTINUOUS
 62
7
 10
319.1
 20
90.7
 30
15.0
 40
4.1
 50
270.0
 51
360.0
  0
LINE
  8
1
  5
22D
  6
CONTINUOUS
 62
7
 10
323.2
 20
90.7
 30
0.0
 11
323.2
 21
90.7
 31
15.0
  0
ARC
  8
1
  5
22F
  6
CONTINUOUS
 62
7
 210
0.0
 220
0.0
 230
-1.0
 10
-319.1
 20
90.7
 30
0.0
 40
4.1
 50
180.0
 51
270.0
  0
LINE
  8
1
  5
231
  6
CONTINUOUS
 62
7
 10
323.2
 20
90.7
 30
15.0
 11
323.2
 21
96.85
 31
15.0
  0
LINE
  8
1
  5
233
  6
CONTINUOUS
 62
7
 10
323.2
 20
96.85
 30
0.0
 11
323.2
 21
96.85
 31
15.0
  0
LINE
  8
1
  5
235
  6
CONTINUOUS
 62
7
 10
323.2
 20
96.85
 30
0.0
 11
323.2
 21
90.7
 31
0.0
  0
ARC
  8
1
  5
237
  6
CONTINUOUS
 62
7
 10
319.1
 20
96.85
 30
15.0
 40
4.1
 50
360.0
 51
90.0
  0
LINE
  8
1
  5
239
  6
CONTINUOUS
 62
7
 10
319.1
 20
100.95
 30
0.0
 11
319.1
 21
100.95
 31
15.0
  0
ARC
  8
1
  5
23B
  6
CONTINUOUS
 62
7
 210
0.0
 220
0.0
 230
-1.0
 10
-319.1
 20
96.85
 30
0.0
 40
4.1
 50
90.0
 51
180.0
  0
LINE
  8
1
  5
23D
  6
CONTINUOUS
 62
7
 10
319.1
 20
100.95
 30
15.0
 11
311.6
 21
100.95
 31
15.0
  0
LINE
  8
1
  5
23F
  6
CONTINUOUS
 62
7
 10
311.6
 20
100.95
 30
0.0
 11
311.6
 21
100.95
 31
15.0
  0
LINE
  8
1
  5
241
  6
CONTINUOUS
 62
7
 10
311.6
 20
100.95
 30
0.0
 11
319.1
 21
100.95
 31
0.0
  0
ARC
  8
1
  5
243
  6
CONTINUOUS
 62
7
 10
311.6
 20
96.85
 30
15.0
 40
4.1
 50
90.0
 51
180.0
  0
LINE
  8
1
  5
245
  6
CONTINUOUS
 62
7
 10
307.5
 20
96.85
 30
0.0
 11
307.5
 21
96.85
 31
15.0
  0
ARC
  8
1
  5
247
  6
CONTINUOUS
 62
7
 210
0.0
 220
0.0
 230
-1.0
 10
-311.6
 20
96.85
 30
0.0
 40
4.1
 50
0.0
 51
90.0
  0
LINE
  8
1
  5
249
  6
CONTINUOUS
 62
7
 10
307.5
 20
96.85
 30
15.0
 11
307.5
 21
92.75
 31
15.0
  0
LINE
  8
1
  5
24B
  6
CONTINUOUS
 62
7
 10
307.5
 20
92.75
 30
0.0
 11
307.5
 21
92.75
 31
15.0
  0
LINE
  8
1
  5
24D
  6
CONTINUOUS
 62
7
 10
307.5
 20
92.75
 30
0.0
 11
307.5
 21
96.85
 31
0.0
  0
LINE
  8
1
  5
24F
  6
CONTINUOUS
 62
7
 10
307.5
 20
92.75
 30
15.0
 11
300.0
 21
92.75
 31
15.0
  0
LINE
  8
1
  5
251
  6
CONTINUOUS
 62
7
 10
300.0
 20
92.75
 30
0.0
 11
300.0
 21
92.75
 31
15.0
  0
LINE
  8
1
  5
253
  6
CONTINUOUS
 62
7
 10
300.0
 20
92.75
 30
0.0
 11
307.5
 21
92.75
 31
0.0
  0
LINE
  8
1
  5
255
  6
CONTINUOUS
 62
7
 10
300.0
 20
92.75
 30
15.0
 11
300.0
 21
125.55
 31
15.0
  0
LINE
  8
1
  5
257
  6
CONTINUOUS
 62
7
 10
300.0
 20
125.55
 30
0.0
 11
300.0
 21
125.55
 31
15.0
  0
LINE
  8
1
  5
259
  6
CONTINUOUS
 62
7
 10
300.0
 20
125.55
 30
0.0
 11
300.0
 21
92.75
 31
0.0
  0
LINE
  8
1
  5
25B
  6
CONTINUOUS
 62
7
 10
300.0
 20
125.55
 30
15.0
 11
307.5
 21
125.55
 31
15.0
  0
LINE
  8
1
  5
25D
  6
CONTINUOUS
 62
7
 10
307.5
 20
125.55
 30
0.0
 11
307.5
 21
125.55
 31
15.0
  0
LINE
  8
1
  5
25F
  6
CONTINUOUS
 62
7
 10
307.5
 20
125.55
 30
0.0
 11
300.0
 21
125.55
 31
0.0
  0
LINE
  8
1
  5
261
  6
CONTINUOUS
 62
7
 10
307.5
 20
125.55
 30
15.0
 11
307.5
 21
121.45
 31
15.0
  0
LINE
  8
1
  5
263
  6
CONTINUOUS
 62
7
 10
307.5
 20
121.45
 30
0.0
 11
307.5
 21
121.45
 31
15.0
  0
LINE
  8
1
  5
265
  6
CONTINUOUS
 62
7
 10
307.5
 20
121.45
 30
0.0
 11
307.5
 21
125.55
 31
0.0
  0
ARC
  8
1
  5
267
  6
CONTINUOUS
 62
7
 10
311.6
 20
121.45
 30
15.0
 40
4.1
 50
180.0
 51
270.0
  0
LINE
  8
1
  5
269
  6
CONTINUOUS
 62
7
 10
311.6
 20
117.35
 30
0.0
 11
311.6
 21
117.35
 31
15.0
  0
ARC
  8
1
  5
26B
  6
CONTINUOUS
 62
7
 210
0.0
 220
0.0
 230
-1.0
 10
-311.6
 20
121.45
 30
0.0
 40
4.1
 50
270.0
 51
360.0
  0
LINE
  8
1
  5
26D
  6
CONTINUOUS
 62
7
 10
311.6
 20
117.35
 30
15.0
 11
319.1
 21
117.35
 31
15.0
  0
LINE
  8
1
  5
26F
  6
CONTINUOUS
 62
7
 10
319.1
 20
117.35
 30
0.0
 11
319.1
 21
117.35
 31
15.0
  0
LINE
  8
1
  5
271
  6
CONTINUOUS
 62
7
 10
319.1
 20
117.35
 30
0.0
 11
311.6
 21
117.35
 31
0.0
  0
ARC
  8
1
  5
273
  6
CONTINUOUS
 62
7
 10
319.1
 20
121.45
 30
15.0
 40
4.1
 50
270.0
 51
360.0
  0
LINE
  8
1
  5
275
  6
CONTINUOUS
 62
7
 10
323.2
 20
121.45
 30
0.0
 11
323.2
 21
121.45
 31
15.0
  0
ARC
  8
1
  5
277
  6
CONTINUOUS
 62
7
 210
0.0
 220
0.0
 230
-1.0
 10
-319.1
 20
121.45
 30
0.0
 40
4.1
 50
180.0
 51
270.0
  0
LINE
  8
1
  5
279
  6
CONTINUOUS
 62
7
 10
323.2
 20
121.45
 30
15.0
 11
323.2
 21
127.6
 31
15.0
  0
LINE
  8
1
  5
27B
  6
CONTINUOUS
 62
7
 10
323.2
 20
127.6
 30
0.0
 11
323.2
 21
127.6
 31
15.0
  0
LINE
  8
1
  5
27D
  6
CONTINUOUS
 62
7
 10
323.2
 20
127.6
 30
0.0
 11
323.2
 21
121.45
 31
0.0
  0
ARC
  8
1
  5
27F
  6
CONTINUOUS
 62
7
 10
319.1
 20
127.6
 30
15.0
 40
4.1
 50
360.0
 51
90.0
  0
LINE
  8
1
  5
281
  6
CONTINUOUS
 62
7
 10
319.1
 20
131.7
 30
0.0
 11
319.1
 21
131.7
 31
15.0
  0
ARC
  8
1
  5
283
  6
CONTINUOUS
 62
7
 210
0.0
 220
0.0
 230
-1.0
 10
-319.1
 20
127.6
 30
0.0
 40
4.1
 50
90.0
 51
180.0
  0
LINE
  8
1
  5
285
  6
CONTINUOUS
 62
7
 10
319.1
 20
131.7
 30
15.0
 11
315.0
 21
131.7
 31
15.0
  0
LINE
  8
1
  5
287
  6
CONTINUOUS
 62
7
 10
315.0
 20
131.7
 30
0.0
 11
315.0
 21
131.7
 31
15.0
  0
LINE
  8
1
  5
289
  6
CONTINUOUS
 62
7
 10
315.0
 20
131.7
 30
0.0
 11
319.1
 21
131.7
 31
0.0
  0
LINE
  8
1
  5
28B
  6
CONTINUOUS
 62
7
 10
315.0
 20
131.7
 30
15.0
 11
315.0
 21
139.9
 31
15.0
  0
LINE
  8
1
  5
28D
  6
CONTINUOUS
 62
7
 10
315.0
 20
139.9
 30
0.0
 11
315.0
 21
139.9
 31
15.0
  0
LINE
  8
1
  5
28F
  6
CONTINUOUS
 62
7
 10
315.0
 20
139.9
 30
0.0
 11
315.0
 21
131.7
 31
0.0
  0
LINE
  8
1
  5
291
  6
CONTINUOUS
 62
7
 10
315.0
 20
139.9
 30
15.0
 11
319.1
 21
139.9
 31
15.0
  0
LINE
  8
1
  5
293
  6
CONTINUOUS
 62
7
 10
319.1
 20
139.9
 30
0.0
 11
319.1
 21
139.9
 31
15.0
  0
LINE
  8
1
  5
295
  6
CONTINUOUS
 62
7
 10
319.1
 20
139.9
 30
0.0
 11
315.0
 21
139.9
 31
0.0
  0
ARC
  8
1
  5
297
  6
CONTINUOUS
 62
7
 10
319.1
 20
144.0
 30
15.0
 40
4.1
 50
270.0
 51
360.0
  0
LINE
  8
1
  5
299
  6
CONTINUOUS
 62
7
 10
323.2
 20
144.0
 30
0.0
 11
323.2
 21
144.0
 31
15.0
  0
ARC
  8
1
  5
29B
  6
CONTINUOUS
 62
7
 210
0.0
 220
0.0
 230
-1.0
 10
-319.1
 20
144.0
 30
0.0
 40
4.1
 50
180.0
 51
270.0
  0
LINE
  8
1
  5
29D
  6
CONTINUOUS
 62
7
 10
323.2
 20
144.0
 30
15.0
 11
323.2
 21
150.15
 31
15.0
  0
LINE
  8
1
  5
29F
  6
CONTINUOUS
 62
7
 10
323.2
 20
150.15
 30
0.0
 11
323.2
 21
150.15
 31
15.0
  0
LINE
  8
1
  5
2A1
  6
CONTINUOUS
 62
7
 10
323.2
 20
150.15
 30
0.0
 11
323.2
 21
144.0
 31
0.0
  0
ARC
  8
1
  5
2A3
  6
CONTINUOUS
 62
7
 10
319.1
 20
150.15
 30
15.0
 40
4.1
 50
360.0
 51
90.0
  0
LINE
  8
1
  5
2A5
  6
CONTINUOUS
 62
7
 10
319.1
 20
154.25
 30
0.0
 11
319.1
 21
154.25
 31
15.0
  0
ARC
  8
1
  5
2A7
  6
CONTINUOUS
 62
7
 210
0.0
 220
0.0
 230
-1.0
 10
-319.1
 20
150.15
 30
0.0
 40
4.1
 50
90.0
 51
180.0
  0
LINE
  8
1
  5
2A9
  6
CONTINUOUS
 62
7
 10
319.1
 20
154.25
 30
15.0
 11
311.6
 21
154.25
 31
15.0
  0
LINE
  8
1
  5
2AB
  6
CONTINUOUS
 62
7
 10
311.6
 20
154.25
 30
0.0
 11
311.6
 21
154.25
 31
15.0
  0
LINE
  8
1
  5
2AD
  6
CONTINUOUS
 62
7
 10
311.6
 20
154.25
 30
0.0
 11
319.1
 21
154.25
 31
0.0
  0
ARC
  8
1
  5
2AF
  6
CONTINUOUS
 62
7
 10
311.6
 20
150.15
 30
15.0
 40
4.1
 50
90.0
 51
180.0
  0
LINE
  8
1
  5
2B1
  6
CONTINUOUS
 62
7
 10
307.5
 20
150.15
 30
0.0
 11
307.5
 21
150.15
 31
15.0
  0
ARC
  8
1
  5
2B3
  6
CONTINUOUS
 62
7
 210
0.0
 220
0.0
 230
-1.0
 10
-311.6
 20
150.15
 30
0.0
 40
4.1
 50
0.0
 51
90.0
  0
LINE
  8
1
  5
2B5
  6
CONTINUOUS
 62
7
 10
307.5
 20
150.15
 30
15.0
 11
307.5
 21
146.05
 31
15.0
  0
LINE
  8
1
  5
2B7
  6
CONTINUOUS
 62
7
 10
307.5
 20
146.05
 30
0.0
 11
307.5
 21
146.05
 31
15.0
  0
LINE
  8
1
  5
2B9
  6
CONTINUOUS
 62
7
 10
307.5
 20
146.05
 30
0.0
 11
307.5
 21
150.15
 31
0.0
  0
LINE
  8
1
  5
2BB
  6
CONTINUOUS
 62
7
 10
307.5
 20
146.05
 30
15.0
 11
300.0
 21
146.05
 31
15.0
  0
LINE
  8
1
  5
2BD
  6
CONTINUOUS
 62
7
 10
300.0
 20
146.05
 30
0.0
 11
300.0
 21
146.05
 31
15.0
  0
LINE
  8
1
  5
2BF
  6
CONTINUOUS
 62
7
 10
300.0
 20
146.05
 30
0.0
 11
307.5
 21
146.05
 31
0.0
  0
LINE
  8
1
  5
2C1
  6
CONTINUOUS
 62
7
 10
300.0
 20
146.05
 30
15.0
 11
300.0
 21
165.0
 31
15.0
  0
LINE
  8
1
  5
2C3
  6
CONTINUOUS
 62
7
 10
300.0
 20
165.0
 30
0.0
 11
300.0
 21
165.0
 31
15.0
  0
LINE
  8
1
  5
2C5
  6
CONTINUOUS
 62
7
 10
300.0
 20
165.0
 30
0.0
 11
300.0
 21
146.05
 31
0.0
  0
LINE
  8
1
  5
2C7
  6
CONTINUOUS
 62
7
 10
300.0
 20
165.0
 30
15.0
 11
540.0
 21
165.0
 31
15.0
  0
LINE
  8
1
  5
2C9
  6
CONTINUOUS
 62
7
 10
540.0
 20
165.0
 30
0.0
 11
300.0
 21
165.0
 31
0.0
  0
ENDBLK
  8
1
  5
2CA
  0
ENDSEC
  0
SECTION
  2
ENTITIES
  0
INSERT
  8
1
  5
2
  6
CONTINUOUS
 62
7
  2
*M4
 10
0.0
 20
163.85462
 30
14.07342
 41
1.0
 42
1.0
 43
1.0
 70
1
 71
1
  0
INSERT
  8
1
  5
4
  6
CONTINUOUS
 62
7
  2
*M5
 10
-10.0
 20
-1.14538
 30
-0.92658
 41
1.0
 42
1.0
 43
1.0
 70
1
 71
1
  0
ENDSEC
  0
EOF
