  0
SECTION
  2
HEADER
  9
$ACADVER
  1
AC1009
  9
$INSBASE
 10
0.0
 20
0.0
 30
0.0
  9
$EXTMAX
 10
190.0
 20
286.5599
 30
32.0
  9
$EXTMIN
 10
0.0
 20
-3.4401
 30
0.0
  9
$LIMMAX
 10
12.0
 20
9.0
  9
$LIMMIN
 10
0.0
 20
0.0
  9
$ORTHOMODE
 70
0
  9
$REGENMODE
 70
1
  9
$FILLMODE
 70
1
  9
$QTEXTMODE
 70
0
  9
$MIRRTEXT
 70
1
  9
$DRAGMODE
 70
2
  9
$LTSCALE
 40
1.0
  9
$OSMODE
 70
0
  9
$ATTMODE
 70
1
  9
$TEXTSIZE
 40
0.2
  9
$TRACEWID
 40
0.05
  9
$TEXTSTYLE
  7
STANDARD
  9
$CLAYER
  8
0
  9
$CELTYPE
  6
CONTINUOUS
  9
$CECOLOR
 62
256
  9
$DIMSCALE
 40
1.0
  9
$DIMASZ
 40
0.18
  9
$DIMEXO
 40
0.0625
  9
$DIMDLI
 40
0.38
  9
$DIMRND
 40
0.0
  9
$DIMDLE
 40
0.0
  9
$DIMEXE
 40
0.18
  9
$DIMTP
 40
0.0
  9
$DIMTM
 40
0.0
  9
$DIMTXT
 40
0.18
  9
$DIMCEN
 40
0.09
  9
$DIMTSZ
 40
0.0
  9
$DIMTOL
 70
0
  9
$DIMLIM
 70
0
  9
$DIMTIH
 70
1
  9
$DIMTOH
 70
1
  9
$DIMSE1
 70
0
  9
$DIMSE2
 70
0
  9
$DIMTAD
 70
0
  9
$DIMZIN
 70
0
  9
$DIMBLK
  1

  9
$DIMASO
 70
1
  9
$DIMSHO
 70
1
  9
$DIMPOST
  1

  9
$DIMAPOST
  1

  9
$DIMALT
 70
0
  9
$DIMALTD
 70
2
  9
$DIMALTF
 40
25.4
  9
$DIMLFAC
 40
1.0
  9
$DIMTOFL
 70
0
  9
$DIMTVP
 40
0.0
  9
$DIMTIX
 70
0
  9
$DIMSOXD
 70
0
  9
$DIMSAH
 70
0
  9
$DIMBLK1
  1

  9
$DIMBLK2
  1

  9
$DIMSTYLE
  2
*UNNAMED
  9
$DIMCLRD
 70
0
  9
$DIMCLRE
 70
0
  9
$DIMCLRT
 70
0
  9
$DIMTFAC
 40
1.0
  9
$DIMGAP
 40
0.09
  9
$LUNITS
 70
2
  9
$LUPREC
 70
4
  9
$AXISMODE
 70
0
  9
$AXISUNIT
 10
0.0
 20
0.0
  9
$SKETCHINC
 40
0.1
  9
$FILLETRAD
 40
0.0
  9
$AUNITS
 70
0
  9
$AUPREC
 70
0
  9
$MENU
  1
acad
  9
$ELEVATION
 40
0.0
  9
$PELEVATION
 40
0.0
  9
$THICKNESS
 40
0.0
  9
$LIMCHECK
 70
0
  9
$BLIPMODE
 70
1
  9
$CHAMFERA
 40
0.0
  9
$CHAMFERB
 40
0.0
  9
$SKPOLY
 70
0
  9
$TDCREATE
 40
0.0
  9
$TDUPDATE
 40
0.0
  9
$TDINDWG
 40
0.0
  9
$TDUSRTIMER
 40
0.0
  9
$USRTIMER
 70
1
  9
$ANGBASE
 50
0.0
  9
$ANGDIR
 70
0
  9
$PDMODE
 70
0
  9
$PDSIZE
 40
0.0
  9
$PLINEWID
 40
0.0
  9
$COORDS
 70
0
  9
$SPLFRAME
 70
0
  9
$SPLINETYPE
 70
6
  9
$SPLINESEGS
 70
10
  9
$ATTDIA
 70
0
  9
$ATTREQ
 70
1
  9
$HANDLING
 70
1
  9
$HANDSEED
  5
338
  9
$SURFTAB1
 70
6
  9
$SURFTAB2
 70
6
  9
$SURFTYPE
 70
6
  9
$SURFU
 70
10
  9
$SURFV
 70
10
  9
$UCSNAME
  2

  9
$UCSORG
 10
0.0
 20
0.0
 30
0.0
  9
$UCSXDIR
 10
1.0
 20
0.0
 30
0.0
  9
$UCSYDIR
 10
0.0
 20
1.0
 30
0.0
  9
$PUCSNAME
  2
 
  9
$PUCSORG
 10
0.0
 20
0.0
 30
0.0
  9
$PUCSXDIR
 10
1.0
 20
0.0
 30
0.0
  9
$PUCSYDIR
 10
0.0
 20
1.0
 30
0.0
  9
$USERI1
 70
0
  9
$USERI2
 70
0
  9
$USERI3
 70
0
  9
$USERI4
 70
0
  9
$USERI5
 70
0
  9
$USERR1
 40
0.0
  9
$USERR2
 40
0.0
  9
$USERR3
 40
0.0
  9
$USERR4
 40
0.0
  9
$USERR5
 40
0.0
  9
$WORLDVIEW
 70
1
  9
$SHADEDGE
 70
3
  9
$SHADEDIF
 70
70
  9
$TILEMODE
 70
1
  9
$MAXACTVP
 70
16
  9
$PINSBASE
 10
0.0
 20
0.0
 30
0.0
  9
$PLIMCHECK
 70
0
  9
$PEXTMIN
 10
-1.000000E+020
 20
-1.000000E+020
 30
-1.000000E+020
  9
$PEXTMAX
 10
-1.000000E+020
 20
-1.000000E+020
 30
-1.000000E+020
  9
$PLIMMIN
 10
0.0
 20
0.0
  9
$PLIMMAX
 10
12.0
 20
9.0
  9
$UNITMODE
 70
0
  9
$VISRETAIN
 70
0
  0
ENDSEC
  0
SECTION
  2
TABLES
  0
TABLE
  2
LTYPE
 70
7
  0
LTYPE
  2
CONTINUOUS
 70
64
  3
Solid line
 72
65
 73
0
 40
0.0
  0
LTYPE
  2
DOT
 70
64
  3
. . . . . . . . . . . . . . . . . . . . . . . . . . . . . . . . .
 72
65
 73
2
 40
0.25
 49
0.0
 49
-0.25
  0
LTYPE
  2
HIDDEN
 70
64
  3
__ __ __ __ __ __ __ __ __ __ __ __ __ __ __ __ __ __ __ __ __ 
 72
65
 73
2
 40
0.375
 49
0.25
 49
-0.125
  0
LTYPE
  2
DASHED
 70
64
  3
__ __ __ __ __ __ __ __ __ __ __ __ __ __ __ __ __ __ __ __ __
 72
65
 73
2
 40
0.75
 49
0.5
 49
-0.25
  0
LTYPE
  2
DASHDOT
 70
64
  3
__ . __ . __ . __ . __ . __ . __ . __ . __ . __ . __ . __ . _
 72
65
 73
4
 40
1.0
 49
0.5
 49
-0.25
 49
0.0
 49
-0.25
  0
LTYPE
  2
DIVIDE
 70
64
  3
____ . . ____ . . ____ . . ____ . . ____ . . ____ . . ____ . .
 72
65
 73
6
 40
1.25
 49
0.5
 49
-0.25
 49
0.0
 49
-0.25
 49
0.0
 49
-0.25
  0
LTYPE
  2
CENTER
 70
64
  3
____ _ ____ _ ____ _ ____ _ ____ _ ____ _ ____ _ ____ _ ____ _
 72
65
 73
4
 40
2.0
 49
1.25
 49
-0.25
 49
0.25
 49
-0.25
  0
ENDTAB
  0
TABLE
  2
APPID
 70
1
  0
APPID
  2
ACAD
 70
0
  0
ENDTAB
  0
TABLE
  2
DIMSTYLE
 70
0
  0
ENDTAB
  0
TABLE
  2
LAYER
 70
4
  0
LAYER
  2
0
 70
0
 62
7
  6
CONTINUOUS
  0
LAYER
  2
CONSTRUCTION_CLASS
 70
0
 62
7
  6
CONTINUOUS
  0
LAYER
  2
PATTERN_CLASS
 70
0
 62
7
  6
CONTINUOUS
  0
LAYER
  2
1
 70
0
 62
7
  6
CONTINUOUS
  0
ENDTAB
  0
TABLE
  2
STYLE
 70
1
  0
STYLE
  2
STANDARD
 70
0
 40
0.2
 41
1.0
 50
0.0
 71
0
 42
0.0
  3
txt
  4

  0
ENDTAB
  0
TABLE
  2
UCS
 70
0
  0
ENDTAB
  0
TABLE
  2
VIEW
 70
2
  0
VIEW
  2
AN_4
 70
0
 40
184.08589
 41
266.94694
 10
5.684342E-014
 20
4.263256E-014
 11
697.367456
 21
519.007202
 31
329.68983
 12
84.289249
 22
-71.590615
 32
36.906
 42
50.0
 43
464.8616
 44
-464.8616
 50
0.0
 71
0
  0
VIEW
  2
AN_5
 70
0
 40
188.27417
 41
272.91749
 10
0.0
 20
0.0
 11
135.559768
 21
77.131668
 31
99.909923
 12
24.854418
 22
-146.513275
 32
22.871679
 42
50.0
 43
92.61174
 44
-92.61174
 50
0.0
 71
0
  0
ENDTAB
  0
TABLE
  2
VPORT
 70
4
  0
VPORT
  2
*ACTIVE
 70
0
 10
0.500821
 20
0.50171
 11
0.998358
 21
0.997719
 12
0.0
 22
0.0
 13
0.0
 23
0.0
 14
0.0
 24
0.0
 15
0.0
 25
0.0
 16
0.0
 26
-2.766440E-015
 36
45.18088
 17
76.38901
 27
141.5599
 37
16.0
 40
297.25
 41
1.393103
 42
50.0
 43
22.59044
 44
-22.59044
 50
0.0
 51
0.0
 71
22
 72
100
 73
1
 74
0
 75
0
 76
0
 77
0
 78
0
  0
VPORT
  2
*ACTIVE
 70
0
 10
0.001642
 20
0.50171
 11
0.499179
 21
0.997719
 12
2.842171E-014
 22
0.0
 13
0.0
 23
0.0
 14
0.0
 24
0.0
 15
0.0
 25
0.0
 16
-152.41128
 26
-152.41128
 36
152.41128
 17
86.218688
 27
115.341211
 37
15.999999
 40
198.34743
 41
1.393103
 42
50.0
 43
131.99204
 44
-131.99204
 50
0.0
 51
0.0
 71
22
 72
100
 73
1
 74
0
 75
0
 76
0
 77
0
 78
0
  0
VPORT
  2
*ACTIVE
 70
0
 10
0.001642
 20
0.003421
 11
0.499179
 21
0.49943
 12
0.0
 22
0.0
 13
0.0
 23
0.0
 14
0.0
 24
0.0
 15
0.0
 25
0.0
 16
0.0
 26
-297.25
 36
0.0
 17
86.915363
 27
141.5599
 37
16.0
 40
129.12572
 41
1.393103
 42
50.0
 43
148.625
 44
-148.625
 50
0.0
 51
0.0
 71
22
 72
100
 73
1
 74
0
 75
0
 76
0
 77
0
 78
0
  0
VPORT
  2
*ACTIVE
 70
0
 10
0.500821
 20
0.003421
 11
0.998358
 21
0.49943
 12
0.0
 22
0.0
 13
0.0
 23
0.0
 14
0.0
 24
0.0
 15
0.0
 25
0.0
 16
198.6812
 26
0.0
 36
0.0
 17
95.0
 27
129.302314
 37
16.0
 40
195.775
 41
1.393103
 42
50.0
 43
99.3406
 44
-99.3406
 50
0.0
 51
0.0
 71
22
 72
100
 73
1
 74
0
 75
0
 76
0
 77
0
 78
0
  0
ENDTAB
  0
ENDSEC
  0
SECTION
  2
BLOCKS
  0
BLOCK
  8
1
  5
6
 70
1
 10
0.0
 20
0.0
 30
0.0
  2
*M0
  3
*M0
  0
ARC
  8
1
  5
8
  6
CONTINUOUS
 62
7
 10
67.9
 20
3.698276
 30
32.0
 40
4.1
 50
315.0000000018
 51
1.8422281604E-009
  0
LINE
  8
1
  5
A
  6
CONTINUOUS
 62
7
 10
70.79914
 20
0.79914
 30
32.0
 11
70.79914
 21
0.79914
 31
16.0
  0
ARC
  8
1
  5
C
  6
CONTINUOUS
 62
7
 210
0.0
 220
0.0
 230
-1.0
 10
-67.9
 20
3.698276
 30
-16.0
 40
4.1
 50
179.9999999982
 51
224.9999999982
  0
LINE
  8
1
  5
E
  6
CONTINUOUS
 62
7
 10
72.0
 20
3.69828
 30
16.0
 11
72.0
 21
3.69828
 31
32.0
  0
ARC
  8
1
  5
10
  6
CONTINUOUS
 62
7
 10
116.301724
 20
-2.1
 30
16.0
 40
4.1
 50
45.0
 51
90.0
  0
ARC
  8
1
  5
12
  6
CONTINUOUS
 62
7
 210
0.0
 220
0.0
 230
-1.0
 10
-122.1
 20
3.698276
 30
-16.0
 40
4.1
 50
315.0000000018
 51
1.8422281604E-009
  0
LINE
  8
1
  5
14
  6
CONTINUOUS
 62
7
 10
118.0
 20
3.69828
 30
16.0
 11
118.0
 21
14.94338
 31
16.0
  0
ARC
  8
1
  5
16
  6
CONTINUOUS
 62
7
 10
113.9
 20
14.943377
 30
16.0
 40
4.1
 50
0.0
 51
102.6402055556
  0
LINE
  8
1
  5
18
  6
CONTINUOUS
 62
7
 10
113.00281
 20
18.94401
 30
16.0
 11
108.8955
 21
18.02289
 31
16.0
  0
ARC
  8
1
  5
1A
  6
CONTINUOUS
 62
7
 210
0.0
 220
0.0
 230
-1.0
 10
-107.998302
 20
22.023519
 30
-16.0
 40
4.1
 50
257.3597458695
 51
345.5854264251
  0
LINE
  8
1
  5
1C
  6
CONTINUOUS
 62
7
 10
104.02737
 20
21.00288
 30
16.0
 11
103.2618
 21
23.98145
 31
16.0
  0
ARC
  8
1
  5
1E
  6
CONTINUOUS
 62
7
 210
0.0
 220
0.0
 230
-1.0
 10
-107.232727
 20
25.00209
 30
-16.0
 40
4.1
 50
345.5854265269
 51
14.3581459713
  0
LINE
  8
1
  5
20
  6
CONTINUOUS
 62
7
 10
103.26079
 20
26.01882
 30
16.0
 11
104.01752
 21
28.97505
 31
16.0
  0
ARC
  8
1
  5
22
  6
CONTINUOUS
 62
7
 210
0.0
 220
0.0
 230
-1.0
 10
-107.989456
 20
27.95832
 30
-16.0
 40
4.1
 50
14.3581449739
 51
102.395306085
  0
LINE
  8
1
  5
24
  6
CONTINUOUS
 62
7
 10
108.86954
 20
31.96275
 30
16.0
 11
113.01991
 21
31.05059
 31
16.0
  0
ARC
  8
1
  5
26
  6
CONTINUOUS
 62
7
 10
113.9
 20
35.055015
 30
16.0
 40
4.1
 50
257.6046543236
 51
359.999998768
  0
LINE
  8
1
  5
28
  6
CONTINUOUS
 62
7
 10
118.0
 20
35.05502
 30
16.0
 11
118.0
 21
46.30172
 31
16.0
  0
ARC
  8
1
  5
2A
  6
CONTINUOUS
 62
7
 210
0.0
 220
0.0
 230
-1.0
 10
-122.1
 20
46.301724
 30
-16.0
 40
4.1
 50
0.0
 51
45.0
  0
ARC
  8
1
  5
2C
  6
CONTINUOUS
 62
7
 10
116.301724
 20
52.1
 30
16.0
 40
4.1
 50
270.0
 51
315.0
  0
LINE
  8
1
  5
2E
  6
CONTINUOUS
 62
7
 10
105.05502
 20
48.0
 30
16.0
 11
116.30172
 21
48.0
 31
16.0
  0
ARC
  8
1
  5
30
  6
CONTINUOUS
 62
7
 210
0.0
 220
0.0
 230
-1.0
 10
-105.055015
 20
43.9
 30
-16.0
 40
4.1
 50
347.6046543388
 51
89.9999987832
  0
LINE
  8
1
  5
32
  6
CONTINUOUS
 62
7
 10
101.96275
 20
38.86954
 30
16.0
 11
101.05059
 21
43.01991
 31
16.0
  0
ARC
  8
1
  5
34
  6
CONTINUOUS
 62
7
 10
97.95832
 20
37.989456
 30
16.0
 40
4.1
 50
284.358144968
 51
12.3953060791
  0
LINE
  8
1
  5
36
  6
CONTINUOUS
 62
7
 10
96.01882
 20
33.26079
 30
16.0
 11
98.97505
 21
34.01752
 31
16.0
  0
ARC
  8
1
  5
38
  6
CONTINUOUS
 62
7
 10
95.00209
 20
37.232727
 30
16.0
 40
4.1
 50
255.5854265225
 51
284.3581459669
  0
LINE
  8
1
  5
3A
  6
CONTINUOUS
 62
7
 10
91.00288
 20
34.02737
 30
16.0
 11
93.98145
 21
33.2618
 31
16.0
  0
ARC
  8
1
  5
3C
  6
CONTINUOUS
 62
7
 10
92.023519
 20
37.998302
 30
16.0
 40
4.1
 50
167.3597958754
 51
255.5854264309
  0
LINE
  8
1
  5
3E
  6
CONTINUOUS
 62
7
 10
88.94401
 20
43.0028
 30
16.0
 11
88.02289
 21
38.8955
 31
16.0
  0
ARC
  8
1
  5
40
  6
CONTINUOUS
 62
7
 210
0.0
 220
0.0
 230
-1.0
 10
-84.943377
 20
43.9
 30
-16.0
 40
4.1
 50
90.0
 51
192.640225
  0
LINE
  8
1
  5
42
  6
CONTINUOUS
 62
7
 10
73.69828
 20
48.0
 30
16.0
 11
84.94338
 21
48.0
 31
16.0
  0
ARC
  8
1
  5
44
  6
CONTINUOUS
 62
7
 10
73.698276
 20
52.1
 30
16.0
 40
4.1
 50
224.9999999982
 51
269.9999999982
  0
ARC
  8
1
  5
46
  6
CONTINUOUS
 62
7
 210
0.0
 220
0.0
 230
-1.0
 10
-67.9
 20
46.301724
 30
-16.0
 40
4.1
 50
135.0
 51
180.0
  0
LINE
  8
1
  5
48
  6
CONTINUOUS
 62
7
 10
72.0
 20
46.30172
 30
16.0
 11
72.0
 21
35.05502
 31
16.0
  0
ARC
  8
1
  5
4A
  6
CONTINUOUS
 62
7
 10
76.1
 20
35.055015
 30
16.0
 40
4.1
 50
180.000001232
 51
282.3953456764
  0
LINE
  8
1
  5
4C
  6
CONTINUOUS
 62
7
 10
76.98009
 20
31.05059
 30
16.0
 11
81.13046
 21
31.96275
 31
16.0
  0
ARC
  8
1
  5
4E
  6
CONTINUOUS
 62
7
 210
0.0
 220
0.0
 230
-1.0
 10
-82.010544
 20
27.95832
 30
-16.0
 40
4.1
 50
77.604693915
 51
165.6418550261
  0
LINE
  8
1
  5
50
  6
CONTINUOUS
 62
7
 10
85.98248
 20
28.97505
 30
16.0
 11
86.73921
 21
26.01882
 31
16.0
  0
ARC
  8
1
  5
52
  6
CONTINUOUS
 62
7
 210
0.0
 220
0.0
 230
-1.0
 10
-82.767273
 20
25.00209
 30
-16.0
 40
4.1
 50
165.6418540287
 51
194.4145734731
  0
LINE
  8
1
  5
54
  6
CONTINUOUS
 62
7
 10
86.7382
 20
23.98145
 30
16.0
 11
85.97263
 21
21.00288
 31
16.0
  0
ARC
  8
1
  5
56
  6
CONTINUOUS
 62
7
 210
0.0
 220
0.0
 230
-1.0
 10
-82.001698
 20
22.023519
 30
-16.0
 40
4.1
 50
194.4145735749
 51
282.6402541305
  0
LINE
  8
1
  5
58
  6
CONTINUOUS
 62
7
 10
81.1045
 20
18.02289
 30
16.0
 11
76.99719
 21
18.94401
 31
16.0
  0
ARC
  8
1
  5
5A
  6
CONTINUOUS
 62
7
 10
76.1
 20
14.943377
 30
16.0
 40
4.1
 50
77.3597944444
 51
180.0
  0
LINE
  8
1
  5
5C
  6
CONTINUOUS
 62
7
 10
72.0
 20
14.94338
 30
16.0
 11
72.0
 21
3.69828
 31
16.0
  0
ARC
  8
1
  5
5E
  6
CONTINUOUS
 62
7
 10
73.698276
 20
-2.1
 30
16.0
 40
4.1
 50
90.0000000018
 51
135.0000000018
  0
LINE
  8
1
  5
60
  6
CONTINUOUS
 62
7
 10
84.94338
 20
2.0
 30
16.0
 11
73.69828
 21
2.0
 31
16.0
  0
ARC
  8
1
  5
62
  6
CONTINUOUS
 62
7
 210
0.0
 220
0.0
 230
-1.0
 10
-84.943377
 20
6.1
 30
-16.0
 40
4.1
 50
167.359775
 51
270.0
  0
LINE
  8
1
  5
64
  6
CONTINUOUS
 62
7
 10
88.02289
 20
11.1045
 30
16.0
 11
88.94401
 21
6.9972
 31
16.0
  0
ARC
  8
1
  5
66
  6
CONTINUOUS
 62
7
 10
92.023519
 20
12.001698
 30
16.0
 40
4.1
 50
104.4145735691
 51
192.6402041246
  0
LINE
  8
1
  5
68
  6
CONTINUOUS
 62
7
 10
93.98145
 20
16.7382
 30
16.0
 11
91.00288
 21
15.97263
 31
16.0
  0
ARC
  8
1
  5
6A
  6
CONTINUOUS
 62
7
 10
95.00209
 20
12.767273
 30
16.0
 40
4.1
 50
75.6418540331
 51
104.4145734775
  0
LINE
  8
1
  5
6C
  6
CONTINUOUS
 62
7
 10
98.97505
 20
15.98248
 30
16.0
 11
96.01882
 21
16.73921
 31
16.0
  0
ARC
  8
1
  5
6E
  6
CONTINUOUS
 62
7
 10
97.95832
 20
12.010544
 30
16.0
 40
4.1
 50
347.6046939209
 51
75.641855032
  0
LINE
  8
1
  5
70
  6
CONTINUOUS
 62
7
 10
101.05059
 20
6.98009
 30
16.0
 11
101.96275
 21
11.13046
 31
16.0
  0
ARC
  8
1
  5
72
  6
CONTINUOUS
 62
7
 210
0.0
 220
0.0
 230
-1.0
 10
-105.055015
 20
6.1
 30
-16.0
 40
4.1
 50
270.0000012168
 51
12.3953456612
  0
LINE
  8
1
  5
74
  6
CONTINUOUS
 62
7
 10
116.30172
 20
2.0
 30
16.0
 11
105.05502
 21
2.0
 31
16.0
  0
LINE
  8
1
  5
76
  6
CONTINUOUS
 62
7
 10
72.0
 20
3.69828
 30
32.0
 11
72.0
 21
14.94338
 31
32.0
  0
LINE
  8
1
  5
78
  6
CONTINUOUS
 62
7
 10
72.0
 20
14.94338
 30
16.0
 11
72.0
 21
14.94338
 31
32.0
  0
ARC
  8
1
  5
7A
  6
CONTINUOUS
 62
7
 210
0.0
 220
0.0
 230
-1.0
 10
-76.1
 20
14.943377
 30
-32.0
 40
4.1
 50
0.0
 51
102.6402055556
  0
LINE
  8
1
  5
7C
  6
CONTINUOUS
 62
7
 10
76.99719
 20
18.94401
 30
16.0
 11
76.99719
 21
18.94401
 31
32.0
  0
LINE
  8
1
  5
7E
  6
CONTINUOUS
 62
7
 10
76.99719
 20
18.94401
 30
32.0
 11
81.1045
 21
18.02289
 31
32.0
  0
LINE
  8
1
  5
80
  6
CONTINUOUS
 62
7
 10
81.1045
 20
18.02289
 30
16.0
 11
81.1045
 21
18.02289
 31
32.0
  0
ARC
  8
1
  5
82
  6
CONTINUOUS
 62
7
 10
82.001698
 20
22.023519
 30
32.0
 40
4.1
 50
257.3597458695
 51
345.5854264251
  0
LINE
  8
1
  5
84
  6
CONTINUOUS
 62
7
 10
85.97263
 20
21.00288
 30
16.0
 11
85.97263
 21
21.00288
 31
32.0
  0
LINE
  8
1
  5
86
  6
CONTINUOUS
 62
7
 10
85.97263
 20
21.00288
 30
32.0
 11
86.7382
 21
23.98145
 31
32.0
  0
LINE
  8
1
  5
88
  6
CONTINUOUS
 62
7
 10
86.7382
 20
23.98145
 30
16.0
 11
86.7382
 21
23.98145
 31
32.0
  0
ARC
  8
1
  5
8A
  6
CONTINUOUS
 62
7
 10
82.767273
 20
25.00209
 30
32.0
 40
4.1
 50
345.5854265269
 51
14.3581459713
  0
LINE
  8
1
  5
8C
  6
CONTINUOUS
 62
7
 10
86.73921
 20
26.01882
 30
16.0
 11
86.73921
 21
26.01882
 31
32.0
  0
LINE
  8
1
  5
8E
  6
CONTINUOUS
 62
7
 10
86.73921
 20
26.01882
 30
32.0
 11
85.98248
 21
28.97505
 31
32.0
  0
LINE
  8
1
  5
90
  6
CONTINUOUS
 62
7
 10
85.98248
 20
28.97505
 30
16.0
 11
85.98248
 21
28.97505
 31
32.0
  0
ARC
  8
1
  5
92
  6
CONTINUOUS
 62
7
 10
82.010544
 20
27.95832
 30
32.0
 40
4.1
 50
14.3581449739
 51
102.395306085
  0
LINE
  8
1
  5
94
  6
CONTINUOUS
 62
7
 10
81.13046
 20
31.96275
 30
16.0
 11
81.13046
 21
31.96275
 31
32.0
  0
LINE
  8
1
  5
96
  6
CONTINUOUS
 62
7
 10
81.13046
 20
31.96275
 30
32.0
 11
76.98009
 21
31.05059
 31
32.0
  0
LINE
  8
1
  5
98
  6
CONTINUOUS
 62
7
 10
76.98009
 20
31.05059
 30
16.0
 11
76.98009
 21
31.05059
 31
32.0
  0
ARC
  8
1
  5
9A
  6
CONTINUOUS
 62
7
 210
0.0
 220
0.0
 230
-1.0
 10
-76.1
 20
35.055015
 30
-32.0
 40
4.1
 50
257.6046543236
 51
359.999998768
  0
LINE
  8
1
  5
9C
  6
CONTINUOUS
 62
7
 10
72.0
 20
35.05502
 30
16.0
 11
72.0
 21
35.05502
 31
32.0
  0
LINE
  8
1
  5
9E
  6
CONTINUOUS
 62
7
 10
72.0
 20
35.05502
 30
32.0
 11
72.0
 21
46.30172
 31
32.0
  0
LINE
  8
1
  5
A0
  6
CONTINUOUS
 62
7
 10
72.0
 20
46.30172
 30
16.0
 11
72.0
 21
46.30172
 31
32.0
  0
ARC
  8
1
  5
A2
  6
CONTINUOUS
 62
7
 10
67.9
 20
46.301724
 30
32.0
 40
4.1
 50
0.0
 51
45.0
  0
LINE
  8
1
  5
A4
  6
CONTINUOUS
 62
7
 10
70.79914
 20
49.20086
 30
16.0
 11
70.79914
 21
49.20086
 31
32.0
  0
ARC
  8
1
  5
A6
  6
CONTINUOUS
 62
7
 10
122.1
 20
46.301724
 30
32.0
 40
4.1
 50
135.0
 51
180.0
  0
LINE
  8
1
  5
A8
  6
CONTINUOUS
 62
7
 10
119.20086
 20
49.20086
 30
32.0
 11
119.20086
 21
49.20086
 31
16.0
  0
LINE
  8
1
  5
AA
  6
CONTINUOUS
 62
7
 10
118.0
 20
46.30172
 30
16.0
 11
118.0
 21
46.30172
 31
32.0
  0
LINE
  8
1
  5
AC
  6
CONTINUOUS
 62
7
 10
118.0
 20
46.30172
 30
32.0
 11
118.0
 21
35.05502
 31
32.0
  0
LINE
  8
1
  5
AE
  6
CONTINUOUS
 62
7
 10
118.0
 20
35.05502
 30
16.0
 11
118.0
 21
35.05502
 31
32.0
  0
ARC
  8
1
  5
B0
  6
CONTINUOUS
 62
7
 210
0.0
 220
0.0
 230
-1.0
 10
-113.9
 20
35.055015
 30
-32.0
 40
4.1
 50
180.000001232
 51
282.3953456764
  0
LINE
  8
1
  5
B2
  6
CONTINUOUS
 62
7
 10
113.01991
 20
31.05059
 30
16.0
 11
113.01991
 21
31.05059
 31
32.0
  0
LINE
  8
1
  5
B4
  6
CONTINUOUS
 62
7
 10
113.01991
 20
31.05059
 30
32.0
 11
108.86954
 21
31.96275
 31
32.0
  0
LINE
  8
1
  5
B6
  6
CONTINUOUS
 62
7
 10
108.86954
 20
31.96275
 30
16.0
 11
108.86954
 21
31.96275
 31
32.0
  0
ARC
  8
1
  5
B8
  6
CONTINUOUS
 62
7
 10
107.989456
 20
27.95832
 30
32.0
 40
4.1
 50
77.604693915
 51
165.6418550261
  0
LINE
  8
1
  5
BA
  6
CONTINUOUS
 62
7
 10
104.01752
 20
28.97505
 30
16.0
 11
104.01752
 21
28.97505
 31
32.0
  0
LINE
  8
1
  5
BC
  6
CONTINUOUS
 62
7
 10
104.01752
 20
28.97505
 30
32.0
 11
103.26079
 21
26.01882
 31
32.0
  0
LINE
  8
1
  5
BE
  6
CONTINUOUS
 62
7
 10
103.26079
 20
26.01882
 30
16.0
 11
103.26079
 21
26.01882
 31
32.0
  0
ARC
  8
1
  5
C0
  6
CONTINUOUS
 62
7
 10
107.232727
 20
25.00209
 30
32.0
 40
4.1
 50
165.6418540287
 51
194.4145734731
  0
LINE
  8
1
  5
C2
  6
CONTINUOUS
 62
7
 10
103.2618
 20
23.98145
 30
16.0
 11
103.2618
 21
23.98145
 31
32.0
  0
LINE
  8
1
  5
C4
  6
CONTINUOUS
 62
7
 10
103.2618
 20
23.98145
 30
32.0
 11
104.02737
 21
21.00288
 31
32.0
  0
LINE
  8
1
  5
C6
  6
CONTINUOUS
 62
7
 10
104.02737
 20
21.00288
 30
16.0
 11
104.02737
 21
21.00288
 31
32.0
  0
ARC
  8
1
  5
C8
  6
CONTINUOUS
 62
7
 10
107.998302
 20
22.023519
 30
32.0
 40
4.1
 50
194.4145735749
 51
282.6402541305
  0
LINE
  8
1
  5
CA
  6
CONTINUOUS
 62
7
 10
108.8955
 20
18.02289
 30
16.0
 11
108.8955
 21
18.02289
 31
32.0
  0
LINE
  8
1
  5
CC
  6
CONTINUOUS
 62
7
 10
108.8955
 20
18.02289
 30
32.0
 11
113.00281
 21
18.94401
 31
32.0
  0
LINE
  8
1
  5
CE
  6
CONTINUOUS
 62
7
 10
113.00281
 20
18.94401
 30
16.0
 11
113.00281
 21
18.94401
 31
32.0
  0
ARC
  8
1
  5
D0
  6
CONTINUOUS
 62
7
 210
0.0
 220
0.0
 230
-1.0
 10
-113.9
 20
14.943377
 30
-32.0
 40
4.1
 50
77.3597944444
 51
180.0
  0
LINE
  8
1
  5
D2
  6
CONTINUOUS
 62
7
 10
118.0
 20
14.94338
 30
16.0
 11
118.0
 21
14.94338
 31
32.0
  0
LINE
  8
1
  5
D4
  6
CONTINUOUS
 62
7
 10
118.0
 20
14.94338
 30
32.0
 11
118.0
 21
3.69828
 31
32.0
  0
LINE
  8
1
  5
D6
  6
CONTINUOUS
 62
7
 10
118.0
 20
3.69828
 30
16.0
 11
118.0
 21
3.69828
 31
32.0
  0
ARC
  8
1
  5
D8
  6
CONTINUOUS
 62
7
 10
122.1
 20
3.698276
 30
32.0
 40
4.1
 50
179.9999999982
 51
224.9999999982
  0
LINE
  8
1
  5
DA
  6
CONTINUOUS
 62
7
 10
119.20086
 20
0.79914
 30
16.0
 11
119.20086
 21
0.79914
 31
32.0
  0
ENDBLK
  8
1
  5
DB
  0
BLOCK
  8
1
  5
DD
 70
1
 10
0.0
 20
0.0
 30
0.0
  2
*M1
  3
*M1
  0
LINE
  8
1
  5
DF
  6
CONTINUOUS
 62
7
 10
70.79914
 20
49.20086
 30
32.0
 11
70.0
 21
50.0
 31
32.0
  0
LINE
  8
1
  5
E1
  6
CONTINUOUS
 62
7
 10
70.79914
 20
49.20086
 30
0.0
 11
70.79914
 21
49.20086
 31
16.0
  0
LINE
  8
1
  5
E3
  6
CONTINUOUS
 62
7
 10
70.0
 20
50.0
 30
0.0
 11
70.79914
 21
49.20086
 31
0.0
  0
LINE
  8
1
  5
E5
  6
CONTINUOUS
 62
7
 10
70.0
 20
50.0
 30
32.0
 11
70.0
 21
50.0
 31
0.0
  0
LINE
  8
1
  5
E7
  6
CONTINUOUS
 62
7
 10
73.69828
 20
48.0
 30
0.0
 11
73.69828
 21
48.0
 31
16.0
  0
ARC
  8
1
  5
E9
  6
CONTINUOUS
 62
7
 10
73.698276
 20
52.1
 30
-3.552714E-015
 40
4.1
 50
224.9999999982
 51
269.9999999982
  0
LINE
  8
1
  5
EB
  6
CONTINUOUS
 62
7
 10
84.94338
 20
48.0
 30
0.0
 11
84.94338
 21
48.0
 31
16.0
  0
LINE
  8
1
  5
ED
  6
CONTINUOUS
 62
7
 10
73.69828
 20
48.0
 30
0.0
 11
84.94338
 21
48.0
 31
0.0
  0
LINE
  8
1
  5
EF
  6
CONTINUOUS
 62
7
 10
88.94401
 20
43.0028
 30
0.0
 11
88.94401
 21
43.0028
 31
16.0
  0
ARC
  8
1
  5
F1
  6
CONTINUOUS
 62
7
 210
0.0
 220
0.0
 230
-1.0
 10
-84.943377
 20
43.9
 30
1.776357E-015
 40
4.1
 50
90.0
 51
192.640225
  0
LINE
  8
1
  5
F3
  6
CONTINUOUS
 62
7
 10
88.02289
 20
38.8955
 30
0.0
 11
88.02289
 21
38.8955
 31
16.0
  0
LINE
  8
1
  5
F5
  6
CONTINUOUS
 62
7
 10
88.94401
 20
43.0028
 30
0.0
 11
88.02289
 21
38.8955
 31
0.0
  0
LINE
  8
1
  5
F7
  6
CONTINUOUS
 62
7
 10
91.00288
 20
34.02737
 30
0.0
 11
91.00288
 21
34.02737
 31
16.0
  0
ARC
  8
1
  5
F9
  6
CONTINUOUS
 62
7
 10
92.023519
 20
37.998302
 30
-1.776357E-015
 40
4.1
 50
167.3597958754
 51
255.5854264309
  0
LINE
  8
1
  5
FB
  6
CONTINUOUS
 62
7
 10
93.98145
 20
33.2618
 30
0.0
 11
93.98145
 21
33.2618
 31
16.0
  0
LINE
  8
1
  5
FD
  6
CONTINUOUS
 62
7
 10
91.00288
 20
34.02737
 30
0.0
 11
93.98145
 21
33.2618
 31
0.0
  0
LINE
  8
1
  5
FF
  6
CONTINUOUS
 62
7
 10
96.01882
 20
33.26079
 30
0.0
 11
96.01882
 21
33.26079
 31
16.0
  0
ARC
  8
1
  5
101
  6
CONTINUOUS
 62
7
 10
95.00209
 20
37.232727
 30
-1.776357E-015
 40
4.1
 50
255.5854265225
 51
284.3581459669
  0
LINE
  8
1
  5
103
  6
CONTINUOUS
 62
7
 10
98.97505
 20
34.01752
 30
0.0
 11
98.97505
 21
34.01752
 31
16.0
  0
LINE
  8
1
  5
105
  6
CONTINUOUS
 62
7
 10
96.01882
 20
33.26079
 30
0.0
 11
98.97505
 21
34.01752
 31
0.0
  0
LINE
  8
1
  5
107
  6
CONTINUOUS
 62
7
 10
101.96275
 20
38.86954
 30
0.0
 11
101.96275
 21
38.86954
 31
16.0
  0
ARC
  8
1
  5
109
  6
CONTINUOUS
 62
7
 10
97.95832
 20
37.989456
 30
-1.776357E-015
 40
4.1
 50
284.358144968
 51
12.3953060791
  0
LINE
  8
1
  5
10B
  6
CONTINUOUS
 62
7
 10
101.05059
 20
43.01991
 30
0.0
 11
101.05059
 21
43.01991
 31
16.0
  0
LINE
  8
1
  5
10D
  6
CONTINUOUS
 62
7
 10
101.96275
 20
38.86954
 30
0.0
 11
101.05059
 21
43.01991
 31
0.0
  0
LINE
  8
1
  5
10F
  6
CONTINUOUS
 62
7
 10
105.05502
 20
48.0
 30
0.0
 11
105.05502
 21
48.0
 31
16.0
  0
ARC
  8
1
  5
111
  6
CONTINUOUS
 62
7
 210
0.0
 220
0.0
 230
-1.0
 10
-105.055015
 20
43.9
 30
1.776357E-015
 40
4.1
 50
347.6046543388
 51
89.9999987832
  0
LINE
  8
1
  5
113
  6
CONTINUOUS
 62
7
 10
116.30172
 20
48.0
 30
0.0
 11
116.30172
 21
48.0
 31
16.0
  0
LINE
  8
1
  5
115
  6
CONTINUOUS
 62
7
 10
105.05502
 20
48.0
 30
0.0
 11
116.30172
 21
48.0
 31
0.0
  0
LINE
  8
1
  5
117
  6
CONTINUOUS
 62
7
 10
120.0
 20
50.0
 30
0.0
 11
120.0
 21
50.0
 31
32.0
  0
LINE
  8
1
  5
119
  6
CONTINUOUS
 62
7
 10
119.20086
 20
49.20086
 30
0.0
 11
120.0
 21
50.0
 31
0.0
  0
LINE
  8
1
  5
11B
  6
CONTINUOUS
 62
7
 10
119.20086
 20
49.20086
 30
0.0
 11
119.20086
 21
49.20086
 31
16.0
  0
LINE
  8
1
  5
11D
  6
CONTINUOUS
 62
7
 10
120.0
 20
50.0
 30
32.0
 11
119.20086
 21
49.20086
 31
32.0
  0
ARC
  8
1
  5
11F
  6
CONTINUOUS
 62
7
 10
116.301724
 20
52.1
 30
-3.552714E-015
 40
4.1
 50
270.0
 51
315.0
  0
ENDBLK
  8
1
  5
120
  0
BLOCK
  8
1
  5
122
 70
1
 10
0.0
 20
0.0
 30
0.0
  2
*M2
  3
*M2
  0
LINE
  8
1
  5
124
  6
CONTINUOUS
 62
7
 10
119.20086
 20
0.79914
 30
0.0
 11
119.20086
 21
0.79914
 31
16.0
  0
LINE
  8
1
  5
126
  6
CONTINUOUS
 62
7
 10
120.0
 20
0.0
 30
0.0
 11
119.20086
 21
0.79914
 31
0.0
  0
LINE
  8
1
  5
128
  6
CONTINUOUS
 62
7
 10
120.0
 20
0.0
 30
32.0
 11
120.0
 21
0.0
 31
0.0
  0
LINE
  8
1
  5
12A
  6
CONTINUOUS
 62
7
 10
119.20086
 20
0.79914
 30
32.0
 11
120.0
 21
0.0
 31
32.0
  0
LINE
  8
1
  5
12C
  6
CONTINUOUS
 62
7
 10
116.30172
 20
2.0
 30
0.0
 11
116.30172
 21
2.0
 31
16.0
  0
ARC
  8
1
  5
12E
  6
CONTINUOUS
 62
7
 10
116.301724
 20
-2.1
 30
0.0
 40
4.1
 50
45.0
 51
90.0
  0
LINE
  8
1
  5
130
  6
CONTINUOUS
 62
7
 10
105.05502
 20
2.0
 30
0.0
 11
105.05502
 21
2.0
 31
16.0
  0
LINE
  8
1
  5
132
  6
CONTINUOUS
 62
7
 10
116.30172
 20
2.0
 30
0.0
 11
105.05502
 21
2.0
 31
0.0
  0
LINE
  8
1
  5
134
  6
CONTINUOUS
 62
7
 10
101.05059
 20
6.98009
 30
0.0
 11
101.05059
 21
6.98009
 31
16.0
  0
ARC
  8
1
  5
136
  6
CONTINUOUS
 62
7
 210
0.0
 220
0.0
 230
-1.0
 10
-105.055015
 20
6.1
 30
0.0
 40
4.1
 50
270.0000012168
 51
12.3953456612
  0
LINE
  8
1
  5
138
  6
CONTINUOUS
 62
7
 10
101.96275
 20
11.13046
 30
0.0
 11
101.96275
 21
11.13046
 31
16.0
  0
LINE
  8
1
  5
13A
  6
CONTINUOUS
 62
7
 10
101.05059
 20
6.98009
 30
0.0
 11
101.96275
 21
11.13046
 31
0.0
  0
LINE
  8
1
  5
13C
  6
CONTINUOUS
 62
7
 10
98.97505
 20
15.98248
 30
0.0
 11
98.97505
 21
15.98248
 31
16.0
  0
ARC
  8
1
  5
13E
  6
CONTINUOUS
 62
7
 10
97.95832
 20
12.010544
 30
0.0
 40
4.1
 50
347.6046939209
 51
75.641855032
  0
LINE
  8
1
  5
140
  6
CONTINUOUS
 62
7
 10
96.01882
 20
16.73921
 30
0.0
 11
96.01882
 21
16.73921
 31
16.0
  0
LINE
  8
1
  5
142
  6
CONTINUOUS
 62
7
 10
98.97505
 20
15.98248
 30
0.0
 11
96.01882
 21
16.73921
 31
0.0
  0
LINE
  8
1
  5
144
  6
CONTINUOUS
 62
7
 10
93.98145
 20
16.7382
 30
0.0
 11
93.98145
 21
16.7382
 31
16.0
  0
ARC
  8
1
  5
146
  6
CONTINUOUS
 62
7
 10
95.00209
 20
12.767273
 30
0.0
 40
4.1
 50
75.6418540331
 51
104.4145734775
  0
LINE
  8
1
  5
148
  6
CONTINUOUS
 62
7
 10
91.00288
 20
15.97263
 30
0.0
 11
91.00288
 21
15.97263
 31
16.0
  0
LINE
  8
1
  5
14A
  6
CONTINUOUS
 62
7
 10
93.98145
 20
16.7382
 30
0.0
 11
91.00288
 21
15.97263
 31
0.0
  0
LINE
  8
1
  5
14C
  6
CONTINUOUS
 62
7
 10
88.02289
 20
11.1045
 30
0.0
 11
88.02289
 21
11.1045
 31
16.0
  0
ARC
  8
1
  5
14E
  6
CONTINUOUS
 62
7
 10
92.023519
 20
12.001698
 30
0.0
 40
4.1
 50
104.4145735691
 51
192.6402041246
  0
LINE
  8
1
  5
150
  6
CONTINUOUS
 62
7
 10
88.94401
 20
6.9972
 30
0.0
 11
88.94401
 21
6.9972
 31
16.0
  0
LINE
  8
1
  5
152
  6
CONTINUOUS
 62
7
 10
88.02289
 20
11.1045
 30
0.0
 11
88.94401
 21
6.9972
 31
0.0
  0
LINE
  8
1
  5
154
  6
CONTINUOUS
 62
7
 10
84.94338
 20
2.0
 30
0.0
 11
84.94338
 21
2.0
 31
16.0
  0
ARC
  8
1
  5
156
  6
CONTINUOUS
 62
7
 210
0.0
 220
0.0
 230
-1.0
 10
-84.943377
 20
6.1
 30
0.0
 40
4.1
 50
167.359775
 51
270.0
  0
LINE
  8
1
  5
158
  6
CONTINUOUS
 62
7
 10
73.69828
 20
2.0
 30
0.0
 11
73.69828
 21
2.0
 31
16.0
  0
LINE
  8
1
  5
15A
  6
CONTINUOUS
 62
7
 10
84.94338
 20
2.0
 30
0.0
 11
73.69828
 21
2.0
 31
0.0
  0
LINE
  8
1
  5
15C
  6
CONTINUOUS
 62
7
 10
70.79914
 20
0.79914
 30
0.0
 11
70.79914
 21
0.79914
 31
16.0
  0
ARC
  8
1
  5
15E
  6
CONTINUOUS
 62
7
 10
73.698276
 20
-2.1
 30
0.0
 40
4.1
 50
90.0000000018
 51
135.0000000018
  0
LINE
  8
1
  5
160
  6
CONTINUOUS
 62
7
 10
70.0
 20
0.0
 30
32.0
 11
70.79914
 21
0.79914
 31
32.0
  0
LINE
  8
1
  5
162
  6
CONTINUOUS
 62
7
 10
70.79914
 20
0.79914
 30
0.0
 11
70.0
 21
0.0
 31
0.0
  0
LINE
  8
1
  5
164
  6
CONTINUOUS
 62
7
 10
70.0
 20
0.0
 30
0.0
 11
70.0
 21
0.0
 31
32.0
  0
ENDBLK
  8
1
  5
165
  0
BLOCK
  8
1
  5
167
 70
1
 10
0.0
 20
0.0
 30
0.0
  2
*M3
  3
*M3
  0
LINE
  8
1
  5
169
  6
CONTINUOUS
 62
7
 10
0.0
 20
50.0
 30
32.0
 11
70.0
 21
50.0
 31
32.0
  0
LINE
  8
1
  5
16B
  6
CONTINUOUS
 62
7
 10
0.0
 20
0.0
 30
32.0
 11
0.0
 21
50.0
 31
32.0
  0
LINE
  8
1
  5
16D
  6
CONTINUOUS
 62
7
 10
70.0
 20
0.0
 30
32.0
 11
0.0
 21
0.0
 31
32.0
  0
LINE
  8
1
  5
16F
  6
CONTINUOUS
 62
7
 10
190.0
 20
50.0
 30
0.0
 11
120.0
 21
50.0
 31
0.0
  0
LINE
  8
1
  5
171
  6
CONTINUOUS
 62
7
 10
190.0
 20
0.0
 30
0.0
 11
190.0
 21
50.0
 31
0.0
  0
LINE
  8
1
  5
173
  6
CONTINUOUS
 62
7
 10
120.0
 20
0.0
 30
0.0
 11
190.0
 21
0.0
 31
0.0
  0
LINE
  8
1
  5
175
  6
CONTINUOUS
 62
7
 10
0.0
 20
0.0
 30
0.0
 11
70.0
 21
0.0
 31
0.0
  0
LINE
  8
1
  5
177
  6
CONTINUOUS
 62
7
 10
0.0
 20
50.0
 30
0.0
 11
0.0
 21
0.0
 31
0.0
  0
LINE
  8
1
  5
179
  6
CONTINUOUS
 62
7
 10
70.0
 20
50.0
 30
0.0
 11
0.0
 21
50.0
 31
0.0
  0
LINE
  8
1
  5
17B
  6
CONTINUOUS
 62
7
 10
120.0
 20
50.0
 30
32.0
 11
190.0
 21
50.0
 31
32.0
  0
LINE
  8
1
  5
17D
  6
CONTINUOUS
 62
7
 10
190.0
 20
50.0
 30
0.0
 11
190.0
 21
50.0
 31
32.0
  0
LINE
  8
1
  5
17F
  6
CONTINUOUS
 62
7
 10
190.0
 20
0.0
 30
32.0
 11
120.0
 21
0.0
 31
32.0
  0
LINE
  8
1
  5
181
  6
CONTINUOUS
 62
7
 10
190.0
 20
50.0
 30
32.0
 11
190.0
 21
0.0
 31
32.0
  0
LINE
  8
1
  5
183
  6
CONTINUOUS
 62
7
 10
190.0
 20
0.0
 30
0.0
 11
190.0
 21
0.0
 31
32.0
  0
LINE
  8
1
  5
185
  6
CONTINUOUS
 62
7
 10
0.0
 20
0.0
 30
0.0
 11
0.0
 21
0.0
 31
32.0
  0
LINE
  8
1
  5
187
  6
CONTINUOUS
 62
7
 10
0.0
 20
50.0
 30
0.0
 11
0.0
 21
50.0
 31
32.0
  0
ENDBLK
  8
1
  5
188
  0
BLOCK
  8
1
  5
18A
 70
1
 10
0.0
 20
0.0
 30
0.0
  2
*M4
  3
*M4
  0
INSERT
  8
1
  5
18C
  6
CONTINUOUS
 62
7
  2
*M2
 10
0.0
 20
0.0
 30
0.0
 41
1.0
 42
1.0
 43
1.0
 70
1
 71
1
  0
INSERT
  8
1
  5
18E
  6
CONTINUOUS
 62
7
  2
*M3
 10
0.0
 20
0.0
 30
0.0
 41
1.0
 42
1.0
 43
1.0
 70
1
 71
1
  0
ENDBLK
  8
1
  5
18F
  0
BLOCK
  8
1
  5
191
 70
1
 10
0.0
 20
0.0
 30
0.0
  2
*M5
  3
*M5
  0
INSERT
  8
1
  5
193
  6
CONTINUOUS
 62
7
  2
*M1
 10
0.0
 20
0.0
 30
0.0
 41
1.0
 42
1.0
 43
1.0
 70
1
 71
1
  0
INSERT
  8
1
  5
195
  6
CONTINUOUS
 62
7
  2
*M4
 10
0.0
 20
0.0
 30
0.0
 41
1.0
 42
1.0
 43
1.0
 70
1
 71
1
  0
ENDBLK
  8
1
  5
196
  0
BLOCK
  8
1
  5
198
 70
1
 10
0.0
 20
0.0
 30
0.0
  2
*M6
  3
*M6
  0
INSERT
  8
1
  5
19A
  6
CONTINUOUS
 62
7
  2
*M0
 10
0.0
 20
0.0
 30
0.0
 41
1.0
 42
1.0
 43
1.0
 70
1
 71
1
  0
INSERT
  8
1
  5
19C
  6
CONTINUOUS
 62
7
  2
*M5
 10
0.0
 20
0.0
 30
0.0
 41
1.0
 42
1.0
 43
1.0
 70
1
 71
1
  0
ENDBLK
  8
1
  5
19D
  0
BLOCK
  8
1
  5
19F
 70
1
 10
0.0
 20
0.0
 30
0.0
  2
*M7
  3
*M7
  0
ARC
  8
1
  5
1A1
  6
CONTINUOUS
 62
7
 210
0.0
 220
0.0
 230
-1.0
 10
-3.698276
 20
67.9
 30
32.0
 40
4.1
 50
44.9999999982
 51
89.9999999982
  0
LINE
  8
1
  5
1A3
  6
CONTINUOUS
 62
7
 10
0.79914
 20
70.79914
 30
-32.0
 11
0.79914
 21
70.79914
 31
-16.0
  0
ARC
  8
1
  5
1A5
  6
CONTINUOUS
 62
7
 10
3.698276
 20
67.9
 30
-16.0
 40
4.1
 50
90.0000000018
 51
135.0000000018
  0
LINE
  8
1
  5
1A7
  6
CONTINUOUS
 62
7
 10
3.69828
 20
72.0
 30
-16.0
 11
3.69828
 21
72.0
 31
-32.0
  0
ARC
  8
1
  5
1A9
  6
CONTINUOUS
 62
7
 210
0.0
 220
0.0
 230
-1.0
 10
2.1
 20
116.301724
 30
16.0
 40
4.1
 50
135.0
 51
180.0
  0
ARC
  8
1
  5
1AB
  6
CONTINUOUS
 62
7
 10
3.698276
 20
122.1
 30
-16.0
 40
4.1
 50
224.9999999982
 51
269.9999999982
  0
LINE
  8
1
  5
1AD
  6
CONTINUOUS
 62
7
 10
3.69828
 20
118.0
 30
-16.0
 11
14.94338
 21
118.0
 31
-16.0
  0
ARC
  8
1
  5
1AF
  6
CONTINUOUS
 62
7
 210
0.0
 220
0.0
 230
-1.0
 10
-14.943377
 20
113.9
 30
16.0
 40
4.1
 50
90.0
 51
192.6402055556
  0
LINE
  8
1
  5
1B1
  6
CONTINUOUS
 62
7
 10
18.94401
 20
113.00281
 30
-16.0
 11
18.02289
 21
108.8955
 31
-16.0
  0
ARC
  8
1
  5
1B3
  6
CONTINUOUS
 62
7
 10
22.023519
 20
107.998302
 30
-16.0
 40
4.1
 50
167.3597458754
 51
255.5854264309
  0
LINE
  8
1
  5
1B5
  6
CONTINUOUS
 62
7
 10
21.00288
 20
104.02737
 30
-16.0
 11
23.98145
 21
103.2618
 31
-16.0
  0
ARC
  8
1
  5
1B7
  6
CONTINUOUS
 62
7
 10
25.00209
 20
107.232727
 30
-16.0
 40
4.1
 50
255.5854265225
 51
284.3581459669
  0
LINE
  8
1
  5
1B9
  6
CONTINUOUS
 62
7
 10
26.01882
 20
103.26079
 30
-16.0
 11
28.97505
 21
104.01752
 31
-16.0
  0
ARC
  8
1
  5
1BB
  6
CONTINUOUS
 62
7
 10
27.95832
 20
107.989456
 30
-16.0
 40
4.1
 50
284.358144968
 51
12.3953060791
  0
LINE
  8
1
  5
1BD
  6
CONTINUOUS
 62
7
 10
31.96275
 20
108.86954
 30
-16.0
 11
31.05059
 21
113.01991
 31
-16.0
  0
ARC
  8
1
  5
1BF
  6
CONTINUOUS
 62
7
 210
0.0
 220
0.0
 230
-1.0
 10
-35.055015
 20
113.9
 30
16.0
 40
4.1
 50
347.6046543388
 51
89.9999987832
  0
LINE
  8
1
  5
1C1
  6
CONTINUOUS
 62
7
 10
35.05502
 20
118.0
 30
-16.0
 11
46.30172
 21
118.0
 31
-16.0
  0
ARC
  8
1
  5
1C3
  6
CONTINUOUS
 62
7
 10
46.301724
 20
122.1
 30
-16.0
 40
4.1
 50
270.0
 51
315.0
  0
ARC
  8
1
  5
1C5
  6
CONTINUOUS
 62
7
 210
0.0
 220
0.0
 230
-1.0
 10
-52.1
 20
116.301724
 30
16.0
 40
4.1
 50
0.0
 51
45.0
  0
LINE
  8
1
  5
1C7
  6
CONTINUOUS
 62
7
 10
48.0
 20
105.05502
 30
-16.0
 11
48.0
 21
116.30172
 31
-16.0
  0
ARC
  8
1
  5
1C9
  6
CONTINUOUS
 62
7
 10
43.9
 20
105.055015
 30
-16.0
 40
4.1
 50
257.6046543236
 51
359.999998768
  0
LINE
  8
1
  5
1CB
  6
CONTINUOUS
 62
7
 10
38.86954
 20
101.96275
 30
-16.0
 11
43.01991
 21
101.05059
 31
-16.0
  0
ARC
  8
1
  5
1CD
  6
CONTINUOUS
 62
7
 210
0.0
 220
0.0
 230
-1.0
 10
-37.989456
 20
97.95832
 30
16.0
 40
4.1
 50
14.3581449739
 51
102.395306085
  0
LINE
  8
1
  5
1CF
  6
CONTINUOUS
 62
7
 10
33.26079
 20
96.01882
 30
-16.0
 11
34.01752
 21
98.97505
 31
-16.0
  0
ARC
  8
1
  5
1D1
  6
CONTINUOUS
 62
7
 210
0.0
 220
0.0
 230
-1.0
 10
-37.232727
 20
95.00209
 30
16.0
 40
4.1
 50
345.5854265269
 51
14.3581459713
  0
LINE
  8
1
  5
1D3
  6
CONTINUOUS
 62
7
 10
34.02737
 20
91.00288
 30
-16.0
 11
33.2618
 21
93.98145
 31
-16.0
  0
ARC
  8
1
  5
1D5
  6
CONTINUOUS
 62
7
 210
0.0
 220
0.0
 230
-1.0
 10
-37.998302
 20
92.023519
 30
16.0
 40
4.1
 50
257.3597958695
 51
345.5854264251
  0
LINE
  8
1
  5
1D7
  6
CONTINUOUS
 62
7
 10
43.0028
 20
88.94401
 30
-16.0
 11
38.8955
 21
88.02289
 31
-16.0
  0
ARC
  8
1
  5
1D9
  6
CONTINUOUS
 62
7
 10
43.9
 20
84.943377
 30
-16.0
 40
4.1
 50
0.0
 51
102.640225
  0
LINE
  8
1
  5
1DB
  6
CONTINUOUS
 62
7
 10
48.0
 20
73.69828
 30
-16.0
 11
48.0
 21
84.94338
 31
-16.0
  0
ARC
  8
1
  5
1DD
  6
CONTINUOUS
 62
7
 210
0.0
 220
0.0
 230
-1.0
 10
-52.1
 20
73.698276
 30
16.0
 40
4.1
 50
315.0000000018
 51
1.8422281604E-009
  0
ARC
  8
1
  5
1DF
  6
CONTINUOUS
 62
7
 10
46.301724
 20
67.9
 30
-16.0
 40
4.1
 50
45.0
 51
90.0
  0
LINE
  8
1
  5
1E1
  6
CONTINUOUS
 62
7
 10
46.30172
 20
72.0
 30
-16.0
 11
35.05502
 21
72.0
 31
-16.0
  0
ARC
  8
1
  5
1E3
  6
CONTINUOUS
 62
7
 210
0.0
 220
0.0
 230
-1.0
 10
-35.055015
 20
76.1
 30
16.0
 40
4.1
 50
270.0000012168
 51
12.3953456612
  0
LINE
  8
1
  5
1E5
  6
CONTINUOUS
 62
7
 10
31.05059
 20
76.98009
 30
-16.0
 11
31.96275
 21
81.13046
 31
-16.0
  0
ARC
  8
1
  5
1E7
  6
CONTINUOUS
 62
7
 10
27.95832
 20
82.010544
 30
-16.0
 40
4.1
 50
347.6046939209
 51
75.641855032
  0
LINE
  8
1
  5
1E9
  6
CONTINUOUS
 62
7
 10
28.97505
 20
85.98248
 30
-16.0
 11
26.01882
 21
86.73921
 31
-16.0
  0
ARC
  8
1
  5
1EB
  6
CONTINUOUS
 62
7
 10
25.00209
 20
82.767273
 30
-16.0
 40
4.1
 50
75.6418540331
 51
104.4145734775
  0
LINE
  8
1
  5
1ED
  6
CONTINUOUS
 62
7
 10
23.98145
 20
86.7382
 30
-16.0
 11
21.00288
 21
85.97263
 31
-16.0
  0
ARC
  8
1
  5
1EF
  6
CONTINUOUS
 62
7
 10
22.023519
 20
82.001698
 30
-16.0
 40
4.1
 50
104.4145735691
 51
192.6402541246
  0
LINE
  8
1
  5
1F1
  6
CONTINUOUS
 62
7
 10
18.02289
 20
81.1045
 30
-16.0
 11
18.94401
 21
76.99719
 31
-16.0
  0
ARC
  8
1
  5
1F3
  6
CONTINUOUS
 62
7
 210
0.0
 220
0.0
 230
-1.0
 10
-14.943377
 20
76.1
 30
16.0
 40
4.1
 50
167.3597944444
 51
270.0
  0
LINE
  8
1
  5
1F5
  6
CONTINUOUS
 62
7
 10
14.94338
 20
72.0
 30
-16.0
 11
3.69828
 21
72.0
 31
-16.0
  0
ARC
  8
1
  5
1F7
  6
CONTINUOUS
 62
7
 210
0.0
 220
0.0
 230
-1.0
 10
2.1
 20
73.698276
 30
16.0
 40
4.1
 50
179.9999999982
 51
224.9999999982
  0
LINE
  8
1
  5
1F9
  6
CONTINUOUS
 62
7
 10
2.0
 20
84.94338
 30
-16.0
 11
2.0
 21
73.69828
 31
-16.0
  0
ARC
  8
1
  5
1FB
  6
CONTINUOUS
 62
7
 10
6.1
 20
84.943377
 30
-16.0
 40
4.1
 50
77.359775
 51
180.0
  0
LINE
  8
1
  5
1FD
  6
CONTINUOUS
 62
7
 10
11.1045
 20
88.02289
 30
-16.0
 11
6.9972
 21
88.94401
 31
-16.0
  0
ARC
  8
1
  5
1FF
  6
CONTINUOUS
 62
7
 210
0.0
 220
0.0
 230
-1.0
 10
-12.001698
 20
92.023519
 30
16.0
 40
4.1
 50
194.4145735749
 51
282.6402041305
  0
LINE
  8
1
  5
201
  6
CONTINUOUS
 62
7
 10
16.7382
 20
93.98145
 30
-16.0
 11
15.97263
 21
91.00288
 31
-16.0
  0
ARC
  8
1
  5
203
  6
CONTINUOUS
 62
7
 210
0.0
 220
0.0
 230
-1.0
 10
-12.767273
 20
95.00209
 30
16.0
 40
4.1
 50
165.6418540287
 51
194.4145734731
  0
LINE
  8
1
  5
205
  6
CONTINUOUS
 62
7
 10
15.98248
 20
98.97505
 30
-16.0
 11
16.73921
 21
96.01882
 31
-16.0
  0
ARC
  8
1
  5
207
  6
CONTINUOUS
 62
7
 210
0.0
 220
0.0
 230
-1.0
 10
-12.010544
 20
97.95832
 30
16.0
 40
4.1
 50
77.604693915
 51
165.6418550261
  0
LINE
  8
1
  5
209
  6
CONTINUOUS
 62
7
 10
6.98009
 20
101.05059
 30
-16.0
 11
11.13046
 21
101.96275
 31
-16.0
  0
ARC
  8
1
  5
20B
  6
CONTINUOUS
 62
7
 10
6.1
 20
105.055015
 30
-16.0
 40
4.1
 50
180.000001232
 51
282.3953456764
  0
LINE
  8
1
  5
20D
  6
CONTINUOUS
 62
7
 10
2.0
 20
116.30172
 30
-16.0
 11
2.0
 21
105.05502
 31
-16.0
  0
LINE
  8
1
  5
20F
  6
CONTINUOUS
 62
7
 10
3.69828
 20
72.0
 30
-32.0
 11
14.94338
 21
72.0
 31
-32.0
  0
LINE
  8
1
  5
211
  6
CONTINUOUS
 62
7
 10
14.94338
 20
72.0
 30
-16.0
 11
14.94338
 21
72.0
 31
-32.0
  0
ARC
  8
1
  5
213
  6
CONTINUOUS
 62
7
 10
14.943377
 20
76.1
 30
-32.0
 40
4.1
 50
270.0
 51
12.6402055556
  0
LINE
  8
1
  5
215
  6
CONTINUOUS
 62
7
 10
18.94401
 20
76.99719
 30
-16.0
 11
18.94401
 21
76.99719
 31
-32.0
  0
LINE
  8
1
  5
217
  6
CONTINUOUS
 62
7
 10
18.94401
 20
76.99719
 30
-32.0
 11
18.02289
 21
81.1045
 31
-32.0
  0
LINE
  8
1
  5
219
  6
CONTINUOUS
 62
7
 10
18.02289
 20
81.1045
 30
-16.0
 11
18.02289
 21
81.1045
 31
-32.0
  0
ARC
  8
1
  5
21B
  6
CONTINUOUS
 62
7
 210
0.0
 220
0.0
 230
-1.0
 10
-22.023519
 20
82.001698
 30
32.0
 40
4.1
 50
347.3597458754
 51
75.5854264309
  0
LINE
  8
1
  5
21D
  6
CONTINUOUS
 62
7
 10
21.00288
 20
85.97263
 30
-16.0
 11
21.00288
 21
85.97263
 31
-32.0
  0
LINE
  8
1
  5
21F
  6
CONTINUOUS
 62
7
 10
21.00288
 20
85.97263
 30
-32.0
 11
23.98145
 21
86.7382
 31
-32.0
  0
LINE
  8
1
  5
221
  6
CONTINUOUS
 62
7
 10
23.98145
 20
86.7382
 30
-16.0
 11
23.98145
 21
86.7382
 31
-32.0
  0
ARC
  8
1
  5
223
  6
CONTINUOUS
 62
7
 210
0.0
 220
0.0
 230
-1.0
 10
-25.00209
 20
82.767273
 30
32.0
 40
4.1
 50
75.5854265225
 51
104.3581459669
  0
LINE
  8
1
  5
225
  6
CONTINUOUS
 62
7
 10
26.01882
 20
86.73921
 30
-16.0
 11
26.01882
 21
86.73921
 31
-32.0
  0
LINE
  8
1
  5
227
  6
CONTINUOUS
 62
7
 10
26.01882
 20
86.73921
 30
-32.0
 11
28.97505
 21
85.98248
 31
-32.0
  0
LINE
  8
1
  5
229
  6
CONTINUOUS
 62
7
 10
28.97505
 20
85.98248
 30
-16.0
 11
28.97505
 21
85.98248
 31
-32.0
  0
ARC
  8
1
  5
22B
  6
CONTINUOUS
 62
7
 210
0.0
 220
0.0
 230
-1.0
 10
-27.95832
 20
82.010544
 30
32.0
 40
4.1
 50
104.358144968
 51
192.3953060791
  0
LINE
  8
1
  5
22D
  6
CONTINUOUS
 62
7
 10
31.96275
 20
81.13046
 30
-16.0
 11
31.96275
 21
81.13046
 31
-32.0
  0
LINE
  8
1
  5
22F
  6
CONTINUOUS
 62
7
 10
31.96275
 20
81.13046
 30
-32.0
 11
31.05059
 21
76.98009
 31
-32.0
  0
LINE
  8
1
  5
231
  6
CONTINUOUS
 62
7
 10
31.05059
 20
76.98009
 30
-16.0
 11
31.05059
 21
76.98009
 31
-32.0
  0
ARC
  8
1
  5
233
  6
CONTINUOUS
 62
7
 10
35.055015
 20
76.1
 30
-32.0
 40
4.1
 50
167.6046543388
 51
269.9999987832
  0
LINE
  8
1
  5
235
  6
CONTINUOUS
 62
7
 10
35.05502
 20
72.0
 30
-16.0
 11
35.05502
 21
72.0
 31
-32.0
  0
LINE
  8
1
  5
237
  6
CONTINUOUS
 62
7
 10
35.05502
 20
72.0
 30
-32.0
 11
46.30172
 21
72.0
 31
-32.0
  0
LINE
  8
1
  5
239
  6
CONTINUOUS
 62
7
 10
46.30172
 20
72.0
 30
-16.0
 11
46.30172
 21
72.0
 31
-32.0
  0
ARC
  8
1
  5
23B
  6
CONTINUOUS
 62
7
 210
0.0
 220
0.0
 230
-1.0
 10
-46.301724
 20
67.9
 30
32.0
 40
4.1
 50
90.0
 51
135.0
  0
LINE
  8
1
  5
23D
  6
CONTINUOUS
 62
7
 10
49.20086
 20
70.79914
 30
-16.0
 11
49.20086
 21
70.79914
 31
-32.0
  0
ARC
  8
1
  5
23F
  6
CONTINUOUS
 62
7
 210
0.0
 220
0.0
 230
-1.0
 10
-46.301724
 20
122.1
 30
32.0
 40
4.1
 50
225.0
 51
270.0
  0
LINE
  8
1
  5
241
  6
CONTINUOUS
 62
7
 10
49.20086
 20
119.20086
 30
-32.0
 11
49.20086
 21
119.20086
 31
-16.0
  0
LINE
  8
1
  5
243
  6
CONTINUOUS
 62
7
 10
46.30172
 20
118.0
 30
-16.0
 11
46.30172
 21
118.0
 31
-32.0
  0
LINE
  8
1
  5
245
  6
CONTINUOUS
 62
7
 10
46.30172
 20
118.0
 30
-32.0
 11
35.05502
 21
118.0
 31
-32.0
  0
LINE
  8
1
  5
247
  6
CONTINUOUS
 62
7
 10
35.05502
 20
118.0
 30
-16.0
 11
35.05502
 21
118.0
 31
-32.0
  0
ARC
  8
1
  5
249
  6
CONTINUOUS
 62
7
 10
35.055015
 20
113.9
 30
-32.0
 40
4.1
 50
90.0000012168
 51
192.3953456612
  0
LINE
  8
1
  5
24B
  6
CONTINUOUS
 62
7
 10
31.05059
 20
113.01991
 30
-16.0
 11
31.05059
 21
113.01991
 31
-32.0
  0
LINE
  8
1
  5
24D
  6
CONTINUOUS
 62
7
 10
31.05059
 20
113.01991
 30
-32.0
 11
31.96275
 21
108.86954
 31
-32.0
  0
LINE
  8
1
  5
24F
  6
CONTINUOUS
 62
7
 10
31.96275
 20
108.86954
 30
-16.0
 11
31.96275
 21
108.86954
 31
-32.0
  0
ARC
  8
1
  5
251
  6
CONTINUOUS
 62
7
 210
0.0
 220
0.0
 230
-1.0
 10
-27.95832
 20
107.989456
 30
32.0
 40
4.1
 50
167.6046939209
 51
255.641855032
  0
LINE
  8
1
  5
253
  6
CONTINUOUS
 62
7
 10
28.97505
 20
104.01752
 30
-16.0
 11
28.97505
 21
104.01752
 31
-32.0
  0
LINE
  8
1
  5
255
  6
CONTINUOUS
 62
7
 10
28.97505
 20
104.01752
 30
-32.0
 11
26.01882
 21
103.26079
 31
-32.0
  0
LINE
  8
1
  5
257
  6
CONTINUOUS
 62
7
 10
26.01882
 20
103.26079
 30
-16.0
 11
26.01882
 21
103.26079
 31
-32.0
  0
ARC
  8
1
  5
259
  6
CONTINUOUS
 62
7
 210
0.0
 220
0.0
 230
-1.0
 10
-25.00209
 20
107.232727
 30
32.0
 40
4.1
 50
255.6418540331
 51
284.4145734775
  0
LINE
  8
1
  5
25B
  6
CONTINUOUS
 62
7
 10
23.98145
 20
103.2618
 30
-16.0
 11
23.98145
 21
103.2618
 31
-32.0
  0
LINE
  8
1
  5
25D
  6
CONTINUOUS
 62
7
 10
23.98145
 20
103.2618
 30
-32.0
 11
21.00288
 21
104.02737
 31
-32.0
  0
LINE
  8
1
  5
25F
  6
CONTINUOUS
 62
7
 10
21.00288
 20
104.02737
 30
-16.0
 11
21.00288
 21
104.02737
 31
-32.0
  0
ARC
  8
1
  5
261
  6
CONTINUOUS
 62
7
 210
0.0
 220
0.0
 230
-1.0
 10
-22.023519
 20
107.998302
 30
32.0
 40
4.1
 50
284.4145735691
 51
12.6402541246
  0
LINE
  8
1
  5
263
  6
CONTINUOUS
 62
7
 10
18.02289
 20
108.8955
 30
-16.0
 11
18.02289
 21
108.8955
 31
-32.0
  0
LINE
  8
1
  5
265
  6
CONTINUOUS
 62
7
 10
18.02289
 20
108.8955
 30
-32.0
 11
18.94401
 21
113.00281
 31
-32.0
  0
LINE
  8
1
  5
267
  6
CONTINUOUS
 62
7
 10
18.94401
 20
113.00281
 30
-16.0
 11
18.94401
 21
113.00281
 31
-32.0
  0
ARC
  8
1
  5
269
  6
CONTINUOUS
 62
7
 10
14.943377
 20
113.9
 30
-32.0
 40
4.1
 50
347.3597944444
 51
90.0
  0
LINE
  8
1
  5
26B
  6
CONTINUOUS
 62
7
 10
14.94338
 20
118.0
 30
-16.0
 11
14.94338
 21
118.0
 31
-32.0
  0
LINE
  8
1
  5
26D
  6
CONTINUOUS
 62
7
 10
14.94338
 20
118.0
 30
-32.0
 11
3.69828
 21
118.0
 31
-32.0
  0
LINE
  8
1
  5
26F
  6
CONTINUOUS
 62
7
 10
3.69828
 20
118.0
 30
-16.0
 11
3.69828
 21
118.0
 31
-32.0
  0
ARC
  8
1
  5
271
  6
CONTINUOUS
 62
7
 210
0.0
 220
0.0
 230
-1.0
 10
-3.698276
 20
122.1
 30
32.0
 40
4.1
 50
270.0000000018
 51
315.0000000018
  0
LINE
  8
1
  5
273
  6
CONTINUOUS
 62
7
 10
0.79914
 20
119.20086
 30
-16.0
 11
0.79914
 21
119.20086
 31
-32.0
  0
ENDBLK
  8
1
  5
274
  0
BLOCK
  8
1
  5
276
 70
1
 10
0.0
 20
0.0
 30
0.0
  2
*M8
  3
*M8
  0
LINE
  8
1
  5
278
  6
CONTINUOUS
 62
7
 10
49.20086
 20
70.79914
 30
-32.0
 11
50.0
 21
70.0
 31
-32.0
  0
LINE
  8
1
  5
27A
  6
CONTINUOUS
 62
7
 10
49.20086
 20
70.79914
 30
0.0
 11
49.20086
 21
70.79914
 31
-16.0
  0
LINE
  8
1
  5
27C
  6
CONTINUOUS
 62
7
 10
50.0
 20
70.0
 30
0.0
 11
49.20086
 21
70.79914
 31
0.0
  0
LINE
  8
1
  5
27E
  6
CONTINUOUS
 62
7
 10
50.0
 20
70.0
 30
-32.0
 11
50.0
 21
70.0
 31
0.0
  0
LINE
  8
1
  5
280
  6
CONTINUOUS
 62
7
 10
48.0
 20
73.69828
 30
0.0
 11
48.0
 21
73.69828
 31
-16.0
  0
ARC
  8
1
  5
282
  6
CONTINUOUS
 62
7
 210
0.0
 220
0.0
 230
-1.0
 10
-52.1
 20
73.698276
 30
0.0
 40
4.1
 50
315.0000000018
 51
1.8422281604E-009
  0
LINE
  8
1
  5
284
  6
CONTINUOUS
 62
7
 10
48.0
 20
84.94338
 30
0.0
 11
48.0
 21
84.94338
 31
-16.0
  0
LINE
  8
1
  5
286
  6
CONTINUOUS
 62
7
 10
48.0
 20
73.69828
 30
0.0
 11
48.0
 21
84.94338
 31
0.0
  0
LINE
  8
1
  5
288
  6
CONTINUOUS
 62
7
 10
43.0028
 20
88.94401
 30
0.0
 11
43.0028
 21
88.94401
 31
-16.0
  0
ARC
  8
1
  5
28A
  6
CONTINUOUS
 62
7
 10
43.9
 20
84.943377
 30
0.0
 40
4.1
 50
0.0
 51
102.640225
  0
LINE
  8
1
  5
28C
  6
CONTINUOUS
 62
7
 10
38.8955
 20
88.02289
 30
0.0
 11
38.8955
 21
88.02289
 31
-16.0
  0
LINE
  8
1
  5
28E
  6
CONTINUOUS
 62
7
 10
43.0028
 20
88.94401
 30
0.0
 11
38.8955
 21
88.02289
 31
0.0
  0
LINE
  8
1
  5
290
  6
CONTINUOUS
 62
7
 10
34.02737
 20
91.00288
 30
0.0
 11
34.02737
 21
91.00288
 31
-16.0
  0
ARC
  8
1
  5
292
  6
CONTINUOUS
 62
7
 210
0.0
 220
0.0
 230
-1.0
 10
-37.998302
 20
92.023519
 30
0.0
 40
4.1
 50
257.3597958695
 51
345.5854264251
  0
LINE
  8
1
  5
294
  6
CONTINUOUS
 62
7
 10
33.2618
 20
93.98145
 30
0.0
 11
33.2618
 21
93.98145
 31
-16.0
  0
LINE
  8
1
  5
296
  6
CONTINUOUS
 62
7
 10
34.02737
 20
91.00288
 30
0.0
 11
33.2618
 21
93.98145
 31
0.0
  0
LINE
  8
1
  5
298
  6
CONTINUOUS
 62
7
 10
33.26079
 20
96.01882
 30
0.0
 11
33.26079
 21
96.01882
 31
-16.0
  0
ARC
  8
1
  5
29A
  6
CONTINUOUS
 62
7
 210
0.0
 220
0.0
 230
-1.0
 10
-37.232727
 20
95.00209
 30
0.0
 40
4.1
 50
345.5854265269
 51
14.3581459713
  0
LINE
  8
1
  5
29C
  6
CONTINUOUS
 62
7
 10
34.01752
 20
98.97505
 30
0.0
 11
34.01752
 21
98.97505
 31
-16.0
  0
LINE
  8
1
  5
29E
  6
CONTINUOUS
 62
7
 10
33.26079
 20
96.01882
 30
0.0
 11
34.01752
 21
98.97505
 31
0.0
  0
LINE
  8
1
  5
2A0
  6
CONTINUOUS
 62
7
 10
38.86954
 20
101.96275
 30
0.0
 11
38.86954
 21
101.96275
 31
-16.0
  0
ARC
  8
1
  5
2A2
  6
CONTINUOUS
 62
7
 210
0.0
 220
0.0
 230
-1.0
 10
-37.989456
 20
97.95832
 30
0.0
 40
4.1
 50
14.3581449739
 51
102.395306085
  0
LINE
  8
1
  5
2A4
  6
CONTINUOUS
 62
7
 10
43.01991
 20
101.05059
 30
0.0
 11
43.01991
 21
101.05059
 31
-16.0
  0
LINE
  8
1
  5
2A6
  6
CONTINUOUS
 62
7
 10
38.86954
 20
101.96275
 30
0.0
 11
43.01991
 21
101.05059
 31
0.0
  0
LINE
  8
1
  5
2A8
  6
CONTINUOUS
 62
7
 10
48.0
 20
105.05502
 30
0.0
 11
48.0
 21
105.05502
 31
-16.0
  0
ARC
  8
1
  5
2AA
  6
CONTINUOUS
 62
7
 10
43.9
 20
105.055015
 30
0.0
 40
4.1
 50
257.6046543236
 51
359.999998768
  0
LINE
  8
1
  5
2AC
  6
CONTINUOUS
 62
7
 10
48.0
 20
116.30172
 30
0.0
 11
48.0
 21
116.30172
 31
-16.0
  0
LINE
  8
1
  5
2AE
  6
CONTINUOUS
 62
7
 10
48.0
 20
105.05502
 30
0.0
 11
48.0
 21
116.30172
 31
0.0
  0
LINE
  8
1
  5
2B0
  6
CONTINUOUS
 62
7
 10
50.0
 20
120.0
 30
0.0
 11
50.0
 21
120.0
 31
-32.0
  0
LINE
  8
1
  5
2B2
  6
CONTINUOUS
 62
7
 10
49.20086
 20
119.20086
 30
0.0
 11
50.0
 21
120.0
 31
0.0
  0
LINE
  8
1
  5
2B4
  6
CONTINUOUS
 62
7
 10
49.20086
 20
119.20086
 30
0.0
 11
49.20086
 21
119.20086
 31
-16.0
  0
LINE
  8
1
  5
2B6
  6
CONTINUOUS
 62
7
 10
50.0
 20
120.0
 30
-32.0
 11
49.20086
 21
119.20086
 31
-32.0
  0
ARC
  8
1
  5
2B8
  6
CONTINUOUS
 62
7
 210
0.0
 220
0.0
 230
-1.0
 10
-52.1
 20
116.301724
 30
0.0
 40
4.1
 50
0.0
 51
45.0
  0
ENDBLK
  8
1
  5
2B9
  0
BLOCK
  8
1
  5
2BB
 70
1
 10
0.0
 20
0.0
 30
0.0
  2
*M9
  3
*M9
  0
LINE
  8
1
  5
2BD
  6
CONTINUOUS
 62
7
 10
0.79914
 20
119.20086
 30
0.0
 11
0.79914
 21
119.20086
 31
-16.0
  0
LINE
  8
1
  5
2BF
  6
CONTINUOUS
 62
7
 10
0.0
 20
120.0
 30
0.0
 11
0.79914
 21
119.20086
 31
0.0
  0
LINE
  8
1
  5
2C1
  6
CONTINUOUS
 62
7
 10
0.0
 20
120.0
 30
-32.0
 11
0.0
 21
120.0
 31
0.0
  0
LINE
  8
1
  5
2C3
  6
CONTINUOUS
 62
7
 10
0.79914
 20
119.20086
 30
-32.0
 11
0.0
 21
120.0
 31
-32.0
  0
LINE
  8
1
  5
2C5
  6
CONTINUOUS
 62
7
 10
2.0
 20
116.30172
 30
0.0
 11
2.0
 21
116.30172
 31
-16.0
  0
ARC
  8
1
  5
2C7
  6
CONTINUOUS
 62
7
 210
0.0
 220
0.0
 230
-1.0
 10
2.1
 20
116.301724
 30
0.0
 40
4.1
 50
135.0
 51
180.0
  0
LINE
  8
1
  5
2C9
  6
CONTINUOUS
 62
7
 10
2.0
 20
105.05502
 30
0.0
 11
2.0
 21
105.05502
 31
-16.0
  0
LINE
  8
1
  5
2CB
  6
CONTINUOUS
 62
7
 10
2.0
 20
116.30172
 30
0.0
 11
2.0
 21
105.05502
 31
0.0
  0
LINE
  8
1
  5
2CD
  6
CONTINUOUS
 62
7
 10
6.98009
 20
101.05059
 30
0.0
 11
6.98009
 21
101.05059
 31
-16.0
  0
ARC
  8
1
  5
2CF
  6
CONTINUOUS
 62
7
 10
6.1
 20
105.055015
 30
0.0
 40
4.1
 50
180.000001232
 51
282.3953456764
  0
LINE
  8
1
  5
2D1
  6
CONTINUOUS
 62
7
 10
11.13046
 20
101.96275
 30
0.0
 11
11.13046
 21
101.96275
 31
-16.0
  0
LINE
  8
1
  5
2D3
  6
CONTINUOUS
 62
7
 10
6.98009
 20
101.05059
 30
0.0
 11
11.13046
 21
101.96275
 31
0.0
  0
LINE
  8
1
  5
2D5
  6
CONTINUOUS
 62
7
 10
15.98248
 20
98.97505
 30
0.0
 11
15.98248
 21
98.97505
 31
-16.0
  0
ARC
  8
1
  5
2D7
  6
CONTINUOUS
 62
7
 210
0.0
 220
0.0
 230
-1.0
 10
-12.010544
 20
97.95832
 30
0.0
 40
4.1
 50
77.604693915
 51
165.6418550261
  0
LINE
  8
1
  5
2D9
  6
CONTINUOUS
 62
7
 10
16.73921
 20
96.01882
 30
0.0
 11
16.73921
 21
96.01882
 31
-16.0
  0
LINE
  8
1
  5
2DB
  6
CONTINUOUS
 62
7
 10
15.98248
 20
98.97505
 30
0.0
 11
16.73921
 21
96.01882
 31
0.0
  0
LINE
  8
1
  5
2DD
  6
CONTINUOUS
 62
7
 10
16.7382
 20
93.98145
 30
0.0
 11
16.7382
 21
93.98145
 31
-16.0
  0
ARC
  8
1
  5
2DF
  6
CONTINUOUS
 62
7
 210
0.0
 220
0.0
 230
-1.0
 10
-12.767273
 20
95.00209
 30
0.0
 40
4.1
 50
165.6418540287
 51
194.4145734731
  0
LINE
  8
1
  5
2E1
  6
CONTINUOUS
 62
7
 10
15.97263
 20
91.00288
 30
0.0
 11
15.97263
 21
91.00288
 31
-16.0
  0
LINE
  8
1
  5
2E3
  6
CONTINUOUS
 62
7
 10
16.7382
 20
93.98145
 30
0.0
 11
15.97263
 21
91.00288
 31
0.0
  0
LINE
  8
1
  5
2E5
  6
CONTINUOUS
 62
7
 10
11.1045
 20
88.02289
 30
0.0
 11
11.1045
 21
88.02289
 31
-16.0
  0
ARC
  8
1
  5
2E7
  6
CONTINUOUS
 62
7
 210
0.0
 220
0.0
 230
-1.0
 10
-12.001698
 20
92.023519
 30
0.0
 40
4.1
 50
194.4145735749
 51
282.6402041305
  0
LINE
  8
1
  5
2E9
  6
CONTINUOUS
 62
7
 10
6.9972
 20
88.94401
 30
0.0
 11
6.9972
 21
88.94401
 31
-16.0
  0
LINE
  8
1
  5
2EB
  6
CONTINUOUS
 62
7
 10
11.1045
 20
88.02289
 30
0.0
 11
6.9972
 21
88.94401
 31
0.0
  0
LINE
  8
1
  5
2ED
  6
CONTINUOUS
 62
7
 10
2.0
 20
84.94338
 30
0.0
 11
2.0
 21
84.94338
 31
-16.0
  0
ARC
  8
1
  5
2EF
  6
CONTINUOUS
 62
7
 10
6.1
 20
84.943377
 30
0.0
 40
4.1
 50
77.359775
 51
180.0
  0
LINE
  8
1
  5
2F1
  6
CONTINUOUS
 62
7
 10
2.0
 20
73.69828
 30
0.0
 11
2.0
 21
73.69828
 31
-16.0
  0
LINE
  8
1
  5
2F3
  6
CONTINUOUS
 62
7
 10
2.0
 20
84.94338
 30
0.0
 11
2.0
 21
73.69828
 31
0.0
  0
LINE
  8
1
  5
2F5
  6
CONTINUOUS
 62
7
 10
0.79914
 20
70.79914
 30
0.0
 11
0.79914
 21
70.79914
 31
-16.0
  0
ARC
  8
1
  5
2F7
  6
CONTINUOUS
 62
7
 210
0.0
 220
0.0
 230
-1.0
 10
2.1
 20
73.698276
 30
0.0
 40
4.1
 50
179.9999999982
 51
224.9999999982
  0
LINE
  8
1
  5
2F9
  6
CONTINUOUS
 62
7
 10
0.0
 20
70.0
 30
-32.0
 11
0.79914
 21
70.79914
 31
-32.0
  0
LINE
  8
1
  5
2FB
  6
CONTINUOUS
 62
7
 10
0.79914
 20
70.79914
 30
0.0
 11
0.0
 21
70.0
 31
0.0
  0
LINE
  8
1
  5
2FD
  6
CONTINUOUS
 62
7
 10
0.0
 20
70.0
 30
0.0
 11
0.0
 21
70.0
 31
-32.0
  0
ENDBLK
  8
1
  5
2FE
  0
BLOCK
  8
1
  5
300
 70
1
 10
0.0
 20
0.0
 30
0.0
  2
*M10
  3
*M10
  0
LINE
  8
1
  5
302
  6
CONTINUOUS
 62
7
 10
50.0
 20
0.0
 30
-32.0
 11
50.0
 21
70.0
 31
-32.0
  0
LINE
  8
1
  5
304
  6
CONTINUOUS
 62
7
 10
0.0
 20
0.0
 30
-32.0
 11
50.0
 21
0.0
 31
-32.0
  0
LINE
  8
1
  5
306
  6
CONTINUOUS
 62
7
 10
0.0
 20
70.0
 30
-32.0
 11
0.0
 21
0.0
 31
-32.0
  0
LINE
  8
1
  5
308
  6
CONTINUOUS
 62
7
 10
50.0
 20
190.0
 30
0.0
 11
50.0
 21
120.0
 31
0.0
  0
LINE
  8
1
  5
30A
  6
CONTINUOUS
 62
7
 10
0.0
 20
190.0
 30
0.0
 11
50.0
 21
190.0
 31
0.0
  0
LINE
  8
1
  5
30C
  6
CONTINUOUS
 62
7
 10
0.0
 20
120.0
 30
0.0
 11
0.0
 21
190.0
 31
0.0
  0
LINE
  8
1
  5
30E
  6
CONTINUOUS
 62
7
 10
0.0
 20
0.0
 30
0.0
 11
0.0
 21
70.0
 31
0.0
  0
LINE
  8
1
  5
310
  6
CONTINUOUS
 62
7
 10
50.0
 20
0.0
 30
0.0
 11
0.0
 21
0.0
 31
0.0
  0
LINE
  8
1
  5
312
  6
CONTINUOUS
 62
7
 10
50.0
 20
70.0
 30
0.0
 11
50.0
 21
0.0
 31
0.0
  0
LINE
  8
1
  5
314
  6
CONTINUOUS
 62
7
 10
50.0
 20
120.0
 30
-32.0
 11
50.0
 21
190.0
 31
-32.0
  0
LINE
  8
1
  5
316
  6
CONTINUOUS
 62
7
 10
50.0
 20
190.0
 30
0.0
 11
50.0
 21
190.0
 31
-32.0
  0
LINE
  8
1
  5
318
  6
CONTINUOUS
 62
7
 10
0.0
 20
190.0
 30
-32.0
 11
0.0
 21
120.0
 31
-32.0
  0
LINE
  8
1
  5
31A
  6
CONTINUOUS
 62
7
 10
50.0
 20
190.0
 30
-32.0
 11
0.0
 21
190.0
 31
-32.0
  0
LINE
  8
1
  5
31C
  6
CONTINUOUS
 62
7
 10
0.0
 20
190.0
 30
0.0
 11
0.0
 21
190.0
 31
-32.0
  0
LINE
  8
1
  5
31E
  6
CONTINUOUS
 62
7
 10
0.0
 20
0.0
 30
0.0
 11
0.0
 21
0.0
 31
-32.0
  0
LINE
  8
1
  5
320
  6
CONTINUOUS
 62
7
 10
50.0
 20
0.0
 30
0.0
 11
50.0
 21
0.0
 31
-32.0
  0
ENDBLK
  8
1
  5
321
  0
BLOCK
  8
1
  5
323
 70
1
 10
0.0
 20
0.0
 30
0.0
  2
*M11
  3
*M11
  0
INSERT
  8
1
  5
325
  6
CONTINUOUS
 62
7
  2
*M9
 10
0.0
 20
0.0
 30
0.0
 41
1.0
 42
1.0
 43
1.0
 70
1
 71
1
  0
INSERT
  8
1
  5
327
  6
CONTINUOUS
 62
7
  2
*M10
 10
0.0
 20
0.0
 30
0.0
 41
1.0
 42
1.0
 43
1.0
 70
1
 71
1
  0
ENDBLK
  8
1
  5
328
  0
BLOCK
  8
1
  5
32A
 70
1
 10
0.0
 20
0.0
 30
0.0
  2
*M12
  3
*M12
  0
INSERT
  8
1
  5
32C
  6
CONTINUOUS
 62
7
  2
*M8
 10
0.0
 20
0.0
 30
0.0
 41
1.0
 42
1.0
 43
1.0
 70
1
 71
1
  0
INSERT
  8
1
  5
32E
  6
CONTINUOUS
 62
7
  2
*M11
 10
0.0
 20
0.0
 30
0.0
 41
1.0
 42
1.0
 43
1.0
 70
1
 71
1
  0
ENDBLK
  8
1
  5
32F
  0
BLOCK
  8
1
  5
331
 70
1
 10
0.0
 20
0.0
 30
0.0
  2
*M13
  3
*M13
  0
INSERT
  8
1
  5
333
  6
CONTINUOUS
 62
7
  2
*M7
 10
0.0
 20
0.0
 30
0.0
 41
1.0
 42
1.0
 43
1.0
 70
1
 71
1
  0
INSERT
  8
1
  5
335
  6
CONTINUOUS
 62
7
  2
*M12
 10
0.0
 20
0.0
 30
0.0
 41
1.0
 42
1.0
 43
1.0
 70
1
 71
1
  0
ENDBLK
  8
1
  5
336
  0
ENDSEC
  0
SECTION
  2
ENTITIES
  0
INSERT
  8
1
  5
2
  6
CONTINUOUS
 62
7
  2
*M6
 10
0.0
 20
-3.4401
 30
0.0
 41
1.0
 42
1.0
 43
1.0
 70
1
 71
1
  0
INSERT
  8
1
  5
4
  6
CONTINUOUS
 62
7
  2
*M13
 10
70.0
 20
96.5599
 30
32.0
 41
1.0
 42
1.0
 43
1.0
 70
1
 71
1
  0
ENDSEC
  0
EOF
