  0
SECTION
  2
HEADER
  9
$ACADVER
  1
AC1009
  9
$INSBASE
 10
0.0
 20
0.0
 30
0.0
  9
$EXTMAX
 10
190.0
 20
50.0
 30
32.0
  9
$EXTMIN
 10
0.0
 20
-100.0
 30
0.0
  9
$LIMMAX
 10
12.0
 20
9.0
  9
$LIMMIN
 10
0.0
 20
0.0
  9
$ORTHOMODE
 70
0
  9
$REGENMODE
 70
1
  9
$FILLMODE
 70
1
  9
$QTEXTMODE
 70
0
  9
$MIRRTEXT
 70
1
  9
$DRAGMODE
 70
2
  9
$LTSCALE
 40
1.0
  9
$OSMODE
 70
0
  9
$ATTMODE
 70
1
  9
$TEXTSIZE
 40
0.2
  9
$TRACEWID
 40
0.05
  9
$TEXTSTYLE
  7
STANDARD
  9
$CLAYER
  8
0
  9
$CELTYPE
  6
CONTINUOUS
  9
$CECOLOR
 62
256
  9
$DIMSCALE
 40
1.0
  9
$DIMASZ
 40
0.18
  9
$DIMEXO
 40
0.0625
  9
$DIMDLI
 40
0.38
  9
$DIMRND
 40
0.0
  9
$DIMDLE
 40
0.0
  9
$DIMEXE
 40
0.18
  9
$DIMTP
 40
0.0
  9
$DIMTM
 40
0.0
  9
$DIMTXT
 40
0.18
  9
$DIMCEN
 40
0.09
  9
$DIMTSZ
 40
0.0
  9
$DIMTOL
 70
0
  9
$DIMLIM
 70
0
  9
$DIMTIH
 70
1
  9
$DIMTOH
 70
1
  9
$DIMSE1
 70
0
  9
$DIMSE2
 70
0
  9
$DIMTAD
 70
0
  9
$DIMZIN
 70
0
  9
$DIMBLK
  1

  9
$DIMASO
 70
1
  9
$DIMSHO
 70
1
  9
$DIMPOST
  1

  9
$DIMAPOST
  1

  9
$DIMALT
 70
0
  9
$DIMALTD
 70
2
  9
$DIMALTF
 40
25.4
  9
$DIMLFAC
 40
1.0
  9
$DIMTOFL
 70
0
  9
$DIMTVP
 40
0.0
  9
$DIMTIX
 70
0
  9
$DIMSOXD
 70
0
  9
$DIMSAH
 70
0
  9
$DIMBLK1
  1

  9
$DIMBLK2
  1

  9
$DIMSTYLE
  2
*UNNAMED
  9
$DIMCLRD
 70
0
  9
$DIMCLRE
 70
0
  9
$DIMCLRT
 70
0
  9
$DIMTFAC
 40
1.0
  9
$DIMGAP
 40
0.09
  9
$LUNITS
 70
2
  9
$LUPREC
 70
4
  9
$AXISMODE
 70
0
  9
$AXISUNIT
 10
0.0
 20
0.0
  9
$SKETCHINC
 40
0.1
  9
$FILLETRAD
 40
0.0
  9
$AUNITS
 70
0
  9
$AUPREC
 70
0
  9
$MENU
  1
acad
  9
$ELEVATION
 40
0.0
  9
$PELEVATION
 40
0.0
  9
$THICKNESS
 40
0.0
  9
$LIMCHECK
 70
0
  9
$BLIPMODE
 70
1
  9
$CHAMFERA
 40
0.0
  9
$CHAMFERB
 40
0.0
  9
$SKPOLY
 70
0
  9
$TDCREATE
 40
0.0
  9
$TDUPDATE
 40
0.0
  9
$TDINDWG
 40
0.0
  9
$TDUSRTIMER
 40
0.0
  9
$USRTIMER
 70
1
  9
$ANGBASE
 50
0.0
  9
$ANGDIR
 70
0
  9
$PDMODE
 70
0
  9
$PDSIZE
 40
0.0
  9
$PLINEWID
 40
0.0
  9
$COORDS
 70
0
  9
$SPLFRAME
 70
0
  9
$SPLINETYPE
 70
6
  9
$SPLINESEGS
 70
10
  9
$ATTDIA
 70
0
  9
$ATTREQ
 70
1
  9
$HANDLING
 70
1
  9
$HANDSEED
  5
464
  9
$SURFTAB1
 70
6
  9
$SURFTAB2
 70
6
  9
$SURFTYPE
 70
6
  9
$SURFU
 70
10
  9
$SURFV
 70
10
  9
$UCSNAME
  2

  9
$UCSORG
 10
0.0
 20
0.0
 30
0.0
  9
$UCSXDIR
 10
1.0
 20
0.0
 30
0.0
  9
$UCSYDIR
 10
0.0
 20
1.0
 30
0.0
  9
$PUCSNAME
  2
 
  9
$PUCSORG
 10
0.0
 20
0.0
 30
0.0
  9
$PUCSXDIR
 10
1.0
 20
0.0
 30
0.0
  9
$PUCSYDIR
 10
0.0
 20
1.0
 30
0.0
  9
$USERI1
 70
0
  9
$USERI2
 70
0
  9
$USERI3
 70
0
  9
$USERI4
 70
0
  9
$USERI5
 70
0
  9
$USERR1
 40
0.0
  9
$USERR2
 40
0.0
  9
$USERR3
 40
0.0
  9
$USERR4
 40
0.0
  9
$USERR5
 40
0.0
  9
$WORLDVIEW
 70
1
  9
$SHADEDGE
 70
3
  9
$SHADEDIF
 70
70
  9
$TILEMODE
 70
1
  9
$MAXACTVP
 70
16
  9
$PINSBASE
 10
0.0
 20
0.0
 30
0.0
  9
$PLIMCHECK
 70
0
  9
$PEXTMIN
 10
-1.000000E+020
 20
-1.000000E+020
 30
-1.000000E+020
  9
$PEXTMAX
 10
-1.000000E+020
 20
-1.000000E+020
 30
-1.000000E+020
  9
$PLIMMIN
 10
0.0
 20
0.0
  9
$PLIMMAX
 10
12.0
 20
9.0
  9
$UNITMODE
 70
0
  9
$VISRETAIN
 70
0
  0
ENDSEC
  0
SECTION
  2
TABLES
  0
TABLE
  2
LTYPE
 70
7
  0
LTYPE
  2
CONTINUOUS
 70
64
  3
Solid line
 72
65
 73
0
 40
0.0
  0
LTYPE
  2
DOT
 70
64
  3
. . . . . . . . . . . . . . . . . . . . . . . . . . . . . . . . .
 72
65
 73
2
 40
0.25
 49
0.0
 49
-0.25
  0
LTYPE
  2
HIDDEN
 70
64
  3
__ __ __ __ __ __ __ __ __ __ __ __ __ __ __ __ __ __ __ __ __ 
 72
65
 73
2
 40
0.375
 49
0.25
 49
-0.125
  0
LTYPE
  2
DASHED
 70
64
  3
__ __ __ __ __ __ __ __ __ __ __ __ __ __ __ __ __ __ __ __ __
 72
65
 73
2
 40
0.75
 49
0.5
 49
-0.25
  0
LTYPE
  2
DASHDOT
 70
64
  3
__ . __ . __ . __ . __ . __ . __ . __ . __ . __ . __ . __ . _
 72
65
 73
4
 40
1.0
 49
0.5
 49
-0.25
 49
0.0
 49
-0.25
  0
LTYPE
  2
DIVIDE
 70
64
  3
____ . . ____ . . ____ . . ____ . . ____ . . ____ . . ____ . .
 72
65
 73
6
 40
1.25
 49
0.5
 49
-0.25
 49
0.0
 49
-0.25
 49
0.0
 49
-0.25
  0
LTYPE
  2
CENTER
 70
64
  3
____ _ ____ _ ____ _ ____ _ ____ _ ____ _ ____ _ ____ _ ____ _
 72
65
 73
4
 40
2.0
 49
1.25
 49
-0.25
 49
0.25
 49
-0.25
  0
ENDTAB
  0
TABLE
  2
APPID
 70
1
  0
APPID
  2
ACAD
 70
0
  0
ENDTAB
  0
TABLE
  2
DIMSTYLE
 70
0
  0
ENDTAB
  0
TABLE
  2
LAYER
 70
4
  0
LAYER
  2
0
 70
0
 62
7
  6
CONTINUOUS
  0
LAYER
  2
CONSTRUCTION_CLASS
 70
0
 62
7
  6
CONTINUOUS
  0
LAYER
  2
PATTERN_CLASS
 70
0
 62
7
  6
CONTINUOUS
  0
LAYER
  2
1
 70
0
 62
7
  6
CONTINUOUS
  0
ENDTAB
  0
TABLE
  2
STYLE
 70
1
  0
STYLE
  2
STANDARD
 70
0
 40
0.2
 41
1.0
 50
0.0
 71
0
 42
0.0
  3
txt
  4

  0
ENDTAB
  0
TABLE
  2
UCS
 70
0
  0
ENDTAB
  0
TABLE
  2
VIEW
 70
0
  0
ENDTAB
  0
TABLE
  2
VPORT
 70
1
  0
VPORT
  2
*ACTIVE
 70
0
 10
0.0
 20
0.0
 11
1.0
 21
1.0
 12
-1.421085E-014
 22
0.0
 13
0.0
 23
0.0
 14
0.0
 24
0.0
 15
0.0
 25
0.0
 16
0.0
 26
-2.376820E-015
 36
38.8177
 17
85.373628
 27
-25.0
 37
16.0
 40
153.75
 41
1.393103
 42
50.0
 43
19.40885
 44
-19.40885
 50
0.0
 51
0.0
 71
22
 72
100
 73
1
 74
0
 75
0
 76
0
 77
0
 78
0
  0
ENDTAB
  0
ENDSEC
  0
SECTION
  2
BLOCKS
  0
BLOCK
  8
1
  5
6
 70
1
 10
0.0
 20
0.0
 30
0.0
  2
*M0
  3
*M0
  0
POLYLINE
  8
1
  5
8
  6
CONTINUOUS
 62
7
 210
1.0
 220
0.0
 230
0.0
 10
0.0
 20
0.0
 30
118.15111
 66
1
 70
0
  0
VERTEX
  8
1
  5
9
  6
CONTINUOUS
 62
7
 10
46.85105
 20
16.0
 30
118.15111
  0
VERTEX
  8
1
  5
A
  6
CONTINUOUS
 62
7
 10
46.85105
 20
32.0
 30
118.15111
  0
SEQEND
  8
1
  5
B
  0
POLYLINE
  8
1
  5
D
  6
CONTINUOUS
 62
7
 210
1.0
 220
0.0
 230
0.0
 10
0.0
 20
0.0
 30
117.01128
 66
1
 70
0
  0
VERTEX
  8
1
  5
E
  6
CONTINUOUS
 62
7
 10
33.42455
 20
16.0
 30
117.01128
  0
VERTEX
  8
1
  5
F
  6
CONTINUOUS
 62
7
 10
33.42455
 20
32.0
 30
117.01128
  0
SEQEND
  8
1
  5
10
  0
POLYLINE
  8
1
  5
12
  6
CONTINUOUS
 62
7
 210
1.0
 220
0.0
 230
0.0
 10
0.0
 20
0.0
 30
116.29289
 66
1
 70
0
  0
VERTEX
  8
1
  5
13
  6
CONTINUOUS
 62
7
 10
24.29735
 20
16.0
 30
116.29289
  0
VERTEX
  8
1
  5
14
  6
CONTINUOUS
 62
7
 10
24.29735
 20
32.0
 30
116.29289
  0
SEQEND
  8
1
  5
15
  0
POLYLINE
  8
1
  5
17
  6
CONTINUOUS
 62
7
 210
1.0
 220
0.0
 230
0.0
 10
0.0
 20
0.0
 30
114.45841
 66
1
 70
0
  0
VERTEX
  8
1
  5
18
  6
CONTINUOUS
 62
7
 10
21.75241
 20
16.0
 30
114.45841
  0
VERTEX
  8
1
  5
19
  6
CONTINUOUS
 62
7
 10
21.75241
 20
32.0
 30
114.45841
  0
SEQEND
  8
1
  5
1A
  0
POLYLINE
  8
1
  5
1C
  6
CONTINUOUS
 62
7
 210
0.0
 220
0.0
 230
1.0
 10
0.0
 20
0.0
 30
16.0
 66
1
 70
0
  0
VERTEX
  8
1
  5
1D
  6
CONTINUOUS
 62
7
 10
118.15111
 20
46.85105
 30
16.0
  0
VERTEX
  8
1
  5
1E
  6
CONTINUOUS
 62
7
 10
117.290517
 20
41.984329
 30
16.0
  0
VERTEX
  8
1
  5
1F
  6
CONTINUOUS
 62
7
 10
117.045228
 20
39.002598
 30
16.0
  0
VERTEX
  8
1
  5
20
  6
CONTINUOUS
 62
7
 10
117.0056
 20
33.669381
 30
16.0
  0
VERTEX
  8
1
  5
21
  6
CONTINUOUS
 62
7
 10
117.066011
 20
28.873824
 30
16.0
  0
VERTEX
  8
1
  5
22
  6
CONTINUOUS
 62
7
 10
116.919223
 20
26.814853
 30
16.0
  0
VERTEX
  8
1
  5
23
  6
CONTINUOUS
 62
7
 10
116.227716
 20
24.143336
 30
16.0
  0
VERTEX
  8
1
  5
24
  6
CONTINUOUS
 62
7
 10
115.588625
 20
22.994206
 30
16.0
  0
VERTEX
  8
1
  5
25
  6
CONTINUOUS
 62
7
 10
114.70397
 20
21.96861
 30
16.0
  0
VERTEX
  8
1
  5
26
  6
CONTINUOUS
 62
7
 10
114.45839
 20
21.7524
 30
16.0
  0
SEQEND
  8
1
  5
27
  0
POLYLINE
  8
1
  5
29
  6
CONTINUOUS
 62
7
 210
-7.252935E-015
 220
0.0
 230
1.0
 10
0.0
 20
0.0
 30
21.33366
 66
1
 70
0
  0
VERTEX
  8
1
  5
2A
  6
CONTINUOUS
 62
7
 10
118.15111
 20
46.85105
 30
21.33366
  0
VERTEX
  8
1
  5
2B
  6
CONTINUOUS
 62
7
 10
117.290517
 20
41.984329
 30
21.33366
  0
VERTEX
  8
1
  5
2C
  6
CONTINUOUS
 62
7
 10
117.045228
 20
39.002598
 30
21.33366
  0
VERTEX
  8
1
  5
2D
  6
CONTINUOUS
 62
7
 10
117.0056
 20
33.669381
 30
21.33366
  0
VERTEX
  8
1
  5
2E
  6
CONTINUOUS
 62
7
 10
117.066011
 20
28.873824
 30
21.33366
  0
VERTEX
  8
1
  5
2F
  6
CONTINUOUS
 62
7
 10
116.919223
 20
26.814853
 30
21.33366
  0
VERTEX
  8
1
  5
30
  6
CONTINUOUS
 62
7
 10
116.227716
 20
24.143336
 30
21.33366
  0
VERTEX
  8
1
  5
31
  6
CONTINUOUS
 62
7
 10
115.588625
 20
22.994206
 30
21.33366
  0
VERTEX
  8
1
  5
32
  6
CONTINUOUS
 62
7
 10
114.70397
 20
21.96861
 30
21.33366
  0
VERTEX
  8
1
  5
33
  6
CONTINUOUS
 62
7
 10
114.45839
 20
21.7524
 30
21.33366
  0
SEQEND
  8
1
  5
34
  0
POLYLINE
  8
1
  5
36
  6
CONTINUOUS
 62
7
 210
0.0
 220
0.0
 230
1.0
 10
0.0
 20
0.0
 30
26.66732
 66
1
 70
0
  0
VERTEX
  8
1
  5
37
  6
CONTINUOUS
 62
7
 10
118.15111
 20
46.85105
 30
26.66732
  0
VERTEX
  8
1
  5
38
  6
CONTINUOUS
 62
7
 10
117.290517
 20
41.984329
 30
26.66732
  0
VERTEX
  8
1
  5
39
  6
CONTINUOUS
 62
7
 10
117.045228
 20
39.002598
 30
26.66732
  0
VERTEX
  8
1
  5
3A
  6
CONTINUOUS
 62
7
 10
117.0056
 20
33.669381
 30
26.66732
  0
VERTEX
  8
1
  5
3B
  6
CONTINUOUS
 62
7
 10
117.066011
 20
28.873824
 30
26.66732
  0
VERTEX
  8
1
  5
3C
  6
CONTINUOUS
 62
7
 10
116.919223
 20
26.814853
 30
26.66732
  0
VERTEX
  8
1
  5
3D
  6
CONTINUOUS
 62
7
 10
116.227716
 20
24.143336
 30
26.66732
  0
VERTEX
  8
1
  5
3E
  6
CONTINUOUS
 62
7
 10
115.588625
 20
22.994206
 30
26.66732
  0
VERTEX
  8
1
  5
3F
  6
CONTINUOUS
 62
7
 10
114.70397
 20
21.96861
 30
26.66732
  0
VERTEX
  8
1
  5
40
  6
CONTINUOUS
 62
7
 10
114.45839
 20
21.7524
 30
26.66732
  0
SEQEND
  8
1
  5
41
  0
LINE
  8
1
  5
43
  6
CONTINUOUS
 62
7
 10
106.2
 20
21.98474
 30
16.0
 11
106.2
 21
21.98474
 31
32.0
  0
LINE
  8
1
  5
45
  6
CONTINUOUS
 62
7
 10
98.0
 20
13.78474
 30
16.0
 11
98.0
 21
13.78474
 31
32.0
  0
LINE
  8
1
  5
47
  6
CONTINUOUS
 62
7
 10
106.2
 20
5.58474
 30
16.0
 11
106.2
 21
5.58474
 31
32.0
  0
LINE
  8
1
  5
49
  6
CONTINUOUS
 62
7
 10
83.8
 20
28.01526
 30
16.0
 11
83.8
 21
28.01526
 31
32.0
  0
LINE
  8
1
  5
4B
  6
CONTINUOUS
 62
7
 10
92.0
 20
36.21526
 30
16.0
 11
92.0
 21
36.21526
 31
32.0
  0
LINE
  8
1
  5
4D
  6
CONTINUOUS
 62
7
 10
83.8
 20
44.41526
 30
16.0
 11
83.8
 21
44.41526
 31
32.0
  0
POLYLINE
  8
1
  5
4F
  6
CONTINUOUS
 62
7
 210
1.0
 220
0.0
 230
0.0
 10
0.0
 20
0.0
 30
71.84889
 66
1
 70
0
  0
VERTEX
  8
1
  5
50
  6
CONTINUOUS
 62
7
 10
3.14895
 20
16.0
 30
71.84889
  0
VERTEX
  8
1
  5
51
  6
CONTINUOUS
 62
7
 10
3.14895
 20
32.0
 30
71.84889
  0
SEQEND
  8
1
  5
52
  0
POLYLINE
  8
1
  5
54
  6
CONTINUOUS
 62
7
 210
1.0
 220
0.0
 230
0.0
 10
0.0
 20
0.0
 30
72.98872
 66
1
 70
0
  0
VERTEX
  8
1
  5
55
  6
CONTINUOUS
 62
7
 10
16.57545
 20
16.0
 30
72.98872
  0
VERTEX
  8
1
  5
56
  6
CONTINUOUS
 62
7
 10
16.57545
 20
32.0
 30
72.98872
  0
SEQEND
  8
1
  5
57
  0
POLYLINE
  8
1
  5
59
  6
CONTINUOUS
 62
7
 210
1.0
 220
0.0
 230
0.0
 10
0.0
 20
0.0
 30
73.70711
 66
1
 70
0
  0
VERTEX
  8
1
  5
5A
  6
CONTINUOUS
 62
7
 10
25.70265
 20
16.0
 30
73.70711
  0
VERTEX
  8
1
  5
5B
  6
CONTINUOUS
 62
7
 10
25.70265
 20
32.0
 30
73.70711
  0
SEQEND
  8
1
  5
5C
  0
POLYLINE
  8
1
  5
5E
  6
CONTINUOUS
 62
7
 210
1.0
 220
0.0
 230
0.0
 10
0.0
 20
0.0
 30
75.54159
 66
1
 70
0
  0
VERTEX
  8
1
  5
5F
  6
CONTINUOUS
 62
7
 10
28.24759
 20
16.0
 30
75.54159
  0
VERTEX
  8
1
  5
60
  6
CONTINUOUS
 62
7
 10
28.24759
 20
32.0
 30
75.54159
  0
SEQEND
  8
1
  5
61
  0
POLYLINE
  8
1
  5
63
  6
CONTINUOUS
 62
7
 10
0.0
 20
0.0
 30
16.0
 66
1
 70
0
  0
VERTEX
  8
1
  5
64
  6
CONTINUOUS
 62
7
 10
71.84889
 20
3.14895
 30
16.0
  0
VERTEX
  8
1
  5
65
  6
CONTINUOUS
 62
7
 10
72.709483
 20
8.015671
 30
16.0
  0
VERTEX
  8
1
  5
66
  6
CONTINUOUS
 62
7
 10
72.954772
 20
10.997402
 30
16.0
  0
VERTEX
  8
1
  5
67
  6
CONTINUOUS
 62
7
 10
72.9944
 20
16.330619
 30
16.0
  0
VERTEX
  8
1
  5
68
  6
CONTINUOUS
 62
7
 10
72.933989
 20
21.126176
 30
16.0
  0
VERTEX
  8
1
  5
69
  6
CONTINUOUS
 62
7
 10
73.080777
 20
23.185147
 30
16.0
  0
VERTEX
  8
1
  5
6A
  6
CONTINUOUS
 62
7
 10
73.772284
 20
25.856664
 30
16.0
  0
VERTEX
  8
1
  5
6B
  6
CONTINUOUS
 62
7
 10
74.411375
 20
27.005794
 30
16.0
  0
VERTEX
  8
1
  5
6C
  6
CONTINUOUS
 62
7
 10
75.29603
 20
28.03139
 30
16.0
  0
VERTEX
  8
1
  5
6D
  6
CONTINUOUS
 62
7
 10
75.54161
 20
28.2476
 30
16.0
  0
SEQEND
  8
1
  5
6E
  0
POLYLINE
  8
1
  5
70
  6
CONTINUOUS
 62
7
 10
0.0
 20
0.0
 30
21.33366
 66
1
 70
0
  0
VERTEX
  8
1
  5
71
  6
CONTINUOUS
 62
7
 10
71.84889
 20
3.14895
 30
21.33366
  0
VERTEX
  8
1
  5
72
  6
CONTINUOUS
 62
7
 10
72.709483
 20
8.015671
 30
21.33366
  0
VERTEX
  8
1
  5
73
  6
CONTINUOUS
 62
7
 10
72.954772
 20
10.997402
 30
21.33366
  0
VERTEX
  8
1
  5
74
  6
CONTINUOUS
 62
7
 10
72.9944
 20
16.330619
 30
21.33366
  0
VERTEX
  8
1
  5
75
  6
CONTINUOUS
 62
7
 10
72.933989
 20
21.126176
 30
21.33366
  0
VERTEX
  8
1
  5
76
  6
CONTINUOUS
 62
7
 10
73.080777
 20
23.185147
 30
21.33366
  0
VERTEX
  8
1
  5
77
  6
CONTINUOUS
 62
7
 10
73.772284
 20
25.856664
 30
21.33366
  0
VERTEX
  8
1
  5
78
  6
CONTINUOUS
 62
7
 10
74.411375
 20
27.005794
 30
21.33366
  0
VERTEX
  8
1
  5
79
  6
CONTINUOUS
 62
7
 10
75.29603
 20
28.03139
 30
21.33366
  0
VERTEX
  8
1
  5
7A
  6
CONTINUOUS
 62
7
 10
75.54161
 20
28.2476
 30
21.33366
  0
SEQEND
  8
1
  5
7B
  0
POLYLINE
  8
1
  5
7D
  6
CONTINUOUS
 62
7
 10
0.0
 20
0.0
 30
26.66732
 66
1
 70
0
  0
VERTEX
  8
1
  5
7E
  6
CONTINUOUS
 62
7
 10
71.84889
 20
3.14895
 30
26.66732
  0
VERTEX
  8
1
  5
7F
  6
CONTINUOUS
 62
7
 10
72.709483
 20
8.015671
 30
26.66732
  0
VERTEX
  8
1
  5
80
  6
CONTINUOUS
 62
7
 10
72.954772
 20
10.997402
 30
26.66732
  0
VERTEX
  8
1
  5
81
  6
CONTINUOUS
 62
7
 10
72.9944
 20
16.330619
 30
26.66732
  0
VERTEX
  8
1
  5
82
  6
CONTINUOUS
 62
7
 10
72.933989
 20
21.126176
 30
26.66732
  0
VERTEX
  8
1
  5
83
  6
CONTINUOUS
 62
7
 10
73.080777
 20
23.185147
 30
26.66732
  0
VERTEX
  8
1
  5
84
  6
CONTINUOUS
 62
7
 10
73.772284
 20
25.856664
 30
26.66732
  0
VERTEX
  8
1
  5
85
  6
CONTINUOUS
 62
7
 10
74.411375
 20
27.005794
 30
26.66732
  0
VERTEX
  8
1
  5
86
  6
CONTINUOUS
 62
7
 10
75.29603
 20
28.03139
 30
26.66732
  0
VERTEX
  8
1
  5
87
  6
CONTINUOUS
 62
7
 10
75.54161
 20
28.2476
 30
26.66732
  0
SEQEND
  8
1
  5
88
  0
LINE
  8
1
  5
8A
  6
CONTINUOUS
 62
7
 10
119.54184
 20
49.54184
 30
16.0
 11
119.54184
 21
49.54184
 31
32.0
  0
ARC
  8
1
  5
8C
  6
CONTINUOUS
 62
7
 10
124.049245
 20
45.507405
 30
16.0
 40
6.049245
 50
138.1692866442
 51
167.1665505331
  0
LINE
  8
1
  5
8E
  6
CONTINUOUS
 62
7
 10
118.15111
 20
46.85105
 30
16.0
 11
118.15111
 21
46.85105
 31
32.0
  0
ARC
  8
1
  5
90
  6
CONTINUOUS
 62
7
 10
124.049245
 20
45.507405
 30
32.0
 40
6.049245
 50
138.1692866442
 51
167.1665505331
  0
POLYLINE
  8
1
  5
92
  6
CONTINUOUS
 62
7
 10
0.0
 20
0.0
 30
32.0
 66
1
 70
0
  0
VERTEX
  8
1
  5
93
  6
CONTINUOUS
 62
7
 10
118.15111
 20
46.85105
 30
32.0
  0
VERTEX
  8
1
  5
94
  6
CONTINUOUS
 62
7
 10
117.290031
 20
41.981899
 30
32.0
  0
VERTEX
  8
1
  5
95
  6
CONTINUOUS
 62
7
 10
117.044924
 20
39.003492
 30
32.0
  0
VERTEX
  8
1
  5
96
  6
CONTINUOUS
 62
7
 10
117.005015
 20
33.69527
 30
32.0
  0
VERTEX
  8
1
  5
97
  6
CONTINUOUS
 62
7
 10
117.069391
 20
29.020459
 30
32.0
  0
VERTEX
  8
1
  5
98
  6
CONTINUOUS
 62
7
 10
116.94272
 20
27.007583
 30
32.0
  0
VERTEX
  8
1
  5
99
  6
CONTINUOUS
 62
7
 10
116.327465
 20
24.383201
 30
32.0
  0
VERTEX
  8
1
  5
9A
  6
CONTINUOUS
 62
7
 10
115.475202
 20
22.836096
 30
32.0
  0
VERTEX
  8
1
  5
9B
  6
CONTINUOUS
 62
7
 10
114.897817
 20
22.159235
 30
32.0
  0
VERTEX
  8
1
  5
9C
  6
CONTINUOUS
 62
7
 10
114.601451
 20
21.875519
 30
32.0
  0
VERTEX
  8
1
  5
9D
  6
CONTINUOUS
 62
7
 10
114.45839
 20
21.7524
 30
32.0
  0
SEQEND
  8
1
  5
9E
  0
POLYLINE
  8
1
  5
A0
  6
CONTINUOUS
 62
7
 210
0.0
 220
0.0
 230
1.0
 10
0.0
 20
0.0
 30
16.0
 66
1
 70
0
  0
VERTEX
  8
1
  5
A1
  6
CONTINUOUS
 62
7
 10
118.15111
 20
46.85105
 30
16.0
  0
VERTEX
  8
1
  5
A2
  6
CONTINUOUS
 62
7
 10
117.290517
 20
41.984329
 30
16.0
  0
VERTEX
  8
1
  5
A3
  6
CONTINUOUS
 62
7
 10
117.045228
 20
39.002598
 30
16.0
  0
VERTEX
  8
1
  5
A4
  6
CONTINUOUS
 62
7
 10
117.0056
 20
33.669381
 30
16.0
  0
VERTEX
  8
1
  5
A5
  6
CONTINUOUS
 62
7
 10
117.066011
 20
28.873824
 30
16.0
  0
VERTEX
  8
1
  5
A6
  6
CONTINUOUS
 62
7
 10
116.919223
 20
26.814853
 30
16.0
  0
VERTEX
  8
1
  5
A7
  6
CONTINUOUS
 62
7
 10
116.227716
 20
24.143336
 30
16.0
  0
VERTEX
  8
1
  5
A8
  6
CONTINUOUS
 62
7
 10
115.588625
 20
22.994206
 30
16.0
  0
VERTEX
  8
1
  5
A9
  6
CONTINUOUS
 62
7
 10
114.70397
 20
21.96861
 30
16.0
  0
VERTEX
  8
1
  5
AA
  6
CONTINUOUS
 62
7
 10
114.45839
 20
21.7524
 30
16.0
  0
SEQEND
  8
1
  5
AB
  0
LINE
  8
1
  5
AD
  6
CONTINUOUS
 62
7
 10
114.45839
 20
21.7524
 30
16.0
 11
114.45839
 21
21.7524
 31
32.0
  0
ARC
  8
1
  5
AF
  6
CONTINUOUS
 62
7
 210
0.0
 220
0.0
 230
-1.0
 10
-111.700566
 20
24.786275
 30
-32.0
 40
4.1
 50
227.7288083333
 51
296.5642111111
  0
ARC
  8
1
  5
B1
  6
CONTINUOUS
 62
7
 210
0.0
 220
0.0
 230
-1.0
 10
-111.700566
 20
24.786275
 30
-16.0
 40
4.1
 50
227.7288083333
 51
296.5642111111
  0
LINE
  8
1
  5
B3
  6
CONTINUOUS
 62
7
 10
109.86704
 20
21.1191
 30
16.0
 11
109.86704
 21
21.1191
 31
32.0
  0
ARC
  8
1
  5
B5
  6
CONTINUOUS
 62
7
 10
106.2
 20
13.78474
 30
32.0
 40
8.2
 50
63.4357888889
 51
308.7828777778
  0
ARC
  8
1
  5
B7
  6
CONTINUOUS
 62
7
 10
106.2
 20
13.78474
 30
16.0
 40
8.2
 50
63.4357888889
 51
308.7828777778
  0
LINE
  8
1
  5
B9
  6
CONTINUOUS
 62
7
 10
111.33624
 20
7.39263
 30
16.0
 11
111.33624
 21
7.39263
 31
32.0
  0
ARC
  8
1
  5
BB
  6
CONTINUOUS
 62
7
 210
0.0
 220
0.0
 230
-1.0
 10
-113.904362
 20
4.19658
 30
-32.0
 40
4.1
 50
51.2171227553
 51
178.3201366442
  0
ARC
  8
1
  5
BD
  6
CONTINUOUS
 62
7
 210
0.0
 220
0.0
 230
-1.0
 10
-113.904362
 20
4.19658
 30
-16.0
 40
4.1
 50
51.2171227553
 51
178.3201366442
  0
LINE
  8
1
  5
BF
  6
CONTINUOUS
 62
7
 10
118.0026
 20
4.31677
 30
16.0
 11
118.0026
 21
4.31677
 31
32.0
  0
ARC
  8
1
  5
C1
  6
CONTINUOUS
 62
7
 10
124.049245
 20
4.494105
 30
32.0
 40
6.049245
 50
181.6798633558
 51
221.9285994669
  0
ARC
  8
1
  5
C3
  6
CONTINUOUS
 62
7
 10
124.049245
 20
4.494105
 30
16.0
 40
6.049245
 50
181.6798633558
 51
221.9285994669
  0
LINE
  8
1
  5
C5
  6
CONTINUOUS
 62
7
 10
119.54874
 20
0.45198
 30
32.0
 11
119.54874
 21
0.45198
 31
16.0
  0
ARC
  8
1
  5
C7
  6
CONTINUOUS
 62
7
 210
0.0
 220
0.0
 230
-1.0
 10
-78.299434
 20
25.213725
 30
-32.0
 40
4.1
 50
47.7288083333
 51
116.5642111111
  0
LINE
  8
1
  5
C9
  6
CONTINUOUS
 62
7
 10
75.54161
 20
28.2476
 30
16.0
 11
75.54161
 21
28.2476
 31
32.0
  0
ARC
  8
1
  5
CB
  6
CONTINUOUS
 62
7
 210
0.0
 220
0.0
 230
-1.0
 10
-78.299434
 20
25.213725
 30
-16.0
 40
4.1
 50
47.7288083333
 51
116.5642111111
  0
LINE
  8
1
  5
CD
  6
CONTINUOUS
 62
7
 10
80.13296
 20
28.8809
 30
16.0
 11
80.13296
 21
28.8809
 31
32.0
  0
ARC
  8
1
  5
CF
  6
CONTINUOUS
 62
7
 10
83.8
 20
36.21526
 30
32.0
 40
8.2
 50
243.4357888889
 51
128.7828777778
  0
ARC
  8
1
  5
D1
  6
CONTINUOUS
 62
7
 10
83.8
 20
36.21526
 30
16.0
 40
8.2
 50
243.4357888889
 51
128.7828777778
  0
LINE
  8
1
  5
D3
  6
CONTINUOUS
 62
7
 10
78.66376
 20
42.60737
 30
16.0
 11
78.66376
 21
42.60737
 31
32.0
  0
ARC
  8
1
  5
D5
  6
CONTINUOUS
 62
7
 210
0.0
 220
0.0
 230
-1.0
 10
-76.095638
 20
45.80342
 30
-32.0
 40
4.1
 50
231.2171227553
 51
358.3201366442
  0
ARC
  8
1
  5
D7
  6
CONTINUOUS
 62
7
 210
0.0
 220
0.0
 230
-1.0
 10
-76.095638
 20
45.80342
 30
-16.0
 40
4.1
 50
231.2171227553
 51
358.3201366442
  0
LINE
  8
1
  5
D9
  6
CONTINUOUS
 62
7
 10
71.9974
 20
45.68323
 30
16.0
 11
71.9974
 21
45.68323
 31
32.0
  0
LINE
  8
1
  5
DB
  6
CONTINUOUS
 62
7
 10
70.44486
 20
49.55514
 30
32.0
 11
70.44486
 21
49.55514
 31
16.0
  0
ARC
  8
1
  5
DD
  6
CONTINUOUS
 62
7
 10
65.950755
 20
45.505895
 30
32.0
 40
6.049245
 50
1.6798633558
 51
42.0192383558
  0
ARC
  8
1
  5
DF
  6
CONTINUOUS
 62
7
 10
65.950755
 20
45.505895
 30
16.0
 40
6.049245
 50
1.6798633558
 51
42.0192383558
  0
ARC
  8
1
  5
E1
  6
CONTINUOUS
 62
7
 10
65.950755
 20
4.492595
 30
32.0
 40
6.049245
 50
318.0815255331
 51
347.1665505331
  0
LINE
  8
1
  5
E3
  6
CONTINUOUS
 62
7
 10
70.45198
 20
0.45126
 30
16.0
 11
70.45198
 21
0.45126
 31
32.0
  0
ARC
  8
1
  5
E5
  6
CONTINUOUS
 62
7
 10
65.950755
 20
4.492595
 30
16.0
 40
6.049245
 50
318.0815255331
 51
347.1665505331
  0
LINE
  8
1
  5
E7
  6
CONTINUOUS
 62
7
 10
71.84889
 20
3.14895
 30
16.0
 11
71.84889
 21
3.14895
 31
32.0
  0
POLYLINE
  8
1
  5
E9
  6
CONTINUOUS
 62
7
 10
0.0
 20
0.0
 30
32.0
 66
1
 70
0
  0
VERTEX
  8
1
  5
EA
  6
CONTINUOUS
 62
7
 10
71.84889
 20
3.14895
 30
32.0
  0
VERTEX
  8
1
  5
EB
  6
CONTINUOUS
 62
7
 10
72.709969
 20
8.018101
 30
32.0
  0
VERTEX
  8
1
  5
EC
  6
CONTINUOUS
 62
7
 10
72.955076
 20
10.996508
 30
32.0
  0
VERTEX
  8
1
  5
ED
  6
CONTINUOUS
 62
7
 10
72.994985
 20
16.30473
 30
32.0
  0
VERTEX
  8
1
  5
EE
  6
CONTINUOUS
 62
7
 10
72.930609
 20
20.979541
 30
32.0
  0
VERTEX
  8
1
  5
EF
  6
CONTINUOUS
 62
7
 10
73.05728
 20
22.992417
 30
32.0
  0
VERTEX
  8
1
  5
F0
  6
CONTINUOUS
 62
7
 10
73.672535
 20
25.616799
 30
32.0
  0
VERTEX
  8
1
  5
F1
  6
CONTINUOUS
 62
7
 10
74.524798
 20
27.163904
 30
32.0
  0
VERTEX
  8
1
  5
F2
  6
CONTINUOUS
 62
7
 10
75.102183
 20
27.840765
 30
32.0
  0
VERTEX
  8
1
  5
F3
  6
CONTINUOUS
 62
7
 10
75.398549
 20
28.124481
 30
32.0
  0
VERTEX
  8
1
  5
F4
  6
CONTINUOUS
 62
7
 10
75.54161
 20
28.2476
 30
32.0
  0
SEQEND
  8
1
  5
F5
  0
POLYLINE
  8
1
  5
F7
  6
CONTINUOUS
 62
7
 10
0.0
 20
0.0
 30
16.0
 66
1
 70
0
  0
VERTEX
  8
1
  5
F8
  6
CONTINUOUS
 62
7
 10
71.84889
 20
3.14895
 30
16.0
  0
VERTEX
  8
1
  5
F9
  6
CONTINUOUS
 62
7
 10
72.709483
 20
8.015671
 30
16.0
  0
VERTEX
  8
1
  5
FA
  6
CONTINUOUS
 62
7
 10
72.954772
 20
10.997402
 30
16.0
  0
VERTEX
  8
1
  5
FB
  6
CONTINUOUS
 62
7
 10
72.9944
 20
16.330619
 30
16.0
  0
VERTEX
  8
1
  5
FC
  6
CONTINUOUS
 62
7
 10
72.933989
 20
21.126176
 30
16.0
  0
VERTEX
  8
1
  5
FD
  6
CONTINUOUS
 62
7
 10
73.080777
 20
23.185147
 30
16.0
  0
VERTEX
  8
1
  5
FE
  6
CONTINUOUS
 62
7
 10
73.772284
 20
25.856664
 30
16.0
  0
VERTEX
  8
1
  5
FF
  6
CONTINUOUS
 62
7
 10
74.411375
 20
27.005794
 30
16.0
  0
VERTEX
  8
1
  5
100
  6
CONTINUOUS
 62
7
 10
75.29603
 20
28.03139
 30
16.0
  0
VERTEX
  8
1
  5
101
  6
CONTINUOUS
 62
7
 10
75.54161
 20
28.2476
 30
16.0
  0
SEQEND
  8
1
  5
102
  0
ARC
  8
1
  5
104
  6
CONTINUOUS
 62
7
 10
115.507405
 20
54.049245
 30
16.0
 40
6.049245
 50
271.6798633561
 51
311.8307133561
  0
ARC
  8
1
  5
106
  6
CONTINUOUS
 62
7
 210
0.0
 220
0.0
 230
-1.0
 10
-115.80493
 20
43.904362
 30
-16.0
 40
4.1
 50
321.217122755
 51
88.3201366439
  0
ARC
  8
1
  5
108
  6
CONTINUOUS
 62
7
 10
106.21677
 20
36.2
 30
16.0
 40
8.2
 50
153.4357888889
 51
38.7828777778
  0
ARC
  8
1
  5
10A
  6
CONTINUOUS
 62
7
 210
0.0
 220
0.0
 230
-1.0
 10
-95.215235
 20
41.700566
 30
-16.0
 40
4.1
 50
137.7288083333
 51
206.5642111111
  0
POLYLINE
  8
1
  5
10C
  6
CONTINUOUS
 62
7
 10
0.0
 20
0.0
 30
16.0
 66
1
 70
0
  0
VERTEX
  8
1
  5
10D
  6
CONTINUOUS
 62
7
 10
73.15046
 20
48.15111
 30
16.0
  0
VERTEX
  8
1
  5
10E
  6
CONTINUOUS
 62
7
 10
76.994527
 20
47.421636
 30
16.0
  0
VERTEX
  8
1
  5
10F
  6
CONTINUOUS
 62
7
 10
79.395057
 20
47.152755
 30
16.0
  0
VERTEX
  8
1
  5
110
  6
CONTINUOUS
 62
7
 10
83.805633
 20
46.975154
 30
16.0
  0
VERTEX
  8
1
  5
111
  6
CONTINUOUS
 62
7
 10
92.470109
 20
46.994757
 30
16.0
  0
VERTEX
  8
1
  5
112
  6
CONTINUOUS
 62
7
 10
94.596426
 20
46.65596
 30
16.0
  0
VERTEX
  8
1
  5
113
  6
CONTINUOUS
 62
7
 10
95.557779
 20
46.351111
 30
16.0
  0
VERTEX
  8
1
  5
114
  6
CONTINUOUS
 62
7
 10
97.078895
 20
45.538164
 30
16.0
  0
VERTEX
  8
1
  5
115
  6
CONTINUOUS
 62
7
 10
97.749631
 20
44.986613
 30
16.0
  0
VERTEX
  8
1
  5
116
  6
CONTINUOUS
 62
7
 10
98.24911
 20
44.45839
 30
16.0
  0
SEQEND
  8
1
  5
117
  0
ARC
  8
1
  5
119
  6
CONTINUOUS
 62
7
 10
74.494105
 20
54.049245
 30
16.0
 40
6.049245
 50
227.9807616439
 51
257.1665505328
  0
ARC
  8
1
  5
11B
  6
CONTINUOUS
 62
7
 10
74.494105
 20
-4.049245
 30
16.0
 40
6.049245
 50
91.6798633561
 51
131.9285994672
  0
ARC
  8
1
  5
11D
  6
CONTINUOUS
 62
7
 210
0.0
 220
0.0
 230
-1.0
 10
-74.19658
 20
6.095638
 30
-16.0
 40
4.1
 50
141.217122755
 51
268.3201366439
  0
ARC
  8
1
  5
11F
  6
CONTINUOUS
 62
7
 10
83.78474
 20
13.8
 30
16.0
 40
8.2
 50
333.4357888889
 51
218.7828777778
  0
ARC
  8
1
  5
121
  6
CONTINUOUS
 62
7
 210
0.0
 220
0.0
 230
-1.0
 10
-94.786275
 20
8.299434
 30
-16.0
 40
4.1
 50
317.7288083333
 51
26.5642111111
  0
POLYLINE
  8
1
  5
123
  6
CONTINUOUS
 62
7
 10
0.0
 20
0.0
 30
16.0
 66
1
 70
0
  0
VERTEX
  8
1
  5
124
  6
CONTINUOUS
 62
7
 10
116.85105
 20
1.84889
 30
16.0
  0
VERTEX
  8
1
  5
125
  6
CONTINUOUS
 62
7
 10
113.006983
 20
2.578364
 30
16.0
  0
VERTEX
  8
1
  5
126
  6
CONTINUOUS
 62
7
 10
110.606453
 20
2.847245
 30
16.0
  0
VERTEX
  8
1
  5
127
  6
CONTINUOUS
 62
7
 10
106.195877
 20
3.024846
 30
16.0
  0
VERTEX
  8
1
  5
128
  6
CONTINUOUS
 62
7
 10
97.531401
 20
3.005243
 30
16.0
  0
VERTEX
  8
1
  5
129
  6
CONTINUOUS
 62
7
 10
95.405084
 20
3.34404
 30
16.0
  0
VERTEX
  8
1
  5
12A
  6
CONTINUOUS
 62
7
 10
94.443731
 20
3.648889
 30
16.0
  0
VERTEX
  8
1
  5
12B
  6
CONTINUOUS
 62
7
 10
92.922615
 20
4.461836
 30
16.0
  0
VERTEX
  8
1
  5
12C
  6
CONTINUOUS
 62
7
 10
92.251879
 20
5.013387
 30
16.0
  0
VERTEX
  8
1
  5
12D
  6
CONTINUOUS
 62
7
 10
91.7524
 20
5.54161
 30
16.0
  0
SEQEND
  8
1
  5
12E
  0
ARC
  8
1
  5
130
  6
CONTINUOUS
 62
7
 10
115.507405
 20
-4.049245
 30
16.0
 40
6.049245
 50
48.0815255328
 51
77.1665505328
  0
ENDBLK
  8
1
  5
131
  0
BLOCK
  8
1
  5
133
 70
1
 10
0.0
 20
0.0
 30
0.0
  2
*M1
  3
*M1
  0
POLYLINE
  8
1
  5
135
  6
CONTINUOUS
 62
7
 210
1.0
 220
0.0
 230
0.0
 10
0.0
 20
0.0
 30
91.7524
 66
1
 70
0
  0
VERTEX
  8
1
  5
136
  6
CONTINUOUS
 62
7
 10
5.54161
 20
0.0
 30
91.7524
  0
VERTEX
  8
1
  5
137
  6
CONTINUOUS
 62
7
 10
5.54161
 20
16.0
 30
91.7524
  0
SEQEND
  8
1
  5
138
  0
POLYLINE
  8
1
  5
13A
  6
CONTINUOUS
 62
7
 210
1.0
 220
0.0
 230
0.0
 10
0.0
 20
0.0
 30
94.29714
 66
1
 70
0
  0
VERTEX
  8
1
  5
13B
  6
CONTINUOUS
 62
7
 10
3.7072
 20
0.0
 30
94.29714
  0
VERTEX
  8
1
  5
13C
  6
CONTINUOUS
 62
7
 10
3.7072
 20
16.0
 30
94.29714
  0
SEQEND
  8
1
  5
13D
  0
POLYLINE
  8
1
  5
13F
  6
CONTINUOUS
 62
7
 210
1.0
 220
0.0
 230
0.0
 10
0.0
 20
0.0
 30
103.42422
 66
1
 70
0
  0
VERTEX
  8
1
  5
140
  6
CONTINUOUS
 62
7
 10
2.98871
 20
0.0
 30
103.42422
  0
VERTEX
  8
1
  5
141
  6
CONTINUOUS
 62
7
 10
2.98871
 20
16.0
 30
103.42422
  0
SEQEND
  8
1
  5
142
  0
POLYLINE
  8
1
  5
144
  6
CONTINUOUS
 62
7
 210
1.0
 220
0.0
 230
0.0
 10
0.0
 20
0.0
 30
116.85058
 66
1
 70
0
  0
VERTEX
  8
1
  5
145
  6
CONTINUOUS
 62
7
 10
1.849
 20
0.0
 30
116.85058
  0
VERTEX
  8
1
  5
146
  6
CONTINUOUS
 62
7
 10
1.849
 20
16.0
 30
116.85058
  0
SEQEND
  8
1
  5
147
  0
POLYLINE
  8
1
  5
149
  6
CONTINUOUS
 62
7
 10
0.0
 20
0.0
 30
0.0
 66
1
 70
0
  0
VERTEX
  8
1
  5
14A
  6
CONTINUOUS
 62
7
 10
91.7524
 20
5.54161
 30
0.0
  0
VERTEX
  8
1
  5
14B
  6
CONTINUOUS
 62
7
 10
91.96861
 20
5.29603
 30
0.0
  0
VERTEX
  8
1
  5
14C
  6
CONTINUOUS
 62
7
 10
92.994206
 20
4.411375
 30
0.0
  0
VERTEX
  8
1
  5
14D
  6
CONTINUOUS
 62
7
 10
94.143336
 20
3.772284
 30
0.0
  0
VERTEX
  8
1
  5
14E
  6
CONTINUOUS
 62
7
 10
96.814853
 20
3.080777
 30
0.0
  0
VERTEX
  8
1
  5
14F
  6
CONTINUOUS
 62
7
 10
98.873824
 20
2.933989
 30
0.0
  0
VERTEX
  8
1
  5
150
  6
CONTINUOUS
 62
7
 10
103.669381
 20
2.9944
 30
0.0
  0
VERTEX
  8
1
  5
151
  6
CONTINUOUS
 62
7
 10
109.002598
 20
2.954772
 30
0.0
  0
VERTEX
  8
1
  5
152
  6
CONTINUOUS
 62
7
 10
111.984329
 20
2.709483
 30
0.0
  0
VERTEX
  8
1
  5
153
  6
CONTINUOUS
 62
7
 10
116.85105
 20
1.84889
 30
0.0
  0
SEQEND
  8
1
  5
154
  0
POLYLINE
  8
1
  5
156
  6
CONTINUOUS
 62
7
 10
0.0
 20
0.0
 30
5.33385
 66
1
 70
0
  0
VERTEX
  8
1
  5
157
  6
CONTINUOUS
 62
7
 10
91.7524
 20
5.54161
 30
5.33385
  0
VERTEX
  8
1
  5
158
  6
CONTINUOUS
 62
7
 10
91.96861
 20
5.29603
 30
5.33385
  0
VERTEX
  8
1
  5
159
  6
CONTINUOUS
 62
7
 10
92.994206
 20
4.411375
 30
5.33385
  0
VERTEX
  8
1
  5
15A
  6
CONTINUOUS
 62
7
 10
94.143336
 20
3.772284
 30
5.33385
  0
VERTEX
  8
1
  5
15B
  6
CONTINUOUS
 62
7
 10
96.814853
 20
3.080777
 30
5.33385
  0
VERTEX
  8
1
  5
15C
  6
CONTINUOUS
 62
7
 10
98.873824
 20
2.933989
 30
5.33385
  0
VERTEX
  8
1
  5
15D
  6
CONTINUOUS
 62
7
 10
103.669381
 20
2.9944
 30
5.33385
  0
VERTEX
  8
1
  5
15E
  6
CONTINUOUS
 62
7
 10
109.002598
 20
2.954772
 30
5.33385
  0
VERTEX
  8
1
  5
15F
  6
CONTINUOUS
 62
7
 10
111.984329
 20
2.709483
 30
5.33385
  0
VERTEX
  8
1
  5
160
  6
CONTINUOUS
 62
7
 10
116.85105
 20
1.84889
 30
5.33385
  0
SEQEND
  8
1
  5
161
  0
POLYLINE
  8
1
  5
163
  6
CONTINUOUS
 62
7
 10
0.0
 20
0.0
 30
10.6677
 66
1
 70
0
  0
VERTEX
  8
1
  5
164
  6
CONTINUOUS
 62
7
 10
91.7524
 20
5.54161
 30
10.6677
  0
VERTEX
  8
1
  5
165
  6
CONTINUOUS
 62
7
 10
91.96861
 20
5.29603
 30
10.6677
  0
VERTEX
  8
1
  5
166
  6
CONTINUOUS
 62
7
 10
92.994206
 20
4.411375
 30
10.6677
  0
VERTEX
  8
1
  5
167
  6
CONTINUOUS
 62
7
 10
94.143336
 20
3.772284
 30
10.6677
  0
VERTEX
  8
1
  5
168
  6
CONTINUOUS
 62
7
 10
96.814853
 20
3.080777
 30
10.6677
  0
VERTEX
  8
1
  5
169
  6
CONTINUOUS
 62
7
 10
98.873824
 20
2.933989
 30
10.6677
  0
VERTEX
  8
1
  5
16A
  6
CONTINUOUS
 62
7
 10
103.669381
 20
2.9944
 30
10.6677
  0
VERTEX
  8
1
  5
16B
  6
CONTINUOUS
 62
7
 10
109.002598
 20
2.954772
 30
10.6677
  0
VERTEX
  8
1
  5
16C
  6
CONTINUOUS
 62
7
 10
111.984329
 20
2.709483
 30
10.6677
  0
VERTEX
  8
1
  5
16D
  6
CONTINUOUS
 62
7
 10
116.85105
 20
1.84889
 30
10.6677
  0
SEQEND
  8
1
  5
16E
  0
LINE
  8
1
  5
170
  6
CONTINUOUS
 62
7
 10
91.98474
 20
13.8
 30
0.0
 11
91.98474
 21
13.8
 31
16.0
  0
LINE
  8
1
  5
172
  6
CONTINUOUS
 62
7
 10
83.78474
 20
22.0
 30
0.0
 11
83.78474
 21
22.0
 31
16.0
  0
LINE
  8
1
  5
174
  6
CONTINUOUS
 62
7
 10
75.58474
 20
13.8
 30
0.0
 11
75.58474
 21
13.8
 31
16.0
  0
POLYLINE
  8
1
  5
176
  6
CONTINUOUS
 62
7
 210
1.0
 220
0.0
 230
0.0
 10
0.0
 20
0.0
 30
98.24911
 66
1
 70
0
  0
VERTEX
  8
1
  5
177
  6
CONTINUOUS
 62
7
 10
44.45839
 20
0.0
 30
98.24911
  0
VERTEX
  8
1
  5
178
  6
CONTINUOUS
 62
7
 10
44.45839
 20
16.0
 30
98.24911
  0
SEQEND
  8
1
  5
179
  0
POLYLINE
  8
1
  5
17B
  6
CONTINUOUS
 62
7
 210
1.0
 220
0.0
 230
0.0
 10
0.0
 20
0.0
 30
95.70437
 66
1
 70
0
  0
VERTEX
  8
1
  5
17C
  6
CONTINUOUS
 62
7
 10
46.2928
 20
0.0
 30
95.70437
  0
VERTEX
  8
1
  5
17D
  6
CONTINUOUS
 62
7
 10
46.2928
 20
16.0
 30
95.70437
  0
SEQEND
  8
1
  5
17E
  0
POLYLINE
  8
1
  5
180
  6
CONTINUOUS
 62
7
 210
1.0
 220
0.0
 230
0.0
 10
0.0
 20
0.0
 30
86.57729
 66
1
 70
0
  0
VERTEX
  8
1
  5
181
  6
CONTINUOUS
 62
7
 10
47.01129
 20
0.0
 30
86.57729
  0
VERTEX
  8
1
  5
182
  6
CONTINUOUS
 62
7
 10
47.01129
 20
16.0
 30
86.57729
  0
SEQEND
  8
1
  5
183
  0
POLYLINE
  8
1
  5
185
  6
CONTINUOUS
 62
7
 210
1.0
 220
0.0
 230
0.0
 10
0.0
 20
0.0
 30
73.15093
 66
1
 70
0
  0
VERTEX
  8
1
  5
186
  6
CONTINUOUS
 62
7
 10
48.151
 20
0.0
 30
73.15093
  0
VERTEX
  8
1
  5
187
  6
CONTINUOUS
 62
7
 10
48.151
 20
16.0
 30
73.15093
  0
SEQEND
  8
1
  5
188
  0
POLYLINE
  8
1
  5
18A
  6
CONTINUOUS
 62
7
 10
0.0
 20
0.0
 30
0.0
 66
1
 70
0
  0
VERTEX
  8
1
  5
18B
  6
CONTINUOUS
 62
7
 10
98.24911
 20
44.45839
 30
0.0
  0
VERTEX
  8
1
  5
18C
  6
CONTINUOUS
 62
7
 10
98.0329
 20
44.70397
 30
0.0
  0
VERTEX
  8
1
  5
18D
  6
CONTINUOUS
 62
7
 10
97.007304
 20
45.588625
 30
0.0
  0
VERTEX
  8
1
  5
18E
  6
CONTINUOUS
 62
7
 10
95.858174
 20
46.227716
 30
0.0
  0
VERTEX
  8
1
  5
18F
  6
CONTINUOUS
 62
7
 10
93.186657
 20
46.919223
 30
0.0
  0
VERTEX
  8
1
  5
190
  6
CONTINUOUS
 62
7
 10
91.127686
 20
47.066011
 30
0.0
  0
VERTEX
  8
1
  5
191
  6
CONTINUOUS
 62
7
 10
86.332129
 20
47.0056
 30
0.0
  0
VERTEX
  8
1
  5
192
  6
CONTINUOUS
 62
7
 10
80.998912
 20
47.045228
 30
0.0
  0
VERTEX
  8
1
  5
193
  6
CONTINUOUS
 62
7
 10
78.017181
 20
47.290517
 30
0.0
  0
VERTEX
  8
1
  5
194
  6
CONTINUOUS
 62
7
 10
73.15046
 20
48.15111
 30
0.0
  0
SEQEND
  8
1
  5
195
  0
POLYLINE
  8
1
  5
197
  6
CONTINUOUS
 62
7
 10
0.0
 20
0.0
 30
5.33385
 66
1
 70
0
  0
VERTEX
  8
1
  5
198
  6
CONTINUOUS
 62
7
 10
98.24911
 20
44.45839
 30
5.33385
  0
VERTEX
  8
1
  5
199
  6
CONTINUOUS
 62
7
 10
98.0329
 20
44.70397
 30
5.33385
  0
VERTEX
  8
1
  5
19A
  6
CONTINUOUS
 62
7
 10
97.007304
 20
45.588625
 30
5.33385
  0
VERTEX
  8
1
  5
19B
  6
CONTINUOUS
 62
7
 10
95.858174
 20
46.227716
 30
5.33385
  0
VERTEX
  8
1
  5
19C
  6
CONTINUOUS
 62
7
 10
93.186657
 20
46.919223
 30
5.33385
  0
VERTEX
  8
1
  5
19D
  6
CONTINUOUS
 62
7
 10
91.127686
 20
47.066011
 30
5.33385
  0
VERTEX
  8
1
  5
19E
  6
CONTINUOUS
 62
7
 10
86.332129
 20
47.0056
 30
5.33385
  0
VERTEX
  8
1
  5
19F
  6
CONTINUOUS
 62
7
 10
80.998912
 20
47.045228
 30
5.33385
  0
VERTEX
  8
1
  5
1A0
  6
CONTINUOUS
 62
7
 10
78.017181
 20
47.290517
 30
5.33385
  0
VERTEX
  8
1
  5
1A1
  6
CONTINUOUS
 62
7
 10
73.15046
 20
48.15111
 30
5.33385
  0
SEQEND
  8
1
  5
1A2
  0
POLYLINE
  8
1
  5
1A4
  6
CONTINUOUS
 62
7
 10
0.0
 20
0.0
 30
10.6677
 66
1
 70
0
  0
VERTEX
  8
1
  5
1A5
  6
CONTINUOUS
 62
7
 10
98.24911
 20
44.45839
 30
10.6677
  0
VERTEX
  8
1
  5
1A6
  6
CONTINUOUS
 62
7
 10
98.0329
 20
44.70397
 30
10.6677
  0
VERTEX
  8
1
  5
1A7
  6
CONTINUOUS
 62
7
 10
97.007304
 20
45.588625
 30
10.6677
  0
VERTEX
  8
1
  5
1A8
  6
CONTINUOUS
 62
7
 10
95.858174
 20
46.227716
 30
10.6677
  0
VERTEX
  8
1
  5
1A9
  6
CONTINUOUS
 62
7
 10
93.186657
 20
46.919223
 30
10.6677
  0
VERTEX
  8
1
  5
1AA
  6
CONTINUOUS
 62
7
 10
91.127686
 20
47.066011
 30
10.6677
  0
VERTEX
  8
1
  5
1AB
  6
CONTINUOUS
 62
7
 10
86.332129
 20
47.0056
 30
10.6677
  0
VERTEX
  8
1
  5
1AC
  6
CONTINUOUS
 62
7
 10
80.998912
 20
47.045228
 30
10.6677
  0
VERTEX
  8
1
  5
1AD
  6
CONTINUOUS
 62
7
 10
78.017181
 20
47.290517
 30
10.6677
  0
VERTEX
  8
1
  5
1AE
  6
CONTINUOUS
 62
7
 10
73.15046
 20
48.15111
 30
10.6677
  0
SEQEND
  8
1
  5
1AF
  0
LINE
  8
1
  5
1B1
  6
CONTINUOUS
 62
7
 10
98.01677
 20
36.2
 30
0.0
 11
98.01677
 21
36.2
 31
16.0
  0
LINE
  8
1
  5
1B3
  6
CONTINUOUS
 62
7
 10
106.21677
 20
28.0
 30
0.0
 11
106.21677
 21
28.0
 31
16.0
  0
LINE
  8
1
  5
1B5
  6
CONTINUOUS
 62
7
 10
114.41677
 20
36.2
 30
0.0
 11
114.41677
 21
36.2
 31
16.0
  0
LINE
  8
1
  5
1B7
  6
CONTINUOUS
 62
7
 10
116.85105
 20
1.84889
 30
0.0
 11
116.85105
 21
1.84889
 31
16.0
  0
ARC
  8
1
  5
1B9
  6
CONTINUOUS
 62
7
 210
0.0
 220
0.0
 230
-1.0
 10
-115.507405
 20
-4.049245
 30
-1.805272E-016
 40
6.049245
 50
102.8334494672
 51
137.980752245
  0
LINE
  8
1
  5
1BB
  6
CONTINUOUS
 62
7
 10
120.00151
 20
0.0
 30
0.0
 11
120.00151
 21
0.0
 31
32.0
  0
ARC
  8
1
  5
1BD
  6
CONTINUOUS
 62
7
 10
115.507405
 20
-4.049245
 30
32.0
 40
6.049245
 50
42.019247755
 51
48.0815255328
  0
ARC
  8
1
  5
1BF
  6
CONTINUOUS
 62
7
 10
74.494105
 20
54.049245
 30
32.0
 40
6.049245
 50
222.019247755
 51
227.9807616439
  0
LINE
  8
1
  5
1C1
  6
CONTINUOUS
 62
7
 10
0.0
 20
50.0
 30
32.0
 11
70.0
 21
50.0
 31
32.0
  0
LINE
  8
1
  5
1C3
  6
CONTINUOUS
 62
7
 10
0.0
 20
0.0
 30
32.0
 11
0.0
 21
50.0
 31
32.0
  0
LINE
  8
1
  5
1C5
  6
CONTINUOUS
 62
7
 10
70.0
 20
0.0
 30
32.0
 11
0.0
 21
0.0
 31
32.0
  0
ARC
  8
1
  5
1C7
  6
CONTINUOUS
 62
7
 10
74.494105
 20
-4.049245
 30
32.0
 40
6.049245
 50
131.928602245
 51
137.980752245
  0
LINE
  8
1
  5
1C9
  6
CONTINUOUS
 62
7
 10
190.0
 20
0.0
 30
32.0
 11
120.00151
 21
0.0
 31
32.0
  0
LINE
  8
1
  5
1CB
  6
CONTINUOUS
 62
7
 10
190.0
 20
50.0
 30
32.0
 11
190.0
 21
0.0
 31
32.0
  0
LINE
  8
1
  5
1CD
  6
CONTINUOUS
 62
7
 10
120.00151
 20
50.0
 30
32.0
 11
190.0
 21
50.0
 31
32.0
  0
ARC
  8
1
  5
1CF
  6
CONTINUOUS
 62
7
 10
115.507405
 20
54.049245
 30
32.0
 40
6.049245
 50
311.8307133561
 51
317.980752245
  0
LINE
  8
1
  5
1D1
  6
CONTINUOUS
 62
7
 10
91.7524
 20
5.54161
 30
0.0
 11
91.7524
 21
5.54161
 31
16.0
  0
POLYLINE
  8
1
  5
1D3
  6
CONTINUOUS
 62
7
 10
0.0
 20
0.0
 30
0.0
 66
1
 70
0
  0
VERTEX
  8
1
  5
1D4
  6
CONTINUOUS
 62
7
 10
91.7524
 20
5.54161
 30
0.0
  0
VERTEX
  8
1
  5
1D5
  6
CONTINUOUS
 62
7
 10
91.96861
 20
5.29603
 30
0.0
  0
VERTEX
  8
1
  5
1D6
  6
CONTINUOUS
 62
7
 10
92.994206
 20
4.411375
 30
0.0
  0
VERTEX
  8
1
  5
1D7
  6
CONTINUOUS
 62
7
 10
94.143336
 20
3.772284
 30
0.0
  0
VERTEX
  8
1
  5
1D8
  6
CONTINUOUS
 62
7
 10
96.814853
 20
3.080777
 30
0.0
  0
VERTEX
  8
1
  5
1D9
  6
CONTINUOUS
 62
7
 10
98.873824
 20
2.933989
 30
0.0
  0
VERTEX
  8
1
  5
1DA
  6
CONTINUOUS
 62
7
 10
103.669381
 20
2.9944
 30
0.0
  0
VERTEX
  8
1
  5
1DB
  6
CONTINUOUS
 62
7
 10
109.002598
 20
2.954772
 30
0.0
  0
VERTEX
  8
1
  5
1DC
  6
CONTINUOUS
 62
7
 10
111.984329
 20
2.709483
 30
0.0
  0
VERTEX
  8
1
  5
1DD
  6
CONTINUOUS
 62
7
 10
116.85105
 20
1.84889
 30
0.0
  0
SEQEND
  8
1
  5
1DE
  0
LINE
  8
1
  5
1E0
  6
CONTINUOUS
 62
7
 10
91.1191
 20
10.13296
 30
0.0
 11
91.1191
 21
10.13296
 31
16.0
  0
ARC
  8
1
  5
1E2
  6
CONTINUOUS
 62
7
 10
94.786275
 20
8.299434
 30
2.750831E-016
 40
4.1
 50
153.4357888889
 51
222.2711916667
  0
LINE
  8
1
  5
1E4
  6
CONTINUOUS
 62
7
 10
77.39263
 20
8.66376
 30
0.0
 11
77.39263
 21
8.66376
 31
16.0
  0
ARC
  8
1
  5
1E6
  6
CONTINUOUS
 62
7
 210
0.0
 220
0.0
 230
-1.0
 10
-83.78474
 20
13.8
 30
-3.186370E-016
 40
8.2
 50
321.2171222222
 51
206.5642111111
  0
LINE
  8
1
  5
1E8
  6
CONTINUOUS
 62
7
 10
74.31677
 20
1.9974
 30
0.0
 11
74.31677
 21
1.9974
 31
16.0
  0
ARC
  8
1
  5
1EA
  6
CONTINUOUS
 62
7
 10
74.19658
 20
6.095638
 30
2.778831E-016
 40
4.1
 50
271.6798633561
 51
38.782877245
  0
LINE
  8
1
  5
1EC
  6
CONTINUOUS
 62
7
 10
70.0
 20
0.0
 30
0.0
 11
70.0
 21
0.0
 31
32.0
  0
ARC
  8
1
  5
1EE
  6
CONTINUOUS
 62
7
 210
0.0
 220
0.0
 230
-1.0
 10
-74.494105
 20
-4.049245
 30
-2.137511E-016
 40
6.049245
 50
42.019247755
 51
88.3201366439
  0
LINE
  8
1
  5
1F0
  6
CONTINUOUS
 62
7
 10
0.0
 20
50.0
 30
0.0
 11
0.0
 21
50.0
 31
32.0
  0
LINE
  8
1
  5
1F2
  6
CONTINUOUS
 62
7
 10
0.0
 20
50.0
 30
0.0
 11
0.0
 21
0.0
 31
0.0
  0
LINE
  8
1
  5
1F4
  6
CONTINUOUS
 62
7
 10
0.0
 20
0.0
 30
0.0
 11
0.0
 21
0.0
 31
32.0
  0
LINE
  8
1
  5
1F6
  6
CONTINUOUS
 62
7
 10
70.0
 20
50.0
 30
32.0
 11
70.0
 21
50.0
 31
0.0
  0
LINE
  8
1
  5
1F8
  6
CONTINUOUS
 62
7
 10
70.0
 20
50.0
 30
0.0
 11
0.0
 21
50.0
 31
0.0
  0
LINE
  8
1
  5
1FA
  6
CONTINUOUS
 62
7
 10
73.15046
 20
48.15111
 30
0.0
 11
73.15046
 21
48.15111
 31
16.0
  0
ARC
  8
1
  5
1FC
  6
CONTINUOUS
 62
7
 210
0.0
 220
0.0
 230
-1.0
 10
-74.494105
 20
54.049245
 30
-5.796471E-016
 40
6.049245
 50
282.8334494672
 51
317.980752245
  0
LINE
  8
1
  5
1FE
  6
CONTINUOUS
 62
7
 10
98.24911
 20
44.45839
 30
0.0
 11
98.24911
 21
44.45839
 31
16.0
  0
POLYLINE
  8
1
  5
200
  6
CONTINUOUS
 62
7
 10
0.0
 20
0.0
 30
0.0
 66
1
 70
0
  0
VERTEX
  8
1
  5
201
  6
CONTINUOUS
 62
7
 10
98.24911
 20
44.45839
 30
0.0
  0
VERTEX
  8
1
  5
202
  6
CONTINUOUS
 62
7
 10
98.0329
 20
44.70397
 30
0.0
  0
VERTEX
  8
1
  5
203
  6
CONTINUOUS
 62
7
 10
97.007304
 20
45.588625
 30
0.0
  0
VERTEX
  8
1
  5
204
  6
CONTINUOUS
 62
7
 10
95.858174
 20
46.227716
 30
0.0
  0
VERTEX
  8
1
  5
205
  6
CONTINUOUS
 62
7
 10
93.186657
 20
46.919223
 30
0.0
  0
VERTEX
  8
1
  5
206
  6
CONTINUOUS
 62
7
 10
91.127686
 20
47.066011
 30
0.0
  0
VERTEX
  8
1
  5
207
  6
CONTINUOUS
 62
7
 10
86.332129
 20
47.0056
 30
0.0
  0
VERTEX
  8
1
  5
208
  6
CONTINUOUS
 62
7
 10
80.998912
 20
47.045228
 30
0.0
  0
VERTEX
  8
1
  5
209
  6
CONTINUOUS
 62
7
 10
78.017181
 20
47.290517
 30
0.0
  0
VERTEX
  8
1
  5
20A
  6
CONTINUOUS
 62
7
 10
73.15046
 20
48.15111
 30
0.0
  0
SEQEND
  8
1
  5
20B
  0
LINE
  8
1
  5
20D
  6
CONTINUOUS
 62
7
 10
98.88241
 20
39.86704
 30
0.0
 11
98.88241
 21
39.86704
 31
16.0
  0
ARC
  8
1
  5
20F
  6
CONTINUOUS
 62
7
 10
95.215235
 20
41.700566
 30
4.850912E-016
 40
4.1
 50
333.4357888889
 51
42.2711916667
  0
LINE
  8
1
  5
211
  6
CONTINUOUS
 62
7
 10
112.60888
 20
41.33624
 30
0.0
 11
112.60888
 21
41.33624
 31
16.0
  0
ARC
  8
1
  5
213
  6
CONTINUOUS
 62
7
 210
0.0
 220
0.0
 230
-1.0
 10
-106.21677
 20
36.2
 30
-4.415374E-016
 40
8.2
 50
141.2171222222
 51
26.5642111111
  0
LINE
  8
1
  5
215
  6
CONTINUOUS
 62
7
 10
115.68474
 20
48.0026
 30
0.0
 11
115.68474
 21
48.0026
 31
16.0
  0
ARC
  8
1
  5
217
  6
CONTINUOUS
 62
7
 10
115.80493
 20
43.904362
 30
4.822913E-016
 40
4.1
 50
91.6798633561
 51
218.782877245
  0
LINE
  8
1
  5
219
  6
CONTINUOUS
 62
7
 10
120.00151
 20
50.0
 30
0.0
 11
120.00151
 21
50.0
 31
32.0
  0
ARC
  8
1
  5
21B
  6
CONTINUOUS
 62
7
 210
0.0
 220
0.0
 230
-1.0
 10
-115.507405
 20
54.049245
 30
-5.464233E-016
 40
6.049245
 50
222.019247755
 51
268.3201366439
  0
LINE
  8
1
  5
21D
  6
CONTINUOUS
 62
7
 10
190.0
 20
50.0
 30
0.0
 11
190.0
 21
50.0
 31
32.0
  0
LINE
  8
1
  5
21F
  6
CONTINUOUS
 62
7
 10
190.0
 20
50.0
 30
0.0
 11
120.00151
 21
50.0
 31
0.0
  0
LINE
  8
1
  5
221
  6
CONTINUOUS
 62
7
 10
190.0
 20
0.0
 30
0.0
 11
190.0
 21
0.0
 31
32.0
  0
LINE
  8
1
  5
223
  6
CONTINUOUS
 62
7
 10
190.0
 20
0.0
 30
0.0
 11
190.0
 21
50.0
 31
0.0
  0
LINE
  8
1
  5
225
  6
CONTINUOUS
 62
7
 10
120.00151
 20
0.0
 30
0.0
 11
190.0
 21
0.0
 31
0.0
  0
LINE
  8
1
  5
227
  6
CONTINUOUS
 62
7
 10
0.0
 20
0.0
 30
0.0
 11
70.0
 21
0.0
 31
0.0
  0
ENDBLK
  8
1
  5
228
  0
BLOCK
  8
1
  5
22A
 70
1
 10
0.0
 20
0.0
 30
0.0
  2
*M2
  3
*M2
  0
INSERT
  8
1
  5
22C
  6
CONTINUOUS
 62
7
  2
*M0
 10
0.0
 20
0.0
 30
0.0
 41
1.0
 42
1.0
 43
1.0
 70
1
 71
1
  0
INSERT
  8
1
  5
22E
  6
CONTINUOUS
 62
7
  2
*M1
 10
0.0
 20
0.0
 30
0.0
 41
1.0
 42
1.0
 43
1.0
 70
1
 71
1
  0
ENDBLK
  8
1
  5
22F
  0
BLOCK
  8
1
  5
231
 70
1
 10
0.0
 20
0.0
 30
0.0
  2
*M3
  3
*M3
  0
POLYLINE
  8
1
  5
233
  6
CONTINUOUS
 62
7
 210
1.0
 220
0.0
 230
0.0
 10
0.0
 20
0.0
 30
21.7524
 66
1
 70
0
  0
VERTEX
  8
1
  5
234
  6
CONTINUOUS
 62
7
 10
114.45839
 20
-16.0
 30
21.7524
  0
VERTEX
  8
1
  5
235
  6
CONTINUOUS
 62
7
 10
114.45839
 20
-32.0
 30
21.7524
  0
SEQEND
  8
1
  5
236
  0
POLYLINE
  8
1
  5
238
  6
CONTINUOUS
 62
7
 210
1.0
 220
0.0
 230
0.0
 10
0.0
 20
0.0
 30
24.29714
 66
1
 70
0
  0
VERTEX
  8
1
  5
239
  6
CONTINUOUS
 62
7
 10
116.2928
 20
-16.0
 30
24.29714
  0
VERTEX
  8
1
  5
23A
  6
CONTINUOUS
 62
7
 10
116.2928
 20
-32.0
 30
24.29714
  0
SEQEND
  8
1
  5
23B
  0
POLYLINE
  8
1
  5
23D
  6
CONTINUOUS
 62
7
 210
1.0
 220
0.0
 230
0.0
 10
0.0
 20
0.0
 30
33.42422
 66
1
 70
0
  0
VERTEX
  8
1
  5
23E
  6
CONTINUOUS
 62
7
 10
117.01129
 20
-16.0
 30
33.42422
  0
VERTEX
  8
1
  5
23F
  6
CONTINUOUS
 62
7
 10
117.01129
 20
-32.0
 30
33.42422
  0
SEQEND
  8
1
  5
240
  0
POLYLINE
  8
1
  5
242
  6
CONTINUOUS
 62
7
 210
1.0
 220
0.0
 230
0.0
 10
0.0
 20
0.0
 30
46.85058
 66
1
 70
0
  0
VERTEX
  8
1
  5
243
  6
CONTINUOUS
 62
7
 10
118.151
 20
-16.0
 30
46.85058
  0
VERTEX
  8
1
  5
244
  6
CONTINUOUS
 62
7
 10
118.151
 20
-32.0
 30
46.85058
  0
SEQEND
  8
1
  5
245
  0
POLYLINE
  8
1
  5
247
  6
CONTINUOUS
 62
7
 10
0.0
 20
0.0
 30
-16.0
 66
1
 70
0
  0
VERTEX
  8
1
  5
248
  6
CONTINUOUS
 62
7
 10
21.7524
 20
114.45839
 30
-16.0
  0
VERTEX
  8
1
  5
249
  6
CONTINUOUS
 62
7
 10
21.96861
 20
114.70397
 30
-16.0
  0
VERTEX
  8
1
  5
24A
  6
CONTINUOUS
 62
7
 10
22.994206
 20
115.588625
 30
-16.0
  0
VERTEX
  8
1
  5
24B
  6
CONTINUOUS
 62
7
 10
24.143336
 20
116.227716
 30
-16.0
  0
VERTEX
  8
1
  5
24C
  6
CONTINUOUS
 62
7
 10
26.814853
 20
116.919223
 30
-16.0
  0
VERTEX
  8
1
  5
24D
  6
CONTINUOUS
 62
7
 10
28.873824
 20
117.066011
 30
-16.0
  0
VERTEX
  8
1
  5
24E
  6
CONTINUOUS
 62
7
 10
33.669381
 20
117.0056
 30
-16.0
  0
VERTEX
  8
1
  5
24F
  6
CONTINUOUS
 62
7
 10
39.002598
 20
117.045228
 30
-16.0
  0
VERTEX
  8
1
  5
250
  6
CONTINUOUS
 62
7
 10
41.984329
 20
117.290517
 30
-16.0
  0
VERTEX
  8
1
  5
251
  6
CONTINUOUS
 62
7
 10
46.85105
 20
118.15111
 30
-16.0
  0
SEQEND
  8
1
  5
252
  0
POLYLINE
  8
1
  5
254
  6
CONTINUOUS
 62
7
 10
0.0
 20
0.0
 30
-21.33366
 66
1
 70
0
  0
VERTEX
  8
1
  5
255
  6
CONTINUOUS
 62
7
 10
21.7524
 20
114.45839
 30
-21.33366
  0
VERTEX
  8
1
  5
256
  6
CONTINUOUS
 62
7
 10
21.96861
 20
114.70397
 30
-21.33366
  0
VERTEX
  8
1
  5
257
  6
CONTINUOUS
 62
7
 10
22.994206
 20
115.588625
 30
-21.33366
  0
VERTEX
  8
1
  5
258
  6
CONTINUOUS
 62
7
 10
24.143336
 20
116.227716
 30
-21.33366
  0
VERTEX
  8
1
  5
259
  6
CONTINUOUS
 62
7
 10
26.814853
 20
116.919223
 30
-21.33366
  0
VERTEX
  8
1
  5
25A
  6
CONTINUOUS
 62
7
 10
28.873824
 20
117.066011
 30
-21.33366
  0
VERTEX
  8
1
  5
25B
  6
CONTINUOUS
 62
7
 10
33.669381
 20
117.0056
 30
-21.33366
  0
VERTEX
  8
1
  5
25C
  6
CONTINUOUS
 62
7
 10
39.002598
 20
117.045228
 30
-21.33366
  0
VERTEX
  8
1
  5
25D
  6
CONTINUOUS
 62
7
 10
41.984329
 20
117.290517
 30
-21.33366
  0
VERTEX
  8
1
  5
25E
  6
CONTINUOUS
 62
7
 10
46.85105
 20
118.15111
 30
-21.33366
  0
SEQEND
  8
1
  5
25F
  0
POLYLINE
  8
1
  5
261
  6
CONTINUOUS
 62
7
 10
0.0
 20
0.0
 30
-26.66732
 66
1
 70
0
  0
VERTEX
  8
1
  5
262
  6
CONTINUOUS
 62
7
 10
21.7524
 20
114.45839
 30
-26.66732
  0
VERTEX
  8
1
  5
263
  6
CONTINUOUS
 62
7
 10
21.96861
 20
114.70397
 30
-26.66732
  0
VERTEX
  8
1
  5
264
  6
CONTINUOUS
 62
7
 10
22.994206
 20
115.588625
 30
-26.66732
  0
VERTEX
  8
1
  5
265
  6
CONTINUOUS
 62
7
 10
24.143336
 20
116.227716
 30
-26.66732
  0
VERTEX
  8
1
  5
266
  6
CONTINUOUS
 62
7
 10
26.814853
 20
116.919223
 30
-26.66732
  0
VERTEX
  8
1
  5
267
  6
CONTINUOUS
 62
7
 10
28.873824
 20
117.066011
 30
-26.66732
  0
VERTEX
  8
1
  5
268
  6
CONTINUOUS
 62
7
 10
33.669381
 20
117.0056
 30
-26.66732
  0
VERTEX
  8
1
  5
269
  6
CONTINUOUS
 62
7
 10
39.002598
 20
117.045228
 30
-26.66732
  0
VERTEX
  8
1
  5
26A
  6
CONTINUOUS
 62
7
 10
41.984329
 20
117.290517
 30
-26.66732
  0
VERTEX
  8
1
  5
26B
  6
CONTINUOUS
 62
7
 10
46.85105
 20
118.15111
 30
-26.66732
  0
SEQEND
  8
1
  5
26C
  0
LINE
  8
1
  5
26E
  6
CONTINUOUS
 62
7
 10
21.98474
 20
106.2
 30
-16.0
 11
21.98474
 21
106.2
 31
-32.0
  0
LINE
  8
1
  5
270
  6
CONTINUOUS
 62
7
 10
13.78474
 20
98.0
 30
-16.0
 11
13.78474
 21
98.0
 31
-32.0
  0
LINE
  8
1
  5
272
  6
CONTINUOUS
 62
7
 10
5.58474
 20
106.2
 30
-16.0
 11
5.58474
 21
106.2
 31
-32.0
  0
LINE
  8
1
  5
274
  6
CONTINUOUS
 62
7
 10
28.01526
 20
83.8
 30
-16.0
 11
28.01526
 21
83.8
 31
-32.0
  0
LINE
  8
1
  5
276
  6
CONTINUOUS
 62
7
 10
36.21526
 20
92.0
 30
-16.0
 11
36.21526
 21
92.0
 31
-32.0
  0
LINE
  8
1
  5
278
  6
CONTINUOUS
 62
7
 10
44.41526
 20
83.8
 30
-16.0
 11
44.41526
 21
83.8
 31
-32.0
  0
POLYLINE
  8
1
  5
27A
  6
CONTINUOUS
 62
7
 210
1.0
 220
0.0
 230
0.0
 10
0.0
 20
0.0
 30
28.2476
 66
1
 70
0
  0
VERTEX
  8
1
  5
27B
  6
CONTINUOUS
 62
7
 10
75.54161
 20
-16.0
 30
28.2476
  0
VERTEX
  8
1
  5
27C
  6
CONTINUOUS
 62
7
 10
75.54161
 20
-32.0
 30
28.2476
  0
SEQEND
  8
1
  5
27D
  0
POLYLINE
  8
1
  5
27F
  6
CONTINUOUS
 62
7
 210
1.0
 220
0.0
 230
0.0
 10
0.0
 20
0.0
 30
25.70286
 66
1
 70
0
  0
VERTEX
  8
1
  5
280
  6
CONTINUOUS
 62
7
 10
73.7072
 20
-16.0
 30
25.70286
  0
VERTEX
  8
1
  5
281
  6
CONTINUOUS
 62
7
 10
73.7072
 20
-32.0
 30
25.70286
  0
SEQEND
  8
1
  5
282
  0
POLYLINE
  8
1
  5
284
  6
CONTINUOUS
 62
7
 210
1.0
 220
0.0
 230
0.0
 10
0.0
 20
0.0
 30
16.57578
 66
1
 70
0
  0
VERTEX
  8
1
  5
285
  6
CONTINUOUS
 62
7
 10
72.98871
 20
-16.0
 30
16.57578
  0
VERTEX
  8
1
  5
286
  6
CONTINUOUS
 62
7
 10
72.98871
 20
-32.0
 30
16.57578
  0
SEQEND
  8
1
  5
287
  0
POLYLINE
  8
1
  5
289
  6
CONTINUOUS
 62
7
 210
1.0
 220
0.0
 230
0.0
 10
0.0
 20
0.0
 30
3.14942
 66
1
 70
0
  0
VERTEX
  8
1
  5
28A
  6
CONTINUOUS
 62
7
 10
71.849
 20
-16.0
 30
3.14942
  0
VERTEX
  8
1
  5
28B
  6
CONTINUOUS
 62
7
 10
71.849
 20
-32.0
 30
3.14942
  0
SEQEND
  8
1
  5
28C
  0
POLYLINE
  8
1
  5
28E
  6
CONTINUOUS
 62
7
 210
0.0
 220
0.0
 230
1.0
 10
0.0
 20
0.0
 30
-16.0
 66
1
 70
0
  0
VERTEX
  8
1
  5
28F
  6
CONTINUOUS
 62
7
 10
28.2476
 20
75.54161
 30
-16.0
  0
VERTEX
  8
1
  5
290
  6
CONTINUOUS
 62
7
 10
28.03139
 20
75.29603
 30
-16.0
  0
VERTEX
  8
1
  5
291
  6
CONTINUOUS
 62
7
 10
27.005794
 20
74.411375
 30
-16.0
  0
VERTEX
  8
1
  5
292
  6
CONTINUOUS
 62
7
 10
25.856664
 20
73.772284
 30
-16.0
  0
VERTEX
  8
1
  5
293
  6
CONTINUOUS
 62
7
 10
23.185147
 20
73.080777
 30
-16.0
  0
VERTEX
  8
1
  5
294
  6
CONTINUOUS
 62
7
 10
21.126176
 20
72.933989
 30
-16.0
  0
VERTEX
  8
1
  5
295
  6
CONTINUOUS
 62
7
 10
16.330619
 20
72.9944
 30
-16.0
  0
VERTEX
  8
1
  5
296
  6
CONTINUOUS
 62
7
 10
10.997402
 20
72.954772
 30
-16.0
  0
VERTEX
  8
1
  5
297
  6
CONTINUOUS
 62
7
 10
8.015671
 20
72.709483
 30
-16.0
  0
VERTEX
  8
1
  5
298
  6
CONTINUOUS
 62
7
 10
3.14895
 20
71.84889
 30
-16.0
  0
SEQEND
  8
1
  5
299
  0
POLYLINE
  8
1
  5
29B
  6
CONTINUOUS
 62
7
 210
-9.066169E-016
 220
0.0
 230
1.0
 10
0.0
 20
0.0
 30
-21.33366
 66
1
 70
0
  0
VERTEX
  8
1
  5
29C
  6
CONTINUOUS
 62
7
 10
28.2476
 20
75.54161
 30
-21.33366
  0
VERTEX
  8
1
  5
29D
  6
CONTINUOUS
 62
7
 10
28.03139
 20
75.29603
 30
-21.33366
  0
VERTEX
  8
1
  5
29E
  6
CONTINUOUS
 62
7
 10
27.005794
 20
74.411375
 30
-21.33366
  0
VERTEX
  8
1
  5
29F
  6
CONTINUOUS
 62
7
 10
25.856664
 20
73.772284
 30
-21.33366
  0
VERTEX
  8
1
  5
2A0
  6
CONTINUOUS
 62
7
 10
23.185147
 20
73.080777
 30
-21.33366
  0
VERTEX
  8
1
  5
2A1
  6
CONTINUOUS
 62
7
 10
21.126176
 20
72.933989
 30
-21.33366
  0
VERTEX
  8
1
  5
2A2
  6
CONTINUOUS
 62
7
 10
16.330619
 20
72.9944
 30
-21.33366
  0
VERTEX
  8
1
  5
2A3
  6
CONTINUOUS
 62
7
 10
10.997402
 20
72.954772
 30
-21.33366
  0
VERTEX
  8
1
  5
2A4
  6
CONTINUOUS
 62
7
 10
8.015671
 20
72.709483
 30
-21.33366
  0
VERTEX
  8
1
  5
2A5
  6
CONTINUOUS
 62
7
 10
3.14895
 20
71.84889
 30
-21.33366
  0
SEQEND
  8
1
  5
2A6
  0
POLYLINE
  8
1
  5
2A8
  6
CONTINUOUS
 62
7
 210
-9.066169E-016
 220
0.0
 230
1.0
 10
0.0
 20
0.0
 30
-26.66732
 66
1
 70
0
  0
VERTEX
  8
1
  5
2A9
  6
CONTINUOUS
 62
7
 10
28.2476
 20
75.54161
 30
-26.66732
  0
VERTEX
  8
1
  5
2AA
  6
CONTINUOUS
 62
7
 10
28.03139
 20
75.29603
 30
-26.66732
  0
VERTEX
  8
1
  5
2AB
  6
CONTINUOUS
 62
7
 10
27.005794
 20
74.411375
 30
-26.66732
  0
VERTEX
  8
1
  5
2AC
  6
CONTINUOUS
 62
7
 10
25.856664
 20
73.772284
 30
-26.66732
  0
VERTEX
  8
1
  5
2AD
  6
CONTINUOUS
 62
7
 10
23.185147
 20
73.080777
 30
-26.66732
  0
VERTEX
  8
1
  5
2AE
  6
CONTINUOUS
 62
7
 10
21.126176
 20
72.933989
 30
-26.66732
  0
VERTEX
  8
1
  5
2AF
  6
CONTINUOUS
 62
7
 10
16.330619
 20
72.9944
 30
-26.66732
  0
VERTEX
  8
1
  5
2B0
  6
CONTINUOUS
 62
7
 10
10.997402
 20
72.954772
 30
-26.66732
  0
VERTEX
  8
1
  5
2B1
  6
CONTINUOUS
 62
7
 10
8.015671
 20
72.709483
 30
-26.66732
  0
VERTEX
  8
1
  5
2B2
  6
CONTINUOUS
 62
7
 10
3.14895
 20
71.84889
 30
-26.66732
  0
SEQEND
  8
1
  5
2B3
  0
LINE
  8
1
  5
2B5
  6
CONTINUOUS
 62
7
 10
49.54184
 20
119.54184
 30
-16.0
 11
49.54184
 21
119.54184
 31
-32.0
  0
ARC
  8
1
  5
2B7
  6
CONTINUOUS
 62
7
 210
0.0
 220
0.0
 230
-1.0
 10
-54.049245
 20
115.507405
 30
16.0
 40
6.049245
 50
1.6798633558
 51
41.8307133558
  0
LINE
  8
1
  5
2B9
  6
CONTINUOUS
 62
7
 10
0.45126
 20
70.45198
 30
-16.0
 11
0.45126
 21
70.45198
 31
-32.0
  0
ARC
  8
1
  5
2BB
  6
CONTINUOUS
 62
7
 210
0.0
 220
0.0
 230
-1.0
 10
4.049245
 20
74.494105
 30
16.0
 40
6.049245
 50
181.6798633558
 51
221.9285994669
  0
ARC
  8
1
  5
2BD
  6
CONTINUOUS
 62
7
 10
45.507405
 20
124.049245
 30
-32.0
 40
6.049245
 50
282.8334494672
 51
311.8307133561
  0
LINE
  8
1
  5
2BF
  6
CONTINUOUS
 62
7
 10
46.85105
 20
118.15111
 30
-16.0
 11
46.85105
 21
118.15111
 31
-32.0
  0
ARC
  8
1
  5
2C1
  6
CONTINUOUS
 62
7
 210
0.0
 220
0.0
 230
-1.0
 10
-45.507405
 20
124.049245
 30
16.0
 40
6.049245
 50
228.1692866439
 51
257.1665505328
  0
POLYLINE
  8
1
  5
2C3
  6
CONTINUOUS
 62
7
 10
0.0
 20
0.0
 30
-32.0
 66
1
 70
0
  0
VERTEX
  8
1
  5
2C4
  6
CONTINUOUS
 62
7
 10
21.7524
 20
114.45839
 30
-32.0
  0
VERTEX
  8
1
  5
2C5
  6
CONTINUOUS
 62
7
 10
22.251878
 20
114.986613
 30
-32.0
  0
VERTEX
  8
1
  5
2C6
  6
CONTINUOUS
 62
7
 10
22.922615
 20
115.538163
 30
-32.0
  0
VERTEX
  8
1
  5
2C7
  6
CONTINUOUS
 62
7
 10
24.443732
 20
116.351111
 30
-32.0
  0
VERTEX
  8
1
  5
2C8
  6
CONTINUOUS
 62
7
 10
25.405082
 20
116.65596
 30
-32.0
  0
VERTEX
  8
1
  5
2C9
  6
CONTINUOUS
 62
7
 10
27.531394
 20
116.994757
 30
-32.0
  0
VERTEX
  8
1
  5
2CA
  6
CONTINUOUS
 62
7
 10
36.195866
 20
116.975154
 30
-32.0
  0
VERTEX
  8
1
  5
2CB
  6
CONTINUOUS
 62
7
 10
40.606447
 20
117.152752
 30
-32.0
  0
VERTEX
  8
1
  5
2CC
  6
CONTINUOUS
 62
7
 10
43.00698
 20
117.421632
 30
-32.0
  0
VERTEX
  8
1
  5
2CD
  6
CONTINUOUS
 62
7
 10
46.85105
 20
118.15111
 30
-32.0
  0
SEQEND
  8
1
  5
2CE
  0
LINE
  8
1
  5
2D0
  6
CONTINUOUS
 62
7
 10
21.7524
 20
114.45839
 30
-16.0
 11
21.7524
 21
114.45839
 31
-32.0
  0
POLYLINE
  8
1
  5
2D2
  6
CONTINUOUS
 62
7
 10
0.0
 20
0.0
 30
-16.0
 66
1
 70
0
  0
VERTEX
  8
1
  5
2D3
  6
CONTINUOUS
 62
7
 10
46.85105
 20
118.15111
 30
-16.0
  0
VERTEX
  8
1
  5
2D4
  6
CONTINUOUS
 62
7
 10
41.984329
 20
117.290517
 30
-16.0
  0
VERTEX
  8
1
  5
2D5
  6
CONTINUOUS
 62
7
 10
39.002598
 20
117.045228
 30
-16.0
  0
VERTEX
  8
1
  5
2D6
  6
CONTINUOUS
 62
7
 10
33.669381
 20
117.0056
 30
-16.0
  0
VERTEX
  8
1
  5
2D7
  6
CONTINUOUS
 62
7
 10
28.873824
 20
117.066011
 30
-16.0
  0
VERTEX
  8
1
  5
2D8
  6
CONTINUOUS
 62
7
 10
26.814853
 20
116.919223
 30
-16.0
  0
VERTEX
  8
1
  5
2D9
  6
CONTINUOUS
 62
7
 10
24.143336
 20
116.227716
 30
-16.0
  0
VERTEX
  8
1
  5
2DA
  6
CONTINUOUS
 62
7
 10
22.994206
 20
115.588625
 30
-16.0
  0
VERTEX
  8
1
  5
2DB
  6
CONTINUOUS
 62
7
 10
21.96861
 20
114.70397
 30
-16.0
  0
VERTEX
  8
1
  5
2DC
  6
CONTINUOUS
 62
7
 10
21.7524
 20
114.45839
 30
-16.0
  0
SEQEND
  8
1
  5
2DD
  0
ARC
  8
1
  5
2DF
  6
CONTINUOUS
 62
7
 210
0.0
 220
0.0
 230
-1.0
 10
-24.786275
 20
111.700566
 30
32.0
 40
4.1
 50
333.4357888889
 51
42.2711916667
  0
LINE
  8
1
  5
2E1
  6
CONTINUOUS
 62
7
 10
21.1191
 20
109.86704
 30
-16.0
 11
21.1191
 21
109.86704
 31
-32.0
  0
ARC
  8
1
  5
2E3
  6
CONTINUOUS
 62
7
 10
24.786275
 20
111.700566
 30
-16.0
 40
4.1
 50
137.7288083333
 51
206.5642111111
  0
ARC
  8
1
  5
2E5
  6
CONTINUOUS
 62
7
 10
13.78474
 20
106.2
 30
-32.0
 40
8.2
 50
141.2171222222
 51
26.5642111111
  0
LINE
  8
1
  5
2E7
  6
CONTINUOUS
 62
7
 10
7.39263
 20
111.33624
 30
-16.0
 11
7.39263
 21
111.33624
 31
-32.0
  0
ARC
  8
1
  5
2E9
  6
CONTINUOUS
 62
7
 210
0.0
 220
0.0
 230
-1.0
 10
-13.78474
 20
106.2
 30
16.0
 40
8.2
 50
153.4357888889
 51
38.7828777778
  0
ARC
  8
1
  5
2EB
  6
CONTINUOUS
 62
7
 210
0.0
 220
0.0
 230
-1.0
 10
-4.19658
 20
113.904362
 30
32.0
 40
4.1
 50
91.6798633561
 51
218.782877245
  0
LINE
  8
1
  5
2ED
  6
CONTINUOUS
 62
7
 10
4.31677
 20
118.0026
 30
-16.0
 11
4.31677
 21
118.0026
 31
-32.0
  0
ARC
  8
1
  5
2EF
  6
CONTINUOUS
 62
7
 10
4.19658
 20
113.904362
 30
-16.0
 40
4.1
 50
321.217122755
 51
88.3201366439
  0
ARC
  8
1
  5
2F1
  6
CONTINUOUS
 62
7
 10
4.494105
 20
124.049245
 30
-32.0
 40
6.049245
 50
228.071397755
 51
268.3201338662
  0
LINE
  8
1
  5
2F3
  6
CONTINUOUS
 62
7
 10
0.45198
 20
119.54874
 30
-32.0
 11
0.45198
 21
119.54874
 31
-16.0
  0
ARC
  8
1
  5
2F5
  6
CONTINUOUS
 62
7
 210
0.0
 220
0.0
 230
-1.0
 10
-4.494105
 20
124.049245
 30
16.0
 40
6.049245
 50
271.6798633561
 51
311.9285994672
  0
ARC
  8
1
  5
2F7
  6
CONTINUOUS
 62
7
 210
0.0
 220
0.0
 230
-1.0
 10
-25.213725
 20
78.299434
 30
32.0
 40
4.1
 50
153.4357888889
 51
222.2711916667
  0
LINE
  8
1
  5
2F9
  6
CONTINUOUS
 62
7
 10
28.8809
 20
80.13296
 30
-16.0
 11
28.8809
 21
80.13296
 31
-32.0
  0
ARC
  8
1
  5
2FB
  6
CONTINUOUS
 62
7
 10
25.213725
 20
78.299434
 30
-16.0
 40
4.1
 50
317.7288083333
 51
26.5642111111
  0
LINE
  8
1
  5
2FD
  6
CONTINUOUS
 62
7
 10
28.2476
 20
75.54161
 30
-16.0
 11
28.2476
 21
75.54161
 31
-32.0
  0
ARC
  8
1
  5
2FF
  6
CONTINUOUS
 62
7
 10
36.21526
 20
83.8
 30
-32.0
 40
8.2
 50
321.2171222222
 51
206.5642111111
  0
LINE
  8
1
  5
301
  6
CONTINUOUS
 62
7
 10
42.60737
 20
78.66376
 30
-16.0
 11
42.60737
 21
78.66376
 31
-32.0
  0
ARC
  8
1
  5
303
  6
CONTINUOUS
 62
7
 210
0.0
 220
0.0
 230
-1.0
 10
-36.21526
 20
83.8
 30
16.0
 40
8.2
 50
333.4357888889
 51
218.7828777778
  0
ARC
  8
1
  5
305
  6
CONTINUOUS
 62
7
 210
0.0
 220
0.0
 230
-1.0
 10
-45.80342
 20
76.095638
 30
32.0
 40
4.1
 50
271.6798633561
 51
38.782877245
  0
LINE
  8
1
  5
307
  6
CONTINUOUS
 62
7
 10
45.68323
 20
71.9974
 30
-16.0
 11
45.68323
 21
71.9974
 31
-32.0
  0
ARC
  8
1
  5
309
  6
CONTINUOUS
 62
7
 10
45.80342
 20
76.095638
 30
-16.0
 40
4.1
 50
141.217122755
 51
268.3201366439
  0
LINE
  8
1
  5
30B
  6
CONTINUOUS
 62
7
 10
49.55514
 20
70.44486
 30
-32.0
 11
49.55514
 21
70.44486
 31
-16.0
  0
ARC
  8
1
  5
30D
  6
CONTINUOUS
 62
7
 210
0.0
 220
0.0
 230
-1.0
 10
-45.505895
 20
65.950755
 30
16.0
 40
6.049245
 50
91.6798633561
 51
132.0192383561
  0
ARC
  8
1
  5
30F
  6
CONTINUOUS
 62
7
 10
45.505895
 20
65.950755
 30
-32.0
 40
6.049245
 50
47.9807616439
 51
88.3201366439
  0
ARC
  8
1
  5
311
  6
CONTINUOUS
 62
7
 10
4.492595
 20
65.950755
 30
-32.0
 40
6.049245
 50
102.8334494672
 51
131.9184744672
  0
LINE
  8
1
  5
313
  6
CONTINUOUS
 62
7
 10
3.14895
 20
71.84889
 30
-16.0
 11
3.14895
 21
71.84889
 31
-32.0
  0
ARC
  8
1
  5
315
  6
CONTINUOUS
 62
7
 210
0.0
 220
0.0
 230
-1.0
 10
-4.492595
 20
65.950755
 30
16.0
 40
6.049245
 50
48.0815255328
 51
77.1665505328
  0
POLYLINE
  8
1
  5
317
  6
CONTINUOUS
 62
7
 10
0.0
 20
0.0
 30
-32.0
 66
1
 70
0
  0
VERTEX
  8
1
  5
318
  6
CONTINUOUS
 62
7
 10
28.2476
 20
75.54161
 30
-32.0
  0
VERTEX
  8
1
  5
319
  6
CONTINUOUS
 62
7
 10
27.748122
 20
75.013387
 30
-32.0
  0
VERTEX
  8
1
  5
31A
  6
CONTINUOUS
 62
7
 10
27.077385
 20
74.461837
 30
-32.0
  0
VERTEX
  8
1
  5
31B
  6
CONTINUOUS
 62
7
 10
25.556268
 20
73.648889
 30
-32.0
  0
VERTEX
  8
1
  5
31C
  6
CONTINUOUS
 62
7
 10
24.594918
 20
73.34404
 30
-32.0
  0
VERTEX
  8
1
  5
31D
  6
CONTINUOUS
 62
7
 10
22.468606
 20
73.005243
 30
-32.0
  0
VERTEX
  8
1
  5
31E
  6
CONTINUOUS
 62
7
 10
13.804134
 20
73.024846
 30
-32.0
  0
VERTEX
  8
1
  5
31F
  6
CONTINUOUS
 62
7
 10
9.393553
 20
72.847248
 30
-32.0
  0
VERTEX
  8
1
  5
320
  6
CONTINUOUS
 62
7
 10
6.99302
 20
72.578368
 30
-32.0
  0
VERTEX
  8
1
  5
321
  6
CONTINUOUS
 62
7
 10
3.14895
 20
71.84889
 30
-32.0
  0
SEQEND
  8
1
  5
322
  0
POLYLINE
  8
1
  5
324
  6
CONTINUOUS
 62
7
 10
0.0
 20
0.0
 30
-16.0
 66
1
 70
0
  0
VERTEX
  8
1
  5
325
  6
CONTINUOUS
 62
7
 10
3.14895
 20
71.84889
 30
-16.0
  0
VERTEX
  8
1
  5
326
  6
CONTINUOUS
 62
7
 10
8.015671
 20
72.709483
 30
-16.0
  0
VERTEX
  8
1
  5
327
  6
CONTINUOUS
 62
7
 10
10.997402
 20
72.954772
 30
-16.0
  0
VERTEX
  8
1
  5
328
  6
CONTINUOUS
 62
7
 10
16.330619
 20
72.9944
 30
-16.0
  0
VERTEX
  8
1
  5
329
  6
CONTINUOUS
 62
7
 10
21.126176
 20
72.933989
 30
-16.0
  0
VERTEX
  8
1
  5
32A
  6
CONTINUOUS
 62
7
 10
23.185147
 20
73.080777
 30
-16.0
  0
VERTEX
  8
1
  5
32B
  6
CONTINUOUS
 62
7
 10
25.856664
 20
73.772284
 30
-16.0
  0
VERTEX
  8
1
  5
32C
  6
CONTINUOUS
 62
7
 10
27.005794
 20
74.411375
 30
-16.0
  0
VERTEX
  8
1
  5
32D
  6
CONTINUOUS
 62
7
 10
28.03139
 20
75.29603
 30
-16.0
  0
VERTEX
  8
1
  5
32E
  6
CONTINUOUS
 62
7
 10
28.2476
 20
75.54161
 30
-16.0
  0
SEQEND
  8
1
  5
32F
  0
ARC
  8
1
  5
331
  6
CONTINUOUS
 62
7
 210
0.0
 220
0.0
 230
-1.0
 10
4.049245
 20
115.507405
 30
16.0
 40
6.049245
 50
138.0815255331
 51
167.1665505331
  0
POLYLINE
  8
1
  5
333
  6
CONTINUOUS
 62
7
 10
0.0
 20
0.0
 30
-16.0
 66
1
 70
0
  0
VERTEX
  8
1
  5
334
  6
CONTINUOUS
 62
7
 10
1.84889
 20
116.85105
 30
-16.0
  0
VERTEX
  8
1
  5
335
  6
CONTINUOUS
 62
7
 10
2.578364
 20
113.006983
 30
-16.0
  0
VERTEX
  8
1
  5
336
  6
CONTINUOUS
 62
7
 10
2.847245
 20
110.606453
 30
-16.0
  0
VERTEX
  8
1
  5
337
  6
CONTINUOUS
 62
7
 10
3.024846
 20
106.195877
 30
-16.0
  0
VERTEX
  8
1
  5
338
  6
CONTINUOUS
 62
7
 10
3.005243
 20
97.531401
 30
-16.0
  0
VERTEX
  8
1
  5
339
  6
CONTINUOUS
 62
7
 10
3.34404
 20
95.405084
 30
-16.0
  0
VERTEX
  8
1
  5
33A
  6
CONTINUOUS
 62
7
 10
3.648889
 20
94.443731
 30
-16.0
  0
VERTEX
  8
1
  5
33B
  6
CONTINUOUS
 62
7
 10
4.461836
 20
92.922615
 30
-16.0
  0
VERTEX
  8
1
  5
33C
  6
CONTINUOUS
 62
7
 10
5.013387
 20
92.251879
 30
-16.0
  0
VERTEX
  8
1
  5
33D
  6
CONTINUOUS
 62
7
 10
5.54161
 20
91.7524
 30
-16.0
  0
SEQEND
  8
1
  5
33E
  0
ARC
  8
1
  5
340
  6
CONTINUOUS
 62
7
 10
8.299434
 20
94.786275
 30
-16.0
 40
4.1
 50
227.7288083333
 51
296.5642111111
  0
ARC
  8
1
  5
342
  6
CONTINUOUS
 62
7
 210
0.0
 220
0.0
 230
-1.0
 10
-13.8
 20
83.78474
 30
16.0
 40
8.2
 50
63.4357888889
 51
308.7828777778
  0
ARC
  8
1
  5
344
  6
CONTINUOUS
 62
7
 10
6.095638
 20
74.19658
 30
-16.0
 40
4.1
 50
51.2171227553
 51
178.3201366442
  0
ARC
  8
1
  5
346
  6
CONTINUOUS
 62
7
 210
0.0
 220
0.0
 230
-1.0
 10
-54.049245
 20
74.494105
 30
16.0
 40
6.049245
 50
317.9807616442
 51
347.1665505331
  0
POLYLINE
  8
1
  5
348
  6
CONTINUOUS
 62
7
 10
0.0
 20
0.0
 30
-16.0
 66
1
 70
0
  0
VERTEX
  8
1
  5
349
  6
CONTINUOUS
 62
7
 10
48.15111
 20
73.15046
 30
-16.0
  0
VERTEX
  8
1
  5
34A
  6
CONTINUOUS
 62
7
 10
47.421636
 20
76.994527
 30
-16.0
  0
VERTEX
  8
1
  5
34B
  6
CONTINUOUS
 62
7
 10
47.152755
 20
79.395057
 30
-16.0
  0
VERTEX
  8
1
  5
34C
  6
CONTINUOUS
 62
7
 10
46.975154
 20
83.805633
 30
-16.0
  0
VERTEX
  8
1
  5
34D
  6
CONTINUOUS
 62
7
 10
46.994757
 20
92.470109
 30
-16.0
  0
VERTEX
  8
1
  5
34E
  6
CONTINUOUS
 62
7
 10
46.65596
 20
94.596426
 30
-16.0
  0
VERTEX
  8
1
  5
34F
  6
CONTINUOUS
 62
7
 10
46.351111
 20
95.557779
 30
-16.0
  0
VERTEX
  8
1
  5
350
  6
CONTINUOUS
 62
7
 10
45.538164
 20
97.078895
 30
-16.0
  0
VERTEX
  8
1
  5
351
  6
CONTINUOUS
 62
7
 10
44.986613
 20
97.749631
 30
-16.0
  0
VERTEX
  8
1
  5
352
  6
CONTINUOUS
 62
7
 10
44.45839
 20
98.24911
 30
-16.0
  0
SEQEND
  8
1
  5
353
  0
ARC
  8
1
  5
355
  6
CONTINUOUS
 62
7
 10
41.700566
 20
95.215235
 30
-16.0
 40
4.1
 50
47.7288083333
 51
116.5642111111
  0
ARC
  8
1
  5
357
  6
CONTINUOUS
 62
7
 210
0.0
 220
0.0
 230
-1.0
 10
-36.2
 20
106.21677
 30
16.0
 40
8.2
 50
243.4357888889
 51
128.7828777778
  0
ARC
  8
1
  5
359
  6
CONTINUOUS
 62
7
 10
43.904362
 20
115.80493
 30
-16.0
 40
4.1
 50
231.2171227553
 51
358.3201366442
  0
ENDBLK
  8
1
  5
35A
  0
BLOCK
  8
1
  5
35C
 70
1
 10
0.0
 20
0.0
 30
0.0
  2
*M4
  3
*M4
  0
POLYLINE
  8
1
  5
35E
  6
CONTINUOUS
 62
7
 210
1.0
 220
0.0
 230
0.0
 10
0.0
 20
0.0
 30
1.84889
 66
1
 70
0
  0
VERTEX
  8
1
  5
35F
  6
CONTINUOUS
 62
7
 10
116.85105
 20
0.0
 30
1.84889
  0
VERTEX
  8
1
  5
360
  6
CONTINUOUS
 62
7
 10
116.85105
 20
-16.0
 30
1.84889
  0
SEQEND
  8
1
  5
361
  0
POLYLINE
  8
1
  5
363
  6
CONTINUOUS
 62
7
 210
1.0
 220
0.0
 230
0.0
 10
0.0
 20
0.0
 30
2.98872
 66
1
 70
0
  0
VERTEX
  8
1
  5
364
  6
CONTINUOUS
 62
7
 10
103.42455
 20
0.0
 30
2.98872
  0
VERTEX
  8
1
  5
365
  6
CONTINUOUS
 62
7
 10
103.42455
 20
-16.0
 30
2.98872
  0
SEQEND
  8
1
  5
366
  0
POLYLINE
  8
1
  5
368
  6
CONTINUOUS
 62
7
 210
1.0
 220
0.0
 230
0.0
 10
0.0
 20
0.0
 30
3.70711
 66
1
 70
0
  0
VERTEX
  8
1
  5
369
  6
CONTINUOUS
 62
7
 10
94.29735
 20
0.0
 30
3.70711
  0
VERTEX
  8
1
  5
36A
  6
CONTINUOUS
 62
7
 10
94.29735
 20
-16.0
 30
3.70711
  0
SEQEND
  8
1
  5
36B
  0
POLYLINE
  8
1
  5
36D
  6
CONTINUOUS
 62
7
 210
1.0
 220
0.0
 230
0.0
 10
0.0
 20
0.0
 30
5.54159
 66
1
 70
0
  0
VERTEX
  8
1
  5
36E
  6
CONTINUOUS
 62
7
 10
91.75241
 20
0.0
 30
5.54159
  0
VERTEX
  8
1
  5
36F
  6
CONTINUOUS
 62
7
 10
91.75241
 20
-16.0
 30
5.54159
  0
SEQEND
  8
1
  5
370
  0
POLYLINE
  8
1
  5
372
  6
CONTINUOUS
 62
7
 210
0.0
 220
0.0
 230
1.0
 10
0.0
 20
0.0
 30
0.0
 66
1
 70
0
  0
VERTEX
  8
1
  5
373
  6
CONTINUOUS
 62
7
 10
1.84889
 20
116.85105
 30
0.0
  0
VERTEX
  8
1
  5
374
  6
CONTINUOUS
 62
7
 10
2.709483
 20
111.984329
 30
0.0
  0
VERTEX
  8
1
  5
375
  6
CONTINUOUS
 62
7
 10
2.954772
 20
109.002598
 30
0.0
  0
VERTEX
  8
1
  5
376
  6
CONTINUOUS
 62
7
 10
2.9944
 20
103.669381
 30
0.0
  0
VERTEX
  8
1
  5
377
  6
CONTINUOUS
 62
7
 10
2.933989
 20
98.873824
 30
0.0
  0
VERTEX
  8
1
  5
378
  6
CONTINUOUS
 62
7
 10
3.080777
 20
96.814853
 30
0.0
  0
VERTEX
  8
1
  5
379
  6
CONTINUOUS
 62
7
 10
3.772284
 20
94.143336
 30
0.0
  0
VERTEX
  8
1
  5
37A
  6
CONTINUOUS
 62
7
 10
4.411375
 20
92.994206
 30
0.0
  0
VERTEX
  8
1
  5
37B
  6
CONTINUOUS
 62
7
 10
5.29603
 20
91.96861
 30
0.0
  0
VERTEX
  8
1
  5
37C
  6
CONTINUOUS
 62
7
 10
5.54161
 20
91.7524
 30
0.0
  0
SEQEND
  8
1
  5
37D
  0
POLYLINE
  8
1
  5
37F
  6
CONTINUOUS
 62
7
 210
1.813234E-015
 220
0.0
 230
1.0
 10
0.0
 20
0.0
 30
-5.33385
 66
1
 70
0
  0
VERTEX
  8
1
  5
380
  6
CONTINUOUS
 62
7
 10
1.84889
 20
116.85105
 30
-5.33385
  0
VERTEX
  8
1
  5
381
  6
CONTINUOUS
 62
7
 10
2.709483
 20
111.984329
 30
-5.33385
  0
VERTEX
  8
1
  5
382
  6
CONTINUOUS
 62
7
 10
2.954772
 20
109.002598
 30
-5.33385
  0
VERTEX
  8
1
  5
383
  6
CONTINUOUS
 62
7
 10
2.9944
 20
103.669381
 30
-5.33385
  0
VERTEX
  8
1
  5
384
  6
CONTINUOUS
 62
7
 10
2.933989
 20
98.873824
 30
-5.33385
  0
VERTEX
  8
1
  5
385
  6
CONTINUOUS
 62
7
 10
3.080777
 20
96.814853
 30
-5.33385
  0
VERTEX
  8
1
  5
386
  6
CONTINUOUS
 62
7
 10
3.772284
 20
94.143336
 30
-5.33385
  0
VERTEX
  8
1
  5
387
  6
CONTINUOUS
 62
7
 10
4.411375
 20
92.994206
 30
-5.33385
  0
VERTEX
  8
1
  5
388
  6
CONTINUOUS
 62
7
 10
5.29603
 20
91.96861
 30
-5.33385
  0
VERTEX
  8
1
  5
389
  6
CONTINUOUS
 62
7
 10
5.54161
 20
91.7524
 30
-5.33385
  0
SEQEND
  8
1
  5
38A
  0
POLYLINE
  8
1
  5
38C
  6
CONTINUOUS
 62
7
 210
3.626468E-015
 220
0.0
 230
1.0
 10
0.0
 20
0.0
 30
-10.6677
 66
1
 70
0
  0
VERTEX
  8
1
  5
38D
  6
CONTINUOUS
 62
7
 10
1.84889
 20
116.85105
 30
-10.6677
  0
VERTEX
  8
1
  5
38E
  6
CONTINUOUS
 62
7
 10
2.709483
 20
111.984329
 30
-10.6677
  0
VERTEX
  8
1
  5
38F
  6
CONTINUOUS
 62
7
 10
2.954772
 20
109.002598
 30
-10.6677
  0
VERTEX
  8
1
  5
390
  6
CONTINUOUS
 62
7
 10
2.9944
 20
103.669381
 30
-10.6677
  0
VERTEX
  8
1
  5
391
  6
CONTINUOUS
 62
7
 10
2.933989
 20
98.873824
 30
-10.6677
  0
VERTEX
  8
1
  5
392
  6
CONTINUOUS
 62
7
 10
3.080777
 20
96.814853
 30
-10.6677
  0
VERTEX
  8
1
  5
393
  6
CONTINUOUS
 62
7
 10
3.772284
 20
94.143336
 30
-10.6677
  0
VERTEX
  8
1
  5
394
  6
CONTINUOUS
 62
7
 10
4.411375
 20
92.994206
 30
-10.6677
  0
VERTEX
  8
1
  5
395
  6
CONTINUOUS
 62
7
 10
5.29603
 20
91.96861
 30
-10.6677
  0
VERTEX
  8
1
  5
396
  6
CONTINUOUS
 62
7
 10
5.54161
 20
91.7524
 30
-10.6677
  0
SEQEND
  8
1
  5
397
  0
LINE
  8
1
  5
399
  6
CONTINUOUS
 62
7
 10
13.8
 20
91.98474
 30
0.0
 11
13.8
 21
91.98474
 31
-16.0
  0
LINE
  8
1
  5
39B
  6
CONTINUOUS
 62
7
 10
22.0
 20
83.78474
 30
0.0
 11
22.0
 21
83.78474
 31
-16.0
  0
LINE
  8
1
  5
39D
  6
CONTINUOUS
 62
7
 10
13.8
 20
75.58474
 30
0.0
 11
13.8
 21
75.58474
 31
-16.0
  0
POLYLINE
  8
1
  5
39F
  6
CONTINUOUS
 62
7
 210
1.0
 220
0.0
 230
0.0
 10
0.0
 20
0.0
 30
48.15111
 66
1
 70
0
  0
VERTEX
  8
1
  5
3A0
  6
CONTINUOUS
 62
7
 10
73.15046
 20
0.0
 30
48.15111
  0
VERTEX
  8
1
  5
3A1
  6
CONTINUOUS
 62
7
 10
73.15046
 20
-16.0
 30
48.15111
  0
SEQEND
  8
1
  5
3A2
  0
POLYLINE
  8
1
  5
3A4
  6
CONTINUOUS
 62
7
 210
1.0
 220
0.0
 230
0.0
 10
0.0
 20
0.0
 30
47.01128
 66
1
 70
0
  0
VERTEX
  8
1
  5
3A5
  6
CONTINUOUS
 62
7
 10
86.57696
 20
0.0
 30
47.01128
  0
VERTEX
  8
1
  5
3A6
  6
CONTINUOUS
 62
7
 10
86.57696
 20
-16.0
 30
47.01128
  0
SEQEND
  8
1
  5
3A7
  0
POLYLINE
  8
1
  5
3A9
  6
CONTINUOUS
 62
7
 210
1.0
 220
0.0
 230
0.0
 10
0.0
 20
0.0
 30
46.29289
 66
1
 70
0
  0
VERTEX
  8
1
  5
3AA
  6
CONTINUOUS
 62
7
 10
95.70416
 20
0.0
 30
46.29289
  0
VERTEX
  8
1
  5
3AB
  6
CONTINUOUS
 62
7
 10
95.70416
 20
-16.0
 30
46.29289
  0
SEQEND
  8
1
  5
3AC
  0
POLYLINE
  8
1
  5
3AE
  6
CONTINUOUS
 62
7
 210
1.0
 220
0.0
 230
0.0
 10
0.0
 20
0.0
 30
44.45841
 66
1
 70
0
  0
VERTEX
  8
1
  5
3AF
  6
CONTINUOUS
 62
7
 10
98.2491
 20
0.0
 30
44.45841
  0
VERTEX
  8
1
  5
3B0
  6
CONTINUOUS
 62
7
 10
98.2491
 20
-16.0
 30
44.45841
  0
SEQEND
  8
1
  5
3B1
  0
POLYLINE
  8
1
  5
3B3
  6
CONTINUOUS
 62
7
 10
0.0
 20
0.0
 30
0.0
 66
1
 70
0
  0
VERTEX
  8
1
  5
3B4
  6
CONTINUOUS
 62
7
 10
48.15111
 20
73.15046
 30
0.0
  0
VERTEX
  8
1
  5
3B5
  6
CONTINUOUS
 62
7
 10
47.290517
 20
78.017181
 30
0.0
  0
VERTEX
  8
1
  5
3B6
  6
CONTINUOUS
 62
7
 10
47.045228
 20
80.998912
 30
0.0
  0
VERTEX
  8
1
  5
3B7
  6
CONTINUOUS
 62
7
 10
47.0056
 20
86.332129
 30
0.0
  0
VERTEX
  8
1
  5
3B8
  6
CONTINUOUS
 62
7
 10
47.066011
 20
91.127686
 30
0.0
  0
VERTEX
  8
1
  5
3B9
  6
CONTINUOUS
 62
7
 10
46.919223
 20
93.186657
 30
0.0
  0
VERTEX
  8
1
  5
3BA
  6
CONTINUOUS
 62
7
 10
46.227716
 20
95.858174
 30
0.0
  0
VERTEX
  8
1
  5
3BB
  6
CONTINUOUS
 62
7
 10
45.588625
 20
97.007304
 30
0.0
  0
VERTEX
  8
1
  5
3BC
  6
CONTINUOUS
 62
7
 10
44.70397
 20
98.0329
 30
0.0
  0
VERTEX
  8
1
  5
3BD
  6
CONTINUOUS
 62
7
 10
44.45839
 20
98.24911
 30
0.0
  0
SEQEND
  8
1
  5
3BE
  0
POLYLINE
  8
1
  5
3C0
  6
CONTINUOUS
 62
7
 10
0.0
 20
0.0
 30
-5.33385
 66
1
 70
0
  0
VERTEX
  8
1
  5
3C1
  6
CONTINUOUS
 62
7
 10
48.15111
 20
73.15046
 30
-5.33385
  0
VERTEX
  8
1
  5
3C2
  6
CONTINUOUS
 62
7
 10
47.290517
 20
78.017181
 30
-5.33385
  0
VERTEX
  8
1
  5
3C3
  6
CONTINUOUS
 62
7
 10
47.045228
 20
80.998912
 30
-5.33385
  0
VERTEX
  8
1
  5
3C4
  6
CONTINUOUS
 62
7
 10
47.0056
 20
86.332129
 30
-5.33385
  0
VERTEX
  8
1
  5
3C5
  6
CONTINUOUS
 62
7
 10
47.066011
 20
91.127686
 30
-5.33385
  0
VERTEX
  8
1
  5
3C6
  6
CONTINUOUS
 62
7
 10
46.919223
 20
93.186657
 30
-5.33385
  0
VERTEX
  8
1
  5
3C7
  6
CONTINUOUS
 62
7
 10
46.227716
 20
95.858174
 30
-5.33385
  0
VERTEX
  8
1
  5
3C8
  6
CONTINUOUS
 62
7
 10
45.588625
 20
97.007304
 30
-5.33385
  0
VERTEX
  8
1
  5
3C9
  6
CONTINUOUS
 62
7
 10
44.70397
 20
98.0329
 30
-5.33385
  0
VERTEX
  8
1
  5
3CA
  6
CONTINUOUS
 62
7
 10
44.45839
 20
98.24911
 30
-5.33385
  0
SEQEND
  8
1
  5
3CB
  0
POLYLINE
  8
1
  5
3CD
  6
CONTINUOUS
 62
7
 10
0.0
 20
0.0
 30
-10.6677
 66
1
 70
0
  0
VERTEX
  8
1
  5
3CE
  6
CONTINUOUS
 62
7
 10
48.15111
 20
73.15046
 30
-10.6677
  0
VERTEX
  8
1
  5
3CF
  6
CONTINUOUS
 62
7
 10
47.290517
 20
78.017181
 30
-10.6677
  0
VERTEX
  8
1
  5
3D0
  6
CONTINUOUS
 62
7
 10
47.045228
 20
80.998912
 30
-10.6677
  0
VERTEX
  8
1
  5
3D1
  6
CONTINUOUS
 62
7
 10
47.0056
 20
86.332129
 30
-10.6677
  0
VERTEX
  8
1
  5
3D2
  6
CONTINUOUS
 62
7
 10
47.066011
 20
91.127686
 30
-10.6677
  0
VERTEX
  8
1
  5
3D3
  6
CONTINUOUS
 62
7
 10
46.919223
 20
93.186657
 30
-10.6677
  0
VERTEX
  8
1
  5
3D4
  6
CONTINUOUS
 62
7
 10
46.227716
 20
95.858174
 30
-10.6677
  0
VERTEX
  8
1
  5
3D5
  6
CONTINUOUS
 62
7
 10
45.588625
 20
97.007304
 30
-10.6677
  0
VERTEX
  8
1
  5
3D6
  6
CONTINUOUS
 62
7
 10
44.70397
 20
98.0329
 30
-10.6677
  0
VERTEX
  8
1
  5
3D7
  6
CONTINUOUS
 62
7
 10
44.45839
 20
98.24911
 30
-10.6677
  0
SEQEND
  8
1
  5
3D8
  0
LINE
  8
1
  5
3DA
  6
CONTINUOUS
 62
7
 10
36.2
 20
98.01677
 30
0.0
 11
36.2
 21
98.01677
 31
-16.0
  0
LINE
  8
1
  5
3DC
  6
CONTINUOUS
 62
7
 10
28.0
 20
106.21677
 30
0.0
 11
28.0
 21
106.21677
 31
-16.0
  0
LINE
  8
1
  5
3DE
  6
CONTINUOUS
 62
7
 10
36.2
 20
114.41677
 30
0.0
 11
36.2
 21
114.41677
 31
-16.0
  0
LINE
  8
1
  5
3E0
  6
CONTINUOUS
 62
7
 10
49.99916
 20
120.00075
 30
-32.0
 11
49.99916
 21
120.00075
 31
0.0
  0
ARC
  8
1
  5
3E2
  6
CONTINUOUS
 62
7
 210
0.0
 220
0.0
 230
-1.0
 10
-54.049245
 20
115.507405
 30
32.0
 40
6.049245
 50
41.8307133558
 51
47.9699966891
  0
LINE
  8
1
  5
3E4
  6
CONTINUOUS
 62
7
 10
48.0026
 20
115.68474
 30
0.0
 11
48.0026
 21
115.68474
 31
-16.0
  0
ARC
  8
1
  5
3E6
  6
CONTINUOUS
 62
7
 10
54.049245
 20
115.507405
 30
0.0
 40
6.049245
 50
132.0300033109
 51
178.3201366442
  0
LINE
  8
1
  5
3E8
  6
CONTINUOUS
 62
7
 10
0.00083
 20
70.00075
 30
-32.0
 11
0.00083
 21
70.00075
 31
0.0
  0
ARC
  8
1
  5
3EA
  6
CONTINUOUS
 62
7
 210
0.0
 220
0.0
 230
-1.0
 10
4.049245
 20
74.494105
 30
32.0
 40
6.049245
 50
221.9286022447
 51
227.9701383558
  0
LINE
  8
1
  5
3EC
  6
CONTINUOUS
 62
7
 10
1.9974
 20
74.31677
 30
0.0
 11
1.9974
 21
74.31677
 31
-16.0
  0
ARC
  8
1
  5
3EE
  6
CONTINUOUS
 62
7
 10
-4.049245
 20
74.494105
 30
0.0
 40
6.049245
 50
312.0298616442
 51
358.3201366442
  0
LINE
  8
1
  5
3F0
  6
CONTINUOUS
 62
7
 10
0.00084
 20
120.00075
 30
0.0
 11
0.00084
 21
120.00075
 31
-32.0
  0
ARC
  8
1
  5
3F2
  6
CONTINUOUS
 62
7
 10
-4.049245
 20
115.507405
 30
0.0
 40
6.049245
 50
12.8334494669
 51
47.9699966891
  0
LINE
  8
1
  5
3F4
  6
CONTINUOUS
 62
7
 10
1.84889
 20
116.85105
 30
0.0
 11
1.84889
 21
116.85105
 31
-16.0
  0
ARC
  8
1
  5
3F6
  6
CONTINUOUS
 62
7
 210
0.0
 220
0.0
 230
-1.0
 10
4.049245
 20
115.507405
 30
32.0
 40
6.049245
 50
132.0300033109
 51
138.0815283109
  0
POLYLINE
  8
1
  5
3F8
  6
CONTINUOUS
 62
7
 10
0.0
 20
0.0
 30
0.0
 66
1
 70
0
  0
VERTEX
  8
1
  5
3F9
  6
CONTINUOUS
 62
7
 10
5.54161
 20
91.7524
 30
0.0
  0
VERTEX
  8
1
  5
3FA
  6
CONTINUOUS
 62
7
 10
5.29603
 20
91.96861
 30
0.0
  0
VERTEX
  8
1
  5
3FB
  6
CONTINUOUS
 62
7
 10
4.411375
 20
92.994206
 30
0.0
  0
VERTEX
  8
1
  5
3FC
  6
CONTINUOUS
 62
7
 10
3.772284
 20
94.143336
 30
0.0
  0
VERTEX
  8
1
  5
3FD
  6
CONTINUOUS
 62
7
 10
3.080777
 20
96.814853
 30
0.0
  0
VERTEX
  8
1
  5
3FE
  6
CONTINUOUS
 62
7
 10
2.933989
 20
98.873824
 30
0.0
  0
VERTEX
  8
1
  5
3FF
  6
CONTINUOUS
 62
7
 10
2.9944
 20
103.669381
 30
0.0
  0
VERTEX
  8
1
  5
400
  6
CONTINUOUS
 62
7
 10
2.954772
 20
109.002598
 30
0.0
  0
VERTEX
  8
1
  5
401
  6
CONTINUOUS
 62
7
 10
2.709483
 20
111.984329
 30
0.0
  0
VERTEX
  8
1
  5
402
  6
CONTINUOUS
 62
7
 10
1.84889
 20
116.85105
 30
0.0
  0
SEQEND
  8
1
  5
403
  0
LINE
  8
1
  5
405
  6
CONTINUOUS
 62
7
 10
5.54161
 20
91.7524
 30
0.0
 11
5.54161
 21
91.7524
 31
-16.0
  0
ARC
  8
1
  5
407
  6
CONTINUOUS
 62
7
 210
0.0
 220
0.0
 230
-1.0
 10
-8.299434
 20
94.786275
 30
0.0
 40
4.1
 50
243.4357888889
 51
312.2711916667
  0
LINE
  8
1
  5
409
  6
CONTINUOUS
 62
7
 10
10.13296
 20
91.1191
 30
0.0
 11
10.13296
 21
91.1191
 31
-16.0
  0
ARC
  8
1
  5
40B
  6
CONTINUOUS
 62
7
 10
13.8
 20
83.78474
 30
0.0
 40
8.2
 50
231.2171222222
 51
116.5642111111
  0
LINE
  8
1
  5
40D
  6
CONTINUOUS
 62
7
 10
8.66376
 20
77.39263
 30
0.0
 11
8.66376
 21
77.39263
 31
-16.0
  0
ARC
  8
1
  5
40F
  6
CONTINUOUS
 62
7
 210
0.0
 220
0.0
 230
-1.0
 10
-6.095638
 20
74.19658
 30
0.0
 40
4.1
 50
1.6798633558
 51
128.7828772447
  0
LINE
  8
1
  5
411
  6
CONTINUOUS
 62
7
 10
49.99917
 20
70.00075
 30
0.0
 11
49.99917
 21
70.00075
 31
-32.0
  0
ARC
  8
1
  5
413
  6
CONTINUOUS
 62
7
 10
54.049245
 20
74.494105
 30
0.0
 40
6.049245
 50
192.8334494669
 51
227.9701383558
  0
LINE
  8
1
  5
415
  6
CONTINUOUS
 62
7
 10
48.15111
 20
73.15046
 30
0.0
 11
48.15111
 21
73.15046
 31
-16.0
  0
ARC
  8
1
  5
417
  6
CONTINUOUS
 62
7
 210
0.0
 220
0.0
 230
-1.0
 10
-54.049245
 20
74.494105
 30
32.0
 40
6.049245
 50
312.0298616442
 51
317.9807616442
  0
POLYLINE
  8
1
  5
419
  6
CONTINUOUS
 62
7
 10
0.0
 20
0.0
 30
0.0
 66
1
 70
0
  0
VERTEX
  8
1
  5
41A
  6
CONTINUOUS
 62
7
 10
44.45839
 20
98.24911
 30
0.0
  0
VERTEX
  8
1
  5
41B
  6
CONTINUOUS
 62
7
 10
44.70397
 20
98.0329
 30
0.0
  0
VERTEX
  8
1
  5
41C
  6
CONTINUOUS
 62
7
 10
45.588625
 20
97.007304
 30
0.0
  0
VERTEX
  8
1
  5
41D
  6
CONTINUOUS
 62
7
 10
46.227716
 20
95.858174
 30
0.0
  0
VERTEX
  8
1
  5
41E
  6
CONTINUOUS
 62
7
 10
46.919223
 20
93.186657
 30
0.0
  0
VERTEX
  8
1
  5
41F
  6
CONTINUOUS
 62
7
 10
47.066011
 20
91.127686
 30
0.0
  0
VERTEX
  8
1
  5
420
  6
CONTINUOUS
 62
7
 10
47.0056
 20
86.332129
 30
0.0
  0
VERTEX
  8
1
  5
421
  6
CONTINUOUS
 62
7
 10
47.045228
 20
80.998912
 30
0.0
  0
VERTEX
  8
1
  5
422
  6
CONTINUOUS
 62
7
 10
47.290517
 20
78.017181
 30
0.0
  0
VERTEX
  8
1
  5
423
  6
CONTINUOUS
 62
7
 10
48.15111
 20
73.15046
 30
0.0
  0
SEQEND
  8
1
  5
424
  0
LINE
  8
1
  5
426
  6
CONTINUOUS
 62
7
 10
44.45839
 20
98.24911
 30
0.0
 11
44.45839
 21
98.24911
 31
-16.0
  0
ARC
  8
1
  5
428
  6
CONTINUOUS
 62
7
 210
0.0
 220
0.0
 230
-1.0
 10
-41.700566
 20
95.215235
 30
0.0
 40
4.1
 50
63.4357888889
 51
132.2711916667
  0
LINE
  8
1
  5
42A
  6
CONTINUOUS
 62
7
 10
39.86704
 20
98.88241
 30
0.0
 11
39.86704
 21
98.88241
 31
-16.0
  0
ARC
  8
1
  5
42C
  6
CONTINUOUS
 62
7
 10
36.2
 20
106.21677
 30
0.0
 40
8.2
 50
51.2171222222
 51
296.5642111111
  0
LINE
  8
1
  5
42E
  6
CONTINUOUS
 62
7
 10
41.33624
 20
112.60888
 30
0.0
 11
41.33624
 21
112.60888
 31
-16.0
  0
ARC
  8
1
  5
430
  6
CONTINUOUS
 62
7
 210
0.0
 220
0.0
 230
-1.0
 10
-43.904362
 20
115.80493
 30
0.0
 40
4.1
 50
181.6798633558
 51
308.7828772447
  0
ENDBLK
  8
1
  5
431
  0
BLOCK
  8
1
  5
433
 70
1
 10
0.0
 20
0.0
 30
0.0
  2
*M5
  3
*M5
  0
INSERT
  8
1
  5
435
  6
CONTINUOUS
 62
7
  2
*M3
 10
0.0
 20
0.0
 30
0.0
 41
1.0
 42
1.0
 43
1.0
 70
1
 71
1
  0
INSERT
  8
1
  5
437
  6
CONTINUOUS
 62
7
  2
*M4
 10
0.0
 20
0.0
 30
0.0
 41
1.0
 42
1.0
 43
1.0
 70
1
 71
1
  0
ENDBLK
  8
1
  5
438
  0
BLOCK
  8
1
  5
43A
 70
1
 10
0.0
 20
0.0
 30
0.0
  2
*M6
  3
*M6
  0
LINE
  8
1
  5
43C
  6
CONTINUOUS
 62
7
 10
0.0
 20
120.0
 30
0.0
 11
-70.00084
 21
120.0
 31
0.0
  0
LINE
  8
1
  5
43E
  6
CONTINUOUS
 62
7
 10
0.0
 20
120.0
 30
-32.0
 11
0.0
 21
120.0
 31
0.0
  0
LINE
  8
1
  5
440
  6
CONTINUOUS
 62
7
 10
-70.00084
 20
120.0
 30
-32.0
 11
0.0
 21
120.0
 31
-32.0
  0
LINE
  8
1
  5
442
  6
CONTINUOUS
 62
7
 10
-70.00083
 20
70.0
 30
0.0
 11
0.0
 21
70.0
 31
0.0
  0
LINE
  8
1
  5
444
  6
CONTINUOUS
 62
7
 10
0.0
 20
70.0
 30
0.0
 11
0.0
 21
120.0
 31
0.0
  0
LINE
  8
1
  5
446
  6
CONTINUOUS
 62
7
 10
0.0
 20
120.0
 30
-32.0
 11
0.0
 21
70.0
 31
-32.0
  0
LINE
  8
1
  5
448
  6
CONTINUOUS
 62
7
 10
0.0
 20
70.0
 30
-32.0
 11
-70.00083
 21
70.0
 31
-32.0
  0
LINE
  8
1
  5
44A
  6
CONTINUOUS
 62
7
 10
-119.99917
 20
70.0
 30
-32.0
 11
-190.0
 21
70.0
 31
-32.0
  0
LINE
  8
1
  5
44C
  6
CONTINUOUS
 62
7
 10
-190.0
 20
70.0
 30
-32.0
 11
-190.0
 21
120.0
 31
-32.0
  0
LINE
  8
1
  5
44E
  6
CONTINUOUS
 62
7
 10
-190.0
 20
120.0
 30
-32.0
 11
-119.99916
 21
120.0
 31
-32.0
  0
LINE
  8
1
  5
450
  6
CONTINUOUS
 62
7
 10
0.0
 20
70.0
 30
-32.0
 11
0.0
 21
70.0
 31
0.0
  0
LINE
  8
1
  5
452
  6
CONTINUOUS
 62
7
 10
-190.0
 20
70.0
 30
0.0
 11
-119.99917
 21
70.0
 31
0.0
  0
LINE
  8
1
  5
454
  6
CONTINUOUS
 62
7
 10
-190.0
 20
70.0
 30
-32.0
 11
-190.0
 21
70.0
 31
0.0
  0
LINE
  8
1
  5
456
  6
CONTINUOUS
 62
7
 10
-119.99916
 20
120.0
 30
0.0
 11
-190.0
 21
120.0
 31
0.0
  0
LINE
  8
1
  5
458
  6
CONTINUOUS
 62
7
 10
-190.0
 20
120.0
 30
0.0
 11
-190.0
 21
70.0
 31
0.0
  0
LINE
  8
1
  5
45A
  6
CONTINUOUS
 62
7
 10
-190.0
 20
120.0
 30
-32.0
 11
-190.0
 21
120.0
 31
0.0
  0
ENDBLK
  8
1
  5
45B
  0
BLOCK
  8
1
  5
45D
 70
1
 10
0.0
 20
0.0
 30
0.0
  2
*M7
  3
*M7
  0
INSERT
  8
1
  5
45F
  6
CONTINUOUS
 62
7
  2
*M5
 10
0.0
 20
0.0
 30
0.0
 41
1.0
 42
1.0
 43
1.0
 70
1
 71
1
  0
INSERT
  8
1
  5
461
  6
CONTINUOUS
 62
7
  2
*M6
 10
120.0
 20
0.00075
 30
0.0
 41
1.0
 42
1.0
 43
1.0
 70
1
 71
1
  0
ENDBLK
  8
1
  5
462
  0
ENDSEC
  0
SECTION
  2
ENTITIES
  0
INSERT
  8
1
  5
2
  6
CONTINUOUS
 62
7
  2
*M2
 10
0.0
 20
0.0
 30
0.0
 41
1.0
 42
1.0
 43
1.0
 70
1
 71
1
  0
INSERT
  8
1
  5
4
  6
CONTINUOUS
 62
7
  2
*M7
 10
70.0
 20
-170.00075
 30
32.0
 41
1.0
 42
1.0
 43
1.0
 70
1
 71
1
  0
ENDSEC
  0
EOF
