  0
SECTION
  2
HEADER
  9
$ACADVER
  1
AC1009
  9
$INSBASE
 10
0.0
 20
0.0
 30
0.0
  9
$EXTMAX
 10
270.0
 20
295.0
 30
32.0
  9
$EXTMIN
 10
-270.0
 20
-245.0
 30
-0.00001
  9
$LIMMAX
 10
12.0
 20
9.0
  9
$LIMMIN
 10
0.0
 20
0.0
  9
$ORTHOMODE
 70
0
  9
$REGENMODE
 70
1
  9
$FILLMODE
 70
1
  9
$QTEXTMODE
 70
0
  9
$MIRRTEXT
 70
1
  9
$DRAGMODE
 70
2
  9
$LTSCALE
 40
1.0
  9
$OSMODE
 70
0
  9
$ATTMODE
 70
1
  9
$TEXTSIZE
 40
0.2
  9
$TRACEWID
 40
0.05
  9
$TEXTSTYLE
  7
STANDARD
  9
$CLAYER
  8
0
  9
$CELTYPE
  6
CONTINUOUS
  9
$CECOLOR
 62
256
  9
$DIMSCALE
 40
1.0
  9
$DIMASZ
 40
0.18
  9
$DIMEXO
 40
0.0625
  9
$DIMDLI
 40
0.38
  9
$DIMRND
 40
0.0
  9
$DIMDLE
 40
0.0
  9
$DIMEXE
 40
0.18
  9
$DIMTP
 40
0.0
  9
$DIMTM
 40
0.0
  9
$DIMTXT
 40
0.18
  9
$DIMCEN
 40
0.09
  9
$DIMTSZ
 40
0.0
  9
$DIMTOL
 70
0
  9
$DIMLIM
 70
0
  9
$DIMTIH
 70
1
  9
$DIMTOH
 70
1
  9
$DIMSE1
 70
0
  9
$DIMSE2
 70
0
  9
$DIMTAD
 70
0
  9
$DIMZIN
 70
0
  9
$DIMBLK
  1

  9
$DIMASO
 70
1
  9
$DIMSHO
 70
1
  9
$DIMPOST
  1

  9
$DIMAPOST
  1

  9
$DIMALT
 70
0
  9
$DIMALTD
 70
2
  9
$DIMALTF
 40
25.4
  9
$DIMLFAC
 40
1.0
  9
$DIMTOFL
 70
0
  9
$DIMTVP
 40
0.0
  9
$DIMTIX
 70
0
  9
$DIMSOXD
 70
0
  9
$DIMSAH
 70
0
  9
$DIMBLK1
  1

  9
$DIMBLK2
  1

  9
$DIMSTYLE
  2
*UNNAMED
  9
$DIMCLRD
 70
0
  9
$DIMCLRE
 70
0
  9
$DIMCLRT
 70
0
  9
$DIMTFAC
 40
1.0
  9
$DIMGAP
 40
0.09
  9
$LUNITS
 70
2
  9
$LUPREC
 70
4
  9
$AXISMODE
 70
0
  9
$AXISUNIT
 10
0.0
 20
0.0
  9
$SKETCHINC
 40
0.1
  9
$FILLETRAD
 40
0.0
  9
$AUNITS
 70
0
  9
$AUPREC
 70
0
  9
$MENU
  1
acad
  9
$ELEVATION
 40
0.0
  9
$PELEVATION
 40
0.0
  9
$THICKNESS
 40
0.0
  9
$LIMCHECK
 70
0
  9
$BLIPMODE
 70
1
  9
$CHAMFERA
 40
0.0
  9
$CHAMFERB
 40
0.0
  9
$SKPOLY
 70
0
  9
$TDCREATE
 40
0.0
  9
$TDUPDATE
 40
0.0
  9
$TDINDWG
 40
0.0
  9
$TDUSRTIMER
 40
0.0
  9
$USRTIMER
 70
1
  9
$ANGBASE
 50
0.0
  9
$ANGDIR
 70
0
  9
$PDMODE
 70
0
  9
$PDSIZE
 40
0.0
  9
$PLINEWID
 40
0.0
  9
$COORDS
 70
0
  9
$SPLFRAME
 70
0
  9
$SPLINETYPE
 70
6
  9
$SPLINESEGS
 70
10
  9
$ATTDIA
 70
0
  9
$ATTREQ
 70
1
  9
$HANDLING
 70
1
  9
$HANDSEED
  5
2F3
  9
$SURFTAB1
 70
6
  9
$SURFTAB2
 70
6
  9
$SURFTYPE
 70
6
  9
$SURFU
 70
10
  9
$SURFV
 70
10
  9
$UCSNAME
  2

  9
$UCSORG
 10
0.0
 20
0.0
 30
0.0
  9
$UCSXDIR
 10
1.0
 20
0.0
 30
0.0
  9
$UCSYDIR
 10
0.0
 20
1.0
 30
0.0
  9
$PUCSNAME
  2
 
  9
$PUCSORG
 10
0.0
 20
0.0
 30
0.0
  9
$PUCSXDIR
 10
1.0
 20
0.0
 30
0.0
  9
$PUCSYDIR
 10
0.0
 20
1.0
 30
0.0
  9
$USERI1
 70
0
  9
$USERI2
 70
0
  9
$USERI3
 70
0
  9
$USERI4
 70
0
  9
$USERI5
 70
0
  9
$USERR1
 40
0.0
  9
$USERR2
 40
0.0
  9
$USERR3
 40
0.0
  9
$USERR4
 40
0.0
  9
$USERR5
 40
0.0
  9
$WORLDVIEW
 70
1
  9
$SHADEDGE
 70
3
  9
$SHADEDIF
 70
70
  9
$TILEMODE
 70
1
  9
$MAXACTVP
 70
16
  9
$PINSBASE
 10
0.0
 20
0.0
 30
0.0
  9
$PLIMCHECK
 70
0
  9
$PEXTMIN
 10
-1.000000E+020
 20
-1.000000E+020
 30
-1.000000E+020
  9
$PEXTMAX
 10
-1.000000E+020
 20
-1.000000E+020
 30
-1.000000E+020
  9
$PLIMMIN
 10
0.0
 20
0.0
  9
$PLIMMAX
 10
12.0
 20
9.0
  9
$UNITMODE
 70
0
  9
$VISRETAIN
 70
0
  0
ENDSEC
  0
SECTION
  2
TABLES
  0
TABLE
  2
LTYPE
 70
7
  0
LTYPE
  2
CONTINUOUS
 70
64
  3
Solid line
 72
65
 73
0
 40
0.0
  0
LTYPE
  2
DOT
 70
64
  3
. . . . . . . . . . . . . . . . . . . . . . . . . . . . . . . . .
 72
65
 73
2
 40
0.25
 49
0.0
 49
-0.25
  0
LTYPE
  2
HIDDEN
 70
64
  3
__ __ __ __ __ __ __ __ __ __ __ __ __ __ __ __ __ __ __ __ __ 
 72
65
 73
2
 40
0.375
 49
0.25
 49
-0.125
  0
LTYPE
  2
DASHED
 70
64
  3
__ __ __ __ __ __ __ __ __ __ __ __ __ __ __ __ __ __ __ __ __
 72
65
 73
2
 40
0.75
 49
0.5
 49
-0.25
  0
LTYPE
  2
DASHDOT
 70
64
  3
__ . __ . __ . __ . __ . __ . __ . __ . __ . __ . __ . __ . _
 72
65
 73
4
 40
1.0
 49
0.5
 49
-0.25
 49
0.0
 49
-0.25
  0
LTYPE
  2
DIVIDE
 70
64
  3
____ . . ____ . . ____ . . ____ . . ____ . . ____ . . ____ . .
 72
65
 73
6
 40
1.25
 49
0.5
 49
-0.25
 49
0.0
 49
-0.25
 49
0.0
 49
-0.25
  0
LTYPE
  2
CENTER
 70
64
  3
____ _ ____ _ ____ _ ____ _ ____ _ ____ _ ____ _ ____ _ ____ _
 72
65
 73
4
 40
2.0
 49
1.25
 49
-0.25
 49
0.25
 49
-0.25
  0
ENDTAB
  0
TABLE
  2
APPID
 70
1
  0
APPID
  2
ACAD
 70
0
  0
ENDTAB
  0
TABLE
  2
DIMSTYLE
 70
0
  0
ENDTAB
  0
TABLE
  2
LAYER
 70
4
  0
LAYER
  2
0
 70
0
 62
7
  6
CONTINUOUS
  0
LAYER
  2
CONSTRUCTION_CLASS
 70
0
 62
7
  6
CONTINUOUS
  0
LAYER
  2
PATTERN_CLASS
 70
0
 62
7
  6
CONTINUOUS
  0
LAYER
  2
1
 70
0
 62
7
  6
CONTINUOUS
  0
ENDTAB
  0
TABLE
  2
STYLE
 70
1
  0
STYLE
  2
STANDARD
 70
0
 40
0.2
 41
1.0
 50
0.0
 71
0
 42
0.0
  3
txt
  4

  0
ENDTAB
  0
TABLE
  2
UCS
 70
0
  0
ENDTAB
  0
TABLE
  2
VIEW
 70
0
  0
ENDTAB
  0
TABLE
  2
VPORT
 70
4
  0
VPORT
  2
*ACTIVE
 70
0
 10
0.001642
 20
0.501669
 11
0.499179
 21
0.997775
 12
0.0
 22
0.0
 13
0.0
 23
0.0
 14
0.0
 24
0.0
 15
0.0
 25
0.0
 16
0.0
 26
-1.244194E-013
 36
2031.99016
 17
-49.961549
 27
25.0
 37
16.0
 40
553.5
 41
1.358744
 42
50.0
 43
1015.99508
 44
-1015.99508
 50
0.0
 51
0.0
 71
22
 72
100
 73
1
 74
0
 75
0
 76
0
 77
0
 78
0
  0
VPORT
  2
*ACTIVE
 70
0
 10
0.500821
 20
0.501669
 11
0.998358
 21
0.997775
 12
-7.181228E-009
 22
-2.069166E-008
 13
0.0
 23
0.0
 14
0.0
 24
0.0
 15
0.0
 25
0.0
 16
-829.333328
 26
-829.333328
 36
829.333328
 17
-17.731617
 27
42.731607
 37
16.000002
 40
277.80814
 41
1.358744
 42
50.0
 43
718.22373
 44
-718.22373
 50
0.0
 51
0.0
 71
22
 72
100
 73
1
 74
0
 75
0
 76
0
 77
0
 78
0
  0
VPORT
  2
*ACTIVE
 70
0
 10
0.001642
 20
0.003337
 11
0.499179
 21
0.499444
 12
0.0
 22
0.0
 13
0.0
 23
0.0
 14
0.0
 24
0.0
 15
0.0
 25
0.0
 16
0.0
 26
-2160.0
 36
0.0
 17
-32.457867
 27
25.0
 37
16.0
 40
359.58512
 41
1.358744
 42
50.0
 43
1080.0
 44
-1080.0
 50
0.0
 51
0.0
 71
22
 72
100
 73
1
 74
0
 75
0
 76
0
 77
0
 78
0
  0
VPORT
  2
*ACTIVE
 70
0
 10
0.500821
 20
0.003337
 11
0.998358
 21
0.499444
 12
0.0
 22
0.0
 13
0.0
 23
0.0
 14
0.0
 24
0.0
 15
0.0
 25
0.0
 16
2160.0
 26
0.0
 36
0.0
 17
0.0
 27
-7.457867
 37
16.0
 40
359.58512
 41
1.358744
 42
50.0
 43
1080.0
 44
-1080.0
 50
0.0
 51
0.0
 71
22
 72
100
 73
1
 74
0
 75
0
 76
0
 77
0
 78
0
  0
ENDTAB
  0
ENDSEC
  0
SECTION
  2
BLOCKS
  0
BLOCK
  8
1
  5
C
 70
1
 10
0.0
 20
0.0
 30
0.0
  2
*M0
  3
*M0
  0
LINE
  8
1
  5
E
  6
CONTINUOUS
 62
7
 10
-39.87138
 20
38.41705
 30
32.0
 11
-39.87138
 21
38.41705
 31
17.0
  0
LINE
  8
1
  5
10
  6
CONTINUOUS
 62
7
 10
-10.12864
 20
61.58296
 30
32.0
 11
-10.12864
 21
61.58296
 31
17.0
  0
LINE
  8
1
  5
12
  6
CONTINUOUS
 62
7
 10
-13.41705
 20
35.12864
 30
32.0
 11
-13.41705
 21
35.12864
 31
17.0
  0
LINE
  8
1
  5
14
  6
CONTINUOUS
 62
7
 10
-60.0
 20
25.0
 30
32.0
 11
-60.0
 21
25.0
 31
17.0
  0
LINE
  8
1
  5
16
  6
CONTINUOUS
 62
7
 10
-13.41705
 20
-14.87138
 30
32.0
 11
-13.41705
 21
-14.87138
 31
17.0
  0
LINE
  8
1
  5
18
  6
CONTINUOUS
 62
7
 10
-36.58296
 20
14.87136
 30
32.0
 11
-36.58296
 21
14.87136
 31
17.0
  0
LINE
  8
1
  5
1A
  6
CONTINUOUS
 62
7
 10
-10.12864
 20
11.58295
 30
32.0
 11
-10.12864
 21
11.58295
 31
17.0
  0
LINE
  8
1
  5
1C
  6
CONTINUOUS
 62
7
 10
0.0
 20
-35.0
 30
32.0
 11
0.0
 21
-35.0
 31
17.0
  0
LINE
  8
1
  5
1E
  6
CONTINUOUS
 62
7
 10
39.87138
 20
11.58295
 30
32.0
 11
39.87138
 21
11.58295
 31
17.0
  0
LINE
  8
1
  5
20
  6
CONTINUOUS
 62
7
 10
10.12864
 20
-11.58296
 30
32.0
 11
10.12864
 21
-11.58296
 31
17.0
  0
LINE
  8
1
  5
22
  6
CONTINUOUS
 62
7
 10
13.41705
 20
14.87136
 30
32.0
 11
13.41705
 21
14.87136
 31
17.0
  0
LINE
  8
1
  5
24
  6
CONTINUOUS
 62
7
 10
60.0
 20
25.0
 30
32.0
 11
60.0
 21
25.0
 31
17.0
  0
LINE
  8
1
  5
26
  6
CONTINUOUS
 62
7
 10
13.41705
 20
64.87138
 30
32.0
 11
13.41705
 21
64.87138
 31
17.0
  0
LINE
  8
1
  5
28
  6
CONTINUOUS
 62
7
 10
36.58296
 20
35.12864
 30
32.0
 11
36.58296
 21
35.12864
 31
17.0
  0
LINE
  8
1
  5
2A
  6
CONTINUOUS
 62
7
 10
10.12864
 20
38.41705
 30
32.0
 11
10.12864
 21
38.41705
 31
17.0
  0
LINE
  8
1
  5
2C
  6
CONTINUOUS
 62
7
 10
0.0
 20
85.0
 30
32.0
 11
0.0
 21
85.0
 31
17.0
  0
ARC
  8
1
  5
2E
  6
CONTINUOUS
 62
7
 10
-10.897693
 20
68.106006
 30
17.0
 40
4.1
 50
157.7744512735
 51
232.0858818291
  0
LINE
  8
1
  5
30
  6
CONTINUOUS
 62
7
 10
-13.41706
 20
64.87138
 30
32.0
 11
-13.41706
 21
64.87138
 31
17.0
  0
ARC
  8
1
  5
32
  6
CONTINUOUS
 62
7
 10
-10.897693
 20
68.106006
 30
32.0
 40
4.1
 50
157.7744512735
 51
232.0858818291
  0
LINE
  8
1
  5
34
  6
CONTINUOUS
 62
7
 10
-14.69307
 20
69.65685
 30
32.0
 11
-14.69307
 21
69.65685
 31
17.0
  0
POINT
  8
1
  5
36
  6
CONTINUOUS
 62
7
 10
-13.41706
 20
64.87138
 30
17.0
 50
0.0
  0
LINE
  8
1
  5
38
  6
CONTINUOUS
 62
7
 10
-13.41706
 20
64.87138
 30
32.0
 11
-13.41706
 21
64.87138
 31
17.0
  0
POINT
  8
1
  5
3A
  6
CONTINUOUS
 62
7
 10
-13.41706
 20
64.87138
 30
32.0
 50
0.0
  0
ARC
  8
1
  5
3C
  6
CONTINUOUS
 62
7
 210
0.0
 220
0.0
 230
-1.0
 10
25.000011
 20
50.000007
 30
-17.0
 40
18.85
 50
127.9141570099
 51
322.0858208988
  0
LINE
  8
1
  5
3E
  6
CONTINUOUS
 62
7
 10
-39.87138
 20
38.41705
 30
32.0
 11
-39.87138
 21
38.41705
 31
17.0
  0
ARC
  8
1
  5
40
  6
CONTINUOUS
 62
7
 210
0.0
 220
0.0
 230
-1.0
 10
25.000011
 20
50.000007
 30
-32.0
 40
18.85
 50
127.9141570099
 51
322.0858208988
  0
POINT
  8
1
  5
42
  6
CONTINUOUS
 62
7
 10
-39.87138
 20
38.41705
 30
17.0
 50
0.0
  0
LINE
  8
1
  5
44
  6
CONTINUOUS
 62
7
 10
-39.87138
 20
38.41705
 30
32.0
 11
-39.87138
 21
38.41705
 31
17.0
  0
POINT
  8
1
  5
46
  6
CONTINUOUS
 62
7
 10
-39.87138
 20
38.41705
 30
32.0
 50
0.0
  0
ARC
  8
1
  5
48
  6
CONTINUOUS
 62
7
 10
-43.106006
 20
35.897693
 30
17.0
 40
4.1
 50
37.9139897124
 51
112.2256341568
  0
LINE
  8
1
  5
4A
  6
CONTINUOUS
 62
7
 10
-44.65685
 20
39.69307
 30
32.0
 11
-44.65685
 21
39.69307
 31
17.0
  0
ARC
  8
1
  5
4C
  6
CONTINUOUS
 62
7
 10
-43.106006
 20
35.897693
 30
32.0
 40
4.1
 50
37.9139897124
 51
112.2256341568
  0
POINT
  8
1
  5
4E
  6
CONTINUOUS
 62
7
 10
-44.65685
 20
39.69307
 30
17.0
 50
0.0
  0
LINE
  8
1
  5
50
  6
CONTINUOUS
 62
7
 10
-44.65685
 20
39.69307
 30
32.0
 11
-44.65685
 21
39.69307
 31
17.0
  0
POINT
  8
1
  5
52
  6
CONTINUOUS
 62
7
 10
-44.65685
 20
39.69307
 30
32.0
 50
0.0
  0
POLYLINE
  8
1
  5
54
  6
CONTINUOUS
 62
7
 10
0.0
 20
0.0
 30
17.0
 66
1
 70
0
  0
VERTEX
  8
1
  5
55
  6
CONTINUOUS
 62
7
 10
-44.656853
 20
39.693068
 30
17.0
 42
0.044824
  0
VERTEX
  8
1
  5
56
  6
CONTINUOUS
 62
7
 10
-51.997903
 20
35.976864
 30
17.0
 42
0.070072
  0
VERTEX
  8
1
  5
57
  6
CONTINUOUS
 62
7
 10
-57.076881
 20
31.783132
 30
17.0
 42
0.111795
  0
VERTEX
  8
1
  5
58
  6
CONTINUOUS
 62
7
 10
-59.672835
 20
27.294313
 30
17.0
 42
0.140179
  0
VERTEX
  8
1
  5
59
  6
CONTINUOUS
 62
7
 10
-59.672834
 20
22.705683
 30
17.0
 42
0.111795
  0
VERTEX
  8
1
  5
5A
  6
CONTINUOUS
 62
7
 10
-57.076877
 20
18.216864
 30
17.0
 42
0.070072
  0
VERTEX
  8
1
  5
5B
  6
CONTINUOUS
 62
7
 10
-51.997897
 20
14.023132
 30
17.0
 42
0.044824
  0
VERTEX
  8
1
  5
5C
  6
CONTINUOUS
 62
7
 10
-44.656845
 20
10.306929
 30
17.0
 42
0.044824
  0
SEQEND
  8
1
  5
5D
  0
LINE
  8
1
  5
5F
  6
CONTINUOUS
 62
7
 10
-44.65685
 20
10.30693
 30
32.0
 11
-44.65685
 21
10.30693
 31
17.0
  0
POLYLINE
  8
1
  5
61
  6
CONTINUOUS
 62
7
 10
0.0
 20
0.0
 30
32.0
 66
1
 70
0
  0
VERTEX
  8
1
  5
62
  6
CONTINUOUS
 62
7
 10
-44.656853
 20
39.693068
 30
32.0
 42
0.044824
  0
VERTEX
  8
1
  5
63
  6
CONTINUOUS
 62
7
 10
-51.997903
 20
35.976864
 30
32.0
 42
0.070072
  0
VERTEX
  8
1
  5
64
  6
CONTINUOUS
 62
7
 10
-57.076881
 20
31.783132
 30
32.0
 42
0.111795
  0
VERTEX
  8
1
  5
65
  6
CONTINUOUS
 62
7
 10
-59.672835
 20
27.294313
 30
32.0
 42
0.140179
  0
VERTEX
  8
1
  5
66
  6
CONTINUOUS
 62
7
 10
-59.672834
 20
22.705683
 30
32.0
 42
0.111795
  0
VERTEX
  8
1
  5
67
  6
CONTINUOUS
 62
7
 10
-57.076877
 20
18.216864
 30
32.0
 42
0.070072
  0
VERTEX
  8
1
  5
68
  6
CONTINUOUS
 62
7
 10
-51.997897
 20
14.023132
 30
32.0
 42
0.044824
  0
VERTEX
  8
1
  5
69
  6
CONTINUOUS
 62
7
 10
-44.656845
 20
10.306929
 30
32.0
 42
0.044824
  0
SEQEND
  8
1
  5
6A
  0
ARC
  8
1
  5
6C
  6
CONTINUOUS
 62
7
 10
-43.106006
 20
14.102307
 30
17.0
 40
4.1
 50
247.7744512957
 51
322.0858818513
  0
LINE
  8
1
  5
6E
  6
CONTINUOUS
 62
7
 10
-39.87138
 20
11.58294
 30
32.0
 11
-39.87138
 21
11.58294
 31
17.0
  0
ARC
  8
1
  5
70
  6
CONTINUOUS
 62
7
 10
-43.106006
 20
14.102307
 30
32.0
 40
4.1
 50
247.7744512957
 51
322.0858818513
  0
POINT
  8
1
  5
72
  6
CONTINUOUS
 62
7
 10
-39.87138
 20
11.58294
 30
17.0
 50
0.0
  0
LINE
  8
1
  5
74
  6
CONTINUOUS
 62
7
 10
-39.87138
 20
11.58294
 30
32.0
 11
-39.87138
 21
11.58294
 31
17.0
  0
POINT
  8
1
  5
76
  6
CONTINUOUS
 62
7
 10
-39.87138
 20
11.58294
 30
32.0
 50
0.0
  0
ARC
  8
1
  5
78
  6
CONTINUOUS
 62
7
 210
0.0
 220
0.0
 230
-1.0
 10
25.000007
 20
-0.000011
 30
-17.0
 40
18.85
 50
37.9141569954
 51
232.0858208843
  0
LINE
  8
1
  5
7A
  6
CONTINUOUS
 62
7
 10
-13.41705
 20
-14.87138
 30
32.0
 11
-13.41705
 21
-14.87138
 31
17.0
  0
ARC
  8
1
  5
7C
  6
CONTINUOUS
 62
7
 210
0.0
 220
0.0
 230
-1.0
 10
25.000007
 20
-0.000011
 30
-32.0
 40
18.85
 50
37.9141569954
 51
232.0858208843
  0
POINT
  8
1
  5
7E
  6
CONTINUOUS
 62
7
 10
-13.41705
 20
-14.87138
 30
17.0
 50
0.0
  0
LINE
  8
1
  5
80
  6
CONTINUOUS
 62
7
 10
-13.41705
 20
-14.87138
 30
32.0
 11
-13.41705
 21
-14.87138
 31
17.0
  0
POINT
  8
1
  5
82
  6
CONTINUOUS
 62
7
 10
-13.41705
 20
-14.87138
 30
32.0
 50
0.0
  0
ARC
  8
1
  5
84
  6
CONTINUOUS
 62
7
 10
-10.897693
 20
-18.106006
 30
17.0
 40
4.1
 50
127.9139897045
 51
202.2256341489
  0
LINE
  8
1
  5
86
  6
CONTINUOUS
 62
7
 10
-14.69307
 20
-19.65685
 30
32.0
 11
-14.69307
 21
-19.65685
 31
17.0
  0
ARC
  8
1
  5
88
  6
CONTINUOUS
 62
7
 10
-10.897693
 20
-18.106006
 30
32.0
 40
4.1
 50
127.9139897045
 51
202.2256341489
  0
POINT
  8
1
  5
8A
  6
CONTINUOUS
 62
7
 10
-14.69307
 20
-19.65685
 30
17.0
 50
0.0
  0
LINE
  8
1
  5
8C
  6
CONTINUOUS
 62
7
 10
-14.69307
 20
-19.65685
 30
32.0
 11
-14.69307
 21
-19.65685
 31
17.0
  0
POINT
  8
1
  5
8E
  6
CONTINUOUS
 62
7
 10
-14.69307
 20
-19.65685
 30
32.0
 50
0.0
  0
POLYLINE
  8
1
  5
90
  6
CONTINUOUS
 62
7
 10
0.0
 20
0.0
 30
17.0
 66
1
 70
0
  0
VERTEX
  8
1
  5
91
  6
CONTINUOUS
 62
7
 10
-14.693068
 20
-19.656853
 30
17.0
 42
0.044824
  0
VERTEX
  8
1
  5
92
  6
CONTINUOUS
 62
7
 10
-10.976864
 20
-26.997903
 30
17.0
 42
0.070072
  0
VERTEX
  8
1
  5
93
  6
CONTINUOUS
 62
7
 10
-6.783132
 20
-32.076881
 30
17.0
 42
0.111795
  0
VERTEX
  8
1
  5
94
  6
CONTINUOUS
 62
7
 10
-2.294313
 20
-34.672835
 30
17.0
 42
0.140179
  0
VERTEX
  8
1
  5
95
  6
CONTINUOUS
 62
7
 10
2.294317
 20
-34.672834
 30
17.0
 42
0.111795
  0
VERTEX
  8
1
  5
96
  6
CONTINUOUS
 62
7
 10
6.783136
 20
-32.076877
 30
17.0
 42
0.070072
  0
VERTEX
  8
1
  5
97
  6
CONTINUOUS
 62
7
 10
10.976868
 20
-26.997897
 30
17.0
 42
0.044824
  0
VERTEX
  8
1
  5
98
  6
CONTINUOUS
 62
7
 10
14.693071
 20
-19.656845
 30
17.0
 42
0.044824
  0
SEQEND
  8
1
  5
99
  0
LINE
  8
1
  5
9B
  6
CONTINUOUS
 62
7
 10
14.69307
 20
-19.65685
 30
32.0
 11
14.69307
 21
-19.65685
 31
17.0
  0
POLYLINE
  8
1
  5
9D
  6
CONTINUOUS
 62
7
 10
0.0
 20
0.0
 30
32.0
 66
1
 70
0
  0
VERTEX
  8
1
  5
9E
  6
CONTINUOUS
 62
7
 10
-14.693068
 20
-19.656853
 30
32.0
 42
0.044824
  0
VERTEX
  8
1
  5
9F
  6
CONTINUOUS
 62
7
 10
-10.976864
 20
-26.997903
 30
32.0
 42
0.070072
  0
VERTEX
  8
1
  5
A0
  6
CONTINUOUS
 62
7
 10
-6.783132
 20
-32.076881
 30
32.0
 42
0.111795
  0
VERTEX
  8
1
  5
A1
  6
CONTINUOUS
 62
7
 10
-2.294313
 20
-34.672835
 30
32.0
 42
0.140179
  0
VERTEX
  8
1
  5
A2
  6
CONTINUOUS
 62
7
 10
2.294317
 20
-34.672834
 30
32.0
 42
0.111795
  0
VERTEX
  8
1
  5
A3
  6
CONTINUOUS
 62
7
 10
6.783136
 20
-32.076877
 30
32.0
 42
0.070072
  0
VERTEX
  8
1
  5
A4
  6
CONTINUOUS
 62
7
 10
10.976868
 20
-26.997897
 30
32.0
 42
0.044824
  0
VERTEX
  8
1
  5
A5
  6
CONTINUOUS
 62
7
 10
14.693071
 20
-19.656845
 30
32.0
 42
0.044824
  0
SEQEND
  8
1
  5
A6
  0
ARC
  8
1
  5
A8
  6
CONTINUOUS
 62
7
 10
10.897693
 20
-18.106006
 30
17.0
 40
4.1
 50
337.7744512735
 51
52.0858818291
  0
LINE
  8
1
  5
AA
  6
CONTINUOUS
 62
7
 10
13.41706
 20
-14.87138
 30
32.0
 11
13.41706
 21
-14.87138
 31
17.0
  0
ARC
  8
1
  5
AC
  6
CONTINUOUS
 62
7
 10
10.897693
 20
-18.106006
 30
32.0
 40
4.1
 50
337.7744512735
 51
52.0858818291
  0
POINT
  8
1
  5
AE
  6
CONTINUOUS
 62
7
 10
13.41706
 20
-14.87138
 30
17.0
 50
0.0
  0
LINE
  8
1
  5
B0
  6
CONTINUOUS
 62
7
 10
13.41706
 20
-14.87138
 30
32.0
 11
13.41706
 21
-14.87138
 31
17.0
  0
POINT
  8
1
  5
B2
  6
CONTINUOUS
 62
7
 10
13.41706
 20
-14.87138
 30
32.0
 50
0.0
  0
ARC
  8
1
  5
B4
  6
CONTINUOUS
 62
7
 210
0.0
 220
0.0
 230
-1.0
 10
-25.000011
 20
-0.000007
 30
-17.0
 40
18.85
 50
307.9141570099
 51
142.0858208988
  0
LINE
  8
1
  5
B6
  6
CONTINUOUS
 62
7
 10
39.87138
 20
11.58295
 30
32.0
 11
39.87138
 21
11.58295
 31
17.0
  0
ARC
  8
1
  5
B8
  6
CONTINUOUS
 62
7
 210
0.0
 220
0.0
 230
-1.0
 10
-25.000011
 20
-0.000007
 30
-32.0
 40
18.85
 50
307.9141570099
 51
142.0858208988
  0
POINT
  8
1
  5
BA
  6
CONTINUOUS
 62
7
 10
39.87138
 20
11.58295
 30
17.0
 50
0.0
  0
LINE
  8
1
  5
BC
  6
CONTINUOUS
 62
7
 10
39.87138
 20
11.58295
 30
32.0
 11
39.87138
 21
11.58295
 31
17.0
  0
POINT
  8
1
  5
BE
  6
CONTINUOUS
 62
7
 10
39.87138
 20
11.58295
 30
32.0
 50
0.0
  0
ARC
  8
1
  5
C0
  6
CONTINUOUS
 62
7
 10
43.106006
 20
14.102307
 30
17.0
 40
4.1
 50
217.9139897124
 51
292.2256341568
  0
LINE
  8
1
  5
C2
  6
CONTINUOUS
 62
7
 10
44.65685
 20
10.30693
 30
32.0
 11
44.65685
 21
10.30693
 31
17.0
  0
ARC
  8
1
  5
C4
  6
CONTINUOUS
 62
7
 10
43.106006
 20
14.102307
 30
32.0
 40
4.1
 50
217.9139897124
 51
292.2256341568
  0
POINT
  8
1
  5
C6
  6
CONTINUOUS
 62
7
 10
44.65685
 20
10.30693
 30
17.0
 50
0.0
  0
LINE
  8
1
  5
C8
  6
CONTINUOUS
 62
7
 10
44.65685
 20
10.30693
 30
32.0
 11
44.65685
 21
10.30693
 31
17.0
  0
POINT
  8
1
  5
CA
  6
CONTINUOUS
 62
7
 10
44.65685
 20
10.30693
 30
32.0
 50
0.0
  0
POLYLINE
  8
1
  5
CC
  6
CONTINUOUS
 62
7
 10
0.0
 20
0.0
 30
17.0
 66
1
 70
0
  0
VERTEX
  8
1
  5
CD
  6
CONTINUOUS
 62
7
 10
44.656853
 20
10.306932
 30
17.0
 42
0.044824
  0
VERTEX
  8
1
  5
CE
  6
CONTINUOUS
 62
7
 10
51.997903
 20
14.023136
 30
17.0
 42
0.070072
  0
VERTEX
  8
1
  5
CF
  6
CONTINUOUS
 62
7
 10
57.076881
 20
18.216868
 30
17.0
 42
0.111795
  0
VERTEX
  8
1
  5
D0
  6
CONTINUOUS
 62
7
 10
59.672835
 20
22.705687
 30
17.0
 42
0.140179
  0
VERTEX
  8
1
  5
D1
  6
CONTINUOUS
 62
7
 10
59.672834
 20
27.294317
 30
17.0
 42
0.111795
  0
VERTEX
  8
1
  5
D2
  6
CONTINUOUS
 62
7
 10
57.076877
 20
31.783136
 30
17.0
 42
0.070072
  0
VERTEX
  8
1
  5
D3
  6
CONTINUOUS
 62
7
 10
51.997897
 20
35.976868
 30
17.0
 42
0.044824
  0
VERTEX
  8
1
  5
D4
  6
CONTINUOUS
 62
7
 10
44.656845
 20
39.693071
 30
17.0
 42
0.044824
  0
SEQEND
  8
1
  5
D5
  0
LINE
  8
1
  5
D7
  6
CONTINUOUS
 62
7
 10
44.65685
 20
39.69307
 30
32.0
 11
44.65685
 21
39.69307
 31
17.0
  0
POLYLINE
  8
1
  5
D9
  6
CONTINUOUS
 62
7
 10
0.0
 20
0.0
 30
32.0
 66
1
 70
0
  0
VERTEX
  8
1
  5
DA
  6
CONTINUOUS
 62
7
 10
44.656853
 20
10.306932
 30
32.0
 42
0.044824
  0
VERTEX
  8
1
  5
DB
  6
CONTINUOUS
 62
7
 10
51.997903
 20
14.023136
 30
32.0
 42
0.070072
  0
VERTEX
  8
1
  5
DC
  6
CONTINUOUS
 62
7
 10
57.076881
 20
18.216868
 30
32.0
 42
0.111795
  0
VERTEX
  8
1
  5
DD
  6
CONTINUOUS
 62
7
 10
59.672835
 20
22.705687
 30
32.0
 42
0.140179
  0
VERTEX
  8
1
  5
DE
  6
CONTINUOUS
 62
7
 10
59.672834
 20
27.294317
 30
32.0
 42
0.111795
  0
VERTEX
  8
1
  5
DF
  6
CONTINUOUS
 62
7
 10
57.076877
 20
31.783136
 30
32.0
 42
0.070072
  0
VERTEX
  8
1
  5
E0
  6
CONTINUOUS
 62
7
 10
51.997897
 20
35.976868
 30
32.0
 42
0.044824
  0
VERTEX
  8
1
  5
E1
  6
CONTINUOUS
 62
7
 10
44.656845
 20
39.693071
 30
32.0
 42
0.044824
  0
SEQEND
  8
1
  5
E2
  0
ARC
  8
1
  5
E4
  6
CONTINUOUS
 62
7
 10
43.106006
 20
35.897693
 30
17.0
 40
4.1
 50
67.7744512957
 51
142.0858818513
  0
LINE
  8
1
  5
E6
  6
CONTINUOUS
 62
7
 10
39.87138
 20
38.41706
 30
32.0
 11
39.87138
 21
38.41706
 31
17.0
  0
ARC
  8
1
  5
E8
  6
CONTINUOUS
 62
7
 10
43.106006
 20
35.897693
 30
32.0
 40
4.1
 50
67.7744512957
 51
142.0858818513
  0
POINT
  8
1
  5
EA
  6
CONTINUOUS
 62
7
 10
39.87138
 20
38.41706
 30
17.0
 50
0.0
  0
LINE
  8
1
  5
EC
  6
CONTINUOUS
 62
7
 10
39.87138
 20
38.41706
 30
32.0
 11
39.87138
 21
38.41706
 31
17.0
  0
POINT
  8
1
  5
EE
  6
CONTINUOUS
 62
7
 10
39.87138
 20
38.41706
 30
32.0
 50
0.0
  0
ARC
  8
1
  5
F0
  6
CONTINUOUS
 62
7
 210
0.0
 220
0.0
 230
-1.0
 10
-25.000007
 20
50.000011
 30
-17.0
 40
18.85
 50
217.9141569954
 51
52.0858208843
  0
LINE
  8
1
  5
F2
  6
CONTINUOUS
 62
7
 10
13.41705
 20
64.87138
 30
32.0
 11
13.41705
 21
64.87138
 31
17.0
  0
ARC
  8
1
  5
F4
  6
CONTINUOUS
 62
7
 210
0.0
 220
0.0
 230
-1.0
 10
-25.000007
 20
50.000011
 30
-32.0
 40
18.85
 50
217.9141569954
 51
52.0858208843
  0
POINT
  8
1
  5
F6
  6
CONTINUOUS
 62
7
 10
13.41705
 20
64.87138
 30
17.0
 50
0.0
  0
LINE
  8
1
  5
F8
  6
CONTINUOUS
 62
7
 10
13.41705
 20
64.87138
 30
32.0
 11
13.41705
 21
64.87138
 31
17.0
  0
POINT
  8
1
  5
FA
  6
CONTINUOUS
 62
7
 10
13.41705
 20
64.87138
 30
32.0
 50
0.0
  0
ARC
  8
1
  5
FC
  6
CONTINUOUS
 62
7
 10
10.897693
 20
68.106006
 30
17.0
 40
4.1
 50
307.9139897045
 51
22.2256341489
  0
LINE
  8
1
  5
FE
  6
CONTINUOUS
 62
7
 10
14.69307
 20
69.65685
 30
32.0
 11
14.69307
 21
69.65685
 31
17.0
  0
ARC
  8
1
  5
100
  6
CONTINUOUS
 62
7
 10
10.897693
 20
68.106006
 30
32.0
 40
4.1
 50
307.9139897045
 51
22.2256341489
  0
POINT
  8
1
  5
102
  6
CONTINUOUS
 62
7
 10
14.69307
 20
69.65685
 30
17.0
 50
0.0
  0
LINE
  8
1
  5
104
  6
CONTINUOUS
 62
7
 10
14.69307
 20
69.65685
 30
32.0
 11
14.69307
 21
69.65685
 31
17.0
  0
POINT
  8
1
  5
106
  6
CONTINUOUS
 62
7
 10
14.69307
 20
69.65685
 30
32.0
 50
0.0
  0
POLYLINE
  8
1
  5
108
  6
CONTINUOUS
 62
7
 10
0.0
 20
0.0
 30
17.0
 66
1
 70
0
  0
VERTEX
  8
1
  5
109
  6
CONTINUOUS
 62
7
 10
14.693068
 20
69.656853
 30
17.0
 42
0.044824
  0
VERTEX
  8
1
  5
10A
  6
CONTINUOUS
 62
7
 10
10.976864
 20
76.997903
 30
17.0
 42
0.070072
  0
VERTEX
  8
1
  5
10B
  6
CONTINUOUS
 62
7
 10
6.783132
 20
82.076881
 30
17.0
 42
0.111795
  0
VERTEX
  8
1
  5
10C
  6
CONTINUOUS
 62
7
 10
2.294313
 20
84.672835
 30
17.0
 42
0.140179
  0
VERTEX
  8
1
  5
10D
  6
CONTINUOUS
 62
7
 10
-2.294317
 20
84.672834
 30
17.0
 42
0.111795
  0
VERTEX
  8
1
  5
10E
  6
CONTINUOUS
 62
7
 10
-6.783136
 20
82.076877
 30
17.0
 42
0.070072
  0
VERTEX
  8
1
  5
10F
  6
CONTINUOUS
 62
7
 10
-10.976868
 20
76.997897
 30
17.0
 42
0.044824
  0
VERTEX
  8
1
  5
110
  6
CONTINUOUS
 62
7
 10
-14.693071
 20
69.656845
 30
17.0
 42
0.044824
  0
SEQEND
  8
1
  5
111
  0
POLYLINE
  8
1
  5
113
  6
CONTINUOUS
 62
7
 10
0.0
 20
0.0
 30
32.0
 66
1
 70
0
  0
VERTEX
  8
1
  5
114
  6
CONTINUOUS
 62
7
 10
14.693068
 20
69.656853
 30
32.0
 42
0.044824
  0
VERTEX
  8
1
  5
115
  6
CONTINUOUS
 62
7
 10
10.976864
 20
76.997903
 30
32.0
 42
0.070072
  0
VERTEX
  8
1
  5
116
  6
CONTINUOUS
 62
7
 10
6.783132
 20
82.076881
 30
32.0
 42
0.111795
  0
VERTEX
  8
1
  5
117
  6
CONTINUOUS
 62
7
 10
2.294313
 20
84.672835
 30
32.0
 42
0.140179
  0
VERTEX
  8
1
  5
118
  6
CONTINUOUS
 62
7
 10
-2.294317
 20
84.672834
 30
32.0
 42
0.111795
  0
VERTEX
  8
1
  5
119
  6
CONTINUOUS
 62
7
 10
-6.783136
 20
82.076877
 30
32.0
 42
0.070072
  0
VERTEX
  8
1
  5
11A
  6
CONTINUOUS
 62
7
 10
-10.976868
 20
76.997897
 30
32.0
 42
0.044824
  0
VERTEX
  8
1
  5
11B
  6
CONTINUOUS
 62
7
 10
-14.693071
 20
69.656845
 30
32.0
 42
0.044824
  0
SEQEND
  8
1
  5
11C
  0
ENDBLK
  8
1
  5
11D
  0
BLOCK
  8
1
  5
11F
 70
1
 10
0.0
 20
0.0
 30
0.0
  2
*M1
  3
*M1
  0
LINE
  8
1
  5
121
  6
CONTINUOUS
 62
7
 10
-60.0
 20
25.0
 30
32.0
 11
-60.0
 21
25.0
 31
17.0
  0
LINE
  8
1
  5
123
  6
CONTINUOUS
 62
7
 10
-11.67105
 20
36.67105
 30
32.0
 11
-11.67105
 21
36.67105
 31
17.0
  0
ARC
  8
1
  5
125
  6
CONTINUOUS
 62
7
 10
-25.000011
 20
50.000007
 30
32.0
 40
18.85
 50
217.9141791012
 51
315.0000096567
  0
LINE
  8
1
  5
127
  6
CONTINUOUS
 62
7
 10
-39.87138
 20
38.41705
 30
32.0
 11
-39.87138
 21
38.41705
 31
17.0
  0
ARC
  8
1
  5
129
  6
CONTINUOUS
 62
7
 210
0.0
 220
0.0
 230
-1.0
 10
25.000011
 20
50.000007
 30
-17.0
 40
18.85
 50
224.9999903433
 51
322.0858208988
  0
LINE
  8
1
  5
12B
  6
CONTINUOUS
 62
7
 10
-11.67105
 20
36.67105
 30
17.0
 11
0.0
 21
25.0
 31
17.0
  0
POINT
  8
1
  5
12D
  6
CONTINUOUS
 62
7
 10
-39.87138
 20
38.41705
 30
17.0
 50
0.0
  0
ARC
  8
1
  5
12F
  6
CONTINUOUS
 62
7
 10
-43.106006
 20
35.897693
 30
17.0
 40
4.1
 50
37.9139897124
 51
112.2256341568
  0
POINT
  8
1
  5
131
  6
CONTINUOUS
 62
7
 10
-44.65685
 20
39.69307
 30
17.0
 50
0.0
  0
POLYLINE
  8
1
  5
133
  6
CONTINUOUS
 62
7
 10
0.0
 20
0.0
 30
17.0
 66
1
 70
0
  0
VERTEX
  8
1
  5
134
  6
CONTINUOUS
 62
7
 10
-44.656853
 20
39.693068
 30
17.0
 42
0.044824
  0
VERTEX
  8
1
  5
135
  6
CONTINUOUS
 62
7
 10
-51.997903
 20
35.976864
 30
17.0
 42
0.070072
  0
VERTEX
  8
1
  5
136
  6
CONTINUOUS
 62
7
 10
-57.076881
 20
31.783132
 30
17.0
 42
0.111795
  0
VERTEX
  8
1
  5
137
  6
CONTINUOUS
 62
7
 10
-59.672835
 20
27.294313
 30
17.0
 42
0.140179
  0
VERTEX
  8
1
  5
138
  6
CONTINUOUS
 62
7
 10
-59.672834
 20
22.705683
 30
17.0
 42
0.111795
  0
VERTEX
  8
1
  5
139
  6
CONTINUOUS
 62
7
 10
-57.076877
 20
18.216864
 30
17.0
 42
0.070072
  0
VERTEX
  8
1
  5
13A
  6
CONTINUOUS
 62
7
 10
-51.997897
 20
14.023132
 30
17.0
 42
0.044824
  0
VERTEX
  8
1
  5
13B
  6
CONTINUOUS
 62
7
 10
-44.656845
 20
10.306929
 30
17.0
 42
0.044824
  0
SEQEND
  8
1
  5
13C
  0
ARC
  8
1
  5
13E
  6
CONTINUOUS
 62
7
 10
-43.106006
 20
14.102307
 30
17.0
 40
4.1
 50
247.7744512957
 51
322.0858818513
  0
POINT
  8
1
  5
140
  6
CONTINUOUS
 62
7
 10
-39.87138
 20
11.58294
 30
17.0
 50
0.0
  0
ARC
  8
1
  5
142
  6
CONTINUOUS
 62
7
 210
0.0
 220
0.0
 230
-1.0
 10
25.000007
 20
-0.000011
 30
-17.0
 40
18.85
 50
37.9141569954
 51
134.9999903288
  0
LINE
  8
1
  5
144
  6
CONTINUOUS
 62
7
 10
0.0
 20
25.0
 30
17.0
 11
-11.67105
 21
13.32895
 31
17.0
  0
POINT
  8
1
  5
146
  6
CONTINUOUS
 62
7
 10
-39.87138
 20
38.41705
 30
32.0
 50
0.0
  0
LINE
  8
1
  5
148
  6
CONTINUOUS
 62
7
 10
-39.87138
 20
38.41705
 30
32.0
 11
-39.87138
 21
38.41705
 31
17.0
  0
ARC
  8
1
  5
14A
  6
CONTINUOUS
 62
7
 210
0.0
 220
0.0
 230
-1.0
 10
43.106006
 20
35.897693
 30
-32.0
 40
4.1
 50
67.7743658432
 51
142.0860102876
  0
LINE
  8
1
  5
14C
  6
CONTINUOUS
 62
7
 10
-44.65685
 20
39.69307
 30
32.0
 11
-44.65685
 21
39.69307
 31
17.0
  0
POINT
  8
1
  5
14E
  6
CONTINUOUS
 62
7
 10
-44.65685
 20
39.69307
 30
32.0
 50
0.0
  0
LINE
  8
1
  5
150
  6
CONTINUOUS
 62
7
 10
-44.65685
 20
39.69307
 30
32.0
 11
-44.65685
 21
39.69307
 31
17.0
  0
POLYLINE
  8
1
  5
152
  6
CONTINUOUS
 62
7
 210
0.0
 220
0.0
 230
-1.0
 10
0.0
 20
0.0
 30
-32.0
 66
1
 70
0
  0
VERTEX
  8
1
  5
153
  6
CONTINUOUS
 62
7
 10
44.656845
 20
10.306929
 30
-32.0
 42
0.044824
  0
VERTEX
  8
1
  5
154
  6
CONTINUOUS
 62
7
 10
51.997897
 20
14.023132
 30
-32.0
 42
0.070072
  0
VERTEX
  8
1
  5
155
  6
CONTINUOUS
 62
7
 10
57.076877
 20
18.216864
 30
-32.0
 42
0.111795
  0
VERTEX
  8
1
  5
156
  6
CONTINUOUS
 62
7
 10
59.672834
 20
22.705683
 30
-32.0
 42
0.140179
  0
VERTEX
  8
1
  5
157
  6
CONTINUOUS
 62
7
 10
59.672835
 20
27.294313
 30
-32.0
 42
0.111795
  0
VERTEX
  8
1
  5
158
  6
CONTINUOUS
 62
7
 10
57.076881
 20
31.783132
 30
-32.0
 42
0.070072
  0
VERTEX
  8
1
  5
159
  6
CONTINUOUS
 62
7
 10
51.997903
 20
35.976864
 30
-32.0
 42
0.044824
  0
VERTEX
  8
1
  5
15A
  6
CONTINUOUS
 62
7
 10
44.656853
 20
39.693068
 30
-32.0
 42
0.044824
  0
SEQEND
  8
1
  5
15B
  0
LINE
  8
1
  5
15D
  6
CONTINUOUS
 62
7
 10
-44.65685
 20
10.30693
 30
32.0
 11
-44.65685
 21
10.30693
 31
17.0
  0
ARC
  8
1
  5
15F
  6
CONTINUOUS
 62
7
 210
0.0
 220
0.0
 230
-1.0
 10
43.106006
 20
14.102307
 30
-32.0
 40
4.1
 50
217.9141181487
 51
292.2255487043
  0
LINE
  8
1
  5
161
  6
CONTINUOUS
 62
7
 10
-39.87138
 20
11.58294
 30
32.0
 11
-39.87138
 21
11.58294
 31
17.0
  0
POINT
  8
1
  5
163
  6
CONTINUOUS
 62
7
 10
-39.87138
 20
11.58294
 30
32.0
 50
0.0
  0
LINE
  8
1
  5
165
  6
CONTINUOUS
 62
7
 10
-39.87138
 20
11.58294
 30
32.0
 11
-39.87138
 21
11.58294
 31
17.0
  0
LINE
  8
1
  5
167
  6
CONTINUOUS
 62
7
 10
-11.67105
 20
13.32895
 30
17.0
 11
-11.67105
 21
13.32895
 31
32.0
  0
ARC
  8
1
  5
169
  6
CONTINUOUS
 62
7
 10
-25.000007
 20
-0.000011
 30
32.0
 40
18.85
 50
45.0000096712
 51
142.0858430046
  0
ENDBLK
  8
1
  5
16A
  0
BLOCK
  8
1
  5
16C
 70
1
 10
0.0
 20
0.0
 30
0.0
  2
*M2
  3
*M2
  0
LINE
  8
1
  5
16E
  6
CONTINUOUS
 62
7
 10
0.0
 20
25.0
 30
0.0
 11
0.0
 21
25.0
 31
17.0
  0
LINE
  8
1
  5
170
  6
CONTINUOUS
 62
7
 10
0.0
 20
25.0
 30
0.0
 11
-25.0
 21
50.0
 31
0.0
  0
LINE
  8
1
  5
172
  6
CONTINUOUS
 62
7
 10
-25.0
 20
50.0
 30
0.0
 11
-25.0
 21
50.0
 31
32.0
  0
LINE
  8
1
  5
174
  6
CONTINUOUS
 62
7
 10
-25.0
 20
50.0
 30
32.0
 11
-11.67105
 21
36.67105
 31
32.0
  0
LINE
  8
1
  5
176
  6
CONTINUOUS
 62
7
 10
-11.67105
 20
13.32895
 30
32.0
 11
-25.0
 21
0.0
 31
32.0
  0
LINE
  8
1
  5
178
  6
CONTINUOUS
 62
7
 10
-25.0
 20
0.0
 30
0.0
 11
-25.0
 21
0.0
 31
32.0
  0
LINE
  8
1
  5
17A
  6
CONTINUOUS
 62
7
 10
-25.0
 20
0.0
 30
0.0
 11
0.0
 21
25.0
 31
0.0
  0
LINE
  8
1
  5
17C
  6
CONTINUOUS
 62
7
 10
-25.0
 20
0.0
 30
32.0
 11
-190.0
 21
0.0
 31
32.0
  0
LINE
  8
1
  5
17E
  6
CONTINUOUS
 62
7
 10
-190.0
 20
0.0
 30
0.0
 11
-190.0
 21
0.0
 31
32.0
  0
LINE
  8
1
  5
180
  6
CONTINUOUS
 62
7
 10
-190.0
 20
0.0
 30
0.0
 11
-25.0
 21
0.0
 31
0.0
  0
LINE
  8
1
  5
182
  6
CONTINUOUS
 62
7
 10
-190.0
 20
0.0
 30
32.0
 11
-190.0
 21
50.0
 31
32.0
  0
LINE
  8
1
  5
184
  6
CONTINUOUS
 62
7
 10
-190.0
 20
50.0
 30
0.0
 11
-190.0
 21
50.0
 31
32.0
  0
LINE
  8
1
  5
186
  6
CONTINUOUS
 62
7
 10
-190.0
 20
50.0
 30
0.0
 11
-190.0
 21
0.0
 31
0.0
  0
LINE
  8
1
  5
188
  6
CONTINUOUS
 62
7
 10
-190.0
 20
50.0
 30
32.0
 11
-25.0
 21
50.0
 31
32.0
  0
LINE
  8
1
  5
18A
  6
CONTINUOUS
 62
7
 10
-25.0
 20
50.0
 30
0.0
 11
-190.0
 21
50.0
 31
0.0
  0
ENDBLK
  8
1
  5
18B
  0
BLOCK
  8
1
  5
18D
 70
1
 10
0.0
 20
0.0
 30
0.0
  2
*M3
  3
*M3
  0
INSERT
  8
1
  5
18F
  6
CONTINUOUS
 62
7
  2
*M1
 10
0.0
 20
0.0
 30
0.0
 41
1.0
 42
1.0
 43
1.0
 70
1
 71
1
  0
INSERT
  8
1
  5
191
  6
CONTINUOUS
 62
7
  2
*M2
 10
0.0
 20
0.0
 30
0.0
 41
1.0
 42
1.0
 43
1.0
 70
1
 71
1
  0
ENDBLK
  8
1
  5
192
  0
BLOCK
  8
1
  5
194
 70
1
 10
0.0
 20
0.0
 30
0.0
  2
*M4
  3
*M4
  0
LINE
  8
1
  5
196
  6
CONTINUOUS
 62
7
 10
0.0
 20
85.0
 30
32.0
 11
0.0
 21
85.0
 31
17.0
  0
LINE
  8
1
  5
198
  6
CONTINUOUS
 62
7
 10
-11.67105
 20
36.67105
 30
17.0
 11
-11.67105
 21
36.67105
 31
32.0
  0
ARC
  8
1
  5
19A
  6
CONTINUOUS
 62
7
 210
0.0
 220
0.0
 230
-1.0
 10
25.000011
 20
50.000007
 30
-17.0
 40
18.85
 50
127.9141570099
 51
224.9999903433
  0
LINE
  8
1
  5
19C
  6
CONTINUOUS
 62
7
 10
-13.41706
 20
64.87138
 30
32.0
 11
-13.41706
 21
64.87138
 31
17.0
  0
ARC
  8
1
  5
19E
  6
CONTINUOUS
 62
7
 10
-25.000011
 20
50.000007
 30
32.0
 40
18.85
 50
315.0000096567
 51
52.0858429901
  0
ARC
  8
1
  5
1A0
  6
CONTINUOUS
 62
7
 10
-10.897693
 20
68.106006
 30
17.0
 40
4.1
 50
157.7744512735
 51
232.0858818291
  0
LINE
  8
1
  5
1A2
  6
CONTINUOUS
 62
7
 10
-14.69307
 20
69.65685
 30
32.0
 11
-14.69307
 21
69.65685
 31
17.0
  0
ARC
  8
1
  5
1A4
  6
CONTINUOUS
 62
7
 210
0.0
 220
0.0
 230
-1.0
 10
10.897693
 20
68.106006
 30
-32.0
 40
4.1
 50
307.9141181709
 51
22.2255487265
  0
LINE
  8
1
  5
1A6
  6
CONTINUOUS
 62
7
 10
-13.41706
 20
64.87138
 30
32.0
 11
-13.41706
 21
64.87138
 31
17.0
  0
POINT
  8
1
  5
1A8
  6
CONTINUOUS
 62
7
 10
-13.41706
 20
64.87138
 30
17.0
 50
0.0
  0
POINT
  8
1
  5
1AA
  6
CONTINUOUS
 62
7
 10
-13.41706
 20
64.87138
 30
32.0
 50
0.0
  0
LINE
  8
1
  5
1AC
  6
CONTINUOUS
 62
7
 10
11.67105
 20
36.67105
 30
32.0
 11
11.67105
 21
36.67105
 31
17.0
  0
ARC
  8
1
  5
1AE
  6
CONTINUOUS
 62
7
 10
25.000007
 20
50.000011
 30
32.0
 40
18.85
 50
127.9141791157
 51
225.0000096712
  0
LINE
  8
1
  5
1B0
  6
CONTINUOUS
 62
7
 10
13.41705
 20
64.87138
 30
32.0
 11
13.41705
 21
64.87138
 31
17.0
  0
ARC
  8
1
  5
1B2
  6
CONTINUOUS
 62
7
 210
0.0
 220
0.0
 230
-1.0
 10
-25.000007
 20
50.000011
 30
-17.0
 40
18.85
 50
314.9999903288
 51
52.0858208843
  0
POINT
  8
1
  5
1B4
  6
CONTINUOUS
 62
7
 10
13.41705
 20
64.87138
 30
17.0
 50
0.0
  0
POINT
  8
1
  5
1B6
  6
CONTINUOUS
 62
7
 10
13.41705
 20
64.87138
 30
32.0
 50
0.0
  0
LINE
  8
1
  5
1B8
  6
CONTINUOUS
 62
7
 10
13.41705
 20
64.87138
 30
32.0
 11
13.41705
 21
64.87138
 31
17.0
  0
ARC
  8
1
  5
1BA
  6
CONTINUOUS
 62
7
 10
10.897693
 20
68.106006
 30
17.0
 40
4.1
 50
307.9139897045
 51
22.2256341489
  0
ARC
  8
1
  5
1BC
  6
CONTINUOUS
 62
7
 210
0.0
 220
0.0
 230
-1.0
 10
-10.897693
 20
68.106006
 30
-32.0
 40
4.1
 50
157.7743658511
 51
232.0860102955
  0
LINE
  8
1
  5
1BE
  6
CONTINUOUS
 62
7
 10
14.69307
 20
69.65685
 30
32.0
 11
14.69307
 21
69.65685
 31
17.0
  0
POINT
  8
1
  5
1C0
  6
CONTINUOUS
 62
7
 10
14.69307
 20
69.65685
 30
17.0
 50
0.0
  0
POINT
  8
1
  5
1C2
  6
CONTINUOUS
 62
7
 10
14.69307
 20
69.65685
 30
32.0
 50
0.0
  0
LINE
  8
1
  5
1C4
  6
CONTINUOUS
 62
7
 10
14.69307
 20
69.65685
 30
32.0
 11
14.69307
 21
69.65685
 31
17.0
  0
POLYLINE
  8
1
  5
1C6
  6
CONTINUOUS
 62
7
 10
0.0
 20
0.0
 30
17.0
 66
1
 70
0
  0
VERTEX
  8
1
  5
1C7
  6
CONTINUOUS
 62
7
 10
14.693068
 20
69.656853
 30
17.0
 42
0.044824
  0
VERTEX
  8
1
  5
1C8
  6
CONTINUOUS
 62
7
 10
10.976864
 20
76.997903
 30
17.0
 42
0.070072
  0
VERTEX
  8
1
  5
1C9
  6
CONTINUOUS
 62
7
 10
6.783132
 20
82.076881
 30
17.0
 42
0.111795
  0
VERTEX
  8
1
  5
1CA
  6
CONTINUOUS
 62
7
 10
2.294313
 20
84.672835
 30
17.0
 42
0.140179
  0
VERTEX
  8
1
  5
1CB
  6
CONTINUOUS
 62
7
 10
-2.294317
 20
84.672834
 30
17.0
 42
0.111795
  0
VERTEX
  8
1
  5
1CC
  6
CONTINUOUS
 62
7
 10
-6.783136
 20
82.076877
 30
17.0
 42
0.070072
  0
VERTEX
  8
1
  5
1CD
  6
CONTINUOUS
 62
7
 10
-10.976868
 20
76.997897
 30
17.0
 42
0.044824
  0
VERTEX
  8
1
  5
1CE
  6
CONTINUOUS
 62
7
 10
-14.693071
 20
69.656845
 30
17.0
 42
0.044824
  0
SEQEND
  8
1
  5
1CF
  0
POLYLINE
  8
1
  5
1D1
  6
CONTINUOUS
 62
7
 210
0.0
 220
0.0
 230
-1.0
 10
0.0
 20
0.0
 30
-32.0
 66
1
 70
0
  0
VERTEX
  8
1
  5
1D2
  6
CONTINUOUS
 62
7
 10
14.693071
 20
69.656845
 30
-32.0
 42
0.044824
  0
VERTEX
  8
1
  5
1D3
  6
CONTINUOUS
 62
7
 10
10.976868
 20
76.997897
 30
-32.0
 42
0.070072
  0
VERTEX
  8
1
  5
1D4
  6
CONTINUOUS
 62
7
 10
6.783136
 20
82.076877
 30
-32.0
 42
0.111795
  0
VERTEX
  8
1
  5
1D5
  6
CONTINUOUS
 62
7
 10
2.294317
 20
84.672834
 30
-32.0
 42
0.140179
  0
VERTEX
  8
1
  5
1D6
  6
CONTINUOUS
 62
7
 10
-2.294313
 20
84.672835
 30
-32.0
 42
0.111795
  0
VERTEX
  8
1
  5
1D7
  6
CONTINUOUS
 62
7
 10
-6.783132
 20
82.076881
 30
-32.0
 42
0.070072
  0
VERTEX
  8
1
  5
1D8
  6
CONTINUOUS
 62
7
 10
-10.976864
 20
76.997903
 30
-32.0
 42
0.044824
  0
VERTEX
  8
1
  5
1D9
  6
CONTINUOUS
 62
7
 10
-14.693068
 20
69.656853
 30
-32.0
 42
0.044824
  0
SEQEND
  8
1
  5
1DA
  0
LINE
  8
1
  5
1DC
  6
CONTINUOUS
 62
7
 10
0.0
 20
25.0
 30
17.0
 11
-11.67105
 21
36.67105
 31
17.0
  0
LINE
  8
1
  5
1DE
  6
CONTINUOUS
 62
7
 10
11.67105
 20
36.67105
 30
17.0
 11
0.0
 21
25.0
 31
17.0
  0
ENDBLK
  8
1
  5
1DF
  0
BLOCK
  8
1
  5
1E1
 70
1
 10
0.0
 20
0.0
 30
0.0
  2
*M5
  3
*M5
  0
LINE
  8
1
  5
1E3
  6
CONTINUOUS
 62
7
 10
25.0
 20
50.0
 30
32.0
 11
11.67105
 21
36.67105
 31
32.0
  0
LINE
  8
1
  5
1E5
  6
CONTINUOUS
 62
7
 10
25.0
 20
215.0
 30
32.0
 11
25.0
 21
50.0
 31
32.0
  0
LINE
  8
1
  5
1E7
  6
CONTINUOUS
 62
7
 10
-25.0
 20
215.0
 30
32.0
 11
25.0
 21
215.0
 31
32.0
  0
LINE
  8
1
  5
1E9
  6
CONTINUOUS
 62
7
 10
-25.0
 20
50.0
 30
32.0
 11
-25.0
 21
215.0
 31
32.0
  0
LINE
  8
1
  5
1EB
  6
CONTINUOUS
 62
7
 10
-11.67105
 20
36.67105
 30
32.0
 11
-25.0
 21
50.0
 31
32.0
  0
LINE
  8
1
  5
1ED
  6
CONTINUOUS
 62
7
 10
0.0
 20
25.0
 30
0.0
 11
0.0
 21
25.0
 31
17.0
  0
LINE
  8
1
  5
1EF
  6
CONTINUOUS
 62
7
 10
0.0
 20
25.0
 30
0.0
 11
25.0
 21
50.0
 31
0.0
  0
LINE
  8
1
  5
1F1
  6
CONTINUOUS
 62
7
 10
25.0
 20
50.0
 30
0.0
 11
25.0
 21
50.0
 31
32.0
  0
LINE
  8
1
  5
1F3
  6
CONTINUOUS
 62
7
 10
-25.0
 20
50.0
 30
0.0
 11
-25.0
 21
50.0
 31
32.0
  0
LINE
  8
1
  5
1F5
  6
CONTINUOUS
 62
7
 10
-25.0
 20
50.0
 30
0.0
 11
0.0
 21
25.0
 31
0.0
  0
LINE
  8
1
  5
1F7
  6
CONTINUOUS
 62
7
 10
-25.0
 20
215.0
 30
0.0
 11
-25.0
 21
215.0
 31
32.0
  0
LINE
  8
1
  5
1F9
  6
CONTINUOUS
 62
7
 10
-25.0
 20
215.0
 30
0.0
 11
-25.0
 21
50.0
 31
0.0
  0
LINE
  8
1
  5
1FB
  6
CONTINUOUS
 62
7
 10
25.0
 20
215.0
 30
0.0
 11
25.0
 21
215.0
 31
32.0
  0
LINE
  8
1
  5
1FD
  6
CONTINUOUS
 62
7
 10
25.0
 20
215.0
 30
0.0
 11
-25.0
 21
215.0
 31
0.0
  0
LINE
  8
1
  5
1FF
  6
CONTINUOUS
 62
7
 10
25.0
 20
50.0
 30
0.0
 11
25.0
 21
215.0
 31
0.0
  0
ENDBLK
  8
1
  5
200
  0
BLOCK
  8
1
  5
202
 70
1
 10
0.0
 20
0.0
 30
0.0
  2
*M6
  3
*M6
  0
INSERT
  8
1
  5
204
  6
CONTINUOUS
 62
7
  2
*M4
 10
0.0
 20
0.0
 30
0.0
 41
1.0
 42
1.0
 43
1.0
 70
1
 71
1
  0
INSERT
  8
1
  5
206
  6
CONTINUOUS
 62
7
  2
*M5
 10
0.0
 20
0.0
 30
0.0
 41
1.0
 42
1.0
 43
1.0
 70
1
 71
1
  0
ENDBLK
  8
1
  5
207
  0
BLOCK
  8
1
  5
209
 70
1
 10
0.0
 20
0.0
 30
0.0
  2
*M7
  3
*M7
  0
LINE
  8
1
  5
20B
  6
CONTINUOUS
 62
7
 10
60.0
 20
25.0
 30
32.0
 11
60.0
 21
25.0
 31
17.0
  0
LINE
  8
1
  5
20D
  6
CONTINUOUS
 62
7
 10
11.67105
 20
13.32895
 30
32.0
 11
11.67105
 21
13.32895
 31
17.0
  0
ARC
  8
1
  5
20F
  6
CONTINUOUS
 62
7
 10
25.000011
 20
-0.000007
 30
32.0
 40
18.85
 50
37.9141791012
 51
135.0000096567
  0
LINE
  8
1
  5
211
  6
CONTINUOUS
 62
7
 10
39.87138
 20
11.58295
 30
32.0
 11
39.87138
 21
11.58295
 31
17.0
  0
ARC
  8
1
  5
213
  6
CONTINUOUS
 62
7
 210
0.0
 220
0.0
 230
-1.0
 10
-25.000011
 20
-0.000007
 30
-17.0
 40
18.85
 50
44.9999903433
 51
142.0858208988
  0
LINE
  8
1
  5
215
  6
CONTINUOUS
 62
7
 10
11.67105
 20
13.32895
 30
17.0
 11
0.0
 21
25.0
 31
17.0
  0
POINT
  8
1
  5
217
  6
CONTINUOUS
 62
7
 10
39.87138
 20
11.58295
 30
17.0
 50
0.0
  0
ARC
  8
1
  5
219
  6
CONTINUOUS
 62
7
 10
43.106006
 20
14.102307
 30
17.0
 40
4.1
 50
217.9139897124
 51
292.2256341568
  0
POINT
  8
1
  5
21B
  6
CONTINUOUS
 62
7
 10
44.65685
 20
10.30693
 30
17.0
 50
0.0
  0
POLYLINE
  8
1
  5
21D
  6
CONTINUOUS
 62
7
 10
0.0
 20
0.0
 30
17.0
 66
1
 70
0
  0
VERTEX
  8
1
  5
21E
  6
CONTINUOUS
 62
7
 10
44.656853
 20
10.306932
 30
17.0
 42
0.044824
  0
VERTEX
  8
1
  5
21F
  6
CONTINUOUS
 62
7
 10
51.997903
 20
14.023136
 30
17.0
 42
0.070072
  0
VERTEX
  8
1
  5
220
  6
CONTINUOUS
 62
7
 10
57.076881
 20
18.216868
 30
17.0
 42
0.111795
  0
VERTEX
  8
1
  5
221
  6
CONTINUOUS
 62
7
 10
59.672835
 20
22.705687
 30
17.0
 42
0.140179
  0
VERTEX
  8
1
  5
222
  6
CONTINUOUS
 62
7
 10
59.672834
 20
27.294317
 30
17.0
 42
0.111795
  0
VERTEX
  8
1
  5
223
  6
CONTINUOUS
 62
7
 10
57.076877
 20
31.783136
 30
17.0
 42
0.070072
  0
VERTEX
  8
1
  5
224
  6
CONTINUOUS
 62
7
 10
51.997897
 20
35.976868
 30
17.0
 42
0.044824
  0
VERTEX
  8
1
  5
225
  6
CONTINUOUS
 62
7
 10
44.656845
 20
39.693071
 30
17.0
 42
0.044824
  0
SEQEND
  8
1
  5
226
  0
ARC
  8
1
  5
228
  6
CONTINUOUS
 62
7
 10
43.106006
 20
35.897693
 30
17.0
 40
4.1
 50
67.7744512957
 51
142.0858818513
  0
POINT
  8
1
  5
22A
  6
CONTINUOUS
 62
7
 10
39.87138
 20
38.41706
 30
17.0
 50
0.0
  0
ARC
  8
1
  5
22C
  6
CONTINUOUS
 62
7
 210
0.0
 220
0.0
 230
-1.0
 10
-25.000007
 20
50.000011
 30
-17.0
 40
18.85
 50
217.9141569954
 51
314.9999903288
  0
LINE
  8
1
  5
22E
  6
CONTINUOUS
 62
7
 10
0.0
 20
25.0
 30
17.0
 11
11.67105
 21
36.67105
 31
17.0
  0
POINT
  8
1
  5
230
  6
CONTINUOUS
 62
7
 10
39.87138
 20
11.58295
 30
32.0
 50
0.0
  0
LINE
  8
1
  5
232
  6
CONTINUOUS
 62
7
 10
39.87138
 20
11.58295
 30
32.0
 11
39.87138
 21
11.58295
 31
17.0
  0
ARC
  8
1
  5
234
  6
CONTINUOUS
 62
7
 210
0.0
 220
0.0
 230
-1.0
 10
-43.106006
 20
14.102307
 30
-32.0
 40
4.1
 50
247.7743658432
 51
322.0860102876
  0
LINE
  8
1
  5
236
  6
CONTINUOUS
 62
7
 10
44.65685
 20
10.30693
 30
32.0
 11
44.65685
 21
10.30693
 31
17.0
  0
POINT
  8
1
  5
238
  6
CONTINUOUS
 62
7
 10
44.65685
 20
10.30693
 30
32.0
 50
0.0
  0
LINE
  8
1
  5
23A
  6
CONTINUOUS
 62
7
 10
44.65685
 20
10.30693
 30
32.0
 11
44.65685
 21
10.30693
 31
17.0
  0
POLYLINE
  8
1
  5
23C
  6
CONTINUOUS
 62
7
 210
0.0
 220
0.0
 230
-1.0
 10
0.0
 20
0.0
 30
-32.0
 66
1
 70
0
  0
VERTEX
  8
1
  5
23D
  6
CONTINUOUS
 62
7
 10
-44.656845
 20
39.693071
 30
-32.0
 42
0.044824
  0
VERTEX
  8
1
  5
23E
  6
CONTINUOUS
 62
7
 10
-51.997897
 20
35.976868
 30
-32.0
 42
0.070072
  0
VERTEX
  8
1
  5
23F
  6
CONTINUOUS
 62
7
 10
-57.076877
 20
31.783136
 30
-32.0
 42
0.111795
  0
VERTEX
  8
1
  5
240
  6
CONTINUOUS
 62
7
 10
-59.672834
 20
27.294317
 30
-32.0
 42
0.140179
  0
VERTEX
  8
1
  5
241
  6
CONTINUOUS
 62
7
 10
-59.672835
 20
22.705687
 30
-32.0
 42
0.111795
  0
VERTEX
  8
1
  5
242
  6
CONTINUOUS
 62
7
 10
-57.076881
 20
18.216868
 30
-32.0
 42
0.070072
  0
VERTEX
  8
1
  5
243
  6
CONTINUOUS
 62
7
 10
-51.997903
 20
14.023136
 30
-32.0
 42
0.044824
  0
VERTEX
  8
1
  5
244
  6
CONTINUOUS
 62
7
 10
-44.656853
 20
10.306932
 30
-32.0
 42
0.044824
  0
SEQEND
  8
1
  5
245
  0
LINE
  8
1
  5
247
  6
CONTINUOUS
 62
7
 10
44.65685
 20
39.69307
 30
32.0
 11
44.65685
 21
39.69307
 31
17.0
  0
ARC
  8
1
  5
249
  6
CONTINUOUS
 62
7
 210
0.0
 220
0.0
 230
-1.0
 10
-43.106006
 20
35.897693
 30
-32.0
 40
4.1
 50
37.9141181487
 51
112.2255487043
  0
LINE
  8
1
  5
24B
  6
CONTINUOUS
 62
7
 10
39.87138
 20
38.41706
 30
32.0
 11
39.87138
 21
38.41706
 31
17.0
  0
POINT
  8
1
  5
24D
  6
CONTINUOUS
 62
7
 10
39.87138
 20
38.41706
 30
32.0
 50
0.0
  0
LINE
  8
1
  5
24F
  6
CONTINUOUS
 62
7
 10
39.87138
 20
38.41706
 30
32.0
 11
39.87138
 21
38.41706
 31
17.0
  0
LINE
  8
1
  5
251
  6
CONTINUOUS
 62
7
 10
11.67105
 20
36.67105
 30
17.0
 11
11.67105
 21
36.67105
 31
32.0
  0
ARC
  8
1
  5
253
  6
CONTINUOUS
 62
7
 10
25.000007
 20
50.000011
 30
32.0
 40
18.85
 50
225.0000096712
 51
322.0858430046
  0
ENDBLK
  8
1
  5
254
  0
BLOCK
  8
1
  5
256
 70
1
 10
0.0
 20
0.0
 30
0.0
  2
*M8
  3
*M8
  0
LINE
  8
1
  5
258
  6
CONTINUOUS
 62
7
 10
0.0
 20
25.0
 30
0.0
 11
0.0
 21
25.0
 31
17.0
  0
LINE
  8
1
  5
25A
  6
CONTINUOUS
 62
7
 10
0.0
 20
25.0
 30
0.0
 11
25.0
 21
0.0
 31
0.0
  0
LINE
  8
1
  5
25C
  6
CONTINUOUS
 62
7
 10
25.0
 20
0.0
 30
0.0
 11
25.0
 21
0.0
 31
32.0
  0
LINE
  8
1
  5
25E
  6
CONTINUOUS
 62
7
 10
25.0
 20
0.0
 30
32.0
 11
11.67105
 21
13.32895
 31
32.0
  0
LINE
  8
1
  5
260
  6
CONTINUOUS
 62
7
 10
11.67105
 20
36.67105
 30
32.0
 11
25.0
 21
50.0
 31
32.0
  0
LINE
  8
1
  5
262
  6
CONTINUOUS
 62
7
 10
25.0
 20
50.0
 30
0.0
 11
25.0
 21
50.0
 31
32.0
  0
LINE
  8
1
  5
264
  6
CONTINUOUS
 62
7
 10
25.0
 20
50.0
 30
0.0
 11
0.0
 21
25.0
 31
0.0
  0
LINE
  8
1
  5
266
  6
CONTINUOUS
 62
7
 10
25.0
 20
50.0
 30
32.0
 11
190.0
 21
50.0
 31
32.0
  0
LINE
  8
1
  5
268
  6
CONTINUOUS
 62
7
 10
190.0
 20
50.0
 30
0.0
 11
190.0
 21
50.0
 31
32.0
  0
LINE
  8
1
  5
26A
  6
CONTINUOUS
 62
7
 10
190.0
 20
50.0
 30
0.0
 11
25.0
 21
50.0
 31
0.0
  0
LINE
  8
1
  5
26C
  6
CONTINUOUS
 62
7
 10
190.0
 20
50.0
 30
32.0
 11
190.0
 21
0.0
 31
32.0
  0
LINE
  8
1
  5
26E
  6
CONTINUOUS
 62
7
 10
190.0
 20
0.0
 30
0.0
 11
190.0
 21
0.0
 31
32.0
  0
LINE
  8
1
  5
270
  6
CONTINUOUS
 62
7
 10
190.0
 20
0.0
 30
0.0
 11
190.0
 21
50.0
 31
0.0
  0
LINE
  8
1
  5
272
  6
CONTINUOUS
 62
7
 10
190.0
 20
0.0
 30
32.0
 11
25.0
 21
0.0
 31
32.0
  0
LINE
  8
1
  5
274
  6
CONTINUOUS
 62
7
 10
25.0
 20
0.0
 30
0.0
 11
190.0
 21
0.0
 31
0.0
  0
ENDBLK
  8
1
  5
275
  0
BLOCK
  8
1
  5
277
 70
1
 10
0.0
 20
0.0
 30
0.0
  2
*M9
  3
*M9
  0
INSERT
  8
1
  5
279
  6
CONTINUOUS
 62
7
  2
*M7
 10
0.0
 20
0.0
 30
0.0
 41
1.0
 42
1.0
 43
1.0
 70
1
 71
1
  0
INSERT
  8
1
  5
27B
  6
CONTINUOUS
 62
7
  2
*M8
 10
0.0
 20
0.0
 30
0.0
 41
1.0
 42
1.0
 43
1.0
 70
1
 71
1
  0
ENDBLK
  8
1
  5
27C
  0
BLOCK
  8
1
  5
27E
 70
1
 10
0.0
 20
0.0
 30
0.0
  2
*M10
  3
*M10
  0
LINE
  8
1
  5
280
  6
CONTINUOUS
 62
7
 10
0.0
 20
-35.0
 30
32.0
 11
0.0
 21
-35.0
 31
17.0
  0
LINE
  8
1
  5
282
  6
CONTINUOUS
 62
7
 10
-11.67105
 20
13.32895
 30
32.0
 11
-11.67105
 21
13.32895
 31
17.0
  0
ARC
  8
1
  5
284
  6
CONTINUOUS
 62
7
 10
-25.000007
 20
-0.000011
 30
32.0
 40
18.85
 50
307.9141791157
 51
45.0000096712
  0
LINE
  8
1
  5
286
  6
CONTINUOUS
 62
7
 10
-13.41705
 20
-14.87138
 30
32.0
 11
-13.41705
 21
-14.87138
 31
17.0
  0
ARC
  8
1
  5
288
  6
CONTINUOUS
 62
7
 210
0.0
 220
0.0
 230
-1.0
 10
25.000007
 20
-0.000011
 30
-17.0
 40
18.85
 50
134.9999903288
 51
232.0858208843
  0
LINE
  8
1
  5
28A
  6
CONTINUOUS
 62
7
 10
-11.67105
 20
13.32895
 30
17.0
 11
0.0
 21
25.0
 31
17.0
  0
POINT
  8
1
  5
28C
  6
CONTINUOUS
 62
7
 10
-13.41705
 20
-14.87138
 30
17.0
 50
0.0
  0
ARC
  8
1
  5
28E
  6
CONTINUOUS
 62
7
 10
-10.897693
 20
-18.106006
 30
17.0
 40
4.1
 50
127.9139897045
 51
202.2256341489
  0
POINT
  8
1
  5
290
  6
CONTINUOUS
 62
7
 10
-14.69307
 20
-19.65685
 30
17.0
 50
0.0
  0
POLYLINE
  8
1
  5
292
  6
CONTINUOUS
 62
7
 10
0.0
 20
0.0
 30
17.0
 66
1
 70
0
  0
VERTEX
  8
1
  5
293
  6
CONTINUOUS
 62
7
 10
-14.693068
 20
-19.656853
 30
17.0
 42
0.044824
  0
VERTEX
  8
1
  5
294
  6
CONTINUOUS
 62
7
 10
-10.976864
 20
-26.997903
 30
17.0
 42
0.070072
  0
VERTEX
  8
1
  5
295
  6
CONTINUOUS
 62
7
 10
-6.783132
 20
-32.076881
 30
17.0
 42
0.111795
  0
VERTEX
  8
1
  5
296
  6
CONTINUOUS
 62
7
 10
-2.294313
 20
-34.672835
 30
17.0
 42
0.140179
  0
VERTEX
  8
1
  5
297
  6
CONTINUOUS
 62
7
 10
2.294317
 20
-34.672834
 30
17.0
 42
0.111795
  0
VERTEX
  8
1
  5
298
  6
CONTINUOUS
 62
7
 10
6.783136
 20
-32.076877
 30
17.0
 42
0.070072
  0
VERTEX
  8
1
  5
299
  6
CONTINUOUS
 62
7
 10
10.976868
 20
-26.997897
 30
17.0
 42
0.044824
  0
VERTEX
  8
1
  5
29A
  6
CONTINUOUS
 62
7
 10
14.693071
 20
-19.656845
 30
17.0
 42
0.044824
  0
SEQEND
  8
1
  5
29B
  0
ARC
  8
1
  5
29D
  6
CONTINUOUS
 62
7
 10
10.897693
 20
-18.106006
 30
17.0
 40
4.1
 50
337.7744512735
 51
52.0858818291
  0
POINT
  8
1
  5
29F
  6
CONTINUOUS
 62
7
 10
13.41706
 20
-14.87138
 30
17.0
 50
0.0
  0
ARC
  8
1
  5
2A1
  6
CONTINUOUS
 62
7
 210
0.0
 220
0.0
 230
-1.0
 10
-25.000011
 20
-0.000007
 30
-17.0
 40
18.85
 50
307.9141570099
 51
44.9999903433
  0
LINE
  8
1
  5
2A3
  6
CONTINUOUS
 62
7
 10
0.0
 20
25.0
 30
17.0
 11
11.67105
 21
13.32895
 31
17.0
  0
POINT
  8
1
  5
2A5
  6
CONTINUOUS
 62
7
 10
-13.41705
 20
-14.87138
 30
32.0
 50
0.0
  0
LINE
  8
1
  5
2A7
  6
CONTINUOUS
 62
7
 10
-13.41705
 20
-14.87138
 30
32.0
 11
-13.41705
 21
-14.87138
 31
17.0
  0
ARC
  8
1
  5
2A9
  6
CONTINUOUS
 62
7
 210
0.0
 220
0.0
 230
-1.0
 10
10.897693
 20
-18.106006
 30
-32.0
 40
4.1
 50
337.7743658511
 51
52.0860102955
  0
LINE
  8
1
  5
2AB
  6
CONTINUOUS
 62
7
 10
-14.69307
 20
-19.65685
 30
32.0
 11
-14.69307
 21
-19.65685
 31
17.0
  0
POINT
  8
1
  5
2AD
  6
CONTINUOUS
 62
7
 10
-14.69307
 20
-19.65685
 30
32.0
 50
0.0
  0
LINE
  8
1
  5
2AF
  6
CONTINUOUS
 62
7
 10
-14.69307
 20
-19.65685
 30
32.0
 11
-14.69307
 21
-19.65685
 31
17.0
  0
POLYLINE
  8
1
  5
2B1
  6
CONTINUOUS
 62
7
 210
0.0
 220
0.0
 230
-1.0
 10
0.0
 20
0.0
 30
-32.0
 66
1
 70
0
  0
VERTEX
  8
1
  5
2B2
  6
CONTINUOUS
 62
7
 10
-14.693071
 20
-19.656845
 30
-32.0
 42
0.044824
  0
VERTEX
  8
1
  5
2B3
  6
CONTINUOUS
 62
7
 10
-10.976868
 20
-26.997897
 30
-32.0
 42
0.070072
  0
VERTEX
  8
1
  5
2B4
  6
CONTINUOUS
 62
7
 10
-6.783136
 20
-32.076877
 30
-32.0
 42
0.111795
  0
VERTEX
  8
1
  5
2B5
  6
CONTINUOUS
 62
7
 10
-2.294317
 20
-34.672834
 30
-32.0
 42
0.140179
  0
VERTEX
  8
1
  5
2B6
  6
CONTINUOUS
 62
7
 10
2.294313
 20
-34.672835
 30
-32.0
 42
0.111795
  0
VERTEX
  8
1
  5
2B7
  6
CONTINUOUS
 62
7
 10
6.783132
 20
-32.076881
 30
-32.0
 42
0.070072
  0
VERTEX
  8
1
  5
2B8
  6
CONTINUOUS
 62
7
 10
10.976864
 20
-26.997903
 30
-32.0
 42
0.044824
  0
VERTEX
  8
1
  5
2B9
  6
CONTINUOUS
 62
7
 10
14.693068
 20
-19.656853
 30
-32.0
 42
0.044824
  0
SEQEND
  8
1
  5
2BA
  0
LINE
  8
1
  5
2BC
  6
CONTINUOUS
 62
7
 10
14.69307
 20
-19.65685
 30
32.0
 11
14.69307
 21
-19.65685
 31
17.0
  0
ARC
  8
1
  5
2BE
  6
CONTINUOUS
 62
7
 210
0.0
 220
0.0
 230
-1.0
 10
-10.897693
 20
-18.106006
 30
-32.0
 40
4.1
 50
127.9141181709
 51
202.2255487265
  0
LINE
  8
1
  5
2C0
  6
CONTINUOUS
 62
7
 10
13.41706
 20
-14.87138
 30
32.0
 11
13.41706
 21
-14.87138
 31
17.0
  0
POINT
  8
1
  5
2C2
  6
CONTINUOUS
 62
7
 10
13.41706
 20
-14.87138
 30
32.0
 50
0.0
  0
LINE
  8
1
  5
2C4
  6
CONTINUOUS
 62
7
 10
13.41706
 20
-14.87138
 30
32.0
 11
13.41706
 21
-14.87138
 31
17.0
  0
LINE
  8
1
  5
2C6
  6
CONTINUOUS
 62
7
 10
11.67105
 20
13.32895
 30
17.0
 11
11.67105
 21
13.32895
 31
32.0
  0
ARC
  8
1
  5
2C8
  6
CONTINUOUS
 62
7
 10
25.000011
 20
-0.000007
 30
32.0
 40
18.85
 50
135.0000096567
 51
232.0858429901
  0
ENDBLK
  8
1
  5
2C9
  0
BLOCK
  8
1
  5
2CB
 70
1
 10
0.0
 20
0.0
 30
0.0
  2
*M11
  3
*M11
  0
LINE
  8
1
  5
2CD
  6
CONTINUOUS
 62
7
 10
0.0
 20
25.0
 30
0.0
 11
0.0
 21
25.0
 31
17.0
  0
LINE
  8
1
  5
2CF
  6
CONTINUOUS
 62
7
 10
0.0
 20
25.0
 30
0.0
 11
-25.0
 21
0.0
 31
0.0
  0
LINE
  8
1
  5
2D1
  6
CONTINUOUS
 62
7
 10
-25.0
 20
0.0
 30
0.0
 11
-25.0
 21
0.0
 31
32.0
  0
LINE
  8
1
  5
2D3
  6
CONTINUOUS
 62
7
 10
-25.0
 20
0.0
 30
32.0
 11
-11.67105
 21
13.32895
 31
32.0
  0
LINE
  8
1
  5
2D5
  6
CONTINUOUS
 62
7
 10
11.67105
 20
13.32895
 30
32.0
 11
25.0
 21
0.0
 31
32.0
  0
LINE
  8
1
  5
2D7
  6
CONTINUOUS
 62
7
 10
25.0
 20
0.0
 30
0.0
 11
25.0
 21
0.0
 31
32.0
  0
LINE
  8
1
  5
2D9
  6
CONTINUOUS
 62
7
 10
25.0
 20
0.0
 30
0.0
 11
0.0
 21
25.0
 31
0.0
  0
LINE
  8
1
  5
2DB
  6
CONTINUOUS
 62
7
 10
25.0
 20
0.0
 30
32.0
 11
25.0
 21
-165.0
 31
32.0
  0
LINE
  8
1
  5
2DD
  6
CONTINUOUS
 62
7
 10
25.0
 20
-165.0
 30
0.0
 11
25.0
 21
-165.0
 31
32.0
  0
LINE
  8
1
  5
2DF
  6
CONTINUOUS
 62
7
 10
25.0
 20
-165.0
 30
0.0
 11
25.0
 21
0.0
 31
0.0
  0
LINE
  8
1
  5
2E1
  6
CONTINUOUS
 62
7
 10
25.0
 20
-165.0
 30
32.0
 11
-25.0
 21
-165.0
 31
32.0
  0
LINE
  8
1
  5
2E3
  6
CONTINUOUS
 62
7
 10
-25.0
 20
-165.0
 30
0.0
 11
-25.0
 21
-165.0
 31
32.0
  0
LINE
  8
1
  5
2E5
  6
CONTINUOUS
 62
7
 10
-25.0
 20
-165.0
 30
0.0
 11
25.0
 21
-165.0
 31
0.0
  0
LINE
  8
1
  5
2E7
  6
CONTINUOUS
 62
7
 10
-25.0
 20
-165.0
 30
32.0
 11
-25.0
 21
0.0
 31
32.0
  0
LINE
  8
1
  5
2E9
  6
CONTINUOUS
 62
7
 10
-25.0
 20
0.0
 30
0.0
 11
-25.0
 21
-165.0
 31
0.0
  0
ENDBLK
  8
1
  5
2EA
  0
BLOCK
  8
1
  5
2EC
 70
1
 10
0.0
 20
0.0
 30
0.0
  2
*M12
  3
*M12
  0
INSERT
  8
1
  5
2EE
  6
CONTINUOUS
 62
7
  2
*M10
 10
0.0
 20
0.0
 30
0.0
 41
1.0
 42
1.0
 43
1.0
 70
1
 71
1
  0
INSERT
  8
1
  5
2F0
  6
CONTINUOUS
 62
7
  2
*M11
 10
0.0
 20
0.0
 30
0.0
 41
1.0
 42
1.0
 43
1.0
 70
1
 71
1
  0
ENDBLK
  8
1
  5
2F1
  0
ENDSEC
  0
SECTION
  2
ENTITIES
  0
INSERT
  8
1
  5
2
  6
CONTINUOUS
 62
7
  2
*M0
 10
0.0
 20
0.0
 30
-17.0
 41
1.0
 42
1.0
 43
1.0
 70
1
 71
1
  0
INSERT
  8
1
  5
4
  6
CONTINUOUS
 62
7
  2
*M3
 10
-80.0
 20
0.0
 30
0.0
 41
1.0
 42
1.0
 43
1.0
 70
1
 71
1
  0
INSERT
  8
1
  5
6
  6
CONTINUOUS
 62
7
  2
*M6
 10
0.0
 20
80.0
 30
0.0
 41
1.0
 42
1.0
 43
1.0
 70
1
 71
1
  0
INSERT
  8
1
  5
8
  6
CONTINUOUS
 62
7
  2
*M9
 10
80.0
 20
0.0
 30
0.0
 41
1.0
 42
1.0
 43
1.0
 70
1
 71
1
  0
INSERT
  8
1
  5
A
  6
CONTINUOUS
 62
7
  2
*M12
 10
0.0
 20
-80.0
 30
0.0
 41
1.0
 42
1.0
 43
1.0
 70
1
 71
1
  0
ENDSEC
  0
EOF
