  0
SECTION
  2
HEADER
  9
$ACADVER
  1
AC1009
  9
$INSBASE
 10
0.0
 20
0.0
 30
0.0
  9
$EXTMAX
 10
557.54693
 20
19.42128
 30
15.0
  9
$EXTMIN
 10
-222.45307
 20
-345.57872
 30
0.0
  9
$LIMMAX
 10
12.0
 20
9.0
  9
$LIMMIN
 10
0.0
 20
0.0
  9
$ORTHOMODE
 70
0
  9
$REGENMODE
 70
1
  9
$FILLMODE
 70
1
  9
$QTEXTMODE
 70
0
  9
$MIRRTEXT
 70
1
  9
$DRAGMODE
 70
2
  9
$LTSCALE
 40
1.0
  9
$OSMODE
 70
0
  9
$ATTMODE
 70
1
  9
$TEXTSIZE
 40
0.2
  9
$TRACEWID
 40
0.05
  9
$TEXTSTYLE
  7
STANDARD
  9
$CLAYER
  8
0
  9
$CELTYPE
  6
CONTINUOUS
  9
$CECOLOR
 62
256
  9
$DIMSCALE
 40
1.0
  9
$DIMASZ
 40
0.18
  9
$DIMEXO
 40
0.0625
  9
$DIMDLI
 40
0.38
  9
$DIMRND
 40
0.0
  9
$DIMDLE
 40
0.0
  9
$DIMEXE
 40
0.18
  9
$DIMTP
 40
0.0
  9
$DIMTM
 40
0.0
  9
$DIMTXT
 40
0.18
  9
$DIMCEN
 40
0.09
  9
$DIMTSZ
 40
0.0
  9
$DIMTOL
 70
0
  9
$DIMLIM
 70
0
  9
$DIMTIH
 70
1
  9
$DIMTOH
 70
1
  9
$DIMSE1
 70
0
  9
$DIMSE2
 70
0
  9
$DIMTAD
 70
0
  9
$DIMZIN
 70
0
  9
$DIMBLK
  1

  9
$DIMASO
 70
1
  9
$DIMSHO
 70
1
  9
$DIMPOST
  1

  9
$DIMAPOST
  1

  9
$DIMALT
 70
0
  9
$DIMALTD
 70
2
  9
$DIMALTF
 40
25.4
  9
$DIMLFAC
 40
1.0
  9
$DIMTOFL
 70
0
  9
$DIMTVP
 40
0.0
  9
$DIMTIX
 70
0
  9
$DIMSOXD
 70
0
  9
$DIMSAH
 70
0
  9
$DIMBLK1
  1

  9
$DIMBLK2
  1

  9
$DIMSTYLE
  2
*UNNAMED
  9
$DIMCLRD
 70
0
  9
$DIMCLRE
 70
0
  9
$DIMCLRT
 70
0
  9
$DIMTFAC
 40
1.0
  9
$DIMGAP
 40
0.09
  9
$LUNITS
 70
2
  9
$LUPREC
 70
4
  9
$AXISMODE
 70
0
  9
$AXISUNIT
 10
0.0
 20
0.0
  9
$SKETCHINC
 40
0.1
  9
$FILLETRAD
 40
0.0
  9
$AUNITS
 70
0
  9
$AUPREC
 70
0
  9
$MENU
  1
acad
  9
$ELEVATION
 40
0.0
  9
$PELEVATION
 40
0.0
  9
$THICKNESS
 40
0.0
  9
$LIMCHECK
 70
0
  9
$BLIPMODE
 70
1
  9
$CHAMFERA
 40
0.0
  9
$CHAMFERB
 40
0.0
  9
$SKPOLY
 70
0
  9
$TDCREATE
 40
0.0
  9
$TDUPDATE
 40
0.0
  9
$TDINDWG
 40
0.0
  9
$TDUSRTIMER
 40
0.0
  9
$USRTIMER
 70
1
  9
$ANGBASE
 50
0.0
  9
$ANGDIR
 70
0
  9
$PDMODE
 70
0
  9
$PDSIZE
 40
0.0
  9
$PLINEWID
 40
0.0
  9
$COORDS
 70
0
  9
$SPLFRAME
 70
0
  9
$SPLINETYPE
 70
6
  9
$SPLINESEGS
 70
10
  9
$ATTDIA
 70
0
  9
$ATTREQ
 70
1
  9
$HANDLING
 70
1
  9
$HANDSEED
  5
710
  9
$SURFTAB1
 70
6
  9
$SURFTAB2
 70
6
  9
$SURFTYPE
 70
6
  9
$SURFU
 70
10
  9
$SURFV
 70
10
  9
$UCSNAME
  2

  9
$UCSORG
 10
0.0
 20
0.0
 30
0.0
  9
$UCSXDIR
 10
1.0
 20
0.0
 30
0.0
  9
$UCSYDIR
 10
0.0
 20
1.0
 30
0.0
  9
$PUCSNAME
  2
 
  9
$PUCSORG
 10
0.0
 20
0.0
 30
0.0
  9
$PUCSXDIR
 10
1.0
 20
0.0
 30
0.0
  9
$PUCSYDIR
 10
0.0
 20
1.0
 30
0.0
  9
$USERI1
 70
0
  9
$USERI2
 70
0
  9
$USERI3
 70
0
  9
$USERI4
 70
0
  9
$USERI5
 70
0
  9
$USERR1
 40
0.0
  9
$USERR2
 40
0.0
  9
$USERR3
 40
0.0
  9
$USERR4
 40
0.0
  9
$USERR5
 40
0.0
  9
$WORLDVIEW
 70
1
  9
$SHADEDGE
 70
3
  9
$SHADEDIF
 70
70
  9
$TILEMODE
 70
1
  9
$MAXACTVP
 70
16
  9
$PINSBASE
 10
0.0
 20
0.0
 30
0.0
  9
$PLIMCHECK
 70
0
  9
$PEXTMIN
 10
-1.000000E+020
 20
-1.000000E+020
 30
-1.000000E+020
  9
$PEXTMAX
 10
-1.000000E+020
 20
-1.000000E+020
 30
-1.000000E+020
  9
$PLIMMIN
 10
0.0
 20
0.0
  9
$PLIMMAX
 10
12.0
 20
9.0
  9
$UNITMODE
 70
0
  9
$VISRETAIN
 70
0
  0
ENDSEC
  0
SECTION
  2
TABLES
  0
TABLE
  2
LTYPE
 70
7
  0
LTYPE
  2
CONTINUOUS
 70
64
  3
Solid line
 72
65
 73
0
 40
0.0
  0
LTYPE
  2
DOT
 70
64
  3
. . . . . . . . . . . . . . . . . . . . . . . . . . . . . . . . .
 72
65
 73
2
 40
0.25
 49
0.0
 49
-0.25
  0
LTYPE
  2
HIDDEN
 70
64
  3
__ __ __ __ __ __ __ __ __ __ __ __ __ __ __ __ __ __ __ __ __ 
 72
65
 73
2
 40
0.375
 49
0.25
 49
-0.125
  0
LTYPE
  2
DASHED
 70
64
  3
__ __ __ __ __ __ __ __ __ __ __ __ __ __ __ __ __ __ __ __ __
 72
65
 73
2
 40
0.75
 49
0.5
 49
-0.25
  0
LTYPE
  2
DASHDOT
 70
64
  3
__ . __ . __ . __ . __ . __ . __ . __ . __ . __ . __ . __ . _
 72
65
 73
4
 40
1.0
 49
0.5
 49
-0.25
 49
0.0
 49
-0.25
  0
LTYPE
  2
DIVIDE
 70
64
  3
____ . . ____ . . ____ . . ____ . . ____ . . ____ . . ____ . .
 72
65
 73
6
 40
1.25
 49
0.5
 49
-0.25
 49
0.0
 49
-0.25
 49
0.0
 49
-0.25
  0
LTYPE
  2
CENTER
 70
64
  3
____ _ ____ _ ____ _ ____ _ ____ _ ____ _ ____ _ ____ _ ____ _
 72
65
 73
4
 40
2.0
 49
1.25
 49
-0.25
 49
0.25
 49
-0.25
  0
ENDTAB
  0
TABLE
  2
APPID
 70
1
  0
APPID
  2
ACAD
 70
0
  0
ENDTAB
  0
TABLE
  2
DIMSTYLE
 70
0
  0
ENDTAB
  0
TABLE
  2
LAYER
 70
4
  0
LAYER
  2
0
 70
0
 62
7
  6
CONTINUOUS
  0
LAYER
  2
CONSTRUCTION_CLASS
 70
0
 62
7
  6
CONTINUOUS
  0
LAYER
  2
PATTERN_CLASS
 70
0
 62
7
  6
CONTINUOUS
  0
LAYER
  2
1
 70
0
 62
7
  6
CONTINUOUS
  0
ENDTAB
  0
TABLE
  2
STYLE
 70
1
  0
STYLE
  2
STANDARD
 70
0
 40
0.2
 41
1.0
 50
0.0
 71
0
 42
0.0
  3
txt
  4

  0
ENDTAB
  0
TABLE
  2
UCS
 70
0
  0
ENDTAB
  0
TABLE
  2
VIEW
 70
0
  0
ENDTAB
  0
TABLE
  2
VPORT
 70
1
  0
VPORT
  2
*ACTIVE
 70
0
 10
0.0
 20
0.0
 11
1.0
 21
1.0
 12
0.0
 22
0.0
 13
0.0
 23
0.0
 14
0.0
 24
0.0
 15
0.0
 25
0.0
 16
0.0
 26
-2.390915E-015
 36
39.0479
 17
122.181012
 27
-163.078715
 37
7.5
 40
542.97195
 41
1.390805
 42
50.0
 43
19.52395
 44
-19.52395
 50
0.0
 51
0.0
 71
22
 72
100
 73
1
 74
0
 75
0
 76
0
 77
0
 78
0
  0
ENDTAB
  0
ENDSEC
  0
SECTION
  2
BLOCKS
  0
BLOCK
  8
1
  5
E
 70
1
 10
0.0
 20
0.0
 30
0.0
  2
*M0
  3
*M0
  0
LINE
  8
1
  5
10
  6
CONTINUOUS
 62
7
 10
64.1
 20
15.0
 30
0.0
 11
64.1
 21
15.0
 31
15.0
  0
LINE
  8
1
  5
12
  6
CONTINUOUS
 62
7
 10
60.0
 20
19.1
 30
0.0
 11
60.0
 21
19.1
 31
15.0
  0
LINE
  8
1
  5
14
  6
CONTINUOUS
 62
7
 10
45.0
 20
19.1
 30
0.0
 11
45.0
 21
19.1
 31
15.0
  0
LINE
  8
1
  5
16
  6
CONTINUOUS
 62
7
 10
40.9
 20
15.0
 30
0.0
 11
40.9
 21
15.0
 31
15.0
  0
LINE
  8
1
  5
18
  6
CONTINUOUS
 62
7
 10
34.1
 20
15.0
 30
0.0
 11
34.1
 21
15.0
 31
15.0
  0
LINE
  8
1
  5
1A
  6
CONTINUOUS
 62
7
 10
30.0
 20
19.1
 30
0.0
 11
30.0
 21
19.1
 31
15.0
  0
LINE
  8
1
  5
1C
  6
CONTINUOUS
 62
7
 10
19.1
 20
30.0
 30
0.0
 11
19.1
 21
30.0
 31
15.0
  0
LINE
  8
1
  5
1E
  6
CONTINUOUS
 62
7
 10
15.0
 20
25.9
 30
0.0
 11
15.0
 21
25.9
 31
15.0
  0
LINE
  8
1
  5
20
  6
CONTINUOUS
 62
7
 10
19.1
 20
45.0
 30
0.0
 11
19.1
 21
45.0
 31
15.0
  0
LINE
  8
1
  5
22
  6
CONTINUOUS
 62
7
 10
15.0
 20
49.1
 30
0.0
 11
15.0
 21
49.1
 31
15.0
  0
LINE
  8
1
  5
24
  6
CONTINUOUS
 62
7
 10
34.1
 20
60.0
 30
0.0
 11
34.1
 21
60.0
 31
15.0
  0
LINE
  8
1
  5
26
  6
CONTINUOUS
 62
7
 10
30.0
 20
55.9
 30
0.0
 11
30.0
 21
55.9
 31
15.0
  0
LINE
  8
1
  5
28
  6
CONTINUOUS
 62
7
 10
40.9
 20
60.0
 30
0.0
 11
40.9
 21
60.0
 31
15.0
  0
LINE
  8
1
  5
2A
  6
CONTINUOUS
 62
7
 10
45.0
 20
55.9
 30
0.0
 11
45.0
 21
55.9
 31
15.0
  0
LINE
  8
1
  5
2C
  6
CONTINUOUS
 62
7
 10
64.1
 20
60.0
 30
0.0
 11
64.1
 21
60.0
 31
15.0
  0
LINE
  8
1
  5
2E
  6
CONTINUOUS
 62
7
 10
60.0
 20
55.9
 30
0.0
 11
60.0
 21
55.9
 31
15.0
  0
LINE
  8
1
  5
30
  6
CONTINUOUS
 62
7
 10
60.0
 20
49.1
 30
0.0
 11
60.0
 21
49.1
 31
15.0
  0
LINE
  8
1
  5
32
  6
CONTINUOUS
 62
7
 10
55.9
 20
45.0
 30
0.0
 11
55.9
 21
45.0
 31
15.0
  0
LINE
  8
1
  5
34
  6
CONTINUOUS
 62
7
 10
55.9
 20
30.0
 30
0.0
 11
55.9
 21
30.0
 31
15.0
  0
LINE
  8
1
  5
36
  6
CONTINUOUS
 62
7
 10
60.0
 20
25.9
 30
0.0
 11
60.0
 21
25.9
 31
15.0
  0
LINE
  8
1
  5
38
  6
CONTINUOUS
 62
7
 10
60.0
 20
0.0
 30
15.0
 11
60.0
 21
9.20172
 31
15.0
  0
LINE
  8
1
  5
3A
  6
CONTINUOUS
 62
7
 10
60.0
 20
9.20172
 30
0.0
 11
60.0
 21
9.20172
 31
15.0
  0
LINE
  8
1
  5
3C
  6
CONTINUOUS
 62
7
 10
60.0
 20
9.20172
 30
0.0
 11
60.0
 21
0.0
 31
0.0
  0
LINE
  8
1
  5
3E
  6
CONTINUOUS
 62
7
 10
60.0
 20
0.0
 30
0.0
 11
60.0
 21
0.0
 31
15.0
  0
LINE
  8
1
  5
40
  6
CONTINUOUS
 62
7
 10
60.0
 20
9.20172
 30
15.0
 11
62.89914
 21
12.10086
 31
15.0
  0
LINE
  8
1
  5
42
  6
CONTINUOUS
 62
7
 10
62.89914
 20
12.10086
 30
0.0
 11
62.89914
 21
12.10086
 31
15.0
  0
LINE
  8
1
  5
44
  6
CONTINUOUS
 62
7
 10
62.89914
 20
12.10086
 30
0.0
 11
60.0
 21
9.20172
 31
0.0
  0
ARC
  8
1
  5
46
  6
CONTINUOUS
 62
7
 10
60.0
 20
15.0
 30
15.0
 40
4.1
 50
315.0000444444
 51
134.9999583333
  0
LINE
  8
1
  5
48
  6
CONTINUOUS
 62
7
 10
57.10086
 20
17.89914
 30
0.0
 11
57.10086
 21
17.89914
 31
15.0
  0
ARC
  8
1
  5
4A
  6
CONTINUOUS
 62
7
 210
0.0
 220
0.0
 230
-1.0
 10
-60.0
 20
15.0
 30
0.0
 40
4.1
 50
45.0000444444
 51
224.9999583333
  0
LINE
  8
1
  5
4C
  6
CONTINUOUS
 62
7
 10
57.10086
 20
17.89914
 30
15.0
 11
54.20172
 21
15.0
 31
15.0
  0
LINE
  8
1
  5
4E
  6
CONTINUOUS
 62
7
 10
54.20172
 20
15.0
 30
0.0
 11
54.20172
 21
15.0
 31
15.0
  0
LINE
  8
1
  5
50
  6
CONTINUOUS
 62
7
 10
54.20172
 20
15.0
 30
0.0
 11
57.10086
 21
17.89914
 31
0.0
  0
LINE
  8
1
  5
52
  6
CONTINUOUS
 62
7
 10
54.20172
 20
15.0
 30
15.0
 11
50.79828
 21
15.0
 31
15.0
  0
LINE
  8
1
  5
54
  6
CONTINUOUS
 62
7
 10
50.79828
 20
15.0
 30
0.0
 11
50.79828
 21
15.0
 31
15.0
  0
LINE
  8
1
  5
56
  6
CONTINUOUS
 62
7
 10
50.79828
 20
15.0
 30
0.0
 11
54.20172
 21
15.0
 31
0.0
  0
LINE
  8
1
  5
58
  6
CONTINUOUS
 62
7
 10
50.79828
 20
15.0
 30
15.0
 11
47.89914
 21
17.89914
 31
15.0
  0
LINE
  8
1
  5
5A
  6
CONTINUOUS
 62
7
 10
47.89914
 20
17.89914
 30
0.0
 11
47.89914
 21
17.89914
 31
15.0
  0
LINE
  8
1
  5
5C
  6
CONTINUOUS
 62
7
 10
47.89914
 20
17.89914
 30
0.0
 11
50.79828
 21
15.0
 31
0.0
  0
ARC
  8
1
  5
5E
  6
CONTINUOUS
 62
7
 10
45.0
 20
15.0
 30
15.0
 40
4.1
 50
45.0000444444
 51
224.9999583333
  0
LINE
  8
1
  5
60
  6
CONTINUOUS
 62
7
 10
42.10086
 20
12.10086
 30
0.0
 11
42.10086
 21
12.10086
 31
15.0
  0
ARC
  8
1
  5
62
  6
CONTINUOUS
 62
7
 210
0.0
 220
0.0
 230
-1.0
 10
-45.0
 20
15.0
 30
0.0
 40
4.1
 50
315.0000444444
 51
134.9999583333
  0
LINE
  8
1
  5
64
  6
CONTINUOUS
 62
7
 10
42.10086
 20
12.10086
 30
15.0
 11
45.0
 21
9.20172
 31
15.0
  0
LINE
  8
1
  5
66
  6
CONTINUOUS
 62
7
 10
45.0
 20
9.20172
 30
0.0
 11
45.0
 21
9.20172
 31
15.0
  0
LINE
  8
1
  5
68
  6
CONTINUOUS
 62
7
 10
45.0
 20
9.20172
 30
0.0
 11
42.10086
 21
12.10086
 31
0.0
  0
LINE
  8
1
  5
6A
  6
CONTINUOUS
 62
7
 10
45.0
 20
9.20172
 30
15.0
 11
45.0
 21
0.0
 31
15.0
  0
LINE
  8
1
  5
6C
  6
CONTINUOUS
 62
7
 10
45.0
 20
0.0
 30
0.0
 11
45.0
 21
0.0
 31
15.0
  0
LINE
  8
1
  5
6E
  6
CONTINUOUS
 62
7
 10
45.0
 20
0.0
 30
0.0
 11
45.0
 21
9.20172
 31
0.0
  0
LINE
  8
1
  5
70
  6
CONTINUOUS
 62
7
 10
45.0
 20
0.0
 30
15.0
 11
30.0
 21
0.0
 31
15.0
  0
LINE
  8
1
  5
72
  6
CONTINUOUS
 62
7
 10
30.0
 20
0.0
 30
0.0
 11
30.0
 21
0.0
 31
15.0
  0
LINE
  8
1
  5
74
  6
CONTINUOUS
 62
7
 10
30.0
 20
0.0
 30
0.0
 11
45.0
 21
0.0
 31
0.0
  0
LINE
  8
1
  5
76
  6
CONTINUOUS
 62
7
 10
30.0
 20
0.0
 30
15.0
 11
30.0
 21
9.20172
 31
15.0
  0
LINE
  8
1
  5
78
  6
CONTINUOUS
 62
7
 10
30.0
 20
9.20172
 30
0.0
 11
30.0
 21
9.20172
 31
15.0
  0
LINE
  8
1
  5
7A
  6
CONTINUOUS
 62
7
 10
30.0
 20
9.20172
 30
0.0
 11
30.0
 21
0.0
 31
0.0
  0
LINE
  8
1
  5
7C
  6
CONTINUOUS
 62
7
 10
30.0
 20
9.20172
 30
15.0
 11
32.89914
 21
12.10086
 31
15.0
  0
LINE
  8
1
  5
7E
  6
CONTINUOUS
 62
7
 10
32.89914
 20
12.10086
 30
0.0
 11
32.89914
 21
12.10086
 31
15.0
  0
LINE
  8
1
  5
80
  6
CONTINUOUS
 62
7
 10
32.89914
 20
12.10086
 30
0.0
 11
30.0
 21
9.20172
 31
0.0
  0
ARC
  8
1
  5
82
  6
CONTINUOUS
 62
7
 10
30.0
 20
15.0
 30
15.0
 40
4.1
 50
315.0000444444
 51
134.9999583333
  0
LINE
  8
1
  5
84
  6
CONTINUOUS
 62
7
 10
27.10086
 20
17.89914
 30
0.0
 11
27.10086
 21
17.89914
 31
15.0
  0
ARC
  8
1
  5
86
  6
CONTINUOUS
 62
7
 210
0.0
 220
0.0
 230
-1.0
 10
-30.0
 20
15.0
 30
0.0
 40
4.1
 50
45.0000444444
 51
224.9999583333
  0
LINE
  8
1
  5
88
  6
CONTINUOUS
 62
7
 10
27.10086
 20
17.89914
 30
15.0
 11
24.20172
 21
15.0
 31
15.0
  0
LINE
  8
1
  5
8A
  6
CONTINUOUS
 62
7
 10
24.20172
 20
15.0
 30
0.0
 11
24.20172
 21
15.0
 31
15.0
  0
LINE
  8
1
  5
8C
  6
CONTINUOUS
 62
7
 10
24.20172
 20
15.0
 30
0.0
 11
27.10086
 21
17.89914
 31
0.0
  0
LINE
  8
1
  5
8E
  6
CONTINUOUS
 62
7
 10
24.20172
 20
15.0
 30
15.0
 11
0.0
 21
15.0
 31
15.0
  0
LINE
  8
1
  5
90
  6
CONTINUOUS
 62
7
 10
0.0
 20
15.0
 30
0.0
 11
0.0
 21
15.0
 31
15.0
  0
LINE
  8
1
  5
92
  6
CONTINUOUS
 62
7
 10
0.0
 20
15.0
 30
0.0
 11
24.20172
 21
15.0
 31
0.0
  0
LINE
  8
1
  5
94
  6
CONTINUOUS
 62
7
 10
0.0
 20
15.0
 30
15.0
 11
0.0
 21
30.0
 31
15.0
  0
LINE
  8
1
  5
96
  6
CONTINUOUS
 62
7
 10
0.0
 20
30.0
 30
0.0
 11
0.0
 21
30.0
 31
15.0
  0
LINE
  8
1
  5
98
  6
CONTINUOUS
 62
7
 10
0.0
 20
30.0
 30
0.0
 11
0.0
 21
15.0
 31
0.0
  0
LINE
  8
1
  5
9A
  6
CONTINUOUS
 62
7
 10
0.0
 20
30.0
 30
15.0
 11
9.20172
 21
30.0
 31
15.0
  0
LINE
  8
1
  5
9C
  6
CONTINUOUS
 62
7
 10
9.20172
 20
30.0
 30
0.0
 11
9.20172
 21
30.0
 31
15.0
  0
LINE
  8
1
  5
9E
  6
CONTINUOUS
 62
7
 10
9.20172
 20
30.0
 30
0.0
 11
0.0
 21
30.0
 31
0.0
  0
LINE
  8
1
  5
A0
  6
CONTINUOUS
 62
7
 10
9.20172
 20
30.0
 30
15.0
 11
12.10086
 21
27.10086
 31
15.0
  0
LINE
  8
1
  5
A2
  6
CONTINUOUS
 62
7
 10
12.10086
 20
27.10086
 30
0.0
 11
12.10086
 21
27.10086
 31
15.0
  0
LINE
  8
1
  5
A4
  6
CONTINUOUS
 62
7
 10
12.10086
 20
27.10086
 30
0.0
 11
9.20172
 21
30.0
 31
0.0
  0
ARC
  8
1
  5
A6
  6
CONTINUOUS
 62
7
 10
15.0
 20
30.0
 30
15.0
 40
4.1
 50
225.0000444444
 51
44.9999583333
  0
LINE
  8
1
  5
A8
  6
CONTINUOUS
 62
7
 10
17.89914
 20
32.89914
 30
0.0
 11
17.89914
 21
32.89914
 31
15.0
  0
ARC
  8
1
  5
AA
  6
CONTINUOUS
 62
7
 210
0.0
 220
0.0
 230
-1.0
 10
-15.0
 20
30.0
 30
0.0
 40
4.1
 50
135.0000444444
 51
314.9999583333
  0
LINE
  8
1
  5
AC
  6
CONTINUOUS
 62
7
 10
17.89914
 20
32.89914
 30
15.0
 11
15.0
 21
35.79828
 31
15.0
  0
LINE
  8
1
  5
AE
  6
CONTINUOUS
 62
7
 10
15.0
 20
35.79828
 30
0.0
 11
15.0
 21
35.79828
 31
15.0
  0
LINE
  8
1
  5
B0
  6
CONTINUOUS
 62
7
 10
15.0
 20
35.79828
 30
0.0
 11
17.89914
 21
32.89914
 31
0.0
  0
LINE
  8
1
  5
B2
  6
CONTINUOUS
 62
7
 10
15.0
 20
35.79828
 30
15.0
 11
15.0
 21
39.20172
 31
15.0
  0
LINE
  8
1
  5
B4
  6
CONTINUOUS
 62
7
 10
15.0
 20
39.20172
 30
0.0
 11
15.0
 21
39.20172
 31
15.0
  0
LINE
  8
1
  5
B6
  6
CONTINUOUS
 62
7
 10
15.0
 20
39.20172
 30
0.0
 11
15.0
 21
35.79828
 31
0.0
  0
LINE
  8
1
  5
B8
  6
CONTINUOUS
 62
7
 10
15.0
 20
39.20172
 30
15.0
 11
17.89914
 21
42.10086
 31
15.0
  0
LINE
  8
1
  5
BA
  6
CONTINUOUS
 62
7
 10
17.89914
 20
42.10086
 30
0.0
 11
17.89914
 21
42.10086
 31
15.0
  0
LINE
  8
1
  5
BC
  6
CONTINUOUS
 62
7
 10
17.89914
 20
42.10086
 30
0.0
 11
15.0
 21
39.20172
 31
0.0
  0
ARC
  8
1
  5
BE
  6
CONTINUOUS
 62
7
 10
15.0
 20
45.0
 30
15.0
 40
4.1
 50
315.0000444444
 51
134.9999583333
  0
LINE
  8
1
  5
C0
  6
CONTINUOUS
 62
7
 10
12.10086
 20
47.89914
 30
0.0
 11
12.10086
 21
47.89914
 31
15.0
  0
ARC
  8
1
  5
C2
  6
CONTINUOUS
 62
7
 210
0.0
 220
0.0
 230
-1.0
 10
-15.0
 20
45.0
 30
0.0
 40
4.1
 50
45.0000444444
 51
224.9999583333
  0
LINE
  8
1
  5
C4
  6
CONTINUOUS
 62
7
 10
12.10086
 20
47.89914
 30
15.0
 11
9.20172
 21
45.0
 31
15.0
  0
LINE
  8
1
  5
C6
  6
CONTINUOUS
 62
7
 10
9.20172
 20
45.0
 30
0.0
 11
9.20172
 21
45.0
 31
15.0
  0
LINE
  8
1
  5
C8
  6
CONTINUOUS
 62
7
 10
9.20172
 20
45.0
 30
0.0
 11
12.10086
 21
47.89914
 31
0.0
  0
LINE
  8
1
  5
CA
  6
CONTINUOUS
 62
7
 10
9.20172
 20
45.0
 30
15.0
 11
0.0
 21
45.0
 31
15.0
  0
LINE
  8
1
  5
CC
  6
CONTINUOUS
 62
7
 10
0.0
 20
45.0
 30
0.0
 11
0.0
 21
45.0
 31
15.0
  0
LINE
  8
1
  5
CE
  6
CONTINUOUS
 62
7
 10
0.0
 20
45.0
 30
0.0
 11
9.20172
 21
45.0
 31
0.0
  0
LINE
  8
1
  5
D0
  6
CONTINUOUS
 62
7
 10
0.0
 20
45.0
 30
15.0
 11
0.0
 21
60.0
 31
15.0
  0
LINE
  8
1
  5
D2
  6
CONTINUOUS
 62
7
 10
0.0
 20
60.0
 30
0.0
 11
0.0
 21
60.0
 31
15.0
  0
LINE
  8
1
  5
D4
  6
CONTINUOUS
 62
7
 10
0.0
 20
60.0
 30
0.0
 11
0.0
 21
45.0
 31
0.0
  0
LINE
  8
1
  5
D6
  6
CONTINUOUS
 62
7
 10
0.0
 20
60.0
 30
15.0
 11
24.20172
 21
60.0
 31
15.0
  0
LINE
  8
1
  5
D8
  6
CONTINUOUS
 62
7
 10
24.20172
 20
60.0
 30
0.0
 11
24.20172
 21
60.0
 31
15.0
  0
LINE
  8
1
  5
DA
  6
CONTINUOUS
 62
7
 10
24.20172
 20
60.0
 30
0.0
 11
0.0
 21
60.0
 31
0.0
  0
LINE
  8
1
  5
DC
  6
CONTINUOUS
 62
7
 10
24.20172
 20
60.0
 30
15.0
 11
27.10086
 21
57.10086
 31
15.0
  0
LINE
  8
1
  5
DE
  6
CONTINUOUS
 62
7
 10
27.10086
 20
57.10086
 30
0.0
 11
27.10086
 21
57.10086
 31
15.0
  0
LINE
  8
1
  5
E0
  6
CONTINUOUS
 62
7
 10
27.10086
 20
57.10086
 30
0.0
 11
24.20172
 21
60.0
 31
0.0
  0
ARC
  8
1
  5
E2
  6
CONTINUOUS
 62
7
 10
30.0
 20
60.0
 30
15.0
 40
4.1
 50
225.0000444444
 51
44.9999583333
  0
LINE
  8
1
  5
E4
  6
CONTINUOUS
 62
7
 10
32.89914
 20
62.89914
 30
0.0
 11
32.89914
 21
62.89914
 31
15.0
  0
ARC
  8
1
  5
E6
  6
CONTINUOUS
 62
7
 210
0.0
 220
0.0
 230
-1.0
 10
-30.0
 20
60.0
 30
0.0
 40
4.1
 50
135.0000444444
 51
314.9999583333
  0
LINE
  8
1
  5
E8
  6
CONTINUOUS
 62
7
 10
32.89914
 20
62.89914
 30
15.0
 11
30.0
 21
65.79828
 31
15.0
  0
LINE
  8
1
  5
EA
  6
CONTINUOUS
 62
7
 10
30.0
 20
65.79828
 30
0.0
 11
30.0
 21
65.79828
 31
15.0
  0
LINE
  8
1
  5
EC
  6
CONTINUOUS
 62
7
 10
30.0
 20
65.79828
 30
0.0
 11
32.89914
 21
62.89914
 31
0.0
  0
LINE
  8
1
  5
EE
  6
CONTINUOUS
 62
7
 10
30.0
 20
65.79828
 30
15.0
 11
30.0
 21
75.0
 31
15.0
  0
LINE
  8
1
  5
F0
  6
CONTINUOUS
 62
7
 10
30.0
 20
75.0
 30
0.0
 11
30.0
 21
75.0
 31
15.0
  0
LINE
  8
1
  5
F2
  6
CONTINUOUS
 62
7
 10
30.0
 20
75.0
 30
0.0
 11
30.0
 21
65.79828
 31
0.0
  0
LINE
  8
1
  5
F4
  6
CONTINUOUS
 62
7
 10
30.0
 20
75.0
 30
15.0
 11
45.0
 21
75.0
 31
15.0
  0
LINE
  8
1
  5
F6
  6
CONTINUOUS
 62
7
 10
45.0
 20
75.0
 30
0.0
 11
45.0
 21
75.0
 31
15.0
  0
LINE
  8
1
  5
F8
  6
CONTINUOUS
 62
7
 10
45.0
 20
75.0
 30
0.0
 11
30.0
 21
75.0
 31
0.0
  0
LINE
  8
1
  5
FA
  6
CONTINUOUS
 62
7
 10
45.0
 20
75.0
 30
15.0
 11
45.0
 21
65.79828
 31
15.0
  0
LINE
  8
1
  5
FC
  6
CONTINUOUS
 62
7
 10
45.0
 20
65.79828
 30
0.0
 11
45.0
 21
65.79828
 31
15.0
  0
LINE
  8
1
  5
FE
  6
CONTINUOUS
 62
7
 10
45.0
 20
65.79828
 30
0.0
 11
45.0
 21
75.0
 31
0.0
  0
LINE
  8
1
  5
100
  6
CONTINUOUS
 62
7
 10
45.0
 20
65.79828
 30
15.0
 11
42.10086
 21
62.89913
 31
15.0
  0
LINE
  8
1
  5
102
  6
CONTINUOUS
 62
7
 10
42.10086
 20
62.89913
 30
0.0
 11
42.10086
 21
62.89913
 31
15.0
  0
LINE
  8
1
  5
104
  6
CONTINUOUS
 62
7
 10
42.10086
 20
62.89913
 30
0.0
 11
45.0
 21
65.79828
 31
0.0
  0
ARC
  8
1
  5
106
  6
CONTINUOUS
 62
7
 10
45.0
 20
60.0
 30
15.0
 40
4.099996
 50
135.0000944444
 51
314.9999055556
  0
LINE
  8
1
  5
108
  6
CONTINUOUS
 62
7
 10
47.89913
 20
57.10086
 30
0.0
 11
47.89913
 21
57.10086
 31
15.0
  0
ARC
  8
1
  5
10A
  6
CONTINUOUS
 62
7
 210
0.0
 220
0.0
 230
-1.0
 10
-45.0
 20
60.0
 30
0.0
 40
4.099996
 50
225.0000944444
 51
44.9999055556
  0
LINE
  8
1
  5
10C
  6
CONTINUOUS
 62
7
 10
47.89913
 20
57.10086
 30
15.0
 11
50.79828
 21
60.0
 31
15.0
  0
LINE
  8
1
  5
10E
  6
CONTINUOUS
 62
7
 10
50.79828
 20
60.0
 30
0.0
 11
50.79828
 21
60.0
 31
15.0
  0
LINE
  8
1
  5
110
  6
CONTINUOUS
 62
7
 10
50.79828
 20
60.0
 30
0.0
 11
47.89913
 21
57.10086
 31
0.0
  0
LINE
  8
1
  5
112
  6
CONTINUOUS
 62
7
 10
50.79828
 20
60.0
 30
15.0
 11
54.20172
 21
60.0
 31
15.0
  0
LINE
  8
1
  5
114
  6
CONTINUOUS
 62
7
 10
54.20172
 20
60.0
 30
0.0
 11
54.20172
 21
60.0
 31
15.0
  0
LINE
  8
1
  5
116
  6
CONTINUOUS
 62
7
 10
54.20172
 20
60.0
 30
0.0
 11
50.79828
 21
60.0
 31
0.0
  0
LINE
  8
1
  5
118
  6
CONTINUOUS
 62
7
 10
54.20172
 20
60.0
 30
15.0
 11
57.10086
 21
57.10086
 31
15.0
  0
LINE
  8
1
  5
11A
  6
CONTINUOUS
 62
7
 10
57.10086
 20
57.10086
 30
0.0
 11
57.10086
 21
57.10086
 31
15.0
  0
LINE
  8
1
  5
11C
  6
CONTINUOUS
 62
7
 10
57.10086
 20
57.10086
 30
0.0
 11
54.20172
 21
60.0
 31
0.0
  0
ARC
  8
1
  5
11E
  6
CONTINUOUS
 62
7
 10
60.0
 20
60.0
 30
15.0
 40
4.1
 50
225.0000444444
 51
44.9999583333
  0
LINE
  8
1
  5
120
  6
CONTINUOUS
 62
7
 10
62.89914
 20
62.89914
 30
0.0
 11
62.89914
 21
62.89914
 31
15.0
  0
ARC
  8
1
  5
122
  6
CONTINUOUS
 62
7
 210
0.0
 220
0.0
 230
-1.0
 10
-60.0
 20
60.0
 30
0.0
 40
4.1
 50
135.0000444444
 51
314.9999583333
  0
LINE
  8
1
  5
124
  6
CONTINUOUS
 62
7
 10
62.89914
 20
62.89914
 30
15.0
 11
60.0
 21
65.79828
 31
15.0
  0
LINE
  8
1
  5
126
  6
CONTINUOUS
 62
7
 10
60.0
 20
65.79828
 30
0.0
 11
60.0
 21
65.79828
 31
15.0
  0
LINE
  8
1
  5
128
  6
CONTINUOUS
 62
7
 10
60.0
 20
65.79828
 30
0.0
 11
62.89914
 21
62.89914
 31
0.0
  0
LINE
  8
1
  5
12A
  6
CONTINUOUS
 62
7
 10
60.0
 20
65.79828
 30
15.0
 11
60.0
 21
75.0
 31
15.0
  0
LINE
  8
1
  5
12C
  6
CONTINUOUS
 62
7
 10
60.0
 20
75.0
 30
0.0
 11
60.0
 21
75.0
 31
15.0
  0
LINE
  8
1
  5
12E
  6
CONTINUOUS
 62
7
 10
60.0
 20
75.0
 30
0.0
 11
60.0
 21
65.79828
 31
0.0
  0
LINE
  8
1
  5
130
  6
CONTINUOUS
 62
7
 10
60.0
 20
75.0
 30
15.0
 11
240.0
 21
75.0
 31
15.0
  0
LINE
  8
1
  5
132
  6
CONTINUOUS
 62
7
 10
240.0
 20
75.0
 30
0.0
 11
240.0
 21
75.0
 31
15.0
  0
LINE
  8
1
  5
134
  6
CONTINUOUS
 62
7
 10
240.0
 20
75.0
 30
0.0
 11
60.0
 21
75.0
 31
0.0
  0
LINE
  8
1
  5
136
  6
CONTINUOUS
 62
7
 10
240.0
 20
75.0
 30
15.0
 11
240.0
 21
0.0
 31
15.0
  0
LINE
  8
1
  5
138
  6
CONTINUOUS
 62
7
 10
240.0
 20
0.0
 30
0.0
 11
240.0
 21
0.0
 31
15.0
  0
LINE
  8
1
  5
13A
  6
CONTINUOUS
 62
7
 10
240.0
 20
0.0
 30
0.0
 11
240.0
 21
75.0
 31
0.0
  0
LINE
  8
1
  5
13C
  6
CONTINUOUS
 62
7
 10
240.0
 20
0.0
 30
15.0
 11
60.0
 21
0.0
 31
15.0
  0
LINE
  8
1
  5
13E
  6
CONTINUOUS
 62
7
 10
60.0
 20
0.0
 30
0.0
 11
240.0
 21
0.0
 31
0.0
  0
LINE
  8
1
  5
140
  6
CONTINUOUS
 62
7
 10
75.0
 20
45.0
 30
15.0
 11
65.79828
 21
45.0
 31
15.0
  0
LINE
  8
1
  5
142
  6
CONTINUOUS
 62
7
 10
65.79828
 20
45.0
 30
0.0
 11
65.79828
 21
45.0
 31
15.0
  0
LINE
  8
1
  5
144
  6
CONTINUOUS
 62
7
 10
65.79828
 20
45.0
 30
0.0
 11
75.0
 21
45.0
 31
0.0
  0
LINE
  8
1
  5
146
  6
CONTINUOUS
 62
7
 10
75.0
 20
45.0
 30
0.0
 11
75.0
 21
45.0
 31
15.0
  0
LINE
  8
1
  5
148
  6
CONTINUOUS
 62
7
 10
65.79828
 20
45.0
 30
15.0
 11
62.89914
 21
47.89914
 31
15.0
  0
LINE
  8
1
  5
14A
  6
CONTINUOUS
 62
7
 10
62.89914
 20
47.89914
 30
0.0
 11
62.89914
 21
47.89914
 31
15.0
  0
LINE
  8
1
  5
14C
  6
CONTINUOUS
 62
7
 10
62.89914
 20
47.89914
 30
0.0
 11
65.79828
 21
45.0
 31
0.0
  0
ARC
  8
1
  5
14E
  6
CONTINUOUS
 62
7
 10
60.0
 20
45.0
 30
15.0
 40
4.1
 50
45.0000416667
 51
224.9999583333
  0
LINE
  8
1
  5
150
  6
CONTINUOUS
 62
7
 10
57.10086
 20
42.10086
 30
0.0
 11
57.10086
 21
42.10086
 31
15.0
  0
ARC
  8
1
  5
152
  6
CONTINUOUS
 62
7
 210
0.0
 220
0.0
 230
-1.0
 10
-60.0
 20
45.0
 30
0.0
 40
4.1
 50
315.0000416667
 51
134.9999583333
  0
LINE
  8
1
  5
154
  6
CONTINUOUS
 62
7
 10
57.10086
 20
42.10086
 30
15.0
 11
60.0
 21
39.20172
 31
15.0
  0
LINE
  8
1
  5
156
  6
CONTINUOUS
 62
7
 10
60.0
 20
39.20172
 30
0.0
 11
60.0
 21
39.20172
 31
15.0
  0
LINE
  8
1
  5
158
  6
CONTINUOUS
 62
7
 10
60.0
 20
39.20172
 30
0.0
 11
57.10086
 21
42.10086
 31
0.0
  0
LINE
  8
1
  5
15A
  6
CONTINUOUS
 62
7
 10
60.0
 20
39.20172
 30
15.0
 11
60.0
 21
35.79828
 31
15.0
  0
LINE
  8
1
  5
15C
  6
CONTINUOUS
 62
7
 10
60.0
 20
35.79828
 30
0.0
 11
60.0
 21
35.79828
 31
15.0
  0
LINE
  8
1
  5
15E
  6
CONTINUOUS
 62
7
 10
60.0
 20
35.79828
 30
0.0
 11
60.0
 21
39.20172
 31
0.0
  0
LINE
  8
1
  5
160
  6
CONTINUOUS
 62
7
 10
60.0
 20
35.79828
 30
15.0
 11
57.10086
 21
32.89914
 31
15.0
  0
LINE
  8
1
  5
162
  6
CONTINUOUS
 62
7
 10
57.10086
 20
32.89914
 30
0.0
 11
57.10086
 21
32.89914
 31
15.0
  0
LINE
  8
1
  5
164
  6
CONTINUOUS
 62
7
 10
57.10086
 20
32.89914
 30
0.0
 11
60.0
 21
35.79828
 31
0.0
  0
ARC
  8
1
  5
166
  6
CONTINUOUS
 62
7
 10
60.0
 20
30.0
 30
15.0
 40
4.100003
 50
135.0
 51
315.0
  0
LINE
  8
1
  5
168
  6
CONTINUOUS
 62
7
 10
62.89914
 20
27.10086
 30
0.0
 11
62.89914
 21
27.10086
 31
15.0
  0
ARC
  8
1
  5
16A
  6
CONTINUOUS
 62
7
 210
0.0
 220
0.0
 230
-1.0
 10
-60.0
 20
30.0
 30
0.0
 40
4.100003
 50
225.0
 51
45.0
  0
LINE
  8
1
  5
16C
  6
CONTINUOUS
 62
7
 10
62.89914
 20
27.10086
 30
15.0
 11
65.79828
 21
30.0
 31
15.0
  0
LINE
  8
1
  5
16E
  6
CONTINUOUS
 62
7
 10
65.79828
 20
30.0
 30
0.0
 11
65.79828
 21
30.0
 31
15.0
  0
LINE
  8
1
  5
170
  6
CONTINUOUS
 62
7
 10
65.79828
 20
30.0
 30
0.0
 11
62.89914
 21
27.10086
 31
0.0
  0
LINE
  8
1
  5
172
  6
CONTINUOUS
 62
7
 10
65.79828
 20
30.0
 30
15.0
 11
75.0
 21
30.0
 31
15.0
  0
LINE
  8
1
  5
174
  6
CONTINUOUS
 62
7
 10
75.0
 20
30.0
 30
0.0
 11
75.0
 21
30.0
 31
15.0
  0
LINE
  8
1
  5
176
  6
CONTINUOUS
 62
7
 10
75.0
 20
30.0
 30
0.0
 11
65.79828
 21
30.0
 31
0.0
  0
LINE
  8
1
  5
178
  6
CONTINUOUS
 62
7
 10
75.0
 20
30.0
 30
15.0
 11
75.0
 21
45.0
 31
15.0
  0
LINE
  8
1
  5
17A
  6
CONTINUOUS
 62
7
 10
75.0
 20
45.0
 30
0.0
 11
75.0
 21
30.0
 31
0.0
  0
ENDBLK
  8
1
  5
17B
  0
BLOCK
  8
1
  5
17D
 70
1
 10
0.0
 20
0.0
 30
0.0
  2
*M1
  3
*M1
  0
LINE
  8
1
  5
17F
  6
CONTINUOUS
 62
7
 10
79.1
 20
-105.0
 30
0.0
 11
79.1
 21
-105.0
 31
15.0
  0
LINE
  8
1
  5
181
  6
CONTINUOUS
 62
7
 10
75.0
 20
-100.9
 30
0.0
 11
75.0
 21
-100.9
 31
15.0
  0
LINE
  8
1
  5
183
  6
CONTINUOUS
 62
7
 10
19.1
 20
-90.0
 30
0.0
 11
19.1
 21
-90.0
 31
15.0
  0
LINE
  8
1
  5
185
  6
CONTINUOUS
 62
7
 10
15.0
 20
-94.1
 30
0.0
 11
15.0
 21
-94.1
 31
15.0
  0
LINE
  8
1
  5
187
  6
CONTINUOUS
 62
7
 10
19.1
 20
-75.0
 30
0.0
 11
19.1
 21
-75.0
 31
15.0
  0
LINE
  8
1
  5
189
  6
CONTINUOUS
 62
7
 10
15.0
 20
-70.9
 30
0.0
 11
15.0
 21
-70.9
 31
15.0
  0
LINE
  8
1
  5
18B
  6
CONTINUOUS
 62
7
 10
34.1
 20
-60.0
 30
0.0
 11
34.1
 21
-60.0
 31
15.0
  0
LINE
  8
1
  5
18D
  6
CONTINUOUS
 62
7
 10
30.0
 20
-64.1
 30
0.0
 11
30.0
 21
-64.1
 31
15.0
  0
LINE
  8
1
  5
18F
  6
CONTINUOUS
 62
7
 10
40.9
 20
-60.0
 30
0.0
 11
40.9
 21
-60.0
 31
15.0
  0
LINE
  8
1
  5
191
  6
CONTINUOUS
 62
7
 10
45.0
 20
-64.1
 30
0.0
 11
45.0
 21
-64.1
 31
15.0
  0
LINE
  8
1
  5
193
  6
CONTINUOUS
 62
7
 10
79.1
 20
-60.0
 30
0.0
 11
79.1
 21
-60.0
 31
15.0
  0
LINE
  8
1
  5
195
  6
CONTINUOUS
 62
7
 10
75.0
 20
-64.1
 30
0.0
 11
75.0
 21
-64.1
 31
15.0
  0
LINE
  8
1
  5
197
  6
CONTINUOUS
 62
7
 10
75.0
 20
-120.0
 30
15.0
 11
75.0
 21
-110.79828
 31
15.0
  0
LINE
  8
1
  5
199
  6
CONTINUOUS
 62
7
 10
75.0
 20
-110.79828
 30
0.0
 11
75.0
 21
-110.79828
 31
15.0
  0
LINE
  8
1
  5
19B
  6
CONTINUOUS
 62
7
 10
75.0
 20
-110.79828
 30
0.0
 11
75.0
 21
-120.0
 31
0.0
  0
LINE
  8
1
  5
19D
  6
CONTINUOUS
 62
7
 10
75.0
 20
-120.0
 30
0.0
 11
75.0
 21
-120.0
 31
15.0
  0
LINE
  8
1
  5
19F
  6
CONTINUOUS
 62
7
 10
75.0
 20
-110.79828
 30
15.0
 11
77.89914
 21
-107.89914
 31
15.0
  0
LINE
  8
1
  5
1A1
  6
CONTINUOUS
 62
7
 10
77.89914
 20
-107.89914
 30
0.0
 11
77.89914
 21
-107.89914
 31
15.0
  0
LINE
  8
1
  5
1A3
  6
CONTINUOUS
 62
7
 10
77.89914
 20
-107.89914
 30
0.0
 11
75.0
 21
-110.79828
 31
0.0
  0
ARC
  8
1
  5
1A5
  6
CONTINUOUS
 62
7
 10
75.0
 20
-105.0
 30
15.0
 40
4.1
 50
315.0000444444
 51
134.9999583333
  0
LINE
  8
1
  5
1A7
  6
CONTINUOUS
 62
7
 10
72.10086
 20
-102.10086
 30
0.0
 11
72.10086
 21
-102.10086
 31
15.0
  0
ARC
  8
1
  5
1A9
  6
CONTINUOUS
 62
7
 210
0.0
 220
0.0
 230
-1.0
 10
-75.0
 20
-105.0
 30
-2.481980E-032
 40
4.1
 50
45.0000444444
 51
224.9999583333
  0
LINE
  8
1
  5
1AB
  6
CONTINUOUS
 62
7
 10
72.10086
 20
-102.10086
 30
15.0
 11
69.20172
 21
-105.0
 31
15.0
  0
LINE
  8
1
  5
1AD
  6
CONTINUOUS
 62
7
 10
69.20172
 20
-105.0
 30
0.0
 11
69.20172
 21
-105.0
 31
15.0
  0
LINE
  8
1
  5
1AF
  6
CONTINUOUS
 62
7
 10
69.20172
 20
-105.0
 30
0.0
 11
72.10086
 21
-102.10086
 31
0.0
  0
LINE
  8
1
  5
1B1
  6
CONTINUOUS
 62
7
 10
69.20172
 20
-105.0
 30
15.0
 11
0.0
 21
-105.0
 31
15.0
  0
LINE
  8
1
  5
1B3
  6
CONTINUOUS
 62
7
 10
0.0
 20
-105.0
 30
0.0
 11
0.0
 21
-105.0
 31
15.0
  0
LINE
  8
1
  5
1B5
  6
CONTINUOUS
 62
7
 10
0.0
 20
-105.0
 30
0.0
 11
69.20172
 21
-105.0
 31
0.0
  0
LINE
  8
1
  5
1B7
  6
CONTINUOUS
 62
7
 10
0.0
 20
-105.0
 30
15.0
 11
0.0
 21
-90.0
 31
15.0
  0
LINE
  8
1
  5
1B9
  6
CONTINUOUS
 62
7
 10
0.0
 20
-90.0
 30
0.0
 11
0.0
 21
-90.0
 31
15.0
  0
LINE
  8
1
  5
1BB
  6
CONTINUOUS
 62
7
 10
0.0
 20
-90.0
 30
0.0
 11
0.0
 21
-105.0
 31
0.0
  0
LINE
  8
1
  5
1BD
  6
CONTINUOUS
 62
7
 10
0.0
 20
-90.0
 30
15.0
 11
9.20172
 21
-90.0
 31
15.0
  0
LINE
  8
1
  5
1BF
  6
CONTINUOUS
 62
7
 10
9.20172
 20
-90.0
 30
0.0
 11
9.20172
 21
-90.0
 31
15.0
  0
LINE
  8
1
  5
1C1
  6
CONTINUOUS
 62
7
 10
9.20172
 20
-90.0
 30
0.0
 11
0.0
 21
-90.0
 31
0.0
  0
LINE
  8
1
  5
1C3
  6
CONTINUOUS
 62
7
 10
9.20172
 20
-90.0
 30
15.0
 11
12.10086
 21
-92.89914
 31
15.0
  0
LINE
  8
1
  5
1C5
  6
CONTINUOUS
 62
7
 10
12.10086
 20
-92.89914
 30
0.0
 11
12.10086
 21
-92.89914
 31
15.0
  0
LINE
  8
1
  5
1C7
  6
CONTINUOUS
 62
7
 10
12.10086
 20
-92.89914
 30
0.0
 11
9.20172
 21
-90.0
 31
0.0
  0
ARC
  8
1
  5
1C9
  6
CONTINUOUS
 62
7
 10
15.0
 20
-90.0
 30
15.0
 40
4.1
 50
225.0000444444
 51
44.9999583333
  0
LINE
  8
1
  5
1CB
  6
CONTINUOUS
 62
7
 10
17.89914
 20
-87.10086
 30
0.0
 11
17.89914
 21
-87.10086
 31
15.0
  0
ARC
  8
1
  5
1CD
  6
CONTINUOUS
 62
7
 210
0.0
 220
0.0
 230
-1.0
 10
-15.0
 20
-90.0
 30
-4.361220E-032
 40
4.1
 50
135.0000444444
 51
314.9999583333
  0
LINE
  8
1
  5
1CF
  6
CONTINUOUS
 62
7
 10
17.89914
 20
-87.10086
 30
15.0
 11
15.0
 21
-84.20172
 31
15.0
  0
LINE
  8
1
  5
1D1
  6
CONTINUOUS
 62
7
 10
15.0
 20
-84.20172
 30
0.0
 11
15.0
 21
-84.20172
 31
15.0
  0
LINE
  8
1
  5
1D3
  6
CONTINUOUS
 62
7
 10
15.0
 20
-84.20172
 30
0.0
 11
17.89914
 21
-87.10086
 31
0.0
  0
LINE
  8
1
  5
1D5
  6
CONTINUOUS
 62
7
 10
15.0
 20
-84.20172
 30
15.0
 11
15.0
 21
-80.79828
 31
15.0
  0
LINE
  8
1
  5
1D7
  6
CONTINUOUS
 62
7
 10
15.0
 20
-80.79828
 30
0.0
 11
15.0
 21
-80.79828
 31
15.0
  0
LINE
  8
1
  5
1D9
  6
CONTINUOUS
 62
7
 10
15.0
 20
-80.79828
 30
0.0
 11
15.0
 21
-84.20172
 31
0.0
  0
LINE
  8
1
  5
1DB
  6
CONTINUOUS
 62
7
 10
15.0
 20
-80.79828
 30
15.0
 11
17.89914
 21
-77.89914
 31
15.0
  0
LINE
  8
1
  5
1DD
  6
CONTINUOUS
 62
7
 10
17.89914
 20
-77.89914
 30
0.0
 11
17.89914
 21
-77.89914
 31
15.0
  0
LINE
  8
1
  5
1DF
  6
CONTINUOUS
 62
7
 10
17.89914
 20
-77.89914
 30
0.0
 11
15.0
 21
-80.79828
 31
0.0
  0
ARC
  8
1
  5
1E1
  6
CONTINUOUS
 62
7
 10
15.0
 20
-75.0
 30
15.0
 40
4.1
 50
315.0000444444
 51
134.9999583333
  0
LINE
  8
1
  5
1E3
  6
CONTINUOUS
 62
7
 10
12.10086
 20
-72.10086
 30
0.0
 11
12.10086
 21
-72.10086
 31
15.0
  0
ARC
  8
1
  5
1E5
  6
CONTINUOUS
 62
7
 210
0.0
 220
0.0
 230
-1.0
 10
-15.0
 20
-75.0
 30
-4.876568E-032
 40
4.1
 50
45.0000444444
 51
224.9999583333
  0
LINE
  8
1
  5
1E7
  6
CONTINUOUS
 62
7
 10
12.10086
 20
-72.10086
 30
15.0
 11
9.20172
 21
-75.0
 31
15.0
  0
LINE
  8
1
  5
1E9
  6
CONTINUOUS
 62
7
 10
9.20172
 20
-75.0
 30
0.0
 11
9.20172
 21
-75.0
 31
15.0
  0
LINE
  8
1
  5
1EB
  6
CONTINUOUS
 62
7
 10
9.20172
 20
-75.0
 30
0.0
 11
12.10086
 21
-72.10086
 31
0.0
  0
LINE
  8
1
  5
1ED
  6
CONTINUOUS
 62
7
 10
9.20172
 20
-75.0
 30
15.0
 11
0.0
 21
-75.0
 31
15.0
  0
LINE
  8
1
  5
1EF
  6
CONTINUOUS
 62
7
 10
0.0
 20
-75.0
 30
0.0
 11
0.0
 21
-75.0
 31
15.0
  0
LINE
  8
1
  5
1F1
  6
CONTINUOUS
 62
7
 10
0.0
 20
-75.0
 30
0.0
 11
9.20172
 21
-75.0
 31
0.0
  0
LINE
  8
1
  5
1F3
  6
CONTINUOUS
 62
7
 10
0.0
 20
-75.0
 30
15.0
 11
0.0
 21
-60.0
 31
15.0
  0
LINE
  8
1
  5
1F5
  6
CONTINUOUS
 62
7
 10
0.0
 20
-60.0
 30
0.0
 11
0.0
 21
-60.0
 31
15.0
  0
LINE
  8
1
  5
1F7
  6
CONTINUOUS
 62
7
 10
0.0
 20
-60.0
 30
0.0
 11
0.0
 21
-75.0
 31
0.0
  0
LINE
  8
1
  5
1F9
  6
CONTINUOUS
 62
7
 10
0.0
 20
-60.0
 30
15.0
 11
24.20172
 21
-60.0
 31
15.0
  0
LINE
  8
1
  5
1FB
  6
CONTINUOUS
 62
7
 10
24.20172
 20
-60.0
 30
0.0
 11
24.20172
 21
-60.0
 31
15.0
  0
LINE
  8
1
  5
1FD
  6
CONTINUOUS
 62
7
 10
24.20172
 20
-60.0
 30
0.0
 11
0.0
 21
-60.0
 31
0.0
  0
LINE
  8
1
  5
1FF
  6
CONTINUOUS
 62
7
 10
24.20172
 20
-60.0
 30
15.0
 11
27.10086
 21
-62.89914
 31
15.0
  0
LINE
  8
1
  5
201
  6
CONTINUOUS
 62
7
 10
27.10086
 20
-62.89914
 30
0.0
 11
27.10086
 21
-62.89914
 31
15.0
  0
LINE
  8
1
  5
203
  6
CONTINUOUS
 62
7
 10
27.10086
 20
-62.89914
 30
0.0
 11
24.20172
 21
-60.0
 31
0.0
  0
ARC
  8
1
  5
205
  6
CONTINUOUS
 62
7
 10
30.0
 20
-60.0
 30
15.0
 40
4.1
 50
225.0000444444
 51
44.9999583333
  0
LINE
  8
1
  5
207
  6
CONTINUOUS
 62
7
 10
32.89914
 20
-57.10086
 30
0.0
 11
32.89914
 21
-57.10086
 31
15.0
  0
ARC
  8
1
  5
209
  6
CONTINUOUS
 62
7
 210
0.0
 220
0.0
 230
-1.0
 10
-30.0
 20
-60.0
 30
-5.050943E-032
 40
4.1
 50
135.0000444444
 51
314.9999583333
  0
LINE
  8
1
  5
20B
  6
CONTINUOUS
 62
7
 10
32.89914
 20
-57.10086
 30
15.0
 11
30.0
 21
-54.20172
 31
15.0
  0
LINE
  8
1
  5
20D
  6
CONTINUOUS
 62
7
 10
30.0
 20
-54.20172
 30
0.0
 11
30.0
 21
-54.20172
 31
15.0
  0
LINE
  8
1
  5
20F
  6
CONTINUOUS
 62
7
 10
30.0
 20
-54.20172
 30
0.0
 11
32.89914
 21
-57.10086
 31
0.0
  0
LINE
  8
1
  5
211
  6
CONTINUOUS
 62
7
 10
30.0
 20
-54.20172
 30
15.0
 11
30.0
 21
-45.0
 31
15.0
  0
LINE
  8
1
  5
213
  6
CONTINUOUS
 62
7
 10
30.0
 20
-45.0
 30
0.0
 11
30.0
 21
-45.0
 31
15.0
  0
LINE
  8
1
  5
215
  6
CONTINUOUS
 62
7
 10
30.0
 20
-45.0
 30
0.0
 11
30.0
 21
-54.20172
 31
0.0
  0
LINE
  8
1
  5
217
  6
CONTINUOUS
 62
7
 10
30.0
 20
-45.0
 30
15.0
 11
45.0
 21
-45.0
 31
15.0
  0
LINE
  8
1
  5
219
  6
CONTINUOUS
 62
7
 10
45.0
 20
-45.0
 30
0.0
 11
45.0
 21
-45.0
 31
15.0
  0
LINE
  8
1
  5
21B
  6
CONTINUOUS
 62
7
 10
45.0
 20
-45.0
 30
0.0
 11
30.0
 21
-45.0
 31
0.0
  0
LINE
  8
1
  5
21D
  6
CONTINUOUS
 62
7
 10
45.0
 20
-45.0
 30
15.0
 11
45.0
 21
-54.20172
 31
15.0
  0
LINE
  8
1
  5
21F
  6
CONTINUOUS
 62
7
 10
45.0
 20
-54.20172
 30
0.0
 11
45.0
 21
-54.20172
 31
15.0
  0
LINE
  8
1
  5
221
  6
CONTINUOUS
 62
7
 10
45.0
 20
-54.20172
 30
0.0
 11
45.0
 21
-45.0
 31
0.0
  0
LINE
  8
1
  5
223
  6
CONTINUOUS
 62
7
 10
45.0
 20
-54.20172
 30
15.0
 11
42.10086
 21
-57.10086
 31
15.0
  0
LINE
  8
1
  5
225
  6
CONTINUOUS
 62
7
 10
42.10086
 20
-57.10086
 30
0.0
 11
42.10086
 21
-57.10086
 31
15.0
  0
LINE
  8
1
  5
227
  6
CONTINUOUS
 62
7
 10
42.10086
 20
-57.10086
 30
0.0
 11
45.0
 21
-54.20172
 31
0.0
  0
ARC
  8
1
  5
229
  6
CONTINUOUS
 62
7
 10
45.0
 20
-60.0
 30
15.0
 40
4.1
 50
135.0000444444
 51
314.9999583333
  0
LINE
  8
1
  5
22B
  6
CONTINUOUS
 62
7
 10
47.89914
 20
-62.89914
 30
0.0
 11
47.89914
 21
-62.89914
 31
15.0
  0
ARC
  8
1
  5
22D
  6
CONTINUOUS
 62
7
 210
0.0
 220
0.0
 230
-1.0
 10
-45.0
 20
-60.0
 30
-4.709970E-032
 40
4.1
 50
225.0000444444
 51
44.9999583333
  0
LINE
  8
1
  5
22F
  6
CONTINUOUS
 62
7
 10
47.89914
 20
-62.89914
 30
15.0
 11
50.79828
 21
-60.0
 31
15.0
  0
LINE
  8
1
  5
231
  6
CONTINUOUS
 62
7
 10
50.79828
 20
-60.0
 30
0.0
 11
50.79828
 21
-60.0
 31
15.0
  0
LINE
  8
1
  5
233
  6
CONTINUOUS
 62
7
 10
50.79828
 20
-60.0
 30
0.0
 11
47.89914
 21
-62.89914
 31
0.0
  0
LINE
  8
1
  5
235
  6
CONTINUOUS
 62
7
 10
50.79828
 20
-60.0
 30
15.0
 11
69.20172
 21
-60.0
 31
15.0
  0
LINE
  8
1
  5
237
  6
CONTINUOUS
 62
7
 10
69.20172
 20
-60.0
 30
0.0
 11
69.20172
 21
-60.0
 31
15.0
  0
LINE
  8
1
  5
239
  6
CONTINUOUS
 62
7
 10
69.20172
 20
-60.0
 30
0.0
 11
50.79828
 21
-60.0
 31
0.0
  0
LINE
  8
1
  5
23B
  6
CONTINUOUS
 62
7
 10
69.20172
 20
-60.0
 30
15.0
 11
72.10086
 21
-62.89914
 31
15.0
  0
LINE
  8
1
  5
23D
  6
CONTINUOUS
 62
7
 10
72.10086
 20
-62.89914
 30
0.0
 11
72.10086
 21
-62.89914
 31
15.0
  0
LINE
  8
1
  5
23F
  6
CONTINUOUS
 62
7
 10
72.10086
 20
-62.89914
 30
0.0
 11
69.20172
 21
-60.0
 31
0.0
  0
ARC
  8
1
  5
241
  6
CONTINUOUS
 62
7
 10
75.0
 20
-60.0
 30
15.0
 40
4.1
 50
225.0000444444
 51
44.9999583333
  0
LINE
  8
1
  5
243
  6
CONTINUOUS
 62
7
 10
77.89914
 20
-57.10086
 30
0.0
 11
77.89914
 21
-57.10086
 31
15.0
  0
ARC
  8
1
  5
245
  6
CONTINUOUS
 62
7
 210
0.0
 220
0.0
 230
-1.0
 10
-75.0
 20
-60.0
 30
-4.028024E-032
 40
4.1
 50
135.0000444444
 51
314.9999583333
  0
LINE
  8
1
  5
247
  6
CONTINUOUS
 62
7
 10
77.89914
 20
-57.10086
 30
15.0
 11
75.0
 21
-54.20172
 31
15.0
  0
LINE
  8
1
  5
249
  6
CONTINUOUS
 62
7
 10
75.0
 20
-54.20172
 30
0.0
 11
75.0
 21
-54.20172
 31
15.0
  0
LINE
  8
1
  5
24B
  6
CONTINUOUS
 62
7
 10
75.0
 20
-54.20172
 30
0.0
 11
77.89914
 21
-57.10086
 31
0.0
  0
LINE
  8
1
  5
24D
  6
CONTINUOUS
 62
7
 10
75.0
 20
-54.20172
 30
15.0
 11
75.0
 21
-45.0
 31
15.0
  0
LINE
  8
1
  5
24F
  6
CONTINUOUS
 62
7
 10
75.0
 20
-45.0
 30
0.0
 11
75.0
 21
-45.0
 31
15.0
  0
LINE
  8
1
  5
251
  6
CONTINUOUS
 62
7
 10
75.0
 20
-45.0
 30
0.0
 11
75.0
 21
-54.20172
 31
0.0
  0
LINE
  8
1
  5
253
  6
CONTINUOUS
 62
7
 10
75.0
 20
-45.0
 30
15.0
 11
240.0
 21
-45.0
 31
15.0
  0
LINE
  8
1
  5
255
  6
CONTINUOUS
 62
7
 10
240.0
 20
-45.0
 30
0.0
 11
240.0
 21
-45.0
 31
15.0
  0
LINE
  8
1
  5
257
  6
CONTINUOUS
 62
7
 10
240.0
 20
-45.0
 30
0.0
 11
75.0
 21
-45.0
 31
0.0
  0
LINE
  8
1
  5
259
  6
CONTINUOUS
 62
7
 10
240.0
 20
-45.0
 30
15.0
 11
240.0
 21
-120.0
 31
15.0
  0
LINE
  8
1
  5
25B
  6
CONTINUOUS
 62
7
 10
240.0
 20
-120.0
 30
0.0
 11
240.0
 21
-120.0
 31
15.0
  0
LINE
  8
1
  5
25D
  6
CONTINUOUS
 62
7
 10
240.0
 20
-120.0
 30
0.0
 11
240.0
 21
-45.0
 31
0.0
  0
LINE
  8
1
  5
25F
  6
CONTINUOUS
 62
7
 10
240.0
 20
-120.0
 30
15.0
 11
75.0
 21
-120.0
 31
15.0
  0
LINE
  8
1
  5
261
  6
CONTINUOUS
 62
7
 10
75.0
 20
-120.0
 30
0.0
 11
240.0
 21
-120.0
 31
0.0
  0
ENDBLK
  8
1
  5
262
  0
BLOCK
  8
1
  5
264
 70
1
 10
0.0
 20
0.0
 30
0.0
  2
*M2
  3
*M2
  0
LINE
  8
1
  5
266
  6
CONTINUOUS
 62
7
 10
15.0
 20
-64.1
 30
0.0
 11
15.0
 21
-64.1
 31
15.0
  0
LINE
  8
1
  5
268
  6
CONTINUOUS
 62
7
 10
19.1
 20
-60.0
 30
0.0
 11
19.1
 21
-60.0
 31
15.0
  0
LINE
  8
1
  5
26A
  6
CONTINUOUS
 62
7
 10
19.1
 20
-45.0
 30
0.0
 11
19.1
 21
-45.0
 31
15.0
  0
LINE
  8
1
  5
26C
  6
CONTINUOUS
 62
7
 10
15.0
 20
-40.9
 30
0.0
 11
15.0
 21
-40.9
 31
15.0
  0
LINE
  8
1
  5
26E
  6
CONTINUOUS
 62
7
 10
15.0
 20
-34.1
 30
0.0
 11
15.0
 21
-34.1
 31
15.0
  0
LINE
  8
1
  5
270
  6
CONTINUOUS
 62
7
 10
19.1
 20
-30.0
 30
0.0
 11
19.1
 21
-30.0
 31
15.0
  0
LINE
  8
1
  5
272
  6
CONTINUOUS
 62
7
 10
30.0
 20
-19.1
 30
0.0
 11
30.0
 21
-19.1
 31
15.0
  0
LINE
  8
1
  5
274
  6
CONTINUOUS
 62
7
 10
25.9
 20
-15.0
 30
0.0
 11
25.9
 21
-15.0
 31
15.0
  0
LINE
  8
1
  5
276
  6
CONTINUOUS
 62
7
 10
45.0
 20
-19.1
 30
0.0
 11
45.0
 21
-19.1
 31
15.0
  0
LINE
  8
1
  5
278
  6
CONTINUOUS
 62
7
 10
49.1
 20
-15.0
 30
0.0
 11
49.1
 21
-15.0
 31
15.0
  0
LINE
  8
1
  5
27A
  6
CONTINUOUS
 62
7
 10
60.0
 20
-34.1
 30
0.0
 11
60.0
 21
-34.1
 31
15.0
  0
LINE
  8
1
  5
27C
  6
CONTINUOUS
 62
7
 10
55.9
 20
-30.0
 30
0.0
 11
55.9
 21
-30.0
 31
15.0
  0
LINE
  8
1
  5
27E
  6
CONTINUOUS
 62
7
 10
60.0
 20
-40.9
 30
0.0
 11
60.0
 21
-40.9
 31
15.0
  0
LINE
  8
1
  5
280
  6
CONTINUOUS
 62
7
 10
55.9
 20
-45.0
 30
0.0
 11
55.9
 21
-45.0
 31
15.0
  0
LINE
  8
1
  5
282
  6
CONTINUOUS
 62
7
 10
60.0
 20
-64.1
 30
0.0
 11
60.0
 21
-64.1
 31
15.0
  0
LINE
  8
1
  5
284
  6
CONTINUOUS
 62
7
 10
55.9
 20
-60.0
 30
0.0
 11
55.9
 21
-60.0
 31
15.0
  0
LINE
  8
1
  5
286
  6
CONTINUOUS
 62
7
 10
49.1
 20
-60.0
 30
0.0
 11
49.1
 21
-60.0
 31
15.0
  0
LINE
  8
1
  5
288
  6
CONTINUOUS
 62
7
 10
45.0
 20
-55.9
 30
0.0
 11
45.0
 21
-55.9
 31
15.0
  0
LINE
  8
1
  5
28A
  6
CONTINUOUS
 62
7
 10
30.0
 20
-55.9
 30
0.0
 11
30.0
 21
-55.9
 31
15.0
  0
LINE
  8
1
  5
28C
  6
CONTINUOUS
 62
7
 10
25.9
 20
-60.0
 30
0.0
 11
25.9
 21
-60.0
 31
15.0
  0
LINE
  8
1
  5
28E
  6
CONTINUOUS
 62
7
 10
0.0
 20
-60.0
 30
15.0
 11
9.20172
 21
-60.0
 31
15.0
  0
LINE
  8
1
  5
290
  6
CONTINUOUS
 62
7
 10
9.20172
 20
-60.0
 30
0.0
 11
9.20172
 21
-60.0
 31
15.0
  0
LINE
  8
1
  5
292
  6
CONTINUOUS
 62
7
 10
9.20172
 20
-60.0
 30
0.0
 11
0.0
 21
-60.0
 31
0.0
  0
LINE
  8
1
  5
294
  6
CONTINUOUS
 62
7
 10
0.0
 20
-60.0
 30
0.0
 11
0.0
 21
-60.0
 31
15.0
  0
LINE
  8
1
  5
296
  6
CONTINUOUS
 62
7
 10
9.20172
 20
-60.0
 30
15.0
 11
12.10086
 21
-62.89914
 31
15.0
  0
LINE
  8
1
  5
298
  6
CONTINUOUS
 62
7
 10
12.10086
 20
-62.89914
 30
0.0
 11
12.10086
 21
-62.89914
 31
15.0
  0
LINE
  8
1
  5
29A
  6
CONTINUOUS
 62
7
 10
12.10086
 20
-62.89914
 30
0.0
 11
9.20172
 21
-60.0
 31
0.0
  0
ARC
  8
1
  5
29C
  6
CONTINUOUS
 62
7
 10
15.0
 20
-60.0
 30
15.0
 40
4.1
 50
225.0000444444
 51
44.9999583333
  0
LINE
  8
1
  5
29E
  6
CONTINUOUS
 62
7
 10
17.89914
 20
-57.10086
 30
0.0
 11
17.89914
 21
-57.10086
 31
15.0
  0
ARC
  8
1
  5
2A0
  6
CONTINUOUS
 62
7
 210
0.0
 220
0.0
 230
-1.0
 10
-15.0
 20
-60.0
 30
-7.027579E-015
 40
4.1
 50
135.0000444444
 51
314.9999583333
  0
LINE
  8
1
  5
2A2
  6
CONTINUOUS
 62
7
 10
17.89914
 20
-57.10086
 30
15.0
 11
15.0
 21
-54.20172
 31
15.0
  0
LINE
  8
1
  5
2A4
  6
CONTINUOUS
 62
7
 10
15.0
 20
-54.20172
 30
0.0
 11
15.0
 21
-54.20172
 31
15.0
  0
LINE
  8
1
  5
2A6
  6
CONTINUOUS
 62
7
 10
15.0
 20
-54.20172
 30
0.0
 11
17.89914
 21
-57.10086
 31
0.0
  0
LINE
  8
1
  5
2A8
  6
CONTINUOUS
 62
7
 10
15.0
 20
-54.20172
 30
15.0
 11
15.0
 21
-50.79828
 31
15.0
  0
LINE
  8
1
  5
2AA
  6
CONTINUOUS
 62
7
 10
15.0
 20
-50.79828
 30
0.0
 11
15.0
 21
-50.79828
 31
15.0
  0
LINE
  8
1
  5
2AC
  6
CONTINUOUS
 62
7
 10
15.0
 20
-50.79828
 30
0.0
 11
15.0
 21
-54.20172
 31
0.0
  0
LINE
  8
1
  5
2AE
  6
CONTINUOUS
 62
7
 10
15.0
 20
-50.79828
 30
15.0
 11
17.89914
 21
-47.89914
 31
15.0
  0
LINE
  8
1
  5
2B0
  6
CONTINUOUS
 62
7
 10
17.89914
 20
-47.89914
 30
0.0
 11
17.89914
 21
-47.89914
 31
15.0
  0
LINE
  8
1
  5
2B2
  6
CONTINUOUS
 62
7
 10
17.89914
 20
-47.89914
 30
0.0
 11
15.0
 21
-50.79828
 31
0.0
  0
ARC
  8
1
  5
2B4
  6
CONTINUOUS
 62
7
 10
15.0
 20
-45.0
 30
15.0
 40
4.1
 50
315.0000444444
 51
134.9999583333
  0
LINE
  8
1
  5
2B6
  6
CONTINUOUS
 62
7
 10
12.10086
 20
-42.10086
 30
0.0
 11
12.10086
 21
-42.10086
 31
15.0
  0
ARC
  8
1
  5
2B8
  6
CONTINUOUS
 62
7
 210
0.0
 220
0.0
 230
-1.0
 10
-15.0
 20
-45.0
 30
-7.946033E-015
 40
4.1
 50
45.0000444444
 51
224.9999583333
  0
LINE
  8
1
  5
2BA
  6
CONTINUOUS
 62
7
 10
12.10086
 20
-42.10086
 30
15.0
 11
9.20172
 21
-45.0
 31
15.0
  0
LINE
  8
1
  5
2BC
  6
CONTINUOUS
 62
7
 10
9.20172
 20
-45.0
 30
0.0
 11
9.20172
 21
-45.0
 31
15.0
  0
LINE
  8
1
  5
2BE
  6
CONTINUOUS
 62
7
 10
9.20172
 20
-45.0
 30
0.0
 11
12.10086
 21
-42.10086
 31
0.0
  0
LINE
  8
1
  5
2C0
  6
CONTINUOUS
 62
7
 10
9.20172
 20
-45.0
 30
15.0
 11
0.0
 21
-45.0
 31
15.0
  0
LINE
  8
1
  5
2C2
  6
CONTINUOUS
 62
7
 10
0.0
 20
-45.0
 30
0.0
 11
0.0
 21
-45.0
 31
15.0
  0
LINE
  8
1
  5
2C4
  6
CONTINUOUS
 62
7
 10
0.0
 20
-45.0
 30
0.0
 11
9.20172
 21
-45.0
 31
0.0
  0
LINE
  8
1
  5
2C6
  6
CONTINUOUS
 62
7
 10
0.0
 20
-45.0
 30
15.0
 11
0.0
 21
-30.0
 31
15.0
  0
LINE
  8
1
  5
2C8
  6
CONTINUOUS
 62
7
 10
0.0
 20
-30.0
 30
0.0
 11
0.0
 21
-30.0
 31
15.0
  0
LINE
  8
1
  5
2CA
  6
CONTINUOUS
 62
7
 10
0.0
 20
-30.0
 30
0.0
 11
0.0
 21
-45.0
 31
0.0
  0
LINE
  8
1
  5
2CC
  6
CONTINUOUS
 62
7
 10
0.0
 20
-30.0
 30
15.0
 11
9.20172
 21
-30.0
 31
15.0
  0
LINE
  8
1
  5
2CE
  6
CONTINUOUS
 62
7
 10
9.20172
 20
-30.0
 30
0.0
 11
9.20172
 21
-30.0
 31
15.0
  0
LINE
  8
1
  5
2D0
  6
CONTINUOUS
 62
7
 10
9.20172
 20
-30.0
 30
0.0
 11
0.0
 21
-30.0
 31
0.0
  0
LINE
  8
1
  5
2D2
  6
CONTINUOUS
 62
7
 10
9.20172
 20
-30.0
 30
15.0
 11
12.10086
 21
-32.89914
 31
15.0
  0
LINE
  8
1
  5
2D4
  6
CONTINUOUS
 62
7
 10
12.10086
 20
-32.89914
 30
0.0
 11
12.10086
 21
-32.89914
 31
15.0
  0
LINE
  8
1
  5
2D6
  6
CONTINUOUS
 62
7
 10
12.10086
 20
-32.89914
 30
0.0
 11
9.20172
 21
-30.0
 31
0.0
  0
ARC
  8
1
  5
2D8
  6
CONTINUOUS
 62
7
 10
15.0
 20
-30.0
 30
15.0
 40
4.1
 50
225.0000444444
 51
44.9999583333
  0
LINE
  8
1
  5
2DA
  6
CONTINUOUS
 62
7
 10
17.89914
 20
-27.10086
 30
0.0
 11
17.89914
 21
-27.10086
 31
15.0
  0
ARC
  8
1
  5
2DC
  6
CONTINUOUS
 62
7
 210
0.0
 220
0.0
 230
-1.0
 10
-15.0
 20
-30.0
 30
-8.864488E-015
 40
4.1
 50
135.0000444444
 51
314.9999583333
  0
LINE
  8
1
  5
2DE
  6
CONTINUOUS
 62
7
 10
17.89914
 20
-27.10086
 30
15.0
 11
15.0
 21
-24.20172
 31
15.0
  0
LINE
  8
1
  5
2E0
  6
CONTINUOUS
 62
7
 10
15.0
 20
-24.20172
 30
0.0
 11
15.0
 21
-24.20172
 31
15.0
  0
LINE
  8
1
  5
2E2
  6
CONTINUOUS
 62
7
 10
15.0
 20
-24.20172
 30
0.0
 11
17.89914
 21
-27.10086
 31
0.0
  0
LINE
  8
1
  5
2E4
  6
CONTINUOUS
 62
7
 10
15.0
 20
-24.20172
 30
15.0
 11
15.0
 21
0.0
 31
15.0
  0
LINE
  8
1
  5
2E6
  6
CONTINUOUS
 62
7
 10
15.0
 20
0.0
 30
0.0
 11
15.0
 21
0.0
 31
15.0
  0
LINE
  8
1
  5
2E8
  6
CONTINUOUS
 62
7
 10
15.0
 20
0.0
 30
0.0
 11
15.0
 21
-24.20172
 31
0.0
  0
LINE
  8
1
  5
2EA
  6
CONTINUOUS
 62
7
 10
15.0
 20
0.0
 30
15.0
 11
30.0
 21
0.0
 31
15.0
  0
LINE
  8
1
  5
2EC
  6
CONTINUOUS
 62
7
 10
30.0
 20
0.0
 30
0.0
 11
30.0
 21
0.0
 31
15.0
  0
LINE
  8
1
  5
2EE
  6
CONTINUOUS
 62
7
 10
30.0
 20
0.0
 30
0.0
 11
15.0
 21
0.0
 31
0.0
  0
LINE
  8
1
  5
2F0
  6
CONTINUOUS
 62
7
 10
30.0
 20
0.0
 30
15.0
 11
30.0
 21
-9.20172
 31
15.0
  0
LINE
  8
1
  5
2F2
  6
CONTINUOUS
 62
7
 10
30.0
 20
-9.20172
 30
0.0
 11
30.0
 21
-9.20172
 31
15.0
  0
LINE
  8
1
  5
2F4
  6
CONTINUOUS
 62
7
 10
30.0
 20
-9.20172
 30
0.0
 11
30.0
 21
0.0
 31
0.0
  0
LINE
  8
1
  5
2F6
  6
CONTINUOUS
 62
7
 10
30.0
 20
-9.20172
 30
15.0
 11
27.10086
 21
-12.10086
 31
15.0
  0
LINE
  8
1
  5
2F8
  6
CONTINUOUS
 62
7
 10
27.10086
 20
-12.10086
 30
0.0
 11
27.10086
 21
-12.10086
 31
15.0
  0
LINE
  8
1
  5
2FA
  6
CONTINUOUS
 62
7
 10
27.10086
 20
-12.10086
 30
0.0
 11
30.0
 21
-9.20172
 31
0.0
  0
ARC
  8
1
  5
2FC
  6
CONTINUOUS
 62
7
 10
30.0
 20
-15.0
 30
15.0
 40
4.1
 50
135.0000444444
 51
314.9999583333
  0
LINE
  8
1
  5
2FE
  6
CONTINUOUS
 62
7
 10
32.89914
 20
-17.89914
 30
0.0
 11
32.89914
 21
-17.89914
 31
15.0
  0
ARC
  8
1
  5
300
  6
CONTINUOUS
 62
7
 210
0.0
 220
0.0
 230
-1.0
 10
-30.0
 20
-15.0
 30
-8.864488E-015
 40
4.1
 50
225.0000444444
 51
44.9999583333
  0
LINE
  8
1
  5
302
  6
CONTINUOUS
 62
7
 10
32.89914
 20
-17.89914
 30
15.0
 11
35.79828
 21
-15.0
 31
15.0
  0
LINE
  8
1
  5
304
  6
CONTINUOUS
 62
7
 10
35.79828
 20
-15.0
 30
0.0
 11
35.79828
 21
-15.0
 31
15.0
  0
LINE
  8
1
  5
306
  6
CONTINUOUS
 62
7
 10
35.79828
 20
-15.0
 30
0.0
 11
32.89914
 21
-17.89914
 31
0.0
  0
LINE
  8
1
  5
308
  6
CONTINUOUS
 62
7
 10
35.79828
 20
-15.0
 30
15.0
 11
39.20172
 21
-15.0
 31
15.0
  0
LINE
  8
1
  5
30A
  6
CONTINUOUS
 62
7
 10
39.20172
 20
-15.0
 30
0.0
 11
39.20172
 21
-15.0
 31
15.0
  0
LINE
  8
1
  5
30C
  6
CONTINUOUS
 62
7
 10
39.20172
 20
-15.0
 30
0.0
 11
35.79828
 21
-15.0
 31
0.0
  0
LINE
  8
1
  5
30E
  6
CONTINUOUS
 62
7
 10
39.20172
 20
-15.0
 30
15.0
 11
42.10086
 21
-17.89914
 31
15.0
  0
LINE
  8
1
  5
310
  6
CONTINUOUS
 62
7
 10
42.10086
 20
-17.89914
 30
0.0
 11
42.10086
 21
-17.89914
 31
15.0
  0
LINE
  8
1
  5
312
  6
CONTINUOUS
 62
7
 10
42.10086
 20
-17.89914
 30
0.0
 11
39.20172
 21
-15.0
 31
0.0
  0
ARC
  8
1
  5
314
  6
CONTINUOUS
 62
7
 10
45.0
 20
-15.0
 30
15.0
 40
4.1
 50
225.0000444444
 51
44.9999583333
  0
LINE
  8
1
  5
316
  6
CONTINUOUS
 62
7
 10
47.89914
 20
-12.10086
 30
0.0
 11
47.89914
 21
-12.10086
 31
15.0
  0
ARC
  8
1
  5
318
  6
CONTINUOUS
 62
7
 210
0.0
 220
0.0
 230
-1.0
 10
-45.0
 20
-15.0
 30
-7.946033E-015
 40
4.1
 50
135.0000444444
 51
314.9999583333
  0
LINE
  8
1
  5
31A
  6
CONTINUOUS
 62
7
 10
47.89914
 20
-12.10086
 30
15.0
 11
45.0
 21
-9.20172
 31
15.0
  0
LINE
  8
1
  5
31C
  6
CONTINUOUS
 62
7
 10
45.0
 20
-9.20172
 30
0.0
 11
45.0
 21
-9.20172
 31
15.0
  0
LINE
  8
1
  5
31E
  6
CONTINUOUS
 62
7
 10
45.0
 20
-9.20172
 30
0.0
 11
47.89914
 21
-12.10086
 31
0.0
  0
LINE
  8
1
  5
320
  6
CONTINUOUS
 62
7
 10
45.0
 20
-9.20172
 30
15.0
 11
45.0
 21
0.0
 31
15.0
  0
LINE
  8
1
  5
322
  6
CONTINUOUS
 62
7
 10
45.0
 20
0.0
 30
0.0
 11
45.0
 21
0.0
 31
15.0
  0
LINE
  8
1
  5
324
  6
CONTINUOUS
 62
7
 10
45.0
 20
0.0
 30
0.0
 11
45.0
 21
-9.20172
 31
0.0
  0
LINE
  8
1
  5
326
  6
CONTINUOUS
 62
7
 10
45.0
 20
0.0
 30
15.0
 11
60.0
 21
0.0
 31
15.0
  0
LINE
  8
1
  5
328
  6
CONTINUOUS
 62
7
 10
60.0
 20
0.0
 30
0.0
 11
60.0
 21
0.0
 31
15.0
  0
LINE
  8
1
  5
32A
  6
CONTINUOUS
 62
7
 10
60.0
 20
0.0
 30
0.0
 11
45.0
 21
0.0
 31
0.0
  0
LINE
  8
1
  5
32C
  6
CONTINUOUS
 62
7
 10
60.0
 20
0.0
 30
15.0
 11
60.0
 21
-24.20172
 31
15.0
  0
LINE
  8
1
  5
32E
  6
CONTINUOUS
 62
7
 10
60.0
 20
-24.20172
 30
0.0
 11
60.0
 21
-24.20172
 31
15.0
  0
LINE
  8
1
  5
330
  6
CONTINUOUS
 62
7
 10
60.0
 20
-24.20172
 30
0.0
 11
60.0
 21
0.0
 31
0.0
  0
LINE
  8
1
  5
332
  6
CONTINUOUS
 62
7
 10
60.0
 20
-24.20172
 30
15.0
 11
57.10086
 21
-27.10086
 31
15.0
  0
LINE
  8
1
  5
334
  6
CONTINUOUS
 62
7
 10
57.10086
 20
-27.10086
 30
0.0
 11
57.10086
 21
-27.10086
 31
15.0
  0
LINE
  8
1
  5
336
  6
CONTINUOUS
 62
7
 10
57.10086
 20
-27.10086
 30
0.0
 11
60.0
 21
-24.20172
 31
0.0
  0
ARC
  8
1
  5
338
  6
CONTINUOUS
 62
7
 10
60.0
 20
-30.0
 30
15.0
 40
4.1
 50
135.0000444444
 51
314.9999583333
  0
LINE
  8
1
  5
33A
  6
CONTINUOUS
 62
7
 10
62.89914
 20
-32.89914
 30
0.0
 11
62.89914
 21
-32.89914
 31
15.0
  0
ARC
  8
1
  5
33C
  6
CONTINUOUS
 62
7
 210
0.0
 220
0.0
 230
-1.0
 10
-60.0
 20
-30.0
 30
-6.109124E-015
 40
4.1
 50
225.0000444444
 51
44.9999583333
  0
LINE
  8
1
  5
33E
  6
CONTINUOUS
 62
7
 10
62.89914
 20
-32.89914
 30
15.0
 11
65.79828
 21
-30.0
 31
15.0
  0
LINE
  8
1
  5
340
  6
CONTINUOUS
 62
7
 10
65.79828
 20
-30.0
 30
0.0
 11
65.79828
 21
-30.0
 31
15.0
  0
LINE
  8
1
  5
342
  6
CONTINUOUS
 62
7
 10
65.79828
 20
-30.0
 30
0.0
 11
62.89914
 21
-32.89914
 31
0.0
  0
LINE
  8
1
  5
344
  6
CONTINUOUS
 62
7
 10
65.79828
 20
-30.0
 30
15.0
 11
75.0
 21
-30.0
 31
15.0
  0
LINE
  8
1
  5
346
  6
CONTINUOUS
 62
7
 10
75.0
 20
-30.0
 30
0.0
 11
75.0
 21
-30.0
 31
15.0
  0
LINE
  8
1
  5
348
  6
CONTINUOUS
 62
7
 10
75.0
 20
-30.0
 30
0.0
 11
65.79828
 21
-30.0
 31
0.0
  0
LINE
  8
1
  5
34A
  6
CONTINUOUS
 62
7
 10
75.0
 20
-30.0
 30
15.0
 11
75.0
 21
-45.0
 31
15.0
  0
LINE
  8
1
  5
34C
  6
CONTINUOUS
 62
7
 10
75.0
 20
-45.0
 30
0.0
 11
75.0
 21
-45.0
 31
15.0
  0
LINE
  8
1
  5
34E
  6
CONTINUOUS
 62
7
 10
75.0
 20
-45.0
 30
0.0
 11
75.0
 21
-30.0
 31
0.0
  0
LINE
  8
1
  5
350
  6
CONTINUOUS
 62
7
 10
75.0
 20
-45.0
 30
15.0
 11
65.79828
 21
-45.0
 31
15.0
  0
LINE
  8
1
  5
352
  6
CONTINUOUS
 62
7
 10
65.79828
 20
-45.0
 30
0.0
 11
65.79828
 21
-45.0
 31
15.0
  0
LINE
  8
1
  5
354
  6
CONTINUOUS
 62
7
 10
65.79828
 20
-45.0
 30
0.0
 11
75.0
 21
-45.0
 31
0.0
  0
LINE
  8
1
  5
356
  6
CONTINUOUS
 62
7
 10
65.79828
 20
-45.0
 30
15.0
 11
62.89913
 21
-42.10086
 31
15.0
  0
LINE
  8
1
  5
358
  6
CONTINUOUS
 62
7
 10
62.89913
 20
-42.10086
 30
0.0
 11
62.89913
 21
-42.10086
 31
15.0
  0
LINE
  8
1
  5
35A
  6
CONTINUOUS
 62
7
 10
62.89913
 20
-42.10086
 30
0.0
 11
65.79828
 21
-45.0
 31
0.0
  0
ARC
  8
1
  5
35C
  6
CONTINUOUS
 62
7
 10
60.0
 20
-45.0
 30
15.0
 40
4.099996
 50
45.0000944444
 51
224.9999055556
  0
LINE
  8
1
  5
35E
  6
CONTINUOUS
 62
7
 10
57.10086
 20
-47.89913
 30
0.0
 11
57.10086
 21
-47.89913
 31
15.0
  0
ARC
  8
1
  5
360
  6
CONTINUOUS
 62
7
 210
0.0
 220
0.0
 230
-1.0
 10
-60.0
 20
-45.0
 30
-5.190669E-015
 40
4.099996
 50
315.0000944444
 51
134.9999055556
  0
LINE
  8
1
  5
362
  6
CONTINUOUS
 62
7
 10
57.10086
 20
-47.89913
 30
15.0
 11
60.0
 21
-50.79828
 31
15.0
  0
LINE
  8
1
  5
364
  6
CONTINUOUS
 62
7
 10
60.0
 20
-50.79828
 30
0.0
 11
60.0
 21
-50.79828
 31
15.0
  0
LINE
  8
1
  5
366
  6
CONTINUOUS
 62
7
 10
60.0
 20
-50.79828
 30
0.0
 11
57.10086
 21
-47.89913
 31
0.0
  0
LINE
  8
1
  5
368
  6
CONTINUOUS
 62
7
 10
60.0
 20
-50.79828
 30
15.0
 11
60.0
 21
-54.20172
 31
15.0
  0
LINE
  8
1
  5
36A
  6
CONTINUOUS
 62
7
 10
60.0
 20
-54.20172
 30
0.0
 11
60.0
 21
-54.20172
 31
15.0
  0
LINE
  8
1
  5
36C
  6
CONTINUOUS
 62
7
 10
60.0
 20
-54.20172
 30
0.0
 11
60.0
 21
-50.79828
 31
0.0
  0
LINE
  8
1
  5
36E
  6
CONTINUOUS
 62
7
 10
60.0
 20
-54.20172
 30
15.0
 11
57.10086
 21
-57.10086
 31
15.0
  0
LINE
  8
1
  5
370
  6
CONTINUOUS
 62
7
 10
57.10086
 20
-57.10086
 30
0.0
 11
57.10086
 21
-57.10086
 31
15.0
  0
LINE
  8
1
  5
372
  6
CONTINUOUS
 62
7
 10
57.10086
 20
-57.10086
 30
0.0
 11
60.0
 21
-54.20172
 31
0.0
  0
ARC
  8
1
  5
374
  6
CONTINUOUS
 62
7
 10
60.0
 20
-60.0
 30
15.0
 40
4.1
 50
135.0000444444
 51
314.9999583333
  0
LINE
  8
1
  5
376
  6
CONTINUOUS
 62
7
 10
62.89914
 20
-62.89914
 30
0.0
 11
62.89914
 21
-62.89914
 31
15.0
  0
ARC
  8
1
  5
378
  6
CONTINUOUS
 62
7
 210
0.0
 220
0.0
 230
-1.0
 10
-60.0
 20
-60.0
 30
-4.272214E-015
 40
4.1
 50
225.0000444444
 51
44.9999583333
  0
LINE
  8
1
  5
37A
  6
CONTINUOUS
 62
7
 10
62.89914
 20
-62.89914
 30
15.0
 11
65.79828
 21
-60.0
 31
15.0
  0
LINE
  8
1
  5
37C
  6
CONTINUOUS
 62
7
 10
65.79828
 20
-60.0
 30
0.0
 11
65.79828
 21
-60.0
 31
15.0
  0
LINE
  8
1
  5
37E
  6
CONTINUOUS
 62
7
 10
65.79828
 20
-60.0
 30
0.0
 11
62.89914
 21
-62.89914
 31
0.0
  0
LINE
  8
1
  5
380
  6
CONTINUOUS
 62
7
 10
65.79828
 20
-60.0
 30
15.0
 11
75.0
 21
-60.0
 31
15.0
  0
LINE
  8
1
  5
382
  6
CONTINUOUS
 62
7
 10
75.0
 20
-60.0
 30
0.0
 11
75.0
 21
-60.0
 31
15.0
  0
LINE
  8
1
  5
384
  6
CONTINUOUS
 62
7
 10
75.0
 20
-60.0
 30
0.0
 11
65.79828
 21
-60.0
 31
0.0
  0
LINE
  8
1
  5
386
  6
CONTINUOUS
 62
7
 10
75.0
 20
-60.0
 30
15.0
 11
75.0
 21
-240.0
 31
15.0
  0
LINE
  8
1
  5
388
  6
CONTINUOUS
 62
7
 10
75.0
 20
-240.0
 30
0.0
 11
75.0
 21
-240.0
 31
15.0
  0
LINE
  8
1
  5
38A
  6
CONTINUOUS
 62
7
 10
75.0
 20
-240.0
 30
0.0
 11
75.0
 21
-60.0
 31
0.0
  0
LINE
  8
1
  5
38C
  6
CONTINUOUS
 62
7
 10
75.0
 20
-240.0
 30
15.0
 11
0.0
 21
-240.0
 31
15.0
  0
LINE
  8
1
  5
38E
  6
CONTINUOUS
 62
7
 10
0.0
 20
-240.0
 30
0.0
 11
0.0
 21
-240.0
 31
15.0
  0
LINE
  8
1
  5
390
  6
CONTINUOUS
 62
7
 10
0.0
 20
-240.0
 30
0.0
 11
75.0
 21
-240.0
 31
0.0
  0
LINE
  8
1
  5
392
  6
CONTINUOUS
 62
7
 10
0.0
 20
-240.0
 30
15.0
 11
0.0
 21
-60.0
 31
15.0
  0
LINE
  8
1
  5
394
  6
CONTINUOUS
 62
7
 10
0.0
 20
-60.0
 30
0.0
 11
0.0
 21
-240.0
 31
0.0
  0
LINE
  8
1
  5
396
  6
CONTINUOUS
 62
7
 10
45.0
 20
-75.0
 30
15.0
 11
45.0
 21
-65.79828
 31
15.0
  0
LINE
  8
1
  5
398
  6
CONTINUOUS
 62
7
 10
45.0
 20
-65.79828
 30
0.0
 11
45.0
 21
-65.79828
 31
15.0
  0
LINE
  8
1
  5
39A
  6
CONTINUOUS
 62
7
 10
45.0
 20
-65.79828
 30
0.0
 11
45.0
 21
-75.0
 31
0.0
  0
LINE
  8
1
  5
39C
  6
CONTINUOUS
 62
7
 10
45.0
 20
-75.0
 30
0.0
 11
45.0
 21
-75.0
 31
15.0
  0
LINE
  8
1
  5
39E
  6
CONTINUOUS
 62
7
 10
45.0
 20
-65.79828
 30
15.0
 11
47.89914
 21
-62.89914
 31
15.0
  0
LINE
  8
1
  5
3A0
  6
CONTINUOUS
 62
7
 10
47.89914
 20
-62.89914
 30
0.0
 11
47.89914
 21
-62.89914
 31
15.0
  0
LINE
  8
1
  5
3A2
  6
CONTINUOUS
 62
7
 10
47.89914
 20
-62.89914
 30
0.0
 11
45.0
 21
-65.79828
 31
0.0
  0
ARC
  8
1
  5
3A4
  6
CONTINUOUS
 62
7
 10
45.0
 20
-60.0
 30
15.0
 40
4.1
 50
315.0000416667
 51
134.9999583333
  0
LINE
  8
1
  5
3A6
  6
CONTINUOUS
 62
7
 10
42.10086
 20
-57.10086
 30
0.0
 11
42.10086
 21
-57.10086
 31
15.0
  0
ARC
  8
1
  5
3A8
  6
CONTINUOUS
 62
7
 210
0.0
 220
0.0
 230
-1.0
 10
-45.0
 20
-60.0
 30
-5.190669E-015
 40
4.1
 50
45.0000416667
 51
224.9999583333
  0
LINE
  8
1
  5
3AA
  6
CONTINUOUS
 62
7
 10
42.10086
 20
-57.10086
 30
15.0
 11
39.20172
 21
-60.0
 31
15.0
  0
LINE
  8
1
  5
3AC
  6
CONTINUOUS
 62
7
 10
39.20172
 20
-60.0
 30
0.0
 11
39.20172
 21
-60.0
 31
15.0
  0
LINE
  8
1
  5
3AE
  6
CONTINUOUS
 62
7
 10
39.20172
 20
-60.0
 30
0.0
 11
42.10086
 21
-57.10086
 31
0.0
  0
LINE
  8
1
  5
3B0
  6
CONTINUOUS
 62
7
 10
39.20172
 20
-60.0
 30
15.0
 11
35.79828
 21
-60.0
 31
15.0
  0
LINE
  8
1
  5
3B2
  6
CONTINUOUS
 62
7
 10
35.79828
 20
-60.0
 30
0.0
 11
35.79828
 21
-60.0
 31
15.0
  0
LINE
  8
1
  5
3B4
  6
CONTINUOUS
 62
7
 10
35.79828
 20
-60.0
 30
0.0
 11
39.20172
 21
-60.0
 31
0.0
  0
LINE
  8
1
  5
3B6
  6
CONTINUOUS
 62
7
 10
35.79828
 20
-60.0
 30
15.0
 11
32.89914
 21
-57.10086
 31
15.0
  0
LINE
  8
1
  5
3B8
  6
CONTINUOUS
 62
7
 10
32.89914
 20
-57.10086
 30
0.0
 11
32.89914
 21
-57.10086
 31
15.0
  0
LINE
  8
1
  5
3BA
  6
CONTINUOUS
 62
7
 10
32.89914
 20
-57.10086
 30
0.0
 11
35.79828
 21
-60.0
 31
0.0
  0
ARC
  8
1
  5
3BC
  6
CONTINUOUS
 62
7
 10
30.0
 20
-60.0
 30
15.0
 40
4.100003
 50
45.0
 51
225.0
  0
LINE
  8
1
  5
3BE
  6
CONTINUOUS
 62
7
 10
27.10086
 20
-62.89914
 30
0.0
 11
27.10086
 21
-62.89914
 31
15.0
  0
ARC
  8
1
  5
3C0
  6
CONTINUOUS
 62
7
 210
0.0
 220
0.0
 230
-1.0
 10
-30.0
 20
-60.0
 30
-6.109124E-015
 40
4.100003
 50
315.0
 51
135.0
  0
LINE
  8
1
  5
3C2
  6
CONTINUOUS
 62
7
 10
27.10086
 20
-62.89914
 30
15.0
 11
30.0
 21
-65.79828
 31
15.0
  0
LINE
  8
1
  5
3C4
  6
CONTINUOUS
 62
7
 10
30.0
 20
-65.79828
 30
0.0
 11
30.0
 21
-65.79828
 31
15.0
  0
LINE
  8
1
  5
3C6
  6
CONTINUOUS
 62
7
 10
30.0
 20
-65.79828
 30
0.0
 11
27.10086
 21
-62.89914
 31
0.0
  0
LINE
  8
1
  5
3C8
  6
CONTINUOUS
 62
7
 10
30.0
 20
-65.79828
 30
15.0
 11
30.0
 21
-75.0
 31
15.0
  0
LINE
  8
1
  5
3CA
  6
CONTINUOUS
 62
7
 10
30.0
 20
-75.0
 30
0.0
 11
30.0
 21
-75.0
 31
15.0
  0
LINE
  8
1
  5
3CC
  6
CONTINUOUS
 62
7
 10
30.0
 20
-75.0
 30
0.0
 11
30.0
 21
-65.79828
 31
0.0
  0
LINE
  8
1
  5
3CE
  6
CONTINUOUS
 62
7
 10
30.0
 20
-75.0
 30
15.0
 11
45.0
 21
-75.0
 31
15.0
  0
LINE
  8
1
  5
3D0
  6
CONTINUOUS
 62
7
 10
45.0
 20
-75.0
 30
0.0
 11
30.0
 21
-75.0
 31
0.0
  0
ENDBLK
  8
1
  5
3D1
  0
BLOCK
  8
1
  5
3D3
 70
1
 10
0.0
 20
0.0
 30
0.0
  2
*M3
  3
*M3
  0
LINE
  8
1
  5
3D5
  6
CONTINUOUS
 62
7
 10
-105.0
 20
-79.1
 30
0.0
 11
-105.0
 21
-79.1
 31
15.0
  0
LINE
  8
1
  5
3D7
  6
CONTINUOUS
 62
7
 10
-100.9
 20
-75.0
 30
0.0
 11
-100.9
 21
-75.0
 31
15.0
  0
LINE
  8
1
  5
3D9
  6
CONTINUOUS
 62
7
 10
-90.0
 20
-19.1
 30
0.0
 11
-90.0
 21
-19.1
 31
15.0
  0
LINE
  8
1
  5
3DB
  6
CONTINUOUS
 62
7
 10
-94.1
 20
-15.0
 30
0.0
 11
-94.1
 21
-15.0
 31
15.0
  0
LINE
  8
1
  5
3DD
  6
CONTINUOUS
 62
7
 10
-75.0
 20
-19.1
 30
0.0
 11
-75.0
 21
-19.1
 31
15.0
  0
LINE
  8
1
  5
3DF
  6
CONTINUOUS
 62
7
 10
-70.9
 20
-15.0
 30
0.0
 11
-70.9
 21
-15.0
 31
15.0
  0
LINE
  8
1
  5
3E1
  6
CONTINUOUS
 62
7
 10
-60.0
 20
-34.1
 30
0.0
 11
-60.0
 21
-34.1
 31
15.0
  0
LINE
  8
1
  5
3E3
  6
CONTINUOUS
 62
7
 10
-64.1
 20
-30.0
 30
0.0
 11
-64.1
 21
-30.0
 31
15.0
  0
LINE
  8
1
  5
3E5
  6
CONTINUOUS
 62
7
 10
-60.0
 20
-40.9
 30
0.0
 11
-60.0
 21
-40.9
 31
15.0
  0
LINE
  8
1
  5
3E7
  6
CONTINUOUS
 62
7
 10
-64.1
 20
-45.0
 30
0.0
 11
-64.1
 21
-45.0
 31
15.0
  0
LINE
  8
1
  5
3E9
  6
CONTINUOUS
 62
7
 10
-60.0
 20
-79.1
 30
0.0
 11
-60.0
 21
-79.1
 31
15.0
  0
LINE
  8
1
  5
3EB
  6
CONTINUOUS
 62
7
 10
-64.1
 20
-75.0
 30
0.0
 11
-64.1
 21
-75.0
 31
15.0
  0
LINE
  8
1
  5
3ED
  6
CONTINUOUS
 62
7
 10
-120.0
 20
-75.0
 30
15.0
 11
-110.79828
 21
-75.0
 31
15.0
  0
LINE
  8
1
  5
3EF
  6
CONTINUOUS
 62
7
 10
-110.79828
 20
-75.0
 30
0.0
 11
-110.79828
 21
-75.0
 31
15.0
  0
LINE
  8
1
  5
3F1
  6
CONTINUOUS
 62
7
 10
-110.79828
 20
-75.0
 30
0.0
 11
-120.0
 21
-75.0
 31
0.0
  0
LINE
  8
1
  5
3F3
  6
CONTINUOUS
 62
7
 10
-120.0
 20
-75.0
 30
0.0
 11
-120.0
 21
-75.0
 31
15.0
  0
LINE
  8
1
  5
3F5
  6
CONTINUOUS
 62
7
 10
-110.79828
 20
-75.0
 30
15.0
 11
-107.89914
 21
-77.89914
 31
15.0
  0
LINE
  8
1
  5
3F7
  6
CONTINUOUS
 62
7
 10
-107.89914
 20
-77.89914
 30
0.0
 11
-107.89914
 21
-77.89914
 31
15.0
  0
LINE
  8
1
  5
3F9
  6
CONTINUOUS
 62
7
 10
-107.89914
 20
-77.89914
 30
0.0
 11
-110.79828
 21
-75.0
 31
0.0
  0
ARC
  8
1
  5
3FB
  6
CONTINUOUS
 62
7
 10
-105.0
 20
-75.0
 30
15.0
 40
4.1
 50
225.0000444444
 51
44.9999583333
  0
LINE
  8
1
  5
3FD
  6
CONTINUOUS
 62
7
 10
-102.10086
 20
-72.10086
 30
0.0
 11
-102.10086
 21
-72.10086
 31
15.0
  0
ARC
  8
1
  5
3FF
  6
CONTINUOUS
 62
7
 210
0.0
 220
0.0
 230
-1.0
 10
105.0
 20
-75.0
 30
4.656613E-015
 40
4.1
 50
135.0000444444
 51
314.9999583333
  0
LINE
  8
1
  5
401
  6
CONTINUOUS
 62
7
 10
-102.10086
 20
-72.10086
 30
15.0
 11
-105.0
 21
-69.20172
 31
15.0
  0
LINE
  8
1
  5
403
  6
CONTINUOUS
 62
7
 10
-105.0
 20
-69.20172
 30
0.0
 11
-105.0
 21
-69.20172
 31
15.0
  0
LINE
  8
1
  5
405
  6
CONTINUOUS
 62
7
 10
-105.0
 20
-69.20172
 30
0.0
 11
-102.10086
 21
-72.10086
 31
0.0
  0
LINE
  8
1
  5
407
  6
CONTINUOUS
 62
7
 10
-105.0
 20
-69.20172
 30
15.0
 11
-105.0
 21
0.0
 31
15.0
  0
LINE
  8
1
  5
409
  6
CONTINUOUS
 62
7
 10
-105.0
 20
0.0
 30
0.0
 11
-105.0
 21
0.0
 31
15.0
  0
LINE
  8
1
  5
40B
  6
CONTINUOUS
 62
7
 10
-105.0
 20
0.0
 30
0.0
 11
-105.0
 21
-69.20172
 31
0.0
  0
LINE
  8
1
  5
40D
  6
CONTINUOUS
 62
7
 10
-105.0
 20
0.0
 30
15.0
 11
-90.0
 21
0.0
 31
15.0
  0
LINE
  8
1
  5
40F
  6
CONTINUOUS
 62
7
 10
-90.0
 20
0.0
 30
0.0
 11
-90.0
 21
0.0
 31
15.0
  0
LINE
  8
1
  5
411
  6
CONTINUOUS
 62
7
 10
-90.0
 20
0.0
 30
0.0
 11
-105.0
 21
0.0
 31
0.0
  0
LINE
  8
1
  5
413
  6
CONTINUOUS
 62
7
 10
-90.0
 20
0.0
 30
15.0
 11
-90.0
 21
-9.20172
 31
15.0
  0
LINE
  8
1
  5
415
  6
CONTINUOUS
 62
7
 10
-90.0
 20
-9.20172
 30
0.0
 11
-90.0
 21
-9.20172
 31
15.0
  0
LINE
  8
1
  5
417
  6
CONTINUOUS
 62
7
 10
-90.0
 20
-9.20172
 30
0.0
 11
-90.0
 21
0.0
 31
0.0
  0
LINE
  8
1
  5
419
  6
CONTINUOUS
 62
7
 10
-90.0
 20
-9.20172
 30
15.0
 11
-92.89914
 21
-12.10086
 31
15.0
  0
LINE
  8
1
  5
41B
  6
CONTINUOUS
 62
7
 10
-92.89914
 20
-12.10086
 30
0.0
 11
-92.89914
 21
-12.10086
 31
15.0
  0
LINE
  8
1
  5
41D
  6
CONTINUOUS
 62
7
 10
-92.89914
 20
-12.10086
 30
0.0
 11
-90.0
 21
-9.20172
 31
0.0
  0
ARC
  8
1
  5
41F
  6
CONTINUOUS
 62
7
 10
-90.0
 20
-15.0
 30
15.0
 40
4.1
 50
135.0000444444
 51
314.9999583333
  0
LINE
  8
1
  5
421
  6
CONTINUOUS
 62
7
 10
-87.10086
 20
-17.89914
 30
0.0
 11
-87.10086
 21
-17.89914
 31
15.0
  0
ARC
  8
1
  5
423
  6
CONTINUOUS
 62
7
 210
0.0
 220
0.0
 230
-1.0
 10
90.0
 20
-15.0
 30
2.328306E-015
 40
4.1
 50
225.0000444444
 51
44.9999583333
  0
LINE
  8
1
  5
425
  6
CONTINUOUS
 62
7
 10
-87.10086
 20
-17.89914
 30
15.0
 11
-84.20172
 21
-15.0
 31
15.0
  0
LINE
  8
1
  5
427
  6
CONTINUOUS
 62
7
 10
-84.20172
 20
-15.0
 30
0.0
 11
-84.20172
 21
-15.0
 31
15.0
  0
LINE
  8
1
  5
429
  6
CONTINUOUS
 62
7
 10
-84.20172
 20
-15.0
 30
0.0
 11
-87.10086
 21
-17.89914
 31
0.0
  0
LINE
  8
1
  5
42B
  6
CONTINUOUS
 62
7
 10
-84.20172
 20
-15.0
 30
15.0
 11
-80.79828
 21
-15.0
 31
15.0
  0
LINE
  8
1
  5
42D
  6
CONTINUOUS
 62
7
 10
-80.79828
 20
-15.0
 30
0.0
 11
-80.79828
 21
-15.0
 31
15.0
  0
LINE
  8
1
  5
42F
  6
CONTINUOUS
 62
7
 10
-80.79828
 20
-15.0
 30
0.0
 11
-84.20172
 21
-15.0
 31
0.0
  0
LINE
  8
1
  5
431
  6
CONTINUOUS
 62
7
 10
-80.79828
 20
-15.0
 30
15.0
 11
-77.89914
 21
-17.89914
 31
15.0
  0
LINE
  8
1
  5
433
  6
CONTINUOUS
 62
7
 10
-77.89914
 20
-17.89914
 30
0.0
 11
-77.89914
 21
-17.89914
 31
15.0
  0
LINE
  8
1
  5
435
  6
CONTINUOUS
 62
7
 10
-77.89914
 20
-17.89914
 30
0.0
 11
-80.79828
 21
-15.0
 31
0.0
  0
ARC
  8
1
  5
437
  6
CONTINUOUS
 62
7
 10
-75.0
 20
-15.0
 30
15.0
 40
4.1
 50
225.0000444444
 51
44.9999583333
  0
LINE
  8
1
  5
439
  6
CONTINUOUS
 62
7
 10
-72.10086
 20
-12.10086
 30
0.0
 11
-72.10086
 21
-12.10086
 31
15.0
  0
ARC
  8
1
  5
43B
  6
CONTINUOUS
 62
7
 210
0.0
 220
0.0
 230
-1.0
 10
75.0
 20
-15.0
 30
2.328306E-015
 40
4.1
 50
135.0000444444
 51
314.9999583333
  0
LINE
  8
1
  5
43D
  6
CONTINUOUS
 62
7
 10
-72.10086
 20
-12.10086
 30
15.0
 11
-75.0
 21
-9.20172
 31
15.0
  0
LINE
  8
1
  5
43F
  6
CONTINUOUS
 62
7
 10
-75.0
 20
-9.20172
 30
0.0
 11
-75.0
 21
-9.20172
 31
15.0
  0
LINE
  8
1
  5
441
  6
CONTINUOUS
 62
7
 10
-75.0
 20
-9.20172
 30
0.0
 11
-72.10086
 21
-12.10086
 31
0.0
  0
LINE
  8
1
  5
443
  6
CONTINUOUS
 62
7
 10
-75.0
 20
-9.20172
 30
15.0
 11
-75.0
 21
0.0
 31
15.0
  0
LINE
  8
1
  5
445
  6
CONTINUOUS
 62
7
 10
-75.0
 20
0.0
 30
0.0
 11
-75.0
 21
0.0
 31
15.0
  0
LINE
  8
1
  5
447
  6
CONTINUOUS
 62
7
 10
-75.0
 20
0.0
 30
0.0
 11
-75.0
 21
-9.20172
 31
0.0
  0
LINE
  8
1
  5
449
  6
CONTINUOUS
 62
7
 10
-75.0
 20
0.0
 30
15.0
 11
-60.0
 21
0.0
 31
15.0
  0
LINE
  8
1
  5
44B
  6
CONTINUOUS
 62
7
 10
-60.0
 20
0.0
 30
0.0
 11
-60.0
 21
0.0
 31
15.0
  0
LINE
  8
1
  5
44D
  6
CONTINUOUS
 62
7
 10
-60.0
 20
0.0
 30
0.0
 11
-75.0
 21
0.0
 31
0.0
  0
LINE
  8
1
  5
44F
  6
CONTINUOUS
 62
7
 10
-60.0
 20
0.0
 30
15.0
 11
-60.0
 21
-24.20172
 31
15.0
  0
LINE
  8
1
  5
451
  6
CONTINUOUS
 62
7
 10
-60.0
 20
-24.20172
 30
0.0
 11
-60.0
 21
-24.20172
 31
15.0
  0
LINE
  8
1
  5
453
  6
CONTINUOUS
 62
7
 10
-60.0
 20
-24.20172
 30
0.0
 11
-60.0
 21
0.0
 31
0.0
  0
LINE
  8
1
  5
455
  6
CONTINUOUS
 62
7
 10
-60.0
 20
-24.20172
 30
15.0
 11
-62.89914
 21
-27.10086
 31
15.0
  0
LINE
  8
1
  5
457
  6
CONTINUOUS
 62
7
 10
-62.89914
 20
-27.10086
 30
0.0
 11
-62.89914
 21
-27.10086
 31
15.0
  0
LINE
  8
1
  5
459
  6
CONTINUOUS
 62
7
 10
-62.89914
 20
-27.10086
 30
0.0
 11
-60.0
 21
-24.20172
 31
0.0
  0
ARC
  8
1
  5
45B
  6
CONTINUOUS
 62
7
 10
-60.0
 20
-30.0
 30
15.0
 40
4.1
 50
135.0000444444
 51
314.9999583333
  0
LINE
  8
1
  5
45D
  6
CONTINUOUS
 62
7
 10
-57.10086
 20
-32.89914
 30
0.0
 11
-57.10086
 21
-32.89914
 31
15.0
  0
ARC
  8
1
  5
45F
  6
CONTINUOUS
 62
7
 210
0.0
 220
0.0
 230
-1.0
 10
60.0
 20
-30.0
 30
4.656613E-015
 40
4.1
 50
225.0000444444
 51
44.9999583333
  0
LINE
  8
1
  5
461
  6
CONTINUOUS
 62
7
 10
-57.10086
 20
-32.89914
 30
15.0
 11
-54.20172
 21
-30.0
 31
15.0
  0
LINE
  8
1
  5
463
  6
CONTINUOUS
 62
7
 10
-54.20172
 20
-30.0
 30
0.0
 11
-54.20172
 21
-30.0
 31
15.0
  0
LINE
  8
1
  5
465
  6
CONTINUOUS
 62
7
 10
-54.20172
 20
-30.0
 30
0.0
 11
-57.10086
 21
-32.89914
 31
0.0
  0
LINE
  8
1
  5
467
  6
CONTINUOUS
 62
7
 10
-54.20172
 20
-30.0
 30
15.0
 11
-45.0
 21
-30.0
 31
15.0
  0
LINE
  8
1
  5
469
  6
CONTINUOUS
 62
7
 10
-45.0
 20
-30.0
 30
0.0
 11
-45.0
 21
-30.0
 31
15.0
  0
LINE
  8
1
  5
46B
  6
CONTINUOUS
 62
7
 10
-45.0
 20
-30.0
 30
0.0
 11
-54.20172
 21
-30.0
 31
0.0
  0
LINE
  8
1
  5
46D
  6
CONTINUOUS
 62
7
 10
-45.0
 20
-30.0
 30
15.0
 11
-45.0
 21
-45.0
 31
15.0
  0
LINE
  8
1
  5
46F
  6
CONTINUOUS
 62
7
 10
-45.0
 20
-45.0
 30
0.0
 11
-45.0
 21
-45.0
 31
15.0
  0
LINE
  8
1
  5
471
  6
CONTINUOUS
 62
7
 10
-45.0
 20
-45.0
 30
0.0
 11
-45.0
 21
-30.0
 31
0.0
  0
LINE
  8
1
  5
473
  6
CONTINUOUS
 62
7
 10
-45.0
 20
-45.0
 30
15.0
 11
-54.20172
 21
-45.0
 31
15.0
  0
LINE
  8
1
  5
475
  6
CONTINUOUS
 62
7
 10
-54.20172
 20
-45.0
 30
0.0
 11
-54.20172
 21
-45.0
 31
15.0
  0
LINE
  8
1
  5
477
  6
CONTINUOUS
 62
7
 10
-54.20172
 20
-45.0
 30
0.0
 11
-45.0
 21
-45.0
 31
0.0
  0
LINE
  8
1
  5
479
  6
CONTINUOUS
 62
7
 10
-54.20172
 20
-45.0
 30
15.0
 11
-57.10086
 21
-42.10086
 31
15.0
  0
LINE
  8
1
  5
47B
  6
CONTINUOUS
 62
7
 10
-57.10086
 20
-42.10086
 30
0.0
 11
-57.10086
 21
-42.10086
 31
15.0
  0
LINE
  8
1
  5
47D
  6
CONTINUOUS
 62
7
 10
-57.10086
 20
-42.10086
 30
0.0
 11
-54.20172
 21
-45.0
 31
0.0
  0
ARC
  8
1
  5
47F
  6
CONTINUOUS
 62
7
 10
-60.0
 20
-45.0
 30
15.0
 40
4.1
 50
45.0000444444
 51
224.9999583333
  0
LINE
  8
1
  5
481
  6
CONTINUOUS
 62
7
 10
-62.89914
 20
-47.89914
 30
0.0
 11
-62.89914
 21
-47.89914
 31
15.0
  0
ARC
  8
1
  5
483
  6
CONTINUOUS
 62
7
 210
0.0
 220
0.0
 230
-1.0
 10
60.0
 20
-45.0
 30
6.984919E-015
 40
4.1
 50
315.0000444444
 51
134.9999583333
  0
LINE
  8
1
  5
485
  6
CONTINUOUS
 62
7
 10
-62.89914
 20
-47.89914
 30
15.0
 11
-60.0
 21
-50.79828
 31
15.0
  0
LINE
  8
1
  5
487
  6
CONTINUOUS
 62
7
 10
-60.0
 20
-50.79828
 30
0.0
 11
-60.0
 21
-50.79828
 31
15.0
  0
LINE
  8
1
  5
489
  6
CONTINUOUS
 62
7
 10
-60.0
 20
-50.79828
 30
0.0
 11
-62.89914
 21
-47.89914
 31
0.0
  0
LINE
  8
1
  5
48B
  6
CONTINUOUS
 62
7
 10
-60.0
 20
-50.79828
 30
15.0
 11
-60.0
 21
-69.20172
 31
15.0
  0
LINE
  8
1
  5
48D
  6
CONTINUOUS
 62
7
 10
-60.0
 20
-69.20172
 30
0.0
 11
-60.0
 21
-69.20172
 31
15.0
  0
LINE
  8
1
  5
48F
  6
CONTINUOUS
 62
7
 10
-60.0
 20
-69.20172
 30
0.0
 11
-60.0
 21
-50.79828
 31
0.0
  0
LINE
  8
1
  5
491
  6
CONTINUOUS
 62
7
 10
-60.0
 20
-69.20172
 30
15.0
 11
-62.89914
 21
-72.10086
 31
15.0
  0
LINE
  8
1
  5
493
  6
CONTINUOUS
 62
7
 10
-62.89914
 20
-72.10086
 30
0.0
 11
-62.89914
 21
-72.10086
 31
15.0
  0
LINE
  8
1
  5
495
  6
CONTINUOUS
 62
7
 10
-62.89914
 20
-72.10086
 30
0.0
 11
-60.0
 21
-69.20172
 31
0.0
  0
ARC
  8
1
  5
497
  6
CONTINUOUS
 62
7
 10
-60.0
 20
-75.0
 30
15.0
 40
4.1
 50
135.0000444444
 51
314.9999583333
  0
LINE
  8
1
  5
499
  6
CONTINUOUS
 62
7
 10
-57.10086
 20
-77.89914
 30
0.0
 11
-57.10086
 21
-77.89914
 31
15.0
  0
ARC
  8
1
  5
49B
  6
CONTINUOUS
 62
7
 210
0.0
 220
0.0
 230
-1.0
 10
60.0
 20
-75.0
 30
6.984919E-015
 40
4.1
 50
225.0000444444
 51
44.9999583333
  0
LINE
  8
1
  5
49D
  6
CONTINUOUS
 62
7
 10
-57.10086
 20
-77.89914
 30
15.0
 11
-54.20172
 21
-75.0
 31
15.0
  0
LINE
  8
1
  5
49F
  6
CONTINUOUS
 62
7
 10
-54.20172
 20
-75.0
 30
0.0
 11
-54.20172
 21
-75.0
 31
15.0
  0
LINE
  8
1
  5
4A1
  6
CONTINUOUS
 62
7
 10
-54.20172
 20
-75.0
 30
0.0
 11
-57.10086
 21
-77.89914
 31
0.0
  0
LINE
  8
1
  5
4A3
  6
CONTINUOUS
 62
7
 10
-54.20172
 20
-75.0
 30
15.0
 11
-45.0
 21
-75.0
 31
15.0
  0
LINE
  8
1
  5
4A5
  6
CONTINUOUS
 62
7
 10
-45.0
 20
-75.0
 30
0.0
 11
-45.0
 21
-75.0
 31
15.0
  0
LINE
  8
1
  5
4A7
  6
CONTINUOUS
 62
7
 10
-45.0
 20
-75.0
 30
0.0
 11
-54.20172
 21
-75.0
 31
0.0
  0
LINE
  8
1
  5
4A9
  6
CONTINUOUS
 62
7
 10
-45.0
 20
-75.0
 30
15.0
 11
-45.0
 21
-240.0
 31
15.0
  0
LINE
  8
1
  5
4AB
  6
CONTINUOUS
 62
7
 10
-45.0
 20
-240.0
 30
0.0
 11
-45.0
 21
-240.0
 31
15.0
  0
LINE
  8
1
  5
4AD
  6
CONTINUOUS
 62
7
 10
-45.0
 20
-240.0
 30
0.0
 11
-45.0
 21
-75.0
 31
0.0
  0
LINE
  8
1
  5
4AF
  6
CONTINUOUS
 62
7
 10
-45.0
 20
-240.0
 30
15.0
 11
-120.0
 21
-240.0
 31
15.0
  0
LINE
  8
1
  5
4B1
  6
CONTINUOUS
 62
7
 10
-120.0
 20
-240.0
 30
0.0
 11
-120.0
 21
-240.0
 31
15.0
  0
LINE
  8
1
  5
4B3
  6
CONTINUOUS
 62
7
 10
-120.0
 20
-240.0
 30
0.0
 11
-45.0
 21
-240.0
 31
0.0
  0
LINE
  8
1
  5
4B5
  6
CONTINUOUS
 62
7
 10
-120.0
 20
-240.0
 30
15.0
 11
-120.0
 21
-75.0
 31
15.0
  0
LINE
  8
1
  5
4B7
  6
CONTINUOUS
 62
7
 10
-120.0
 20
-75.0
 30
0.0
 11
-120.0
 21
-240.0
 31
0.0
  0
ENDBLK
  8
1
  5
4B8
  0
BLOCK
  8
1
  5
4BA
 70
1
 10
0.0
 20
0.0
 30
0.0
  2
*M4
  3
*M4
  0
LINE
  8
1
  5
4BC
  6
CONTINUOUS
 62
7
 10
-64.1
 20
15.0
 30
0.0
 11
-64.1
 21
15.0
 31
15.0
  0
LINE
  8
1
  5
4BE
  6
CONTINUOUS
 62
7
 10
-60.0
 20
19.1
 30
0.0
 11
-60.0
 21
19.1
 31
15.0
  0
LINE
  8
1
  5
4C0
  6
CONTINUOUS
 62
7
 10
-45.0
 20
19.1
 30
0.0
 11
-45.0
 21
19.1
 31
15.0
  0
LINE
  8
1
  5
4C2
  6
CONTINUOUS
 62
7
 10
-40.9
 20
15.0
 30
0.0
 11
-40.9
 21
15.0
 31
15.0
  0
LINE
  8
1
  5
4C4
  6
CONTINUOUS
 62
7
 10
-34.1
 20
15.0
 30
0.0
 11
-34.1
 21
15.0
 31
15.0
  0
LINE
  8
1
  5
4C6
  6
CONTINUOUS
 62
7
 10
-30.0
 20
19.1
 30
0.0
 11
-30.0
 21
19.1
 31
15.0
  0
LINE
  8
1
  5
4C8
  6
CONTINUOUS
 62
7
 10
-19.1
 20
30.0
 30
0.0
 11
-19.1
 21
30.0
 31
15.0
  0
LINE
  8
1
  5
4CA
  6
CONTINUOUS
 62
7
 10
-15.0
 20
25.9
 30
0.0
 11
-15.0
 21
25.9
 31
15.0
  0
LINE
  8
1
  5
4CC
  6
CONTINUOUS
 62
7
 10
-19.1
 20
45.0
 30
0.0
 11
-19.1
 21
45.0
 31
15.0
  0
LINE
  8
1
  5
4CE
  6
CONTINUOUS
 62
7
 10
-15.0
 20
49.1
 30
0.0
 11
-15.0
 21
49.1
 31
15.0
  0
LINE
  8
1
  5
4D0
  6
CONTINUOUS
 62
7
 10
-34.1
 20
60.0
 30
0.0
 11
-34.1
 21
60.0
 31
15.0
  0
LINE
  8
1
  5
4D2
  6
CONTINUOUS
 62
7
 10
-30.0
 20
55.9
 30
0.0
 11
-30.0
 21
55.9
 31
15.0
  0
LINE
  8
1
  5
4D4
  6
CONTINUOUS
 62
7
 10
-40.9
 20
60.0
 30
0.0
 11
-40.9
 21
60.0
 31
15.0
  0
LINE
  8
1
  5
4D6
  6
CONTINUOUS
 62
7
 10
-45.0
 20
55.9
 30
0.0
 11
-45.0
 21
55.9
 31
15.0
  0
LINE
  8
1
  5
4D8
  6
CONTINUOUS
 62
7
 10
-64.1
 20
60.0
 30
0.0
 11
-64.1
 21
60.0
 31
15.0
  0
LINE
  8
1
  5
4DA
  6
CONTINUOUS
 62
7
 10
-60.0
 20
55.9
 30
0.0
 11
-60.0
 21
55.9
 31
15.0
  0
LINE
  8
1
  5
4DC
  6
CONTINUOUS
 62
7
 10
-60.0
 20
49.1
 30
0.0
 11
-60.0
 21
49.1
 31
15.0
  0
LINE
  8
1
  5
4DE
  6
CONTINUOUS
 62
7
 10
-55.9
 20
45.0
 30
0.0
 11
-55.9
 21
45.0
 31
15.0
  0
LINE
  8
1
  5
4E0
  6
CONTINUOUS
 62
7
 10
-55.9
 20
30.0
 30
0.0
 11
-55.9
 21
30.0
 31
15.0
  0
LINE
  8
1
  5
4E2
  6
CONTINUOUS
 62
7
 10
-60.0
 20
25.9
 30
0.0
 11
-60.0
 21
25.9
 31
15.0
  0
LINE
  8
1
  5
4E4
  6
CONTINUOUS
 62
7
 10
-60.0
 20
0.0
 30
15.0
 11
-60.0
 21
9.20172
 31
15.0
  0
LINE
  8
1
  5
4E6
  6
CONTINUOUS
 62
7
 10
-60.0
 20
9.20172
 30
0.0
 11
-60.0
 21
9.20172
 31
15.0
  0
LINE
  8
1
  5
4E8
  6
CONTINUOUS
 62
7
 10
-60.0
 20
9.20172
 30
0.0
 11
-60.0
 21
0.0
 31
0.0
  0
LINE
  8
1
  5
4EA
  6
CONTINUOUS
 62
7
 10
-60.0
 20
0.0
 30
0.0
 11
-60.0
 21
0.0
 31
15.0
  0
LINE
  8
1
  5
4EC
  6
CONTINUOUS
 62
7
 10
-60.0
 20
9.20172
 30
15.0
 11
-62.89914
 21
12.10086
 31
15.0
  0
LINE
  8
1
  5
4EE
  6
CONTINUOUS
 62
7
 10
-62.89914
 20
12.10086
 30
0.0
 11
-62.89914
 21
12.10086
 31
15.0
  0
LINE
  8
1
  5
4F0
  6
CONTINUOUS
 62
7
 10
-62.89914
 20
12.10086
 30
0.0
 11
-60.0
 21
9.20172
 31
0.0
  0
ARC
  8
1
  5
4F2
  6
CONTINUOUS
 62
7
 210
0.0
 220
0.0
 230
-1.0
 10
60.0
 20
15.0
 30
-15.0
 40
4.1
 50
315.0000444444
 51
134.9999583333
  0
LINE
  8
1
  5
4F4
  6
CONTINUOUS
 62
7
 10
-57.10086
 20
17.89914
 30
0.0
 11
-57.10086
 21
17.89914
 31
15.0
  0
ARC
  8
1
  5
4F6
  6
CONTINUOUS
 62
7
 10
-60.0
 20
15.0
 30
0.0
 40
4.1
 50
45.0000444444
 51
224.9999583333
  0
LINE
  8
1
  5
4F8
  6
CONTINUOUS
 62
7
 10
-57.10086
 20
17.89914
 30
15.0
 11
-54.20172
 21
15.0
 31
15.0
  0
LINE
  8
1
  5
4FA
  6
CONTINUOUS
 62
7
 10
-54.20172
 20
15.0
 30
0.0
 11
-54.20172
 21
15.0
 31
15.0
  0
LINE
  8
1
  5
4FC
  6
CONTINUOUS
 62
7
 10
-54.20172
 20
15.0
 30
0.0
 11
-57.10086
 21
17.89914
 31
0.0
  0
LINE
  8
1
  5
4FE
  6
CONTINUOUS
 62
7
 10
-54.20172
 20
15.0
 30
15.0
 11
-50.79828
 21
15.0
 31
15.0
  0
LINE
  8
1
  5
500
  6
CONTINUOUS
 62
7
 10
-50.79828
 20
15.0
 30
0.0
 11
-50.79828
 21
15.0
 31
15.0
  0
LINE
  8
1
  5
502
  6
CONTINUOUS
 62
7
 10
-50.79828
 20
15.0
 30
0.0
 11
-54.20172
 21
15.0
 31
0.0
  0
LINE
  8
1
  5
504
  6
CONTINUOUS
 62
7
 10
-50.79828
 20
15.0
 30
15.0
 11
-47.89914
 21
17.89914
 31
15.0
  0
LINE
  8
1
  5
506
  6
CONTINUOUS
 62
7
 10
-47.89914
 20
17.89914
 30
0.0
 11
-47.89914
 21
17.89914
 31
15.0
  0
LINE
  8
1
  5
508
  6
CONTINUOUS
 62
7
 10
-47.89914
 20
17.89914
 30
0.0
 11
-50.79828
 21
15.0
 31
0.0
  0
ARC
  8
1
  5
50A
  6
CONTINUOUS
 62
7
 210
0.0
 220
0.0
 230
-1.0
 10
45.0
 20
15.0
 30
-15.0
 40
4.1
 50
45.0000444444
 51
224.9999583333
  0
LINE
  8
1
  5
50C
  6
CONTINUOUS
 62
7
 10
-42.10086
 20
12.10086
 30
0.0
 11
-42.10086
 21
12.10086
 31
15.0
  0
ARC
  8
1
  5
50E
  6
CONTINUOUS
 62
7
 10
-45.0
 20
15.0
 30
0.0
 40
4.1
 50
315.0000444444
 51
134.9999583333
  0
LINE
  8
1
  5
510
  6
CONTINUOUS
 62
7
 10
-42.10086
 20
12.10086
 30
15.0
 11
-45.0
 21
9.20172
 31
15.0
  0
LINE
  8
1
  5
512
  6
CONTINUOUS
 62
7
 10
-45.0
 20
9.20172
 30
0.0
 11
-45.0
 21
9.20172
 31
15.0
  0
LINE
  8
1
  5
514
  6
CONTINUOUS
 62
7
 10
-45.0
 20
9.20172
 30
0.0
 11
-42.10086
 21
12.10086
 31
0.0
  0
LINE
  8
1
  5
516
  6
CONTINUOUS
 62
7
 10
-45.0
 20
9.20172
 30
15.0
 11
-45.0
 21
0.0
 31
15.0
  0
LINE
  8
1
  5
518
  6
CONTINUOUS
 62
7
 10
-45.0
 20
0.0
 30
0.0
 11
-45.0
 21
0.0
 31
15.0
  0
LINE
  8
1
  5
51A
  6
CONTINUOUS
 62
7
 10
-45.0
 20
0.0
 30
0.0
 11
-45.0
 21
9.20172
 31
0.0
  0
LINE
  8
1
  5
51C
  6
CONTINUOUS
 62
7
 10
-45.0
 20
0.0
 30
15.0
 11
-30.0
 21
0.0
 31
15.0
  0
LINE
  8
1
  5
51E
  6
CONTINUOUS
 62
7
 10
-30.0
 20
0.0
 30
0.0
 11
-30.0
 21
0.0
 31
15.0
  0
LINE
  8
1
  5
520
  6
CONTINUOUS
 62
7
 10
-30.0
 20
0.0
 30
0.0
 11
-45.0
 21
0.0
 31
0.0
  0
LINE
  8
1
  5
522
  6
CONTINUOUS
 62
7
 10
-30.0
 20
0.0
 30
15.0
 11
-30.0
 21
9.20172
 31
15.0
  0
LINE
  8
1
  5
524
  6
CONTINUOUS
 62
7
 10
-30.0
 20
9.20172
 30
0.0
 11
-30.0
 21
9.20172
 31
15.0
  0
LINE
  8
1
  5
526
  6
CONTINUOUS
 62
7
 10
-30.0
 20
9.20172
 30
0.0
 11
-30.0
 21
0.0
 31
0.0
  0
LINE
  8
1
  5
528
  6
CONTINUOUS
 62
7
 10
-30.0
 20
9.20172
 30
15.0
 11
-32.89914
 21
12.10086
 31
15.0
  0
LINE
  8
1
  5
52A
  6
CONTINUOUS
 62
7
 10
-32.89914
 20
12.10086
 30
0.0
 11
-32.89914
 21
12.10086
 31
15.0
  0
LINE
  8
1
  5
52C
  6
CONTINUOUS
 62
7
 10
-32.89914
 20
12.10086
 30
0.0
 11
-30.0
 21
9.20172
 31
0.0
  0
ARC
  8
1
  5
52E
  6
CONTINUOUS
 62
7
 210
0.0
 220
0.0
 230
-1.0
 10
30.0
 20
15.0
 30
-15.0
 40
4.1
 50
315.0000444444
 51
134.9999583333
  0
LINE
  8
1
  5
530
  6
CONTINUOUS
 62
7
 10
-27.10086
 20
17.89914
 30
0.0
 11
-27.10086
 21
17.89914
 31
15.0
  0
ARC
  8
1
  5
532
  6
CONTINUOUS
 62
7
 10
-30.0
 20
15.0
 30
0.0
 40
4.1
 50
45.0000444444
 51
224.9999583333
  0
LINE
  8
1
  5
534
  6
CONTINUOUS
 62
7
 10
-27.10086
 20
17.89914
 30
15.0
 11
-24.20172
 21
15.0
 31
15.0
  0
LINE
  8
1
  5
536
  6
CONTINUOUS
 62
7
 10
-24.20172
 20
15.0
 30
0.0
 11
-24.20172
 21
15.0
 31
15.0
  0
LINE
  8
1
  5
538
  6
CONTINUOUS
 62
7
 10
-24.20172
 20
15.0
 30
0.0
 11
-27.10086
 21
17.89914
 31
0.0
  0
LINE
  8
1
  5
53A
  6
CONTINUOUS
 62
7
 10
-24.20172
 20
15.0
 30
15.0
 11
0.0
 21
15.0
 31
15.0
  0
LINE
  8
1
  5
53C
  6
CONTINUOUS
 62
7
 10
0.0
 20
15.0
 30
0.0
 11
0.0
 21
15.0
 31
15.0
  0
LINE
  8
1
  5
53E
  6
CONTINUOUS
 62
7
 10
0.0
 20
15.0
 30
0.0
 11
-24.20172
 21
15.0
 31
0.0
  0
LINE
  8
1
  5
540
  6
CONTINUOUS
 62
7
 10
0.0
 20
15.0
 30
15.0
 11
0.0
 21
30.0
 31
15.0
  0
LINE
  8
1
  5
542
  6
CONTINUOUS
 62
7
 10
0.0
 20
30.0
 30
0.0
 11
0.0
 21
30.0
 31
15.0
  0
LINE
  8
1
  5
544
  6
CONTINUOUS
 62
7
 10
0.0
 20
30.0
 30
0.0
 11
0.0
 21
15.0
 31
0.0
  0
LINE
  8
1
  5
546
  6
CONTINUOUS
 62
7
 10
0.0
 20
30.0
 30
15.0
 11
-9.20172
 21
30.0
 31
15.0
  0
LINE
  8
1
  5
548
  6
CONTINUOUS
 62
7
 10
-9.20172
 20
30.0
 30
0.0
 11
-9.20172
 21
30.0
 31
15.0
  0
LINE
  8
1
  5
54A
  6
CONTINUOUS
 62
7
 10
-9.20172
 20
30.0
 30
0.0
 11
0.0
 21
30.0
 31
0.0
  0
LINE
  8
1
  5
54C
  6
CONTINUOUS
 62
7
 10
-9.20172
 20
30.0
 30
15.0
 11
-12.10086
 21
27.10086
 31
15.0
  0
LINE
  8
1
  5
54E
  6
CONTINUOUS
 62
7
 10
-12.10086
 20
27.10086
 30
0.0
 11
-12.10086
 21
27.10086
 31
15.0
  0
LINE
  8
1
  5
550
  6
CONTINUOUS
 62
7
 10
-12.10086
 20
27.10086
 30
0.0
 11
-9.20172
 21
30.0
 31
0.0
  0
ARC
  8
1
  5
552
  6
CONTINUOUS
 62
7
 210
0.0
 220
0.0
 230
-1.0
 10
15.0
 20
30.0
 30
-15.0
 40
4.1
 50
225.0000444444
 51
44.9999583333
  0
LINE
  8
1
  5
554
  6
CONTINUOUS
 62
7
 10
-17.89914
 20
32.89914
 30
0.0
 11
-17.89914
 21
32.89914
 31
15.0
  0
ARC
  8
1
  5
556
  6
CONTINUOUS
 62
7
 10
-15.0
 20
30.0
 30
0.0
 40
4.1
 50
135.0000444444
 51
314.9999583333
  0
LINE
  8
1
  5
558
  6
CONTINUOUS
 62
7
 10
-17.89914
 20
32.89914
 30
15.0
 11
-15.0
 21
35.79828
 31
15.0
  0
LINE
  8
1
  5
55A
  6
CONTINUOUS
 62
7
 10
-15.0
 20
35.79828
 30
0.0
 11
-15.0
 21
35.79828
 31
15.0
  0
LINE
  8
1
  5
55C
  6
CONTINUOUS
 62
7
 10
-15.0
 20
35.79828
 30
0.0
 11
-17.89914
 21
32.89914
 31
0.0
  0
LINE
  8
1
  5
55E
  6
CONTINUOUS
 62
7
 10
-15.0
 20
35.79828
 30
15.0
 11
-15.0
 21
39.20172
 31
15.0
  0
LINE
  8
1
  5
560
  6
CONTINUOUS
 62
7
 10
-15.0
 20
39.20172
 30
0.0
 11
-15.0
 21
39.20172
 31
15.0
  0
LINE
  8
1
  5
562
  6
CONTINUOUS
 62
7
 10
-15.0
 20
39.20172
 30
0.0
 11
-15.0
 21
35.79828
 31
0.0
  0
LINE
  8
1
  5
564
  6
CONTINUOUS
 62
7
 10
-15.0
 20
39.20172
 30
15.0
 11
-17.89914
 21
42.10086
 31
15.0
  0
LINE
  8
1
  5
566
  6
CONTINUOUS
 62
7
 10
-17.89914
 20
42.10086
 30
0.0
 11
-17.89914
 21
42.10086
 31
15.0
  0
LINE
  8
1
  5
568
  6
CONTINUOUS
 62
7
 10
-17.89914
 20
42.10086
 30
0.0
 11
-15.0
 21
39.20172
 31
0.0
  0
ARC
  8
1
  5
56A
  6
CONTINUOUS
 62
7
 210
0.0
 220
0.0
 230
-1.0
 10
15.0
 20
45.0
 30
-15.0
 40
4.1
 50
315.0000444444
 51
134.9999583333
  0
LINE
  8
1
  5
56C
  6
CONTINUOUS
 62
7
 10
-12.10086
 20
47.89914
 30
0.0
 11
-12.10086
 21
47.89914
 31
15.0
  0
ARC
  8
1
  5
56E
  6
CONTINUOUS
 62
7
 10
-15.0
 20
45.0
 30
0.0
 40
4.1
 50
45.0000444444
 51
224.9999583333
  0
LINE
  8
1
  5
570
  6
CONTINUOUS
 62
7
 10
-12.10086
 20
47.89914
 30
15.0
 11
-9.20172
 21
45.0
 31
15.0
  0
LINE
  8
1
  5
572
  6
CONTINUOUS
 62
7
 10
-9.20172
 20
45.0
 30
0.0
 11
-9.20172
 21
45.0
 31
15.0
  0
LINE
  8
1
  5
574
  6
CONTINUOUS
 62
7
 10
-9.20172
 20
45.0
 30
0.0
 11
-12.10086
 21
47.89914
 31
0.0
  0
LINE
  8
1
  5
576
  6
CONTINUOUS
 62
7
 10
-9.20172
 20
45.0
 30
15.0
 11
0.0
 21
45.0
 31
15.0
  0
LINE
  8
1
  5
578
  6
CONTINUOUS
 62
7
 10
0.0
 20
45.0
 30
0.0
 11
0.0
 21
45.0
 31
15.0
  0
LINE
  8
1
  5
57A
  6
CONTINUOUS
 62
7
 10
0.0
 20
45.0
 30
0.0
 11
-9.20172
 21
45.0
 31
0.0
  0
LINE
  8
1
  5
57C
  6
CONTINUOUS
 62
7
 10
0.0
 20
45.0
 30
15.0
 11
0.0
 21
60.0
 31
15.0
  0
LINE
  8
1
  5
57E
  6
CONTINUOUS
 62
7
 10
0.0
 20
60.0
 30
0.0
 11
0.0
 21
60.0
 31
15.0
  0
LINE
  8
1
  5
580
  6
CONTINUOUS
 62
7
 10
0.0
 20
60.0
 30
0.0
 11
0.0
 21
45.0
 31
0.0
  0
LINE
  8
1
  5
582
  6
CONTINUOUS
 62
7
 10
0.0
 20
60.0
 30
15.0
 11
-24.20172
 21
60.0
 31
15.0
  0
LINE
  8
1
  5
584
  6
CONTINUOUS
 62
7
 10
-24.20172
 20
60.0
 30
0.0
 11
-24.20172
 21
60.0
 31
15.0
  0
LINE
  8
1
  5
586
  6
CONTINUOUS
 62
7
 10
-24.20172
 20
60.0
 30
0.0
 11
0.0
 21
60.0
 31
0.0
  0
LINE
  8
1
  5
588
  6
CONTINUOUS
 62
7
 10
-24.20172
 20
60.0
 30
15.0
 11
-27.10086
 21
57.10086
 31
15.0
  0
LINE
  8
1
  5
58A
  6
CONTINUOUS
 62
7
 10
-27.10086
 20
57.10086
 30
0.0
 11
-27.10086
 21
57.10086
 31
15.0
  0
LINE
  8
1
  5
58C
  6
CONTINUOUS
 62
7
 10
-27.10086
 20
57.10086
 30
0.0
 11
-24.20172
 21
60.0
 31
0.0
  0
ARC
  8
1
  5
58E
  6
CONTINUOUS
 62
7
 210
0.0
 220
0.0
 230
-1.0
 10
30.0
 20
60.0
 30
-15.0
 40
4.1
 50
225.0000444444
 51
44.9999583333
  0
LINE
  8
1
  5
590
  6
CONTINUOUS
 62
7
 10
-32.89914
 20
62.89914
 30
0.0
 11
-32.89914
 21
62.89914
 31
15.0
  0
ARC
  8
1
  5
592
  6
CONTINUOUS
 62
7
 10
-30.0
 20
60.0
 30
0.0
 40
4.1
 50
135.0000444444
 51
314.9999583333
  0
LINE
  8
1
  5
594
  6
CONTINUOUS
 62
7
 10
-32.89914
 20
62.89914
 30
15.0
 11
-30.0
 21
65.79828
 31
15.0
  0
LINE
  8
1
  5
596
  6
CONTINUOUS
 62
7
 10
-30.0
 20
65.79828
 30
0.0
 11
-30.0
 21
65.79828
 31
15.0
  0
LINE
  8
1
  5
598
  6
CONTINUOUS
 62
7
 10
-30.0
 20
65.79828
 30
0.0
 11
-32.89914
 21
62.89914
 31
0.0
  0
LINE
  8
1
  5
59A
  6
CONTINUOUS
 62
7
 10
-30.0
 20
65.79828
 30
15.0
 11
-30.0
 21
75.0
 31
15.0
  0
LINE
  8
1
  5
59C
  6
CONTINUOUS
 62
7
 10
-30.0
 20
75.0
 30
0.0
 11
-30.0
 21
75.0
 31
15.0
  0
LINE
  8
1
  5
59E
  6
CONTINUOUS
 62
7
 10
-30.0
 20
75.0
 30
0.0
 11
-30.0
 21
65.79828
 31
0.0
  0
LINE
  8
1
  5
5A0
  6
CONTINUOUS
 62
7
 10
-30.0
 20
75.0
 30
15.0
 11
-45.0
 21
75.0
 31
15.0
  0
LINE
  8
1
  5
5A2
  6
CONTINUOUS
 62
7
 10
-45.0
 20
75.0
 30
0.0
 11
-45.0
 21
75.0
 31
15.0
  0
LINE
  8
1
  5
5A4
  6
CONTINUOUS
 62
7
 10
-45.0
 20
75.0
 30
0.0
 11
-30.0
 21
75.0
 31
0.0
  0
LINE
  8
1
  5
5A6
  6
CONTINUOUS
 62
7
 10
-45.0
 20
75.0
 30
15.0
 11
-45.0
 21
65.79828
 31
15.0
  0
LINE
  8
1
  5
5A8
  6
CONTINUOUS
 62
7
 10
-45.0
 20
65.79828
 30
0.0
 11
-45.0
 21
65.79828
 31
15.0
  0
LINE
  8
1
  5
5AA
  6
CONTINUOUS
 62
7
 10
-45.0
 20
65.79828
 30
0.0
 11
-45.0
 21
75.0
 31
0.0
  0
LINE
  8
1
  5
5AC
  6
CONTINUOUS
 62
7
 10
-45.0
 20
65.79828
 30
15.0
 11
-42.10086
 21
62.89913
 31
15.0
  0
LINE
  8
1
  5
5AE
  6
CONTINUOUS
 62
7
 10
-42.10086
 20
62.89913
 30
0.0
 11
-42.10086
 21
62.89913
 31
15.0
  0
LINE
  8
1
  5
5B0
  6
CONTINUOUS
 62
7
 10
-42.10086
 20
62.89913
 30
0.0
 11
-45.0
 21
65.79828
 31
0.0
  0
ARC
  8
1
  5
5B2
  6
CONTINUOUS
 62
7
 210
0.0
 220
0.0
 230
-1.0
 10
45.0
 20
60.0
 30
-15.0
 40
4.099996
 50
135.0000944444
 51
314.9999055556
  0
LINE
  8
1
  5
5B4
  6
CONTINUOUS
 62
7
 10
-47.89913
 20
57.10086
 30
0.0
 11
-47.89913
 21
57.10086
 31
15.0
  0
ARC
  8
1
  5
5B6
  6
CONTINUOUS
 62
7
 10
-45.0
 20
60.0
 30
0.0
 40
4.099996
 50
225.0000944444
 51
44.9999055556
  0
LINE
  8
1
  5
5B8
  6
CONTINUOUS
 62
7
 10
-47.89913
 20
57.10086
 30
15.0
 11
-50.79828
 21
60.0
 31
15.0
  0
LINE
  8
1
  5
5BA
  6
CONTINUOUS
 62
7
 10
-50.79828
 20
60.0
 30
0.0
 11
-50.79828
 21
60.0
 31
15.0
  0
LINE
  8
1
  5
5BC
  6
CONTINUOUS
 62
7
 10
-50.79828
 20
60.0
 30
0.0
 11
-47.89913
 21
57.10086
 31
0.0
  0
LINE
  8
1
  5
5BE
  6
CONTINUOUS
 62
7
 10
-50.79828
 20
60.0
 30
15.0
 11
-54.20172
 21
60.0
 31
15.0
  0
LINE
  8
1
  5
5C0
  6
CONTINUOUS
 62
7
 10
-54.20172
 20
60.0
 30
0.0
 11
-54.20172
 21
60.0
 31
15.0
  0
LINE
  8
1
  5
5C2
  6
CONTINUOUS
 62
7
 10
-54.20172
 20
60.0
 30
0.0
 11
-50.79828
 21
60.0
 31
0.0
  0
LINE
  8
1
  5
5C4
  6
CONTINUOUS
 62
7
 10
-54.20172
 20
60.0
 30
15.0
 11
-57.10086
 21
57.10086
 31
15.0
  0
LINE
  8
1
  5
5C6
  6
CONTINUOUS
 62
7
 10
-57.10086
 20
57.10086
 30
0.0
 11
-57.10086
 21
57.10086
 31
15.0
  0
LINE
  8
1
  5
5C8
  6
CONTINUOUS
 62
7
 10
-57.10086
 20
57.10086
 30
0.0
 11
-54.20172
 21
60.0
 31
0.0
  0
ARC
  8
1
  5
5CA
  6
CONTINUOUS
 62
7
 210
0.0
 220
0.0
 230
-1.0
 10
60.0
 20
60.0
 30
-15.0
 40
4.1
 50
225.0000444444
 51
44.9999583333
  0
LINE
  8
1
  5
5CC
  6
CONTINUOUS
 62
7
 10
-62.89914
 20
62.89914
 30
0.0
 11
-62.89914
 21
62.89914
 31
15.0
  0
ARC
  8
1
  5
5CE
  6
CONTINUOUS
 62
7
 10
-60.0
 20
60.0
 30
0.0
 40
4.1
 50
135.0000444444
 51
314.9999583333
  0
LINE
  8
1
  5
5D0
  6
CONTINUOUS
 62
7
 10
-62.89914
 20
62.89914
 30
15.0
 11
-60.0
 21
65.79828
 31
15.0
  0
LINE
  8
1
  5
5D2
  6
CONTINUOUS
 62
7
 10
-60.0
 20
65.79828
 30
0.0
 11
-60.0
 21
65.79828
 31
15.0
  0
LINE
  8
1
  5
5D4
  6
CONTINUOUS
 62
7
 10
-60.0
 20
65.79828
 30
0.0
 11
-62.89914
 21
62.89914
 31
0.0
  0
LINE
  8
1
  5
5D6
  6
CONTINUOUS
 62
7
 10
-60.0
 20
65.79828
 30
15.0
 11
-60.0
 21
75.0
 31
15.0
  0
LINE
  8
1
  5
5D8
  6
CONTINUOUS
 62
7
 10
-60.0
 20
75.0
 30
0.0
 11
-60.0
 21
75.0
 31
15.0
  0
LINE
  8
1
  5
5DA
  6
CONTINUOUS
 62
7
 10
-60.0
 20
75.0
 30
0.0
 11
-60.0
 21
65.79828
 31
0.0
  0
LINE
  8
1
  5
5DC
  6
CONTINUOUS
 62
7
 10
-60.0
 20
75.0
 30
15.0
 11
-240.0
 21
75.0
 31
15.0
  0
LINE
  8
1
  5
5DE
  6
CONTINUOUS
 62
7
 10
-240.0
 20
75.0
 30
0.0
 11
-240.0
 21
75.0
 31
15.0
  0
LINE
  8
1
  5
5E0
  6
CONTINUOUS
 62
7
 10
-240.0
 20
75.0
 30
0.0
 11
-60.0
 21
75.0
 31
0.0
  0
LINE
  8
1
  5
5E2
  6
CONTINUOUS
 62
7
 10
-240.0
 20
75.0
 30
15.0
 11
-240.0
 21
0.0
 31
15.0
  0
LINE
  8
1
  5
5E4
  6
CONTINUOUS
 62
7
 10
-240.0
 20
0.0
 30
0.0
 11
-240.0
 21
0.0
 31
15.0
  0
LINE
  8
1
  5
5E6
  6
CONTINUOUS
 62
7
 10
-240.0
 20
0.0
 30
0.0
 11
-240.0
 21
75.0
 31
0.0
  0
LINE
  8
1
  5
5E8
  6
CONTINUOUS
 62
7
 10
-240.0
 20
0.0
 30
15.0
 11
-60.0
 21
0.0
 31
15.0
  0
LINE
  8
1
  5
5EA
  6
CONTINUOUS
 62
7
 10
-60.0
 20
0.0
 30
0.0
 11
-240.0
 21
0.0
 31
0.0
  0
LINE
  8
1
  5
5EC
  6
CONTINUOUS
 62
7
 10
-75.0
 20
45.0
 30
15.0
 11
-65.79828
 21
45.0
 31
15.0
  0
LINE
  8
1
  5
5EE
  6
CONTINUOUS
 62
7
 10
-65.79828
 20
45.0
 30
0.0
 11
-65.79828
 21
45.0
 31
15.0
  0
LINE
  8
1
  5
5F0
  6
CONTINUOUS
 62
7
 10
-65.79828
 20
45.0
 30
0.0
 11
-75.0
 21
45.0
 31
0.0
  0
LINE
  8
1
  5
5F2
  6
CONTINUOUS
 62
7
 10
-75.0
 20
45.0
 30
0.0
 11
-75.0
 21
45.0
 31
15.0
  0
LINE
  8
1
  5
5F4
  6
CONTINUOUS
 62
7
 10
-65.79828
 20
45.0
 30
15.0
 11
-62.89914
 21
47.89914
 31
15.0
  0
LINE
  8
1
  5
5F6
  6
CONTINUOUS
 62
7
 10
-62.89914
 20
47.89914
 30
0.0
 11
-62.89914
 21
47.89914
 31
15.0
  0
LINE
  8
1
  5
5F8
  6
CONTINUOUS
 62
7
 10
-62.89914
 20
47.89914
 30
0.0
 11
-65.79828
 21
45.0
 31
0.0
  0
ARC
  8
1
  5
5FA
  6
CONTINUOUS
 62
7
 210
0.0
 220
0.0
 230
-1.0
 10
60.0
 20
45.0
 30
-15.0
 40
4.1
 50
45.0000416667
 51
224.9999583333
  0
LINE
  8
1
  5
5FC
  6
CONTINUOUS
 62
7
 10
-57.10086
 20
42.10086
 30
0.0
 11
-57.10086
 21
42.10086
 31
15.0
  0
ARC
  8
1
  5
5FE
  6
CONTINUOUS
 62
7
 10
-60.0
 20
45.0
 30
0.0
 40
4.1
 50
315.0000416667
 51
134.9999583333
  0
LINE
  8
1
  5
600
  6
CONTINUOUS
 62
7
 10
-57.10086
 20
42.10086
 30
15.0
 11
-60.0
 21
39.20172
 31
15.0
  0
LINE
  8
1
  5
602
  6
CONTINUOUS
 62
7
 10
-60.0
 20
39.20172
 30
0.0
 11
-60.0
 21
39.20172
 31
15.0
  0
LINE
  8
1
  5
604
  6
CONTINUOUS
 62
7
 10
-60.0
 20
39.20172
 30
0.0
 11
-57.10086
 21
42.10086
 31
0.0
  0
LINE
  8
1
  5
606
  6
CONTINUOUS
 62
7
 10
-60.0
 20
39.20172
 30
15.0
 11
-60.0
 21
35.79828
 31
15.0
  0
LINE
  8
1
  5
608
  6
CONTINUOUS
 62
7
 10
-60.0
 20
35.79828
 30
0.0
 11
-60.0
 21
35.79828
 31
15.0
  0
LINE
  8
1
  5
60A
  6
CONTINUOUS
 62
7
 10
-60.0
 20
35.79828
 30
0.0
 11
-60.0
 21
39.20172
 31
0.0
  0
LINE
  8
1
  5
60C
  6
CONTINUOUS
 62
7
 10
-60.0
 20
35.79828
 30
15.0
 11
-57.10086
 21
32.89914
 31
15.0
  0
LINE
  8
1
  5
60E
  6
CONTINUOUS
 62
7
 10
-57.10086
 20
32.89914
 30
0.0
 11
-57.10086
 21
32.89914
 31
15.0
  0
LINE
  8
1
  5
610
  6
CONTINUOUS
 62
7
 10
-57.10086
 20
32.89914
 30
0.0
 11
-60.0
 21
35.79828
 31
0.0
  0
ARC
  8
1
  5
612
  6
CONTINUOUS
 62
7
 210
0.0
 220
0.0
 230
-1.0
 10
60.0
 20
30.0
 30
-15.0
 40
4.100003
 50
135.0
 51
315.0
  0
LINE
  8
1
  5
614
  6
CONTINUOUS
 62
7
 10
-62.89914
 20
27.10086
 30
0.0
 11
-62.89914
 21
27.10086
 31
15.0
  0
ARC
  8
1
  5
616
  6
CONTINUOUS
 62
7
 10
-60.0
 20
30.0
 30
0.0
 40
4.100003
 50
225.0
 51
45.0
  0
LINE
  8
1
  5
618
  6
CONTINUOUS
 62
7
 10
-62.89914
 20
27.10086
 30
15.0
 11
-65.79828
 21
30.0
 31
15.0
  0
LINE
  8
1
  5
61A
  6
CONTINUOUS
 62
7
 10
-65.79828
 20
30.0
 30
0.0
 11
-65.79828
 21
30.0
 31
15.0
  0
LINE
  8
1
  5
61C
  6
CONTINUOUS
 62
7
 10
-65.79828
 20
30.0
 30
0.0
 11
-62.89914
 21
27.10086
 31
0.0
  0
LINE
  8
1
  5
61E
  6
CONTINUOUS
 62
7
 10
-65.79828
 20
30.0
 30
15.0
 11
-75.0
 21
30.0
 31
15.0
  0
LINE
  8
1
  5
620
  6
CONTINUOUS
 62
7
 10
-75.0
 20
30.0
 30
0.0
 11
-75.0
 21
30.0
 31
15.0
  0
LINE
  8
1
  5
622
  6
CONTINUOUS
 62
7
 10
-75.0
 20
30.0
 30
0.0
 11
-65.79828
 21
30.0
 31
0.0
  0
LINE
  8
1
  5
624
  6
CONTINUOUS
 62
7
 10
-75.0
 20
30.0
 30
15.0
 11
-75.0
 21
45.0
 31
15.0
  0
LINE
  8
1
  5
626
  6
CONTINUOUS
 62
7
 10
-75.0
 20
45.0
 30
0.0
 11
-75.0
 21
30.0
 31
0.0
  0
ENDBLK
  8
1
  5
627
  0
BLOCK
  8
1
  5
629
 70
1
 10
0.0
 20
0.0
 30
0.0
  2
*M5
  3
*M5
  0
LINE
  8
1
  5
62B
  6
CONTINUOUS
 62
7
 10
-79.1
 20
-105.0
 30
0.0
 11
-79.1
 21
-105.0
 31
15.0
  0
LINE
  8
1
  5
62D
  6
CONTINUOUS
 62
7
 10
-75.0
 20
-100.9
 30
0.0
 11
-75.0
 21
-100.9
 31
15.0
  0
LINE
  8
1
  5
62F
  6
CONTINUOUS
 62
7
 10
-19.1
 20
-90.0
 30
0.0
 11
-19.1
 21
-90.0
 31
15.0
  0
LINE
  8
1
  5
631
  6
CONTINUOUS
 62
7
 10
-15.0
 20
-94.1
 30
0.0
 11
-15.0
 21
-94.1
 31
15.0
  0
LINE
  8
1
  5
633
  6
CONTINUOUS
 62
7
 10
-19.1
 20
-75.0
 30
0.0
 11
-19.1
 21
-75.0
 31
15.0
  0
LINE
  8
1
  5
635
  6
CONTINUOUS
 62
7
 10
-15.0
 20
-70.9
 30
0.0
 11
-15.0
 21
-70.9
 31
15.0
  0
LINE
  8
1
  5
637
  6
CONTINUOUS
 62
7
 10
-34.1
 20
-60.0
 30
0.0
 11
-34.1
 21
-60.0
 31
15.0
  0
LINE
  8
1
  5
639
  6
CONTINUOUS
 62
7
 10
-30.0
 20
-64.1
 30
0.0
 11
-30.0
 21
-64.1
 31
15.0
  0
LINE
  8
1
  5
63B
  6
CONTINUOUS
 62
7
 10
-40.9
 20
-60.0
 30
0.0
 11
-40.9
 21
-60.0
 31
15.0
  0
LINE
  8
1
  5
63D
  6
CONTINUOUS
 62
7
 10
-45.0
 20
-64.1
 30
0.0
 11
-45.0
 21
-64.1
 31
15.0
  0
LINE
  8
1
  5
63F
  6
CONTINUOUS
 62
7
 10
-79.1
 20
-60.0
 30
0.0
 11
-79.1
 21
-60.0
 31
15.0
  0
LINE
  8
1
  5
641
  6
CONTINUOUS
 62
7
 10
-75.0
 20
-64.1
 30
0.0
 11
-75.0
 21
-64.1
 31
15.0
  0
LINE
  8
1
  5
643
  6
CONTINUOUS
 62
7
 10
-75.0
 20
-120.0
 30
15.0
 11
-75.0
 21
-110.79828
 31
15.0
  0
LINE
  8
1
  5
645
  6
CONTINUOUS
 62
7
 10
-75.0
 20
-110.79828
 30
0.0
 11
-75.0
 21
-110.79828
 31
15.0
  0
LINE
  8
1
  5
647
  6
CONTINUOUS
 62
7
 10
-75.0
 20
-110.79828
 30
0.0
 11
-75.0
 21
-120.0
 31
0.0
  0
LINE
  8
1
  5
649
  6
CONTINUOUS
 62
7
 10
-75.0
 20
-120.0
 30
0.0
 11
-75.0
 21
-120.0
 31
15.0
  0
LINE
  8
1
  5
64B
  6
CONTINUOUS
 62
7
 10
-75.0
 20
-110.79828
 30
15.0
 11
-77.89914
 21
-107.89914
 31
15.0
  0
LINE
  8
1
  5
64D
  6
CONTINUOUS
 62
7
 10
-77.89914
 20
-107.89914
 30
0.0
 11
-77.89914
 21
-107.89914
 31
15.0
  0
LINE
  8
1
  5
64F
  6
CONTINUOUS
 62
7
 10
-77.89914
 20
-107.89914
 30
0.0
 11
-75.0
 21
-110.79828
 31
0.0
  0
ARC
  8
1
  5
651
  6
CONTINUOUS
 62
7
 210
0.0
 220
0.0
 230
-1.0
 10
75.0
 20
-105.0
 30
-15.0
 40
4.1
 50
315.0000444444
 51
134.9999583333
  0
LINE
  8
1
  5
653
  6
CONTINUOUS
 62
7
 10
-72.10086
 20
-102.10086
 30
0.0
 11
-72.10086
 21
-102.10086
 31
15.0
  0
ARC
  8
1
  5
655
  6
CONTINUOUS
 62
7
 10
-75.0
 20
-105.0
 30
2.481980E-032
 40
4.1
 50
45.0000444444
 51
224.9999583333
  0
LINE
  8
1
  5
657
  6
CONTINUOUS
 62
7
 10
-72.10086
 20
-102.10086
 30
15.0
 11
-69.20172
 21
-105.0
 31
15.0
  0
LINE
  8
1
  5
659
  6
CONTINUOUS
 62
7
 10
-69.20172
 20
-105.0
 30
0.0
 11
-69.20172
 21
-105.0
 31
15.0
  0
LINE
  8
1
  5
65B
  6
CONTINUOUS
 62
7
 10
-69.20172
 20
-105.0
 30
0.0
 11
-72.10086
 21
-102.10086
 31
0.0
  0
LINE
  8
1
  5
65D
  6
CONTINUOUS
 62
7
 10
-69.20172
 20
-105.0
 30
15.0
 11
0.0
 21
-105.0
 31
15.0
  0
LINE
  8
1
  5
65F
  6
CONTINUOUS
 62
7
 10
0.0
 20
-105.0
 30
0.0
 11
0.0
 21
-105.0
 31
15.0
  0
LINE
  8
1
  5
661
  6
CONTINUOUS
 62
7
 10
0.0
 20
-105.0
 30
0.0
 11
-69.20172
 21
-105.0
 31
0.0
  0
LINE
  8
1
  5
663
  6
CONTINUOUS
 62
7
 10
0.0
 20
-105.0
 30
15.0
 11
0.0
 21
-90.0
 31
15.0
  0
LINE
  8
1
  5
665
  6
CONTINUOUS
 62
7
 10
0.0
 20
-90.0
 30
0.0
 11
0.0
 21
-90.0
 31
15.0
  0
LINE
  8
1
  5
667
  6
CONTINUOUS
 62
7
 10
0.0
 20
-90.0
 30
0.0
 11
0.0
 21
-105.0
 31
0.0
  0
LINE
  8
1
  5
669
  6
CONTINUOUS
 62
7
 10
0.0
 20
-90.0
 30
15.0
 11
-9.20172
 21
-90.0
 31
15.0
  0
LINE
  8
1
  5
66B
  6
CONTINUOUS
 62
7
 10
-9.20172
 20
-90.0
 30
0.0
 11
-9.20172
 21
-90.0
 31
15.0
  0
LINE
  8
1
  5
66D
  6
CONTINUOUS
 62
7
 10
-9.20172
 20
-90.0
 30
0.0
 11
0.0
 21
-90.0
 31
0.0
  0
LINE
  8
1
  5
66F
  6
CONTINUOUS
 62
7
 10
-9.20172
 20
-90.0
 30
15.0
 11
-12.10086
 21
-92.89914
 31
15.0
  0
LINE
  8
1
  5
671
  6
CONTINUOUS
 62
7
 10
-12.10086
 20
-92.89914
 30
0.0
 11
-12.10086
 21
-92.89914
 31
15.0
  0
LINE
  8
1
  5
673
  6
CONTINUOUS
 62
7
 10
-12.10086
 20
-92.89914
 30
0.0
 11
-9.20172
 21
-90.0
 31
0.0
  0
ARC
  8
1
  5
675
  6
CONTINUOUS
 62
7
 210
0.0
 220
0.0
 230
-1.0
 10
15.0
 20
-90.0
 30
-15.0
 40
4.1
 50
225.0000444444
 51
44.9999583333
  0
LINE
  8
1
  5
677
  6
CONTINUOUS
 62
7
 10
-17.89914
 20
-87.10086
 30
0.0
 11
-17.89914
 21
-87.10086
 31
15.0
  0
ARC
  8
1
  5
679
  6
CONTINUOUS
 62
7
 10
-15.0
 20
-90.0
 30
4.361220E-032
 40
4.1
 50
135.0000444444
 51
314.9999583333
  0
LINE
  8
1
  5
67B
  6
CONTINUOUS
 62
7
 10
-17.89914
 20
-87.10086
 30
15.0
 11
-15.0
 21
-84.20172
 31
15.0
  0
LINE
  8
1
  5
67D
  6
CONTINUOUS
 62
7
 10
-15.0
 20
-84.20172
 30
0.0
 11
-15.0
 21
-84.20172
 31
15.0
  0
LINE
  8
1
  5
67F
  6
CONTINUOUS
 62
7
 10
-15.0
 20
-84.20172
 30
0.0
 11
-17.89914
 21
-87.10086
 31
0.0
  0
LINE
  8
1
  5
681
  6
CONTINUOUS
 62
7
 10
-15.0
 20
-84.20172
 30
15.0
 11
-15.0
 21
-80.79828
 31
15.0
  0
LINE
  8
1
  5
683
  6
CONTINUOUS
 62
7
 10
-15.0
 20
-80.79828
 30
0.0
 11
-15.0
 21
-80.79828
 31
15.0
  0
LINE
  8
1
  5
685
  6
CONTINUOUS
 62
7
 10
-15.0
 20
-80.79828
 30
0.0
 11
-15.0
 21
-84.20172
 31
0.0
  0
LINE
  8
1
  5
687
  6
CONTINUOUS
 62
7
 10
-15.0
 20
-80.79828
 30
15.0
 11
-17.89914
 21
-77.89914
 31
15.0
  0
LINE
  8
1
  5
689
  6
CONTINUOUS
 62
7
 10
-17.89914
 20
-77.89914
 30
0.0
 11
-17.89914
 21
-77.89914
 31
15.0
  0
LINE
  8
1
  5
68B
  6
CONTINUOUS
 62
7
 10
-17.89914
 20
-77.89914
 30
0.0
 11
-15.0
 21
-80.79828
 31
0.0
  0
ARC
  8
1
  5
68D
  6
CONTINUOUS
 62
7
 210
0.0
 220
0.0
 230
-1.0
 10
15.0
 20
-75.0
 30
-15.0
 40
4.1
 50
315.0000444444
 51
134.9999583333
  0
LINE
  8
1
  5
68F
  6
CONTINUOUS
 62
7
 10
-12.10086
 20
-72.10086
 30
0.0
 11
-12.10086
 21
-72.10086
 31
15.0
  0
ARC
  8
1
  5
691
  6
CONTINUOUS
 62
7
 10
-15.0
 20
-75.0
 30
4.876568E-032
 40
4.1
 50
45.0000444444
 51
224.9999583333
  0
LINE
  8
1
  5
693
  6
CONTINUOUS
 62
7
 10
-12.10086
 20
-72.10086
 30
15.0
 11
-9.20172
 21
-75.0
 31
15.0
  0
LINE
  8
1
  5
695
  6
CONTINUOUS
 62
7
 10
-9.20172
 20
-75.0
 30
0.0
 11
-9.20172
 21
-75.0
 31
15.0
  0
LINE
  8
1
  5
697
  6
CONTINUOUS
 62
7
 10
-9.20172
 20
-75.0
 30
0.0
 11
-12.10086
 21
-72.10086
 31
0.0
  0
LINE
  8
1
  5
699
  6
CONTINUOUS
 62
7
 10
-9.20172
 20
-75.0
 30
15.0
 11
0.0
 21
-75.0
 31
15.0
  0
LINE
  8
1
  5
69B
  6
CONTINUOUS
 62
7
 10
0.0
 20
-75.0
 30
0.0
 11
0.0
 21
-75.0
 31
15.0
  0
LINE
  8
1
  5
69D
  6
CONTINUOUS
 62
7
 10
0.0
 20
-75.0
 30
0.0
 11
-9.20172
 21
-75.0
 31
0.0
  0
LINE
  8
1
  5
69F
  6
CONTINUOUS
 62
7
 10
0.0
 20
-75.0
 30
15.0
 11
0.0
 21
-60.0
 31
15.0
  0
LINE
  8
1
  5
6A1
  6
CONTINUOUS
 62
7
 10
0.0
 20
-60.0
 30
0.0
 11
0.0
 21
-60.0
 31
15.0
  0
LINE
  8
1
  5
6A3
  6
CONTINUOUS
 62
7
 10
0.0
 20
-60.0
 30
0.0
 11
0.0
 21
-75.0
 31
0.0
  0
LINE
  8
1
  5
6A5
  6
CONTINUOUS
 62
7
 10
0.0
 20
-60.0
 30
15.0
 11
-24.20172
 21
-60.0
 31
15.0
  0
LINE
  8
1
  5
6A7
  6
CONTINUOUS
 62
7
 10
-24.20172
 20
-60.0
 30
0.0
 11
-24.20172
 21
-60.0
 31
15.0
  0
LINE
  8
1
  5
6A9
  6
CONTINUOUS
 62
7
 10
-24.20172
 20
-60.0
 30
0.0
 11
0.0
 21
-60.0
 31
0.0
  0
LINE
  8
1
  5
6AB
  6
CONTINUOUS
 62
7
 10
-24.20172
 20
-60.0
 30
15.0
 11
-27.10086
 21
-62.89914
 31
15.0
  0
LINE
  8
1
  5
6AD
  6
CONTINUOUS
 62
7
 10
-27.10086
 20
-62.89914
 30
0.0
 11
-27.10086
 21
-62.89914
 31
15.0
  0
LINE
  8
1
  5
6AF
  6
CONTINUOUS
 62
7
 10
-27.10086
 20
-62.89914
 30
0.0
 11
-24.20172
 21
-60.0
 31
0.0
  0
ARC
  8
1
  5
6B1
  6
CONTINUOUS
 62
7
 210
0.0
 220
0.0
 230
-1.0
 10
30.0
 20
-60.0
 30
-15.0
 40
4.1
 50
225.0000444444
 51
44.9999583333
  0
LINE
  8
1
  5
6B3
  6
CONTINUOUS
 62
7
 10
-32.89914
 20
-57.10086
 30
0.0
 11
-32.89914
 21
-57.10086
 31
15.0
  0
ARC
  8
1
  5
6B5
  6
CONTINUOUS
 62
7
 10
-30.0
 20
-60.0
 30
5.050943E-032
 40
4.1
 50
135.0000444444
 51
314.9999583333
  0
LINE
  8
1
  5
6B7
  6
CONTINUOUS
 62
7
 10
-32.89914
 20
-57.10086
 30
15.0
 11
-30.0
 21
-54.20172
 31
15.0
  0
LINE
  8
1
  5
6B9
  6
CONTINUOUS
 62
7
 10
-30.0
 20
-54.20172
 30
0.0
 11
-30.0
 21
-54.20172
 31
15.0
  0
LINE
  8
1
  5
6BB
  6
CONTINUOUS
 62
7
 10
-30.0
 20
-54.20172
 30
0.0
 11
-32.89914
 21
-57.10086
 31
0.0
  0
LINE
  8
1
  5
6BD
  6
CONTINUOUS
 62
7
 10
-30.0
 20
-54.20172
 30
15.0
 11
-30.0
 21
-45.0
 31
15.0
  0
LINE
  8
1
  5
6BF
  6
CONTINUOUS
 62
7
 10
-30.0
 20
-45.0
 30
0.0
 11
-30.0
 21
-45.0
 31
15.0
  0
LINE
  8
1
  5
6C1
  6
CONTINUOUS
 62
7
 10
-30.0
 20
-45.0
 30
0.0
 11
-30.0
 21
-54.20172
 31
0.0
  0
LINE
  8
1
  5
6C3
  6
CONTINUOUS
 62
7
 10
-30.0
 20
-45.0
 30
15.0
 11
-45.0
 21
-45.0
 31
15.0
  0
LINE
  8
1
  5
6C5
  6
CONTINUOUS
 62
7
 10
-45.0
 20
-45.0
 30
0.0
 11
-45.0
 21
-45.0
 31
15.0
  0
LINE
  8
1
  5
6C7
  6
CONTINUOUS
 62
7
 10
-45.0
 20
-45.0
 30
0.0
 11
-30.0
 21
-45.0
 31
0.0
  0
LINE
  8
1
  5
6C9
  6
CONTINUOUS
 62
7
 10
-45.0
 20
-45.0
 30
15.0
 11
-45.0
 21
-54.20172
 31
15.0
  0
LINE
  8
1
  5
6CB
  6
CONTINUOUS
 62
7
 10
-45.0
 20
-54.20172
 30
0.0
 11
-45.0
 21
-54.20172
 31
15.0
  0
LINE
  8
1
  5
6CD
  6
CONTINUOUS
 62
7
 10
-45.0
 20
-54.20172
 30
0.0
 11
-45.0
 21
-45.0
 31
0.0
  0
LINE
  8
1
  5
6CF
  6
CONTINUOUS
 62
7
 10
-45.0
 20
-54.20172
 30
15.0
 11
-42.10086
 21
-57.10086
 31
15.0
  0
LINE
  8
1
  5
6D1
  6
CONTINUOUS
 62
7
 10
-42.10086
 20
-57.10086
 30
0.0
 11
-42.10086
 21
-57.10086
 31
15.0
  0
LINE
  8
1
  5
6D3
  6
CONTINUOUS
 62
7
 10
-42.10086
 20
-57.10086
 30
0.0
 11
-45.0
 21
-54.20172
 31
0.0
  0
ARC
  8
1
  5
6D5
  6
CONTINUOUS
 62
7
 210
0.0
 220
0.0
 230
-1.0
 10
45.0
 20
-60.0
 30
-15.0
 40
4.1
 50
135.0000444444
 51
314.9999583333
  0
LINE
  8
1
  5
6D7
  6
CONTINUOUS
 62
7
 10
-47.89914
 20
-62.89914
 30
0.0
 11
-47.89914
 21
-62.89914
 31
15.0
  0
ARC
  8
1
  5
6D9
  6
CONTINUOUS
 62
7
 10
-45.0
 20
-60.0
 30
4.709970E-032
 40
4.1
 50
225.0000444444
 51
44.9999583333
  0
LINE
  8
1
  5
6DB
  6
CONTINUOUS
 62
7
 10
-47.89914
 20
-62.89914
 30
15.0
 11
-50.79828
 21
-60.0
 31
15.0
  0
LINE
  8
1
  5
6DD
  6
CONTINUOUS
 62
7
 10
-50.79828
 20
-60.0
 30
0.0
 11
-50.79828
 21
-60.0
 31
15.0
  0
LINE
  8
1
  5
6DF
  6
CONTINUOUS
 62
7
 10
-50.79828
 20
-60.0
 30
0.0
 11
-47.89914
 21
-62.89914
 31
0.0
  0
LINE
  8
1
  5
6E1
  6
CONTINUOUS
 62
7
 10
-50.79828
 20
-60.0
 30
15.0
 11
-69.20172
 21
-60.0
 31
15.0
  0
LINE
  8
1
  5
6E3
  6
CONTINUOUS
 62
7
 10
-69.20172
 20
-60.0
 30
0.0
 11
-69.20172
 21
-60.0
 31
15.0
  0
LINE
  8
1
  5
6E5
  6
CONTINUOUS
 62
7
 10
-69.20172
 20
-60.0
 30
0.0
 11
-50.79828
 21
-60.0
 31
0.0
  0
LINE
  8
1
  5
6E7
  6
CONTINUOUS
 62
7
 10
-69.20172
 20
-60.0
 30
15.0
 11
-72.10086
 21
-62.89914
 31
15.0
  0
LINE
  8
1
  5
6E9
  6
CONTINUOUS
 62
7
 10
-72.10086
 20
-62.89914
 30
0.0
 11
-72.10086
 21
-62.89914
 31
15.0
  0
LINE
  8
1
  5
6EB
  6
CONTINUOUS
 62
7
 10
-72.10086
 20
-62.89914
 30
0.0
 11
-69.20172
 21
-60.0
 31
0.0
  0
ARC
  8
1
  5
6ED
  6
CONTINUOUS
 62
7
 210
0.0
 220
0.0
 230
-1.0
 10
75.0
 20
-60.0
 30
-15.0
 40
4.1
 50
225.0000444444
 51
44.9999583333
  0
LINE
  8
1
  5
6EF
  6
CONTINUOUS
 62
7
 10
-77.89914
 20
-57.10086
 30
0.0
 11
-77.89914
 21
-57.10086
 31
15.0
  0
ARC
  8
1
  5
6F1
  6
CONTINUOUS
 62
7
 10
-75.0
 20
-60.0
 30
4.028024E-032
 40
4.1
 50
135.0000444444
 51
314.9999583333
  0
LINE
  8
1
  5
6F3
  6
CONTINUOUS
 62
7
 10
-77.89914
 20
-57.10086
 30
15.0
 11
-75.0
 21
-54.20172
 31
15.0
  0
LINE
  8
1
  5
6F5
  6
CONTINUOUS
 62
7
 10
-75.0
 20
-54.20172
 30
0.0
 11
-75.0
 21
-54.20172
 31
15.0
  0
LINE
  8
1
  5
6F7
  6
CONTINUOUS
 62
7
 10
-75.0
 20
-54.20172
 30
0.0
 11
-77.89914
 21
-57.10086
 31
0.0
  0
LINE
  8
1
  5
6F9
  6
CONTINUOUS
 62
7
 10
-75.0
 20
-54.20172
 30
15.0
 11
-75.0
 21
-45.0
 31
15.0
  0
LINE
  8
1
  5
6FB
  6
CONTINUOUS
 62
7
 10
-75.0
 20
-45.0
 30
0.0
 11
-75.0
 21
-45.0
 31
15.0
  0
LINE
  8
1
  5
6FD
  6
CONTINUOUS
 62
7
 10
-75.0
 20
-45.0
 30
0.0
 11
-75.0
 21
-54.20172
 31
0.0
  0
LINE
  8
1
  5
6FF
  6
CONTINUOUS
 62
7
 10
-75.0
 20
-45.0
 30
15.0
 11
-240.0
 21
-45.0
 31
15.0
  0
LINE
  8
1
  5
701
  6
CONTINUOUS
 62
7
 10
-240.0
 20
-45.0
 30
0.0
 11
-240.0
 21
-45.0
 31
15.0
  0
LINE
  8
1
  5
703
  6
CONTINUOUS
 62
7
 10
-240.0
 20
-45.0
 30
0.0
 11
-75.0
 21
-45.0
 31
0.0
  0
LINE
  8
1
  5
705
  6
CONTINUOUS
 62
7
 10
-240.0
 20
-45.0
 30
15.0
 11
-240.0
 21
-120.0
 31
15.0
  0
LINE
  8
1
  5
707
  6
CONTINUOUS
 62
7
 10
-240.0
 20
-120.0
 30
0.0
 11
-240.0
 21
-120.0
 31
15.0
  0
LINE
  8
1
  5
709
  6
CONTINUOUS
 62
7
 10
-240.0
 20
-120.0
 30
0.0
 11
-240.0
 21
-45.0
 31
0.0
  0
LINE
  8
1
  5
70B
  6
CONTINUOUS
 62
7
 10
-240.0
 20
-120.0
 30
15.0
 11
-75.0
 21
-120.0
 31
15.0
  0
LINE
  8
1
  5
70D
  6
CONTINUOUS
 62
7
 10
-75.0
 20
-120.0
 30
0.0
 11
-240.0
 21
-120.0
 31
0.0
  0
ENDBLK
  8
1
  5
70E
  0
ENDSEC
  0
SECTION
  2
ENTITIES
  0
INSERT
  8
1
  5
2
  6
CONTINUOUS
 62
7
  2
*M0
 10
317.54693
 20
-55.57872
 30
0.0
 41
1.0
 42
1.0
 43
1.0
 70
1
 71
1
  0
INSERT
  8
1
  5
4
  6
CONTINUOUS
 62
7
  2
*M1
 10
317.54693
 20
-60.57872
 30
0.0
 41
1.0
 42
1.0
 43
1.0
 70
1
 71
1
  0
INSERT
  8
1
  5
6
  6
CONTINUOUS
 62
7
  2
*M2
 10
67.54693
 20
-105.57872
 30
0.0
 41
1.0
 42
1.0
 43
1.0
 70
1
 71
1
  0
INSERT
  8
1
  5
8
  6
CONTINUOUS
 62
7
  2
*M3
 10
312.54693
 20
-105.57872
 30
0.0
 41
1.0
 42
1.0
 43
1.0
 70
1
 71
1
  0
INSERT
  8
1
  5
A
  6
CONTINUOUS
 62
7
  2
*M4
 10
17.54693
 20
-55.57872
 30
0.0
 41
1.0
 42
1.0
 43
1.0
 70
1
 71
1
  0
INSERT
  8
1
  5
C
  6
CONTINUOUS
 62
7
  2
*M5
 10
17.54693
 20
-60.57872
 30
0.0
 41
1.0
 42
1.0
 43
1.0
 70
1
 71
1
  0
ENDSEC
  0
EOF
