  0
SECTION
  2
HEADER
  9
$ACADVER
  1
AC1009
  9
$INSBASE
 10
0.0
 20
0.0
 30
0.0
  9
$EXTMAX
 10
604.87809
 20
32.11023
 30
64.08375
  9
$EXTMIN
 10
-15.12191
 20
-157.88977
 30
24.08374
  9
$LIMMAX
 10
12.0
 20
9.0
  9
$LIMMIN
 10
0.0
 20
0.0
  9
$ORTHOMODE
 70
0
  9
$REGENMODE
 70
1
  9
$FILLMODE
 70
1
  9
$QTEXTMODE
 70
0
  9
$MIRRTEXT
 70
1
  9
$DRAGMODE
 70
2
  9
$LTSCALE
 40
1.0
  9
$OSMODE
 70
0
  9
$ATTMODE
 70
1
  9
$TEXTSIZE
 40
0.2
  9
$TRACEWID
 40
0.05
  9
$TEXTSTYLE
  7
STANDARD
  9
$CLAYER
  8
0
  9
$CELTYPE
  6
CONTINUOUS
  9
$CECOLOR
 62
256
  9
$DIMSCALE
 40
1.0
  9
$DIMASZ
 40
0.18
  9
$DIMEXO
 40
0.0625
  9
$DIMDLI
 40
0.38
  9
$DIMRND
 40
0.0
  9
$DIMDLE
 40
0.0
  9
$DIMEXE
 40
0.18
  9
$DIMTP
 40
0.0
  9
$DIMTM
 40
0.0
  9
$DIMTXT
 40
0.18
  9
$DIMCEN
 40
0.09
  9
$DIMTSZ
 40
0.0
  9
$DIMTOL
 70
0
  9
$DIMLIM
 70
0
  9
$DIMTIH
 70
1
  9
$DIMTOH
 70
1
  9
$DIMSE1
 70
0
  9
$DIMSE2
 70
0
  9
$DIMTAD
 70
0
  9
$DIMZIN
 70
0
  9
$DIMBLK
  1

  9
$DIMASO
 70
1
  9
$DIMSHO
 70
1
  9
$DIMPOST
  1

  9
$DIMAPOST
  1

  9
$DIMALT
 70
0
  9
$DIMALTD
 70
2
  9
$DIMALTF
 40
25.4
  9
$DIMLFAC
 40
1.0
  9
$DIMTOFL
 70
0
  9
$DIMTVP
 40
0.0
  9
$DIMTIX
 70
0
  9
$DIMSOXD
 70
0
  9
$DIMSAH
 70
0
  9
$DIMBLK1
  1

  9
$DIMBLK2
  1

  9
$DIMSTYLE
  2
*UNNAMED
  9
$DIMCLRD
 70
0
  9
$DIMCLRE
 70
0
  9
$DIMCLRT
 70
0
  9
$DIMTFAC
 40
1.0
  9
$DIMGAP
 40
0.09
  9
$LUNITS
 70
2
  9
$LUPREC
 70
4
  9
$AXISMODE
 70
0
  9
$AXISUNIT
 10
0.0
 20
0.0
  9
$SKETCHINC
 40
0.1
  9
$FILLETRAD
 40
0.0
  9
$AUNITS
 70
0
  9
$AUPREC
 70
0
  9
$MENU
  1
acad
  9
$ELEVATION
 40
0.0
  9
$PELEVATION
 40
0.0
  9
$THICKNESS
 40
0.0
  9
$LIMCHECK
 70
0
  9
$BLIPMODE
 70
1
  9
$CHAMFERA
 40
0.0
  9
$CHAMFERB
 40
0.0
  9
$SKPOLY
 70
0
  9
$TDCREATE
 40
0.0
  9
$TDUPDATE
 40
0.0
  9
$TDINDWG
 40
0.0
  9
$TDUSRTIMER
 40
0.0
  9
$USRTIMER
 70
1
  9
$ANGBASE
 50
0.0
  9
$ANGDIR
 70
0
  9
$PDMODE
 70
0
  9
$PDSIZE
 40
0.0
  9
$PLINEWID
 40
0.0
  9
$COORDS
 70
0
  9
$SPLFRAME
 70
0
  9
$SPLINETYPE
 70
6
  9
$SPLINESEGS
 70
10
  9
$ATTDIA
 70
0
  9
$ATTREQ
 70
1
  9
$HANDLING
 70
1
  9
$HANDSEED
  5
22D
  9
$SURFTAB1
 70
6
  9
$SURFTAB2
 70
6
  9
$SURFTYPE
 70
6
  9
$SURFU
 70
10
  9
$SURFV
 70
10
  9
$UCSNAME
  2

  9
$UCSORG
 10
0.0
 20
0.0
 30
0.0
  9
$UCSXDIR
 10
1.0
 20
0.0
 30
0.0
  9
$UCSYDIR
 10
0.0
 20
1.0
 30
0.0
  9
$PUCSNAME
  2
 
  9
$PUCSORG
 10
0.0
 20
0.0
 30
0.0
  9
$PUCSXDIR
 10
1.0
 20
0.0
 30
0.0
  9
$PUCSYDIR
 10
0.0
 20
1.0
 30
0.0
  9
$USERI1
 70
0
  9
$USERI2
 70
0
  9
$USERI3
 70
0
  9
$USERI4
 70
0
  9
$USERI5
 70
0
  9
$USERR1
 40
0.0
  9
$USERR2
 40
0.0
  9
$USERR3
 40
0.0
  9
$USERR4
 40
0.0
  9
$USERR5
 40
0.0
  9
$WORLDVIEW
 70
1
  9
$SHADEDGE
 70
3
  9
$SHADEDIF
 70
70
  9
$TILEMODE
 70
1
  9
$MAXACTVP
 70
16
  9
$PINSBASE
 10
0.0
 20
0.0
 30
0.0
  9
$PLIMCHECK
 70
0
  9
$PEXTMIN
 10
-1.000000E+020
 20
-1.000000E+020
 30
-1.000000E+020
  9
$PEXTMAX
 10
-1.000000E+020
 20
-1.000000E+020
 30
-1.000000E+020
  9
$PLIMMIN
 10
0.0
 20
0.0
  9
$PLIMMAX
 10
12.0
 20
9.0
  9
$UNITMODE
 70
0
  9
$VISRETAIN
 70
0
  0
ENDSEC
  0
SECTION
  2
TABLES
  0
TABLE
  2
LTYPE
 70
7
  0
LTYPE
  2
CONTINUOUS
 70
64
  3
Solid line
 72
65
 73
0
 40
0.0
  0
LTYPE
  2
DOT
 70
64
  3
. . . . . . . . . . . . . . . . . . . . . . . . . . . . . . . . .
 72
65
 73
2
 40
0.25
 49
0.0
 49
-0.25
  0
LTYPE
  2
HIDDEN
 70
64
  3
__ __ __ __ __ __ __ __ __ __ __ __ __ __ __ __ __ __ __ __ __ 
 72
65
 73
2
 40
0.375
 49
0.25
 49
-0.125
  0
LTYPE
  2
DASHED
 70
64
  3
__ __ __ __ __ __ __ __ __ __ __ __ __ __ __ __ __ __ __ __ __
 72
65
 73
2
 40
0.75
 49
0.5
 49
-0.25
  0
LTYPE
  2
DASHDOT
 70
64
  3
__ . __ . __ . __ . __ . __ . __ . __ . __ . __ . __ . __ . _
 72
65
 73
4
 40
1.0
 49
0.5
 49
-0.25
 49
0.0
 49
-0.25
  0
LTYPE
  2
DIVIDE
 70
64
  3
____ . . ____ . . ____ . . ____ . . ____ . . ____ . . ____ . .
 72
65
 73
6
 40
1.25
 49
0.5
 49
-0.25
 49
0.0
 49
-0.25
 49
0.0
 49
-0.25
  0
LTYPE
  2
CENTER
 70
64
  3
____ _ ____ _ ____ _ ____ _ ____ _ ____ _ ____ _ ____ _ ____ _
 72
65
 73
4
 40
2.0
 49
1.25
 49
-0.25
 49
0.25
 49
-0.25
  0
ENDTAB
  0
TABLE
  2
APPID
 70
1
  0
APPID
  2
ACAD
 70
0
  0
ENDTAB
  0
TABLE
  2
DIMSTYLE
 70
0
  0
ENDTAB
  0
TABLE
  2
LAYER
 70
4
  0
LAYER
  2
0
 70
0
 62
7
  6
CONTINUOUS
  0
LAYER
  2
CONSTRUCTION_CLASS
 70
0
 62
7
  6
CONTINUOUS
  0
LAYER
  2
PATTERN_CLASS
 70
0
 62
7
  6
CONTINUOUS
  0
LAYER
  2
1
 70
0
 62
7
  6
CONTINUOUS
  0
ENDTAB
  0
TABLE
  2
STYLE
 70
1
  0
STYLE
  2
STANDARD
 70
0
 40
0.2
 41
1.0
 50
0.0
 71
0
 42
0.0
  3
txt
  4

  0
ENDTAB
  0
TABLE
  2
UCS
 70
0
  0
ENDTAB
  0
TABLE
  2
VIEW
 70
0
  0
ENDTAB
  0
TABLE
  2
VPORT
 70
4
  0
VPORT
  2
*ACTIVE
 70
0
 10
0.001642
 20
0.50168
 11
0.499179
 21
0.99776
 12
0.0
 22
0.0
 13
0.0
 23
0.0
 14
0.0
 24
0.0
 15
0.0
 25
0.0
 16
0.0
 26
-3.585635E-015
 36
58.5598
 17
263.407305
 27
-62.88977
 37
44.08374
 40
418.55344
 41
1.367946
 42
50.0
 43
29.2799
 44
-29.2799
 50
0.0
 51
0.0
 71
22
 72
100
 73
1
 74
0
 75
0
 76
0
 77
0
 78
0
  0
VPORT
  2
*ACTIVE
 70
0
 10
0.500821
 20
0.50168
 11
0.998358
 21
0.99776
 12
-9.224493E-009
 22
1.363685E-008
 13
0.0
 23
0.0
 14
0.0
 24
0.0
 15
0.0
 25
0.0
 16
-257.392403
 26
-257.392403
 36
257.392403
 17
276.893321
 27
-9.602516
 37
26.88622
 40
354.44922
 41
1.367946
 42
50.0
 43
222.90836
 44
-222.90836
 50
0.0
 51
0.0
 71
22
 72
100
 73
1
 74
0
 75
0
 76
0
 77
0
 78
0
  0
VPORT
  2
*ACTIVE
 70
0
 10
0.001642
 20
0.003359
 11
0.499179
 21
0.49944
 12
0.0
 22
0.0
 13
0.0
 23
0.0
 14
0.0
 24
0.0
 15
0.0
 25
0.0
 16
0.0
 26
-208.5598
 36
0.0
 17
263.407312
 27
-62.88977
 37
44.083745
 40
418.55345
 41
1.367946
 42
50.0
 43
104.2799
 44
-104.2799
 50
0.0
 51
0.0
 71
22
 72
100
 73
1
 74
0
 75
0
 76
0
 77
0
 78
0
  0
VPORT
  2
*ACTIVE
 70
0
 10
0.500821
 20
0.003359
 11
0.998358
 21
0.49944
 12
0.0
 22
0.0
 13
0.0
 23
0.0
 14
0.0
 24
0.0
 15
0.0
 25
0.0
 16
635.5
 26
0.0
 36
0.0
 17
294.87809
 27
-72.939849
 37
44.08374
 40
133.66354
 41
1.367946
 42
50.0
 43
317.75
 44
-317.75
 50
0.0
 51
0.0
 71
22
 72
100
 73
1
 74
0
 75
0
 76
0
 77
0
 78
0
  0
ENDTAB
  0
ENDSEC
  0
SECTION
  2
BLOCKS
  0
BLOCK
  8
1
  5
8
 70
1
 10
0.0
 20
0.0
 30
0.0
  2
*M0
  3
*M0
  0
LINE
  8
1
  5
A
  6
CONTINUOUS
 62
7
 10
-40.0
 20
-91.9
 30
10.0
 11
-27.1
 21
-91.9
 31
10.0
  0
LINE
  8
1
  5
C
  6
CONTINUOUS
 62
7
 10
-40.0
 20
-91.9
 30
10.0
 11
-40.0
 21
-110.0
 31
10.0
  0
LINE
  8
1
  5
E
  6
CONTINUOUS
 62
7
 10
-12.0
 20
-110.0
 30
10.0
 11
-40.0
 21
-110.0
 31
10.0
  0
LINE
  8
1
  5
10
  6
CONTINUOUS
 62
7
 10
-12.0
 20
-110.0
 30
10.0
 11
-12.0
 21
0.0
 31
10.0
  0
LINE
  8
1
  5
12
  6
CONTINUOUS
 62
7
 10
-40.0
 20
0.0
 30
10.0
 11
-12.0
 21
0.0
 31
10.0
  0
LINE
  8
1
  5
14
  6
CONTINUOUS
 62
7
 10
-40.0
 20
0.0
 30
10.0
 11
-40.0
 21
-18.1
 31
10.0
  0
LINE
  8
1
  5
16
  6
CONTINUOUS
 62
7
 10
-27.1
 20
-18.1
 30
10.0
 11
-40.0
 21
-18.1
 31
10.0
  0
ARC
  8
1
  5
18
  6
CONTINUOUS
 62
7
 10
-27.1
 20
-22.2
 30
10.0
 40
4.1
 50
270.0
 51
90.0
  0
LINE
  8
1
  5
1A
  6
CONTINUOUS
 62
7
 10
-35.0
 20
-26.3
 30
10.0
 11
-27.1
 21
-26.3
 31
10.0
  0
LINE
  8
1
  5
1C
  6
CONTINUOUS
 62
7
 10
-35.0
 20
-34.5
 30
10.0
 11
-35.0
 21
-26.3
 31
10.0
  0
LINE
  8
1
  5
1E
  6
CONTINUOUS
 62
7
 10
-27.1
 20
-34.5
 30
10.0
 11
-35.0
 21
-34.5
 31
10.0
  0
ARC
  8
1
  5
20
  6
CONTINUOUS
 62
7
 10
-27.1
 20
-38.6
 30
10.0
 40
4.1
 50
270.0
 51
90.0
  0
LINE
  8
1
  5
22
  6
CONTINUOUS
 62
7
 10
-40.0
 20
-42.7
 30
10.0
 11
-27.1
 21
-42.7
 31
10.0
  0
LINE
  8
1
  5
24
  6
CONTINUOUS
 62
7
 10
-40.0
 20
-42.7
 30
10.0
 11
-40.0
 21
-67.3
 31
10.0
  0
LINE
  8
1
  5
26
  6
CONTINUOUS
 62
7
 10
-27.1
 20
-67.3
 30
10.0
 11
-40.0
 21
-67.3
 31
10.0
  0
ARC
  8
1
  5
28
  6
CONTINUOUS
 62
7
 10
-27.1
 20
-71.4
 30
10.0
 40
4.1
 50
270.0
 51
90.0
  0
LINE
  8
1
  5
2A
  6
CONTINUOUS
 62
7
 10
-35.0
 20
-75.5
 30
10.0
 11
-27.1
 21
-75.5
 31
10.0
  0
LINE
  8
1
  5
2C
  6
CONTINUOUS
 62
7
 10
-35.0
 20
-83.7
 30
10.0
 11
-35.0
 21
-75.5
 31
10.0
  0
LINE
  8
1
  5
2E
  6
CONTINUOUS
 62
7
 10
-27.1
 20
-83.7
 30
10.0
 11
-35.0
 21
-83.7
 31
10.0
  0
ARC
  8
1
  5
30
  6
CONTINUOUS
 62
7
 10
-27.1
 20
-87.8
 30
10.0
 40
4.1
 50
270.0
 51
90.0
  0
LINE
  8
1
  5
32
  6
CONTINUOUS
 62
7
 10
-40.0
 20
-67.3
 30
10.0
 11
-40.0
 21
-67.3
 31
15.0
  0
LINE
  8
1
  5
34
  6
CONTINUOUS
 62
7
 10
-40.0
 20
-42.7
 30
15.0
 11
-40.0
 21
-42.7
 31
10.0
  0
LINE
  8
1
  5
36
  6
CONTINUOUS
 62
7
 10
-40.0
 20
-67.3
 30
15.0
 11
-40.0
 21
-42.7
 31
15.0
  0
LINE
  8
1
  5
38
  6
CONTINUOUS
 62
7
 10
-40.0
 20
0.0
 30
15.0
 11
-40.0
 21
0.0
 31
10.0
  0
LINE
  8
1
  5
3A
  6
CONTINUOUS
 62
7
 10
-40.0
 20
-18.1
 30
15.0
 11
-40.0
 21
0.0
 31
15.0
  0
LINE
  8
1
  5
3C
  6
CONTINUOUS
 62
7
 10
-40.0
 20
-18.1
 30
10.0
 11
-40.0
 21
-18.1
 31
15.0
  0
LINE
  8
1
  5
3E
  6
CONTINUOUS
 62
7
 10
-12.0
 20
-110.0
 30
15.0
 11
-12.0
 21
-110.0
 31
10.0
  0
LINE
  8
1
  5
40
  6
CONTINUOUS
 62
7
 10
-12.0
 20
0.0
 30
15.0
 11
-12.0
 21
-110.0
 31
15.0
  0
LINE
  8
1
  5
42
  6
CONTINUOUS
 62
7
 10
-12.0
 20
0.0
 30
10.0
 11
-12.0
 21
0.0
 31
15.0
  0
LINE
  8
1
  5
44
  6
CONTINUOUS
 62
7
 10
-40.0
 20
-91.9
 30
15.0
 11
-40.0
 21
-91.9
 31
10.0
  0
LINE
  8
1
  5
46
  6
CONTINUOUS
 62
7
 10
-40.0
 20
-110.0
 30
15.0
 11
-40.0
 21
-91.9
 31
15.0
  0
LINE
  8
1
  5
48
  6
CONTINUOUS
 62
7
 10
-40.0
 20
-110.0
 30
10.0
 11
-40.0
 21
-110.0
 31
15.0
  0
ENDBLK
  8
1
  5
49
  0
BLOCK
  8
1
  5
4B
 70
1
 10
0.0
 20
0.0
 30
0.0
  2
*M1
  3
*M1
  0
LINE
  8
1
  5
4D
  6
CONTINUOUS
 62
7
 10
-23.0
 20
-71.4
 30
0.0
 11
-23.0
 21
-71.4
 31
10.0
  0
LINE
  8
1
  5
4F
  6
CONTINUOUS
 62
7
 10
-27.1
 20
-67.3
 30
0.0
 11
-27.1
 21
-67.3
 31
10.0
  0
LINE
  8
1
  5
51
  6
CONTINUOUS
 62
7
 10
-23.0
 20
-38.6
 30
0.0
 11
-23.0
 21
-38.6
 31
10.0
  0
LINE
  8
1
  5
53
  6
CONTINUOUS
 62
7
 10
-27.1
 20
-34.5
 30
0.0
 11
-27.1
 21
-34.5
 31
10.0
  0
LINE
  8
1
  5
55
  6
CONTINUOUS
 62
7
 10
-23.0
 20
-22.2
 30
0.0
 11
-23.0
 21
-22.2
 31
10.0
  0
LINE
  8
1
  5
57
  6
CONTINUOUS
 62
7
 10
-27.1
 20
-18.1
 30
0.0
 11
-27.1
 21
-18.1
 31
10.0
  0
LINE
  8
1
  5
59
  6
CONTINUOUS
 62
7
 10
-23.0
 20
-87.8
 30
0.0
 11
-23.0
 21
-87.8
 31
10.0
  0
LINE
  8
1
  5
5B
  6
CONTINUOUS
 62
7
 10
-27.1
 20
-83.7
 30
0.0
 11
-27.1
 21
-83.7
 31
10.0
  0
LINE
  8
1
  5
5D
  6
CONTINUOUS
 62
7
 10
-62.0
 20
-71.4
 30
0.0
 11
-62.0
 21
-71.4
 31
15.0
  0
LINE
  8
1
  5
5F
  6
CONTINUOUS
 62
7
 10
-57.9
 20
-75.5
 30
0.0
 11
-57.9
 21
-75.5
 31
15.0
  0
LINE
  8
1
  5
61
  6
CONTINUOUS
 62
7
 10
-62.0
 20
-87.8
 30
0.0
 11
-62.0
 21
-87.8
 31
15.0
  0
LINE
  8
1
  5
63
  6
CONTINUOUS
 62
7
 10
-57.9
 20
-91.9
 30
0.0
 11
-57.9
 21
-91.9
 31
15.0
  0
LINE
  8
1
  5
65
  6
CONTINUOUS
 62
7
 10
-62.0
 20
-22.2
 30
0.0
 11
-62.0
 21
-22.2
 31
15.0
  0
LINE
  8
1
  5
67
  6
CONTINUOUS
 62
7
 10
-57.9
 20
-26.3
 30
0.0
 11
-57.9
 21
-26.3
 31
15.0
  0
LINE
  8
1
  5
69
  6
CONTINUOUS
 62
7
 10
-62.0
 20
-38.6
 30
0.0
 11
-62.0
 21
-38.6
 31
15.0
  0
LINE
  8
1
  5
6B
  6
CONTINUOUS
 62
7
 10
-57.9
 20
-42.7
 30
0.0
 11
-57.9
 21
-42.7
 31
15.0
  0
LINE
  8
1
  5
6D
  6
CONTINUOUS
 62
7
 10
-35.0
 20
-75.5
 30
0.0
 11
-35.0
 21
-75.5
 31
10.0
  0
LINE
  8
1
  5
6F
  6
CONTINUOUS
 62
7
 10
-35.0
 20
-75.5
 30
0.0
 11
-35.0
 21
-83.7
 31
0.0
  0
LINE
  8
1
  5
71
  6
CONTINUOUS
 62
7
 10
-35.0
 20
-83.7
 30
0.0
 11
-35.0
 21
-83.7
 31
10.0
  0
LINE
  8
1
  5
73
  6
CONTINUOUS
 62
7
 10
-27.1
 20
-75.5
 30
0.0
 11
-27.1
 21
-75.5
 31
10.0
  0
LINE
  8
1
  5
75
  6
CONTINUOUS
 62
7
 10
-27.1
 20
-75.5
 30
0.0
 11
-35.0
 21
-75.5
 31
0.0
  0
LINE
  8
1
  5
77
  6
CONTINUOUS
 62
7
 10
-27.1
 20
-67.3
 30
0.0
 11
-27.1
 21
-67.3
 31
10.0
  0
ARC
  8
1
  5
79
  6
CONTINUOUS
 62
7
 210
0.0
 220
0.0
 230
-1.0
 10
27.1
 20
-71.4
 30
0.0
 40
4.1
 50
90.0
 51
270.0
  0
LINE
  8
1
  5
7B
  6
CONTINUOUS
 62
7
 10
-40.0
 20
-67.3
 30
15.0
 11
-57.9
 21
-67.3
 31
15.0
  0
LINE
  8
1
  5
7D
  6
CONTINUOUS
 62
7
 10
-57.9
 20
-67.3
 30
0.0
 11
-57.9
 21
-67.3
 31
15.0
  0
LINE
  8
1
  5
7F
  6
CONTINUOUS
 62
7
 10
-57.9
 20
-67.3
 30
0.0
 11
-27.1
 21
-67.3
 31
0.0
  0
LINE
  8
1
  5
81
  6
CONTINUOUS
 62
7
 10
-27.1
 20
-42.7
 30
0.0
 11
-27.1
 21
-42.7
 31
10.0
  0
LINE
  8
1
  5
83
  6
CONTINUOUS
 62
7
 10
-27.1
 20
-42.7
 30
0.0
 11
-57.9
 21
-42.7
 31
0.0
  0
LINE
  8
1
  5
85
  6
CONTINUOUS
 62
7
 10
-57.9
 20
-42.7
 30
0.0
 11
-57.9
 21
-42.7
 31
15.0
  0
LINE
  8
1
  5
87
  6
CONTINUOUS
 62
7
 10
-57.9
 20
-42.7
 30
15.0
 11
-40.0
 21
-42.7
 31
15.0
  0
LINE
  8
1
  5
89
  6
CONTINUOUS
 62
7
 10
-27.1
 20
-34.5
 30
0.0
 11
-27.1
 21
-34.5
 31
10.0
  0
ARC
  8
1
  5
8B
  6
CONTINUOUS
 62
7
 210
0.0
 220
0.0
 230
-1.0
 10
27.1
 20
-38.6
 30
-4.656613E-015
 40
4.1
 50
90.0
 51
270.0
  0
LINE
  8
1
  5
8D
  6
CONTINUOUS
 62
7
 10
-35.0
 20
-34.5
 30
0.0
 11
-35.0
 21
-34.5
 31
10.0
  0
LINE
  8
1
  5
8F
  6
CONTINUOUS
 62
7
 10
-35.0
 20
-34.5
 30
0.0
 11
-27.1
 21
-34.5
 31
0.0
  0
LINE
  8
1
  5
91
  6
CONTINUOUS
 62
7
 10
-35.0
 20
-26.3
 30
0.0
 11
-35.0
 21
-26.3
 31
10.0
  0
LINE
  8
1
  5
93
  6
CONTINUOUS
 62
7
 10
-35.0
 20
-26.3
 30
0.0
 11
-35.0
 21
-34.5
 31
0.0
  0
LINE
  8
1
  5
95
  6
CONTINUOUS
 62
7
 10
-27.1
 20
-26.3
 30
0.0
 11
-27.1
 21
-26.3
 31
10.0
  0
LINE
  8
1
  5
97
  6
CONTINUOUS
 62
7
 10
-27.1
 20
-26.3
 30
0.0
 11
-35.0
 21
-26.3
 31
0.0
  0
LINE
  8
1
  5
99
  6
CONTINUOUS
 62
7
 10
-27.1
 20
-18.1
 30
0.0
 11
-27.1
 21
-18.1
 31
10.0
  0
ARC
  8
1
  5
9B
  6
CONTINUOUS
 62
7
 210
0.0
 220
0.0
 230
-1.0
 10
27.1
 20
-22.2
 30
-4.656613E-015
 40
4.1
 50
90.0
 51
270.0
  0
LINE
  8
1
  5
9D
  6
CONTINUOUS
 62
7
 10
0.0
 20
-110.0
 30
15.0
 11
-12.0
 21
-110.0
 31
15.0
  0
LINE
  8
1
  5
9F
  6
CONTINUOUS
 62
7
 10
0.0
 20
0.0
 30
15.0
 11
0.0
 21
-110.0
 31
15.0
  0
LINE
  8
1
  5
A1
  6
CONTINUOUS
 62
7
 10
-12.0
 20
0.0
 30
15.0
 11
0.0
 21
0.0
 31
15.0
  0
LINE
  8
1
  5
A3
  6
CONTINUOUS
 62
7
 10
-40.0
 20
-18.1
 30
15.0
 11
-57.9
 21
-18.1
 31
15.0
  0
LINE
  8
1
  5
A5
  6
CONTINUOUS
 62
7
 10
-57.9
 20
-18.1
 30
0.0
 11
-57.9
 21
-18.1
 31
15.0
  0
LINE
  8
1
  5
A7
  6
CONTINUOUS
 62
7
 10
-57.9
 20
-18.1
 30
0.0
 11
-27.1
 21
-18.1
 31
0.0
  0
LINE
  8
1
  5
A9
  6
CONTINUOUS
 62
7
 10
0.0
 20
-110.0
 30
0.0
 11
0.0
 21
-110.0
 31
15.0
  0
LINE
  8
1
  5
AB
  6
CONTINUOUS
 62
7
 10
0.0
 20
-110.0
 30
0.0
 11
0.0
 21
0.0
 31
0.0
  0
LINE
  8
1
  5
AD
  6
CONTINUOUS
 62
7
 10
0.0
 20
0.0
 30
0.0
 11
0.0
 21
0.0
 31
15.0
  0
LINE
  8
1
  5
AF
  6
CONTINUOUS
 62
7
 10
-40.0
 20
-110.0
 30
15.0
 11
-240.0
 21
-110.0
 31
15.0
  0
LINE
  8
1
  5
B1
  6
CONTINUOUS
 62
7
 10
-240.0
 20
-110.0
 30
0.0
 11
-240.0
 21
-110.0
 31
15.0
  0
LINE
  8
1
  5
B3
  6
CONTINUOUS
 62
7
 10
-240.0
 20
-110.0
 30
0.0
 11
0.0
 21
-110.0
 31
0.0
  0
LINE
  8
1
  5
B5
  6
CONTINUOUS
 62
7
 10
-240.0
 20
-110.0
 30
15.0
 11
-240.0
 21
0.0
 31
15.0
  0
LINE
  8
1
  5
B7
  6
CONTINUOUS
 62
7
 10
-240.0
 20
0.0
 30
0.0
 11
-240.0
 21
0.0
 31
15.0
  0
LINE
  8
1
  5
B9
  6
CONTINUOUS
 62
7
 10
-240.0
 20
0.0
 30
0.0
 11
-240.0
 21
-110.0
 31
0.0
  0
LINE
  8
1
  5
BB
  6
CONTINUOUS
 62
7
 10
0.0
 20
0.0
 30
0.0
 11
-240.0
 21
0.0
 31
0.0
  0
LINE
  8
1
  5
BD
  6
CONTINUOUS
 62
7
 10
-240.0
 20
0.0
 30
15.0
 11
-40.0
 21
0.0
 31
15.0
  0
LINE
  8
1
  5
BF
  6
CONTINUOUS
 62
7
 10
-27.1
 20
-91.9
 30
0.0
 11
-27.1
 21
-91.9
 31
10.0
  0
LINE
  8
1
  5
C1
  6
CONTINUOUS
 62
7
 10
-27.1
 20
-91.9
 30
0.0
 11
-57.9
 21
-91.9
 31
0.0
  0
LINE
  8
1
  5
C3
  6
CONTINUOUS
 62
7
 10
-57.9
 20
-91.9
 30
0.0
 11
-57.9
 21
-91.9
 31
15.0
  0
LINE
  8
1
  5
C5
  6
CONTINUOUS
 62
7
 10
-57.9
 20
-91.9
 30
15.0
 11
-40.0
 21
-91.9
 31
15.0
  0
LINE
  8
1
  5
C7
  6
CONTINUOUS
 62
7
 10
-27.1
 20
-83.7
 30
0.0
 11
-27.1
 21
-83.7
 31
10.0
  0
ARC
  8
1
  5
C9
  6
CONTINUOUS
 62
7
 210
0.0
 220
0.0
 230
-1.0
 10
27.1
 20
-87.8
 30
-9.313226E-015
 40
4.1
 50
90.0
 51
270.0
  0
LINE
  8
1
  5
CB
  6
CONTINUOUS
 62
7
 10
-35.0
 20
-83.7
 30
0.0
 11
-27.1
 21
-83.7
 31
0.0
  0
ARC
  8
1
  5
CD
  6
CONTINUOUS
 62
7
 10
-57.9
 20
-71.4
 30
15.0
 40
4.1
 50
90.0
 51
270.0
  0
LINE
  8
1
  5
CF
  6
CONTINUOUS
 62
7
 10
-57.9
 20
-75.5
 30
0.0
 11
-57.9
 21
-75.5
 31
15.0
  0
ARC
  8
1
  5
D1
  6
CONTINUOUS
 62
7
 210
0.0
 220
0.0
 230
-1.0
 10
57.9
 20
-71.4
 30
4.656613E-015
 40
4.1
 50
270.0
 51
90.0
  0
LINE
  8
1
  5
D3
  6
CONTINUOUS
 62
7
 10
-57.9
 20
-75.5
 30
15.0
 11
-50.0
 21
-75.5
 31
15.0
  0
LINE
  8
1
  5
D5
  6
CONTINUOUS
 62
7
 10
-50.0
 20
-75.5
 30
0.0
 11
-50.0
 21
-75.5
 31
15.0
  0
LINE
  8
1
  5
D7
  6
CONTINUOUS
 62
7
 10
-50.0
 20
-75.5
 30
0.0
 11
-57.9
 21
-75.5
 31
0.0
  0
LINE
  8
1
  5
D9
  6
CONTINUOUS
 62
7
 10
-50.0
 20
-75.5
 30
15.0
 11
-50.0
 21
-83.7
 31
15.0
  0
LINE
  8
1
  5
DB
  6
CONTINUOUS
 62
7
 10
-50.0
 20
-83.7
 30
0.0
 11
-50.0
 21
-83.7
 31
15.0
  0
LINE
  8
1
  5
DD
  6
CONTINUOUS
 62
7
 10
-50.0
 20
-83.7
 30
0.0
 11
-50.0
 21
-75.5
 31
0.0
  0
LINE
  8
1
  5
DF
  6
CONTINUOUS
 62
7
 10
-50.0
 20
-83.7
 30
15.0
 11
-57.9
 21
-83.7
 31
15.0
  0
LINE
  8
1
  5
E1
  6
CONTINUOUS
 62
7
 10
-57.9
 20
-83.7
 30
0.0
 11
-57.9
 21
-83.7
 31
15.0
  0
LINE
  8
1
  5
E3
  6
CONTINUOUS
 62
7
 10
-57.9
 20
-83.7
 30
0.0
 11
-50.0
 21
-83.7
 31
0.0
  0
ARC
  8
1
  5
E5
  6
CONTINUOUS
 62
7
 10
-57.9
 20
-87.8
 30
15.0
 40
4.1
 50
90.0
 51
270.0
  0
ARC
  8
1
  5
E7
  6
CONTINUOUS
 62
7
 210
0.0
 220
0.0
 230
-1.0
 10
57.9
 20
-87.8
 30
4.656613E-015
 40
4.1
 50
270.0
 51
90.0
  0
ARC
  8
1
  5
E9
  6
CONTINUOUS
 62
7
 10
-57.9
 20
-22.2
 30
15.0
 40
4.1
 50
90.0
 51
270.0
  0
LINE
  8
1
  5
EB
  6
CONTINUOUS
 62
7
 10
-57.9
 20
-26.3
 30
0.0
 11
-57.9
 21
-26.3
 31
15.0
  0
ARC
  8
1
  5
ED
  6
CONTINUOUS
 62
7
 210
0.0
 220
0.0
 230
-1.0
 10
57.9
 20
-22.2
 30
9.313226E-015
 40
4.1
 50
270.0
 51
90.0
  0
LINE
  8
1
  5
EF
  6
CONTINUOUS
 62
7
 10
-57.9
 20
-26.3
 30
15.0
 11
-50.0
 21
-26.3
 31
15.0
  0
LINE
  8
1
  5
F1
  6
CONTINUOUS
 62
7
 10
-50.0
 20
-26.3
 30
0.0
 11
-50.0
 21
-26.3
 31
15.0
  0
LINE
  8
1
  5
F3
  6
CONTINUOUS
 62
7
 10
-50.0
 20
-26.3
 30
0.0
 11
-57.9
 21
-26.3
 31
0.0
  0
LINE
  8
1
  5
F5
  6
CONTINUOUS
 62
7
 10
-50.0
 20
-26.3
 30
15.0
 11
-50.0
 21
-34.5
 31
15.0
  0
LINE
  8
1
  5
F7
  6
CONTINUOUS
 62
7
 10
-50.0
 20
-34.5
 30
0.0
 11
-50.0
 21
-34.5
 31
15.0
  0
LINE
  8
1
  5
F9
  6
CONTINUOUS
 62
7
 10
-50.0
 20
-34.5
 30
0.0
 11
-50.0
 21
-26.3
 31
0.0
  0
LINE
  8
1
  5
FB
  6
CONTINUOUS
 62
7
 10
-50.0
 20
-34.5
 30
15.0
 11
-57.9
 21
-34.5
 31
15.0
  0
LINE
  8
1
  5
FD
  6
CONTINUOUS
 62
7
 10
-57.9
 20
-34.5
 30
0.0
 11
-57.9
 21
-34.5
 31
15.0
  0
LINE
  8
1
  5
FF
  6
CONTINUOUS
 62
7
 10
-57.9
 20
-34.5
 30
0.0
 11
-50.0
 21
-34.5
 31
0.0
  0
ARC
  8
1
  5
101
  6
CONTINUOUS
 62
7
 10
-57.9
 20
-38.6
 30
15.0
 40
4.1
 50
90.0
 51
270.0
  0
ARC
  8
1
  5
103
  6
CONTINUOUS
 62
7
 210
0.0
 220
0.0
 230
-1.0
 10
57.9
 20
-38.6
 30
0.0
 40
4.1
 50
270.0
 51
90.0
  0
ENDBLK
  8
1
  5
104
  0
BLOCK
  8
1
  5
106
 70
1
 10
0.0
 20
0.0
 30
0.0
  2
*M2
  3
*M2
  0
INSERT
  8
1
  5
108
  6
CONTINUOUS
 62
7
  2
*M0
 10
0.0
 20
0.0
 30
0.0
 41
1.0
 42
1.0
 43
1.0
 70
1
 71
1
  0
INSERT
  8
1
  5
10A
  6
CONTINUOUS
 62
7
  2
*M1
 10
0.0
 20
0.0
 30
0.0
 41
1.0
 42
1.0
 43
1.0
 70
1
 71
1
  0
ENDBLK
  8
1
  5
10B
  0
BLOCK
  8
1
  5
10D
 70
1
 10
0.0
 20
0.0
 30
0.0
  2
*M3
  3
*M3
  0
LINE
  8
1
  5
10F
  6
CONTINUOUS
 62
7
 10
52.0
 20
-97.02437
 30
15.0
 11
52.0
 21
-97.02437
 31
10.0
  0
LINE
  8
1
  5
111
  6
CONTINUOUS
 62
7
 10
52.0
 20
-72.42437
 30
15.0
 11
52.0
 21
-97.02437
 31
15.0
  0
LINE
  8
1
  5
113
  6
CONTINUOUS
 62
7
 10
52.0
 20
-72.42437
 30
10.0
 11
52.0
 21
-72.42437
 31
15.0
  0
LINE
  8
1
  5
115
  6
CONTINUOUS
 62
7
 10
52.0
 20
-97.02437
 30
10.0
 11
52.0
 21
-72.42437
 31
10.0
  0
LINE
  8
1
  5
117
  6
CONTINUOUS
 62
7
 10
12.0
 20
-97.02437
 30
10.0
 11
12.0
 21
-97.02437
 31
15.0
  0
LINE
  8
1
  5
119
  6
CONTINUOUS
 62
7
 10
12.0
 20
-72.42437
 30
10.0
 11
12.0
 21
-97.02437
 31
10.0
  0
LINE
  8
1
  5
11B
  6
CONTINUOUS
 62
7
 10
12.0
 20
-72.42437
 30
15.0
 11
12.0
 21
-72.42437
 31
10.0
  0
LINE
  8
1
  5
11D
  6
CONTINUOUS
 62
7
 10
12.0
 20
-97.02437
 30
15.0
 11
12.0
 21
-72.42437
 31
15.0
  0
LINE
  8
1
  5
11F
  6
CONTINUOUS
 62
7
 10
12.0
 20
-146.22437
 30
10.0
 11
12.0
 21
-146.22437
 31
15.0
  0
LINE
  8
1
  5
121
  6
CONTINUOUS
 62
7
 10
12.0
 20
-121.62437
 30
10.0
 11
12.0
 21
-146.22437
 31
10.0
  0
LINE
  8
1
  5
123
  6
CONTINUOUS
 62
7
 10
12.0
 20
-121.62437
 30
15.0
 11
12.0
 21
-121.62437
 31
10.0
  0
LINE
  8
1
  5
125
  6
CONTINUOUS
 62
7
 10
12.0
 20
-146.22437
 30
15.0
 11
12.0
 21
-121.62437
 31
15.0
  0
LINE
  8
1
  5
127
  6
CONTINUOUS
 62
7
 10
52.0
 20
-97.02437
 30
10.0
 11
12.0
 21
-97.02437
 31
10.0
  0
LINE
  8
1
  5
129
  6
CONTINUOUS
 62
7
 10
12.0
 20
-72.42437
 30
10.0
 11
52.0
 21
-72.42437
 31
10.0
  0
LINE
  8
1
  5
12B
  6
CONTINUOUS
 62
7
 10
52.0
 20
-146.22437
 30
10.0
 11
12.0
 21
-146.22437
 31
10.0
  0
LINE
  8
1
  5
12D
  6
CONTINUOUS
 62
7
 10
52.0
 20
-146.22437
 30
10.0
 11
52.0
 21
-121.62437
 31
10.0
  0
LINE
  8
1
  5
12F
  6
CONTINUOUS
 62
7
 10
12.0
 20
-121.62437
 30
10.0
 11
52.0
 21
-121.62437
 31
10.0
  0
LINE
  8
1
  5
131
  6
CONTINUOUS
 62
7
 10
52.0
 20
-146.22437
 30
15.0
 11
52.0
 21
-146.22437
 31
10.0
  0
LINE
  8
1
  5
133
  6
CONTINUOUS
 62
7
 10
52.0
 20
-121.62437
 30
15.0
 11
52.0
 21
-146.22437
 31
15.0
  0
LINE
  8
1
  5
135
  6
CONTINUOUS
 62
7
 10
52.0
 20
-121.62437
 30
10.0
 11
52.0
 21
-121.62437
 31
15.0
  0
ENDBLK
  8
1
  5
136
  0
BLOCK
  8
1
  5
138
 70
1
 10
0.0
 20
0.0
 30
0.0
  2
*M4
  3
*M4
  0
LINE
  8
1
  5
13A
  6
CONTINUOUS
 62
7
 10
69.9
 20
-146.22437
 30
0.0
 11
69.9
 21
-146.22437
 31
15.0
  0
LINE
  8
1
  5
13C
  6
CONTINUOUS
 62
7
 10
74.0
 20
-150.32437
 30
0.0
 11
74.0
 21
-150.32437
 31
15.0
  0
LINE
  8
1
  5
13E
  6
CONTINUOUS
 62
7
 10
69.9
 20
-113.42437
 30
0.0
 11
69.9
 21
-113.42437
 31
15.0
  0
LINE
  8
1
  5
140
  6
CONTINUOUS
 62
7
 10
74.0
 20
-117.52437
 30
0.0
 11
74.0
 21
-117.52437
 31
15.0
  0
LINE
  8
1
  5
142
  6
CONTINUOUS
 62
7
 10
69.9
 20
-97.02437
 30
0.0
 11
69.9
 21
-97.02437
 31
15.0
  0
LINE
  8
1
  5
144
  6
CONTINUOUS
 62
7
 10
74.0
 20
-101.12437
 30
0.0
 11
74.0
 21
-101.12437
 31
15.0
  0
LINE
  8
1
  5
146
  6
CONTINUOUS
 62
7
 10
69.9
 20
-64.22437
 30
0.0
 11
69.9
 21
-64.22437
 31
15.0
  0
LINE
  8
1
  5
148
  6
CONTINUOUS
 62
7
 10
74.0
 20
-68.32437
 30
0.0
 11
74.0
 21
-68.32437
 31
15.0
  0
LINE
  8
1
  5
14A
  6
CONTINUOUS
 62
7
 10
12.0
 20
-146.22437
 30
15.0
 11
0.0
 21
-146.22437
 31
15.0
  0
LINE
  8
1
  5
14C
  6
CONTINUOUS
 62
7
 10
0.0
 20
-146.22437
 30
0.0
 11
0.0
 21
-146.22437
 31
15.0
  0
LINE
  8
1
  5
14E
  6
CONTINUOUS
 62
7
 10
0.0
 20
-146.22437
 30
0.0
 11
69.9
 21
-146.22437
 31
0.0
  0
LINE
  8
1
  5
150
  6
CONTINUOUS
 62
7
 10
69.9
 20
-146.22437
 30
0.0
 11
69.9
 21
-146.22437
 31
15.0
  0
LINE
  8
1
  5
152
  6
CONTINUOUS
 62
7
 10
69.9
 20
-146.22437
 30
15.0
 11
52.0
 21
-146.22437
 31
15.0
  0
LINE
  8
1
  5
154
  6
CONTINUOUS
 62
7
 10
12.0
 20
-97.02437
 30
15.0
 11
0.0
 21
-97.02437
 31
15.0
  0
LINE
  8
1
  5
156
  6
CONTINUOUS
 62
7
 10
0.0
 20
-97.02437
 30
0.0
 11
0.0
 21
-97.02437
 31
15.0
  0
LINE
  8
1
  5
158
  6
CONTINUOUS
 62
7
 10
0.0
 20
-97.02437
 30
0.0
 11
69.9
 21
-97.02437
 31
0.0
  0
LINE
  8
1
  5
15A
  6
CONTINUOUS
 62
7
 10
69.9
 20
-97.02437
 30
0.0
 11
69.9
 21
-97.02437
 31
15.0
  0
LINE
  8
1
  5
15C
  6
CONTINUOUS
 62
7
 10
69.9
 20
-97.02437
 30
15.0
 11
52.0
 21
-97.02437
 31
15.0
  0
LINE
  8
1
  5
15E
  6
CONTINUOUS
 62
7
 10
0.0
 20
-72.42437
 30
15.0
 11
12.0
 21
-72.42437
 31
15.0
  0
LINE
  8
1
  5
160
  6
CONTINUOUS
 62
7
 10
0.0
 20
-97.02437
 30
15.0
 11
0.0
 21
-72.42437
 31
15.0
  0
LINE
  8
1
  5
162
  6
CONTINUOUS
 62
7
 10
0.0
 20
-121.62437
 30
15.0
 11
12.0
 21
-121.62437
 31
15.0
  0
LINE
  8
1
  5
164
  6
CONTINUOUS
 62
7
 10
0.0
 20
-146.22437
 30
15.0
 11
0.0
 21
-121.62437
 31
15.0
  0
LINE
  8
1
  5
166
  6
CONTINUOUS
 62
7
 10
62.0
 20
-164.32437
 30
15.0
 11
62.0
 21
-154.42437
 31
15.0
  0
LINE
  8
1
  5
168
  6
CONTINUOUS
 62
7
 10
62.0
 20
-154.42437
 30
0.0
 11
62.0
 21
-154.42437
 31
15.0
  0
LINE
  8
1
  5
16A
  6
CONTINUOUS
 62
7
 10
62.0
 20
-154.42437
 30
0.0
 11
62.0
 21
-164.32437
 31
0.0
  0
LINE
  8
1
  5
16C
  6
CONTINUOUS
 62
7
 10
62.0
 20
-164.32437
 30
0.0
 11
62.0
 21
-164.32437
 31
15.0
  0
LINE
  8
1
  5
16E
  6
CONTINUOUS
 62
7
 10
62.0
 20
-154.42437
 30
15.0
 11
69.9
 21
-154.42437
 31
15.0
  0
LINE
  8
1
  5
170
  6
CONTINUOUS
 62
7
 10
69.9
 20
-154.42437
 30
0.0
 11
69.9
 21
-154.42437
 31
15.0
  0
LINE
  8
1
  5
172
  6
CONTINUOUS
 62
7
 10
69.9
 20
-154.42437
 30
0.0
 11
62.0
 21
-154.42437
 31
0.0
  0
ARC
  8
1
  5
174
  6
CONTINUOUS
 62
7
 10
69.9
 20
-150.32437
 30
15.0
 40
4.1
 50
270.0
 51
90.0
  0
ARC
  8
1
  5
176
  6
CONTINUOUS
 62
7
 210
0.0
 220
0.0
 230
-1.0
 10
-69.9
 20
-150.32437
 30
0.0
 40
4.1
 50
90.0
 51
270.0
  0
LINE
  8
1
  5
178
  6
CONTINUOUS
 62
7
 10
0.0
 20
-121.62437
 30
0.0
 11
0.0
 21
-121.62437
 31
15.0
  0
LINE
  8
1
  5
17A
  6
CONTINUOUS
 62
7
 10
0.0
 20
-121.62437
 30
0.0
 11
0.0
 21
-146.22437
 31
0.0
  0
LINE
  8
1
  5
17C
  6
CONTINUOUS
 62
7
 10
52.0
 20
-121.62437
 30
15.0
 11
69.9
 21
-121.62437
 31
15.0
  0
LINE
  8
1
  5
17E
  6
CONTINUOUS
 62
7
 10
69.9
 20
-121.62437
 30
0.0
 11
69.9
 21
-121.62437
 31
15.0
  0
LINE
  8
1
  5
180
  6
CONTINUOUS
 62
7
 10
69.9
 20
-121.62437
 30
0.0
 11
0.0
 21
-121.62437
 31
0.0
  0
ARC
  8
1
  5
182
  6
CONTINUOUS
 62
7
 10
69.9
 20
-117.52437
 30
15.0
 40
4.1
 50
270.0
 51
90.0
  0
LINE
  8
1
  5
184
  6
CONTINUOUS
 62
7
 10
69.9
 20
-113.42437
 30
0.0
 11
69.9
 21
-113.42437
 31
15.0
  0
ARC
  8
1
  5
186
  6
CONTINUOUS
 62
7
 210
0.0
 220
0.0
 230
-1.0
 10
-69.9
 20
-117.52437
 30
0.0
 40
4.1
 50
90.0
 51
270.0
  0
LINE
  8
1
  5
188
  6
CONTINUOUS
 62
7
 10
69.9
 20
-113.42437
 30
15.0
 11
62.0
 21
-113.42437
 31
15.0
  0
LINE
  8
1
  5
18A
  6
CONTINUOUS
 62
7
 10
62.0
 20
-113.42437
 30
0.0
 11
62.0
 21
-113.42437
 31
15.0
  0
LINE
  8
1
  5
18C
  6
CONTINUOUS
 62
7
 10
62.0
 20
-113.42437
 30
0.0
 11
69.9
 21
-113.42437
 31
0.0
  0
LINE
  8
1
  5
18E
  6
CONTINUOUS
 62
7
 10
62.0
 20
-113.42437
 30
15.0
 11
62.0
 21
-105.22437
 31
15.0
  0
LINE
  8
1
  5
190
  6
CONTINUOUS
 62
7
 10
62.0
 20
-105.22437
 30
0.0
 11
62.0
 21
-105.22437
 31
15.0
  0
LINE
  8
1
  5
192
  6
CONTINUOUS
 62
7
 10
62.0
 20
-105.22437
 30
0.0
 11
62.0
 21
-113.42437
 31
0.0
  0
LINE
  8
1
  5
194
  6
CONTINUOUS
 62
7
 10
62.0
 20
-105.22437
 30
15.0
 11
69.9
 21
-105.22437
 31
15.0
  0
LINE
  8
1
  5
196
  6
CONTINUOUS
 62
7
 10
69.9
 20
-105.22437
 30
0.0
 11
69.9
 21
-105.22437
 31
15.0
  0
LINE
  8
1
  5
198
  6
CONTINUOUS
 62
7
 10
69.9
 20
-105.22437
 30
0.0
 11
62.0
 21
-105.22437
 31
0.0
  0
ARC
  8
1
  5
19A
  6
CONTINUOUS
 62
7
 10
69.9
 20
-101.12437
 30
15.0
 40
4.1
 50
270.0
 51
90.0
  0
ARC
  8
1
  5
19C
  6
CONTINUOUS
 62
7
 210
0.0
 220
0.0
 230
-1.0
 10
-69.9
 20
-101.12437
 30
3.725290E-014
 40
4.1
 50
90.0
 51
270.0
  0
LINE
  8
1
  5
19E
  6
CONTINUOUS
 62
7
 10
0.0
 20
-72.42437
 30
0.0
 11
0.0
 21
-72.42437
 31
15.0
  0
LINE
  8
1
  5
1A0
  6
CONTINUOUS
 62
7
 10
0.0
 20
-72.42437
 30
0.0
 11
0.0
 21
-97.02437
 31
0.0
  0
LINE
  8
1
  5
1A2
  6
CONTINUOUS
 62
7
 10
52.0
 20
-72.42437
 30
15.0
 11
69.9
 21
-72.42437
 31
15.0
  0
LINE
  8
1
  5
1A4
  6
CONTINUOUS
 62
7
 10
69.9
 20
-72.42437
 30
0.0
 11
69.9
 21
-72.42437
 31
15.0
  0
LINE
  8
1
  5
1A6
  6
CONTINUOUS
 62
7
 10
69.9
 20
-72.42437
 30
0.0
 11
0.0
 21
-72.42437
 31
0.0
  0
ARC
  8
1
  5
1A8
  6
CONTINUOUS
 62
7
 10
69.9
 20
-68.32437
 30
15.0
 40
4.1
 50
270.0
 51
90.0
  0
LINE
  8
1
  5
1AA
  6
CONTINUOUS
 62
7
 10
69.9
 20
-64.22437
 30
0.0
 11
69.9
 21
-64.22437
 31
15.0
  0
ARC
  8
1
  5
1AC
  6
CONTINUOUS
 62
7
 210
0.0
 220
0.0
 230
-1.0
 10
-69.9
 20
-68.32437
 30
3.725290E-014
 40
4.1
 50
90.0
 51
270.0
  0
LINE
  8
1
  5
1AE
  6
CONTINUOUS
 62
7
 10
69.9
 20
-64.22437
 30
15.0
 11
62.0
 21
-64.22437
 31
15.0
  0
LINE
  8
1
  5
1B0
  6
CONTINUOUS
 62
7
 10
62.0
 20
-64.22437
 30
0.0
 11
62.0
 21
-64.22437
 31
15.0
  0
LINE
  8
1
  5
1B2
  6
CONTINUOUS
 62
7
 10
62.0
 20
-64.22437
 30
0.0
 11
69.9
 21
-64.22437
 31
0.0
  0
LINE
  8
1
  5
1B4
  6
CONTINUOUS
 62
7
 10
62.0
 20
-64.22437
 30
15.0
 11
62.0
 21
-54.32437
 31
15.0
  0
LINE
  8
1
  5
1B6
  6
CONTINUOUS
 62
7
 10
62.0
 20
-54.32437
 30
0.0
 11
62.0
 21
-54.32437
 31
15.0
  0
LINE
  8
1
  5
1B8
  6
CONTINUOUS
 62
7
 10
62.0
 20
-54.32437
 30
0.0
 11
62.0
 21
-64.22437
 31
0.0
  0
LINE
  8
1
  5
1BA
  6
CONTINUOUS
 62
7
 10
62.0
 20
-54.32437
 30
15.0
 11
240.0
 21
-54.32437
 31
15.0
  0
LINE
  8
1
  5
1BC
  6
CONTINUOUS
 62
7
 10
240.0
 20
-54.32437
 30
0.0
 11
240.0
 21
-54.32437
 31
15.0
  0
LINE
  8
1
  5
1BE
  6
CONTINUOUS
 62
7
 10
240.0
 20
-54.32437
 30
0.0
 11
62.0
 21
-54.32437
 31
0.0
  0
LINE
  8
1
  5
1C0
  6
CONTINUOUS
 62
7
 10
240.0
 20
-54.32437
 30
15.0
 11
240.0
 21
-164.32437
 31
15.0
  0
LINE
  8
1
  5
1C2
  6
CONTINUOUS
 62
7
 10
240.0
 20
-164.32437
 30
0.0
 11
240.0
 21
-164.32437
 31
15.0
  0
LINE
  8
1
  5
1C4
  6
CONTINUOUS
 62
7
 10
240.0
 20
-164.32437
 30
0.0
 11
240.0
 21
-54.32437
 31
0.0
  0
LINE
  8
1
  5
1C6
  6
CONTINUOUS
 62
7
 10
240.0
 20
-164.32437
 30
15.0
 11
62.0
 21
-164.32437
 31
15.0
  0
LINE
  8
1
  5
1C8
  6
CONTINUOUS
 62
7
 10
62.0
 20
-164.32437
 30
0.0
 11
240.0
 21
-164.32437
 31
0.0
  0
ENDBLK
  8
1
  5
1C9
  0
BLOCK
  8
1
  5
1CB
 70
1
 10
0.0
 20
0.0
 30
0.0
  2
*M5
  3
*M5
  0
INSERT
  8
1
  5
1CD
  6
CONTINUOUS
 62
7
  2
*M3
 10
0.0
 20
0.0
 30
0.0
 41
1.0
 42
1.0
 43
1.0
 70
1
 71
1
  0
INSERT
  8
1
  5
1CF
  6
CONTINUOUS
 62
7
  2
*M4
 10
0.0
 20
0.0
 30
0.0
 41
1.0
 42
1.0
 43
1.0
 70
1
 71
1
  0
ENDBLK
  8
1
  5
1D0
  0
BLOCK
  8
1
  5
1D2
 70
1
 10
0.0
 20
0.0
 30
0.0
  2
*M6
  3
*M6
  0
LINE
  8
1
  5
1D4
  6
CONTINUOUS
 62
7
 10
-81.30062
 20
80.0
 30
40.0
 11
-81.30062
 21
80.0
 31
30.0
  0
LINE
  8
1
  5
1D6
  6
CONTINUOUS
 62
7
 10
-77.20062
 20
75.9
 30
40.0
 11
-77.20062
 21
75.9
 31
30.0
  0
LINE
  8
1
  5
1D8
  6
CONTINUOUS
 62
7
 10
-85.10062
 20
80.0
 30
30.0
 11
-85.10062
 21
190.0
 31
30.0
  0
LINE
  8
1
  5
1DA
  6
CONTINUOUS
 62
7
 10
-85.10062
 20
80.0
 30
30.0
 11
-81.30062
 21
80.0
 31
30.0
  0
ARC
  8
1
  5
1DC
  6
CONTINUOUS
 62
7
 10
-77.20062
 20
80.0
 30
30.0
 40
4.1
 50
179.9999944444
 51
360.0
  0
LINE
  8
1
  5
1DE
  6
CONTINUOUS
 62
7
 10
-73.10062
 20
80.0
 30
30.0
 11
-73.10062
 21
190.0
 31
30.0
  0
LINE
  8
1
  5
1E0
  6
CONTINUOUS
 62
7
 10
-85.10062
 20
190.0
 30
30.0
 11
-73.10062
 21
190.0
 31
30.0
  0
LINE
  8
1
  5
1E2
  6
CONTINUOUS
 62
7
 10
-73.10062
 20
190.0
 30
30.0
 11
-73.10062
 21
190.0
 31
35.0
  0
LINE
  8
1
  5
1E4
  6
CONTINUOUS
 62
7
 10
-73.10062
 20
80.0
 30
35.0
 11
-73.10062
 21
80.0
 31
30.0
  0
LINE
  8
1
  5
1E6
  6
CONTINUOUS
 62
7
 10
-73.10062
 20
190.0
 30
35.0
 11
-73.10062
 21
80.0
 31
35.0
  0
LINE
  8
1
  5
1E8
  6
CONTINUOUS
 62
7
 10
-85.10062
 20
80.0
 30
35.0
 11
-85.10062
 21
80.0
 31
30.0
  0
LINE
  8
1
  5
1EA
  6
CONTINUOUS
 62
7
 10
-81.30062
 20
80.0
 30
35.0
 11
-85.10062
 21
80.0
 31
35.0
  0
LINE
  8
1
  5
1EC
  6
CONTINUOUS
 62
7
 10
-81.30062
 20
80.0
 30
35.0
 11
-81.30062
 21
80.0
 31
30.0
  0
ARC
  8
1
  5
1EE
  6
CONTINUOUS
 62
7
 210
0.0
 220
0.0
 230
-1.0
 10
77.20062
 20
80.0
 30
-40.0
 40
4.1
 50
179.9999972222
 51
0.0000055556
  0
LINE
  8
1
  5
1F0
  6
CONTINUOUS
 62
7
 10
-73.10062
 20
80.0
 30
35.0
 11
-73.10062
 21
80.0
 31
40.0
  0
LINE
  8
1
  5
1F2
  6
CONTINUOUS
 62
7
 10
-81.30062
 20
80.0
 30
40.0
 11
-81.30062
 21
80.0
 31
35.0
  0
ENDBLK
  8
1
  5
1F3
  0
BLOCK
  8
1
  5
1F5
 70
1
 10
0.0
 20
0.0
 30
0.0
  2
*M7
  3
*M7
  0
LINE
  8
1
  5
1F7
  6
CONTINUOUS
 62
7
 10
-85.10062
 20
80.0
 30
40.0
 11
-85.10062
 21
80.0
 31
35.0
  0
LINE
  8
1
  5
1F9
  6
CONTINUOUS
 62
7
 10
-73.10062
 20
190.0
 30
35.0
 11
-45.10062
 21
190.0
 31
35.0
  0
LINE
  8
1
  5
1FB
  6
CONTINUOUS
 62
7
 10
-73.10062
 20
80.0
 30
35.0
 11
-45.10062
 21
80.0
 31
35.0
  0
LINE
  8
1
  5
1FD
  6
CONTINUOUS
 62
7
 10
-45.10062
 20
190.0
 30
35.0
 11
-45.10062
 21
80.0
 31
35.0
  0
LINE
  8
1
  5
1FF
  6
CONTINUOUS
 62
7
 10
-45.10062
 20
80.0
 30
40.0
 11
-73.10062
 21
80.0
 31
40.0
  0
LINE
  8
1
  5
201
  6
CONTINUOUS
 62
7
 10
-45.10062
 20
80.0
 30
35.0
 11
-45.10062
 21
80.0
 31
40.0
  0
LINE
  8
1
  5
203
  6
CONTINUOUS
 62
7
 10
-81.30062
 20
80.0
 30
40.0
 11
-85.10062
 21
80.0
 31
40.0
  0
ENDBLK
  8
1
  5
204
  0
BLOCK
  8
1
  5
206
 70
1
 10
0.0
 20
0.0
 30
0.0
  2
*M8
  3
*M8
  0
LINE
  8
1
  5
208
  6
CONTINUOUS
 62
7
 10
-85.10062
 20
190.0
 30
0.0
 11
-85.10062
 21
190.0
 31
30.0
  0
LINE
  8
1
  5
20A
  6
CONTINUOUS
 62
7
 10
-85.10062
 20
0.0
 30
0.0
 11
-85.10062
 21
190.0
 31
0.0
  0
LINE
  8
1
  5
20C
  6
CONTINUOUS
 62
7
 10
-85.10062
 20
0.0
 30
0.0
 11
-85.10062
 21
0.0
 31
40.0
  0
LINE
  8
1
  5
20E
  6
CONTINUOUS
 62
7
 10
-85.10062
 20
80.0
 30
40.0
 11
-85.10062
 21
0.0
 31
40.0
  0
LINE
  8
1
  5
210
  6
CONTINUOUS
 62
7
 10
-45.10062
 20
190.0
 30
0.0
 11
-45.10062
 21
190.0
 31
35.0
  0
LINE
  8
1
  5
212
  6
CONTINUOUS
 62
7
 10
-85.10062
 20
190.0
 30
0.0
 11
-45.10062
 21
190.0
 31
0.0
  0
LINE
  8
1
  5
214
  6
CONTINUOUS
 62
7
 10
-45.10062
 20
0.0
 30
40.0
 11
-45.10062
 21
80.0
 31
40.0
  0
LINE
  8
1
  5
216
  6
CONTINUOUS
 62
7
 10
-45.10062
 20
0.0
 30
0.0
 11
-45.10062
 21
0.0
 31
40.0
  0
LINE
  8
1
  5
218
  6
CONTINUOUS
 62
7
 10
-45.10062
 20
190.0
 30
0.0
 11
-45.10062
 21
0.0
 31
0.0
  0
LINE
  8
1
  5
21A
  6
CONTINUOUS
 62
7
 10
-45.10062
 20
0.0
 30
0.0
 11
-85.10062
 21
0.0
 31
0.0
  0
LINE
  8
1
  5
21C
  6
CONTINUOUS
 62
7
 10
-85.10062
 20
0.0
 30
40.0
 11
-45.10062
 21
0.0
 31
40.0
  0
ENDBLK
  8
1
  5
21D
  0
BLOCK
  8
1
  5
21F
 70
1
 10
0.0
 20
0.0
 30
0.0
  2
*M9
  3
*M9
  0
INSERT
  8
1
  5
221
  6
CONTINUOUS
 62
7
  2
*M7
 10
0.0
 20
0.0
 30
0.0
 41
1.0
 42
1.0
 43
1.0
 70
1
 71
1
  0
INSERT
  8
1
  5
223
  6
CONTINUOUS
 62
7
  2
*M8
 10
0.0
 20
0.0
 30
0.0
 41
1.0
 42
1.0
 43
1.0
 70
1
 71
1
  0
ENDBLK
  8
1
  5
224
  0
BLOCK
  8
1
  5
226
 70
1
 10
0.0
 20
0.0
 30
0.0
  2
*M10
  3
*M10
  0
INSERT
  8
1
  5
228
  6
CONTINUOUS
 62
7
  2
*M6
 10
0.0
 20
0.0
 30
0.0
 41
1.0
 42
1.0
 43
1.0
 70
1
 71
1
  0
INSERT
  8
1
  5
22A
  6
CONTINUOUS
 62
7
  2
*M9
 10
0.0
 20
0.0
 30
0.0
 41
1.0
 42
1.0
 43
1.0
 70
1
 71
1
  0
ENDBLK
  8
1
  5
22B
  0
ENDSEC
  0
SECTION
  2
ENTITIES
  0
INSERT
  8
1
  5
2
  6
CONTINUOUS
 62
7
  2
*M2
 10
224.87809
 20
32.11023
 30
24.08375
 41
1.0
 42
1.0
 43
1.0
 70
1
 71
1
  0
INSERT
  8
1
  5
4
  6
CONTINUOUS
 62
7
  2
*M5
 10
364.87809
 20
86.4346
 30
24.08375
 41
1.0
 42
1.0
 43
1.0
 70
1
 71
1
  0
INSERT
  8
1
  5
6
  6
CONTINUOUS
 62
7
  2
*M10
 10
359.97871
 20
-157.88977
 30
24.08375
 41
1.0
 42
1.0
 43
1.0
 70
1
 71
1
  0
ENDSEC
  0
EOF
