  0
SECTION
  2
HEADER
  9
$ACADVER
  1
AC1009
  9
$INSBASE
 10
0.0
 20
0.0
 30
0.0
  9
$EXTMAX
 10
450.0
 20
30.0
 30
48.0
  9
$EXTMIN
 10
16.0118
 20
-20.0
 30
16.0
  9
$LIMMAX
 10
12.0
 20
9.0
  9
$LIMMIN
 10
0.0
 20
0.0
  9
$ORTHOMODE
 70
0
  9
$REGENMODE
 70
1
  9
$FILLMODE
 70
1
  9
$QTEXTMODE
 70
0
  9
$MIRRTEXT
 70
1
  9
$DRAGMODE
 70
2
  9
$LTSCALE
 40
1.0
  9
$OSMODE
 70
0
  9
$ATTMODE
 70
1
  9
$TEXTSIZE
 40
0.2
  9
$TRACEWID
 40
0.05
  9
$TEXTSTYLE
  7
STANDARD
  9
$CLAYER
  8
0
  9
$CELTYPE
  6
CONTINUOUS
  9
$CECOLOR
 62
256
  9
$DIMSCALE
 40
1.0
  9
$DIMASZ
 40
0.18
  9
$DIMEXO
 40
0.0625
  9
$DIMDLI
 40
0.38
  9
$DIMRND
 40
0.0
  9
$DIMDLE
 40
0.0
  9
$DIMEXE
 40
0.18
  9
$DIMTP
 40
0.0
  9
$DIMTM
 40
0.0
  9
$DIMTXT
 40
0.18
  9
$DIMCEN
 40
0.09
  9
$DIMTSZ
 40
0.0
  9
$DIMTOL
 70
0
  9
$DIMLIM
 70
0
  9
$DIMTIH
 70
1
  9
$DIMTOH
 70
1
  9
$DIMSE1
 70
0
  9
$DIMSE2
 70
0
  9
$DIMTAD
 70
0
  9
$DIMZIN
 70
0
  9
$DIMBLK
  1

  9
$DIMASO
 70
1
  9
$DIMSHO
 70
1
  9
$DIMPOST
  1

  9
$DIMAPOST
  1

  9
$DIMALT
 70
0
  9
$DIMALTD
 70
2
  9
$DIMALTF
 40
25.4
  9
$DIMLFAC
 40
1.0
  9
$DIMTOFL
 70
0
  9
$DIMTVP
 40
0.0
  9
$DIMTIX
 70
0
  9
$DIMSOXD
 70
0
  9
$DIMSAH
 70
0
  9
$DIMBLK1
  1

  9
$DIMBLK2
  1

  9
$DIMSTYLE
  2
*UNNAMED
  9
$DIMCLRD
 70
0
  9
$DIMCLRE
 70
0
  9
$DIMCLRT
 70
0
  9
$DIMTFAC
 40
1.0
  9
$DIMGAP
 40
0.09
  9
$LUNITS
 70
2
  9
$LUPREC
 70
4
  9
$AXISMODE
 70
0
  9
$AXISUNIT
 10
0.0
 20
0.0
  9
$SKETCHINC
 40
0.1
  9
$FILLETRAD
 40
0.0
  9
$AUNITS
 70
0
  9
$AUPREC
 70
0
  9
$MENU
  1
acad
  9
$ELEVATION
 40
0.0
  9
$PELEVATION
 40
0.0
  9
$THICKNESS
 40
0.0
  9
$LIMCHECK
 70
0
  9
$BLIPMODE
 70
1
  9
$CHAMFERA
 40
0.0
  9
$CHAMFERB
 40
0.0
  9
$SKPOLY
 70
0
  9
$TDCREATE
 40
0.0
  9
$TDUPDATE
 40
0.0
  9
$TDINDWG
 40
0.0
  9
$TDUSRTIMER
 40
0.0
  9
$USRTIMER
 70
1
  9
$ANGBASE
 50
0.0
  9
$ANGDIR
 70
0
  9
$PDMODE
 70
0
  9
$PDSIZE
 40
0.0
  9
$PLINEWID
 40
0.0
  9
$COORDS
 70
0
  9
$SPLFRAME
 70
0
  9
$SPLINETYPE
 70
6
  9
$SPLINESEGS
 70
10
  9
$ATTDIA
 70
0
  9
$ATTREQ
 70
1
  9
$HANDLING
 70
1
  9
$HANDSEED
  5
260
  9
$SURFTAB1
 70
6
  9
$SURFTAB2
 70
6
  9
$SURFTYPE
 70
6
  9
$SURFU
 70
10
  9
$SURFV
 70
10
  9
$UCSNAME
  2

  9
$UCSORG
 10
0.0
 20
0.0
 30
0.0
  9
$UCSXDIR
 10
1.0
 20
0.0
 30
0.0
  9
$UCSYDIR
 10
0.0
 20
1.0
 30
0.0
  9
$PUCSNAME
  2
 
  9
$PUCSORG
 10
0.0
 20
0.0
 30
0.0
  9
$PUCSXDIR
 10
1.0
 20
0.0
 30
0.0
  9
$PUCSYDIR
 10
0.0
 20
1.0
 30
0.0
  9
$USERI1
 70
0
  9
$USERI2
 70
0
  9
$USERI3
 70
0
  9
$USERI4
 70
0
  9
$USERI5
 70
0
  9
$USERR1
 40
0.0
  9
$USERR2
 40
0.0
  9
$USERR3
 40
0.0
  9
$USERR4
 40
0.0
  9
$USERR5
 40
0.0
  9
$WORLDVIEW
 70
1
  9
$SHADEDGE
 70
3
  9
$SHADEDIF
 70
70
  9
$TILEMODE
 70
1
  9
$MAXACTVP
 70
16
  9
$PINSBASE
 10
0.0
 20
0.0
 30
0.0
  9
$PLIMCHECK
 70
0
  9
$PEXTMIN
 10
-1.000000E+020
 20
-1.000000E+020
 30
-1.000000E+020
  9
$PEXTMAX
 10
-1.000000E+020
 20
-1.000000E+020
 30
-1.000000E+020
  9
$PLIMMIN
 10
0.0
 20
0.0
  9
$PLIMMAX
 10
12.0
 20
9.0
  9
$UNITMODE
 70
0
  9
$VISRETAIN
 70
0
  0
ENDSEC
  0
SECTION
  2
TABLES
  0
TABLE
  2
LTYPE
 70
7
  0
LTYPE
  2
CONTINUOUS
 70
64
  3
Solid line
 72
65
 73
0
 40
0.0
  0
LTYPE
  2
DOT
 70
64
  3
. . . . . . . . . . . . . . . . . . . . . . . . . . . . . . . . .
 72
65
 73
2
 40
0.25
 49
0.0
 49
-0.25
  0
LTYPE
  2
HIDDEN
 70
64
  3
__ __ __ __ __ __ __ __ __ __ __ __ __ __ __ __ __ __ __ __ __ 
 72
65
 73
2
 40
0.375
 49
0.25
 49
-0.125
  0
LTYPE
  2
DASHED
 70
64
  3
__ __ __ __ __ __ __ __ __ __ __ __ __ __ __ __ __ __ __ __ __
 72
65
 73
2
 40
0.75
 49
0.5
 49
-0.25
  0
LTYPE
  2
DASHDOT
 70
64
  3
__ . __ . __ . __ . __ . __ . __ . __ . __ . __ . __ . __ . _
 72
65
 73
4
 40
1.0
 49
0.5
 49
-0.25
 49
0.0
 49
-0.25
  0
LTYPE
  2
DIVIDE
 70
64
  3
____ . . ____ . . ____ . . ____ . . ____ . . ____ . . ____ . .
 72
65
 73
6
 40
1.25
 49
0.5
 49
-0.25
 49
0.0
 49
-0.25
 49
0.0
 49
-0.25
  0
LTYPE
  2
CENTER
 70
64
  3
____ _ ____ _ ____ _ ____ _ ____ _ ____ _ ____ _ ____ _ ____ _
 72
65
 73
4
 40
2.0
 49
1.25
 49
-0.25
 49
0.25
 49
-0.25
  0
ENDTAB
  0
TABLE
  2
APPID
 70
1
  0
APPID
  2
ACAD
 70
0
  0
ENDTAB
  0
TABLE
  2
DIMSTYLE
 70
0
  0
ENDTAB
  0
TABLE
  2
LAYER
 70
4
  0
LAYER
  2
0
 70
0
 62
7
  6
CONTINUOUS
  0
LAYER
  2
CONSTRUCTION_CLASS
 70
0
 62
7
  6
CONTINUOUS
  0
LAYER
  2
PATTERN_CLASS
 70
0
 62
7
  6
CONTINUOUS
  0
LAYER
  2
1
 70
0
 62
7
  6
CONTINUOUS
  0
ENDTAB
  0
TABLE
  2
STYLE
 70
1
  0
STYLE
  2
STANDARD
 70
0
 40
0.2
 41
1.0
 50
0.0
 71
0
 42
0.0
  3
txt
  4

  0
ENDTAB
  0
TABLE
  2
UCS
 70
0
  0
ENDTAB
  0
TABLE
  2
VIEW
 70
1
  0
VIEW
  2
AN_4
 70
0
 40
184.08589
 41
266.94694
 10
5.684342E-014
 20
4.263256E-014
 11
697.367456
 21
519.007202
 31
329.68983
 12
84.289249
 22
-71.590615
 32
36.906
 42
50.0
 43
464.8616
 44
-464.8616
 50
0.0
 71
0
  0
ENDTAB
  0
TABLE
  2
VPORT
 70
4
  0
VPORT
  2
*ACTIVE
 70
0
 10
0.001642
 20
0.501669
 11
0.499179
 21
0.997775
 12
0.0
 22
0.0
 13
0.0
 23
0.0
 14
0.0
 24
0.0
 15
0.0
 25
0.0
 16
0.0
 26
-2.754844E-015
 36
44.9915
 17
209.629036
 27
7.79469
 37
32.0
 40
292.97944
 41
1.358744
 42
50.0
 43
22.49575
 44
-22.49575
 50
0.0
 51
0.0
 71
22
 72
100
 73
1
 74
0
 75
0
 76
0
 77
0
 78
0
  0
VPORT
  2
*ACTIVE
 70
0
 10
0.500821
 20
0.501669
 11
0.998358
 21
0.997775
 12
0.0
 22
0.0
 13
0.0
 23
0.0
 14
0.0
 24
0.0
 15
0.0
 25
0.0
 16
278.202827
 26
207.049052
 36
131.524123
 17
242.263358
 27
-2.658483
 37
28.874108
 40
208.62559
 41
1.358744
 42
50.0
 43
185.44859
 44
-185.44859
 50
0.0
 51
0.0
 71
22
 72
100
 73
1
 74
0
 75
0
 76
0
 77
0
 78
0
  0
VPORT
  2
*ACTIVE
 70
0
 10
0.001642
 20
0.003337
 11
0.499179
 21
0.499444
 12
0.0
 22
0.0
 13
0.0
 23
0.0
 14
0.0
 24
0.0
 15
0.0
 25
0.0
 16
0.0
 26
-68.58088
 36
0.0
 17
209.629043
 27
7.79469
 37
32.000005
 40
292.97945
 41
1.358744
 42
50.0
 43
34.29044
 44
-34.29044
 50
0.0
 51
0.0
 71
22
 72
100
 73
1
 74
0
 75
0
 76
0
 77
0
 78
0
  0
VPORT
  2
*ACTIVE
 70
0
 10
0.500821
 20
0.003337
 11
0.998358
 21
0.499444
 12
0.0
 22
3.552714E-015
 13
0.0
 23
0.0
 14
0.0
 24
0.0
 15
0.0
 25
0.0
 16
444.8379
 26
0.0
 36
0.0
 17
233.0059
 27
4.397223
 37
32.0
 40
42.58008
 41
1.358744
 42
50.0
 43
222.41895
 44
-222.41895
 50
0.0
 51
0.0
 71
22
 72
100
 73
1
 74
0
 75
0
 76
0
 77
0
 78
0
  0
ENDTAB
  0
ENDSEC
  0
SECTION
  2
BLOCKS
  0
BLOCK
  8
1
  5
6
 70
1
 10
0.0
 20
0.0
 30
0.0
  2
*M0
  3
*M0
  0
LINE
  8
1
  5
8
  6
CONTINUOUS
 62
7
 10
154.40287
 20
0.38339
 30
16.0
 11
154.40287
 21
0.38339
 31
32.0
  0
LINE
  8
1
  5
A
  6
CONTINUOUS
 62
7
 10
136.21445
 20
26.59648
 30
16.0
 11
136.21445
 21
26.59648
 31
32.0
  0
LINE
  8
1
  5
C
  6
CONTINUOUS
 62
7
 10
128.22791
 20
8.50761
 30
16.0
 11
128.22791
 21
8.50761
 31
32.0
  0
LINE
  8
1
  5
E
  6
CONTINUOUS
 62
7
 10
141.21445
 20
-6.40352
 30
16.0
 11
141.21445
 21
-6.40352
 31
32.0
  0
POLYLINE
  8
1
  5
10
  6
CONTINUOUS
 62
7
 10
0.0
 20
0.0
 30
32.0
 66
1
 70
0
  0
VERTEX
  8
1
  5
11
  6
CONTINUOUS
 62
7
 10
158.783635
 20
-14.41062
 30
32.0
 42
0.026744
  0
VERTEX
  8
1
  5
12
  6
CONTINUOUS
 62
7
 10
159.097258
 20
-11.089433
 30
32.0
 42
0.031179
  0
VERTEX
  8
1
  5
13
  6
CONTINUOUS
 62
7
 10
159.033977
 20
-7.999148
 30
32.0
 42
0.038541
  0
VERTEX
  8
1
  5
14
  6
CONTINUOUS
 62
7
 10
158.596098
 20
-5.252369
 30
32.0
 42
0.050229
  0
VERTEX
  8
1
  5
15
  6
CONTINUOUS
 62
7
 10
157.799576
 20
-2.949182
 30
32.0
 42
0.067355
  0
VERTEX
  8
1
  5
16
  6
CONTINUOUS
 62
7
 10
156.673435
 20
-1.173511
 30
32.0
 42
0.087034
  0
VERTEX
  8
1
  5
17
  6
CONTINUOUS
 62
7
 10
155.258708
 20
0.009943
 30
32.0
 42
0.097312
  0
VERTEX
  8
1
  5
18
  6
CONTINUOUS
 62
7
 10
153.606946
 20
0.558057
 30
32.0
 42
0.088204
  0
VERTEX
  8
1
  5
19
  6
CONTINUOUS
 62
7
 10
151.778336
 20
0.450859
 30
32.0
 42
0.068683
  0
VERTEX
  8
1
  5
1A
  6
CONTINUOUS
 62
7
 10
149.839507
 20
-0.307744
 30
32.0
 42
0.051212
  0
VERTEX
  8
1
  5
1B
  6
CONTINUOUS
 62
7
 10
147.861106
 20
-1.690112
 30
32.0
 42
0.039177
  0
VERTEX
  8
1
  5
1C
  6
CONTINUOUS
 62
7
 10
145.915223
 20
-3.645873
 30
32.0
 42
0.039177
  0
SEQEND
  8
1
  5
1D
  0
LINE
  8
1
  5
1F
  6
CONTINUOUS
 62
7
 10
158.78363
 20
-14.41062
 30
16.0
 11
158.78363
 21
-14.41062
 31
32.0
  0
POLYLINE
  8
1
  5
21
  6
CONTINUOUS
 62
7
 210
0.0
 220
0.0
 230
-1.0
 10
0.0
 20
0.0
 30
-16.0
 66
1
 70
0
  0
VERTEX
  8
1
  5
22
  6
CONTINUOUS
 62
7
 10
-145.915223
 20
-3.645873
 30
-16.0
 42
0.039177
  0
VERTEX
  8
1
  5
23
  6
CONTINUOUS
 62
7
 10
-147.861106
 20
-1.690112
 30
-16.0
 42
0.051212
  0
VERTEX
  8
1
  5
24
  6
CONTINUOUS
 62
7
 10
-149.839507
 20
-0.307744
 30
-16.0
 42
0.068683
  0
VERTEX
  8
1
  5
25
  6
CONTINUOUS
 62
7
 10
-151.778336
 20
0.450859
 30
-16.0
 42
0.088204
  0
VERTEX
  8
1
  5
26
  6
CONTINUOUS
 62
7
 10
-153.606946
 20
0.558057
 30
-16.0
 42
0.097312
  0
VERTEX
  8
1
  5
27
  6
CONTINUOUS
 62
7
 10
-155.258708
 20
0.009943
 30
-16.0
 42
0.087034
  0
VERTEX
  8
1
  5
28
  6
CONTINUOUS
 62
7
 10
-156.673435
 20
-1.173511
 30
-16.0
 42
0.067355
  0
VERTEX
  8
1
  5
29
  6
CONTINUOUS
 62
7
 10
-157.799576
 20
-2.949182
 30
-16.0
 42
0.050229
  0
VERTEX
  8
1
  5
2A
  6
CONTINUOUS
 62
7
 10
-158.596098
 20
-5.252369
 30
-16.0
 42
0.038541
  0
VERTEX
  8
1
  5
2B
  6
CONTINUOUS
 62
7
 10
-159.033977
 20
-7.999148
 30
-16.0
 42
0.031179
  0
VERTEX
  8
1
  5
2C
  6
CONTINUOUS
 62
7
 10
-159.097258
 20
-11.089433
 30
-16.0
 42
0.026744
  0
VERTEX
  8
1
  5
2D
  6
CONTINUOUS
 62
7
 10
-158.783635
 20
-14.41062
 30
-16.0
 42
0.026744
  0
SEQEND
  8
1
  5
2E
  0
LINE
  8
1
  5
30
  6
CONTINUOUS
 62
7
 10
145.91522
 20
-3.64587
 30
16.0
 11
145.91522
 21
-3.64587
 31
32.0
  0
POINT
  8
1
  5
32
  6
CONTINUOUS
 62
7
 10
145.91522
 20
-3.64587
 30
32.0
 50
0.0
  0
POINT
  8
1
  5
34
  6
CONTINUOUS
 62
7
 10
145.91522
 20
-3.64587
 30
16.0
 50
0.0
  0
LINE
  8
1
  5
36
  6
CONTINUOUS
 62
7
 10
145.91522
 20
-3.64587
 30
16.0
 11
145.91522
 21
-3.64587
 31
32.0
  0
POLYLINE
  8
1
  5
38
  6
CONTINUOUS
 62
7
 210
0.0
 220
0.0
 230
-1.0
 10
0.0
 20
0.0
 30
-32.0
 66
1
 70
0
  0
VERTEX
  8
1
  5
39
  6
CONTINUOUS
 62
7
 10
-145.915224
 20
-3.645874
 30
-32.0
 42
0.062406
  0
VERTEX
  8
1
  5
3A
  6
CONTINUOUS
 62
7
 10
-144.233201
 20
-5.175266
 30
-32.0
 42
0.071776
  0
VERTEX
  8
1
  5
3B
  6
CONTINUOUS
 62
7
 10
-142.344067
 20
-6.13153
 30
-32.0
 42
0.076103
  0
VERTEX
  8
1
  5
3C
  6
CONTINUOUS
 62
7
 10
-140.318718
 20
-6.478779
 30
-32.0
 42
0.0727
  0
VERTEX
  8
1
  5
3D
  6
CONTINUOUS
 62
7
 10
-138.233163
 20
-6.203982
 30
-32.0
 42
0.063718
  0
VERTEX
  8
1
  5
3E
  6
CONTINUOUS
 62
7
 10
-136.165671
 20
-5.317451
 30
-32.0
 42
0.053521
  0
VERTEX
  8
1
  5
3F
  6
CONTINUOUS
 62
7
 10
-134.19383
 20
-3.852457
 30
-32.0
 42
0.044869
  0
VERTEX
  8
1
  5
40
  6
CONTINUOUS
 62
7
 10
-132.391642
 20
-1.863978
 30
-32.0
 42
0.038514
  0
VERTEX
  8
1
  5
41
  6
CONTINUOUS
 62
7
 10
-130.82674
 20
0.57336
 30
-32.0
 42
0.03429
  0
VERTEX
  8
1
  5
42
  6
CONTINUOUS
 62
7
 10
-129.557853
 20
3.368087
 30
-32.0
 42
0.031844
  0
VERTEX
  8
1
  5
43
  6
CONTINUOUS
 62
7
 10
-128.632601
 20
6.415322
 30
-32.0
 42
0.030914
  0
VERTEX
  8
1
  5
44
  6
CONTINUOUS
 62
7
 10
-128.085706
 20
9.600706
 30
-32.0
 42
0.031391
  0
VERTEX
  8
1
  5
45
  6
CONTINUOUS
 62
7
 10
-127.937693
 20
12.804695
 30
-32.0
 42
0.033332
  0
VERTEX
  8
1
  5
46
  6
CONTINUOUS
 62
7
 10
-128.194117
 20
15.907048
 30
-32.0
 42
0.036953
  0
VERTEX
  8
1
  5
47
  6
CONTINUOUS
 62
7
 10
-128.845355
 20
18.791339
 30
-32.0
 42
0.042592
  0
VERTEX
  8
1
  5
48
  6
CONTINUOUS
 62
7
 10
-129.866966
 20
21.349324
 30
-32.0
 42
0.050528
  0
VERTEX
  8
1
  5
49
  6
CONTINUOUS
 62
7
 10
-131.22061
 20
23.485006
 30
-32.0
 42
0.060418
  0
VERTEX
  8
1
  5
4A
  6
CONTINUOUS
 62
7
 10
-132.855489
 20
25.118234
 30
-32.0
 42
0.070231
  0
VERTEX
  8
1
  5
4B
  6
CONTINUOUS
 62
7
 10
-134.710246
 20
26.187717
 30
-32.0
 42
0.075852
  0
VERTEX
  8
1
  5
4C
  6
CONTINUOUS
 62
7
 10
-136.715275
 20
26.653319
 30
-32.0
 42
0.073912
  0
VERTEX
  8
1
  5
4D
  6
CONTINUOUS
 62
7
 10
-138.79533
 20
26.497564
 30
-32.0
 42
0.065658
  0
VERTEX
  8
1
  5
4E
  6
CONTINUOUS
 62
7
 10
-140.87235
 20
25.7263
 30
-32.0
 42
0.055405
  0
VERTEX
  8
1
  5
4F
  6
CONTINUOUS
 62
7
 10
-142.868387
 20
24.368471
 30
-32.0
 42
0.055405
  0
SEQEND
  8
1
  5
50
  0
POLYLINE
  8
1
  5
52
  6
CONTINUOUS
 62
7
 10
0.0
 20
0.0
 30
16.0
 66
1
 70
0
  0
VERTEX
  8
1
  5
53
  6
CONTINUOUS
 62
7
 10
142.868387
 20
24.368471
 30
16.0
 42
0.055405
  0
VERTEX
  8
1
  5
54
  6
CONTINUOUS
 62
7
 10
140.87235
 20
25.7263
 30
16.0
 42
0.065658
  0
VERTEX
  8
1
  5
55
  6
CONTINUOUS
 62
7
 10
138.79533
 20
26.497564
 30
16.0
 42
0.073912
  0
VERTEX
  8
1
  5
56
  6
CONTINUOUS
 62
7
 10
136.715275
 20
26.653319
 30
16.0
 42
0.075852
  0
VERTEX
  8
1
  5
57
  6
CONTINUOUS
 62
7
 10
134.710246
 20
26.187717
 30
16.0
 42
0.070231
  0
VERTEX
  8
1
  5
58
  6
CONTINUOUS
 62
7
 10
132.855489
 20
25.118234
 30
16.0
 42
0.060418
  0
VERTEX
  8
1
  5
59
  6
CONTINUOUS
 62
7
 10
131.22061
 20
23.485006
 30
16.0
 42
0.050528
  0
VERTEX
  8
1
  5
5A
  6
CONTINUOUS
 62
7
 10
129.866966
 20
21.349324
 30
16.0
 42
0.042592
  0
VERTEX
  8
1
  5
5B
  6
CONTINUOUS
 62
7
 10
128.845355
 20
18.791339
 30
16.0
 42
0.036953
  0
VERTEX
  8
1
  5
5C
  6
CONTINUOUS
 62
7
 10
128.194117
 20
15.907048
 30
16.0
 42
0.033332
  0
VERTEX
  8
1
  5
5D
  6
CONTINUOUS
 62
7
 10
127.937693
 20
12.804695
 30
16.0
 42
0.031391
  0
VERTEX
  8
1
  5
5E
  6
CONTINUOUS
 62
7
 10
128.085706
 20
9.600706
 30
16.0
 42
0.030914
  0
VERTEX
  8
1
  5
5F
  6
CONTINUOUS
 62
7
 10
128.632601
 20
6.415322
 30
16.0
 42
0.031844
  0
VERTEX
  8
1
  5
60
  6
CONTINUOUS
 62
7
 10
129.557853
 20
3.368087
 30
16.0
 42
0.03429
  0
VERTEX
  8
1
  5
61
  6
CONTINUOUS
 62
7
 10
130.82674
 20
0.57336
 30
16.0
 42
0.038514
  0
VERTEX
  8
1
  5
62
  6
CONTINUOUS
 62
7
 10
132.391642
 20
-1.863978
 30
16.0
 42
0.044869
  0
VERTEX
  8
1
  5
63
  6
CONTINUOUS
 62
7
 10
134.19383
 20
-3.852457
 30
16.0
 42
0.053521
  0
VERTEX
  8
1
  5
64
  6
CONTINUOUS
 62
7
 10
136.165671
 20
-5.317451
 30
16.0
 42
0.063718
  0
VERTEX
  8
1
  5
65
  6
CONTINUOUS
 62
7
 10
138.233163
 20
-6.203982
 30
16.0
 42
0.0727
  0
VERTEX
  8
1
  5
66
  6
CONTINUOUS
 62
7
 10
140.318718
 20
-6.478779
 30
16.0
 42
0.076103
  0
VERTEX
  8
1
  5
67
  6
CONTINUOUS
 62
7
 10
142.344067
 20
-6.13153
 30
16.0
 42
0.071776
  0
VERTEX
  8
1
  5
68
  6
CONTINUOUS
 62
7
 10
144.233201
 20
-5.175266
 30
16.0
 42
0.062406
  0
VERTEX
  8
1
  5
69
  6
CONTINUOUS
 62
7
 10
145.915224
 20
-3.645874
 30
16.0
 42
0.062406
  0
SEQEND
  8
1
  5
6A
  0
LINE
  8
1
  5
6C
  6
CONTINUOUS
 62
7
 10
142.86839
 20
24.36847
 30
16.0
 11
142.86839
 21
24.36847
 31
32.0
  0
POINT
  8
1
  5
6E
  6
CONTINUOUS
 62
7
 10
142.86839
 20
24.36847
 30
32.0
 50
0.0
  0
POINT
  8
1
  5
70
  6
CONTINUOUS
 62
7
 10
142.86839
 20
24.36847
 30
16.0
 50
0.0
  0
LINE
  8
1
  5
72
  6
CONTINUOUS
 62
7
 10
142.86839
 20
24.36847
 30
16.0
 11
142.86839
 21
24.36847
 31
32.0
  0
POLYLINE
  8
1
  5
74
  6
CONTINUOUS
 62
7
 10
0.0
 20
0.0
 30
32.0
 66
1
 70
0
  0
VERTEX
  8
1
  5
75
  6
CONTINUOUS
 62
7
 10
142.868386
 20
24.368471
 30
32.0
 42
0.049415
  0
VERTEX
  8
1
  5
76
  6
CONTINUOUS
 62
7
 10
146.200135
 20
22.023088
 30
32.0
 42
0.070311
  0
VERTEX
  8
1
  5
77
  6
CONTINUOUS
 62
7
 10
149.372131
 20
20.760369
 30
32.0
 42
0.097982
  0
VERTEX
  8
1
  5
78
  6
CONTINUOUS
 62
7
 10
152.249703
 20
20.633923
 30
32.0
 42
0.11376
  0
VERTEX
  8
1
  5
79
  6
CONTINUOUS
 62
7
 10
154.710679
 20
21.64912
 30
32.0
 42
0.098727
  0
VERTEX
  8
1
  5
7A
  6
CONTINUOUS
 62
7
 10
156.650576
 20
23.762858
 30
32.0
 42
0.071033
  0
VERTEX
  8
1
  5
7B
  6
CONTINUOUS
 62
7
 10
157.987033
 20
26.885395
 30
32.0
 42
0.049879
  0
VERTEX
  8
1
  5
7C
  6
CONTINUOUS
 62
7
 10
158.663309
 20
30.88416
 30
32.0
 42
0.037
  0
VERTEX
  8
1
  5
7D
  6
CONTINUOUS
 62
7
 10
158.650692
 20
35.58938
 30
32.0
 42
0.037
  0
SEQEND
  8
1
  5
7E
  0
POLYLINE
  8
1
  5
80
  6
CONTINUOUS
 62
7
 210
0.0
 220
0.0
 230
-1.0
 10
0.0
 20
0.0
 30
-16.0
 66
1
 70
0
  0
VERTEX
  8
1
  5
81
  6
CONTINUOUS
 62
7
 10
-158.650692
 20
35.58938
 30
-16.0
 42
0.037
  0
VERTEX
  8
1
  5
82
  6
CONTINUOUS
 62
7
 10
-158.663309
 20
30.88416
 30
-16.0
 42
0.049879
  0
VERTEX
  8
1
  5
83
  6
CONTINUOUS
 62
7
 10
-157.987033
 20
26.885395
 30
-16.0
 42
0.071033
  0
VERTEX
  8
1
  5
84
  6
CONTINUOUS
 62
7
 10
-156.650576
 20
23.762858
 30
-16.0
 42
0.098727
  0
VERTEX
  8
1
  5
85
  6
CONTINUOUS
 62
7
 10
-154.710679
 20
21.64912
 30
-16.0
 42
0.11376
  0
VERTEX
  8
1
  5
86
  6
CONTINUOUS
 62
7
 10
-152.249703
 20
20.633923
 30
-16.0
 42
0.097982
  0
VERTEX
  8
1
  5
87
  6
CONTINUOUS
 62
7
 10
-149.372131
 20
20.760369
 30
-16.0
 42
0.070311
  0
VERTEX
  8
1
  5
88
  6
CONTINUOUS
 62
7
 10
-146.200135
 20
22.023088
 30
-16.0
 42
0.049415
  0
VERTEX
  8
1
  5
89
  6
CONTINUOUS
 62
7
 10
-142.868386
 20
24.368471
 30
-16.0
 42
0.049415
  0
SEQEND
  8
1
  5
8A
  0
LINE
  8
1
  5
8C
  6
CONTINUOUS
 62
7
 10
158.65069
 20
35.58938
 30
32.0
 11
158.65069
 21
35.58938
 31
16.0
  0
LINE
  8
1
  5
8E
  6
CONTINUOUS
 62
7
 10
175.24195
 20
35.58938
 30
32.0
 11
158.65069
 21
35.58938
 31
32.0
  0
POLYLINE
  8
1
  5
90
  6
CONTINUOUS
 62
7
 210
0.0
 220
0.0
 230
-1.0
 10
0.0
 20
0.0
 30
-32.0
 66
1
 70
0
  0
VERTEX
  8
1
  5
91
  6
CONTINUOUS
 62
7
 10
-191.024254
 20
24.368471
 30
-32.0
 42
0.049415
  0
VERTEX
  8
1
  5
92
  6
CONTINUOUS
 62
7
 10
-187.692505
 20
22.023088
 30
-32.0
 42
0.070311
  0
VERTEX
  8
1
  5
93
  6
CONTINUOUS
 62
7
 10
-184.520509
 20
20.760369
 30
-32.0
 42
0.097982
  0
VERTEX
  8
1
  5
94
  6
CONTINUOUS
 62
7
 10
-181.642937
 20
20.633923
 30
-32.0
 42
0.11376
  0
VERTEX
  8
1
  5
95
  6
CONTINUOUS
 62
7
 10
-179.181961
 20
21.64912
 30
-32.0
 42
0.098727
  0
VERTEX
  8
1
  5
96
  6
CONTINUOUS
 62
7
 10
-177.242064
 20
23.762858
 30
-32.0
 42
0.071033
  0
VERTEX
  8
1
  5
97
  6
CONTINUOUS
 62
7
 10
-175.905607
 20
26.885395
 30
-32.0
 42
0.049879
  0
VERTEX
  8
1
  5
98
  6
CONTINUOUS
 62
7
 10
-175.229331
 20
30.88416
 30
-32.0
 42
0.037
  0
VERTEX
  8
1
  5
99
  6
CONTINUOUS
 62
7
 10
-175.241948
 20
35.58938
 30
-32.0
 42
0.037
  0
SEQEND
  8
1
  5
9A
  0
POINT
  8
1
  5
9C
  6
CONTINUOUS
 62
7
 10
191.02425
 20
24.36847
 30
32.0
 50
0.0
  0
POLYLINE
  8
1
  5
9E
  6
CONTINUOUS
 62
7
 10
0.0
 20
0.0
 30
32.0
 66
1
 70
0
  0
VERTEX
  8
1
  5
9F
  6
CONTINUOUS
 62
7
 10
187.977416
 20
-3.645874
 30
32.0
 42
0.062406
  0
VERTEX
  8
1
  5
A0
  6
CONTINUOUS
 62
7
 10
189.659439
 20
-5.175266
 30
32.0
 42
0.071776
  0
VERTEX
  8
1
  5
A1
  6
CONTINUOUS
 62
7
 10
191.548573
 20
-6.13153
 30
32.0
 42
0.076103
  0
VERTEX
  8
1
  5
A2
  6
CONTINUOUS
 62
7
 10
193.573922
 20
-6.478779
 30
32.0
 42
0.0727
  0
VERTEX
  8
1
  5
A3
  6
CONTINUOUS
 62
7
 10
195.659477
 20
-6.203982
 30
32.0
 42
0.063718
  0
VERTEX
  8
1
  5
A4
  6
CONTINUOUS
 62
7
 10
197.726969
 20
-5.317451
 30
32.0
 42
0.053521
  0
VERTEX
  8
1
  5
A5
  6
CONTINUOUS
 62
7
 10
199.69881
 20
-3.852457
 30
32.0
 42
0.044869
  0
VERTEX
  8
1
  5
A6
  6
CONTINUOUS
 62
7
 10
201.500998
 20
-1.863978
 30
32.0
 42
0.038514
  0
VERTEX
  8
1
  5
A7
  6
CONTINUOUS
 62
7
 10
203.0659
 20
0.57336
 30
32.0
 42
0.03429
  0
VERTEX
  8
1
  5
A8
  6
CONTINUOUS
 62
7
 10
204.334787
 20
3.368087
 30
32.0
 42
0.031844
  0
VERTEX
  8
1
  5
A9
  6
CONTINUOUS
 62
7
 10
205.260039
 20
6.415322
 30
32.0
 42
0.030914
  0
VERTEX
  8
1
  5
AA
  6
CONTINUOUS
 62
7
 10
205.806934
 20
9.600706
 30
32.0
 42
0.031391
  0
VERTEX
  8
1
  5
AB
  6
CONTINUOUS
 62
7
 10
205.954947
 20
12.804695
 30
32.0
 42
0.033332
  0
VERTEX
  8
1
  5
AC
  6
CONTINUOUS
 62
7
 10
205.698523
 20
15.907048
 30
32.0
 42
0.036953
  0
VERTEX
  8
1
  5
AD
  6
CONTINUOUS
 62
7
 10
205.047285
 20
18.791339
 30
32.0
 42
0.042592
  0
VERTEX
  8
1
  5
AE
  6
CONTINUOUS
 62
7
 10
204.025674
 20
21.349324
 30
32.0
 42
0.050528
  0
VERTEX
  8
1
  5
AF
  6
CONTINUOUS
 62
7
 10
202.672029
 20
23.485006
 30
32.0
 42
0.060418
  0
VERTEX
  8
1
  5
B0
  6
CONTINUOUS
 62
7
 10
201.037151
 20
25.118234
 30
32.0
 42
0.070231
  0
VERTEX
  8
1
  5
B1
  6
CONTINUOUS
 62
7
 10
199.182394
 20
26.187717
 30
32.0
 42
0.075852
  0
VERTEX
  8
1
  5
B2
  6
CONTINUOUS
 62
7
 10
197.177365
 20
26.653319
 30
32.0
 42
0.073912
  0
VERTEX
  8
1
  5
B3
  6
CONTINUOUS
 62
7
 10
195.09731
 20
26.497564
 30
32.0
 42
0.065658
  0
VERTEX
  8
1
  5
B4
  6
CONTINUOUS
 62
7
 10
193.02029
 20
25.7263
 30
32.0
 42
0.055405
  0
VERTEX
  8
1
  5
B5
  6
CONTINUOUS
 62
7
 10
191.024253
 20
24.368471
 30
32.0
 42
0.055405
  0
SEQEND
  8
1
  5
B6
  0
POINT
  8
1
  5
B8
  6
CONTINUOUS
 62
7
 10
187.97742
 20
-3.64587
 30
32.0
 50
0.0
  0
POLYLINE
  8
1
  5
BA
  6
CONTINUOUS
 62
7
 210
0.0
 220
0.0
 230
-1.0
 10
0.0
 20
0.0
 30
-32.0
 66
1
 70
0
  0
VERTEX
  8
1
  5
BB
  6
CONTINUOUS
 62
7
 10
-175.109005
 20
-14.41062
 30
-32.0
 42
0.026744
  0
VERTEX
  8
1
  5
BC
  6
CONTINUOUS
 62
7
 10
-174.795382
 20
-11.089433
 30
-32.0
 42
0.031179
  0
VERTEX
  8
1
  5
BD
  6
CONTINUOUS
 62
7
 10
-174.858663
 20
-7.999148
 30
-32.0
 42
0.038541
  0
VERTEX
  8
1
  5
BE
  6
CONTINUOUS
 62
7
 10
-175.296542
 20
-5.252369
 30
-32.0
 42
0.050229
  0
VERTEX
  8
1
  5
BF
  6
CONTINUOUS
 62
7
 10
-176.093064
 20
-2.949182
 30
-32.0
 42
0.067355
  0
VERTEX
  8
1
  5
C0
  6
CONTINUOUS
 62
7
 10
-177.219205
 20
-1.173511
 30
-32.0
 42
0.087034
  0
VERTEX
  8
1
  5
C1
  6
CONTINUOUS
 62
7
 10
-178.633932
 20
0.009943
 30
-32.0
 42
0.097312
  0
VERTEX
  8
1
  5
C2
  6
CONTINUOUS
 62
7
 10
-180.285694
 20
0.558057
 30
-32.0
 42
0.088204
  0
VERTEX
  8
1
  5
C3
  6
CONTINUOUS
 62
7
 10
-182.114304
 20
0.450859
 30
-32.0
 42
0.068683
  0
VERTEX
  8
1
  5
C4
  6
CONTINUOUS
 62
7
 10
-184.053133
 20
-0.307744
 30
-32.0
 42
0.051212
  0
VERTEX
  8
1
  5
C5
  6
CONTINUOUS
 62
7
 10
-186.031534
 20
-1.690112
 30
-32.0
 42
0.039177
  0
VERTEX
  8
1
  5
C6
  6
CONTINUOUS
 62
7
 10
-187.977417
 20
-3.645873
 30
-32.0
 42
0.039177
  0
SEQEND
  8
1
  5
C7
  0
LINE
  8
1
  5
C9
  6
CONTINUOUS
 62
7
 10
158.78363
 20
-14.41062
 30
32.0
 11
175.10901
 21
-14.41062
 31
32.0
  0
ENDBLK
  8
1
  5
CA
  0
BLOCK
  8
1
  5
CC
 70
1
 10
0.0
 20
0.0
 30
0.0
  2
*M1
  3
*M1
  0
LINE
  8
1
  5
CE
  6
CONTINUOUS
 62
7
 10
179.48977
 20
0.38339
 30
48.0
 11
179.48977
 21
0.38339
 31
32.0
  0
LINE
  8
1
  5
D0
  6
CONTINUOUS
 62
7
 10
197.67819
 20
26.59648
 30
48.0
 11
197.67819
 21
26.59648
 31
32.0
  0
LINE
  8
1
  5
D2
  6
CONTINUOUS
 62
7
 10
205.66473
 20
8.50761
 30
48.0
 11
205.66473
 21
8.50761
 31
32.0
  0
LINE
  8
1
  5
D4
  6
CONTINUOUS
 62
7
 10
192.67819
 20
-6.40352
 30
48.0
 11
192.67819
 21
-6.40352
 31
32.0
  0
LINE
  8
1
  5
D6
  6
CONTINUOUS
 62
7
 10
16.0118
 20
-14.41062
 30
16.0
 11
158.78363
 21
-14.41062
 31
16.0
  0
LINE
  8
1
  5
D8
  6
CONTINUOUS
 62
7
 10
16.0118
 20
35.58938
 30
16.0
 11
16.0118
 21
-14.41062
 31
16.0
  0
LINE
  8
1
  5
DA
  6
CONTINUOUS
 62
7
 10
158.65069
 20
35.58938
 30
16.0
 11
16.0118
 21
35.58938
 31
16.0
  0
LINE
  8
1
  5
DC
  6
CONTINUOUS
 62
7
 10
175.10901
 20
-14.41062
 30
48.0
 11
175.10901
 21
-14.41062
 31
32.0
  0
LINE
  8
1
  5
DE
  6
CONTINUOUS
 62
7
 10
175.10901
 20
-14.41062
 30
48.0
 11
16.0118
 21
-14.41062
 31
48.0
  0
LINE
  8
1
  5
E0
  6
CONTINUOUS
 62
7
 10
16.0118
 20
-14.41062
 30
48.0
 11
16.0118
 21
-14.41062
 31
16.0
  0
LINE
  8
1
  5
E2
  6
CONTINUOUS
 62
7
 10
187.97742
 20
-3.64587
 30
48.0
 11
187.97742
 21
-3.64587
 31
32.0
  0
POLYLINE
  8
1
  5
E4
  6
CONTINUOUS
 62
7
 10
0.0
 20
0.0
 30
48.0
 66
1
 70
0
  0
VERTEX
  8
1
  5
E5
  6
CONTINUOUS
 62
7
 10
187.977417
 20
-3.645873
 30
48.0
 42
0.039177
  0
VERTEX
  8
1
  5
E6
  6
CONTINUOUS
 62
7
 10
186.031534
 20
-1.690112
 30
48.0
 42
0.051212
  0
VERTEX
  8
1
  5
E7
  6
CONTINUOUS
 62
7
 10
184.053133
 20
-0.307744
 30
48.0
 42
0.068683
  0
VERTEX
  8
1
  5
E8
  6
CONTINUOUS
 62
7
 10
182.114304
 20
0.450859
 30
48.0
 42
0.088204
  0
VERTEX
  8
1
  5
E9
  6
CONTINUOUS
 62
7
 10
180.285694
 20
0.558057
 30
48.0
 42
0.097312
  0
VERTEX
  8
1
  5
EA
  6
CONTINUOUS
 62
7
 10
178.633932
 20
0.009943
 30
48.0
 42
0.087034
  0
VERTEX
  8
1
  5
EB
  6
CONTINUOUS
 62
7
 10
177.219205
 20
-1.173511
 30
48.0
 42
0.067355
  0
VERTEX
  8
1
  5
EC
  6
CONTINUOUS
 62
7
 10
176.093064
 20
-2.949182
 30
48.0
 42
0.050229
  0
VERTEX
  8
1
  5
ED
  6
CONTINUOUS
 62
7
 10
175.296542
 20
-5.252369
 30
48.0
 42
0.038541
  0
VERTEX
  8
1
  5
EE
  6
CONTINUOUS
 62
7
 10
174.858663
 20
-7.999148
 30
48.0
 42
0.031179
  0
VERTEX
  8
1
  5
EF
  6
CONTINUOUS
 62
7
 10
174.795382
 20
-11.089433
 30
48.0
 42
0.026744
  0
VERTEX
  8
1
  5
F0
  6
CONTINUOUS
 62
7
 10
175.109005
 20
-14.41062
 30
48.0
 42
0.026744
  0
SEQEND
  8
1
  5
F1
  0
LINE
  8
1
  5
F3
  6
CONTINUOUS
 62
7
 10
187.97742
 20
-3.64587
 30
48.0
 11
187.97742
 21
-3.64587
 31
32.0
  0
POINT
  8
1
  5
F5
  6
CONTINUOUS
 62
7
 10
187.97742
 20
-3.64587
 30
48.0
 50
0.0
  0
LINE
  8
1
  5
F7
  6
CONTINUOUS
 62
7
 10
191.02425
 20
24.36847
 30
48.0
 11
191.02425
 21
24.36847
 31
32.0
  0
POLYLINE
  8
1
  5
F9
  6
CONTINUOUS
 62
7
 210
0.0
 220
0.0
 230
-1.0
 10
0.0
 20
0.0
 30
-48.0
 66
1
 70
0
  0
VERTEX
  8
1
  5
FA
  6
CONTINUOUS
 62
7
 10
-191.024253
 20
24.368471
 30
-48.0
 42
0.055405
  0
VERTEX
  8
1
  5
FB
  6
CONTINUOUS
 62
7
 10
-193.02029
 20
25.7263
 30
-48.0
 42
0.065658
  0
VERTEX
  8
1
  5
FC
  6
CONTINUOUS
 62
7
 10
-195.09731
 20
26.497564
 30
-48.0
 42
0.073912
  0
VERTEX
  8
1
  5
FD
  6
CONTINUOUS
 62
7
 10
-197.177365
 20
26.653319
 30
-48.0
 42
0.075852
  0
VERTEX
  8
1
  5
FE
  6
CONTINUOUS
 62
7
 10
-199.182394
 20
26.187717
 30
-48.0
 42
0.070231
  0
VERTEX
  8
1
  5
FF
  6
CONTINUOUS
 62
7
 10
-201.037151
 20
25.118234
 30
-48.0
 42
0.060418
  0
VERTEX
  8
1
  5
100
  6
CONTINUOUS
 62
7
 10
-202.672029
 20
23.485006
 30
-48.0
 42
0.050528
  0
VERTEX
  8
1
  5
101
  6
CONTINUOUS
 62
7
 10
-204.025674
 20
21.349324
 30
-48.0
 42
0.042592
  0
VERTEX
  8
1
  5
102
  6
CONTINUOUS
 62
7
 10
-205.047285
 20
18.791339
 30
-48.0
 42
0.036953
  0
VERTEX
  8
1
  5
103
  6
CONTINUOUS
 62
7
 10
-205.698523
 20
15.907048
 30
-48.0
 42
0.033332
  0
VERTEX
  8
1
  5
104
  6
CONTINUOUS
 62
7
 10
-205.954947
 20
12.804695
 30
-48.0
 42
0.031391
  0
VERTEX
  8
1
  5
105
  6
CONTINUOUS
 62
7
 10
-205.806934
 20
9.600706
 30
-48.0
 42
0.030914
  0
VERTEX
  8
1
  5
106
  6
CONTINUOUS
 62
7
 10
-205.260039
 20
6.415322
 30
-48.0
 42
0.031844
  0
VERTEX
  8
1
  5
107
  6
CONTINUOUS
 62
7
 10
-204.334787
 20
3.368087
 30
-48.0
 42
0.03429
  0
VERTEX
  8
1
  5
108
  6
CONTINUOUS
 62
7
 10
-203.0659
 20
0.57336
 30
-48.0
 42
0.038514
  0
VERTEX
  8
1
  5
109
  6
CONTINUOUS
 62
7
 10
-201.500998
 20
-1.863978
 30
-48.0
 42
0.044869
  0
VERTEX
  8
1
  5
10A
  6
CONTINUOUS
 62
7
 10
-199.69881
 20
-3.852457
 30
-48.0
 42
0.053521
  0
VERTEX
  8
1
  5
10B
  6
CONTINUOUS
 62
7
 10
-197.726969
 20
-5.317451
 30
-48.0
 42
0.063718
  0
VERTEX
  8
1
  5
10C
  6
CONTINUOUS
 62
7
 10
-195.659477
 20
-6.203982
 30
-48.0
 42
0.0727
  0
VERTEX
  8
1
  5
10D
  6
CONTINUOUS
 62
7
 10
-193.573922
 20
-6.478779
 30
-48.0
 42
0.076103
  0
VERTEX
  8
1
  5
10E
  6
CONTINUOUS
 62
7
 10
-191.548573
 20
-6.13153
 30
-48.0
 42
0.071776
  0
VERTEX
  8
1
  5
10F
  6
CONTINUOUS
 62
7
 10
-189.659439
 20
-5.175266
 30
-48.0
 42
0.062406
  0
VERTEX
  8
1
  5
110
  6
CONTINUOUS
 62
7
 10
-187.977416
 20
-3.645874
 30
-48.0
 42
0.062406
  0
SEQEND
  8
1
  5
111
  0
LINE
  8
1
  5
113
  6
CONTINUOUS
 62
7
 10
191.02425
 20
24.36847
 30
48.0
 11
191.02425
 21
24.36847
 31
32.0
  0
POINT
  8
1
  5
115
  6
CONTINUOUS
 62
7
 10
191.02425
 20
24.36847
 30
48.0
 50
0.0
  0
LINE
  8
1
  5
117
  6
CONTINUOUS
 62
7
 10
175.24195
 20
35.58938
 30
48.0
 11
175.24195
 21
35.58938
 31
32.0
  0
POLYLINE
  8
1
  5
119
  6
CONTINUOUS
 62
7
 10
0.0
 20
0.0
 30
48.0
 66
1
 70
0
  0
VERTEX
  8
1
  5
11A
  6
CONTINUOUS
 62
7
 10
175.241948
 20
35.58938
 30
48.0
 42
0.037
  0
VERTEX
  8
1
  5
11B
  6
CONTINUOUS
 62
7
 10
175.229331
 20
30.88416
 30
48.0
 42
0.049879
  0
VERTEX
  8
1
  5
11C
  6
CONTINUOUS
 62
7
 10
175.905607
 20
26.885395
 30
48.0
 42
0.071033
  0
VERTEX
  8
1
  5
11D
  6
CONTINUOUS
 62
7
 10
177.242064
 20
23.762858
 30
48.0
 42
0.098727
  0
VERTEX
  8
1
  5
11E
  6
CONTINUOUS
 62
7
 10
179.181961
 20
21.64912
 30
48.0
 42
0.11376
  0
VERTEX
  8
1
  5
11F
  6
CONTINUOUS
 62
7
 10
181.642937
 20
20.633923
 30
48.0
 42
0.097982
  0
VERTEX
  8
1
  5
120
  6
CONTINUOUS
 62
7
 10
184.520509
 20
20.760369
 30
48.0
 42
0.070311
  0
VERTEX
  8
1
  5
121
  6
CONTINUOUS
 62
7
 10
187.692505
 20
22.023088
 30
48.0
 42
0.049415
  0
VERTEX
  8
1
  5
122
  6
CONTINUOUS
 62
7
 10
191.024254
 20
24.368471
 30
48.0
 42
0.049415
  0
SEQEND
  8
1
  5
123
  0
LINE
  8
1
  5
125
  6
CONTINUOUS
 62
7
 10
16.0118
 20
35.58938
 30
48.0
 11
16.0118
 21
35.58938
 31
16.0
  0
LINE
  8
1
  5
127
  6
CONTINUOUS
 62
7
 10
16.0118
 20
35.58938
 30
48.0
 11
175.24195
 21
35.58938
 31
48.0
  0
LINE
  8
1
  5
129
  6
CONTINUOUS
 62
7
 10
16.0118
 20
-14.41062
 30
48.0
 11
16.0118
 21
35.58938
 31
48.0
  0
ENDBLK
  8
1
  5
12A
  0
BLOCK
  8
1
  5
12C
 70
1
 10
0.0
 20
0.0
 30
0.0
  2
*M2
  3
*M2
  0
INSERT
  8
1
  5
12E
  6
CONTINUOUS
 62
7
  2
*M0
 10
0.0
 20
0.0
 30
0.0
 41
1.0
 42
1.0
 43
1.0
 70
1
 71
1
  0
INSERT
  8
1
  5
130
  6
CONTINUOUS
 62
7
  2
*M1
 10
0.0
 20
0.0
 30
0.0
 41
1.0
 42
1.0
 43
1.0
 70
1
 71
1
  0
ENDBLK
  8
1
  5
131
  0
BLOCK
  8
1
  5
133
 70
1
 10
0.0
 20
0.0
 30
0.0
  2
*M3
  3
*M3
  0
LINE
  8
1
  5
135
  6
CONTINUOUS
 62
7
 10
311.60893
 20
-5.20599
 30
48.0
 11
311.60893
 21
-5.20599
 31
32.0
  0
LINE
  8
1
  5
137
  6
CONTINUOUS
 62
7
 10
329.79735
 20
21.0071
 30
48.0
 11
329.79735
 21
21.0071
 31
32.0
  0
LINE
  8
1
  5
139
  6
CONTINUOUS
 62
7
 10
337.78389
 20
2.91823
 30
48.0
 11
337.78389
 21
2.91823
 31
32.0
  0
LINE
  8
1
  5
13B
  6
CONTINUOUS
 62
7
 10
324.79735
 20
-11.9929
 30
48.0
 11
324.79735
 21
-11.9929
 31
32.0
  0
POLYLINE
  8
1
  5
13D
  6
CONTINUOUS
 62
7
 210
0.0
 220
0.0
 230
-1.0
 10
0.0
 20
0.0
 30
-32.0
 66
1
 70
0
  0
VERTEX
  8
1
  5
13E
  6
CONTINUOUS
 62
7
 10
-307.228165
 20
-20.0
 30
-32.0
 42
0.026744
  0
VERTEX
  8
1
  5
13F
  6
CONTINUOUS
 62
7
 10
-306.914542
 20
-16.678813
 30
-32.0
 42
0.031179
  0
VERTEX
  8
1
  5
140
  6
CONTINUOUS
 62
7
 10
-306.977823
 20
-13.588528
 30
-32.0
 42
0.038541
  0
VERTEX
  8
1
  5
141
  6
CONTINUOUS
 62
7
 10
-307.415702
 20
-10.841749
 30
-32.0
 42
0.050229
  0
VERTEX
  8
1
  5
142
  6
CONTINUOUS
 62
7
 10
-308.212224
 20
-8.538562
 30
-32.0
 42
0.067355
  0
VERTEX
  8
1
  5
143
  6
CONTINUOUS
 62
7
 10
-309.338365
 20
-6.762891
 30
-32.0
 42
0.087034
  0
VERTEX
  8
1
  5
144
  6
CONTINUOUS
 62
7
 10
-310.753092
 20
-5.579437
 30
-32.0
 42
0.097312
  0
VERTEX
  8
1
  5
145
  6
CONTINUOUS
 62
7
 10
-312.404854
 20
-5.031323
 30
-32.0
 42
0.088204
  0
VERTEX
  8
1
  5
146
  6
CONTINUOUS
 62
7
 10
-314.233464
 20
-5.138521
 30
-32.0
 42
0.068683
  0
VERTEX
  8
1
  5
147
  6
CONTINUOUS
 62
7
 10
-316.172293
 20
-5.897124
 30
-32.0
 42
0.051212
  0
VERTEX
  8
1
  5
148
  6
CONTINUOUS
 62
7
 10
-318.150694
 20
-7.279492
 30
-32.0
 42
0.039177
  0
VERTEX
  8
1
  5
149
  6
CONTINUOUS
 62
7
 10
-320.096577
 20
-9.235253
 30
-32.0
 42
0.039177
  0
SEQEND
  8
1
  5
14A
  0
LINE
  8
1
  5
14C
  6
CONTINUOUS
 62
7
 10
307.22817
 20
-20.0
 30
48.0
 11
307.22817
 21
-20.0
 31
32.0
  0
POLYLINE
  8
1
  5
14E
  6
CONTINUOUS
 62
7
 10
0.0
 20
0.0
 30
48.0
 66
1
 70
0
  0
VERTEX
  8
1
  5
14F
  6
CONTINUOUS
 62
7
 10
320.096577
 20
-9.235253
 30
48.0
 42
0.039177
  0
VERTEX
  8
1
  5
150
  6
CONTINUOUS
 62
7
 10
318.150694
 20
-7.279492
 30
48.0
 42
0.051212
  0
VERTEX
  8
1
  5
151
  6
CONTINUOUS
 62
7
 10
316.172293
 20
-5.897124
 30
48.0
 42
0.068683
  0
VERTEX
  8
1
  5
152
  6
CONTINUOUS
 62
7
 10
314.233464
 20
-5.138521
 30
48.0
 42
0.088204
  0
VERTEX
  8
1
  5
153
  6
CONTINUOUS
 62
7
 10
312.404854
 20
-5.031323
 30
48.0
 42
0.097312
  0
VERTEX
  8
1
  5
154
  6
CONTINUOUS
 62
7
 10
310.753092
 20
-5.579437
 30
48.0
 42
0.087034
  0
VERTEX
  8
1
  5
155
  6
CONTINUOUS
 62
7
 10
309.338365
 20
-6.762891
 30
48.0
 42
0.067355
  0
VERTEX
  8
1
  5
156
  6
CONTINUOUS
 62
7
 10
308.212224
 20
-8.538562
 30
48.0
 42
0.050229
  0
VERTEX
  8
1
  5
157
  6
CONTINUOUS
 62
7
 10
307.415702
 20
-10.841749
 30
48.0
 42
0.038541
  0
VERTEX
  8
1
  5
158
  6
CONTINUOUS
 62
7
 10
306.977823
 20
-13.588528
 30
48.0
 42
0.031179
  0
VERTEX
  8
1
  5
159
  6
CONTINUOUS
 62
7
 10
306.914542
 20
-16.678813
 30
48.0
 42
0.026744
  0
VERTEX
  8
1
  5
15A
  6
CONTINUOUS
 62
7
 10
307.228165
 20
-20.0
 30
48.0
 42
0.026744
  0
SEQEND
  8
1
  5
15B
  0
LINE
  8
1
  5
15D
  6
CONTINUOUS
 62
7
 10
320.09658
 20
-9.23525
 30
48.0
 11
320.09658
 21
-9.23525
 31
32.0
  0
POINT
  8
1
  5
15F
  6
CONTINUOUS
 62
7
 10
320.09658
 20
-9.23525
 30
32.0
 50
0.0
  0
POINT
  8
1
  5
161
  6
CONTINUOUS
 62
7
 10
320.09658
 20
-9.23525
 30
48.0
 50
0.0
  0
LINE
  8
1
  5
163
  6
CONTINUOUS
 62
7
 10
320.09658
 20
-9.23525
 30
48.0
 11
320.09658
 21
-9.23525
 31
32.0
  0
POLYLINE
  8
1
  5
165
  6
CONTINUOUS
 62
7
 10
0.0
 20
0.0
 30
32.0
 66
1
 70
0
  0
VERTEX
  8
1
  5
166
  6
CONTINUOUS
 62
7
 10
320.096576
 20
-9.235254
 30
32.0
 42
0.062406
  0
VERTEX
  8
1
  5
167
  6
CONTINUOUS
 62
7
 10
321.778599
 20
-10.764646
 30
32.0
 42
0.071776
  0
VERTEX
  8
1
  5
168
  6
CONTINUOUS
 62
7
 10
323.667733
 20
-11.72091
 30
32.0
 42
0.076103
  0
VERTEX
  8
1
  5
169
  6
CONTINUOUS
 62
7
 10
325.693082
 20
-12.068159
 30
32.0
 42
0.0727
  0
VERTEX
  8
1
  5
16A
  6
CONTINUOUS
 62
7
 10
327.778637
 20
-11.793362
 30
32.0
 42
0.063718
  0
VERTEX
  8
1
  5
16B
  6
CONTINUOUS
 62
7
 10
329.846129
 20
-10.906831
 30
32.0
 42
0.053521
  0
VERTEX
  8
1
  5
16C
  6
CONTINUOUS
 62
7
 10
331.81797
 20
-9.441837
 30
32.0
 42
0.044869
  0
VERTEX
  8
1
  5
16D
  6
CONTINUOUS
 62
7
 10
333.620158
 20
-7.453358
 30
32.0
 42
0.038514
  0
VERTEX
  8
1
  5
16E
  6
CONTINUOUS
 62
7
 10
335.18506
 20
-5.01602
 30
32.0
 42
0.03429
  0
VERTEX
  8
1
  5
16F
  6
CONTINUOUS
 62
7
 10
336.453947
 20
-2.221293
 30
32.0
 42
0.031844
  0
VERTEX
  8
1
  5
170
  6
CONTINUOUS
 62
7
 10
337.379199
 20
0.825942
 30
32.0
 42
0.030914
  0
VERTEX
  8
1
  5
171
  6
CONTINUOUS
 62
7
 10
337.926094
 20
4.011326
 30
32.0
 42
0.031391
  0
VERTEX
  8
1
  5
172
  6
CONTINUOUS
 62
7
 10
338.074107
 20
7.215315
 30
32.0
 42
0.033332
  0
VERTEX
  8
1
  5
173
  6
CONTINUOUS
 62
7
 10
337.817683
 20
10.317668
 30
32.0
 42
0.036953
  0
VERTEX
  8
1
  5
174
  6
CONTINUOUS
 62
7
 10
337.166445
 20
13.201959
 30
32.0
 42
0.042592
  0
VERTEX
  8
1
  5
175
  6
CONTINUOUS
 62
7
 10
336.144834
 20
15.759944
 30
32.0
 42
0.050528
  0
VERTEX
  8
1
  5
176
  6
CONTINUOUS
 62
7
 10
334.791189
 20
17.895626
 30
32.0
 42
0.060418
  0
VERTEX
  8
1
  5
177
  6
CONTINUOUS
 62
7
 10
333.156311
 20
19.528854
 30
32.0
 42
0.070231
  0
VERTEX
  8
1
  5
178
  6
CONTINUOUS
 62
7
 10
331.301554
 20
20.598337
 30
32.0
 42
0.075852
  0
VERTEX
  8
1
  5
179
  6
CONTINUOUS
 62
7
 10
329.296525
 20
21.063939
 30
32.0
 42
0.073912
  0
VERTEX
  8
1
  5
17A
  6
CONTINUOUS
 62
7
 10
327.21647
 20
20.908184
 30
32.0
 42
0.065658
  0
VERTEX
  8
1
  5
17B
  6
CONTINUOUS
 62
7
 10
325.13945
 20
20.13692
 30
32.0
 42
0.055405
  0
VERTEX
  8
1
  5
17C
  6
CONTINUOUS
 62
7
 10
323.143413
 20
18.779091
 30
32.0
 42
0.055405
  0
SEQEND
  8
1
  5
17D
  0
POLYLINE
  8
1
  5
17F
  6
CONTINUOUS
 62
7
 210
0.0
 220
0.0
 230
-1.0
 10
0.0
 20
0.0
 30
-48.0
 66
1
 70
0
  0
VERTEX
  8
1
  5
180
  6
CONTINUOUS
 62
7
 10
-323.143413
 20
18.779091
 30
-48.0
 42
0.055405
  0
VERTEX
  8
1
  5
181
  6
CONTINUOUS
 62
7
 10
-325.13945
 20
20.13692
 30
-48.0
 42
0.065658
  0
VERTEX
  8
1
  5
182
  6
CONTINUOUS
 62
7
 10
-327.21647
 20
20.908184
 30
-48.0
 42
0.073912
  0
VERTEX
  8
1
  5
183
  6
CONTINUOUS
 62
7
 10
-329.296525
 20
21.063939
 30
-48.0
 42
0.075852
  0
VERTEX
  8
1
  5
184
  6
CONTINUOUS
 62
7
 10
-331.301554
 20
20.598337
 30
-48.0
 42
0.070231
  0
VERTEX
  8
1
  5
185
  6
CONTINUOUS
 62
7
 10
-333.156311
 20
19.528854
 30
-48.0
 42
0.060418
  0
VERTEX
  8
1
  5
186
  6
CONTINUOUS
 62
7
 10
-334.791189
 20
17.895626
 30
-48.0
 42
0.050528
  0
VERTEX
  8
1
  5
187
  6
CONTINUOUS
 62
7
 10
-336.144834
 20
15.759944
 30
-48.0
 42
0.042592
  0
VERTEX
  8
1
  5
188
  6
CONTINUOUS
 62
7
 10
-337.166445
 20
13.201959
 30
-48.0
 42
0.036953
  0
VERTEX
  8
1
  5
189
  6
CONTINUOUS
 62
7
 10
-337.817683
 20
10.317668
 30
-48.0
 42
0.033332
  0
VERTEX
  8
1
  5
18A
  6
CONTINUOUS
 62
7
 10
-338.074107
 20
7.215315
 30
-48.0
 42
0.031391
  0
VERTEX
  8
1
  5
18B
  6
CONTINUOUS
 62
7
 10
-337.926094
 20
4.011326
 30
-48.0
 42
0.030914
  0
VERTEX
  8
1
  5
18C
  6
CONTINUOUS
 62
7
 10
-337.379199
 20
0.825942
 30
-48.0
 42
0.031844
  0
VERTEX
  8
1
  5
18D
  6
CONTINUOUS
 62
7
 10
-336.453947
 20
-2.221293
 30
-48.0
 42
0.03429
  0
VERTEX
  8
1
  5
18E
  6
CONTINUOUS
 62
7
 10
-335.18506
 20
-5.01602
 30
-48.0
 42
0.038514
  0
VERTEX
  8
1
  5
18F
  6
CONTINUOUS
 62
7
 10
-333.620158
 20
-7.453358
 30
-48.0
 42
0.044869
  0
VERTEX
  8
1
  5
190
  6
CONTINUOUS
 62
7
 10
-331.81797
 20
-9.441837
 30
-48.0
 42
0.053521
  0
VERTEX
  8
1
  5
191
  6
CONTINUOUS
 62
7
 10
-329.846129
 20
-10.906831
 30
-48.0
 42
0.063718
  0
VERTEX
  8
1
  5
192
  6
CONTINUOUS
 62
7
 10
-327.778637
 20
-11.793362
 30
-48.0
 42
0.0727
  0
VERTEX
  8
1
  5
193
  6
CONTINUOUS
 62
7
 10
-325.693082
 20
-12.068159
 30
-48.0
 42
0.076103
  0
VERTEX
  8
1
  5
194
  6
CONTINUOUS
 62
7
 10
-323.667733
 20
-11.72091
 30
-48.0
 42
0.071776
  0
VERTEX
  8
1
  5
195
  6
CONTINUOUS
 62
7
 10
-321.778599
 20
-10.764646
 30
-48.0
 42
0.062406
  0
VERTEX
  8
1
  5
196
  6
CONTINUOUS
 62
7
 10
-320.096576
 20
-9.235254
 30
-48.0
 42
0.062406
  0
SEQEND
  8
1
  5
197
  0
LINE
  8
1
  5
199
  6
CONTINUOUS
 62
7
 10
323.14341
 20
18.77909
 30
48.0
 11
323.14341
 21
18.77909
 31
32.0
  0
POINT
  8
1
  5
19B
  6
CONTINUOUS
 62
7
 10
323.14341
 20
18.77909
 30
32.0
 50
0.0
  0
POINT
  8
1
  5
19D
  6
CONTINUOUS
 62
7
 10
323.14341
 20
18.77909
 30
48.0
 50
0.0
  0
LINE
  8
1
  5
19F
  6
CONTINUOUS
 62
7
 10
323.14341
 20
18.77909
 30
48.0
 11
323.14341
 21
18.77909
 31
32.0
  0
POLYLINE
  8
1
  5
1A1
  6
CONTINUOUS
 62
7
 210
0.0
 220
0.0
 230
-1.0
 10
0.0
 20
0.0
 30
-32.0
 66
1
 70
0
  0
VERTEX
  8
1
  5
1A2
  6
CONTINUOUS
 62
7
 10
-323.143414
 20
18.779091
 30
-32.0
 42
0.049415
  0
VERTEX
  8
1
  5
1A3
  6
CONTINUOUS
 62
7
 10
-319.811665
 20
16.433708
 30
-32.0
 42
0.070311
  0
VERTEX
  8
1
  5
1A4
  6
CONTINUOUS
 62
7
 10
-316.639669
 20
15.170989
 30
-32.0
 42
0.097982
  0
VERTEX
  8
1
  5
1A5
  6
CONTINUOUS
 62
7
 10
-313.762097
 20
15.044543
 30
-32.0
 42
0.11376
  0
VERTEX
  8
1
  5
1A6
  6
CONTINUOUS
 62
7
 10
-311.301121
 20
16.05974
 30
-32.0
 42
0.098727
  0
VERTEX
  8
1
  5
1A7
  6
CONTINUOUS
 62
7
 10
-309.361224
 20
18.173478
 30
-32.0
 42
0.071033
  0
VERTEX
  8
1
  5
1A8
  6
CONTINUOUS
 62
7
 10
-308.024767
 20
21.296015
 30
-32.0
 42
0.049879
  0
VERTEX
  8
1
  5
1A9
  6
CONTINUOUS
 62
7
 10
-307.348491
 20
25.29478
 30
-32.0
 42
0.037
  0
VERTEX
  8
1
  5
1AA
  6
CONTINUOUS
 62
7
 10
-307.361108
 20
30.0
 30
-32.0
 42
0.037
  0
SEQEND
  8
1
  5
1AB
  0
POLYLINE
  8
1
  5
1AD
  6
CONTINUOUS
 62
7
 10
0.0
 20
0.0
 30
48.0
 66
1
 70
0
  0
VERTEX
  8
1
  5
1AE
  6
CONTINUOUS
 62
7
 10
307.361108
 20
30.0
 30
48.0
 42
0.037
  0
VERTEX
  8
1
  5
1AF
  6
CONTINUOUS
 62
7
 10
307.348491
 20
25.29478
 30
48.0
 42
0.049879
  0
VERTEX
  8
1
  5
1B0
  6
CONTINUOUS
 62
7
 10
308.024767
 20
21.296015
 30
48.0
 42
0.071033
  0
VERTEX
  8
1
  5
1B1
  6
CONTINUOUS
 62
7
 10
309.361224
 20
18.173478
 30
48.0
 42
0.098727
  0
VERTEX
  8
1
  5
1B2
  6
CONTINUOUS
 62
7
 10
311.301121
 20
16.05974
 30
48.0
 42
0.11376
  0
VERTEX
  8
1
  5
1B3
  6
CONTINUOUS
 62
7
 10
313.762097
 20
15.044543
 30
48.0
 42
0.097982
  0
VERTEX
  8
1
  5
1B4
  6
CONTINUOUS
 62
7
 10
316.639669
 20
15.170989
 30
48.0
 42
0.070311
  0
VERTEX
  8
1
  5
1B5
  6
CONTINUOUS
 62
7
 10
319.811665
 20
16.433708
 30
48.0
 42
0.049415
  0
VERTEX
  8
1
  5
1B6
  6
CONTINUOUS
 62
7
 10
323.143414
 20
18.779091
 30
48.0
 42
0.049415
  0
SEQEND
  8
1
  5
1B7
  0
LINE
  8
1
  5
1B9
  6
CONTINUOUS
 62
7
 10
307.36111
 20
30.0
 30
32.0
 11
307.36111
 21
30.0
 31
48.0
  0
LINE
  8
1
  5
1BB
  6
CONTINUOUS
 62
7
 10
290.76985
 20
30.0
 30
32.0
 11
307.36111
 21
30.0
 31
32.0
  0
POLYLINE
  8
1
  5
1BD
  6
CONTINUOUS
 62
7
 10
0.0
 20
0.0
 30
32.0
 66
1
 70
0
  0
VERTEX
  8
1
  5
1BE
  6
CONTINUOUS
 62
7
 10
274.987546
 20
18.779091
 30
32.0
 42
0.049415
  0
VERTEX
  8
1
  5
1BF
  6
CONTINUOUS
 62
7
 10
278.319295
 20
16.433708
 30
32.0
 42
0.070311
  0
VERTEX
  8
1
  5
1C0
  6
CONTINUOUS
 62
7
 10
281.491291
 20
15.170989
 30
32.0
 42
0.097982
  0
VERTEX
  8
1
  5
1C1
  6
CONTINUOUS
 62
7
 10
284.368863
 20
15.044543
 30
32.0
 42
0.11376
  0
VERTEX
  8
1
  5
1C2
  6
CONTINUOUS
 62
7
 10
286.829839
 20
16.05974
 30
32.0
 42
0.098727
  0
VERTEX
  8
1
  5
1C3
  6
CONTINUOUS
 62
7
 10
288.769736
 20
18.173478
 30
32.0
 42
0.071033
  0
VERTEX
  8
1
  5
1C4
  6
CONTINUOUS
 62
7
 10
290.106193
 20
21.296015
 30
32.0
 42
0.049879
  0
VERTEX
  8
1
  5
1C5
  6
CONTINUOUS
 62
7
 10
290.782469
 20
25.29478
 30
32.0
 42
0.037
  0
VERTEX
  8
1
  5
1C6
  6
CONTINUOUS
 62
7
 10
290.769852
 20
30.0
 30
32.0
 42
0.037
  0
SEQEND
  8
1
  5
1C7
  0
POINT
  8
1
  5
1C9
  6
CONTINUOUS
 62
7
 10
274.98755
 20
18.77909
 30
32.0
 50
0.0
  0
POLYLINE
  8
1
  5
1CB
  6
CONTINUOUS
 62
7
 210
0.0
 220
0.0
 230
-1.0
 10
0.0
 20
0.0
 30
-32.0
 66
1
 70
0
  0
VERTEX
  8
1
  5
1CC
  6
CONTINUOUS
 62
7
 10
-278.034384
 20
-9.235254
 30
-32.0
 42
0.062406
  0
VERTEX
  8
1
  5
1CD
  6
CONTINUOUS
 62
7
 10
-276.352361
 20
-10.764646
 30
-32.0
 42
0.071776
  0
VERTEX
  8
1
  5
1CE
  6
CONTINUOUS
 62
7
 10
-274.463227
 20
-11.72091
 30
-32.0
 42
0.076103
  0
VERTEX
  8
1
  5
1CF
  6
CONTINUOUS
 62
7
 10
-272.437878
 20
-12.068159
 30
-32.0
 42
0.0727
  0
VERTEX
  8
1
  5
1D0
  6
CONTINUOUS
 62
7
 10
-270.352323
 20
-11.793362
 30
-32.0
 42
0.063718
  0
VERTEX
  8
1
  5
1D1
  6
CONTINUOUS
 62
7
 10
-268.284831
 20
-10.906831
 30
-32.0
 42
0.053521
  0
VERTEX
  8
1
  5
1D2
  6
CONTINUOUS
 62
7
 10
-266.31299
 20
-9.441837
 30
-32.0
 42
0.044869
  0
VERTEX
  8
1
  5
1D3
  6
CONTINUOUS
 62
7
 10
-264.510802
 20
-7.453358
 30
-32.0
 42
0.038514
  0
VERTEX
  8
1
  5
1D4
  6
CONTINUOUS
 62
7
 10
-262.9459
 20
-5.01602
 30
-32.0
 42
0.03429
  0
VERTEX
  8
1
  5
1D5
  6
CONTINUOUS
 62
7
 10
-261.677013
 20
-2.221293
 30
-32.0
 42
0.031844
  0
VERTEX
  8
1
  5
1D6
  6
CONTINUOUS
 62
7
 10
-260.751761
 20
0.825942
 30
-32.0
 42
0.030914
  0
VERTEX
  8
1
  5
1D7
  6
CONTINUOUS
 62
7
 10
-260.204866
 20
4.011326
 30
-32.0
 42
0.031391
  0
VERTEX
  8
1
  5
1D8
  6
CONTINUOUS
 62
7
 10
-260.056853
 20
7.215315
 30
-32.0
 42
0.033332
  0
VERTEX
  8
1
  5
1D9
  6
CONTINUOUS
 62
7
 10
-260.313277
 20
10.317668
 30
-32.0
 42
0.036953
  0
VERTEX
  8
1
  5
1DA
  6
CONTINUOUS
 62
7
 10
-260.964515
 20
13.201959
 30
-32.0
 42
0.042592
  0
VERTEX
  8
1
  5
1DB
  6
CONTINUOUS
 62
7
 10
-261.986126
 20
15.759944
 30
-32.0
 42
0.050528
  0
VERTEX
  8
1
  5
1DC
  6
CONTINUOUS
 62
7
 10
-263.339771
 20
17.895626
 30
-32.0
 42
0.060418
  0
VERTEX
  8
1
  5
1DD
  6
CONTINUOUS
 62
7
 10
-264.974649
 20
19.528854
 30
-32.0
 42
0.070231
  0
VERTEX
  8
1
  5
1DE
  6
CONTINUOUS
 62
7
 10
-266.829406
 20
20.598337
 30
-32.0
 42
0.075852
  0
VERTEX
  8
1
  5
1DF
  6
CONTINUOUS
 62
7
 10
-268.834435
 20
21.063939
 30
-32.0
 42
0.073912
  0
VERTEX
  8
1
  5
1E0
  6
CONTINUOUS
 62
7
 10
-270.91449
 20
20.908184
 30
-32.0
 42
0.065658
  0
VERTEX
  8
1
  5
1E1
  6
CONTINUOUS
 62
7
 10
-272.99151
 20
20.13692
 30
-32.0
 42
0.055405
  0
VERTEX
  8
1
  5
1E2
  6
CONTINUOUS
 62
7
 10
-274.987547
 20
18.779091
 30
-32.0
 42
0.055405
  0
SEQEND
  8
1
  5
1E3
  0
POINT
  8
1
  5
1E5
  6
CONTINUOUS
 62
7
 10
278.03438
 20
-9.23525
 30
32.0
 50
0.0
  0
POLYLINE
  8
1
  5
1E7
  6
CONTINUOUS
 62
7
 10
0.0
 20
0.0
 30
32.0
 66
1
 70
0
  0
VERTEX
  8
1
  5
1E8
  6
CONTINUOUS
 62
7
 10
290.902795
 20
-20.0
 30
32.0
 42
0.026744
  0
VERTEX
  8
1
  5
1E9
  6
CONTINUOUS
 62
7
 10
291.216418
 20
-16.678813
 30
32.0
 42
0.031179
  0
VERTEX
  8
1
  5
1EA
  6
CONTINUOUS
 62
7
 10
291.153137
 20
-13.588528
 30
32.0
 42
0.038541
  0
VERTEX
  8
1
  5
1EB
  6
CONTINUOUS
 62
7
 10
290.715258
 20
-10.841749
 30
32.0
 42
0.050229
  0
VERTEX
  8
1
  5
1EC
  6
CONTINUOUS
 62
7
 10
289.918736
 20
-8.538562
 30
32.0
 42
0.067355
  0
VERTEX
  8
1
  5
1ED
  6
CONTINUOUS
 62
7
 10
288.792595
 20
-6.762891
 30
32.0
 42
0.087034
  0
VERTEX
  8
1
  5
1EE
  6
CONTINUOUS
 62
7
 10
287.377868
 20
-5.579437
 30
32.0
 42
0.097312
  0
VERTEX
  8
1
  5
1EF
  6
CONTINUOUS
 62
7
 10
285.726106
 20
-5.031323
 30
32.0
 42
0.088204
  0
VERTEX
  8
1
  5
1F0
  6
CONTINUOUS
 62
7
 10
283.897496
 20
-5.138521
 30
32.0
 42
0.068683
  0
VERTEX
  8
1
  5
1F1
  6
CONTINUOUS
 62
7
 10
281.958667
 20
-5.897124
 30
32.0
 42
0.051212
  0
VERTEX
  8
1
  5
1F2
  6
CONTINUOUS
 62
7
 10
279.980266
 20
-7.279492
 30
32.0
 42
0.039177
  0
VERTEX
  8
1
  5
1F3
  6
CONTINUOUS
 62
7
 10
278.034383
 20
-9.235253
 30
32.0
 42
0.039177
  0
SEQEND
  8
1
  5
1F4
  0
LINE
  8
1
  5
1F6
  6
CONTINUOUS
 62
7
 10
307.22817
 20
-20.0
 30
32.0
 11
290.90279
 21
-20.0
 31
32.0
  0
ENDBLK
  8
1
  5
1F7
  0
BLOCK
  8
1
  5
1F9
 70
1
 10
0.0
 20
0.0
 30
0.0
  2
*M4
  3
*M4
  0
LINE
  8
1
  5
1FB
  6
CONTINUOUS
 62
7
 10
286.52203
 20
-5.20599
 30
16.0
 11
286.52203
 21
-5.20599
 31
32.0
  0
LINE
  8
1
  5
1FD
  6
CONTINUOUS
 62
7
 10
268.33361
 20
21.0071
 30
16.0
 11
268.33361
 21
21.0071
 31
32.0
  0
LINE
  8
1
  5
1FF
  6
CONTINUOUS
 62
7
 10
260.34707
 20
2.91823
 30
16.0
 11
260.34707
 21
2.91823
 31
32.0
  0
LINE
  8
1
  5
201
  6
CONTINUOUS
 62
7
 10
273.33361
 20
-11.9929
 30
16.0
 11
273.33361
 21
-11.9929
 31
32.0
  0
LINE
  8
1
  5
203
  6
CONTINUOUS
 62
7
 10
450.0
 20
-20.0
 30
48.0
 11
307.22817
 21
-20.0
 31
48.0
  0
LINE
  8
1
  5
205
  6
CONTINUOUS
 62
7
 10
450.0
 20
30.0
 30
48.0
 11
450.0
 21
-20.0
 31
48.0
  0
LINE
  8
1
  5
207
  6
CONTINUOUS
 62
7
 10
307.36111
 20
30.0
 30
48.0
 11
450.0
 21
30.0
 31
48.0
  0
LINE
  8
1
  5
209
  6
CONTINUOUS
 62
7
 10
290.90279
 20
-20.0
 30
16.0
 11
290.90279
 21
-20.0
 31
32.0
  0
LINE
  8
1
  5
20B
  6
CONTINUOUS
 62
7
 10
450.0
 20
-20.0
 30
16.0
 11
290.90279
 21
-20.0
 31
16.0
  0
LINE
  8
1
  5
20D
  6
CONTINUOUS
 62
7
 10
450.0
 20
-20.0
 30
16.0
 11
450.0
 21
-20.0
 31
48.0
  0
LINE
  8
1
  5
20F
  6
CONTINUOUS
 62
7
 10
278.03438
 20
-9.23525
 30
16.0
 11
278.03438
 21
-9.23525
 31
32.0
  0
POLYLINE
  8
1
  5
211
  6
CONTINUOUS
 62
7
 10
0.0
 20
0.0
 30
16.0
 66
1
 70
0
  0
VERTEX
  8
1
  5
212
  6
CONTINUOUS
 62
7
 10
290.902795
 20
-20.0
 30
16.0
 42
0.026744
  0
VERTEX
  8
1
  5
213
  6
CONTINUOUS
 62
7
 10
291.216418
 20
-16.678813
 30
16.0
 42
0.031179
  0
VERTEX
  8
1
  5
214
  6
CONTINUOUS
 62
7
 10
291.153137
 20
-13.588528
 30
16.0
 42
0.038541
  0
VERTEX
  8
1
  5
215
  6
CONTINUOUS
 62
7
 10
290.715258
 20
-10.841749
 30
16.0
 42
0.050229
  0
VERTEX
  8
1
  5
216
  6
CONTINUOUS
 62
7
 10
289.918736
 20
-8.538562
 30
16.0
 42
0.067355
  0
VERTEX
  8
1
  5
217
  6
CONTINUOUS
 62
7
 10
288.792595
 20
-6.762891
 30
16.0
 42
0.087034
  0
VERTEX
  8
1
  5
218
  6
CONTINUOUS
 62
7
 10
287.377868
 20
-5.579437
 30
16.0
 42
0.097312
  0
VERTEX
  8
1
  5
219
  6
CONTINUOUS
 62
7
 10
285.726106
 20
-5.031323
 30
16.0
 42
0.088204
  0
VERTEX
  8
1
  5
21A
  6
CONTINUOUS
 62
7
 10
283.897496
 20
-5.138521
 30
16.0
 42
0.068683
  0
VERTEX
  8
1
  5
21B
  6
CONTINUOUS
 62
7
 10
281.958667
 20
-5.897124
 30
16.0
 42
0.051212
  0
VERTEX
  8
1
  5
21C
  6
CONTINUOUS
 62
7
 10
279.980266
 20
-7.279492
 30
16.0
 42
0.039177
  0
VERTEX
  8
1
  5
21D
  6
CONTINUOUS
 62
7
 10
278.034383
 20
-9.235253
 30
16.0
 42
0.039177
  0
SEQEND
  8
1
  5
21E
  0
LINE
  8
1
  5
220
  6
CONTINUOUS
 62
7
 10
278.03438
 20
-9.23525
 30
16.0
 11
278.03438
 21
-9.23525
 31
32.0
  0
POINT
  8
1
  5
222
  6
CONTINUOUS
 62
7
 10
278.03438
 20
-9.23525
 30
16.0
 50
0.0
  0
LINE
  8
1
  5
224
  6
CONTINUOUS
 62
7
 10
274.98755
 20
18.77909
 30
16.0
 11
274.98755
 21
18.77909
 31
32.0
  0
POLYLINE
  8
1
  5
226
  6
CONTINUOUS
 62
7
 210
0.0
 220
0.0
 230
-1.0
 10
0.0
 20
0.0
 30
-16.0
 66
1
 70
0
  0
VERTEX
  8
1
  5
227
  6
CONTINUOUS
 62
7
 10
-278.034384
 20
-9.235254
 30
-16.0
 42
0.062406
  0
VERTEX
  8
1
  5
228
  6
CONTINUOUS
 62
7
 10
-276.352361
 20
-10.764646
 30
-16.0
 42
0.071776
  0
VERTEX
  8
1
  5
229
  6
CONTINUOUS
 62
7
 10
-274.463227
 20
-11.72091
 30
-16.0
 42
0.076103
  0
VERTEX
  8
1
  5
22A
  6
CONTINUOUS
 62
7
 10
-272.437878
 20
-12.068159
 30
-16.0
 42
0.0727
  0
VERTEX
  8
1
  5
22B
  6
CONTINUOUS
 62
7
 10
-270.352323
 20
-11.793362
 30
-16.0
 42
0.063718
  0
VERTEX
  8
1
  5
22C
  6
CONTINUOUS
 62
7
 10
-268.284831
 20
-10.906831
 30
-16.0
 42
0.053521
  0
VERTEX
  8
1
  5
22D
  6
CONTINUOUS
 62
7
 10
-266.31299
 20
-9.441837
 30
-16.0
 42
0.044869
  0
VERTEX
  8
1
  5
22E
  6
CONTINUOUS
 62
7
 10
-264.510802
 20
-7.453358
 30
-16.0
 42
0.038514
  0
VERTEX
  8
1
  5
22F
  6
CONTINUOUS
 62
7
 10
-262.9459
 20
-5.01602
 30
-16.0
 42
0.03429
  0
VERTEX
  8
1
  5
230
  6
CONTINUOUS
 62
7
 10
-261.677013
 20
-2.221293
 30
-16.0
 42
0.031844
  0
VERTEX
  8
1
  5
231
  6
CONTINUOUS
 62
7
 10
-260.751761
 20
0.825942
 30
-16.0
 42
0.030914
  0
VERTEX
  8
1
  5
232
  6
CONTINUOUS
 62
7
 10
-260.204866
 20
4.011326
 30
-16.0
 42
0.031391
  0
VERTEX
  8
1
  5
233
  6
CONTINUOUS
 62
7
 10
-260.056853
 20
7.215315
 30
-16.0
 42
0.033332
  0
VERTEX
  8
1
  5
234
  6
CONTINUOUS
 62
7
 10
-260.313277
 20
10.317668
 30
-16.0
 42
0.036953
  0
VERTEX
  8
1
  5
235
  6
CONTINUOUS
 62
7
 10
-260.964515
 20
13.201959
 30
-16.0
 42
0.042592
  0
VERTEX
  8
1
  5
236
  6
CONTINUOUS
 62
7
 10
-261.986126
 20
15.759944
 30
-16.0
 42
0.050528
  0
VERTEX
  8
1
  5
237
  6
CONTINUOUS
 62
7
 10
-263.339771
 20
17.895626
 30
-16.0
 42
0.060418
  0
VERTEX
  8
1
  5
238
  6
CONTINUOUS
 62
7
 10
-264.974649
 20
19.528854
 30
-16.0
 42
0.070231
  0
VERTEX
  8
1
  5
239
  6
CONTINUOUS
 62
7
 10
-266.829406
 20
20.598337
 30
-16.0
 42
0.075852
  0
VERTEX
  8
1
  5
23A
  6
CONTINUOUS
 62
7
 10
-268.834435
 20
21.063939
 30
-16.0
 42
0.073912
  0
VERTEX
  8
1
  5
23B
  6
CONTINUOUS
 62
7
 10
-270.91449
 20
20.908184
 30
-16.0
 42
0.065658
  0
VERTEX
  8
1
  5
23C
  6
CONTINUOUS
 62
7
 10
-272.99151
 20
20.13692
 30
-16.0
 42
0.055405
  0
VERTEX
  8
1
  5
23D
  6
CONTINUOUS
 62
7
 10
-274.987547
 20
18.779091
 30
-16.0
 42
0.055405
  0
SEQEND
  8
1
  5
23E
  0
LINE
  8
1
  5
240
  6
CONTINUOUS
 62
7
 10
274.98755
 20
18.77909
 30
16.0
 11
274.98755
 21
18.77909
 31
32.0
  0
POINT
  8
1
  5
242
  6
CONTINUOUS
 62
7
 10
274.98755
 20
18.77909
 30
16.0
 50
0.0
  0
LINE
  8
1
  5
244
  6
CONTINUOUS
 62
7
 10
290.76985
 20
30.0
 30
16.0
 11
290.76985
 21
30.0
 31
32.0
  0
POLYLINE
  8
1
  5
246
  6
CONTINUOUS
 62
7
 10
0.0
 20
0.0
 30
16.0
 66
1
 70
0
  0
VERTEX
  8
1
  5
247
  6
CONTINUOUS
 62
7
 10
274.987546
 20
18.779091
 30
16.0
 42
0.049415
  0
VERTEX
  8
1
  5
248
  6
CONTINUOUS
 62
7
 10
278.319295
 20
16.433708
 30
16.0
 42
0.070311
  0
VERTEX
  8
1
  5
249
  6
CONTINUOUS
 62
7
 10
281.491291
 20
15.170989
 30
16.0
 42
0.097982
  0
VERTEX
  8
1
  5
24A
  6
CONTINUOUS
 62
7
 10
284.368863
 20
15.044543
 30
16.0
 42
0.11376
  0
VERTEX
  8
1
  5
24B
  6
CONTINUOUS
 62
7
 10
286.829839
 20
16.05974
 30
16.0
 42
0.098727
  0
VERTEX
  8
1
  5
24C
  6
CONTINUOUS
 62
7
 10
288.769736
 20
18.173478
 30
16.0
 42
0.071033
  0
VERTEX
  8
1
  5
24D
  6
CONTINUOUS
 62
7
 10
290.106193
 20
21.296015
 30
16.0
 42
0.049879
  0
VERTEX
  8
1
  5
24E
  6
CONTINUOUS
 62
7
 10
290.782469
 20
25.29478
 30
16.0
 42
0.037
  0
VERTEX
  8
1
  5
24F
  6
CONTINUOUS
 62
7
 10
290.769852
 20
30.0
 30
16.0
 42
0.037
  0
SEQEND
  8
1
  5
250
  0
LINE
  8
1
  5
252
  6
CONTINUOUS
 62
7
 10
450.0
 20
30.0
 30
16.0
 11
450.0
 21
30.0
 31
48.0
  0
LINE
  8
1
  5
254
  6
CONTINUOUS
 62
7
 10
290.76985
 20
30.0
 30
16.0
 11
450.0
 21
30.0
 31
16.0
  0
LINE
  8
1
  5
256
  6
CONTINUOUS
 62
7
 10
450.0
 20
30.0
 30
16.0
 11
450.0
 21
-20.0
 31
16.0
  0
ENDBLK
  8
1
  5
257
  0
BLOCK
  8
1
  5
259
 70
1
 10
0.0
 20
0.0
 30
0.0
  2
*M5
  3
*M5
  0
INSERT
  8
1
  5
25B
  6
CONTINUOUS
 62
7
  2
*M3
 10
0.0
 20
0.0
 30
0.0
 41
1.0
 42
1.0
 43
1.0
 70
1
 71
1
  0
INSERT
  8
1
  5
25D
  6
CONTINUOUS
 62
7
  2
*M4
 10
0.0
 20
0.0
 30
0.0
 41
1.0
 42
1.0
 43
1.0
 70
1
 71
1
  0
ENDBLK
  8
1
  5
25E
  0
ENDSEC
  0
SECTION
  2
ENTITIES
  0
INSERT
  8
1
  5
2
  6
CONTINUOUS
 62
7
  2
*M2
 10
0.0
 20
-5.58938
 30
0.0
 41
1.0
 42
1.0
 43
1.0
 70
1
 71
1
  0
INSERT
  8
1
  5
4
  6
CONTINUOUS
 62
7
  2
*M5
 10
0.0
 20
0.0
 30
0.0
 41
1.0
 42
1.0
 43
1.0
 70
1
 71
1
  0
ENDSEC
  0
EOF
