  0
SECTION
  2
HEADER
  9
$ACADVER
  1
AC1009
  9
$INSBASE
 10
0.0
 20
0.0
 30
0.0
  9
$EXTMAX
 10
284.0
 20
190.0
 30
32.0
  9
$EXTMIN
 10
0.0
 20
0.0
 30
-0.00001
  9
$LIMMAX
 10
12.0
 20
9.0
  9
$LIMMIN
 10
0.0
 20
0.0
  9
$ORTHOMODE
 70
0
  9
$REGENMODE
 70
1
  9
$FILLMODE
 70
1
  9
$QTEXTMODE
 70
0
  9
$MIRRTEXT
 70
1
  9
$DRAGMODE
 70
2
  9
$LTSCALE
 40
1.0
  9
$OSMODE
 70
0
  9
$ATTMODE
 70
1
  9
$TEXTSIZE
 40
0.2
  9
$TRACEWID
 40
0.05
  9
$TEXTSTYLE
  7
STANDARD
  9
$CLAYER
  8
0
  9
$CELTYPE
  6
CONTINUOUS
  9
$CECOLOR
 62
256
  9
$DIMSCALE
 40
1.0
  9
$DIMASZ
 40
0.18
  9
$DIMEXO
 40
0.0625
  9
$DIMDLI
 40
0.38
  9
$DIMRND
 40
0.0
  9
$DIMDLE
 40
0.0
  9
$DIMEXE
 40
0.18
  9
$DIMTP
 40
0.0
  9
$DIMTM
 40
0.0
  9
$DIMTXT
 40
0.18
  9
$DIMCEN
 40
0.09
  9
$DIMTSZ
 40
0.0
  9
$DIMTOL
 70
0
  9
$DIMLIM
 70
0
  9
$DIMTIH
 70
1
  9
$DIMTOH
 70
1
  9
$DIMSE1
 70
0
  9
$DIMSE2
 70
0
  9
$DIMTAD
 70
0
  9
$DIMZIN
 70
0
  9
$DIMBLK
  1

  9
$DIMASO
 70
1
  9
$DIMSHO
 70
1
  9
$DIMPOST
  1

  9
$DIMAPOST
  1

  9
$DIMALT
 70
0
  9
$DIMALTD
 70
2
  9
$DIMALTF
 40
25.4
  9
$DIMLFAC
 40
1.0
  9
$DIMTOFL
 70
0
  9
$DIMTVP
 40
0.0
  9
$DIMTIX
 70
0
  9
$DIMSOXD
 70
0
  9
$DIMSAH
 70
0
  9
$DIMBLK1
  1

  9
$DIMBLK2
  1

  9
$DIMSTYLE
  2
*UNNAMED
  9
$DIMCLRD
 70
0
  9
$DIMCLRE
 70
0
  9
$DIMCLRT
 70
0
  9
$DIMTFAC
 40
1.0
  9
$DIMGAP
 40
0.09
  9
$LUNITS
 70
2
  9
$LUPREC
 70
4
  9
$AXISMODE
 70
0
  9
$AXISUNIT
 10
0.0
 20
0.0
  9
$SKETCHINC
 40
0.1
  9
$FILLETRAD
 40
0.0
  9
$AUNITS
 70
0
  9
$AUPREC
 70
0
  9
$MENU
  1
acad
  9
$ELEVATION
 40
0.0
  9
$PELEVATION
 40
0.0
  9
$THICKNESS
 40
0.0
  9
$LIMCHECK
 70
0
  9
$BLIPMODE
 70
1
  9
$CHAMFERA
 40
0.0
  9
$CHAMFERB
 40
0.0
  9
$SKPOLY
 70
0
  9
$TDCREATE
 40
0.0
  9
$TDUPDATE
 40
0.0
  9
$TDINDWG
 40
0.0
  9
$TDUSRTIMER
 40
0.0
  9
$USRTIMER
 70
1
  9
$ANGBASE
 50
0.0
  9
$ANGDIR
 70
0
  9
$PDMODE
 70
0
  9
$PDSIZE
 40
0.0
  9
$PLINEWID
 40
0.0
  9
$COORDS
 70
0
  9
$SPLFRAME
 70
0
  9
$SPLINETYPE
 70
6
  9
$SPLINESEGS
 70
10
  9
$ATTDIA
 70
0
  9
$ATTREQ
 70
1
  9
$HANDLING
 70
1
  9
$HANDSEED
  5
198
  9
$SURFTAB1
 70
6
  9
$SURFTAB2
 70
6
  9
$SURFTYPE
 70
6
  9
$SURFU
 70
10
  9
$SURFV
 70
10
  9
$UCSNAME
  2

  9
$UCSORG
 10
0.0
 20
0.0
 30
0.0
  9
$UCSXDIR
 10
1.0
 20
0.0
 30
0.0
  9
$UCSYDIR
 10
0.0
 20
1.0
 30
0.0
  9
$PUCSNAME
  2
 
  9
$PUCSORG
 10
0.0
 20
0.0
 30
0.0
  9
$PUCSXDIR
 10
1.0
 20
0.0
 30
0.0
  9
$PUCSYDIR
 10
0.0
 20
1.0
 30
0.0
  9
$USERI1
 70
0
  9
$USERI2
 70
0
  9
$USERI3
 70
0
  9
$USERI4
 70
0
  9
$USERI5
 70
0
  9
$USERR1
 40
0.0
  9
$USERR2
 40
0.0
  9
$USERR3
 40
0.0
  9
$USERR4
 40
0.0
  9
$USERR5
 40
0.0
  9
$WORLDVIEW
 70
1
  9
$SHADEDGE
 70
3
  9
$SHADEDIF
 70
70
  9
$TILEMODE
 70
1
  9
$MAXACTVP
 70
16
  9
$PINSBASE
 10
0.0
 20
0.0
 30
0.0
  9
$PLIMCHECK
 70
0
  9
$PEXTMIN
 10
-1.000000E+020
 20
-1.000000E+020
 30
-1.000000E+020
  9
$PEXTMAX
 10
-1.000000E+020
 20
-1.000000E+020
 30
-1.000000E+020
  9
$PLIMMIN
 10
0.0
 20
0.0
  9
$PLIMMAX
 10
12.0
 20
9.0
  9
$UNITMODE
 70
0
  9
$VISRETAIN
 70
0
  0
ENDSEC
  0
SECTION
  2
TABLES
  0
TABLE
  2
LTYPE
 70
7
  0
LTYPE
  2
CONTINUOUS
 70
64
  3
Solid line
 72
65
 73
0
 40
0.0
  0
LTYPE
  2
DOT
 70
64
  3
. . . . . . . . . . . . . . . . . . . . . . . . . . . . . . . . .
 72
65
 73
2
 40
0.25
 49
0.0
 49
-0.25
  0
LTYPE
  2
HIDDEN
 70
64
  3
__ __ __ __ __ __ __ __ __ __ __ __ __ __ __ __ __ __ __ __ __ 
 72
65
 73
2
 40
0.375
 49
0.25
 49
-0.125
  0
LTYPE
  2
DASHED
 70
64
  3
__ __ __ __ __ __ __ __ __ __ __ __ __ __ __ __ __ __ __ __ __
 72
65
 73
2
 40
0.75
 49
0.5
 49
-0.25
  0
LTYPE
  2
DASHDOT
 70
64
  3
__ . __ . __ . __ . __ . __ . __ . __ . __ . __ . __ . __ . _
 72
65
 73
4
 40
1.0
 49
0.5
 49
-0.25
 49
0.0
 49
-0.25
  0
LTYPE
  2
DIVIDE
 70
64
  3
____ . . ____ . . ____ . . ____ . . ____ . . ____ . . ____ . .
 72
65
 73
6
 40
1.25
 49
0.5
 49
-0.25
 49
0.0
 49
-0.25
 49
0.0
 49
-0.25
  0
LTYPE
  2
CENTER
 70
64
  3
____ _ ____ _ ____ _ ____ _ ____ _ ____ _ ____ _ ____ _ ____ _
 72
65
 73
4
 40
2.0
 49
1.25
 49
-0.25
 49
0.25
 49
-0.25
  0
ENDTAB
  0
TABLE
  2
APPID
 70
1
  0
APPID
  2
ACAD
 70
0
  0
ENDTAB
  0
TABLE
  2
DIMSTYLE
 70
0
  0
ENDTAB
  0
TABLE
  2
LAYER
 70
4
  0
LAYER
  2
0
 70
0
 62
7
  6
CONTINUOUS
  0
LAYER
  2
CONSTRUCTION_CLASS
 70
0
 62
7
  6
CONTINUOUS
  0
LAYER
  2
PATTERN_CLASS
 70
0
 62
7
  6
CONTINUOUS
  0
LAYER
  2
1
 70
0
 62
7
  6
CONTINUOUS
  0
ENDTAB
  0
TABLE
  2
STYLE
 70
1
  0
STYLE
  2
STANDARD
 70
0
 40
0.2
 41
1.0
 50
0.0
 71
0
 42
0.0
  3
txt
  4

  0
ENDTAB
  0
TABLE
  2
UCS
 70
0
  0
ENDTAB
  0
TABLE
  2
VIEW
 70
0
  0
ENDTAB
  0
TABLE
  2
VPORT
 70
4
  0
VPORT
  2
*ACTIVE
 70
0
 10
0.500821
 20
0.482759
 11
0.998358
 21
0.997775
 12
0.0
 22
0.0
 13
0.0
 23
0.0
 14
0.0
 24
0.0
 15
0.0
 25
0.0
 16
0.0
 26
-4.254179E-014
 36
694.78302
 17
110.615374
 27
95.0
 37
16.0
 40
194.75
 41
1.308855
 42
50.0
 43
347.39151
 44
-347.39151
 50
0.0
 51
0.0
 71
22
 72
100
 73
1
 74
0
 75
0
 76
0
 77
0
 78
0
  0
VPORT
  2
*ACTIVE
 70
0
 10
0.001642
 20
0.482759
 11
0.499179
 21
0.997775
 12
-4.569614E-009
 22
-1.334323E-008
 13
0.0
 23
0.0
 14
0.0
 24
0.0
 15
0.0
 25
0.0
 16
-541.333347
 26
-541.333347
 36
541.333347
 17
81.082836
 27
105.917165
 37
16.000002
 40
183.51224
 41
1.308855
 42
50.0
 43
468.80843
 44
-468.80843
 50
0.0
 51
0.0
 71
22
 72
100
 73
1
 74
0
 75
0
 76
0
 77
0
 78
0
  0
VPORT
  2
*ACTIVE
 70
0
 10
0.001642
 20
0.0
 11
0.499179
 21
0.480534
 12
0.0
 22
0.0
 13
0.0
 23
0.0
 14
0.0
 24
0.0
 15
0.0
 25
0.0
 16
0.0
 26
-760.0
 36
0.0
 17
111.345603
 27
95.0
 37
16.0
 40
163.2769
 41
1.402778
 42
50.0
 43
380.0
 44
-380.0
 50
0.0
 51
0.0
 71
22
 72
100
 73
1
 74
0
 75
0
 76
0
 77
0
 78
0
  0
VPORT
  2
*ACTIVE
 70
0
 10
0.500821
 20
0.0
 11
0.998358
 21
0.480534
 12
0.0
 22
0.0
 13
0.0
 23
0.0
 14
0.0
 24
0.0
 15
0.0
 25
0.0
 16
1015.9996
 26
0.0
 36
0.0
 17
126.99995
 27
83.252194
 37
16.0
 40
122.53116
 41
1.402778
 42
50.0
 43
507.9998
 44
-507.9998
 50
0.0
 51
0.0
 71
22
 72
100
 73
1
 74
0
 75
0
 76
0
 77
0
 78
0
  0
ENDTAB
  0
ENDSEC
  0
SECTION
  2
BLOCKS
  0
BLOCK
  8
1
  5
6
 70
1
 10
0.0
 20
0.0
 30
0.0
  2
*M0
  3
*M0
  0
LINE
  8
1
  5
8
  6
CONTINUOUS
 62
7
 10
16.0
 20
95.0
 30
0.0
 11
16.0
 21
95.0
 31
16.0
  0
LINE
  8
1
  5
A
  6
CONTINUOUS
 62
7
 10
0.0
 20
111.0
 30
0.0
 11
0.0
 21
111.0
 31
32.0
  0
LINE
  8
1
  5
C
  6
CONTINUOUS
 62
7
 10
9.87957
 20
107.58547
 30
32.0
 11
9.87957
 21
107.58547
 31
16.0
  0
ARC
  8
1
  5
E
  6
CONTINUOUS
 62
7
 210
0.0
 220
0.0
 230
-1.0
 10
3.552714E-015
 20
95.0
 30
-32.0
 40
16.0
 50
127.7235416667
 51
128.1318638889
  0
LINE
  8
1
  5
10
  6
CONTINUOUS
 62
7
 10
9.78963
 20
107.65556
 30
16.0
 11
9.78963
 21
107.65556
 31
32.0
  0
ARC
  8
1
  5
12
  6
CONTINUOUS
 62
7
 210
0.0
 220
0.0
 230
-1.0
 10
3.552714E-015
 20
95.0
 30
-16.0
 40
16.0
 50
127.7211222222
 51
127.7235416667
  0
LINE
  8
1
  5
14
  6
CONTINUOUS
 62
7
 10
9.7891
 20
107.65597
 30
32.0
 11
9.7891
 21
107.65597
 31
16.0
  0
ARC
  8
1
  5
16
  6
CONTINUOUS
 62
7
 210
0.0
 220
0.0
 230
-1.0
 10
3.552714E-015
 20
95.0
 30
-32.0
 40
16.0
 50
90.0
 51
127.7211222222
  0
LINE
  8
1
  5
18
  6
CONTINUOUS
 62
7
 10
0.0
 20
111.0
 30
0.0
 11
0.0
 21
111.0
 31
32.0
  0
ARC
  8
1
  5
1A
  6
CONTINUOUS
 62
7
 10
-3.552714E-015
 20
95.0
 30
0.0
 40
16.0
 50
270.0
 51
90.0
  0
LINE
  8
1
  5
1C
  6
CONTINUOUS
 62
7
 10
0.0
 20
79.0
 30
32.0
 11
0.0
 21
79.0
 31
0.0
  0
ARC
  8
1
  5
1E
  6
CONTINUOUS
 62
7
 210
0.0
 220
0.0
 230
-1.0
 10
3.552714E-015
 20
95.0
 30
-32.0
 40
16.0
 50
232.2788777778
 51
270.0
  0
LINE
  8
1
  5
20
  6
CONTINUOUS
 62
7
 10
9.7891
 20
82.34403
 30
16.0
 11
9.7891
 21
82.34403
 31
32.0
  0
ARC
  8
1
  5
22
  6
CONTINUOUS
 62
7
 210
0.0
 220
0.0
 230
-1.0
 10
3.552714E-015
 20
95.0
 30
-16.0
 40
16.0
 50
232.2764555556
 51
232.2788777778
  0
LINE
  8
1
  5
24
  6
CONTINUOUS
 62
7
 10
9.78963
 20
82.34445
 30
32.0
 11
9.78963
 21
82.34445
 31
16.0
  0
ARC
  8
1
  5
26
  6
CONTINUOUS
 62
7
 210
0.0
 220
0.0
 230
-1.0
 10
3.552714E-015
 20
95.0
 30
-32.0
 40
16.0
 50
231.8681388889
 51
232.2764555556
  0
LINE
  8
1
  5
28
  6
CONTINUOUS
 62
7
 10
9.87957
 20
82.41453
 30
16.0
 11
9.87957
 21
82.41453
 31
32.0
  0
ARC
  8
1
  5
2A
  6
CONTINUOUS
 62
7
 210
0.0
 220
0.0
 230
-1.0
 10
3.552714E-015
 20
95.0
 30
-16.0
 40
16.0
 50
128.1318638889
 51
231.8681388889
  0
ENDBLK
  8
1
  5
2B
  0
BLOCK
  8
1
  5
2D
 70
1
 10
0.0
 20
0.0
 30
0.0
  2
*M1
  3
*M1
  0
LINE
  8
1
  5
2F
  6
CONTINUOUS
 62
7
 10
45.97907
 20
108.24214
 30
0.0
 11
45.97907
 21
108.24214
 31
16.0
  0
POLYLINE
  8
1
  5
31
  6
CONTINUOUS
 62
7
 10
0.0
 20
0.0
 30
16.0
 66
1
 70
0
  0
VERTEX
  8
1
  5
32
  6
CONTINUOUS
 62
7
 10
9.789099
 20
107.655973
 30
16.0
 42
0.000002
  0
VERTEX
  8
1
  5
33
  6
CONTINUOUS
 62
7
 10
9.789366
 20
107.655764
 30
16.0
 42
0.000002
  0
VERTEX
  8
1
  5
34
  6
CONTINUOUS
 62
7
 10
9.789634
 20
107.655555
 30
16.0
 42
0.000002
  0
SEQEND
  8
1
  5
35
  0
LINE
  8
1
  5
37
  6
CONTINUOUS
 62
7
 10
9.7891
 20
107.65597
 30
0.0
 11
9.7891
 21
107.65597
 31
16.0
  0
POLYLINE
  8
1
  5
39
  6
CONTINUOUS
 62
7
 210
0.0
 220
0.0
 230
-1.0
 10
0.0
 20
0.0
 30
-2.328306E-015
 66
1
 70
0
  0
VERTEX
  8
1
  5
3A
  6
CONTINUOUS
 62
7
 10
-9.789634
 20
107.655555
 30
-2.328306E-015
 42
0.000002
  0
VERTEX
  8
1
  5
3B
  6
CONTINUOUS
 62
7
 10
-9.789366
 20
107.655764
 30
-2.328306E-015
 42
0.000002
  0
VERTEX
  8
1
  5
3C
  6
CONTINUOUS
 62
7
 10
-9.789099
 20
107.655973
 30
-2.328306E-015
 42
0.000002
  0
SEQEND
  8
1
  5
3D
  0
POLYLINE
  8
1
  5
3F
  6
CONTINUOUS
 62
7
 210
0.0
 220
0.0
 230
-1.0
 10
0.0
 20
0.0
 30
-2.328306E-015
 66
1
 70
0
  0
VERTEX
  8
1
  5
40
  6
CONTINUOUS
 62
7
 10
-9.789099
 20
82.344027
 30
-2.328306E-015
 42
0.000002
  0
VERTEX
  8
1
  5
41
  6
CONTINUOUS
 62
7
 10
-9.789366
 20
82.344236
 30
-2.328306E-015
 42
0.000002
  0
VERTEX
  8
1
  5
42
  6
CONTINUOUS
 62
7
 10
-9.789634
 20
82.344445
 30
-2.328306E-015
 42
0.000002
  0
SEQEND
  8
1
  5
43
  0
LINE
  8
1
  5
45
  6
CONTINUOUS
 62
7
 10
9.7891
 20
82.34403
 30
0.0
 11
9.7891
 21
82.34403
 31
16.0
  0
POLYLINE
  8
1
  5
47
  6
CONTINUOUS
 62
7
 10
0.0
 20
0.0
 30
16.0
 66
1
 70
0
  0
VERTEX
  8
1
  5
48
  6
CONTINUOUS
 62
7
 10
9.789634
 20
82.344445
 30
16.0
 42
0.000002
  0
VERTEX
  8
1
  5
49
  6
CONTINUOUS
 62
7
 10
9.789366
 20
82.344236
 30
16.0
 42
0.000002
  0
VERTEX
  8
1
  5
4A
  6
CONTINUOUS
 62
7
 10
9.789099
 20
82.344027
 30
16.0
 42
0.000002
  0
SEQEND
  8
1
  5
4B
  0
POLYLINE
  8
1
  5
4D
  6
CONTINUOUS
 62
7
 10
0.0
 20
0.0
 30
16.0
 66
1
 70
0
  0
VERTEX
  8
1
  5
4E
  6
CONTINUOUS
 62
7
 10
49.9999
 20
70.00011
 30
16.0
 42
0.054084
  0
VERTEX
  8
1
  5
4F
  6
CONTINUOUS
 62
7
 10
49.42877
 20
74.531017
 30
16.0
 42
0.057502
  0
VERTEX
  8
1
  5
50
  6
CONTINUOUS
 62
7
 10
47.915079
 20
78.691964
 30
16.0
 42
0.059318
  0
VERTEX
  8
1
  5
51
  6
CONTINUOUS
 62
7
 10
45.514479
 20
82.329968
 30
16.0
 42
0.058933
  0
VERTEX
  8
1
  5
52
  6
CONTINUOUS
 62
7
 10
42.31523
 20
85.311276
 30
16.0
 42
0.056481
  0
VERTEX
  8
1
  5
53
  6
CONTINUOUS
 62
7
 10
38.434955
 20
87.526277
 30
16.0
 42
0.052733
  0
VERTEX
  8
1
  5
54
  6
CONTINUOUS
 62
7
 10
34.016317
 20
88.893535
 30
16.0
 42
0.048634
  0
VERTEX
  8
1
  5
55
  6
CONTINUOUS
 62
7
 10
29.221769
 20
89.362782
 30
16.0
 42
0.044907
  0
VERTEX
  8
1
  5
56
  6
CONTINUOUS
 62
7
 10
24.227589
 20
88.916765
 30
16.0
 42
0.041959
  0
VERTEX
  8
1
  5
57
  6
CONTINUOUS
 62
7
 10
19.217391
 20
87.571882
 30
16.0
 42
0.039957
  0
VERTEX
  8
1
  5
58
  6
CONTINUOUS
 62
7
 10
14.375379
 20
85.377579
 30
16.0
 42
0.038948
  0
VERTEX
  8
1
  5
59
  6
CONTINUOUS
 62
7
 10
9.879574
 20
82.414532
 30
16.0
 42
0.038948
  0
SEQEND
  8
1
  5
5A
  0
LINE
  8
1
  5
5C
  6
CONTINUOUS
 62
7
 10
49.9999
 20
70.00011
 30
0.0
 11
49.9999
 21
70.00011
 31
16.0
  0
POLYLINE
  8
1
  5
5E
  6
CONTINUOUS
 62
7
 210
0.0
 220
0.0
 230
-1.0
 10
0.0
 20
0.0
 30
-2.328306E-015
 66
1
 70
0
  0
VERTEX
  8
1
  5
5F
  6
CONTINUOUS
 62
7
 10
-9.879574
 20
82.414532
 30
-2.328306E-015
 42
0.038948
  0
VERTEX
  8
1
  5
60
  6
CONTINUOUS
 62
7
 10
-14.375379
 20
85.377579
 30
-2.328306E-015
 42
0.039957
  0
VERTEX
  8
1
  5
61
  6
CONTINUOUS
 62
7
 10
-19.217391
 20
87.571882
 30
-2.328306E-015
 42
0.041959
  0
VERTEX
  8
1
  5
62
  6
CONTINUOUS
 62
7
 10
-24.227589
 20
88.916765
 30
-2.328306E-015
 42
0.044907
  0
VERTEX
  8
1
  5
63
  6
CONTINUOUS
 62
7
 10
-29.221769
 20
89.362782
 30
-2.328306E-015
 42
0.048634
  0
VERTEX
  8
1
  5
64
  6
CONTINUOUS
 62
7
 10
-34.016317
 20
88.893535
 30
-2.328306E-015
 42
0.052733
  0
VERTEX
  8
1
  5
65
  6
CONTINUOUS
 62
7
 10
-38.434955
 20
87.526277
 30
-2.328306E-015
 42
0.056481
  0
VERTEX
  8
1
  5
66
  6
CONTINUOUS
 62
7
 10
-42.31523
 20
85.311276
 30
-2.328306E-015
 42
0.058933
  0
VERTEX
  8
1
  5
67
  6
CONTINUOUS
 62
7
 10
-45.514479
 20
82.329968
 30
-2.328306E-015
 42
0.059318
  0
VERTEX
  8
1
  5
68
  6
CONTINUOUS
 62
7
 10
-47.915079
 20
78.691964
 30
-2.328306E-015
 42
0.057502
  0
VERTEX
  8
1
  5
69
  6
CONTINUOUS
 62
7
 10
-49.42877
 20
74.531017
 30
-2.328306E-015
 42
0.054084
  0
VERTEX
  8
1
  5
6A
  6
CONTINUOUS
 62
7
 10
-49.9999
 20
70.00011
 30
-2.328306E-015
 42
0.054084
  0
SEQEND
  8
1
  5
6B
  0
POINT
  8
1
  5
6D
  6
CONTINUOUS
 62
7
 10
9.7891
 20
82.34403
 30
0.0
 50
0.0
  0
POINT
  8
1
  5
6F
  6
CONTINUOUS
 62
7
 10
9.7891
 20
107.65597
 30
0.0
 50
0.0
  0
LINE
  8
1
  5
71
  6
CONTINUOUS
 62
7
 10
49.9999
 20
70.00011
 30
0.0
 11
50.0
 21
70.00004
 31
0.0
  0
LINE
  8
1
  5
73
  6
CONTINUOUS
 62
7
 10
50.0
 20
119.99994
 30
0.0
 11
50.0
 21
70.00004
 31
0.0
  0
LINE
  8
1
  5
75
  6
CONTINUOUS
 62
7
 10
50.0
 20
119.99994
 30
0.0
 11
49.9999
 21
119.99989
 31
0.0
  0
POLYLINE
  8
1
  5
77
  6
CONTINUOUS
 62
7
 210
0.0
 220
0.0
 230
-1.0
 10
0.0
 20
0.0
 30
-2.328306E-015
 66
1
 70
0
  0
VERTEX
  8
1
  5
78
  6
CONTINUOUS
 62
7
 10
-49.9999
 20
119.99989
 30
-2.328306E-015
 42
0.054084
  0
VERTEX
  8
1
  5
79
  6
CONTINUOUS
 62
7
 10
-49.42877
 20
115.468983
 30
-2.328306E-015
 42
0.057502
  0
VERTEX
  8
1
  5
7A
  6
CONTINUOUS
 62
7
 10
-47.915079
 20
111.308036
 30
-2.328306E-015
 42
0.059318
  0
VERTEX
  8
1
  5
7B
  6
CONTINUOUS
 62
7
 10
-45.514479
 20
107.670032
 30
-2.328306E-015
 42
0.058933
  0
VERTEX
  8
1
  5
7C
  6
CONTINUOUS
 62
7
 10
-42.31523
 20
104.688724
 30
-2.328306E-015
 42
0.056481
  0
VERTEX
  8
1
  5
7D
  6
CONTINUOUS
 62
7
 10
-38.434955
 20
102.473723
 30
-2.328306E-015
 42
0.052733
  0
VERTEX
  8
1
  5
7E
  6
CONTINUOUS
 62
7
 10
-34.016317
 20
101.106465
 30
-2.328306E-015
 42
0.048634
  0
VERTEX
  8
1
  5
7F
  6
CONTINUOUS
 62
7
 10
-29.221769
 20
100.637218
 30
-2.328306E-015
 42
0.044907
  0
VERTEX
  8
1
  5
80
  6
CONTINUOUS
 62
7
 10
-24.227589
 20
101.083235
 30
-2.328306E-015
 42
0.041959
  0
VERTEX
  8
1
  5
81
  6
CONTINUOUS
 62
7
 10
-19.217391
 20
102.428118
 30
-2.328306E-015
 42
0.039957
  0
VERTEX
  8
1
  5
82
  6
CONTINUOUS
 62
7
 10
-14.375379
 20
104.622421
 30
-2.328306E-015
 42
0.038948
  0
VERTEX
  8
1
  5
83
  6
CONTINUOUS
 62
7
 10
-9.879574
 20
107.585468
 30
-2.328306E-015
 42
0.038948
  0
SEQEND
  8
1
  5
84
  0
POINT
  8
1
  5
86
  6
CONTINUOUS
 62
7
 10
9.7891
 20
82.34403
 30
16.0
 50
0.0
  0
LINE
  8
1
  5
88
  6
CONTINUOUS
 62
7
 10
50.0
 20
70.00004
 30
16.0
 11
49.9999
 21
70.00011
 31
16.0
  0
LINE
  8
1
  5
8A
  6
CONTINUOUS
 62
7
 10
49.9999
 20
119.99989
 30
0.0
 11
49.9999
 21
119.99989
 31
16.0
  0
POLYLINE
  8
1
  5
8C
  6
CONTINUOUS
 62
7
 10
0.0
 20
0.0
 30
16.0
 66
1
 70
0
  0
VERTEX
  8
1
  5
8D
  6
CONTINUOUS
 62
7
 10
9.879574
 20
107.585468
 30
16.0
 42
0.038948
  0
VERTEX
  8
1
  5
8E
  6
CONTINUOUS
 62
7
 10
14.375379
 20
104.622421
 30
16.0
 42
0.039957
  0
VERTEX
  8
1
  5
8F
  6
CONTINUOUS
 62
7
 10
19.217391
 20
102.428118
 30
16.0
 42
0.041959
  0
VERTEX
  8
1
  5
90
  6
CONTINUOUS
 62
7
 10
24.227589
 20
101.083235
 30
16.0
 42
0.044907
  0
VERTEX
  8
1
  5
91
  6
CONTINUOUS
 62
7
 10
29.221769
 20
100.637218
 30
16.0
 42
0.048634
  0
VERTEX
  8
1
  5
92
  6
CONTINUOUS
 62
7
 10
34.016317
 20
101.106465
 30
16.0
 42
0.052733
  0
VERTEX
  8
1
  5
93
  6
CONTINUOUS
 62
7
 10
38.434955
 20
102.473723
 30
16.0
 42
0.056481
  0
VERTEX
  8
1
  5
94
  6
CONTINUOUS
 62
7
 10
42.31523
 20
104.688724
 30
16.0
 42
0.058933
  0
VERTEX
  8
1
  5
95
  6
CONTINUOUS
 62
7
 10
45.514479
 20
107.670032
 30
16.0
 42
0.059318
  0
VERTEX
  8
1
  5
96
  6
CONTINUOUS
 62
7
 10
47.915079
 20
111.308036
 30
16.0
 42
0.057502
  0
VERTEX
  8
1
  5
97
  6
CONTINUOUS
 62
7
 10
49.42877
 20
115.468983
 30
16.0
 42
0.054084
  0
VERTEX
  8
1
  5
98
  6
CONTINUOUS
 62
7
 10
49.9999
 20
119.99989
 30
16.0
 42
0.054084
  0
SEQEND
  8
1
  5
99
  0
LINE
  8
1
  5
9B
  6
CONTINUOUS
 62
7
 10
49.9999
 20
119.99989
 30
16.0
 11
50.0
 21
119.99994
 31
16.0
  0
LINE
  8
1
  5
9D
  6
CONTINUOUS
 62
7
 10
50.0
 20
119.99994
 30
16.0
 11
50.0
 21
119.99994
 31
0.0
  0
LINE
  8
1
  5
9F
  6
CONTINUOUS
 62
7
 10
50.0
 20
70.00004
 30
0.0
 11
50.0
 21
70.00004
 31
16.0
  0
POINT
  8
1
  5
A1
  6
CONTINUOUS
 62
7
 10
9.7891
 20
107.65597
 30
16.0
 50
0.0
  0
ENDBLK
  8
1
  5
A2
  0
BLOCK
  8
1
  5
A4
 70
1
 10
0.0
 20
0.0
 30
0.0
  2
*M2
  3
*M2
  0
LINE
  8
1
  5
A6
  6
CONTINUOUS
 62
7
 10
0.0
 20
0.0
 30
32.0
 11
0.0
 21
79.0
 31
32.0
  0
LINE
  8
1
  5
A8
  6
CONTINUOUS
 62
7
 10
50.0
 20
0.0
 30
32.0
 11
0.0
 21
0.0
 31
32.0
  0
LINE
  8
1
  5
AA
  6
CONTINUOUS
 62
7
 10
50.0
 20
70.00004
 30
32.0
 11
50.0
 21
0.0
 31
32.0
  0
LINE
  8
1
  5
AC
  6
CONTINUOUS
 62
7
 10
0.0
 20
79.0
 30
0.0
 11
0.0
 21
0.0
 31
0.0
  0
LINE
  8
1
  5
AE
  6
CONTINUOUS
 62
7
 10
0.0
 20
0.0
 30
0.0
 11
0.0
 21
0.0
 31
32.0
  0
LINE
  8
1
  5
B0
  6
CONTINUOUS
 62
7
 10
0.0
 20
111.0
 30
32.0
 11
0.0
 21
190.0
 31
32.0
  0
LINE
  8
1
  5
B2
  6
CONTINUOUS
 62
7
 10
0.0
 20
190.0
 30
0.0
 11
0.0
 21
190.0
 31
32.0
  0
LINE
  8
1
  5
B4
  6
CONTINUOUS
 62
7
 10
0.0
 20
190.0
 30
0.0
 11
0.0
 21
111.0
 31
0.0
  0
LINE
  8
1
  5
B6
  6
CONTINUOUS
 62
7
 10
50.0
 20
0.0
 30
0.0
 11
50.0
 21
0.0
 31
32.0
  0
LINE
  8
1
  5
B8
  6
CONTINUOUS
 62
7
 10
50.0
 20
0.0
 30
0.0
 11
50.0
 21
190.0
 31
0.0
  0
LINE
  8
1
  5
BA
  6
CONTINUOUS
 62
7
 10
50.0
 20
190.0
 30
0.0
 11
50.0
 21
190.0
 31
32.0
  0
LINE
  8
1
  5
BC
  6
CONTINUOUS
 62
7
 10
50.0
 20
190.0
 30
32.0
 11
50.0
 21
119.99994
 31
32.0
  0
LINE
  8
1
  5
BE
  6
CONTINUOUS
 62
7
 10
0.0
 20
0.0
 30
0.0
 11
50.0
 21
0.0
 31
0.0
  0
LINE
  8
1
  5
C0
  6
CONTINUOUS
 62
7
 10
0.0
 20
190.0
 30
32.0
 11
50.0
 21
190.0
 31
32.0
  0
LINE
  8
1
  5
C2
  6
CONTINUOUS
 62
7
 10
50.0
 20
190.0
 30
0.0
 11
0.0
 21
190.0
 31
0.0
  0
ENDBLK
  8
1
  5
C3
  0
BLOCK
  8
1
  5
C5
 70
1
 10
0.0
 20
0.0
 30
0.0
  2
*M3
  3
*M3
  0
INSERT
  8
1
  5
C7
  6
CONTINUOUS
 62
7
  2
*M1
 10
0.0
 20
0.0
 30
16.0
 41
1.0
 42
1.0
 43
1.0
 70
1
 71
1
  0
INSERT
  8
1
  5
C9
  6
CONTINUOUS
 62
7
  2
*M2
 10
0.0
 20
0.0
 30
0.0
 41
1.0
 42
1.0
 43
1.0
 70
1
 71
1
  0
ENDBLK
  8
1
  5
CA
  0
BLOCK
  8
1
  5
CC
 70
1
 10
0.0
 20
0.0
 30
0.0
  2
*M4
  3
*M4
  0
INSERT
  8
1
  5
CE
  6
CONTINUOUS
 62
7
  2
*M0
 10
0.0
 20
0.0
 30
0.0
 41
1.0
 42
1.0
 43
1.0
 70
1
 71
1
  0
INSERT
  8
1
  5
D0
  6
CONTINUOUS
 62
7
  2
*M3
 10
0.0
 20
0.0
 30
0.0
 41
1.0
 42
1.0
 43
1.0
 70
1
 71
1
  0
ENDBLK
  8
1
  5
D1
  0
BLOCK
  8
1
  5
D3
 70
1
 10
0.0
 20
0.0
 30
0.0
  2
*M5
  3
*M5
  0
LINE
  8
1
  5
D5
  6
CONTINUOUS
 62
7
 10
16.0
 20
95.0
 30
0.0
 11
16.0
 21
95.0
 31
16.0
  0
LINE
  8
1
  5
D7
  6
CONTINUOUS
 62
7
 10
9.87957
 20
107.58547
 30
16.0
 11
9.87957
 21
107.58547
 31
0.0
  0
ARC
  8
1
  5
D9
  6
CONTINUOUS
 62
7
 210
0.0
 220
0.0
 230
-1.0
 10
3.725290E-014
 20
95.0
 30
-16.0
 40
16.0
 50
128.1318638889
 51
231.8681388889
  0
LINE
  8
1
  5
DB
  6
CONTINUOUS
 62
7
 10
9.87957
 20
82.41453
 30
0.0
 11
9.87957
 21
82.41453
 31
16.0
  0
ARC
  8
1
  5
DD
  6
CONTINUOUS
 62
7
 210
0.0
 220
0.0
 230
-1.0
 10
3.725290E-014
 20
95.0
 30
1.862645E-014
 40
16.0
 50
128.1318638889
 51
231.8681388889
  0
ENDBLK
  8
1
  5
DE
  0
BLOCK
  8
1
  5
E0
 70
1
 10
0.0
 20
0.0
 30
0.0
  2
*M6
  3
*M6
  0
POINT
  8
1
  5
E2
  6
CONTINUOUS
 62
7
 10
9.7891
 20
82.34403
 30
0.0
 50
0.0
  0
ARC
  8
1
  5
E4
  6
CONTINUOUS
 62
7
 210
0.0
 220
0.0
 230
-1.0
 10
3.725290E-014
 20
95.0
 30
0.0
 40
16.0
 50
232.2764555556
 51
232.2788638889
  0
POLYLINE
  8
1
  5
E6
  6
CONTINUOUS
 62
7
 210
0.0
 220
0.0
 230
-1.0
 10
0.0
 20
0.0
 30
-9.313226E-015
 66
1
 70
0
  0
VERTEX
  8
1
  5
E7
  6
CONTINUOUS
 62
7
 10
-9.789099
 20
82.344027
 30
-9.313226E-015
 42
0.000002
  0
VERTEX
  8
1
  5
E8
  6
CONTINUOUS
 62
7
 10
-9.789366
 20
82.344236
 30
-9.313226E-015
 42
0.000002
  0
VERTEX
  8
1
  5
E9
  6
CONTINUOUS
 62
7
 10
-9.789634
 20
82.344445
 30
-9.313226E-015
 42
0.000002
  0
SEQEND
  8
1
  5
EA
  0
POINT
  8
1
  5
EC
  6
CONTINUOUS
 62
7
 10
9.7891
 20
107.65597
 30
0.0
 50
0.0
  0
POLYLINE
  8
1
  5
EE
  6
CONTINUOUS
 62
7
 210
0.0
 220
0.0
 230
-1.0
 10
0.0
 20
0.0
 30
1.862645E-014
 66
1
 70
0
  0
VERTEX
  8
1
  5
EF
  6
CONTINUOUS
 62
7
 10
-9.789634
 20
107.655555
 30
1.862645E-014
 42
0.000002
  0
VERTEX
  8
1
  5
F0
  6
CONTINUOUS
 62
7
 10
-9.789366
 20
107.655764
 30
1.862645E-014
 42
0.000002
  0
VERTEX
  8
1
  5
F1
  6
CONTINUOUS
 62
7
 10
-9.789099
 20
107.655973
 30
1.862645E-014
 42
0.000002
  0
SEQEND
  8
1
  5
F2
  0
ARC
  8
1
  5
F4
  6
CONTINUOUS
 62
7
 210
0.0
 220
0.0
 230
-1.0
 10
3.725290E-014
 20
95.0
 30
0.0
 40
16.0
 50
127.7211361111
 51
127.7235416667
  0
LINE
  8
1
  5
F6
  6
CONTINUOUS
 62
7
 10
50.0
 20
119.99989
 30
0.0
 11
49.9999
 21
119.99989
 31
0.0
  0
LINE
  8
1
  5
F8
  6
CONTINUOUS
 62
7
 10
50.0
 20
119.99989
 30
0.0
 11
50.0
 21
70.00011
 31
0.0
  0
LINE
  8
1
  5
FA
  6
CONTINUOUS
 62
7
 10
49.9999
 20
70.00011
 30
0.0
 11
50.0
 21
70.00011
 31
0.0
  0
POLYLINE
  8
1
  5
FC
  6
CONTINUOUS
 62
7
 210
0.0
 220
0.0
 230
-1.0
 10
0.0
 20
0.0
 30
-9.313226E-015
 66
1
 70
0
  0
VERTEX
  8
1
  5
FD
  6
CONTINUOUS
 62
7
 10
-9.879574
 20
82.414532
 30
-9.313226E-015
 42
0.038948
  0
VERTEX
  8
1
  5
FE
  6
CONTINUOUS
 62
7
 10
-14.375379
 20
85.377579
 30
-9.313226E-015
 42
0.039957
  0
VERTEX
  8
1
  5
FF
  6
CONTINUOUS
 62
7
 10
-19.217391
 20
87.571882
 30
-9.313226E-015
 42
0.041959
  0
VERTEX
  8
1
  5
100
  6
CONTINUOUS
 62
7
 10
-24.227589
 20
88.916765
 30
-9.313226E-015
 42
0.044907
  0
VERTEX
  8
1
  5
101
  6
CONTINUOUS
 62
7
 10
-29.221769
 20
89.362782
 30
-9.313226E-015
 42
0.048634
  0
VERTEX
  8
1
  5
102
  6
CONTINUOUS
 62
7
 10
-34.016317
 20
88.893535
 30
-9.313226E-015
 42
0.052733
  0
VERTEX
  8
1
  5
103
  6
CONTINUOUS
 62
7
 10
-38.434955
 20
87.526277
 30
-9.313226E-015
 42
0.056481
  0
VERTEX
  8
1
  5
104
  6
CONTINUOUS
 62
7
 10
-42.31523
 20
85.311276
 30
-9.313226E-015
 42
0.058933
  0
VERTEX
  8
1
  5
105
  6
CONTINUOUS
 62
7
 10
-45.514479
 20
82.329968
 30
-9.313226E-015
 42
0.059318
  0
VERTEX
  8
1
  5
106
  6
CONTINUOUS
 62
7
 10
-47.915079
 20
78.691964
 30
-9.313226E-015
 42
0.057502
  0
VERTEX
  8
1
  5
107
  6
CONTINUOUS
 62
7
 10
-49.42877
 20
74.531017
 30
-9.313226E-015
 42
0.054084
  0
VERTEX
  8
1
  5
108
  6
CONTINUOUS
 62
7
 10
-49.9999
 20
70.00011
 30
-9.313226E-015
 42
0.054084
  0
SEQEND
  8
1
  5
109
  0
POLYLINE
  8
1
  5
10B
  6
CONTINUOUS
 62
7
 210
0.0
 220
0.0
 230
-1.0
 10
0.0
 20
0.0
 30
1.862645E-014
 66
1
 70
0
  0
VERTEX
  8
1
  5
10C
  6
CONTINUOUS
 62
7
 10
-49.9999
 20
119.99989
 30
1.862645E-014
 42
0.054084
  0
VERTEX
  8
1
  5
10D
  6
CONTINUOUS
 62
7
 10
-49.42877
 20
115.468983
 30
1.862645E-014
 42
0.057502
  0
VERTEX
  8
1
  5
10E
  6
CONTINUOUS
 62
7
 10
-47.915079
 20
111.308036
 30
1.862645E-014
 42
0.059318
  0
VERTEX
  8
1
  5
10F
  6
CONTINUOUS
 62
7
 10
-45.514479
 20
107.670032
 30
1.862645E-014
 42
0.058933
  0
VERTEX
  8
1
  5
110
  6
CONTINUOUS
 62
7
 10
-42.31523
 20
104.688724
 30
1.862645E-014
 42
0.056481
  0
VERTEX
  8
1
  5
111
  6
CONTINUOUS
 62
7
 10
-38.434955
 20
102.473723
 30
1.862645E-014
 42
0.052733
  0
VERTEX
  8
1
  5
112
  6
CONTINUOUS
 62
7
 10
-34.016317
 20
101.106465
 30
1.862645E-014
 42
0.048634
  0
VERTEX
  8
1
  5
113
  6
CONTINUOUS
 62
7
 10
-29.221769
 20
100.637218
 30
1.862645E-014
 42
0.044907
  0
VERTEX
  8
1
  5
114
  6
CONTINUOUS
 62
7
 10
-24.227589
 20
101.083235
 30
1.862645E-014
 42
0.041959
  0
VERTEX
  8
1
  5
115
  6
CONTINUOUS
 62
7
 10
-19.217391
 20
102.428118
 30
1.862645E-014
 42
0.039957
  0
VERTEX
  8
1
  5
116
  6
CONTINUOUS
 62
7
 10
-14.375379
 20
104.622421
 30
1.862645E-014
 42
0.038948
  0
VERTEX
  8
1
  5
117
  6
CONTINUOUS
 62
7
 10
-9.879574
 20
107.585468
 30
1.862645E-014
 42
0.038948
  0
SEQEND
  8
1
  5
118
  0
ENDBLK
  8
1
  5
119
  0
BLOCK
  8
1
  5
11B
 70
1
 10
0.0
 20
0.0
 30
0.0
  2
*M7
  3
*M7
  0
LINE
  8
1
  5
11D
  6
CONTINUOUS
 62
7
 10
50.0
 20
119.99989
 30
0.0
 11
50.0
 21
119.99989
 31
16.0
  0
LINE
  8
1
  5
11F
  6
CONTINUOUS
 62
7
 10
50.0
 20
70.00011
 30
0.0
 11
50.0
 21
119.99989
 31
0.0
  0
LINE
  8
1
  5
121
  6
CONTINUOUS
 62
7
 10
50.0
 20
70.00011
 30
16.0
 11
50.0
 21
70.00011
 31
0.0
  0
ENDBLK
  8
1
  5
122
  0
BLOCK
  8
1
  5
124
 70
1
 10
0.0
 20
0.0
 30
0.0
  2
*M8
  3
*M8
  0
INSERT
  8
1
  5
126
  6
CONTINUOUS
 62
7
  2
*M6
 10
0.0
 20
0.0
 30
16.0
 41
1.0
 42
1.0
 43
1.0
 70
1
 71
1
  0
INSERT
  8
1
  5
128
  6
CONTINUOUS
 62
7
  2
*M7
 10
0.0
 20
0.0
 30
0.0
 41
1.0
 42
1.0
 43
1.0
 70
1
 71
1
  0
ENDBLK
  8
1
  5
129
  0
BLOCK
  8
1
  5
12B
 70
1
 10
0.0
 20
0.0
 30
0.0
  2
*M9
  3
*M9
  0
INSERT
  8
1
  5
12D
  6
CONTINUOUS
 62
7
  2
*M5
 10
0.0
 20
0.0
 30
0.0
 41
1.0
 42
1.0
 43
1.0
 70
1
 71
1
  0
INSERT
  8
1
  5
12F
  6
CONTINUOUS
 62
7
  2
*M8
 10
0.0
 20
0.0
 30
0.0
 41
1.0
 42
1.0
 43
1.0
 70
1
 71
1
  0
ENDBLK
  8
1
  5
130
  0
BLOCK
  8
1
  5
132
 70
1
 10
0.0
 20
0.0
 30
0.0
  2
*M10
  3
*M10
  0
LINE
  8
1
  5
134
  6
CONTINUOUS
 62
7
 10
0.0
 20
111.0
 30
0.0
 11
0.0
 21
111.0
 31
32.0
  0
LINE
  8
1
  5
136
  6
CONTINUOUS
 62
7
 10
-16.0
 20
95.0
 30
0.0
 11
-16.0
 21
95.0
 31
32.0
  0
LINE
  8
1
  5
138
  6
CONTINUOUS
 62
7
 10
0.0
 20
79.0
 30
0.0
 11
0.0
 21
79.0
 31
32.0
  0
LINE
  8
1
  5
13A
  6
CONTINUOUS
 62
7
 10
45.97907
 20
108.24213
 30
16.0
 11
45.97907
 21
108.24213
 31
32.0
  0
LINE
  8
1
  5
13C
  6
CONTINUOUS
 62
7
 10
9.83457
 20
107.62048
 30
0.0
 11
9.83457
 21
107.62048
 31
32.0
  0
ARC
  8
1
  5
13E
  6
CONTINUOUS
 62
7
 210
0.0
 220
0.0
 230
-1.0
 10
3.725290E-014
 20
95.0
 30
1.862645E-014
 40
16.0
 50
232.2764555556
 51
127.7235416667
  0
LINE
  8
1
  5
140
  6
CONTINUOUS
 62
7
 10
9.78963
 20
82.34445
 30
16.0
 11
9.78963
 21
82.34445
 31
0.0
  0
LINE
  8
1
  5
142
  6
CONTINUOUS
 62
7
 10
9.7891
 20
82.34403
 30
16.0
 11
9.7891
 21
82.34403
 31
32.0
  0
ARC
  8
1
  5
144
  6
CONTINUOUS
 62
7
 210
0.0
 220
0.0
 230
-1.0
 10
3.725290E-014
 20
95.0
 30
-32.0
 40
16.0
 50
232.2788638889
 51
127.7211361111
  0
LINE
  8
1
  5
146
  6
CONTINUOUS
 62
7
 10
9.7891
 20
107.65597
 30
16.0
 11
9.7891
 21
107.65597
 31
32.0
  0
LINE
  8
1
  5
148
  6
CONTINUOUS
 62
7
 10
9.78963
 20
107.65556
 30
0.0
 11
9.78963
 21
107.65556
 31
16.0
  0
LINE
  8
1
  5
14A
  6
CONTINUOUS
 62
7
 10
9.7891
 20
82.34403
 30
16.0
 11
9.7891
 21
82.34403
 31
32.0
  0
POINT
  8
1
  5
14C
  6
CONTINUOUS
 62
7
 10
9.7891
 20
82.34403
 30
32.0
 50
0.0
  0
LINE
  8
1
  5
14E
  6
CONTINUOUS
 62
7
 10
9.7891
 20
107.65597
 30
32.0
 11
9.7891
 21
107.65597
 31
16.0
  0
POLYLINE
  8
1
  5
150
  6
CONTINUOUS
 62
7
 210
0.0
 220
0.0
 230
-1.0
 10
0.0
 20
0.0
 30
-32.0
 66
1
 70
0
  0
VERTEX
  8
1
  5
151
  6
CONTINUOUS
 62
7
 10
-49.9999
 20
119.99989
 30
-32.0
 42
0.054193
  0
VERTEX
  8
1
  5
152
  6
CONTINUOUS
 62
7
 10
-49.426744
 20
115.460542
 30
-32.0
 42
0.057621
  0
VERTEX
  8
1
  5
153
  6
CONTINUOUS
 62
7
 10
-47.90747
 20
111.292892
 30
-32.0
 42
0.059436
  0
VERTEX
  8
1
  5
154
  6
CONTINUOUS
 62
7
 10
-45.49815
 20
107.650758
 30
-32.0
 42
0.059037
  0
VERTEX
  8
1
  5
155
  6
CONTINUOUS
 62
7
 10
-42.287708
 20
104.668561
 30
-32.0
 42
0.056561
  0
VERTEX
  8
1
  5
156
  6
CONTINUOUS
 62
7
 10
-38.394632
 20
102.456368
 30
-32.0
 42
0.052792
  0
VERTEX
  8
1
  5
157
  6
CONTINUOUS
 62
7
 10
-33.962607
 20
101.095824
 30
-32.0
 42
0.048678
  0
VERTEX
  8
1
  5
158
  6
CONTINUOUS
 62
7
 10
-29.155206
 20
100.637144
 30
-32.0
 42
0.044945
  0
VERTEX
  8
1
  5
159
  6
CONTINUOUS
 62
7
 10
-24.14986
 20
101.097257
 30
-32.0
 42
0.041999
  0
VERTEX
  8
1
  5
15A
  6
CONTINUOUS
 62
7
 10
-19.131303
 20
102.459181
 30
-32.0
 42
0.040007
  0
VERTEX
  8
1
  5
15B
  6
CONTINUOUS
 62
7
 10
-14.284758
 20
104.672651
 30
-32.0
 42
0.039013
  0
VERTEX
  8
1
  5
15C
  6
CONTINUOUS
 62
7
 10
-9.789099
 20
107.655973
 30
-32.0
 42
0.039013
  0
SEQEND
  8
1
  5
15D
  0
LINE
  8
1
  5
15F
  6
CONTINUOUS
 62
7
 10
49.9999
 20
119.99989
 30
16.0
 11
49.9999
 21
119.99989
 31
32.0
  0
POLYLINE
  8
1
  5
161
  6
CONTINUOUS
 62
7
 210
0.0
 220
0.0
 230
-1.0
 10
0.0
 20
0.0
 30
1.862645E-014
 66
1
 70
0
  0
VERTEX
  8
1
  5
162
  6
CONTINUOUS
 62
7
 10
-9.879574
 20
107.585468
 30
1.862645E-014
 42
0.000409
  0
VERTEX
  8
1
  5
163
  6
CONTINUOUS
 62
7
 10
-9.834575
 20
107.620475
 30
1.862645E-014
 42
0.000409
  0
VERTEX
  8
1
  5
164
  6
CONTINUOUS
 62
7
 10
-9.789633
 20
107.655556
 30
1.862645E-014
 42
0.000409
  0
SEQEND
  8
1
  5
165
  0
LINE
  8
1
  5
167
  6
CONTINUOUS
 62
7
 10
174.0
 20
119.99989
 30
0.0
 11
50.0
 21
119.99989
 31
0.0
  0
LINE
  8
1
  5
169
  6
CONTINUOUS
 62
7
 10
174.0
 20
69.99989
 30
0.0
 11
174.0
 21
119.99989
 31
0.0
  0
LINE
  8
1
  5
16B
  6
CONTINUOUS
 62
7
 10
50.0
 20
70.00011
 30
0.0
 11
174.0
 21
69.99989
 31
0.0
  0
POLYLINE
  8
1
  5
16D
  6
CONTINUOUS
 62
7
 210
0.0
 220
0.0
 230
-1.0
 10
0.0
 20
0.0
 30
-4.656613E-015
 66
1
 70
0
  0
VERTEX
  8
1
  5
16E
  6
CONTINUOUS
 62
7
 10
-9.789634
 20
82.344445
 30
-4.656613E-015
 42
0.000409
  0
VERTEX
  8
1
  5
16F
  6
CONTINUOUS
 62
7
 10
-9.834575
 20
82.379525
 30
-4.656613E-015
 42
0.000409
  0
VERTEX
  8
1
  5
170
  6
CONTINUOUS
 62
7
 10
-9.879574
 20
82.414532
 30
-4.656613E-015
 42
0.000409
  0
SEQEND
  8
1
  5
171
  0
LINE
  8
1
  5
173
  6
CONTINUOUS
 62
7
 10
49.9999
 20
70.00011
 30
32.0
 11
49.9999
 21
70.00011
 31
16.0
  0
POLYLINE
  8
1
  5
175
  6
CONTINUOUS
 62
7
 210
0.0
 220
0.0
 230
-1.0
 10
0.0
 20
0.0
 30
-32.0
 66
1
 70
0
  0
VERTEX
  8
1
  5
176
  6
CONTINUOUS
 62
7
 10
-9.789099
 20
82.344027
 30
-32.0
 42
0.039013
  0
VERTEX
  8
1
  5
177
  6
CONTINUOUS
 62
7
 10
-14.284758
 20
85.327349
 30
-32.0
 42
0.040007
  0
VERTEX
  8
1
  5
178
  6
CONTINUOUS
 62
7
 10
-19.131303
 20
87.540819
 30
-32.0
 42
0.041999
  0
VERTEX
  8
1
  5
179
  6
CONTINUOUS
 62
7
 10
-24.14986
 20
88.902743
 30
-32.0
 42
0.044945
  0
VERTEX
  8
1
  5
17A
  6
CONTINUOUS
 62
7
 10
-29.155206
 20
89.362856
 30
-32.0
 42
0.048678
  0
VERTEX
  8
1
  5
17B
  6
CONTINUOUS
 62
7
 10
-33.962607
 20
88.904176
 30
-32.0
 42
0.052792
  0
VERTEX
  8
1
  5
17C
  6
CONTINUOUS
 62
7
 10
-38.394632
 20
87.543632
 30
-32.0
 42
0.056561
  0
VERTEX
  8
1
  5
17D
  6
CONTINUOUS
 62
7
 10
-42.287708
 20
85.331439
 30
-32.0
 42
0.059037
  0
VERTEX
  8
1
  5
17E
  6
CONTINUOUS
 62
7
 10
-45.49815
 20
82.349242
 30
-32.0
 42
0.059436
  0
VERTEX
  8
1
  5
17F
  6
CONTINUOUS
 62
7
 10
-47.90747
 20
78.707108
 30
-32.0
 42
0.057621
  0
VERTEX
  8
1
  5
180
  6
CONTINUOUS
 62
7
 10
-49.426744
 20
74.539458
 30
-32.0
 42
0.054193
  0
VERTEX
  8
1
  5
181
  6
CONTINUOUS
 62
7
 10
-49.9999
 20
70.00011
 30
-32.0
 42
0.054193
  0
SEQEND
  8
1
  5
182
  0
LINE
  8
1
  5
184
  6
CONTINUOUS
 62
7
 10
174.0
 20
119.99989
 30
32.0
 11
174.0
 21
69.99989
 31
32.0
  0
LINE
  8
1
  5
186
  6
CONTINUOUS
 62
7
 10
174.0
 20
69.99989
 30
0.0
 11
174.0
 21
69.99989
 31
32.0
  0
LINE
  8
1
  5
188
  6
CONTINUOUS
 62
7
 10
174.0
 20
119.99989
 30
0.0
 11
174.0
 21
119.99989
 31
32.0
  0
LINE
  8
1
  5
18A
  6
CONTINUOUS
 62
7
 10
174.0
 20
69.99989
 30
32.0
 11
49.9999
 21
70.00011
 31
32.0
  0
POINT
  8
1
  5
18C
  6
CONTINUOUS
 62
7
 10
9.7891
 20
107.65597
 30
32.0
 50
0.0
  0
LINE
  8
1
  5
18E
  6
CONTINUOUS
 62
7
 10
49.9999
 20
119.99989
 30
32.0
 11
174.0
 21
119.99989
 31
32.0
  0
ENDBLK
  8
1
  5
18F
  0
BLOCK
  8
1
  5
191
 70
1
 10
0.0
 20
0.0
 30
0.0
  2
*M11
  3
*M11
  0
INSERT
  8
1
  5
193
  6
CONTINUOUS
 62
7
  2
*M9
 10
0.0
 20
0.0
 30
0.0
 41
1.0
 42
1.0
 43
1.0
 70
1
 71
1
  0
INSERT
  8
1
  5
195
  6
CONTINUOUS
 62
7
  2
*M10
 10
0.0
 20
0.0
 30
0.0
 41
1.0
 42
1.0
 43
1.0
 70
1
 71
1
  0
ENDBLK
  8
1
  5
196
  0
ENDSEC
  0
SECTION
  2
ENTITIES
  0
INSERT
  8
1
  5
2
  6
CONTINUOUS
 62
7
  2
*M4
 10
0.0
 20
0.0
 30
0.0
 41
1.0
 42
1.0
 43
1.0
 70
1
 71
1
  0
INSERT
  8
1
  5
4
  6
CONTINUOUS
 62
7
  2
*M11
 10
110.0
 20
0.0
 30
0.0
 41
1.0
 42
1.0
 43
1.0
 70
1
 71
1
  0
ENDSEC
  0
EOF
