  0
SECTION
  2
HEADER
  9
$ACADVER
  1
AC1009
  9
$INSBASE
 10
0.0
 20
0.0
 30
0.0
  9
$EXTMAX
 10
203.80275
 20
194.21505
 30
-7.99999
  9
$EXTMIN
 10
13.80275
 20
-95.78495
 30
-40.0
  9
$LIMMAX
 10
12.0
 20
9.0
  9
$LIMMIN
 10
0.0
 20
0.0
  9
$ORTHOMODE
 70
0
  9
$REGENMODE
 70
1
  9
$FILLMODE
 70
1
  9
$QTEXTMODE
 70
0
  9
$MIRRTEXT
 70
1
  9
$DRAGMODE
 70
2
  9
$LTSCALE
 40
1.0
  9
$OSMODE
 70
0
  9
$ATTMODE
 70
1
  9
$TEXTSIZE
 40
0.2
  9
$TRACEWID
 40
0.05
  9
$TEXTSTYLE
  7
STANDARD
  9
$CLAYER
  8
0
  9
$CELTYPE
  6
CONTINUOUS
  9
$CECOLOR
 62
256
  9
$DIMSCALE
 40
1.0
  9
$DIMASZ
 40
0.18
  9
$DIMEXO
 40
0.0625
  9
$DIMDLI
 40
0.38
  9
$DIMRND
 40
0.0
  9
$DIMDLE
 40
0.0
  9
$DIMEXE
 40
0.18
  9
$DIMTP
 40
0.0
  9
$DIMTM
 40
0.0
  9
$DIMTXT
 40
0.18
  9
$DIMCEN
 40
0.09
  9
$DIMTSZ
 40
0.0
  9
$DIMTOL
 70
0
  9
$DIMLIM
 70
0
  9
$DIMTIH
 70
1
  9
$DIMTOH
 70
1
  9
$DIMSE1
 70
0
  9
$DIMSE2
 70
0
  9
$DIMTAD
 70
0
  9
$DIMZIN
 70
0
  9
$DIMBLK
  1

  9
$DIMASO
 70
1
  9
$DIMSHO
 70
1
  9
$DIMPOST
  1

  9
$DIMAPOST
  1

  9
$DIMALT
 70
0
  9
$DIMALTD
 70
2
  9
$DIMALTF
 40
25.4
  9
$DIMLFAC
 40
1.0
  9
$DIMTOFL
 70
0
  9
$DIMTVP
 40
0.0
  9
$DIMTIX
 70
0
  9
$DIMSOXD
 70
0
  9
$DIMSAH
 70
0
  9
$DIMBLK1
  1

  9
$DIMBLK2
  1

  9
$DIMSTYLE
  2
*UNNAMED
  9
$DIMCLRD
 70
0
  9
$DIMCLRE
 70
0
  9
$DIMCLRT
 70
0
  9
$DIMTFAC
 40
1.0
  9
$DIMGAP
 40
0.09
  9
$LUNITS
 70
2
  9
$LUPREC
 70
4
  9
$AXISMODE
 70
0
  9
$AXISUNIT
 10
0.0
 20
0.0
  9
$SKETCHINC
 40
0.1
  9
$FILLETRAD
 40
0.0
  9
$AUNITS
 70
0
  9
$AUPREC
 70
0
  9
$MENU
  1
acad
  9
$ELEVATION
 40
0.0
  9
$PELEVATION
 40
0.0
  9
$THICKNESS
 40
0.0
  9
$LIMCHECK
 70
0
  9
$BLIPMODE
 70
1
  9
$CHAMFERA
 40
0.0
  9
$CHAMFERB
 40
0.0
  9
$SKPOLY
 70
0
  9
$TDCREATE
 40
0.0
  9
$TDUPDATE
 40
0.0
  9
$TDINDWG
 40
0.0
  9
$TDUSRTIMER
 40
0.0
  9
$USRTIMER
 70
1
  9
$ANGBASE
 50
0.0
  9
$ANGDIR
 70
0
  9
$PDMODE
 70
0
  9
$PDSIZE
 40
0.0
  9
$PLINEWID
 40
0.0
  9
$COORDS
 70
0
  9
$SPLFRAME
 70
0
  9
$SPLINETYPE
 70
6
  9
$SPLINESEGS
 70
10
  9
$ATTDIA
 70
0
  9
$ATTREQ
 70
1
  9
$HANDLING
 70
1
  9
$HANDSEED
  5
183
  9
$SURFTAB1
 70
6
  9
$SURFTAB2
 70
6
  9
$SURFTYPE
 70
6
  9
$SURFU
 70
10
  9
$SURFV
 70
10
  9
$UCSNAME
  2

  9
$UCSORG
 10
0.0
 20
0.0
 30
0.0
  9
$UCSXDIR
 10
1.0
 20
0.0
 30
0.0
  9
$UCSYDIR
 10
0.0
 20
1.0
 30
0.0
  9
$PUCSNAME
  2
 
  9
$PUCSORG
 10
0.0
 20
0.0
 30
0.0
  9
$PUCSXDIR
 10
1.0
 20
0.0
 30
0.0
  9
$PUCSYDIR
 10
0.0
 20
1.0
 30
0.0
  9
$USERI1
 70
0
  9
$USERI2
 70
0
  9
$USERI3
 70
0
  9
$USERI4
 70
0
  9
$USERI5
 70
0
  9
$USERR1
 40
0.0
  9
$USERR2
 40
0.0
  9
$USERR3
 40
0.0
  9
$USERR4
 40
0.0
  9
$USERR5
 40
0.0
  9
$WORLDVIEW
 70
1
  9
$SHADEDGE
 70
3
  9
$SHADEDIF
 70
70
  9
$TILEMODE
 70
1
  9
$MAXACTVP
 70
16
  9
$PINSBASE
 10
0.0
 20
0.0
 30
0.0
  9
$PLIMCHECK
 70
0
  9
$PEXTMIN
 10
-1.000000E+020
 20
-1.000000E+020
 30
-1.000000E+020
  9
$PEXTMAX
 10
-1.000000E+020
 20
-1.000000E+020
 30
-1.000000E+020
  9
$PLIMMIN
 10
0.0
 20
0.0
  9
$PLIMMAX
 10
12.0
 20
9.0
  9
$UNITMODE
 70
0
  9
$VISRETAIN
 70
0
  0
ENDSEC
  0
SECTION
  2
TABLES
  0
TABLE
  2
LTYPE
 70
7
  0
LTYPE
  2
CONTINUOUS
 70
64
  3
Solid line
 72
65
 73
0
 40
0.0
  0
LTYPE
  2
DOT
 70
64
  3
. . . . . . . . . . . . . . . . . . . . . . . . . . . . . . . . .
 72
65
 73
2
 40
0.25
 49
0.0
 49
-0.25
  0
LTYPE
  2
HIDDEN
 70
64
  3
__ __ __ __ __ __ __ __ __ __ __ __ __ __ __ __ __ __ __ __ __ 
 72
65
 73
2
 40
0.375
 49
0.25
 49
-0.125
  0
LTYPE
  2
DASHED
 70
64
  3
__ __ __ __ __ __ __ __ __ __ __ __ __ __ __ __ __ __ __ __ __
 72
65
 73
2
 40
0.75
 49
0.5
 49
-0.25
  0
LTYPE
  2
DASHDOT
 70
64
  3
__ . __ . __ . __ . __ . __ . __ . __ . __ . __ . __ . __ . _
 72
65
 73
4
 40
1.0
 49
0.5
 49
-0.25
 49
0.0
 49
-0.25
  0
LTYPE
  2
DIVIDE
 70
64
  3
____ . . ____ . . ____ . . ____ . . ____ . . ____ . . ____ . .
 72
65
 73
6
 40
1.25
 49
0.5
 49
-0.25
 49
0.0
 49
-0.25
 49
0.0
 49
-0.25
  0
LTYPE
  2
CENTER
 70
64
  3
____ _ ____ _ ____ _ ____ _ ____ _ ____ _ ____ _ ____ _ ____ _
 72
65
 73
4
 40
2.0
 49
1.25
 49
-0.25
 49
0.25
 49
-0.25
  0
ENDTAB
  0
TABLE
  2
APPID
 70
1
  0
APPID
  2
ACAD
 70
0
  0
ENDTAB
  0
TABLE
  2
DIMSTYLE
 70
0
  0
ENDTAB
  0
TABLE
  2
LAYER
 70
4
  0
LAYER
  2
0
 70
0
 62
7
  6
CONTINUOUS
  0
LAYER
  2
CONSTRUCTION_CLASS
 70
0
 62
7
  6
CONTINUOUS
  0
LAYER
  2
PATTERN_CLASS
 70
0
 62
7
  6
CONTINUOUS
  0
LAYER
  2
1
 70
0
 62
7
  6
CONTINUOUS
  0
ENDTAB
  0
TABLE
  2
STYLE
 70
1
  0
STYLE
  2
STANDARD
 70
0
 40
0.2
 41
1.0
 50
0.0
 71
0
 42
0.0
  3
txt
  4

  0
ENDTAB
  0
TABLE
  2
UCS
 70
0
  0
ENDTAB
  0
TABLE
  2
VIEW
 70
2
  0
VIEW
  2
AN_4
 70
0
 40
184.08589
 41
266.94694
 10
5.684342E-014
 20
4.263256E-014
 11
697.367456
 21
519.007202
 31
329.68983
 12
84.289249
 22
-71.590615
 32
36.906
 42
50.0
 43
464.8616
 44
-464.8616
 50
0.0
 71
0
  0
VIEW
  2
AN_5
 70
0
 40
188.27417
 41
272.91749
 10
0.0
 20
0.0
 11
135.559768
 21
77.131668
 31
99.909923
 12
24.854418
 22
-146.513275
 32
22.871679
 42
50.0
 43
92.61174
 44
-92.61174
 50
0.0
 71
0
  0
ENDTAB
  0
TABLE
  2
VPORT
 70
4
  0
VPORT
  2
*ACTIVE
 70
0
 10
0.500821
 20
0.50171
 11
0.998358
 21
0.997719
 12
0.0
 22
0.0
 13
0.0
 23
0.0
 14
0.0
 24
0.0
 15
0.0
 25
0.0
 16
0.0
 26
-2.766440E-015
 36
45.18088
 17
90.19176
 27
49.21505
 37
-24.0
 40
297.25
 41
1.393103
 42
50.0
 43
22.59044
 44
-22.59044
 50
0.0
 51
0.0
 71
22
 72
100
 73
1
 74
0
 75
0
 76
0
 77
0
 78
0
  0
VPORT
  2
*ACTIVE
 70
0
 10
0.001642
 20
0.50171
 11
0.499179
 21
0.997719
 12
0.0
 22
0.0
 13
0.0
 23
0.0
 14
0.0
 24
0.0
 15
0.0
 25
0.0
 16
-152.41128
 26
-152.41128
 36
152.41128
 17
100.021435
 27
92.996358
 37
-23.999997
 40
198.34744
 41
1.393103
 42
50.0
 43
131.99204
 44
-131.99204
 50
0.0
 51
0.0
 71
22
 72
100
 73
1
 74
0
 75
0
 76
0
 77
0
 78
0
  0
VPORT
  2
*ACTIVE
 70
0
 10
0.001642
 20
0.003421
 11
0.499179
 21
0.49943
 12
0.0
 22
0.0
 13
0.0
 23
0.0
 14
0.0
 24
0.0
 15
0.0
 25
0.0
 16
0.0
 26
-297.25
 36
0.0
 17
100.718113
 27
49.21505
 37
-23.99999
 40
129.12572
 41
1.393103
 42
50.0
 43
148.625
 44
-148.625
 50
0.0
 51
0.0
 71
22
 72
100
 73
1
 74
0
 75
0
 76
0
 77
0
 78
0
  0
VPORT
  2
*ACTIVE
 70
0
 10
0.500821
 20
0.003421
 11
0.998358
 21
0.49943
 12
0.0
 22
0.0
 13
0.0
 23
0.0
 14
0.0
 24
0.0
 15
0.0
 25
0.0
 16
198.6812
 26
0.0
 36
0.0
 17
108.80275
 27
36.957464
 37
-24.0
 40
195.775
 41
1.393103
 42
50.0
 43
99.3406
 44
-99.3406
 50
0.0
 51
0.0
 71
22
 72
100
 73
1
 74
0
 75
0
 76
0
 77
0
 78
0
  0
ENDTAB
  0
ENDSEC
  0
SECTION
  2
BLOCKS
  0
BLOCK
  8
1
  5
8
 70
1
 10
0.0
 20
0.0
 30
0.0
  2
*M0
  3
*M0
  0
LINE
  8
1
  5
A
  6
CONTINUOUS
 62
7
 10
95.0
 20
-87.9
 30
32.0
 11
95.0
 21
-87.9
 31
17.0
  0
ARC
  8
1
  5
C
  6
CONTINUOUS
 62
7
 10
83.714236
 20
-24.634485
 30
17.0
 40
4.1
 50
164.9418563308
 51
226.9512952197
  0
LINE
  8
1
  5
E
  6
CONTINUOUS
 62
7
 10
80.9155
 20
-27.63066
 30
32.0
 11
80.9155
 21
-27.63066
 31
17.0
  0
ARC
  8
1
  5
10
  6
CONTINUOUS
 62
7
 210
0.0
 220
0.0
 230
-1.0
 10
-83.714236
 20
-24.634485
 30
-32.0
 40
4.1
 50
313.0487047803
 51
15.0581436692
  0
LINE
  8
1
  5
12
  6
CONTINUOUS
 62
7
 10
79.75502
 20
-23.56931
 30
32.0
 11
79.75502
 21
-23.56931
 31
17.0
  0
ARC
  8
1
  5
14
  6
CONTINUOUS
 62
7
 210
0.0
 220
0.0
 230
-1.0
 10
-63.85
 20
-45.9
 30
-17.0
 40
25.0
 50
133.0487055556
 51
226.9512944444
  0
LINE
  8
1
  5
16
  6
CONTINUOUS
 62
7
 10
80.9155
 20
-64.16934
 30
32.0
 11
80.9155
 21
-64.16934
 31
17.0
  0
ARC
  8
1
  5
18
  6
CONTINUOUS
 62
7
 10
63.85
 20
-45.9
 30
32.0
 40
25.0
 50
313.0487055556
 51
46.9512944444
  0
ARC
  8
1
  5
1A
  6
CONTINUOUS
 62
7
 10
83.714236
 20
-67.165515
 30
17.0
 40
4.1
 50
133.048704936
 51
195.0582021582
  0
LINE
  8
1
  5
1C
  6
CONTINUOUS
 62
7
 10
79.75502
 20
-68.2307
 30
32.0
 11
79.75502
 21
-68.2307
 31
17.0
  0
ARC
  8
1
  5
1E
  6
CONTINUOUS
 62
7
 210
0.0
 220
0.0
 230
-1.0
 10
-83.714236
 20
-67.165515
 30
-32.0
 40
4.1
 50
344.9417978418
 51
46.951295064
  0
POINT
  8
1
  5
20
  6
CONTINUOUS
 62
7
 10
79.75502
 20
-68.2307
 30
17.0
 50
0.0
  0
LINE
  8
1
  5
22
  6
CONTINUOUS
 62
7
 10
79.75502
 20
-68.2307
 30
32.0
 11
79.75502
 21
-68.2307
 31
17.0
  0
POINT
  8
1
  5
24
  6
CONTINUOUS
 62
7
 10
79.75502
 20
-68.2307
 30
32.0
 50
0.0
  0
POLYLINE
  8
1
  5
26
  6
CONTINUOUS
 62
7
 10
0.0
 20
0.0
 30
17.0
 66
1
 70
0
  0
VERTEX
  8
1
  5
27
  6
CONTINUOUS
 62
7
 10
79.755022
 20
-68.2307
 30
17.0
 42
0.03147
  0
VERTEX
  8
1
  5
28
  6
CONTINUOUS
 62
7
 10
81.985594
 20
-74.914625
 30
17.0
 42
0.041297
  0
VERTEX
  8
1
  5
29
  6
CONTINUOUS
 62
7
 10
84.74562
 20
-80.418171
 30
17.0
 42
0.058256
  0
VERTEX
  8
1
  5
2A
  6
CONTINUOUS
 62
7
 10
87.922817
 20
-84.517441
 30
17.0
 42
0.084809
  0
VERTEX
  8
1
  5
2B
  6
CONTINUOUS
 62
7
 10
91.38793
 20
-87.045669
 30
17.0
 42
0.111927
  0
VERTEX
  8
1
  5
2C
  6
CONTINUOUS
 62
7
 10
94.99999
 20
-87.9
 30
17.0
 42
0.111928
  0
VERTEX
  8
1
  5
2D
  6
CONTINUOUS
 62
7
 10
98.61205
 20
-87.045678
 30
17.0
 42
0.084809
  0
VERTEX
  8
1
  5
2E
  6
CONTINUOUS
 62
7
 10
102.077164
 20
-84.51746
 30
17.0
 42
0.058256
  0
VERTEX
  8
1
  5
2F
  6
CONTINUOUS
 62
7
 10
105.254363
 20
-80.418197
 30
17.0
 42
0.041297
  0
VERTEX
  8
1
  5
30
  6
CONTINUOUS
 62
7
 10
108.014393
 20
-74.914658
 30
17.0
 42
0.03147
  0
VERTEX
  8
1
  5
31
  6
CONTINUOUS
 62
7
 10
110.244968
 20
-68.230739
 30
17.0
 42
0.03147
  0
SEQEND
  8
1
  5
32
  0
LINE
  8
1
  5
34
  6
CONTINUOUS
 62
7
 10
110.24497
 20
-68.23074
 30
32.0
 11
110.24497
 21
-68.23074
 31
17.0
  0
POLYLINE
  8
1
  5
36
  6
CONTINUOUS
 62
7
 210
0.0
 220
0.0
 230
-1.0
 10
0.0
 20
0.0
 30
-32.0
 66
1
 70
0
  0
VERTEX
  8
1
  5
37
  6
CONTINUOUS
 62
7
 10
-110.244968
 20
-68.230739
 30
-32.0
 42
0.03147
  0
VERTEX
  8
1
  5
38
  6
CONTINUOUS
 62
7
 10
-108.014393
 20
-74.914658
 30
-32.0
 42
0.041297
  0
VERTEX
  8
1
  5
39
  6
CONTINUOUS
 62
7
 10
-105.254363
 20
-80.418197
 30
-32.0
 42
0.058256
  0
VERTEX
  8
1
  5
3A
  6
CONTINUOUS
 62
7
 10
-102.077164
 20
-84.51746
 30
-32.0
 42
0.084809
  0
VERTEX
  8
1
  5
3B
  6
CONTINUOUS
 62
7
 10
-98.61205
 20
-87.045678
 30
-32.0
 42
0.111928
  0
VERTEX
  8
1
  5
3C
  6
CONTINUOUS
 62
7
 10
-94.99999
 20
-87.9
 30
-32.0
 42
0.111927
  0
VERTEX
  8
1
  5
3D
  6
CONTINUOUS
 62
7
 10
-91.38793
 20
-87.045669
 30
-32.0
 42
0.084809
  0
VERTEX
  8
1
  5
3E
  6
CONTINUOUS
 62
7
 10
-87.922817
 20
-84.517441
 30
-32.0
 42
0.058256
  0
VERTEX
  8
1
  5
3F
  6
CONTINUOUS
 62
7
 10
-84.74562
 20
-80.418171
 30
-32.0
 42
0.041297
  0
VERTEX
  8
1
  5
40
  6
CONTINUOUS
 62
7
 10
-81.985594
 20
-74.914625
 30
-32.0
 42
0.03147
  0
VERTEX
  8
1
  5
41
  6
CONTINUOUS
 62
7
 10
-79.755022
 20
-68.2307
 30
-32.0
 42
0.03147
  0
SEQEND
  8
1
  5
42
  0
POINT
  8
1
  5
44
  6
CONTINUOUS
 62
7
 10
110.24497
 20
-68.23074
 30
17.0
 50
0.0
  0
LINE
  8
1
  5
46
  6
CONTINUOUS
 62
7
 10
110.24497
 20
-68.23074
 30
32.0
 11
110.24497
 21
-68.23074
 31
17.0
  0
POINT
  8
1
  5
48
  6
CONTINUOUS
 62
7
 10
110.24497
 20
-68.23074
 30
32.0
 50
0.0
  0
ARC
  8
1
  5
4A
  6
CONTINUOUS
 62
7
 10
106.285764
 20
-67.165515
 30
17.0
 40
4.1
 50
344.941188994
 51
46.9512945495
  0
LINE
  8
1
  5
4C
  6
CONTINUOUS
 62
7
 10
109.0845
 20
-64.16934
 30
32.0
 11
109.0845
 21
-64.16934
 31
17.0
  0
ARC
  8
1
  5
4E
  6
CONTINUOUS
 62
7
 210
0.0
 220
0.0
 230
-1.0
 10
-106.285764
 20
-67.165515
 30
-32.0
 40
4.1
 50
133.0487054505
 51
195.058811006
  0
ARC
  8
1
  5
50
  6
CONTINUOUS
 62
7
 210
0.0
 220
0.0
 230
-1.0
 10
-126.15
 20
-45.9
 30
-17.0
 40
25.0
 50
313.0487055556
 51
46.9512944444
  0
LINE
  8
1
  5
52
  6
CONTINUOUS
 62
7
 10
109.0845
 20
-27.63066
 30
32.0
 11
109.0845
 21
-27.63066
 31
17.0
  0
ARC
  8
1
  5
54
  6
CONTINUOUS
 62
7
 10
126.15
 20
-45.9
 30
32.0
 40
25.0
 50
133.0487055556
 51
226.9512944444
  0
ARC
  8
1
  5
56
  6
CONTINUOUS
 62
7
 10
106.285764
 20
-24.634485
 30
17.0
 40
4.1
 50
313.048705557
 51
15.0587333347
  0
LINE
  8
1
  5
58
  6
CONTINUOUS
 62
7
 10
110.24497
 20
-23.56927
 30
32.0
 11
110.24497
 21
-23.56927
 31
17.0
  0
ARC
  8
1
  5
5A
  6
CONTINUOUS
 62
7
 210
0.0
 220
0.0
 230
-1.0
 10
-106.285764
 20
-24.634485
 30
-32.0
 40
4.1
 50
164.9412666653
 51
226.951294443
  0
POINT
  8
1
  5
5C
  6
CONTINUOUS
 62
7
 10
110.24497
 20
-23.56927
 30
17.0
 50
0.0
  0
LINE
  8
1
  5
5E
  6
CONTINUOUS
 62
7
 10
110.24497
 20
-23.56927
 30
32.0
 11
110.24497
 21
-23.56927
 31
17.0
  0
POINT
  8
1
  5
60
  6
CONTINUOUS
 62
7
 10
110.24497
 20
-23.56927
 30
32.0
 50
0.0
  0
POLYLINE
  8
1
  5
62
  6
CONTINUOUS
 62
7
 10
0.0
 20
0.0
 30
17.0
 66
1
 70
0
  0
VERTEX
  8
1
  5
63
  6
CONTINUOUS
 62
7
 10
110.24497
 20
-23.569269
 30
17.0
 42
0.03147
  0
VERTEX
  8
1
  5
64
  6
CONTINUOUS
 62
7
 10
108.014395
 20
-16.885347
 30
17.0
 42
0.041297
  0
VERTEX
  8
1
  5
65
  6
CONTINUOUS
 62
7
 10
105.254366
 20
-11.381806
 30
17.0
 42
0.058256
  0
VERTEX
  8
1
  5
66
  6
CONTINUOUS
 62
7
 10
102.077166
 20
-7.282542
 30
17.0
 42
0.084809
  0
VERTEX
  8
1
  5
67
  6
CONTINUOUS
 62
7
 10
98.612051
 20
-4.754322
 30
17.0
 42
0.111928
  0
VERTEX
  8
1
  5
68
  6
CONTINUOUS
 62
7
 10
94.99999
 20
-3.9
 30
17.0
 42
0.111927
  0
VERTEX
  8
1
  5
69
  6
CONTINUOUS
 62
7
 10
91.387929
 20
-4.754332
 30
17.0
 42
0.084809
  0
VERTEX
  8
1
  5
6A
  6
CONTINUOUS
 62
7
 10
87.922816
 20
-7.28256
 30
17.0
 42
0.058256
  0
VERTEX
  8
1
  5
6B
  6
CONTINUOUS
 62
7
 10
84.745618
 20
-11.381833
 30
17.0
 42
0.041297
  0
VERTEX
  8
1
  5
6C
  6
CONTINUOUS
 62
7
 10
81.985591
 20
-16.885381
 30
17.0
 42
0.03147
  0
VERTEX
  8
1
  5
6D
  6
CONTINUOUS
 62
7
 10
79.755019
 20
-23.569309
 30
17.0
 42
0.03147
  0
SEQEND
  8
1
  5
6E
  0
POLYLINE
  8
1
  5
70
  6
CONTINUOUS
 62
7
 210
0.0
 220
0.0
 230
-1.0
 10
0.0
 20
0.0
 30
-32.0
 66
1
 70
0
  0
VERTEX
  8
1
  5
71
  6
CONTINUOUS
 62
7
 10
-79.755019
 20
-23.569309
 30
-32.0
 42
0.03147
  0
VERTEX
  8
1
  5
72
  6
CONTINUOUS
 62
7
 10
-81.985591
 20
-16.885381
 30
-32.0
 42
0.041297
  0
VERTEX
  8
1
  5
73
  6
CONTINUOUS
 62
7
 10
-84.745618
 20
-11.381833
 30
-32.0
 42
0.058256
  0
VERTEX
  8
1
  5
74
  6
CONTINUOUS
 62
7
 10
-87.922816
 20
-7.28256
 30
-32.0
 42
0.084809
  0
VERTEX
  8
1
  5
75
  6
CONTINUOUS
 62
7
 10
-91.387929
 20
-4.754332
 30
-32.0
 42
0.111927
  0
VERTEX
  8
1
  5
76
  6
CONTINUOUS
 62
7
 10
-94.99999
 20
-3.9
 30
-32.0
 42
0.111928
  0
VERTEX
  8
1
  5
77
  6
CONTINUOUS
 62
7
 10
-98.612051
 20
-4.754322
 30
-32.0
 42
0.084809
  0
VERTEX
  8
1
  5
78
  6
CONTINUOUS
 62
7
 10
-102.077166
 20
-7.282542
 30
-32.0
 42
0.058256
  0
VERTEX
  8
1
  5
79
  6
CONTINUOUS
 62
7
 10
-105.254366
 20
-11.381806
 30
-32.0
 42
0.041297
  0
VERTEX
  8
1
  5
7A
  6
CONTINUOUS
 62
7
 10
-108.014395
 20
-16.885347
 30
-32.0
 42
0.03147
  0
VERTEX
  8
1
  5
7B
  6
CONTINUOUS
 62
7
 10
-110.24497
 20
-23.569269
 30
-32.0
 42
0.03147
  0
SEQEND
  8
1
  5
7C
  0
ENDBLK
  8
1
  5
7D
  0
BLOCK
  8
1
  5
7F
 70
1
 10
0.0
 20
0.0
 30
0.0
  2
*M1
  3
*M1
  0
LINE
  8
1
  5
81
  6
CONTINUOUS
 62
7
 10
95.0
 20
-87.9
 30
32.0
 11
95.0
 21
-87.9
 31
17.0
  0
LINE
  8
1
  5
83
  6
CONTINUOUS
 62
7
 10
88.85
 20
-45.9
 30
32.0
 11
88.85
 21
-45.9
 31
17.0
  0
ARC
  8
1
  5
85
  6
CONTINUOUS
 62
7
 10
63.85
 20
-45.9
 30
32.0
 40
25.0
 50
313.0487055556
 51
360.0
  0
LINE
  8
1
  5
87
  6
CONTINUOUS
 62
7
 10
80.9155
 20
-64.16934
 30
32.0
 11
80.9155
 21
-64.16934
 31
17.0
  0
ARC
  8
1
  5
89
  6
CONTINUOUS
 62
7
 210
0.0
 220
0.0
 230
-1.0
 10
-63.85
 20
-45.9
 30
-17.0
 40
25.0
 50
180.0
 51
226.9512944444
  0
LINE
  8
1
  5
8B
  6
CONTINUOUS
 62
7
 10
88.85
 20
-45.9
 30
17.0
 11
101.15
 21
-45.9
 31
17.0
  0
ARC
  8
1
  5
8D
  6
CONTINUOUS
 62
7
 10
83.714236
 20
-67.165515
 30
17.0
 40
4.1
 50
133.048704936
 51
195.0582021582
  0
POINT
  8
1
  5
8F
  6
CONTINUOUS
 62
7
 10
79.75502
 20
-68.2307
 30
17.0
 50
0.0
  0
POLYLINE
  8
1
  5
91
  6
CONTINUOUS
 62
7
 10
0.0
 20
0.0
 30
17.0
 66
1
 70
0
  0
VERTEX
  8
1
  5
92
  6
CONTINUOUS
 62
7
 10
79.755022
 20
-68.2307
 30
17.0
 42
0.03147
  0
VERTEX
  8
1
  5
93
  6
CONTINUOUS
 62
7
 10
81.985594
 20
-74.914625
 30
17.0
 42
0.041297
  0
VERTEX
  8
1
  5
94
  6
CONTINUOUS
 62
7
 10
84.74562
 20
-80.418171
 30
17.0
 42
0.058256
  0
VERTEX
  8
1
  5
95
  6
CONTINUOUS
 62
7
 10
87.922817
 20
-84.517441
 30
17.0
 42
0.084809
  0
VERTEX
  8
1
  5
96
  6
CONTINUOUS
 62
7
 10
91.38793
 20
-87.045669
 30
17.0
 42
0.111927
  0
VERTEX
  8
1
  5
97
  6
CONTINUOUS
 62
7
 10
94.99999
 20
-87.9
 30
17.0
 42
0.111928
  0
VERTEX
  8
1
  5
98
  6
CONTINUOUS
 62
7
 10
98.61205
 20
-87.045678
 30
17.0
 42
0.084809
  0
VERTEX
  8
1
  5
99
  6
CONTINUOUS
 62
7
 10
102.077164
 20
-84.51746
 30
17.0
 42
0.058256
  0
VERTEX
  8
1
  5
9A
  6
CONTINUOUS
 62
7
 10
105.254363
 20
-80.418197
 30
17.0
 42
0.041297
  0
VERTEX
  8
1
  5
9B
  6
CONTINUOUS
 62
7
 10
108.014393
 20
-74.914658
 30
17.0
 42
0.03147
  0
VERTEX
  8
1
  5
9C
  6
CONTINUOUS
 62
7
 10
110.244968
 20
-68.230739
 30
17.0
 42
0.03147
  0
SEQEND
  8
1
  5
9D
  0
POINT
  8
1
  5
9F
  6
CONTINUOUS
 62
7
 10
110.24497
 20
-68.23074
 30
17.0
 50
0.0
  0
ARC
  8
1
  5
A1
  6
CONTINUOUS
 62
7
 10
106.285764
 20
-67.165515
 30
17.0
 40
4.1
 50
344.941188994
 51
46.9512945495
  0
ARC
  8
1
  5
A3
  6
CONTINUOUS
 62
7
 210
0.0
 220
0.0
 230
-1.0
 10
-126.15
 20
-45.9
 30
-17.0
 40
25.0
 50
313.0487055556
 51
360.0
  0
ARC
  8
1
  5
A5
  6
CONTINUOUS
 62
7
 210
0.0
 220
0.0
 230
-1.0
 10
-83.714236
 20
-67.165515
 30
-32.0
 40
4.1
 50
344.9417978418
 51
46.951295064
  0
LINE
  8
1
  5
A7
  6
CONTINUOUS
 62
7
 10
79.75502
 20
-68.2307
 30
32.0
 11
79.75502
 21
-68.2307
 31
17.0
  0
POINT
  8
1
  5
A9
  6
CONTINUOUS
 62
7
 10
79.75502
 20
-68.2307
 30
32.0
 50
0.0
  0
LINE
  8
1
  5
AB
  6
CONTINUOUS
 62
7
 10
79.75502
 20
-68.2307
 30
32.0
 11
79.75502
 21
-68.2307
 31
17.0
  0
POLYLINE
  8
1
  5
AD
  6
CONTINUOUS
 62
7
 210
0.0
 220
0.0
 230
-1.0
 10
0.0
 20
0.0
 30
-32.0
 66
1
 70
0
  0
VERTEX
  8
1
  5
AE
  6
CONTINUOUS
 62
7
 10
-110.244968
 20
-68.230739
 30
-32.0
 42
0.03147
  0
VERTEX
  8
1
  5
AF
  6
CONTINUOUS
 62
7
 10
-108.014393
 20
-74.914658
 30
-32.0
 42
0.041297
  0
VERTEX
  8
1
  5
B0
  6
CONTINUOUS
 62
7
 10
-105.254363
 20
-80.418197
 30
-32.0
 42
0.058256
  0
VERTEX
  8
1
  5
B1
  6
CONTINUOUS
 62
7
 10
-102.077164
 20
-84.51746
 30
-32.0
 42
0.084809
  0
VERTEX
  8
1
  5
B2
  6
CONTINUOUS
 62
7
 10
-98.61205
 20
-87.045678
 30
-32.0
 42
0.111928
  0
VERTEX
  8
1
  5
B3
  6
CONTINUOUS
 62
7
 10
-94.99999
 20
-87.9
 30
-32.0
 42
0.111927
  0
VERTEX
  8
1
  5
B4
  6
CONTINUOUS
 62
7
 10
-91.38793
 20
-87.045669
 30
-32.0
 42
0.084809
  0
VERTEX
  8
1
  5
B5
  6
CONTINUOUS
 62
7
 10
-87.922817
 20
-84.517441
 30
-32.0
 42
0.058256
  0
VERTEX
  8
1
  5
B6
  6
CONTINUOUS
 62
7
 10
-84.74562
 20
-80.418171
 30
-32.0
 42
0.041297
  0
VERTEX
  8
1
  5
B7
  6
CONTINUOUS
 62
7
 10
-81.985594
 20
-74.914625
 30
-32.0
 42
0.03147
  0
VERTEX
  8
1
  5
B8
  6
CONTINUOUS
 62
7
 10
-79.755022
 20
-68.2307
 30
-32.0
 42
0.03147
  0
SEQEND
  8
1
  5
B9
  0
LINE
  8
1
  5
BB
  6
CONTINUOUS
 62
7
 10
110.24497
 20
-68.23074
 30
32.0
 11
110.24497
 21
-68.23074
 31
17.0
  0
POINT
  8
1
  5
BD
  6
CONTINUOUS
 62
7
 10
110.24497
 20
-68.23074
 30
32.0
 50
0.0
  0
LINE
  8
1
  5
BF
  6
CONTINUOUS
 62
7
 10
110.24497
 20
-68.23074
 30
32.0
 11
110.24497
 21
-68.23074
 31
17.0
  0
ARC
  8
1
  5
C1
  6
CONTINUOUS
 62
7
 210
0.0
 220
0.0
 230
-1.0
 10
-106.285764
 20
-67.165515
 30
-32.0
 40
4.1
 50
133.0487054505
 51
195.058811006
  0
LINE
  8
1
  5
C3
  6
CONTINUOUS
 62
7
 10
109.0845
 20
-64.16934
 30
32.0
 11
109.0845
 21
-64.16934
 31
17.0
  0
LINE
  8
1
  5
C5
  6
CONTINUOUS
 62
7
 10
101.15
 20
-45.9
 30
17.0
 11
101.15
 21
-45.9
 31
32.0
  0
ARC
  8
1
  5
C7
  6
CONTINUOUS
 62
7
 10
126.15
 20
-45.9
 30
32.0
 40
25.0
 50
180.0
 51
226.9512944444
  0
ENDBLK
  8
1
  5
C8
  0
BLOCK
  8
1
  5
CA
 70
1
 10
0.0
 20
0.0
 30
0.0
  2
*M2
  3
*M2
  0
LINE
  8
1
  5
CC
  6
CONTINUOUS
 62
7
 10
101.15
 20
-45.9
 30
32.0
 11
115.9
 21
-45.9
 31
32.0
  0
LINE
  8
1
  5
CE
  6
CONTINUOUS
 62
7
 10
115.9
 20
-45.9
 30
0.0
 11
115.9
 21
-45.9
 31
32.0
  0
LINE
  8
1
  5
D0
  6
CONTINUOUS
 62
7
 10
115.9
 20
-45.9
 30
0.0
 11
74.1
 21
-45.9
 31
0.0
  0
LINE
  8
1
  5
D2
  6
CONTINUOUS
 62
7
 10
74.1
 20
-45.9
 30
0.0
 11
74.1
 21
-45.9
 31
32.0
  0
LINE
  8
1
  5
D4
  6
CONTINUOUS
 62
7
 10
74.1
 20
-45.9
 30
32.0
 11
88.85
 21
-45.9
 31
32.0
  0
LINE
  8
1
  5
D6
  6
CONTINUOUS
 62
7
 10
70.0
 20
-235.9
 30
32.0
 11
70.0
 21
-50.0
 31
32.0
  0
LINE
  8
1
  5
D8
  6
CONTINUOUS
 62
7
 10
70.0
 20
-50.0
 30
0.0
 11
70.0
 21
-50.0
 31
32.0
  0
LINE
  8
1
  5
DA
  6
CONTINUOUS
 62
7
 10
70.0
 20
-50.0
 30
0.0
 11
70.0
 21
-235.9
 31
0.0
  0
LINE
  8
1
  5
DC
  6
CONTINUOUS
 62
7
 10
70.0
 20
-235.9
 30
0.0
 11
70.0
 21
-235.9
 31
32.0
  0
ARC
  8
1
  5
DE
  6
CONTINUOUS
 62
7
 210
0.0
 220
0.0
 230
-1.0
 10
-74.1
 20
-50.0
 30
-32.0
 40
4.1
 50
360.0
 51
90.0
  0
ARC
  8
1
  5
E0
  6
CONTINUOUS
 62
7
 10
74.1
 20
-50.0
 30
-4.656613E-015
 40
4.1
 50
90.0
 51
180.0
  0
ARC
  8
1
  5
E2
  6
CONTINUOUS
 62
7
 210
0.0
 220
0.0
 230
-1.0
 10
-115.9
 20
-50.0
 30
-32.0
 40
4.1
 50
90.0
 51
180.0
  0
LINE
  8
1
  5
E4
  6
CONTINUOUS
 62
7
 10
120.0
 20
-50.0
 30
0.0
 11
120.0
 21
-50.0
 31
32.0
  0
ARC
  8
1
  5
E6
  6
CONTINUOUS
 62
7
 10
115.9
 20
-50.0
 30
-9.313226E-015
 40
4.1
 50
0.0
 51
90.0
  0
LINE
  8
1
  5
E8
  6
CONTINUOUS
 62
7
 10
120.0
 20
-50.0
 30
32.0
 11
120.0
 21
-235.9
 31
32.0
  0
LINE
  8
1
  5
EA
  6
CONTINUOUS
 62
7
 10
120.0
 20
-235.9
 30
0.0
 11
120.0
 21
-235.9
 31
32.0
  0
LINE
  8
1
  5
EC
  6
CONTINUOUS
 62
7
 10
120.0
 20
-235.9
 30
0.0
 11
120.0
 21
-50.0
 31
0.0
  0
LINE
  8
1
  5
EE
  6
CONTINUOUS
 62
7
 10
120.0
 20
-235.9
 30
32.0
 11
70.0
 21
-235.9
 31
32.0
  0
LINE
  8
1
  5
F0
  6
CONTINUOUS
 62
7
 10
70.0
 20
-235.9
 30
0.0
 11
120.0
 21
-235.9
 31
0.0
  0
ENDBLK
  8
1
  5
F1
  0
BLOCK
  8
1
  5
F3
 70
1
 10
0.0
 20
0.0
 30
0.0
  2
*M3
  3
*M3
  0
INSERT
  8
1
  5
F5
  6
CONTINUOUS
 62
7
  2
*M1
 10
0.0
 20
0.0
 30
0.0
 41
1.0
 42
1.0
 43
1.0
 70
1
 71
1
  0
INSERT
  8
1
  5
F7
  6
CONTINUOUS
 62
7
  2
*M2
 10
0.0
 20
0.0
 30
0.0
 41
1.0
 42
1.0
 43
1.0
 70
1
 71
1
  0
ENDBLK
  8
1
  5
F8
  0
BLOCK
  8
1
  5
FA
 70
1
 10
0.0
 20
0.0
 30
0.0
  2
*M4
  3
*M4
  0
LINE
  8
1
  5
FC
  6
CONTINUOUS
 62
7
 10
88.85
 20
-45.9
 30
17.0
 11
88.85
 21
-45.9
 31
32.0
  0
ARC
  8
1
  5
FE
  6
CONTINUOUS
 62
7
 210
0.0
 220
0.0
 230
-1.0
 10
-63.85
 20
-45.9
 30
-17.0
 40
25.0
 50
133.0487055556
 51
180.0
  0
LINE
  8
1
  5
100
  6
CONTINUOUS
 62
7
 10
80.9155
 20
-27.63066
 30
32.0
 11
80.9155
 21
-27.63066
 31
17.0
  0
ARC
  8
1
  5
102
  6
CONTINUOUS
 62
7
 10
63.85
 20
-45.9
 30
32.0
 40
25.0
 50
360.0
 51
46.9512944444
  0
ARC
  8
1
  5
104
  6
CONTINUOUS
 62
7
 10
83.714236
 20
-24.634485
 30
17.0
 40
4.1
 50
164.9418563308
 51
226.9512952197
  0
LINE
  8
1
  5
106
  6
CONTINUOUS
 62
7
 10
79.75502
 20
-23.56931
 30
32.0
 11
79.75502
 21
-23.56931
 31
17.0
  0
ARC
  8
1
  5
108
  6
CONTINUOUS
 62
7
 210
0.0
 220
0.0
 230
-1.0
 10
-83.714236
 20
-24.634485
 30
-32.0
 40
4.1
 50
313.0487047803
 51
15.0581436692
  0
LINE
  8
1
  5
10A
  6
CONTINUOUS
 62
7
 10
101.15
 20
-45.9
 30
32.0
 11
101.15
 21
-45.9
 31
17.0
  0
ARC
  8
1
  5
10C
  6
CONTINUOUS
 62
7
 10
126.15
 20
-45.9
 30
32.0
 40
25.0
 50
133.0487055556
 51
180.0
  0
LINE
  8
1
  5
10E
  6
CONTINUOUS
 62
7
 10
109.0845
 20
-27.63066
 30
32.0
 11
109.0845
 21
-27.63066
 31
17.0
  0
ARC
  8
1
  5
110
  6
CONTINUOUS
 62
7
 210
0.0
 220
0.0
 230
-1.0
 10
-126.15
 20
-45.9
 30
-17.0
 40
25.0
 50
360.0
 51
46.9512944444
  0
ARC
  8
1
  5
112
  6
CONTINUOUS
 62
7
 10
106.285764
 20
-24.634485
 30
17.0
 40
4.1
 50
313.048705557
 51
15.0587333347
  0
ARC
  8
1
  5
114
  6
CONTINUOUS
 62
7
 210
0.0
 220
0.0
 230
-1.0
 10
-106.285764
 20
-24.634485
 30
-32.0
 40
4.1
 50
164.9412666653
 51
226.951294443
  0
LINE
  8
1
  5
116
  6
CONTINUOUS
 62
7
 10
110.24497
 20
-23.56927
 30
32.0
 11
110.24497
 21
-23.56927
 31
17.0
  0
POINT
  8
1
  5
118
  6
CONTINUOUS
 62
7
 10
110.24497
 20
-23.56927
 30
17.0
 50
0.0
  0
POINT
  8
1
  5
11A
  6
CONTINUOUS
 62
7
 10
110.24497
 20
-23.56927
 30
32.0
 50
0.0
  0
LINE
  8
1
  5
11C
  6
CONTINUOUS
 62
7
 10
110.24497
 20
-23.56927
 30
32.0
 11
110.24497
 21
-23.56927
 31
17.0
  0
POLYLINE
  8
1
  5
11E
  6
CONTINUOUS
 62
7
 10
0.0
 20
0.0
 30
17.0
 66
1
 70
0
  0
VERTEX
  8
1
  5
11F
  6
CONTINUOUS
 62
7
 10
110.24497
 20
-23.569269
 30
17.0
 42
0.03147
  0
VERTEX
  8
1
  5
120
  6
CONTINUOUS
 62
7
 10
108.014395
 20
-16.885347
 30
17.0
 42
0.041297
  0
VERTEX
  8
1
  5
121
  6
CONTINUOUS
 62
7
 10
105.254366
 20
-11.381806
 30
17.0
 42
0.058256
  0
VERTEX
  8
1
  5
122
  6
CONTINUOUS
 62
7
 10
102.077166
 20
-7.282542
 30
17.0
 42
0.084809
  0
VERTEX
  8
1
  5
123
  6
CONTINUOUS
 62
7
 10
98.612051
 20
-4.754322
 30
17.0
 42
0.111928
  0
VERTEX
  8
1
  5
124
  6
CONTINUOUS
 62
7
 10
94.99999
 20
-3.9
 30
17.0
 42
0.111927
  0
VERTEX
  8
1
  5
125
  6
CONTINUOUS
 62
7
 10
91.387929
 20
-4.754332
 30
17.0
 42
0.084809
  0
VERTEX
  8
1
  5
126
  6
CONTINUOUS
 62
7
 10
87.922816
 20
-7.28256
 30
17.0
 42
0.058256
  0
VERTEX
  8
1
  5
127
  6
CONTINUOUS
 62
7
 10
84.745618
 20
-11.381833
 30
17.0
 42
0.041297
  0
VERTEX
  8
1
  5
128
  6
CONTINUOUS
 62
7
 10
81.985591
 20
-16.885381
 30
17.0
 42
0.03147
  0
VERTEX
  8
1
  5
129
  6
CONTINUOUS
 62
7
 10
79.755019
 20
-23.569309
 30
17.0
 42
0.03147
  0
SEQEND
  8
1
  5
12A
  0
POLYLINE
  8
1
  5
12C
  6
CONTINUOUS
 62
7
 210
0.0
 220
0.0
 230
-1.0
 10
0.0
 20
0.0
 30
-32.0
 66
1
 70
0
  0
VERTEX
  8
1
  5
12D
  6
CONTINUOUS
 62
7
 10
-79.75502
 20
-23.569309
 30
-32.0
 42
0.03147
  0
VERTEX
  8
1
  5
12E
  6
CONTINUOUS
 62
7
 10
-81.985591
 20
-16.885381
 30
-32.0
 42
0.041297
  0
VERTEX
  8
1
  5
12F
  6
CONTINUOUS
 62
7
 10
-84.745618
 20
-11.381833
 30
-32.0
 42
0.058256
  0
VERTEX
  8
1
  5
130
  6
CONTINUOUS
 62
7
 10
-87.922816
 20
-7.28256
 30
-32.0
 42
0.084809
  0
VERTEX
  8
1
  5
131
  6
CONTINUOUS
 62
7
 10
-91.387929
 20
-4.754332
 30
-32.0
 42
0.111927
  0
VERTEX
  8
1
  5
132
  6
CONTINUOUS
 62
7
 10
-94.99999
 20
-3.9
 30
-32.0
 42
0.111928
  0
VERTEX
  8
1
  5
133
  6
CONTINUOUS
 62
7
 10
-98.612051
 20
-4.754322
 30
-32.0
 42
0.084809
  0
VERTEX
  8
1
  5
134
  6
CONTINUOUS
 62
7
 10
-102.077166
 20
-7.282542
 30
-32.0
 42
0.058256
  0
VERTEX
  8
1
  5
135
  6
CONTINUOUS
 62
7
 10
-105.254366
 20
-11.381806
 30
-32.0
 42
0.041297
  0
VERTEX
  8
1
  5
136
  6
CONTINUOUS
 62
7
 10
-108.014395
 20
-16.885347
 30
-32.0
 42
0.03147
  0
VERTEX
  8
1
  5
137
  6
CONTINUOUS
 62
7
 10
-110.24497
 20
-23.569269
 30
-32.0
 42
0.03147
  0
SEQEND
  8
1
  5
138
  0
LINE
  8
1
  5
13A
  6
CONTINUOUS
 62
7
 10
101.15
 20
-45.9
 30
17.0
 11
88.85
 21
-45.9
 31
17.0
  0
ENDBLK
  8
1
  5
13B
  0
BLOCK
  8
1
  5
13D
 70
1
 10
0.0
 20
0.0
 30
0.0
  2
*M5
  3
*M5
  0
LINE
  8
1
  5
13F
  6
CONTINUOUS
 62
7
 10
101.15
 20
-45.9
 30
32.0
 11
115.9
 21
-45.9
 31
32.0
  0
ARC
  8
1
  5
141
  6
CONTINUOUS
 62
7
 210
0.0
 220
0.0
 230
-1.0
 10
-115.9
 20
-50.0
 30
-32.0
 40
4.1
 50
90.0
 51
180.0
  0
ARC
  8
1
  5
143
  6
CONTINUOUS
 62
7
 210
0.0
 220
0.0
 230
-1.0
 10
-74.1
 20
-50.0
 30
-32.0
 40
4.1
 50
360.0
 51
90.0
  0
LINE
  8
1
  5
145
  6
CONTINUOUS
 62
7
 10
74.1
 20
-45.9
 30
32.0
 11
88.85
 21
-45.9
 31
32.0
  0
LINE
  8
1
  5
147
  6
CONTINUOUS
 62
7
 10
70.0
 20
-50.0
 30
0.0
 11
70.0
 21
-50.0
 31
32.0
  0
ARC
  8
1
  5
149
  6
CONTINUOUS
 62
7
 10
74.1
 20
-50.0
 30
0.0
 40
4.1
 50
90.0
 51
180.0
  0
LINE
  8
1
  5
14B
  6
CONTINUOUS
 62
7
 10
74.1
 20
-45.9
 30
0.0
 11
74.1
 21
-45.9
 31
32.0
  0
LINE
  8
1
  5
14D
  6
CONTINUOUS
 62
7
 10
115.9
 20
-45.9
 30
0.0
 11
74.1
 21
-45.9
 31
0.0
  0
LINE
  8
1
  5
14F
  6
CONTINUOUS
 62
7
 10
115.9
 20
-45.9
 30
0.0
 11
115.9
 21
-45.9
 31
32.0
  0
ARC
  8
1
  5
151
  6
CONTINUOUS
 62
7
 10
115.9
 20
-50.0
 30
-4.656613E-015
 40
4.1
 50
0.0
 51
90.0
  0
LINE
  8
1
  5
153
  6
CONTINUOUS
 62
7
 10
120.0
 20
-50.0
 30
32.0
 11
120.0
 21
-50.0
 31
0.0
  0
ENDBLK
  8
1
  5
154
  0
BLOCK
  8
1
  5
156
 70
1
 10
0.0
 20
0.0
 30
0.0
  2
*M6
  3
*M6
  0
LINE
  8
1
  5
158
  6
CONTINUOUS
 62
7
 10
190.0
 20
-50.0
 30
32.0
 11
120.0
 21
-50.0
 31
32.0
  0
LINE
  8
1
  5
15A
  6
CONTINUOUS
 62
7
 10
190.0
 20
0.0
 30
32.0
 11
190.0
 21
-50.0
 31
32.0
  0
LINE
  8
1
  5
15C
  6
CONTINUOUS
 62
7
 10
0.0
 20
0.0
 30
32.0
 11
190.0
 21
0.0
 31
32.0
  0
LINE
  8
1
  5
15E
  6
CONTINUOUS
 62
7
 10
0.0
 20
-50.0
 30
32.0
 11
0.0
 21
0.0
 31
32.0
  0
LINE
  8
1
  5
160
  6
CONTINUOUS
 62
7
 10
70.0
 20
-50.0
 30
32.0
 11
0.0
 21
-50.0
 31
32.0
  0
LINE
  8
1
  5
162
  6
CONTINUOUS
 62
7
 10
120.0
 20
-50.0
 30
0.0
 11
190.0
 21
-50.0
 31
0.0
  0
LINE
  8
1
  5
164
  6
CONTINUOUS
 62
7
 10
190.0
 20
-50.0
 30
0.0
 11
190.0
 21
-50.0
 31
32.0
  0
LINE
  8
1
  5
166
  6
CONTINUOUS
 62
7
 10
0.0
 20
-50.0
 30
0.0
 11
0.0
 21
-50.0
 31
32.0
  0
LINE
  8
1
  5
168
  6
CONTINUOUS
 62
7
 10
0.0
 20
-50.0
 30
0.0
 11
70.0
 21
-50.0
 31
0.0
  0
LINE
  8
1
  5
16A
  6
CONTINUOUS
 62
7
 10
190.0
 20
0.0
 30
0.0
 11
190.0
 21
0.0
 31
32.0
  0
LINE
  8
1
  5
16C
  6
CONTINUOUS
 62
7
 10
190.0
 20
0.0
 30
0.0
 11
0.0
 21
0.0
 31
0.0
  0
LINE
  8
1
  5
16E
  6
CONTINUOUS
 62
7
 10
0.0
 20
0.0
 30
0.0
 11
0.0
 21
0.0
 31
32.0
  0
LINE
  8
1
  5
170
  6
CONTINUOUS
 62
7
 10
190.0
 20
-50.0
 30
0.0
 11
190.0
 21
0.0
 31
0.0
  0
LINE
  8
1
  5
172
  6
CONTINUOUS
 62
7
 10
0.0
 20
0.0
 30
0.0
 11
0.0
 21
-50.0
 31
0.0
  0
ENDBLK
  8
1
  5
173
  0
BLOCK
  8
1
  5
175
 70
1
 10
0.0
 20
0.0
 30
0.0
  2
*M7
  3
*M7
  0
INSERT
  8
1
  5
177
  6
CONTINUOUS
 62
7
  2
*M5
 10
0.0
 20
0.0
 30
0.0
 41
1.0
 42
1.0
 43
1.0
 70
1
 71
1
  0
INSERT
  8
1
  5
179
  6
CONTINUOUS
 62
7
  2
*M6
 10
0.0
 20
0.0
 30
0.0
 41
1.0
 42
1.0
 43
1.0
 70
1
 71
1
  0
ENDBLK
  8
1
  5
17A
  0
BLOCK
  8
1
  5
17C
 70
1
 10
0.0
 20
0.0
 30
0.0
  2
*M8
  3
*M8
  0
INSERT
  8
1
  5
17E
  6
CONTINUOUS
 62
7
  2
*M4
 10
0.0
 20
0.0
 30
0.0
 41
1.0
 42
1.0
 43
1.0
 70
1
 71
1
  0
INSERT
  8
1
  5
180
  6
CONTINUOUS
 62
7
  2
*M7
 10
0.0
 20
0.0
 30
0.0
 41
1.0
 42
1.0
 43
1.0
 70
1
 71
1
  0
ENDBLK
  8
1
  5
181
  0
ENDSEC
  0
SECTION
  2
ENTITIES
  0
INSERT
  8
1
  5
2
  6
CONTINUOUS
 62
7
  2
*M0
 10
88.80275
 20
140.11505
 30
-57.0
 41
1.0
 42
1.0
 43
1.0
 70
1
 71
1
  0
INSERT
  8
1
  5
4
  6
CONTINUOUS
 62
7
  2
*M3
 10
13.80275
 20
140.11505
 30
-40.0
 41
1.0
 42
1.0
 43
1.0
 70
1
 71
1
  0
INSERT
  8
1
  5
6
  6
CONTINUOUS
 62
7
  2
*M8
 10
13.80275
 20
194.21505
 30
-40.0
 41
1.0
 42
1.0
 43
1.0
 70
1
 71
1
  0
ENDSEC
  0
EOF
