  0
SECTION
  2
HEADER
  9
$ACADVER
  1
AC1009
  9
$INSBASE
 10
0.0
 20
0.0
 30
0.0
  9
$EXTMAX
 10
71.28092
 20
-680.80721
 30
15.0
  9
$EXTMIN
 10
-458.71908
 20
-1031.10722
 30
-0.00001
  9
$LIMMAX
 10
12.0
 20
9.0
  9
$LIMMIN
 10
0.0
 20
0.0
  9
$ORTHOMODE
 70
0
  9
$REGENMODE
 70
1
  9
$FILLMODE
 70
1
  9
$QTEXTMODE
 70
0
  9
$MIRRTEXT
 70
1
  9
$DRAGMODE
 70
2
  9
$LTSCALE
 40
1.0
  9
$OSMODE
 70
0
  9
$ATTMODE
 70
1
  9
$TEXTSIZE
 40
0.2
  9
$TRACEWID
 40
0.05
  9
$TEXTSTYLE
  7
STANDARD
  9
$CLAYER
  8
0
  9
$CELTYPE
  6
CONTINUOUS
  9
$CECOLOR
 62
256
  9
$DIMSCALE
 40
1.0
  9
$DIMASZ
 40
0.18
  9
$DIMEXO
 40
0.0625
  9
$DIMDLI
 40
0.38
  9
$DIMRND
 40
0.0
  9
$DIMDLE
 40
0.0
  9
$DIMEXE
 40
0.18
  9
$DIMTP
 40
0.0
  9
$DIMTM
 40
0.0
  9
$DIMTXT
 40
0.18
  9
$DIMCEN
 40
0.09
  9
$DIMTSZ
 40
0.0
  9
$DIMTOL
 70
0
  9
$DIMLIM
 70
0
  9
$DIMTIH
 70
1
  9
$DIMTOH
 70
1
  9
$DIMSE1
 70
0
  9
$DIMSE2
 70
0
  9
$DIMTAD
 70
0
  9
$DIMZIN
 70
0
  9
$DIMBLK
  1

  9
$DIMASO
 70
1
  9
$DIMSHO
 70
1
  9
$DIMPOST
  1

  9
$DIMAPOST
  1

  9
$DIMALT
 70
0
  9
$DIMALTD
 70
2
  9
$DIMALTF
 40
25.4
  9
$DIMLFAC
 40
1.0
  9
$DIMTOFL
 70
0
  9
$DIMTVP
 40
0.0
  9
$DIMTIX
 70
0
  9
$DIMSOXD
 70
0
  9
$DIMSAH
 70
0
  9
$DIMBLK1
  1

  9
$DIMBLK2
  1

  9
$DIMSTYLE
  2
*UNNAMED
  9
$DIMCLRD
 70
0
  9
$DIMCLRE
 70
0
  9
$DIMCLRT
 70
0
  9
$DIMTFAC
 40
1.0
  9
$DIMGAP
 40
0.09
  9
$LUNITS
 70
2
  9
$LUPREC
 70
4
  9
$AXISMODE
 70
0
  9
$AXISUNIT
 10
0.0
 20
0.0
  9
$SKETCHINC
 40
0.1
  9
$FILLETRAD
 40
0.0
  9
$AUNITS
 70
0
  9
$AUPREC
 70
0
  9
$MENU
  1
acad
  9
$ELEVATION
 40
0.0
  9
$PELEVATION
 40
0.0
  9
$THICKNESS
 40
0.0
  9
$LIMCHECK
 70
0
  9
$BLIPMODE
 70
1
  9
$CHAMFERA
 40
0.0
  9
$CHAMFERB
 40
0.0
  9
$SKPOLY
 70
0
  9
$TDCREATE
 40
0.0
  9
$TDUPDATE
 40
0.0
  9
$TDINDWG
 40
0.0
  9
$TDUSRTIMER
 40
0.0
  9
$USRTIMER
 70
1
  9
$ANGBASE
 50
0.0
  9
$ANGDIR
 70
0
  9
$PDMODE
 70
0
  9
$PDSIZE
 40
0.0
  9
$PLINEWID
 40
0.0
  9
$COORDS
 70
0
  9
$SPLFRAME
 70
0
  9
$SPLINETYPE
 70
6
  9
$SPLINESEGS
 70
10
  9
$ATTDIA
 70
0
  9
$ATTREQ
 70
1
  9
$HANDLING
 70
1
  9
$HANDSEED
  5
389
  9
$SURFTAB1
 70
6
  9
$SURFTAB2
 70
6
  9
$SURFTYPE
 70
6
  9
$SURFU
 70
10
  9
$SURFV
 70
10
  9
$UCSNAME
  2

  9
$UCSORG
 10
0.0
 20
0.0
 30
0.0
  9
$UCSXDIR
 10
1.0
 20
0.0
 30
0.0
  9
$UCSYDIR
 10
0.0
 20
1.0
 30
0.0
  9
$PUCSNAME
  2
 
  9
$PUCSORG
 10
0.0
 20
0.0
 30
0.0
  9
$PUCSXDIR
 10
1.0
 20
0.0
 30
0.0
  9
$PUCSYDIR
 10
0.0
 20
1.0
 30
0.0
  9
$USERI1
 70
0
  9
$USERI2
 70
0
  9
$USERI3
 70
0
  9
$USERI4
 70
0
  9
$USERI5
 70
0
  9
$USERR1
 40
0.0
  9
$USERR2
 40
0.0
  9
$USERR3
 40
0.0
  9
$USERR4
 40
0.0
  9
$USERR5
 40
0.0
  9
$WORLDVIEW
 70
1
  9
$SHADEDGE
 70
3
  9
$SHADEDIF
 70
70
  9
$TILEMODE
 70
1
  9
$MAXACTVP
 70
16
  9
$PINSBASE
 10
0.0
 20
0.0
 30
0.0
  9
$PLIMCHECK
 70
0
  9
$PEXTMIN
 10
-1.000000E+020
 20
-1.000000E+020
 30
-1.000000E+020
  9
$PEXTMAX
 10
-1.000000E+020
 20
-1.000000E+020
 30
-1.000000E+020
  9
$PLIMMIN
 10
0.0
 20
0.0
  9
$PLIMMAX
 10
12.0
 20
9.0
  9
$UNITMODE
 70
0
  9
$VISRETAIN
 70
0
  0
ENDSEC
  0
SECTION
  2
TABLES
  0
TABLE
  2
LTYPE
 70
7
  0
LTYPE
  2
CONTINUOUS
 70
64
  3
Solid line
 72
65
 73
0
 40
0.0
  0
LTYPE
  2
DOT
 70
64
  3
. . . . . . . . . . . . . . . . . . . . . . . . . . . . . . . . .
 72
65
 73
2
 40
0.25
 49
0.0
 49
-0.25
  0
LTYPE
  2
HIDDEN
 70
64
  3
__ __ __ __ __ __ __ __ __ __ __ __ __ __ __ __ __ __ __ __ __ 
 72
65
 73
2
 40
0.375
 49
0.25
 49
-0.125
  0
LTYPE
  2
DASHED
 70
64
  3
__ __ __ __ __ __ __ __ __ __ __ __ __ __ __ __ __ __ __ __ __
 72
65
 73
2
 40
0.75
 49
0.5
 49
-0.25
  0
LTYPE
  2
DASHDOT
 70
64
  3
__ . __ . __ . __ . __ . __ . __ . __ . __ . __ . __ . __ . _
 72
65
 73
4
 40
1.0
 49
0.5
 49
-0.25
 49
0.0
 49
-0.25
  0
LTYPE
  2
DIVIDE
 70
64
  3
____ . . ____ . . ____ . . ____ . . ____ . . ____ . . ____ . .
 72
65
 73
6
 40
1.25
 49
0.5
 49
-0.25
 49
0.0
 49
-0.25
 49
0.0
 49
-0.25
  0
LTYPE
  2
CENTER
 70
64
  3
____ _ ____ _ ____ _ ____ _ ____ _ ____ _ ____ _ ____ _ ____ _
 72
65
 73
4
 40
2.0
 49
1.25
 49
-0.25
 49
0.25
 49
-0.25
  0
ENDTAB
  0
TABLE
  2
APPID
 70
1
  0
APPID
  2
ACAD
 70
0
  0
ENDTAB
  0
TABLE
  2
DIMSTYLE
 70
0
  0
ENDTAB
  0
TABLE
  2
LAYER
 70
4
  0
LAYER
  2
0
 70
0
 62
7
  6
CONTINUOUS
  0
LAYER
  2
CONSTRUCTION_CLASS
 70
0
 62
7
  6
CONTINUOUS
  0
LAYER
  2
PATTERN_CLASS
 70
0
 62
7
  6
CONTINUOUS
  0
LAYER
  2
1
 70
0
 62
7
  6
CONTINUOUS
  0
ENDTAB
  0
TABLE
  2
STYLE
 70
1
  0
STYLE
  2
STANDARD
 70
0
 40
0.2
 41
1.0
 50
0.0
 71
0
 42
0.0
  3
txt
  4

  0
ENDTAB
  0
TABLE
  2
UCS
 70
0
  0
ENDTAB
  0
TABLE
  2
VIEW
 70
2
  0
VIEW
  2
AN_4
 70
0
 40
184.08589
 41
266.94694
 10
5.684342E-014
 20
4.263256E-014
 11
697.367456
 21
519.007202
 31
329.68983
 12
84.289249
 22
-71.590615
 32
36.906
 42
50.0
 43
464.8616
 44
-464.8616
 50
0.0
 71
0
  0
VIEW
  2
AN_6
 70
0
 40
290.54388
 41
438.37086
 10
2.842171E-014
 20
-2.842171E-014
 11
256.76988
 21
242.732589
 31
174.224903
 12
214.98178
 22
-101.47569
 32
40.055238
 42
50.0
 43
196.97982
 44
-196.97982
 50
0.0
 71
0
  0
ENDTAB
  0
TABLE
  2
VPORT
 70
4
  0
VPORT
  2
*ACTIVE
 70
0
 10
0.001642
 20
0.50168
 11
0.499179
 21
0.99776
 12
0.0
 22
2.842171E-014
 13
0.0
 23
0.0
 14
0.0
 24
0.0
 15
0.0
 25
0.0
 16
0.0
 26
-1.889913E-015
 36
30.86564
 17
-220.621527
 27
-858.51972
 37
7.49999
 40
357.79568
 41
1.367946
 42
50.0
 43
15.43282
 44
-15.43282
 50
0.0
 51
0.0
 71
22
 72
100
 73
1
 74
0
 75
0
 76
0
 77
0
 78
0
  0
VPORT
  2
*ACTIVE
 70
0
 10
0.500821
 20
0.50168
 11
0.998358
 21
0.99776
 12
-8.526513E-014
 22
-8.526513E-014
 13
0.0
 23
0.0
 14
0.0
 24
0.0
 15
0.0
 25
0.0
 16
-245.291396
 26
-245.291396
 36
245.291396
 17
-210.841567
 27
-935.957029
 37
3.027707
 40
337.45508
 41
1.367946
 42
50.0
 43
212.42858
 44
-212.42858
 50
0.0
 51
0.0
 71
22
 72
100
 73
1
 74
0
 75
0
 76
0
 77
0
 78
0
  0
VPORT
  2
*ACTIVE
 70
0
 10
0.001642
 20
0.003359
 11
0.499179
 21
0.49944
 12
0.0
 22
0.0
 13
0.0
 23
0.0
 14
0.0
 24
0.0
 15
0.0
 25
0.0
 16
0.0
 26
-361.04064
 36
0.0
 17
-220.62152
 27
-858.51972
 37
7.499995
 40
357.79569
 41
1.367946
 42
50.0
 43
180.52032
 44
-180.52032
 50
0.0
 51
0.0
 71
22
 72
100
 73
1
 74
0
 75
0
 76
0
 77
0
 78
0
  0
VPORT
  2
*ACTIVE
 70
0
 10
0.500821
 20
0.003359
 11
0.998358
 21
0.49944
 12
0.0
 22
0.0
 13
0.0
 23
0.0
 14
0.0
 24
0.0
 15
0.0
 25
0.0
 16
543.25
 26
0.0
 36
0.0
 17
-193.71908
 27
-876.161203
 37
7.499995
 40
234.62743
 41
1.367946
 42
50.0
 43
271.625
 44
-271.625
 50
0.0
 51
0.0
 71
22
 72
100
 73
1
 74
0
 75
0
 76
0
 77
0
 78
0
  0
ENDTAB
  0
ENDSEC
  0
SECTION
  2
BLOCKS
  0
BLOCK
  8
1
  5
10
 70
1
 10
0.0
 20
0.0
 30
0.0
  2
*M0
  3
*M0
  0
LINE
  8
1
  5
12
  6
CONTINUOUS
 62
7
 10
85.4734
 20
880.72748
 30
15.0
 11
85.4734
 21
880.72748
 31
5.0
  0
LINE
  8
1
  5
14
  6
CONTINUOUS
 62
7
 10
95.7234
 20
870.47748
 30
15.0
 11
95.7234
 21
870.47748
 31
5.0
  0
LINE
  8
1
  5
16
  6
CONTINUOUS
 62
7
 10
85.4734
 20
860.22748
 30
15.0
 11
85.4734
 21
860.22748
 31
5.0
  0
LINE
  8
1
  5
18
  6
CONTINUOUS
 62
7
 10
67.4734
 20
874.57748
 30
5.0
 11
67.4734
 21
874.57748
 31
15.0
  0
LINE
  8
1
  5
1A
  6
CONTINUOUS
 62
7
 10
73.69705
 20
874.57748
 30
5.0
 11
67.4734
 21
874.57748
 31
5.0
  0
LINE
  8
1
  5
1C
  6
CONTINUOUS
 62
7
 10
73.69705
 20
874.57748
 30
15.0
 11
73.69705
 21
874.57748
 31
5.0
  0
LINE
  8
1
  5
1E
  6
CONTINUOUS
 62
7
 10
67.4734
 20
874.57748
 30
15.0
 11
73.69705
 21
874.57748
 31
15.0
  0
ARC
  8
1
  5
20
  6
CONTINUOUS
 62
7
 210
0.0
 220
0.0
 230
-1.0
 10
-73.697047
 20
878.67748
 30
-5.0
 40
4.1
 50
214.8499055556
 51
270.0
  0
LINE
  8
1
  5
22
  6
CONTINUOUS
 62
7
 10
77.06172
 20
876.33462
 30
15.0
 11
77.06172
 21
876.33462
 31
5.0
  0
ARC
  8
1
  5
24
  6
CONTINUOUS
 62
7
 10
73.697047
 20
878.67748
 30
15.0
 40
4.1
 50
270.0
 51
325.1500944444
  0
LINE
  8
1
  5
26
  6
CONTINUOUS
 62
7
 10
67.4734
 20
866.37748
 30
15.0
 11
67.4734
 21
866.37748
 31
5.0
  0
LINE
  8
1
  5
28
  6
CONTINUOUS
 62
7
 10
73.69705
 20
866.37748
 30
15.0
 11
67.4734
 21
866.37748
 31
15.0
  0
LINE
  8
1
  5
2A
  6
CONTINUOUS
 62
7
 10
73.69705
 20
866.37748
 30
15.0
 11
73.69705
 21
866.37748
 31
5.0
  0
LINE
  8
1
  5
2C
  6
CONTINUOUS
 62
7
 10
67.4734
 20
866.37748
 30
5.0
 11
73.69705
 21
866.37748
 31
5.0
  0
ARC
  8
1
  5
2E
  6
CONTINUOUS
 62
7
 210
0.0
 220
0.0
 230
-1.0
 10
-73.697047
 20
862.27748
 30
-5.0
 40
4.1
 50
90.0
 51
145.1500944444
  0
ARC
  8
1
  5
30
  6
CONTINUOUS
 62
7
 10
73.697047
 20
862.27748
 30
15.0
 40
4.1
 50
34.8499055556
 51
90.0
  0
LINE
  8
1
  5
32
  6
CONTINUOUS
 62
7
 10
77.06172
 20
864.62034
 30
15.0
 11
77.06172
 21
864.62034
 31
5.0
  0
ARC
  8
1
  5
34
  6
CONTINUOUS
 62
7
 10
85.4734
 20
870.47748
 30
5.0
 40
10.25
 50
214.8499055556
 51
145.1500972222
  0
ARC
  8
1
  5
36
  6
CONTINUOUS
 62
7
 210
0.0
 220
0.0
 230
-1.0
 10
-85.4734
 20
870.47748
 30
-15.0
 40
10.25
 50
34.8499055556
 51
325.1500972222
  0
LINE
  8
1
  5
38
  6
CONTINUOUS
 62
7
 10
67.4734
 20
866.37748
 30
5.0
 11
67.4734
 21
874.57748
 31
5.0
  0
ENDBLK
  8
1
  5
39
  0
BLOCK
  8
1
  5
3B
 70
1
 10
0.0
 20
0.0
 30
0.0
  2
*M1
  3
*M1
  0
LINE
  8
1
  5
3D
  6
CONTINUOUS
 62
7
 10
85.4734
 20
909.42748
 30
15.0
 11
85.4734
 21
909.42748
 31
5.0
  0
LINE
  8
1
  5
3F
  6
CONTINUOUS
 62
7
 10
95.7234
 20
899.17748
 30
15.0
 11
95.7234
 21
899.17748
 31
5.0
  0
LINE
  8
1
  5
41
  6
CONTINUOUS
 62
7
 10
85.4734
 20
888.92748
 30
15.0
 11
85.4734
 21
888.92748
 31
5.0
  0
LINE
  8
1
  5
43
  6
CONTINUOUS
 62
7
 10
67.4734
 20
903.27748
 30
15.0
 11
73.69705
 21
903.27748
 31
15.0
  0
ARC
  8
1
  5
45
  6
CONTINUOUS
 62
7
 10
73.697047
 20
907.37748
 30
15.0
 40
4.1
 50
270.0
 51
325.1500944444
  0
ARC
  8
1
  5
47
  6
CONTINUOUS
 62
7
 210
0.0
 220
0.0
 230
-1.0
 10
-85.4734
 20
899.17748
 30
-15.0
 40
10.25
 50
34.8499055556
 51
325.1500972222
  0
ARC
  8
1
  5
49
  6
CONTINUOUS
 62
7
 10
73.697047
 20
890.97748
 30
15.0
 40
4.1
 50
34.8499055556
 51
90.0
  0
LINE
  8
1
  5
4B
  6
CONTINUOUS
 62
7
 10
73.69705
 20
895.07748
 30
15.0
 11
67.4734
 21
895.07748
 31
15.0
  0
LINE
  8
1
  5
4D
  6
CONTINUOUS
 62
7
 10
67.4734
 20
903.27748
 30
5.0
 11
67.4734
 21
903.27748
 31
15.0
  0
LINE
  8
1
  5
4F
  6
CONTINUOUS
 62
7
 10
73.69705
 20
903.27748
 30
5.0
 11
67.4734
 21
903.27748
 31
5.0
  0
LINE
  8
1
  5
51
  6
CONTINUOUS
 62
7
 10
73.69705
 20
903.27748
 30
15.0
 11
73.69705
 21
903.27748
 31
5.0
  0
ARC
  8
1
  5
53
  6
CONTINUOUS
 62
7
 210
0.0
 220
0.0
 230
-1.0
 10
-73.697047
 20
907.37748
 30
-5.0
 40
4.1
 50
214.8499055556
 51
270.0
  0
LINE
  8
1
  5
55
  6
CONTINUOUS
 62
7
 10
77.06172
 20
905.03462
 30
15.0
 11
77.06172
 21
905.03462
 31
5.0
  0
LINE
  8
1
  5
57
  6
CONTINUOUS
 62
7
 10
67.4734
 20
895.07748
 30
15.0
 11
67.4734
 21
895.07748
 31
5.0
  0
LINE
  8
1
  5
59
  6
CONTINUOUS
 62
7
 10
73.69705
 20
895.07748
 30
15.0
 11
73.69705
 21
895.07748
 31
5.0
  0
LINE
  8
1
  5
5B
  6
CONTINUOUS
 62
7
 10
67.4734
 20
895.07748
 30
5.0
 11
73.69705
 21
895.07748
 31
5.0
  0
ARC
  8
1
  5
5D
  6
CONTINUOUS
 62
7
 210
0.0
 220
0.0
 230
-1.0
 10
-73.697047
 20
890.97748
 30
-5.0
 40
4.1
 50
90.0
 51
145.1500944444
  0
LINE
  8
1
  5
5F
  6
CONTINUOUS
 62
7
 10
77.06172
 20
893.32034
 30
15.0
 11
77.06172
 21
893.32034
 31
5.0
  0
ARC
  8
1
  5
61
  6
CONTINUOUS
 62
7
 10
85.4734
 20
899.17748
 30
5.0
 40
10.25
 50
214.8499055556
 51
145.1500972222
  0
LINE
  8
1
  5
63
  6
CONTINUOUS
 62
7
 10
67.4734
 20
895.07748
 30
5.0
 11
67.4734
 21
903.27748
 31
5.0
  0
ENDBLK
  8
1
  5
64
  0
BLOCK
  8
1
  5
66
 70
1
 10
0.0
 20
0.0
 30
0.0
  2
*M2
  3
*M2
  0
LINE
  8
1
  5
68
  6
CONTINUOUS
 62
7
 10
85.4734
 20
938.12748
 30
15.0
 11
85.4734
 21
938.12748
 31
5.0
  0
LINE
  8
1
  5
6A
  6
CONTINUOUS
 62
7
 10
95.7234
 20
927.87748
 30
15.0
 11
95.7234
 21
927.87748
 31
5.0
  0
LINE
  8
1
  5
6C
  6
CONTINUOUS
 62
7
 10
85.4734
 20
917.62748
 30
15.0
 11
85.4734
 21
917.62748
 31
5.0
  0
LINE
  8
1
  5
6E
  6
CONTINUOUS
 62
7
 10
67.4734
 20
931.97748
 30
15.0
 11
73.69705
 21
931.97748
 31
15.0
  0
ARC
  8
1
  5
70
  6
CONTINUOUS
 62
7
 10
73.697047
 20
936.07748
 30
15.0
 40
4.1
 50
270.0
 51
325.1500944444
  0
ARC
  8
1
  5
72
  6
CONTINUOUS
 62
7
 210
0.0
 220
0.0
 230
-1.0
 10
-85.4734
 20
927.87748
 30
-15.0
 40
10.25
 50
34.8499055556
 51
325.1500972222
  0
ARC
  8
1
  5
74
  6
CONTINUOUS
 62
7
 10
73.697047
 20
919.67748
 30
15.0
 40
4.1
 50
34.8499055556
 51
90.0
  0
LINE
  8
1
  5
76
  6
CONTINUOUS
 62
7
 10
73.69705
 20
923.77748
 30
15.0
 11
67.4734
 21
923.77748
 31
15.0
  0
LINE
  8
1
  5
78
  6
CONTINUOUS
 62
7
 10
67.4734
 20
931.97748
 30
5.0
 11
67.4734
 21
931.97748
 31
15.0
  0
LINE
  8
1
  5
7A
  6
CONTINUOUS
 62
7
 10
73.69705
 20
931.97748
 30
5.0
 11
67.4734
 21
931.97748
 31
5.0
  0
LINE
  8
1
  5
7C
  6
CONTINUOUS
 62
7
 10
73.69705
 20
931.97748
 30
15.0
 11
73.69705
 21
931.97748
 31
5.0
  0
ARC
  8
1
  5
7E
  6
CONTINUOUS
 62
7
 210
0.0
 220
0.0
 230
-1.0
 10
-73.697047
 20
936.07748
 30
-5.0
 40
4.1
 50
214.8499055556
 51
270.0
  0
LINE
  8
1
  5
80
  6
CONTINUOUS
 62
7
 10
77.06172
 20
933.73462
 30
15.0
 11
77.06172
 21
933.73462
 31
5.0
  0
LINE
  8
1
  5
82
  6
CONTINUOUS
 62
7
 10
67.4734
 20
923.77748
 30
15.0
 11
67.4734
 21
923.77748
 31
5.0
  0
LINE
  8
1
  5
84
  6
CONTINUOUS
 62
7
 10
73.69705
 20
923.77748
 30
15.0
 11
73.69705
 21
923.77748
 31
5.0
  0
LINE
  8
1
  5
86
  6
CONTINUOUS
 62
7
 10
67.4734
 20
923.77748
 30
5.0
 11
73.69705
 21
923.77748
 31
5.0
  0
ARC
  8
1
  5
88
  6
CONTINUOUS
 62
7
 210
0.0
 220
0.0
 230
-1.0
 10
-73.697047
 20
919.67748
 30
-5.0
 40
4.1
 50
90.0
 51
145.1500944444
  0
LINE
  8
1
  5
8A
  6
CONTINUOUS
 62
7
 10
77.06172
 20
922.02034
 30
15.0
 11
77.06172
 21
922.02034
 31
5.0
  0
ARC
  8
1
  5
8C
  6
CONTINUOUS
 62
7
 10
85.4734
 20
927.87748
 30
5.0
 40
10.25
 50
214.8499055556
 51
145.1500972222
  0
LINE
  8
1
  5
8E
  6
CONTINUOUS
 62
7
 10
67.4734
 20
923.77748
 30
5.0
 11
67.4734
 21
931.97748
 31
5.0
  0
ENDBLK
  8
1
  5
8F
  0
BLOCK
  8
1
  5
91
 70
1
 10
0.0
 20
0.0
 30
0.0
  2
*M3
  3
*M3
  0
LINE
  8
1
  5
93
  6
CONTINUOUS
 62
7
 10
85.4734
 20
966.82748
 30
15.0
 11
85.4734
 21
966.82748
 31
5.0
  0
LINE
  8
1
  5
95
  6
CONTINUOUS
 62
7
 10
95.7234
 20
956.57748
 30
15.0
 11
95.7234
 21
956.57748
 31
5.0
  0
LINE
  8
1
  5
97
  6
CONTINUOUS
 62
7
 10
85.4734
 20
946.32748
 30
15.0
 11
85.4734
 21
946.32748
 31
5.0
  0
LINE
  8
1
  5
99
  6
CONTINUOUS
 62
7
 10
67.4734
 20
960.67748
 30
15.0
 11
73.69705
 21
960.67748
 31
15.0
  0
ARC
  8
1
  5
9B
  6
CONTINUOUS
 62
7
 10
73.697047
 20
964.77748
 30
15.0
 40
4.1
 50
270.0
 51
325.1500944444
  0
ARC
  8
1
  5
9D
  6
CONTINUOUS
 62
7
 210
0.0
 220
0.0
 230
-1.0
 10
-85.4734
 20
956.57748
 30
-15.0
 40
10.25
 50
34.8499055556
 51
325.1500972222
  0
ARC
  8
1
  5
9F
  6
CONTINUOUS
 62
7
 10
73.697047
 20
948.37748
 30
15.0
 40
4.1
 50
34.8499055556
 51
90.0
  0
LINE
  8
1
  5
A1
  6
CONTINUOUS
 62
7
 10
73.69705
 20
952.47748
 30
15.0
 11
67.4734
 21
952.47748
 31
15.0
  0
LINE
  8
1
  5
A3
  6
CONTINUOUS
 62
7
 10
67.4734
 20
960.67748
 30
5.0
 11
67.4734
 21
960.67748
 31
15.0
  0
LINE
  8
1
  5
A5
  6
CONTINUOUS
 62
7
 10
73.69705
 20
960.67748
 30
5.0
 11
67.4734
 21
960.67748
 31
5.0
  0
LINE
  8
1
  5
A7
  6
CONTINUOUS
 62
7
 10
73.69705
 20
960.67748
 30
15.0
 11
73.69705
 21
960.67748
 31
5.0
  0
ARC
  8
1
  5
A9
  6
CONTINUOUS
 62
7
 210
0.0
 220
0.0
 230
-1.0
 10
-73.697047
 20
964.77748
 30
-5.0
 40
4.1
 50
214.8499055556
 51
270.0
  0
LINE
  8
1
  5
AB
  6
CONTINUOUS
 62
7
 10
77.06172
 20
962.43462
 30
15.0
 11
77.06172
 21
962.43462
 31
5.0
  0
LINE
  8
1
  5
AD
  6
CONTINUOUS
 62
7
 10
67.4734
 20
952.47748
 30
15.0
 11
67.4734
 21
952.47748
 31
5.0
  0
LINE
  8
1
  5
AF
  6
CONTINUOUS
 62
7
 10
73.69705
 20
952.47748
 30
15.0
 11
73.69705
 21
952.47748
 31
5.0
  0
LINE
  8
1
  5
B1
  6
CONTINUOUS
 62
7
 10
67.4734
 20
952.47748
 30
5.0
 11
73.69705
 21
952.47748
 31
5.0
  0
ARC
  8
1
  5
B3
  6
CONTINUOUS
 62
7
 210
0.0
 220
0.0
 230
-1.0
 10
-73.697047
 20
948.37748
 30
-5.0
 40
4.1
 50
90.0
 51
145.1500944444
  0
LINE
  8
1
  5
B5
  6
CONTINUOUS
 62
7
 10
77.06172
 20
950.72034
 30
15.0
 11
77.06172
 21
950.72034
 31
5.0
  0
ARC
  8
1
  5
B7
  6
CONTINUOUS
 62
7
 10
85.4734
 20
956.57748
 30
5.0
 40
10.25
 50
214.8499055556
 51
145.1500972222
  0
LINE
  8
1
  5
B9
  6
CONTINUOUS
 62
7
 10
67.4734
 20
952.47748
 30
5.0
 11
67.4734
 21
960.67748
 31
5.0
  0
ENDBLK
  8
1
  5
BA
  0
BLOCK
  8
1
  5
BC
 70
1
 10
0.0
 20
0.0
 30
0.0
  2
*M4
  3
*M4
  0
LINE
  8
1
  5
BE
  6
CONTINUOUS
 62
7
 10
85.4734
 20
995.52748
 30
15.0
 11
85.4734
 21
995.52748
 31
5.0
  0
LINE
  8
1
  5
C0
  6
CONTINUOUS
 62
7
 10
95.7234
 20
985.27748
 30
15.0
 11
95.7234
 21
985.27748
 31
5.0
  0
LINE
  8
1
  5
C2
  6
CONTINUOUS
 62
7
 10
85.4734
 20
975.02748
 30
15.0
 11
85.4734
 21
975.02748
 31
5.0
  0
LINE
  8
1
  5
C4
  6
CONTINUOUS
 62
7
 10
67.4734
 20
989.37748
 30
15.0
 11
73.69705
 21
989.37748
 31
15.0
  0
ARC
  8
1
  5
C6
  6
CONTINUOUS
 62
7
 10
73.697047
 20
993.47748
 30
15.0
 40
4.1
 50
270.0
 51
325.1500944444
  0
ARC
  8
1
  5
C8
  6
CONTINUOUS
 62
7
 210
0.0
 220
0.0
 230
-1.0
 10
-85.4734
 20
985.27748
 30
-15.0
 40
10.25
 50
34.8499055556
 51
325.1500972222
  0
ARC
  8
1
  5
CA
  6
CONTINUOUS
 62
7
 10
73.697047
 20
977.07748
 30
15.0
 40
4.1
 50
34.8499055556
 51
90.0
  0
LINE
  8
1
  5
CC
  6
CONTINUOUS
 62
7
 10
73.69705
 20
981.17748
 30
15.0
 11
67.4734
 21
981.17748
 31
15.0
  0
LINE
  8
1
  5
CE
  6
CONTINUOUS
 62
7
 10
67.4734
 20
989.37748
 30
5.0
 11
67.4734
 21
989.37748
 31
15.0
  0
LINE
  8
1
  5
D0
  6
CONTINUOUS
 62
7
 10
73.69705
 20
989.37748
 30
5.0
 11
67.4734
 21
989.37748
 31
5.0
  0
LINE
  8
1
  5
D2
  6
CONTINUOUS
 62
7
 10
73.69705
 20
989.37748
 30
15.0
 11
73.69705
 21
989.37748
 31
5.0
  0
ARC
  8
1
  5
D4
  6
CONTINUOUS
 62
7
 210
0.0
 220
0.0
 230
-1.0
 10
-73.697047
 20
993.47748
 30
-5.0
 40
4.1
 50
214.8499055556
 51
270.0
  0
LINE
  8
1
  5
D6
  6
CONTINUOUS
 62
7
 10
77.06172
 20
991.13462
 30
15.0
 11
77.06172
 21
991.13462
 31
5.0
  0
LINE
  8
1
  5
D8
  6
CONTINUOUS
 62
7
 10
67.4734
 20
981.17748
 30
15.0
 11
67.4734
 21
981.17748
 31
5.0
  0
LINE
  8
1
  5
DA
  6
CONTINUOUS
 62
7
 10
73.69705
 20
981.17748
 30
15.0
 11
73.69705
 21
981.17748
 31
5.0
  0
LINE
  8
1
  5
DC
  6
CONTINUOUS
 62
7
 10
67.4734
 20
981.17748
 30
5.0
 11
73.69705
 21
981.17748
 31
5.0
  0
ARC
  8
1
  5
DE
  6
CONTINUOUS
 62
7
 210
0.0
 220
0.0
 230
-1.0
 10
-73.697047
 20
977.07748
 30
-5.0
 40
4.1
 50
90.0
 51
145.1500944444
  0
LINE
  8
1
  5
E0
  6
CONTINUOUS
 62
7
 10
77.06172
 20
979.42034
 30
15.0
 11
77.06172
 21
979.42034
 31
5.0
  0
ARC
  8
1
  5
E2
  6
CONTINUOUS
 62
7
 10
85.4734
 20
985.27748
 30
5.0
 40
10.25
 50
214.8499055556
 51
145.1500972222
  0
LINE
  8
1
  5
E4
  6
CONTINUOUS
 62
7
 10
67.4734
 20
981.17748
 30
5.0
 11
67.4734
 21
989.37748
 31
5.0
  0
ENDBLK
  8
1
  5
E5
  0
BLOCK
  8
1
  5
E7
 70
1
 10
0.0
 20
0.0
 30
0.0
  2
*M5
  3
*M5
  0
LINE
  8
1
  5
E9
  6
CONTINUOUS
 62
7
 10
67.4734
 20
866.37748
 30
15.0
 11
67.4734
 21
845.37748
 31
15.0
  0
LINE
  8
1
  5
EB
  6
CONTINUOUS
 62
7
 10
67.4734
 20
845.37748
 30
15.0
 11
307.4734
 21
845.37748
 31
15.0
  0
LINE
  8
1
  5
ED
  6
CONTINUOUS
 62
7
 10
307.4734
 20
845.37748
 30
15.0
 11
307.4734
 21
1010.37748
 31
15.0
  0
LINE
  8
1
  5
EF
  6
CONTINUOUS
 62
7
 10
307.4734
 20
1010.37748
 30
15.0
 11
67.4734
 21
1010.37748
 31
15.0
  0
LINE
  8
1
  5
F1
  6
CONTINUOUS
 62
7
 10
67.4734
 20
1010.37748
 30
15.0
 11
67.4734
 21
989.37748
 31
15.0
  0
LINE
  8
1
  5
F3
  6
CONTINUOUS
 62
7
 10
67.4734
 20
981.17748
 30
15.0
 11
67.4734
 21
960.67748
 31
15.0
  0
LINE
  8
1
  5
F5
  6
CONTINUOUS
 62
7
 10
67.4734
 20
952.47748
 30
15.0
 11
67.4734
 21
931.97748
 31
15.0
  0
LINE
  8
1
  5
F7
  6
CONTINUOUS
 62
7
 10
67.4734
 20
923.77748
 30
15.0
 11
67.4734
 21
903.27748
 31
15.0
  0
LINE
  8
1
  5
F9
  6
CONTINUOUS
 62
7
 10
67.4734
 20
895.07748
 30
15.0
 11
67.4734
 21
874.57748
 31
15.0
  0
LINE
  8
1
  5
FB
  6
CONTINUOUS
 62
7
 10
67.4734
 20
845.37748
 30
0.0
 11
67.4734
 21
1010.37748
 31
0.0
  0
LINE
  8
1
  5
FD
  6
CONTINUOUS
 62
7
 10
67.4734
 20
1010.37748
 30
0.0
 11
307.4734
 21
1010.37748
 31
0.0
  0
LINE
  8
1
  5
FF
  6
CONTINUOUS
 62
7
 10
307.4734
 20
1010.37748
 30
0.0
 11
307.4734
 21
845.37748
 31
0.0
  0
LINE
  8
1
  5
101
  6
CONTINUOUS
 62
7
 10
307.4734
 20
845.37748
 30
0.0
 11
67.4734
 21
845.37748
 31
0.0
  0
LINE
  8
1
  5
103
  6
CONTINUOUS
 62
7
 10
307.4734
 20
1010.37748
 30
15.0
 11
307.4734
 21
1010.37748
 31
0.0
  0
LINE
  8
1
  5
105
  6
CONTINUOUS
 62
7
 10
67.4734
 20
1010.37748
 30
15.0
 11
67.4734
 21
1010.37748
 31
0.0
  0
LINE
  8
1
  5
107
  6
CONTINUOUS
 62
7
 10
307.4734
 20
845.37748
 30
15.0
 11
307.4734
 21
845.37748
 31
0.0
  0
LINE
  8
1
  5
109
  6
CONTINUOUS
 62
7
 10
67.4734
 20
845.37748
 30
15.0
 11
67.4734
 21
845.37748
 31
0.0
  0
ENDBLK
  8
1
  5
10A
  0
BLOCK
  8
1
  5
10C
 70
1
 10
0.0
 20
0.0
 30
0.0
  2
*M6
  3
*M6
  0
INSERT
  8
1
  5
10E
  6
CONTINUOUS
 62
7
  2
*M4
 10
0.0
 20
0.0
 30
0.0
 41
1.0
 42
1.0
 43
1.0
 70
1
 71
1
  0
INSERT
  8
1
  5
110
  6
CONTINUOUS
 62
7
  2
*M5
 10
0.0
 20
0.0
 30
0.0
 41
1.0
 42
1.0
 43
1.0
 70
1
 71
1
  0
ENDBLK
  8
1
  5
111
  0
BLOCK
  8
1
  5
113
 70
1
 10
0.0
 20
0.0
 30
0.0
  2
*M7
  3
*M7
  0
INSERT
  8
1
  5
115
  6
CONTINUOUS
 62
7
  2
*M3
 10
0.0
 20
0.0
 30
0.0
 41
1.0
 42
1.0
 43
1.0
 70
1
 71
1
  0
INSERT
  8
1
  5
117
  6
CONTINUOUS
 62
7
  2
*M6
 10
0.0
 20
0.0
 30
0.0
 41
1.0
 42
1.0
 43
1.0
 70
1
 71
1
  0
ENDBLK
  8
1
  5
118
  0
BLOCK
  8
1
  5
11A
 70
1
 10
0.0
 20
0.0
 30
0.0
  2
*M8
  3
*M8
  0
INSERT
  8
1
  5
11C
  6
CONTINUOUS
 62
7
  2
*M2
 10
0.0
 20
0.0
 30
0.0
 41
1.0
 42
1.0
 43
1.0
 70
1
 71
1
  0
INSERT
  8
1
  5
11E
  6
CONTINUOUS
 62
7
  2
*M7
 10
0.0
 20
0.0
 30
0.0
 41
1.0
 42
1.0
 43
1.0
 70
1
 71
1
  0
ENDBLK
  8
1
  5
11F
  0
BLOCK
  8
1
  5
121
 70
1
 10
0.0
 20
0.0
 30
0.0
  2
*M9
  3
*M9
  0
INSERT
  8
1
  5
123
  6
CONTINUOUS
 62
7
  2
*M1
 10
0.0
 20
0.0
 30
0.0
 41
1.0
 42
1.0
 43
1.0
 70
1
 71
1
  0
INSERT
  8
1
  5
125
  6
CONTINUOUS
 62
7
  2
*M8
 10
0.0
 20
0.0
 30
0.0
 41
1.0
 42
1.0
 43
1.0
 70
1
 71
1
  0
ENDBLK
  8
1
  5
126
  0
BLOCK
  8
1
  5
128
 70
1
 10
0.0
 20
0.0
 30
0.0
  2
*M10
  3
*M10
  0
INSERT
  8
1
  5
12A
  6
CONTINUOUS
 62
7
  2
*M0
 10
0.0
 20
0.0
 30
0.0
 41
1.0
 42
1.0
 43
1.0
 70
1
 71
1
  0
INSERT
  8
1
  5
12C
  6
CONTINUOUS
 62
7
  2
*M9
 10
0.0
 20
0.0
 30
0.0
 41
1.0
 42
1.0
 43
1.0
 70
1
 71
1
  0
ENDBLK
  8
1
  5
12D
  0
BLOCK
  8
1
  5
12F
 70
1
 10
0.0
 20
0.0
 30
0.0
  2
*M11
  3
*M11
  0
LINE
  8
1
  5
131
  6
CONTINUOUS
 62
7
 10
-85.4734
 20
-880.72748
 30
15.0
 11
-85.4734
 21
-880.72748
 31
5.0
  0
LINE
  8
1
  5
133
  6
CONTINUOUS
 62
7
 10
-95.7234
 20
-870.47748
 30
15.0
 11
-95.7234
 21
-870.47748
 31
5.0
  0
LINE
  8
1
  5
135
  6
CONTINUOUS
 62
7
 10
-85.4734
 20
-860.22748
 30
15.0
 11
-85.4734
 21
-860.22748
 31
5.0
  0
LINE
  8
1
  5
137
  6
CONTINUOUS
 62
7
 10
-67.4734
 20
-874.57748
 30
5.0
 11
-67.4734
 21
-874.57748
 31
15.0
  0
LINE
  8
1
  5
139
  6
CONTINUOUS
 62
7
 10
-73.69705
 20
-874.57748
 30
5.0
 11
-67.4734
 21
-874.57748
 31
5.0
  0
LINE
  8
1
  5
13B
  6
CONTINUOUS
 62
7
 10
-73.69705
 20
-874.57748
 30
15.0
 11
-73.69705
 21
-874.57748
 31
5.0
  0
LINE
  8
1
  5
13D
  6
CONTINUOUS
 62
7
 10
-67.4734
 20
-874.57748
 30
15.0
 11
-73.69705
 21
-874.57748
 31
15.0
  0
ARC
  8
1
  5
13F
  6
CONTINUOUS
 62
7
 210
0.0
 220
0.0
 230
-1.0
 10
73.697047
 20
-878.67748
 30
-5.0
 40
4.1
 50
34.8499055556
 51
90.0
  0
LINE
  8
1
  5
141
  6
CONTINUOUS
 62
7
 10
-77.06172
 20
-876.33462
 30
15.0
 11
-77.06172
 21
-876.33462
 31
5.0
  0
ARC
  8
1
  5
143
  6
CONTINUOUS
 62
7
 10
-73.697047
 20
-878.67748
 30
15.0
 40
4.1
 50
90.0
 51
145.1500944444
  0
LINE
  8
1
  5
145
  6
CONTINUOUS
 62
7
 10
-67.4734
 20
-866.37748
 30
15.0
 11
-67.4734
 21
-866.37748
 31
5.0
  0
LINE
  8
1
  5
147
  6
CONTINUOUS
 62
7
 10
-73.69705
 20
-866.37748
 30
15.0
 11
-67.4734
 21
-866.37748
 31
15.0
  0
LINE
  8
1
  5
149
  6
CONTINUOUS
 62
7
 10
-73.69705
 20
-866.37748
 30
15.0
 11
-73.69705
 21
-866.37748
 31
5.0
  0
LINE
  8
1
  5
14B
  6
CONTINUOUS
 62
7
 10
-67.4734
 20
-866.37748
 30
5.0
 11
-73.69705
 21
-866.37748
 31
5.0
  0
ARC
  8
1
  5
14D
  6
CONTINUOUS
 62
7
 210
0.0
 220
0.0
 230
-1.0
 10
73.697047
 20
-862.27748
 30
-5.0
 40
4.1
 50
270.0
 51
325.1500944444
  0
ARC
  8
1
  5
14F
  6
CONTINUOUS
 62
7
 10
-73.697047
 20
-862.27748
 30
15.0
 40
4.1
 50
214.8499055556
 51
270.0
  0
LINE
  8
1
  5
151
  6
CONTINUOUS
 62
7
 10
-77.06172
 20
-864.62034
 30
15.0
 11
-77.06172
 21
-864.62034
 31
5.0
  0
ARC
  8
1
  5
153
  6
CONTINUOUS
 62
7
 10
-85.4734
 20
-870.47748
 30
5.0
 40
10.25
 50
34.8499055556
 51
325.1500972222
  0
ARC
  8
1
  5
155
  6
CONTINUOUS
 62
7
 210
0.0
 220
0.0
 230
-1.0
 10
85.4734
 20
-870.47748
 30
-15.0
 40
10.25
 50
214.8499055556
 51
145.1500972222
  0
LINE
  8
1
  5
157
  6
CONTINUOUS
 62
7
 10
-67.4734
 20
-866.37748
 30
5.0
 11
-67.4734
 21
-874.57748
 31
5.0
  0
ENDBLK
  8
1
  5
158
  0
BLOCK
  8
1
  5
15A
 70
1
 10
0.0
 20
0.0
 30
0.0
  2
*M12
  3
*M12
  0
LINE
  8
1
  5
15C
  6
CONTINUOUS
 62
7
 10
-85.4734
 20
-909.42748
 30
15.0
 11
-85.4734
 21
-909.42748
 31
5.0
  0
LINE
  8
1
  5
15E
  6
CONTINUOUS
 62
7
 10
-95.7234
 20
-899.17748
 30
15.0
 11
-95.7234
 21
-899.17748
 31
5.0
  0
LINE
  8
1
  5
160
  6
CONTINUOUS
 62
7
 10
-85.4734
 20
-888.92748
 30
15.0
 11
-85.4734
 21
-888.92748
 31
5.0
  0
LINE
  8
1
  5
162
  6
CONTINUOUS
 62
7
 10
-67.4734
 20
-903.27748
 30
15.0
 11
-73.69705
 21
-903.27748
 31
15.0
  0
ARC
  8
1
  5
164
  6
CONTINUOUS
 62
7
 10
-73.697047
 20
-907.37748
 30
15.0
 40
4.1
 50
90.0
 51
145.1500944444
  0
ARC
  8
1
  5
166
  6
CONTINUOUS
 62
7
 210
0.0
 220
0.0
 230
-1.0
 10
85.4734
 20
-899.17748
 30
-15.0
 40
10.25
 50
214.8499055556
 51
145.1500972222
  0
ARC
  8
1
  5
168
  6
CONTINUOUS
 62
7
 10
-73.697047
 20
-890.97748
 30
15.0
 40
4.1
 50
214.8499055556
 51
270.0
  0
LINE
  8
1
  5
16A
  6
CONTINUOUS
 62
7
 10
-73.69705
 20
-895.07748
 30
15.0
 11
-67.4734
 21
-895.07748
 31
15.0
  0
LINE
  8
1
  5
16C
  6
CONTINUOUS
 62
7
 10
-67.4734
 20
-903.27748
 30
5.0
 11
-67.4734
 21
-903.27748
 31
15.0
  0
LINE
  8
1
  5
16E
  6
CONTINUOUS
 62
7
 10
-73.69705
 20
-903.27748
 30
5.0
 11
-67.4734
 21
-903.27748
 31
5.0
  0
LINE
  8
1
  5
170
  6
CONTINUOUS
 62
7
 10
-73.69705
 20
-903.27748
 30
15.0
 11
-73.69705
 21
-903.27748
 31
5.0
  0
ARC
  8
1
  5
172
  6
CONTINUOUS
 62
7
 210
0.0
 220
0.0
 230
-1.0
 10
73.697047
 20
-907.37748
 30
-5.0
 40
4.1
 50
34.8499055556
 51
90.0
  0
LINE
  8
1
  5
174
  6
CONTINUOUS
 62
7
 10
-77.06172
 20
-905.03462
 30
15.0
 11
-77.06172
 21
-905.03462
 31
5.0
  0
LINE
  8
1
  5
176
  6
CONTINUOUS
 62
7
 10
-67.4734
 20
-895.07748
 30
15.0
 11
-67.4734
 21
-895.07748
 31
5.0
  0
LINE
  8
1
  5
178
  6
CONTINUOUS
 62
7
 10
-73.69705
 20
-895.07748
 30
15.0
 11
-73.69705
 21
-895.07748
 31
5.0
  0
LINE
  8
1
  5
17A
  6
CONTINUOUS
 62
7
 10
-67.4734
 20
-895.07748
 30
5.0
 11
-73.69705
 21
-895.07748
 31
5.0
  0
ARC
  8
1
  5
17C
  6
CONTINUOUS
 62
7
 210
0.0
 220
0.0
 230
-1.0
 10
73.697047
 20
-890.97748
 30
-5.0
 40
4.1
 50
270.0
 51
325.1500944444
  0
LINE
  8
1
  5
17E
  6
CONTINUOUS
 62
7
 10
-77.06172
 20
-893.32034
 30
15.0
 11
-77.06172
 21
-893.32034
 31
5.0
  0
ARC
  8
1
  5
180
  6
CONTINUOUS
 62
7
 10
-85.4734
 20
-899.17748
 30
5.0
 40
10.25
 50
34.8499055556
 51
325.1500972222
  0
LINE
  8
1
  5
182
  6
CONTINUOUS
 62
7
 10
-67.4734
 20
-895.07748
 30
5.0
 11
-67.4734
 21
-903.27748
 31
5.0
  0
ENDBLK
  8
1
  5
183
  0
BLOCK
  8
1
  5
185
 70
1
 10
0.0
 20
0.0
 30
0.0
  2
*M13
  3
*M13
  0
LINE
  8
1
  5
187
  6
CONTINUOUS
 62
7
 10
-85.4734
 20
-938.12748
 30
15.0
 11
-85.4734
 21
-938.12748
 31
5.0
  0
LINE
  8
1
  5
189
  6
CONTINUOUS
 62
7
 10
-95.7234
 20
-927.87748
 30
15.0
 11
-95.7234
 21
-927.87748
 31
5.0
  0
LINE
  8
1
  5
18B
  6
CONTINUOUS
 62
7
 10
-85.4734
 20
-917.62748
 30
15.0
 11
-85.4734
 21
-917.62748
 31
5.0
  0
LINE
  8
1
  5
18D
  6
CONTINUOUS
 62
7
 10
-67.4734
 20
-931.97748
 30
15.0
 11
-73.69705
 21
-931.97748
 31
15.0
  0
ARC
  8
1
  5
18F
  6
CONTINUOUS
 62
7
 10
-73.697047
 20
-936.07748
 30
15.0
 40
4.1
 50
90.0
 51
145.1500944444
  0
ARC
  8
1
  5
191
  6
CONTINUOUS
 62
7
 210
0.0
 220
0.0
 230
-1.0
 10
85.4734
 20
-927.87748
 30
-15.0
 40
10.25
 50
214.8499055556
 51
145.1500972222
  0
ARC
  8
1
  5
193
  6
CONTINUOUS
 62
7
 10
-73.697047
 20
-919.67748
 30
15.0
 40
4.1
 50
214.8499055556
 51
270.0
  0
LINE
  8
1
  5
195
  6
CONTINUOUS
 62
7
 10
-73.69705
 20
-923.77748
 30
15.0
 11
-67.4734
 21
-923.77748
 31
15.0
  0
LINE
  8
1
  5
197
  6
CONTINUOUS
 62
7
 10
-67.4734
 20
-931.97748
 30
5.0
 11
-67.4734
 21
-931.97748
 31
15.0
  0
LINE
  8
1
  5
199
  6
CONTINUOUS
 62
7
 10
-73.69705
 20
-931.97748
 30
5.0
 11
-67.4734
 21
-931.97748
 31
5.0
  0
LINE
  8
1
  5
19B
  6
CONTINUOUS
 62
7
 10
-73.69705
 20
-931.97748
 30
15.0
 11
-73.69705
 21
-931.97748
 31
5.0
  0
ARC
  8
1
  5
19D
  6
CONTINUOUS
 62
7
 210
0.0
 220
0.0
 230
-1.0
 10
73.697047
 20
-936.07748
 30
-5.0
 40
4.1
 50
34.8499055556
 51
90.0
  0
LINE
  8
1
  5
19F
  6
CONTINUOUS
 62
7
 10
-77.06172
 20
-933.73462
 30
15.0
 11
-77.06172
 21
-933.73462
 31
5.0
  0
LINE
  8
1
  5
1A1
  6
CONTINUOUS
 62
7
 10
-67.4734
 20
-923.77748
 30
15.0
 11
-67.4734
 21
-923.77748
 31
5.0
  0
LINE
  8
1
  5
1A3
  6
CONTINUOUS
 62
7
 10
-73.69705
 20
-923.77748
 30
15.0
 11
-73.69705
 21
-923.77748
 31
5.0
  0
LINE
  8
1
  5
1A5
  6
CONTINUOUS
 62
7
 10
-67.4734
 20
-923.77748
 30
5.0
 11
-73.69705
 21
-923.77748
 31
5.0
  0
ARC
  8
1
  5
1A7
  6
CONTINUOUS
 62
7
 210
0.0
 220
0.0
 230
-1.0
 10
73.697047
 20
-919.67748
 30
-5.0
 40
4.1
 50
270.0
 51
325.1500944444
  0
LINE
  8
1
  5
1A9
  6
CONTINUOUS
 62
7
 10
-77.06172
 20
-922.02034
 30
15.0
 11
-77.06172
 21
-922.02034
 31
5.0
  0
ARC
  8
1
  5
1AB
  6
CONTINUOUS
 62
7
 10
-85.4734
 20
-927.87748
 30
5.0
 40
10.25
 50
34.8499055556
 51
325.1500972222
  0
LINE
  8
1
  5
1AD
  6
CONTINUOUS
 62
7
 10
-67.4734
 20
-923.77748
 30
5.0
 11
-67.4734
 21
-931.97748
 31
5.0
  0
ENDBLK
  8
1
  5
1AE
  0
BLOCK
  8
1
  5
1B0
 70
1
 10
0.0
 20
0.0
 30
0.0
  2
*M14
  3
*M14
  0
LINE
  8
1
  5
1B2
  6
CONTINUOUS
 62
7
 10
-85.4734
 20
-966.82748
 30
15.0
 11
-85.4734
 21
-966.82748
 31
5.0
  0
LINE
  8
1
  5
1B4
  6
CONTINUOUS
 62
7
 10
-95.7234
 20
-956.57748
 30
15.0
 11
-95.7234
 21
-956.57748
 31
5.0
  0
LINE
  8
1
  5
1B6
  6
CONTINUOUS
 62
7
 10
-85.4734
 20
-946.32748
 30
15.0
 11
-85.4734
 21
-946.32748
 31
5.0
  0
LINE
  8
1
  5
1B8
  6
CONTINUOUS
 62
7
 10
-67.4734
 20
-960.67748
 30
15.0
 11
-73.69705
 21
-960.67748
 31
15.0
  0
ARC
  8
1
  5
1BA
  6
CONTINUOUS
 62
7
 10
-73.697047
 20
-964.77748
 30
15.0
 40
4.1
 50
90.0
 51
145.1500944444
  0
ARC
  8
1
  5
1BC
  6
CONTINUOUS
 62
7
 210
0.0
 220
0.0
 230
-1.0
 10
85.4734
 20
-956.57748
 30
-15.0
 40
10.25
 50
214.8499055556
 51
145.1500972222
  0
ARC
  8
1
  5
1BE
  6
CONTINUOUS
 62
7
 10
-73.697047
 20
-948.37748
 30
15.0
 40
4.1
 50
214.8499055556
 51
270.0
  0
LINE
  8
1
  5
1C0
  6
CONTINUOUS
 62
7
 10
-73.69705
 20
-952.47748
 30
15.0
 11
-67.4734
 21
-952.47748
 31
15.0
  0
LINE
  8
1
  5
1C2
  6
CONTINUOUS
 62
7
 10
-67.4734
 20
-960.67748
 30
5.0
 11
-67.4734
 21
-960.67748
 31
15.0
  0
LINE
  8
1
  5
1C4
  6
CONTINUOUS
 62
7
 10
-73.69705
 20
-960.67748
 30
5.0
 11
-67.4734
 21
-960.67748
 31
5.0
  0
LINE
  8
1
  5
1C6
  6
CONTINUOUS
 62
7
 10
-73.69705
 20
-960.67748
 30
15.0
 11
-73.69705
 21
-960.67748
 31
5.0
  0
ARC
  8
1
  5
1C8
  6
CONTINUOUS
 62
7
 210
0.0
 220
0.0
 230
-1.0
 10
73.697047
 20
-964.77748
 30
-5.0
 40
4.1
 50
34.8499055556
 51
90.0
  0
LINE
  8
1
  5
1CA
  6
CONTINUOUS
 62
7
 10
-77.06172
 20
-962.43462
 30
15.0
 11
-77.06172
 21
-962.43462
 31
5.0
  0
LINE
  8
1
  5
1CC
  6
CONTINUOUS
 62
7
 10
-67.4734
 20
-952.47748
 30
15.0
 11
-67.4734
 21
-952.47748
 31
5.0
  0
LINE
  8
1
  5
1CE
  6
CONTINUOUS
 62
7
 10
-73.69705
 20
-952.47748
 30
15.0
 11
-73.69705
 21
-952.47748
 31
5.0
  0
LINE
  8
1
  5
1D0
  6
CONTINUOUS
 62
7
 10
-67.4734
 20
-952.47748
 30
5.0
 11
-73.69705
 21
-952.47748
 31
5.0
  0
ARC
  8
1
  5
1D2
  6
CONTINUOUS
 62
7
 210
0.0
 220
0.0
 230
-1.0
 10
73.697047
 20
-948.37748
 30
-5.0
 40
4.1
 50
270.0
 51
325.1500944444
  0
LINE
  8
1
  5
1D4
  6
CONTINUOUS
 62
7
 10
-77.06172
 20
-950.72034
 30
15.0
 11
-77.06172
 21
-950.72034
 31
5.0
  0
ARC
  8
1
  5
1D6
  6
CONTINUOUS
 62
7
 10
-85.4734
 20
-956.57748
 30
5.0
 40
10.25
 50
34.8499055556
 51
325.1500972222
  0
LINE
  8
1
  5
1D8
  6
CONTINUOUS
 62
7
 10
-67.4734
 20
-952.47748
 30
5.0
 11
-67.4734
 21
-960.67748
 31
5.0
  0
ENDBLK
  8
1
  5
1D9
  0
BLOCK
  8
1
  5
1DB
 70
1
 10
0.0
 20
0.0
 30
0.0
  2
*M15
  3
*M15
  0
LINE
  8
1
  5
1DD
  6
CONTINUOUS
 62
7
 10
-85.4734
 20
-995.52748
 30
15.0
 11
-85.4734
 21
-995.52748
 31
5.0
  0
LINE
  8
1
  5
1DF
  6
CONTINUOUS
 62
7
 10
-95.7234
 20
-985.27748
 30
15.0
 11
-95.7234
 21
-985.27748
 31
5.0
  0
LINE
  8
1
  5
1E1
  6
CONTINUOUS
 62
7
 10
-85.4734
 20
-975.02748
 30
15.0
 11
-85.4734
 21
-975.02748
 31
5.0
  0
LINE
  8
1
  5
1E3
  6
CONTINUOUS
 62
7
 10
-67.4734
 20
-989.37748
 30
15.0
 11
-73.69705
 21
-989.37748
 31
15.0
  0
ARC
  8
1
  5
1E5
  6
CONTINUOUS
 62
7
 10
-73.697047
 20
-993.47748
 30
15.0
 40
4.1
 50
90.0
 51
145.1500944444
  0
ARC
  8
1
  5
1E7
  6
CONTINUOUS
 62
7
 210
0.0
 220
0.0
 230
-1.0
 10
85.4734
 20
-985.27748
 30
-15.0
 40
10.25
 50
214.8499055556
 51
145.1500972222
  0
ARC
  8
1
  5
1E9
  6
CONTINUOUS
 62
7
 10
-73.697047
 20
-977.07748
 30
15.0
 40
4.1
 50
214.8499055556
 51
270.0
  0
LINE
  8
1
  5
1EB
  6
CONTINUOUS
 62
7
 10
-73.69705
 20
-981.17748
 30
15.0
 11
-67.4734
 21
-981.17748
 31
15.0
  0
LINE
  8
1
  5
1ED
  6
CONTINUOUS
 62
7
 10
-67.4734
 20
-989.37748
 30
5.0
 11
-67.4734
 21
-989.37748
 31
15.0
  0
LINE
  8
1
  5
1EF
  6
CONTINUOUS
 62
7
 10
-73.69705
 20
-989.37748
 30
5.0
 11
-67.4734
 21
-989.37748
 31
5.0
  0
LINE
  8
1
  5
1F1
  6
CONTINUOUS
 62
7
 10
-73.69705
 20
-989.37748
 30
15.0
 11
-73.69705
 21
-989.37748
 31
5.0
  0
ARC
  8
1
  5
1F3
  6
CONTINUOUS
 62
7
 210
0.0
 220
0.0
 230
-1.0
 10
73.697047
 20
-993.47748
 30
-5.0
 40
4.1
 50
34.8499055556
 51
90.0
  0
LINE
  8
1
  5
1F5
  6
CONTINUOUS
 62
7
 10
-77.06172
 20
-991.13462
 30
15.0
 11
-77.06172
 21
-991.13462
 31
5.0
  0
LINE
  8
1
  5
1F7
  6
CONTINUOUS
 62
7
 10
-67.4734
 20
-981.17748
 30
15.0
 11
-67.4734
 21
-981.17748
 31
5.0
  0
LINE
  8
1
  5
1F9
  6
CONTINUOUS
 62
7
 10
-73.69705
 20
-981.17748
 30
15.0
 11
-73.69705
 21
-981.17748
 31
5.0
  0
LINE
  8
1
  5
1FB
  6
CONTINUOUS
 62
7
 10
-67.4734
 20
-981.17748
 30
5.0
 11
-73.69705
 21
-981.17748
 31
5.0
  0
ARC
  8
1
  5
1FD
  6
CONTINUOUS
 62
7
 210
0.0
 220
0.0
 230
-1.0
 10
73.697047
 20
-977.07748
 30
-5.0
 40
4.1
 50
270.0
 51
325.1500944444
  0
LINE
  8
1
  5
1FF
  6
CONTINUOUS
 62
7
 10
-77.06172
 20
-979.42034
 30
15.0
 11
-77.06172
 21
-979.42034
 31
5.0
  0
ARC
  8
1
  5
201
  6
CONTINUOUS
 62
7
 10
-85.4734
 20
-985.27748
 30
5.0
 40
10.25
 50
34.8499055556
 51
325.1500972222
  0
LINE
  8
1
  5
203
  6
CONTINUOUS
 62
7
 10
-67.4734
 20
-981.17748
 30
5.0
 11
-67.4734
 21
-989.37748
 31
5.0
  0
ENDBLK
  8
1
  5
204
  0
BLOCK
  8
1
  5
206
 70
1
 10
0.0
 20
0.0
 30
0.0
  2
*M16
  3
*M16
  0
LINE
  8
1
  5
208
  6
CONTINUOUS
 62
7
 10
-67.4734
 20
-866.37748
 30
15.0
 11
-67.4734
 21
-845.37748
 31
15.0
  0
LINE
  8
1
  5
20A
  6
CONTINUOUS
 62
7
 10
-67.4734
 20
-845.37748
 30
15.0
 11
-307.4734
 21
-845.37748
 31
15.0
  0
LINE
  8
1
  5
20C
  6
CONTINUOUS
 62
7
 10
-307.4734
 20
-845.37748
 30
15.0
 11
-307.4734
 21
-1010.37748
 31
15.0
  0
LINE
  8
1
  5
20E
  6
CONTINUOUS
 62
7
 10
-307.4734
 20
-1010.37748
 30
15.0
 11
-67.4734
 21
-1010.37748
 31
15.0
  0
LINE
  8
1
  5
210
  6
CONTINUOUS
 62
7
 10
-67.4734
 20
-1010.37748
 30
15.0
 11
-67.4734
 21
-989.37748
 31
15.0
  0
LINE
  8
1
  5
212
  6
CONTINUOUS
 62
7
 10
-67.4734
 20
-981.17748
 30
15.0
 11
-67.4734
 21
-960.67748
 31
15.0
  0
LINE
  8
1
  5
214
  6
CONTINUOUS
 62
7
 10
-67.4734
 20
-952.47748
 30
15.0
 11
-67.4734
 21
-931.97748
 31
15.0
  0
LINE
  8
1
  5
216
  6
CONTINUOUS
 62
7
 10
-67.4734
 20
-923.77748
 30
15.0
 11
-67.4734
 21
-903.27748
 31
15.0
  0
LINE
  8
1
  5
218
  6
CONTINUOUS
 62
7
 10
-67.4734
 20
-895.07748
 30
15.0
 11
-67.4734
 21
-874.57748
 31
15.0
  0
LINE
  8
1
  5
21A
  6
CONTINUOUS
 62
7
 10
-67.4734
 20
-845.37748
 30
0.0
 11
-67.4734
 21
-1010.37748
 31
0.0
  0
LINE
  8
1
  5
21C
  6
CONTINUOUS
 62
7
 10
-67.4734
 20
-1010.37748
 30
0.0
 11
-307.4734
 21
-1010.37748
 31
0.0
  0
LINE
  8
1
  5
21E
  6
CONTINUOUS
 62
7
 10
-307.4734
 20
-1010.37748
 30
0.0
 11
-307.4734
 21
-845.37748
 31
0.0
  0
LINE
  8
1
  5
220
  6
CONTINUOUS
 62
7
 10
-307.4734
 20
-845.37748
 30
0.0
 11
-67.4734
 21
-845.37748
 31
0.0
  0
LINE
  8
1
  5
222
  6
CONTINUOUS
 62
7
 10
-307.4734
 20
-1010.37748
 30
15.0
 11
-307.4734
 21
-1010.37748
 31
0.0
  0
LINE
  8
1
  5
224
  6
CONTINUOUS
 62
7
 10
-67.4734
 20
-1010.37748
 30
15.0
 11
-67.4734
 21
-1010.37748
 31
0.0
  0
LINE
  8
1
  5
226
  6
CONTINUOUS
 62
7
 10
-307.4734
 20
-845.37748
 30
15.0
 11
-307.4734
 21
-845.37748
 31
0.0
  0
LINE
  8
1
  5
228
  6
CONTINUOUS
 62
7
 10
-67.4734
 20
-845.37748
 30
15.0
 11
-67.4734
 21
-845.37748
 31
0.0
  0
ENDBLK
  8
1
  5
229
  0
BLOCK
  8
1
  5
22B
 70
1
 10
0.0
 20
0.0
 30
0.0
  2
*M17
  3
*M17
  0
INSERT
  8
1
  5
22D
  6
CONTINUOUS
 62
7
  2
*M15
 10
0.0
 20
0.0
 30
0.0
 41
1.0
 42
1.0
 43
1.0
 70
1
 71
1
  0
INSERT
  8
1
  5
22F
  6
CONTINUOUS
 62
7
  2
*M16
 10
0.0
 20
0.0
 30
0.0
 41
1.0
 42
1.0
 43
1.0
 70
1
 71
1
  0
ENDBLK
  8
1
  5
230
  0
BLOCK
  8
1
  5
232
 70
1
 10
0.0
 20
0.0
 30
0.0
  2
*M18
  3
*M18
  0
INSERT
  8
1
  5
234
  6
CONTINUOUS
 62
7
  2
*M14
 10
0.0
 20
0.0
 30
0.0
 41
1.0
 42
1.0
 43
1.0
 70
1
 71
1
  0
INSERT
  8
1
  5
236
  6
CONTINUOUS
 62
7
  2
*M17
 10
0.0
 20
0.0
 30
0.0
 41
1.0
 42
1.0
 43
1.0
 70
1
 71
1
  0
ENDBLK
  8
1
  5
237
  0
BLOCK
  8
1
  5
239
 70
1
 10
0.0
 20
0.0
 30
0.0
  2
*M19
  3
*M19
  0
INSERT
  8
1
  5
23B
  6
CONTINUOUS
 62
7
  2
*M13
 10
0.0
 20
0.0
 30
0.0
 41
1.0
 42
1.0
 43
1.0
 70
1
 71
1
  0
INSERT
  8
1
  5
23D
  6
CONTINUOUS
 62
7
  2
*M18
 10
0.0
 20
0.0
 30
0.0
 41
1.0
 42
1.0
 43
1.0
 70
1
 71
1
  0
ENDBLK
  8
1
  5
23E
  0
BLOCK
  8
1
  5
240
 70
1
 10
0.0
 20
0.0
 30
0.0
  2
*M20
  3
*M20
  0
INSERT
  8
1
  5
242
  6
CONTINUOUS
 62
7
  2
*M12
 10
0.0
 20
0.0
 30
0.0
 41
1.0
 42
1.0
 43
1.0
 70
1
 71
1
  0
INSERT
  8
1
  5
244
  6
CONTINUOUS
 62
7
  2
*M19
 10
0.0
 20
0.0
 30
0.0
 41
1.0
 42
1.0
 43
1.0
 70
1
 71
1
  0
ENDBLK
  8
1
  5
245
  0
BLOCK
  8
1
  5
247
 70
1
 10
0.0
 20
0.0
 30
0.0
  2
*M21
  3
*M21
  0
INSERT
  8
1
  5
249
  6
CONTINUOUS
 62
7
  2
*M11
 10
0.0
 20
0.0
 30
0.0
 41
1.0
 42
1.0
 43
1.0
 70
1
 71
1
  0
INSERT
  8
1
  5
24B
  6
CONTINUOUS
 62
7
  2
*M20
 10
0.0
 20
0.0
 30
0.0
 41
1.0
 42
1.0
 43
1.0
 70
1
 71
1
  0
ENDBLK
  8
1
  5
24C
  0
BLOCK
  8
1
  5
24E
 70
1
 10
0.0
 20
0.0
 30
0.0
  2
*M22
  3
*M22
  0
LINE
  8
1
  5
250
  6
CONTINUOUS
 62
7
 10
39.2234
 20
985.27748
 30
15.0
 11
39.2234
 21
985.27748
 31
5.0
  0
LINE
  8
1
  5
252
  6
CONTINUOUS
 62
7
 10
49.4734
 20
995.52748
 30
15.0
 11
49.4734
 21
995.52748
 31
5.0
  0
LINE
  8
1
  5
254
  6
CONTINUOUS
 62
7
 10
49.4734
 20
975.02748
 30
15.0
 11
49.4734
 21
975.02748
 31
5.0
  0
LINE
  8
1
  5
256
  6
CONTINUOUS
 62
7
 10
85.4734
 20
995.52748
 30
15.0
 11
85.4734
 21
995.52748
 31
5.0
  0
LINE
  8
1
  5
258
  6
CONTINUOUS
 62
7
 10
95.7234
 20
985.27748
 30
15.0
 11
95.7234
 21
985.27748
 31
5.0
  0
LINE
  8
1
  5
25A
  6
CONTINUOUS
 62
7
 10
85.4734
 20
975.02748
 30
15.0
 11
85.4734
 21
975.02748
 31
5.0
  0
ARC
  8
1
  5
25C
  6
CONTINUOUS
 62
7
 210
0.0
 220
0.0
 230
-1.0
 10
-73.697047
 20
993.47748
 30
-5.0
 40
4.1
 50
214.8499055556
 51
270.0
  0
LINE
  8
1
  5
25E
  6
CONTINUOUS
 62
7
 10
73.69705
 20
989.37748
 30
15.0
 11
73.69705
 21
989.37748
 31
5.0
  0
ARC
  8
1
  5
260
  6
CONTINUOUS
 62
7
 210
0.0
 220
0.0
 230
-1.0
 10
-73.697047
 20
993.47748
 30
-15.0
 40
4.1
 50
214.8499055556
 51
270.0
  0
LINE
  8
1
  5
262
  6
CONTINUOUS
 62
7
 10
77.06172
 20
991.13462
 30
15.0
 11
77.06172
 21
991.13462
 31
5.0
  0
LINE
  8
1
  5
264
  6
CONTINUOUS
 62
7
 10
73.69705
 20
989.37748
 30
5.0
 11
61.24975
 21
989.37748
 31
5.0
  0
LINE
  8
1
  5
266
  6
CONTINUOUS
 62
7
 10
61.24975
 20
989.37748
 30
15.0
 11
61.24975
 21
989.37748
 31
5.0
  0
LINE
  8
1
  5
268
  6
CONTINUOUS
 62
7
 10
73.69705
 20
989.37748
 30
15.0
 11
61.24975
 21
989.37748
 31
15.0
  0
ARC
  8
1
  5
26A
  6
CONTINUOUS
 62
7
 210
0.0
 220
0.0
 230
-1.0
 10
-61.249753
 20
993.47748
 30
-5.0
 40
4.1
 50
270.0
 51
325.1500944444
  0
LINE
  8
1
  5
26C
  6
CONTINUOUS
 62
7
 10
57.88508
 20
991.13462
 30
15.0
 11
57.88508
 21
991.13462
 31
5.0
  0
ARC
  8
1
  5
26E
  6
CONTINUOUS
 62
7
 210
0.0
 220
0.0
 230
-1.0
 10
-61.249753
 20
993.47748
 30
-15.0
 40
4.1
 50
270.0
 51
325.1500944444
  0
ARC
  8
1
  5
270
  6
CONTINUOUS
 62
7
 10
49.4734
 20
985.27748
 30
5.0
 40
10.25
 50
34.8499055556
 51
325.1500972222
  0
LINE
  8
1
  5
272
  6
CONTINUOUS
 62
7
 10
57.88508
 20
979.42034
 30
15.0
 11
57.88508
 21
979.42034
 31
5.0
  0
ARC
  8
1
  5
274
  6
CONTINUOUS
 62
7
 10
49.4734
 20
985.27748
 30
15.0
 40
10.25
 50
34.8499055556
 51
325.1500972222
  0
ARC
  8
1
  5
276
  6
CONTINUOUS
 62
7
 210
0.0
 220
0.0
 230
-1.0
 10
-61.249753
 20
977.07748
 30
-5.0
 40
4.1
 50
34.8499055556
 51
90.0
  0
LINE
  8
1
  5
278
  6
CONTINUOUS
 62
7
 10
61.24975
 20
981.17748
 30
15.0
 11
61.24975
 21
981.17748
 31
5.0
  0
ARC
  8
1
  5
27A
  6
CONTINUOUS
 62
7
 210
0.0
 220
0.0
 230
-1.0
 10
-61.249753
 20
977.07748
 30
-15.0
 40
4.1
 50
34.8499055556
 51
90.0
  0
LINE
  8
1
  5
27C
  6
CONTINUOUS
 62
7
 10
61.24975
 20
981.17748
 30
5.0
 11
73.69705
 21
981.17748
 31
5.0
  0
LINE
  8
1
  5
27E
  6
CONTINUOUS
 62
7
 10
73.69705
 20
981.17748
 30
15.0
 11
73.69705
 21
981.17748
 31
5.0
  0
LINE
  8
1
  5
280
  6
CONTINUOUS
 62
7
 10
61.24975
 20
981.17748
 30
15.0
 11
73.69705
 21
981.17748
 31
15.0
  0
ARC
  8
1
  5
282
  6
CONTINUOUS
 62
7
 210
0.0
 220
0.0
 230
-1.0
 10
-73.697047
 20
977.07748
 30
-5.0
 40
4.1
 50
90.0
 51
145.1500944444
  0
LINE
  8
1
  5
284
  6
CONTINUOUS
 62
7
 10
77.06172
 20
979.42034
 30
15.0
 11
77.06172
 21
979.42034
 31
5.0
  0
ARC
  8
1
  5
286
  6
CONTINUOUS
 62
7
 210
0.0
 220
0.0
 230
-1.0
 10
-73.697047
 20
977.07748
 30
-15.0
 40
4.1
 50
90.0
 51
145.1500944444
  0
ARC
  8
1
  5
288
  6
CONTINUOUS
 62
7
 10
85.4734
 20
985.27748
 30
5.0
 40
10.25
 50
214.8499055556
 51
145.1500972222
  0
ARC
  8
1
  5
28A
  6
CONTINUOUS
 62
7
 10
85.4734
 20
985.27748
 30
15.0
 40
10.25
 50
214.8499055556
 51
145.1500972222
  0
ENDBLK
  8
1
  5
28B
  0
BLOCK
  8
1
  5
28D
 70
1
 10
0.0
 20
0.0
 30
0.0
  2
*M23
  3
*M23
  0
LINE
  8
1
  5
28F
  6
CONTINUOUS
 62
7
 10
39.2234
 20
956.57748
 30
15.0
 11
39.2234
 21
956.57748
 31
5.0
  0
LINE
  8
1
  5
291
  6
CONTINUOUS
 62
7
 10
49.4734
 20
966.82748
 30
15.0
 11
49.4734
 21
966.82748
 31
5.0
  0
LINE
  8
1
  5
293
  6
CONTINUOUS
 62
7
 10
49.4734
 20
946.32748
 30
15.0
 11
49.4734
 21
946.32748
 31
5.0
  0
LINE
  8
1
  5
295
  6
CONTINUOUS
 62
7
 10
85.4734
 20
966.82748
 30
15.0
 11
85.4734
 21
966.82748
 31
5.0
  0
LINE
  8
1
  5
297
  6
CONTINUOUS
 62
7
 10
95.7234
 20
956.57748
 30
15.0
 11
95.7234
 21
956.57748
 31
5.0
  0
LINE
  8
1
  5
299
  6
CONTINUOUS
 62
7
 10
85.4734
 20
946.32748
 30
15.0
 11
85.4734
 21
946.32748
 31
5.0
  0
ARC
  8
1
  5
29B
  6
CONTINUOUS
 62
7
 210
0.0
 220
0.0
 230
-1.0
 10
-73.697047
 20
964.77748
 30
-5.0
 40
4.1
 50
214.8499055556
 51
270.0
  0
LINE
  8
1
  5
29D
  6
CONTINUOUS
 62
7
 10
73.69705
 20
960.67748
 30
15.0
 11
73.69705
 21
960.67748
 31
5.0
  0
ARC
  8
1
  5
29F
  6
CONTINUOUS
 62
7
 210
0.0
 220
0.0
 230
-1.0
 10
-73.697047
 20
964.77748
 30
-15.0
 40
4.1
 50
214.8499055556
 51
270.0
  0
LINE
  8
1
  5
2A1
  6
CONTINUOUS
 62
7
 10
77.06172
 20
962.43462
 30
15.0
 11
77.06172
 21
962.43462
 31
5.0
  0
LINE
  8
1
  5
2A3
  6
CONTINUOUS
 62
7
 10
73.69705
 20
960.67748
 30
5.0
 11
61.24975
 21
960.67748
 31
5.0
  0
LINE
  8
1
  5
2A5
  6
CONTINUOUS
 62
7
 10
61.24975
 20
960.67748
 30
15.0
 11
61.24975
 21
960.67748
 31
5.0
  0
LINE
  8
1
  5
2A7
  6
CONTINUOUS
 62
7
 10
73.69705
 20
960.67748
 30
15.0
 11
61.24975
 21
960.67748
 31
15.0
  0
ARC
  8
1
  5
2A9
  6
CONTINUOUS
 62
7
 210
0.0
 220
0.0
 230
-1.0
 10
-61.249753
 20
964.77748
 30
-5.0
 40
4.1
 50
270.0
 51
325.1500944444
  0
LINE
  8
1
  5
2AB
  6
CONTINUOUS
 62
7
 10
57.88508
 20
962.43462
 30
15.0
 11
57.88508
 21
962.43462
 31
5.0
  0
ARC
  8
1
  5
2AD
  6
CONTINUOUS
 62
7
 210
0.0
 220
0.0
 230
-1.0
 10
-61.249753
 20
964.77748
 30
-15.0
 40
4.1
 50
270.0
 51
325.1500944444
  0
ARC
  8
1
  5
2AF
  6
CONTINUOUS
 62
7
 10
49.4734
 20
956.57748
 30
5.0
 40
10.25
 50
34.8499055556
 51
325.1500972222
  0
LINE
  8
1
  5
2B1
  6
CONTINUOUS
 62
7
 10
57.88508
 20
950.72034
 30
15.0
 11
57.88508
 21
950.72034
 31
5.0
  0
ARC
  8
1
  5
2B3
  6
CONTINUOUS
 62
7
 10
49.4734
 20
956.57748
 30
15.0
 40
10.25
 50
34.8499055556
 51
325.1500972222
  0
ARC
  8
1
  5
2B5
  6
CONTINUOUS
 62
7
 210
0.0
 220
0.0
 230
-1.0
 10
-61.249753
 20
948.37748
 30
-5.0
 40
4.1
 50
34.8499055556
 51
90.0
  0
LINE
  8
1
  5
2B7
  6
CONTINUOUS
 62
7
 10
61.24975
 20
952.47748
 30
15.0
 11
61.24975
 21
952.47748
 31
5.0
  0
ARC
  8
1
  5
2B9
  6
CONTINUOUS
 62
7
 210
0.0
 220
0.0
 230
-1.0
 10
-61.249753
 20
948.37748
 30
-15.0
 40
4.1
 50
34.8499055556
 51
90.0
  0
LINE
  8
1
  5
2BB
  6
CONTINUOUS
 62
7
 10
61.24975
 20
952.47748
 30
5.0
 11
73.69705
 21
952.47748
 31
5.0
  0
LINE
  8
1
  5
2BD
  6
CONTINUOUS
 62
7
 10
73.69705
 20
952.47748
 30
15.0
 11
73.69705
 21
952.47748
 31
5.0
  0
LINE
  8
1
  5
2BF
  6
CONTINUOUS
 62
7
 10
61.24975
 20
952.47748
 30
15.0
 11
73.69705
 21
952.47748
 31
15.0
  0
ARC
  8
1
  5
2C1
  6
CONTINUOUS
 62
7
 210
0.0
 220
0.0
 230
-1.0
 10
-73.697047
 20
948.37748
 30
-5.0
 40
4.1
 50
90.0
 51
145.1500944444
  0
LINE
  8
1
  5
2C3
  6
CONTINUOUS
 62
7
 10
77.06172
 20
950.72034
 30
15.0
 11
77.06172
 21
950.72034
 31
5.0
  0
ARC
  8
1
  5
2C5
  6
CONTINUOUS
 62
7
 210
0.0
 220
0.0
 230
-1.0
 10
-73.697047
 20
948.37748
 30
-15.0
 40
4.1
 50
90.0
 51
145.1500944444
  0
ARC
  8
1
  5
2C7
  6
CONTINUOUS
 62
7
 10
85.4734
 20
956.57748
 30
5.0
 40
10.25
 50
214.8499055556
 51
145.1500972222
  0
ARC
  8
1
  5
2C9
  6
CONTINUOUS
 62
7
 10
85.4734
 20
956.57748
 30
15.0
 40
10.25
 50
214.8499055556
 51
145.1500972222
  0
ENDBLK
  8
1
  5
2CA
  0
BLOCK
  8
1
  5
2CC
 70
1
 10
0.0
 20
0.0
 30
0.0
  2
*M24
  3
*M24
  0
LINE
  8
1
  5
2CE
  6
CONTINUOUS
 62
7
 10
39.2234
 20
927.87748
 30
15.0
 11
39.2234
 21
927.87748
 31
5.0
  0
LINE
  8
1
  5
2D0
  6
CONTINUOUS
 62
7
 10
49.4734
 20
938.12748
 30
15.0
 11
49.4734
 21
938.12748
 31
5.0
  0
LINE
  8
1
  5
2D2
  6
CONTINUOUS
 62
7
 10
49.4734
 20
917.62748
 30
15.0
 11
49.4734
 21
917.62748
 31
5.0
  0
LINE
  8
1
  5
2D4
  6
CONTINUOUS
 62
7
 10
85.4734
 20
938.12748
 30
15.0
 11
85.4734
 21
938.12748
 31
5.0
  0
LINE
  8
1
  5
2D6
  6
CONTINUOUS
 62
7
 10
95.7234
 20
927.87748
 30
15.0
 11
95.7234
 21
927.87748
 31
5.0
  0
LINE
  8
1
  5
2D8
  6
CONTINUOUS
 62
7
 10
85.4734
 20
917.62748
 30
15.0
 11
85.4734
 21
917.62748
 31
5.0
  0
ARC
  8
1
  5
2DA
  6
CONTINUOUS
 62
7
 210
0.0
 220
0.0
 230
-1.0
 10
-73.697047
 20
936.07748
 30
-5.0
 40
4.1
 50
214.8499055556
 51
270.0
  0
LINE
  8
1
  5
2DC
  6
CONTINUOUS
 62
7
 10
73.69705
 20
931.97748
 30
15.0
 11
73.69705
 21
931.97748
 31
5.0
  0
ARC
  8
1
  5
2DE
  6
CONTINUOUS
 62
7
 210
0.0
 220
0.0
 230
-1.0
 10
-73.697047
 20
936.07748
 30
-15.0
 40
4.1
 50
214.8499055556
 51
270.0
  0
LINE
  8
1
  5
2E0
  6
CONTINUOUS
 62
7
 10
77.06172
 20
933.73462
 30
15.0
 11
77.06172
 21
933.73462
 31
5.0
  0
LINE
  8
1
  5
2E2
  6
CONTINUOUS
 62
7
 10
73.69705
 20
931.97748
 30
5.0
 11
61.24975
 21
931.97748
 31
5.0
  0
LINE
  8
1
  5
2E4
  6
CONTINUOUS
 62
7
 10
61.24975
 20
931.97748
 30
15.0
 11
61.24975
 21
931.97748
 31
5.0
  0
LINE
  8
1
  5
2E6
  6
CONTINUOUS
 62
7
 10
73.69705
 20
931.97748
 30
15.0
 11
61.24975
 21
931.97748
 31
15.0
  0
ARC
  8
1
  5
2E8
  6
CONTINUOUS
 62
7
 210
0.0
 220
0.0
 230
-1.0
 10
-61.249753
 20
936.07748
 30
-5.0
 40
4.1
 50
270.0
 51
325.1500944444
  0
LINE
  8
1
  5
2EA
  6
CONTINUOUS
 62
7
 10
57.88508
 20
933.73462
 30
15.0
 11
57.88508
 21
933.73462
 31
5.0
  0
ARC
  8
1
  5
2EC
  6
CONTINUOUS
 62
7
 210
0.0
 220
0.0
 230
-1.0
 10
-61.249753
 20
936.07748
 30
-15.0
 40
4.1
 50
270.0
 51
325.1500944444
  0
ARC
  8
1
  5
2EE
  6
CONTINUOUS
 62
7
 10
49.4734
 20
927.87748
 30
5.0
 40
10.25
 50
34.8499055556
 51
325.1500972222
  0
LINE
  8
1
  5
2F0
  6
CONTINUOUS
 62
7
 10
57.88508
 20
922.02034
 30
15.0
 11
57.88508
 21
922.02034
 31
5.0
  0
ARC
  8
1
  5
2F2
  6
CONTINUOUS
 62
7
 10
49.4734
 20
927.87748
 30
15.0
 40
10.25
 50
34.8499055556
 51
325.1500972222
  0
ARC
  8
1
  5
2F4
  6
CONTINUOUS
 62
7
 210
0.0
 220
0.0
 230
-1.0
 10
-61.249753
 20
919.67748
 30
-5.0
 40
4.1
 50
34.8499055556
 51
90.0
  0
LINE
  8
1
  5
2F6
  6
CONTINUOUS
 62
7
 10
61.24975
 20
923.77748
 30
15.0
 11
61.24975
 21
923.77748
 31
5.0
  0
ARC
  8
1
  5
2F8
  6
CONTINUOUS
 62
7
 210
0.0
 220
0.0
 230
-1.0
 10
-61.249753
 20
919.67748
 30
-15.0
 40
4.1
 50
34.8499055556
 51
90.0
  0
LINE
  8
1
  5
2FA
  6
CONTINUOUS
 62
7
 10
61.24975
 20
923.77748
 30
5.0
 11
73.69705
 21
923.77748
 31
5.0
  0
LINE
  8
1
  5
2FC
  6
CONTINUOUS
 62
7
 10
73.69705
 20
923.77748
 30
15.0
 11
73.69705
 21
923.77748
 31
5.0
  0
LINE
  8
1
  5
2FE
  6
CONTINUOUS
 62
7
 10
61.24975
 20
923.77748
 30
15.0
 11
73.69705
 21
923.77748
 31
15.0
  0
ARC
  8
1
  5
300
  6
CONTINUOUS
 62
7
 210
0.0
 220
0.0
 230
-1.0
 10
-73.697047
 20
919.67748
 30
-5.0
 40
4.1
 50
90.0
 51
145.1500944444
  0
LINE
  8
1
  5
302
  6
CONTINUOUS
 62
7
 10
77.06172
 20
922.02034
 30
15.0
 11
77.06172
 21
922.02034
 31
5.0
  0
ARC
  8
1
  5
304
  6
CONTINUOUS
 62
7
 210
0.0
 220
0.0
 230
-1.0
 10
-73.697047
 20
919.67748
 30
-15.0
 40
4.1
 50
90.0
 51
145.1500944444
  0
ARC
  8
1
  5
306
  6
CONTINUOUS
 62
7
 10
85.4734
 20
927.87748
 30
5.0
 40
10.25
 50
214.8499055556
 51
145.1500972222
  0
ARC
  8
1
  5
308
  6
CONTINUOUS
 62
7
 10
85.4734
 20
927.87748
 30
15.0
 40
10.25
 50
214.8499055556
 51
145.1500972222
  0
ENDBLK
  8
1
  5
309
  0
BLOCK
  8
1
  5
30B
 70
1
 10
0.0
 20
0.0
 30
0.0
  2
*M25
  3
*M25
  0
LINE
  8
1
  5
30D
  6
CONTINUOUS
 62
7
 10
39.2234
 20
899.17748
 30
15.0
 11
39.2234
 21
899.17748
 31
5.0
  0
LINE
  8
1
  5
30F
  6
CONTINUOUS
 62
7
 10
49.4734
 20
909.42748
 30
15.0
 11
49.4734
 21
909.42748
 31
5.0
  0
LINE
  8
1
  5
311
  6
CONTINUOUS
 62
7
 10
49.4734
 20
888.92748
 30
15.0
 11
49.4734
 21
888.92748
 31
5.0
  0
LINE
  8
1
  5
313
  6
CONTINUOUS
 62
7
 10
85.4734
 20
909.42748
 30
15.0
 11
85.4734
 21
909.42748
 31
5.0
  0
LINE
  8
1
  5
315
  6
CONTINUOUS
 62
7
 10
95.7234
 20
899.17748
 30
15.0
 11
95.7234
 21
899.17748
 31
5.0
  0
LINE
  8
1
  5
317
  6
CONTINUOUS
 62
7
 10
85.4734
 20
888.92748
 30
15.0
 11
85.4734
 21
888.92748
 31
5.0
  0
ARC
  8
1
  5
319
  6
CONTINUOUS
 62
7
 210
0.0
 220
0.0
 230
-1.0
 10
-73.697047
 20
907.37748
 30
-5.0
 40
4.1
 50
214.8499055556
 51
270.0
  0
LINE
  8
1
  5
31B
  6
CONTINUOUS
 62
7
 10
73.69705
 20
903.27748
 30
15.0
 11
73.69705
 21
903.27748
 31
5.0
  0
ARC
  8
1
  5
31D
  6
CONTINUOUS
 62
7
 210
0.0
 220
0.0
 230
-1.0
 10
-73.697047
 20
907.37748
 30
-15.0
 40
4.1
 50
214.8499055556
 51
270.0
  0
LINE
  8
1
  5
31F
  6
CONTINUOUS
 62
7
 10
77.06172
 20
905.03462
 30
15.0
 11
77.06172
 21
905.03462
 31
5.0
  0
LINE
  8
1
  5
321
  6
CONTINUOUS
 62
7
 10
73.69705
 20
903.27748
 30
5.0
 11
61.24975
 21
903.27748
 31
5.0
  0
LINE
  8
1
  5
323
  6
CONTINUOUS
 62
7
 10
61.24975
 20
903.27748
 30
15.0
 11
61.24975
 21
903.27748
 31
5.0
  0
LINE
  8
1
  5
325
  6
CONTINUOUS
 62
7
 10
73.69705
 20
903.27748
 30
15.0
 11
61.24975
 21
903.27748
 31
15.0
  0
ARC
  8
1
  5
327
  6
CONTINUOUS
 62
7
 210
0.0
 220
0.0
 230
-1.0
 10
-61.249753
 20
907.37748
 30
-5.0
 40
4.1
 50
270.0
 51
325.1500944444
  0
LINE
  8
1
  5
329
  6
CONTINUOUS
 62
7
 10
57.88508
 20
905.03462
 30
15.0
 11
57.88508
 21
905.03462
 31
5.0
  0
ARC
  8
1
  5
32B
  6
CONTINUOUS
 62
7
 210
0.0
 220
0.0
 230
-1.0
 10
-61.249753
 20
907.37748
 30
-15.0
 40
4.1
 50
270.0
 51
325.1500944444
  0
ARC
  8
1
  5
32D
  6
CONTINUOUS
 62
7
 10
49.4734
 20
899.17748
 30
5.0
 40
10.25
 50
34.8499055556
 51
325.1500972222
  0
LINE
  8
1
  5
32F
  6
CONTINUOUS
 62
7
 10
57.88508
 20
893.32034
 30
15.0
 11
57.88508
 21
893.32034
 31
5.0
  0
ARC
  8
1
  5
331
  6
CONTINUOUS
 62
7
 10
49.4734
 20
899.17748
 30
15.0
 40
10.25
 50
34.8499055556
 51
325.1500972222
  0
ARC
  8
1
  5
333
  6
CONTINUOUS
 62
7
 210
0.0
 220
0.0
 230
-1.0
 10
-61.249753
 20
890.97748
 30
-5.0
 40
4.1
 50
34.8499055556
 51
90.0
  0
LINE
  8
1
  5
335
  6
CONTINUOUS
 62
7
 10
61.24975
 20
895.07748
 30
15.0
 11
61.24975
 21
895.07748
 31
5.0
  0
ARC
  8
1
  5
337
  6
CONTINUOUS
 62
7
 210
0.0
 220
0.0
 230
-1.0
 10
-61.249753
 20
890.97748
 30
-15.0
 40
4.1
 50
34.8499055556
 51
90.0
  0
LINE
  8
1
  5
339
  6
CONTINUOUS
 62
7
 10
61.24975
 20
895.07748
 30
5.0
 11
73.69705
 21
895.07748
 31
5.0
  0
LINE
  8
1
  5
33B
  6
CONTINUOUS
 62
7
 10
73.69705
 20
895.07748
 30
15.0
 11
73.69705
 21
895.07748
 31
5.0
  0
LINE
  8
1
  5
33D
  6
CONTINUOUS
 62
7
 10
61.24975
 20
895.07748
 30
15.0
 11
73.69705
 21
895.07748
 31
15.0
  0
ARC
  8
1
  5
33F
  6
CONTINUOUS
 62
7
 210
0.0
 220
0.0
 230
-1.0
 10
-73.697047
 20
890.97748
 30
-5.0
 40
4.1
 50
90.0
 51
145.1500944444
  0
LINE
  8
1
  5
341
  6
CONTINUOUS
 62
7
 10
77.06172
 20
893.32034
 30
15.0
 11
77.06172
 21
893.32034
 31
5.0
  0
ARC
  8
1
  5
343
  6
CONTINUOUS
 62
7
 210
0.0
 220
0.0
 230
-1.0
 10
-73.697047
 20
890.97748
 30
-15.0
 40
4.1
 50
90.0
 51
145.1500944444
  0
ARC
  8
1
  5
345
  6
CONTINUOUS
 62
7
 10
85.4734
 20
899.17748
 30
5.0
 40
10.25
 50
214.8499055556
 51
145.1500972222
  0
ARC
  8
1
  5
347
  6
CONTINUOUS
 62
7
 10
85.4734
 20
899.17748
 30
15.0
 40
10.25
 50
214.8499055556
 51
145.1500972222
  0
ENDBLK
  8
1
  5
348
  0
BLOCK
  8
1
  5
34A
 70
1
 10
0.0
 20
0.0
 30
0.0
  2
*M26
  3
*M26
  0
LINE
  8
1
  5
34C
  6
CONTINUOUS
 62
7
 10
39.2234
 20
870.47748
 30
15.0
 11
39.2234
 21
870.47748
 31
5.0
  0
LINE
  8
1
  5
34E
  6
CONTINUOUS
 62
7
 10
49.4734
 20
880.72748
 30
15.0
 11
49.4734
 21
880.72748
 31
5.0
  0
LINE
  8
1
  5
350
  6
CONTINUOUS
 62
7
 10
49.4734
 20
860.22748
 30
15.0
 11
49.4734
 21
860.22748
 31
5.0
  0
LINE
  8
1
  5
352
  6
CONTINUOUS
 62
7
 10
85.4734
 20
880.72748
 30
15.0
 11
85.4734
 21
880.72748
 31
5.0
  0
LINE
  8
1
  5
354
  6
CONTINUOUS
 62
7
 10
95.7234
 20
870.47748
 30
15.0
 11
95.7234
 21
870.47748
 31
5.0
  0
LINE
  8
1
  5
356
  6
CONTINUOUS
 62
7
 10
85.4734
 20
860.22748
 30
15.0
 11
85.4734
 21
860.22748
 31
5.0
  0
ARC
  8
1
  5
358
  6
CONTINUOUS
 62
7
 210
0.0
 220
0.0
 230
-1.0
 10
-73.697047
 20
878.67748
 30
-5.0
 40
4.1
 50
214.8499055556
 51
270.0
  0
LINE
  8
1
  5
35A
  6
CONTINUOUS
 62
7
 10
73.69705
 20
874.57748
 30
15.0
 11
73.69705
 21
874.57748
 31
5.0
  0
ARC
  8
1
  5
35C
  6
CONTINUOUS
 62
7
 210
0.0
 220
0.0
 230
-1.0
 10
-73.697047
 20
878.67748
 30
-15.0
 40
4.1
 50
214.8499055556
 51
270.0
  0
LINE
  8
1
  5
35E
  6
CONTINUOUS
 62
7
 10
77.06172
 20
876.33462
 30
15.0
 11
77.06172
 21
876.33462
 31
5.0
  0
LINE
  8
1
  5
360
  6
CONTINUOUS
 62
7
 10
73.69705
 20
874.57748
 30
5.0
 11
61.24975
 21
874.57748
 31
5.0
  0
LINE
  8
1
  5
362
  6
CONTINUOUS
 62
7
 10
61.24975
 20
874.57748
 30
15.0
 11
61.24975
 21
874.57748
 31
5.0
  0
LINE
  8
1
  5
364
  6
CONTINUOUS
 62
7
 10
73.69705
 20
874.57748
 30
15.0
 11
61.24975
 21
874.57748
 31
15.0
  0
ARC
  8
1
  5
366
  6
CONTINUOUS
 62
7
 210
0.0
 220
0.0
 230
-1.0
 10
-61.249753
 20
878.67748
 30
-5.0
 40
4.1
 50
270.0
 51
325.1500944444
  0
LINE
  8
1
  5
368
  6
CONTINUOUS
 62
7
 10
57.88508
 20
876.33462
 30
15.0
 11
57.88508
 21
876.33462
 31
5.0
  0
ARC
  8
1
  5
36A
  6
CONTINUOUS
 62
7
 210
0.0
 220
0.0
 230
-1.0
 10
-61.249753
 20
878.67748
 30
-15.0
 40
4.1
 50
270.0
 51
325.1500944444
  0
ARC
  8
1
  5
36C
  6
CONTINUOUS
 62
7
 10
49.4734
 20
870.47748
 30
5.0
 40
10.25
 50
34.8499055556
 51
325.1500972222
  0
LINE
  8
1
  5
36E
  6
CONTINUOUS
 62
7
 10
57.88508
 20
864.62034
 30
15.0
 11
57.88508
 21
864.62034
 31
5.0
  0
ARC
  8
1
  5
370
  6
CONTINUOUS
 62
7
 10
49.4734
 20
870.47748
 30
15.0
 40
10.25
 50
34.8499055556
 51
325.1500972222
  0
ARC
  8
1
  5
372
  6
CONTINUOUS
 62
7
 210
0.0
 220
0.0
 230
-1.0
 10
-61.249753
 20
862.27748
 30
-5.0
 40
4.1
 50
34.8499055556
 51
90.0
  0
LINE
  8
1
  5
374
  6
CONTINUOUS
 62
7
 10
61.24975
 20
866.37748
 30
15.0
 11
61.24975
 21
866.37748
 31
5.0
  0
ARC
  8
1
  5
376
  6
CONTINUOUS
 62
7
 210
0.0
 220
0.0
 230
-1.0
 10
-61.249753
 20
862.27748
 30
-15.0
 40
4.1
 50
34.8499055556
 51
90.0
  0
LINE
  8
1
  5
378
  6
CONTINUOUS
 62
7
 10
61.24975
 20
866.37748
 30
5.0
 11
73.69705
 21
866.37748
 31
5.0
  0
LINE
  8
1
  5
37A
  6
CONTINUOUS
 62
7
 10
73.69705
 20
866.37748
 30
15.0
 11
73.69705
 21
866.37748
 31
5.0
  0
LINE
  8
1
  5
37C
  6
CONTINUOUS
 62
7
 10
61.24975
 20
866.37748
 30
15.0
 11
73.69705
 21
866.37748
 31
15.0
  0
ARC
  8
1
  5
37E
  6
CONTINUOUS
 62
7
 210
0.0
 220
0.0
 230
-1.0
 10
-73.697047
 20
862.27748
 30
-5.0
 40
4.1
 50
90.0
 51
145.1500944444
  0
LINE
  8
1
  5
380
  6
CONTINUOUS
 62
7
 10
77.06172
 20
864.62034
 30
15.0
 11
77.06172
 21
864.62034
 31
5.0
  0
ARC
  8
1
  5
382
  6
CONTINUOUS
 62
7
 210
0.0
 220
0.0
 230
-1.0
 10
-73.697047
 20
862.27748
 30
-15.0
 40
4.1
 50
90.0
 51
145.1500944444
  0
ARC
  8
1
  5
384
  6
CONTINUOUS
 62
7
 10
85.4734
 20
870.47748
 30
5.0
 40
10.25
 50
214.8499055556
 51
145.1500972222
  0
ARC
  8
1
  5
386
  6
CONTINUOUS
 62
7
 10
85.4734
 20
870.47748
 30
15.0
 40
10.25
 50
214.8499055556
 51
145.1500972222
  0
ENDBLK
  8
1
  5
387
  0
ENDSEC
  0
SECTION
  2
ENTITIES
  0
INSERT
  8
1
  5
2
  6
CONTINUOUS
 62
7
  2
*M10
 10
-236.19248
 20
-1876.4847
 30
0.0
 41
1.0
 42
1.0
 43
1.0
 70
1
 71
1
  0
INSERT
  8
1
  5
4
  6
CONTINUOUS
 62
7
  2
*M21
 10
-151.24568
 20
-20.72974
 30
0.0
 41
1.0
 42
1.0
 43
1.0
 70
1
 71
1
  0
INSERT
  8
1
  5
6
  6
CONTINUOUS
 62
7
  2
*M22
 10
-236.19248
 20
-1676.3347
 30
-5.0
 41
1.0
 42
1.0
 43
1.0
 70
1
 71
1
  0
INSERT
  8
1
  5
8
  6
CONTINUOUS
 62
7
  2
*M23
 10
-236.19248
 20
-1676.3347
 30
-5.0
 41
1.0
 42
1.0
 43
1.0
 70
1
 71
1
  0
INSERT
  8
1
  5
A
  6
CONTINUOUS
 62
7
  2
*M24
 10
-236.19248
 20
-1676.3347
 30
-5.0
 41
1.0
 42
1.0
 43
1.0
 70
1
 71
1
  0
INSERT
  8
1
  5
C
  6
CONTINUOUS
 62
7
  2
*M25
 10
-236.19248
 20
-1676.3347
 30
-5.0
 41
1.0
 42
1.0
 43
1.0
 70
1
 71
1
  0
INSERT
  8
1
  5
E
  6
CONTINUOUS
 62
7
  2
*M26
 10
-236.19248
 20
-1676.3347
 30
-5.0
 41
1.0
 42
1.0
 43
1.0
 70
1
 71
1
  0
ENDSEC
  0
EOF
