  0
SECTION
  2
HEADER
  9
$ACADVER
  1
AC1009
  9
$INSBASE
 10
0.0
 20
0.0
 30
0.0
  9
$EXTMAX
 10
187.55445
 20
32.11063
 30
28.07053
  9
$EXTMIN
 10
-102.44555
 20
-157.8894
 30
-3.92947
  9
$LIMMAX
 10
12.0
 20
9.0
  9
$LIMMIN
 10
0.0
 20
0.0
  9
$ORTHOMODE
 70
0
  9
$REGENMODE
 70
1
  9
$FILLMODE
 70
1
  9
$QTEXTMODE
 70
0
  9
$MIRRTEXT
 70
1
  9
$DRAGMODE
 70
2
  9
$LTSCALE
 40
1.0
  9
$OSMODE
 70
0
  9
$ATTMODE
 70
1
  9
$TEXTSIZE
 40
0.2
  9
$TRACEWID
 40
0.05
  9
$TEXTSTYLE
  7
STANDARD
  9
$CLAYER
  8
0
  9
$CELTYPE
  6
CONTINUOUS
  9
$CECOLOR
 62
256
  9
$DIMSCALE
 40
1.0
  9
$DIMASZ
 40
0.18
  9
$DIMEXO
 40
0.0625
  9
$DIMDLI
 40
0.38
  9
$DIMRND
 40
0.0
  9
$DIMDLE
 40
0.0
  9
$DIMEXE
 40
0.18
  9
$DIMTP
 40
0.0
  9
$DIMTM
 40
0.0
  9
$DIMTXT
 40
0.18
  9
$DIMCEN
 40
0.09
  9
$DIMTSZ
 40
0.0
  9
$DIMTOL
 70
0
  9
$DIMLIM
 70
0
  9
$DIMTIH
 70
1
  9
$DIMTOH
 70
1
  9
$DIMSE1
 70
0
  9
$DIMSE2
 70
0
  9
$DIMTAD
 70
0
  9
$DIMZIN
 70
0
  9
$DIMBLK
  1

  9
$DIMASO
 70
1
  9
$DIMSHO
 70
1
  9
$DIMPOST
  1

  9
$DIMAPOST
  1

  9
$DIMALT
 70
0
  9
$DIMALTD
 70
2
  9
$DIMALTF
 40
25.4
  9
$DIMLFAC
 40
1.0
  9
$DIMTOFL
 70
0
  9
$DIMTVP
 40
0.0
  9
$DIMTIX
 70
0
  9
$DIMSOXD
 70
0
  9
$DIMSAH
 70
0
  9
$DIMBLK1
  1

  9
$DIMBLK2
  1

  9
$DIMSTYLE
  2
*UNNAMED
  9
$DIMCLRD
 70
0
  9
$DIMCLRE
 70
0
  9
$DIMCLRT
 70
0
  9
$DIMTFAC
 40
1.0
  9
$DIMGAP
 40
0.09
  9
$LUNITS
 70
2
  9
$LUPREC
 70
4
  9
$AXISMODE
 70
0
  9
$AXISUNIT
 10
0.0
 20
0.0
  9
$SKETCHINC
 40
0.1
  9
$FILLETRAD
 40
0.0
  9
$AUNITS
 70
0
  9
$AUPREC
 70
0
  9
$MENU
  1
acad
  9
$ELEVATION
 40
0.0
  9
$PELEVATION
 40
0.0
  9
$THICKNESS
 40
0.0
  9
$LIMCHECK
 70
0
  9
$BLIPMODE
 70
1
  9
$CHAMFERA
 40
0.0
  9
$CHAMFERB
 40
0.0
  9
$SKPOLY
 70
0
  9
$TDCREATE
 40
0.0
  9
$TDUPDATE
 40
0.0
  9
$TDINDWG
 40
0.0
  9
$TDUSRTIMER
 40
0.0
  9
$USRTIMER
 70
1
  9
$ANGBASE
 50
0.0
  9
$ANGDIR
 70
0
  9
$PDMODE
 70
0
  9
$PDSIZE
 40
0.0
  9
$PLINEWID
 40
0.0
  9
$COORDS
 70
0
  9
$SPLFRAME
 70
0
  9
$SPLINETYPE
 70
6
  9
$SPLINESEGS
 70
10
  9
$ATTDIA
 70
0
  9
$ATTREQ
 70
1
  9
$HANDLING
 70
1
  9
$HANDSEED
  5
D4
  9
$SURFTAB1
 70
6
  9
$SURFTAB2
 70
6
  9
$SURFTYPE
 70
6
  9
$SURFU
 70
10
  9
$SURFV
 70
10
  9
$UCSNAME
  2

  9
$UCSORG
 10
0.0
 20
0.0
 30
0.0
  9
$UCSXDIR
 10
1.0
 20
0.0
 30
0.0
  9
$UCSYDIR
 10
0.0
 20
1.0
 30
0.0
  9
$PUCSNAME
  2
 
  9
$PUCSORG
 10
0.0
 20
0.0
 30
0.0
  9
$PUCSXDIR
 10
1.0
 20
0.0
 30
0.0
  9
$PUCSYDIR
 10
0.0
 20
1.0
 30
0.0
  9
$USERI1
 70
0
  9
$USERI2
 70
0
  9
$USERI3
 70
0
  9
$USERI4
 70
0
  9
$USERI5
 70
0
  9
$USERR1
 40
0.0
  9
$USERR2
 40
0.0
  9
$USERR3
 40
0.0
  9
$USERR4
 40
0.0
  9
$USERR5
 40
0.0
  9
$WORLDVIEW
 70
1
  9
$SHADEDGE
 70
3
  9
$SHADEDIF
 70
70
  9
$TILEMODE
 70
1
  9
$MAXACTVP
 70
16
  9
$PINSBASE
 10
0.0
 20
0.0
 30
0.0
  9
$PLIMCHECK
 70
0
  9
$PEXTMIN
 10
-1.000000E+020
 20
-1.000000E+020
 30
-1.000000E+020
  9
$PEXTMAX
 10
-1.000000E+020
 20
-1.000000E+020
 30
-1.000000E+020
  9
$PLIMMIN
 10
0.0
 20
0.0
  9
$PLIMMAX
 10
12.0
 20
9.0
  9
$UNITMODE
 70
0
  9
$VISRETAIN
 70
0
  0
ENDSEC
  0
SECTION
  2
TABLES
  0
TABLE
  2
LTYPE
 70
7
  0
LTYPE
  2
CONTINUOUS
 70
64
  3
Solid line
 72
65
 73
0
 40
0.0
  0
LTYPE
  2
DOT
 70
64
  3
. . . . . . . . . . . . . . . . . . . . . . . . . . . . . . . . .
 72
65
 73
2
 40
0.25
 49
0.0
 49
-0.25
  0
LTYPE
  2
HIDDEN
 70
64
  3
__ __ __ __ __ __ __ __ __ __ __ __ __ __ __ __ __ __ __ __ __ 
 72
65
 73
2
 40
0.375
 49
0.25
 49
-0.125
  0
LTYPE
  2
DASHED
 70
64
  3
__ __ __ __ __ __ __ __ __ __ __ __ __ __ __ __ __ __ __ __ __
 72
65
 73
2
 40
0.75
 49
0.5
 49
-0.25
  0
LTYPE
  2
DASHDOT
 70
64
  3
__ . __ . __ . __ . __ . __ . __ . __ . __ . __ . __ . __ . _
 72
65
 73
4
 40
1.0
 49
0.5
 49
-0.25
 49
0.0
 49
-0.25
  0
LTYPE
  2
DIVIDE
 70
64
  3
____ . . ____ . . ____ . . ____ . . ____ . . ____ . . ____ . .
 72
65
 73
6
 40
1.25
 49
0.5
 49
-0.25
 49
0.0
 49
-0.25
 49
0.0
 49
-0.25
  0
LTYPE
  2
CENTER
 70
64
  3
____ _ ____ _ ____ _ ____ _ ____ _ ____ _ ____ _ ____ _ ____ _
 72
65
 73
4
 40
2.0
 49
1.25
 49
-0.25
 49
0.25
 49
-0.25
  0
ENDTAB
  0
TABLE
  2
APPID
 70
1
  0
APPID
  2
ACAD
 70
0
  0
ENDTAB
  0
TABLE
  2
DIMSTYLE
 70
0
  0
ENDTAB
  0
TABLE
  2
LAYER
 70
4
  0
LAYER
  2
0
 70
0
 62
7
  6
CONTINUOUS
  0
LAYER
  2
CONSTRUCTION_CLASS
 70
0
 62
7
  6
CONTINUOUS
  0
LAYER
  2
PATTERN_CLASS
 70
0
 62
7
  6
CONTINUOUS
  0
LAYER
  2
1
 70
0
 62
7
  6
CONTINUOUS
  0
ENDTAB
  0
TABLE
  2
STYLE
 70
1
  0
STYLE
  2
STANDARD
 70
0
 40
0.2
 41
1.0
 50
0.0
 71
0
 42
0.0
  3
txt
  4

  0
ENDTAB
  0
TABLE
  2
UCS
 70
0
  0
ENDTAB
  0
TABLE
  2
VIEW
 70
2
  0
VIEW
  2
AN_4
 70
0
 40
184.08589
 41
266.94694
 10
5.684342E-014
 20
4.263256E-014
 11
697.367456
 21
519.007202
 31
329.68983
 12
84.289249
 22
-71.590615
 32
36.906
 42
50.0
 43
464.8616
 44
-464.8616
 50
0.0
 71
0
  0
VIEW
  2
AN_5
 70
0
 40
188.27417
 41
272.91749
 10
0.0
 20
0.0
 11
135.559768
 21
77.131668
 31
99.909923
 12
24.854418
 22
-146.513275
 32
22.871679
 42
50.0
 43
92.61174
 44
-92.61174
 50
0.0
 71
0
  0
ENDTAB
  0
TABLE
  2
VPORT
 70
4
  0
VPORT
  2
*ACTIVE
 70
0
 10
0.500821
 20
0.50171
 11
0.998358
 21
0.997719
 12
0.0
 22
0.0
 13
0.0
 23
0.0
 14
0.0
 24
0.0
 15
0.0
 25
0.0
 16
0.0
 26
-2.490923E-015
 36
40.6812
 17
30.296864
 27
-62.88938
 37
12.07053
 40
195.775
 41
1.393103
 42
50.0
 43
20.3406
 44
-20.3406
 50
0.0
 51
0.0
 71
22
 72
100
 73
1
 74
0
 75
0
 76
0
 77
0
 78
0
  0
VPORT
  2
*ACTIVE
 70
0
 10
0.001642
 20
0.50171
 11
0.499179
 21
0.997719
 12
2.842171E-014
 22
0.0
 13
0.0
 23
0.0
 14
0.0
 24
0.0
 15
0.0
 25
0.0
 16
-159.394562
 26
-159.394562
 36
159.394562
 17
-1.602903
 27
-43.583296
 37
12.070534
 40
206.84102
 41
1.393103
 42
50.0
 43
138.03974
 44
-138.03974
 50
0.0
 51
0.0
 71
22
 72
100
 73
1
 74
0
 75
0
 76
0
 77
0
 78
0
  0
VPORT
  2
*ACTIVE
 70
0
 10
0.001642
 20
0.003421
 11
0.499179
 21
0.49943
 12
0.0
 22
0.0
 13
0.0
 23
0.0
 14
0.0
 24
0.0
 15
0.0
 25
0.0
 16
0.0
 26
-198.68122
 36
0.0
 17
30.296864
 27
-62.88939
 37
12.07053
 40
195.775
 41
1.393103
 42
50.0
 43
99.34061
 44
-99.34061
 50
0.0
 51
0.0
 71
22
 72
100
 73
1
 74
0
 75
0
 76
0
 77
0
 78
0
  0
VPORT
  2
*ACTIVE
 70
0
 10
0.500821
 20
0.003421
 11
0.998358
 21
0.49943
 12
0.0
 22
0.0
 13
0.0
 23
0.0
 14
0.0
 24
0.0
 15
0.0
 25
0.0
 16
297.25
 26
0.0
 36
0.0
 17
42.55445
 27
-70.974023
 37
12.07053
 40
129.12574
 41
1.393103
 42
50.0
 43
148.625
 44
-148.625
 50
0.0
 51
0.0
 71
22
 72
100
 73
1
 74
0
 75
0
 76
0
 77
0
 78
0
  0
ENDTAB
  0
ENDSEC
  0
SECTION
  2
BLOCKS
  0
BLOCK
  8
1
  5
6
 70
1
 10
0.0
 20
0.0
 30
0.0
  2
*M0
  3
*M0
  0
LINE
  8
1
  5
8
  6
CONTINUOUS
 62
7
 10
0.0
 20
90.0
 30
16.0
 11
0.0
 21
90.0
 31
0.0
  0
POLYLINE
  8
1
  5
A
  6
CONTINUOUS
 62
7
 10
0.0
 20
0.0
 30
0.0
 66
1
 70
0
  0
VERTEX
  8
1
  5
B
  6
CONTINUOUS
 62
7
 10
0.000001
 20
90.000001
 30
0.0
 42
0.060555
  0
VERTEX
  8
1
  5
C
  6
CONTINUOUS
 62
7
 10
6.700798
 20
90.8182
 30
0.0
 42
0.058531
  0
VERTEX
  8
1
  5
D
  6
CONTINUOUS
 62
7
 10
13.127467
 20
93.239326
 30
0.0
 42
0.055137
  0
VERTEX
  8
1
  5
E
  6
CONTINUOUS
 62
7
 10
19.017091
 20
97.16433
 30
0.0
 42
0.051282
  0
VERTEX
  8
1
  5
F
  6
CONTINUOUS
 62
7
 10
24.128727
 20
102.43264
 30
0.0
 42
0.047722
  0
VERTEX
  8
1
  5
10
  6
CONTINUOUS
 62
7
 10
28.253256
 20
108.828731
 30
0.0
 42
0.044913
  0
VERTEX
  8
1
  5
11
  6
CONTINUOUS
 62
7
 10
31.221947
 20
116.090937
 30
0.0
 42
0.04307
  0
VERTEX
  8
1
  5
12
  6
CONTINUOUS
 62
7
 10
32.913348
 20
123.922163
 30
0.0
 42
0.042271
  0
VERTEX
  8
1
  5
13
  6
CONTINUOUS
 62
7
 10
33.258265
 20
132.002033
 30
0.0
 42
0.042534
  0
VERTEX
  8
1
  5
14
  6
CONTINUOUS
 62
7
 10
32.242587
 20
140.0
 30
0.0
 42
0.042534
  0
SEQEND
  8
1
  5
15
  0
LINE
  8
1
  5
17
  6
CONTINUOUS
 62
7
 10
32.24259
 20
140.0
 30
16.0
 11
32.24259
 21
140.0
 31
0.0
  0
POLYLINE
  8
1
  5
19
  6
CONTINUOUS
 62
7
 10
0.0
 20
0.0
 30
16.0
 66
1
 70
0
  0
VERTEX
  8
1
  5
1A
  6
CONTINUOUS
 62
7
 10
0.000001
 20
90.000001
 30
16.0
 42
0.060555
  0
VERTEX
  8
1
  5
1B
  6
CONTINUOUS
 62
7
 10
6.700798
 20
90.8182
 30
16.0
 42
0.058531
  0
VERTEX
  8
1
  5
1C
  6
CONTINUOUS
 62
7
 10
13.127467
 20
93.239326
 30
16.0
 42
0.055137
  0
VERTEX
  8
1
  5
1D
  6
CONTINUOUS
 62
7
 10
19.017091
 20
97.16433
 30
16.0
 42
0.051282
  0
VERTEX
  8
1
  5
1E
  6
CONTINUOUS
 62
7
 10
24.128727
 20
102.43264
 30
16.0
 42
0.047722
  0
VERTEX
  8
1
  5
1F
  6
CONTINUOUS
 62
7
 10
28.253256
 20
108.828731
 30
16.0
 42
0.044913
  0
VERTEX
  8
1
  5
20
  6
CONTINUOUS
 62
7
 10
31.221947
 20
116.090937
 30
16.0
 42
0.04307
  0
VERTEX
  8
1
  5
21
  6
CONTINUOUS
 62
7
 10
32.913348
 20
123.922163
 30
16.0
 42
0.042271
  0
VERTEX
  8
1
  5
22
  6
CONTINUOUS
 62
7
 10
33.258265
 20
132.002033
 30
16.0
 42
0.042534
  0
VERTEX
  8
1
  5
23
  6
CONTINUOUS
 62
7
 10
32.242587
 20
140.0
 30
16.0
 42
0.042534
  0
SEQEND
  8
1
  5
24
  0
LINE
  8
1
  5
26
  6
CONTINUOUS
 62
7
 10
50.0
 20
90.0
 30
0.0
 11
0.0
 21
90.0
 31
0.0
  0
LINE
  8
1
  5
28
  6
CONTINUOUS
 62
7
 10
50.0
 20
140.0
 30
0.0
 11
50.0
 21
90.0
 31
0.0
  0
LINE
  8
1
  5
2A
  6
CONTINUOUS
 62
7
 10
32.24259
 20
140.0
 30
0.0
 11
50.0
 21
140.0
 31
0.0
  0
LINE
  8
1
  5
2C
  6
CONTINUOUS
 62
7
 10
50.0
 20
90.0
 30
16.0
 11
50.0
 21
90.0
 31
0.0
  0
LINE
  8
1
  5
2E
  6
CONTINUOUS
 62
7
 10
50.0
 20
140.0
 30
16.0
 11
50.0
 21
90.0
 31
16.0
  0
LINE
  8
1
  5
30
  6
CONTINUOUS
 62
7
 10
50.0
 20
140.0
 30
0.0
 11
50.0
 21
140.0
 31
16.0
  0
ENDBLK
  8
1
  5
31
  0
BLOCK
  8
1
  5
33
 70
1
 10
0.0
 20
0.0
 30
0.0
  2
*M1
  3
*M1
  0
LINE
  8
1
  5
35
  6
CONTINUOUS
 62
7
 10
0.0
 20
90.0
 30
0.0
 11
0.0
 21
90.0
 31
16.0
  0
LINE
  8
1
  5
37
  6
CONTINUOUS
 62
7
 10
190.0
 20
90.0
 30
0.0
 11
0.0
 21
90.0
 31
0.0
  0
LINE
  8
1
  5
39
  6
CONTINUOUS
 62
7
 10
190.0
 20
90.0
 30
0.0
 11
190.0
 21
90.0
 31
32.0
  0
LINE
  8
1
  5
3B
  6
CONTINUOUS
 62
7
 10
190.0
 20
90.0
 30
32.0
 11
50.0
 21
90.0
 31
32.0
  0
LINE
  8
1
  5
3D
  6
CONTINUOUS
 62
7
 10
0.0
 20
140.0
 30
32.0
 11
32.24259
 21
140.0
 31
32.0
  0
LINE
  8
1
  5
3F
  6
CONTINUOUS
 62
7
 10
0.0
 20
90.0
 30
32.0
 11
0.0
 21
140.0
 31
32.0
  0
LINE
  8
1
  5
41
  6
CONTINUOUS
 62
7
 10
190.0
 20
140.0
 30
32.0
 11
190.0
 21
90.0
 31
32.0
  0
LINE
  8
1
  5
43
  6
CONTINUOUS
 62
7
 10
190.0
 20
140.0
 30
0.0
 11
190.0
 21
90.0
 31
0.0
  0
LINE
  8
1
  5
45
  6
CONTINUOUS
 62
7
 10
190.0
 20
140.0
 30
0.0
 11
190.0
 21
140.0
 31
32.0
  0
LINE
  8
1
  5
47
  6
CONTINUOUS
 62
7
 10
0.0
 20
140.0
 30
0.0
 11
0.0
 21
140.0
 31
32.0
  0
LINE
  8
1
  5
49
  6
CONTINUOUS
 62
7
 10
0.0
 20
90.0
 30
0.0
 11
0.0
 21
140.0
 31
0.0
  0
LINE
  8
1
  5
4B
  6
CONTINUOUS
 62
7
 10
50.0
 20
140.0
 30
32.0
 11
190.0
 21
140.0
 31
32.0
  0
LINE
  8
1
  5
4D
  6
CONTINUOUS
 62
7
 10
0.0
 20
140.0
 30
0.0
 11
190.0
 21
140.0
 31
0.0
  0
ENDBLK
  8
1
  5
4E
  0
BLOCK
  8
1
  5
50
 70
1
 10
0.0
 20
0.0
 30
0.0
  2
*M2
  3
*M2
  0
INSERT
  8
1
  5
52
  6
CONTINUOUS
 62
7
  2
*M0
 10
0.0
 20
0.0
 30
16.0
 41
1.0
 42
1.0
 43
1.0
 70
1
 71
1
  0
INSERT
  8
1
  5
54
  6
CONTINUOUS
 62
7
  2
*M1
 10
0.0
 20
0.0
 30
0.0
 41
1.0
 42
1.0
 43
1.0
 70
1
 71
1
  0
ENDBLK
  8
1
  5
55
  0
BLOCK
  8
1
  5
57
 70
1
 10
0.0
 20
0.0
 30
0.0
  2
*M3
  3
*M3
  0
LINE
  8
1
  5
59
  6
CONTINUOUS
 62
7
 10
-102.44555
 20
-67.59188
 30
12.07053
 11
-102.44555
 21
-67.59188
 31
-3.92947
  0
LINE
  8
1
  5
5B
  6
CONTINUOUS
 62
7
 10
-52.44555
 20
-67.59188
 30
12.07053
 11
-102.44555
 21
-67.59188
 31
12.07053
  0
LINE
  8
1
  5
5D
  6
CONTINUOUS
 62
7
 10
-52.44555
 20
-67.59188
 30
-3.92947
 11
-52.44555
 21
-67.59188
 31
12.07053
  0
LINE
  8
1
  5
5F
  6
CONTINUOUS
 62
7
 10
-102.44555
 20
-67.59188
 30
-3.92947
 11
-52.44555
 21
-67.59188
 31
-3.92947
  0
POLYLINE
  8
1
  5
61
  6
CONTINUOUS
 62
7
 210
0.0
 220
0.0
 230
-1.0
 10
0.0
 20
0.0
 30
-12.07053
 66
1
 70
0
  0
VERTEX
  8
1
  5
62
  6
CONTINUOUS
 62
7
 10
70.202964
 20
-17.591881
 30
-12.07053
 42
0.042534
  0
VERTEX
  8
1
  5
63
  6
CONTINUOUS
 62
7
 10
69.187286
 20
-25.589848
 30
-12.07053
 42
0.042271
  0
VERTEX
  8
1
  5
64
  6
CONTINUOUS
 62
7
 10
69.532203
 20
-33.669718
 30
-12.07053
 42
0.04307
  0
VERTEX
  8
1
  5
65
  6
CONTINUOUS
 62
7
 10
71.223604
 20
-41.500943
 30
-12.07053
 42
0.044913
  0
VERTEX
  8
1
  5
66
  6
CONTINUOUS
 62
7
 10
74.192294
 20
-48.76315
 30
-12.07053
 42
0.047722
  0
VERTEX
  8
1
  5
67
  6
CONTINUOUS
 62
7
 10
78.316824
 20
-55.15924
 30
-12.07053
 42
0.051282
  0
VERTEX
  8
1
  5
68
  6
CONTINUOUS
 62
7
 10
83.42846
 20
-60.427551
 30
-12.07053
 42
0.055137
  0
VERTEX
  8
1
  5
69
  6
CONTINUOUS
 62
7
 10
89.318084
 20
-64.352555
 30
-12.07053
 42
0.058531
  0
VERTEX
  8
1
  5
6A
  6
CONTINUOUS
 62
7
 10
95.744752
 20
-66.77368
 30
-12.07053
 42
0.060555
  0
VERTEX
  8
1
  5
6B
  6
CONTINUOUS
 62
7
 10
102.44555
 20
-67.59188
 30
-12.07053
 42
0.060555
  0
SEQEND
  8
1
  5
6C
  0
LINE
  8
1
  5
6E
  6
CONTINUOUS
 62
7
 10
-70.20296
 20
-17.59188
 30
12.07053
 11
-52.44555
 21
-17.59188
 31
12.07053
  0
LINE
  8
1
  5
70
  6
CONTINUOUS
 62
7
 10
-52.44555
 20
-67.59188
 30
12.07053
 11
-52.44555
 21
-17.59188
 31
12.07053
  0
LINE
  8
1
  5
72
  6
CONTINUOUS
 62
7
 10
-70.20296
 20
-17.59188
 30
-3.92947
 11
-70.20296
 21
-17.59188
 31
12.07053
  0
LINE
  8
1
  5
74
  6
CONTINUOUS
 62
7
 10
-52.44555
 20
-17.59188
 30
-3.92947
 11
-70.20296
 21
-17.59188
 31
-3.92947
  0
LINE
  8
1
  5
76
  6
CONTINUOUS
 62
7
 10
-52.44555
 20
-17.59188
 30
12.07053
 11
-52.44555
 21
-17.59188
 31
-3.92947
  0
ENDBLK
  8
1
  5
77
  0
BLOCK
  8
1
  5
79
 70
1
 10
0.0
 20
0.0
 30
0.0
  2
*M4
  3
*M4
  0
LINE
  8
1
  5
7B
  6
CONTINUOUS
 62
7
 10
-102.44555
 20
-67.59188
 30
28.07053
 11
-102.44555
 21
-67.59188
 31
12.07053
  0
POLYLINE
  8
1
  5
7D
  6
CONTINUOUS
 62
7
 10
0.0
 20
0.0
 30
28.07053
 66
1
 70
0
  0
VERTEX
  8
1
  5
7E
  6
CONTINUOUS
 62
7
 10
-102.44555
 20
-67.59188
 30
28.07053
 42
0.060533
  0
VERTEX
  8
1
  5
7F
  6
CONTINUOUS
 62
7
 10
-95.747218
 20
-66.774289
 30
28.07053
 42
0.058511
  0
VERTEX
  8
1
  5
80
  6
CONTINUOUS
 62
7
 10
-89.322711
 20
-64.354938
 30
28.07053
 42
0.05512
  0
VERTEX
  8
1
  5
81
  6
CONTINUOUS
 62
7
 10
-83.434659
 20
-60.43273
 30
28.07053
 42
0.051268
  0
VERTEX
  8
1
  5
82
  6
CONTINUOUS
 62
7
 10
-78.323765
 20
-55.168003
 30
28.07053
 42
0.047709
  0
VERTEX
  8
1
  5
83
  6
CONTINUOUS
 62
7
 10
-74.198958
 20
-48.775976
 30
28.07053
 42
0.044901
  0
VERTEX
  8
1
  5
84
  6
CONTINUOUS
 62
7
 10
-71.228859
 20
-41.517953
 30
28.07053
 42
0.043058
  0
VERTEX
  8
1
  5
85
  6
CONTINUOUS
 62
7
 10
-69.534885
 20
-33.690638
 30
28.07053
 42
0.042256
  0
VERTEX
  8
1
  5
86
  6
CONTINUOUS
 62
7
 10
-69.186284
 20
-25.614009
 30
28.07053
 42
0.042516
  0
VERTEX
  8
1
  5
87
  6
CONTINUOUS
 62
7
 10
-70.197307
 20
-17.618234
 30
28.07053
 42
0.04383
  0
VERTEX
  8
1
  5
88
  6
CONTINUOUS
 62
7
 10
-72.526624
 20
-10.030177
 30
28.07053
 42
0.046161
  0
VERTEX
  8
1
  5
89
  6
CONTINUOUS
 62
7
 10
-76.079013
 20
-3.160035
 30
28.07053
 42
0.049375
  0
VERTEX
  8
1
  5
8A
  6
CONTINUOUS
 62
7
 10
-80.709254
 20
2.711344
 30
28.07053
 42
0.053153
  0
VERTEX
  8
1
  5
8B
  6
CONTINUOUS
 62
7
 10
-86.228066
 20
7.343941
 30
28.07053
 42
0.053153
  0
SEQEND
  8
1
  5
8C
  0
LINE
  8
1
  5
8E
  6
CONTINUOUS
 62
7
 10
-86.22807
 20
7.34394
 30
28.07053
 11
-86.22807
 21
7.34394
 31
-3.92947
  0
POLYLINE
  8
1
  5
90
  6
CONTINUOUS
 62
7
 210
0.0
 220
0.0
 230
-1.0
 10
0.0
 20
0.0
 30
3.92947
 66
1
 70
0
  0
VERTEX
  8
1
  5
91
  6
CONTINUOUS
 62
7
 10
86.228066
 20
7.343941
 30
3.92947
 42
0.05311
  0
VERTEX
  8
1
  5
92
  6
CONTINUOUS
 62
7
 10
80.713546
 20
2.715785
 30
3.92947
 42
0.049338
  0
VERTEX
  8
1
  5
93
  6
CONTINUOUS
 62
7
 10
76.085934
 20
-3.149262
 30
3.92947
 42
0.046128
  0
VERTEX
  8
1
  5
94
  6
CONTINUOUS
 62
7
 10
72.534088
 20
-10.011841
 30
3.92947
 42
0.043799
  0
VERTEX
  8
1
  5
95
  6
CONTINUOUS
 62
7
 10
70.202964
 20
-17.591881
 30
3.92947
 42
0.043799
  0
SEQEND
  8
1
  5
96
  0
LINE
  8
1
  5
98
  6
CONTINUOUS
 62
7
 10
-52.44555
 20
-157.8894
 30
-3.92947
 11
-52.44555
 21
-67.59188
 31
-3.92947
  0
LINE
  8
1
  5
9A
  6
CONTINUOUS
 62
7
 10
-102.44555
 20
-157.8894
 30
-3.92947
 11
-52.44555
 21
-157.8894
 31
-3.92947
  0
LINE
  8
1
  5
9C
  6
CONTINUOUS
 62
7
 10
-102.44555
 20
-67.59188
 30
-3.92947
 11
-102.44555
 21
-157.8894
 31
-3.92947
  0
LINE
  8
1
  5
9E
  6
CONTINUOUS
 62
7
 10
-102.44555
 20
-157.8894
 30
28.07053
 11
-102.44555
 21
-157.8894
 31
-3.92947
  0
LINE
  8
1
  5
A0
  6
CONTINUOUS
 62
7
 10
-102.44555
 20
-157.8894
 30
28.07053
 11
-102.44555
 21
-67.59188
 31
28.07053
  0
LINE
  8
1
  5
A2
  6
CONTINUOUS
 62
7
 10
-52.44555
 20
-157.8894
 30
28.07053
 11
-52.44555
 21
-157.8894
 31
-3.92947
  0
LINE
  8
1
  5
A4
  6
CONTINUOUS
 62
7
 10
-52.44555
 20
-157.8894
 30
28.07053
 11
-102.44555
 21
-157.8894
 31
28.07053
  0
LINE
  8
1
  5
A6
  6
CONTINUOUS
 62
7
 10
-52.44555
 20
-17.59188
 30
-3.92947
 11
-52.44555
 21
32.11063
 31
-3.92947
  0
LINE
  8
1
  5
A8
  6
CONTINUOUS
 62
7
 10
-52.44555
 20
32.11063
 30
28.07053
 11
-52.44555
 21
32.11063
 31
-3.92947
  0
LINE
  8
1
  5
AA
  6
CONTINUOUS
 62
7
 10
-52.44555
 20
32.11063
 30
28.07053
 11
-52.44555
 21
-157.8894
 31
28.07053
  0
POLYLINE
  8
1
  5
AC
  6
CONTINUOUS
 62
7
 10
0.0
 20
0.0
 30
-3.92947
 66
1
 70
0
  0
VERTEX
  8
1
  5
AD
  6
CONTINUOUS
 62
7
 10
-52.445548
 20
32.110634
 30
-3.92947
 42
0.031518
  0
VERTEX
  8
1
  5
AE
  6
CONTINUOUS
 62
7
 10
-65.508146
 20
27.222554
 30
-3.92947
 42
0.035818
  0
VERTEX
  8
1
  5
AF
  6
CONTINUOUS
 62
7
 10
-77.041105
 20
21.042597
 30
-3.92947
 42
0.041792
  0
VERTEX
  8
1
  5
B0
  6
CONTINUOUS
 62
7
 10
-86.711963
 20
13.748914
 30
-3.92947
 42
0.041792
  0
SEQEND
  8
1
  5
B1
  0
LINE
  8
1
  5
B3
  6
CONTINUOUS
 62
7
 10
-86.71196
 20
13.74891
 30
28.07053
 11
-86.71196
 21
13.74891
 31
-3.92947
  0
POLYLINE
  8
1
  5
B5
  6
CONTINUOUS
 62
7
 210
0.0
 220
0.0
 230
-1.0
 10
0.0
 20
0.0
 30
-28.07053
 66
1
 70
0
  0
VERTEX
  8
1
  5
B6
  6
CONTINUOUS
 62
7
 10
86.711963
 20
13.748914
 30
-28.07053
 42
0.041792
  0
VERTEX
  8
1
  5
B7
  6
CONTINUOUS
 62
7
 10
77.041105
 20
21.042597
 30
-28.07053
 42
0.035818
  0
VERTEX
  8
1
  5
B8
  6
CONTINUOUS
 62
7
 10
65.508146
 20
27.222554
 30
-28.07053
 42
0.031518
  0
VERTEX
  8
1
  5
B9
  6
CONTINUOUS
 62
7
 10
52.445548
 20
32.110634
 30
-28.07053
 42
0.031518
  0
SEQEND
  8
1
  5
BA
  0
POINT
  8
1
  5
BC
  6
CONTINUOUS
 62
7
 10
-86.71196
 20
13.74891
 30
-3.92947
 50
0.0
  0
LINE
  8
1
  5
BE
  6
CONTINUOUS
 62
7
 10
-86.71196
 20
13.74891
 30
28.07053
 11
-86.71196
 21
13.74891
 31
-3.92947
  0
POINT
  8
1
  5
C0
  6
CONTINUOUS
 62
7
 10
-86.71196
 20
13.74891
 30
28.07053
 50
0.0
  0
ARC
  8
1
  5
C2
  6
CONTINUOUS
 62
7
 10
-84.009629
 20
10.732305
 30
-3.92947
 40
4.05
 50
131.8545797342
 51
236.7862991787
  0
LINE
  8
1
  5
C4
  6
CONTINUOUS
 62
7
 10
-86.22807
 20
7.34394
 30
28.07053
 11
-86.22807
 21
7.34394
 31
-3.92947
  0
ARC
  8
1
  5
C6
  6
CONTINUOUS
 62
7
 210
0.0
 220
0.0
 230
-1.0
 10
84.009629
 20
10.732305
 30
-28.07053
 40
4.05
 50
303.2137008213
 51
48.1454202658
  0
POINT
  8
1
  5
C8
  6
CONTINUOUS
 62
7
 10
-86.22807
 20
7.34394
 30
-3.92947
 50
0.0
  0
POINT
  8
1
  5
CA
  6
CONTINUOUS
 62
7
 10
-86.22807
 20
7.34394
 30
28.07053
 50
0.0
  0
ENDBLK
  8
1
  5
CB
  0
BLOCK
  8
1
  5
CD
 70
1
 10
0.0
 20
0.0
 30
0.0
  2
*M5
  3
*M5
  0
INSERT
  8
1
  5
CF
  6
CONTINUOUS
 62
7
  2
*M3
 10
0.0
 20
0.0
 30
0.0
 41
1.0
 42
1.0
 43
1.0
 70
1
 71
1
  0
INSERT
  8
1
  5
D1
  6
CONTINUOUS
 62
7
  2
*M4
 10
0.0
 20
0.0
 30
0.0
 41
1.0
 42
1.0
 43
1.0
 70
1
 71
1
  0
ENDBLK
  8
1
  5
D2
  0
ENDSEC
  0
SECTION
  2
ENTITIES
  0
INSERT
  8
1
  5
2
  6
CONTINUOUS
 62
7
  2
*M2
 10
-2.44555
 20
-157.59188
 30
-3.92947
 41
1.0
 42
1.0
 43
1.0
 70
1
 71
1
  0
INSERT
  8
1
  5
4
  6
CONTINUOUS
 62
7
  2
*M5
 10
0.0
 20
0.0
 30
0.0
 41
1.0
 42
1.0
 43
1.0
 70
1
 71
1
  0
ENDSEC
  0
EOF
