  0
SECTION
  2
HEADER
  9
$ACADVER
  1
AC1009
  9
$INSBASE
 10
0.0
 20
0.0
 30
0.0
  9
$EXTMAX
 10
530.0
 20
380.0
 30
-9.99999
  9
$EXTMIN
 10
0.0
 20
0.0
 30
-25.0
  9
$LIMMAX
 10
12.0
 20
9.0
  9
$LIMMIN
 10
0.0
 20
0.0
  9
$ORTHOMODE
 70
0
  9
$REGENMODE
 70
1
  9
$FILLMODE
 70
1
  9
$QTEXTMODE
 70
0
  9
$MIRRTEXT
 70
1
  9
$DRAGMODE
 70
2
  9
$LTSCALE
 40
1.0
  9
$OSMODE
 70
0
  9
$ATTMODE
 70
1
  9
$TEXTSIZE
 40
0.2
  9
$TRACEWID
 40
0.05
  9
$TEXTSTYLE
  7
STANDARD
  9
$CLAYER
  8
0
  9
$CELTYPE
  6
CONTINUOUS
  9
$CECOLOR
 62
256
  9
$DIMSCALE
 40
1.0
  9
$DIMASZ
 40
0.18
  9
$DIMEXO
 40
0.0625
  9
$DIMDLI
 40
0.38
  9
$DIMRND
 40
0.0
  9
$DIMDLE
 40
0.0
  9
$DIMEXE
 40
0.18
  9
$DIMTP
 40
0.0
  9
$DIMTM
 40
0.0
  9
$DIMTXT
 40
0.18
  9
$DIMCEN
 40
0.09
  9
$DIMTSZ
 40
0.0
  9
$DIMTOL
 70
0
  9
$DIMLIM
 70
0
  9
$DIMTIH
 70
1
  9
$DIMTOH
 70
1
  9
$DIMSE1
 70
0
  9
$DIMSE2
 70
0
  9
$DIMTAD
 70
0
  9
$DIMZIN
 70
0
  9
$DIMBLK
  1

  9
$DIMASO
 70
1
  9
$DIMSHO
 70
1
  9
$DIMPOST
  1

  9
$DIMAPOST
  1

  9
$DIMALT
 70
0
  9
$DIMALTD
 70
2
  9
$DIMALTF
 40
25.4
  9
$DIMLFAC
 40
1.0
  9
$DIMTOFL
 70
0
  9
$DIMTVP
 40
0.0
  9
$DIMTIX
 70
0
  9
$DIMSOXD
 70
0
  9
$DIMSAH
 70
0
  9
$DIMBLK1
  1

  9
$DIMBLK2
  1

  9
$DIMSTYLE
  2
*UNNAMED
  9
$DIMCLRD
 70
0
  9
$DIMCLRE
 70
0
  9
$DIMCLRT
 70
0
  9
$DIMTFAC
 40
1.0
  9
$DIMGAP
 40
0.09
  9
$LUNITS
 70
2
  9
$LUPREC
 70
4
  9
$AXISMODE
 70
0
  9
$AXISUNIT
 10
0.0
 20
0.0
  9
$SKETCHINC
 40
0.1
  9
$FILLETRAD
 40
0.0
  9
$AUNITS
 70
0
  9
$AUPREC
 70
0
  9
$MENU
  1
acad
  9
$ELEVATION
 40
0.0
  9
$PELEVATION
 40
0.0
  9
$THICKNESS
 40
0.0
  9
$LIMCHECK
 70
0
  9
$BLIPMODE
 70
1
  9
$CHAMFERA
 40
0.0
  9
$CHAMFERB
 40
0.0
  9
$SKPOLY
 70
0
  9
$TDCREATE
 40
0.0
  9
$TDUPDATE
 40
0.0
  9
$TDINDWG
 40
0.0
  9
$TDUSRTIMER
 40
0.0
  9
$USRTIMER
 70
1
  9
$ANGBASE
 50
0.0
  9
$ANGDIR
 70
0
  9
$PDMODE
 70
0
  9
$PDSIZE
 40
0.0
  9
$PLINEWID
 40
0.0
  9
$COORDS
 70
0
  9
$SPLFRAME
 70
0
  9
$SPLINETYPE
 70
6
  9
$SPLINESEGS
 70
10
  9
$ATTDIA
 70
0
  9
$ATTREQ
 70
1
  9
$HANDLING
 70
1
  9
$HANDSEED
  5
25D
  9
$SURFTAB1
 70
6
  9
$SURFTAB2
 70
6
  9
$SURFTYPE
 70
6
  9
$SURFU
 70
10
  9
$SURFV
 70
10
  9
$UCSNAME
  2

  9
$UCSORG
 10
0.0
 20
0.0
 30
0.0
  9
$UCSXDIR
 10
1.0
 20
0.0
 30
0.0
  9
$UCSYDIR
 10
0.0
 20
1.0
 30
0.0
  9
$PUCSNAME
  2
 
  9
$PUCSORG
 10
0.0
 20
0.0
 30
0.0
  9
$PUCSXDIR
 10
1.0
 20
0.0
 30
0.0
  9
$PUCSYDIR
 10
0.0
 20
1.0
 30
0.0
  9
$USERI1
 70
0
  9
$USERI2
 70
0
  9
$USERI3
 70
0
  9
$USERI4
 70
0
  9
$USERI5
 70
0
  9
$USERR1
 40
0.0
  9
$USERR2
 40
0.0
  9
$USERR3
 40
0.0
  9
$USERR4
 40
0.0
  9
$USERR5
 40
0.0
  9
$WORLDVIEW
 70
1
  9
$SHADEDGE
 70
3
  9
$SHADEDIF
 70
70
  9
$TILEMODE
 70
1
  9
$MAXACTVP
 70
16
  9
$PINSBASE
 10
0.0
 20
0.0
 30
0.0
  9
$PLIMCHECK
 70
0
  9
$PEXTMIN
 10
-1.000000E+020
 20
-1.000000E+020
 30
-1.000000E+020
  9
$PEXTMAX
 10
-1.000000E+020
 20
-1.000000E+020
 30
-1.000000E+020
  9
$PLIMMIN
 10
0.0
 20
0.0
  9
$PLIMMAX
 10
12.0
 20
9.0
  9
$UNITMODE
 70
0
  9
$VISRETAIN
 70
0
  0
ENDSEC
  0
SECTION
  2
TABLES
  0
TABLE
  2
LTYPE
 70
7
  0
LTYPE
  2
CONTINUOUS
 70
64
  3
Solid line
 72
65
 73
0
 40
0.0
  0
LTYPE
  2
DOT
 70
64
  3
. . . . . . . . . . . . . . . . . . . . . . . . . . . . . . . . .
 72
65
 73
2
 40
0.25
 49
0.0
 49
-0.25
  0
LTYPE
  2
HIDDEN
 70
64
  3
__ __ __ __ __ __ __ __ __ __ __ __ __ __ __ __ __ __ __ __ __ 
 72
65
 73
2
 40
0.375
 49
0.25
 49
-0.125
  0
LTYPE
  2
DASHED
 70
64
  3
__ __ __ __ __ __ __ __ __ __ __ __ __ __ __ __ __ __ __ __ __
 72
65
 73
2
 40
0.75
 49
0.5
 49
-0.25
  0
LTYPE
  2
DASHDOT
 70
64
  3
__ . __ . __ . __ . __ . __ . __ . __ . __ . __ . __ . __ . _
 72
65
 73
4
 40
1.0
 49
0.5
 49
-0.25
 49
0.0
 49
-0.25
  0
LTYPE
  2
DIVIDE
 70
64
  3
____ . . ____ . . ____ . . ____ . . ____ . . ____ . . ____ . .
 72
65
 73
6
 40
1.25
 49
0.5
 49
-0.25
 49
0.0
 49
-0.25
 49
0.0
 49
-0.25
  0
LTYPE
  2
CENTER
 70
64
  3
____ _ ____ _ ____ _ ____ _ ____ _ ____ _ ____ _ ____ _ ____ _
 72
65
 73
4
 40
2.0
 49
1.25
 49
-0.25
 49
0.25
 49
-0.25
  0
ENDTAB
  0
TABLE
  2
APPID
 70
1
  0
APPID
  2
ACAD
 70
0
  0
ENDTAB
  0
TABLE
  2
DIMSTYLE
 70
0
  0
ENDTAB
  0
TABLE
  2
LAYER
 70
4
  0
LAYER
  2
0
 70
0
 62
7
  6
CONTINUOUS
  0
LAYER
  2
CONSTRUCTION_CLASS
 70
0
 62
7
  6
CONTINUOUS
  0
LAYER
  2
PATTERN_CLASS
 70
0
 62
7
  6
CONTINUOUS
  0
LAYER
  2
1
 70
0
 62
7
  6
CONTINUOUS
  0
ENDTAB
  0
TABLE
  2
STYLE
 70
1
  0
STYLE
  2
STANDARD
 70
0
 40
0.2
 41
1.0
 50
0.0
 71
0
 42
0.0
  3
txt
  4

  0
ENDTAB
  0
TABLE
  2
UCS
 70
0
  0
ENDTAB
  0
TABLE
  2
VIEW
 70
0
  0
ENDTAB
  0
TABLE
  2
VPORT
 70
4
  0
VPORT
  2
*ACTIVE
 70
0
 10
0.001642
 20
0.50168
 11
0.499179
 21
0.99776
 12
0.0
 22
0.0
 13
0.0
 23
0.0
 14
0.0
 24
0.0
 15
0.0
 25
0.0
 16
0.0
 26
-8.801552E-014
 36
1437.44998
 17
229.391159
 27
190.0
 37
-17.49999
 40
389.5
 41
1.367946
 42
50.0
 43
718.72499
 44
-718.72499
 50
0.0
 51
0.0
 71
22
 72
100
 73
1
 74
0
 75
0
 76
0
 77
0
 78
0
  0
VPORT
  2
*ACTIVE
 70
0
 10
0.500821
 20
0.50168
 11
0.998358
 21
0.99776
 12
-5.684342E-014
 22
8.526513E-014
 13
0.0
 23
0.0
 14
0.0
 24
0.0
 15
0.0
 25
0.0
 16
-963.333335
 26
-963.333335
 36
963.333335
 17
246.08542
 27
105.581247
 37
-19.583331
 40
324.81851
 41
1.367946
 42
50.0
 43
834.27114
 44
-834.27114
 50
0.0
 51
0.0
 71
22
 72
100
 73
1
 74
0
 75
0
 76
0
 77
0
 78
0
  0
VPORT
  2
*ACTIVE
 70
0
 10
0.001642
 20
0.003359
 11
0.499179
 21
0.49944
 12
0.0
 22
0.0
 13
0.0
 23
0.0
 14
0.0
 24
0.0
 15
0.0
 25
0.0
 16
0.0
 26
-1520.0
 36
0.0
 17
232.974405
 27
190.0
 37
-17.49999
 40
350.3054
 41
1.367946
 42
50.0
 43
760.0
 44
-760.0
 50
0.0
 51
0.0
 71
22
 72
100
 73
1
 74
0
 75
0
 76
0
 77
0
 78
0
  0
VPORT
  2
*ACTIVE
 70
0
 10
0.500821
 20
0.003359
 11
0.998358
 21
0.49944
 12
0.0
 22
0.0
 13
0.0
 23
0.0
 14
0.0
 24
0.0
 15
0.0
 25
0.0
 16
2120.0
 26
0.0
 36
0.0
 17
265.0
 27
166.94183
 37
-17.499995
 40
252.21705
 41
1.367946
 42
50.0
 43
1060.0
 44
-1060.0
 50
0.0
 51
0.0
 71
22
 72
100
 73
1
 74
0
 75
0
 76
0
 77
0
 78
0
  0
ENDTAB
  0
ENDSEC
  0
SECTION
  2
BLOCKS
  0
BLOCK
  8
1
  5
8
 70
1
 10
0.0
 20
0.0
 30
0.0
  2
*M0
  3
*M0
  0
LINE
  8
1
  5
A
  6
CONTINUOUS
 62
7
 10
202.5
 20
127.5
 30
15.0
 11
202.5
 21
127.5
 31
7.0
  0
LINE
  8
1
  5
C
  6
CONTINUOUS
 62
7
 10
225.0
 20
105.0
 30
15.0
 11
225.0
 21
105.0
 31
7.0
  0
LINE
  8
1
  5
E
  6
CONTINUOUS
 62
7
 10
262.5
 20
97.5
 30
15.0
 11
262.5
 21
97.5
 31
7.0
  0
LINE
  8
1
  5
10
  6
CONTINUOUS
 62
7
 10
255.0
 20
90.0
 30
15.0
 11
255.0
 21
90.0
 31
7.0
  0
LINE
  8
1
  5
12
  6
CONTINUOUS
 62
7
 10
202.5
 20
67.5
 30
15.0
 11
202.5
 21
67.5
 31
7.0
  0
LINE
  8
1
  5
14
  6
CONTINUOUS
 62
7
 10
225.0
 20
45.0
 30
15.0
 11
225.0
 21
45.0
 31
7.0
  0
LINE
  8
1
  5
16
  6
CONTINUOUS
 62
7
 10
262.5
 20
37.5
 30
15.0
 11
262.5
 21
37.5
 31
7.0
  0
LINE
  8
1
  5
18
  6
CONTINUOUS
 62
7
 10
255.0
 20
30.0
 30
15.0
 11
255.0
 21
30.0
 31
7.0
  0
LINE
  8
1
  5
1A
  6
CONTINUOUS
 62
7
 10
255.0
 20
60.0
 30
15.0
 11
255.0
 21
60.0
 31
7.0
  0
LINE
  8
1
  5
1C
  6
CONTINUOUS
 62
7
 10
277.5
 20
37.5
 30
15.0
 11
277.5
 21
37.5
 31
7.0
  0
LINE
  8
1
  5
1E
  6
CONTINUOUS
 62
7
 10
225.0
 20
75.0
 30
15.0
 11
225.0
 21
75.0
 31
7.0
  0
LINE
  8
1
  5
20
  6
CONTINUOUS
 62
7
 10
217.5
 20
67.5
 30
15.0
 11
217.5
 21
67.5
 31
7.0
  0
LINE
  8
1
  5
22
  6
CONTINUOUS
 62
7
 10
255.0
 20
120.0
 30
15.0
 11
255.0
 21
120.0
 31
7.0
  0
LINE
  8
1
  5
24
  6
CONTINUOUS
 62
7
 10
277.5
 20
97.5
 30
15.0
 11
277.5
 21
97.5
 31
7.0
  0
LINE
  8
1
  5
26
  6
CONTINUOUS
 62
7
 10
225.0
 20
135.0
 30
15.0
 11
225.0
 21
135.0
 31
7.0
  0
LINE
  8
1
  5
28
  6
CONTINUOUS
 62
7
 10
217.5
 20
127.5
 30
15.0
 11
217.5
 21
127.5
 31
7.0
  0
LINE
  8
1
  5
2A
  6
CONTINUOUS
 62
7
 10
262.5
 20
165.0
 30
7.0
 11
262.5
 21
157.5
 31
7.0
  0
LINE
  8
1
  5
2C
  6
CONTINUOUS
 62
7
 10
262.5
 20
157.5
 30
15.0
 11
262.5
 21
157.5
 31
7.0
  0
LINE
  8
1
  5
2E
  6
CONTINUOUS
 62
7
 10
262.5
 20
165.0
 30
15.0
 11
262.5
 21
157.5
 31
15.0
  0
LINE
  8
1
  5
30
  6
CONTINUOUS
 62
7
 10
262.5
 20
165.0
 30
15.0
 11
262.5
 21
165.0
 31
7.0
  0
ARC
  8
1
  5
32
  6
CONTINUOUS
 62
7
 210
0.0
 220
0.0
 230
-1.0
 10
-255.0
 20
157.5
 30
-7.0
 40
7.5
 50
180.0
 51
270.0
  0
LINE
  8
1
  5
34
  6
CONTINUOUS
 62
7
 10
255.0
 20
150.0
 30
15.0
 11
255.0
 21
150.0
 31
7.0
  0
ARC
  8
1
  5
36
  6
CONTINUOUS
 62
7
 210
0.0
 220
0.0
 230
-1.0
 10
-255.0
 20
157.5
 30
-15.0
 40
7.5
 50
180.0
 51
270.0
  0
LINE
  8
1
  5
38
  6
CONTINUOUS
 62
7
 10
255.0
 20
150.0
 30
7.0
 11
225.0
 21
150.0
 31
7.0
  0
LINE
  8
1
  5
3A
  6
CONTINUOUS
 62
7
 10
225.0
 20
150.0
 30
15.0
 11
225.0
 21
150.0
 31
7.0
  0
LINE
  8
1
  5
3C
  6
CONTINUOUS
 62
7
 10
255.0
 20
150.0
 30
15.0
 11
225.0
 21
150.0
 31
15.0
  0
ARC
  8
1
  5
3E
  6
CONTINUOUS
 62
7
 10
225.0
 20
127.5
 30
7.0
 40
22.5
 50
90.0
 51
270.0
  0
LINE
  8
1
  5
40
  6
CONTINUOUS
 62
7
 10
225.0
 20
105.0
 30
15.0
 11
225.0
 21
105.0
 31
7.0
  0
ARC
  8
1
  5
42
  6
CONTINUOUS
 62
7
 10
225.0
 20
127.5
 30
15.0
 40
22.5
 50
90.0
 51
270.0
  0
LINE
  8
1
  5
44
  6
CONTINUOUS
 62
7
 10
225.0
 20
105.0
 30
7.0
 11
255.0
 21
105.0
 31
7.0
  0
LINE
  8
1
  5
46
  6
CONTINUOUS
 62
7
 10
255.0
 20
105.0
 30
15.0
 11
255.0
 21
105.0
 31
7.0
  0
LINE
  8
1
  5
48
  6
CONTINUOUS
 62
7
 10
225.0
 20
105.0
 30
15.0
 11
255.0
 21
105.0
 31
15.0
  0
ARC
  8
1
  5
4A
  6
CONTINUOUS
 62
7
 210
0.0
 220
0.0
 230
-1.0
 10
-255.0
 20
97.5
 30
-7.0
 40
7.5
 50
90.0
 51
270.0
  0
LINE
  8
1
  5
4C
  6
CONTINUOUS
 62
7
 10
255.0
 20
90.0
 30
15.0
 11
255.0
 21
90.0
 31
7.0
  0
ARC
  8
1
  5
4E
  6
CONTINUOUS
 62
7
 210
0.0
 220
0.0
 230
-1.0
 10
-255.0
 20
97.5
 30
-15.0
 40
7.5
 50
90.0
 51
270.0
  0
LINE
  8
1
  5
50
  6
CONTINUOUS
 62
7
 10
255.0
 20
90.0
 30
7.0
 11
225.0
 21
90.0
 31
7.0
  0
LINE
  8
1
  5
52
  6
CONTINUOUS
 62
7
 10
225.0
 20
90.0
 30
15.0
 11
225.0
 21
90.0
 31
7.0
  0
LINE
  8
1
  5
54
  6
CONTINUOUS
 62
7
 10
255.0
 20
90.0
 30
15.0
 11
225.0
 21
90.0
 31
15.0
  0
ARC
  8
1
  5
56
  6
CONTINUOUS
 62
7
 10
225.0
 20
67.5
 30
7.0
 40
22.5
 50
90.0
 51
270.0
  0
LINE
  8
1
  5
58
  6
CONTINUOUS
 62
7
 10
225.0
 20
45.0
 30
15.0
 11
225.0
 21
45.0
 31
7.0
  0
ARC
  8
1
  5
5A
  6
CONTINUOUS
 62
7
 10
225.0
 20
67.5
 30
15.0
 40
22.5
 50
90.0
 51
270.0
  0
LINE
  8
1
  5
5C
  6
CONTINUOUS
 62
7
 10
225.0
 20
45.0
 30
7.0
 11
255.0
 21
45.0
 31
7.0
  0
LINE
  8
1
  5
5E
  6
CONTINUOUS
 62
7
 10
255.0
 20
45.0
 30
15.0
 11
255.0
 21
45.0
 31
7.0
  0
LINE
  8
1
  5
60
  6
CONTINUOUS
 62
7
 10
225.0
 20
45.0
 30
15.0
 11
255.0
 21
45.0
 31
15.0
  0
ARC
  8
1
  5
62
  6
CONTINUOUS
 62
7
 210
0.0
 220
0.0
 230
-1.0
 10
-255.0
 20
37.5
 30
-7.0
 40
7.5
 50
90.0
 51
270.0
  0
LINE
  8
1
  5
64
  6
CONTINUOUS
 62
7
 10
255.0
 20
30.0
 30
15.0
 11
255.0
 21
30.0
 31
7.0
  0
ARC
  8
1
  5
66
  6
CONTINUOUS
 62
7
 210
0.0
 220
0.0
 230
-1.0
 10
-255.0
 20
37.5
 30
-15.0
 40
7.5
 50
90.0
 51
270.0
  0
LINE
  8
1
  5
68
  6
CONTINUOUS
 62
7
 10
255.0
 20
30.0
 30
7.0
 11
225.0
 21
30.0
 31
7.0
  0
LINE
  8
1
  5
6A
  6
CONTINUOUS
 62
7
 10
225.0
 20
30.0
 30
15.0
 11
225.0
 21
30.0
 31
7.0
  0
LINE
  8
1
  5
6C
  6
CONTINUOUS
 62
7
 10
255.0
 20
30.0
 30
15.0
 11
225.0
 21
30.0
 31
15.0
  0
ARC
  8
1
  5
6E
  6
CONTINUOUS
 62
7
 10
225.0
 20
7.5
 30
7.0
 40
22.5
 50
90.0
 51
180.0
  0
LINE
  8
1
  5
70
  6
CONTINUOUS
 62
7
 10
202.5
 20
7.5
 30
15.0
 11
202.5
 21
7.5
 31
7.0
  0
ARC
  8
1
  5
72
  6
CONTINUOUS
 62
7
 10
225.0
 20
7.5
 30
15.0
 40
22.5
 50
90.0
 51
180.0
  0
LINE
  8
1
  5
74
  6
CONTINUOUS
 62
7
 10
202.5
 20
7.5
 30
7.0
 11
202.5
 21
0.0
 31
7.0
  0
LINE
  8
1
  5
76
  6
CONTINUOUS
 62
7
 10
202.5
 20
0.0
 30
15.0
 11
202.5
 21
0.0
 31
7.0
  0
LINE
  8
1
  5
78
  6
CONTINUOUS
 62
7
 10
202.5
 20
7.5
 30
15.0
 11
202.5
 21
0.0
 31
15.0
  0
LINE
  8
1
  5
7A
  6
CONTINUOUS
 62
7
 10
202.5
 20
0.0
 30
7.0
 11
217.5
 21
0.0
 31
7.0
  0
LINE
  8
1
  5
7C
  6
CONTINUOUS
 62
7
 10
217.5
 20
0.0
 30
15.0
 11
217.5
 21
0.0
 31
7.0
  0
LINE
  8
1
  5
7E
  6
CONTINUOUS
 62
7
 10
202.5
 20
0.0
 30
15.0
 11
217.5
 21
0.0
 31
15.0
  0
LINE
  8
1
  5
80
  6
CONTINUOUS
 62
7
 10
217.5
 20
0.0
 30
7.0
 11
217.5
 21
7.5
 31
7.0
  0
LINE
  8
1
  5
82
  6
CONTINUOUS
 62
7
 10
217.5
 20
7.5
 30
15.0
 11
217.5
 21
7.5
 31
7.0
  0
LINE
  8
1
  5
84
  6
CONTINUOUS
 62
7
 10
217.5
 20
0.0
 30
15.0
 11
217.5
 21
7.5
 31
15.0
  0
ARC
  8
1
  5
86
  6
CONTINUOUS
 62
7
 210
0.0
 220
0.0
 230
-1.0
 10
-225.0
 20
7.5
 30
-7.0
 40
7.5
 50
360.0
 51
90.0
  0
LINE
  8
1
  5
88
  6
CONTINUOUS
 62
7
 10
225.0
 20
15.0
 30
15.0
 11
225.0
 21
15.0
 31
7.0
  0
ARC
  8
1
  5
8A
  6
CONTINUOUS
 62
7
 210
0.0
 220
0.0
 230
-1.0
 10
-225.0
 20
7.5
 30
-15.0
 40
7.5
 50
360.0
 51
90.0
  0
LINE
  8
1
  5
8C
  6
CONTINUOUS
 62
7
 10
225.0
 20
15.0
 30
7.0
 11
255.0
 21
15.0
 31
7.0
  0
LINE
  8
1
  5
8E
  6
CONTINUOUS
 62
7
 10
255.0
 20
15.0
 30
15.0
 11
255.0
 21
15.0
 31
7.0
  0
LINE
  8
1
  5
90
  6
CONTINUOUS
 62
7
 10
225.0
 20
15.0
 30
15.0
 11
255.0
 21
15.0
 31
15.0
  0
ARC
  8
1
  5
92
  6
CONTINUOUS
 62
7
 10
255.0
 20
37.5
 30
7.0
 40
22.5
 50
270.0
 51
90.0
  0
LINE
  8
1
  5
94
  6
CONTINUOUS
 62
7
 10
255.0
 20
60.0
 30
15.0
 11
255.0
 21
60.0
 31
7.0
  0
ARC
  8
1
  5
96
  6
CONTINUOUS
 62
7
 10
255.0
 20
37.5
 30
15.0
 40
22.5
 50
270.0
 51
90.0
  0
LINE
  8
1
  5
98
  6
CONTINUOUS
 62
7
 10
255.0
 20
60.0
 30
7.0
 11
225.0
 21
60.0
 31
7.0
  0
LINE
  8
1
  5
9A
  6
CONTINUOUS
 62
7
 10
225.0
 20
60.0
 30
15.0
 11
225.0
 21
60.0
 31
7.0
  0
LINE
  8
1
  5
9C
  6
CONTINUOUS
 62
7
 10
255.0
 20
60.0
 30
15.0
 11
225.0
 21
60.0
 31
15.0
  0
ARC
  8
1
  5
9E
  6
CONTINUOUS
 62
7
 210
0.0
 220
0.0
 230
-1.0
 10
-225.0
 20
67.5
 30
-7.0
 40
7.5
 50
270.0
 51
90.0
  0
LINE
  8
1
  5
A0
  6
CONTINUOUS
 62
7
 10
225.0
 20
75.0
 30
15.0
 11
225.0
 21
75.0
 31
7.0
  0
ARC
  8
1
  5
A2
  6
CONTINUOUS
 62
7
 210
0.0
 220
0.0
 230
-1.0
 10
-225.0
 20
67.5
 30
-15.0
 40
7.5
 50
270.0
 51
90.0
  0
LINE
  8
1
  5
A4
  6
CONTINUOUS
 62
7
 10
225.0
 20
75.0
 30
7.0
 11
255.0
 21
75.0
 31
7.0
  0
LINE
  8
1
  5
A6
  6
CONTINUOUS
 62
7
 10
255.0
 20
75.0
 30
15.0
 11
255.0
 21
75.0
 31
7.0
  0
LINE
  8
1
  5
A8
  6
CONTINUOUS
 62
7
 10
225.0
 20
75.0
 30
15.0
 11
255.0
 21
75.0
 31
15.0
  0
ARC
  8
1
  5
AA
  6
CONTINUOUS
 62
7
 10
255.0
 20
97.5
 30
7.0
 40
22.5
 50
270.0
 51
90.0
  0
LINE
  8
1
  5
AC
  6
CONTINUOUS
 62
7
 10
255.0
 20
120.0
 30
15.0
 11
255.0
 21
120.0
 31
7.0
  0
ARC
  8
1
  5
AE
  6
CONTINUOUS
 62
7
 10
255.0
 20
97.5
 30
15.0
 40
22.5
 50
270.0
 51
90.0
  0
LINE
  8
1
  5
B0
  6
CONTINUOUS
 62
7
 10
255.0
 20
120.0
 30
7.0
 11
225.0
 21
120.0
 31
7.0
  0
LINE
  8
1
  5
B2
  6
CONTINUOUS
 62
7
 10
225.0
 20
120.0
 30
15.0
 11
225.0
 21
120.0
 31
7.0
  0
LINE
  8
1
  5
B4
  6
CONTINUOUS
 62
7
 10
255.0
 20
120.0
 30
15.0
 11
225.0
 21
120.0
 31
15.0
  0
ARC
  8
1
  5
B6
  6
CONTINUOUS
 62
7
 210
0.0
 220
0.0
 230
-1.0
 10
-225.0
 20
127.5
 30
-7.0
 40
7.5
 50
270.0
 51
90.0
  0
LINE
  8
1
  5
B8
  6
CONTINUOUS
 62
7
 10
225.0
 20
135.0
 30
15.0
 11
225.0
 21
135.0
 31
7.0
  0
ARC
  8
1
  5
BA
  6
CONTINUOUS
 62
7
 210
0.0
 220
0.0
 230
-1.0
 10
-225.0
 20
127.5
 30
-15.0
 40
7.5
 50
270.0
 51
90.0
  0
LINE
  8
1
  5
BC
  6
CONTINUOUS
 62
7
 10
225.0
 20
135.0
 30
7.0
 11
255.0
 21
135.0
 31
7.0
  0
LINE
  8
1
  5
BE
  6
CONTINUOUS
 62
7
 10
255.0
 20
135.0
 30
15.0
 11
255.0
 21
135.0
 31
7.0
  0
LINE
  8
1
  5
C0
  6
CONTINUOUS
 62
7
 10
225.0
 20
135.0
 30
15.0
 11
255.0
 21
135.0
 31
15.0
  0
ARC
  8
1
  5
C2
  6
CONTINUOUS
 62
7
 10
255.0
 20
157.5
 30
7.0
 40
22.5
 50
270.0
 51
360.0
  0
LINE
  8
1
  5
C4
  6
CONTINUOUS
 62
7
 10
277.5
 20
157.5
 30
15.0
 11
277.5
 21
157.5
 31
7.0
  0
ARC
  8
1
  5
C6
  6
CONTINUOUS
 62
7
 10
255.0
 20
157.5
 30
15.0
 40
22.5
 50
270.0
 51
360.0
  0
LINE
  8
1
  5
C8
  6
CONTINUOUS
 62
7
 10
277.5
 20
157.5
 30
7.0
 11
277.5
 21
165.0
 31
7.0
  0
LINE
  8
1
  5
CA
  6
CONTINUOUS
 62
7
 10
277.5
 20
165.0
 30
15.0
 11
277.5
 21
165.0
 31
7.0
  0
LINE
  8
1
  5
CC
  6
CONTINUOUS
 62
7
 10
277.5
 20
157.5
 30
15.0
 11
277.5
 21
165.0
 31
15.0
  0
LINE
  8
1
  5
CE
  6
CONTINUOUS
 62
7
 10
277.5
 20
165.0
 30
7.0
 11
262.5
 21
165.0
 31
7.0
  0
LINE
  8
1
  5
D0
  6
CONTINUOUS
 62
7
 10
277.5
 20
165.0
 30
15.0
 11
262.5
 21
165.0
 31
15.0
  0
ENDBLK
  8
1
  5
D1
  0
BLOCK
  8
1
  5
D3
 70
1
 10
0.0
 20
0.0
 30
0.0
  2
*M1
  3
*M1
  0
LINE
  8
1
  5
D5
  6
CONTINUOUS
 62
7
 10
202.5
 20
127.5
 30
15.0
 11
202.5
 21
127.5
 31
7.0
  0
LINE
  8
1
  5
D7
  6
CONTINUOUS
 62
7
 10
225.0
 20
150.0
 30
15.0
 11
225.0
 21
150.0
 31
7.0
  0
LINE
  8
1
  5
D9
  6
CONTINUOUS
 62
7
 10
202.5
 20
67.5
 30
15.0
 11
202.5
 21
67.5
 31
7.0
  0
LINE
  8
1
  5
DB
  6
CONTINUOUS
 62
7
 10
225.0
 20
90.0
 30
15.0
 11
225.0
 21
90.0
 31
7.0
  0
LINE
  8
1
  5
DD
  6
CONTINUOUS
 62
7
 10
225.0
 20
60.0
 30
15.0
 11
225.0
 21
60.0
 31
7.0
  0
LINE
  8
1
  5
DF
  6
CONTINUOUS
 62
7
 10
217.5
 20
67.5
 30
15.0
 11
217.5
 21
67.5
 31
7.0
  0
LINE
  8
1
  5
E1
  6
CONTINUOUS
 62
7
 10
225.0
 20
120.0
 30
15.0
 11
225.0
 21
120.0
 31
7.0
  0
LINE
  8
1
  5
E3
  6
CONTINUOUS
 62
7
 10
217.5
 20
127.5
 30
15.0
 11
217.5
 21
127.5
 31
7.0
  0
LINE
  8
1
  5
E5
  6
CONTINUOUS
 62
7
 10
240.0
 20
30.0
 30
15.0
 11
240.0
 21
30.0
 31
7.0
  0
LINE
  8
1
  5
E7
  6
CONTINUOUS
 62
7
 10
225.0
 20
30.0
 30
15.0
 11
240.0
 21
30.0
 31
15.0
  0
LINE
  8
1
  5
E9
  6
CONTINUOUS
 62
7
 10
225.0
 20
30.0
 30
15.0
 11
225.0
 21
30.0
 31
7.0
  0
LINE
  8
1
  5
EB
  6
CONTINUOUS
 62
7
 10
240.0
 20
30.0
 30
7.0
 11
225.0
 21
30.0
 31
7.0
  0
LINE
  8
1
  5
ED
  6
CONTINUOUS
 62
7
 10
240.0
 20
45.0
 30
7.0
 11
240.0
 21
45.0
 31
15.0
  0
LINE
  8
1
  5
EF
  6
CONTINUOUS
 62
7
 10
225.0
 20
45.0
 30
7.0
 11
240.0
 21
45.0
 31
7.0
  0
LINE
  8
1
  5
F1
  6
CONTINUOUS
 62
7
 10
225.0
 20
45.0
 30
15.0
 11
225.0
 21
45.0
 31
7.0
  0
LINE
  8
1
  5
F3
  6
CONTINUOUS
 62
7
 10
240.0
 20
45.0
 30
15.0
 11
225.0
 21
45.0
 31
15.0
  0
LINE
  8
1
  5
F5
  6
CONTINUOUS
 62
7
 10
240.0
 20
90.0
 30
15.0
 11
240.0
 21
90.0
 31
7.0
  0
LINE
  8
1
  5
F7
  6
CONTINUOUS
 62
7
 10
225.0
 20
90.0
 30
15.0
 11
240.0
 21
90.0
 31
15.0
  0
LINE
  8
1
  5
F9
  6
CONTINUOUS
 62
7
 10
225.0
 20
90.0
 30
15.0
 11
225.0
 21
90.0
 31
7.0
  0
LINE
  8
1
  5
FB
  6
CONTINUOUS
 62
7
 10
240.0
 20
90.0
 30
7.0
 11
225.0
 21
90.0
 31
7.0
  0
LINE
  8
1
  5
FD
  6
CONTINUOUS
 62
7
 10
240.0
 20
105.0
 30
7.0
 11
240.0
 21
105.0
 31
15.0
  0
LINE
  8
1
  5
FF
  6
CONTINUOUS
 62
7
 10
225.0
 20
105.0
 30
7.0
 11
240.0
 21
105.0
 31
7.0
  0
LINE
  8
1
  5
101
  6
CONTINUOUS
 62
7
 10
225.0
 20
105.0
 30
15.0
 11
225.0
 21
105.0
 31
7.0
  0
LINE
  8
1
  5
103
  6
CONTINUOUS
 62
7
 10
240.0
 20
105.0
 30
15.0
 11
225.0
 21
105.0
 31
15.0
  0
LINE
  8
1
  5
105
  6
CONTINUOUS
 62
7
 10
240.0
 20
150.0
 30
15.0
 11
240.0
 21
150.0
 31
7.0
  0
LINE
  8
1
  5
107
  6
CONTINUOUS
 62
7
 10
225.0
 20
150.0
 30
15.0
 11
240.0
 21
150.0
 31
15.0
  0
LINE
  8
1
  5
109
  6
CONTINUOUS
 62
7
 10
225.0
 20
150.0
 30
15.0
 11
225.0
 21
150.0
 31
7.0
  0
LINE
  8
1
  5
10B
  6
CONTINUOUS
 62
7
 10
240.0
 20
150.0
 30
7.0
 11
225.0
 21
150.0
 31
7.0
  0
LINE
  8
1
  5
10D
  6
CONTINUOUS
 62
7
 10
240.0
 20
120.0
 30
7.0
 11
240.0
 21
105.0
 31
7.0
  0
LINE
  8
1
  5
10F
  6
CONTINUOUS
 62
7
 10
240.0
 20
120.0
 30
7.0
 11
225.0
 21
120.0
 31
7.0
  0
ARC
  8
1
  5
111
  6
CONTINUOUS
 62
7
 210
0.0
 220
0.0
 230
-1.0
 10
-225.0
 20
127.5
 30
-7.0
 40
7.5
 50
270.0
 51
90.0
  0
LINE
  8
1
  5
113
  6
CONTINUOUS
 62
7
 10
225.0
 20
135.0
 30
7.0
 11
240.0
 21
135.0
 31
7.0
  0
LINE
  8
1
  5
115
  6
CONTINUOUS
 62
7
 10
240.0
 20
150.0
 30
7.0
 11
240.0
 21
135.0
 31
7.0
  0
ARC
  8
1
  5
117
  6
CONTINUOUS
 62
7
 10
225.0
 20
127.5
 30
7.0
 40
22.5
 50
90.0
 51
270.0
  0
LINE
  8
1
  5
119
  6
CONTINUOUS
 62
7
 10
240.0
 20
60.0
 30
7.0
 11
240.0
 21
45.0
 31
7.0
  0
LINE
  8
1
  5
11B
  6
CONTINUOUS
 62
7
 10
240.0
 20
60.0
 30
7.0
 11
225.0
 21
60.0
 31
7.0
  0
ARC
  8
1
  5
11D
  6
CONTINUOUS
 62
7
 210
0.0
 220
0.0
 230
-1.0
 10
-225.0
 20
67.5
 30
-7.0
 40
7.5
 50
270.0
 51
90.0
  0
LINE
  8
1
  5
11F
  6
CONTINUOUS
 62
7
 10
225.0
 20
75.0
 30
7.0
 11
240.0
 21
75.0
 31
7.0
  0
LINE
  8
1
  5
121
  6
CONTINUOUS
 62
7
 10
240.0
 20
90.0
 30
7.0
 11
240.0
 21
75.0
 31
7.0
  0
ARC
  8
1
  5
123
  6
CONTINUOUS
 62
7
 10
225.0
 20
67.5
 30
7.0
 40
22.5
 50
90.0
 51
270.0
  0
LINE
  8
1
  5
125
  6
CONTINUOUS
 62
7
 10
240.0
 20
30.0
 30
7.0
 11
240.0
 21
15.0
 31
7.0
  0
ARC
  8
1
  5
127
  6
CONTINUOUS
 62
7
 10
225.0
 20
7.5
 30
7.0
 40
22.5
 50
90.0
 51
180.0
  0
LINE
  8
1
  5
129
  6
CONTINUOUS
 62
7
 10
202.5
 20
7.5
 30
7.0
 11
202.5
 21
0.0
 31
7.0
  0
LINE
  8
1
  5
12B
  6
CONTINUOUS
 62
7
 10
217.5
 20
0.0
 30
7.0
 11
202.5
 21
0.0
 31
7.0
  0
LINE
  8
1
  5
12D
  6
CONTINUOUS
 62
7
 10
217.5
 20
0.0
 30
7.0
 11
217.5
 21
7.5
 31
7.0
  0
ARC
  8
1
  5
12F
  6
CONTINUOUS
 62
7
 210
0.0
 220
0.0
 230
-1.0
 10
-225.0
 20
7.5
 30
-7.0
 40
7.5
 50
360.0
 51
90.0
  0
LINE
  8
1
  5
131
  6
CONTINUOUS
 62
7
 10
225.0
 20
15.0
 30
7.0
 11
240.0
 21
15.0
 31
7.0
  0
ARC
  8
1
  5
133
  6
CONTINUOUS
 62
7
 210
0.0
 220
0.0
 230
-1.0
 10
-225.0
 20
127.5
 30
-15.0
 40
22.5
 50
270.0
 51
90.0
  0
ARC
  8
1
  5
135
  6
CONTINUOUS
 62
7
 210
0.0
 220
0.0
 230
-1.0
 10
-225.0
 20
67.5
 30
-15.0
 40
22.5
 50
270.0
 51
90.0
  0
ARC
  8
1
  5
137
  6
CONTINUOUS
 62
7
 210
0.0
 220
0.0
 230
-1.0
 10
-225.0
 20
7.5
 30
-15.0
 40
22.5
 50
360.0
 51
90.0
  0
LINE
  8
1
  5
139
  6
CONTINUOUS
 62
7
 10
202.5
 20
7.5
 30
15.0
 11
202.5
 21
7.5
 31
7.0
  0
LINE
  8
1
  5
13B
  6
CONTINUOUS
 62
7
 10
202.5
 20
0.0
 30
15.0
 11
202.5
 21
7.5
 31
15.0
  0
LINE
  8
1
  5
13D
  6
CONTINUOUS
 62
7
 10
202.5
 20
0.0
 30
7.0
 11
202.5
 21
0.0
 31
15.0
  0
LINE
  8
1
  5
13F
  6
CONTINUOUS
 62
7
 10
217.5
 20
0.0
 30
15.0
 11
217.5
 21
0.0
 31
7.0
  0
LINE
  8
1
  5
141
  6
CONTINUOUS
 62
7
 10
217.5
 20
7.5
 30
15.0
 11
217.5
 21
0.0
 31
15.0
  0
LINE
  8
1
  5
143
  6
CONTINUOUS
 62
7
 10
217.5
 20
7.5
 30
15.0
 11
217.5
 21
7.5
 31
7.0
  0
ARC
  8
1
  5
145
  6
CONTINUOUS
 62
7
 10
225.0
 20
7.5
 30
15.0
 40
7.5
 50
90.0
 51
180.0
  0
LINE
  8
1
  5
147
  6
CONTINUOUS
 62
7
 10
225.0
 20
15.0
 30
15.0
 11
225.0
 21
15.0
 31
7.0
  0
LINE
  8
1
  5
149
  6
CONTINUOUS
 62
7
 10
240.0
 20
15.0
 30
7.0
 11
240.0
 21
15.0
 31
15.0
  0
LINE
  8
1
  5
14B
  6
CONTINUOUS
 62
7
 10
240.0
 20
15.0
 30
15.0
 11
225.0
 21
15.0
 31
15.0
  0
LINE
  8
1
  5
14D
  6
CONTINUOUS
 62
7
 10
240.0
 20
60.0
 30
15.0
 11
240.0
 21
60.0
 31
7.0
  0
LINE
  8
1
  5
14F
  6
CONTINUOUS
 62
7
 10
225.0
 20
60.0
 30
15.0
 11
240.0
 21
60.0
 31
15.0
  0
LINE
  8
1
  5
151
  6
CONTINUOUS
 62
7
 10
225.0
 20
60.0
 30
15.0
 11
225.0
 21
60.0
 31
7.0
  0
ARC
  8
1
  5
153
  6
CONTINUOUS
 62
7
 10
225.0
 20
67.5
 30
15.0
 40
7.5
 50
90.0
 51
270.0
  0
LINE
  8
1
  5
155
  6
CONTINUOUS
 62
7
 10
225.0
 20
75.0
 30
15.0
 11
225.0
 21
75.0
 31
7.0
  0
LINE
  8
1
  5
157
  6
CONTINUOUS
 62
7
 10
240.0
 20
75.0
 30
7.0
 11
240.0
 21
75.0
 31
15.0
  0
LINE
  8
1
  5
159
  6
CONTINUOUS
 62
7
 10
240.0
 20
75.0
 30
15.0
 11
225.0
 21
75.0
 31
15.0
  0
LINE
  8
1
  5
15B
  6
CONTINUOUS
 62
7
 10
240.0
 20
120.0
 30
15.0
 11
240.0
 21
120.0
 31
7.0
  0
LINE
  8
1
  5
15D
  6
CONTINUOUS
 62
7
 10
225.0
 20
120.0
 30
15.0
 11
240.0
 21
120.0
 31
15.0
  0
LINE
  8
1
  5
15F
  6
CONTINUOUS
 62
7
 10
225.0
 20
120.0
 30
15.0
 11
225.0
 21
120.0
 31
7.0
  0
ARC
  8
1
  5
161
  6
CONTINUOUS
 62
7
 10
225.0
 20
127.5
 30
15.0
 40
7.5
 50
90.0
 51
270.0
  0
LINE
  8
1
  5
163
  6
CONTINUOUS
 62
7
 10
225.0
 20
135.0
 30
15.0
 11
225.0
 21
135.0
 31
7.0
  0
LINE
  8
1
  5
165
  6
CONTINUOUS
 62
7
 10
240.0
 20
135.0
 30
7.0
 11
240.0
 21
135.0
 31
15.0
  0
LINE
  8
1
  5
167
  6
CONTINUOUS
 62
7
 10
240.0
 20
135.0
 30
15.0
 11
225.0
 21
135.0
 31
15.0
  0
ENDBLK
  8
1
  5
168
  0
BLOCK
  8
1
  5
16A
 70
1
 10
0.0
 20
0.0
 30
0.0
  2
*M2
  3
*M2
  0
LINE
  8
1
  5
16C
  6
CONTINUOUS
 62
7
 10
240.0
 20
135.0
 30
15.0
 11
240.0
 21
120.0
 31
15.0
  0
LINE
  8
1
  5
16E
  6
CONTINUOUS
 62
7
 10
240.0
 20
75.0
 30
15.0
 11
240.0
 21
60.0
 31
15.0
  0
LINE
  8
1
  5
170
  6
CONTINUOUS
 62
7
 10
240.0
 20
0.0
 30
15.0
 11
217.5
 21
0.0
 31
15.0
  0
LINE
  8
1
  5
172
  6
CONTINUOUS
 62
7
 10
240.0
 20
15.0
 30
15.0
 11
240.0
 21
0.0
 31
15.0
  0
LINE
  8
1
  5
174
  6
CONTINUOUS
 62
7
 10
240.0
 20
45.0
 30
15.0
 11
240.0
 21
30.0
 31
15.0
  0
LINE
  8
1
  5
176
  6
CONTINUOUS
 62
7
 10
240.0
 20
105.0
 30
15.0
 11
240.0
 21
90.0
 31
15.0
  0
LINE
  8
1
  5
178
  6
CONTINUOUS
 62
7
 10
240.0
 20
165.0
 30
15.0
 11
240.0
 21
150.0
 31
15.0
  0
LINE
  8
1
  5
17A
  6
CONTINUOUS
 62
7
 10
0.0
 20
165.0
 30
15.0
 11
240.0
 21
165.0
 31
15.0
  0
LINE
  8
1
  5
17C
  6
CONTINUOUS
 62
7
 10
0.0
 20
0.0
 30
15.0
 11
0.0
 21
165.0
 31
15.0
  0
LINE
  8
1
  5
17E
  6
CONTINUOUS
 62
7
 10
202.5
 20
0.0
 30
15.0
 11
0.0
 21
0.0
 31
15.0
  0
LINE
  8
1
  5
180
  6
CONTINUOUS
 62
7
 10
240.0
 20
0.0
 30
0.0
 11
240.0
 21
0.0
 31
15.0
  0
LINE
  8
1
  5
182
  6
CONTINUOUS
 62
7
 10
240.0
 20
0.0
 30
0.0
 11
240.0
 21
165.0
 31
0.0
  0
LINE
  8
1
  5
184
  6
CONTINUOUS
 62
7
 10
240.0
 20
165.0
 30
0.0
 11
240.0
 21
165.0
 31
15.0
  0
LINE
  8
1
  5
186
  6
CONTINUOUS
 62
7
 10
0.0
 20
165.0
 30
0.0
 11
0.0
 21
165.0
 31
15.0
  0
LINE
  8
1
  5
188
  6
CONTINUOUS
 62
7
 10
0.0
 20
165.0
 30
0.0
 11
0.0
 21
0.0
 31
0.0
  0
LINE
  8
1
  5
18A
  6
CONTINUOUS
 62
7
 10
0.0
 20
0.0
 30
0.0
 11
0.0
 21
0.0
 31
15.0
  0
LINE
  8
1
  5
18C
  6
CONTINUOUS
 62
7
 10
240.0
 20
165.0
 30
0.0
 11
0.0
 21
165.0
 31
0.0
  0
LINE
  8
1
  5
18E
  6
CONTINUOUS
 62
7
 10
0.0
 20
0.0
 30
0.0
 11
240.0
 21
0.0
 31
0.0
  0
ENDBLK
  8
1
  5
18F
  0
BLOCK
  8
1
  5
191
 70
1
 10
0.0
 20
0.0
 30
0.0
  2
*M3
  3
*M3
  0
INSERT
  8
1
  5
193
  6
CONTINUOUS
 62
7
  2
*M1
 10
0.0
 20
0.0
 30
0.0
 41
1.0
 42
1.0
 43
1.0
 70
1
 71
1
  0
INSERT
  8
1
  5
195
  6
CONTINUOUS
 62
7
  2
*M2
 10
0.0
 20
0.0
 30
0.0
 41
1.0
 42
1.0
 43
1.0
 70
1
 71
1
  0
ENDBLK
  8
1
  5
196
  0
BLOCK
  8
1
  5
198
 70
1
 10
0.0
 20
0.0
 30
0.0
  2
*M4
  3
*M4
  0
LINE
  8
1
  5
19A
  6
CONTINUOUS
 62
7
 10
-202.5
 20
-127.5
 30
15.0
 11
-202.5
 21
-127.5
 31
7.0
  0
LINE
  8
1
  5
19C
  6
CONTINUOUS
 62
7
 10
-225.0
 20
-150.0
 30
15.0
 11
-225.0
 21
-150.0
 31
7.0
  0
LINE
  8
1
  5
19E
  6
CONTINUOUS
 62
7
 10
-202.5
 20
-67.5
 30
15.0
 11
-202.5
 21
-67.5
 31
7.0
  0
LINE
  8
1
  5
1A0
  6
CONTINUOUS
 62
7
 10
-225.0
 20
-90.0
 30
15.0
 11
-225.0
 21
-90.0
 31
7.0
  0
LINE
  8
1
  5
1A2
  6
CONTINUOUS
 62
7
 10
-225.0
 20
-60.0
 30
15.0
 11
-225.0
 21
-60.0
 31
7.0
  0
LINE
  8
1
  5
1A4
  6
CONTINUOUS
 62
7
 10
-217.5
 20
-67.5
 30
15.0
 11
-217.5
 21
-67.5
 31
7.0
  0
LINE
  8
1
  5
1A6
  6
CONTINUOUS
 62
7
 10
-225.0
 20
-120.0
 30
15.0
 11
-225.0
 21
-120.0
 31
7.0
  0
LINE
  8
1
  5
1A8
  6
CONTINUOUS
 62
7
 10
-217.5
 20
-127.5
 30
15.0
 11
-217.5
 21
-127.5
 31
7.0
  0
LINE
  8
1
  5
1AA
  6
CONTINUOUS
 62
7
 10
-240.0
 20
-30.0
 30
15.0
 11
-240.0
 21
-30.0
 31
7.0
  0
LINE
  8
1
  5
1AC
  6
CONTINUOUS
 62
7
 10
-225.0
 20
-30.0
 30
15.0
 11
-240.0
 21
-30.0
 31
15.0
  0
LINE
  8
1
  5
1AE
  6
CONTINUOUS
 62
7
 10
-225.0
 20
-30.0
 30
15.0
 11
-225.0
 21
-30.0
 31
7.0
  0
LINE
  8
1
  5
1B0
  6
CONTINUOUS
 62
7
 10
-240.0
 20
-30.0
 30
7.0
 11
-225.0
 21
-30.0
 31
7.0
  0
LINE
  8
1
  5
1B2
  6
CONTINUOUS
 62
7
 10
-240.0
 20
-45.0
 30
7.0
 11
-240.0
 21
-45.0
 31
15.0
  0
LINE
  8
1
  5
1B4
  6
CONTINUOUS
 62
7
 10
-225.0
 20
-45.0
 30
7.0
 11
-240.0
 21
-45.0
 31
7.0
  0
LINE
  8
1
  5
1B6
  6
CONTINUOUS
 62
7
 10
-225.0
 20
-45.0
 30
15.0
 11
-225.0
 21
-45.0
 31
7.0
  0
LINE
  8
1
  5
1B8
  6
CONTINUOUS
 62
7
 10
-240.0
 20
-45.0
 30
15.0
 11
-225.0
 21
-45.0
 31
15.0
  0
LINE
  8
1
  5
1BA
  6
CONTINUOUS
 62
7
 10
-240.0
 20
-90.0
 30
15.0
 11
-240.0
 21
-90.0
 31
7.0
  0
LINE
  8
1
  5
1BC
  6
CONTINUOUS
 62
7
 10
-225.0
 20
-90.0
 30
15.0
 11
-240.0
 21
-90.0
 31
15.0
  0
LINE
  8
1
  5
1BE
  6
CONTINUOUS
 62
7
 10
-225.0
 20
-90.0
 30
15.0
 11
-225.0
 21
-90.0
 31
7.0
  0
LINE
  8
1
  5
1C0
  6
CONTINUOUS
 62
7
 10
-240.0
 20
-90.0
 30
7.0
 11
-225.0
 21
-90.0
 31
7.0
  0
LINE
  8
1
  5
1C2
  6
CONTINUOUS
 62
7
 10
-240.0
 20
-105.0
 30
7.0
 11
-240.0
 21
-105.0
 31
15.0
  0
LINE
  8
1
  5
1C4
  6
CONTINUOUS
 62
7
 10
-225.0
 20
-105.0
 30
7.0
 11
-240.0
 21
-105.0
 31
7.0
  0
LINE
  8
1
  5
1C6
  6
CONTINUOUS
 62
7
 10
-225.0
 20
-105.0
 30
15.0
 11
-225.0
 21
-105.0
 31
7.0
  0
LINE
  8
1
  5
1C8
  6
CONTINUOUS
 62
7
 10
-240.0
 20
-105.0
 30
15.0
 11
-225.0
 21
-105.0
 31
15.0
  0
LINE
  8
1
  5
1CA
  6
CONTINUOUS
 62
7
 10
-240.0
 20
-150.0
 30
15.0
 11
-240.0
 21
-150.0
 31
7.0
  0
LINE
  8
1
  5
1CC
  6
CONTINUOUS
 62
7
 10
-225.0
 20
-150.0
 30
15.0
 11
-240.0
 21
-150.0
 31
15.0
  0
LINE
  8
1
  5
1CE
  6
CONTINUOUS
 62
7
 10
-225.0
 20
-150.0
 30
15.0
 11
-225.0
 21
-150.0
 31
7.0
  0
LINE
  8
1
  5
1D0
  6
CONTINUOUS
 62
7
 10
-240.0
 20
-150.0
 30
7.0
 11
-225.0
 21
-150.0
 31
7.0
  0
LINE
  8
1
  5
1D2
  6
CONTINUOUS
 62
7
 10
-240.0
 20
-120.0
 30
7.0
 11
-240.0
 21
-105.0
 31
7.0
  0
LINE
  8
1
  5
1D4
  6
CONTINUOUS
 62
7
 10
-240.0
 20
-120.0
 30
7.0
 11
-225.0
 21
-120.0
 31
7.0
  0
ARC
  8
1
  5
1D6
  6
CONTINUOUS
 62
7
 210
0.0
 220
0.0
 230
-1.0
 10
225.0
 20
-127.5
 30
-7.0
 40
7.5
 50
90.0
 51
270.0
  0
LINE
  8
1
  5
1D8
  6
CONTINUOUS
 62
7
 10
-225.0
 20
-135.0
 30
7.0
 11
-240.0
 21
-135.0
 31
7.0
  0
LINE
  8
1
  5
1DA
  6
CONTINUOUS
 62
7
 10
-240.0
 20
-150.0
 30
7.0
 11
-240.0
 21
-135.0
 31
7.0
  0
ARC
  8
1
  5
1DC
  6
CONTINUOUS
 62
7
 10
-225.0
 20
-127.5
 30
7.0
 40
22.5
 50
270.0
 51
90.0
  0
LINE
  8
1
  5
1DE
  6
CONTINUOUS
 62
7
 10
-240.0
 20
-60.0
 30
7.0
 11
-240.0
 21
-45.0
 31
7.0
  0
LINE
  8
1
  5
1E0
  6
CONTINUOUS
 62
7
 10
-240.0
 20
-60.0
 30
7.0
 11
-225.0
 21
-60.0
 31
7.0
  0
ARC
  8
1
  5
1E2
  6
CONTINUOUS
 62
7
 210
0.0
 220
0.0
 230
-1.0
 10
225.0
 20
-67.5
 30
-7.0
 40
7.5
 50
90.0
 51
270.0
  0
LINE
  8
1
  5
1E4
  6
CONTINUOUS
 62
7
 10
-225.0
 20
-75.0
 30
7.0
 11
-240.0
 21
-75.0
 31
7.0
  0
LINE
  8
1
  5
1E6
  6
CONTINUOUS
 62
7
 10
-240.0
 20
-90.0
 30
7.0
 11
-240.0
 21
-75.0
 31
7.0
  0
ARC
  8
1
  5
1E8
  6
CONTINUOUS
 62
7
 10
-225.0
 20
-67.5
 30
7.0
 40
22.5
 50
270.0
 51
90.0
  0
LINE
  8
1
  5
1EA
  6
CONTINUOUS
 62
7
 10
-240.0
 20
-30.0
 30
7.0
 11
-240.0
 21
-15.0
 31
7.0
  0
ARC
  8
1
  5
1EC
  6
CONTINUOUS
 62
7
 10
-225.0
 20
-7.5
 30
7.0
 40
22.5
 50
270.0
 51
360.0
  0
LINE
  8
1
  5
1EE
  6
CONTINUOUS
 62
7
 10
-202.5
 20
-7.5
 30
7.0
 11
-202.5
 21
0.0
 31
7.0
  0
LINE
  8
1
  5
1F0
  6
CONTINUOUS
 62
7
 10
-217.5
 20
0.0
 30
7.0
 11
-202.5
 21
0.0
 31
7.0
  0
LINE
  8
1
  5
1F2
  6
CONTINUOUS
 62
7
 10
-217.5
 20
0.0
 30
7.0
 11
-217.5
 21
-7.5
 31
7.0
  0
ARC
  8
1
  5
1F4
  6
CONTINUOUS
 62
7
 210
0.0
 220
0.0
 230
-1.0
 10
225.0
 20
-7.5
 30
-7.0
 40
7.5
 50
180.0
 51
270.0
  0
LINE
  8
1
  5
1F6
  6
CONTINUOUS
 62
7
 10
-225.0
 20
-15.0
 30
7.0
 11
-240.0
 21
-15.0
 31
7.0
  0
ARC
  8
1
  5
1F8
  6
CONTINUOUS
 62
7
 210
0.0
 220
0.0
 230
-1.0
 10
225.0
 20
-127.5
 30
-15.0
 40
22.5
 50
90.0
 51
270.0
  0
ARC
  8
1
  5
1FA
  6
CONTINUOUS
 62
7
 210
0.0
 220
0.0
 230
-1.0
 10
225.0
 20
-67.5
 30
-15.0
 40
22.5
 50
90.0
 51
270.0
  0
ARC
  8
1
  5
1FC
  6
CONTINUOUS
 62
7
 210
0.0
 220
0.0
 230
-1.0
 10
225.0
 20
-7.5
 30
-15.0
 40
22.5
 50
180.0
 51
270.0
  0
LINE
  8
1
  5
1FE
  6
CONTINUOUS
 62
7
 10
-202.5
 20
-7.5
 30
15.0
 11
-202.5
 21
-7.5
 31
7.0
  0
LINE
  8
1
  5
200
  6
CONTINUOUS
 62
7
 10
-202.5
 20
0.0
 30
15.0
 11
-202.5
 21
-7.5
 31
15.0
  0
LINE
  8
1
  5
202
  6
CONTINUOUS
 62
7
 10
-202.5
 20
0.0
 30
7.0
 11
-202.5
 21
0.0
 31
15.0
  0
LINE
  8
1
  5
204
  6
CONTINUOUS
 62
7
 10
-217.5
 20
0.0
 30
15.0
 11
-217.5
 21
0.0
 31
7.0
  0
LINE
  8
1
  5
206
  6
CONTINUOUS
 62
7
 10
-217.5
 20
-7.5
 30
15.0
 11
-217.5
 21
0.0
 31
15.0
  0
LINE
  8
1
  5
208
  6
CONTINUOUS
 62
7
 10
-217.5
 20
-7.5
 30
15.0
 11
-217.5
 21
-7.5
 31
7.0
  0
ARC
  8
1
  5
20A
  6
CONTINUOUS
 62
7
 10
-225.0
 20
-7.5
 30
15.0
 40
7.5
 50
270.0
 51
360.0
  0
LINE
  8
1
  5
20C
  6
CONTINUOUS
 62
7
 10
-225.0
 20
-15.0
 30
15.0
 11
-225.0
 21
-15.0
 31
7.0
  0
LINE
  8
1
  5
20E
  6
CONTINUOUS
 62
7
 10
-240.0
 20
-15.0
 30
7.0
 11
-240.0
 21
-15.0
 31
15.0
  0
LINE
  8
1
  5
210
  6
CONTINUOUS
 62
7
 10
-240.0
 20
-15.0
 30
15.0
 11
-225.0
 21
-15.0
 31
15.0
  0
LINE
  8
1
  5
212
  6
CONTINUOUS
 62
7
 10
-240.0
 20
-60.0
 30
15.0
 11
-240.0
 21
-60.0
 31
7.0
  0
LINE
  8
1
  5
214
  6
CONTINUOUS
 62
7
 10
-225.0
 20
-60.0
 30
15.0
 11
-240.0
 21
-60.0
 31
15.0
  0
LINE
  8
1
  5
216
  6
CONTINUOUS
 62
7
 10
-225.0
 20
-60.0
 30
15.0
 11
-225.0
 21
-60.0
 31
7.0
  0
ARC
  8
1
  5
218
  6
CONTINUOUS
 62
7
 10
-225.0
 20
-67.5
 30
15.0
 40
7.5
 50
270.0
 51
90.0
  0
LINE
  8
1
  5
21A
  6
CONTINUOUS
 62
7
 10
-225.0
 20
-75.0
 30
15.0
 11
-225.0
 21
-75.0
 31
7.0
  0
LINE
  8
1
  5
21C
  6
CONTINUOUS
 62
7
 10
-240.0
 20
-75.0
 30
7.0
 11
-240.0
 21
-75.0
 31
15.0
  0
LINE
  8
1
  5
21E
  6
CONTINUOUS
 62
7
 10
-240.0
 20
-75.0
 30
15.0
 11
-225.0
 21
-75.0
 31
15.0
  0
LINE
  8
1
  5
220
  6
CONTINUOUS
 62
7
 10
-240.0
 20
-120.0
 30
15.0
 11
-240.0
 21
-120.0
 31
7.0
  0
LINE
  8
1
  5
222
  6
CONTINUOUS
 62
7
 10
-225.0
 20
-120.0
 30
15.0
 11
-240.0
 21
-120.0
 31
15.0
  0
LINE
  8
1
  5
224
  6
CONTINUOUS
 62
7
 10
-225.0
 20
-120.0
 30
15.0
 11
-225.0
 21
-120.0
 31
7.0
  0
ARC
  8
1
  5
226
  6
CONTINUOUS
 62
7
 10
-225.0
 20
-127.5
 30
15.0
 40
7.5
 50
270.0
 51
90.0
  0
LINE
  8
1
  5
228
  6
CONTINUOUS
 62
7
 10
-225.0
 20
-135.0
 30
15.0
 11
-225.0
 21
-135.0
 31
7.0
  0
LINE
  8
1
  5
22A
  6
CONTINUOUS
 62
7
 10
-240.0
 20
-135.0
 30
7.0
 11
-240.0
 21
-135.0
 31
15.0
  0
LINE
  8
1
  5
22C
  6
CONTINUOUS
 62
7
 10
-240.0
 20
-135.0
 30
15.0
 11
-225.0
 21
-135.0
 31
15.0
  0
ENDBLK
  8
1
  5
22D
  0
BLOCK
  8
1
  5
22F
 70
1
 10
0.0
 20
0.0
 30
0.0
  2
*M5
  3
*M5
  0
LINE
  8
1
  5
231
  6
CONTINUOUS
 62
7
 10
-240.0
 20
-135.0
 30
15.0
 11
-240.0
 21
-120.0
 31
15.0
  0
LINE
  8
1
  5
233
  6
CONTINUOUS
 62
7
 10
-240.0
 20
-75.0
 30
15.0
 11
-240.0
 21
-60.0
 31
15.0
  0
LINE
  8
1
  5
235
  6
CONTINUOUS
 62
7
 10
-240.0
 20
0.0
 30
15.0
 11
-217.5
 21
0.0
 31
15.0
  0
LINE
  8
1
  5
237
  6
CONTINUOUS
 62
7
 10
-240.0
 20
-15.0
 30
15.0
 11
-240.0
 21
0.0
 31
15.0
  0
LINE
  8
1
  5
239
  6
CONTINUOUS
 62
7
 10
-240.0
 20
-45.0
 30
15.0
 11
-240.0
 21
-30.0
 31
15.0
  0
LINE
  8
1
  5
23B
  6
CONTINUOUS
 62
7
 10
-240.0
 20
-105.0
 30
15.0
 11
-240.0
 21
-90.0
 31
15.0
  0
LINE
  8
1
  5
23D
  6
CONTINUOUS
 62
7
 10
-240.0
 20
-165.0
 30
15.0
 11
-240.0
 21
-150.0
 31
15.0
  0
LINE
  8
1
  5
23F
  6
CONTINUOUS
 62
7
 10
0.0
 20
-165.0
 30
15.0
 11
-240.0
 21
-165.0
 31
15.0
  0
LINE
  8
1
  5
241
  6
CONTINUOUS
 62
7
 10
0.0
 20
0.0
 30
15.0
 11
0.0
 21
-165.0
 31
15.0
  0
LINE
  8
1
  5
243
  6
CONTINUOUS
 62
7
 10
-202.5
 20
0.0
 30
15.0
 11
0.0
 21
0.0
 31
15.0
  0
LINE
  8
1
  5
245
  6
CONTINUOUS
 62
7
 10
-240.0
 20
0.0
 30
0.0
 11
-240.0
 21
0.0
 31
15.0
  0
LINE
  8
1
  5
247
  6
CONTINUOUS
 62
7
 10
-240.0
 20
0.0
 30
0.0
 11
-240.0
 21
-165.0
 31
0.0
  0
LINE
  8
1
  5
249
  6
CONTINUOUS
 62
7
 10
-240.0
 20
-165.0
 30
0.0
 11
-240.0
 21
-165.0
 31
15.0
  0
LINE
  8
1
  5
24B
  6
CONTINUOUS
 62
7
 10
0.0
 20
-165.0
 30
0.0
 11
0.0
 21
-165.0
 31
15.0
  0
LINE
  8
1
  5
24D
  6
CONTINUOUS
 62
7
 10
0.0
 20
-165.0
 30
0.0
 11
0.0
 21
0.0
 31
0.0
  0
LINE
  8
1
  5
24F
  6
CONTINUOUS
 62
7
 10
0.0
 20
0.0
 30
0.0
 11
0.0
 21
0.0
 31
15.0
  0
LINE
  8
1
  5
251
  6
CONTINUOUS
 62
7
 10
-240.0
 20
-165.0
 30
0.0
 11
0.0
 21
-165.0
 31
0.0
  0
LINE
  8
1
  5
253
  6
CONTINUOUS
 62
7
 10
0.0
 20
0.0
 30
0.0
 11
-240.0
 21
0.0
 31
0.0
  0
ENDBLK
  8
1
  5
254
  0
BLOCK
  8
1
  5
256
 70
1
 10
0.0
 20
0.0
 30
0.0
  2
*M6
  3
*M6
  0
INSERT
  8
1
  5
258
  6
CONTINUOUS
 62
7
  2
*M4
 10
0.0
 20
0.0
 30
0.0
 41
1.0
 42
1.0
 43
1.0
 70
1
 71
1
  0
INSERT
  8
1
  5
25A
  6
CONTINUOUS
 62
7
  2
*M5
 10
0.0
 20
0.0
 30
0.0
 41
1.0
 42
1.0
 43
1.0
 70
1
 71
1
  0
ENDBLK
  8
1
  5
25B
  0
ENDSEC
  0
SECTION
  2
ENTITIES
  0
INSERT
  8
1
  5
2
  6
CONTINUOUS
 62
7
  2
*M0
 10
50.0
 20
215.0
 30
-32.0
 41
1.0
 42
1.0
 43
1.0
 70
1
 71
1
  0
INSERT
  8
1
  5
4
  6
CONTINUOUS
 62
7
  2
*M3
 10
0.0
 20
0.0
 30
-25.0
 41
1.0
 42
1.0
 43
1.0
 70
1
 71
1
  0
INSERT
  8
1
  5
6
  6
CONTINUOUS
 62
7
  2
*M6
 10
530.0
 20
165.0
 30
-25.0
 41
1.0
 42
1.0
 43
1.0
 70
1
 71
1
  0
ENDSEC
  0
EOF
