  0
SECTION
  2
HEADER
  9
$ACADVER
  1
AC1009
  9
$INSBASE
 10
0.0
 20
0.0
 30
0.0
  9
$EXTMAX
 10
386.40095
 20
170.57452
 30
-101.16024
  9
$EXTMIN
 10
-143.59905
 20
5.57452
 30
-116.16026
  9
$LIMMAX
 10
12.0
 20
9.0
  9
$LIMMIN
 10
0.0
 20
0.0
  9
$ORTHOMODE
 70
0
  9
$REGENMODE
 70
1
  9
$FILLMODE
 70
1
  9
$QTEXTMODE
 70
0
  9
$MIRRTEXT
 70
1
  9
$DRAGMODE
 70
2
  9
$LTSCALE
 40
1.0
  9
$OSMODE
 70
0
  9
$ATTMODE
 70
1
  9
$TEXTSIZE
 40
0.2
  9
$TRACEWID
 40
0.05
  9
$TEXTSTYLE
  7
STANDARD
  9
$CLAYER
  8
0
  9
$CELTYPE
  6
CONTINUOUS
  9
$CECOLOR
 62
256
  9
$DIMSCALE
 40
1.0
  9
$DIMASZ
 40
0.18
  9
$DIMEXO
 40
0.0625
  9
$DIMDLI
 40
0.38
  9
$DIMRND
 40
0.0
  9
$DIMDLE
 40
0.0
  9
$DIMEXE
 40
0.18
  9
$DIMTP
 40
0.0
  9
$DIMTM
 40
0.0
  9
$DIMTXT
 40
0.18
  9
$DIMCEN
 40
0.09
  9
$DIMTSZ
 40
0.0
  9
$DIMTOL
 70
0
  9
$DIMLIM
 70
0
  9
$DIMTIH
 70
1
  9
$DIMTOH
 70
1
  9
$DIMSE1
 70
0
  9
$DIMSE2
 70
0
  9
$DIMTAD
 70
0
  9
$DIMZIN
 70
0
  9
$DIMBLK
  1

  9
$DIMASO
 70
1
  9
$DIMSHO
 70
1
  9
$DIMPOST
  1

  9
$DIMAPOST
  1

  9
$DIMALT
 70
0
  9
$DIMALTD
 70
2
  9
$DIMALTF
 40
25.4
  9
$DIMLFAC
 40
1.0
  9
$DIMTOFL
 70
0
  9
$DIMTVP
 40
0.0
  9
$DIMTIX
 70
0
  9
$DIMSOXD
 70
0
  9
$DIMSAH
 70
0
  9
$DIMBLK1
  1

  9
$DIMBLK2
  1

  9
$DIMSTYLE
  2
*UNNAMED
  9
$DIMCLRD
 70
0
  9
$DIMCLRE
 70
0
  9
$DIMCLRT
 70
0
  9
$DIMTFAC
 40
1.0
  9
$DIMGAP
 40
0.09
  9
$LUNITS
 70
2
  9
$LUPREC
 70
4
  9
$AXISMODE
 70
0
  9
$AXISUNIT
 10
0.0
 20
0.0
  9
$SKETCHINC
 40
0.1
  9
$FILLETRAD
 40
0.0
  9
$AUNITS
 70
0
  9
$AUPREC
 70
0
  9
$MENU
  1
acad
  9
$ELEVATION
 40
0.0
  9
$PELEVATION
 40
0.0
  9
$THICKNESS
 40
0.0
  9
$LIMCHECK
 70
0
  9
$BLIPMODE
 70
1
  9
$CHAMFERA
 40
0.0
  9
$CHAMFERB
 40
0.0
  9
$SKPOLY
 70
0
  9
$TDCREATE
 40
0.0
  9
$TDUPDATE
 40
0.0
  9
$TDINDWG
 40
0.0
  9
$TDUSRTIMER
 40
0.0
  9
$USRTIMER
 70
1
  9
$ANGBASE
 50
0.0
  9
$ANGDIR
 70
0
  9
$PDMODE
 70
0
  9
$PDSIZE
 40
0.0
  9
$PLINEWID
 40
0.0
  9
$COORDS
 70
0
  9
$SPLFRAME
 70
0
  9
$SPLINETYPE
 70
6
  9
$SPLINESEGS
 70
10
  9
$ATTDIA
 70
0
  9
$ATTREQ
 70
1
  9
$HANDLING
 70
1
  9
$HANDSEED
  5
110
  9
$SURFTAB1
 70
6
  9
$SURFTAB2
 70
6
  9
$SURFTYPE
 70
6
  9
$SURFU
 70
10
  9
$SURFV
 70
10
  9
$UCSNAME
  2

  9
$UCSORG
 10
0.0
 20
0.0
 30
0.0
  9
$UCSXDIR
 10
1.0
 20
0.0
 30
0.0
  9
$UCSYDIR
 10
0.0
 20
1.0
 30
0.0
  9
$PUCSNAME
  2
 
  9
$PUCSORG
 10
0.0
 20
0.0
 30
0.0
  9
$PUCSXDIR
 10
1.0
 20
0.0
 30
0.0
  9
$PUCSYDIR
 10
0.0
 20
1.0
 30
0.0
  9
$USERI1
 70
0
  9
$USERI2
 70
0
  9
$USERI3
 70
0
  9
$USERI4
 70
0
  9
$USERI5
 70
0
  9
$USERR1
 40
0.0
  9
$USERR2
 40
0.0
  9
$USERR3
 40
0.0
  9
$USERR4
 40
0.0
  9
$USERR5
 40
0.0
  9
$WORLDVIEW
 70
1
  9
$SHADEDGE
 70
3
  9
$SHADEDIF
 70
70
  9
$TILEMODE
 70
1
  9
$MAXACTVP
 70
16
  9
$PINSBASE
 10
0.0
 20
0.0
 30
0.0
  9
$PLIMCHECK
 70
0
  9
$PEXTMIN
 10
-1.000000E+020
 20
-1.000000E+020
 30
-1.000000E+020
  9
$PEXTMAX
 10
-1.000000E+020
 20
-1.000000E+020
 30
-1.000000E+020
  9
$PLIMMIN
 10
0.0
 20
0.0
  9
$PLIMMAX
 10
12.0
 20
9.0
  9
$UNITMODE
 70
0
  9
$VISRETAIN
 70
0
  0
ENDSEC
  0
SECTION
  2
TABLES
  0
TABLE
  2
LTYPE
 70
7
  0
LTYPE
  2
CONTINUOUS
 70
64
  3
Solid line
 72
65
 73
0
 40
0.0
  0
LTYPE
  2
DOT
 70
64
  3
. . . . . . . . . . . . . . . . . . . . . . . . . . . . . . . . .
 72
65
 73
2
 40
0.25
 49
0.0
 49
-0.25
  0
LTYPE
  2
HIDDEN
 70
64
  3
__ __ __ __ __ __ __ __ __ __ __ __ __ __ __ __ __ __ __ __ __ 
 72
65
 73
2
 40
0.375
 49
0.25
 49
-0.125
  0
LTYPE
  2
DASHED
 70
64
  3
__ __ __ __ __ __ __ __ __ __ __ __ __ __ __ __ __ __ __ __ __
 72
65
 73
2
 40
0.75
 49
0.5
 49
-0.25
  0
LTYPE
  2
DASHDOT
 70
64
  3
__ . __ . __ . __ . __ . __ . __ . __ . __ . __ . __ . __ . _
 72
65
 73
4
 40
1.0
 49
0.5
 49
-0.25
 49
0.0
 49
-0.25
  0
LTYPE
  2
DIVIDE
 70
64
  3
____ . . ____ . . ____ . . ____ . . ____ . . ____ . . ____ . .
 72
65
 73
6
 40
1.25
 49
0.5
 49
-0.25
 49
0.0
 49
-0.25
 49
0.0
 49
-0.25
  0
LTYPE
  2
CENTER
 70
64
  3
____ _ ____ _ ____ _ ____ _ ____ _ ____ _ ____ _ ____ _ ____ _
 72
65
 73
4
 40
2.0
 49
1.25
 49
-0.25
 49
0.25
 49
-0.25
  0
ENDTAB
  0
TABLE
  2
APPID
 70
1
  0
APPID
  2
ACAD
 70
0
  0
ENDTAB
  0
TABLE
  2
DIMSTYLE
 70
0
  0
ENDTAB
  0
TABLE
  2
LAYER
 70
4
  0
LAYER
  2
0
 70
0
 62
7
  6
CONTINUOUS
  0
LAYER
  2
CONSTRUCTION_CLASS
 70
0
 62
7
  6
CONTINUOUS
  0
LAYER
  2
PATTERN_CLASS
 70
0
 62
7
  6
CONTINUOUS
  0
LAYER
  2
1
 70
0
 62
7
  6
CONTINUOUS
  0
ENDTAB
  0
TABLE
  2
STYLE
 70
1
  0
STYLE
  2
STANDARD
 70
0
 40
0.2
 41
1.0
 50
0.0
 71
0
 42
0.0
  3
txt
  4

  0
ENDTAB
  0
TABLE
  2
UCS
 70
0
  0
ENDTAB
  0
TABLE
  2
VIEW
 70
0
  0
ENDTAB
  0
TABLE
  2
VPORT
 70
4
  0
VPORT
  2
*ACTIVE
 70
0
 10
0.001642
 20
0.50168
 11
0.499179
 21
0.99776
 12
0.0
 22
-2.842171E-014
 13
0.0
 23
0.0
 14
0.0
 24
0.0
 15
0.0
 25
0.0
 16
0.0
 26
-7.567476E-014
 36
1235.90336
 17
73.922622
 27
86.97808
 37
-108.66025
 40
327.34728
 41
1.367946
 42
50.0
 43
617.95168
 44
-617.95168
 50
0.0
 51
0.0
 71
22
 72
100
 73
1
 74
0
 75
0
 76
0
 77
0
 78
0
  0
VPORT
  2
*ACTIVE
 70
0
 10
0.500821
 20
0.50168
 11
0.998358
 21
0.99776
 12
0.0
 22
5.684342E-014
 13
0.0
 23
0.0
 14
0.0
 24
0.0
 15
0.0
 25
0.0
 16
-247.271857
 26
-247.271857
 36
247.271857
 17
106.691954
 27
101.502065
 37
-112.808055
 40
339.22064
 41
1.367946
 42
50.0
 43
214.14371
 44
-214.14371
 50
0.0
 51
0.0
 71
22
 72
100
 73
1
 74
0
 75
0
 76
0
 77
0
 78
0
  0
VPORT
  2
*ACTIVE
 70
0
 10
0.001642
 20
0.003359
 11
0.499179
 21
0.49944
 12
0.0
 22
3.552714E-015
 13
0.0
 23
0.0
 14
0.0
 24
0.0
 15
0.0
 25
0.0
 16
0.0
 26
-1233.98126
 36
0.0
 17
54.109158
 27
88.07452
 37
-110.917375
 40
41.50053
 41
1.367946
 42
50.0
 43
616.99063
 44
-616.99063
 50
0.0
 51
0.0
 71
22
 72
100
 73
1
 74
0
 75
0
 76
0
 77
0
 78
0
  0
VPORT
  2
*ACTIVE
 70
0
 10
0.500821
 20
0.003359
 11
0.998358
 21
0.49944
 12
0.0
 22
0.0
 13
0.0
 23
0.0
 14
0.0
 24
0.0
 15
0.0
 25
0.0
 16
2040.0
 26
0.0
 36
0.0
 17
111.40095
 27
75.488667
 37
-108.71202
 40
110.11462
 41
1.367946
 42
50.0
 43
1020.0
 44
-1020.0
 50
0.0
 51
0.0
 71
22
 72
100
 73
1
 74
0
 75
0
 76
0
 77
0
 78
0
  0
ENDTAB
  0
ENDSEC
  0
SECTION
  2
BLOCKS
  0
BLOCK
  8
1
  5
6
 70
1
 10
0.0
 20
0.0
 30
0.0
  2
*M0
  3
*M0
  0
LINE
  8
1
  5
8
  6
CONTINUOUS
 62
7
 10
201.5
 20
82.5
 30
12.0
 11
201.5
 21
82.5
 31
15.0
  0
LINE
  8
1
  5
A
  6
CONTINUOUS
 62
7
 10
201.5
 20
0.0
 30
12.0
 11
201.5
 21
82.5
 31
12.0
  0
LINE
  8
1
  5
C
  6
CONTINUOUS
 62
7
 10
201.5
 20
0.0
 30
15.0
 11
201.5
 21
0.0
 31
12.0
  0
LINE
  8
1
  5
E
  6
CONTINUOUS
 62
7
 10
201.5
 20
82.5
 30
15.0
 11
201.5
 21
0.0
 31
15.0
  0
LINE
  8
1
  5
10
  6
CONTINUOUS
 62
7
 10
186.5
 20
82.5
 30
12.0
 11
201.5
 21
82.5
 31
12.0
  0
LINE
  8
1
  5
12
  6
CONTINUOUS
 62
7
 10
186.5
 20
82.5
 30
12.0
 11
186.5
 21
0.0
 31
12.0
  0
LINE
  8
1
  5
14
  6
CONTINUOUS
 62
7
 10
201.5
 20
0.0
 30
12.0
 11
186.5
 21
0.0
 31
12.0
  0
LINE
  8
1
  5
16
  6
CONTINUOUS
 62
7
 10
186.5
 20
82.5
 30
15.0
 11
186.5
 21
82.5
 31
12.0
  0
LINE
  8
1
  5
18
  6
CONTINUOUS
 62
7
 10
186.5
 20
0.0
 30
15.0
 11
186.5
 21
82.5
 31
15.0
  0
LINE
  8
1
  5
1A
  6
CONTINUOUS
 62
7
 10
186.5
 20
0.0
 30
12.0
 11
186.5
 21
0.0
 31
15.0
  0
ENDBLK
  8
1
  5
1B
  0
BLOCK
  8
1
  5
1D
 70
1
 10
0.0
 20
0.0
 30
0.0
  2
*M1
  3
*M1
  0
LINE
  8
1
  5
1F
  6
CONTINUOUS
 62
7
 10
200.0
 20
82.5
 30
15.0
 11
205.9
 21
82.5
 31
15.0
  0
LINE
  8
1
  5
21
  6
CONTINUOUS
 62
7
 10
205.9
 20
82.5
 30
0.0
 11
205.9
 21
82.5
 31
15.0
  0
LINE
  8
1
  5
23
  6
CONTINUOUS
 62
7
 10
205.9
 20
82.5
 30
0.0
 11
182.1
 21
82.5
 31
0.0
  0
LINE
  8
1
  5
25
  6
CONTINUOUS
 62
7
 10
182.1
 20
82.5
 30
0.0
 11
182.1
 21
82.5
 31
15.0
  0
LINE
  8
1
  5
27
  6
CONTINUOUS
 62
7
 10
182.1
 20
82.5
 30
15.0
 11
185.0
 21
82.5
 31
15.0
  0
LINE
  8
1
  5
29
  6
CONTINUOUS
 62
7
 10
240.0
 20
0.0
 30
15.0
 11
200.0
 21
0.0
 31
15.0
  0
LINE
  8
1
  5
2B
  6
CONTINUOUS
 62
7
 10
240.0
 20
165.0
 30
15.0
 11
240.0
 21
0.0
 31
15.0
  0
LINE
  8
1
  5
2D
  6
CONTINUOUS
 62
7
 10
200.0
 20
165.0
 30
15.0
 11
240.0
 21
165.0
 31
15.0
  0
LINE
  8
1
  5
2F
  6
CONTINUOUS
 62
7
 10
200.0
 20
94.5
 30
15.0
 11
200.0
 21
165.0
 31
15.0
  0
LINE
  8
1
  5
31
  6
CONTINUOUS
 62
7
 10
205.9
 20
94.5
 30
15.0
 11
200.0
 21
94.5
 31
15.0
  0
ARC
  8
1
  5
33
  6
CONTINUOUS
 62
7
 10
205.9
 20
90.4
 30
15.0
 40
4.1
 50
0.0
 51
90.0
  0
LINE
  8
1
  5
35
  6
CONTINUOUS
 62
7
 10
210.0
 20
86.6
 30
15.0
 11
210.0
 21
90.4
 31
15.0
  0
ARC
  8
1
  5
37
  6
CONTINUOUS
 62
7
 10
205.9
 20
86.6
 30
15.0
 40
4.1
 50
270.0
 51
360.0
  0
LINE
  8
1
  5
39
  6
CONTINUOUS
 62
7
 10
188.0
 20
165.0
 30
15.0
 11
188.0
 21
94.5
 31
15.0
  0
LINE
  8
1
  5
3B
  6
CONTINUOUS
 62
7
 10
188.0
 20
94.5
 30
0.0
 11
188.0
 21
94.5
 31
15.0
  0
LINE
  8
1
  5
3D
  6
CONTINUOUS
 62
7
 10
188.0
 20
94.5
 30
0.0
 11
188.0
 21
165.0
 31
0.0
  0
LINE
  8
1
  5
3F
  6
CONTINUOUS
 62
7
 10
188.0
 20
165.0
 30
0.0
 11
188.0
 21
165.0
 31
15.0
  0
LINE
  8
1
  5
41
  6
CONTINUOUS
 62
7
 10
188.0
 20
94.5
 30
15.0
 11
182.1
 21
94.5
 31
15.0
  0
LINE
  8
1
  5
43
  6
CONTINUOUS
 62
7
 10
182.1
 20
94.5
 30
0.0
 11
182.1
 21
94.5
 31
15.0
  0
LINE
  8
1
  5
45
  6
CONTINUOUS
 62
7
 10
182.1
 20
94.5
 30
0.0
 11
188.0
 21
94.5
 31
0.0
  0
ARC
  8
1
  5
47
  6
CONTINUOUS
 62
7
 10
182.1
 20
90.4
 30
15.0
 40
4.1
 50
90.0
 51
180.0
  0
LINE
  8
1
  5
49
  6
CONTINUOUS
 62
7
 10
178.0
 20
90.4
 30
0.0
 11
178.0
 21
90.4
 31
15.0
  0
ARC
  8
1
  5
4B
  6
CONTINUOUS
 62
7
 210
0.0
 220
0.0
 230
-1.0
 10
-182.1
 20
90.4
 30
0.0
 40
4.1
 50
360.0
 51
90.0
  0
LINE
  8
1
  5
4D
  6
CONTINUOUS
 62
7
 10
178.0
 20
90.4
 30
15.0
 11
178.0
 21
86.6
 31
15.0
  0
LINE
  8
1
  5
4F
  6
CONTINUOUS
 62
7
 10
178.0
 20
86.6
 30
0.0
 11
178.0
 21
86.6
 31
15.0
  0
LINE
  8
1
  5
51
  6
CONTINUOUS
 62
7
 10
178.0
 20
86.6
 30
0.0
 11
178.0
 21
90.4
 31
0.0
  0
ARC
  8
1
  5
53
  6
CONTINUOUS
 62
7
 10
182.1
 20
86.6
 30
15.0
 40
4.1
 50
180.0
 51
270.0
  0
ARC
  8
1
  5
55
  6
CONTINUOUS
 62
7
 210
0.0
 220
0.0
 230
-1.0
 10
-182.1
 20
86.6
 30
0.0
 40
4.1
 50
270.0
 51
360.0
  0
LINE
  8
1
  5
57
  6
CONTINUOUS
 62
7
 10
210.0
 20
86.6
 30
0.0
 11
210.0
 21
86.6
 31
15.0
  0
ARC
  8
1
  5
59
  6
CONTINUOUS
 62
7
 210
0.0
 220
0.0
 230
-1.0
 10
-205.9
 20
86.6
 30
0.0
 40
4.1
 50
180.0
 51
270.0
  0
LINE
  8
1
  5
5B
  6
CONTINUOUS
 62
7
 10
210.0
 20
90.4
 30
0.0
 11
210.0
 21
90.4
 31
15.0
  0
LINE
  8
1
  5
5D
  6
CONTINUOUS
 62
7
 10
210.0
 20
90.4
 30
0.0
 11
210.0
 21
86.6
 31
0.0
  0
LINE
  8
1
  5
5F
  6
CONTINUOUS
 62
7
 10
205.9
 20
94.5
 30
0.0
 11
205.9
 21
94.5
 31
15.0
  0
ARC
  8
1
  5
61
  6
CONTINUOUS
 62
7
 210
0.0
 220
0.0
 230
-1.0
 10
-205.9
 20
90.4
 30
0.0
 40
4.1
 50
90.0
 51
180.0
  0
LINE
  8
1
  5
63
  6
CONTINUOUS
 62
7
 10
200.0
 20
94.5
 30
0.0
 11
200.0
 21
94.5
 31
15.0
  0
LINE
  8
1
  5
65
  6
CONTINUOUS
 62
7
 10
200.0
 20
94.5
 30
0.0
 11
205.9
 21
94.5
 31
0.0
  0
LINE
  8
1
  5
67
  6
CONTINUOUS
 62
7
 10
200.0
 20
165.0
 30
0.0
 11
200.0
 21
165.0
 31
15.0
  0
LINE
  8
1
  5
69
  6
CONTINUOUS
 62
7
 10
200.0
 20
165.0
 30
0.0
 11
200.0
 21
94.5
 31
0.0
  0
LINE
  8
1
  5
6B
  6
CONTINUOUS
 62
7
 10
240.0
 20
165.0
 30
0.0
 11
240.0
 21
165.0
 31
15.0
  0
LINE
  8
1
  5
6D
  6
CONTINUOUS
 62
7
 10
240.0
 20
165.0
 30
0.0
 11
200.0
 21
165.0
 31
0.0
  0
LINE
  8
1
  5
6F
  6
CONTINUOUS
 62
7
 10
240.0
 20
0.0
 30
0.0
 11
240.0
 21
0.0
 31
15.0
  0
LINE
  8
1
  5
71
  6
CONTINUOUS
 62
7
 10
240.0
 20
0.0
 30
0.0
 11
240.0
 21
165.0
 31
0.0
  0
LINE
  8
1
  5
73
  6
CONTINUOUS
 62
7
 10
185.0
 20
0.0
 30
15.0
 11
0.0
 21
0.0
 31
15.0
  0
LINE
  8
1
  5
75
  6
CONTINUOUS
 62
7
 10
0.0
 20
0.0
 30
0.0
 11
0.0
 21
0.0
 31
15.0
  0
LINE
  8
1
  5
77
  6
CONTINUOUS
 62
7
 10
0.0
 20
0.0
 30
0.0
 11
240.0
 21
0.0
 31
0.0
  0
LINE
  8
1
  5
79
  6
CONTINUOUS
 62
7
 10
0.0
 20
0.0
 30
15.0
 11
0.0
 21
165.0
 31
15.0
  0
LINE
  8
1
  5
7B
  6
CONTINUOUS
 62
7
 10
0.0
 20
165.0
 30
0.0
 11
0.0
 21
165.0
 31
15.0
  0
LINE
  8
1
  5
7D
  6
CONTINUOUS
 62
7
 10
0.0
 20
165.0
 30
0.0
 11
0.0
 21
0.0
 31
0.0
  0
LINE
  8
1
  5
7F
  6
CONTINUOUS
 62
7
 10
0.0
 20
165.0
 30
15.0
 11
188.0
 21
165.0
 31
15.0
  0
LINE
  8
1
  5
81
  6
CONTINUOUS
 62
7
 10
188.0
 20
165.0
 30
0.0
 11
0.0
 21
165.0
 31
0.0
  0
ENDBLK
  8
1
  5
82
  0
BLOCK
  8
1
  5
84
 70
1
 10
0.0
 20
0.0
 30
0.0
  2
*M2
  3
*M2
  0
INSERT
  8
1
  5
86
  6
CONTINUOUS
 62
7
  2
*M0
 10
-1.5
 20
0.0
 30
0.0
 41
1.0
 42
1.0
 43
1.0
 70
1
 71
1
  0
INSERT
  8
1
  5
88
  6
CONTINUOUS
 62
7
  2
*M1
 10
0.0
 20
0.0
 30
0.0
 41
1.0
 42
1.0
 43
1.0
 70
1
 71
1
  0
ENDBLK
  8
1
  5
89
  0
BLOCK
  8
1
  5
8B
 70
1
 10
0.0
 20
0.0
 30
0.0
  2
*M3
  3
*M3
  0
LINE
  8
1
  5
8D
  6
CONTINUOUS
 62
7
 10
-186.5
 20
82.5
 30
-27.0
 11
-186.5
 21
82.5
 31
-24.0
  0
LINE
  8
1
  5
8F
  6
CONTINUOUS
 62
7
 10
-186.5
 20
0.0
 30
-27.0
 11
-186.5
 21
82.5
 31
-27.0
  0
LINE
  8
1
  5
91
  6
CONTINUOUS
 62
7
 10
-186.5
 20
0.0
 30
-24.0
 11
-186.5
 21
0.0
 31
-27.0
  0
LINE
  8
1
  5
93
  6
CONTINUOUS
 62
7
 10
-186.5
 20
82.5
 30
-24.0
 11
-186.5
 21
0.0
 31
-24.0
  0
LINE
  8
1
  5
95
  6
CONTINUOUS
 62
7
 10
-201.5
 20
82.5
 30
-24.0
 11
-201.5
 21
82.5
 31
-27.0
  0
LINE
  8
1
  5
97
  6
CONTINUOUS
 62
7
 10
-201.5
 20
0.0
 30
-24.0
 11
-201.5
 21
82.5
 31
-24.0
  0
LINE
  8
1
  5
99
  6
CONTINUOUS
 62
7
 10
-201.5
 20
0.0
 30
-27.0
 11
-201.5
 21
0.0
 31
-24.0
  0
LINE
  8
1
  5
9B
  6
CONTINUOUS
 62
7
 10
-201.5
 20
82.5
 30
-27.0
 11
-201.5
 21
0.0
 31
-27.0
  0
LINE
  8
1
  5
9D
  6
CONTINUOUS
 62
7
 10
-201.5
 20
82.5
 30
-27.0
 11
-186.5
 21
82.5
 31
-27.0
  0
LINE
  8
1
  5
9F
  6
CONTINUOUS
 62
7
 10
-186.5
 20
0.0
 30
-27.0
 11
-201.5
 21
0.0
 31
-27.0
  0
ENDBLK
  8
1
  5
A0
  0
BLOCK
  8
1
  5
A2
 70
1
 10
0.0
 20
0.0
 30
0.0
  2
*M4
  3
*M4
  0
LINE
  8
1
  5
A4
  6
CONTINUOUS
 62
7
 10
-203.0
 20
0.0
 30
0.0
 11
-240.0
 21
0.0
 31
0.0
  0
LINE
  8
1
  5
A6
  6
CONTINUOUS
 62
7
 10
-240.0
 20
0.0
 30
0.0
 11
-240.0
 21
0.0
 31
-15.0
  0
LINE
  8
1
  5
A8
  6
CONTINUOUS
 62
7
 10
-240.0
 20
0.0
 30
-15.0
 11
0.0
 21
0.0
 31
-15.0
  0
LINE
  8
1
  5
AA
  6
CONTINUOUS
 62
7
 10
0.0
 20
0.0
 30
0.0
 11
0.0
 21
0.0
 31
-15.0
  0
LINE
  8
1
  5
AC
  6
CONTINUOUS
 62
7
 10
0.0
 20
0.0
 30
0.0
 11
-188.0
 21
0.0
 31
0.0
  0
LINE
  8
1
  5
AE
  6
CONTINUOUS
 62
7
 10
-205.9
 20
82.5
 30
0.0
 11
-203.0
 21
82.5
 31
0.0
  0
ARC
  8
1
  5
B0
  6
CONTINUOUS
 62
7
 10
-205.9
 20
86.6
 30
0.0
 40
4.1
 50
180.0
 51
270.0
  0
LINE
  8
1
  5
B2
  6
CONTINUOUS
 62
7
 10
-210.0
 20
90.4
 30
0.0
 11
-210.0
 21
86.6
 31
0.0
  0
ARC
  8
1
  5
B4
  6
CONTINUOUS
 62
7
 10
-205.9
 20
90.4
 30
0.0
 40
4.1
 50
90.0
 51
180.0
  0
LINE
  8
1
  5
B6
  6
CONTINUOUS
 62
7
 10
-200.0
 20
94.5
 30
0.0
 11
-205.9
 21
94.5
 31
0.0
  0
LINE
  8
1
  5
B8
  6
CONTINUOUS
 62
7
 10
-200.0
 20
165.0
 30
0.0
 11
-200.0
 21
94.5
 31
0.0
  0
LINE
  8
1
  5
BA
  6
CONTINUOUS
 62
7
 10
-240.0
 20
165.0
 30
0.0
 11
-200.0
 21
165.0
 31
0.0
  0
LINE
  8
1
  5
BC
  6
CONTINUOUS
 62
7
 10
-240.0
 20
0.0
 30
0.0
 11
-240.0
 21
165.0
 31
0.0
  0
LINE
  8
1
  5
BE
  6
CONTINUOUS
 62
7
 10
0.0
 20
165.0
 30
0.0
 11
0.0
 21
0.0
 31
0.0
  0
LINE
  8
1
  5
C0
  6
CONTINUOUS
 62
7
 10
-188.0
 20
165.0
 30
0.0
 11
0.0
 21
165.0
 31
0.0
  0
LINE
  8
1
  5
C2
  6
CONTINUOUS
 62
7
 10
-188.0
 20
94.5
 30
0.0
 11
-188.0
 21
165.0
 31
0.0
  0
LINE
  8
1
  5
C4
  6
CONTINUOUS
 62
7
 10
-182.1
 20
94.5
 30
0.0
 11
-188.0
 21
94.5
 31
0.0
  0
ARC
  8
1
  5
C6
  6
CONTINUOUS
 62
7
 10
-182.1
 20
90.4
 30
0.0
 40
4.1
 50
360.0
 51
90.0
  0
LINE
  8
1
  5
C8
  6
CONTINUOUS
 62
7
 10
-178.0
 20
86.6
 30
0.0
 11
-178.0
 21
90.4
 31
0.0
  0
ARC
  8
1
  5
CA
  6
CONTINUOUS
 62
7
 10
-182.1
 20
86.6
 30
0.0
 40
4.1
 50
270.0
 51
360.0
  0
LINE
  8
1
  5
CC
  6
CONTINUOUS
 62
7
 10
-188.0
 20
82.5
 30
0.0
 11
-182.1
 21
82.5
 31
0.0
  0
LINE
  8
1
  5
CE
  6
CONTINUOUS
 62
7
 10
-188.0
 20
165.0
 30
-15.0
 11
-188.0
 21
94.5
 31
-15.0
  0
LINE
  8
1
  5
D0
  6
CONTINUOUS
 62
7
 10
-188.0
 20
94.5
 30
0.0
 11
-188.0
 21
94.5
 31
-15.0
  0
LINE
  8
1
  5
D2
  6
CONTINUOUS
 62
7
 10
-188.0
 20
165.0
 30
0.0
 11
-188.0
 21
165.0
 31
-15.0
  0
LINE
  8
1
  5
D4
  6
CONTINUOUS
 62
7
 10
-188.0
 20
94.5
 30
-15.0
 11
-182.1
 21
94.5
 31
-15.0
  0
LINE
  8
1
  5
D6
  6
CONTINUOUS
 62
7
 10
-182.1
 20
94.5
 30
0.0
 11
-182.1
 21
94.5
 31
-15.0
  0
ARC
  8
1
  5
D8
  6
CONTINUOUS
 62
7
 210
0.0
 220
0.0
 230
-1.0
 10
182.1
 20
90.4
 30
15.0
 40
4.1
 50
90.0
 51
180.0
  0
LINE
  8
1
  5
DA
  6
CONTINUOUS
 62
7
 10
-178.0
 20
90.4
 30
0.0
 11
-178.0
 21
90.4
 31
-15.0
  0
LINE
  8
1
  5
DC
  6
CONTINUOUS
 62
7
 10
-178.0
 20
90.4
 30
-15.0
 11
-178.0
 21
86.6
 31
-15.0
  0
LINE
  8
1
  5
DE
  6
CONTINUOUS
 62
7
 10
-178.0
 20
86.6
 30
0.0
 11
-178.0
 21
86.6
 31
-15.0
  0
ARC
  8
1
  5
E0
  6
CONTINUOUS
 62
7
 210
0.0
 220
0.0
 230
-1.0
 10
182.1
 20
86.6
 30
15.0
 40
4.1
 50
180.0
 51
270.0
  0
LINE
  8
1
  5
E2
  6
CONTINUOUS
 62
7
 10
-182.1
 20
82.5
 30
0.0
 11
-182.1
 21
82.5
 31
-15.0
  0
LINE
  8
1
  5
E4
  6
CONTINUOUS
 62
7
 10
-182.1
 20
82.5
 30
-15.0
 11
-205.9
 21
82.5
 31
-15.0
  0
LINE
  8
1
  5
E6
  6
CONTINUOUS
 62
7
 10
-205.9
 20
82.5
 30
0.0
 11
-205.9
 21
82.5
 31
-15.0
  0
ARC
  8
1
  5
E8
  6
CONTINUOUS
 62
7
 210
0.0
 220
0.0
 230
-1.0
 10
205.9
 20
86.6
 30
15.0
 40
4.1
 50
270.0
 51
360.0
  0
LINE
  8
1
  5
EA
  6
CONTINUOUS
 62
7
 10
-210.0
 20
86.6
 30
0.0
 11
-210.0
 21
86.6
 31
-15.0
  0
LINE
  8
1
  5
EC
  6
CONTINUOUS
 62
7
 10
-210.0
 20
86.6
 30
-15.0
 11
-210.0
 21
90.4
 31
-15.0
  0
LINE
  8
1
  5
EE
  6
CONTINUOUS
 62
7
 10
-210.0
 20
90.4
 30
0.0
 11
-210.0
 21
90.4
 31
-15.0
  0
ARC
  8
1
  5
F0
  6
CONTINUOUS
 62
7
 210
0.0
 220
0.0
 230
-1.0
 10
205.9
 20
90.4
 30
15.0
 40
4.1
 50
0.0
 51
90.0
  0
LINE
  8
1
  5
F2
  6
CONTINUOUS
 62
7
 10
-205.9
 20
94.5
 30
0.0
 11
-205.9
 21
94.5
 31
-15.0
  0
LINE
  8
1
  5
F4
  6
CONTINUOUS
 62
7
 10
-205.9
 20
94.5
 30
-15.0
 11
-200.0
 21
94.5
 31
-15.0
  0
LINE
  8
1
  5
F6
  6
CONTINUOUS
 62
7
 10
-200.0
 20
94.5
 30
0.0
 11
-200.0
 21
94.5
 31
-15.0
  0
LINE
  8
1
  5
F8
  6
CONTINUOUS
 62
7
 10
-200.0
 20
94.5
 30
-15.0
 11
-200.0
 21
165.0
 31
-15.0
  0
LINE
  8
1
  5
FA
  6
CONTINUOUS
 62
7
 10
-200.0
 20
165.0
 30
0.0
 11
-200.0
 21
165.0
 31
-15.0
  0
LINE
  8
1
  5
FC
  6
CONTINUOUS
 62
7
 10
-200.0
 20
165.0
 30
-15.0
 11
-240.0
 21
165.0
 31
-15.0
  0
LINE
  8
1
  5
FE
  6
CONTINUOUS
 62
7
 10
-240.0
 20
165.0
 30
0.0
 11
-240.0
 21
165.0
 31
-15.0
  0
LINE
  8
1
  5
100
  6
CONTINUOUS
 62
7
 10
-240.0
 20
165.0
 30
-15.0
 11
-240.0
 21
0.0
 31
-15.0
  0
LINE
  8
1
  5
102
  6
CONTINUOUS
 62
7
 10
0.0
 20
0.0
 30
-15.0
 11
0.0
 21
165.0
 31
-15.0
  0
LINE
  8
1
  5
104
  6
CONTINUOUS
 62
7
 10
0.0
 20
165.0
 30
0.0
 11
0.0
 21
165.0
 31
-15.0
  0
LINE
  8
1
  5
106
  6
CONTINUOUS
 62
7
 10
0.0
 20
165.0
 30
-15.0
 11
-188.0
 21
165.0
 31
-15.0
  0
ENDBLK
  8
1
  5
107
  0
BLOCK
  8
1
  5
109
 70
1
 10
0.0
 20
0.0
 30
0.0
  2
*M5
  3
*M5
  0
INSERT
  8
1
  5
10B
  6
CONTINUOUS
 62
7
  2
*M3
 10
533.70162
 20
-152.23192
 30
24.0
 41
1.0
 42
1.0
 43
1.0
 70
1
 71
1
  0
INSERT
  8
1
  5
10D
  6
CONTINUOUS
 62
7
  2
*M4
 10
535.20162
 20
-152.23192
 30
0.0
 41
1.0
 42
1.0
 43
1.0
 70
1
 71
1
  0
ENDBLK
  8
1
  5
10E
  0
ENDSEC
  0
SECTION
  2
ENTITIES
  0
INSERT
  8
1
  5
2
  6
CONTINUOUS
 62
7
  2
*M2
 10
-143.59905
 20
5.57452
 30
-116.16025
 41
1.0
 42
1.0
 43
1.0
 70
1
 71
1
  0
INSERT
  8
1
  5
4
  6
CONTINUOUS
 62
7
  2
*M5
 10
-148.80067
 20
157.80644
 30
-101.16025
 41
1.0
 42
1.0
 43
1.0
 70
1
 71
1
  0
ENDSEC
  0
EOF
