  0
SECTION
  2
HEADER
  9
$ACADVER
  1
AC1009
  9
$INSBASE
 10
0.0
 20
0.0
 30
0.0
  9
$EXTMAX
 10
530.0
 20
173.52442
 30
61.35376
  9
$EXTMIN
 10
0.0
 20
8.52442
 30
46.35375
  9
$LIMMAX
 10
12.0
 20
9.0
  9
$LIMMIN
 10
0.0
 20
0.0
  9
$ORTHOMODE
 70
0
  9
$REGENMODE
 70
1
  9
$FILLMODE
 70
1
  9
$QTEXTMODE
 70
0
  9
$MIRRTEXT
 70
1
  9
$DRAGMODE
 70
2
  9
$LTSCALE
 40
1.0
  9
$OSMODE
 70
0
  9
$ATTMODE
 70
1
  9
$TEXTSIZE
 40
0.2
  9
$TRACEWID
 40
0.05
  9
$TEXTSTYLE
  7
STANDARD
  9
$CLAYER
  8
0
  9
$CELTYPE
  6
CONTINUOUS
  9
$CECOLOR
 62
256
  9
$DIMSCALE
 40
1.0
  9
$DIMASZ
 40
0.18
  9
$DIMEXO
 40
0.0625
  9
$DIMDLI
 40
0.38
  9
$DIMRND
 40
0.0
  9
$DIMDLE
 40
0.0
  9
$DIMEXE
 40
0.18
  9
$DIMTP
 40
0.0
  9
$DIMTM
 40
0.0
  9
$DIMTXT
 40
0.18
  9
$DIMCEN
 40
0.09
  9
$DIMTSZ
 40
0.0
  9
$DIMTOL
 70
0
  9
$DIMLIM
 70
0
  9
$DIMTIH
 70
1
  9
$DIMTOH
 70
1
  9
$DIMSE1
 70
0
  9
$DIMSE2
 70
0
  9
$DIMTAD
 70
0
  9
$DIMZIN
 70
0
  9
$DIMBLK
  1

  9
$DIMASO
 70
1
  9
$DIMSHO
 70
1
  9
$DIMPOST
  1

  9
$DIMAPOST
  1

  9
$DIMALT
 70
0
  9
$DIMALTD
 70
2
  9
$DIMALTF
 40
25.4
  9
$DIMLFAC
 40
1.0
  9
$DIMTOFL
 70
0
  9
$DIMTVP
 40
0.0
  9
$DIMTIX
 70
0
  9
$DIMSOXD
 70
0
  9
$DIMSAH
 70
0
  9
$DIMBLK1
  1

  9
$DIMBLK2
  1

  9
$DIMSTYLE
  2
*UNNAMED
  9
$DIMCLRD
 70
0
  9
$DIMCLRE
 70
0
  9
$DIMCLRT
 70
0
  9
$DIMTFAC
 40
1.0
  9
$DIMGAP
 40
0.09
  9
$LUNITS
 70
2
  9
$LUPREC
 70
4
  9
$AXISMODE
 70
0
  9
$AXISUNIT
 10
0.0
 20
0.0
  9
$SKETCHINC
 40
0.1
  9
$FILLETRAD
 40
0.0
  9
$AUNITS
 70
0
  9
$AUPREC
 70
0
  9
$MENU
  1
acad
  9
$ELEVATION
 40
0.0
  9
$PELEVATION
 40
0.0
  9
$THICKNESS
 40
0.0
  9
$LIMCHECK
 70
0
  9
$BLIPMODE
 70
1
  9
$CHAMFERA
 40
0.0
  9
$CHAMFERB
 40
0.0
  9
$SKPOLY
 70
0
  9
$TDCREATE
 40
0.0
  9
$TDUPDATE
 40
0.0
  9
$TDINDWG
 40
0.0
  9
$TDUSRTIMER
 40
0.0
  9
$USRTIMER
 70
1
  9
$ANGBASE
 50
0.0
  9
$ANGDIR
 70
0
  9
$PDMODE
 70
0
  9
$PDSIZE
 40
0.0
  9
$PLINEWID
 40
0.0
  9
$COORDS
 70
0
  9
$SPLFRAME
 70
0
  9
$SPLINETYPE
 70
6
  9
$SPLINESEGS
 70
10
  9
$ATTDIA
 70
0
  9
$ATTREQ
 70
1
  9
$HANDLING
 70
1
  9
$HANDSEED
  5
126
  9
$SURFTAB1
 70
6
  9
$SURFTAB2
 70
6
  9
$SURFTYPE
 70
6
  9
$SURFU
 70
10
  9
$SURFV
 70
10
  9
$UCSNAME
  2

  9
$UCSORG
 10
0.0
 20
0.0
 30
0.0
  9
$UCSXDIR
 10
1.0
 20
0.0
 30
0.0
  9
$UCSYDIR
 10
0.0
 20
1.0
 30
0.0
  9
$PUCSNAME
  2
 
  9
$PUCSORG
 10
0.0
 20
0.0
 30
0.0
  9
$PUCSXDIR
 10
1.0
 20
0.0
 30
0.0
  9
$PUCSYDIR
 10
0.0
 20
1.0
 30
0.0
  9
$USERI1
 70
0
  9
$USERI2
 70
0
  9
$USERI3
 70
0
  9
$USERI4
 70
0
  9
$USERI5
 70
0
  9
$USERR1
 40
0.0
  9
$USERR2
 40
0.0
  9
$USERR3
 40
0.0
  9
$USERR4
 40
0.0
  9
$USERR5
 40
0.0
  9
$WORLDVIEW
 70
1
  9
$SHADEDGE
 70
3
  9
$SHADEDIF
 70
70
  9
$TILEMODE
 70
1
  9
$MAXACTVP
 70
16
  9
$PINSBASE
 10
0.0
 20
0.0
 30
0.0
  9
$PLIMCHECK
 70
0
  9
$PEXTMIN
 10
-1.000000E+020
 20
-1.000000E+020
 30
-1.000000E+020
  9
$PEXTMAX
 10
-1.000000E+020
 20
-1.000000E+020
 30
-1.000000E+020
  9
$PLIMMIN
 10
0.0
 20
0.0
  9
$PLIMMAX
 10
12.0
 20
9.0
  9
$UNITMODE
 70
0
  9
$VISRETAIN
 70
0
  0
ENDSEC
  0
SECTION
  2
TABLES
  0
TABLE
  2
LTYPE
 70
7
  0
LTYPE
  2
CONTINUOUS
 70
64
  3
Solid line
 72
65
 73
0
 40
0.0
  0
LTYPE
  2
DOT
 70
64
  3
. . . . . . . . . . . . . . . . . . . . . . . . . . . . . . . . .
 72
65
 73
2
 40
0.25
 49
0.0
 49
-0.25
  0
LTYPE
  2
HIDDEN
 70
64
  3
__ __ __ __ __ __ __ __ __ __ __ __ __ __ __ __ __ __ __ __ __ 
 72
65
 73
2
 40
0.375
 49
0.25
 49
-0.125
  0
LTYPE
  2
DASHED
 70
64
  3
__ __ __ __ __ __ __ __ __ __ __ __ __ __ __ __ __ __ __ __ __
 72
65
 73
2
 40
0.75
 49
0.5
 49
-0.25
  0
LTYPE
  2
DASHDOT
 70
64
  3
__ . __ . __ . __ . __ . __ . __ . __ . __ . __ . __ . __ . _
 72
65
 73
4
 40
1.0
 49
0.5
 49
-0.25
 49
0.0
 49
-0.25
  0
LTYPE
  2
DIVIDE
 70
64
  3
____ . . ____ . . ____ . . ____ . . ____ . . ____ . . ____ . .
 72
65
 73
6
 40
1.25
 49
0.5
 49
-0.25
 49
0.0
 49
-0.25
 49
0.0
 49
-0.25
  0
LTYPE
  2
CENTER
 70
64
  3
____ _ ____ _ ____ _ ____ _ ____ _ ____ _ ____ _ ____ _ ____ _
 72
65
 73
4
 40
2.0
 49
1.25
 49
-0.25
 49
0.25
 49
-0.25
  0
ENDTAB
  0
TABLE
  2
APPID
 70
1
  0
APPID
  2
ACAD
 70
0
  0
ENDTAB
  0
TABLE
  2
DIMSTYLE
 70
0
  0
ENDTAB
  0
TABLE
  2
LAYER
 70
4
  0
LAYER
  2
0
 70
0
 62
7
  6
CONTINUOUS
  0
LAYER
  2
CONSTRUCTION_CLASS
 70
0
 62
7
  6
CONTINUOUS
  0
LAYER
  2
PATTERN_CLASS
 70
0
 62
7
  6
CONTINUOUS
  0
LAYER
  2
1
 70
0
 62
7
  6
CONTINUOUS
  0
ENDTAB
  0
TABLE
  2
STYLE
 70
1
  0
STYLE
  2
STANDARD
 70
0
 40
0.2
 41
1.0
 50
0.0
 71
0
 42
0.0
  3
txt
  4

  0
ENDTAB
  0
TABLE
  2
UCS
 70
0
  0
ENDTAB
  0
TABLE
  2
VIEW
 70
0
  0
ENDTAB
  0
TABLE
  2
VPORT
 70
4
  0
VPORT
  2
*ACTIVE
 70
0
 10
0.500821
 20
0.50171
 11
0.998358
 21
0.997719
 12
0.0
 22
0.0
 13
0.0
 23
0.0
 14
0.0
 24
0.0
 15
0.0
 25
0.0
 16
0.0
 26
-1.889913E-015
 36
30.86564
 17
242.598205
 27
91.024425
 37
53.85375
 40
357.79569
 41
1.393103
 42
50.0
 43
15.43282
 44
-15.43282
 50
0.0
 51
0.0
 71
22
 72
100
 73
1
 74
0
 75
0
 76
0
 77
0
 78
0
  0
VPORT
  2
*ACTIVE
 70
0
 10
0.001642
 20
0.50171
 11
0.499179
 21
0.997719
 12
-22.067708
 22
0.000009
 13
0.0
 23
0.0
 14
0.0
 24
0.0
 15
0.0
 25
0.0
 16
-1397.759487
 26
-1397.759487
 36
1397.759487
 17
222.49072
 27
48.51514
 37
77.613035
 40
352.45967
 41
1.393103
 42
145.619494
 43
149.51209
 44
-231.81665
 50
0.0
 51
0.0
 71
23
 72
100
 73
1
 74
0
 75
0
 76
0
 77
0
 78
0
  0
VPORT
  2
*ACTIVE
 70
0
 10
0.001642
 20
0.003421
 11
0.499179
 21
0.49943
 12
0.0
 22
0.0
 13
0.0
 23
0.0
 14
0.0
 24
0.0
 15
0.0
 25
0.0
 16
0.0
 26
-180.86562
 36
0.0
 17
242.598205
 27
91.02442
 37
53.853755
 40
357.79569
 41
1.393103
 42
50.0
 43
90.43281
 44
-90.43281
 50
0.0
 51
0.0
 71
22
 72
100
 73
1
 74
0
 75
0
 76
0
 77
0
 78
0
  0
VPORT
  2
*ACTIVE
 70
0
 10
0.500821
 20
0.003421
 11
0.998358
 21
0.49943
 12
0.0
 22
0.0
 13
0.0
 23
0.0
 14
0.0
 24
0.0
 15
0.0
 25
0.0
 16
543.25
 26
0.0
 36
0.0
 17
265.0
 27
83.764074
 37
53.85376
 40
115.96044
 41
1.393103
 42
50.0
 43
271.625
 44
-271.625
 50
0.0
 51
0.0
 71
22
 72
100
 73
1
 74
0
 75
0
 76
0
 77
0
 78
0
  0
ENDTAB
  0
ENDSEC
  0
SECTION
  2
BLOCKS
  0
BLOCK
  8
1
  5
6
 70
1
 10
0.0
 20
0.0
 30
0.0
  2
*M0
  3
*M0
  0
LINE
  8
1
  5
8
  6
CONTINUOUS
 62
7
 10
530.0
 20
-38.60933
 30
-68.60933
 11
530.0
 21
51.39067
 31
-68.60933
  0
LINE
  8
1
  5
A
  6
CONTINUOUS
 62
7
 10
530.0
 20
51.39067
 30
-53.60933
 11
530.0
 21
51.39067
 31
-68.60933
  0
LINE
  8
1
  5
C
  6
CONTINUOUS
 62
7
 10
530.0
 20
-38.60933
 30
-53.60933
 11
530.0
 21
51.39067
 31
-53.60933
  0
LINE
  8
1
  5
E
  6
CONTINUOUS
 62
7
 10
530.0
 20
-38.60933
 30
-53.60933
 11
530.0
 21
-38.60933
 31
-68.60933
  0
LINE
  8
1
  5
10
  6
CONTINUOUS
 62
7
 10
530.0
 20
51.39067
 30
-68.60933
 11
290.0
 21
51.39067
 31
-68.60933
  0
LINE
  8
1
  5
12
  6
CONTINUOUS
 62
7
 10
290.0
 20
51.39067
 30
-53.60933
 11
290.0
 21
51.39067
 31
-68.60933
  0
LINE
  8
1
  5
14
  6
CONTINUOUS
 62
7
 10
530.0
 20
51.39067
 30
-53.60933
 11
290.0
 21
51.39067
 31
-53.60933
  0
LINE
  8
1
  5
16
  6
CONTINUOUS
 62
7
 10
290.0
 20
51.39067
 30
-68.60933
 11
290.0
 21
-38.60933
 31
-68.60933
  0
LINE
  8
1
  5
18
  6
CONTINUOUS
 62
7
 10
290.0
 20
-38.60933
 30
-53.60933
 11
290.0
 21
-38.60933
 31
-68.60933
  0
LINE
  8
1
  5
1A
  6
CONTINUOUS
 62
7
 10
290.0
 20
51.39067
 30
-53.60933
 11
290.0
 21
-38.60933
 31
-53.60933
  0
LINE
  8
1
  5
1C
  6
CONTINUOUS
 62
7
 10
290.0
 20
-38.60933
 30
-68.60933
 11
330.0
 21
-38.60933
 31
-68.60933
  0
LINE
  8
1
  5
1E
  6
CONTINUOUS
 62
7
 10
330.0
 20
-38.60933
 30
-53.60933
 11
330.0
 21
-38.60933
 31
-68.60933
  0
LINE
  8
1
  5
20
  6
CONTINUOUS
 62
7
 10
290.0
 20
-38.60933
 30
-53.60933
 11
330.0
 21
-38.60933
 31
-53.60933
  0
LINE
  8
1
  5
22
  6
CONTINUOUS
 62
7
 10
330.0
 20
-38.60933
 30
-68.60933
 11
330.0
 21
-11.10933
 31
-68.60933
  0
LINE
  8
1
  5
24
  6
CONTINUOUS
 62
7
 10
330.0
 20
-11.10933
 30
-53.60933
 11
330.0
 21
-11.10933
 31
-68.60933
  0
LINE
  8
1
  5
26
  6
CONTINUOUS
 62
7
 10
330.0
 20
-38.60933
 30
-53.60933
 11
330.0
 21
-11.10933
 31
-53.60933
  0
LINE
  8
1
  5
28
  6
CONTINUOUS
 62
7
 10
330.0
 20
-11.10933
 30
-68.60933
 11
324.1
 21
-11.10933
 31
-68.60933
  0
LINE
  8
1
  5
2A
  6
CONTINUOUS
 62
7
 10
324.1
 20
-11.10933
 30
-53.60933
 11
324.1
 21
-11.10933
 31
-68.60933
  0
LINE
  8
1
  5
2C
  6
CONTINUOUS
 62
7
 10
330.0
 20
-11.10933
 30
-53.60933
 11
324.1
 21
-11.10933
 31
-53.60933
  0
ARC
  8
1
  5
2E
  6
CONTINUOUS
 62
7
 210
0.0
 220
0.0
 230
-1.0
 10
-324.1
 20
-7.00933
 30
68.60933
 40
4.1
 50
270.0
 51
360.0
  0
LINE
  8
1
  5
30
  6
CONTINUOUS
 62
7
 10
320.0
 20
-7.00933
 30
-53.60933
 11
320.0
 21
-7.00933
 31
-68.60933
  0
ARC
  8
1
  5
32
  6
CONTINUOUS
 62
7
 210
0.0
 220
0.0
 230
-1.0
 10
-324.1
 20
-7.00933
 30
53.60933
 40
4.1
 50
270.0
 51
360.0
  0
LINE
  8
1
  5
34
  6
CONTINUOUS
 62
7
 10
320.0
 20
-7.00933
 30
-68.60933
 11
320.0
 21
-5.20933
 31
-68.60933
  0
LINE
  8
1
  5
36
  6
CONTINUOUS
 62
7
 10
320.0
 20
-5.20933
 30
-53.60933
 11
320.0
 21
-5.20933
 31
-68.60933
  0
LINE
  8
1
  5
38
  6
CONTINUOUS
 62
7
 10
320.0
 20
-7.00933
 30
-53.60933
 11
320.0
 21
-5.20933
 31
-53.60933
  0
ARC
  8
1
  5
3A
  6
CONTINUOUS
 62
7
 210
0.0
 220
0.0
 230
-1.0
 10
-324.1
 20
-5.20933
 30
68.60933
 40
4.1
 50
360.0
 51
90.0
  0
LINE
  8
1
  5
3C
  6
CONTINUOUS
 62
7
 10
324.1
 20
-1.10933
 30
-53.60933
 11
324.1
 21
-1.10933
 31
-68.60933
  0
ARC
  8
1
  5
3E
  6
CONTINUOUS
 62
7
 210
0.0
 220
0.0
 230
-1.0
 10
-324.1
 20
-5.20933
 30
53.60933
 40
4.1
 50
360.0
 51
90.0
  0
LINE
  8
1
  5
40
  6
CONTINUOUS
 62
7
 10
324.1
 20
-1.10933
 30
-68.60933
 11
347.9
 21
-1.10933
 31
-68.60933
  0
LINE
  8
1
  5
42
  6
CONTINUOUS
 62
7
 10
347.9
 20
-1.10933
 30
-53.60933
 11
347.9
 21
-1.10933
 31
-68.60933
  0
LINE
  8
1
  5
44
  6
CONTINUOUS
 62
7
 10
324.1
 20
-1.10933
 30
-53.60933
 11
347.9
 21
-1.10933
 31
-53.60933
  0
ARC
  8
1
  5
46
  6
CONTINUOUS
 62
7
 210
0.0
 220
0.0
 230
-1.0
 10
-347.9
 20
-5.20933
 30
68.60933
 40
4.1
 50
90.0
 51
180.0
  0
LINE
  8
1
  5
48
  6
CONTINUOUS
 62
7
 10
352.0
 20
-5.20933
 30
-53.60933
 11
352.0
 21
-5.20933
 31
-68.60933
  0
ARC
  8
1
  5
4A
  6
CONTINUOUS
 62
7
 210
0.0
 220
0.0
 230
-1.0
 10
-347.9
 20
-5.20933
 30
53.60933
 40
4.1
 50
90.0
 51
180.0
  0
LINE
  8
1
  5
4C
  6
CONTINUOUS
 62
7
 10
352.0
 20
-5.20933
 30
-68.60933
 11
352.0
 21
-7.00933
 31
-68.60933
  0
LINE
  8
1
  5
4E
  6
CONTINUOUS
 62
7
 10
352.0
 20
-7.00933
 30
-53.60933
 11
352.0
 21
-7.00933
 31
-68.60933
  0
LINE
  8
1
  5
50
  6
CONTINUOUS
 62
7
 10
352.0
 20
-5.20933
 30
-53.60933
 11
352.0
 21
-7.00933
 31
-53.60933
  0
ARC
  8
1
  5
52
  6
CONTINUOUS
 62
7
 210
0.0
 220
0.0
 230
-1.0
 10
-347.9
 20
-7.00933
 30
68.60933
 40
4.1
 50
180.0
 51
270.0
  0
LINE
  8
1
  5
54
  6
CONTINUOUS
 62
7
 10
347.9
 20
-11.10933
 30
-53.60933
 11
347.9
 21
-11.10933
 31
-68.60933
  0
ARC
  8
1
  5
56
  6
CONTINUOUS
 62
7
 210
0.0
 220
0.0
 230
-1.0
 10
-347.9
 20
-7.00933
 30
53.60933
 40
4.1
 50
180.0
 51
270.0
  0
LINE
  8
1
  5
58
  6
CONTINUOUS
 62
7
 10
347.9
 20
-11.10933
 30
-68.60933
 11
342.0
 21
-11.10933
 31
-68.60933
  0
LINE
  8
1
  5
5A
  6
CONTINUOUS
 62
7
 10
342.0
 20
-11.10933
 30
-53.60933
 11
342.0
 21
-11.10933
 31
-68.60933
  0
LINE
  8
1
  5
5C
  6
CONTINUOUS
 62
7
 10
347.9
 20
-11.10933
 30
-53.60933
 11
342.0
 21
-11.10933
 31
-53.60933
  0
LINE
  8
1
  5
5E
  6
CONTINUOUS
 62
7
 10
342.0
 20
-11.10933
 30
-68.60933
 11
342.0
 21
-38.60933
 31
-68.60933
  0
LINE
  8
1
  5
60
  6
CONTINUOUS
 62
7
 10
342.0
 20
-38.60933
 30
-53.60933
 11
342.0
 21
-38.60933
 31
-68.60933
  0
LINE
  8
1
  5
62
  6
CONTINUOUS
 62
7
 10
342.0
 20
-11.10933
 30
-53.60933
 11
342.0
 21
-38.60933
 31
-53.60933
  0
LINE
  8
1
  5
64
  6
CONTINUOUS
 62
7
 10
342.0
 20
-38.60933
 30
-68.60933
 11
530.0
 21
-38.60933
 31
-68.60933
  0
LINE
  8
1
  5
66
  6
CONTINUOUS
 62
7
 10
342.0
 20
-38.60933
 30
-53.60933
 11
530.0
 21
-38.60933
 31
-53.60933
  0
ENDBLK
  8
1
  5
67
  0
BLOCK
  8
1
  5
69
 70
1
 10
0.0
 20
0.0
 30
0.0
  2
*M1
  3
*M1
  0
LINE
  8
1
  5
6B
  6
CONTINUOUS
 62
7
 10
185.0
 20
-38.60933
 30
-53.60933
 11
185.0
 21
-38.60933
 31
-50.60933
  0
LINE
  8
1
  5
6D
  6
CONTINUOUS
 62
7
 10
185.0
 20
-38.60933
 30
-53.60933
 11
185.0
 21
-1.10933
 31
-53.60933
  0
LINE
  8
1
  5
6F
  6
CONTINUOUS
 62
7
 10
185.0
 20
-1.10933
 30
-50.60933
 11
185.0
 21
-1.10933
 31
-53.60933
  0
LINE
  8
1
  5
71
  6
CONTINUOUS
 62
7
 10
185.0
 20
-38.60933
 30
-50.60933
 11
185.0
 21
-1.10933
 31
-50.60933
  0
LINE
  8
1
  5
73
  6
CONTINUOUS
 62
7
 10
200.0
 20
-38.60933
 30
-53.60933
 11
185.0
 21
-38.60933
 31
-53.60933
  0
LINE
  8
1
  5
75
  6
CONTINUOUS
 62
7
 10
200.0
 20
-1.10933
 30
-53.60933
 11
200.0
 21
-38.60933
 31
-53.60933
  0
LINE
  8
1
  5
77
  6
CONTINUOUS
 62
7
 10
185.0
 20
-1.10933
 30
-53.60933
 11
200.0
 21
-1.10933
 31
-53.60933
  0
LINE
  8
1
  5
79
  6
CONTINUOUS
 62
7
 10
200.0
 20
-38.60933
 30
-50.60933
 11
200.0
 21
-38.60933
 31
-53.60933
  0
LINE
  8
1
  5
7B
  6
CONTINUOUS
 62
7
 10
200.0
 20
-1.10933
 30
-50.60933
 11
200.0
 21
-38.60933
 31
-50.60933
  0
LINE
  8
1
  5
7D
  6
CONTINUOUS
 62
7
 10
200.0
 20
-1.10933
 30
-53.60933
 11
200.0
 21
-1.10933
 31
-50.60933
  0
ENDBLK
  8
1
  5
7E
  0
BLOCK
  8
1
  5
80
 70
1
 10
0.0
 20
0.0
 30
0.0
  2
*M2
  3
*M2
  0
LINE
  8
1
  5
82
  6
CONTINUOUS
 62
7
 10
185.0
 20
-38.60933
 30
-53.60933
 11
0.0
 21
-38.60933
 31
-53.60933
  0
LINE
  8
1
  5
84
  6
CONTINUOUS
 62
7
 10
0.0
 20
-38.60933
 30
-53.60933
 11
0.0
 21
-38.60933
 31
-68.60933
  0
LINE
  8
1
  5
86
  6
CONTINUOUS
 62
7
 10
0.0
 20
-38.60933
 30
-68.60933
 11
240.0
 21
-38.60933
 31
-68.60933
  0
LINE
  8
1
  5
88
  6
CONTINUOUS
 62
7
 10
240.0
 20
-38.60933
 30
-53.60933
 11
240.0
 21
-38.60933
 31
-68.60933
  0
LINE
  8
1
  5
8A
  6
CONTINUOUS
 62
7
 10
240.0
 20
-38.60933
 30
-53.60933
 11
200.0
 21
-38.60933
 31
-53.60933
  0
LINE
  8
1
  5
8C
  6
CONTINUOUS
 62
7
 10
0.0
 20
126.39067
 30
-68.60933
 11
0.0
 21
-38.60933
 31
-68.60933
  0
LINE
  8
1
  5
8E
  6
CONTINUOUS
 62
7
 10
0.0
 20
-38.60933
 30
-53.60933
 11
0.0
 21
126.39067
 31
-53.60933
  0
LINE
  8
1
  5
90
  6
CONTINUOUS
 62
7
 10
0.0
 20
126.39067
 30
-53.60933
 11
0.0
 21
126.39067
 31
-68.60933
  0
LINE
  8
1
  5
92
  6
CONTINUOUS
 62
7
 10
240.0
 20
-38.60933
 30
-68.60933
 11
240.0
 21
126.39067
 31
-68.60933
  0
LINE
  8
1
  5
94
  6
CONTINUOUS
 62
7
 10
240.0
 20
126.39067
 30
-53.60933
 11
240.0
 21
126.39067
 31
-68.60933
  0
LINE
  8
1
  5
96
  6
CONTINUOUS
 62
7
 10
240.0
 20
126.39067
 30
-53.60933
 11
240.0
 21
-38.60933
 31
-53.60933
  0
LINE
  8
1
  5
98
  6
CONTINUOUS
 62
7
 10
240.0
 20
126.39067
 30
-68.60933
 11
0.0
 21
126.39067
 31
-68.60933
  0
LINE
  8
1
  5
9A
  6
CONTINUOUS
 62
7
 10
0.0
 20
126.39067
 30
-53.60933
 11
240.0
 21
126.39067
 31
-53.60933
  0
LINE
  8
1
  5
9C
  6
CONTINUOUS
 62
7
 10
185.0
 20
78.89067
 30
-68.60933
 11
179.1
 21
78.89067
 31
-68.60933
  0
LINE
  8
1
  5
9E
  6
CONTINUOUS
 62
7
 10
179.1
 20
78.89067
 30
-53.60933
 11
179.1
 21
78.89067
 31
-68.60933
  0
LINE
  8
1
  5
A0
  6
CONTINUOUS
 62
7
 10
179.1
 20
78.89067
 30
-53.60933
 11
185.0
 21
78.89067
 31
-53.60933
  0
LINE
  8
1
  5
A2
  6
CONTINUOUS
 62
7
 10
185.0
 20
78.89067
 30
-53.60933
 11
185.0
 21
78.89067
 31
-68.60933
  0
ARC
  8
1
  5
A4
  6
CONTINUOUS
 62
7
 210
0.0
 220
0.0
 230
-1.0
 10
-179.1
 20
82.99067
 30
68.60933
 40
4.1
 50
270.0
 51
360.0
  0
LINE
  8
1
  5
A6
  6
CONTINUOUS
 62
7
 10
175.0
 20
82.99067
 30
-53.60933
 11
175.0
 21
82.99067
 31
-68.60933
  0
ARC
  8
1
  5
A8
  6
CONTINUOUS
 62
7
 10
179.1
 20
82.99067
 30
-53.60933
 40
4.1
 50
180.0
 51
270.0
  0
LINE
  8
1
  5
AA
  6
CONTINUOUS
 62
7
 10
175.0
 20
82.99067
 30
-68.60933
 11
175.0
 21
84.79067
 31
-68.60933
  0
LINE
  8
1
  5
AC
  6
CONTINUOUS
 62
7
 10
175.0
 20
84.79067
 30
-53.60933
 11
175.0
 21
84.79067
 31
-68.60933
  0
LINE
  8
1
  5
AE
  6
CONTINUOUS
 62
7
 10
175.0
 20
84.79067
 30
-53.60933
 11
175.0
 21
82.99067
 31
-53.60933
  0
ARC
  8
1
  5
B0
  6
CONTINUOUS
 62
7
 210
0.0
 220
0.0
 230
-1.0
 10
-179.1
 20
84.79067
 30
68.60933
 40
4.1
 50
360.0
 51
90.0
  0
LINE
  8
1
  5
B2
  6
CONTINUOUS
 62
7
 10
179.1
 20
88.89067
 30
-53.60933
 11
179.1
 21
88.89067
 31
-68.60933
  0
ARC
  8
1
  5
B4
  6
CONTINUOUS
 62
7
 10
179.1
 20
84.79067
 30
-53.60933
 40
4.1
 50
90.0
 51
180.0
  0
LINE
  8
1
  5
B6
  6
CONTINUOUS
 62
7
 10
179.1
 20
88.89067
 30
-68.60933
 11
205.9
 21
88.89067
 31
-68.60933
  0
LINE
  8
1
  5
B8
  6
CONTINUOUS
 62
7
 10
205.9
 20
88.89067
 30
-53.60933
 11
205.9
 21
88.89067
 31
-68.60933
  0
LINE
  8
1
  5
BA
  6
CONTINUOUS
 62
7
 10
205.9
 20
88.89067
 30
-53.60933
 11
179.1
 21
88.89067
 31
-53.60933
  0
ARC
  8
1
  5
BC
  6
CONTINUOUS
 62
7
 210
0.0
 220
0.0
 230
-1.0
 10
-205.9
 20
84.79067
 30
68.60933
 40
4.1
 50
90.0
 51
180.0
  0
LINE
  8
1
  5
BE
  6
CONTINUOUS
 62
7
 10
210.0
 20
84.79067
 30
-53.60933
 11
210.0
 21
84.79067
 31
-68.60933
  0
ARC
  8
1
  5
C0
  6
CONTINUOUS
 62
7
 10
205.9
 20
84.79067
 30
-53.60933
 40
4.1
 50
0.0
 51
90.0
  0
LINE
  8
1
  5
C2
  6
CONTINUOUS
 62
7
 10
210.0
 20
84.79067
 30
-68.60933
 11
210.0
 21
82.99067
 31
-68.60933
  0
LINE
  8
1
  5
C4
  6
CONTINUOUS
 62
7
 10
210.0
 20
82.99067
 30
-53.60933
 11
210.0
 21
82.99067
 31
-68.60933
  0
LINE
  8
1
  5
C6
  6
CONTINUOUS
 62
7
 10
210.0
 20
82.99067
 30
-53.60933
 11
210.0
 21
84.79067
 31
-53.60933
  0
ARC
  8
1
  5
C8
  6
CONTINUOUS
 62
7
 210
0.0
 220
0.0
 230
-1.0
 10
-205.9
 20
82.99067
 30
68.60933
 40
4.1
 50
180.0
 51
270.0
  0
LINE
  8
1
  5
CA
  6
CONTINUOUS
 62
7
 10
205.9
 20
78.89067
 30
-53.60933
 11
205.9
 21
78.89067
 31
-68.60933
  0
ARC
  8
1
  5
CC
  6
CONTINUOUS
 62
7
 10
205.9
 20
82.99067
 30
-53.60933
 40
4.1
 50
270.0
 51
360.0
  0
LINE
  8
1
  5
CE
  6
CONTINUOUS
 62
7
 10
205.9
 20
78.89067
 30
-68.60933
 11
200.0
 21
78.89067
 31
-68.60933
  0
LINE
  8
1
  5
D0
  6
CONTINUOUS
 62
7
 10
200.0
 20
78.89067
 30
-53.60933
 11
200.0
 21
78.89067
 31
-68.60933
  0
LINE
  8
1
  5
D2
  6
CONTINUOUS
 62
7
 10
200.0
 20
78.89067
 30
-53.60933
 11
205.9
 21
78.89067
 31
-53.60933
  0
LINE
  8
1
  5
D4
  6
CONTINUOUS
 62
7
 10
200.0
 20
78.89067
 30
-68.60933
 11
200.0
 21
8.89067
 31
-68.60933
  0
LINE
  8
1
  5
D6
  6
CONTINUOUS
 62
7
 10
200.0
 20
8.89067
 30
-53.60933
 11
200.0
 21
8.89067
 31
-68.60933
  0
LINE
  8
1
  5
D8
  6
CONTINUOUS
 62
7
 10
200.0
 20
8.89067
 30
-53.60933
 11
200.0
 21
78.89067
 31
-53.60933
  0
LINE
  8
1
  5
DA
  6
CONTINUOUS
 62
7
 10
200.0
 20
8.89067
 30
-68.60933
 11
205.9
 21
8.89067
 31
-68.60933
  0
LINE
  8
1
  5
DC
  6
CONTINUOUS
 62
7
 10
205.9
 20
8.89067
 30
-53.60933
 11
205.9
 21
8.89067
 31
-68.60933
  0
LINE
  8
1
  5
DE
  6
CONTINUOUS
 62
7
 10
205.9
 20
8.89067
 30
-53.60933
 11
200.0
 21
8.89067
 31
-53.60933
  0
ARC
  8
1
  5
E0
  6
CONTINUOUS
 62
7
 210
0.0
 220
0.0
 230
-1.0
 10
-205.9
 20
4.79067
 30
68.60933
 40
4.1
 50
90.0
 51
180.0
  0
LINE
  8
1
  5
E2
  6
CONTINUOUS
 62
7
 10
210.0
 20
4.79067
 30
-53.60933
 11
210.0
 21
4.79067
 31
-68.60933
  0
ARC
  8
1
  5
E4
  6
CONTINUOUS
 62
7
 10
205.9
 20
4.79067
 30
-53.60933
 40
4.1
 50
0.0
 51
90.0
  0
LINE
  8
1
  5
E6
  6
CONTINUOUS
 62
7
 10
210.0
 20
4.79067
 30
-68.60933
 11
210.0
 21
2.99067
 31
-68.60933
  0
LINE
  8
1
  5
E8
  6
CONTINUOUS
 62
7
 10
210.0
 20
2.99067
 30
-53.60933
 11
210.0
 21
2.99067
 31
-68.60933
  0
LINE
  8
1
  5
EA
  6
CONTINUOUS
 62
7
 10
210.0
 20
2.99067
 30
-53.60933
 11
210.0
 21
4.79067
 31
-53.60933
  0
ARC
  8
1
  5
EC
  6
CONTINUOUS
 62
7
 210
0.0
 220
0.0
 230
-1.0
 10
-205.9
 20
2.99067
 30
68.60933
 40
4.1
 50
180.0
 51
270.0
  0
LINE
  8
1
  5
EE
  6
CONTINUOUS
 62
7
 10
205.9
 20
-1.10933
 30
-53.60933
 11
205.9
 21
-1.10933
 31
-68.60933
  0
ARC
  8
1
  5
F0
  6
CONTINUOUS
 62
7
 10
205.9
 20
2.99067
 30
-53.60933
 40
4.1
 50
270.0
 51
360.0
  0
LINE
  8
1
  5
F2
  6
CONTINUOUS
 62
7
 10
205.9
 20
-1.10933
 30
-68.60933
 11
200.0
 21
-1.10933
 31
-68.60933
  0
LINE
  8
1
  5
F4
  6
CONTINUOUS
 62
7
 10
200.0
 20
-1.10933
 30
-56.60933
 11
200.0
 21
-1.10933
 31
-68.60933
  0
LINE
  8
1
  5
F6
  6
CONTINUOUS
 62
7
 10
200.0
 20
-1.10933
 30
-53.60933
 11
205.9
 21
-1.10933
 31
-53.60933
  0
LINE
  8
1
  5
F8
  6
CONTINUOUS
 62
7
 10
200.0
 20
-1.10933
 30
-68.60933
 11
185.0
 21
-1.10933
 31
-68.60933
  0
LINE
  8
1
  5
FA
  6
CONTINUOUS
 62
7
 10
185.0
 20
-1.10933
 30
-56.60933
 11
185.0
 21
-1.10933
 31
-68.60933
  0
LINE
  8
1
  5
FC
  6
CONTINUOUS
 62
7
 10
185.0
 20
-1.10933
 30
-68.60933
 11
179.1
 21
-1.10933
 31
-68.60933
  0
LINE
  8
1
  5
FE
  6
CONTINUOUS
 62
7
 10
179.1
 20
-1.10933
 30
-53.60933
 11
179.1
 21
-1.10933
 31
-68.60933
  0
LINE
  8
1
  5
100
  6
CONTINUOUS
 62
7
 10
179.1
 20
-1.10933
 30
-53.60933
 11
185.0
 21
-1.10933
 31
-53.60933
  0
ARC
  8
1
  5
102
  6
CONTINUOUS
 62
7
 210
0.0
 220
0.0
 230
-1.0
 10
-179.1
 20
2.99067
 30
68.60933
 40
4.1
 50
270.0
 51
360.0
  0
LINE
  8
1
  5
104
  6
CONTINUOUS
 62
7
 10
175.0
 20
2.99067
 30
-53.60933
 11
175.0
 21
2.99067
 31
-68.60933
  0
ARC
  8
1
  5
106
  6
CONTINUOUS
 62
7
 10
179.1
 20
2.99067
 30
-53.60933
 40
4.1
 50
180.0
 51
270.0
  0
LINE
  8
1
  5
108
  6
CONTINUOUS
 62
7
 10
175.0
 20
2.99067
 30
-68.60933
 11
175.0
 21
4.79067
 31
-68.60933
  0
LINE
  8
1
  5
10A
  6
CONTINUOUS
 62
7
 10
175.0
 20
4.79067
 30
-53.60933
 11
175.0
 21
4.79067
 31
-68.60933
  0
LINE
  8
1
  5
10C
  6
CONTINUOUS
 62
7
 10
175.0
 20
4.79067
 30
-53.60933
 11
175.0
 21
2.99067
 31
-53.60933
  0
ARC
  8
1
  5
10E
  6
CONTINUOUS
 62
7
 210
0.0
 220
0.0
 230
-1.0
 10
-179.1
 20
4.79067
 30
68.60933
 40
4.1
 50
360.0
 51
90.0
  0
LINE
  8
1
  5
110
  6
CONTINUOUS
 62
7
 10
179.1
 20
8.89067
 30
-53.60933
 11
179.1
 21
8.89067
 31
-68.60933
  0
ARC
  8
1
  5
112
  6
CONTINUOUS
 62
7
 10
179.1
 20
4.79067
 30
-53.60933
 40
4.1
 50
90.0
 51
180.0
  0
LINE
  8
1
  5
114
  6
CONTINUOUS
 62
7
 10
179.1
 20
8.89067
 30
-68.60933
 11
185.0
 21
8.89067
 31
-68.60933
  0
LINE
  8
1
  5
116
  6
CONTINUOUS
 62
7
 10
185.0
 20
8.89067
 30
-53.60933
 11
185.0
 21
8.89067
 31
-68.60933
  0
LINE
  8
1
  5
118
  6
CONTINUOUS
 62
7
 10
185.0
 20
8.89067
 30
-53.60933
 11
179.1
 21
8.89067
 31
-53.60933
  0
LINE
  8
1
  5
11A
  6
CONTINUOUS
 62
7
 10
185.0
 20
8.89067
 30
-68.60933
 11
185.0
 21
78.89067
 31
-68.60933
  0
LINE
  8
1
  5
11C
  6
CONTINUOUS
 62
7
 10
185.0
 20
78.89067
 30
-53.60933
 11
185.0
 21
8.89067
 31
-53.60933
  0
ENDBLK
  8
1
  5
11D
  0
BLOCK
  8
1
  5
11F
 70
1
 10
0.0
 20
0.0
 30
0.0
  2
*M3
  3
*M3
  0
INSERT
  8
1
  5
121
  6
CONTINUOUS
 62
7
  2
*M1
 10
0.0
 20
0.0
 30
-3.0
 41
1.0
 42
1.0
 43
1.0
 70
1
 71
1
  0
INSERT
  8
1
  5
123
  6
CONTINUOUS
 62
7
  2
*M2
 10
0.0
 20
0.0
 30
0.0
 41
1.0
 42
1.0
 43
1.0
 70
1
 71
1
  0
ENDBLK
  8
1
  5
124
  0
ENDSEC
  0
SECTION
  2
ENTITIES
  0
INSERT
  8
1
  5
2
  6
CONTINUOUS
 62
7
  2
*M0
 10
0.0
 20
47.13375
 30
114.96309
 41
1.0
 42
1.0
 43
1.0
 70
1
 71
1
  0
INSERT
  8
1
  5
4
  6
CONTINUOUS
 62
7
  2
*M3
 10
0.0
 20
47.13375
 30
114.96309
 41
1.0
 42
1.0
 43
1.0
 70
1
 71
1
  0
ENDSEC
  0
EOF
