  0
SECTION
  2
HEADER
  9
$ACADVER
  1
AC1009
  9
$INSBASE
 10
0.0
 20
0.0
 30
0.0
  9
$EXTMAX
 10
530.0
 20
-520.4835
 30
898.37693
  9
$EXTMIN
 10
0.0
 20
-810.48311
 30
883.37693
  9
$LIMMAX
 10
12.0
 20
9.0
  9
$LIMMIN
 10
0.0
 20
0.0
  9
$ORTHOMODE
 70
0
  9
$REGENMODE
 70
1
  9
$FILLMODE
 70
1
  9
$QTEXTMODE
 70
0
  9
$MIRRTEXT
 70
1
  9
$DRAGMODE
 70
2
  9
$LTSCALE
 40
1.0
  9
$OSMODE
 70
0
  9
$ATTMODE
 70
1
  9
$TEXTSIZE
 40
0.2
  9
$TRACEWID
 40
0.05
  9
$TEXTSTYLE
  7
STANDARD
  9
$CLAYER
  8
0
  9
$CELTYPE
  6
CONTINUOUS
  9
$CECOLOR
 62
256
  9
$DIMSCALE
 40
1.0
  9
$DIMASZ
 40
0.18
  9
$DIMEXO
 40
0.0625
  9
$DIMDLI
 40
0.38
  9
$DIMRND
 40
0.0
  9
$DIMDLE
 40
0.0
  9
$DIMEXE
 40
0.18
  9
$DIMTP
 40
0.0
  9
$DIMTM
 40
0.0
  9
$DIMTXT
 40
0.18
  9
$DIMCEN
 40
0.09
  9
$DIMTSZ
 40
0.0
  9
$DIMTOL
 70
0
  9
$DIMLIM
 70
0
  9
$DIMTIH
 70
1
  9
$DIMTOH
 70
1
  9
$DIMSE1
 70
0
  9
$DIMSE2
 70
0
  9
$DIMTAD
 70
0
  9
$DIMZIN
 70
0
  9
$DIMBLK
  1

  9
$DIMASO
 70
1
  9
$DIMSHO
 70
1
  9
$DIMPOST
  1

  9
$DIMAPOST
  1

  9
$DIMALT
 70
0
  9
$DIMALTD
 70
2
  9
$DIMALTF
 40
25.4
  9
$DIMLFAC
 40
1.0
  9
$DIMTOFL
 70
0
  9
$DIMTVP
 40
0.0
  9
$DIMTIX
 70
0
  9
$DIMSOXD
 70
0
  9
$DIMSAH
 70
0
  9
$DIMBLK1
  1

  9
$DIMBLK2
  1

  9
$DIMSTYLE
  2
*UNNAMED
  9
$DIMCLRD
 70
0
  9
$DIMCLRE
 70
0
  9
$DIMCLRT
 70
0
  9
$DIMTFAC
 40
1.0
  9
$DIMGAP
 40
0.09
  9
$LUNITS
 70
2
  9
$LUPREC
 70
4
  9
$AXISMODE
 70
0
  9
$AXISUNIT
 10
0.0
 20
0.0
  9
$SKETCHINC
 40
0.1
  9
$FILLETRAD
 40
0.0
  9
$AUNITS
 70
0
  9
$AUPREC
 70
0
  9
$MENU
  1
acad
  9
$ELEVATION
 40
0.0
  9
$PELEVATION
 40
0.0
  9
$THICKNESS
 40
0.0
  9
$LIMCHECK
 70
0
  9
$BLIPMODE
 70
1
  9
$CHAMFERA
 40
0.0
  9
$CHAMFERB
 40
0.0
  9
$SKPOLY
 70
0
  9
$TDCREATE
 40
0.0
  9
$TDUPDATE
 40
0.0
  9
$TDINDWG
 40
0.0
  9
$TDUSRTIMER
 40
0.0
  9
$USRTIMER
 70
1
  9
$ANGBASE
 50
0.0
  9
$ANGDIR
 70
0
  9
$PDMODE
 70
0
  9
$PDSIZE
 40
0.0
  9
$PLINEWID
 40
0.0
  9
$COORDS
 70
0
  9
$SPLFRAME
 70
0
  9
$SPLINETYPE
 70
6
  9
$SPLINESEGS
 70
10
  9
$ATTDIA
 70
0
  9
$ATTREQ
 70
1
  9
$HANDLING
 70
1
  9
$HANDSEED
  5
460
  9
$SURFTAB1
 70
6
  9
$SURFTAB2
 70
6
  9
$SURFTYPE
 70
6
  9
$SURFU
 70
10
  9
$SURFV
 70
10
  9
$UCSNAME
  2

  9
$UCSORG
 10
0.0
 20
0.0
 30
0.0
  9
$UCSXDIR
 10
1.0
 20
0.0
 30
0.0
  9
$UCSYDIR
 10
0.0
 20
1.0
 30
0.0
  9
$PUCSNAME
  2
 
  9
$PUCSORG
 10
0.0
 20
0.0
 30
0.0
  9
$PUCSXDIR
 10
1.0
 20
0.0
 30
0.0
  9
$PUCSYDIR
 10
0.0
 20
1.0
 30
0.0
  9
$USERI1
 70
0
  9
$USERI2
 70
0
  9
$USERI3
 70
0
  9
$USERI4
 70
0
  9
$USERI5
 70
0
  9
$USERR1
 40
0.0
  9
$USERR2
 40
0.0
  9
$USERR3
 40
0.0
  9
$USERR4
 40
0.0
  9
$USERR5
 40
0.0
  9
$WORLDVIEW
 70
1
  9
$SHADEDGE
 70
3
  9
$SHADEDIF
 70
70
  9
$TILEMODE
 70
1
  9
$MAXACTVP
 70
16
  9
$PINSBASE
 10
0.0
 20
0.0
 30
0.0
  9
$PLIMCHECK
 70
0
  9
$PEXTMIN
 10
-1.000000E+020
 20
-1.000000E+020
 30
-1.000000E+020
  9
$PEXTMAX
 10
-1.000000E+020
 20
-1.000000E+020
 30
-1.000000E+020
  9
$PLIMMIN
 10
0.0
 20
0.0
  9
$PLIMMAX
 10
12.0
 20
9.0
  9
$UNITMODE
 70
0
  9
$VISRETAIN
 70
0
  0
ENDSEC
  0
SECTION
  2
TABLES
  0
TABLE
  2
LTYPE
 70
7
  0
LTYPE
  2
CONTINUOUS
 70
64
  3
Solid line
 72
65
 73
0
 40
0.0
  0
LTYPE
  2
DOT
 70
64
  3
. . . . . . . . . . . . . . . . . . . . . . . . . . . . . . . . .
 72
65
 73
2
 40
0.25
 49
0.0
 49
-0.25
  0
LTYPE
  2
HIDDEN
 70
64
  3
__ __ __ __ __ __ __ __ __ __ __ __ __ __ __ __ __ __ __ __ __ 
 72
65
 73
2
 40
0.375
 49
0.25
 49
-0.125
  0
LTYPE
  2
DASHED
 70
64
  3
__ __ __ __ __ __ __ __ __ __ __ __ __ __ __ __ __ __ __ __ __
 72
65
 73
2
 40
0.75
 49
0.5
 49
-0.25
  0
LTYPE
  2
DASHDOT
 70
64
  3
__ . __ . __ . __ . __ . __ . __ . __ . __ . __ . __ . __ . _
 72
65
 73
4
 40
1.0
 49
0.5
 49
-0.25
 49
0.0
 49
-0.25
  0
LTYPE
  2
DIVIDE
 70
64
  3
____ . . ____ . . ____ . . ____ . . ____ . . ____ . . ____ . .
 72
65
 73
6
 40
1.25
 49
0.5
 49
-0.25
 49
0.0
 49
-0.25
 49
0.0
 49
-0.25
  0
LTYPE
  2
CENTER
 70
64
  3
____ _ ____ _ ____ _ ____ _ ____ _ ____ _ ____ _ ____ _ ____ _
 72
65
 73
4
 40
2.0
 49
1.25
 49
-0.25
 49
0.25
 49
-0.25
  0
ENDTAB
  0
TABLE
  2
APPID
 70
1
  0
APPID
  2
ACAD
 70
0
  0
ENDTAB
  0
TABLE
  2
DIMSTYLE
 70
0
  0
ENDTAB
  0
TABLE
  2
LAYER
 70
4
  0
LAYER
  2
0
 70
0
 62
7
  6
CONTINUOUS
  0
LAYER
  2
CONSTRUCTION_CLASS
 70
0
 62
7
  6
CONTINUOUS
  0
LAYER
  2
PATTERN_CLASS
 70
0
 62
7
  6
CONTINUOUS
  0
LAYER
  2
1
 70
0
 62
7
  6
CONTINUOUS
  0
ENDTAB
  0
TABLE
  2
STYLE
 70
1
  0
STYLE
  2
STANDARD
 70
0
 40
0.2
 41
1.0
 50
0.0
 71
0
 42
0.0
  3
txt
  4

  0
ENDTAB
  0
TABLE
  2
UCS
 70
0
  0
ENDTAB
  0
TABLE
  2
VIEW
 70
0
  0
ENDTAB
  0
TABLE
  2
VPORT
 70
4
  0
VPORT
  2
*ACTIVE
 70
0
 10
0.500821
 20
0.501669
 11
0.998358
 21
0.997775
 12
0.0
 22
0.0
 13
0.0
 23
0.0
 14
0.0
 24
0.0
 15
0.0
 25
0.0
 16
0.0
 26
-7.933308E-014
 36
1295.6503
 17
233.143207
 27
-665.4833
 37
890.87693
 40
352.92614
 41
1.358744
 42
50.0
 43
647.82515
 44
-647.82515
 50
0.0
 51
0.0
 71
22
 72
100
 73
1
 74
0
 75
0
 76
0
 77
0
 78
0
  0
VPORT
  2
*ACTIVE
 70
0
 10
0.001642
 20
0.501669
 11
0.499179
 21
0.997775
 12
-9.194480E-009
 22
-2.906765E-008
 13
0.0
 23
0.0
 14
0.0
 24
0.0
 15
0.0
 25
0.0
 16
-1113.332814
 26
-1113.332814
 36
1113.332814
 17
273.547584
 27
-674.030891
 37
890.876934
 40
355.68616
 41
1.358744
 42
50.0
 43
964.1745
 44
-964.1745
 50
0.0
 51
0.0
 71
22
 72
100
 73
1
 74
0
 75
0
 76
0
 77
0
 78
0
  0
VPORT
  2
*ACTIVE
 70
0
 10
0.001642
 20
0.003337
 11
0.499179
 21
0.499444
 12
0.0
 22
0.0
 13
0.0
 23
0.0
 14
0.0
 24
0.0
 15
0.0
 25
0.0
 16
0.0
 26
-1295.6503
 36
0.0
 17
233.143207
 27
-665.48331
 37
890.87693
 40
352.92614
 41
1.358744
 42
50.0
 43
647.82515
 44
-647.82515
 50
0.0
 51
0.0
 71
22
 72
100
 73
1
 74
0
 75
0
 76
0
 77
0
 78
0
  0
VPORT
  2
*ACTIVE
 70
0
 10
0.500821
 20
0.003337
 11
0.998358
 21
0.499444
 12
0.0
 22
-1.421085E-014
 13
0.0
 23
0.0
 14
0.0
 24
0.0
 15
0.0
 25
0.0
 16
2120.0
 26
0.0
 36
0.0
 17
265.0
 27
-683.140778
 37
890.87693
 40
195.61868
 41
1.358744
 42
50.0
 43
1060.0
 44
-1060.0
 50
0.0
 51
0.0
 71
22
 72
100
 73
1
 74
0
 75
0
 76
0
 77
0
 78
0
  0
ENDTAB
  0
ENDSEC
  0
SECTION
  2
BLOCKS
  0
BLOCK
  8
1
  5
A
 70
1
 10
0.0
 20
0.0
 30
0.0
  2
*M0
  3
*M0
  0
LINE
  8
1
  5
C
  6
CONTINUOUS
 62
7
 10
79.95625
 20
272.48594
 30
0.0
 11
79.95625
 21
272.48594
 31
15.0
  0
LINE
  8
1
  5
E
  6
CONTINUOUS
 62
7
 10
84.05625
 20
268.38594
 30
0.0
 11
84.05625
 21
268.38594
 31
15.0
  0
LINE
  8
1
  5
10
  6
CONTINUOUS
 62
7
 10
99.05625
 20
268.38594
 30
0.0
 11
99.05625
 21
268.38594
 31
15.0
  0
LINE
  8
1
  5
12
  6
CONTINUOUS
 62
7
 10
103.15625
 20
272.48594
 30
0.0
 11
103.15625
 21
272.48594
 31
15.0
  0
LINE
  8
1
  5
14
  6
CONTINUOUS
 62
7
 10
99.05625
 20
256.58594
 30
0.0
 11
99.05625
 21
256.58594
 31
15.0
  0
LINE
  8
1
  5
16
  6
CONTINUOUS
 62
7
 10
103.15625
 20
252.48594
 30
0.0
 11
103.15625
 21
252.48594
 31
15.0
  0
LINE
  8
1
  5
18
  6
CONTINUOUS
 62
7
 10
84.05625
 20
256.58594
 30
0.0
 11
84.05625
 21
256.58594
 31
15.0
  0
LINE
  8
1
  5
1A
  6
CONTINUOUS
 62
7
 10
79.95625
 20
252.48594
 30
0.0
 11
79.95625
 21
252.48594
 31
15.0
  0
LINE
  8
1
  5
1C
  6
CONTINUOUS
 62
7
 10
78.64813
 20
291.60645
 30
15.0
 11
78.64804
 21
291.60642
 31
15.0
  0
LINE
  8
1
  5
1E
  6
CONTINUOUS
 62
7
 10
78.64804
 20
291.60642
 30
0.0
 11
78.64804
 21
291.60642
 31
15.0
  0
LINE
  8
1
  5
20
  6
CONTINUOUS
 62
7
 10
78.64804
 20
291.60642
 30
0.0
 11
78.64813
 21
291.60645
 31
0.0
  0
LINE
  8
1
  5
22
  6
CONTINUOUS
 62
7
 10
78.64813
 20
291.60645
 30
0.0
 11
78.64813
 21
291.60645
 31
15.0
  0
ARC
  8
1
  5
24
  6
CONTINUOUS
 62
7
 210
0.0
 220
0.0
 230
-1.0
 10
-79.95625
 20
287.72073
 30
-15.0
 40
4.1
 50
71.3929020121
 51
179.9999992343
  0
LINE
  8
1
  5
26
  6
CONTINUOUS
 62
7
 10
84.05625
 20
287.72073
 30
0.0
 11
84.05625
 21
287.72073
 31
15.0
  0
ARC
  8
1
  5
28
  6
CONTINUOUS
 62
7
 10
79.95625
 20
287.72073
 30
0.0
 40
4.1
 50
0.0000007657
 51
108.6070979879
  0
LINE
  8
1
  5
2A
  6
CONTINUOUS
 62
7
 10
84.05625
 20
287.72073
 30
15.0
 11
84.05625
 21
278.28422
 31
15.0
  0
LINE
  8
1
  5
2C
  6
CONTINUOUS
 62
7
 10
84.05625
 20
278.28422
 30
0.0
 11
84.05625
 21
278.28422
 31
15.0
  0
LINE
  8
1
  5
2E
  6
CONTINUOUS
 62
7
 10
84.05625
 20
278.28422
 30
0.0
 11
84.05625
 21
287.72073
 31
0.0
  0
LINE
  8
1
  5
30
  6
CONTINUOUS
 62
7
 10
84.05625
 20
278.28422
 30
15.0
 11
81.15711
 21
275.38508
 31
15.0
  0
LINE
  8
1
  5
32
  6
CONTINUOUS
 62
7
 10
81.15711
 20
275.38508
 30
0.0
 11
81.15711
 21
275.38508
 31
15.0
  0
LINE
  8
1
  5
34
  6
CONTINUOUS
 62
7
 10
81.15711
 20
275.38508
 30
0.0
 11
84.05625
 21
278.28422
 31
0.0
  0
ARC
  8
1
  5
36
  6
CONTINUOUS
 62
7
 10
84.05625
 20
272.48594
 30
15.0
 40
4.1
 50
135.0000444444
 51
314.9999583333
  0
LINE
  8
1
  5
38
  6
CONTINUOUS
 62
7
 10
86.95539
 20
269.5868
 30
0.0
 11
86.95539
 21
269.5868
 31
15.0
  0
ARC
  8
1
  5
3A
  6
CONTINUOUS
 62
7
 210
0.0
 220
0.0
 230
-1.0
 10
-84.05625
 20
272.48594
 30
0.0
 40
4.1
 50
225.0000444444
 51
44.9999583333
  0
LINE
  8
1
  5
3C
  6
CONTINUOUS
 62
7
 10
86.95539
 20
269.5868
 30
15.0
 11
89.85453
 21
272.48594
 31
15.0
  0
LINE
  8
1
  5
3E
  6
CONTINUOUS
 62
7
 10
89.85453
 20
272.48594
 30
0.0
 11
89.85453
 21
272.48594
 31
15.0
  0
LINE
  8
1
  5
40
  6
CONTINUOUS
 62
7
 10
89.85453
 20
272.48594
 30
0.0
 11
86.95539
 21
269.5868
 31
0.0
  0
LINE
  8
1
  5
42
  6
CONTINUOUS
 62
7
 10
89.85453
 20
272.48594
 30
15.0
 11
93.25797
 21
272.48594
 31
15.0
  0
LINE
  8
1
  5
44
  6
CONTINUOUS
 62
7
 10
93.25797
 20
272.48594
 30
0.0
 11
93.25797
 21
272.48594
 31
15.0
  0
LINE
  8
1
  5
46
  6
CONTINUOUS
 62
7
 10
93.25797
 20
272.48594
 30
0.0
 11
89.85453
 21
272.48594
 31
0.0
  0
LINE
  8
1
  5
48
  6
CONTINUOUS
 62
7
 10
93.25797
 20
272.48594
 30
15.0
 11
96.15711
 21
269.5868
 31
15.0
  0
LINE
  8
1
  5
4A
  6
CONTINUOUS
 62
7
 10
96.15711
 20
269.5868
 30
0.0
 11
96.15711
 21
269.5868
 31
15.0
  0
LINE
  8
1
  5
4C
  6
CONTINUOUS
 62
7
 10
96.15711
 20
269.5868
 30
0.0
 11
93.25797
 21
272.48594
 31
0.0
  0
ARC
  8
1
  5
4E
  6
CONTINUOUS
 62
7
 10
99.05625
 20
272.48594
 30
15.0
 40
4.1
 50
225.0000444444
 51
44.9999583333
  0
LINE
  8
1
  5
50
  6
CONTINUOUS
 62
7
 10
101.95539
 20
275.38508
 30
0.0
 11
101.95539
 21
275.38508
 31
15.0
  0
ARC
  8
1
  5
52
  6
CONTINUOUS
 62
7
 210
0.0
 220
0.0
 230
-1.0
 10
-99.05625
 20
272.48594
 30
0.0
 40
4.1
 50
135.0000444444
 51
314.9999583333
  0
LINE
  8
1
  5
54
  6
CONTINUOUS
 62
7
 10
101.95539
 20
275.38508
 30
15.0
 11
99.05625
 21
278.28422
 31
15.0
  0
LINE
  8
1
  5
56
  6
CONTINUOUS
 62
7
 10
99.05625
 20
278.28422
 30
0.0
 11
99.05625
 21
278.28422
 31
15.0
  0
LINE
  8
1
  5
58
  6
CONTINUOUS
 62
7
 10
99.05625
 20
278.28422
 30
0.0
 11
101.95539
 21
275.38508
 31
0.0
  0
LINE
  8
1
  5
5A
  6
CONTINUOUS
 62
7
 10
99.05625
 20
278.28422
 30
15.0
 11
99.05625
 21
287.72073
 31
15.0
  0
LINE
  8
1
  5
5C
  6
CONTINUOUS
 62
7
 10
99.05625
 20
287.72073
 30
0.0
 11
99.05625
 21
287.72073
 31
15.0
  0
LINE
  8
1
  5
5E
  6
CONTINUOUS
 62
7
 10
99.05625
 20
287.72073
 30
0.0
 11
99.05625
 21
278.28422
 31
0.0
  0
ARC
  8
1
  5
60
  6
CONTINUOUS
 62
7
 210
0.0
 220
0.0
 230
-1.0
 10
-103.15625
 20
287.72073
 30
-15.0
 40
4.1
 50
0.0000007657
 51
108.6057035435
  0
LINE
  8
1
  5
62
  6
CONTINUOUS
 62
7
 10
104.46437
 20
291.60645
 30
0.0
 11
104.46437
 21
291.60645
 31
15.0
  0
ARC
  8
1
  5
64
  6
CONTINUOUS
 62
7
 10
103.15625
 20
287.72073
 30
0.0
 40
4.1
 50
71.3942964565
 51
179.9999992343
  0
POINT
  8
1
  5
66
  6
CONTINUOUS
 62
7
 10
104.46437
 20
291.60645
 30
15.0
 50
0.0
  0
LINE
  8
1
  5
68
  6
CONTINUOUS
 62
7
 10
104.46437
 20
291.60645
 30
0.0
 11
104.46437
 21
291.60645
 31
15.0
  0
POINT
  8
1
  5
6A
  6
CONTINUOUS
 62
7
 10
104.46437
 20
291.60645
 30
0.0
 50
0.0
  0
POLYLINE
  8
1
  5
6C
  6
CONTINUOUS
 62
7
 210
0.0
 220
0.0
 230
-1.0
 10
0.0
 20
0.0
 30
-15.0
 66
1
 70
0
  0
VERTEX
  8
1
  5
6D
  6
CONTINUOUS
 62
7
 10
-104.46437
 20
291.606448
 30
-15.0
 42
0.058272
  0
VERTEX
  8
1
  5
6E
  6
CONTINUOUS
 62
7
 10
-108.486132
 20
289.724061
 30
-15.0
 42
0.052883
  0
VERTEX
  8
1
  5
6F
  6
CONTINUOUS
 62
7
 10
-112.169485
 20
286.864184
 30
-15.0
 42
0.047411
  0
VERTEX
  8
1
  5
70
  6
CONTINUOUS
 62
7
 10
-115.382245
 20
283.129448
 30
-15.0
 42
0.042737
  0
VERTEX
  8
1
  5
71
  6
CONTINUOUS
 62
7
 10
-118.009117
 20
278.653882
 30
-15.0
 42
0.039216
  0
VERTEX
  8
1
  5
72
  6
CONTINUOUS
 62
7
 10
-119.95583
 20
273.5981
 30
-15.0
 42
0.036909
  0
VERTEX
  8
1
  5
73
  6
CONTINUOUS
 62
7
 10
-121.152523
 20
268.143536
 30
-15.0
 42
0.035775
  0
VERTEX
  8
1
  5
74
  6
CONTINUOUS
 62
7
 10
-121.55625
 20
262.48594
 30
-15.0
 42
0.035775
  0
VERTEX
  8
1
  5
75
  6
CONTINUOUS
 62
7
 10
-121.152523
 20
256.828344
 30
-15.0
 42
0.036909
  0
VERTEX
  8
1
  5
76
  6
CONTINUOUS
 62
7
 10
-119.95583
 20
251.37378
 30
-15.0
 42
0.039216
  0
VERTEX
  8
1
  5
77
  6
CONTINUOUS
 62
7
 10
-118.009117
 20
246.317998
 30
-15.0
 42
0.042737
  0
VERTEX
  8
1
  5
78
  6
CONTINUOUS
 62
7
 10
-115.382245
 20
241.842432
 30
-15.0
 42
0.047411
  0
VERTEX
  8
1
  5
79
  6
CONTINUOUS
 62
7
 10
-112.169485
 20
238.107696
 30
-15.0
 42
0.052883
  0
VERTEX
  8
1
  5
7A
  6
CONTINUOUS
 62
7
 10
-108.486132
 20
235.247819
 30
-15.0
 42
0.058272
  0
VERTEX
  8
1
  5
7B
  6
CONTINUOUS
 62
7
 10
-104.46437
 20
233.365432
 30
-15.0
 42
0.058272
  0
SEQEND
  8
1
  5
7C
  0
LINE
  8
1
  5
7E
  6
CONTINUOUS
 62
7
 10
104.46437
 20
233.36543
 30
0.0
 11
104.46437
 21
233.36543
 31
15.0
  0
POLYLINE
  8
1
  5
80
  6
CONTINUOUS
 62
7
 10
0.0
 20
0.0
 30
0.0
 66
1
 70
0
  0
VERTEX
  8
1
  5
81
  6
CONTINUOUS
 62
7
 10
104.46437
 20
233.365432
 30
0.0
 42
0.058272
  0
VERTEX
  8
1
  5
82
  6
CONTINUOUS
 62
7
 10
108.486132
 20
235.247819
 30
0.0
 42
0.052883
  0
VERTEX
  8
1
  5
83
  6
CONTINUOUS
 62
7
 10
112.169485
 20
238.107696
 30
0.0
 42
0.047411
  0
VERTEX
  8
1
  5
84
  6
CONTINUOUS
 62
7
 10
115.382245
 20
241.842432
 30
0.0
 42
0.042737
  0
VERTEX
  8
1
  5
85
  6
CONTINUOUS
 62
7
 10
118.009117
 20
246.317998
 30
0.0
 42
0.039216
  0
VERTEX
  8
1
  5
86
  6
CONTINUOUS
 62
7
 10
119.95583
 20
251.37378
 30
0.0
 42
0.036909
  0
VERTEX
  8
1
  5
87
  6
CONTINUOUS
 62
7
 10
121.152523
 20
256.828344
 30
0.0
 42
0.035775
  0
VERTEX
  8
1
  5
88
  6
CONTINUOUS
 62
7
 10
121.55625
 20
262.48594
 30
0.0
 42
0.035775
  0
VERTEX
  8
1
  5
89
  6
CONTINUOUS
 62
7
 10
121.152523
 20
268.143536
 30
0.0
 42
0.036909
  0
VERTEX
  8
1
  5
8A
  6
CONTINUOUS
 62
7
 10
119.95583
 20
273.5981
 30
0.0
 42
0.039216
  0
VERTEX
  8
1
  5
8B
  6
CONTINUOUS
 62
7
 10
118.009117
 20
278.653882
 30
0.0
 42
0.042737
  0
VERTEX
  8
1
  5
8C
  6
CONTINUOUS
 62
7
 10
115.382245
 20
283.129448
 30
0.0
 42
0.047411
  0
VERTEX
  8
1
  5
8D
  6
CONTINUOUS
 62
7
 10
112.169485
 20
286.864184
 30
0.0
 42
0.052883
  0
VERTEX
  8
1
  5
8E
  6
CONTINUOUS
 62
7
 10
108.486132
 20
289.724061
 30
0.0
 42
0.058272
  0
VERTEX
  8
1
  5
8F
  6
CONTINUOUS
 62
7
 10
104.46437
 20
291.606448
 30
0.0
 42
0.058272
  0
SEQEND
  8
1
  5
90
  0
LINE
  8
1
  5
92
  6
CONTINUOUS
 62
7
 10
104.46437
 20
233.36543
 30
15.0
 11
104.46434
 21
233.36552
 31
15.0
  0
LINE
  8
1
  5
94
  6
CONTINUOUS
 62
7
 10
104.46434
 20
233.36552
 30
0.0
 11
104.46434
 21
233.36552
 31
15.0
  0
LINE
  8
1
  5
96
  6
CONTINUOUS
 62
7
 10
104.46434
 20
233.36552
 30
0.0
 11
104.46437
 21
233.36543
 31
0.0
  0
ARC
  8
1
  5
98
  6
CONTINUOUS
 62
7
 210
0.0
 220
0.0
 230
-1.0
 10
-103.15625
 20
237.25125
 30
-15.0
 40
4.1
 50
251.3947441119
 51
359.9999996674
  0
LINE
  8
1
  5
9A
  6
CONTINUOUS
 62
7
 10
99.05625
 20
237.25125
 30
0.0
 11
99.05625
 21
237.25125
 31
15.0
  0
ARC
  8
1
  5
9C
  6
CONTINUOUS
 62
7
 10
103.15625
 20
237.25125
 30
0.0
 40
4.1
 50
180.0000003326
 51
288.6052558881
  0
LINE
  8
1
  5
9E
  6
CONTINUOUS
 62
7
 10
99.05625
 20
237.25125
 30
15.0
 11
99.05625
 21
246.68766
 31
15.0
  0
LINE
  8
1
  5
A0
  6
CONTINUOUS
 62
7
 10
99.05625
 20
246.68766
 30
0.0
 11
99.05625
 21
246.68766
 31
15.0
  0
LINE
  8
1
  5
A2
  6
CONTINUOUS
 62
7
 10
99.05625
 20
246.68766
 30
0.0
 11
99.05625
 21
237.25125
 31
0.0
  0
LINE
  8
1
  5
A4
  6
CONTINUOUS
 62
7
 10
99.05625
 20
246.68766
 30
15.0
 11
101.95539
 21
249.5868
 31
15.0
  0
LINE
  8
1
  5
A6
  6
CONTINUOUS
 62
7
 10
101.95539
 20
249.5868
 30
0.0
 11
101.95539
 21
249.5868
 31
15.0
  0
LINE
  8
1
  5
A8
  6
CONTINUOUS
 62
7
 10
101.95539
 20
249.5868
 30
0.0
 11
99.05625
 21
246.68766
 31
0.0
  0
ARC
  8
1
  5
AA
  6
CONTINUOUS
 62
7
 10
99.05625
 20
252.48594
 30
15.0
 40
4.1
 50
315.0000444444
 51
134.9999583333
  0
LINE
  8
1
  5
AC
  6
CONTINUOUS
 62
7
 10
96.15711
 20
255.38508
 30
0.0
 11
96.15711
 21
255.38508
 31
15.0
  0
ARC
  8
1
  5
AE
  6
CONTINUOUS
 62
7
 210
0.0
 220
0.0
 230
-1.0
 10
-99.05625
 20
252.48594
 30
0.0
 40
4.1
 50
45.0000444444
 51
224.9999583333
  0
LINE
  8
1
  5
B0
  6
CONTINUOUS
 62
7
 10
96.15711
 20
255.38508
 30
15.0
 11
93.25797
 21
252.48594
 31
15.0
  0
LINE
  8
1
  5
B2
  6
CONTINUOUS
 62
7
 10
93.25797
 20
252.48594
 30
0.0
 11
93.25797
 21
252.48594
 31
15.0
  0
LINE
  8
1
  5
B4
  6
CONTINUOUS
 62
7
 10
93.25797
 20
252.48594
 30
0.0
 11
96.15711
 21
255.38508
 31
0.0
  0
LINE
  8
1
  5
B6
  6
CONTINUOUS
 62
7
 10
93.25797
 20
252.48594
 30
15.0
 11
89.85453
 21
252.48594
 31
15.0
  0
LINE
  8
1
  5
B8
  6
CONTINUOUS
 62
7
 10
89.85453
 20
252.48594
 30
0.0
 11
89.85453
 21
252.48594
 31
15.0
  0
LINE
  8
1
  5
BA
  6
CONTINUOUS
 62
7
 10
89.85453
 20
252.48594
 30
0.0
 11
93.25797
 21
252.48594
 31
0.0
  0
LINE
  8
1
  5
BC
  6
CONTINUOUS
 62
7
 10
89.85453
 20
252.48594
 30
15.0
 11
86.95539
 21
255.38508
 31
15.0
  0
LINE
  8
1
  5
BE
  6
CONTINUOUS
 62
7
 10
86.95539
 20
255.38508
 30
0.0
 11
86.95539
 21
255.38508
 31
15.0
  0
LINE
  8
1
  5
C0
  6
CONTINUOUS
 62
7
 10
86.95539
 20
255.38508
 30
0.0
 11
89.85453
 21
252.48594
 31
0.0
  0
ARC
  8
1
  5
C2
  6
CONTINUOUS
 62
7
 10
84.05625
 20
252.48594
 30
15.0
 40
4.1
 50
45.0000444444
 51
224.9999583333
  0
LINE
  8
1
  5
C4
  6
CONTINUOUS
 62
7
 10
81.15711
 20
249.5868
 30
0.0
 11
81.15711
 21
249.5868
 31
15.0
  0
ARC
  8
1
  5
C6
  6
CONTINUOUS
 62
7
 210
0.0
 220
0.0
 230
-1.0
 10
-84.05625
 20
252.48594
 30
0.0
 40
4.1
 50
315.0000444444
 51
134.9999583333
  0
LINE
  8
1
  5
C8
  6
CONTINUOUS
 62
7
 10
81.15711
 20
249.5868
 30
15.0
 11
84.05625
 21
246.68766
 31
15.0
  0
LINE
  8
1
  5
CA
  6
CONTINUOUS
 62
7
 10
84.05625
 20
246.68766
 30
0.0
 11
84.05625
 21
246.68766
 31
15.0
  0
LINE
  8
1
  5
CC
  6
CONTINUOUS
 62
7
 10
84.05625
 20
246.68766
 30
0.0
 11
81.15711
 21
249.5868
 31
0.0
  0
LINE
  8
1
  5
CE
  6
CONTINUOUS
 62
7
 10
84.05625
 20
246.68766
 30
15.0
 11
84.05625
 21
237.25125
 31
15.0
  0
LINE
  8
1
  5
D0
  6
CONTINUOUS
 62
7
 10
84.05625
 20
237.25125
 30
0.0
 11
84.05625
 21
237.25125
 31
15.0
  0
LINE
  8
1
  5
D2
  6
CONTINUOUS
 62
7
 10
84.05625
 20
237.25125
 30
0.0
 11
84.05625
 21
246.68766
 31
0.0
  0
ARC
  8
1
  5
D4
  6
CONTINUOUS
 62
7
 210
0.0
 220
0.0
 230
-1.0
 10
-79.95625
 20
237.25125
 30
-15.0
 40
4.1
 50
180.0000003326
 51
288.6052614437
  0
LINE
  8
1
  5
D6
  6
CONTINUOUS
 62
7
 10
78.64816
 20
233.36552
 30
0.0
 11
78.64816
 21
233.36552
 31
15.0
  0
ARC
  8
1
  5
D8
  6
CONTINUOUS
 62
7
 10
79.95625
 20
237.25125
 30
0.0
 40
4.1
 50
251.3947385563
 51
359.9999996674
  0
LINE
  8
1
  5
DA
  6
CONTINUOUS
 62
7
 10
78.64816
 20
233.36552
 30
15.0
 11
78.64813
 21
233.36543
 31
15.0
  0
LINE
  8
1
  5
DC
  6
CONTINUOUS
 62
7
 10
78.64813
 20
233.36543
 30
0.0
 11
78.64813
 21
233.36543
 31
15.0
  0
LINE
  8
1
  5
DE
  6
CONTINUOUS
 62
7
 10
78.64813
 20
233.36543
 30
0.0
 11
78.64816
 21
233.36552
 31
0.0
  0
POLYLINE
  8
1
  5
E0
  6
CONTINUOUS
 62
7
 210
0.0
 220
0.0
 230
-1.0
 10
0.0
 20
0.0
 30
-15.0
 66
1
 70
0
  0
VERTEX
  8
1
  5
E1
  6
CONTINUOUS
 62
7
 10
-78.64813
 20
233.365432
 30
-15.0
 42
0.058272
  0
VERTEX
  8
1
  5
E2
  6
CONTINUOUS
 62
7
 10
-74.626368
 20
235.247819
 30
-15.0
 42
0.052883
  0
VERTEX
  8
1
  5
E3
  6
CONTINUOUS
 62
7
 10
-70.943015
 20
238.107696
 30
-15.0
 42
0.047411
  0
VERTEX
  8
1
  5
E4
  6
CONTINUOUS
 62
7
 10
-67.730255
 20
241.842432
 30
-15.0
 42
0.042737
  0
VERTEX
  8
1
  5
E5
  6
CONTINUOUS
 62
7
 10
-65.103383
 20
246.317998
 30
-15.0
 42
0.039216
  0
VERTEX
  8
1
  5
E6
  6
CONTINUOUS
 62
7
 10
-63.15667
 20
251.37378
 30
-15.0
 42
0.036909
  0
VERTEX
  8
1
  5
E7
  6
CONTINUOUS
 62
7
 10
-61.959977
 20
256.828344
 30
-15.0
 42
0.035775
  0
VERTEX
  8
1
  5
E8
  6
CONTINUOUS
 62
7
 10
-61.55625
 20
262.48594
 30
-15.0
 42
0.035775
  0
VERTEX
  8
1
  5
E9
  6
CONTINUOUS
 62
7
 10
-61.959977
 20
268.143536
 30
-15.0
 42
0.036909
  0
VERTEX
  8
1
  5
EA
  6
CONTINUOUS
 62
7
 10
-63.15667
 20
273.5981
 30
-15.0
 42
0.039216
  0
VERTEX
  8
1
  5
EB
  6
CONTINUOUS
 62
7
 10
-65.103383
 20
278.653882
 30
-15.0
 42
0.042737
  0
VERTEX
  8
1
  5
EC
  6
CONTINUOUS
 62
7
 10
-67.730255
 20
283.129448
 30
-15.0
 42
0.047411
  0
VERTEX
  8
1
  5
ED
  6
CONTINUOUS
 62
7
 10
-70.943015
 20
286.864184
 30
-15.0
 42
0.052883
  0
VERTEX
  8
1
  5
EE
  6
CONTINUOUS
 62
7
 10
-74.626368
 20
289.724061
 30
-15.0
 42
0.058272
  0
VERTEX
  8
1
  5
EF
  6
CONTINUOUS
 62
7
 10
-78.64813
 20
291.606448
 30
-15.0
 42
0.058272
  0
SEQEND
  8
1
  5
F0
  0
POLYLINE
  8
1
  5
F2
  6
CONTINUOUS
 62
7
 10
0.0
 20
0.0
 30
0.0
 66
1
 70
0
  0
VERTEX
  8
1
  5
F3
  6
CONTINUOUS
 62
7
 10
78.64813
 20
291.606448
 30
0.0
 42
0.058272
  0
VERTEX
  8
1
  5
F4
  6
CONTINUOUS
 62
7
 10
74.626368
 20
289.724061
 30
0.0
 42
0.052883
  0
VERTEX
  8
1
  5
F5
  6
CONTINUOUS
 62
7
 10
70.943015
 20
286.864184
 30
0.0
 42
0.047411
  0
VERTEX
  8
1
  5
F6
  6
CONTINUOUS
 62
7
 10
67.730255
 20
283.129448
 30
0.0
 42
0.042737
  0
VERTEX
  8
1
  5
F7
  6
CONTINUOUS
 62
7
 10
65.103383
 20
278.653882
 30
0.0
 42
0.039216
  0
VERTEX
  8
1
  5
F8
  6
CONTINUOUS
 62
7
 10
63.15667
 20
273.5981
 30
0.0
 42
0.036909
  0
VERTEX
  8
1
  5
F9
  6
CONTINUOUS
 62
7
 10
61.959977
 20
268.143536
 30
0.0
 42
0.035775
  0
VERTEX
  8
1
  5
FA
  6
CONTINUOUS
 62
7
 10
61.55625
 20
262.48594
 30
0.0
 42
0.035775
  0
VERTEX
  8
1
  5
FB
  6
CONTINUOUS
 62
7
 10
61.959977
 20
256.828344
 30
0.0
 42
0.036909
  0
VERTEX
  8
1
  5
FC
  6
CONTINUOUS
 62
7
 10
63.15667
 20
251.37378
 30
0.0
 42
0.039216
  0
VERTEX
  8
1
  5
FD
  6
CONTINUOUS
 62
7
 10
65.103383
 20
246.317998
 30
0.0
 42
0.042737
  0
VERTEX
  8
1
  5
FE
  6
CONTINUOUS
 62
7
 10
67.730255
 20
241.842432
 30
0.0
 42
0.047411
  0
VERTEX
  8
1
  5
FF
  6
CONTINUOUS
 62
7
 10
70.943015
 20
238.107696
 30
0.0
 42
0.052883
  0
VERTEX
  8
1
  5
100
  6
CONTINUOUS
 62
7
 10
74.626368
 20
235.247819
 30
0.0
 42
0.058272
  0
VERTEX
  8
1
  5
101
  6
CONTINUOUS
 62
7
 10
78.64813
 20
233.365432
 30
0.0
 42
0.058272
  0
SEQEND
  8
1
  5
102
  0
ENDBLK
  8
1
  5
103
  0
BLOCK
  8
1
  5
105
 70
1
 10
0.0
 20
0.0
 30
0.0
  2
*M1
  3
*M1
  0
ARC
  8
1
  5
107
  6
CONTINUOUS
 62
7
 10
-356.4
 20
119.65
 30
-15.0
 40
4.1
 50
90.0
 51
180.0
  0
LINE
  8
1
  5
109
  6
CONTINUOUS
 62
7
 10
-356.4
 20
123.75
 30
0.0
 11
-356.4
 21
123.75
 31
-15.0
  0
ARC
  8
1
  5
10B
  6
CONTINUOUS
 62
7
 210
0.0
 220
0.0
 230
-1.0
 10
356.4
 20
119.65
 30
1.490116E-013
 40
4.1
 50
360.0
 51
90.0
  0
LINE
  8
1
  5
10D
  6
CONTINUOUS
 62
7
 10
-360.5
 20
119.65
 30
0.0
 11
-360.5
 21
119.65
 31
-15.0
  0
LINE
  8
1
  5
10F
  6
CONTINUOUS
 62
7
 10
-360.5
 20
119.65
 30
-15.0
 11
-360.5
 21
115.85
 31
-15.0
  0
LINE
  8
1
  5
111
  6
CONTINUOUS
 62
7
 10
-360.5
 20
115.85
 30
0.0
 11
-360.5
 21
119.65
 31
0.0
  0
LINE
  8
1
  5
113
  6
CONTINUOUS
 62
7
 10
-360.5
 20
115.85
 30
0.0
 11
-360.5
 21
115.85
 31
-15.0
  0
ARC
  8
1
  5
115
  6
CONTINUOUS
 62
7
 10
-356.4
 20
115.85
 30
-15.0
 40
4.1
 50
180.0
 51
270.0
  0
ARC
  8
1
  5
117
  6
CONTINUOUS
 62
7
 210
0.0
 220
0.0
 230
-1.0
 10
356.4
 20
115.85
 30
1.490116E-013
 40
4.1
 50
270.0
 51
360.0
  0
LINE
  8
1
  5
119
  6
CONTINUOUS
 62
7
 10
-356.4
 20
111.75
 30
0.0
 11
-356.4
 21
111.75
 31
-15.0
  0
LINE
  8
1
  5
11B
  6
CONTINUOUS
 62
7
 10
-356.4
 20
111.75
 30
-15.0
 11
-349.0
 21
111.75
 31
-15.0
  0
LINE
  8
1
  5
11D
  6
CONTINUOUS
 62
7
 10
-349.0
 20
111.75
 30
0.0
 11
-356.4
 21
111.75
 31
0.0
  0
LINE
  8
1
  5
11F
  6
CONTINUOUS
 62
7
 10
-349.0
 20
111.75
 30
0.0
 11
-349.0
 21
111.75
 31
-15.0
  0
LINE
  8
1
  5
121
  6
CONTINUOUS
 62
7
 10
-349.0
 20
111.75
 30
-15.0
 11
-349.0
 21
82.5
 31
-15.0
  0
LINE
  8
1
  5
123
  6
CONTINUOUS
 62
7
 10
-349.0
 20
82.5
 30
0.0
 11
-349.0
 21
111.75
 31
0.0
  0
LINE
  8
1
  5
125
  6
CONTINUOUS
 62
7
 10
-349.0
 20
82.5
 30
-15.0
 11
-349.0
 21
82.5
 31
0.0
  0
LINE
  8
1
  5
127
  6
CONTINUOUS
 62
7
 10
-337.0
 20
82.5
 30
-15.0
 11
-337.0
 21
111.75
 31
-15.0
  0
LINE
  8
1
  5
129
  6
CONTINUOUS
 62
7
 10
-337.0
 20
82.5
 30
0.0
 11
-337.0
 21
82.5
 31
-15.0
  0
LINE
  8
1
  5
12B
  6
CONTINUOUS
 62
7
 10
-337.0
 20
111.75
 30
0.0
 11
-337.0
 21
82.5
 31
0.0
  0
LINE
  8
1
  5
12D
  6
CONTINUOUS
 62
7
 10
-337.0
 20
111.75
 30
0.0
 11
-337.0
 21
111.75
 31
-15.0
  0
LINE
  8
1
  5
12F
  6
CONTINUOUS
 62
7
 10
-337.0
 20
111.75
 30
-15.0
 11
-332.6
 21
111.75
 31
-15.0
  0
LINE
  8
1
  5
131
  6
CONTINUOUS
 62
7
 10
-332.6
 20
111.75
 30
0.0
 11
-337.0
 21
111.75
 31
0.0
  0
LINE
  8
1
  5
133
  6
CONTINUOUS
 62
7
 10
-332.6
 20
111.75
 30
0.0
 11
-332.6
 21
111.75
 31
-15.0
  0
ARC
  8
1
  5
135
  6
CONTINUOUS
 62
7
 10
-332.6
 20
115.85
 30
-15.0
 40
4.1
 50
270.0
 51
360.0
  0
ARC
  8
1
  5
137
  6
CONTINUOUS
 62
7
 210
0.0
 220
0.0
 230
-1.0
 10
332.6
 20
115.85
 30
1.490116E-013
 40
4.1
 50
180.0
 51
270.0
  0
LINE
  8
1
  5
139
  6
CONTINUOUS
 62
7
 10
-328.5
 20
115.85
 30
0.0
 11
-328.5
 21
115.85
 31
-15.0
  0
LINE
  8
1
  5
13B
  6
CONTINUOUS
 62
7
 10
-328.5
 20
115.85
 30
-15.0
 11
-328.5
 21
119.65
 31
-15.0
  0
LINE
  8
1
  5
13D
  6
CONTINUOUS
 62
7
 10
-328.5
 20
119.65
 30
0.0
 11
-328.5
 21
115.85
 31
0.0
  0
LINE
  8
1
  5
13F
  6
CONTINUOUS
 62
7
 10
-328.5
 20
119.65
 30
0.0
 11
-328.5
 21
119.65
 31
-15.0
  0
ARC
  8
1
  5
141
  6
CONTINUOUS
 62
7
 10
-332.6
 20
119.65
 30
-15.0
 40
4.1
 50
0.0
 51
90.0
  0
ARC
  8
1
  5
143
  6
CONTINUOUS
 62
7
 210
0.0
 220
0.0
 230
-1.0
 10
332.6
 20
119.65
 30
1.490116E-013
 40
4.1
 50
90.0
 51
180.0
  0
LINE
  8
1
  5
145
  6
CONTINUOUS
 62
7
 10
-332.6
 20
123.75
 30
0.0
 11
-332.6
 21
123.75
 31
-15.0
  0
LINE
  8
1
  5
147
  6
CONTINUOUS
 62
7
 10
-332.6
 20
123.75
 30
-15.0
 11
-356.4
 21
123.75
 31
-15.0
  0
LINE
  8
1
  5
149
  6
CONTINUOUS
 62
7
 10
-356.4
 20
123.75
 30
0.0
 11
-332.6
 21
123.75
 31
0.0
  0
ENDBLK
  8
1
  5
14A
  0
BLOCK
  8
1
  5
14C
 70
1
 10
0.0
 20
0.0
 30
0.0
  2
*M2
  3
*M2
  0
LINE
  8
1
  5
14E
  6
CONTINUOUS
 62
7
 10
-483.37922
 20
85.9
 30
-7.5
 11
-483.37922
 21
85.9
 31
-15.0
  0
LINE
  8
1
  5
150
  6
CONTINUOUS
 62
7
 10
-479.27922
 20
90.0
 30
-7.5
 11
-479.27922
 21
90.0
 31
-15.0
  0
LINE
  8
1
  5
152
  6
CONTINUOUS
 62
7
 10
-457.24634
 20
112.48653
 30
-7.5
 11
-457.24634
 21
112.48653
 31
-15.0
  0
LINE
  8
1
  5
154
  6
CONTINUOUS
 62
7
 10
-454.26315
 20
107.51455
 30
-7.5
 11
-454.26315
 21
107.51455
 31
-15.0
  0
LINE
  8
1
  5
156
  6
CONTINUOUS
 62
7
 10
-449.8
 20
90.0
 30
-7.5
 11
-449.8
 21
90.0
 31
-15.0
  0
LINE
  8
1
  5
158
  6
CONTINUOUS
 62
7
 10
-472.35366
 20
52.51347
 30
-7.5
 11
-472.35366
 21
52.51347
 31
-15.0
  0
LINE
  8
1
  5
15A
  6
CONTINUOUS
 62
7
 10
-475.33685
 20
57.48545
 30
-7.5
 11
-475.33685
 21
57.48545
 31
-15.0
  0
LINE
  8
1
  5
15C
  6
CONTINUOUS
 62
7
 10
-457.24634
 20
52.51347
 30
-7.5
 11
-457.24634
 21
52.51347
 31
-15.0
  0
LINE
  8
1
  5
15E
  6
CONTINUOUS
 62
7
 10
-454.26315
 20
57.48545
 30
-7.5
 11
-454.26315
 21
57.48545
 31
-15.0
  0
POINT
  8
1
  5
160
  6
CONTINUOUS
 62
7
 10
-481.57051
 20
82.5
 30
-7.5
 50
0.0
  0
LINE
  8
1
  5
162
  6
CONTINUOUS
 62
7
 10
-481.57051
 20
82.5
 30
-7.5
 11
-481.57051
 21
82.5
 31
-15.0
  0
POINT
  8
1
  5
164
  6
CONTINUOUS
 62
7
 10
-481.57051
 20
82.5
 30
-15.0
 50
0.0
  0
LINE
  8
1
  5
166
  6
CONTINUOUS
 62
7
 10
-481.57051
 20
82.5
 30
-7.5
 11
-481.57051
 21
82.5
 31
-15.0
  0
ARC
  8
1
  5
168
  6
CONTINUOUS
 62
7
 210
0.0
 220
0.0
 230
-1.0
 10
479.27922
 20
85.9
 30
7.5
 40
4.1
 50
303.9763527778
 51
90.0
  0
ARC
  8
1
  5
16A
  6
CONTINUOUS
 62
7
 10
-479.27922
 20
85.9
 30
-15.0
 40
4.1
 50
90.0
 51
236.0236472222
  0
LINE
  8
1
  5
16C
  6
CONTINUOUS
 62
7
 10
-479.27922
 20
90.0
 30
-7.5
 11
-479.27922
 21
90.0
 31
-15.0
  0
LINE
  8
1
  5
16E
  6
CONTINUOUS
 62
7
 10
-479.27922
 20
90.0
 30
-7.5
 11
-472.3
 21
90.0
 31
-7.5
  0
LINE
  8
1
  5
170
  6
CONTINUOUS
 62
7
 10
-472.3
 20
90.0
 30
-15.0
 11
-479.27922
 21
90.0
 31
-15.0
  0
LINE
  8
1
  5
172
  6
CONTINUOUS
 62
7
 10
-472.3
 20
90.0
 30
-7.5
 11
-472.3
 21
90.0
 31
-15.0
  0
LINE
  8
1
  5
174
  6
CONTINUOUS
 62
7
 10
-472.3
 20
90.0
 30
-7.5
 11
-472.2997
 21
104.51826
 31
-7.5
  0
LINE
  8
1
  5
176
  6
CONTINUOUS
 62
7
 10
-472.2997
 20
104.51826
 30
-15.0
 11
-472.3
 21
90.0
 31
-15.0
  0
LINE
  8
1
  5
178
  6
CONTINUOUS
 62
7
 10
-472.2997
 20
104.51826
 30
-7.5
 11
-472.2997
 21
104.51826
 31
-15.0
  0
ARC
  8
1
  5
17A
  6
CONTINUOUS
 62
7
 210
0.0
 220
0.0
 230
-1.0
 10
471.359261
 20
108.508943
 30
7.5
 40
4.1
 50
283.2603564835
 51
75.8455842612
  0
ARC
  8
1
  5
17C
  6
CONTINUOUS
 62
7
 10
-471.359261
 20
108.508943
 30
-15.0
 40
4.1
 50
104.1544157388
 51
256.7396435165
  0
LINE
  8
1
  5
17E
  6
CONTINUOUS
 62
7
 10
-472.36186
 20
112.48447
 30
-7.5
 11
-472.36186
 21
112.48447
 31
-15.0
  0
ARC
  8
1
  5
180
  6
CONTINUOUS
 62
7
 210
0.0
 220
0.0
 230
-1.0
 10
464.8
 20
82.5
 30
7.5
 40
30.923292
 50
75.8455851832
 51
104.0362435165
  0
ARC
  8
1
  5
182
  6
CONTINUOUS
 62
7
 10
-464.8
 20
82.5
 30
-15.0
 40
30.923292
 50
75.9637564835
 51
104.1544148168
  0
LINE
  8
1
  5
184
  6
CONTINUOUS
 62
7
 10
-457.3
 20
112.5
 30
-7.5
 11
-457.3
 21
112.5
 31
-15.0
  0
LINE
  8
1
  5
186
  6
CONTINUOUS
 62
7
 10
-457.3
 20
112.5
 30
-7.5
 11
-457.29921
 21
112.49937
 31
-7.5
  0
LINE
  8
1
  5
188
  6
CONTINUOUS
 62
7
 10
-457.29921
 20
112.49937
 30
-15.0
 11
-457.3
 21
112.5
 31
-15.0
  0
LINE
  8
1
  5
18A
  6
CONTINUOUS
 62
7
 10
-457.29921
 20
112.49937
 30
-7.5
 11
-457.29921
 21
112.49937
 31
-15.0
  0
ARC
  8
1
  5
18C
  6
CONTINUOUS
 62
7
 210
0.0
 220
0.0
 230
-1.0
 10
458.240739
 20
108.508943
 30
7.5
 40
4.1
 50
103.2759574054
 51
256.7353907388
  0
ARC
  8
1
  5
18E
  6
CONTINUOUS
 62
7
 10
-458.240739
 20
108.508943
 30
-15.0
 40
4.1
 50
283.2646092612
 51
76.7240425946
  0
LINE
  8
1
  5
190
  6
CONTINUOUS
 62
7
 10
-457.3
 20
104.51833
 30
-7.5
 11
-457.3
 21
104.51833
 31
-15.0
  0
LINE
  8
1
  5
192
  6
CONTINUOUS
 62
7
 10
-457.3
 20
104.51833
 30
-7.5
 11
-457.3
 21
97.5
 31
-7.5
  0
LINE
  8
1
  5
194
  6
CONTINUOUS
 62
7
 10
-457.3
 20
97.5
 30
-15.0
 11
-457.3
 21
104.51833
 31
-15.0
  0
LINE
  8
1
  5
196
  6
CONTINUOUS
 62
7
 10
-457.3
 20
97.5
 30
-7.5
 11
-457.3
 21
97.5
 31
-15.0
  0
ARC
  8
1
  5
198
  6
CONTINUOUS
 62
7
 210
0.0
 220
0.0
 230
-1.0
 10
464.8
 20
82.5
 30
7.5
 40
16.77051
 50
116.5650515823
 51
179.9999988045
  0
ARC
  8
1
  5
19A
  6
CONTINUOUS
 62
7
 10
-464.8
 20
82.5
 30
-15.0
 40
16.77051
 50
0.0000011955
 51
63.4349484177
  0
LINE
  8
1
  5
19C
  6
CONTINUOUS
 62
7
 10
-448.02949
 20
82.5
 30
-7.5
 11
-448.02949
 21
82.5
 31
-15.0
  0
POINT
  8
1
  5
19E
  6
CONTINUOUS
 62
7
 10
-448.02949
 20
82.5
 30
-7.5
 50
0.0
  0
POINT
  8
1
  5
1A0
  6
CONTINUOUS
 62
7
 10
-448.02949
 20
82.5
 30
-15.0
 50
0.0
  0
LINE
  8
1
  5
1A2
  6
CONTINUOUS
 62
7
 10
-448.02949
 20
82.5
 30
-7.5
 11
-448.02949
 21
82.5
 31
-15.0
  0
ARC
  8
1
  5
1A4
  6
CONTINUOUS
 62
7
 210
0.0
 220
0.0
 230
-1.0
 10
464.8
 20
82.5
 30
7.5
 40
16.77051
 50
296.5650515823
 51
359.9999988045
  0
LINE
  8
1
  5
1A6
  6
CONTINUOUS
 62
7
 10
-472.3
 20
67.5
 30
-7.5
 11
-472.3
 21
67.5
 31
-15.0
  0
ARC
  8
1
  5
1A8
  6
CONTINUOUS
 62
7
 10
-464.8
 20
82.5
 30
-15.0
 40
16.77051
 50
180.0000011955
 51
243.4349484177
  0
LINE
  8
1
  5
1AA
  6
CONTINUOUS
 62
7
 10
-472.3
 20
60.48167
 30
-7.5
 11
-472.3
 21
67.5
 31
-7.5
  0
LINE
  8
1
  5
1AC
  6
CONTINUOUS
 62
7
 10
-472.3
 20
60.48167
 30
-7.5
 11
-472.3
 21
60.48167
 31
-15.0
  0
LINE
  8
1
  5
1AE
  6
CONTINUOUS
 62
7
 10
-472.3
 20
67.5
 30
-15.0
 11
-472.3
 21
60.48167
 31
-15.0
  0
ARC
  8
1
  5
1B0
  6
CONTINUOUS
 62
7
 210
0.0
 220
0.0
 230
-1.0
 10
471.359261
 20
56.491057
 30
7.5
 40
4.1
 50
283.2631768499
 51
76.7353907388
  0
LINE
  8
1
  5
1B2
  6
CONTINUOUS
 62
7
 10
-472.2999
 20
52.50042
 30
-7.5
 11
-472.2999
 21
52.50042
 31
-15.0
  0
ARC
  8
1
  5
1B4
  6
CONTINUOUS
 62
7
 10
-471.359261
 20
56.491057
 30
-15.0
 40
4.1
 50
103.2646092612
 51
256.7368231501
  0
LINE
  8
1
  5
1B6
  6
CONTINUOUS
 62
7
 10
-472.3
 20
52.5
 30
-7.5
 11
-472.2999
 21
52.50042
 31
-7.5
  0
LINE
  8
1
  5
1B8
  6
CONTINUOUS
 62
7
 10
-472.3
 20
52.5
 30
-7.5
 11
-472.3
 21
52.5
 31
-15.0
  0
LINE
  8
1
  5
1BA
  6
CONTINUOUS
 62
7
 10
-472.2999
 20
52.50042
 30
-15.0
 11
-472.3
 21
52.5
 31
-15.0
  0
ARC
  8
1
  5
1BC
  6
CONTINUOUS
 62
7
 210
0.0
 220
0.0
 230
-1.0
 10
464.8
 20
82.5
 30
7.5
 40
30.923292
 50
255.9637574054
 51
284.0362435165
  0
LINE
  8
1
  5
1BE
  6
CONTINUOUS
 62
7
 10
-457.3
 20
52.5
 30
-7.5
 11
-457.3
 21
52.5
 31
-15.0
  0
ARC
  8
1
  5
1C0
  6
CONTINUOUS
 62
7
 10
-464.8
 20
82.5
 30
-15.0
 40
30.923292
 50
255.9637564835
 51
284.0362425946
  0
LINE
  8
1
  5
1C2
  6
CONTINUOUS
 62
7
 10
-457.3001
 20
52.50042
 30
-7.5
 11
-457.3
 21
52.5
 31
-7.5
  0
LINE
  8
1
  5
1C4
  6
CONTINUOUS
 62
7
 10
-457.3001
 20
52.50042
 30
-7.5
 11
-457.3001
 21
52.50042
 31
-15.0
  0
LINE
  8
1
  5
1C6
  6
CONTINUOUS
 62
7
 10
-457.3
 20
52.5
 30
-15.0
 11
-457.3001
 21
52.50042
 31
-15.0
  0
ARC
  8
1
  5
1C8
  6
CONTINUOUS
 62
7
 210
0.0
 220
0.0
 230
-1.0
 10
458.240739
 20
56.491057
 30
7.5
 40
4.1
 50
103.2646092612
 51
256.7368231501
  0
LINE
  8
1
  5
1CA
  6
CONTINUOUS
 62
7
 10
-457.3
 20
60.48167
 30
-7.5
 11
-457.3
 21
60.48167
 31
-15.0
  0
ARC
  8
1
  5
1CC
  6
CONTINUOUS
 62
7
 10
-458.240739
 20
56.491057
 30
-15.0
 40
4.1
 50
283.2631768499
 51
76.7353907388
  0
LINE
  8
1
  5
1CE
  6
CONTINUOUS
 62
7
 10
-457.3
 20
75.0
 30
-7.5
 11
-457.3
 21
60.48167
 31
-7.5
  0
LINE
  8
1
  5
1D0
  6
CONTINUOUS
 62
7
 10
-457.3
 20
75.0
 30
-7.5
 11
-457.3
 21
75.0
 31
-15.0
  0
LINE
  8
1
  5
1D2
  6
CONTINUOUS
 62
7
 10
-457.3
 20
60.48167
 30
-15.0
 11
-457.3
 21
75.0
 31
-15.0
  0
LINE
  8
1
  5
1D4
  6
CONTINUOUS
 62
7
 10
-450.32078
 20
75.0
 30
-7.5
 11
-457.3
 21
75.0
 31
-7.5
  0
LINE
  8
1
  5
1D6
  6
CONTINUOUS
 62
7
 10
-450.32078
 20
75.0
 30
-7.5
 11
-450.32078
 21
75.0
 31
-15.0
  0
LINE
  8
1
  5
1D8
  6
CONTINUOUS
 62
7
 10
-457.3
 20
75.0
 30
-15.0
 11
-450.32078
 21
75.0
 31
-15.0
  0
ARC
  8
1
  5
1DA
  6
CONTINUOUS
 62
7
 210
0.0
 220
0.0
 230
-1.0
 10
450.32078
 20
79.1
 30
7.5
 40
4.1
 50
123.9763527778
 51
270.0
  0
ARC
  8
1
  5
1DC
  6
CONTINUOUS
 62
7
 10
-450.32078
 20
79.1
 30
-15.0
 40
4.1
 50
270.0
 51
56.0236472222
  0
ENDBLK
  8
1
  5
1DD
  0
BLOCK
  8
1
  5
1DF
 70
1
 10
0.0
 20
0.0
 30
0.0
  2
*M3
  3
*M3
  0
LINE
  8
1
  5
1E1
  6
CONTINUOUS
 62
7
 10
-423.40254
 20
82.5
 30
-7.5
 11
-423.40254
 21
82.5
 31
-15.0
  0
ARC
  8
1
  5
1E3
  6
CONTINUOUS
 62
7
 10
-506.197464
 20
86.6
 30
-7.5
 40
4.1
 50
270.0
 51
354.3438777778
  0
ARC
  8
1
  5
1E5
  6
CONTINUOUS
 62
7
 210
0.0
 220
0.0
 230
-1.0
 10
464.8
 20
82.5
 30
7.5
 40
37.5
 50
5.6561222222
 51
174.3438777778
  0
ARC
  8
1
  5
1E7
  6
CONTINUOUS
 62
7
 10
-423.402536
 20
86.6
 30
-7.5
 40
4.1
 50
185.6561222222
 51
270.0
  0
LINE
  8
1
  5
1E9
  6
CONTINUOUS
 62
7
 10
-506.19746
 20
82.5
 30
-7.5
 11
-506.19746
 21
82.5
 31
-15.0
  0
ARC
  8
1
  5
1EB
  6
CONTINUOUS
 62
7
 210
0.0
 220
0.0
 230
-1.0
 10
506.197464
 20
86.6
 30
15.0
 40
4.1
 50
185.6561222222
 51
270.0
  0
LINE
  8
1
  5
1ED
  6
CONTINUOUS
 62
7
 10
-502.11743
 20
86.19591
 30
-7.5
 11
-502.11743
 21
86.19591
 31
-15.0
  0
ARC
  8
1
  5
1EF
  6
CONTINUOUS
 62
7
 10
-464.8
 20
82.5
 30
-15.0
 40
37.5
 50
5.6561222222
 51
174.3438777778
  0
LINE
  8
1
  5
1F1
  6
CONTINUOUS
 62
7
 10
-427.48257
 20
86.19591
 30
-7.5
 11
-427.48257
 21
86.19591
 31
-15.0
  0
ARC
  8
1
  5
1F3
  6
CONTINUOUS
 62
7
 210
0.0
 220
0.0
 230
-1.0
 10
423.402536
 20
86.6
 30
15.0
 40
4.1
 50
270.0
 51
354.3438777778
  0
ARC
  8
1
  5
1F5
  6
CONTINUOUS
 62
7
 10
-506.197464
 20
78.4
 30
-15.0
 40
4.1
 50
5.6561222222
 51
90.0
  0
ARC
  8
1
  5
1F7
  6
CONTINUOUS
 62
7
 210
0.0
 220
0.0
 230
-1.0
 10
464.8
 20
82.5
 30
15.0
 40
37.5
 50
185.6561222222
 51
354.3438777778
  0
ARC
  8
1
  5
1F9
  6
CONTINUOUS
 62
7
 10
-423.402536
 20
78.4
 30
-15.0
 40
4.1
 50
90.0
 51
174.3438777778
  0
ENDBLK
  8
1
  5
1FA
  0
BLOCK
  8
1
  5
1FC
 70
1
 10
0.0
 20
0.0
 30
0.0
  2
*M4
  3
*M4
  0
LINE
  8
1
  5
1FE
  6
CONTINUOUS
 62
7
 10
-337.0
 20
82.5
 30
-15.0
 11
-300.0
 21
82.5
 31
-15.0
  0
LINE
  8
1
  5
200
  6
CONTINUOUS
 62
7
 10
-300.0
 20
82.5
 30
0.0
 11
-300.0
 21
82.5
 31
-15.0
  0
LINE
  8
1
  5
202
  6
CONTINUOUS
 62
7
 10
-300.0
 20
82.5
 30
0.0
 11
-337.0
 21
82.5
 31
0.0
  0
LINE
  8
1
  5
204
  6
CONTINUOUS
 62
7
 10
-349.0
 20
82.5
 30
0.0
 11
-423.40254
 21
82.5
 31
0.0
  0
LINE
  8
1
  5
206
  6
CONTINUOUS
 62
7
 10
-423.40254
 20
82.5
 30
-7.5
 11
-423.40254
 21
82.5
 31
-15.0
  0
LINE
  8
1
  5
208
  6
CONTINUOUS
 62
7
 10
-423.40254
 20
82.5
 30
-15.0
 11
-349.0
 21
82.5
 31
-15.0
  0
LINE
  8
1
  5
20A
  6
CONTINUOUS
 62
7
 10
-300.0
 20
165.0
 30
0.0
 11
-300.0
 21
82.5
 31
0.0
  0
LINE
  8
1
  5
20C
  6
CONTINUOUS
 62
7
 10
-540.0
 20
165.0
 30
0.0
 11
-300.0
 21
165.0
 31
0.0
  0
LINE
  8
1
  5
20E
  6
CONTINUOUS
 62
7
 10
-540.0
 20
82.5
 30
0.0
 11
-540.0
 21
165.0
 31
0.0
  0
LINE
  8
1
  5
210
  6
CONTINUOUS
 62
7
 10
-506.19746
 20
82.5
 30
0.0
 11
-540.0
 21
82.5
 31
0.0
  0
LINE
  8
1
  5
212
  6
CONTINUOUS
 62
7
 10
-506.19746
 20
82.5
 30
-7.5
 11
-506.19746
 21
82.5
 31
-15.0
  0
ARC
  8
1
  5
214
  6
CONTINUOUS
 62
7
 210
0.0
 220
0.0
 230
-1.0
 10
506.197464
 20
78.4
 30
15.0
 40
4.1
 50
90.0
 51
174.3438777778
  0
LINE
  8
1
  5
216
  6
CONTINUOUS
 62
7
 10
-502.11743
 20
78.80409
 30
-7.5
 11
-502.11743
 21
78.80409
 31
-15.0
  0
ARC
  8
1
  5
218
  6
CONTINUOUS
 62
7
 10
-464.8
 20
82.5
 30
-15.0
 40
37.5
 50
185.6561222222
 51
354.3438777778
  0
LINE
  8
1
  5
21A
  6
CONTINUOUS
 62
7
 10
-427.48257
 20
78.80409
 30
-7.5
 11
-427.48257
 21
78.80409
 31
-15.0
  0
ARC
  8
1
  5
21C
  6
CONTINUOUS
 62
7
 210
0.0
 220
0.0
 230
-1.0
 10
423.402536
 20
78.4
 30
15.0
 40
4.1
 50
5.6561222222
 51
90.0
  0
LINE
  8
1
  5
21E
  6
CONTINUOUS
 62
7
 10
-300.0
 20
82.5
 30
-15.0
 11
-300.0
 21
165.0
 31
-15.0
  0
LINE
  8
1
  5
220
  6
CONTINUOUS
 62
7
 10
-300.0
 20
165.0
 30
0.0
 11
-300.0
 21
165.0
 31
-15.0
  0
LINE
  8
1
  5
222
  6
CONTINUOUS
 62
7
 10
-300.0
 20
165.0
 30
-15.0
 11
-540.0
 21
165.0
 31
-15.0
  0
LINE
  8
1
  5
224
  6
CONTINUOUS
 62
7
 10
-540.0
 20
165.0
 30
0.0
 11
-540.0
 21
165.0
 31
-15.0
  0
LINE
  8
1
  5
226
  6
CONTINUOUS
 62
7
 10
-540.0
 20
165.0
 30
-15.0
 11
-540.0
 21
82.5
 31
-15.0
  0
LINE
  8
1
  5
228
  6
CONTINUOUS
 62
7
 10
-540.0
 20
82.5
 30
0.0
 11
-540.0
 21
82.5
 31
-15.0
  0
LINE
  8
1
  5
22A
  6
CONTINUOUS
 62
7
 10
-540.0
 20
82.5
 30
-15.0
 11
-506.19746
 21
82.5
 31
-15.0
  0
ENDBLK
  8
1
  5
22B
  0
BLOCK
  8
1
  5
22D
 70
1
 10
0.0
 20
0.0
 30
0.0
  2
*M5
  3
*M5
  0
INSERT
  8
1
  5
22F
  6
CONTINUOUS
 62
7
  2
*M3
 10
0.0
 20
0.0
 30
7.5
 41
1.0
 42
1.0
 43
1.0
 70
1
 71
1
  0
INSERT
  8
1
  5
231
  6
CONTINUOUS
 62
7
  2
*M4
 10
0.0
 20
0.0
 30
0.0
 41
1.0
 42
1.0
 43
1.0
 70
1
 71
1
  0
ENDBLK
  8
1
  5
232
  0
BLOCK
  8
1
  5
234
 70
1
 10
0.0
 20
0.0
 30
0.0
  2
*M6
  3
*M6
  0
INSERT
  8
1
  5
236
  6
CONTINUOUS
 62
7
  2
*M2
 10
0.0
 20
0.0
 30
0.0
 41
1.0
 42
1.0
 43
1.0
 70
1
 71
1
  0
INSERT
  8
1
  5
238
  6
CONTINUOUS
 62
7
  2
*M5
 10
0.0
 20
0.0
 30
0.0
 41
1.0
 42
1.0
 43
1.0
 70
1
 71
1
  0
ENDBLK
  8
1
  5
239
  0
BLOCK
  8
1
  5
23B
 70
1
 10
0.0
 20
0.0
 30
0.0
  2
*M7
  3
*M7
  0
INSERT
  8
1
  5
23D
  6
CONTINUOUS
 62
7
  2
*M1
 10
0.0
 20
0.0
 30
0.0
 41
1.0
 42
1.0
 43
1.0
 70
1
 71
1
  0
INSERT
  8
1
  5
23F
  6
CONTINUOUS
 62
7
  2
*M6
 10
0.0
 20
0.0
 30
0.0
 41
1.0
 42
1.0
 43
1.0
 70
1
 71
1
  0
ENDBLK
  8
1
  5
240
  0
BLOCK
  8
1
  5
242
 70
1
 10
0.0
 20
0.0
 30
0.0
  2
*M8
  3
*M8
  0
ARC
  8
1
  5
244
  6
CONTINUOUS
 62
7
 210
0.0
 220
0.0
 230
-1.0
 10
-332.6
 20
49.15
 30
-15.0
 40
4.1
 50
360.0
 51
90.0
  0
LINE
  8
1
  5
246
  6
CONTINUOUS
 62
7
 10
328.5
 20
49.15
 30
0.0
 11
328.5
 21
49.15
 31
15.0
  0
ARC
  8
1
  5
248
  6
CONTINUOUS
 62
7
 10
332.6
 20
49.15
 30
0.0
 40
4.1
 50
90.0
 51
180.0
  0
LINE
  8
1
  5
24A
  6
CONTINUOUS
 62
7
 10
332.6
 20
53.25
 30
0.0
 11
332.6
 21
53.25
 31
15.0
  0
LINE
  8
1
  5
24C
  6
CONTINUOUS
 62
7
 10
332.6
 20
53.25
 30
15.0
 11
337.0
 21
53.25
 31
15.0
  0
LINE
  8
1
  5
24E
  6
CONTINUOUS
 62
7
 10
337.0
 20
53.25
 30
0.0
 11
332.6
 21
53.25
 31
0.0
  0
LINE
  8
1
  5
250
  6
CONTINUOUS
 62
7
 10
337.0
 20
53.25
 30
0.0
 11
337.0
 21
53.25
 31
15.0
  0
LINE
  8
1
  5
252
  6
CONTINUOUS
 62
7
 10
328.5
 20
45.35
 30
15.0
 11
328.5
 21
49.15
 31
15.0
  0
LINE
  8
1
  5
254
  6
CONTINUOUS
 62
7
 10
328.5
 20
45.35
 30
0.0
 11
328.5
 21
45.35
 31
15.0
  0
LINE
  8
1
  5
256
  6
CONTINUOUS
 62
7
 10
328.5
 20
49.15
 30
0.0
 11
328.5
 21
45.35
 31
0.0
  0
LINE
  8
1
  5
258
  6
CONTINUOUS
 62
7
 10
337.0
 20
53.25
 30
15.0
 11
337.0
 21
82.5
 31
15.0
  0
LINE
  8
1
  5
25A
  6
CONTINUOUS
 62
7
 10
337.0
 20
82.5
 30
0.0
 11
337.0
 21
53.25
 31
0.0
  0
LINE
  8
1
  5
25C
  6
CONTINUOUS
 62
7
 10
337.0
 20
82.5
 30
15.0
 11
337.0
 21
82.5
 31
0.0
  0
ARC
  8
1
  5
25E
  6
CONTINUOUS
 62
7
 210
0.0
 220
0.0
 230
-1.0
 10
-332.6
 20
45.35
 30
-15.0
 40
4.1
 50
270.0
 51
360.0
  0
LINE
  8
1
  5
260
  6
CONTINUOUS
 62
7
 10
332.6
 20
41.25
 30
0.0
 11
332.6
 21
41.25
 31
15.0
  0
ARC
  8
1
  5
262
  6
CONTINUOUS
 62
7
 10
332.6
 20
45.35
 30
0.0
 40
4.1
 50
180.0
 51
270.0
  0
ARC
  8
1
  5
264
  6
CONTINUOUS
 62
7
 210
0.0
 220
0.0
 230
-1.0
 10
-356.4
 20
49.15
 30
-15.0
 40
4.1
 50
90.0
 51
180.0
  0
LINE
  8
1
  5
266
  6
CONTINUOUS
 62
7
 10
356.4
 20
53.25
 30
0.0
 11
356.4
 21
53.25
 31
15.0
  0
ARC
  8
1
  5
268
  6
CONTINUOUS
 62
7
 10
356.4
 20
49.15
 30
0.0
 40
4.1
 50
0.0
 51
90.0
  0
LINE
  8
1
  5
26A
  6
CONTINUOUS
 62
7
 10
360.5
 20
49.15
 30
0.0
 11
360.5
 21
49.15
 31
15.0
  0
LINE
  8
1
  5
26C
  6
CONTINUOUS
 62
7
 10
360.5
 20
49.15
 30
15.0
 11
360.5
 21
45.35
 31
15.0
  0
LINE
  8
1
  5
26E
  6
CONTINUOUS
 62
7
 10
360.5
 20
45.35
 30
0.0
 11
360.5
 21
49.15
 31
0.0
  0
LINE
  8
1
  5
270
  6
CONTINUOUS
 62
7
 10
360.5
 20
45.35
 30
0.0
 11
360.5
 21
45.35
 31
15.0
  0
ARC
  8
1
  5
272
  6
CONTINUOUS
 62
7
 210
0.0
 220
0.0
 230
-1.0
 10
-356.4
 20
45.35
 30
-15.0
 40
4.1
 50
180.0
 51
270.0
  0
ARC
  8
1
  5
274
  6
CONTINUOUS
 62
7
 10
356.4
 20
45.35
 30
0.0
 40
4.1
 50
270.0
 51
360.0
  0
LINE
  8
1
  5
276
  6
CONTINUOUS
 62
7
 10
356.4
 20
41.25
 30
0.0
 11
356.4
 21
41.25
 31
15.0
  0
LINE
  8
1
  5
278
  6
CONTINUOUS
 62
7
 10
356.4
 20
41.25
 30
15.0
 11
332.6
 21
41.25
 31
15.0
  0
LINE
  8
1
  5
27A
  6
CONTINUOUS
 62
7
 10
332.6
 20
41.25
 30
0.0
 11
356.4
 21
41.25
 31
0.0
  0
LINE
  8
1
  5
27C
  6
CONTINUOUS
 62
7
 10
349.0
 20
82.5
 30
15.0
 11
349.0
 21
53.25
 31
15.0
  0
LINE
  8
1
  5
27E
  6
CONTINUOUS
 62
7
 10
349.0
 20
82.5
 30
0.0
 11
349.0
 21
82.5
 31
15.0
  0
LINE
  8
1
  5
280
  6
CONTINUOUS
 62
7
 10
349.0
 20
53.25
 30
0.0
 11
349.0
 21
82.5
 31
0.0
  0
LINE
  8
1
  5
282
  6
CONTINUOUS
 62
7
 10
349.0
 20
53.25
 30
0.0
 11
349.0
 21
53.25
 31
15.0
  0
LINE
  8
1
  5
284
  6
CONTINUOUS
 62
7
 10
349.0
 20
53.25
 30
15.0
 11
356.4
 21
53.25
 31
15.0
  0
LINE
  8
1
  5
286
  6
CONTINUOUS
 62
7
 10
356.4
 20
53.25
 30
0.0
 11
349.0
 21
53.25
 31
0.0
  0
ENDBLK
  8
1
  5
287
  0
BLOCK
  8
1
  5
289
 70
1
 10
0.0
 20
0.0
 30
0.0
  2
*M9
  3
*M9
  0
LINE
  8
1
  5
28B
  6
CONTINUOUS
 62
7
 10
472.35366
 20
52.51347
 30
0.0
 11
472.35366
 21
52.51347
 31
7.5
  0
LINE
  8
1
  5
28D
  6
CONTINUOUS
 62
7
 10
475.33685
 20
57.48545
 30
0.0
 11
475.33685
 21
57.48545
 31
7.5
  0
LINE
  8
1
  5
28F
  6
CONTINUOUS
 62
7
 10
457.24634
 20
52.51347
 30
0.0
 11
457.24634
 21
52.51347
 31
7.5
  0
LINE
  8
1
  5
291
  6
CONTINUOUS
 62
7
 10
454.26315
 20
57.48545
 30
0.0
 11
454.26315
 21
57.48545
 31
7.5
  0
LINE
  8
1
  5
293
  6
CONTINUOUS
 62
7
 10
449.8
 20
90.0
 30
0.0
 11
449.8
 21
90.0
 31
7.5
  0
LINE
  8
1
  5
295
  6
CONTINUOUS
 62
7
 10
457.24634
 20
112.48653
 30
0.0
 11
457.24634
 21
112.48653
 31
7.5
  0
LINE
  8
1
  5
297
  6
CONTINUOUS
 62
7
 10
454.26315
 20
107.51455
 30
0.0
 11
454.26315
 21
107.51455
 31
7.5
  0
LINE
  8
1
  5
299
  6
CONTINUOUS
 62
7
 10
483.37922
 20
85.9
 30
0.0
 11
483.37922
 21
85.9
 31
7.5
  0
LINE
  8
1
  5
29B
  6
CONTINUOUS
 62
7
 10
479.27922
 20
90.0
 30
0.0
 11
479.27922
 21
90.0
 31
7.5
  0
POINT
  8
1
  5
29D
  6
CONTINUOUS
 62
7
 10
448.02949
 20
82.5
 30
0.0
 50
0.0
  0
ARC
  8
1
  5
29F
  6
CONTINUOUS
 62
7
 10
450.32078
 20
79.1
 30
0.0
 40
4.1
 50
123.9763527778
 51
270.0
  0
LINE
  8
1
  5
2A1
  6
CONTINUOUS
 62
7
 10
450.32078
 20
75.0
 30
0.0
 11
457.3
 21
75.0
 31
0.0
  0
LINE
  8
1
  5
2A3
  6
CONTINUOUS
 62
7
 10
457.3
 20
75.0
 30
0.0
 11
457.3
 21
60.48167
 31
0.0
  0
ARC
  8
1
  5
2A5
  6
CONTINUOUS
 62
7
 10
458.240739
 20
56.491057
 30
0.0
 40
4.1
 50
103.2646092612
 51
256.7368231501
  0
LINE
  8
1
  5
2A7
  6
CONTINUOUS
 62
7
 10
457.3001
 20
52.50042
 30
0.0
 11
457.3
 21
52.5
 31
0.0
  0
ARC
  8
1
  5
2A9
  6
CONTINUOUS
 62
7
 10
464.8
 20
82.5
 30
0.0
 40
30.923292
 50
255.9637574054
 51
284.0362435165
  0
LINE
  8
1
  5
2AB
  6
CONTINUOUS
 62
7
 10
472.3
 20
52.5
 30
0.0
 11
472.2999
 21
52.50042
 31
0.0
  0
ARC
  8
1
  5
2AD
  6
CONTINUOUS
 62
7
 10
471.359261
 20
56.491057
 30
0.0
 40
4.1
 50
283.2631768499
 51
76.7353907388
  0
LINE
  8
1
  5
2AF
  6
CONTINUOUS
 62
7
 10
472.3
 20
60.48167
 30
0.0
 11
472.3
 21
67.5
 31
0.0
  0
ARC
  8
1
  5
2B1
  6
CONTINUOUS
 62
7
 10
464.8
 20
82.5
 30
0.0
 40
16.77051
 50
296.5650515823
 51
359.9999988045
  0
POINT
  8
1
  5
2B3
  6
CONTINUOUS
 62
7
 10
481.57051
 20
82.5
 30
0.0
 50
0.0
  0
ARC
  8
1
  5
2B5
  6
CONTINUOUS
 62
7
 10
479.27922
 20
85.9
 30
0.0
 40
4.1
 50
303.9763527778
 51
90.0
  0
LINE
  8
1
  5
2B7
  6
CONTINUOUS
 62
7
 10
479.27922
 20
90.0
 30
0.0
 11
472.3
 21
90.0
 31
0.0
  0
LINE
  8
1
  5
2B9
  6
CONTINUOUS
 62
7
 10
472.3
 20
90.0
 30
0.0
 11
472.2997
 21
104.51826
 31
0.0
  0
ARC
  8
1
  5
2BB
  6
CONTINUOUS
 62
7
 10
471.359261
 20
108.508943
 30
0.0
 40
4.1
 50
283.2603564835
 51
75.8455842612
  0
ARC
  8
1
  5
2BD
  6
CONTINUOUS
 62
7
 10
464.8
 20
82.5
 30
0.0
 40
30.923292
 50
75.8455851832
 51
104.0362435165
  0
LINE
  8
1
  5
2BF
  6
CONTINUOUS
 62
7
 10
457.3
 20
112.5
 30
0.0
 11
457.29921
 21
112.49937
 31
0.0
  0
ARC
  8
1
  5
2C1
  6
CONTINUOUS
 62
7
 10
458.240739
 20
108.508943
 30
0.0
 40
4.1
 50
103.2759574054
 51
256.7353907388
  0
LINE
  8
1
  5
2C3
  6
CONTINUOUS
 62
7
 10
457.3
 20
104.51833
 30
0.0
 11
457.3
 21
97.5
 31
0.0
  0
ARC
  8
1
  5
2C5
  6
CONTINUOUS
 62
7
 10
464.8
 20
82.5
 30
0.0
 40
16.77051
 50
116.5650515823
 51
179.9999988045
  0
ARC
  8
1
  5
2C7
  6
CONTINUOUS
 62
7
 210
0.0
 220
0.0
 230
-1.0
 10
-464.8
 20
82.5
 30
-7.5
 40
16.77051
 50
180.0000011955
 51
243.4349484177
  0
LINE
  8
1
  5
2C9
  6
CONTINUOUS
 62
7
 10
481.57051
 20
82.5
 30
0.0
 11
481.57051
 21
82.5
 31
7.5
  0
LINE
  8
1
  5
2CB
  6
CONTINUOUS
 62
7
 10
472.3
 20
67.5
 30
0.0
 11
472.3
 21
67.5
 31
7.5
  0
LINE
  8
1
  5
2CD
  6
CONTINUOUS
 62
7
 10
472.3
 20
67.5
 30
7.5
 11
472.3
 21
60.48167
 31
7.5
  0
LINE
  8
1
  5
2CF
  6
CONTINUOUS
 62
7
 10
472.3
 20
60.48167
 30
0.0
 11
472.3
 21
60.48167
 31
7.5
  0
ARC
  8
1
  5
2D1
  6
CONTINUOUS
 62
7
 210
0.0
 220
0.0
 230
-1.0
 10
-471.359261
 20
56.491057
 30
-7.5
 40
4.1
 50
103.2646092612
 51
256.7368231501
  0
LINE
  8
1
  5
2D3
  6
CONTINUOUS
 62
7
 10
472.2999
 20
52.50042
 30
0.0
 11
472.2999
 21
52.50042
 31
7.5
  0
LINE
  8
1
  5
2D5
  6
CONTINUOUS
 62
7
 10
472.2999
 20
52.50042
 30
7.5
 11
472.3
 21
52.5
 31
7.5
  0
LINE
  8
1
  5
2D7
  6
CONTINUOUS
 62
7
 10
472.3
 20
52.5
 30
0.0
 11
472.3
 21
52.5
 31
7.5
  0
ARC
  8
1
  5
2D9
  6
CONTINUOUS
 62
7
 210
0.0
 220
0.0
 230
-1.0
 10
-464.8
 20
82.5
 30
-7.5
 40
30.923292
 50
255.9637564835
 51
284.0362425946
  0
LINE
  8
1
  5
2DB
  6
CONTINUOUS
 62
7
 10
457.3
 20
52.5
 30
0.0
 11
457.3
 21
52.5
 31
7.5
  0
LINE
  8
1
  5
2DD
  6
CONTINUOUS
 62
7
 10
457.3
 20
52.5
 30
7.5
 11
457.3001
 21
52.50042
 31
7.5
  0
LINE
  8
1
  5
2DF
  6
CONTINUOUS
 62
7
 10
457.3001
 20
52.50042
 30
0.0
 11
457.3001
 21
52.50042
 31
7.5
  0
ARC
  8
1
  5
2E1
  6
CONTINUOUS
 62
7
 210
0.0
 220
0.0
 230
-1.0
 10
-458.240739
 20
56.491057
 30
-7.5
 40
4.1
 50
283.2631768499
 51
76.7353907388
  0
LINE
  8
1
  5
2E3
  6
CONTINUOUS
 62
7
 10
457.3
 20
60.48167
 30
0.0
 11
457.3
 21
60.48167
 31
7.5
  0
LINE
  8
1
  5
2E5
  6
CONTINUOUS
 62
7
 10
457.3
 20
60.48167
 30
7.5
 11
457.3
 21
75.0
 31
7.5
  0
LINE
  8
1
  5
2E7
  6
CONTINUOUS
 62
7
 10
457.3
 20
75.0
 30
0.0
 11
457.3
 21
75.0
 31
7.5
  0
LINE
  8
1
  5
2E9
  6
CONTINUOUS
 62
7
 10
457.3
 20
75.0
 30
7.5
 11
450.32078
 21
75.0
 31
7.5
  0
LINE
  8
1
  5
2EB
  6
CONTINUOUS
 62
7
 10
450.32078
 20
75.0
 30
0.0
 11
450.32078
 21
75.0
 31
7.5
  0
ARC
  8
1
  5
2ED
  6
CONTINUOUS
 62
7
 210
0.0
 220
0.0
 230
-1.0
 10
-450.32078
 20
79.1
 30
-7.5
 40
4.1
 50
270.0
 51
56.0236472222
  0
LINE
  8
1
  5
2EF
  6
CONTINUOUS
 62
7
 10
448.02949
 20
82.5
 30
0.0
 11
448.02949
 21
82.5
 31
7.5
  0
POINT
  8
1
  5
2F1
  6
CONTINUOUS
 62
7
 10
448.02949
 20
82.5
 30
7.5
 50
0.0
  0
LINE
  8
1
  5
2F3
  6
CONTINUOUS
 62
7
 10
448.02949
 20
82.5
 30
0.0
 11
448.02949
 21
82.5
 31
7.5
  0
ARC
  8
1
  5
2F5
  6
CONTINUOUS
 62
7
 210
0.0
 220
0.0
 230
-1.0
 10
-464.8
 20
82.5
 30
-7.5
 40
16.77051
 50
0.0000011955
 51
63.4349484177
  0
LINE
  8
1
  5
2F7
  6
CONTINUOUS
 62
7
 10
457.3
 20
97.5
 30
0.0
 11
457.3
 21
97.5
 31
7.5
  0
LINE
  8
1
  5
2F9
  6
CONTINUOUS
 62
7
 10
457.3
 20
97.5
 30
7.5
 11
457.3
 21
104.51833
 31
7.5
  0
LINE
  8
1
  5
2FB
  6
CONTINUOUS
 62
7
 10
457.3
 20
104.51833
 30
0.0
 11
457.3
 21
104.51833
 31
7.5
  0
ARC
  8
1
  5
2FD
  6
CONTINUOUS
 62
7
 210
0.0
 220
0.0
 230
-1.0
 10
-458.240739
 20
108.508943
 30
-7.5
 40
4.1
 50
283.2646092612
 51
76.7240425946
  0
LINE
  8
1
  5
2FF
  6
CONTINUOUS
 62
7
 10
457.29921
 20
112.49937
 30
0.0
 11
457.29921
 21
112.49937
 31
7.5
  0
LINE
  8
1
  5
301
  6
CONTINUOUS
 62
7
 10
457.29921
 20
112.49937
 30
7.5
 11
457.3
 21
112.5
 31
7.5
  0
LINE
  8
1
  5
303
  6
CONTINUOUS
 62
7
 10
457.3
 20
112.5
 30
0.0
 11
457.3
 21
112.5
 31
7.5
  0
ARC
  8
1
  5
305
  6
CONTINUOUS
 62
7
 210
0.0
 220
0.0
 230
-1.0
 10
-464.8
 20
82.5
 30
-7.5
 40
30.923292
 50
75.9637564835
 51
104.1544148168
  0
LINE
  8
1
  5
307
  6
CONTINUOUS
 62
7
 10
472.36186
 20
112.48447
 30
0.0
 11
472.36186
 21
112.48447
 31
7.5
  0
ARC
  8
1
  5
309
  6
CONTINUOUS
 62
7
 210
0.0
 220
0.0
 230
-1.0
 10
-471.359261
 20
108.508943
 30
-7.5
 40
4.1
 50
104.1544157388
 51
256.7396435165
  0
LINE
  8
1
  5
30B
  6
CONTINUOUS
 62
7
 10
472.2997
 20
104.51826
 30
0.0
 11
472.2997
 21
104.51826
 31
7.5
  0
LINE
  8
1
  5
30D
  6
CONTINUOUS
 62
7
 10
472.2997
 20
104.51826
 30
7.5
 11
472.3
 21
90.0
 31
7.5
  0
LINE
  8
1
  5
30F
  6
CONTINUOUS
 62
7
 10
472.3
 20
90.0
 30
0.0
 11
472.3
 21
90.0
 31
7.5
  0
LINE
  8
1
  5
311
  6
CONTINUOUS
 62
7
 10
472.3
 20
90.0
 30
7.5
 11
479.27922
 21
90.0
 31
7.5
  0
LINE
  8
1
  5
313
  6
CONTINUOUS
 62
7
 10
479.27922
 20
90.0
 30
0.0
 11
479.27922
 21
90.0
 31
7.5
  0
ARC
  8
1
  5
315
  6
CONTINUOUS
 62
7
 210
0.0
 220
0.0
 230
-1.0
 10
-479.27922
 20
85.9
 30
-7.5
 40
4.1
 50
90.0
 51
236.0236472222
  0
LINE
  8
1
  5
317
  6
CONTINUOUS
 62
7
 10
481.57051
 20
82.5
 30
0.0
 11
481.57051
 21
82.5
 31
7.5
  0
POINT
  8
1
  5
319
  6
CONTINUOUS
 62
7
 10
481.57051
 20
82.5
 30
7.5
 50
0.0
  0
ENDBLK
  8
1
  5
31A
  0
BLOCK
  8
1
  5
31C
 70
1
 10
0.0
 20
0.0
 30
0.0
  2
*M10
  3
*M10
  0
LINE
  8
1
  5
31E
  6
CONTINUOUS
 62
7
 10
423.40254
 20
82.5
 30
7.5
 11
423.40254
 21
82.5
 31
15.0
  0
ARC
  8
1
  5
320
  6
CONTINUOUS
 62
7
 10
506.197464
 20
78.4
 30
15.0
 40
4.1
 50
90.0
 51
174.3438777778
  0
LINE
  8
1
  5
322
  6
CONTINUOUS
 62
7
 10
506.19746
 20
82.5
 30
7.5
 11
506.19746
 21
82.5
 31
15.0
  0
ARC
  8
1
  5
324
  6
CONTINUOUS
 62
7
 210
0.0
 220
0.0
 230
-1.0
 10
-506.197464
 20
78.4
 30
-7.5
 40
4.1
 50
5.6561222222
 51
90.0
  0
LINE
  8
1
  5
326
  6
CONTINUOUS
 62
7
 10
502.11743
 20
78.80409
 30
7.5
 11
502.11743
 21
78.80409
 31
15.0
  0
ARC
  8
1
  5
328
  6
CONTINUOUS
 62
7
 210
0.0
 220
0.0
 230
-1.0
 10
-464.8
 20
82.5
 30
-15.0
 40
37.5
 50
185.6561222222
 51
354.3438777778
  0
ARC
  8
1
  5
32A
  6
CONTINUOUS
 62
7
 10
464.8
 20
82.5
 30
7.5
 40
37.5
 50
185.6561222222
 51
354.3438777778
  0
LINE
  8
1
  5
32C
  6
CONTINUOUS
 62
7
 10
427.48257
 20
78.80409
 30
7.5
 11
427.48257
 21
78.80409
 31
15.0
  0
ARC
  8
1
  5
32E
  6
CONTINUOUS
 62
7
 10
423.402536
 20
78.4
 30
15.0
 40
4.1
 50
5.6561222222
 51
90.0
  0
ARC
  8
1
  5
330
  6
CONTINUOUS
 62
7
 210
0.0
 220
0.0
 230
-1.0
 10
-423.402536
 20
78.4
 30
-7.5
 40
4.1
 50
90.0
 51
174.3438777778
  0
ARC
  8
1
  5
332
  6
CONTINUOUS
 62
7
 10
506.197464
 20
86.6
 30
7.5
 40
4.1
 50
185.6561222222
 51
270.0
  0
ARC
  8
1
  5
334
  6
CONTINUOUS
 62
7
 210
0.0
 220
0.0
 230
-1.0
 10
-464.8
 20
82.5
 30
-7.5
 40
37.5
 50
5.6561222222
 51
174.3438777778
  0
ARC
  8
1
  5
336
  6
CONTINUOUS
 62
7
 10
423.402536
 20
86.6
 30
7.5
 40
4.1
 50
270.0
 51
354.3438777778
  0
ENDBLK
  8
1
  5
337
  0
BLOCK
  8
1
  5
339
 70
1
 10
0.0
 20
0.0
 30
0.0
  2
*M11
  3
*M11
  0
LINE
  8
1
  5
33B
  6
CONTINUOUS
 62
7
 10
349.0
 20
82.5
 30
0.0
 11
423.40254
 21
82.5
 31
0.0
  0
ARC
  8
1
  5
33D
  6
CONTINUOUS
 62
7
 10
423.402536
 20
86.6
 30
0.0
 40
4.1
 50
270.0
 51
354.3438777778
  0
ARC
  8
1
  5
33F
  6
CONTINUOUS
 62
7
 210
0.0
 220
0.0
 230
-1.0
 10
-464.8
 20
82.5
 30
0.0
 40
37.5
 50
5.6561222222
 51
174.3438777778
  0
ARC
  8
1
  5
341
  6
CONTINUOUS
 62
7
 10
506.197464
 20
86.6
 30
0.0
 40
4.1
 50
185.6561222222
 51
270.0
  0
LINE
  8
1
  5
343
  6
CONTINUOUS
 62
7
 10
506.19746
 20
82.5
 30
0.0
 11
540.0
 21
82.5
 31
0.0
  0
LINE
  8
1
  5
345
  6
CONTINUOUS
 62
7
 10
540.0
 20
82.5
 30
0.0
 11
540.0
 21
0.0
 31
0.0
  0
LINE
  8
1
  5
347
  6
CONTINUOUS
 62
7
 10
540.0
 20
0.0
 30
0.0
 11
300.0
 21
0.0
 31
0.0
  0
LINE
  8
1
  5
349
  6
CONTINUOUS
 62
7
 10
300.0
 20
0.0
 30
0.0
 11
300.0
 21
82.5
 31
0.0
  0
LINE
  8
1
  5
34B
  6
CONTINUOUS
 62
7
 10
300.0
 20
82.5
 30
0.0
 11
337.0
 21
82.5
 31
0.0
  0
LINE
  8
1
  5
34D
  6
CONTINUOUS
 62
7
 10
349.0
 20
82.5
 30
15.0
 11
423.40254
 21
82.5
 31
15.0
  0
LINE
  8
1
  5
34F
  6
CONTINUOUS
 62
7
 10
423.40254
 20
82.5
 30
0.0
 11
423.40254
 21
82.5
 31
7.5
  0
LINE
  8
1
  5
351
  6
CONTINUOUS
 62
7
 10
300.0
 20
82.5
 30
0.0
 11
300.0
 21
82.5
 31
15.0
  0
LINE
  8
1
  5
353
  6
CONTINUOUS
 62
7
 10
300.0
 20
82.5
 30
15.0
 11
337.0
 21
82.5
 31
15.0
  0
LINE
  8
1
  5
355
  6
CONTINUOUS
 62
7
 10
300.0
 20
0.0
 30
15.0
 11
300.0
 21
82.5
 31
15.0
  0
LINE
  8
1
  5
357
  6
CONTINUOUS
 62
7
 10
540.0
 20
0.0
 30
15.0
 11
300.0
 21
0.0
 31
15.0
  0
LINE
  8
1
  5
359
  6
CONTINUOUS
 62
7
 10
540.0
 20
82.5
 30
15.0
 11
540.0
 21
0.0
 31
15.0
  0
LINE
  8
1
  5
35B
  6
CONTINUOUS
 62
7
 10
506.19746
 20
82.5
 30
15.0
 11
540.0
 21
82.5
 31
15.0
  0
LINE
  8
1
  5
35D
  6
CONTINUOUS
 62
7
 10
427.48257
 20
86.19591
 30
0.0
 11
427.48257
 21
86.19591
 31
7.5
  0
LINE
  8
1
  5
35F
  6
CONTINUOUS
 62
7
 10
502.11743
 20
86.19591
 30
0.0
 11
502.11743
 21
86.19591
 31
7.5
  0
LINE
  8
1
  5
361
  6
CONTINUOUS
 62
7
 10
506.19746
 20
82.5
 30
0.0
 11
506.19746
 21
82.5
 31
7.5
  0
LINE
  8
1
  5
363
  6
CONTINUOUS
 62
7
 10
540.0
 20
82.5
 30
0.0
 11
540.0
 21
82.5
 31
15.0
  0
LINE
  8
1
  5
365
  6
CONTINUOUS
 62
7
 10
540.0
 20
0.0
 30
0.0
 11
540.0
 21
0.0
 31
15.0
  0
LINE
  8
1
  5
367
  6
CONTINUOUS
 62
7
 10
300.0
 20
0.0
 30
0.0
 11
300.0
 21
0.0
 31
15.0
  0
ENDBLK
  8
1
  5
368
  0
BLOCK
  8
1
  5
36A
 70
1
 10
0.0
 20
0.0
 30
0.0
  2
*M12
  3
*M12
  0
INSERT
  8
1
  5
36C
  6
CONTINUOUS
 62
7
  2
*M10
 10
0.0
 20
0.0
 30
0.0
 41
1.0
 42
1.0
 43
1.0
 70
1
 71
1
  0
INSERT
  8
1
  5
36E
  6
CONTINUOUS
 62
7
  2
*M11
 10
0.0
 20
0.0
 30
0.0
 41
1.0
 42
1.0
 43
1.0
 70
1
 71
1
  0
ENDBLK
  8
1
  5
36F
  0
BLOCK
  8
1
  5
371
 70
1
 10
0.0
 20
0.0
 30
0.0
  2
*M13
  3
*M13
  0
INSERT
  8
1
  5
373
  6
CONTINUOUS
 62
7
  2
*M9
 10
0.0
 20
0.0
 30
0.0
 41
1.0
 42
1.0
 43
1.0
 70
1
 71
1
  0
INSERT
  8
1
  5
375
  6
CONTINUOUS
 62
7
  2
*M12
 10
0.0
 20
0.0
 30
0.0
 41
1.0
 42
1.0
 43
1.0
 70
1
 71
1
  0
ENDBLK
  8
1
  5
376
  0
BLOCK
  8
1
  5
378
 70
1
 10
0.0
 20
0.0
 30
0.0
  2
*M14
  3
*M14
  0
INSERT
  8
1
  5
37A
  6
CONTINUOUS
 62
7
  2
*M8
 10
0.0
 20
0.0
 30
0.0
 41
1.0
 42
1.0
 43
1.0
 70
1
 71
1
  0
INSERT
  8
1
  5
37C
  6
CONTINUOUS
 62
7
  2
*M13
 10
0.0
 20
0.0
 30
0.0
 41
1.0
 42
1.0
 43
1.0
 70
1
 71
1
  0
ENDBLK
  8
1
  5
37D
  0
BLOCK
  8
1
  5
37F
 70
1
 10
0.0
 20
0.0
 30
0.0
  2
*M15
  3
*M15
  0
LINE
  8
1
  5
381
  6
CONTINUOUS
 62
7
 10
188.0
 20
41.25
 30
12.0
 11
188.0
 21
41.25
 31
15.0
  0
LINE
  8
1
  5
383
  6
CONTINUOUS
 62
7
 10
188.0
 20
41.25
 30
12.0
 11
188.0
 21
123.75
 31
12.0
  0
LINE
  8
1
  5
385
  6
CONTINUOUS
 62
7
 10
188.0
 20
123.75
 30
15.0
 11
188.0
 21
123.75
 31
12.0
  0
LINE
  8
1
  5
387
  6
CONTINUOUS
 62
7
 10
188.0
 20
41.25
 30
15.0
 11
188.0
 21
123.75
 31
15.0
  0
LINE
  8
1
  5
389
  6
CONTINUOUS
 62
7
 10
203.0
 20
41.25
 30
12.0
 11
188.0
 21
41.25
 31
12.0
  0
LINE
  8
1
  5
38B
  6
CONTINUOUS
 62
7
 10
203.0
 20
123.75
 30
12.0
 11
203.0
 21
41.25
 31
12.0
  0
LINE
  8
1
  5
38D
  6
CONTINUOUS
 62
7
 10
188.0
 20
123.75
 30
12.0
 11
203.0
 21
123.75
 31
12.0
  0
LINE
  8
1
  5
38F
  6
CONTINUOUS
 62
7
 10
203.0
 20
41.25
 30
15.0
 11
203.0
 21
41.25
 31
12.0
  0
LINE
  8
1
  5
391
  6
CONTINUOUS
 62
7
 10
203.0
 20
123.75
 30
15.0
 11
203.0
 21
41.25
 31
15.0
  0
LINE
  8
1
  5
393
  6
CONTINUOUS
 62
7
 10
203.0
 20
123.75
 30
12.0
 11
203.0
 21
123.75
 31
15.0
  0
ENDBLK
  8
1
  5
394
  0
BLOCK
  8
1
  5
396
 70
1
 10
0.0
 20
0.0
 30
0.0
  2
*M16
  3
*M16
  0
LINE
  8
1
  5
398
  6
CONTINUOUS
 62
7
 10
183.6
 20
41.25
 30
15.0
 11
188.0
 21
41.25
 31
15.0
  0
LINE
  8
1
  5
39A
  6
CONTINUOUS
 62
7
 10
183.6
 20
41.25
 30
0.0
 11
183.6
 21
41.25
 31
15.0
  0
LINE
  8
1
  5
39C
  6
CONTINUOUS
 62
7
 10
207.4
 20
41.25
 30
0.0
 11
183.6
 21
41.25
 31
0.0
  0
LINE
  8
1
  5
39E
  6
CONTINUOUS
 62
7
 10
207.4
 20
41.25
 30
0.0
 11
207.4
 21
41.25
 31
15.0
  0
LINE
  8
1
  5
3A0
  6
CONTINUOUS
 62
7
 10
203.0
 20
41.25
 30
15.0
 11
207.4
 21
41.25
 31
15.0
  0
LINE
  8
1
  5
3A2
  6
CONTINUOUS
 62
7
 10
188.0
 20
0.0
 30
15.0
 11
188.0
 21
29.25
 31
15.0
  0
LINE
  8
1
  5
3A4
  6
CONTINUOUS
 62
7
 10
188.0
 20
29.25
 30
15.0
 11
183.6
 21
29.25
 31
15.0
  0
ARC
  8
1
  5
3A6
  6
CONTINUOUS
 62
7
 210
0.0
 220
0.0
 230
-1.0
 10
-183.6
 20
33.35
 30
-15.0
 40
4.1
 50
270.0
 51
360.0
  0
LINE
  8
1
  5
3A8
  6
CONTINUOUS
 62
7
 10
179.5
 20
33.35
 30
15.0
 11
179.5
 21
37.15
 31
15.0
  0
ARC
  8
1
  5
3AA
  6
CONTINUOUS
 62
7
 210
0.0
 220
0.0
 230
-1.0
 10
-183.6
 20
37.15
 30
-15.0
 40
4.1
 50
0.0
 51
90.0
  0
ARC
  8
1
  5
3AC
  6
CONTINUOUS
 62
7
 10
183.6
 20
37.15
 30
0.0
 40
4.1
 50
90.0
 51
180.0
  0
LINE
  8
1
  5
3AE
  6
CONTINUOUS
 62
7
 10
179.5
 20
37.15
 30
0.0
 11
179.5
 21
37.15
 31
15.0
  0
LINE
  8
1
  5
3B0
  6
CONTINUOUS
 62
7
 10
179.5
 20
37.15
 30
0.0
 11
179.5
 21
33.35
 31
0.0
  0
LINE
  8
1
  5
3B2
  6
CONTINUOUS
 62
7
 10
179.5
 20
33.35
 30
0.0
 11
179.5
 21
33.35
 31
15.0
  0
ARC
  8
1
  5
3B4
  6
CONTINUOUS
 62
7
 10
183.6
 20
33.35
 30
0.0
 40
4.1
 50
180.0
 51
270.0
  0
LINE
  8
1
  5
3B6
  6
CONTINUOUS
 62
7
 10
183.6
 20
29.25
 30
0.0
 11
183.6
 21
29.25
 31
15.0
  0
LINE
  8
1
  5
3B8
  6
CONTINUOUS
 62
7
 10
183.6
 20
29.25
 30
0.0
 11
188.0
 21
29.25
 31
0.0
  0
LINE
  8
1
  5
3BA
  6
CONTINUOUS
 62
7
 10
188.0
 20
29.25
 30
0.0
 11
188.0
 21
29.25
 31
15.0
  0
LINE
  8
1
  5
3BC
  6
CONTINUOUS
 62
7
 10
188.0
 20
29.25
 30
0.0
 11
188.0
 21
0.0
 31
0.0
  0
LINE
  8
1
  5
3BE
  6
CONTINUOUS
 62
7
 10
188.0
 20
0.0
 30
0.0
 11
188.0
 21
0.0
 31
15.0
  0
ARC
  8
1
  5
3C0
  6
CONTINUOUS
 62
7
 10
207.4
 20
37.15
 30
0.0
 40
4.1
 50
360.0
 51
90.0
  0
LINE
  8
1
  5
3C2
  6
CONTINUOUS
 62
7
 10
211.5
 20
37.15
 30
0.0
 11
211.5
 21
37.15
 31
15.0
  0
ARC
  8
1
  5
3C4
  6
CONTINUOUS
 62
7
 210
0.0
 220
0.0
 230
-1.0
 10
-207.4
 20
37.15
 30
-15.0
 40
4.1
 50
90.0
 51
180.0
  0
LINE
  8
1
  5
3C6
  6
CONTINUOUS
 62
7
 10
211.5
 20
33.35
 30
0.0
 11
211.5
 21
37.15
 31
0.0
  0
LINE
  8
1
  5
3C8
  6
CONTINUOUS
 62
7
 10
211.5
 20
33.35
 30
0.0
 11
211.5
 21
33.35
 31
15.0
  0
LINE
  8
1
  5
3CA
  6
CONTINUOUS
 62
7
 10
211.5
 20
37.15
 30
15.0
 11
211.5
 21
33.35
 31
15.0
  0
ARC
  8
1
  5
3CC
  6
CONTINUOUS
 62
7
 10
207.4
 20
33.35
 30
0.0
 40
4.1
 50
270.0
 51
360.0
  0
LINE
  8
1
  5
3CE
  6
CONTINUOUS
 62
7
 10
207.4
 20
29.25
 30
0.0
 11
207.4
 21
29.25
 31
15.0
  0
ARC
  8
1
  5
3D0
  6
CONTINUOUS
 62
7
 210
0.0
 220
0.0
 230
-1.0
 10
-207.4
 20
33.35
 30
-15.0
 40
4.1
 50
180.0
 51
270.0
  0
LINE
  8
1
  5
3D2
  6
CONTINUOUS
 62
7
 10
203.0
 20
29.25
 30
0.0
 11
207.4
 21
29.25
 31
0.0
  0
LINE
  8
1
  5
3D4
  6
CONTINUOUS
 62
7
 10
203.0
 20
29.25
 30
0.0
 11
203.0
 21
29.25
 31
15.0
  0
LINE
  8
1
  5
3D6
  6
CONTINUOUS
 62
7
 10
207.4
 20
29.25
 30
15.0
 11
203.0
 21
29.25
 31
15.0
  0
LINE
  8
1
  5
3D8
  6
CONTINUOUS
 62
7
 10
203.0
 20
0.0
 30
0.0
 11
203.0
 21
29.25
 31
0.0
  0
LINE
  8
1
  5
3DA
  6
CONTINUOUS
 62
7
 10
203.0
 20
0.0
 30
15.0
 11
203.0
 21
0.0
 31
0.0
  0
LINE
  8
1
  5
3DC
  6
CONTINUOUS
 62
7
 10
203.0
 20
29.25
 30
15.0
 11
203.0
 21
0.0
 31
15.0
  0
ENDBLK
  8
1
  5
3DD
  0
BLOCK
  8
1
  5
3DF
 70
1
 10
0.0
 20
0.0
 30
0.0
  2
*M17
  3
*M17
  0
LINE
  8
1
  5
3E1
  6
CONTINUOUS
 62
7
 10
188.0
 20
123.75
 30
15.0
 11
183.6
 21
123.75
 31
15.0
  0
ARC
  8
1
  5
3E3
  6
CONTINUOUS
 62
7
 210
0.0
 220
0.0
 230
-1.0
 10
-183.6
 20
127.85
 30
-15.0
 40
4.1
 50
270.0
 51
360.0
  0
LINE
  8
1
  5
3E5
  6
CONTINUOUS
 62
7
 10
179.5
 20
127.85
 30
15.0
 11
179.5
 21
131.65
 31
15.0
  0
ARC
  8
1
  5
3E7
  6
CONTINUOUS
 62
7
 210
0.0
 220
0.0
 230
-1.0
 10
-183.6
 20
131.65
 30
-15.0
 40
4.1
 50
360.0
 51
90.0
  0
LINE
  8
1
  5
3E9
  6
CONTINUOUS
 62
7
 10
183.6
 20
135.75
 30
15.0
 11
188.0
 21
135.75
 31
15.0
  0
LINE
  8
1
  5
3EB
  6
CONTINUOUS
 62
7
 10
188.0
 20
135.75
 30
15.0
 11
188.0
 21
165.0
 31
15.0
  0
LINE
  8
1
  5
3ED
  6
CONTINUOUS
 62
7
 10
188.0
 20
165.0
 30
0.0
 11
188.0
 21
135.75
 31
0.0
  0
LINE
  8
1
  5
3EF
  6
CONTINUOUS
 62
7
 10
188.0
 20
135.75
 30
0.0
 11
183.6
 21
135.75
 31
0.0
  0
ARC
  8
1
  5
3F1
  6
CONTINUOUS
 62
7
 10
183.6
 20
131.65
 30
0.0
 40
4.1
 50
90.0
 51
180.0
  0
LINE
  8
1
  5
3F3
  6
CONTINUOUS
 62
7
 10
179.5
 20
131.65
 30
0.0
 11
179.5
 21
127.85
 31
0.0
  0
ARC
  8
1
  5
3F5
  6
CONTINUOUS
 62
7
 10
183.6
 20
127.85
 30
0.0
 40
4.1
 50
180.0
 51
270.0
  0
LINE
  8
1
  5
3F7
  6
CONTINUOUS
 62
7
 10
183.6
 20
123.75
 30
0.0
 11
207.4
 21
123.75
 31
0.0
  0
ARC
  8
1
  5
3F9
  6
CONTINUOUS
 62
7
 10
207.4
 20
127.85
 30
0.0
 40
4.1
 50
270.0
 51
360.0
  0
LINE
  8
1
  5
3FB
  6
CONTINUOUS
 62
7
 10
211.5
 20
127.85
 30
0.0
 11
211.5
 21
131.65
 31
0.0
  0
ARC
  8
1
  5
3FD
  6
CONTINUOUS
 62
7
 10
207.4
 20
131.65
 30
0.0
 40
4.1
 50
0.0
 51
90.0
  0
LINE
  8
1
  5
3FF
  6
CONTINUOUS
 62
7
 10
207.4
 20
135.75
 30
0.0
 11
203.0
 21
135.75
 31
0.0
  0
LINE
  8
1
  5
401
  6
CONTINUOUS
 62
7
 10
203.0
 20
135.75
 30
0.0
 11
203.0
 21
165.0
 31
0.0
  0
LINE
  8
1
  5
403
  6
CONTINUOUS
 62
7
 10
207.4
 20
123.75
 30
0.0
 11
207.4
 21
123.75
 31
15.0
  0
ARC
  8
1
  5
405
  6
CONTINUOUS
 62
7
 210
0.0
 220
0.0
 230
-1.0
 10
-207.4
 20
127.85
 30
-15.0
 40
4.1
 50
180.0
 51
270.0
  0
LINE
  8
1
  5
407
  6
CONTINUOUS
 62
7
 10
211.5
 20
127.85
 30
0.0
 11
211.5
 21
127.85
 31
15.0
  0
LINE
  8
1
  5
409
  6
CONTINUOUS
 62
7
 10
183.6
 20
123.75
 30
0.0
 11
183.6
 21
123.75
 31
15.0
  0
LINE
  8
1
  5
40B
  6
CONTINUOUS
 62
7
 10
179.5
 20
127.85
 30
0.0
 11
179.5
 21
127.85
 31
15.0
  0
LINE
  8
1
  5
40D
  6
CONTINUOUS
 62
7
 10
211.5
 20
131.65
 30
15.0
 11
211.5
 21
127.85
 31
15.0
  0
LINE
  8
1
  5
40F
  6
CONTINUOUS
 62
7
 10
211.5
 20
131.65
 30
0.0
 11
211.5
 21
131.65
 31
15.0
  0
LINE
  8
1
  5
411
  6
CONTINUOUS
 62
7
 10
179.5
 20
131.65
 30
0.0
 11
179.5
 21
131.65
 31
15.0
  0
ARC
  8
1
  5
413
  6
CONTINUOUS
 62
7
 210
0.0
 220
0.0
 230
-1.0
 10
-207.4
 20
131.65
 30
-15.0
 40
4.1
 50
90.0
 51
180.0
  0
LINE
  8
1
  5
415
  6
CONTINUOUS
 62
7
 10
207.4
 20
135.75
 30
0.0
 11
207.4
 21
135.75
 31
15.0
  0
LINE
  8
1
  5
417
  6
CONTINUOUS
 62
7
 10
183.6
 20
135.75
 30
0.0
 11
183.6
 21
135.75
 31
15.0
  0
LINE
  8
1
  5
419
  6
CONTINUOUS
 62
7
 10
203.0
 20
135.75
 30
15.0
 11
207.4
 21
135.75
 31
15.0
  0
LINE
  8
1
  5
41B
  6
CONTINUOUS
 62
7
 10
203.0
 20
135.75
 30
15.0
 11
203.0
 21
135.75
 31
0.0
  0
LINE
  8
1
  5
41D
  6
CONTINUOUS
 62
7
 10
188.0
 20
135.75
 30
0.0
 11
188.0
 21
135.75
 31
15.0
  0
LINE
  8
1
  5
41F
  6
CONTINUOUS
 62
7
 10
203.0
 20
165.0
 30
15.0
 11
203.0
 21
135.75
 31
15.0
  0
LINE
  8
1
  5
421
  6
CONTINUOUS
 62
7
 10
203.0
 20
165.0
 30
0.0
 11
203.0
 21
165.0
 31
15.0
  0
LINE
  8
1
  5
423
  6
CONTINUOUS
 62
7
 10
188.0
 20
165.0
 30
15.0
 11
188.0
 21
165.0
 31
0.0
  0
LINE
  8
1
  5
425
  6
CONTINUOUS
 62
7
 10
207.4
 20
123.75
 30
15.0
 11
203.0
 21
123.75
 31
15.0
  0
ENDBLK
  8
1
  5
426
  0
BLOCK
  8
1
  5
428
 70
1
 10
0.0
 20
0.0
 30
0.0
  2
*M18
  3
*M18
  0
LINE
  8
1
  5
42A
  6
CONTINUOUS
 62
7
 10
0.0
 20
165.0
 30
15.0
 11
188.0
 21
165.0
 31
15.0
  0
LINE
  8
1
  5
42C
  6
CONTINUOUS
 62
7
 10
0.0
 20
0.0
 30
15.0
 11
0.0
 21
165.0
 31
15.0
  0
LINE
  8
1
  5
42E
  6
CONTINUOUS
 62
7
 10
188.0
 20
0.0
 30
15.0
 11
0.0
 21
0.0
 31
15.0
  0
LINE
  8
1
  5
430
  6
CONTINUOUS
 62
7
 10
0.0
 20
0.0
 30
0.0
 11
188.0
 21
0.0
 31
0.0
  0
LINE
  8
1
  5
432
  6
CONTINUOUS
 62
7
 10
0.0
 20
165.0
 30
0.0
 11
0.0
 21
0.0
 31
0.0
  0
LINE
  8
1
  5
434
  6
CONTINUOUS
 62
7
 10
188.0
 20
165.0
 30
0.0
 11
0.0
 21
165.0
 31
0.0
  0
LINE
  8
1
  5
436
  6
CONTINUOUS
 62
7
 10
240.0
 20
165.0
 30
0.0
 11
203.0
 21
165.0
 31
0.0
  0
LINE
  8
1
  5
438
  6
CONTINUOUS
 62
7
 10
240.0
 20
0.0
 30
0.0
 11
240.0
 21
165.0
 31
0.0
  0
LINE
  8
1
  5
43A
  6
CONTINUOUS
 62
7
 10
203.0
 20
0.0
 30
0.0
 11
240.0
 21
0.0
 31
0.0
  0
LINE
  8
1
  5
43C
  6
CONTINUOUS
 62
7
 10
0.0
 20
0.0
 30
0.0
 11
0.0
 21
0.0
 31
15.0
  0
LINE
  8
1
  5
43E
  6
CONTINUOUS
 62
7
 10
240.0
 20
0.0
 30
15.0
 11
203.0
 21
0.0
 31
15.0
  0
LINE
  8
1
  5
440
  6
CONTINUOUS
 62
7
 10
240.0
 20
165.0
 30
15.0
 11
240.0
 21
0.0
 31
15.0
  0
LINE
  8
1
  5
442
  6
CONTINUOUS
 62
7
 10
203.0
 20
165.0
 30
15.0
 11
240.0
 21
165.0
 31
15.0
  0
LINE
  8
1
  5
444
  6
CONTINUOUS
 62
7
 10
0.0
 20
165.0
 30
0.0
 11
0.0
 21
165.0
 31
15.0
  0
LINE
  8
1
  5
446
  6
CONTINUOUS
 62
7
 10
240.0
 20
165.0
 30
0.0
 11
240.0
 21
165.0
 31
15.0
  0
LINE
  8
1
  5
448
  6
CONTINUOUS
 62
7
 10
240.0
 20
0.0
 30
0.0
 11
240.0
 21
0.0
 31
15.0
  0
ENDBLK
  8
1
  5
449
  0
BLOCK
  8
1
  5
44B
 70
1
 10
0.0
 20
0.0
 30
0.0
  2
*M19
  3
*M19
  0
INSERT
  8
1
  5
44D
  6
CONTINUOUS
 62
7
  2
*M17
 10
0.0
 20
0.0
 30
0.0
 41
1.0
 42
1.0
 43
1.0
 70
1
 71
1
  0
INSERT
  8
1
  5
44F
  6
CONTINUOUS
 62
7
  2
*M18
 10
0.0
 20
0.0
 30
0.0
 41
1.0
 42
1.0
 43
1.0
 70
1
 71
1
  0
ENDBLK
  8
1
  5
450
  0
BLOCK
  8
1
  5
452
 70
1
 10
0.0
 20
0.0
 30
0.0
  2
*M20
  3
*M20
  0
INSERT
  8
1
  5
454
  6
CONTINUOUS
 62
7
  2
*M16
 10
0.0
 20
0.0
 30
0.0
 41
1.0
 42
1.0
 43
1.0
 70
1
 71
1
  0
INSERT
  8
1
  5
456
  6
CONTINUOUS
 62
7
  2
*M19
 10
0.0
 20
0.0
 30
0.0
 41
1.0
 42
1.0
 43
1.0
 70
1
 71
1
  0
ENDBLK
  8
1
  5
457
  0
BLOCK
  8
1
  5
459
 70
1
 10
0.0
 20
0.0
 30
0.0
  2
*M21
  3
*M21
  0
INSERT
  8
1
  5
45B
  6
CONTINUOUS
 62
7
  2
*M15
 10
0.0
 20
0.0
 30
0.0
 41
1.0
 42
1.0
 43
1.0
 70
1
 71
1
  0
INSERT
  8
1
  5
45D
  6
CONTINUOUS
 62
7
  2
*M20
 10
0.0
 20
0.0
 30
0.0
 41
1.0
 42
1.0
 43
1.0
 70
1
 71
1
  0
ENDBLK
  8
1
  5
45E
  0
ENDSEC
  0
SECTION
  2
ENTITIES
  0
INSERT
  8
1
  5
2
  6
CONTINUOUS
 62
7
  2
*M0
 10
118.44375
 20
-828.84863
 30
883.37693
 41
1.0
 42
1.0
 43
1.0
 70
1
 71
1
  0
INSERT
  8
1
  5
4
  6
CONTINUOUS
 62
7
  2
*M7
 10
830.0
 20
-685.4835
 30
898.37693
 41
1.0
 42
1.0
 43
1.0
 70
1
 71
1
  0
INSERT
  8
1
  5
6
  6
CONTINUOUS
 62
7
  2
*M14
 10
-10.0
 20
-810.48311
 30
883.37693
 41
1.0
 42
1.0
 43
1.0
 70
1
 71
1
  0
INSERT
  8
1
  5
8
  6
CONTINUOUS
 62
7
  2
*M21
 10
0.0
 20
-810.48311
 30
883.37693
 41
1.0
 42
1.0
 43
1.0
 70
1
 71
1
  0
ENDSEC
  0
EOF
