  0
SECTION
  2
HEADER
  9
$ACADVER
  1
AC1009
  9
$INSBASE
 10
0.0
 20
0.0
 30
0.0
  9
$EXTMAX
 10
77.18762
 20
154.09858
 30
16.0
  9
$EXTMIN
 10
-112.81238
 20
-119.23475
 30
-16.0
  9
$LIMMAX
 10
12.0
 20
9.0
  9
$LIMMIN
 10
0.0
 20
0.0
  9
$ORTHOMODE
 70
0
  9
$REGENMODE
 70
1
  9
$FILLMODE
 70
1
  9
$QTEXTMODE
 70
0
  9
$MIRRTEXT
 70
1
  9
$DRAGMODE
 70
2
  9
$LTSCALE
 40
1.0
  9
$OSMODE
 70
0
  9
$ATTMODE
 70
1
  9
$TEXTSIZE
 40
0.2
  9
$TRACEWID
 40
0.05
  9
$TEXTSTYLE
  7
STANDARD
  9
$CLAYER
  8
0
  9
$CELTYPE
  6
CONTINUOUS
  9
$CECOLOR
 62
256
  9
$DIMSCALE
 40
1.0
  9
$DIMASZ
 40
0.18
  9
$DIMEXO
 40
0.0625
  9
$DIMDLI
 40
0.38
  9
$DIMRND
 40
0.0
  9
$DIMDLE
 40
0.0
  9
$DIMEXE
 40
0.18
  9
$DIMTP
 40
0.0
  9
$DIMTM
 40
0.0
  9
$DIMTXT
 40
0.18
  9
$DIMCEN
 40
0.09
  9
$DIMTSZ
 40
0.0
  9
$DIMTOL
 70
0
  9
$DIMLIM
 70
0
  9
$DIMTIH
 70
1
  9
$DIMTOH
 70
1
  9
$DIMSE1
 70
0
  9
$DIMSE2
 70
0
  9
$DIMTAD
 70
0
  9
$DIMZIN
 70
0
  9
$DIMBLK
  1

  9
$DIMASO
 70
1
  9
$DIMSHO
 70
1
  9
$DIMPOST
  1

  9
$DIMAPOST
  1

  9
$DIMALT
 70
0
  9
$DIMALTD
 70
2
  9
$DIMALTF
 40
25.4
  9
$DIMLFAC
 40
1.0
  9
$DIMTOFL
 70
0
  9
$DIMTVP
 40
0.0
  9
$DIMTIX
 70
0
  9
$DIMSOXD
 70
0
  9
$DIMSAH
 70
0
  9
$DIMBLK1
  1

  9
$DIMBLK2
  1

  9
$DIMSTYLE
  2
*UNNAMED
  9
$DIMCLRD
 70
0
  9
$DIMCLRE
 70
0
  9
$DIMCLRT
 70
0
  9
$DIMTFAC
 40
1.0
  9
$DIMGAP
 40
0.09
  9
$LUNITS
 70
2
  9
$LUPREC
 70
4
  9
$AXISMODE
 70
0
  9
$AXISUNIT
 10
0.0
 20
0.0
  9
$SKETCHINC
 40
0.1
  9
$FILLETRAD
 40
0.0
  9
$AUNITS
 70
0
  9
$AUPREC
 70
0
  9
$MENU
  1
acad
  9
$ELEVATION
 40
0.0
  9
$PELEVATION
 40
0.0
  9
$THICKNESS
 40
0.0
  9
$LIMCHECK
 70
0
  9
$BLIPMODE
 70
1
  9
$CHAMFERA
 40
0.0
  9
$CHAMFERB
 40
0.0
  9
$SKPOLY
 70
0
  9
$TDCREATE
 40
0.0
  9
$TDUPDATE
 40
0.0
  9
$TDINDWG
 40
0.0
  9
$TDUSRTIMER
 40
0.0
  9
$USRTIMER
 70
1
  9
$ANGBASE
 50
0.0
  9
$ANGDIR
 70
0
  9
$PDMODE
 70
0
  9
$PDSIZE
 40
0.0
  9
$PLINEWID
 40
0.0
  9
$COORDS
 70
0
  9
$SPLFRAME
 70
0
  9
$SPLINETYPE
 70
6
  9
$SPLINESEGS
 70
10
  9
$ATTDIA
 70
0
  9
$ATTREQ
 70
1
  9
$HANDLING
 70
1
  9
$HANDSEED
  5
168
  9
$SURFTAB1
 70
6
  9
$SURFTAB2
 70
6
  9
$SURFTYPE
 70
6
  9
$SURFU
 70
10
  9
$SURFV
 70
10
  9
$UCSNAME
  2

  9
$UCSORG
 10
0.0
 20
0.0
 30
0.0
  9
$UCSXDIR
 10
1.0
 20
0.0
 30
0.0
  9
$UCSYDIR
 10
0.0
 20
1.0
 30
0.0
  9
$PUCSNAME
  2
 
  9
$PUCSORG
 10
0.0
 20
0.0
 30
0.0
  9
$PUCSXDIR
 10
1.0
 20
0.0
 30
0.0
  9
$PUCSYDIR
 10
0.0
 20
1.0
 30
0.0
  9
$USERI1
 70
0
  9
$USERI2
 70
0
  9
$USERI3
 70
0
  9
$USERI4
 70
0
  9
$USERI5
 70
0
  9
$USERR1
 40
0.0
  9
$USERR2
 40
0.0
  9
$USERR3
 40
0.0
  9
$USERR4
 40
0.0
  9
$USERR5
 40
0.0
  9
$WORLDVIEW
 70
1
  9
$SHADEDGE
 70
3
  9
$SHADEDIF
 70
70
  9
$TILEMODE
 70
1
  9
$MAXACTVP
 70
16
  9
$PINSBASE
 10
0.0
 20
0.0
 30
0.0
  9
$PLIMCHECK
 70
0
  9
$PEXTMIN
 10
-1.000000E+020
 20
-1.000000E+020
 30
-1.000000E+020
  9
$PEXTMAX
 10
-1.000000E+020
 20
-1.000000E+020
 30
-1.000000E+020
  9
$PLIMMIN
 10
0.0
 20
0.0
  9
$PLIMMAX
 10
12.0
 20
9.0
  9
$UNITMODE
 70
0
  9
$VISRETAIN
 70
0
  0
ENDSEC
  0
SECTION
  2
TABLES
  0
TABLE
  2
LTYPE
 70
7
  0
LTYPE
  2
CONTINUOUS
 70
64
  3
Solid line
 72
65
 73
0
 40
0.0
  0
LTYPE
  2
DOT
 70
64
  3
. . . . . . . . . . . . . . . . . . . . . . . . . . . . . . . . .
 72
65
 73
2
 40
0.25
 49
0.0
 49
-0.25
  0
LTYPE
  2
HIDDEN
 70
64
  3
__ __ __ __ __ __ __ __ __ __ __ __ __ __ __ __ __ __ __ __ __ 
 72
65
 73
2
 40
0.375
 49
0.25
 49
-0.125
  0
LTYPE
  2
DASHED
 70
64
  3
__ __ __ __ __ __ __ __ __ __ __ __ __ __ __ __ __ __ __ __ __
 72
65
 73
2
 40
0.75
 49
0.5
 49
-0.25
  0
LTYPE
  2
DASHDOT
 70
64
  3
__ . __ . __ . __ . __ . __ . __ . __ . __ . __ . __ . __ . _
 72
65
 73
4
 40
1.0
 49
0.5
 49
-0.25
 49
0.0
 49
-0.25
  0
LTYPE
  2
DIVIDE
 70
64
  3
____ . . ____ . . ____ . . ____ . . ____ . . ____ . . ____ . .
 72
65
 73
6
 40
1.25
 49
0.5
 49
-0.25
 49
0.0
 49
-0.25
 49
0.0
 49
-0.25
  0
LTYPE
  2
CENTER
 70
64
  3
____ _ ____ _ ____ _ ____ _ ____ _ ____ _ ____ _ ____ _ ____ _
 72
65
 73
4
 40
2.0
 49
1.25
 49
-0.25
 49
0.25
 49
-0.25
  0
ENDTAB
  0
TABLE
  2
APPID
 70
1
  0
APPID
  2
ACAD
 70
0
  0
ENDTAB
  0
TABLE
  2
DIMSTYLE
 70
0
  0
ENDTAB
  0
TABLE
  2
LAYER
 70
4
  0
LAYER
  2
0
 70
0
 62
7
  6
CONTINUOUS
  0
LAYER
  2
CONSTRUCTION_CLASS
 70
0
 62
7
  6
CONTINUOUS
  0
LAYER
  2
PATTERN_CLASS
 70
0
 62
7
  6
CONTINUOUS
  0
LAYER
  2
1
 70
0
 62
7
  6
CONTINUOUS
  0
ENDTAB
  0
TABLE
  2
STYLE
 70
1
  0
STYLE
  2
STANDARD
 70
0
 40
0.2
 41
1.0
 50
0.0
 71
0
 42
0.0
  3
txt
  4

  0
ENDTAB
  0
TABLE
  2
UCS
 70
0
  0
ENDTAB
  0
TABLE
  2
VIEW
 70
2
  0
VIEW
  2
AN_4
 70
0
 40
184.08589
 41
266.94694
 10
5.684342E-014
 20
4.263256E-014
 11
697.367456
 21
519.007202
 31
329.68983
 12
84.289249
 22
-71.590615
 32
36.906
 42
50.0
 43
464.8616
 44
-464.8616
 50
0.0
 71
0
  0
VIEW
  2
AN_5
 70
0
 40
188.27417
 41
272.91749
 10
0.0
 20
0.0
 11
135.559768
 21
77.131668
 31
99.909923
 12
24.854418
 22
-146.513275
 32
22.871679
 42
50.0
 43
92.61174
 44
-92.61174
 50
0.0
 71
0
  0
ENDTAB
  0
TABLE
  2
VPORT
 70
4
  0
VPORT
  2
*ACTIVE
 70
0
 10
0.001642
 20
0.50168
 11
0.499179
 21
0.99776
 12
0.0
 22
0.0
 13
0.0
 23
0.0
 14
0.0
 24
0.0
 15
0.0
 25
0.0
 16
0.0
 26
-6.330941E-014
 36
1033.95524
 17
-43.425764
 27
17.43191
 37
0.0
 40
280.16666
 41
1.367946
 42
50.0
 43
516.97762
 44
-516.97762
 50
0.0
 51
0.0
 71
22
 72
100
 73
1
 74
0
 75
0
 76
0
 77
0
 78
0
  0
VPORT
  2
*ACTIVE
 70
0
 10
0.500821
 20
0.50168
 11
0.998358
 21
0.99776
 12
0.0
 22
-1.421085E-014
 13
0.0
 23
0.0
 14
0.0
 24
0.0
 15
0.0
 25
0.0
 16
-560.444437
 26
-560.444437
 36
560.444437
 17
-27.548452
 27
64.667997
 37
0.000001
 40
189.28092
 41
1.367946
 42
50.0
 43
485.35912
 44
-485.35912
 50
0.0
 51
0.0
 71
22
 72
100
 73
1
 74
0
 75
0
 76
0
 77
0
 78
0
  0
VPORT
  2
*ACTIVE
 70
0
 10
0.001642
 20
0.003359
 11
0.499179
 21
0.49944
 12
0.0
 22
0.0
 13
0.0
 23
0.0
 14
0.0
 24
0.0
 15
0.0
 25
0.0
 16
0.0
 26
-1093.33332
 36
0.0
 17
-29.351781
 27
17.43192
 37
0.000005
 40
126.22143
 41
1.367946
 42
50.0
 43
546.66666
 44
-546.66666
 50
0.0
 51
0.0
 71
22
 72
100
 73
1
 74
0
 75
0
 76
0
 77
0
 78
0
  0
VPORT
  2
*ACTIVE
 70
0
 10
0.500821
 20
0.003359
 11
0.998358
 21
0.49944
 12
0.0
 22
0.0
 13
0.0
 23
0.0
 14
0.0
 24
0.0
 15
0.0
 25
0.0
 16
760.0
 26
0.0
 36
0.0
 17
-17.81238
 27
0.915564
 37
0.0
 40
180.66064
 41
1.367946
 42
50.0
 43
380.0
 44
-380.0
 50
0.0
 51
0.0
 71
22
 72
100
 73
1
 74
0
 75
0
 76
0
 77
0
 78
0
  0
ENDTAB
  0
ENDSEC
  0
SECTION
  2
BLOCKS
  0
BLOCK
  8
1
  5
6
 70
1
 10
0.0
 20
0.0
 30
0.0
  2
*M0
  3
*M0
  0
LINE
  8
1
  5
8
  6
CONTINUOUS
 62
7
 10
-20.0
 20
10.0
 30
16.0
 11
-20.0
 21
10.0
 31
-8.0
  0
LINE
  8
1
  5
A
  6
CONTINUOUS
 62
7
 10
-20.0
 20
14.09999
 30
16.0
 11
-20.0
 21
10.0
 31
16.0
  0
LINE
  8
1
  5
C
  6
CONTINUOUS
 62
7
 10
-20.0
 20
14.09999
 30
0.0
 11
-20.0
 21
14.09999
 31
16.0
  0
LINE
  8
1
  5
E
  6
CONTINUOUS
 62
7
 10
-20.0
 20
14.1
 30
0.0
 11
-20.0
 21
14.09999
 31
0.0
  0
LINE
  8
1
  5
10
  6
CONTINUOUS
 62
7
 10
-20.0
 20
14.1
 30
0.0
 11
-20.0
 21
14.1
 31
-8.0
  0
LINE
  8
1
  5
12
  6
CONTINUOUS
 62
7
 10
-20.0
 20
10.0
 30
-8.0
 11
-20.0
 21
14.1
 31
-8.0
  0
LINE
  8
1
  5
14
  6
CONTINUOUS
 62
7
 10
-70.0
 20
14.09999
 30
0.0
 11
-70.0
 21
14.09999
 31
16.0
  0
LINE
  8
1
  5
16
  6
CONTINUOUS
 62
7
 10
-70.0
 20
14.09999
 30
0.0
 11
-70.0
 21
14.1
 31
0.0
  0
ARC
  8
1
  5
18
  6
CONTINUOUS
 62
7
 210
0.0
 220
0.0
 230
-1.0
 10
24.1
 20
10.0
 30
8.0
 40
4.1
 50
90.0
 51
180.0
  0
LINE
  8
1
  5
1A
  6
CONTINUOUS
 62
7
 10
-70.0
 20
14.1
 30
-8.0
 11
-70.0
 21
10.0
 31
-8.0
  0
ARC
  8
1
  5
1C
  6
CONTINUOUS
 62
7
 210
0.0
 220
0.0
 230
-1.0
 10
65.9
 20
10.0
 30
8.0
 40
4.1
 50
360.0
 51
90.0
  0
LINE
  8
1
  5
1E
  6
CONTINUOUS
 62
7
 10
-65.9
 20
14.1
 30
-8.0
 11
-24.1
 21
14.1
 31
-8.0
  0
LINE
  8
1
  5
20
  6
CONTINUOUS
 62
7
 10
-70.0
 20
14.1
 30
0.0
 11
-70.0
 21
14.1
 31
-8.0
  0
ARC
  8
1
  5
22
  6
CONTINUOUS
 62
7
 10
-65.9
 20
10.0
 30
-16.0
 40
4.1
 50
90.0
 51
180.0
  0
LINE
  8
1
  5
24
  6
CONTINUOUS
 62
7
 10
-65.9
 20
14.1
 30
-8.0
 11
-65.9
 21
14.1
 31
-16.0
  0
LINE
  8
1
  5
26
  6
CONTINUOUS
 62
7
 10
-70.0
 20
10.0
 30
-16.0
 11
-70.0
 21
10.0
 31
-8.0
  0
LINE
  8
1
  5
28
  6
CONTINUOUS
 62
7
 10
-70.0
 20
10.0
 30
-8.0
 11
-70.0
 21
10.0
 31
16.0
  0
LINE
  8
1
  5
2A
  6
CONTINUOUS
 62
7
 10
-70.0
 20
10.0
 30
16.0
 11
-70.0
 21
14.09999
 31
16.0
  0
ARC
  8
1
  5
2C
  6
CONTINUOUS
 62
7
 10
-24.1
 20
10.0
 30
-16.0
 40
4.1
 50
360.0
 51
90.0
  0
LINE
  8
1
  5
2E
  6
CONTINUOUS
 62
7
 10
-20.0
 20
10.0
 30
-8.0
 11
-20.0
 21
10.0
 31
-16.0
  0
LINE
  8
1
  5
30
  6
CONTINUOUS
 62
7
 10
-24.1
 20
14.1
 30
-8.0
 11
-24.1
 21
14.1
 31
-16.0
  0
LINE
  8
1
  5
32
  6
CONTINUOUS
 62
7
 10
-24.1
 20
14.1
 30
-16.0
 11
-65.9
 21
14.1
 31
-16.0
  0
ENDBLK
  8
1
  5
33
  0
BLOCK
  8
1
  5
35
 70
1
 10
0.0
 20
0.0
 30
0.0
  2
*M1
  3
*M1
  0
LINE
  8
1
  5
37
  6
CONTINUOUS
 62
7
 10
-55.33417
 20
18.2
 30
0.0
 11
-34.66583
 21
18.2
 31
0.0
  0
ARC
  8
1
  5
39
  6
CONTINUOUS
 62
7
 10
-34.656776
 20
22.29999
 30
9.843254E-015
 40
4.1
 50
269.8734555556
 51
270.0
  0
LINE
  8
1
  5
3B
  6
CONTINUOUS
 62
7
 10
-34.65678
 20
18.19999
 30
0.0
 11
-24.1
 21
18.19999
 31
0.0
  0
ARC
  8
1
  5
3D
  6
CONTINUOUS
 62
7
 210
0.0
 220
0.0
 230
-1.0
 10
24.1
 20
14.09999
 30
-8.694771E-015
 40
4.1
 50
90.0
 51
179.9997916667
  0
ARC
  8
1
  5
3F
  6
CONTINUOUS
 62
7
 210
0.0
 220
0.0
 230
-1.0
 10
24.1
 20
14.1
 30
-8.694771E-015
 40
4.1
 50
179.9999305556
 51
180.0
  0
ARC
  8
1
  5
41
  6
CONTINUOUS
 62
7
 210
0.0
 220
0.0
 230
-1.0
 10
65.9
 20
14.1
 30
-1.125420E-014
 40
4.1
 50
360.0
 51
0.0000694444
  0
ARC
  8
1
  5
43
  6
CONTINUOUS
 62
7
 210
0.0
 220
0.0
 230
-1.0
 10
65.9
 20
14.09999
 30
-1.125420E-014
 40
4.1
 50
0.0002083333
 51
90.0
  0
LINE
  8
1
  5
45
  6
CONTINUOUS
 62
7
 10
-65.9
 20
18.19999
 30
0.0
 11
-55.34322
 21
18.19999
 31
0.0
  0
ARC
  8
1
  5
47
  6
CONTINUOUS
 62
7
 10
-55.343224
 20
22.29999
 30
1.110989E-014
 40
4.1
 50
270.0
 51
270.1265444444
  0
ARC
  8
1
  5
49
  6
CONTINUOUS
 62
7
 210
0.0
 220
0.0
 230
-1.0
 10
65.9
 20
14.1
 30
-1.125420E-014
 40
4.1
 50
0.0000694444
 51
90.0
  0
LINE
  8
1
  5
4B
  6
CONTINUOUS
 62
7
 10
-65.9
 20
18.2
 30
0.0
 11
-55.33417
 21
18.2
 31
0.0
  0
LINE
  8
1
  5
4D
  6
CONTINUOUS
 62
7
 10
-34.66583
 20
18.2
 30
0.0
 11
-24.1
 21
18.2
 31
0.0
  0
ARC
  8
1
  5
4F
  6
CONTINUOUS
 62
7
 210
0.0
 220
0.0
 230
-1.0
 10
24.1
 20
14.1
 30
-8.694771E-015
 40
4.1
 50
90.0
 51
179.9999305556
  0
ARC
  8
1
  5
51
  6
CONTINUOUS
 62
7
 10
-24.1
 20
14.1
 30
-8.0
 40
4.1
 50
360.0
 51
90.0
  0
LINE
  8
1
  5
53
  6
CONTINUOUS
 62
7
 10
-24.1
 20
18.2
 30
-8.0
 11
-65.9
 21
18.2
 31
-8.0
  0
ARC
  8
1
  5
55
  6
CONTINUOUS
 62
7
 10
-65.9
 20
14.1
 30
-8.0
 40
4.1
 50
90.0
 51
180.0
  0
LINE
  8
1
  5
57
  6
CONTINUOUS
 62
7
 10
-65.9
 20
18.2
 30
0.0
 11
-65.9
 21
18.2
 31
-8.0
  0
LINE
  8
1
  5
59
  6
CONTINUOUS
 62
7
 10
-24.1
 20
18.2
 30
0.0
 11
-24.1
 21
18.2
 31
-8.0
  0
ENDBLK
  8
1
  5
5A
  0
BLOCK
  8
1
  5
5C
 70
1
 10
0.0
 20
0.0
 30
0.0
  2
*M2
  3
*M2
  0
ARC
  8
1
  5
5E
  6
CONTINUOUS
 62
7
 210
0.0
 220
0.0
 230
-1.0
 10
34.656776
 20
22.29999
 30
-9.843254E-015
 40
4.1
 50
270.1265444444
 51
15.0
  0
LINE
  8
1
  5
60
  6
CONTINUOUS
 62
7
 10
-38.61707
 20
23.36115
 30
0.0
 11
-34.64847
 21
38.17217
 31
0.0
  0
ARC
  8
1
  5
62
  6
CONTINUOUS
 62
7
 10
-38.608768
 20
39.233323
 30
1.112207E-014
 40
4.1
 50
345.0000055556
 51
90.0
  0
LINE
  8
1
  5
64
  6
CONTINUOUS
 62
7
 10
-38.60877
 20
43.33332
 30
0.0
 11
-51.39123
 21
43.33332
 31
0.0
  0
ARC
  8
1
  5
66
  6
CONTINUOUS
 62
7
 10
-51.391232
 20
39.233323
 30
1.190474E-014
 40
4.1
 50
90.0
 51
194.9999944444
  0
LINE
  8
1
  5
68
  6
CONTINUOUS
 62
7
 10
-55.35153
 20
38.17217
 30
0.0
 11
-51.38293
 21
23.36115
 31
0.0
  0
ARC
  8
1
  5
6A
  6
CONTINUOUS
 62
7
 210
0.0
 220
0.0
 230
-1.0
 10
55.343224
 20
22.29999
 30
-1.110989E-014
 40
4.1
 50
164.9999972222
 51
269.8734527778
  0
LINE
  8
1
  5
6C
  6
CONTINUOUS
 62
7
 10
-51.38293
 20
23.36115
 30
16.0
 11
-55.35153
 21
38.17217
 31
16.0
  0
LINE
  8
1
  5
6E
  6
CONTINUOUS
 62
7
 10
-51.38293
 20
23.36115
 30
0.0
 11
-51.38293
 21
23.36115
 31
16.0
  0
LINE
  8
1
  5
70
  6
CONTINUOUS
 62
7
 10
-55.35153
 20
38.17217
 30
0.0
 11
-55.35153
 21
38.17217
 31
16.0
  0
ARC
  8
1
  5
72
  6
CONTINUOUS
 62
7
 210
0.0
 220
0.0
 230
-1.0
 10
51.391232
 20
39.233323
 30
-16.0
 40
4.1
 50
345.0000055556
 51
90.0
  0
LINE
  8
1
  5
74
  6
CONTINUOUS
 62
7
 10
-51.39123
 20
43.33332
 30
0.0
 11
-51.39123
 21
43.33332
 31
16.0
  0
LINE
  8
1
  5
76
  6
CONTINUOUS
 62
7
 10
-51.39123
 20
43.33332
 30
16.0
 11
-38.60877
 21
43.33332
 31
16.0
  0
LINE
  8
1
  5
78
  6
CONTINUOUS
 62
7
 10
-38.60877
 20
43.33332
 30
0.0
 11
-38.60877
 21
43.33332
 31
16.0
  0
ARC
  8
1
  5
7A
  6
CONTINUOUS
 62
7
 210
0.0
 220
0.0
 230
-1.0
 10
38.608768
 20
39.233323
 30
-16.0
 40
4.1
 50
90.0
 51
194.9999944444
  0
LINE
  8
1
  5
7C
  6
CONTINUOUS
 62
7
 10
-34.64847
 20
38.17217
 30
0.0
 11
-34.64847
 21
38.17217
 31
16.0
  0
LINE
  8
1
  5
7E
  6
CONTINUOUS
 62
7
 10
-34.64847
 20
38.17217
 30
16.0
 11
-38.61707
 21
23.36115
 31
16.0
  0
LINE
  8
1
  5
80
  6
CONTINUOUS
 62
7
 10
-38.61707
 20
23.36115
 30
0.0
 11
-38.61707
 21
23.36115
 31
16.0
  0
ARC
  8
1
  5
82
  6
CONTINUOUS
 62
7
 10
-34.656776
 20
22.29999
 30
16.0
 40
4.1
 50
164.9999972222
 51
270.0
  0
LINE
  8
1
  5
84
  6
CONTINUOUS
 62
7
 10
-34.65678
 20
18.19999
 30
0.0
 11
-34.65678
 21
18.19999
 31
16.0
  0
LINE
  8
1
  5
86
  6
CONTINUOUS
 62
7
 10
-34.65678
 20
18.19999
 30
16.0
 11
-24.1
 21
18.19999
 31
16.0
  0
LINE
  8
1
  5
88
  6
CONTINUOUS
 62
7
 10
-24.1
 20
18.19999
 30
0.0
 11
-24.1
 21
18.19999
 31
16.0
  0
ARC
  8
1
  5
8A
  6
CONTINUOUS
 62
7
 210
0.0
 220
0.0
 230
-1.0
 10
24.1
 20
14.09999
 30
-16.0
 40
4.1
 50
90.0
 51
180.0
  0
ARC
  8
1
  5
8C
  6
CONTINUOUS
 62
7
 210
0.0
 220
0.0
 230
-1.0
 10
65.9
 20
14.09999
 30
-16.0
 40
4.1
 50
360.0
 51
90.0
  0
LINE
  8
1
  5
8E
  6
CONTINUOUS
 62
7
 10
-65.9
 20
18.19999
 30
0.0
 11
-65.9
 21
18.19999
 31
16.0
  0
LINE
  8
1
  5
90
  6
CONTINUOUS
 62
7
 10
-65.9
 20
18.19999
 30
16.0
 11
-55.34322
 21
18.19999
 31
16.0
  0
LINE
  8
1
  5
92
  6
CONTINUOUS
 62
7
 10
-55.34322
 20
18.19999
 30
0.0
 11
-55.34322
 21
18.19999
 31
16.0
  0
ARC
  8
1
  5
94
  6
CONTINUOUS
 62
7
 10
-55.343224
 20
22.29999
 30
16.0
 40
4.1
 50
270.0
 51
15.0000027778
  0
ENDBLK
  8
1
  5
95
  0
BLOCK
  8
1
  5
97
 70
1
 10
0.0
 20
0.0
 30
0.0
  2
*M3
  3
*M3
  0
INSERT
  8
1
  5
99
  6
CONTINUOUS
 62
7
  2
*M0
 10
0.0
 20
0.0
 30
0.0
 41
1.0
 42
1.0
 43
1.0
 70
1
 71
1
  0
INSERT
  8
1
  5
9B
  6
CONTINUOUS
 62
7
  2
*M1
 10
0.0
 20
0.0
 30
0.0
 41
1.0
 42
1.0
 43
1.0
 70
1
 71
1
  0
INSERT
  8
1
  5
9D
  6
CONTINUOUS
 62
7
  2
*M2
 10
0.0
 20
0.0
 30
0.0
 41
1.0
 42
1.0
 43
1.0
 70
1
 71
1
  0
ENDBLK
  8
1
  5
9E
  0
BLOCK
  8
1
  5
A0
 70
1
 10
0.0
 20
0.0
 30
0.0
  2
*M4
  3
*M4
  0
LINE
  8
1
  5
A2
  6
CONTINUOUS
 62
7
 10
-70.0
 20
10.0
 30
24.0
 11
5.0
 21
10.0
 31
24.0
  0
LINE
  8
1
  5
A4
  6
CONTINUOUS
 62
7
 10
-70.0
 20
10.0
 30
-8.0
 11
-70.0
 21
10.0
 31
24.0
  0
LINE
  8
1
  5
A6
  6
CONTINUOUS
 62
7
 10
5.0
 20
10.0
 30
-8.0
 11
-70.0
 21
10.0
 31
-8.0
  0
LINE
  8
1
  5
A8
  6
CONTINUOUS
 62
7
 10
120.0
 20
10.0
 30
-8.0
 11
55.0
 21
10.0
 31
-8.0
  0
LINE
  8
1
  5
AA
  6
CONTINUOUS
 62
7
 10
120.0
 20
10.0
 30
-8.0
 11
120.0
 21
10.0
 31
24.0
  0
LINE
  8
1
  5
AC
  6
CONTINUOUS
 62
7
 10
55.0
 20
10.0
 30
24.0
 11
120.0
 21
10.0
 31
24.0
  0
LINE
  8
1
  5
AE
  6
CONTINUOUS
 62
7
 10
-70.0
 20
10.0
 30
-8.0
 11
-70.0
 21
60.0
 31
-8.0
  0
LINE
  8
1
  5
B0
  6
CONTINUOUS
 62
7
 10
-70.0
 20
60.0
 30
-8.0
 11
120.0
 21
60.0
 31
-8.0
  0
LINE
  8
1
  5
B2
  6
CONTINUOUS
 62
7
 10
120.0
 20
60.0
 30
-8.0
 11
120.0
 21
10.0
 31
-8.0
  0
LINE
  8
1
  5
B4
  6
CONTINUOUS
 62
7
 10
120.0
 20
10.0
 30
24.0
 11
120.0
 21
60.0
 31
24.0
  0
LINE
  8
1
  5
B6
  6
CONTINUOUS
 62
7
 10
120.0
 20
60.0
 30
24.0
 11
-70.0
 21
60.0
 31
24.0
  0
LINE
  8
1
  5
B8
  6
CONTINUOUS
 62
7
 10
-70.0
 20
60.0
 30
24.0
 11
-70.0
 21
10.0
 31
24.0
  0
LINE
  8
1
  5
BA
  6
CONTINUOUS
 62
7
 10
-70.0
 20
60.0
 30
-8.0
 11
-70.0
 21
60.0
 31
24.0
  0
LINE
  8
1
  5
BC
  6
CONTINUOUS
 62
7
 10
120.0
 20
60.0
 30
-8.0
 11
120.0
 21
60.0
 31
24.0
  0
ENDBLK
  8
1
  5
BD
  0
BLOCK
  8
1
  5
BF
 70
1
 10
0.0
 20
0.0
 30
0.0
  2
*M5
  3
*M5
  0
INSERT
  8
1
  5
C1
  6
CONTINUOUS
 62
7
  2
*M3
 10
0.0
 20
0.0
 30
0.0
 41
1.0
 42
1.0
 43
1.0
 70
1
 71
1
  0
INSERT
  8
1
  5
C3
  6
CONTINUOUS
 62
7
  2
*M4
 10
-75.0
 20
0.0
 30
-8.0
 41
1.0
 42
1.0
 43
1.0
 70
1
 71
1
  0
ENDBLK
  8
1
  5
C4
  0
BLOCK
  8
1
  5
C6
 70
1
 10
0.0
 20
0.0
 30
0.0
  2
*M6
  3
*M6
  0
LINE
  8
1
  5
C8
  6
CONTINUOUS
 62
7
 10
8.08762
 20
24.86526
 30
-8.0
 11
-33.71238
 21
24.86526
 31
-8.0
  0
ARC
  8
1
  5
CA
  6
CONTINUOUS
 62
7
 10
8.08762
 20
20.76526
 30
-8.0
 40
4.1
 50
360.0
 51
90.0
  0
LINE
  8
1
  5
CC
  6
CONTINUOUS
 62
7
 10
12.18762
 20
20.76526
 30
-16.0
 11
12.18762
 21
20.76526
 31
-8.0
  0
ARC
  8
1
  5
CE
  6
CONTINUOUS
 62
7
 10
-33.71238
 20
20.76526
 30
-8.0
 40
4.1
 50
90.0
 51
180.0
  0
LINE
  8
1
  5
D0
  6
CONTINUOUS
 62
7
 10
-37.81238
 20
20.76526
 30
-16.0
 11
-37.81238
 21
20.76526
 31
-8.0
  0
LINE
  8
1
  5
D2
  6
CONTINUOUS
 62
7
 10
12.18762
 20
-119.23475
 30
-16.0
 11
12.18762
 21
20.76526
 31
-16.0
  0
LINE
  8
1
  5
D4
  6
CONTINUOUS
 62
7
 10
-37.81238
 20
-119.23475
 30
-16.0
 11
12.18762
 21
-119.23475
 31
-16.0
  0
LINE
  8
1
  5
D6
  6
CONTINUOUS
 62
7
 10
-37.81238
 20
20.76526
 30
-16.0
 11
-37.81238
 21
-119.23475
 31
-16.0
  0
LINE
  8
1
  5
D8
  6
CONTINUOUS
 62
7
 10
-23.14655
 20
28.96526
 30
0.0
 11
-2.47821
 21
28.96526
 31
0.0
  0
LINE
  8
1
  5
DA
  6
CONTINUOUS
 62
7
 10
12.18762
 20
24.86526
 30
0.0
 11
12.18762
 21
24.86525
 31
0.0
  0
ARC
  8
1
  5
DC
  6
CONTINUOUS
 62
7
 210
0.0
 220
0.0
 230
-1.0
 10
-8.08762
 20
24.86526
 30
-2.328306E-015
 40
4.1
 50
179.9999305556
 51
180.0
  0
ARC
  8
1
  5
DE
  6
CONTINUOUS
 62
7
 210
0.0
 220
0.0
 230
-1.0
 10
-8.08762
 20
24.86525
 30
-2.328306E-015
 40
4.1
 50
90.0
 51
179.9997916667
  0
LINE
  8
1
  5
E0
  6
CONTINUOUS
 62
7
 10
12.18762
 20
24.86525
 30
16.0
 11
12.18762
 21
24.86525
 31
0.0
  0
LINE
  8
1
  5
E2
  6
CONTINUOUS
 62
7
 10
-2.46916
 20
28.96525
 30
0.0
 11
8.08762
 21
28.96525
 31
0.0
  0
ARC
  8
1
  5
E4
  6
CONTINUOUS
 62
7
 10
-2.469156
 20
33.06525
 30
2.328306E-015
 40
4.1
 50
269.8735111111
 51
270.0
  0
ARC
  8
1
  5
E6
  6
CONTINUOUS
 62
7
 10
-23.155604
 20
33.06525
 30
2.328306E-015
 40
4.1
 50
270.0
 51
270.1264888889
  0
LINE
  8
1
  5
E8
  6
CONTINUOUS
 62
7
 10
-33.71238
 20
28.96525
 30
0.0
 11
-23.1556
 21
28.96525
 31
0.0
  0
ARC
  8
1
  5
EA
  6
CONTINUOUS
 62
7
 210
0.0
 220
0.0
 230
-1.0
 10
33.71238
 20
24.86525
 30
-2.328306E-015
 40
4.1
 50
0.0002083333
 51
90.0
  0
ARC
  8
1
  5
EC
  6
CONTINUOUS
 62
7
 210
0.0
 220
0.0
 230
-1.0
 10
33.71238
 20
24.86526
 30
-2.328306E-015
 40
4.1
 50
360.0
 51
0.0000694444
  0
LINE
  8
1
  5
EE
  6
CONTINUOUS
 62
7
 10
-37.81238
 20
24.86525
 30
0.0
 11
-37.81238
 21
24.86526
 31
0.0
  0
LINE
  8
1
  5
F0
  6
CONTINUOUS
 62
7
 10
-37.81238
 20
24.86525
 30
16.0
 11
-37.81238
 21
24.86525
 31
0.0
  0
LINE
  8
1
  5
F2
  6
CONTINUOUS
 62
7
 10
12.18762
 20
24.86525
 30
16.0
 11
12.18762
 21
-119.23475
 31
16.0
  0
LINE
  8
1
  5
F4
  6
CONTINUOUS
 62
7
 10
-37.81238
 20
-119.23475
 30
16.0
 11
-37.81238
 21
24.86525
 31
16.0
  0
LINE
  8
1
  5
F6
  6
CONTINUOUS
 62
7
 10
12.18762
 20
-119.23475
 30
16.0
 11
-37.81238
 21
-119.23475
 31
16.0
  0
LINE
  8
1
  5
F8
  6
CONTINUOUS
 62
7
 10
-33.71238
 20
28.96526
 30
0.0
 11
-23.14655
 21
28.96526
 31
0.0
  0
ARC
  8
1
  5
FA
  6
CONTINUOUS
 62
7
 210
0.0
 220
0.0
 230
-1.0
 10
33.71238
 20
24.86526
 30
-2.328306E-015
 40
4.1
 50
0.0000694444
 51
90.0
  0
ARC
  8
1
  5
FC
  6
CONTINUOUS
 62
7
 210
0.0
 220
0.0
 230
-1.0
 10
-8.08762
 20
24.86526
 30
-2.328306E-015
 40
4.1
 50
90.0
 51
179.9999305556
  0
LINE
  8
1
  5
FE
  6
CONTINUOUS
 62
7
 10
-2.47821
 20
28.96526
 30
0.0
 11
8.08762
 21
28.96526
 31
0.0
  0
LINE
  8
1
  5
100
  6
CONTINUOUS
 62
7
 10
12.18762
 20
24.86526
 30
-8.0
 11
12.18762
 21
24.86526
 31
0.0
  0
ARC
  8
1
  5
102
  6
CONTINUOUS
 62
7
 10
8.08762
 20
24.86526
 30
-8.0
 40
4.1
 50
360.0
 51
90.0
  0
LINE
  8
1
  5
104
  6
CONTINUOUS
 62
7
 10
8.08762
 20
28.96526
 30
-8.0
 11
8.08762
 21
28.96526
 31
0.0
  0
LINE
  8
1
  5
106
  6
CONTINUOUS
 62
7
 10
12.18762
 20
-119.23475
 30
-16.0
 11
12.18762
 21
-119.23475
 31
16.0
  0
LINE
  8
1
  5
108
  6
CONTINUOUS
 62
7
 10
12.18762
 20
20.76526
 30
-8.0
 11
12.18762
 21
24.86526
 31
-8.0
  0
LINE
  8
1
  5
10A
  6
CONTINUOUS
 62
7
 10
-37.81238
 20
-119.23475
 30
-16.0
 11
-37.81238
 21
-119.23475
 31
16.0
  0
LINE
  8
1
  5
10C
  6
CONTINUOUS
 62
7
 10
-37.81238
 20
24.86526
 30
-8.0
 11
-37.81238
 21
24.86526
 31
0.0
  0
LINE
  8
1
  5
10E
  6
CONTINUOUS
 62
7
 10
-37.81238
 20
24.86526
 30
-8.0
 11
-37.81238
 21
20.76526
 31
-8.0
  0
LINE
  8
1
  5
110
  6
CONTINUOUS
 62
7
 10
-33.71238
 20
28.96526
 30
-8.0
 11
-33.71238
 21
28.96526
 31
0.0
  0
ARC
  8
1
  5
112
  6
CONTINUOUS
 62
7
 10
-33.71238
 20
24.86526
 30
-8.0
 40
4.1
 50
90.0
 51
180.0
  0
LINE
  8
1
  5
114
  6
CONTINUOUS
 62
7
 10
8.08762
 20
28.96526
 30
-8.0
 11
-33.71238
 21
28.96526
 31
-8.0
  0
ENDBLK
  8
1
  5
115
  0
BLOCK
  8
1
  5
117
 70
1
 10
0.0
 20
0.0
 30
0.0
  2
*M7
  3
*M7
  0
ARC
  8
1
  5
119
  6
CONTINUOUS
 62
7
 210
0.0
 220
0.0
 230
-1.0
 10
23.155604
 20
33.06525
 30
3.492460E-015
 40
4.1
 50
164.9999972222
 51
269.8735111111
  0
LINE
  8
1
  5
11B
  6
CONTINUOUS
 62
7
 10
-23.16391
 20
48.93743
 30
0.0
 11
-19.19531
 21
34.12641
 31
0.0
  0
ARC
  8
1
  5
11D
  6
CONTINUOUS
 62
7
 10
-19.203612
 20
49.998583
 30
-3.492460E-015
 40
4.1
 50
90.0
 51
194.9999944444
  0
LINE
  8
1
  5
11F
  6
CONTINUOUS
 62
7
 10
-6.42115
 20
54.09858
 30
0.0
 11
-19.20361
 21
54.09858
 31
0.0
  0
ARC
  8
1
  5
121
  6
CONTINUOUS
 62
7
 10
-6.421148
 20
49.998583
 30
-3.492460E-015
 40
4.1
 50
345.0000055556
 51
90.0
  0
LINE
  8
1
  5
123
  6
CONTINUOUS
 62
7
 10
-6.42945
 20
34.12641
 30
0.0
 11
-2.46085
 21
48.93743
 31
0.0
  0
ARC
  8
1
  5
125
  6
CONTINUOUS
 62
7
 210
0.0
 220
0.0
 230
-1.0
 10
2.469156
 20
33.06525
 30
3.492460E-015
 40
4.1
 50
270.1264888889
 51
15.0000027778
  0
LINE
  8
1
  5
127
  6
CONTINUOUS
 62
7
 10
8.08762
 20
28.96525
 30
16.0
 11
8.08762
 21
28.96525
 31
0.0
  0
ARC
  8
1
  5
129
  6
CONTINUOUS
 62
7
 210
0.0
 220
0.0
 230
-1.0
 10
-8.08762
 20
24.86525
 30
-16.0
 40
4.1
 50
90.0
 51
180.0
  0
LINE
  8
1
  5
12B
  6
CONTINUOUS
 62
7
 10
-2.46916
 20
28.96525
 30
16.0
 11
-2.46916
 21
28.96525
 31
0.0
  0
LINE
  8
1
  5
12D
  6
CONTINUOUS
 62
7
 10
-2.46916
 20
28.96525
 30
16.0
 11
8.08762
 21
28.96525
 31
16.0
  0
LINE
  8
1
  5
12F
  6
CONTINUOUS
 62
7
 10
-6.42945
 20
34.12641
 30
16.0
 11
-6.42945
 21
34.12641
 31
0.0
  0
ARC
  8
1
  5
131
  6
CONTINUOUS
 62
7
 10
-2.469156
 20
33.06525
 30
16.0
 40
4.1
 50
164.9999972222
 51
270.0
  0
LINE
  8
1
  5
133
  6
CONTINUOUS
 62
7
 10
-2.46085
 20
48.93743
 30
16.0
 11
-2.46085
 21
48.93743
 31
0.0
  0
LINE
  8
1
  5
135
  6
CONTINUOUS
 62
7
 10
-2.46085
 20
48.93743
 30
16.0
 11
-6.42945
 21
34.12641
 31
16.0
  0
LINE
  8
1
  5
137
  6
CONTINUOUS
 62
7
 10
-6.42115
 20
54.09858
 30
16.0
 11
-6.42115
 21
54.09858
 31
0.0
  0
ARC
  8
1
  5
139
  6
CONTINUOUS
 62
7
 210
0.0
 220
0.0
 230
-1.0
 10
6.421148
 20
49.998583
 30
-16.0
 40
4.1
 50
90.0
 51
194.9999944444
  0
LINE
  8
1
  5
13B
  6
CONTINUOUS
 62
7
 10
-19.20361
 20
54.09858
 30
16.0
 11
-19.20361
 21
54.09858
 31
0.0
  0
LINE
  8
1
  5
13D
  6
CONTINUOUS
 62
7
 10
-19.20361
 20
54.09858
 30
16.0
 11
-6.42115
 21
54.09858
 31
16.0
  0
LINE
  8
1
  5
13F
  6
CONTINUOUS
 62
7
 10
-23.16391
 20
48.93743
 30
16.0
 11
-23.16391
 21
48.93743
 31
0.0
  0
ARC
  8
1
  5
141
  6
CONTINUOUS
 62
7
 210
0.0
 220
0.0
 230
-1.0
 10
19.203612
 20
49.998583
 30
-16.0
 40
4.1
 50
345.0000055556
 51
90.0
  0
LINE
  8
1
  5
143
  6
CONTINUOUS
 62
7
 10
-19.19531
 20
34.12641
 30
16.0
 11
-19.19531
 21
34.12641
 31
0.0
  0
LINE
  8
1
  5
145
  6
CONTINUOUS
 62
7
 10
-19.19531
 20
34.12641
 30
16.0
 11
-23.16391
 21
48.93743
 31
16.0
  0
LINE
  8
1
  5
147
  6
CONTINUOUS
 62
7
 10
-23.1556
 20
28.96525
 30
16.0
 11
-23.1556
 21
28.96525
 31
0.0
  0
ARC
  8
1
  5
149
  6
CONTINUOUS
 62
7
 10
-23.155604
 20
33.06525
 30
16.0
 40
4.1
 50
270.0
 51
15.0000027778
  0
LINE
  8
1
  5
14B
  6
CONTINUOUS
 62
7
 10
-33.71238
 20
28.96525
 30
16.0
 11
-33.71238
 21
28.96525
 31
0.0
  0
LINE
  8
1
  5
14D
  6
CONTINUOUS
 62
7
 10
-33.71238
 20
28.96525
 30
16.0
 11
-23.1556
 21
28.96525
 31
16.0
  0
ARC
  8
1
  5
14F
  6
CONTINUOUS
 62
7
 210
0.0
 220
0.0
 230
-1.0
 10
33.71238
 20
24.86525
 30
-16.0
 40
4.1
 50
360.0
 51
90.0
  0
ENDBLK
  8
1
  5
150
  0
BLOCK
  8
1
  5
152
 70
1
 10
0.0
 20
0.0
 30
0.0
  2
*M8
  3
*M8
  0
LINE
  8
1
  5
154
  6
CONTINUOUS
 62
7
 10
8.08762
 20
24.86526
 30
-16.0
 11
8.08762
 21
24.86526
 31
-8.0
  0
LINE
  8
1
  5
156
  6
CONTINUOUS
 62
7
 10
8.08762
 20
24.86526
 30
-16.0
 11
-33.71238
 21
24.86526
 31
-16.0
  0
LINE
  8
1
  5
158
  6
CONTINUOUS
 62
7
 10
-33.71238
 20
24.86526
 30
-16.0
 11
-33.71238
 21
24.86526
 31
-8.0
  0
ARC
  8
1
  5
15A
  6
CONTINUOUS
 62
7
 10
8.08762
 20
20.76526
 30
-16.0
 40
4.1
 50
360.0
 51
90.0
  0
ARC
  8
1
  5
15C
  6
CONTINUOUS
 62
7
 10
-33.71238
 20
20.76526
 30
-16.0
 40
4.1
 50
90.0
 51
180.0
  0
ENDBLK
  8
1
  5
15D
  0
BLOCK
  8
1
  5
15F
 70
1
 10
0.0
 20
0.0
 30
0.0
  2
*M9
  3
*M9
  0
INSERT
  8
1
  5
161
  6
CONTINUOUS
 62
7
  2
*M6
 10
0.0
 20
0.0
 30
0.0
 41
1.0
 42
1.0
 43
1.0
 70
1
 71
1
  0
INSERT
  8
1
  5
163
  6
CONTINUOUS
 62
7
  2
*M7
 10
0.0
 20
0.0
 30
0.0
 41
1.0
 42
1.0
 43
1.0
 70
1
 71
1
  0
INSERT
  8
1
  5
165
  6
CONTINUOUS
 62
7
  2
*M8
 10
0.0
 20
0.0
 30
0.0
 41
1.0
 42
1.0
 43
1.0
 70
1
 71
1
  0
ENDBLK
  8
1
  5
166
  0
ENDSEC
  0
SECTION
  2
ENTITIES
  0
INSERT
  8
1
  5
2
  6
CONTINUOUS
 62
7
  2
*M5
 10
32.18762
 20
94.09858
 30
0.0
 41
1.0
 42
1.0
 43
1.0
 70
1
 71
1
  0
INSERT
  8
1
  5
4
  6
CONTINUOUS
 62
7
  2
*M9
 10
0.0
 20
0.0
 30
0.0
 41
1.0
 42
1.0
 43
1.0
 70
1
 71
1
  0
ENDSEC
  0
EOF
