  0
SECTION
  2
HEADER
  9
$ACADVER
  1
AC1009
  9
$INSBASE
 10
0.0
 20
0.0
 30
0.0
  9
$EXTMAX
 10
421.48846
 20
0.55706
 30
32.0
  9
$EXTMIN
 10
-8.50662
 20
-79.44294
 30
0.0
  9
$LIMMAX
 10
12.0
 20
9.0
  9
$LIMMIN
 10
0.0
 20
0.0
  9
$ORTHOMODE
 70
0
  9
$REGENMODE
 70
1
  9
$FILLMODE
 70
1
  9
$QTEXTMODE
 70
0
  9
$MIRRTEXT
 70
1
  9
$DRAGMODE
 70
2
  9
$LTSCALE
 40
1.0
  9
$OSMODE
 70
0
  9
$ATTMODE
 70
1
  9
$TEXTSIZE
 40
0.2
  9
$TRACEWID
 40
0.05
  9
$TEXTSTYLE
  7
STANDARD
  9
$CLAYER
  8
0
  9
$CELTYPE
  6
CONTINUOUS
  9
$CECOLOR
 62
256
  9
$DIMSCALE
 40
1.0
  9
$DIMASZ
 40
0.18
  9
$DIMEXO
 40
0.0625
  9
$DIMDLI
 40
0.38
  9
$DIMRND
 40
0.0
  9
$DIMDLE
 40
0.0
  9
$DIMEXE
 40
0.18
  9
$DIMTP
 40
0.0
  9
$DIMTM
 40
0.0
  9
$DIMTXT
 40
0.18
  9
$DIMCEN
 40
0.09
  9
$DIMTSZ
 40
0.0
  9
$DIMTOL
 70
0
  9
$DIMLIM
 70
0
  9
$DIMTIH
 70
1
  9
$DIMTOH
 70
1
  9
$DIMSE1
 70
0
  9
$DIMSE2
 70
0
  9
$DIMTAD
 70
0
  9
$DIMZIN
 70
0
  9
$DIMBLK
  1

  9
$DIMASO
 70
1
  9
$DIMSHO
 70
1
  9
$DIMPOST
  1

  9
$DIMAPOST
  1

  9
$DIMALT
 70
0
  9
$DIMALTD
 70
2
  9
$DIMALTF
 40
25.4
  9
$DIMLFAC
 40
1.0
  9
$DIMTOFL
 70
0
  9
$DIMTVP
 40
0.0
  9
$DIMTIX
 70
0
  9
$DIMSOXD
 70
0
  9
$DIMSAH
 70
0
  9
$DIMBLK1
  1

  9
$DIMBLK2
  1

  9
$DIMSTYLE
  2
*UNNAMED
  9
$DIMCLRD
 70
0
  9
$DIMCLRE
 70
0
  9
$DIMCLRT
 70
0
  9
$DIMTFAC
 40
1.0
  9
$DIMGAP
 40
0.09
  9
$LUNITS
 70
2
  9
$LUPREC
 70
4
  9
$AXISMODE
 70
0
  9
$AXISUNIT
 10
0.0
 20
0.0
  9
$SKETCHINC
 40
0.1
  9
$FILLETRAD
 40
0.0
  9
$AUNITS
 70
0
  9
$AUPREC
 70
0
  9
$MENU
  1
acad
  9
$ELEVATION
 40
0.0
  9
$PELEVATION
 40
0.0
  9
$THICKNESS
 40
0.0
  9
$LIMCHECK
 70
0
  9
$BLIPMODE
 70
1
  9
$CHAMFERA
 40
0.0
  9
$CHAMFERB
 40
0.0
  9
$SKPOLY
 70
0
  9
$TDCREATE
 40
0.0
  9
$TDUPDATE
 40
0.0
  9
$TDINDWG
 40
0.0
  9
$TDUSRTIMER
 40
0.0
  9
$USRTIMER
 70
1
  9
$ANGBASE
 50
0.0
  9
$ANGDIR
 70
0
  9
$PDMODE
 70
0
  9
$PDSIZE
 40
0.0
  9
$PLINEWID
 40
0.0
  9
$COORDS
 70
0
  9
$SPLFRAME
 70
0
  9
$SPLINETYPE
 70
6
  9
$SPLINESEGS
 70
10
  9
$ATTDIA
 70
0
  9
$ATTREQ
 70
1
  9
$HANDLING
 70
1
  9
$HANDSEED
  5
188
  9
$SURFTAB1
 70
6
  9
$SURFTAB2
 70
6
  9
$SURFTYPE
 70
6
  9
$SURFU
 70
10
  9
$SURFV
 70
10
  9
$UCSNAME
  2

  9
$UCSORG
 10
0.0
 20
0.0
 30
0.0
  9
$UCSXDIR
 10
1.0
 20
0.0
 30
0.0
  9
$UCSYDIR
 10
0.0
 20
1.0
 30
0.0
  9
$PUCSNAME
  2
 
  9
$PUCSORG
 10
0.0
 20
0.0
 30
0.0
  9
$PUCSXDIR
 10
1.0
 20
0.0
 30
0.0
  9
$PUCSYDIR
 10
0.0
 20
1.0
 30
0.0
  9
$USERI1
 70
0
  9
$USERI2
 70
0
  9
$USERI3
 70
0
  9
$USERI4
 70
0
  9
$USERI5
 70
0
  9
$USERR1
 40
0.0
  9
$USERR2
 40
0.0
  9
$USERR3
 40
0.0
  9
$USERR4
 40
0.0
  9
$USERR5
 40
0.0
  9
$WORLDVIEW
 70
1
  9
$SHADEDGE
 70
3
  9
$SHADEDIF
 70
70
  9
$TILEMODE
 70
1
  9
$MAXACTVP
 70
16
  9
$PINSBASE
 10
0.0
 20
0.0
 30
0.0
  9
$PLIMCHECK
 70
0
  9
$PEXTMIN
 10
-1.000000E+020
 20
-1.000000E+020
 30
-1.000000E+020
  9
$PEXTMAX
 10
-1.000000E+020
 20
-1.000000E+020
 30
-1.000000E+020
  9
$PLIMMIN
 10
0.0
 20
0.0
  9
$PLIMMAX
 10
12.0
 20
9.0
  9
$UNITMODE
 70
0
  9
$VISRETAIN
 70
0
  0
ENDSEC
  0
SECTION
  2
TABLES
  0
TABLE
  2
LTYPE
 70
7
  0
LTYPE
  2
CONTINUOUS
 70
64
  3
Solid line
 72
65
 73
0
 40
0.0
  0
LTYPE
  2
DOT
 70
64
  3
. . . . . . . . . . . . . . . . . . . . . . . . . . . . . . . . .
 72
65
 73
2
 40
0.25
 49
0.0
 49
-0.25
  0
LTYPE
  2
HIDDEN
 70
64
  3
__ __ __ __ __ __ __ __ __ __ __ __ __ __ __ __ __ __ __ __ __ 
 72
65
 73
2
 40
0.375
 49
0.25
 49
-0.125
  0
LTYPE
  2
DASHED
 70
64
  3
__ __ __ __ __ __ __ __ __ __ __ __ __ __ __ __ __ __ __ __ __
 72
65
 73
2
 40
0.75
 49
0.5
 49
-0.25
  0
LTYPE
  2
DASHDOT
 70
64
  3
__ . __ . __ . __ . __ . __ . __ . __ . __ . __ . __ . __ . _
 72
65
 73
4
 40
1.0
 49
0.5
 49
-0.25
 49
0.0
 49
-0.25
  0
LTYPE
  2
DIVIDE
 70
64
  3
____ . . ____ . . ____ . . ____ . . ____ . . ____ . . ____ . .
 72
65
 73
6
 40
1.25
 49
0.5
 49
-0.25
 49
0.0
 49
-0.25
 49
0.0
 49
-0.25
  0
LTYPE
  2
CENTER
 70
64
  3
____ _ ____ _ ____ _ ____ _ ____ _ ____ _ ____ _ ____ _ ____ _
 72
65
 73
4
 40
2.0
 49
1.25
 49
-0.25
 49
0.25
 49
-0.25
  0
ENDTAB
  0
TABLE
  2
APPID
 70
1
  0
APPID
  2
ACAD
 70
0
  0
ENDTAB
  0
TABLE
  2
DIMSTYLE
 70
0
  0
ENDTAB
  0
TABLE
  2
LAYER
 70
4
  0
LAYER
  2
0
 70
0
 62
7
  6
CONTINUOUS
  0
LAYER
  2
CONSTRUCTION_CLASS
 70
0
 62
7
  6
CONTINUOUS
  0
LAYER
  2
PATTERN_CLASS
 70
0
 62
7
  6
CONTINUOUS
  0
LAYER
  2
1
 70
0
 62
7
  6
CONTINUOUS
  0
ENDTAB
  0
TABLE
  2
STYLE
 70
1
  0
STYLE
  2
STANDARD
 70
0
 40
0.2
 41
1.0
 50
0.0
 71
0
 42
0.0
  3
txt
  4

  0
ENDTAB
  0
TABLE
  2
UCS
 70
0
  0
ENDTAB
  0
TABLE
  2
VIEW
 70
1
  0
VIEW
  2
AN_4
 70
0
 40
184.08589
 41
266.94694
 10
5.684342E-014
 20
4.263256E-014
 11
697.367456
 21
519.007202
 31
329.68983
 12
84.289249
 22
-71.590615
 32
36.906
 42
50.0
 43
464.8616
 44
-464.8616
 50
0.0
 71
0
  0
ENDTAB
  0
TABLE
  2
VPORT
 70
4
  0
VPORT
  2
*ACTIVE
 70
0
 10
0.500821
 20
0.50171
 11
0.998358
 21
0.997719
 12
0.0
 22
0.0
 13
0.0
 23
0.0
 14
0.0
 24
0.0
 15
0.0
 25
0.0
 16
0.0
 26
-2.747524E-015
 36
44.87196
 17
188.316087
 27
-39.442935
 37
16.0
 40
290.28375
 41
1.393103
 42
50.0
 43
22.43598
 44
-22.43598
 50
0.0
 51
0.0
 71
22
 72
100
 73
1
 74
0
 75
0
 76
0
 77
0
 78
0
  0
VPORT
  2
*ACTIVE
 70
0
 10
0.001642
 20
0.50171
 11
0.499179
 21
0.997719
 12
-2.842171E-014
 22
1.421085E-014
 13
0.0
 23
0.0
 14
0.0
 24
0.0
 15
0.0
 25
0.0
 16
291.139215
 26
216.6768
 36
137.639974
 17
214.588936
 27
-50.323893
 37
16.000003
 40
216.63533
 41
1.393103
 42
50.0
 43
194.07192
 44
-194.07192
 50
0.0
 51
0.0
 71
22
 72
100
 73
1
 74
0
 75
0
 76
0
 77
0
 78
0
  0
VPORT
  2
*ACTIVE
 70
0
 10
0.001642
 20
0.003421
 11
0.499179
 21
0.49943
 12
0.0
 22
0.0
 13
0.0
 23
0.0
 14
0.0
 24
0.0
 15
0.0
 25
0.0
 16
0.0
 26
-92.87196
 36
0.0
 17
188.316087
 27
-39.44294
 37
16.000005
 40
290.28375
 41
1.393103
 42
50.0
 43
46.43598
 44
-46.43598
 50
0.0
 51
0.0
 71
22
 72
100
 73
1
 74
0
 75
0
 76
0
 77
0
 78
0
  0
VPORT
  2
*ACTIVE
 70
0
 10
0.500821
 20
0.003421
 11
0.998358
 21
0.49943
 12
0.0
 22
0.0
 13
0.0
 23
0.0
 14
0.0
 24
0.0
 15
0.0
 25
0.0
 16
440.74496
 26
0.0
 36
0.0
 17
206.49092
 27
-43.112081
 37
15.999995
 40
58.60251
 41
1.393103
 42
50.0
 43
220.37248
 44
-220.37248
 50
0.0
 51
0.0
 71
22
 72
100
 73
1
 74
0
 75
0
 76
0
 77
0
 78
0
  0
ENDTAB
  0
ENDSEC
  0
SECTION
  2
BLOCKS
  0
BLOCK
  8
1
  5
6
 70
1
 10
0.0
 20
0.0
 30
0.0
  2
*M0
  3
*M0
  0
LINE
  8
1
  5
8
  6
CONTINUOUS
 62
7
 10
-80.00492
 20
95.34322
 30
16.0
 11
-80.00492
 21
100.0
 31
16.0
  0
LINE
  8
1
  5
A
  6
CONTINUOUS
 62
7
 10
-80.00492
 20
100.0
 30
32.0
 11
-80.00492
 21
100.0
 31
16.0
  0
ARC
  8
1
  5
C
  6
CONTINUOUS
 62
7
 10
-84.10492
 20
95.343224
 30
16.0
 40
4.1
 50
255.0000055556
 51
5.0888874903E-014
  0
LINE
  8
1
  5
E
  6
CONTINUOUS
 62
7
 10
-99.84376
 20
95.3158
 30
16.0
 11
-85.16608
 21
91.38293
 31
16.0
  0
ARC
  8
1
  5
10
  6
CONTINUOUS
 62
7
 210
0.0
 220
0.0
 230
-1.0
 10
100.90492
 20
91.355507
 30
-16.0
 40
4.1
 50
0.0
 51
105.0
  0
LINE
  8
1
  5
12
  6
CONTINUOUS
 62
7
 10
-105.00492
 20
78.64449
 30
16.0
 11
-105.00492
 21
91.35551
 31
16.0
  0
ARC
  8
1
  5
14
  6
CONTINUOUS
 62
7
 210
0.0
 220
0.0
 230
-1.0
 10
100.90492
 20
78.644494
 30
-16.0
 40
4.1
 50
255.0000055556
 51
5.0888874903E-014
  0
LINE
  8
1
  5
16
  6
CONTINUOUS
 62
7
 10
-85.16608
 20
78.61707
 30
16.0
 11
-99.84376
 21
74.6842
 31
16.0
  0
ARC
  8
1
  5
18
  6
CONTINUOUS
 62
7
 10
-84.10492
 20
74.656776
 30
16.0
 40
4.1
 50
360.0
 51
104.9999972222
  0
LINE
  8
1
  5
1A
  6
CONTINUOUS
 62
7
 10
-80.00492
 20
45.34322
 30
16.0
 11
-80.00492
 21
74.65678
 31
16.0
  0
ARC
  8
1
  5
1C
  6
CONTINUOUS
 62
7
 10
-84.10492
 20
45.343224
 30
16.0
 40
4.1
 50
255.0000055556
 51
5.0888874903E-014
  0
LINE
  8
1
  5
1E
  6
CONTINUOUS
 62
7
 10
-99.84376
 20
45.3158
 30
16.0
 11
-85.16608
 21
41.38293
 31
16.0
  0
ARC
  8
1
  5
20
  6
CONTINUOUS
 62
7
 210
0.0
 220
0.0
 230
-1.0
 10
100.90492
 20
41.355507
 30
-16.0
 40
4.1
 50
0.0
 51
104.9999972222
  0
LINE
  8
1
  5
22
  6
CONTINUOUS
 62
7
 10
-105.00492
 20
28.64449
 30
16.0
 11
-105.00492
 21
41.35551
 31
16.0
  0
ARC
  8
1
  5
24
  6
CONTINUOUS
 62
7
 210
0.0
 220
0.0
 230
-1.0
 10
100.90492
 20
28.644494
 30
-16.0
 40
4.1
 50
255.0000027778
 51
5.0888874903E-014
  0
LINE
  8
1
  5
26
  6
CONTINUOUS
 62
7
 10
-85.16608
 20
28.61707
 30
16.0
 11
-99.84376
 21
24.6842
 31
16.0
  0
ARC
  8
1
  5
28
  6
CONTINUOUS
 62
7
 10
-84.10492
 20
24.656776
 30
16.0
 40
4.1
 50
360.0
 51
104.9999944444
  0
LINE
  8
1
  5
2A
  6
CONTINUOUS
 62
7
 10
-80.00492
 20
20.0
 30
16.0
 11
-80.00492
 21
24.65678
 31
16.0
  0
LINE
  8
1
  5
2C
  6
CONTINUOUS
 62
7
 10
-80.00492
 20
20.0
 30
32.0
 11
-80.00492
 21
20.0
 31
16.0
  0
LINE
  8
1
  5
2E
  6
CONTINUOUS
 62
7
 10
79.99508
 20
20.0
 30
32.0
 11
-80.00492
 21
20.0
 31
32.0
  0
LINE
  8
1
  5
30
  6
CONTINUOUS
 62
7
 10
79.99508
 20
100.0
 30
32.0
 11
79.99508
 21
20.0
 31
32.0
  0
LINE
  8
1
  5
32
  6
CONTINUOUS
 62
7
 10
-80.00492
 20
100.0
 30
32.0
 11
79.99508
 21
100.0
 31
32.0
  0
LINE
  8
1
  5
34
  6
CONTINUOUS
 62
7
 10
-110.00492
 20
100.0
 30
16.0
 11
-80.00492
 21
100.0
 31
16.0
  0
LINE
  8
1
  5
36
  6
CONTINUOUS
 62
7
 10
-110.00492
 20
72.34322
 30
16.0
 11
-110.00492
 21
100.0
 31
16.0
  0
ARC
  8
1
  5
38
  6
CONTINUOUS
 62
7
 210
0.0
 220
0.0
 230
-1.0
 10
105.90492
 20
72.343224
 30
-16.0
 40
4.1
 50
255.0000055556
 51
5.0888874903E-014
  0
LINE
  8
1
  5
3A
  6
CONTINUOUS
 62
7
 10
-90.16608
 20
72.3158
 30
16.0
 11
-104.84376
 21
68.38293
 31
16.0
  0
ARC
  8
1
  5
3C
  6
CONTINUOUS
 62
7
 10
-89.10492
 20
68.355506
 30
16.0
 40
4.1
 50
360.0
 51
104.9999944444
  0
LINE
  8
1
  5
3E
  6
CONTINUOUS
 62
7
 10
-85.00492
 20
51.64449
 30
16.0
 11
-85.00492
 21
68.35551
 31
16.0
  0
ARC
  8
1
  5
40
  6
CONTINUOUS
 62
7
 10
-89.10492
 20
51.644494
 30
16.0
 40
4.1
 50
255.0000055556
 51
5.0888874903E-014
  0
LINE
  8
1
  5
42
  6
CONTINUOUS
 62
7
 10
-104.84376
 20
51.61707
 30
16.0
 11
-90.16608
 21
47.6842
 31
16.0
  0
ARC
  8
1
  5
44
  6
CONTINUOUS
 62
7
 210
0.0
 220
0.0
 230
-1.0
 10
105.90492
 20
47.656776
 30
-16.0
 40
4.1
 50
0.0
 51
104.9999944444
  0
LINE
  8
1
  5
46
  6
CONTINUOUS
 62
7
 10
-110.00492
 20
20.0
 30
16.0
 11
-110.00492
 21
47.65678
 31
16.0
  0
LINE
  8
1
  5
48
  6
CONTINUOUS
 62
7
 10
-80.00492
 20
20.0
 30
16.0
 11
-110.00492
 21
20.0
 31
16.0
  0
LINE
  8
1
  5
4A
  6
CONTINUOUS
 62
7
 10
79.99508
 20
20.0
 30
0.0
 11
79.99508
 21
20.0
 31
32.0
  0
LINE
  8
1
  5
4C
  6
CONTINUOUS
 62
7
 10
79.99508
 20
20.0
 30
0.0
 11
79.99508
 21
100.0
 31
0.0
  0
LINE
  8
1
  5
4E
  6
CONTINUOUS
 62
7
 10
79.99508
 20
100.0
 30
0.0
 11
79.99508
 21
100.0
 31
32.0
  0
LINE
  8
1
  5
50
  6
CONTINUOUS
 62
7
 10
-110.00492
 20
20.0
 30
0.0
 11
-110.00492
 21
20.0
 31
16.0
  0
LINE
  8
1
  5
52
  6
CONTINUOUS
 62
7
 10
-110.00492
 20
20.0
 30
0.0
 11
79.99508
 21
20.0
 31
0.0
  0
LINE
  8
1
  5
54
  6
CONTINUOUS
 62
7
 10
-110.00492
 20
47.65678
 30
0.0
 11
-110.00492
 21
47.65678
 31
16.0
  0
LINE
  8
1
  5
56
  6
CONTINUOUS
 62
7
 10
-110.00492
 20
47.65678
 30
0.0
 11
-110.00492
 21
20.0
 31
0.0
  0
LINE
  8
1
  5
58
  6
CONTINUOUS
 62
7
 10
-104.84376
 20
51.61707
 30
0.0
 11
-104.84376
 21
51.61707
 31
16.0
  0
ARC
  8
1
  5
5A
  6
CONTINUOUS
 62
7
 10
-105.90492
 20
47.656776
 30
0.0
 40
4.1
 50
75.0000055556
 51
180.0
  0
LINE
  8
1
  5
5C
  6
CONTINUOUS
 62
7
 10
-90.16608
 20
47.6842
 30
0.0
 11
-90.16608
 21
47.6842
 31
16.0
  0
LINE
  8
1
  5
5E
  6
CONTINUOUS
 62
7
 10
-90.16608
 20
47.6842
 30
0.0
 11
-104.84376
 21
51.61707
 31
0.0
  0
LINE
  8
1
  5
60
  6
CONTINUOUS
 62
7
 10
-85.00492
 20
51.64449
 30
0.0
 11
-85.00492
 21
51.64449
 31
16.0
  0
ARC
  8
1
  5
62
  6
CONTINUOUS
 62
7
 210
0.0
 220
0.0
 230
-1.0
 10
89.10492
 20
51.644494
 30
0.0
 40
4.1
 50
180.0
 51
284.9999944444
  0
LINE
  8
1
  5
64
  6
CONTINUOUS
 62
7
 10
-85.00492
 20
68.35551
 30
0.0
 11
-85.00492
 21
68.35551
 31
16.0
  0
LINE
  8
1
  5
66
  6
CONTINUOUS
 62
7
 10
-85.00492
 20
68.35551
 30
0.0
 11
-85.00492
 21
51.64449
 31
0.0
  0
LINE
  8
1
  5
68
  6
CONTINUOUS
 62
7
 10
-90.16608
 20
72.3158
 30
0.0
 11
-90.16608
 21
72.3158
 31
16.0
  0
ARC
  8
1
  5
6A
  6
CONTINUOUS
 62
7
 210
0.0
 220
0.0
 230
-1.0
 10
89.10492
 20
68.355506
 30
0.0
 40
4.1
 50
75.0000055556
 51
180.0
  0
LINE
  8
1
  5
6C
  6
CONTINUOUS
 62
7
 10
-104.84376
 20
68.38293
 30
0.0
 11
-104.84376
 21
68.38293
 31
16.0
  0
LINE
  8
1
  5
6E
  6
CONTINUOUS
 62
7
 10
-104.84376
 20
68.38293
 30
0.0
 11
-90.16608
 21
72.3158
 31
0.0
  0
LINE
  8
1
  5
70
  6
CONTINUOUS
 62
7
 10
-110.00492
 20
72.34322
 30
0.0
 11
-110.00492
 21
72.34322
 31
16.0
  0
ARC
  8
1
  5
72
  6
CONTINUOUS
 62
7
 10
-105.90492
 20
72.343224
 30
0.0
 40
4.1
 50
180.0
 51
284.9999944444
  0
LINE
  8
1
  5
74
  6
CONTINUOUS
 62
7
 10
-110.00492
 20
100.0
 30
0.0
 11
-110.00492
 21
100.0
 31
16.0
  0
LINE
  8
1
  5
76
  6
CONTINUOUS
 62
7
 10
-110.00492
 20
100.0
 30
0.0
 11
-110.00492
 21
72.34322
 31
0.0
  0
LINE
  8
1
  5
78
  6
CONTINUOUS
 62
7
 10
79.99508
 20
100.0
 30
0.0
 11
-110.00492
 21
100.0
 31
0.0
  0
ENDBLK
  8
1
  5
79
  0
BLOCK
  8
1
  5
7B
 70
1
 10
0.0
 20
0.0
 30
0.0
  2
*M1
  3
*M1
  0
LINE
  8
1
  5
7D
  6
CONTINUOUS
 62
7
 10
-80.00492
 20
95.34322
 30
32.0
 11
-80.00492
 21
95.34322
 31
16.0
  0
LINE
  8
1
  5
7F
  6
CONTINUOUS
 62
7
 10
-80.00492
 20
95.34322
 30
32.0
 11
-80.00492
 21
100.0
 31
32.0
  0
LINE
  8
1
  5
81
  6
CONTINUOUS
 62
7
 10
-85.16608
 20
91.38293
 30
32.0
 11
-85.16608
 21
91.38293
 31
16.0
  0
ARC
  8
1
  5
83
  6
CONTINUOUS
 62
7
 10
-84.10492
 20
95.343224
 30
32.0
 40
4.1
 50
255.0000055556
 51
5.0888874903E-014
  0
LINE
  8
1
  5
85
  6
CONTINUOUS
 62
7
 10
-99.84376
 20
95.3158
 30
32.0
 11
-99.84376
 21
95.3158
 31
16.0
  0
LINE
  8
1
  5
87
  6
CONTINUOUS
 62
7
 10
-99.84376
 20
95.3158
 30
32.0
 11
-85.16608
 21
91.38293
 31
32.0
  0
LINE
  8
1
  5
89
  6
CONTINUOUS
 62
7
 10
-105.00492
 20
91.35551
 30
32.0
 11
-105.00492
 21
91.35551
 31
16.0
  0
ARC
  8
1
  5
8B
  6
CONTINUOUS
 62
7
 210
0.0
 220
0.0
 230
-1.0
 10
100.90492
 20
91.355507
 30
-32.0
 40
4.1
 50
0.0
 51
105.0
  0
LINE
  8
1
  5
8D
  6
CONTINUOUS
 62
7
 10
-105.00492
 20
78.64449
 30
32.0
 11
-105.00492
 21
78.64449
 31
16.0
  0
LINE
  8
1
  5
8F
  6
CONTINUOUS
 62
7
 10
-105.00492
 20
78.64449
 30
32.0
 11
-105.00492
 21
91.35551
 31
32.0
  0
LINE
  8
1
  5
91
  6
CONTINUOUS
 62
7
 10
-99.84376
 20
74.6842
 30
32.0
 11
-99.84376
 21
74.6842
 31
16.0
  0
ARC
  8
1
  5
93
  6
CONTINUOUS
 62
7
 210
0.0
 220
0.0
 230
-1.0
 10
100.90492
 20
78.644494
 30
-32.0
 40
4.1
 50
255.0000055556
 51
5.0888874903E-014
  0
LINE
  8
1
  5
95
  6
CONTINUOUS
 62
7
 10
-85.16608
 20
78.61707
 30
32.0
 11
-85.16608
 21
78.61707
 31
16.0
  0
LINE
  8
1
  5
97
  6
CONTINUOUS
 62
7
 10
-85.16608
 20
78.61707
 30
32.0
 11
-99.84376
 21
74.6842
 31
32.0
  0
LINE
  8
1
  5
99
  6
CONTINUOUS
 62
7
 10
-80.00492
 20
74.65678
 30
32.0
 11
-80.00492
 21
74.65678
 31
16.0
  0
ARC
  8
1
  5
9B
  6
CONTINUOUS
 62
7
 10
-84.10492
 20
74.656776
 30
32.0
 40
4.1
 50
360.0
 51
104.9999972222
  0
LINE
  8
1
  5
9D
  6
CONTINUOUS
 62
7
 10
-80.00492
 20
45.34322
 30
32.0
 11
-80.00492
 21
45.34322
 31
16.0
  0
LINE
  8
1
  5
9F
  6
CONTINUOUS
 62
7
 10
-80.00492
 20
45.34322
 30
32.0
 11
-80.00492
 21
74.65678
 31
32.0
  0
LINE
  8
1
  5
A1
  6
CONTINUOUS
 62
7
 10
-85.16608
 20
41.38293
 30
32.0
 11
-85.16608
 21
41.38293
 31
16.0
  0
ARC
  8
1
  5
A3
  6
CONTINUOUS
 62
7
 10
-84.10492
 20
45.343224
 30
32.0
 40
4.1
 50
255.0000055556
 51
5.0888874903E-014
  0
LINE
  8
1
  5
A5
  6
CONTINUOUS
 62
7
 10
-99.84376
 20
45.3158
 30
32.0
 11
-99.84376
 21
45.3158
 31
16.0
  0
LINE
  8
1
  5
A7
  6
CONTINUOUS
 62
7
 10
-99.84376
 20
45.3158
 30
32.0
 11
-85.16608
 21
41.38293
 31
32.0
  0
LINE
  8
1
  5
A9
  6
CONTINUOUS
 62
7
 10
-105.00492
 20
41.35551
 30
32.0
 11
-105.00492
 21
41.35551
 31
16.0
  0
ARC
  8
1
  5
AB
  6
CONTINUOUS
 62
7
 210
0.0
 220
0.0
 230
-1.0
 10
100.90492
 20
41.355507
 30
-32.0
 40
4.1
 50
0.0
 51
104.9999972222
  0
LINE
  8
1
  5
AD
  6
CONTINUOUS
 62
7
 10
-105.00492
 20
28.64449
 30
32.0
 11
-105.00492
 21
28.64449
 31
16.0
  0
LINE
  8
1
  5
AF
  6
CONTINUOUS
 62
7
 10
-105.00492
 20
28.64449
 30
32.0
 11
-105.00492
 21
41.35551
 31
32.0
  0
LINE
  8
1
  5
B1
  6
CONTINUOUS
 62
7
 10
-99.84376
 20
24.6842
 30
32.0
 11
-99.84376
 21
24.6842
 31
16.0
  0
ARC
  8
1
  5
B3
  6
CONTINUOUS
 62
7
 210
0.0
 220
0.0
 230
-1.0
 10
100.90492
 20
28.644494
 30
-32.0
 40
4.1
 50
255.0000027778
 51
5.0888874903E-014
  0
LINE
  8
1
  5
B5
  6
CONTINUOUS
 62
7
 10
-85.16608
 20
28.61707
 30
32.0
 11
-85.16608
 21
28.61707
 31
16.0
  0
LINE
  8
1
  5
B7
  6
CONTINUOUS
 62
7
 10
-85.16608
 20
28.61707
 30
32.0
 11
-99.84376
 21
24.6842
 31
32.0
  0
LINE
  8
1
  5
B9
  6
CONTINUOUS
 62
7
 10
-80.00492
 20
24.65678
 30
32.0
 11
-80.00492
 21
24.65678
 31
16.0
  0
ARC
  8
1
  5
BB
  6
CONTINUOUS
 62
7
 10
-84.10492
 20
24.656776
 30
32.0
 40
4.1
 50
360.0
 51
104.9999944444
  0
LINE
  8
1
  5
BD
  6
CONTINUOUS
 62
7
 10
-80.00492
 20
20.0
 30
32.0
 11
-80.00492
 21
24.65678
 31
32.0
  0
ENDBLK
  8
1
  5
BE
  0
BLOCK
  8
1
  5
C0
 70
1
 10
0.0
 20
0.0
 30
0.0
  2
*M2
  3
*M2
  0
INSERT
  8
1
  5
C2
  6
CONTINUOUS
 62
7
  2
*M0
 10
0.0
 20
0.0
 30
0.0
 41
1.0
 42
1.0
 43
1.0
 70
1
 71
1
  0
INSERT
  8
1
  5
C4
  6
CONTINUOUS
 62
7
  2
*M1
 10
0.0
 20
0.0
 30
0.0
 41
1.0
 42
1.0
 43
1.0
 70
1
 71
1
  0
ENDBLK
  8
1
  5
C5
  0
BLOCK
  8
1
  5
C7
 70
1
 10
0.0
 20
0.0
 30
0.0
  2
*M3
  3
*M3
  0
LINE
  8
1
  5
C9
  6
CONTINUOUS
 62
7
 10
-216.52266
 20
47.65678
 30
16.0
 11
-216.52266
 21
20.0
 31
16.0
  0
ARC
  8
1
  5
CB
  6
CONTINUOUS
 62
7
 10
-212.42266
 20
47.656776
 30
16.0
 40
4.1
 50
75.0000055556
 51
180.0
  0
LINE
  8
1
  5
CD
  6
CONTINUOUS
 62
7
 10
-196.68382
 20
47.6842
 30
16.0
 11
-211.3615
 21
51.61707
 31
16.0
  0
ARC
  8
1
  5
CF
  6
CONTINUOUS
 62
7
 210
0.0
 220
0.0
 230
-1.0
 10
195.62266
 20
51.644494
 30
-16.0
 40
4.1
 50
180.0
 51
284.9999944444
  0
LINE
  8
1
  5
D1
  6
CONTINUOUS
 62
7
 10
-191.52266
 20
68.35551
 30
16.0
 11
-191.52266
 21
51.64449
 31
16.0
  0
ARC
  8
1
  5
D3
  6
CONTINUOUS
 62
7
 210
0.0
 220
0.0
 230
-1.0
 10
195.62266
 20
68.355506
 30
-16.0
 40
4.1
 50
75.0000055556
 51
180.0
  0
LINE
  8
1
  5
D5
  6
CONTINUOUS
 62
7
 10
-211.3615
 20
68.38293
 30
16.0
 11
-196.68382
 21
72.3158
 31
16.0
  0
ARC
  8
1
  5
D7
  6
CONTINUOUS
 62
7
 10
-212.42266
 20
72.343224
 30
16.0
 40
4.1
 50
180.0
 51
284.9999944444
  0
LINE
  8
1
  5
D9
  6
CONTINUOUS
 62
7
 10
-216.52266
 20
100.0
 30
16.0
 11
-216.52266
 21
72.34322
 31
16.0
  0
LINE
  8
1
  5
DB
  6
CONTINUOUS
 62
7
 10
-186.52266
 20
100.0
 30
16.0
 11
-216.52266
 21
100.0
 31
16.0
  0
LINE
  8
1
  5
DD
  6
CONTINUOUS
 62
7
 10
-216.52266
 20
20.0
 30
16.0
 11
-186.52266
 21
20.0
 31
16.0
  0
LINE
  8
1
  5
DF
  6
CONTINUOUS
 62
7
 10
-186.52266
 20
20.0
 30
32.0
 11
-186.52266
 21
20.0
 31
16.0
  0
LINE
  8
1
  5
E1
  6
CONTINUOUS
 62
7
 10
-186.52266
 20
100.0
 30
32.0
 11
-186.52266
 21
100.0
 31
16.0
  0
LINE
  8
1
  5
E3
  6
CONTINUOUS
 62
7
 10
-376.51774
 20
20.0
 30
32.0
 11
-186.52266
 21
20.0
 31
32.0
  0
LINE
  8
1
  5
E5
  6
CONTINUOUS
 62
7
 10
-186.52266
 20
100.0
 30
32.0
 11
-376.51774
 21
100.0
 31
32.0
  0
LINE
  8
1
  5
E7
  6
CONTINUOUS
 62
7
 10
-376.51774
 20
100.0
 30
32.0
 11
-376.51774
 21
20.0
 31
32.0
  0
LINE
  8
1
  5
E9
  6
CONTINUOUS
 62
7
 10
-376.51774
 20
100.0
 30
0.0
 11
-376.51774
 21
100.0
 31
32.0
  0
LINE
  8
1
  5
EB
  6
CONTINUOUS
 62
7
 10
-376.51774
 20
100.0
 30
0.0
 11
-376.51774
 21
20.0
 31
0.0
  0
LINE
  8
1
  5
ED
  6
CONTINUOUS
 62
7
 10
-376.51774
 20
20.0
 30
0.0
 11
-376.51774
 21
20.0
 31
32.0
  0
LINE
  8
1
  5
EF
  6
CONTINUOUS
 62
7
 10
-216.52266
 20
100.0
 30
0.0
 11
-216.52266
 21
100.0
 31
16.0
  0
LINE
  8
1
  5
F1
  6
CONTINUOUS
 62
7
 10
-216.52266
 20
100.0
 30
0.0
 11
-376.51774
 21
100.0
 31
0.0
  0
LINE
  8
1
  5
F3
  6
CONTINUOUS
 62
7
 10
-216.52266
 20
72.34322
 30
0.0
 11
-216.52266
 21
72.34322
 31
16.0
  0
LINE
  8
1
  5
F5
  6
CONTINUOUS
 62
7
 10
-216.52266
 20
72.34322
 30
0.0
 11
-216.52266
 21
100.0
 31
0.0
  0
LINE
  8
1
  5
F7
  6
CONTINUOUS
 62
7
 10
-211.3615
 20
68.38293
 30
0.0
 11
-211.3615
 21
68.38293
 31
16.0
  0
ARC
  8
1
  5
F9
  6
CONTINUOUS
 62
7
 210
0.0
 220
0.0
 230
-1.0
 10
212.42266
 20
72.343224
 30
0.0
 40
4.1
 50
255.0000055556
 51
5.0888874903E-014
  0
LINE
  8
1
  5
FB
  6
CONTINUOUS
 62
7
 10
-196.68382
 20
72.3158
 30
0.0
 11
-196.68382
 21
72.3158
 31
16.0
  0
LINE
  8
1
  5
FD
  6
CONTINUOUS
 62
7
 10
-196.68382
 20
72.3158
 30
0.0
 11
-211.3615
 21
68.38293
 31
0.0
  0
LINE
  8
1
  5
FF
  6
CONTINUOUS
 62
7
 10
-191.52266
 20
68.35551
 30
0.0
 11
-191.52266
 21
68.35551
 31
16.0
  0
ARC
  8
1
  5
101
  6
CONTINUOUS
 62
7
 10
-195.62266
 20
68.355506
 30
0.0
 40
4.1
 50
360.0
 51
104.9999944444
  0
LINE
  8
1
  5
103
  6
CONTINUOUS
 62
7
 10
-191.52266
 20
51.64449
 30
0.0
 11
-191.52266
 21
51.64449
 31
16.0
  0
LINE
  8
1
  5
105
  6
CONTINUOUS
 62
7
 10
-191.52266
 20
51.64449
 30
0.0
 11
-191.52266
 21
68.35551
 31
0.0
  0
LINE
  8
1
  5
107
  6
CONTINUOUS
 62
7
 10
-196.68382
 20
47.6842
 30
0.0
 11
-196.68382
 21
47.6842
 31
16.0
  0
ARC
  8
1
  5
109
  6
CONTINUOUS
 62
7
 10
-195.62266
 20
51.644494
 30
0.0
 40
4.1
 50
255.0000055556
 51
5.0888874903E-014
  0
LINE
  8
1
  5
10B
  6
CONTINUOUS
 62
7
 10
-211.3615
 20
51.61707
 30
0.0
 11
-211.3615
 21
51.61707
 31
16.0
  0
LINE
  8
1
  5
10D
  6
CONTINUOUS
 62
7
 10
-211.3615
 20
51.61707
 30
0.0
 11
-196.68382
 21
47.6842
 31
0.0
  0
LINE
  8
1
  5
10F
  6
CONTINUOUS
 62
7
 10
-216.52266
 20
47.65678
 30
0.0
 11
-216.52266
 21
47.65678
 31
16.0
  0
ARC
  8
1
  5
111
  6
CONTINUOUS
 62
7
 210
0.0
 220
0.0
 230
-1.0
 10
212.42266
 20
47.656776
 30
0.0
 40
4.1
 50
0.0
 51
104.9999944444
  0
LINE
  8
1
  5
113
  6
CONTINUOUS
 62
7
 10
-216.52266
 20
20.0
 30
0.0
 11
-216.52266
 21
20.0
 31
16.0
  0
LINE
  8
1
  5
115
  6
CONTINUOUS
 62
7
 10
-216.52266
 20
20.0
 30
0.0
 11
-216.52266
 21
47.65678
 31
0.0
  0
LINE
  8
1
  5
117
  6
CONTINUOUS
 62
7
 10
-376.51774
 20
20.0
 30
0.0
 11
-216.52266
 21
20.0
 31
0.0
  0
ENDBLK
  8
1
  5
118
  0
BLOCK
  8
1
  5
11A
 70
1
 10
0.0
 20
0.0
 30
0.0
  2
*M4
  3
*M4
  0
LINE
  8
1
  5
11C
  6
CONTINUOUS
 62
7
 10
-186.52266
 20
95.34322
 30
16.0
 11
-186.52266
 21
100.0
 31
16.0
  0
ARC
  8
1
  5
11E
  6
CONTINUOUS
 62
7
 10
-190.62266
 20
95.343224
 30
16.0
 40
4.1
 50
255.0000055556
 51
5.0888874903E-014
  0
LINE
  8
1
  5
120
  6
CONTINUOUS
 62
7
 10
-206.3615
 20
95.3158
 30
16.0
 11
-191.68382
 21
91.38293
 31
16.0
  0
ARC
  8
1
  5
122
  6
CONTINUOUS
 62
7
 210
0.0
 220
0.0
 230
-1.0
 10
207.42266
 20
91.355507
 30
-16.0
 40
4.1
 50
0.0
 51
105.0
  0
LINE
  8
1
  5
124
  6
CONTINUOUS
 62
7
 10
-211.52266
 20
78.64449
 30
16.0
 11
-211.52266
 21
91.35551
 31
16.0
  0
ARC
  8
1
  5
126
  6
CONTINUOUS
 62
7
 210
0.0
 220
0.0
 230
-1.0
 10
207.42266
 20
78.644494
 30
-16.0
 40
4.1
 50
255.0000055556
 51
5.0888874903E-014
  0
LINE
  8
1
  5
128
  6
CONTINUOUS
 62
7
 10
-191.68382
 20
78.61707
 30
16.0
 11
-206.3615
 21
74.6842
 31
16.0
  0
ARC
  8
1
  5
12A
  6
CONTINUOUS
 62
7
 10
-190.62266
 20
74.656776
 30
16.0
 40
4.1
 50
360.0
 51
104.9999972222
  0
LINE
  8
1
  5
12C
  6
CONTINUOUS
 62
7
 10
-186.52266
 20
45.34322
 30
16.0
 11
-186.52266
 21
74.65678
 31
16.0
  0
ARC
  8
1
  5
12E
  6
CONTINUOUS
 62
7
 10
-190.62266
 20
45.343224
 30
16.0
 40
4.1
 50
255.0000055556
 51
5.0888874903E-014
  0
LINE
  8
1
  5
130
  6
CONTINUOUS
 62
7
 10
-206.3615
 20
45.3158
 30
16.0
 11
-191.68382
 21
41.38293
 31
16.0
  0
ARC
  8
1
  5
132
  6
CONTINUOUS
 62
7
 210
0.0
 220
0.0
 230
-1.0
 10
207.42266
 20
41.355507
 30
-16.0
 40
4.1
 50
0.0
 51
104.9999972222
  0
LINE
  8
1
  5
134
  6
CONTINUOUS
 62
7
 10
-211.52266
 20
28.64449
 30
16.0
 11
-211.52266
 21
41.35551
 31
16.0
  0
ARC
  8
1
  5
136
  6
CONTINUOUS
 62
7
 210
0.0
 220
0.0
 230
-1.0
 10
207.42266
 20
28.644494
 30
-16.0
 40
4.1
 50
255.0000027778
 51
5.0888874903E-014
  0
LINE
  8
1
  5
138
  6
CONTINUOUS
 62
7
 10
-191.68382
 20
28.61707
 30
16.0
 11
-206.3615
 21
24.6842
 31
16.0
  0
ARC
  8
1
  5
13A
  6
CONTINUOUS
 62
7
 10
-190.62266
 20
24.656776
 30
16.0
 40
4.1
 50
360.0
 51
104.9999944444
  0
LINE
  8
1
  5
13C
  6
CONTINUOUS
 62
7
 10
-186.52266
 20
20.0
 30
16.0
 11
-186.52266
 21
24.65678
 31
16.0
  0
LINE
  8
1
  5
13E
  6
CONTINUOUS
 62
7
 10
-186.52266
 20
24.65678
 30
32.0
 11
-186.52266
 21
24.65678
 31
16.0
  0
LINE
  8
1
  5
140
  6
CONTINUOUS
 62
7
 10
-186.52266
 20
20.0
 30
32.0
 11
-186.52266
 21
24.65678
 31
32.0
  0
LINE
  8
1
  5
142
  6
CONTINUOUS
 62
7
 10
-191.68382
 20
28.61707
 30
32.0
 11
-191.68382
 21
28.61707
 31
16.0
  0
ARC
  8
1
  5
144
  6
CONTINUOUS
 62
7
 10
-190.62266
 20
24.656776
 30
32.0
 40
4.1
 50
360.0
 51
104.9999944444
  0
LINE
  8
1
  5
146
  6
CONTINUOUS
 62
7
 10
-206.3615
 20
24.6842
 30
32.0
 11
-206.3615
 21
24.6842
 31
16.0
  0
LINE
  8
1
  5
148
  6
CONTINUOUS
 62
7
 10
-191.68382
 20
28.61707
 30
32.0
 11
-206.3615
 21
24.6842
 31
32.0
  0
LINE
  8
1
  5
14A
  6
CONTINUOUS
 62
7
 10
-211.52266
 20
28.64449
 30
32.0
 11
-211.52266
 21
28.64449
 31
16.0
  0
ARC
  8
1
  5
14C
  6
CONTINUOUS
 62
7
 210
0.0
 220
0.0
 230
-1.0
 10
207.42266
 20
28.644494
 30
-32.0
 40
4.1
 50
255.0000027778
 51
5.0888874903E-014
  0
LINE
  8
1
  5
14E
  6
CONTINUOUS
 62
7
 10
-211.52266
 20
41.35551
 30
32.0
 11
-211.52266
 21
41.35551
 31
16.0
  0
LINE
  8
1
  5
150
  6
CONTINUOUS
 62
7
 10
-211.52266
 20
28.64449
 30
32.0
 11
-211.52266
 21
41.35551
 31
32.0
  0
LINE
  8
1
  5
152
  6
CONTINUOUS
 62
7
 10
-206.3615
 20
45.3158
 30
32.0
 11
-206.3615
 21
45.3158
 31
16.0
  0
ARC
  8
1
  5
154
  6
CONTINUOUS
 62
7
 210
0.0
 220
0.0
 230
-1.0
 10
207.42266
 20
41.355507
 30
-32.0
 40
4.1
 50
0.0
 51
104.9999972222
  0
LINE
  8
1
  5
156
  6
CONTINUOUS
 62
7
 10
-191.68382
 20
41.38293
 30
32.0
 11
-191.68382
 21
41.38293
 31
16.0
  0
LINE
  8
1
  5
158
  6
CONTINUOUS
 62
7
 10
-206.3615
 20
45.3158
 30
32.0
 11
-191.68382
 21
41.38293
 31
32.0
  0
LINE
  8
1
  5
15A
  6
CONTINUOUS
 62
7
 10
-186.52266
 20
45.34322
 30
32.0
 11
-186.52266
 21
45.34322
 31
16.0
  0
ARC
  8
1
  5
15C
  6
CONTINUOUS
 62
7
 10
-190.62266
 20
45.343224
 30
32.0
 40
4.1
 50
255.0000055556
 51
5.0888874903E-014
  0
LINE
  8
1
  5
15E
  6
CONTINUOUS
 62
7
 10
-186.52266
 20
74.65678
 30
32.0
 11
-186.52266
 21
74.65678
 31
16.0
  0
LINE
  8
1
  5
160
  6
CONTINUOUS
 62
7
 10
-186.52266
 20
45.34322
 30
32.0
 11
-186.52266
 21
74.65678
 31
32.0
  0
LINE
  8
1
  5
162
  6
CONTINUOUS
 62
7
 10
-191.68382
 20
78.61707
 30
32.0
 11
-191.68382
 21
78.61707
 31
16.0
  0
ARC
  8
1
  5
164
  6
CONTINUOUS
 62
7
 10
-190.62266
 20
74.656776
 30
32.0
 40
4.1
 50
360.0
 51
104.9999972222
  0
LINE
  8
1
  5
166
  6
CONTINUOUS
 62
7
 10
-206.3615
 20
74.6842
 30
32.0
 11
-206.3615
 21
74.6842
 31
16.0
  0
LINE
  8
1
  5
168
  6
CONTINUOUS
 62
7
 10
-191.68382
 20
78.61707
 30
32.0
 11
-206.3615
 21
74.6842
 31
32.0
  0
LINE
  8
1
  5
16A
  6
CONTINUOUS
 62
7
 10
-211.52266
 20
78.64449
 30
32.0
 11
-211.52266
 21
78.64449
 31
16.0
  0
ARC
  8
1
  5
16C
  6
CONTINUOUS
 62
7
 210
0.0
 220
0.0
 230
-1.0
 10
207.42266
 20
78.644494
 30
-32.0
 40
4.1
 50
255.0000055556
 51
5.0888874903E-014
  0
LINE
  8
1
  5
16E
  6
CONTINUOUS
 62
7
 10
-211.52266
 20
91.35551
 30
32.0
 11
-211.52266
 21
91.35551
 31
16.0
  0
LINE
  8
1
  5
170
  6
CONTINUOUS
 62
7
 10
-211.52266
 20
78.64449
 30
32.0
 11
-211.52266
 21
91.35551
 31
32.0
  0
LINE
  8
1
  5
172
  6
CONTINUOUS
 62
7
 10
-206.3615
 20
95.3158
 30
32.0
 11
-206.3615
 21
95.3158
 31
16.0
  0
ARC
  8
1
  5
174
  6
CONTINUOUS
 62
7
 210
0.0
 220
0.0
 230
-1.0
 10
207.42266
 20
91.355507
 30
-32.0
 40
4.1
 50
0.0
 51
105.0
  0
LINE
  8
1
  5
176
  6
CONTINUOUS
 62
7
 10
-191.68382
 20
91.38293
 30
32.0
 11
-191.68382
 21
91.38293
 31
16.0
  0
LINE
  8
1
  5
178
  6
CONTINUOUS
 62
7
 10
-206.3615
 20
95.3158
 30
32.0
 11
-191.68382
 21
91.38293
 31
32.0
  0
LINE
  8
1
  5
17A
  6
CONTINUOUS
 62
7
 10
-186.52266
 20
95.34322
 30
32.0
 11
-186.52266
 21
95.34322
 31
16.0
  0
ARC
  8
1
  5
17C
  6
CONTINUOUS
 62
7
 10
-190.62266
 20
95.343224
 30
32.0
 40
4.1
 50
255.0000055556
 51
5.0888874903E-014
  0
LINE
  8
1
  5
17E
  6
CONTINUOUS
 62
7
 10
-186.52266
 20
95.34322
 30
32.0
 11
-186.52266
 21
100.0
 31
32.0
  0
ENDBLK
  8
1
  5
17F
  0
BLOCK
  8
1
  5
181
 70
1
 10
0.0
 20
0.0
 30
0.0
  2
*M5
  3
*M5
  0
INSERT
  8
1
  5
183
  6
CONTINUOUS
 62
7
  2
*M3
 10
0.0
 20
0.0
 30
0.0
 41
1.0
 42
1.0
 43
1.0
 70
1
 71
1
  0
INSERT
  8
1
  5
185
  6
CONTINUOUS
 62
7
  2
*M4
 10
0.0
 20
0.0
 30
0.0
 41
1.0
 42
1.0
 43
1.0
 70
1
 71
1
  0
ENDBLK
  8
1
  5
186
  0
ENDSEC
  0
SECTION
  2
ENTITIES
  0
INSERT
  8
1
  5
2
  6
CONTINUOUS
 62
7
  2
*M2
 10
341.49338
 20
-99.44294
 30
0.0
 41
1.0
 42
1.0
 43
1.0
 70
1
 71
1
  0
INSERT
  8
1
  5
4
  6
CONTINUOUS
 62
7
  2
*M5
 10
368.01112
 20
-99.44294
 30
0.0
 41
1.0
 42
1.0
 43
1.0
 70
1
 71
1
  0
ENDSEC
  0
EOF
