  0
SECTION
  2
HEADER
  9
$ACADVER
  1
AC1009
  9
$INSBASE
 10
0.0
 20
0.0
 30
0.0
  9
$EXTMAX
 10
258.28215
 20
-61.20786
 30
0.0
  9
$EXTMIN
 10
-49.39552
 20
-368.88553
 30
-32.00001
  9
$LIMMAX
 10
12.0
 20
9.0
  9
$LIMMIN
 10
0.0
 20
0.0
  9
$ORTHOMODE
 70
0
  9
$REGENMODE
 70
1
  9
$FILLMODE
 70
1
  9
$QTEXTMODE
 70
0
  9
$MIRRTEXT
 70
1
  9
$DRAGMODE
 70
2
  9
$LTSCALE
 40
1.0
  9
$OSMODE
 70
0
  9
$ATTMODE
 70
1
  9
$TEXTSIZE
 40
0.2
  9
$TRACEWID
 40
0.05
  9
$TEXTSTYLE
  7
STANDARD
  9
$CLAYER
  8
0
  9
$CELTYPE
  6
CONTINUOUS
  9
$CECOLOR
 62
256
  9
$DIMSCALE
 40
1.0
  9
$DIMASZ
 40
0.18
  9
$DIMEXO
 40
0.0625
  9
$DIMDLI
 40
0.38
  9
$DIMRND
 40
0.0
  9
$DIMDLE
 40
0.0
  9
$DIMEXE
 40
0.18
  9
$DIMTP
 40
0.0
  9
$DIMTM
 40
0.0
  9
$DIMTXT
 40
0.18
  9
$DIMCEN
 40
0.09
  9
$DIMTSZ
 40
0.0
  9
$DIMTOL
 70
0
  9
$DIMLIM
 70
0
  9
$DIMTIH
 70
1
  9
$DIMTOH
 70
1
  9
$DIMSE1
 70
0
  9
$DIMSE2
 70
0
  9
$DIMTAD
 70
0
  9
$DIMZIN
 70
0
  9
$DIMBLK
  1

  9
$DIMASO
 70
1
  9
$DIMSHO
 70
1
  9
$DIMPOST
  1

  9
$DIMAPOST
  1

  9
$DIMALT
 70
0
  9
$DIMALTD
 70
2
  9
$DIMALTF
 40
25.4
  9
$DIMLFAC
 40
1.0
  9
$DIMTOFL
 70
0
  9
$DIMTVP
 40
0.0
  9
$DIMTIX
 70
0
  9
$DIMSOXD
 70
0
  9
$DIMSAH
 70
0
  9
$DIMBLK1
  1

  9
$DIMBLK2
  1

  9
$DIMSTYLE
  2
*UNNAMED
  9
$DIMCLRD
 70
0
  9
$DIMCLRE
 70
0
  9
$DIMCLRT
 70
0
  9
$DIMTFAC
 40
1.0
  9
$DIMGAP
 40
0.09
  9
$LUNITS
 70
2
  9
$LUPREC
 70
4
  9
$AXISMODE
 70
0
  9
$AXISUNIT
 10
0.0
 20
0.0
  9
$SKETCHINC
 40
0.1
  9
$FILLETRAD
 40
0.0
  9
$AUNITS
 70
0
  9
$AUPREC
 70
0
  9
$MENU
  1
acad
  9
$ELEVATION
 40
0.0
  9
$PELEVATION
 40
0.0
  9
$THICKNESS
 40
0.0
  9
$LIMCHECK
 70
0
  9
$BLIPMODE
 70
1
  9
$CHAMFERA
 40
0.0
  9
$CHAMFERB
 40
0.0
  9
$SKPOLY
 70
0
  9
$TDCREATE
 40
0.0
  9
$TDUPDATE
 40
0.0
  9
$TDINDWG
 40
0.0
  9
$TDUSRTIMER
 40
0.0
  9
$USRTIMER
 70
1
  9
$ANGBASE
 50
0.0
  9
$ANGDIR
 70
0
  9
$PDMODE
 70
0
  9
$PDSIZE
 40
0.0
  9
$PLINEWID
 40
0.0
  9
$COORDS
 70
0
  9
$SPLFRAME
 70
0
  9
$SPLINETYPE
 70
6
  9
$SPLINESEGS
 70
10
  9
$ATTDIA
 70
0
  9
$ATTREQ
 70
1
  9
$HANDLING
 70
1
  9
$HANDSEED
  5
23F
  9
$SURFTAB1
 70
6
  9
$SURFTAB2
 70
6
  9
$SURFTYPE
 70
6
  9
$SURFU
 70
10
  9
$SURFV
 70
10
  9
$UCSNAME
  2

  9
$UCSORG
 10
0.0
 20
0.0
 30
0.0
  9
$UCSXDIR
 10
1.0
 20
0.0
 30
0.0
  9
$UCSYDIR
 10
0.0
 20
1.0
 30
0.0
  9
$PUCSNAME
  2
 
  9
$PUCSORG
 10
0.0
 20
0.0
 30
0.0
  9
$PUCSXDIR
 10
1.0
 20
0.0
 30
0.0
  9
$PUCSYDIR
 10
0.0
 20
1.0
 30
0.0
  9
$USERI1
 70
0
  9
$USERI2
 70
0
  9
$USERI3
 70
0
  9
$USERI4
 70
0
  9
$USERI5
 70
0
  9
$USERR1
 40
0.0
  9
$USERR2
 40
0.0
  9
$USERR3
 40
0.0
  9
$USERR4
 40
0.0
  9
$USERR5
 40
0.0
  9
$WORLDVIEW
 70
1
  9
$SHADEDGE
 70
3
  9
$SHADEDIF
 70
70
  9
$TILEMODE
 70
1
  9
$MAXACTVP
 70
16
  9
$PINSBASE
 10
0.0
 20
0.0
 30
0.0
  9
$PLIMCHECK
 70
0
  9
$PEXTMIN
 10
-1.000000E+020
 20
-1.000000E+020
 30
-1.000000E+020
  9
$PEXTMAX
 10
-1.000000E+020
 20
-1.000000E+020
 30
-1.000000E+020
  9
$PLIMMIN
 10
0.0
 20
0.0
  9
$PLIMMAX
 10
12.0
 20
9.0
  9
$UNITMODE
 70
0
  9
$VISRETAIN
 70
0
  0
ENDSEC
  0
SECTION
  2
TABLES
  0
TABLE
  2
LTYPE
 70
7
  0
LTYPE
  2
CONTINUOUS
 70
64
  3
Solid line
 72
65
 73
0
 40
0.0
  0
LTYPE
  2
DOT
 70
64
  3
. . . . . . . . . . . . . . . . . . . . . . . . . . . . . . . . .
 72
65
 73
2
 40
0.25
 49
0.0
 49
-0.25
  0
LTYPE
  2
HIDDEN
 70
64
  3
__ __ __ __ __ __ __ __ __ __ __ __ __ __ __ __ __ __ __ __ __ 
 72
65
 73
2
 40
0.375
 49
0.25
 49
-0.125
  0
LTYPE
  2
DASHED
 70
64
  3
__ __ __ __ __ __ __ __ __ __ __ __ __ __ __ __ __ __ __ __ __
 72
65
 73
2
 40
0.75
 49
0.5
 49
-0.25
  0
LTYPE
  2
DASHDOT
 70
64
  3
__ . __ . __ . __ . __ . __ . __ . __ . __ . __ . __ . __ . _
 72
65
 73
4
 40
1.0
 49
0.5
 49
-0.25
 49
0.0
 49
-0.25
  0
LTYPE
  2
DIVIDE
 70
64
  3
____ . . ____ . . ____ . . ____ . . ____ . . ____ . . ____ . .
 72
65
 73
6
 40
1.25
 49
0.5
 49
-0.25
 49
0.0
 49
-0.25
 49
0.0
 49
-0.25
  0
LTYPE
  2
CENTER
 70
64
  3
____ _ ____ _ ____ _ ____ _ ____ _ ____ _ ____ _ ____ _ ____ _
 72
65
 73
4
 40
2.0
 49
1.25
 49
-0.25
 49
0.25
 49
-0.25
  0
ENDTAB
  0
TABLE
  2
APPID
 70
1
  0
APPID
  2
ACAD
 70
0
  0
ENDTAB
  0
TABLE
  2
DIMSTYLE
 70
0
  0
ENDTAB
  0
TABLE
  2
LAYER
 70
4
  0
LAYER
  2
0
 70
0
 62
7
  6
CONTINUOUS
  0
LAYER
  2
CONSTRUCTION_CLASS
 70
0
 62
7
  6
CONTINUOUS
  0
LAYER
  2
PATTERN_CLASS
 70
0
 62
7
  6
CONTINUOUS
  0
LAYER
  2
1
 70
0
 62
7
  6
CONTINUOUS
  0
ENDTAB
  0
TABLE
  2
STYLE
 70
1
  0
STYLE
  2
STANDARD
 70
0
 40
0.2
 41
1.0
 50
0.0
 71
0
 42
0.0
  3
txt
  4

  0
ENDTAB
  0
TABLE
  2
UCS
 70
0
  0
ENDTAB
  0
TABLE
  2
VIEW
 70
2
  0
VIEW
  2
AN_4
 70
0
 40
184.08589
 41
266.94694
 10
5.684342E-014
 20
4.263256E-014
 11
697.367456
 21
519.007202
 31
329.68983
 12
84.289249
 22
-71.590615
 32
36.906
 42
50.0
 43
464.8616
 44
-464.8616
 50
0.0
 71
0
  0
VIEW
  2
AN_5
 70
0
 40
188.27417
 41
272.91749
 10
0.0
 20
0.0
 11
135.559768
 21
77.131668
 31
99.909923
 12
24.854418
 22
-146.513275
 32
22.871679
 42
50.0
 43
92.61174
 44
-92.61174
 50
0.0
 71
0
  0
ENDTAB
  0
TABLE
  2
VPORT
 70
4
  0
VPORT
  2
*ACTIVE
 70
0
 10
0.500821
 20
0.50171
 11
0.998358
 21
0.997719
 12
0.0
 22
0.0
 13
0.0
 23
0.0
 14
0.0
 24
0.0
 15
0.0
 25
0.0
 16
0.0
 26
-2.815637E-015
 36
45.98436
 17
84.697836
 27
-215.046695
 37
-16.00001
 40
315.36961
 41
1.393103
 42
50.0
 43
22.99218
 44
-22.99218
 50
0.0
 51
0.0
 71
22
 72
100
 73
1
 74
0
 75
0
 76
0
 77
0
 78
0
  0
VPORT
  2
*ACTIVE
 70
0
 10
0.001642
 20
0.50171
 11
0.499179
 21
0.997719
 12
0.0
 22
1.421085E-014
 13
0.0
 23
0.0
 14
0.0
 24
0.0
 15
0.0
 25
0.0
 16
224.49659
 26
127.735512
 36
165.457919
 17
67.528776
 27
-233.254473
 37
-19.545223
 40
207.46461
 41
1.393103
 42
50.0
 43
153.37161
 44
-153.37161
 50
0.0
 51
0.0
 71
22
 72
100
 73
1
 74
0
 75
0
 76
0
 77
0
 78
0
  0
VPORT
  2
*ACTIVE
 70
0
 10
0.001642
 20
0.003421
 11
0.499179
 21
0.49943
 12
0.0
 22
0.0
 13
0.0
 23
0.0
 14
0.0
 24
0.0
 15
0.0
 25
0.0
 16
0.0
 26
-350.17796
 36
0.0
 17
106.233517
 27
-198.88553
 37
-16.000005
 40
229.52931
 41
1.393103
 42
50.0
 43
175.08898
 44
-175.08898
 50
0.0
 51
0.0
 71
22
 72
100
 73
1
 74
0
 75
0
 76
0
 77
0
 78
0
  0
VPORT
  2
*ACTIVE
 70
0
 10
0.500821
 20
0.003421
 11
0.998358
 21
0.49943
 12
0.0
 22
0.0
 13
0.0
 23
0.0
 14
0.0
 24
0.0
 15
0.0
 25
0.0
 16
350.17796
 26
0.0
 36
0.0
 17
120.60448
 27
-213.256493
 37
-16.000005
 40
229.52931
 41
1.393103
 42
50.0
 43
175.08898
 44
-175.08898
 50
0.0
 51
0.0
 71
22
 72
100
 73
1
 74
0
 75
0
 76
0
 77
0
 78
0
  0
ENDTAB
  0
ENDSEC
  0
SECTION
  2
BLOCKS
  0
BLOCK
  8
1
  5
8
 70
1
 10
0.0
 20
0.0
 30
0.0
  2
*M0
  3
*M0
  0
LINE
  8
1
  5
A
  6
CONTINUOUS
 62
7
 10
-11.47687
 20
12.62266
 30
13.0
 11
-11.47687
 21
12.62266
 31
19.0
  0
LINE
  8
1
  5
C
  6
CONTINUOUS
 62
7
 10
-7.37687
 20
8.52266
 30
13.0
 11
-7.37687
 21
8.52266
 31
19.0
  0
ARC
  8
1
  5
E
  6
CONTINUOUS
 62
7
 210
0.0
 220
0.0
 230
-1.0
 10
19.943533
 20
41.18933
 30
-19.0
 40
4.1
 50
360.0
 51
90.0
  0
LINE
  8
1
  5
10
  6
CONTINUOUS
 62
7
 10
-24.04353
 20
0.056
 30
19.0
 11
-24.04353
 21
41.18933
 31
19.0
  0
ARC
  8
1
  5
12
  6
CONTINUOUS
 62
7
 210
0.0
 220
0.0
 230
-1.0
 10
19.943533
 20
0.055997
 30
-19.0
 40
4.1
 50
270.0
 51
360.0
  0
LINE
  8
1
  5
14
  6
CONTINUOUS
 62
7
 10
21.1898
 20
-4.044
 30
19.0
 11
-19.94353
 21
-4.044
 31
19.0
  0
ARC
  8
1
  5
16
  6
CONTINUOUS
 62
7
 210
0.0
 220
0.0
 230
-1.0
 10
-21.1898
 20
0.055997
 30
-19.0
 40
4.1
 50
180.0
 51
270.0
  0
LINE
  8
1
  5
18
  6
CONTINUOUS
 62
7
 10
25.2898
 20
8.52266
 30
19.0
 11
25.2898
 21
0.056
 31
19.0
  0
ARC
  8
1
  5
1A
  6
CONTINUOUS
 62
7
 210
0.0
 220
0.0
 230
-1.0
 10
-21.1898
 20
8.522663
 30
-19.0
 40
4.1
 50
89.9999916667
 51
180.0
  0
LINE
  8
1
  5
1C
  6
CONTINUOUS
 62
7
 10
-1.57859
 20
12.62266
 30
19.0
 11
21.1898
 21
12.62266
 31
19.0
  0
LINE
  8
1
  5
1E
  6
CONTINUOUS
 62
7
 10
-4.47773
 20
9.72352
 30
19.0
 11
-1.57859
 21
12.62266
 31
19.0
  0
ARC
  8
1
  5
20
  6
CONTINUOUS
 62
7
 10
-7.376867
 20
12.622663
 30
19.0
 40
4.1
 50
135.0000444444
 51
314.9999583333
  0
LINE
  8
1
  5
22
  6
CONTINUOUS
 62
7
 10
-7.37687
 20
18.42094
 30
19.0
 11
-10.27601
 21
15.5218
 31
19.0
  0
LINE
  8
1
  5
24
  6
CONTINUOUS
 62
7
 10
-7.37687
 20
41.18933
 30
19.0
 11
-7.37687
 21
18.42094
 31
19.0
  0
ARC
  8
1
  5
26
  6
CONTINUOUS
 62
7
 210
0.0
 220
0.0
 230
-1.0
 10
11.476867
 20
41.18933
 30
-19.0
 40
4.1
 50
90.0
 51
180.0000083333
  0
LINE
  8
1
  5
28
  6
CONTINUOUS
 62
7
 10
-19.94353
 20
45.28933
 30
19.0
 11
-11.47687
 21
45.28933
 31
19.0
  0
LINE
  8
1
  5
2A
  6
CONTINUOUS
 62
7
 10
-19.94353
 20
45.28933
 30
13.0
 11
-19.94353
 21
45.28933
 31
19.0
  0
ARC
  8
1
  5
2C
  6
CONTINUOUS
 62
7
 210
0.0
 220
0.0
 230
-1.0
 10
19.943533
 20
41.18933
 30
-13.0
 40
4.1
 50
360.0
 51
90.0
  0
LINE
  8
1
  5
2E
  6
CONTINUOUS
 62
7
 10
-24.04353
 20
41.18933
 30
13.0
 11
-24.04353
 21
41.18933
 31
19.0
  0
LINE
  8
1
  5
30
  6
CONTINUOUS
 62
7
 10
-11.47687
 20
45.28933
 30
13.0
 11
-11.47687
 21
45.28933
 31
19.0
  0
LINE
  8
1
  5
32
  6
CONTINUOUS
 62
7
 10
-19.94353
 20
45.28933
 30
13.0
 11
-11.47687
 21
45.28933
 31
13.0
  0
LINE
  8
1
  5
34
  6
CONTINUOUS
 62
7
 10
-7.37687
 20
41.18933
 30
13.0
 11
-7.37687
 21
41.18933
 31
19.0
  0
ARC
  8
1
  5
36
  6
CONTINUOUS
 62
7
 210
0.0
 220
0.0
 230
-1.0
 10
11.476867
 20
41.18933
 30
-13.0
 40
4.1
 50
90.0
 51
180.0000083333
  0
LINE
  8
1
  5
38
  6
CONTINUOUS
 62
7
 10
-7.37687
 20
18.42094
 30
13.0
 11
-7.37687
 21
18.42094
 31
19.0
  0
LINE
  8
1
  5
3A
  6
CONTINUOUS
 62
7
 10
-7.37687
 20
41.18933
 30
13.0
 11
-7.37687
 21
18.42094
 31
13.0
  0
LINE
  8
1
  5
3C
  6
CONTINUOUS
 62
7
 10
-10.27601
 20
15.5218
 30
13.0
 11
-10.27601
 21
15.5218
 31
19.0
  0
LINE
  8
1
  5
3E
  6
CONTINUOUS
 62
7
 10
-7.37687
 20
18.42094
 30
13.0
 11
-10.27601
 21
15.5218
 31
13.0
  0
LINE
  8
1
  5
40
  6
CONTINUOUS
 62
7
 10
-4.47773
 20
9.72352
 30
13.0
 11
-4.47773
 21
9.72352
 31
19.0
  0
ARC
  8
1
  5
42
  6
CONTINUOUS
 62
7
 10
-7.376867
 20
12.622663
 30
13.0
 40
4.1
 50
135.0000444444
 51
314.9999583333
  0
LINE
  8
1
  5
44
  6
CONTINUOUS
 62
7
 10
-1.57859
 20
12.62266
 30
13.0
 11
-1.57859
 21
12.62266
 31
19.0
  0
LINE
  8
1
  5
46
  6
CONTINUOUS
 62
7
 10
-4.47773
 20
9.72352
 30
13.0
 11
-1.57859
 21
12.62266
 31
13.0
  0
LINE
  8
1
  5
48
  6
CONTINUOUS
 62
7
 10
21.1898
 20
12.62266
 30
13.0
 11
21.1898
 21
12.62266
 31
19.0
  0
LINE
  8
1
  5
4A
  6
CONTINUOUS
 62
7
 10
-1.57859
 20
12.62266
 30
13.0
 11
21.1898
 21
12.62266
 31
13.0
  0
LINE
  8
1
  5
4C
  6
CONTINUOUS
 62
7
 10
25.2898
 20
8.52266
 30
13.0
 11
25.2898
 21
8.52266
 31
19.0
  0
ARC
  8
1
  5
4E
  6
CONTINUOUS
 62
7
 210
0.0
 220
0.0
 230
-1.0
 10
-21.1898
 20
8.522663
 30
-13.0
 40
4.1
 50
89.9999916667
 51
180.0
  0
LINE
  8
1
  5
50
  6
CONTINUOUS
 62
7
 10
25.2898
 20
0.056
 30
13.0
 11
25.2898
 21
0.056
 31
19.0
  0
LINE
  8
1
  5
52
  6
CONTINUOUS
 62
7
 10
25.2898
 20
8.52266
 30
13.0
 11
25.2898
 21
0.056
 31
13.0
  0
LINE
  8
1
  5
54
  6
CONTINUOUS
 62
7
 10
21.1898
 20
-4.044
 30
13.0
 11
21.1898
 21
-4.044
 31
19.0
  0
ARC
  8
1
  5
56
  6
CONTINUOUS
 62
7
 210
0.0
 220
0.0
 230
-1.0
 10
-21.1898
 20
0.055997
 30
-13.0
 40
4.1
 50
180.0
 51
270.0
  0
LINE
  8
1
  5
58
  6
CONTINUOUS
 62
7
 10
-19.94353
 20
-4.044
 30
13.0
 11
-19.94353
 21
-4.044
 31
19.0
  0
LINE
  8
1
  5
5A
  6
CONTINUOUS
 62
7
 10
21.1898
 20
-4.044
 30
13.0
 11
-19.94353
 21
-4.044
 31
13.0
  0
LINE
  8
1
  5
5C
  6
CONTINUOUS
 62
7
 10
-24.04353
 20
0.056
 30
13.0
 11
-24.04353
 21
0.056
 31
19.0
  0
ARC
  8
1
  5
5E
  6
CONTINUOUS
 62
7
 210
0.0
 220
0.0
 230
-1.0
 10
19.943533
 20
0.055997
 30
-13.0
 40
4.1
 50
270.0
 51
360.0
  0
LINE
  8
1
  5
60
  6
CONTINUOUS
 62
7
 10
-24.04353
 20
0.056
 30
13.0
 11
-24.04353
 21
41.18933
 31
13.0
  0
ENDBLK
  8
1
  5
61
  0
BLOCK
  8
1
  5
63
 70
1
 10
0.0
 20
0.0
 30
0.0
  2
*M1
  3
*M1
  0
LINE
  8
1
  5
65
  6
CONTINUOUS
 62
7
 10
33.48932
 20
-5.2539
 30
35.0
 11
33.48932
 21
-5.2539
 31
19.0
  0
LINE
  8
1
  5
67
  6
CONTINUOUS
 62
7
 10
45.28932
 20
16.80508
 30
35.0
 11
45.28932
 21
16.80508
 31
19.0
  0
LINE
  8
1
  5
69
  6
CONTINUOUS
 62
7
 10
-40.71068
 20
-20.71068
 30
19.0
 11
29.38932
 21
-20.71068
 31
19.0
  0
LINE
  8
1
  5
6B
  6
CONTINUOUS
 62
7
 10
-40.71068
 20
49.38932
 30
19.0
 11
-40.71068
 21
-20.71068
 31
19.0
  0
LINE
  8
1
  5
6D
  6
CONTINUOUS
 62
7
 10
-29.3539
 20
49.38932
 30
19.0
 11
-40.71068
 21
49.38932
 31
19.0
  0
ARC
  8
1
  5
6F
  6
CONTINUOUS
 62
7
 210
0.0
 220
0.0
 230
-1.0
 10
29.353904
 20
53.48932
 30
-19.0
 40
4.1
 50
164.9999722222
 51
270.0
  0
LINE
  8
1
  5
71
  6
CONTINUOUS
 62
7
 10
-27.98674
 20
64.22816
 30
19.0
 11
-25.39361
 21
54.55048
 31
19.0
  0
ARC
  8
1
  5
73
  6
CONTINUOUS
 62
7
 10
-24.02644
 20
65.28932
 30
19.0
 40
4.1
 50
90.0
 51
194.9999916667
  0
LINE
  8
1
  5
75
  6
CONTINUOUS
 62
7
 10
-7.29492
 20
69.38932
 30
19.0
 11
-24.02644
 21
69.38932
 31
19.0
  0
ARC
  8
1
  5
77
  6
CONTINUOUS
 62
7
 10
-7.29492
 20
65.28932
 30
19.0
 40
4.1
 50
345.0000083333
 51
90.0
  0
LINE
  8
1
  5
79
  6
CONTINUOUS
 62
7
 10
-5.92775
 20
54.55048
 30
19.0
 11
-3.33462
 21
64.22816
 31
19.0
  0
ARC
  8
1
  5
7B
  6
CONTINUOUS
 62
7
 210
0.0
 220
0.0
 230
-1.0
 10
1.967456
 20
53.48932
 30
-19.0
 40
4.1
 50
270.0
 51
15.0000277778
  0
LINE
  8
1
  5
7D
  6
CONTINUOUS
 62
7
 10
9.38932
 20
49.38932
 30
19.0
 11
-1.96746
 21
49.38932
 31
19.0
  0
LINE
  8
1
  5
7F
  6
CONTINUOUS
 62
7
 10
9.38932
 20
33.48932
 30
19.0
 11
9.38932
 21
49.38932
 31
19.0
  0
ARC
  8
1
  5
81
  6
CONTINUOUS
 62
7
 210
0.0
 220
0.0
 230
-1.0
 10
-13.48932
 20
33.48932
 30
-19.0
 40
4.1
 50
270.0
 51
360.0
  0
LINE
  8
1
  5
83
  6
CONTINUOUS
 62
7
 10
29.38932
 20
29.38932
 30
19.0
 11
13.48932
 21
29.38932
 31
19.0
  0
LINE
  8
1
  5
85
  6
CONTINUOUS
 62
7
 10
29.38932
 20
18.03255
 30
19.0
 11
29.38932
 21
29.38932
 31
19.0
  0
ARC
  8
1
  5
87
  6
CONTINUOUS
 62
7
 210
0.0
 220
0.0
 230
-1.0
 10
-33.48932
 20
18.032545
 30
-19.0
 40
4.1
 50
254.9999805556
 51
360.0
  0
LINE
  8
1
  5
89
  6
CONTINUOUS
 62
7
 10
44.22816
 20
16.66538
 30
19.0
 11
34.55048
 21
14.07225
 31
19.0
  0
ARC
  8
1
  5
8B
  6
CONTINUOUS
 62
7
 10
45.28932
 20
12.705083
 30
19.0
 40
4.1
 50
360.0
 51
105.0000111111
  0
LINE
  8
1
  5
8D
  6
CONTINUOUS
 62
7
 10
49.38932
 20
-4.02644
 30
19.0
 11
49.38932
 21
12.70508
 31
19.0
  0
ARC
  8
1
  5
8F
  6
CONTINUOUS
 62
7
 10
45.28932
 20
-4.026436
 30
19.0
 40
4.1
 50
255.0000305556
 51
360.0
  0
LINE
  8
1
  5
91
  6
CONTINUOUS
 62
7
 10
34.55048
 20
-5.39361
 30
19.0
 11
44.22816
 21
-7.98673
 31
19.0
  0
ARC
  8
1
  5
93
  6
CONTINUOUS
 62
7
 210
0.0
 220
0.0
 230
-1.0
 10
-33.48932
 20
-9.353903
 30
-19.0
 40
4.1
 50
360.0
 51
104.9999777778
  0
LINE
  8
1
  5
95
  6
CONTINUOUS
 62
7
 10
29.38932
 20
-20.71068
 30
19.0
 11
29.38932
 21
-9.3539
 31
19.0
  0
LINE
  8
1
  5
97
  6
CONTINUOUS
 62
7
 10
29.38932
 20
-20.71068
 30
35.0
 11
29.38932
 21
-20.71068
 31
19.0
  0
LINE
  8
1
  5
99
  6
CONTINUOUS
 62
7
 10
29.38932
 20
-20.71068
 30
35.0
 11
-40.71068
 21
-20.71068
 31
35.0
  0
LINE
  8
1
  5
9B
  6
CONTINUOUS
 62
7
 10
-40.71068
 20
-20.71068
 30
35.0
 11
-40.71068
 21
-20.71068
 31
19.0
  0
LINE
  8
1
  5
9D
  6
CONTINUOUS
 62
7
 10
29.38932
 20
-9.3539
 30
35.0
 11
29.38932
 21
-9.3539
 31
19.0
  0
LINE
  8
1
  5
9F
  6
CONTINUOUS
 62
7
 10
29.38932
 20
-9.3539
 30
35.0
 11
29.38932
 21
-20.71068
 31
35.0
  0
LINE
  8
1
  5
A1
  6
CONTINUOUS
 62
7
 10
34.55048
 20
-5.39361
 30
35.0
 11
34.55048
 21
-5.39361
 31
19.0
  0
ARC
  8
1
  5
A3
  6
CONTINUOUS
 62
7
 10
33.48932
 20
-9.353903
 30
35.0
 40
4.1
 50
75.0000222222
 51
180.0
  0
LINE
  8
1
  5
A5
  6
CONTINUOUS
 62
7
 10
44.22816
 20
-7.98673
 30
35.0
 11
44.22816
 21
-7.98673
 31
19.0
  0
LINE
  8
1
  5
A7
  6
CONTINUOUS
 62
7
 10
44.22816
 20
-7.98673
 30
35.0
 11
34.55048
 21
-5.39361
 31
35.0
  0
LINE
  8
1
  5
A9
  6
CONTINUOUS
 62
7
 10
49.38932
 20
-4.02644
 30
35.0
 11
49.38932
 21
-4.02644
 31
19.0
  0
ARC
  8
1
  5
AB
  6
CONTINUOUS
 62
7
 210
0.0
 220
0.0
 230
-1.0
 10
-45.28932
 20
-4.026436
 30
-35.0
 40
4.1
 50
180.0
 51
284.9999694444
  0
LINE
  8
1
  5
AD
  6
CONTINUOUS
 62
7
 10
49.38932
 20
12.70508
 30
35.0
 11
49.38932
 21
12.70508
 31
19.0
  0
LINE
  8
1
  5
AF
  6
CONTINUOUS
 62
7
 10
49.38932
 20
12.70508
 30
35.0
 11
49.38932
 21
-4.02644
 31
35.0
  0
LINE
  8
1
  5
B1
  6
CONTINUOUS
 62
7
 10
44.22816
 20
16.66538
 30
35.0
 11
44.22816
 21
16.66538
 31
19.0
  0
ARC
  8
1
  5
B3
  6
CONTINUOUS
 62
7
 210
0.0
 220
0.0
 230
-1.0
 10
-45.28932
 20
12.705083
 30
-35.0
 40
4.1
 50
74.9999888889
 51
180.0
  0
LINE
  8
1
  5
B5
  6
CONTINUOUS
 62
7
 10
34.55048
 20
14.07225
 30
35.0
 11
34.55048
 21
14.07225
 31
19.0
  0
LINE
  8
1
  5
B7
  6
CONTINUOUS
 62
7
 10
34.55048
 20
14.07225
 30
35.0
 11
44.22816
 21
16.66538
 31
35.0
  0
LINE
  8
1
  5
B9
  6
CONTINUOUS
 62
7
 10
29.38932
 20
18.03255
 30
35.0
 11
29.38932
 21
18.03255
 31
19.0
  0
ARC
  8
1
  5
BB
  6
CONTINUOUS
 62
7
 10
33.48932
 20
18.032545
 30
35.0
 40
4.1
 50
180.0
 51
285.0000194444
  0
LINE
  8
1
  5
BD
  6
CONTINUOUS
 62
7
 10
29.38932
 20
29.38932
 30
35.0
 11
29.38932
 21
29.38932
 31
19.0
  0
LINE
  8
1
  5
BF
  6
CONTINUOUS
 62
7
 10
29.38932
 20
29.38932
 30
35.0
 11
29.38932
 21
18.03255
 31
35.0
  0
LINE
  8
1
  5
C1
  6
CONTINUOUS
 62
7
 10
13.48932
 20
29.38932
 30
35.0
 11
13.48932
 21
29.38932
 31
19.0
  0
LINE
  8
1
  5
C3
  6
CONTINUOUS
 62
7
 10
13.48932
 20
29.38932
 30
35.0
 11
29.38932
 21
29.38932
 31
35.0
  0
LINE
  8
1
  5
C5
  6
CONTINUOUS
 62
7
 10
9.38932
 20
33.48932
 30
35.0
 11
9.38932
 21
33.48932
 31
19.0
  0
ARC
  8
1
  5
C7
  6
CONTINUOUS
 62
7
 10
13.48932
 20
33.48932
 30
35.0
 40
4.1
 50
180.0
 51
270.0
  0
LINE
  8
1
  5
C9
  6
CONTINUOUS
 62
7
 10
9.38932
 20
49.38932
 30
35.0
 11
9.38932
 21
49.38932
 31
19.0
  0
LINE
  8
1
  5
CB
  6
CONTINUOUS
 62
7
 10
9.38932
 20
49.38932
 30
35.0
 11
9.38932
 21
33.48932
 31
35.0
  0
LINE
  8
1
  5
CD
  6
CONTINUOUS
 62
7
 10
-1.96746
 20
49.38932
 30
35.0
 11
-1.96746
 21
49.38932
 31
19.0
  0
LINE
  8
1
  5
CF
  6
CONTINUOUS
 62
7
 10
-1.96746
 20
49.38932
 30
35.0
 11
9.38932
 21
49.38932
 31
35.0
  0
LINE
  8
1
  5
D1
  6
CONTINUOUS
 62
7
 10
-5.92775
 20
54.55048
 30
35.0
 11
-5.92775
 21
54.55048
 31
19.0
  0
ARC
  8
1
  5
D3
  6
CONTINUOUS
 62
7
 10
-1.967456
 20
53.48932
 30
35.0
 40
4.1
 50
164.9999722222
 51
270.0
  0
LINE
  8
1
  5
D5
  6
CONTINUOUS
 62
7
 10
-3.33462
 20
64.22816
 30
35.0
 11
-3.33462
 21
64.22816
 31
19.0
  0
LINE
  8
1
  5
D7
  6
CONTINUOUS
 62
7
 10
-3.33462
 20
64.22816
 30
35.0
 11
-5.92775
 21
54.55048
 31
35.0
  0
LINE
  8
1
  5
D9
  6
CONTINUOUS
 62
7
 10
-7.29492
 20
69.38932
 30
35.0
 11
-7.29492
 21
69.38932
 31
19.0
  0
ARC
  8
1
  5
DB
  6
CONTINUOUS
 62
7
 210
0.0
 220
0.0
 230
-1.0
 10
7.29492
 20
65.28932
 30
-35.0
 40
4.1
 50
90.0
 51
194.9999916667
  0
LINE
  8
1
  5
DD
  6
CONTINUOUS
 62
7
 10
-24.02644
 20
69.38932
 30
35.0
 11
-24.02644
 21
69.38932
 31
19.0
  0
LINE
  8
1
  5
DF
  6
CONTINUOUS
 62
7
 10
-24.02644
 20
69.38932
 30
35.0
 11
-7.29492
 21
69.38932
 31
35.0
  0
LINE
  8
1
  5
E1
  6
CONTINUOUS
 62
7
 10
-27.98674
 20
64.22816
 30
35.0
 11
-27.98674
 21
64.22816
 31
19.0
  0
ARC
  8
1
  5
E3
  6
CONTINUOUS
 62
7
 210
0.0
 220
0.0
 230
-1.0
 10
24.02644
 20
65.28932
 30
-35.0
 40
4.1
 50
345.0000083333
 51
90.0
  0
LINE
  8
1
  5
E5
  6
CONTINUOUS
 62
7
 10
-25.39361
 20
54.55048
 30
35.0
 11
-25.39361
 21
54.55048
 31
19.0
  0
LINE
  8
1
  5
E7
  6
CONTINUOUS
 62
7
 10
-25.39361
 20
54.55048
 30
35.0
 11
-27.98674
 21
64.22816
 31
35.0
  0
LINE
  8
1
  5
E9
  6
CONTINUOUS
 62
7
 10
-29.3539
 20
49.38932
 30
35.0
 11
-29.3539
 21
49.38932
 31
19.0
  0
ARC
  8
1
  5
EB
  6
CONTINUOUS
 62
7
 10
-29.353904
 20
53.48932
 30
35.0
 40
4.1
 50
270.0
 51
15.0000277778
  0
LINE
  8
1
  5
ED
  6
CONTINUOUS
 62
7
 10
-40.71068
 20
49.38932
 30
35.0
 11
-40.71068
 21
49.38932
 31
19.0
  0
LINE
  8
1
  5
EF
  6
CONTINUOUS
 62
7
 10
-40.71068
 20
49.38932
 30
35.0
 11
-29.3539
 21
49.38932
 31
35.0
  0
LINE
  8
1
  5
F1
  6
CONTINUOUS
 62
7
 10
-40.71068
 20
-20.71068
 30
35.0
 11
-40.71068
 21
49.38932
 31
35.0
  0
ENDBLK
  8
1
  5
F2
  0
BLOCK
  8
1
  5
F4
 70
1
 10
0.0
 20
0.0
 30
0.0
  2
*M2
  3
*M2
  0
INSERT
  8
1
  5
F6
  6
CONTINUOUS
 62
7
  2
*M0
 10
0.0
 20
0.0
 30
0.0
 41
1.0
 42
1.0
 43
1.0
 70
1
 71
1
  0
INSERT
  8
1
  5
F8
  6
CONTINUOUS
 62
7
  2
*M1
 10
0.0
 20
0.0
 30
0.0
 41
1.0
 42
1.0
 43
1.0
 70
1
 71
1
  0
ENDBLK
  8
1
  5
F9
  0
BLOCK
  8
1
  5
FB
 70
1
 10
0.0
 20
0.0
 30
0.0
  2
*M3
  3
*M3
  0
LINE
  8
1
  5
FD
  6
CONTINUOUS
 62
7
 10
68.74322
 20
155.1
 30
-16.0
 11
80.00049
 21
155.1
 31
-16.0
  0
ARC
  8
1
  5
FF
  6
CONTINUOUS
 62
7
 10
68.743224
 20
159.2
 30
-16.0
 40
4.1
 50
164.9999722222
 51
270.0
  0
LINE
  8
1
  5
101
  6
CONTINUOUS
 62
7
 10
67.37606
 20
169.93884
 30
-16.0
 11
64.78293
 21
160.26116
 31
-16.0
  0
ARC
  8
1
  5
103
  6
CONTINUOUS
 62
7
 210
0.0
 220
0.0
 230
-1.0
 10
-63.41576
 20
171.0
 30
16.0
 40
4.1
 50
90.0
 51
194.9999916667
  0
LINE
  8
1
  5
105
  6
CONTINUOUS
 62
7
 10
46.68424
 20
175.1
 30
-16.0
 11
63.41576
 21
175.1
 31
-16.0
  0
ARC
  8
1
  5
107
  6
CONTINUOUS
 62
7
 210
0.0
 220
0.0
 230
-1.0
 10
-46.68424
 20
171.0
 30
16.0
 40
4.1
 50
345.0000083333
 51
90.0
  0
LINE
  8
1
  5
109
  6
CONTINUOUS
 62
7
 10
45.31707
 20
160.26116
 30
-16.0
 11
42.72394
 21
169.93884
 31
-16.0
  0
ARC
  8
1
  5
10B
  6
CONTINUOUS
 62
7
 10
41.356776
 20
159.2
 30
-16.0
 40
4.1
 50
270.0
 51
15.0000277778
  0
LINE
  8
1
  5
10D
  6
CONTINUOUS
 62
7
 10
30.00049
 20
155.1
 30
-16.0
 11
41.35678
 21
155.1
 31
-16.0
  0
LINE
  8
1
  5
10F
  6
CONTINUOUS
 62
7
 10
30.00049
 20
85.0
 30
-16.0
 11
30.00049
 21
155.1
 31
-16.0
  0
LINE
  8
1
  5
111
  6
CONTINUOUS
 62
7
 10
80.00049
 20
155.1
 30
-16.0
 11
80.00049
 21
135.0
 31
-16.0
  0
LINE
  8
1
  5
113
  6
CONTINUOUS
 62
7
 10
30.00049
 20
85.0
 30
-32.0
 11
30.00049
 21
85.0
 31
-16.0
  0
LINE
  8
1
  5
115
  6
CONTINUOUS
 62
7
 10
80.00049
 20
135.0
 30
-32.0
 11
80.00049
 21
135.0
 31
-16.0
  0
LINE
  8
1
  5
117
  6
CONTINUOUS
 62
7
 10
30.00049
 20
275.0
 30
-32.0
 11
80.00049
 21
275.0
 31
-32.0
  0
LINE
  8
1
  5
119
  6
CONTINUOUS
 62
7
 10
80.00049
 20
275.0
 30
-32.0
 11
80.00049
 21
135.0
 31
-32.0
  0
LINE
  8
1
  5
11B
  6
CONTINUOUS
 62
7
 10
30.00049
 20
85.0
 30
-32.0
 11
30.00049
 21
275.0
 31
-32.0
  0
LINE
  8
1
  5
11D
  6
CONTINUOUS
 62
7
 10
41.35678
 20
155.1
 30
0.0
 11
41.35678
 21
155.1
 31
-16.0
  0
LINE
  8
1
  5
11F
  6
CONTINUOUS
 62
7
 10
30.00049
 20
155.1
 30
0.0
 11
41.35678
 21
155.1
 31
0.0
  0
LINE
  8
1
  5
121
  6
CONTINUOUS
 62
7
 10
30.00049
 20
155.1
 30
0.0
 11
30.00049
 21
155.1
 31
-16.0
  0
LINE
  8
1
  5
123
  6
CONTINUOUS
 62
7
 10
45.31707
 20
160.26116
 30
0.0
 11
45.31707
 21
160.26116
 31
-16.0
  0
ARC
  8
1
  5
125
  6
CONTINUOUS
 62
7
 10
41.356776
 20
159.2
 30
-6.346296E-015
 40
4.1
 50
270.0
 51
15.0000277778
  0
LINE
  8
1
  5
127
  6
CONTINUOUS
 62
7
 10
42.72394
 20
169.93884
 30
0.0
 11
42.72394
 21
169.93884
 31
-16.0
  0
LINE
  8
1
  5
129
  6
CONTINUOUS
 62
7
 10
45.31707
 20
160.26116
 30
0.0
 11
42.72394
 21
169.93884
 31
0.0
  0
LINE
  8
1
  5
12B
  6
CONTINUOUS
 62
7
 10
46.68424
 20
175.1
 30
0.0
 11
46.68424
 21
175.1
 31
-16.0
  0
ARC
  8
1
  5
12D
  6
CONTINUOUS
 62
7
 210
0.0
 220
0.0
 230
-1.0
 10
-46.68424
 20
171.0
 30
5.297576E-015
 40
4.1
 50
345.0000083333
 51
90.0
  0
LINE
  8
1
  5
12F
  6
CONTINUOUS
 62
7
 10
63.41576
 20
175.1
 30
0.0
 11
63.41576
 21
175.1
 31
-16.0
  0
LINE
  8
1
  5
131
  6
CONTINUOUS
 62
7
 10
46.68424
 20
175.1
 30
0.0
 11
63.41576
 21
175.1
 31
0.0
  0
LINE
  8
1
  5
133
  6
CONTINUOUS
 62
7
 10
67.37606
 20
169.93884
 30
0.0
 11
67.37606
 21
169.93884
 31
-16.0
  0
ARC
  8
1
  5
135
  6
CONTINUOUS
 62
7
 210
0.0
 220
0.0
 230
-1.0
 10
-63.41576
 20
171.0
 30
4.273100E-015
 40
4.1
 50
90.0
 51
194.9999916667
  0
LINE
  8
1
  5
137
  6
CONTINUOUS
 62
7
 10
64.78293
 20
160.26116
 30
0.0
 11
64.78293
 21
160.26116
 31
-16.0
  0
LINE
  8
1
  5
139
  6
CONTINUOUS
 62
7
 10
67.37606
 20
169.93884
 30
0.0
 11
64.78293
 21
160.26116
 31
0.0
  0
LINE
  8
1
  5
13B
  6
CONTINUOUS
 62
7
 10
68.74322
 20
155.1
 30
0.0
 11
68.74322
 21
155.1
 31
-16.0
  0
ARC
  8
1
  5
13D
  6
CONTINUOUS
 62
7
 10
68.743224
 20
159.2
 30
-4.669415E-015
 40
4.1
 50
164.9999722222
 51
270.0
  0
LINE
  8
1
  5
13F
  6
CONTINUOUS
 62
7
 10
80.00049
 20
155.1
 30
0.0
 11
80.00049
 21
155.1
 31
-16.0
  0
LINE
  8
1
  5
141
  6
CONTINUOUS
 62
7
 10
68.74322
 20
155.1
 30
0.0
 11
80.00049
 21
155.1
 31
0.0
  0
LINE
  8
1
  5
143
  6
CONTINUOUS
 62
7
 10
80.00049
 20
275.0
 30
0.0
 11
80.00049
 21
275.0
 31
-32.0
  0
LINE
  8
1
  5
145
  6
CONTINUOUS
 62
7
 10
80.00049
 20
155.1
 30
0.0
 11
80.00049
 21
275.0
 31
0.0
  0
LINE
  8
1
  5
147
  6
CONTINUOUS
 62
7
 10
30.00049
 20
275.0
 30
0.0
 11
30.00049
 21
275.0
 31
-32.0
  0
LINE
  8
1
  5
149
  6
CONTINUOUS
 62
7
 10
80.00049
 20
275.0
 30
0.0
 11
30.00049
 21
275.0
 31
0.0
  0
LINE
  8
1
  5
14B
  6
CONTINUOUS
 62
7
 10
30.00049
 20
275.0
 30
0.0
 11
30.00049
 21
155.1
 31
0.0
  0
ENDBLK
  8
1
  5
14C
  0
BLOCK
  8
1
  5
14E
 70
1
 10
0.0
 20
0.0
 30
0.0
  2
*M4
  3
*M4
  0
LINE
  8
1
  5
150
  6
CONTINUOUS
 62
7
 10
46.66716
 20
101.66667
 30
-16.0
 11
46.66667
 21
101.66667
 31
-16.0
  0
LINE
  8
1
  5
152
  6
CONTINUOUS
 62
7
 10
46.66667
 20
101.66667
 30
-16.0
 11
46.66667
 21
146.9
 31
-16.0
  0
ARC
  8
1
  5
154
  6
CONTINUOUS
 62
7
 210
0.0
 220
0.0
 230
-1.0
 10
-50.766667
 20
146.9
 30
16.0
 40
4.1
 50
359.9999944444
 51
90.0
  0
LINE
  8
1
  5
156
  6
CONTINUOUS
 62
7
 10
50.76667
 20
151.0
 30
-16.0
 11
59.23333
 21
151.0
 31
-16.0
  0
ARC
  8
1
  5
158
  6
CONTINUOUS
 62
7
 210
0.0
 220
0.0
 230
-1.0
 10
-59.233333
 20
146.9
 30
16.0
 40
4.1
 50
90.0
 51
180.0000055556
  0
LINE
  8
1
  5
15A
  6
CONTINUOUS
 62
7
 10
63.33333
 20
146.9
 30
-16.0
 11
63.33333
 21
118.33333
 31
-16.0
  0
LINE
  8
1
  5
15C
  6
CONTINUOUS
 62
7
 10
63.33333
 20
118.33333
 30
-16.0
 11
63.33382
 21
118.33333
 31
-16.0
  0
LINE
  8
1
  5
15E
  6
CONTINUOUS
 62
7
 10
50.76667
 20
151.0
 30
-22.0
 11
50.76667
 21
151.0
 31
-16.0
  0
LINE
  8
1
  5
160
  6
CONTINUOUS
 62
7
 10
59.23333
 20
151.0
 30
-22.0
 11
50.76667
 21
151.0
 31
-22.0
  0
LINE
  8
1
  5
162
  6
CONTINUOUS
 62
7
 10
59.23333
 20
151.0
 30
-22.0
 11
59.23333
 21
151.0
 31
-16.0
  0
ARC
  8
1
  5
164
  6
CONTINUOUS
 62
7
 10
59.233333
 20
146.9
 30
-22.0
 40
4.1
 50
359.9999944444
 51
90.0
  0
LINE
  8
1
  5
166
  6
CONTINUOUS
 62
7
 10
63.33333
 20
146.9
 30
-22.0
 11
63.33333
 21
146.9
 31
-16.0
  0
LINE
  8
1
  5
168
  6
CONTINUOUS
 62
7
 10
63.33333
 20
118.33333
 30
-22.0
 11
63.33333
 21
146.9
 31
-22.0
  0
LINE
  8
1
  5
16A
  6
CONTINUOUS
 62
7
 10
63.33333
 20
118.33333
 30
-22.0
 11
63.33333
 21
118.33333
 31
-16.0
  0
LINE
  8
1
  5
16C
  6
CONTINUOUS
 62
7
 10
63.33382
 20
118.33333
 30
-22.0
 11
63.33333
 21
118.33333
 31
-22.0
  0
LINE
  8
1
  5
16E
  6
CONTINUOUS
 62
7
 10
63.33382
 20
118.33333
 30
-16.0
 11
63.33382
 21
118.33333
 31
-22.0
  0
LINE
  8
1
  5
170
  6
CONTINUOUS
 62
7
 10
46.66716
 20
101.66667
 30
-22.0
 11
46.66716
 21
101.66667
 31
-16.0
  0
LINE
  8
1
  5
172
  6
CONTINUOUS
 62
7
 10
46.66667
 20
101.66667
 30
-22.0
 11
46.66716
 21
101.66667
 31
-22.0
  0
LINE
  8
1
  5
174
  6
CONTINUOUS
 62
7
 10
46.66667
 20
101.66667
 30
-22.0
 11
46.66667
 21
101.66667
 31
-16.0
  0
LINE
  8
1
  5
176
  6
CONTINUOUS
 62
7
 10
46.66667
 20
146.9
 30
-22.0
 11
46.66667
 21
101.66667
 31
-22.0
  0
LINE
  8
1
  5
178
  6
CONTINUOUS
 62
7
 10
46.66667
 20
146.9
 30
-22.0
 11
46.66667
 21
146.9
 31
-16.0
  0
ARC
  8
1
  5
17A
  6
CONTINUOUS
 62
7
 10
50.766667
 20
146.9
 30
-22.0
 40
4.1
 50
90.0
 51
180.0000055556
  0
LINE
  8
1
  5
17C
  6
CONTINUOUS
 62
7
 10
63.33382
 20
118.33333
 30
-22.0
 11
46.66716
 21
101.66667
 31
-22.0
  0
ENDBLK
  8
1
  5
17D
  0
BLOCK
  8
1
  5
17F
 70
1
 10
0.0
 20
0.0
 30
0.0
  2
*M5
  3
*M5
  0
LINE
  8
1
  5
181
  6
CONTINUOUS
 62
7
 10
46.66716
 20
101.66667
 30
-16.0
 11
30.00049
 21
85.0
 31
-16.0
  0
LINE
  8
1
  5
183
  6
CONTINUOUS
 62
7
 10
80.00049
 20
135.0
 30
-16.0
 11
63.33382
 21
118.33333
 31
-16.0
  0
LINE
  8
1
  5
185
  6
CONTINUOUS
 62
7
 10
80.00049
 20
135.0
 30
-32.0
 11
30.00049
 21
85.0
 31
-32.0
  0
ENDBLK
  8
1
  5
186
  0
BLOCK
  8
1
  5
188
 70
1
 10
0.0
 20
0.0
 30
0.0
  2
*M6
  3
*M6
  0
INSERT
  8
1
  5
18A
  6
CONTINUOUS
 62
7
  2
*M4
 10
0.0
 20
0.0
 30
0.0
 41
1.0
 42
1.0
 43
1.0
 70
1
 71
1
  0
INSERT
  8
1
  5
18C
  6
CONTINUOUS
 62
7
  2
*M5
 10
0.0
 20
0.0
 30
0.0
 41
1.0
 42
1.0
 43
1.0
 70
1
 71
1
  0
ENDBLK
  8
1
  5
18D
  0
BLOCK
  8
1
  5
18F
 70
1
 10
0.0
 20
0.0
 30
0.0
  2
*M7
  3
*M7
  0
INSERT
  8
1
  5
191
  6
CONTINUOUS
 62
7
  2
*M3
 10
0.0
 20
0.0
 30
0.0
 41
1.0
 42
1.0
 43
1.0
 70
1
 71
1
  0
INSERT
  8
1
  5
193
  6
CONTINUOUS
 62
7
  2
*M6
 10
0.0
 20
0.0
 30
0.0
 41
1.0
 42
1.0
 43
1.0
 70
1
 71
1
  0
ENDBLK
  8
1
  5
194
  0
BLOCK
  8
1
  5
196
 70
1
 10
0.0
 20
0.0
 30
0.0
  2
*M8
  3
*M8
  0
LINE
  8
1
  5
198
  6
CONTINUOUS
 62
7
 10
98.33333
 20
83.33434
 30
-16.0
 11
98.33333
 21
83.33333
 31
-16.0
  0
LINE
  8
1
  5
19A
  6
CONTINUOUS
 62
7
 10
98.33333
 20
83.33333
 30
-16.0
 11
126.9
 21
83.33333
 31
-16.0
  0
ARC
  8
1
  5
19C
  6
CONTINUOUS
 62
7
 210
0.0
 220
0.0
 230
-1.0
 10
-126.9
 20
79.233333
 30
16.0
 40
4.1
 50
89.9999944444
 51
180.0
  0
LINE
  8
1
  5
19E
  6
CONTINUOUS
 62
7
 10
131.0
 20
79.23333
 30
-16.0
 11
131.0
 21
70.76667
 31
-16.0
  0
ARC
  8
1
  5
1A0
  6
CONTINUOUS
 62
7
 210
0.0
 220
0.0
 230
-1.0
 10
-126.9
 20
70.766667
 30
16.0
 40
4.1
 50
180.0
 51
270.0000055556
  0
LINE
  8
1
  5
1A2
  6
CONTINUOUS
 62
7
 10
126.9
 20
66.66667
 30
-16.0
 11
81.66667
 21
66.66667
 31
-16.0
  0
LINE
  8
1
  5
1A4
  6
CONTINUOUS
 62
7
 10
81.66667
 20
66.66667
 30
-16.0
 11
81.66667
 21
66.66768
 31
-16.0
  0
LINE
  8
1
  5
1A6
  6
CONTINUOUS
 62
7
 10
131.0
 20
79.23333
 30
-22.0
 11
131.0
 21
79.23333
 31
-16.0
  0
LINE
  8
1
  5
1A8
  6
CONTINUOUS
 62
7
 10
131.0
 20
79.23333
 30
-22.0
 11
131.0
 21
70.76667
 31
-22.0
  0
LINE
  8
1
  5
1AA
  6
CONTINUOUS
 62
7
 10
131.0
 20
70.76667
 30
-22.0
 11
131.0
 21
70.76667
 31
-16.0
  0
ARC
  8
1
  5
1AC
  6
CONTINUOUS
 62
7
 210
0.0
 220
0.0
 230
-1.0
 10
-126.9
 20
70.766667
 30
22.0
 40
4.1
 50
180.0
 51
270.0000055556
  0
LINE
  8
1
  5
1AE
  6
CONTINUOUS
 62
7
 10
126.9
 20
66.66667
 30
-22.0
 11
126.9
 21
66.66667
 31
-16.0
  0
LINE
  8
1
  5
1B0
  6
CONTINUOUS
 62
7
 10
126.9
 20
66.66667
 30
-22.0
 11
81.66667
 21
66.66667
 31
-22.0
  0
LINE
  8
1
  5
1B2
  6
CONTINUOUS
 62
7
 10
81.66667
 20
66.66667
 30
-22.0
 11
81.66667
 21
66.66667
 31
-16.0
  0
LINE
  8
1
  5
1B4
  6
CONTINUOUS
 62
7
 10
81.66667
 20
66.66667
 30
-22.0
 11
81.66667
 21
66.66768
 31
-22.0
  0
LINE
  8
1
  5
1B6
  6
CONTINUOUS
 62
7
 10
81.66667
 20
66.66768
 30
-16.0
 11
81.66667
 21
66.66768
 31
-22.0
  0
LINE
  8
1
  5
1B8
  6
CONTINUOUS
 62
7
 10
98.33333
 20
83.33434
 30
-22.0
 11
98.33333
 21
83.33434
 31
-16.0
  0
LINE
  8
1
  5
1BA
  6
CONTINUOUS
 62
7
 10
98.33333
 20
83.33434
 30
-22.0
 11
98.33333
 21
83.33333
 31
-22.0
  0
LINE
  8
1
  5
1BC
  6
CONTINUOUS
 62
7
 10
98.33333
 20
83.33333
 30
-22.0
 11
98.33333
 21
83.33333
 31
-16.0
  0
LINE
  8
1
  5
1BE
  6
CONTINUOUS
 62
7
 10
98.33333
 20
83.33333
 30
-22.0
 11
126.9
 21
83.33333
 31
-22.0
  0
LINE
  8
1
  5
1C0
  6
CONTINUOUS
 62
7
 10
126.9
 20
83.33333
 30
-22.0
 11
126.9
 21
83.33333
 31
-16.0
  0
ARC
  8
1
  5
1C2
  6
CONTINUOUS
 62
7
 210
0.0
 220
0.0
 230
-1.0
 10
-126.9
 20
79.233333
 30
22.0
 40
4.1
 50
89.9999944444
 51
180.0
  0
LINE
  8
1
  5
1C4
  6
CONTINUOUS
 62
7
 10
81.66667
 20
66.66768
 30
-22.0
 11
98.33333
 21
83.33434
 31
-22.0
  0
ENDBLK
  8
1
  5
1C5
  0
BLOCK
  8
1
  5
1C7
 70
1
 10
0.0
 20
0.0
 30
0.0
  2
*M9
  3
*M9
  0
LINE
  8
1
  5
1C9
  6
CONTINUOUS
 62
7
 10
135.1
 20
88.74323
 30
-16.0
 11
135.1
 21
100.0015
 31
-16.0
  0
LINE
  8
1
  5
1CB
  6
CONTINUOUS
 62
7
 10
135.1
 20
100.0015
 30
0.0
 11
135.1
 21
100.0015
 31
-16.0
  0
ARC
  8
1
  5
1CD
  6
CONTINUOUS
 62
7
 210
0.0
 220
0.0
 230
-1.0
 10
-139.2
 20
88.743225
 30
16.0
 40
4.1
 50
254.9999805556
 51
360.0
  0
LINE
  8
1
  5
1CF
  6
CONTINUOUS
 62
7
 10
149.93884
 20
87.37606
 30
-16.0
 11
140.26116
 21
84.78293
 31
-16.0
  0
ARC
  8
1
  5
1D1
  6
CONTINUOUS
 62
7
 10
151.0
 20
83.415763
 30
-16.0
 40
4.1
 50
360.0
 51
105.0000111111
  0
LINE
  8
1
  5
1D3
  6
CONTINUOUS
 62
7
 10
155.1
 20
66.68424
 30
-16.0
 11
155.1
 21
83.41576
 31
-16.0
  0
LINE
  8
1
  5
1D5
  6
CONTINUOUS
 62
7
 10
155.1
 20
66.68427
 30
-16.0
 11
155.1
 21
66.68424
 31
-16.0
  0
ARC
  8
1
  5
1D7
  6
CONTINUOUS
 62
7
 10
151.0
 20
66.684244
 30
-16.0
 40
4.1
 50
255.0000305556
 51
0.0003972222
  0
LINE
  8
1
  5
1D9
  6
CONTINUOUS
 62
7
 10
140.26116
 20
65.31707
 30
-16.0
 11
149.93884
 21
62.72395
 31
-16.0
  0
ARC
  8
1
  5
1DB
  6
CONTINUOUS
 62
7
 210
0.0
 220
0.0
 230
-1.0
 10
-139.2
 20
61.356777
 30
16.0
 40
4.1
 50
360.0
 51
104.9999777778
  0
LINE
  8
1
  5
1DD
  6
CONTINUOUS
 62
7
 10
135.1
 20
50.0015
 30
-16.0
 11
135.1
 21
61.35678
 31
-16.0
  0
LINE
  8
1
  5
1DF
  6
CONTINUOUS
 62
7
 10
135.1
 20
50.0015
 30
0.0
 11
135.1
 21
50.0015
 31
-16.0
  0
LINE
  8
1
  5
1E1
  6
CONTINUOUS
 62
7
 10
255.00049
 20
50.0015
 30
0.0
 11
135.1
 21
50.0015
 31
0.0
  0
LINE
  8
1
  5
1E3
  6
CONTINUOUS
 62
7
 10
255.00049
 20
100.0015
 30
0.0
 11
255.00049
 21
50.0015
 31
0.0
  0
LINE
  8
1
  5
1E5
  6
CONTINUOUS
 62
7
 10
135.1
 20
100.0015
 30
0.0
 11
255.00049
 21
100.0015
 31
0.0
  0
LINE
  8
1
  5
1E7
  6
CONTINUOUS
 62
7
 10
115.00049
 20
100.0015
 30
-16.0
 11
135.1
 21
100.0015
 31
-16.0
  0
LINE
  8
1
  5
1E9
  6
CONTINUOUS
 62
7
 10
98.33333
 20
83.33434
 30
-16.0
 11
115.00049
 21
100.0015
 31
-16.0
  0
LINE
  8
1
  5
1EB
  6
CONTINUOUS
 62
7
 10
65.00049
 20
50.0015
 30
-16.0
 11
81.66667
 21
66.66768
 31
-16.0
  0
LINE
  8
1
  5
1ED
  6
CONTINUOUS
 62
7
 10
135.1
 20
50.0015
 30
-16.0
 11
65.00049
 21
50.0015
 31
-16.0
  0
LINE
  8
1
  5
1EF
  6
CONTINUOUS
 62
7
 10
115.00049
 20
100.0015
 30
-32.0
 11
115.00049
 21
100.0015
 31
-16.0
  0
LINE
  8
1
  5
1F1
  6
CONTINUOUS
 62
7
 10
65.00049
 20
50.0015
 30
-32.0
 11
115.00049
 21
100.0015
 31
-32.0
  0
LINE
  8
1
  5
1F3
  6
CONTINUOUS
 62
7
 10
65.00049
 20
50.0015
 30
-32.0
 11
65.00049
 21
50.0015
 31
-16.0
  0
LINE
  8
1
  5
1F5
  6
CONTINUOUS
 62
7
 10
255.00049
 20
100.0015
 30
-32.0
 11
255.00049
 21
100.0015
 31
0.0
  0
LINE
  8
1
  5
1F7
  6
CONTINUOUS
 62
7
 10
115.00049
 20
100.0015
 30
-32.0
 11
255.00049
 21
100.0015
 31
-32.0
  0
LINE
  8
1
  5
1F9
  6
CONTINUOUS
 62
7
 10
255.00049
 20
50.0015
 30
-32.0
 11
255.00049
 21
50.0015
 31
0.0
  0
LINE
  8
1
  5
1FB
  6
CONTINUOUS
 62
7
 10
255.00049
 20
100.0015
 30
-32.0
 11
255.00049
 21
50.0015
 31
-32.0
  0
LINE
  8
1
  5
1FD
  6
CONTINUOUS
 62
7
 10
255.00049
 20
50.0015
 30
-32.0
 11
65.00049
 21
50.0015
 31
-32.0
  0
ENDBLK
  8
1
  5
1FE
  0
BLOCK
  8
1
  5
200
 70
1
 10
0.0
 20
0.0
 30
0.0
  2
*M10
  3
*M10
  0
INSERT
  8
1
  5
202
  6
CONTINUOUS
 62
7
  2
*M8
 10
0.0
 20
0.0
 30
0.0
 41
1.0
 42
1.0
 43
1.0
 70
1
 71
1
  0
INSERT
  8
1
  5
204
  6
CONTINUOUS
 62
7
  2
*M9
 10
0.0
 20
0.0
 30
0.0
 41
1.0
 42
1.0
 43
1.0
 70
1
 71
1
  0
ENDBLK
  8
1
  5
205
  0
BLOCK
  8
1
  5
207
 70
1
 10
0.0
 20
0.0
 30
0.0
  2
*M11
  3
*M11
  0
LINE
  8
1
  5
209
  6
CONTINUOUS
 62
7
 10
151.0
 20
87.51576
 30
0.0
 11
151.0
 21
87.51576
 31
-16.0
  0
LINE
  8
1
  5
20B
  6
CONTINUOUS
 62
7
 10
155.1
 20
83.41576
 30
0.0
 11
155.1
 21
83.41576
 31
-16.0
  0
LINE
  8
1
  5
20D
  6
CONTINUOUS
 62
7
 10
139.2
 20
65.45678
 30
0.0
 11
139.2
 21
65.45678
 31
-16.0
  0
LINE
  8
1
  5
20F
  6
CONTINUOUS
 62
7
 10
135.1
 20
61.35678
 30
0.0
 11
135.1
 21
61.35678
 31
-16.0
  0
LINE
  8
1
  5
211
  6
CONTINUOUS
 62
7
 10
135.1
 20
88.74323
 30
0.0
 11
135.1
 21
88.74323
 31
-16.0
  0
LINE
  8
1
  5
213
  6
CONTINUOUS
 62
7
 10
135.1
 20
88.74323
 30
0.0
 11
135.1
 21
100.0015
 31
0.0
  0
LINE
  8
1
  5
215
  6
CONTINUOUS
 62
7
 10
140.26116
 20
84.78293
 30
0.0
 11
140.26116
 21
84.78293
 31
-16.0
  0
ARC
  8
1
  5
217
  6
CONTINUOUS
 62
7
 210
0.0
 220
0.0
 230
-1.0
 10
-139.2
 20
88.743225
 30
4.669415E-015
 40
4.1
 50
254.9999805556
 51
360.0
  0
LINE
  8
1
  5
219
  6
CONTINUOUS
 62
7
 10
149.93884
 20
87.37606
 30
0.0
 11
149.93884
 21
87.37606
 31
-16.0
  0
LINE
  8
1
  5
21B
  6
CONTINUOUS
 62
7
 10
149.93884
 20
87.37606
 30
0.0
 11
140.26116
 21
84.78293
 31
0.0
  0
LINE
  8
1
  5
21D
  6
CONTINUOUS
 62
7
 10
155.1
 20
83.41576
 30
0.0
 11
155.1
 21
83.41576
 31
-16.0
  0
ARC
  8
1
  5
21F
  6
CONTINUOUS
 62
7
 10
151.0
 20
83.415763
 30
-4.273100E-015
 40
4.1
 50
360.0
 51
105.0000111111
  0
LINE
  8
1
  5
221
  6
CONTINUOUS
 62
7
 10
155.1
 20
66.68424
 30
0.0
 11
155.1
 21
66.68424
 31
-16.0
  0
LINE
  8
1
  5
223
  6
CONTINUOUS
 62
7
 10
155.1
 20
66.68424
 30
0.0
 11
155.1
 21
83.41576
 31
0.0
  0
LINE
  8
1
  5
225
  6
CONTINUOUS
 62
7
 10
155.1
 20
66.68427
 30
0.0
 11
155.1
 21
66.68427
 31
-16.0
  0
LINE
  8
1
  5
227
  6
CONTINUOUS
 62
7
 10
155.1
 20
66.68427
 30
0.0
 11
155.1
 21
66.68424
 31
0.0
  0
LINE
  8
1
  5
229
  6
CONTINUOUS
 62
7
 10
149.93884
 20
62.72395
 30
0.0
 11
149.93884
 21
62.72395
 31
-16.0
  0
ARC
  8
1
  5
22B
  6
CONTINUOUS
 62
7
 10
151.0
 20
66.684244
 30
-5.297576E-015
 40
4.1
 50
255.0000305556
 51
0.0003972222
  0
LINE
  8
1
  5
22D
  6
CONTINUOUS
 62
7
 10
140.26116
 20
65.31707
 30
0.0
 11
140.26116
 21
65.31707
 31
-16.0
  0
LINE
  8
1
  5
22F
  6
CONTINUOUS
 62
7
 10
140.26116
 20
65.31707
 30
0.0
 11
149.93884
 21
62.72395
 31
0.0
  0
LINE
  8
1
  5
231
  6
CONTINUOUS
 62
7
 10
135.1
 20
61.35678
 30
0.0
 11
135.1
 21
61.35678
 31
-16.0
  0
ARC
  8
1
  5
233
  6
CONTINUOUS
 62
7
 210
0.0
 220
0.0
 230
-1.0
 10
-139.2
 20
61.356777
 30
6.346296E-015
 40
4.1
 50
360.0
 51
104.9999777778
  0
LINE
  8
1
  5
235
  6
CONTINUOUS
 62
7
 10
135.1
 20
50.0015
 30
0.0
 11
135.1
 21
61.35678
 31
0.0
  0
ENDBLK
  8
1
  5
236
  0
BLOCK
  8
1
  5
238
 70
1
 10
0.0
 20
0.0
 30
0.0
  2
*M12
  3
*M12
  0
INSERT
  8
1
  5
23A
  6
CONTINUOUS
 62
7
  2
*M10
 10
0.0
 20
0.0
 30
0.0
 41
1.0
 42
1.0
 43
1.0
 70
1
 71
1
  0
INSERT
  8
1
  5
23C
  6
CONTINUOUS
 62
7
  2
*M11
 10
0.0
 20
0.0
 30
0.0
 41
1.0
 42
1.0
 43
1.0
 70
1
 71
1
  0
ENDBLK
  8
1
  5
23D
  0
ENDSEC
  0
SECTION
  2
ENTITIES
  0
INSERT
  8
1
  5
2
  6
CONTINUOUS
 62
7
  2
*M2
 10
-8.68484
 20
-348.17485
 30
-45.0
 41
1.0
 42
1.0
 43
1.0
 70
1
 71
1
  0
INSERT
  8
1
  5
4
  6
CONTINUOUS
 62
7
  2
*M7
 10
2.92632
 20
-336.20786
 30
0.0
 41
1.0
 42
1.0
 43
1.0
 70
1
 71
1
  0
INSERT
  8
1
  5
6
  6
CONTINUOUS
 62
7
  2
*M12
 10
3.28166
 20
-336.5647
 30
0.0
 41
1.0
 42
1.0
 43
1.0
 70
1
 71
1
  0
ENDSEC
  0
EOF
