  0
SECTION
  2
HEADER
  9
$ACADVER
  1
AC1009
  9
$INSBASE
 10
0.0
 20
0.0
 30
0.0
  9
$EXTMAX
 10
223.44522
 20
-76.46004
 30
16.0
  9
$EXTMIN
 10
-47.72884
 20
-266.46004
 30
-16.0
  9
$LIMMAX
 10
12.0
 20
9.0
  9
$LIMMIN
 10
0.0
 20
0.0
  9
$ORTHOMODE
 70
0
  9
$REGENMODE
 70
1
  9
$FILLMODE
 70
1
  9
$QTEXTMODE
 70
0
  9
$MIRRTEXT
 70
1
  9
$DRAGMODE
 70
2
  9
$LTSCALE
 40
1.0
  9
$OSMODE
 70
0
  9
$ATTMODE
 70
1
  9
$TEXTSIZE
 40
0.2
  9
$TRACEWID
 40
0.05
  9
$TEXTSTYLE
  7
STANDARD
  9
$CLAYER
  8
0
  9
$CELTYPE
  6
CONTINUOUS
  9
$CECOLOR
 62
256
  9
$DIMSCALE
 40
1.0
  9
$DIMASZ
 40
0.18
  9
$DIMEXO
 40
0.0625
  9
$DIMDLI
 40
0.38
  9
$DIMRND
 40
0.0
  9
$DIMDLE
 40
0.0
  9
$DIMEXE
 40
0.18
  9
$DIMTP
 40
0.0
  9
$DIMTM
 40
0.0
  9
$DIMTXT
 40
0.18
  9
$DIMCEN
 40
0.09
  9
$DIMTSZ
 40
0.0
  9
$DIMTOL
 70
0
  9
$DIMLIM
 70
0
  9
$DIMTIH
 70
1
  9
$DIMTOH
 70
1
  9
$DIMSE1
 70
0
  9
$DIMSE2
 70
0
  9
$DIMTAD
 70
0
  9
$DIMZIN
 70
0
  9
$DIMBLK
  1

  9
$DIMASO
 70
1
  9
$DIMSHO
 70
1
  9
$DIMPOST
  1

  9
$DIMAPOST
  1

  9
$DIMALT
 70
0
  9
$DIMALTD
 70
2
  9
$DIMALTF
 40
25.4
  9
$DIMLFAC
 40
1.0
  9
$DIMTOFL
 70
0
  9
$DIMTVP
 40
0.0
  9
$DIMTIX
 70
0
  9
$DIMSOXD
 70
0
  9
$DIMSAH
 70
0
  9
$DIMBLK1
  1

  9
$DIMBLK2
  1

  9
$DIMSTYLE
  2
*UNNAMED
  9
$DIMCLRD
 70
0
  9
$DIMCLRE
 70
0
  9
$DIMCLRT
 70
0
  9
$DIMTFAC
 40
1.0
  9
$DIMGAP
 40
0.09
  9
$LUNITS
 70
2
  9
$LUPREC
 70
4
  9
$AXISMODE
 70
0
  9
$AXISUNIT
 10
0.0
 20
0.0
  9
$SKETCHINC
 40
0.1
  9
$FILLETRAD
 40
0.0
  9
$AUNITS
 70
0
  9
$AUPREC
 70
0
  9
$MENU
  1
acad
  9
$ELEVATION
 40
0.0
  9
$PELEVATION
 40
0.0
  9
$THICKNESS
 40
0.0
  9
$LIMCHECK
 70
0
  9
$BLIPMODE
 70
1
  9
$CHAMFERA
 40
0.0
  9
$CHAMFERB
 40
0.0
  9
$SKPOLY
 70
0
  9
$TDCREATE
 40
0.0
  9
$TDUPDATE
 40
0.0
  9
$TDINDWG
 40
0.0
  9
$TDUSRTIMER
 40
0.0
  9
$USRTIMER
 70
1
  9
$ANGBASE
 50
0.0
  9
$ANGDIR
 70
0
  9
$PDMODE
 70
0
  9
$PDSIZE
 40
0.0
  9
$PLINEWID
 40
0.0
  9
$COORDS
 70
0
  9
$SPLFRAME
 70
0
  9
$SPLINETYPE
 70
6
  9
$SPLINESEGS
 70
10
  9
$ATTDIA
 70
0
  9
$ATTREQ
 70
1
  9
$HANDLING
 70
1
  9
$HANDSEED
  5
C2
  9
$SURFTAB1
 70
6
  9
$SURFTAB2
 70
6
  9
$SURFTYPE
 70
6
  9
$SURFU
 70
10
  9
$SURFV
 70
10
  9
$UCSNAME
  2

  9
$UCSORG
 10
0.0
 20
0.0
 30
0.0
  9
$UCSXDIR
 10
1.0
 20
0.0
 30
0.0
  9
$UCSYDIR
 10
0.0
 20
1.0
 30
0.0
  9
$PUCSNAME
  2
 
  9
$PUCSORG
 10
0.0
 20
0.0
 30
0.0
  9
$PUCSXDIR
 10
1.0
 20
0.0
 30
0.0
  9
$PUCSYDIR
 10
0.0
 20
1.0
 30
0.0
  9
$USERI1
 70
0
  9
$USERI2
 70
0
  9
$USERI3
 70
0
  9
$USERI4
 70
0
  9
$USERI5
 70
0
  9
$USERR1
 40
0.0
  9
$USERR2
 40
0.0
  9
$USERR3
 40
0.0
  9
$USERR4
 40
0.0
  9
$USERR5
 40
0.0
  9
$WORLDVIEW
 70
1
  9
$SHADEDGE
 70
3
  9
$SHADEDIF
 70
70
  9
$TILEMODE
 70
1
  9
$MAXACTVP
 70
16
  9
$PINSBASE
 10
0.0
 20
0.0
 30
0.0
  9
$PLIMCHECK
 70
0
  9
$PEXTMIN
 10
-1.000000E+020
 20
-1.000000E+020
 30
-1.000000E+020
  9
$PEXTMAX
 10
-1.000000E+020
 20
-1.000000E+020
 30
-1.000000E+020
  9
$PLIMMIN
 10
0.0
 20
0.0
  9
$PLIMMAX
 10
12.0
 20
9.0
  9
$UNITMODE
 70
0
  9
$VISRETAIN
 70
0
  0
ENDSEC
  0
SECTION
  2
TABLES
  0
TABLE
  2
LTYPE
 70
7
  0
LTYPE
  2
CONTINUOUS
 70
64
  3
Solid line
 72
65
 73
0
 40
0.0
  0
LTYPE
  2
DOT
 70
64
  3
. . . . . . . . . . . . . . . . . . . . . . . . . . . . . . . . .
 72
65
 73
2
 40
0.25
 49
0.0
 49
-0.25
  0
LTYPE
  2
HIDDEN
 70
64
  3
__ __ __ __ __ __ __ __ __ __ __ __ __ __ __ __ __ __ __ __ __ 
 72
65
 73
2
 40
0.375
 49
0.25
 49
-0.125
  0
LTYPE
  2
DASHED
 70
64
  3
__ __ __ __ __ __ __ __ __ __ __ __ __ __ __ __ __ __ __ __ __
 72
65
 73
2
 40
0.75
 49
0.5
 49
-0.25
  0
LTYPE
  2
DASHDOT
 70
64
  3
__ . __ . __ . __ . __ . __ . __ . __ . __ . __ . __ . __ . _
 72
65
 73
4
 40
1.0
 49
0.5
 49
-0.25
 49
0.0
 49
-0.25
  0
LTYPE
  2
DIVIDE
 70
64
  3
____ . . ____ . . ____ . . ____ . . ____ . . ____ . . ____ . .
 72
65
 73
6
 40
1.25
 49
0.5
 49
-0.25
 49
0.0
 49
-0.25
 49
0.0
 49
-0.25
  0
LTYPE
  2
CENTER
 70
64
  3
____ _ ____ _ ____ _ ____ _ ____ _ ____ _ ____ _ ____ _ ____ _
 72
65
 73
4
 40
2.0
 49
1.25
 49
-0.25
 49
0.25
 49
-0.25
  0
ENDTAB
  0
TABLE
  2
APPID
 70
1
  0
APPID
  2
ACAD
 70
0
  0
ENDTAB
  0
TABLE
  2
DIMSTYLE
 70
0
  0
ENDTAB
  0
TABLE
  2
LAYER
 70
4
  0
LAYER
  2
0
 70
0
 62
7
  6
CONTINUOUS
  0
LAYER
  2
CONSTRUCTION_CLASS
 70
0
 62
7
  6
CONTINUOUS
  0
LAYER
  2
PATTERN_CLASS
 70
0
 62
7
  6
CONTINUOUS
  0
LAYER
  2
1
 70
0
 62
7
  6
CONTINUOUS
  0
ENDTAB
  0
TABLE
  2
STYLE
 70
1
  0
STYLE
  2
STANDARD
 70
0
 40
0.2
 41
1.0
 50
0.0
 71
0
 42
0.0
  3
txt
  4

  0
ENDTAB
  0
TABLE
  2
UCS
 70
0
  0
ENDTAB
  0
TABLE
  2
VIEW
 70
2
  0
VIEW
  2
AN_4
 70
0
 40
184.08589
 41
266.94694
 10
5.684342E-014
 20
4.263256E-014
 11
697.367456
 21
519.007202
 31
329.68983
 12
84.289249
 22
-71.590615
 32
36.906
 42
50.0
 43
464.8616
 44
-464.8616
 50
0.0
 71
0
  0
VIEW
  2
AN_5
 70
0
 40
188.27417
 41
272.91749
 10
0.0
 20
0.0
 11
135.559768
 21
77.131668
 31
99.909923
 12
24.854418
 22
-146.513275
 32
22.871679
 42
50.0
 43
92.61174
 44
-92.61174
 50
0.0
 71
0
  0
ENDTAB
  0
TABLE
  2
VPORT
 70
4
  0
VPORT
  2
*ACTIVE
 70
0
 10
0.001642
 20
0.50168
 11
0.499179
 21
0.99776
 12
0.0
 22
1.421085E-014
 13
0.0
 23
0.0
 14
0.0
 24
0.0
 15
0.0
 25
0.0
 16
0.0
 26
-4.400776E-014
 36
718.725
 17
70.053765
 27
-171.46004
 37
0.0
 40
194.75
 41
1.367946
 42
50.0
 43
359.3625
 44
-359.3625
 50
0.0
 51
0.0
 71
22
 72
100
 73
1
 74
0
 75
0
 76
0
 77
0
 78
0
  0
VPORT
  2
*ACTIVE
 70
0
 10
0.500821
 20
0.50168
 11
0.998358
 21
0.99776
 12
0.0
 22
4.263256E-014
 13
0.0
 23
0.0
 14
0.0
 24
0.0
 15
0.0
 25
0.0
 16
863.157817
 26
491.125079
 36
636.162427
 17
70.301223
 27
-140.603481
 37
0.000005
 40
209.88106
 41
1.367946
 42
50.0
 43
589.69227
 44
-589.69227
 50
0.0
 51
0.0
 71
22
 72
100
 73
1
 74
0
 75
0
 76
0
 77
0
 78
0
  0
VPORT
  2
*ACTIVE
 70
0
 10
0.001642
 20
0.003359
 11
0.499179
 21
0.49944
 12
0.0
 22
0.0
 13
0.0
 23
0.0
 14
0.0
 24
0.0
 15
0.0
 25
0.0
 16
0.0
 26
-760.0
 36
0.0
 17
71.472318
 27
-171.46004
 37
0.000005
 40
179.23347
 41
1.367946
 42
50.0
 43
380.0
 44
-380.0
 50
0.0
 51
0.0
 71
22
 72
100
 73
1
 74
0
 75
0
 76
0
 77
0
 78
0
  0
VPORT
  2
*ACTIVE
 70
0
 10
0.500821
 20
0.003359
 11
0.998358
 21
0.49944
 12
-1.421085E-014
 22
0.0
 13
0.0
 23
0.0
 14
0.0
 24
0.0
 15
0.0
 25
0.0
 16
1084.69624
 26
0.0
 36
0.0
 17
87.85819
 27
-182.996774
 37
-0.000005
 40
126.19217
 41
1.367946
 42
50.0
 43
542.34812
 44
-542.34812
 50
0.0
 51
0.0
 71
22
 72
100
 73
1
 74
0
 75
0
 76
0
 77
0
 78
0
  0
ENDTAB
  0
ENDSEC
  0
SECTION
  2
BLOCKS
  0
BLOCK
  8
1
  5
6
 70
1
 10
0.0
 20
0.0
 30
0.0
  2
*M0
  3
*M0
  0
LINE
  8
1
  5
8
  6
CONTINUOUS
 62
7
 10
-170.56136
 20
-19.26334
 30
0.0
 11
-167.14795
 21
-22.67675
 31
0.0
  0
LINE
  8
1
  5
A
  6
CONTINUOUS
 62
7
 10
-167.14795
 20
-22.67675
 30
16.0
 11
-167.14795
 21
-22.67675
 31
0.0
  0
ARC
  8
1
  5
C
  6
CONTINUOUS
 62
7
 210
0.0
 220
0.0
 230
-1.0
 10
173.460499
 20
-22.162476
 30
-7.565955E-015
 40
4.1
 50
77.6192400501
 51
134.9999983834
  0
LINE
  8
1
  5
E
  6
CONTINUOUS
 62
7
 10
-190.71172
 20
-21.75171
 30
0.0
 11
-174.33957
 21
-18.15782
 31
0.0
  0
ARC
  8
1
  5
10
  6
CONTINUOUS
 62
7
 10
-191.590787
 20
-17.747059
 30
8.946436E-015
 40
4.1
 50
189.4623164571
 51
282.3807664571
  0
LINE
  8
1
  5
12
  6
CONTINUOUS
 62
7
 10
-199.50864
 20
4.82077
 30
0.0
 11
-195.635
 21
-18.42109
 31
0.0
  0
ARC
  8
1
  5
14
  6
CONTINUOUS
 62
7
 10
-195.464428
 20
5.494804
 30
1.060673E-014
 40
4.1
 50
78.9063122162
 51
189.462314994
  0
LINE
  8
1
  5
16
  6
CONTINUOUS
 62
7
 10
-176.06143
 20
5.86838
 30
0.0
 11
-194.67553
 21
9.51819
 31
0.0
  0
ARC
  8
1
  5
18
  6
CONTINUOUS
 62
7
 210
0.0
 220
0.0
 230
-1.0
 10
175.272529
 20
9.891765
 30
-9.639598E-015
 40
4.1
 50
192.6803675764
 51
281.093684243
  0
LINE
  8
1
  5
1A
  6
CONTINUOUS
 62
7
 10
-167.14795
 20
27.32325
 30
0.0
 11
-171.27253
 21
8.99177
 31
0.0
  0
LINE
  8
1
  5
1C
  6
CONTINUOUS
 62
7
 10
-167.14795
 20
27.32325
 30
16.0
 11
-167.14795
 21
27.32325
 31
0.0
  0
LINE
  8
1
  5
1E
  6
CONTINUOUS
 62
7
 10
-217.14795
 20
27.32325
 30
16.0
 11
-217.14795
 21
-162.67675
 31
16.0
  0
LINE
  8
1
  5
20
  6
CONTINUOUS
 62
7
 10
-217.14795
 20
-162.67675
 30
16.0
 11
-167.14795
 21
-162.67675
 31
16.0
  0
LINE
  8
1
  5
22
  6
CONTINUOUS
 62
7
 10
-167.14795
 20
-162.67675
 30
16.0
 11
-167.14795
 21
-22.67675
 31
16.0
  0
LINE
  8
1
  5
24
  6
CONTINUOUS
 62
7
 10
-167.14795
 20
27.32325
 30
16.0
 11
-217.14795
 21
27.32325
 31
16.0
  0
LINE
  8
1
  5
26
  6
CONTINUOUS
 62
7
 10
-167.14795
 20
27.32325
 30
0.0
 11
-167.14795
 21
-22.67675
 31
0.0
  0
LINE
  8
1
  5
28
  6
CONTINUOUS
 62
7
 10
-167.14795
 20
27.32325
 30
-16.0
 11
-167.14795
 21
27.32325
 31
0.0
  0
LINE
  8
1
  5
2A
  6
CONTINUOUS
 62
7
 10
-167.14795
 20
27.32325
 30
-16.0
 11
-217.14795
 21
27.32325
 31
-16.0
  0
LINE
  8
1
  5
2C
  6
CONTINUOUS
 62
7
 10
-217.14795
 20
27.32325
 30
-16.0
 11
-217.14795
 21
27.32325
 31
16.0
  0
LINE
  8
1
  5
2E
  6
CONTINUOUS
 62
7
 10
-167.14795
 20
-162.67675
 30
-16.0
 11
-167.14795
 21
-162.67675
 31
16.0
  0
LINE
  8
1
  5
30
  6
CONTINUOUS
 62
7
 10
-167.14795
 20
-162.67675
 30
-16.0
 11
-167.14795
 21
27.32325
 31
-16.0
  0
LINE
  8
1
  5
32
  6
CONTINUOUS
 62
7
 10
-217.14795
 20
-162.67675
 30
-16.0
 11
-217.14795
 21
-162.67675
 31
16.0
  0
LINE
  8
1
  5
34
  6
CONTINUOUS
 62
7
 10
-217.14795
 20
-162.67675
 30
-16.0
 11
-167.14795
 21
-162.67675
 31
-16.0
  0
LINE
  8
1
  5
36
  6
CONTINUOUS
 62
7
 10
-217.14795
 20
27.32325
 30
-16.0
 11
-217.14795
 21
-162.67675
 31
-16.0
  0
ENDBLK
  8
1
  5
37
  0
BLOCK
  8
1
  5
39
 70
1
 10
0.0
 20
0.0
 30
0.0
  2
*M1
  3
*M1
  0
LINE
  8
1
  5
3B
  6
CONTINUOUS
 62
7
 10
-170.56136
 20
-19.26334
 30
16.0
 11
-170.56136
 21
-19.26334
 31
0.0
  0
LINE
  8
1
  5
3D
  6
CONTINUOUS
 62
7
 10
-167.14795
 20
-22.67675
 30
16.0
 11
-170.56136
 21
-19.26334
 31
16.0
  0
LINE
  8
1
  5
3F
  6
CONTINUOUS
 62
7
 10
-174.33957
 20
-18.15782
 30
16.0
 11
-174.33957
 21
-18.15782
 31
0.0
  0
ARC
  8
1
  5
41
  6
CONTINUOUS
 62
7
 10
-173.460499
 20
-22.162476
 30
16.0
 40
4.1
 50
44.9999988388
 51
102.3807571721
  0
LINE
  8
1
  5
43
  6
CONTINUOUS
 62
7
 10
-190.71172
 20
-21.75171
 30
16.0
 11
-190.71172
 21
-21.75171
 31
0.0
  0
LINE
  8
1
  5
45
  6
CONTINUOUS
 62
7
 10
-174.33957
 20
-18.15782
 30
16.0
 11
-190.71172
 21
-21.75171
 31
16.0
  0
LINE
  8
1
  5
47
  6
CONTINUOUS
 62
7
 10
-195.635
 20
-18.42109
 30
16.0
 11
-195.635
 21
-18.42109
 31
0.0
  0
ARC
  8
1
  5
49
  6
CONTINUOUS
 62
7
 210
0.0
 220
0.0
 230
-1.0
 10
191.590787
 20
-17.747059
 30
-16.0
 40
4.1
 50
257.6192335429
 51
350.5376835429
  0
LINE
  8
1
  5
4B
  6
CONTINUOUS
 62
7
 10
-199.50864
 20
4.82077
 30
16.0
 11
-199.50864
 21
4.82077
 31
0.0
  0
LINE
  8
1
  5
4D
  6
CONTINUOUS
 62
7
 10
-195.635
 20
-18.42109
 30
16.0
 11
-199.50864
 21
4.82077
 31
16.0
  0
LINE
  8
1
  5
4F
  6
CONTINUOUS
 62
7
 10
-194.67553
 20
9.51819
 30
16.0
 11
-194.67553
 21
9.51819
 31
0.0
  0
ARC
  8
1
  5
51
  6
CONTINUOUS
 62
7
 210
0.0
 220
0.0
 230
-1.0
 10
195.464428
 20
5.494804
 30
-16.0
 40
4.1
 50
350.537685006
 51
101.0936877838
  0
LINE
  8
1
  5
53
  6
CONTINUOUS
 62
7
 10
-176.06143
 20
5.86838
 30
16.0
 11
-176.06143
 21
5.86838
 31
0.0
  0
LINE
  8
1
  5
55
  6
CONTINUOUS
 62
7
 10
-194.67553
 20
9.51819
 30
16.0
 11
-176.06143
 21
5.86838
 31
16.0
  0
LINE
  8
1
  5
57
  6
CONTINUOUS
 62
7
 10
-171.27253
 20
8.99177
 30
16.0
 11
-171.27253
 21
8.99177
 31
0.0
  0
ARC
  8
1
  5
59
  6
CONTINUOUS
 62
7
 10
-175.272529
 20
9.891765
 30
16.0
 40
4.1
 50
258.906315757
 51
347.3196324236
  0
LINE
  8
1
  5
5B
  6
CONTINUOUS
 62
7
 10
-171.27253
 20
8.99177
 30
16.0
 11
-167.14795
 21
27.32325
 31
16.0
  0
ENDBLK
  8
1
  5
5C
  0
BLOCK
  8
1
  5
5E
 70
1
 10
0.0
 20
0.0
 30
0.0
  2
*M2
  3
*M2
  0
INSERT
  8
1
  5
60
  6
CONTINUOUS
 62
7
  2
*M0
 10
0.0
 20
0.0
 30
0.0
 41
1.0
 42
1.0
 43
1.0
 70
1
 71
1
  0
INSERT
  8
1
  5
62
  6
CONTINUOUS
 62
7
  2
*M1
 10
0.0
 20
0.0
 30
0.0
 41
1.0
 42
1.0
 43
1.0
 70
1
 71
1
  0
ENDBLK
  8
1
  5
63
  0
BLOCK
  8
1
  5
65
 70
1
 10
0.0
 20
0.0
 30
0.0
  2
*M3
  3
*M3
  0
LINE
  8
1
  5
67
  6
CONTINUOUS
 62
7
 10
-85.97389
 20
27.32325
 30
0.0
 11
-85.97389
 21
-22.67675
 31
0.0
  0
LINE
  8
1
  5
69
  6
CONTINUOUS
 62
7
 10
-85.97389
 20
27.32325
 30
-16.0
 11
-85.97389
 21
27.32325
 31
0.0
  0
LINE
  8
1
  5
6B
  6
CONTINUOUS
 62
7
 10
-85.97389
 20
-22.67675
 30
-16.0
 11
-85.97389
 21
-22.67675
 31
0.0
  0
LINE
  8
1
  5
6D
  6
CONTINUOUS
 62
7
 10
54.02611
 20
27.32325
 30
-16.0
 11
-85.97389
 21
27.32325
 31
-16.0
  0
LINE
  8
1
  5
6F
  6
CONTINUOUS
 62
7
 10
54.02611
 20
-22.67675
 30
-16.0
 11
54.02611
 21
27.32325
 31
-16.0
  0
LINE
  8
1
  5
71
  6
CONTINUOUS
 62
7
 10
-85.97389
 20
-22.67675
 30
-16.0
 11
54.02611
 21
-22.67675
 31
-16.0
  0
LINE
  8
1
  5
73
  6
CONTINUOUS
 62
7
 10
-89.38729
 20
-19.26335
 30
0.0
 11
-85.97389
 21
-22.67675
 31
0.0
  0
ARC
  8
1
  5
75
  6
CONTINUOUS
 62
7
 210
0.0
 220
0.0
 230
-1.0
 10
92.286432
 20
-22.162483
 30
2.060972E-015
 40
4.1
 50
77.6192694463
 51
135.0000000018
  0
LINE
  8
1
  5
77
  6
CONTINUOUS
 62
7
 10
-109.53766
 20
-21.75171
 30
0.0
 11
-93.1655
 21
-18.15783
 31
0.0
  0
ARC
  8
1
  5
79
  6
CONTINUOUS
 62
7
 10
-110.416727
 20
-17.747061
 30
-6.804907E-016
 40
4.1
 50
189.4623271182
 51
282.3807354516
  0
LINE
  8
1
  5
7B
  6
CONTINUOUS
 62
7
 10
-118.33459
 20
4.82077
 30
0.0
 11
-114.46094
 21
-18.4211
 31
0.0
  0
ARC
  8
1
  5
7D
  6
CONTINUOUS
 62
7
 10
-114.290374
 20
5.494808
 30
9.798009E-016
 40
4.1
 50
78.9063056716
 51
189.4623278938
  0
LINE
  8
1
  5
7F
  6
CONTINUOUS
 62
7
 10
-94.88737
 20
5.86838
 30
0.0
 11
-113.50148
 21
9.51819
 31
0.0
  0
ARC
  8
1
  5
81
  6
CONTINUOUS
 62
7
 210
0.0
 220
0.0
 230
-1.0
 10
94.098469
 20
9.891765
 30
-1.267125E-017
 40
4.1
 50
192.6803675785
 51
281.0936842452
  0
LINE
  8
1
  5
83
  6
CONTINUOUS
 62
7
 10
-85.97389
 20
27.32325
 30
0.0
 11
-90.09847
 21
8.99177
 31
0.0
  0
LINE
  8
1
  5
85
  6
CONTINUOUS
 62
7
 10
54.02611
 20
27.32325
 30
16.0
 11
54.02611
 21
27.32325
 31
-16.0
  0
LINE
  8
1
  5
87
  6
CONTINUOUS
 62
7
 10
54.02611
 20
27.32325
 30
16.0
 11
54.02611
 21
-22.67675
 31
16.0
  0
LINE
  8
1
  5
89
  6
CONTINUOUS
 62
7
 10
54.02611
 20
-22.67675
 30
16.0
 11
54.02611
 21
-22.67675
 31
-16.0
  0
LINE
  8
1
  5
8B
  6
CONTINUOUS
 62
7
 10
-85.97389
 20
27.32325
 30
16.0
 11
-85.97389
 21
27.32325
 31
0.0
  0
LINE
  8
1
  5
8D
  6
CONTINUOUS
 62
7
 10
-85.97389
 20
27.32325
 30
16.0
 11
54.02611
 21
27.32325
 31
16.0
  0
LINE
  8
1
  5
8F
  6
CONTINUOUS
 62
7
 10
-90.09847
 20
8.99177
 30
16.0
 11
-90.09847
 21
8.99177
 31
0.0
  0
LINE
  8
1
  5
91
  6
CONTINUOUS
 62
7
 10
-90.09847
 20
8.99177
 30
16.0
 11
-85.97389
 21
27.32325
 31
16.0
  0
LINE
  8
1
  5
93
  6
CONTINUOUS
 62
7
 10
-94.88737
 20
5.86838
 30
16.0
 11
-94.88737
 21
5.86838
 31
0.0
  0
ARC
  8
1
  5
95
  6
CONTINUOUS
 62
7
 10
-94.098469
 20
9.891765
 30
16.0
 40
4.1
 50
258.9063157548
 51
347.3196324215
  0
LINE
  8
1
  5
97
  6
CONTINUOUS
 62
7
 10
-113.50148
 20
9.51819
 30
16.0
 11
-113.50148
 21
9.51819
 31
0.0
  0
LINE
  8
1
  5
99
  6
CONTINUOUS
 62
7
 10
-113.50148
 20
9.51819
 30
16.0
 11
-94.88737
 21
5.86838
 31
16.0
  0
LINE
  8
1
  5
9B
  6
CONTINUOUS
 62
7
 10
-118.33459
 20
4.82077
 30
16.0
 11
-118.33459
 21
4.82077
 31
0.0
  0
ARC
  8
1
  5
9D
  6
CONTINUOUS
 62
7
 210
0.0
 220
0.0
 230
-1.0
 10
114.290374
 20
5.494808
 30
-16.0
 40
4.1
 50
350.537674884
 51
101.0936971062
  0
LINE
  8
1
  5
9F
  6
CONTINUOUS
 62
7
 10
-114.46094
 20
-18.4211
 30
16.0
 11
-114.46094
 21
-18.4211
 31
0.0
  0
LINE
  8
1
  5
A1
  6
CONTINUOUS
 62
7
 10
-114.46094
 20
-18.4211
 30
16.0
 11
-118.33459
 21
4.82077
 31
16.0
  0
LINE
  8
1
  5
A3
  6
CONTINUOUS
 62
7
 10
-109.53766
 20
-21.75171
 30
16.0
 11
-109.53766
 21
-21.75171
 31
0.0
  0
ARC
  8
1
  5
A5
  6
CONTINUOUS
 62
7
 210
0.0
 220
0.0
 230
-1.0
 10
110.416727
 20
-17.747061
 30
-16.0
 40
4.1
 50
257.6192645484
 51
350.5376728818
  0
LINE
  8
1
  5
A7
  6
CONTINUOUS
 62
7
 10
-93.1655
 20
-18.15783
 30
16.0
 11
-93.1655
 21
-18.15783
 31
0.0
  0
LINE
  8
1
  5
A9
  6
CONTINUOUS
 62
7
 10
-93.1655
 20
-18.15783
 30
16.0
 11
-109.53766
 21
-21.75171
 31
16.0
  0
LINE
  8
1
  5
AB
  6
CONTINUOUS
 62
7
 10
-89.38729
 20
-19.26335
 30
16.0
 11
-89.38729
 21
-19.26335
 31
0.0
  0
ARC
  8
1
  5
AD
  6
CONTINUOUS
 62
7
 10
-92.286432
 20
-22.162483
 30
16.0
 40
4.1
 50
44.9999999982
 51
102.3807305537
  0
LINE
  8
1
  5
AF
  6
CONTINUOUS
 62
7
 10
-85.97389
 20
-22.67675
 30
16.0
 11
-85.97389
 21
-22.67675
 31
0.0
  0
LINE
  8
1
  5
B1
  6
CONTINUOUS
 62
7
 10
-85.97389
 20
-22.67675
 30
16.0
 11
-89.38729
 21
-19.26335
 31
16.0
  0
LINE
  8
1
  5
B3
  6
CONTINUOUS
 62
7
 10
54.02611
 20
-22.67675
 30
16.0
 11
-85.97389
 21
-22.67675
 31
16.0
  0
ENDBLK
  8
1
  5
B4
  0
BLOCK
  8
1
  5
B6
 70
1
 10
0.0
 20
0.0
 30
0.0
  2
*M4
  3
*M4
  0
LINE
  8
1
  5
B8
  6
CONTINUOUS
 62
7
 10
-85.97389
 20
27.32325
 30
-16.0
 11
-85.97389
 21
-22.67675
 31
-16.0
  0
ENDBLK
  8
1
  5
B9
  0
BLOCK
  8
1
  5
BB
 70
1
 10
0.0
 20
0.0
 30
0.0
  2
*M5
  3
*M5
  0
INSERT
  8
1
  5
BD
  6
CONTINUOUS
 62
7
  2
*M3
 10
0.0
 20
0.0
 30
0.0
 41
1.0
 42
1.0
 43
1.0
 70
1
 71
1
  0
INSERT
  8
1
  5
BF
  6
CONTINUOUS
 62
7
  2
*M4
 10
0.0
 20
0.0
 30
0.0
 41
1.0
 42
1.0
 43
1.0
 70
1
 71
1
  0
ENDBLK
  8
1
  5
C0
  0
ENDSEC
  0
SECTION
  2
ENTITIES
  0
INSERT
  8
1
  5
2
  6
CONTINUOUS
 62
7
  2
*M2
 10
169.41911
 20
-103.78329
 30
0.0
 41
1.0
 42
1.0
 43
1.0
 70
1
 71
1
  0
INSERT
  8
1
  5
4
  6
CONTINUOUS
 62
7
  2
*M5
 10
169.41911
 20
-103.78329
 30
0.0
 41
1.0
 42
1.0
 43
1.0
 70
1
 71
1
  0
ENDSEC
  0
EOF
