  0
SECTION
  2
HEADER
  9
$ACADVER
  1
AC1009
  9
$INSBASE
 10
0.0
 20
0.0
 30
0.0
  9
$EXTMAX
 10
-4015.60052
 20
88.71462
 30
-3038.0
  9
$EXTMIN
 10
-4445.60052
 20
-28.79896
 30
-3070.0
  9
$LIMMAX
 10
12.0
 20
9.0
  9
$LIMMIN
 10
0.0
 20
0.0
  9
$ORTHOMODE
 70
0
  9
$REGENMODE
 70
1
  9
$FILLMODE
 70
1
  9
$QTEXTMODE
 70
0
  9
$MIRRTEXT
 70
1
  9
$DRAGMODE
 70
2
  9
$LTSCALE
 40
1.0
  9
$OSMODE
 70
0
  9
$ATTMODE
 70
1
  9
$TEXTSIZE
 40
0.2
  9
$TRACEWID
 40
0.05
  9
$TEXTSTYLE
  7
STANDARD
  9
$CLAYER
  8
0
  9
$CELTYPE
  6
CONTINUOUS
  9
$CECOLOR
 62
256
  9
$DIMSCALE
 40
1.0
  9
$DIMASZ
 40
0.18
  9
$DIMEXO
 40
0.0625
  9
$DIMDLI
 40
0.38
  9
$DIMRND
 40
0.0
  9
$DIMDLE
 40
0.0
  9
$DIMEXE
 40
0.18
  9
$DIMTP
 40
0.0
  9
$DIMTM
 40
0.0
  9
$DIMTXT
 40
0.18
  9
$DIMCEN
 40
0.09
  9
$DIMTSZ
 40
0.0
  9
$DIMTOL
 70
0
  9
$DIMLIM
 70
0
  9
$DIMTIH
 70
1
  9
$DIMTOH
 70
1
  9
$DIMSE1
 70
0
  9
$DIMSE2
 70
0
  9
$DIMTAD
 70
0
  9
$DIMZIN
 70
0
  9
$DIMBLK
  1

  9
$DIMASO
 70
1
  9
$DIMSHO
 70
1
  9
$DIMPOST
  1

  9
$DIMAPOST
  1

  9
$DIMALT
 70
0
  9
$DIMALTD
 70
2
  9
$DIMALTF
 40
25.4
  9
$DIMLFAC
 40
1.0
  9
$DIMTOFL
 70
0
  9
$DIMTVP
 40
0.0
  9
$DIMTIX
 70
0
  9
$DIMSOXD
 70
0
  9
$DIMSAH
 70
0
  9
$DIMBLK1
  1

  9
$DIMBLK2
  1

  9
$DIMSTYLE
  2
*UNNAMED
  9
$DIMCLRD
 70
0
  9
$DIMCLRE
 70
0
  9
$DIMCLRT
 70
0
  9
$DIMTFAC
 40
1.0
  9
$DIMGAP
 40
0.09
  9
$LUNITS
 70
2
  9
$LUPREC
 70
4
  9
$AXISMODE
 70
0
  9
$AXISUNIT
 10
0.0
 20
0.0
  9
$SKETCHINC
 40
0.1
  9
$FILLETRAD
 40
0.0
  9
$AUNITS
 70
0
  9
$AUPREC
 70
0
  9
$MENU
  1
acad
  9
$ELEVATION
 40
0.0
  9
$PELEVATION
 40
0.0
  9
$THICKNESS
 40
0.0
  9
$LIMCHECK
 70
0
  9
$BLIPMODE
 70
1
  9
$CHAMFERA
 40
0.0
  9
$CHAMFERB
 40
0.0
  9
$SKPOLY
 70
0
  9
$TDCREATE
 40
0.0
  9
$TDUPDATE
 40
0.0
  9
$TDINDWG
 40
0.0
  9
$TDUSRTIMER
 40
0.0
  9
$USRTIMER
 70
1
  9
$ANGBASE
 50
0.0
  9
$ANGDIR
 70
0
  9
$PDMODE
 70
0
  9
$PDSIZE
 40
0.0
  9
$PLINEWID
 40
0.0
  9
$COORDS
 70
0
  9
$SPLFRAME
 70
0
  9
$SPLINETYPE
 70
6
  9
$SPLINESEGS
 70
10
  9
$ATTDIA
 70
0
  9
$ATTREQ
 70
1
  9
$HANDLING
 70
1
  9
$HANDSEED
  5
1E0
  9
$SURFTAB1
 70
6
  9
$SURFTAB2
 70
6
  9
$SURFTYPE
 70
6
  9
$SURFU
 70
10
  9
$SURFV
 70
10
  9
$UCSNAME
  2

  9
$UCSORG
 10
0.0
 20
0.0
 30
0.0
  9
$UCSXDIR
 10
1.0
 20
0.0
 30
0.0
  9
$UCSYDIR
 10
0.0
 20
1.0
 30
0.0
  9
$PUCSNAME
  2
 
  9
$PUCSORG
 10
0.0
 20
0.0
 30
0.0
  9
$PUCSXDIR
 10
1.0
 20
0.0
 30
0.0
  9
$PUCSYDIR
 10
0.0
 20
1.0
 30
0.0
  9
$USERI1
 70
0
  9
$USERI2
 70
0
  9
$USERI3
 70
0
  9
$USERI4
 70
0
  9
$USERI5
 70
0
  9
$USERR1
 40
0.0
  9
$USERR2
 40
0.0
  9
$USERR3
 40
0.0
  9
$USERR4
 40
0.0
  9
$USERR5
 40
0.0
  9
$WORLDVIEW
 70
1
  9
$SHADEDGE
 70
3
  9
$SHADEDIF
 70
70
  9
$TILEMODE
 70
1
  9
$MAXACTVP
 70
16
  9
$PINSBASE
 10
0.0
 20
0.0
 30
0.0
  9
$PLIMCHECK
 70
0
  9
$PEXTMIN
 10
-1.000000E+020
 20
-1.000000E+020
 30
-1.000000E+020
  9
$PEXTMAX
 10
-1.000000E+020
 20
-1.000000E+020
 30
-1.000000E+020
  9
$PLIMMIN
 10
0.0
 20
0.0
  9
$PLIMMAX
 10
12.0
 20
9.0
  9
$UNITMODE
 70
0
  9
$VISRETAIN
 70
0
  0
ENDSEC
  0
SECTION
  2
TABLES
  0
TABLE
  2
LTYPE
 70
7
  0
LTYPE
  2
CONTINUOUS
 70
64
  3
Solid line
 72
65
 73
0
 40
0.0
  0
LTYPE
  2
DOT
 70
64
  3
. . . . . . . . . . . . . . . . . . . . . . . . . . . . . . . . .
 72
65
 73
2
 40
0.25
 49
0.0
 49
-0.25
  0
LTYPE
  2
HIDDEN
 70
64
  3
__ __ __ __ __ __ __ __ __ __ __ __ __ __ __ __ __ __ __ __ __ 
 72
65
 73
2
 40
0.375
 49
0.25
 49
-0.125
  0
LTYPE
  2
DASHED
 70
64
  3
__ __ __ __ __ __ __ __ __ __ __ __ __ __ __ __ __ __ __ __ __
 72
65
 73
2
 40
0.75
 49
0.5
 49
-0.25
  0
LTYPE
  2
DASHDOT
 70
64
  3
__ . __ . __ . __ . __ . __ . __ . __ . __ . __ . __ . __ . _
 72
65
 73
4
 40
1.0
 49
0.5
 49
-0.25
 49
0.0
 49
-0.25
  0
LTYPE
  2
DIVIDE
 70
64
  3
____ . . ____ . . ____ . . ____ . . ____ . . ____ . . ____ . .
 72
65
 73
6
 40
1.25
 49
0.5
 49
-0.25
 49
0.0
 49
-0.25
 49
0.0
 49
-0.25
  0
LTYPE
  2
CENTER
 70
64
  3
____ _ ____ _ ____ _ ____ _ ____ _ ____ _ ____ _ ____ _ ____ _
 72
65
 73
4
 40
2.0
 49
1.25
 49
-0.25
 49
0.25
 49
-0.25
  0
ENDTAB
  0
TABLE
  2
APPID
 70
1
  0
APPID
  2
ACAD
 70
0
  0
ENDTAB
  0
TABLE
  2
DIMSTYLE
 70
0
  0
ENDTAB
  0
TABLE
  2
LAYER
 70
4
  0
LAYER
  2
0
 70
0
 62
7
  6
CONTINUOUS
  0
LAYER
  2
CONSTRUCTION_CLASS
 70
0
 62
7
  6
CONTINUOUS
  0
LAYER
  2
PATTERN_CLASS
 70
0
 62
7
  6
CONTINUOUS
  0
LAYER
  2
1
 70
0
 62
7
  6
CONTINUOUS
  0
ENDTAB
  0
TABLE
  2
STYLE
 70
1
  0
STYLE
  2
STANDARD
 70
0
 40
0.2
 41
1.0
 50
0.0
 71
0
 42
0.0
  3
txt
  4

  0
ENDTAB
  0
TABLE
  2
UCS
 70
0
  0
ENDTAB
  0
TABLE
  2
VIEW
 70
1
  0
VIEW
  2
AN_4
 70
0
 40
184.08589
 41
266.94694
 10
5.684342E-014
 20
4.263256E-014
 11
697.367456
 21
519.007202
 31
329.68983
 12
84.289249
 22
-71.590615
 32
36.906
 42
50.0
 43
464.8616
 44
-464.8616
 50
0.0
 71
0
  0
ENDTAB
  0
TABLE
  2
VPORT
 70
4
  0
VPORT
  2
*ACTIVE
 70
0
 10
0.500821
 20
0.50171
 11
0.998358
 21
0.997719
 12
0.0
 22
0.0
 13
0.0
 23
0.0
 14
0.0
 24
0.0
 15
0.0
 25
0.0
 16
0.0
 26
-2.747534E-015
 36
44.87212
 17
-4248.775561
 27
29.957835
 37
-3054.0
 40
290.28707
 41
1.393103
 42
50.0
 43
22.43606
 44
-22.43606
 50
0.0
 51
0.0
 71
22
 72
100
 73
1
 74
0
 75
0
 76
0
 77
0
 78
0
  0
VPORT
  2
*ACTIVE
 70
0
 10
0.001642
 20
0.50171
 11
0.499179
 21
0.997719
 12
-2.842171E-014
 22
-6.536993E-013
 13
0.0
 23
0.0
 14
0.0
 24
0.0
 15
0.0
 25
0.0
 16
-176.532731
 26
-176.532731
 36
176.532731
 17
-4240.744728
 27
6.345247
 37
-3053.999994
 40
229.13186
 41
1.393103
 42
50.0
 43
152.88183
 44
-152.88183
 50
0.0
 51
0.0
 71
22
 72
100
 73
1
 74
0
 75
0
 76
0
 77
0
 78
0
  0
VPORT
  2
*ACTIVE
 70
0
 10
0.001642
 20
0.003421
 11
0.499179
 21
0.49943
 12
5.684342E-014
 22
-1.421085E-013
 13
0.0
 23
0.0
 14
0.0
 24
0.0
 15
0.0
 25
0.0
 16
0.0
 26
-130.3857
 36
0.0
 17
-4248.775561
 27
29.95783
 37
-3053.999995
 40
290.28707
 41
1.393103
 42
50.0
 43
65.19285
 44
-65.19285
 50
0.0
 51
0.0
 71
22
 72
100
 73
1
 74
0
 75
0
 76
0
 77
0
 78
0
  0
VPORT
  2
*ACTIVE
 70
0
 10
0.500821
 20
0.003421
 11
0.998358
 21
0.49943
 12
0.0
 22
7.105427E-015
 13
0.0
 23
0.0
 14
0.0
 24
0.0
 15
0.0
 25
0.0
 16
440.75
 26
0.0
 36
0.0
 17
-4230.60052
 27
24.741755
 37
-3054.0
 40
83.3098
 41
1.393103
 42
50.0
 43
220.375
 44
-220.375
 50
0.0
 51
0.0
 71
22
 72
100
 73
1
 74
0
 75
0
 76
0
 77
0
 78
0
  0
ENDTAB
  0
ENDSEC
  0
SECTION
  2
BLOCKS
  0
BLOCK
  8
1
  5
A
 70
1
 10
0.0
 20
0.0
 30
0.0
  2
*M0
  3
*M0
  0
LINE
  8
1
  5
C
  6
CONTINUOUS
 62
7
 10
4301.55291
 20
-31.39686
 30
-3070.0
 11
4309.83884
 21
-33.61707
 31
-3070.0
  0
LINE
  8
1
  5
E
  6
CONTINUOUS
 62
7
 10
4309.83884
 20
-33.61707
 30
-3054.0
 11
4309.83884
 21
-33.61707
 31
-3070.0
  0
LINE
  8
1
  5
10
  6
CONTINUOUS
 62
7
 10
4309.83884
 20
-33.61707
 30
-3054.0
 11
4301.55291
 21
-31.39686
 31
-3054.0
  0
LINE
  8
1
  5
12
  6
CONTINUOUS
 62
7
 10
4301.55291
 20
-31.39686
 30
-3054.0
 11
4301.55291
 21
-31.39686
 31
-3070.0
  0
ARC
  8
1
  5
14
  6
CONTINUOUS
 62
7
 10
4310.9
 20
-29.656776
 30
-3070.0
 40
4.1
 50
254.9999805556
 51
360.0
  0
LINE
  8
1
  5
16
  6
CONTINUOUS
 62
7
 10
4315.0
 20
-29.65678
 30
-3054.0
 11
4315.0
 21
-29.65678
 31
-3070.0
  0
ARC
  8
1
  5
18
  6
CONTINUOUS
 62
7
 210
0.0
 220
0.0
 230
-1.0
 10
-4310.9
 20
-29.656776
 30
3054.0
 40
4.1
 50
180.0
 51
285.0000194444
  0
LINE
  8
1
  5
1A
  6
CONTINUOUS
 62
7
 10
4315.0
 20
-29.65678
 30
-3070.0
 11
4315.0
 21
-20.34322
 31
-3070.0
  0
LINE
  8
1
  5
1C
  6
CONTINUOUS
 62
7
 10
4315.0
 20
-20.34322
 30
-3054.0
 11
4315.0
 21
-20.34322
 31
-3070.0
  0
LINE
  8
1
  5
1E
  6
CONTINUOUS
 62
7
 10
4315.0
 20
-20.34322
 30
-3054.0
 11
4315.0
 21
-29.65678
 31
-3054.0
  0
ARC
  8
1
  5
20
  6
CONTINUOUS
 62
7
 10
4310.9
 20
-20.343224
 30
-3070.0
 40
4.1
 50
360.0
 51
105.0000194444
  0
LINE
  8
1
  5
22
  6
CONTINUOUS
 62
7
 10
4309.83884
 20
-16.38293
 30
-3054.0
 11
4309.83884
 21
-16.38293
 31
-3070.0
  0
ARC
  8
1
  5
24
  6
CONTINUOUS
 62
7
 210
0.0
 220
0.0
 230
-1.0
 10
-4310.9
 20
-20.343224
 30
3054.0
 40
4.1
 50
74.9999805556
 51
180.0
  0
LINE
  8
1
  5
26
  6
CONTINUOUS
 62
7
 10
4309.83884
 20
-16.38293
 30
-3070.0
 11
4301.55291
 21
-18.60314
 31
-3070.0
  0
LINE
  8
1
  5
28
  6
CONTINUOUS
 62
7
 10
4301.55291
 20
-18.60314
 30
-3054.0
 11
4301.55291
 21
-18.60314
 31
-3070.0
  0
LINE
  8
1
  5
2A
  6
CONTINUOUS
 62
7
 10
4301.55291
 20
-18.60314
 30
-3054.0
 11
4309.83884
 21
-16.38293
 31
-3054.0
  0
ARC
  8
1
  5
2C
  6
CONTINUOUS
 62
7
 210
0.0
 220
0.0
 230
-1.0
 10
-4300.0
 20
-12.807581
 30
3070.0
 40
6.0
 50
255.0
 51
285.0
  0
LINE
  8
1
  5
2E
  6
CONTINUOUS
 62
7
 10
4298.44709
 20
-18.60314
 30
-3054.0
 11
4298.44709
 21
-18.60314
 31
-3070.0
  0
ARC
  8
1
  5
30
  6
CONTINUOUS
 62
7
 10
4300.0
 20
-12.807581
 30
-3054.0
 40
6.0
 50
255.0
 51
285.0
  0
LINE
  8
1
  5
32
  6
CONTINUOUS
 62
7
 10
4298.44709
 20
-18.60314
 30
-3070.0
 11
4290.16116
 21
-16.38293
 31
-3070.0
  0
LINE
  8
1
  5
34
  6
CONTINUOUS
 62
7
 10
4290.16116
 20
-16.38293
 30
-3054.0
 11
4290.16116
 21
-16.38293
 31
-3070.0
  0
LINE
  8
1
  5
36
  6
CONTINUOUS
 62
7
 10
4290.16116
 20
-16.38293
 30
-3054.0
 11
4298.44709
 21
-18.60314
 31
-3054.0
  0
ARC
  8
1
  5
38
  6
CONTINUOUS
 62
7
 10
4289.1
 20
-20.343224
 30
-3070.0
 40
4.1
 50
74.9999805556
 51
180.0
  0
LINE
  8
1
  5
3A
  6
CONTINUOUS
 62
7
 10
4285.0
 20
-20.34322
 30
-3054.0
 11
4285.0
 21
-20.34322
 31
-3070.0
  0
ARC
  8
1
  5
3C
  6
CONTINUOUS
 62
7
 210
0.0
 220
0.0
 230
-1.0
 10
-4289.1
 20
-20.343224
 30
3054.0
 40
4.1
 50
0.0
 51
105.0000194444
  0
LINE
  8
1
  5
3E
  6
CONTINUOUS
 62
7
 10
4285.0
 20
-20.34322
 30
-3070.0
 11
4285.0
 21
-29.65678
 31
-3070.0
  0
LINE
  8
1
  5
40
  6
CONTINUOUS
 62
7
 10
4285.0
 20
-29.65678
 30
-3054.0
 11
4285.0
 21
-29.65678
 31
-3070.0
  0
LINE
  8
1
  5
42
  6
CONTINUOUS
 62
7
 10
4285.0
 20
-29.65678
 30
-3054.0
 11
4285.0
 21
-20.34322
 31
-3054.0
  0
ARC
  8
1
  5
44
  6
CONTINUOUS
 62
7
 10
4289.1
 20
-29.656776
 30
-3070.0
 40
4.1
 50
180.0
 51
285.0000194444
  0
LINE
  8
1
  5
46
  6
CONTINUOUS
 62
7
 10
4290.16116
 20
-33.61707
 30
-3054.0
 11
4290.16116
 21
-33.61707
 31
-3070.0
  0
ARC
  8
1
  5
48
  6
CONTINUOUS
 62
7
 210
0.0
 220
0.0
 230
-1.0
 10
-4289.1
 20
-29.656776
 30
3054.0
 40
4.1
 50
254.9999805556
 51
360.0
  0
LINE
  8
1
  5
4A
  6
CONTINUOUS
 62
7
 10
4290.16116
 20
-33.61707
 30
-3070.0
 11
4298.44709
 21
-31.39686
 31
-3070.0
  0
LINE
  8
1
  5
4C
  6
CONTINUOUS
 62
7
 10
4298.44709
 20
-31.39686
 30
-3054.0
 11
4298.44709
 21
-31.39686
 31
-3070.0
  0
LINE
  8
1
  5
4E
  6
CONTINUOUS
 62
7
 10
4298.44709
 20
-31.39686
 30
-3054.0
 11
4290.16116
 21
-33.61707
 31
-3054.0
  0
ARC
  8
1
  5
50
  6
CONTINUOUS
 62
7
 210
0.0
 220
0.0
 230
-1.0
 10
-4300.0
 20
-37.192419
 30
3070.0
 40
6.0
 50
75.0
 51
105.0
  0
ARC
  8
1
  5
52
  6
CONTINUOUS
 62
7
 10
4300.0
 20
-37.192419
 30
-3054.0
 40
6.0
 50
75.0
 51
105.0
  0
ENDBLK
  8
1
  5
53
  0
BLOCK
  8
1
  5
55
 70
1
 10
0.0
 20
0.0
 30
0.0
  2
*M1
  3
*M1
  0
LINE
  8
1
  5
57
  6
CONTINUOUS
 62
7
 10
4300.0
 20
-18.80758
 30
-3070.0
 11
4300.0
 21
-18.80758
 31
-3054.0
  0
ARC
  8
1
  5
59
  6
CONTINUOUS
 62
7
 210
0.0
 220
0.0
 230
-1.0
 10
-4300.0
 20
-12.807581
 30
3070.0
 40
6.0
 50
255.0
 51
270.0
  0
LINE
  8
1
  5
5B
  6
CONTINUOUS
 62
7
 10
4301.55291
 20
-18.60314
 30
-3054.0
 11
4301.55291
 21
-18.60314
 31
-3070.0
  0
ARC
  8
1
  5
5D
  6
CONTINUOUS
 62
7
 10
4300.0
 20
-12.807581
 30
-3054.0
 40
6.0
 50
270.0
 51
285.0
  0
LINE
  8
1
  5
5F
  6
CONTINUOUS
 62
7
 10
4301.55291
 20
-31.39686
 30
-3070.0
 11
4309.83884
 21
-33.61707
 31
-3070.0
  0
LINE
  8
1
  5
61
  6
CONTINUOUS
 62
7
 10
4301.55291
 20
-31.39686
 30
-3054.0
 11
4301.55291
 21
-31.39686
 31
-3070.0
  0
LINE
  8
1
  5
63
  6
CONTINUOUS
 62
7
 10
4309.83884
 20
-33.61707
 30
-3054.0
 11
4301.55291
 21
-31.39686
 31
-3054.0
  0
LINE
  8
1
  5
65
  6
CONTINUOUS
 62
7
 10
4309.83884
 20
-33.61707
 30
-3054.0
 11
4309.83884
 21
-33.61707
 31
-3070.0
  0
ARC
  8
1
  5
67
  6
CONTINUOUS
 62
7
 10
4310.9
 20
-29.656776
 30
-3070.0
 40
4.1
 50
254.9999805556
 51
360.0
  0
ARC
  8
1
  5
69
  6
CONTINUOUS
 62
7
 210
0.0
 220
0.0
 230
-1.0
 10
-4310.9
 20
-29.656776
 30
3054.0
 40
4.1
 50
180.0
 51
285.0000194444
  0
LINE
  8
1
  5
6B
  6
CONTINUOUS
 62
7
 10
4315.0
 20
-29.65678
 30
-3054.0
 11
4315.0
 21
-29.65678
 31
-3070.0
  0
LINE
  8
1
  5
6D
  6
CONTINUOUS
 62
7
 10
4315.0
 20
-29.65678
 30
-3070.0
 11
4315.0
 21
-20.34322
 31
-3070.0
  0
LINE
  8
1
  5
6F
  6
CONTINUOUS
 62
7
 10
4315.0
 20
-20.34322
 30
-3054.0
 11
4315.0
 21
-29.65678
 31
-3054.0
  0
LINE
  8
1
  5
71
  6
CONTINUOUS
 62
7
 10
4315.0
 20
-20.34322
 30
-3054.0
 11
4315.0
 21
-20.34322
 31
-3070.0
  0
ARC
  8
1
  5
73
  6
CONTINUOUS
 62
7
 10
4310.9
 20
-20.343224
 30
-3070.0
 40
4.1
 50
360.0
 51
105.0000194444
  0
ARC
  8
1
  5
75
  6
CONTINUOUS
 62
7
 210
0.0
 220
0.0
 230
-1.0
 10
-4310.9
 20
-20.343224
 30
3054.0
 40
4.1
 50
74.9999805556
 51
180.0
  0
LINE
  8
1
  5
77
  6
CONTINUOUS
 62
7
 10
4309.83884
 20
-16.38293
 30
-3054.0
 11
4309.83884
 21
-16.38293
 31
-3070.0
  0
LINE
  8
1
  5
79
  6
CONTINUOUS
 62
7
 10
4309.83884
 20
-16.38293
 30
-3070.0
 11
4301.55291
 21
-18.60314
 31
-3070.0
  0
LINE
  8
1
  5
7B
  6
CONTINUOUS
 62
7
 10
4301.55291
 20
-18.60314
 30
-3054.0
 11
4309.83884
 21
-16.38293
 31
-3054.0
  0
LINE
  8
1
  5
7D
  6
CONTINUOUS
 62
7
 10
4300.0
 20
-31.19242
 30
-3054.0
 11
4300.0
 21
-31.19242
 31
-3070.0
  0
ARC
  8
1
  5
7F
  6
CONTINUOUS
 62
7
 10
4300.0
 20
-37.192419
 30
-3054.0
 40
6.0
 50
75.0
 51
90.0
  0
ARC
  8
1
  5
81
  6
CONTINUOUS
 62
7
 210
0.0
 220
0.0
 230
-1.0
 10
-4300.0
 20
-37.192419
 30
3070.0
 40
6.0
 50
90.0
 51
105.0
  0
ENDBLK
  8
1
  5
82
  0
BLOCK
  8
1
  5
84
 70
1
 10
0.0
 20
0.0
 30
0.0
  2
*M2
  3
*M2
  0
ARC
  8
1
  5
86
  6
CONTINUOUS
 62
7
 10
4322.0
 20
-37.192419
 30
-3054.0
 40
6.0
 50
75.0
 51
90.0
  0
LINE
  8
1
  5
88
  6
CONTINUOUS
 62
7
 10
4331.83884
 20
-33.61707
 30
-3054.0
 11
4323.55291
 21
-31.39686
 31
-3054.0
  0
ARC
  8
1
  5
8A
  6
CONTINUOUS
 62
7
 210
0.0
 220
0.0
 230
-1.0
 10
-4332.9
 20
-29.656776
 30
3054.0
 40
4.1
 50
180.0
 51
285.0000194444
  0
LINE
  8
1
  5
8C
  6
CONTINUOUS
 62
7
 10
4337.0
 20
-20.34322
 30
-3054.0
 11
4337.0
 21
-29.65678
 31
-3054.0
  0
ARC
  8
1
  5
8E
  6
CONTINUOUS
 62
7
 210
0.0
 220
0.0
 230
-1.0
 10
-4332.9
 20
-20.343224
 30
3054.0
 40
4.1
 50
74.9999805556
 51
180.0
  0
LINE
  8
1
  5
90
  6
CONTINUOUS
 62
7
 10
4323.55291
 20
-18.60314
 30
-3054.0
 11
4331.83884
 21
-16.38293
 31
-3054.0
  0
ARC
  8
1
  5
92
  6
CONTINUOUS
 62
7
 10
4322.0
 20
-12.807581
 30
-3054.0
 40
6.0
 50
270.0
 51
285.0
  0
LINE
  8
1
  5
94
  6
CONTINUOUS
 62
7
 10
4322.0
 20
-31.19242
 30
-3038.0
 11
4322.0
 21
-31.19242
 31
-3054.0
  0
ARC
  8
1
  5
96
  6
CONTINUOUS
 62
7
 10
4322.0
 20
-37.192419
 30
-3038.0
 40
6.0
 50
75.0
 51
90.0
  0
LINE
  8
1
  5
98
  6
CONTINUOUS
 62
7
 10
4323.55291
 20
-31.39686
 30
-3054.0
 11
4323.55291
 21
-31.39686
 31
-3038.0
  0
LINE
  8
1
  5
9A
  6
CONTINUOUS
 62
7
 10
4322.0
 20
-18.80758
 30
-3054.0
 11
4322.0
 21
-18.80758
 31
-3038.0
  0
LINE
  8
1
  5
9C
  6
CONTINUOUS
 62
7
 10
4323.55291
 20
-18.60314
 30
-3054.0
 11
4323.55291
 21
-18.60314
 31
-3038.0
  0
ARC
  8
1
  5
9E
  6
CONTINUOUS
 62
7
 10
4322.0
 20
-12.807581
 30
-3038.0
 40
6.0
 50
270.0
 51
285.0
  0
LINE
  8
1
  5
A0
  6
CONTINUOUS
 62
7
 10
4323.55291
 20
-18.60314
 30
-3038.0
 11
4331.83884
 21
-16.38293
 31
-3038.0
  0
LINE
  8
1
  5
A2
  6
CONTINUOUS
 62
7
 10
4331.83884
 20
-16.38293
 30
-3054.0
 11
4331.83884
 21
-16.38293
 31
-3038.0
  0
ARC
  8
1
  5
A4
  6
CONTINUOUS
 62
7
 210
0.0
 220
0.0
 230
-1.0
 10
-4332.9
 20
-20.343224
 30
3038.0
 40
4.1
 50
74.9999805556
 51
180.0
  0
LINE
  8
1
  5
A6
  6
CONTINUOUS
 62
7
 10
4337.0
 20
-20.34322
 30
-3054.0
 11
4337.0
 21
-20.34322
 31
-3038.0
  0
LINE
  8
1
  5
A8
  6
CONTINUOUS
 62
7
 10
4337.0
 20
-20.34322
 30
-3038.0
 11
4337.0
 21
-29.65678
 31
-3038.0
  0
LINE
  8
1
  5
AA
  6
CONTINUOUS
 62
7
 10
4337.0
 20
-29.65678
 30
-3054.0
 11
4337.0
 21
-29.65678
 31
-3038.0
  0
ARC
  8
1
  5
AC
  6
CONTINUOUS
 62
7
 210
0.0
 220
0.0
 230
-1.0
 10
-4332.9
 20
-29.656776
 30
3038.0
 40
4.1
 50
180.0
 51
285.0000194444
  0
LINE
  8
1
  5
AE
  6
CONTINUOUS
 62
7
 10
4331.83884
 20
-33.61707
 30
-3054.0
 11
4331.83884
 21
-33.61707
 31
-3038.0
  0
LINE
  8
1
  5
B0
  6
CONTINUOUS
 62
7
 10
4331.83884
 20
-33.61707
 30
-3038.0
 11
4323.55291
 21
-31.39686
 31
-3038.0
  0
ENDBLK
  8
1
  5
B1
  0
BLOCK
  8
1
  5
B3
 70
1
 10
0.0
 20
0.0
 30
0.0
  2
*M3
  3
*M3
  0
LINE
  8
1
  5
B5
  6
CONTINUOUS
 62
7
 10
4300.0
 20
-31.19242
 30
-3054.0
 11
4300.0
 21
-50.0
 31
-3054.0
  0
LINE
  8
1
  5
B7
  6
CONTINUOUS
 62
7
 10
4300.0
 20
-50.0
 30
-3054.0
 11
4322.0
 21
-50.0
 31
-3054.0
  0
LINE
  8
1
  5
B9
  6
CONTINUOUS
 62
7
 10
4322.0
 20
-31.19242
 30
-3054.0
 11
4322.0
 21
-50.0
 31
-3054.0
  0
LINE
  8
1
  5
BB
  6
CONTINUOUS
 62
7
 10
4322.0
 20
0.0
 30
-3054.0
 11
4322.0
 21
-18.80758
 31
-3054.0
  0
LINE
  8
1
  5
BD
  6
CONTINUOUS
 62
7
 10
4300.0
 20
0.0
 30
-3054.0
 11
4322.0
 21
0.0
 31
-3054.0
  0
LINE
  8
1
  5
BF
  6
CONTINUOUS
 62
7
 10
4300.0
 20
0.0
 30
-3054.0
 11
4300.0
 21
-18.80758
 31
-3054.0
  0
LINE
  8
1
  5
C1
  6
CONTINUOUS
 62
7
 10
4300.0
 20
-31.19242
 30
-3070.0
 11
4300.0
 21
-50.0
 31
-3070.0
  0
LINE
  8
1
  5
C3
  6
CONTINUOUS
 62
7
 10
4300.0
 20
-50.0
 30
-3070.0
 11
4300.0
 21
-50.0
 31
-3054.0
  0
LINE
  8
1
  5
C5
  6
CONTINUOUS
 62
7
 10
4300.0
 20
0.0
 30
-3070.0
 11
4300.0
 21
0.0
 31
-3054.0
  0
LINE
  8
1
  5
C7
  6
CONTINUOUS
 62
7
 10
4300.0
 20
0.0
 30
-3070.0
 11
4300.0
 21
-18.80758
 31
-3070.0
  0
LINE
  8
1
  5
C9
  6
CONTINUOUS
 62
7
 10
4322.0
 20
-31.19242
 30
-3038.0
 11
4322.0
 21
-50.0
 31
-3038.0
  0
LINE
  8
1
  5
CB
  6
CONTINUOUS
 62
7
 10
4322.0
 20
-50.0
 30
-3038.0
 11
4490.0
 21
-50.0
 31
-3038.0
  0
LINE
  8
1
  5
CD
  6
CONTINUOUS
 62
7
 10
4490.0
 20
0.0
 30
-3038.0
 11
4490.0
 21
-50.0
 31
-3038.0
  0
LINE
  8
1
  5
CF
  6
CONTINUOUS
 62
7
 10
4322.0
 20
0.0
 30
-3038.0
 11
4490.0
 21
0.0
 31
-3038.0
  0
LINE
  8
1
  5
D1
  6
CONTINUOUS
 62
7
 10
4322.0
 20
0.0
 30
-3038.0
 11
4322.0
 21
-18.80758
 31
-3038.0
  0
LINE
  8
1
  5
D3
  6
CONTINUOUS
 62
7
 10
4322.0
 20
-50.0
 30
-3054.0
 11
4322.0
 21
-50.0
 31
-3038.0
  0
LINE
  8
1
  5
D5
  6
CONTINUOUS
 62
7
 10
4322.0
 20
0.0
 30
-3054.0
 11
4322.0
 21
0.0
 31
-3038.0
  0
LINE
  8
1
  5
D7
  6
CONTINUOUS
 62
7
 10
4490.0
 20
-50.0
 30
-3038.0
 11
4490.0
 21
-50.0
 31
-3070.0
  0
LINE
  8
1
  5
D9
  6
CONTINUOUS
 62
7
 10
4490.0
 20
0.0
 30
-3070.0
 11
4490.0
 21
-50.0
 31
-3070.0
  0
LINE
  8
1
  5
DB
  6
CONTINUOUS
 62
7
 10
4490.0
 20
0.0
 30
-3038.0
 11
4490.0
 21
0.0
 31
-3070.0
  0
LINE
  8
1
  5
DD
  6
CONTINUOUS
 62
7
 10
4490.0
 20
0.0
 30
-3070.0
 11
4300.0
 21
0.0
 31
-3070.0
  0
LINE
  8
1
  5
DF
  6
CONTINUOUS
 62
7
 10
4490.0
 20
-50.0
 30
-3070.0
 11
4300.0
 21
-50.0
 31
-3070.0
  0
ENDBLK
  8
1
  5
E0
  0
BLOCK
  8
1
  5
E2
 70
1
 10
0.0
 20
0.0
 30
0.0
  2
*M4
  3
*M4
  0
INSERT
  8
1
  5
E4
  6
CONTINUOUS
 62
7
  2
*M2
 10
0.0
 20
0.0
 30
0.0
 41
1.0
 42
1.0
 43
1.0
 70
1
 71
1
  0
INSERT
  8
1
  5
E6
  6
CONTINUOUS
 62
7
  2
*M3
 10
0.0
 20
0.0
 30
0.0
 41
1.0
 42
1.0
 43
1.0
 70
1
 71
1
  0
ENDBLK
  8
1
  5
E7
  0
BLOCK
  8
1
  5
E9
 70
1
 10
0.0
 20
0.0
 30
0.0
  2
*M5
  3
*M5
  0
INSERT
  8
1
  5
EB
  6
CONTINUOUS
 62
7
  2
*M1
 10
0.0
 20
0.0
 30
0.0
 41
1.0
 42
1.0
 43
1.0
 70
1
 71
1
  0
INSERT
  8
1
  5
ED
  6
CONTINUOUS
 62
7
  2
*M4
 10
0.0
 20
0.0
 30
0.0
 41
1.0
 42
1.0
 43
1.0
 70
1
 71
1
  0
ENDBLK
  8
1
  5
EE
  0
BLOCK
  8
1
  5
F0
 70
1
 10
0.0
 20
0.0
 30
0.0
  2
*M6
  3
*M6
  0
LINE
  8
1
  5
F2
  6
CONTINUOUS
 62
7
 10
4300.0
 20
-31.19242
 30
-3070.0
 11
4300.0
 21
-31.19242
 31
-3054.0
  0
ARC
  8
1
  5
F4
  6
CONTINUOUS
 62
7
 210
0.0
 220
0.0
 230
-1.0
 10
-4300.0
 20
-37.192419
 30
3070.0
 40
6.0
 50
75.0
 51
90.0
  0
LINE
  8
1
  5
F6
  6
CONTINUOUS
 62
7
 10
4298.44709
 20
-31.39686
 30
-3054.0
 11
4298.44709
 21
-31.39686
 31
-3070.0
  0
ARC
  8
1
  5
F8
  6
CONTINUOUS
 62
7
 10
4300.0
 20
-37.192419
 30
-3054.0
 40
6.0
 50
90.0
 51
105.0
  0
LINE
  8
1
  5
FA
  6
CONTINUOUS
 62
7
 10
4300.0
 20
-18.80758
 30
-3054.0
 11
4300.0
 21
-18.80758
 31
-3070.0
  0
ARC
  8
1
  5
FC
  6
CONTINUOUS
 62
7
 10
4300.0
 20
-12.807581
 30
-3054.0
 40
6.0
 50
255.0
 51
270.0
  0
LINE
  8
1
  5
FE
  6
CONTINUOUS
 62
7
 10
4298.44709
 20
-18.60314
 30
-3054.0
 11
4298.44709
 21
-18.60314
 31
-3070.0
  0
ARC
  8
1
  5
100
  6
CONTINUOUS
 62
7
 210
0.0
 220
0.0
 230
-1.0
 10
-4300.0
 20
-12.807581
 30
3070.0
 40
6.0
 50
270.0
 51
285.0
  0
LINE
  8
1
  5
102
  6
CONTINUOUS
 62
7
 10
4298.44709
 20
-18.60314
 30
-3070.0
 11
4290.16116
 21
-16.38293
 31
-3070.0
  0
LINE
  8
1
  5
104
  6
CONTINUOUS
 62
7
 10
4290.16116
 20
-16.38293
 30
-3054.0
 11
4298.44709
 21
-18.60314
 31
-3054.0
  0
LINE
  8
1
  5
106
  6
CONTINUOUS
 62
7
 10
4290.16116
 20
-16.38293
 30
-3054.0
 11
4290.16116
 21
-16.38293
 31
-3070.0
  0
ARC
  8
1
  5
108
  6
CONTINUOUS
 62
7
 10
4289.1
 20
-20.343224
 30
-3070.0
 40
4.1
 50
74.9999805556
 51
180.0
  0
ARC
  8
1
  5
10A
  6
CONTINUOUS
 62
7
 210
0.0
 220
0.0
 230
-1.0
 10
-4289.1
 20
-20.343224
 30
3054.0
 40
4.1
 50
0.0
 51
105.0000194444
  0
LINE
  8
1
  5
10C
  6
CONTINUOUS
 62
7
 10
4285.0
 20
-20.34322
 30
-3054.0
 11
4285.0
 21
-20.34322
 31
-3070.0
  0
LINE
  8
1
  5
10E
  6
CONTINUOUS
 62
7
 10
4285.0
 20
-20.34322
 30
-3070.0
 11
4285.0
 21
-29.65678
 31
-3070.0
  0
LINE
  8
1
  5
110
  6
CONTINUOUS
 62
7
 10
4285.0
 20
-29.65678
 30
-3054.0
 11
4285.0
 21
-20.34322
 31
-3054.0
  0
LINE
  8
1
  5
112
  6
CONTINUOUS
 62
7
 10
4285.0
 20
-29.65678
 30
-3054.0
 11
4285.0
 21
-29.65678
 31
-3070.0
  0
ARC
  8
1
  5
114
  6
CONTINUOUS
 62
7
 10
4289.1
 20
-29.656776
 30
-3070.0
 40
4.1
 50
180.0
 51
285.0000194444
  0
ARC
  8
1
  5
116
  6
CONTINUOUS
 62
7
 210
0.0
 220
0.0
 230
-1.0
 10
-4289.1
 20
-29.656776
 30
3054.0
 40
4.1
 50
254.9999805556
 51
360.0
  0
LINE
  8
1
  5
118
  6
CONTINUOUS
 62
7
 10
4290.16116
 20
-33.61707
 30
-3054.0
 11
4290.16116
 21
-33.61707
 31
-3070.0
  0
LINE
  8
1
  5
11A
  6
CONTINUOUS
 62
7
 10
4290.16116
 20
-33.61707
 30
-3070.0
 11
4298.44709
 21
-31.39686
 31
-3070.0
  0
LINE
  8
1
  5
11C
  6
CONTINUOUS
 62
7
 10
4298.44709
 20
-31.39686
 30
-3054.0
 11
4290.16116
 21
-33.61707
 31
-3054.0
  0
ENDBLK
  8
1
  5
11D
  0
BLOCK
  8
1
  5
11F
 70
1
 10
0.0
 20
0.0
 30
0.0
  2
*M7
  3
*M7
  0
ARC
  8
1
  5
121
  6
CONTINUOUS
 62
7
 210
0.0
 220
0.0
 230
-1.0
 10
-4322.0
 20
-12.807581
 30
3054.0
 40
6.0
 50
270.0
 51
285.0
  0
LINE
  8
1
  5
123
  6
CONTINUOUS
 62
7
 10
4320.44709
 20
-18.60314
 30
-3054.0
 11
4312.16116
 21
-16.38293
 31
-3054.0
  0
ARC
  8
1
  5
125
  6
CONTINUOUS
 62
7
 210
0.0
 220
0.0
 230
-1.0
 10
-4311.1
 20
-20.343224
 30
3054.0
 40
4.1
 50
0.0
 51
105.0000194444
  0
LINE
  8
1
  5
127
  6
CONTINUOUS
 62
7
 10
4307.0
 20
-29.65678
 30
-3054.0
 11
4307.0
 21
-20.34322
 31
-3054.0
  0
ARC
  8
1
  5
129
  6
CONTINUOUS
 62
7
 10
4311.1
 20
-29.656776
 30
-3054.0
 40
4.1
 50
180.0
 51
285.0000194444
  0
LINE
  8
1
  5
12B
  6
CONTINUOUS
 62
7
 10
4312.16116
 20
-33.61707
 30
-3054.0
 11
4320.44709
 21
-31.39686
 31
-3054.0
  0
ARC
  8
1
  5
12D
  6
CONTINUOUS
 62
7
 210
0.0
 220
0.0
 230
-1.0
 10
-4322.0
 20
-37.192419
 30
3054.0
 40
6.0
 50
75.0
 51
90.0
  0
LINE
  8
1
  5
12F
  6
CONTINUOUS
 62
7
 10
4322.0
 20
-31.19242
 30
-3054.0
 11
4322.0
 21
-31.19242
 31
-3038.0
  0
LINE
  8
1
  5
131
  6
CONTINUOUS
 62
7
 10
4320.44709
 20
-31.39686
 30
-3054.0
 11
4320.44709
 21
-31.39686
 31
-3038.0
  0
ARC
  8
1
  5
133
  6
CONTINUOUS
 62
7
 10
4322.0
 20
-37.192419
 30
-3038.0
 40
6.0
 50
90.0
 51
105.0
  0
LINE
  8
1
  5
135
  6
CONTINUOUS
 62
7
 10
4320.44709
 20
-31.39686
 30
-3038.0
 11
4312.16116
 21
-33.61707
 31
-3038.0
  0
LINE
  8
1
  5
137
  6
CONTINUOUS
 62
7
 10
4312.16116
 20
-33.61707
 30
-3054.0
 11
4312.16116
 21
-33.61707
 31
-3038.0
  0
ARC
  8
1
  5
139
  6
CONTINUOUS
 62
7
 210
0.0
 220
0.0
 230
-1.0
 10
-4311.1
 20
-29.656776
 30
3038.0
 40
4.1
 50
254.9999805556
 51
360.0
  0
LINE
  8
1
  5
13B
  6
CONTINUOUS
 62
7
 10
4307.0
 20
-29.65678
 30
-3054.0
 11
4307.0
 21
-29.65678
 31
-3038.0
  0
LINE
  8
1
  5
13D
  6
CONTINUOUS
 62
7
 10
4307.0
 20
-29.65678
 30
-3038.0
 11
4307.0
 21
-20.34322
 31
-3038.0
  0
LINE
  8
1
  5
13F
  6
CONTINUOUS
 62
7
 10
4307.0
 20
-20.34322
 30
-3054.0
 11
4307.0
 21
-20.34322
 31
-3038.0
  0
ARC
  8
1
  5
141
  6
CONTINUOUS
 62
7
 210
0.0
 220
0.0
 230
-1.0
 10
-4311.1
 20
-20.343224
 30
3038.0
 40
4.1
 50
0.0
 51
105.0000194444
  0
LINE
  8
1
  5
143
  6
CONTINUOUS
 62
7
 10
4312.16116
 20
-16.38293
 30
-3054.0
 11
4312.16116
 21
-16.38293
 31
-3038.0
  0
LINE
  8
1
  5
145
  6
CONTINUOUS
 62
7
 10
4312.16116
 20
-16.38293
 30
-3038.0
 11
4320.44709
 21
-18.60314
 31
-3038.0
  0
LINE
  8
1
  5
147
  6
CONTINUOUS
 62
7
 10
4320.44709
 20
-18.60314
 30
-3054.0
 11
4320.44709
 21
-18.60314
 31
-3038.0
  0
LINE
  8
1
  5
149
  6
CONTINUOUS
 62
7
 10
4322.0
 20
-18.80758
 30
-3038.0
 11
4322.0
 21
-18.80758
 31
-3054.0
  0
ARC
  8
1
  5
14B
  6
CONTINUOUS
 62
7
 10
4322.0
 20
-12.807581
 30
-3038.0
 40
6.0
 50
255.0
 51
270.0
  0
ENDBLK
  8
1
  5
14C
  0
BLOCK
  8
1
  5
14E
 70
1
 10
0.0
 20
0.0
 30
0.0
  2
*M8
  3
*M8
  0
LINE
  8
1
  5
150
  6
CONTINUOUS
 62
7
 10
4300.0
 20
0.0
 30
-3070.0
 11
4300.0
 21
-18.80758
 31
-3070.0
  0
LINE
  8
1
  5
152
  6
CONTINUOUS
 62
7
 10
4300.0
 20
0.0
 30
-3054.0
 11
4300.0
 21
0.0
 31
-3070.0
  0
LINE
  8
1
  5
154
  6
CONTINUOUS
 62
7
 10
4300.0
 20
0.0
 30
-3054.0
 11
4300.0
 21
-18.80758
 31
-3054.0
  0
LINE
  8
1
  5
156
  6
CONTINUOUS
 62
7
 10
4300.0
 20
-31.19242
 30
-3054.0
 11
4300.0
 21
-50.0
 31
-3054.0
  0
LINE
  8
1
  5
158
  6
CONTINUOUS
 62
7
 10
4300.0
 20
-50.0
 30
-3070.0
 11
4300.0
 21
-50.0
 31
-3054.0
  0
LINE
  8
1
  5
15A
  6
CONTINUOUS
 62
7
 10
4300.0
 20
-31.19242
 30
-3070.0
 11
4300.0
 21
-50.0
 31
-3070.0
  0
LINE
  8
1
  5
15C
  6
CONTINUOUS
 62
7
 10
4322.0
 20
0.0
 30
-3054.0
 11
4300.0
 21
0.0
 31
-3054.0
  0
LINE
  8
1
  5
15E
  6
CONTINUOUS
 62
7
 10
4322.0
 20
-18.80758
 30
-3054.0
 11
4322.0
 21
0.0
 31
-3054.0
  0
LINE
  8
1
  5
160
  6
CONTINUOUS
 62
7
 10
4322.0
 20
-50.0
 30
-3054.0
 11
4322.0
 21
-31.19242
 31
-3054.0
  0
LINE
  8
1
  5
162
  6
CONTINUOUS
 62
7
 10
4300.0
 20
-50.0
 30
-3054.0
 11
4322.0
 21
-50.0
 31
-3054.0
  0
ENDBLK
  8
1
  5
163
  0
BLOCK
  8
1
  5
165
 70
1
 10
0.0
 20
0.0
 30
0.0
  2
*M9
  3
*M9
  0
LINE
  8
1
  5
167
  6
CONTINUOUS
 62
7
 10
4490.0
 20
-50.0
 30
-3038.0
 11
4490.0
 21
-31.19242
 31
-3038.0
  0
LINE
  8
1
  5
169
  6
CONTINUOUS
 62
7
 10
4490.0
 20
-50.0
 30
-3054.0
 11
4490.0
 21
-50.0
 31
-3038.0
  0
LINE
  8
1
  5
16B
  6
CONTINUOUS
 62
7
 10
4300.0
 20
-50.0
 30
-3038.0
 11
4490.0
 21
-50.0
 31
-3038.0
  0
LINE
  8
1
  5
16D
  6
CONTINUOUS
 62
7
 10
4300.0
 20
-50.0
 30
-3038.0
 11
4300.0
 21
-50.0
 31
-3070.0
  0
LINE
  8
1
  5
16F
  6
CONTINUOUS
 62
7
 10
4468.0
 20
-50.0
 30
-3070.0
 11
4300.0
 21
-50.0
 31
-3070.0
  0
LINE
  8
1
  5
171
  6
CONTINUOUS
 62
7
 10
4490.0
 20
0.0
 30
-3038.0
 11
4490.0
 21
0.0
 31
-3054.0
  0
LINE
  8
1
  5
173
  6
CONTINUOUS
 62
7
 10
4490.0
 20
-18.80758
 30
-3038.0
 11
4490.0
 21
0.0
 31
-3038.0
  0
LINE
  8
1
  5
175
  6
CONTINUOUS
 62
7
 10
4490.0
 20
0.0
 30
-3038.0
 11
4300.0
 21
0.0
 31
-3038.0
  0
LINE
  8
1
  5
177
  6
CONTINUOUS
 62
7
 10
4300.0
 20
0.0
 30
-3038.0
 11
4300.0
 21
-50.0
 31
-3038.0
  0
LINE
  8
1
  5
179
  6
CONTINUOUS
 62
7
 10
4300.0
 20
-50.0
 30
-3070.0
 11
4300.0
 21
0.0
 31
-3070.0
  0
LINE
  8
1
  5
17B
  6
CONTINUOUS
 62
7
 10
4300.0
 20
0.0
 30
-3070.0
 11
4468.0
 21
0.0
 31
-3070.0
  0
LINE
  8
1
  5
17D
  6
CONTINUOUS
 62
7
 10
4300.0
 20
0.0
 30
-3038.0
 11
4300.0
 21
0.0
 31
-3070.0
  0
ENDBLK
  8
1
  5
17E
  0
BLOCK
  8
1
  5
180
 70
1
 10
0.0
 20
0.0
 30
0.0
  2
*M10
  3
*M10
  0
INSERT
  8
1
  5
182
  6
CONTINUOUS
 62
7
  2
*M8
 10
0.0
 20
0.0
 30
0.0
 41
1.0
 42
1.0
 43
1.0
 70
1
 71
1
  0
INSERT
  8
1
  5
184
  6
CONTINUOUS
 62
7
  2
*M9
 10
-168.0
 20
0.0
 30
0.0
 41
1.0
 42
1.0
 43
1.0
 70
1
 71
1
  0
ENDBLK
  8
1
  5
185
  0
BLOCK
  8
1
  5
187
 70
1
 10
0.0
 20
0.0
 30
0.0
  2
*M11
  3
*M11
  0
INSERT
  8
1
  5
189
  6
CONTINUOUS
 62
7
  2
*M7
 10
0.0
 20
0.0
 30
0.0
 41
1.0
 42
1.0
 43
1.0
 70
1
 71
1
  0
INSERT
  8
1
  5
18B
  6
CONTINUOUS
 62
7
  2
*M10
 10
0.0
 20
0.0
 30
0.0
 41
1.0
 42
1.0
 43
1.0
 70
1
 71
1
  0
ENDBLK
  8
1
  5
18C
  0
BLOCK
  8
1
  5
18E
 70
1
 10
0.0
 20
0.0
 30
0.0
  2
*M12
  3
*M12
  0
INSERT
  8
1
  5
190
  6
CONTINUOUS
 62
7
  2
*M6
 10
0.0
 20
0.0
 30
0.0
 41
1.0
 42
1.0
 43
1.0
 70
1
 71
1
  0
INSERT
  8
1
  5
192
  6
CONTINUOUS
 62
7
  2
*M11
 10
0.0
 20
0.0
 30
0.0
 41
1.0
 42
1.0
 43
1.0
 70
1
 71
1
  0
ENDBLK
  8
1
  5
193
  0
BLOCK
  8
1
  5
195
 70
1
 10
0.0
 20
0.0
 30
0.0
  2
*M13
  3
*M13
  0
LINE
  8
1
  5
197
  6
CONTINUOUS
 62
7
 10
4320.44709
 20
-31.39686
 30
-3038.0
 11
4312.16116
 21
-33.61707
 31
-3038.0
  0
LINE
  8
1
  5
199
  6
CONTINUOUS
 62
7
 10
4312.16116
 20
-33.61707
 30
-3054.0
 11
4312.16116
 21
-33.61707
 31
-3038.0
  0
LINE
  8
1
  5
19B
  6
CONTINUOUS
 62
7
 10
4320.44709
 20
-31.39686
 30
-3054.0
 11
4312.16116
 21
-33.61707
 31
-3054.0
  0
LINE
  8
1
  5
19D
  6
CONTINUOUS
 62
7
 10
4320.44709
 20
-31.39686
 30
-3054.0
 11
4320.44709
 21
-31.39686
 31
-3038.0
  0
ARC
  8
1
  5
19F
  6
CONTINUOUS
 62
7
 210
0.0
 220
0.0
 230
-1.0
 10
-4311.1
 20
-29.656776
 30
3038.0
 40
4.1
 50
254.9999805556
 51
360.0
  0
LINE
  8
1
  5
1A1
  6
CONTINUOUS
 62
7
 10
4307.0
 20
-29.65678
 30
-3054.0
 11
4307.0
 21
-29.65678
 31
-3038.0
  0
ARC
  8
1
  5
1A3
  6
CONTINUOUS
 62
7
 210
0.0
 220
0.0
 230
-1.0
 10
-4311.1
 20
-29.656776
 30
3054.0
 40
4.1
 50
254.9999805556
 51
360.0
  0
LINE
  8
1
  5
1A5
  6
CONTINUOUS
 62
7
 10
4307.0
 20
-29.65678
 30
-3038.0
 11
4307.0
 21
-20.34322
 31
-3038.0
  0
LINE
  8
1
  5
1A7
  6
CONTINUOUS
 62
7
 10
4307.0
 20
-20.34322
 30
-3054.0
 11
4307.0
 21
-20.34322
 31
-3038.0
  0
LINE
  8
1
  5
1A9
  6
CONTINUOUS
 62
7
 10
4307.0
 20
-29.65678
 30
-3054.0
 11
4307.0
 21
-20.34322
 31
-3054.0
  0
ARC
  8
1
  5
1AB
  6
CONTINUOUS
 62
7
 210
0.0
 220
0.0
 230
-1.0
 10
-4311.1
 20
-20.343224
 30
3038.0
 40
4.1
 50
0.0
 51
105.0000194444
  0
LINE
  8
1
  5
1AD
  6
CONTINUOUS
 62
7
 10
4312.16116
 20
-16.38293
 30
-3054.0
 11
4312.16116
 21
-16.38293
 31
-3038.0
  0
ARC
  8
1
  5
1AF
  6
CONTINUOUS
 62
7
 210
0.0
 220
0.0
 230
-1.0
 10
-4311.1
 20
-20.343224
 30
3054.0
 40
4.1
 50
0.0
 51
105.0000194444
  0
LINE
  8
1
  5
1B1
  6
CONTINUOUS
 62
7
 10
4312.16116
 20
-16.38293
 30
-3038.0
 11
4320.44709
 21
-18.60314
 31
-3038.0
  0
LINE
  8
1
  5
1B3
  6
CONTINUOUS
 62
7
 10
4320.44709
 20
-18.60314
 30
-3054.0
 11
4320.44709
 21
-18.60314
 31
-3038.0
  0
LINE
  8
1
  5
1B5
  6
CONTINUOUS
 62
7
 10
4312.16116
 20
-16.38293
 30
-3054.0
 11
4320.44709
 21
-18.60314
 31
-3054.0
  0
ARC
  8
1
  5
1B7
  6
CONTINUOUS
 62
7
 10
4322.0
 20
-12.807581
 30
-3038.0
 40
6.0
 50
255.0
 51
285.0
  0
LINE
  8
1
  5
1B9
  6
CONTINUOUS
 62
7
 10
4323.55291
 20
-18.60314
 30
-3054.0
 11
4323.55291
 21
-18.60314
 31
-3038.0
  0
ARC
  8
1
  5
1BB
  6
CONTINUOUS
 62
7
 10
4322.0
 20
-12.807581
 30
-3054.0
 40
6.0
 50
255.0
 51
285.0
  0
LINE
  8
1
  5
1BD
  6
CONTINUOUS
 62
7
 10
4323.55291
 20
-18.60314
 30
-3038.0
 11
4331.83884
 21
-16.38293
 31
-3038.0
  0
LINE
  8
1
  5
1BF
  6
CONTINUOUS
 62
7
 10
4331.83884
 20
-16.38293
 30
-3054.0
 11
4331.83884
 21
-16.38293
 31
-3038.0
  0
LINE
  8
1
  5
1C1
  6
CONTINUOUS
 62
7
 10
4323.55291
 20
-18.60314
 30
-3054.0
 11
4331.83884
 21
-16.38293
 31
-3054.0
  0
ARC
  8
1
  5
1C3
  6
CONTINUOUS
 62
7
 210
0.0
 220
0.0
 230
-1.0
 10
-4332.9
 20
-20.343224
 30
3038.0
 40
4.1
 50
74.9999805556
 51
180.0
  0
LINE
  8
1
  5
1C5
  6
CONTINUOUS
 62
7
 10
4337.0
 20
-20.34322
 30
-3054.0
 11
4337.0
 21
-20.34322
 31
-3038.0
  0
ARC
  8
1
  5
1C7
  6
CONTINUOUS
 62
7
 210
0.0
 220
0.0
 230
-1.0
 10
-4332.9
 20
-20.343224
 30
3054.0
 40
4.1
 50
74.9999805556
 51
180.0
  0
LINE
  8
1
  5
1C9
  6
CONTINUOUS
 62
7
 10
4337.0
 20
-20.34322
 30
-3038.0
 11
4337.0
 21
-29.65678
 31
-3038.0
  0
LINE
  8
1
  5
1CB
  6
CONTINUOUS
 62
7
 10
4337.0
 20
-29.65678
 30
-3054.0
 11
4337.0
 21
-29.65678
 31
-3038.0
  0
LINE
  8
1
  5
1CD
  6
CONTINUOUS
 62
7
 10
4337.0
 20
-20.34322
 30
-3054.0
 11
4337.0
 21
-29.65678
 31
-3054.0
  0
ARC
  8
1
  5
1CF
  6
CONTINUOUS
 62
7
 210
0.0
 220
0.0
 230
-1.0
 10
-4332.9
 20
-29.656776
 30
3038.0
 40
4.1
 50
180.0
 51
285.0000194444
  0
LINE
  8
1
  5
1D1
  6
CONTINUOUS
 62
7
 10
4331.83884
 20
-33.61707
 30
-3054.0
 11
4331.83884
 21
-33.61707
 31
-3038.0
  0
ARC
  8
1
  5
1D3
  6
CONTINUOUS
 62
7
 210
0.0
 220
0.0
 230
-1.0
 10
-4332.9
 20
-29.656776
 30
3054.0
 40
4.1
 50
180.0
 51
285.0000194444
  0
LINE
  8
1
  5
1D5
  6
CONTINUOUS
 62
7
 10
4331.83884
 20
-33.61707
 30
-3038.0
 11
4323.55291
 21
-31.39686
 31
-3038.0
  0
LINE
  8
1
  5
1D7
  6
CONTINUOUS
 62
7
 10
4323.55291
 20
-31.39686
 30
-3054.0
 11
4323.55291
 21
-31.39686
 31
-3038.0
  0
LINE
  8
1
  5
1D9
  6
CONTINUOUS
 62
7
 10
4331.83884
 20
-33.61707
 30
-3054.0
 11
4323.55291
 21
-31.39686
 31
-3054.0
  0
ARC
  8
1
  5
1DB
  6
CONTINUOUS
 62
7
 10
4322.0
 20
-37.192419
 30
-3038.0
 40
6.0
 50
75.0
 51
105.0
  0
ARC
  8
1
  5
1DD
  6
CONTINUOUS
 62
7
 10
4322.0
 20
-37.192419
 30
-3054.0
 40
6.0
 50
75.0
 51
105.0
  0
ENDBLK
  8
1
  5
1DE
  0
ENDSEC
  0
SECTION
  2
ENTITIES
  0
INSERT
  8
1
  5
2
  6
CONTINUOUS
 62
7
  2
*M0
 10
-8577.60052
 20
104.95784
 30
0.0
 41
1.0
 42
1.0
 43
1.0
 70
1
 71
1
  0
INSERT
  8
1
  5
4
  6
CONTINUOUS
 62
7
  2
*M5
 10
-8505.60052
 20
21.20104
 30
0.0
 41
1.0
 42
1.0
 43
1.0
 70
1
 71
1
  0
INSERT
  8
1
  5
6
  6
CONTINUOUS
 62
7
  2
*M12
 10
-8577.60052
 20
21.20104
 30
0.0
 41
1.0
 42
1.0
 43
1.0
 70
1
 71
1
  0
INSERT
  8
1
  5
8
  6
CONTINUOUS
 62
7
  2
*M13
 10
-8505.60052
 20
104.95784
 30
-16.0
 41
1.0
 42
1.0
 43
1.0
 70
1
 71
1
  0
ENDSEC
  0
EOF
