  0
SECTION
  2
HEADER
  9
$ACADVER
  1
AC1009
  9
$INSBASE
 10
0.0
 20
0.0
 30
0.0
  9
$EXTMAX
 10
263.52094
 20
-118.62974
 30
-23.01636
  9
$EXTMIN
 10
-166.47906
 20
-168.62974
 30
-55.01636
  9
$LIMMAX
 10
12.0
 20
9.0
  9
$LIMMIN
 10
0.0
 20
0.0
  9
$ORTHOMODE
 70
0
  9
$REGENMODE
 70
1
  9
$FILLMODE
 70
1
  9
$QTEXTMODE
 70
0
  9
$MIRRTEXT
 70
1
  9
$DRAGMODE
 70
2
  9
$LTSCALE
 40
1.0
  9
$OSMODE
 70
0
  9
$ATTMODE
 70
1
  9
$TEXTSIZE
 40
0.2
  9
$TRACEWID
 40
0.05
  9
$TEXTSTYLE
  7
STANDARD
  9
$CLAYER
  8
0
  9
$CELTYPE
  6
CONTINUOUS
  9
$CECOLOR
 62
256
  9
$DIMSCALE
 40
1.0
  9
$DIMASZ
 40
0.18
  9
$DIMEXO
 40
0.0625
  9
$DIMDLI
 40
0.38
  9
$DIMRND
 40
0.0
  9
$DIMDLE
 40
0.0
  9
$DIMEXE
 40
0.18
  9
$DIMTP
 40
0.0
  9
$DIMTM
 40
0.0
  9
$DIMTXT
 40
0.18
  9
$DIMCEN
 40
0.09
  9
$DIMTSZ
 40
0.0
  9
$DIMTOL
 70
0
  9
$DIMLIM
 70
0
  9
$DIMTIH
 70
1
  9
$DIMTOH
 70
1
  9
$DIMSE1
 70
0
  9
$DIMSE2
 70
0
  9
$DIMTAD
 70
0
  9
$DIMZIN
 70
0
  9
$DIMBLK
  1

  9
$DIMASO
 70
1
  9
$DIMSHO
 70
1
  9
$DIMPOST
  1

  9
$DIMAPOST
  1

  9
$DIMALT
 70
0
  9
$DIMALTD
 70
2
  9
$DIMALTF
 40
25.4
  9
$DIMLFAC
 40
1.0
  9
$DIMTOFL
 70
0
  9
$DIMTVP
 40
0.0
  9
$DIMTIX
 70
0
  9
$DIMSOXD
 70
0
  9
$DIMSAH
 70
0
  9
$DIMBLK1
  1

  9
$DIMBLK2
  1

  9
$DIMSTYLE
  2
*UNNAMED
  9
$DIMCLRD
 70
0
  9
$DIMCLRE
 70
0
  9
$DIMCLRT
 70
0
  9
$DIMTFAC
 40
1.0
  9
$DIMGAP
 40
0.09
  9
$LUNITS
 70
2
  9
$LUPREC
 70
4
  9
$AXISMODE
 70
0
  9
$AXISUNIT
 10
0.0
 20
0.0
  9
$SKETCHINC
 40
0.1
  9
$FILLETRAD
 40
0.0
  9
$AUNITS
 70
0
  9
$AUPREC
 70
0
  9
$MENU
  1
acad
  9
$ELEVATION
 40
0.0
  9
$PELEVATION
 40
0.0
  9
$THICKNESS
 40
0.0
  9
$LIMCHECK
 70
0
  9
$BLIPMODE
 70
1
  9
$CHAMFERA
 40
0.0
  9
$CHAMFERB
 40
0.0
  9
$SKPOLY
 70
0
  9
$TDCREATE
 40
0.0
  9
$TDUPDATE
 40
0.0
  9
$TDINDWG
 40
0.0
  9
$TDUSRTIMER
 40
0.0
  9
$USRTIMER
 70
1
  9
$ANGBASE
 50
0.0
  9
$ANGDIR
 70
0
  9
$PDMODE
 70
0
  9
$PDSIZE
 40
0.0
  9
$PLINEWID
 40
0.0
  9
$COORDS
 70
0
  9
$SPLFRAME
 70
0
  9
$SPLINETYPE
 70
6
  9
$SPLINESEGS
 70
10
  9
$ATTDIA
 70
0
  9
$ATTREQ
 70
1
  9
$HANDLING
 70
1
  9
$HANDSEED
  5
132
  9
$SURFTAB1
 70
6
  9
$SURFTAB2
 70
6
  9
$SURFTYPE
 70
6
  9
$SURFU
 70
10
  9
$SURFV
 70
10
  9
$UCSNAME
  2

  9
$UCSORG
 10
0.0
 20
0.0
 30
0.0
  9
$UCSXDIR
 10
1.0
 20
0.0
 30
0.0
  9
$UCSYDIR
 10
0.0
 20
1.0
 30
0.0
  9
$PUCSNAME
  2
 
  9
$PUCSORG
 10
0.0
 20
0.0
 30
0.0
  9
$PUCSXDIR
 10
1.0
 20
0.0
 30
0.0
  9
$PUCSYDIR
 10
0.0
 20
1.0
 30
0.0
  9
$USERI1
 70
0
  9
$USERI2
 70
0
  9
$USERI3
 70
0
  9
$USERI4
 70
0
  9
$USERI5
 70
0
  9
$USERR1
 40
0.0
  9
$USERR2
 40
0.0
  9
$USERR3
 40
0.0
  9
$USERR4
 40
0.0
  9
$USERR5
 40
0.0
  9
$WORLDVIEW
 70
1
  9
$SHADEDGE
 70
3
  9
$SHADEDIF
 70
70
  9
$TILEMODE
 70
1
  9
$MAXACTVP
 70
16
  9
$PINSBASE
 10
0.0
 20
0.0
 30
0.0
  9
$PLIMCHECK
 70
0
  9
$PEXTMIN
 10
-1.000000E+020
 20
-1.000000E+020
 30
-1.000000E+020
  9
$PEXTMAX
 10
-1.000000E+020
 20
-1.000000E+020
 30
-1.000000E+020
  9
$PLIMMIN
 10
0.0
 20
0.0
  9
$PLIMMAX
 10
12.0
 20
9.0
  9
$UNITMODE
 70
0
  9
$VISRETAIN
 70
0
  0
ENDSEC
  0
SECTION
  2
TABLES
  0
TABLE
  2
LTYPE
 70
7
  0
LTYPE
  2
CONTINUOUS
 70
64
  3
Solid line
 72
65
 73
0
 40
0.0
  0
LTYPE
  2
DOT
 70
64
  3
. . . . . . . . . . . . . . . . . . . . . . . . . . . . . . . . .
 72
65
 73
2
 40
0.25
 49
0.0
 49
-0.25
  0
LTYPE
  2
HIDDEN
 70
64
  3
__ __ __ __ __ __ __ __ __ __ __ __ __ __ __ __ __ __ __ __ __ 
 72
65
 73
2
 40
0.375
 49
0.25
 49
-0.125
  0
LTYPE
  2
DASHED
 70
64
  3
__ __ __ __ __ __ __ __ __ __ __ __ __ __ __ __ __ __ __ __ __
 72
65
 73
2
 40
0.75
 49
0.5
 49
-0.25
  0
LTYPE
  2
DASHDOT
 70
64
  3
__ . __ . __ . __ . __ . __ . __ . __ . __ . __ . __ . __ . _
 72
65
 73
4
 40
1.0
 49
0.5
 49
-0.25
 49
0.0
 49
-0.25
  0
LTYPE
  2
DIVIDE
 70
64
  3
____ . . ____ . . ____ . . ____ . . ____ . . ____ . . ____ . .
 72
65
 73
6
 40
1.25
 49
0.5
 49
-0.25
 49
0.0
 49
-0.25
 49
0.0
 49
-0.25
  0
LTYPE
  2
CENTER
 70
64
  3
____ _ ____ _ ____ _ ____ _ ____ _ ____ _ ____ _ ____ _ ____ _
 72
65
 73
4
 40
2.0
 49
1.25
 49
-0.25
 49
0.25
 49
-0.25
  0
ENDTAB
  0
TABLE
  2
APPID
 70
1
  0
APPID
  2
ACAD
 70
0
  0
ENDTAB
  0
TABLE
  2
DIMSTYLE
 70
0
  0
ENDTAB
  0
TABLE
  2
LAYER
 70
4
  0
LAYER
  2
0
 70
0
 62
7
  6
CONTINUOUS
  0
LAYER
  2
CONSTRUCTION_CLASS
 70
0
 62
7
  6
CONTINUOUS
  0
LAYER
  2
PATTERN_CLASS
 70
0
 62
7
  6
CONTINUOUS
  0
LAYER
  2
1
 70
0
 62
7
  6
CONTINUOUS
  0
ENDTAB
  0
TABLE
  2
STYLE
 70
1
  0
STYLE
  2
STANDARD
 70
0
 40
0.2
 41
1.0
 50
0.0
 71
0
 42
0.0
  3
txt
  4

  0
ENDTAB
  0
TABLE
  2
UCS
 70
0
  0
ENDTAB
  0
TABLE
  2
VIEW
 70
1
  0
VIEW
  2
AN_4
 70
0
 40
184.08589
 41
266.94694
 10
5.684342E-014
 20
4.263256E-014
 11
697.367456
 21
519.007202
 31
329.68983
 12
84.289249
 22
-71.590615
 32
36.906
 42
50.0
 43
464.8616
 44
-464.8616
 50
0.0
 71
0
  0
ENDTAB
  0
TABLE
  2
VPORT
 70
4
  0
VPORT
  2
*ACTIVE
 70
0
 10
0.500821
 20
0.50171
 11
0.998358
 21
0.997719
 12
0.0
 22
0.0
 13
0.0
 23
0.0
 14
0.0
 24
0.0
 15
0.0
 25
0.0
 16
0.0
 26
-2.747534E-015
 36
44.87212
 17
30.345899
 27
-143.629735
 37
-39.01636
 40
290.28707
 41
1.393103
 42
50.0
 43
22.43606
 44
-22.43606
 50
0.0
 51
0.0
 71
22
 72
100
 73
1
 74
0
 75
0
 76
0
 77
0
 78
0
  0
VPORT
  2
*ACTIVE
 70
0
 10
0.001642
 20
0.50171
 11
0.499179
 21
0.997719
 12
-5.684342E-014
 22
1.421085E-014
 13
0.0
 23
0.0
 14
0.0
 24
0.0
 15
0.0
 25
0.0
 16
278.159218
 26
207.016596
 36
131.503506
 17
56.014974
 27
-153.699154
 37
-39.016357
 40
200.47787
 41
1.393103
 42
50.0
 43
185.41952
 44
-185.41952
 50
0.0
 51
0.0
 71
22
 72
100
 73
1
 74
0
 75
0
 76
0
 77
0
 78
0
  0
VPORT
  2
*ACTIVE
 70
0
 10
0.001642
 20
0.003421
 11
0.499179
 21
0.49943
 12
0.0
 22
0.0
 13
0.0
 23
0.0
 14
0.0
 24
0.0
 15
0.0
 25
0.0
 16
0.0
 26
-62.87212
 36
0.0
 17
30.345899
 27
-143.62974
 37
-39.016355
 40
290.28707
 41
1.393103
 42
50.0
 43
31.43606
 44
-31.43606
 50
0.0
 51
0.0
 71
22
 72
100
 73
1
 74
0
 75
0
 76
0
 77
0
 78
0
  0
VPORT
  2
*ACTIVE
 70
0
 10
0.500821
 20
0.003421
 11
0.998358
 21
0.49943
 12
-1.065814E-014
 22
3.552714E-015
 13
0.0
 23
0.0
 14
0.0
 24
0.0
 15
0.0
 25
0.0
 16
440.75
 26
0.0
 36
0.0
 17
48.52094
 27
-146.061783
 37
-39.01636
 40
38.84396
 41
1.393103
 42
50.0
 43
220.375
 44
-220.375
 50
0.0
 51
0.0
 71
22
 72
100
 73
1
 74
0
 75
0
 76
0
 77
0
 78
0
  0
ENDTAB
  0
ENDSEC
  0
SECTION
  2
BLOCKS
  0
BLOCK
  8
1
  5
6
 70
1
 10
0.0
 20
0.0
 30
0.0
  2
*M0
  3
*M0
  0
LINE
  8
1
  5
8
  6
CONTINUOUS
 62
7
 10
154.99158
 20
-10.00873
 30
-16.0
 11
154.99158
 21
0.02279
 31
-16.0
  0
ARC
  8
1
  5
A
  6
CONTINUOUS
 62
7
 10
150.89158
 20
-10.00873
 30
-16.0
 40
4.1
 50
255.0000083333
 51
5.0888874903E-014
  0
LINE
  8
1
  5
C
  6
CONTINUOUS
 62
7
 10
140.15274
 20
-11.3759
 30
-16.0
 11
149.83042
 21
-13.96903
 31
-16.0
  0
ARC
  8
1
  5
E
  6
CONTINUOUS
 62
7
 210
0.0
 220
0.0
 230
-1.0
 10
-139.09158
 20
-15.336194
 30
16.0
 40
4.1
 50
360.0
 51
105.0000277778
  0
LINE
  8
1
  5
10
  6
CONTINUOUS
 62
7
 10
134.99158
 20
-29.99297
 30
-16.0
 11
134.99158
 21
-15.33619
 31
-16.0
  0
LINE
  8
1
  5
12
  6
CONTINUOUS
 62
7
 10
134.99158
 20
-29.99297
 30
-16.0
 11
134.99158
 21
-29.99297
 31
-32.0
  0
ARC
  8
1
  5
14
  6
CONTINUOUS
 62
7
 10
150.89158
 20
0.02279
 30
-16.0
 40
4.1
 50
0.0
 51
104.9999916667
  0
LINE
  8
1
  5
16
  6
CONTINUOUS
 62
7
 10
149.83042
 20
3.98309
 30
-16.0
 11
140.15274
 21
1.38996
 31
-16.0
  0
ARC
  8
1
  5
18
  6
CONTINUOUS
 62
7
 210
0.0
 220
0.0
 230
-1.0
 10
-139.09158
 20
5.350254
 30
16.0
 40
4.1
 50
254.9999722222
 51
360.0
  0
LINE
  8
1
  5
1A
  6
CONTINUOUS
 62
7
 10
134.99158
 20
5.35025
 30
-16.0
 11
134.99158
 21
20.00703
 31
-16.0
  0
LINE
  8
1
  5
1C
  6
CONTINUOUS
 62
7
 10
134.99158
 20
20.00703
 30
-16.0
 11
134.99158
 21
20.00703
 31
-32.0
  0
LINE
  8
1
  5
1E
  6
CONTINUOUS
 62
7
 10
-30.00842
 20
-29.99297
 30
-32.0
 11
134.99158
 21
-29.99297
 31
-32.0
  0
LINE
  8
1
  5
20
  6
CONTINUOUS
 62
7
 10
-30.00842
 20
20.00703
 30
-32.0
 11
-30.00842
 21
-29.99297
 31
-32.0
  0
LINE
  8
1
  5
22
  6
CONTINUOUS
 62
7
 10
134.99158
 20
20.00703
 30
-32.0
 11
-30.00842
 21
20.00703
 31
-32.0
  0
LINE
  8
1
  5
24
  6
CONTINUOUS
 62
7
 10
-30.00842
 20
20.00703
 30
0.0
 11
139.99158
 21
20.00703
 31
0.0
  0
LINE
  8
1
  5
26
  6
CONTINUOUS
 62
7
 10
-30.00842
 20
-29.99297
 30
0.0
 11
-30.00842
 21
20.00703
 31
0.0
  0
LINE
  8
1
  5
28
  6
CONTINUOUS
 62
7
 10
139.99158
 20
-29.99297
 30
0.0
 11
-30.00842
 21
-29.99297
 31
0.0
  0
LINE
  8
1
  5
2A
  6
CONTINUOUS
 62
7
 10
139.99158
 20
-21.83619
 30
0.0
 11
139.99158
 21
-29.99297
 31
0.0
  0
ARC
  8
1
  5
2C
  6
CONTINUOUS
 62
7
 10
144.09158
 20
-21.836194
 30
0.0
 40
4.1
 50
74.9999722222
 51
180.0
  0
LINE
  8
1
  5
2E
  6
CONTINUOUS
 62
7
 10
154.83042
 20
-20.46903
 30
0.0
 11
145.15274
 21
-17.8759
 31
0.0
  0
ARC
  8
1
  5
30
  6
CONTINUOUS
 62
7
 210
0.0
 220
0.0
 230
-1.0
 10
-155.89158
 20
-16.50873
 30
-4.656613E-015
 40
4.1
 50
180.0
 51
284.9999916667
  0
LINE
  8
1
  5
32
  6
CONTINUOUS
 62
7
 10
159.99158
 20
6.52279
 30
0.0
 11
159.99158
 21
-16.50873
 31
0.0
  0
ARC
  8
1
  5
34
  6
CONTINUOUS
 62
7
 210
0.0
 220
0.0
 230
-1.0
 10
-155.89158
 20
6.52279
 30
-4.656613E-015
 40
4.1
 50
75.0000083333
 51
180.0
  0
LINE
  8
1
  5
36
  6
CONTINUOUS
 62
7
 10
145.15274
 20
7.88996
 30
0.0
 11
154.83042
 21
10.48309
 31
0.0
  0
ARC
  8
1
  5
38
  6
CONTINUOUS
 62
7
 10
144.09158
 20
11.850254
 30
4.656613E-015
 40
4.1
 50
180.0
 51
285.0000277778
  0
LINE
  8
1
  5
3A
  6
CONTINUOUS
 62
7
 10
139.99158
 20
20.00703
 30
0.0
 11
139.99158
 21
11.85025
 31
0.0
  0
LINE
  8
1
  5
3C
  6
CONTINUOUS
 62
7
 10
-30.00842
 20
20.00703
 30
-32.0
 11
-30.00842
 21
20.00703
 31
0.0
  0
LINE
  8
1
  5
3E
  6
CONTINUOUS
 62
7
 10
139.99158
 20
20.00703
 30
0.0
 11
139.99158
 21
20.00703
 31
-16.0
  0
LINE
  8
1
  5
40
  6
CONTINUOUS
 62
7
 10
139.99158
 20
20.00703
 30
-16.0
 11
134.99158
 21
20.00703
 31
-16.0
  0
ARC
  8
1
  5
42
  6
CONTINUOUS
 62
7
 10
155.89158
 20
6.52279
 30
-16.0
 40
4.1
 50
0.0
 51
104.9999916667
  0
LINE
  8
1
  5
44
  6
CONTINUOUS
 62
7
 10
154.83042
 20
10.48309
 30
0.0
 11
154.83042
 21
10.48309
 31
-16.0
  0
LINE
  8
1
  5
46
  6
CONTINUOUS
 62
7
 10
159.99158
 20
6.52279
 30
0.0
 11
159.99158
 21
6.52279
 31
-16.0
  0
LINE
  8
1
  5
48
  6
CONTINUOUS
 62
7
 10
154.83042
 20
10.48309
 30
-16.0
 11
145.15274
 21
7.88996
 31
-16.0
  0
LINE
  8
1
  5
4A
  6
CONTINUOUS
 62
7
 10
145.15274
 20
7.88996
 30
0.0
 11
145.15274
 21
7.88996
 31
-16.0
  0
ARC
  8
1
  5
4C
  6
CONTINUOUS
 62
7
 210
0.0
 220
0.0
 230
-1.0
 10
-144.09158
 20
11.850254
 30
16.0
 40
4.1
 50
254.9999722222
 51
360.0
  0
LINE
  8
1
  5
4E
  6
CONTINUOUS
 62
7
 10
139.99158
 20
11.85025
 30
0.0
 11
139.99158
 21
11.85025
 31
-16.0
  0
LINE
  8
1
  5
50
  6
CONTINUOUS
 62
7
 10
139.99158
 20
11.85025
 30
-16.0
 11
139.99158
 21
20.00703
 31
-16.0
  0
LINE
  8
1
  5
52
  6
CONTINUOUS
 62
7
 10
-30.00842
 20
-29.99297
 30
-32.0
 11
-30.00842
 21
-29.99297
 31
0.0
  0
LINE
  8
1
  5
54
  6
CONTINUOUS
 62
7
 10
134.99158
 20
-29.99297
 30
-16.0
 11
139.99158
 21
-29.99297
 31
-16.0
  0
LINE
  8
1
  5
56
  6
CONTINUOUS
 62
7
 10
139.99158
 20
-29.99297
 30
0.0
 11
139.99158
 21
-29.99297
 31
-16.0
  0
LINE
  8
1
  5
58
  6
CONTINUOUS
 62
7
 10
139.99158
 20
-29.99297
 30
-16.0
 11
139.99158
 21
-21.83619
 31
-16.0
  0
LINE
  8
1
  5
5A
  6
CONTINUOUS
 62
7
 10
139.99158
 20
-21.83619
 30
0.0
 11
139.99158
 21
-21.83619
 31
-16.0
  0
ARC
  8
1
  5
5C
  6
CONTINUOUS
 62
7
 210
0.0
 220
0.0
 230
-1.0
 10
-144.09158
 20
-21.836194
 30
16.0
 40
4.1
 50
360.0
 51
105.0000277778
  0
LINE
  8
1
  5
5E
  6
CONTINUOUS
 62
7
 10
145.15274
 20
-17.8759
 30
0.0
 11
145.15274
 21
-17.8759
 31
-16.0
  0
LINE
  8
1
  5
60
  6
CONTINUOUS
 62
7
 10
145.15274
 20
-17.8759
 30
-16.0
 11
154.83042
 21
-20.46903
 31
-16.0
  0
LINE
  8
1
  5
62
  6
CONTINUOUS
 62
7
 10
154.83042
 20
-20.46903
 30
0.0
 11
154.83042
 21
-20.46903
 31
-16.0
  0
ARC
  8
1
  5
64
  6
CONTINUOUS
 62
7
 10
155.89158
 20
-16.50873
 30
-16.0
 40
4.1
 50
255.0000083333
 51
5.0888874903E-014
  0
LINE
  8
1
  5
66
  6
CONTINUOUS
 62
7
 10
159.99158
 20
-16.50873
 30
0.0
 11
159.99158
 21
-16.50873
 31
-16.0
  0
LINE
  8
1
  5
68
  6
CONTINUOUS
 62
7
 10
159.99158
 20
-16.50873
 30
-16.0
 11
159.99158
 21
6.52279
 31
-16.0
  0
ENDBLK
  8
1
  5
69
  0
BLOCK
  8
1
  5
6B
 70
1
 10
0.0
 20
0.0
 30
0.0
  2
*M1
  3
*M1
  0
LINE
  8
1
  5
6D
  6
CONTINUOUS
 62
7
 10
153.99158
 20
-13.00873
 30
-16.0
 11
153.99158
 21
-13.00873
 31
-32.0
  0
LINE
  8
1
  5
6F
  6
CONTINUOUS
 62
7
 10
153.99158
 20
-13.00873
 30
-32.0
 11
153.99158
 21
-2.97721
 31
-32.0
  0
LINE
  8
1
  5
71
  6
CONTINUOUS
 62
7
 10
153.99158
 20
-2.97721
 30
-16.0
 11
153.99158
 21
-2.97721
 31
-32.0
  0
LINE
  8
1
  5
73
  6
CONTINUOUS
 62
7
 10
148.83042
 20
-16.96903
 30
-16.0
 11
148.83042
 21
-16.96903
 31
-32.0
  0
ARC
  8
1
  5
75
  6
CONTINUOUS
 62
7
 10
149.89158
 20
-13.00873
 30
-32.0
 40
4.1
 50
255.0000083333
 51
5.0888874903E-014
  0
LINE
  8
1
  5
77
  6
CONTINUOUS
 62
7
 10
139.15274
 20
-14.3759
 30
-16.0
 11
139.15274
 21
-14.3759
 31
-32.0
  0
LINE
  8
1
  5
79
  6
CONTINUOUS
 62
7
 10
139.15274
 20
-14.3759
 30
-32.0
 11
148.83042
 21
-16.96903
 31
-32.0
  0
LINE
  8
1
  5
7B
  6
CONTINUOUS
 62
7
 10
133.99158
 20
-18.33619
 30
-16.0
 11
133.99158
 21
-18.33619
 31
-32.0
  0
ARC
  8
1
  5
7D
  6
CONTINUOUS
 62
7
 210
0.0
 220
0.0
 230
-1.0
 10
-138.09158
 20
-18.336194
 30
32.0
 40
4.1
 50
360.0
 51
105.0000277778
  0
LINE
  8
1
  5
7F
  6
CONTINUOUS
 62
7
 10
133.99158
 20
-32.99297
 30
-32.0
 11
133.99158
 21
-18.33619
 31
-32.0
  0
ARC
  8
1
  5
81
  6
CONTINUOUS
 62
7
 10
149.89158
 20
-2.97721
 30
-32.0
 40
4.1
 50
0.0
 51
104.9999916667
  0
LINE
  8
1
  5
83
  6
CONTINUOUS
 62
7
 10
148.83042
 20
0.98309
 30
-16.0
 11
148.83042
 21
0.98309
 31
-32.0
  0
LINE
  8
1
  5
85
  6
CONTINUOUS
 62
7
 10
148.83042
 20
0.98309
 30
-32.0
 11
139.15274
 21
-1.61004
 31
-32.0
  0
LINE
  8
1
  5
87
  6
CONTINUOUS
 62
7
 10
139.15274
 20
-1.61004
 30
-16.0
 11
139.15274
 21
-1.61004
 31
-32.0
  0
ARC
  8
1
  5
89
  6
CONTINUOUS
 62
7
 210
0.0
 220
0.0
 230
-1.0
 10
-138.09158
 20
2.350254
 30
32.0
 40
4.1
 50
254.9999722222
 51
360.0
  0
LINE
  8
1
  5
8B
  6
CONTINUOUS
 62
7
 10
133.99158
 20
2.35025
 30
-16.0
 11
133.99158
 21
2.35025
 31
-32.0
  0
LINE
  8
1
  5
8D
  6
CONTINUOUS
 62
7
 10
133.99158
 20
2.35025
 30
-32.0
 11
133.99158
 21
17.00703
 31
-32.0
  0
ENDBLK
  8
1
  5
8E
  0
BLOCK
  8
1
  5
90
 70
1
 10
0.0
 20
0.0
 30
0.0
  2
*M2
  3
*M2
  0
INSERT
  8
1
  5
92
  6
CONTINUOUS
 62
7
  2
*M0
 10
0.0
 20
-0.00703
 30
0.0
 41
1.0
 42
1.0
 43
1.0
 70
1
 71
1
  0
INSERT
  8
1
  5
94
  6
CONTINUOUS
 62
7
  2
*M1
 10
1.0
 20
2.99297
 30
0.0
 41
1.0
 42
1.0
 43
1.0
 70
1
 71
1
  0
ENDBLK
  8
1
  5
95
  0
BLOCK
  8
1
  5
97
 70
1
 10
0.0
 20
0.0
 30
0.0
  2
*M3
  3
*M3
  0
LINE
  8
1
  5
99
  6
CONTINUOUS
 62
7
 10
154.99158
 20
-10.00873
 30
-16.0
 11
154.99158
 21
0.02279
 31
-16.0
  0
ARC
  8
1
  5
9B
  6
CONTINUOUS
 62
7
 10
150.89158
 20
-10.00873
 30
-16.0
 40
4.1
 50
255.0000083333
 51
5.0888874903E-014
  0
LINE
  8
1
  5
9D
  6
CONTINUOUS
 62
7
 10
140.15274
 20
-11.3759
 30
-16.0
 11
149.83042
 21
-13.96903
 31
-16.0
  0
ARC
  8
1
  5
9F
  6
CONTINUOUS
 62
7
 210
0.0
 220
0.0
 230
-1.0
 10
-139.09158
 20
-15.336194
 30
16.0
 40
4.1
 50
360.0
 51
105.0000277778
  0
ARC
  8
1
  5
A1
  6
CONTINUOUS
 62
7
 10
150.89158
 20
0.02279
 30
-16.0
 40
4.1
 50
0.0
 51
104.9999916667
  0
LINE
  8
1
  5
A3
  6
CONTINUOUS
 62
7
 10
149.83042
 20
3.98309
 30
-16.0
 11
140.15274
 21
1.38996
 31
-16.0
  0
ARC
  8
1
  5
A5
  6
CONTINUOUS
 62
7
 210
0.0
 220
0.0
 230
-1.0
 10
-139.09158
 20
5.350254
 30
16.0
 40
4.1
 50
254.9999722222
 51
360.0
  0
ARC
  8
1
  5
A7
  6
CONTINUOUS
 62
7
 10
155.89158
 20
6.52279
 30
-16.0
 40
4.1
 50
0.0
 51
104.9999916667
  0
LINE
  8
1
  5
A9
  6
CONTINUOUS
 62
7
 10
159.99158
 20
6.52279
 30
0.0
 11
159.99158
 21
6.52279
 31
-16.0
  0
ARC
  8
1
  5
AB
  6
CONTINUOUS
 62
7
 210
0.0
 220
0.0
 230
-1.0
 10
-155.89158
 20
6.52279
 30
-4.656613E-015
 40
4.1
 50
75.0000083333
 51
180.0
  0
LINE
  8
1
  5
AD
  6
CONTINUOUS
 62
7
 10
154.83042
 20
10.48309
 30
0.0
 11
154.83042
 21
10.48309
 31
-16.0
  0
LINE
  8
1
  5
AF
  6
CONTINUOUS
 62
7
 10
154.83042
 20
10.48309
 30
-16.0
 11
145.15274
 21
7.88996
 31
-16.0
  0
LINE
  8
1
  5
B1
  6
CONTINUOUS
 62
7
 10
145.15274
 20
7.88996
 30
0.0
 11
154.83042
 21
10.48309
 31
0.0
  0
LINE
  8
1
  5
B3
  6
CONTINUOUS
 62
7
 10
145.15274
 20
7.88996
 30
0.0
 11
145.15274
 21
7.88996
 31
-16.0
  0
ARC
  8
1
  5
B5
  6
CONTINUOUS
 62
7
 210
0.0
 220
0.0
 230
-1.0
 10
-144.09158
 20
11.850254
 30
16.0
 40
4.1
 50
254.9999722222
 51
360.0
  0
ARC
  8
1
  5
B7
  6
CONTINUOUS
 62
7
 10
144.09158
 20
11.850254
 30
4.656613E-015
 40
4.1
 50
180.0
 51
285.0000277778
  0
LINE
  8
1
  5
B9
  6
CONTINUOUS
 62
7
 10
139.99158
 20
11.85025
 30
0.0
 11
139.99158
 21
11.85025
 31
-16.0
  0
LINE
  8
1
  5
BB
  6
CONTINUOUS
 62
7
 10
139.99158
 20
11.85025
 30
-16.0
 11
139.99158
 21
20.00703
 31
-16.0
  0
LINE
  8
1
  5
BD
  6
CONTINUOUS
 62
7
 10
139.99158
 20
20.00703
 30
0.0
 11
139.99158
 21
11.85025
 31
0.0
  0
LINE
  8
1
  5
BF
  6
CONTINUOUS
 62
7
 10
139.99158
 20
20.00703
 30
-16.0
 11
139.99158
 21
20.00703
 31
0.0
  0
LINE
  8
1
  5
C1
  6
CONTINUOUS
 62
7
 10
139.99158
 20
-29.99297
 30
-16.0
 11
139.99158
 21
-21.83619
 31
-16.0
  0
LINE
  8
1
  5
C3
  6
CONTINUOUS
 62
7
 10
139.99158
 20
-29.99297
 30
0.0
 11
139.99158
 21
-29.99297
 31
-16.0
  0
LINE
  8
1
  5
C5
  6
CONTINUOUS
 62
7
 10
139.99158
 20
-21.83619
 30
0.0
 11
139.99158
 21
-29.99297
 31
0.0
  0
LINE
  8
1
  5
C7
  6
CONTINUOUS
 62
7
 10
139.99158
 20
-21.83619
 30
0.0
 11
139.99158
 21
-21.83619
 31
-16.0
  0
ARC
  8
1
  5
C9
  6
CONTINUOUS
 62
7
 210
0.0
 220
0.0
 230
-1.0
 10
-144.09158
 20
-21.836194
 30
16.0
 40
4.1
 50
360.0
 51
105.0000277778
  0
ARC
  8
1
  5
CB
  6
CONTINUOUS
 62
7
 10
144.09158
 20
-21.836194
 30
0.0
 40
4.1
 50
74.9999722222
 51
180.0
  0
LINE
  8
1
  5
CD
  6
CONTINUOUS
 62
7
 10
145.15274
 20
-17.8759
 30
0.0
 11
145.15274
 21
-17.8759
 31
-16.0
  0
LINE
  8
1
  5
CF
  6
CONTINUOUS
 62
7
 10
145.15274
 20
-17.8759
 30
-16.0
 11
154.83042
 21
-20.46903
 31
-16.0
  0
LINE
  8
1
  5
D1
  6
CONTINUOUS
 62
7
 10
154.83042
 20
-20.46903
 30
0.0
 11
145.15274
 21
-17.8759
 31
0.0
  0
LINE
  8
1
  5
D3
  6
CONTINUOUS
 62
7
 10
154.83042
 20
-20.46903
 30
0.0
 11
154.83042
 21
-20.46903
 31
-16.0
  0
ARC
  8
1
  5
D5
  6
CONTINUOUS
 62
7
 10
155.89158
 20
-16.50873
 30
-16.0
 40
4.1
 50
255.0000083333
 51
5.0888874903E-014
  0
ARC
  8
1
  5
D7
  6
CONTINUOUS
 62
7
 210
0.0
 220
0.0
 230
-1.0
 10
-155.89158
 20
-16.50873
 30
-4.656613E-015
 40
4.1
 50
180.0
 51
284.9999916667
  0
LINE
  8
1
  5
D9
  6
CONTINUOUS
 62
7
 10
159.99158
 20
-16.50873
 30
0.0
 11
159.99158
 21
-16.50873
 31
-16.0
  0
LINE
  8
1
  5
DB
  6
CONTINUOUS
 62
7
 10
159.99158
 20
-16.50873
 30
-16.0
 11
159.99158
 21
6.52279
 31
-16.0
  0
LINE
  8
1
  5
DD
  6
CONTINUOUS
 62
7
 10
159.99158
 20
6.52279
 30
0.0
 11
159.99158
 21
-16.50873
 31
0.0
  0
LINE
  8
1
  5
DF
  6
CONTINUOUS
 62
7
 10
134.99158
 20
5.35025
 30
-16.0
 11
134.99158
 21
20.00703
 31
-16.0
  0
LINE
  8
1
  5
E1
  6
CONTINUOUS
 62
7
 10
134.99158
 20
-29.99297
 30
-16.0
 11
134.99158
 21
-15.33619
 31
-16.0
  0
LINE
  8
1
  5
E3
  6
CONTINUOUS
 62
7
 10
139.99158
 20
-29.99297
 30
-16.0
 11
134.99158
 21
-29.99297
 31
-16.0
  0
LINE
  8
1
  5
E5
  6
CONTINUOUS
 62
7
 10
134.99158
 20
20.00703
 30
-16.0
 11
139.99158
 21
20.00703
 31
-16.0
  0
ENDBLK
  8
1
  5
E6
  0
BLOCK
  8
1
  5
E8
 70
1
 10
0.0
 20
0.0
 30
0.0
  2
*M4
  3
*M4
  0
LINE
  8
1
  5
EA
  6
CONTINUOUS
 62
7
 10
153.99158
 20
-2.97721
 30
-16.0
 11
153.99158
 21
-2.97721
 31
-32.0
  0
LINE
  8
1
  5
EC
  6
CONTINUOUS
 62
7
 10
153.99158
 20
-13.00873
 30
-32.0
 11
153.99158
 21
-2.97721
 31
-32.0
  0
LINE
  8
1
  5
EE
  6
CONTINUOUS
 62
7
 10
153.99158
 20
-13.00873
 30
-16.0
 11
153.99158
 21
-13.00873
 31
-32.0
  0
ARC
  8
1
  5
F0
  6
CONTINUOUS
 62
7
 10
149.89158
 20
-13.00873
 30
-32.0
 40
4.1
 50
255.0000083333
 51
5.0888874903E-014
  0
LINE
  8
1
  5
F2
  6
CONTINUOUS
 62
7
 10
148.83042
 20
-16.96903
 30
-16.0
 11
148.83042
 21
-16.96903
 31
-32.0
  0
LINE
  8
1
  5
F4
  6
CONTINUOUS
 62
7
 10
139.15274
 20
-14.3759
 30
-32.0
 11
148.83042
 21
-16.96903
 31
-32.0
  0
LINE
  8
1
  5
F6
  6
CONTINUOUS
 62
7
 10
139.15274
 20
-14.3759
 30
-16.0
 11
139.15274
 21
-14.3759
 31
-32.0
  0
ARC
  8
1
  5
F8
  6
CONTINUOUS
 62
7
 210
0.0
 220
0.0
 230
-1.0
 10
-138.09158
 20
-18.336194
 30
32.0
 40
4.1
 50
360.0
 51
105.0000277778
  0
LINE
  8
1
  5
FA
  6
CONTINUOUS
 62
7
 10
133.99158
 20
-18.33619
 30
-32.0
 11
133.99158
 21
-18.33619
 31
-16.0
  0
LINE
  8
1
  5
FC
  6
CONTINUOUS
 62
7
 10
148.83042
 20
0.98309
 30
-16.0
 11
148.83042
 21
0.98309
 31
-32.0
  0
ARC
  8
1
  5
FE
  6
CONTINUOUS
 62
7
 10
149.89158
 20
-2.97721
 30
-32.0
 40
4.1
 50
0.0
 51
104.9999916667
  0
LINE
  8
1
  5
100
  6
CONTINUOUS
 62
7
 10
139.15274
 20
-1.61004
 30
-16.0
 11
139.15274
 21
-1.61004
 31
-32.0
  0
LINE
  8
1
  5
102
  6
CONTINUOUS
 62
7
 10
148.83042
 20
0.98309
 30
-32.0
 11
139.15274
 21
-1.61004
 31
-32.0
  0
LINE
  8
1
  5
104
  6
CONTINUOUS
 62
7
 10
133.99158
 20
2.35025
 30
-32.0
 11
133.99158
 21
2.35025
 31
-16.0
  0
ARC
  8
1
  5
106
  6
CONTINUOUS
 62
7
 210
0.0
 220
0.0
 230
-1.0
 10
-138.09158
 20
2.350254
 30
32.0
 40
4.1
 50
254.9999722222
 51
360.0
  0
ENDBLK
  8
1
  5
107
  0
BLOCK
  8
1
  5
109
 70
1
 10
0.0
 20
0.0
 30
0.0
  2
*M5
  3
*M5
  0
INSERT
  8
1
  5
10B
  6
CONTINUOUS
 62
7
  2
*M3
 10
0.0
 20
-0.00703
 30
0.0
 41
1.0
 42
1.0
 43
1.0
 70
1
 71
1
  0
INSERT
  8
1
  5
10D
  6
CONTINUOUS
 62
7
  2
*M4
 10
1.0
 20
2.99297
 30
0.0
 41
1.0
 42
1.0
 43
1.0
 70
1
 71
1
  0
ENDBLK
  8
1
  5
10E
  0
BLOCK
  8
1
  5
110
 70
1
 10
0.0
 20
0.0
 30
0.0
  2
*M6
  3
*M6
  0
LINE
  8
1
  5
112
  6
CONTINUOUS
 62
7
 10
-30.00842
 20
5.34322
 30
-32.0
 11
-30.00842
 21
20.0
 31
-32.0
  0
LINE
  8
1
  5
114
  6
CONTINUOUS
 62
7
 10
-30.00842
 20
20.0
 30
-32.0
 11
159.99158
 21
20.0
 31
-32.0
  0
LINE
  8
1
  5
116
  6
CONTINUOUS
 62
7
 10
159.99158
 20
20.0
 30
-32.0
 11
159.99158
 21
-30.0
 31
-32.0
  0
LINE
  8
1
  5
118
  6
CONTINUOUS
 62
7
 10
159.99158
 20
-30.0
 30
-32.0
 11
-30.00842
 21
-30.0
 31
-32.0
  0
LINE
  8
1
  5
11A
  6
CONTINUOUS
 62
7
 10
-30.00842
 20
-30.0
 30
-32.0
 11
-30.00842
 21
-15.34322
 31
-32.0
  0
LINE
  8
1
  5
11C
  6
CONTINUOUS
 62
7
 10
-30.00842
 20
20.0
 30
-32.0
 11
-30.00842
 21
20.0
 31
-16.0
  0
LINE
  8
1
  5
11E
  6
CONTINUOUS
 62
7
 10
159.99158
 20
20.0
 30
0.0
 11
-25.00842
 21
20.0
 31
0.0
  0
LINE
  8
1
  5
120
  6
CONTINUOUS
 62
7
 10
159.99158
 20
20.0
 30
-32.0
 11
159.99158
 21
20.0
 31
0.0
  0
LINE
  8
1
  5
122
  6
CONTINUOUS
 62
7
 10
-25.00842
 20
-30.0
 30
0.0
 11
159.99158
 21
-30.0
 31
0.0
  0
LINE
  8
1
  5
124
  6
CONTINUOUS
 62
7
 10
159.99158
 20
-30.0
 30
0.0
 11
159.99158
 21
20.0
 31
0.0
  0
LINE
  8
1
  5
126
  6
CONTINUOUS
 62
7
 10
-30.00842
 20
-30.0
 30
-16.0
 11
-30.00842
 21
-30.0
 31
-32.0
  0
LINE
  8
1
  5
128
  6
CONTINUOUS
 62
7
 10
159.99158
 20
-30.0
 30
-32.0
 11
159.99158
 21
-30.0
 31
0.0
  0
ENDBLK
  8
1
  5
129
  0
BLOCK
  8
1
  5
12B
 70
1
 10
0.0
 20
0.0
 30
0.0
  2
*M7
  3
*M7
  0
INSERT
  8
1
  5
12D
  6
CONTINUOUS
 62
7
  2
*M5
 10
0.0
 20
0.0
 30
0.0
 41
1.0
 42
1.0
 43
1.0
 70
1
 71
1
  0
INSERT
  8
1
  5
12F
  6
CONTINUOUS
 62
7
  2
*M6
 10
165.0
 20
0.0
 30
0.0
 41
1.0
 42
1.0
 43
1.0
 70
1
 71
1
  0
ENDBLK
  8
1
  5
130
  0
ENDSEC
  0
SECTION
  2
ENTITIES
  0
INSERT
  8
1
  5
2
  6
CONTINUOUS
 62
7
  2
*M2
 10
-136.47064
 20
-138.62974
 30
-23.01636
 41
1.0
 42
1.0
 43
1.0
 70
1
 71
1
  0
INSERT
  8
1
  5
4
  6
CONTINUOUS
 62
7
  2
*M7
 10
-61.47064
 20
-138.62974
 30
-23.01636
 41
1.0
 42
1.0
 43
1.0
 70
1
 71
1
  0
ENDSEC
  0
EOF
