  0
SECTION
  2
HEADER
  9
$ACADVER
  1
AC1009
  9
$INSBASE
 10
0.0
 20
0.0
 30
0.0
  9
$EXTMAX
 10
500.0
 20
-10.0
 30
30.0
  9
$EXTMIN
 10
-30.0
 20
-165.0
 30
14.99999
  9
$LIMMAX
 10
12.0
 20
9.0
  9
$LIMMIN
 10
0.0
 20
0.0
  9
$ORTHOMODE
 70
0
  9
$REGENMODE
 70
1
  9
$FILLMODE
 70
1
  9
$QTEXTMODE
 70
0
  9
$MIRRTEXT
 70
1
  9
$DRAGMODE
 70
2
  9
$LTSCALE
 40
1.0
  9
$OSMODE
 70
0
  9
$ATTMODE
 70
1
  9
$TEXTSIZE
 40
0.2
  9
$TRACEWID
 40
0.05
  9
$TEXTSTYLE
  7
STANDARD
  9
$CLAYER
  8
0
  9
$CELTYPE
  6
CONTINUOUS
  9
$CECOLOR
 62
256
  9
$DIMSCALE
 40
1.0
  9
$DIMASZ
 40
0.18
  9
$DIMEXO
 40
0.0625
  9
$DIMDLI
 40
0.38
  9
$DIMRND
 40
0.0
  9
$DIMDLE
 40
0.0
  9
$DIMEXE
 40
0.18
  9
$DIMTP
 40
0.0
  9
$DIMTM
 40
0.0
  9
$DIMTXT
 40
0.18
  9
$DIMCEN
 40
0.09
  9
$DIMTSZ
 40
0.0
  9
$DIMTOL
 70
0
  9
$DIMLIM
 70
0
  9
$DIMTIH
 70
1
  9
$DIMTOH
 70
1
  9
$DIMSE1
 70
0
  9
$DIMSE2
 70
0
  9
$DIMTAD
 70
0
  9
$DIMZIN
 70
0
  9
$DIMBLK
  1

  9
$DIMASO
 70
1
  9
$DIMSHO
 70
1
  9
$DIMPOST
  1

  9
$DIMAPOST
  1

  9
$DIMALT
 70
0
  9
$DIMALTD
 70
2
  9
$DIMALTF
 40
25.4
  9
$DIMLFAC
 40
1.0
  9
$DIMTOFL
 70
0
  9
$DIMTVP
 40
0.0
  9
$DIMTIX
 70
0
  9
$DIMSOXD
 70
0
  9
$DIMSAH
 70
0
  9
$DIMBLK1
  1

  9
$DIMBLK2
  1

  9
$DIMSTYLE
  2
*UNNAMED
  9
$DIMCLRD
 70
0
  9
$DIMCLRE
 70
0
  9
$DIMCLRT
 70
0
  9
$DIMTFAC
 40
1.0
  9
$DIMGAP
 40
0.09
  9
$LUNITS
 70
2
  9
$LUPREC
 70
4
  9
$AXISMODE
 70
0
  9
$AXISUNIT
 10
0.0
 20
0.0
  9
$SKETCHINC
 40
0.1
  9
$FILLETRAD
 40
0.0
  9
$AUNITS
 70
0
  9
$AUPREC
 70
0
  9
$MENU
  1
acad
  9
$ELEVATION
 40
0.0
  9
$PELEVATION
 40
0.0
  9
$THICKNESS
 40
0.0
  9
$LIMCHECK
 70
0
  9
$BLIPMODE
 70
1
  9
$CHAMFERA
 40
0.0
  9
$CHAMFERB
 40
0.0
  9
$SKPOLY
 70
0
  9
$TDCREATE
 40
0.0
  9
$TDUPDATE
 40
0.0
  9
$TDINDWG
 40
0.0
  9
$TDUSRTIMER
 40
0.0
  9
$USRTIMER
 70
1
  9
$ANGBASE
 50
0.0
  9
$ANGDIR
 70
0
  9
$PDMODE
 70
0
  9
$PDSIZE
 40
0.0
  9
$PLINEWID
 40
0.0
  9
$COORDS
 70
0
  9
$SPLFRAME
 70
0
  9
$SPLINETYPE
 70
6
  9
$SPLINESEGS
 70
10
  9
$ATTDIA
 70
0
  9
$ATTREQ
 70
1
  9
$HANDLING
 70
1
  9
$HANDSEED
  5
4FC
  9
$SURFTAB1
 70
6
  9
$SURFTAB2
 70
6
  9
$SURFTYPE
 70
6
  9
$SURFU
 70
10
  9
$SURFV
 70
10
  9
$UCSNAME
  2

  9
$UCSORG
 10
0.0
 20
0.0
 30
0.0
  9
$UCSXDIR
 10
1.0
 20
0.0
 30
0.0
  9
$UCSYDIR
 10
0.0
 20
1.0
 30
0.0
  9
$PUCSNAME
  2
 
  9
$PUCSORG
 10
0.0
 20
0.0
 30
0.0
  9
$PUCSXDIR
 10
1.0
 20
0.0
 30
0.0
  9
$PUCSYDIR
 10
0.0
 20
1.0
 30
0.0
  9
$USERI1
 70
0
  9
$USERI2
 70
0
  9
$USERI3
 70
0
  9
$USERI4
 70
0
  9
$USERI5
 70
0
  9
$USERR1
 40
0.0
  9
$USERR2
 40
0.0
  9
$USERR3
 40
0.0
  9
$USERR4
 40
0.0
  9
$USERR5
 40
0.0
  9
$WORLDVIEW
 70
1
  9
$SHADEDGE
 70
3
  9
$SHADEDIF
 70
70
  9
$TILEMODE
 70
1
  9
$MAXACTVP
 70
16
  9
$PINSBASE
 10
0.0
 20
0.0
 30
0.0
  9
$PLIMCHECK
 70
0
  9
$PEXTMIN
 10
-1.000000E+020
 20
-1.000000E+020
 30
-1.000000E+020
  9
$PEXTMAX
 10
-1.000000E+020
 20
-1.000000E+020
 30
-1.000000E+020
  9
$PLIMMIN
 10
0.0
 20
0.0
  9
$PLIMMAX
 10
12.0
 20
9.0
  9
$UNITMODE
 70
0
  9
$VISRETAIN
 70
0
  0
ENDSEC
  0
SECTION
  2
TABLES
  0
TABLE
  2
LTYPE
 70
7
  0
LTYPE
  2
CONTINUOUS
 70
64
  3
Solid line
 72
65
 73
0
 40
0.0
  0
LTYPE
  2
DOT
 70
64
  3
. . . . . . . . . . . . . . . . . . . . . . . . . . . . . . . . .
 72
65
 73
2
 40
0.25
 49
0.0
 49
-0.25
  0
LTYPE
  2
HIDDEN
 70
64
  3
__ __ __ __ __ __ __ __ __ __ __ __ __ __ __ __ __ __ __ __ __ 
 72
65
 73
2
 40
0.375
 49
0.25
 49
-0.125
  0
LTYPE
  2
DASHED
 70
64
  3
__ __ __ __ __ __ __ __ __ __ __ __ __ __ __ __ __ __ __ __ __
 72
65
 73
2
 40
0.75
 49
0.5
 49
-0.25
  0
LTYPE
  2
DASHDOT
 70
64
  3
__ . __ . __ . __ . __ . __ . __ . __ . __ . __ . __ . __ . _
 72
65
 73
4
 40
1.0
 49
0.5
 49
-0.25
 49
0.0
 49
-0.25
  0
LTYPE
  2
DIVIDE
 70
64
  3
____ . . ____ . . ____ . . ____ . . ____ . . ____ . . ____ . .
 72
65
 73
6
 40
1.25
 49
0.5
 49
-0.25
 49
0.0
 49
-0.25
 49
0.0
 49
-0.25
  0
LTYPE
  2
CENTER
 70
64
  3
____ _ ____ _ ____ _ ____ _ ____ _ ____ _ ____ _ ____ _ ____ _
 72
65
 73
4
 40
2.0
 49
1.25
 49
-0.25
 49
0.25
 49
-0.25
  0
ENDTAB
  0
TABLE
  2
APPID
 70
1
  0
APPID
  2
ACAD
 70
0
  0
ENDTAB
  0
TABLE
  2
DIMSTYLE
 70
0
  0
ENDTAB
  0
TABLE
  2
LAYER
 70
4
  0
LAYER
  2
0
 70
0
 62
7
  6
CONTINUOUS
  0
LAYER
  2
CONSTRUCTION_CLASS
 70
0
 62
7
  6
CONTINUOUS
  0
LAYER
  2
PATTERN_CLASS
 70
0
 62
7
  6
CONTINUOUS
  0
LAYER
  2
1
 70
0
 62
7
  6
CONTINUOUS
  0
ENDTAB
  0
TABLE
  2
STYLE
 70
1
  0
STYLE
  2
STANDARD
 70
0
 40
0.2
 41
1.0
 50
0.0
 71
0
 42
0.0
  3
txt
  4

  0
ENDTAB
  0
TABLE
  2
UCS
 70
0
  0
ENDTAB
  0
TABLE
  2
VIEW
 70
0
  0
ENDTAB
  0
TABLE
  2
VPORT
 70
4
  0
VPORT
  2
*ACTIVE
 70
0
 10
0.500821
 20
0.50171
 11
0.998358
 21
0.997719
 12
0.0
 22
0.0
 13
0.0
 23
0.0
 14
0.0
 24
0.0
 15
0.0
 25
0.0
 16
0.0
 26
-1.889913E-015
 36
30.86564
 17
212.598205
 27
-87.499995
 37
22.49999
 40
357.79569
 41
1.393103
 42
50.0
 43
15.43282
 44
-15.43282
 50
0.0
 51
0.0
 71
22
 72
100
 73
1
 74
0
 75
0
 76
0
 77
0
 78
0
  0
VPORT
  2
*ACTIVE
 70
0
 10
0.001642
 20
0.50171
 11
0.499179
 21
0.997719
 12
-2.842171E-014
 22
0.0
 13
0.0
 23
0.0
 14
0.0
 24
0.0
 15
0.0
 25
0.0
 16
-241.833968
 26
-241.833968
 36
241.833968
 17
217.975554
 27
-76.704022
 37
16.271524
 40
328.14026
 41
1.393103
 42
50.0
 43
209.43436
 44
-209.43436
 50
0.0
 51
0.0
 71
22
 72
100
 73
1
 74
0
 75
0
 76
0
 77
0
 78
0
  0
VPORT
  2
*ACTIVE
 70
0
 10
0.001642
 20
0.003421
 11
0.499179
 21
0.49943
 12
0.0
 22
0.0
 13
0.0
 23
0.0
 14
0.0
 24
0.0
 15
0.0
 25
0.0
 16
0.0
 26
-170.86562
 36
0.0
 17
212.598205
 27
-87.5
 37
22.499995
 40
357.79569
 41
1.393103
 42
50.0
 43
85.43281
 44
-85.43281
 50
0.0
 51
0.0
 71
22
 72
100
 73
1
 74
0
 75
0
 76
0
 77
0
 78
0
  0
VPORT
  2
*ACTIVE
 70
0
 10
0.500821
 20
0.003421
 11
0.998358
 21
0.49943
 12
0.0
 22
0.0
 13
0.0
 23
0.0
 14
0.0
 24
0.0
 15
0.0
 25
0.0
 16
543.25
 26
0.0
 36
0.0
 17
235.0
 27
-94.347982
 37
22.499995
 40
109.37423
 41
1.393103
 42
50.0
 43
271.625
 44
-271.625
 50
0.0
 51
0.0
 71
22
 72
100
 73
1
 74
0
 75
0
 76
0
 77
0
 78
0
  0
ENDTAB
  0
ENDSEC
  0
SECTION
  2
BLOCKS
  0
BLOCK
  8
1
  5
6
 70
1
 10
0.0
 20
0.0
 30
0.0
  2
*M0
  3
*M0
  0
ARC
  8
1
  5
8
  6
CONTINUOUS
 62
7
 10
197.7
 20
-15.556783
 30
15.0
 40
4.1
 50
180.0000013119
 51
284.9999707563
  0
LINE
  8
1
  5
A
  6
CONTINUOUS
 62
7
 10
193.6
 20
-15.55678
 30
15.0
 11
193.6
 21
-15.55678
 31
22.5
  0
ARC
  8
1
  5
C
  6
CONTINUOUS
 62
7
 210
0.0
 220
0.0
 230
-1.0
 10
-197.7
 20
-15.556783
 30
-22.5
 40
4.1
 50
255.0000292437
 51
359.9999986881
  0
LINE
  8
1
  5
E
  6
CONTINUOUS
 62
7
 10
198.76116
 20
-19.51708
 30
15.0
 11
198.76116
 21
-19.51708
 31
22.5
  0
LINE
  8
1
  5
10
  6
CONTINUOUS
 62
7
 10
198.76116
 20
-19.51708
 30
15.0
 11
204.83884
 21
-17.88857
 31
15.0
  0
LINE
  8
1
  5
12
  6
CONTINUOUS
 62
7
 10
204.83884
 20
-17.88857
 30
22.5
 11
198.76116
 21
-19.51708
 31
22.5
  0
LINE
  8
1
  5
14
  6
CONTINUOUS
 62
7
 10
204.83884
 20
-17.88857
 30
15.0
 11
204.83884
 21
-17.88857
 31
22.5
  0
LINE
  8
1
  5
16
  6
CONTINUOUS
 62
7
 10
193.6
 20
-34.44324
 30
15.0
 11
193.6
 21
-40.55679
 31
15.0
  0
LINE
  8
1
  5
18
  6
CONTINUOUS
 62
7
 10
193.6
 20
-34.44324
 30
15.0
 11
193.6
 21
-34.44324
 31
22.5
  0
LINE
  8
1
  5
1A
  6
CONTINUOUS
 62
7
 10
193.6
 20
-40.55679
 30
22.5
 11
193.6
 21
-34.44324
 31
22.5
  0
LINE
  8
1
  5
1C
  6
CONTINUOUS
 62
7
 10
193.6
 20
-40.55679
 30
15.0
 11
193.6
 21
-40.55679
 31
22.5
  0
ARC
  8
1
  5
1E
  6
CONTINUOUS
 62
7
 210
0.0
 220
0.0
 230
-1.0
 10
-205.9
 20
-21.848867
 30
-15.0
 40
4.1
 50
75.0000138889
 51
180.0
  0
ARC
  8
1
  5
20
  6
CONTINUOUS
 62
7
 10
205.9
 20
-21.848867
 30
22.5
 40
4.1
 50
360.0
 51
104.9999861111
  0
LINE
  8
1
  5
22
  6
CONTINUOUS
 62
7
 10
210.0
 20
-21.84887
 30
22.5
 11
210.0
 21
-21.84887
 31
15.0
  0
ARC
  8
1
  5
24
  6
CONTINUOUS
 62
7
 10
197.7
 20
-40.556788
 30
15.0
 40
4.1
 50
179.9999999356
 51
285.0000360468
  0
ARC
  8
1
  5
26
  6
CONTINUOUS
 62
7
 210
0.0
 220
0.0
 230
-1.0
 10
-197.7
 20
-40.556788
 30
-22.5
 40
4.1
 50
254.9999639532
 51
6.4355088980E-008
  0
LINE
  8
1
  5
28
  6
CONTINUOUS
 62
7
 10
198.76116
 20
-44.51708
 30
15.0
 11
198.76116
 21
-44.51708
 31
22.5
  0
LINE
  8
1
  5
2A
  6
CONTINUOUS
 62
7
 10
198.76116
 20
-44.51708
 30
15.0
 11
204.83884
 21
-42.88857
 31
15.0
  0
LINE
  8
1
  5
2C
  6
CONTINUOUS
 62
7
 10
204.83884
 20
-42.88857
 30
22.5
 11
198.76116
 21
-44.51708
 31
22.5
  0
LINE
  8
1
  5
2E
  6
CONTINUOUS
 62
7
 10
204.83884
 20
-42.88857
 30
15.0
 11
204.83884
 21
-42.88857
 31
22.5
  0
LINE
  8
1
  5
30
  6
CONTINUOUS
 62
7
 10
193.6
 20
-59.44323
 30
15.0
 11
193.6
 21
-65.55679
 31
15.0
  0
LINE
  8
1
  5
32
  6
CONTINUOUS
 62
7
 10
193.6
 20
-59.44323
 30
15.0
 11
193.6
 21
-59.44323
 31
22.5
  0
LINE
  8
1
  5
34
  6
CONTINUOUS
 62
7
 10
193.6
 20
-65.55679
 30
22.5
 11
193.6
 21
-59.44323
 31
22.5
  0
LINE
  8
1
  5
36
  6
CONTINUOUS
 62
7
 10
193.6
 20
-65.55679
 30
15.0
 11
193.6
 21
-65.55679
 31
22.5
  0
ARC
  8
1
  5
38
  6
CONTINUOUS
 62
7
 210
0.0
 220
0.0
 230
-1.0
 10
-205.9
 20
-46.848867
 30
-15.0
 40
4.1
 50
74.9999833333
 51
180.0
  0
ARC
  8
1
  5
3A
  6
CONTINUOUS
 62
7
 10
205.9
 20
-46.848867
 30
22.5
 40
4.1
 50
360.0
 51
105.0000166667
  0
LINE
  8
1
  5
3C
  6
CONTINUOUS
 62
7
 10
210.0
 20
-46.84887
 30
22.5
 11
210.0
 21
-46.84887
 31
15.0
  0
ARC
  8
1
  5
3E
  6
CONTINUOUS
 62
7
 10
197.7
 20
-65.55679
 30
15.0
 40
4.1
 50
180.0
 51
285.0000333333
  0
ARC
  8
1
  5
40
  6
CONTINUOUS
 62
7
 210
0.0
 220
0.0
 230
-1.0
 10
-197.7
 20
-65.55679
 30
-22.5
 40
4.1
 50
254.9999666667
 51
360.0
  0
LINE
  8
1
  5
42
  6
CONTINUOUS
 62
7
 10
198.76116
 20
-69.51709
 30
15.0
 11
198.76116
 21
-69.51709
 31
22.5
  0
LINE
  8
1
  5
44
  6
CONTINUOUS
 62
7
 10
198.76116
 20
-69.51709
 30
15.0
 11
204.83884
 21
-67.88857
 31
15.0
  0
LINE
  8
1
  5
46
  6
CONTINUOUS
 62
7
 10
204.83884
 20
-67.88857
 30
22.5
 11
198.76116
 21
-69.51709
 31
22.5
  0
LINE
  8
1
  5
48
  6
CONTINUOUS
 62
7
 10
204.83884
 20
-67.88857
 30
15.0
 11
204.83884
 21
-67.88857
 31
22.5
  0
LINE
  8
1
  5
4A
  6
CONTINUOUS
 62
7
 10
193.6
 20
-84.44323
 30
15.0
 11
193.6
 21
-90.55678
 31
15.0
  0
LINE
  8
1
  5
4C
  6
CONTINUOUS
 62
7
 10
193.6
 20
-84.44323
 30
15.0
 11
193.6
 21
-84.44323
 31
22.5
  0
LINE
  8
1
  5
4E
  6
CONTINUOUS
 62
7
 10
193.6
 20
-90.55678
 30
22.5
 11
193.6
 21
-84.44323
 31
22.5
  0
LINE
  8
1
  5
50
  6
CONTINUOUS
 62
7
 10
193.6
 20
-90.55678
 30
15.0
 11
193.6
 21
-90.55678
 31
22.5
  0
ARC
  8
1
  5
52
  6
CONTINUOUS
 62
7
 210
0.0
 220
0.0
 230
-1.0
 10
-205.9
 20
-71.848867
 30
-15.0
 40
4.1
 50
74.999925
 51
180.0
  0
ARC
  8
1
  5
54
  6
CONTINUOUS
 62
7
 10
205.9
 20
-71.848867
 30
22.5
 40
4.1
 50
360.0
 51
105.000075
  0
LINE
  8
1
  5
56
  6
CONTINUOUS
 62
7
 10
210.0
 20
-71.84887
 30
22.5
 11
210.0
 21
-71.84887
 31
15.0
  0
ARC
  8
1
  5
58
  6
CONTINUOUS
 62
7
 10
197.7
 20
-90.556783
 30
15.0
 40
4.1
 50
180.0
 51
284.9999722222
  0
ARC
  8
1
  5
5A
  6
CONTINUOUS
 62
7
 210
0.0
 220
0.0
 230
-1.0
 10
-197.7
 20
-90.556783
 30
-22.5
 40
4.1
 50
255.0000277778
 51
360.0
  0
LINE
  8
1
  5
5C
  6
CONTINUOUS
 62
7
 10
198.76116
 20
-94.51708
 30
15.0
 11
198.76116
 21
-94.51708
 31
22.5
  0
LINE
  8
1
  5
5E
  6
CONTINUOUS
 62
7
 10
198.76116
 20
-94.51708
 30
15.0
 11
204.83884
 21
-92.88857
 31
15.0
  0
LINE
  8
1
  5
60
  6
CONTINUOUS
 62
7
 10
204.83884
 20
-92.88857
 30
22.5
 11
198.76116
 21
-94.51708
 31
22.5
  0
LINE
  8
1
  5
62
  6
CONTINUOUS
 62
7
 10
204.83884
 20
-92.88857
 30
15.0
 11
204.83884
 21
-92.88857
 31
22.5
  0
LINE
  8
1
  5
64
  6
CONTINUOUS
 62
7
 10
193.6
 20
-109.44323
 30
15.0
 11
193.6
 21
-115.55679
 31
15.0
  0
LINE
  8
1
  5
66
  6
CONTINUOUS
 62
7
 10
193.6
 20
-109.44323
 30
15.0
 11
193.6
 21
-109.44323
 31
22.5
  0
LINE
  8
1
  5
68
  6
CONTINUOUS
 62
7
 10
193.6
 20
-115.55679
 30
22.5
 11
193.6
 21
-109.44323
 31
22.5
  0
LINE
  8
1
  5
6A
  6
CONTINUOUS
 62
7
 10
193.6
 20
-115.55679
 30
15.0
 11
193.6
 21
-115.55679
 31
22.5
  0
ARC
  8
1
  5
6C
  6
CONTINUOUS
 62
7
 210
0.0
 220
0.0
 230
-1.0
 10
-205.9
 20
-96.848867
 30
-15.0
 40
4.1
 50
75.0000138889
 51
180.0
  0
ARC
  8
1
  5
6E
  6
CONTINUOUS
 62
7
 10
205.9
 20
-96.848867
 30
22.5
 40
4.1
 50
360.0
 51
104.9999861111
  0
LINE
  8
1
  5
70
  6
CONTINUOUS
 62
7
 10
210.0
 20
-96.84887
 30
22.5
 11
210.0
 21
-96.84887
 31
15.0
  0
ARC
  8
1
  5
72
  6
CONTINUOUS
 62
7
 10
197.7
 20
-115.556787
 30
15.0
 40
4.1
 50
180.0000007355
 51
285.000006291
  0
ARC
  8
1
  5
74
  6
CONTINUOUS
 62
7
 210
0.0
 220
0.0
 230
-1.0
 10
-197.7
 20
-115.556787
 30
-22.5
 40
4.1
 50
254.999993709
 51
359.9999992645
  0
LINE
  8
1
  5
76
  6
CONTINUOUS
 62
7
 10
198.76116
 20
-119.51708
 30
15.0
 11
198.76116
 21
-119.51708
 31
22.5
  0
LINE
  8
1
  5
78
  6
CONTINUOUS
 62
7
 10
198.76116
 20
-119.51708
 30
15.0
 11
204.83884
 21
-117.88857
 31
15.0
  0
LINE
  8
1
  5
7A
  6
CONTINUOUS
 62
7
 10
204.83884
 20
-117.88857
 30
22.5
 11
198.76116
 21
-119.51708
 31
22.5
  0
LINE
  8
1
  5
7C
  6
CONTINUOUS
 62
7
 10
204.83884
 20
-117.88857
 30
15.0
 11
204.83884
 21
-117.88857
 31
22.5
  0
ARC
  8
1
  5
7E
  6
CONTINUOUS
 62
7
 210
0.0
 220
0.0
 230
-1.0
 10
-205.9
 20
-121.848867
 30
-15.0
 40
4.1
 50
75.0000138889
 51
180.0
  0
ARC
  8
1
  5
80
  6
CONTINUOUS
 62
7
 10
205.9
 20
-121.848867
 30
22.5
 40
4.1
 50
360.0
 51
104.9999861111
  0
LINE
  8
1
  5
82
  6
CONTINUOUS
 62
7
 10
210.0
 20
-121.84887
 30
22.5
 11
210.0
 21
-121.84887
 31
15.0
  0
ARC
  8
1
  5
84
  6
CONTINUOUS
 62
7
 10
197.7
 20
-134.443236
 30
15.0
 40
4.1
 50
74.9999996025
 51
180.0000023803
  0
LINE
  8
1
  5
86
  6
CONTINUOUS
 62
7
 10
198.76116
 20
-130.48294
 30
15.0
 11
198.76116
 21
-130.48294
 31
22.5
  0
ARC
  8
1
  5
88
  6
CONTINUOUS
 62
7
 210
0.0
 220
0.0
 230
-1.0
 10
-197.7
 20
-134.443236
 30
-22.5
 40
4.1
 50
0.0000003975
 51
105.0000031753
  0
LINE
  8
1
  5
8A
  6
CONTINUOUS
 62
7
 10
193.6
 20
-134.44324
 30
15.0
 11
193.6
 21
-134.44324
 31
22.5
  0
LINE
  8
1
  5
8C
  6
CONTINUOUS
 62
7
 10
193.6
 20
-134.44324
 30
15.0
 11
193.6
 21
-140.55679
 31
15.0
  0
LINE
  8
1
  5
8E
  6
CONTINUOUS
 62
7
 10
193.6
 20
-140.55679
 30
22.5
 11
193.6
 21
-134.44324
 31
22.5
  0
LINE
  8
1
  5
90
  6
CONTINUOUS
 62
7
 10
193.6
 20
-140.55679
 30
15.0
 11
193.6
 21
-140.55679
 31
22.5
  0
ARC
  8
1
  5
92
  6
CONTINUOUS
 62
7
 10
197.7
 20
-140.55679
 30
15.0
 40
4.1
 50
180.0
 51
285.0000277778
  0
ARC
  8
1
  5
94
  6
CONTINUOUS
 62
7
 210
0.0
 220
0.0
 230
-1.0
 10
-197.7
 20
-140.55679
 30
-22.5
 40
4.1
 50
254.9999722222
 51
5.0888874903E-014
  0
LINE
  8
1
  5
96
  6
CONTINUOUS
 62
7
 10
198.76116
 20
-144.51708
 30
15.0
 11
198.76116
 21
-144.51708
 31
22.5
  0
LINE
  8
1
  5
98
  6
CONTINUOUS
 62
7
 10
198.76116
 20
-144.51708
 30
15.0
 11
204.83884
 21
-142.88857
 31
15.0
  0
LINE
  8
1
  5
9A
  6
CONTINUOUS
 62
7
 10
204.83884
 20
-142.88857
 30
22.5
 11
198.76116
 21
-144.51708
 31
22.5
  0
LINE
  8
1
  5
9C
  6
CONTINUOUS
 62
7
 10
204.83884
 20
-142.88857
 30
15.0
 11
204.83884
 21
-142.88857
 31
22.5
  0
ARC
  8
1
  5
9E
  6
CONTINUOUS
 62
7
 210
0.0
 220
0.0
 230
-1.0
 10
-205.9
 20
-146.848867
 30
-15.0
 40
4.1
 50
74.999925
 51
180.0
  0
ARC
  8
1
  5
A0
  6
CONTINUOUS
 62
7
 10
205.9
 20
-146.848867
 30
22.5
 40
4.1
 50
360.0
 51
105.000075
  0
LINE
  8
1
  5
A2
  6
CONTINUOUS
 62
7
 10
210.0
 20
-146.84887
 30
22.5
 11
210.0
 21
-146.84887
 31
15.0
  0
ARC
  8
1
  5
A4
  6
CONTINUOUS
 62
7
 210
0.0
 220
0.0
 230
-1.0
 10
-205.9
 20
-153.151153
 30
-15.0
 40
4.1
 50
180.0
 51
284.9999666667
  0
LINE
  8
1
  5
A6
  6
CONTINUOUS
 62
7
 10
210.0
 20
-153.15115
 30
22.5
 11
210.0
 21
-153.15115
 31
15.0
  0
ARC
  8
1
  5
A8
  6
CONTINUOUS
 62
7
 10
205.9
 20
-153.151153
 30
22.5
 40
4.1
 50
255.0000333333
 51
360.0
  0
LINE
  8
1
  5
AA
  6
CONTINUOUS
 62
7
 10
204.83884
 20
-157.11145
 30
15.0
 11
204.83884
 21
-157.11145
 31
22.5
  0
LINE
  8
1
  5
AC
  6
CONTINUOUS
 62
7
 10
204.83884
 20
-157.11145
 30
15.0
 11
198.76116
 21
-155.48294
 31
15.0
  0
LINE
  8
1
  5
AE
  6
CONTINUOUS
 62
7
 10
198.76116
 20
-155.48294
 30
22.5
 11
204.83884
 21
-157.11145
 31
22.5
  0
LINE
  8
1
  5
B0
  6
CONTINUOUS
 62
7
 10
198.76116
 20
-155.48294
 30
15.0
 11
198.76116
 21
-155.48294
 31
22.5
  0
ARC
  8
1
  5
B2
  6
CONTINUOUS
 62
7
 10
197.7
 20
-159.443238
 30
15.0
 40
4.1
 50
75.0000135647
 51
179.9999996758
  0
ARC
  8
1
  5
B4
  6
CONTINUOUS
 62
7
 210
0.0
 220
0.0
 230
-1.0
 10
-197.7
 20
-159.443238
 30
-22.5
 40
4.1
 50
0.0000003242
 51
104.9999864353
  0
LINE
  8
1
  5
B6
  6
CONTINUOUS
 62
7
 10
193.6
 20
-159.44324
 30
15.0
 11
193.6
 21
-159.44324
 31
22.5
  0
ARC
  8
1
  5
B8
  6
CONTINUOUS
 62
7
 10
197.7
 20
-34.443237
 30
15.0
 40
4.1
 50
75.0000320989
 51
180.0000015433
  0
LINE
  8
1
  5
BA
  6
CONTINUOUS
 62
7
 10
198.76116
 20
-30.48294
 30
15.0
 11
198.76116
 21
-30.48294
 31
22.5
  0
ARC
  8
1
  5
BC
  6
CONTINUOUS
 62
7
 210
0.0
 220
0.0
 230
-1.0
 10
-197.7
 20
-34.443237
 30
-22.5
 40
4.1
 50
0.0000012345
 51
104.9999706789
  0
LINE
  8
1
  5
BE
  6
CONTINUOUS
 62
7
 10
204.83884
 20
-32.11145
 30
15.0
 11
198.76116
 21
-30.48294
 31
15.0
  0
LINE
  8
1
  5
C0
  6
CONTINUOUS
 62
7
 10
204.83884
 20
-32.11145
 30
15.0
 11
204.83884
 21
-32.11145
 31
22.5
  0
LINE
  8
1
  5
C2
  6
CONTINUOUS
 62
7
 10
198.76116
 20
-30.48294
 30
22.5
 11
204.83884
 21
-32.11145
 31
22.5
  0
ARC
  8
1
  5
C4
  6
CONTINUOUS
 62
7
 210
0.0
 220
0.0
 230
-1.0
 10
-205.9
 20
-28.151153
 30
-15.0
 40
4.1
 50
180.0
 51
284.9999861111
  0
LINE
  8
1
  5
C6
  6
CONTINUOUS
 62
7
 10
210.0
 20
-28.15115
 30
22.5
 11
210.0
 21
-28.15115
 31
15.0
  0
ARC
  8
1
  5
C8
  6
CONTINUOUS
 62
7
 10
205.9
 20
-28.151153
 30
22.5
 40
4.1
 50
255.0000138889
 51
360.0
  0
LINE
  8
1
  5
CA
  6
CONTINUOUS
 62
7
 10
193.6
 20
-10.0
 30
15.0
 11
193.6
 21
-15.55678
 31
15.0
  0
LINE
  8
1
  5
CC
  6
CONTINUOUS
 62
7
 10
193.6
 20
-10.0
 30
22.5
 11
193.6
 21
-10.0
 31
15.0
  0
LINE
  8
1
  5
CE
  6
CONTINUOUS
 62
7
 10
193.6
 20
-15.55678
 30
22.5
 11
193.6
 21
-10.0
 31
22.5
  0
LINE
  8
1
  5
D0
  6
CONTINUOUS
 62
7
 10
193.6
 20
-165.0
 30
15.0
 11
193.6
 21
-165.0
 31
22.5
  0
LINE
  8
1
  5
D2
  6
CONTINUOUS
 62
7
 10
193.6
 20
-159.44324
 30
15.0
 11
193.6
 21
-165.0
 31
15.0
  0
LINE
  8
1
  5
D4
  6
CONTINUOUS
 62
7
 10
193.6
 20
-165.0
 30
22.5
 11
193.6
 21
-159.44324
 31
22.5
  0
LINE
  8
1
  5
D6
  6
CONTINUOUS
 62
7
 10
204.83884
 20
-132.11145
 30
15.0
 11
198.76116
 21
-130.48294
 31
15.0
  0
LINE
  8
1
  5
D8
  6
CONTINUOUS
 62
7
 10
204.83884
 20
-132.11145
 30
15.0
 11
204.83884
 21
-132.11145
 31
22.5
  0
LINE
  8
1
  5
DA
  6
CONTINUOUS
 62
7
 10
198.76116
 20
-130.48294
 30
22.5
 11
204.83884
 21
-132.11145
 31
22.5
  0
ARC
  8
1
  5
DC
  6
CONTINUOUS
 62
7
 210
0.0
 220
0.0
 230
-1.0
 10
-205.9
 20
-128.151153
 30
-15.0
 40
4.1
 50
180.0
 51
284.9999833333
  0
LINE
  8
1
  5
DE
  6
CONTINUOUS
 62
7
 10
210.0
 20
-128.15115
 30
22.5
 11
210.0
 21
-128.15115
 31
15.0
  0
ARC
  8
1
  5
E0
  6
CONTINUOUS
 62
7
 10
205.9
 20
-128.151153
 30
22.5
 40
4.1
 50
255.0000166667
 51
360.0
  0
ARC
  8
1
  5
E2
  6
CONTINUOUS
 62
7
 10
197.7
 20
-109.443231
 30
15.0
 40
4.1
 50
74.9999588936
 51
179.9999977825
  0
LINE
  8
1
  5
E4
  6
CONTINUOUS
 62
7
 10
198.76116
 20
-105.48294
 30
15.0
 11
198.76116
 21
-105.48294
 31
22.5
  0
ARC
  8
1
  5
E6
  6
CONTINUOUS
 62
7
 210
0.0
 220
0.0
 230
-1.0
 10
-197.7
 20
-109.443231
 30
-22.5
 40
4.1
 50
359.9999994397
 51
105.0000383286
  0
LINE
  8
1
  5
E8
  6
CONTINUOUS
 62
7
 10
204.83884
 20
-107.11145
 30
15.0
 11
198.76116
 21
-105.48294
 31
15.0
  0
LINE
  8
1
  5
EA
  6
CONTINUOUS
 62
7
 10
204.83884
 20
-107.11145
 30
15.0
 11
204.83884
 21
-107.11145
 31
22.5
  0
LINE
  8
1
  5
EC
  6
CONTINUOUS
 62
7
 10
198.76116
 20
-105.48294
 30
22.5
 11
204.83884
 21
-107.11145
 31
22.5
  0
ARC
  8
1
  5
EE
  6
CONTINUOUS
 62
7
 210
0.0
 220
0.0
 230
-1.0
 10
-205.9
 20
-103.151153
 30
-15.0
 40
4.1
 50
180.0
 51
285.0000222222
  0
LINE
  8
1
  5
F0
  6
CONTINUOUS
 62
7
 10
210.0
 20
-103.15115
 30
22.5
 11
210.0
 21
-103.15115
 31
15.0
  0
ARC
  8
1
  5
F2
  6
CONTINUOUS
 62
7
 10
205.9
 20
-103.151153
 30
22.5
 40
4.1
 50
254.9999777778
 51
360.0
  0
ARC
  8
1
  5
F4
  6
CONTINUOUS
 62
7
 10
197.7
 20
-84.443229
 30
15.0
 40
4.1
 50
74.9999617152
 51
180.0000006041
  0
LINE
  8
1
  5
F6
  6
CONTINUOUS
 62
7
 10
198.76116
 20
-80.48293
 30
15.0
 11
198.76116
 21
-80.48293
 31
22.5
  0
ARC
  8
1
  5
F8
  6
CONTINUOUS
 62
7
 210
0.0
 220
0.0
 230
-1.0
 10
-197.7
 20
-84.443229
 30
-22.5
 40
4.1
 50
359.9999993959
 51
105.0000382848
  0
LINE
  8
1
  5
FA
  6
CONTINUOUS
 62
7
 10
204.83884
 20
-82.11145
 30
15.0
 11
198.76116
 21
-80.48293
 31
15.0
  0
LINE
  8
1
  5
FC
  6
CONTINUOUS
 62
7
 10
204.83884
 20
-82.11145
 30
15.0
 11
204.83884
 21
-82.11145
 31
22.5
  0
LINE
  8
1
  5
FE
  6
CONTINUOUS
 62
7
 10
198.76116
 20
-80.48293
 30
22.5
 11
204.83884
 21
-82.11145
 31
22.5
  0
ARC
  8
1
  5
100
  6
CONTINUOUS
 62
7
 210
0.0
 220
0.0
 230
-1.0
 10
-205.9
 20
-78.151153
 30
-15.0
 40
4.1
 50
180.0
 51
285.000075
  0
LINE
  8
1
  5
102
  6
CONTINUOUS
 62
7
 10
210.0
 20
-78.15115
 30
22.5
 11
210.0
 21
-78.15115
 31
15.0
  0
ARC
  8
1
  5
104
  6
CONTINUOUS
 62
7
 10
205.9
 20
-78.151153
 30
22.5
 40
4.1
 50
254.999925
 51
360.0
  0
ARC
  8
1
  5
106
  6
CONTINUOUS
 62
7
 10
197.7
 20
-59.443226
 30
15.0
 40
4.1
 50
74.9999135812
 51
179.9999996923
  0
LINE
  8
1
  5
108
  6
CONTINUOUS
 62
7
 10
198.76116
 20
-55.48293
 30
15.0
 11
198.76116
 21
-55.48293
 31
22.5
  0
ARC
  8
1
  5
10A
  6
CONTINUOUS
 62
7
 210
0.0
 220
0.0
 230
-1.0
 10
-197.7
 20
-59.443226
 30
-22.5
 40
4.1
 50
0.0000003077
 51
105.0000864188
  0
LINE
  8
1
  5
10C
  6
CONTINUOUS
 62
7
 10
204.83884
 20
-57.11145
 30
15.0
 11
198.76116
 21
-55.48293
 31
15.0
  0
LINE
  8
1
  5
10E
  6
CONTINUOUS
 62
7
 10
204.83884
 20
-57.11145
 30
15.0
 11
204.83884
 21
-57.11145
 31
22.5
  0
LINE
  8
1
  5
110
  6
CONTINUOUS
 62
7
 10
198.76116
 20
-55.48293
 30
22.5
 11
204.83884
 21
-57.11145
 31
22.5
  0
ARC
  8
1
  5
112
  6
CONTINUOUS
 62
7
 210
0.0
 220
0.0
 230
-1.0
 10
-205.9
 20
-53.151153
 30
-15.0
 40
4.1
 50
180.0
 51
285.0000666667
  0
LINE
  8
1
  5
114
  6
CONTINUOUS
 62
7
 10
210.0
 20
-53.15115
 30
22.5
 11
210.0
 21
-53.15115
 31
15.0
  0
ARC
  8
1
  5
116
  6
CONTINUOUS
 62
7
 10
205.9
 20
-53.151153
 30
22.5
 40
4.1
 50
254.9999333333
 51
5.0888874903E-014
  0
ENDBLK
  8
1
  5
117
  0
BLOCK
  8
1
  5
119
 70
1
 10
0.0
 20
0.0
 30
0.0
  2
*M1
  3
*M1
  0
LINE
  8
1
  5
11B
  6
CONTINUOUS
 62
7
 10
210.0
 20
-153.15115
 30
22.5
 11
210.0
 21
-146.84887
 31
22.5
  0
LINE
  8
1
  5
11D
  6
CONTINUOUS
 62
7
 10
210.0
 20
-128.15115
 30
22.5
 11
210.0
 21
-121.84887
 31
22.5
  0
LINE
  8
1
  5
11F
  6
CONTINUOUS
 62
7
 10
210.0
 20
-103.15115
 30
22.5
 11
210.0
 21
-96.84887
 31
22.5
  0
LINE
  8
1
  5
121
  6
CONTINUOUS
 62
7
 10
210.0
 20
-78.15115
 30
22.5
 11
210.0
 21
-71.84887
 31
22.5
  0
LINE
  8
1
  5
123
  6
CONTINUOUS
 62
7
 10
210.0
 20
-53.15115
 30
22.5
 11
210.0
 21
-46.84887
 31
22.5
  0
LINE
  8
1
  5
125
  6
CONTINUOUS
 62
7
 10
210.0
 20
-28.15115
 30
22.5
 11
210.0
 21
-21.84887
 31
22.5
  0
LINE
  8
1
  5
127
  6
CONTINUOUS
 62
7
 10
165.96116
 20
-92.88857
 30
30.0
 11
172.03884
 21
-94.51708
 31
30.0
  0
LINE
  8
1
  5
129
  6
CONTINUOUS
 62
7
 10
165.96116
 20
-92.88857
 30
30.0
 11
165.96116
 21
-92.88857
 31
22.5
  0
LINE
  8
1
  5
12B
  6
CONTINUOUS
 62
7
 10
172.03884
 20
-94.51708
 30
22.5
 11
165.96116
 21
-92.88857
 31
22.5
  0
LINE
  8
1
  5
12D
  6
CONTINUOUS
 62
7
 10
172.03884
 20
-94.51708
 30
30.0
 11
172.03884
 21
-94.51708
 31
22.5
  0
ARC
  8
1
  5
12F
  6
CONTINUOUS
 62
7
 10
173.1
 20
-90.556783
 30
30.0
 40
4.1
 50
255.0000277778
 51
360.0
  0
ARC
  8
1
  5
131
  6
CONTINUOUS
 62
7
 210
0.0
 220
0.0
 230
-1.0
 10
-173.1
 20
-90.556783
 30
-22.5
 40
4.1
 50
180.0
 51
284.9999722222
  0
LINE
  8
1
  5
133
  6
CONTINUOUS
 62
7
 10
177.2
 20
-90.55678
 30
30.0
 11
177.2
 21
-90.55678
 31
22.5
  0
LINE
  8
1
  5
135
  6
CONTINUOUS
 62
7
 10
177.2
 20
-90.55678
 30
30.0
 11
177.2
 21
-84.44323
 31
30.0
  0
LINE
  8
1
  5
137
  6
CONTINUOUS
 62
7
 10
177.2
 20
-84.44323
 30
22.5
 11
177.2
 21
-90.55678
 31
22.5
  0
LINE
  8
1
  5
139
  6
CONTINUOUS
 62
7
 10
177.2
 20
-84.44323
 30
30.0
 11
177.2
 21
-84.44323
 31
22.5
  0
ARC
  8
1
  5
13B
  6
CONTINUOUS
 62
7
 10
173.1
 20
-84.443229
 30
30.0
 40
4.1
 50
359.9999993959
 51
105.0000382848
  0
ARC
  8
1
  5
13D
  6
CONTINUOUS
 62
7
 210
0.0
 220
0.0
 230
-1.0
 10
-173.1
 20
-84.443229
 30
-22.5
 40
4.1
 50
74.9999617152
 51
180.0000006041
  0
LINE
  8
1
  5
13F
  6
CONTINUOUS
 62
7
 10
172.03884
 20
-80.48293
 30
30.0
 11
172.03884
 21
-80.48293
 31
22.5
  0
LINE
  8
1
  5
141
  6
CONTINUOUS
 62
7
 10
172.03884
 20
-80.48293
 30
30.0
 11
165.96116
 21
-82.11145
 31
30.0
  0
LINE
  8
1
  5
143
  6
CONTINUOUS
 62
7
 10
165.96116
 20
-82.11145
 30
22.5
 11
172.03884
 21
-80.48293
 31
22.5
  0
LINE
  8
1
  5
145
  6
CONTINUOUS
 62
7
 10
165.96116
 20
-82.11145
 30
30.0
 11
165.96116
 21
-82.11145
 31
22.5
  0
ARC
  8
1
  5
147
  6
CONTINUOUS
 62
7
 210
0.0
 220
0.0
 230
-1.0
 10
-164.9
 20
-78.151153
 30
-30.0
 40
4.1
 50
254.999925
 51
360.0
  0
ARC
  8
1
  5
149
  6
CONTINUOUS
 62
7
 10
164.9
 20
-78.151153
 30
22.5
 40
4.1
 50
180.0
 51
285.000075
  0
LINE
  8
1
  5
14B
  6
CONTINUOUS
 62
7
 10
160.8
 20
-78.15115
 30
30.0
 11
160.8
 21
-78.15115
 31
22.5
  0
LINE
  8
1
  5
14D
  6
CONTINUOUS
 62
7
 10
160.8
 20
-78.15115
 30
30.0
 11
160.8
 21
-71.84887
 31
30.0
  0
LINE
  8
1
  5
14F
  6
CONTINUOUS
 62
7
 10
160.8
 20
-71.84887
 30
22.5
 11
160.8
 21
-78.15115
 31
22.5
  0
LINE
  8
1
  5
151
  6
CONTINUOUS
 62
7
 10
160.8
 20
-71.84887
 30
30.0
 11
160.8
 21
-71.84887
 31
22.5
  0
ARC
  8
1
  5
153
  6
CONTINUOUS
 62
7
 210
0.0
 220
0.0
 230
-1.0
 10
-164.9
 20
-71.848867
 30
-30.0
 40
4.1
 50
360.0
 51
105.000075
  0
ARC
  8
1
  5
155
  6
CONTINUOUS
 62
7
 10
164.9
 20
-71.848867
 30
22.5
 40
4.1
 50
74.999925
 51
180.0
  0
LINE
  8
1
  5
157
  6
CONTINUOUS
 62
7
 10
165.96116
 20
-67.88857
 30
30.0
 11
165.96116
 21
-67.88857
 31
22.5
  0
LINE
  8
1
  5
159
  6
CONTINUOUS
 62
7
 10
165.96116
 20
-67.88857
 30
30.0
 11
172.03884
 21
-69.51709
 31
30.0
  0
LINE
  8
1
  5
15B
  6
CONTINUOUS
 62
7
 10
172.03884
 20
-69.51709
 30
22.5
 11
165.96116
 21
-67.88857
 31
22.5
  0
LINE
  8
1
  5
15D
  6
CONTINUOUS
 62
7
 10
172.03884
 20
-69.51709
 30
30.0
 11
172.03884
 21
-69.51709
 31
22.5
  0
ARC
  8
1
  5
15F
  6
CONTINUOUS
 62
7
 10
173.1
 20
-65.55679
 30
30.0
 40
4.1
 50
254.9999666667
 51
360.0
  0
ARC
  8
1
  5
161
  6
CONTINUOUS
 62
7
 210
0.0
 220
0.0
 230
-1.0
 10
-173.1
 20
-65.55679
 30
-22.5
 40
4.1
 50
180.0
 51
285.0000333333
  0
LINE
  8
1
  5
163
  6
CONTINUOUS
 62
7
 10
177.2
 20
-65.55679
 30
30.0
 11
177.2
 21
-65.55679
 31
22.5
  0
LINE
  8
1
  5
165
  6
CONTINUOUS
 62
7
 10
177.2
 20
-65.55679
 30
30.0
 11
177.2
 21
-59.44323
 31
30.0
  0
LINE
  8
1
  5
167
  6
CONTINUOUS
 62
7
 10
177.2
 20
-59.44323
 30
22.5
 11
177.2
 21
-65.55679
 31
22.5
  0
LINE
  8
1
  5
169
  6
CONTINUOUS
 62
7
 10
177.2
 20
-59.44323
 30
30.0
 11
177.2
 21
-59.44323
 31
22.5
  0
ARC
  8
1
  5
16B
  6
CONTINUOUS
 62
7
 10
173.1
 20
-59.443226
 30
30.0
 40
4.1
 50
0.0000003077
 51
105.0000864188
  0
ARC
  8
1
  5
16D
  6
CONTINUOUS
 62
7
 210
0.0
 220
0.0
 230
-1.0
 10
-173.1
 20
-59.443226
 30
-22.5
 40
4.1
 50
74.9999135812
 51
179.9999996923
  0
LINE
  8
1
  5
16F
  6
CONTINUOUS
 62
7
 10
172.03884
 20
-55.48293
 30
30.0
 11
172.03884
 21
-55.48293
 31
22.5
  0
LINE
  8
1
  5
171
  6
CONTINUOUS
 62
7
 10
172.03884
 20
-55.48293
 30
30.0
 11
165.96116
 21
-57.11145
 31
30.0
  0
LINE
  8
1
  5
173
  6
CONTINUOUS
 62
7
 10
165.96116
 20
-57.11145
 30
22.5
 11
172.03884
 21
-55.48293
 31
22.5
  0
LINE
  8
1
  5
175
  6
CONTINUOUS
 62
7
 10
165.96116
 20
-57.11145
 30
30.0
 11
165.96116
 21
-57.11145
 31
22.5
  0
ARC
  8
1
  5
177
  6
CONTINUOUS
 62
7
 210
0.0
 220
0.0
 230
-1.0
 10
-164.9
 20
-53.151153
 30
-30.0
 40
4.1
 50
254.9999333333
 51
5.0888874903E-014
  0
ARC
  8
1
  5
179
  6
CONTINUOUS
 62
7
 10
164.9
 20
-53.151153
 30
22.5
 40
4.1
 50
180.0
 51
285.0000666667
  0
LINE
  8
1
  5
17B
  6
CONTINUOUS
 62
7
 10
160.8
 20
-53.15115
 30
30.0
 11
160.8
 21
-53.15115
 31
22.5
  0
LINE
  8
1
  5
17D
  6
CONTINUOUS
 62
7
 10
160.8
 20
-53.15115
 30
30.0
 11
160.8
 21
-46.84887
 31
30.0
  0
LINE
  8
1
  5
17F
  6
CONTINUOUS
 62
7
 10
160.8
 20
-46.84887
 30
22.5
 11
160.8
 21
-53.15115
 31
22.5
  0
LINE
  8
1
  5
181
  6
CONTINUOUS
 62
7
 10
160.8
 20
-46.84887
 30
30.0
 11
160.8
 21
-46.84887
 31
22.5
  0
ARC
  8
1
  5
183
  6
CONTINUOUS
 62
7
 210
0.0
 220
0.0
 230
-1.0
 10
-164.9
 20
-46.848867
 30
-30.0
 40
4.1
 50
360.0
 51
105.0000166667
  0
ARC
  8
1
  5
185
  6
CONTINUOUS
 62
7
 10
164.9
 20
-46.848867
 30
22.5
 40
4.1
 50
74.9999833333
 51
180.0
  0
LINE
  8
1
  5
187
  6
CONTINUOUS
 62
7
 10
165.96116
 20
-42.88857
 30
30.0
 11
165.96116
 21
-42.88857
 31
22.5
  0
LINE
  8
1
  5
189
  6
CONTINUOUS
 62
7
 10
165.96116
 20
-42.88857
 30
30.0
 11
172.03884
 21
-44.51708
 31
30.0
  0
LINE
  8
1
  5
18B
  6
CONTINUOUS
 62
7
 10
172.03884
 20
-44.51708
 30
22.5
 11
165.96116
 21
-42.88857
 31
22.5
  0
LINE
  8
1
  5
18D
  6
CONTINUOUS
 62
7
 10
172.03884
 20
-44.51708
 30
30.0
 11
172.03884
 21
-44.51708
 31
22.5
  0
ARC
  8
1
  5
18F
  6
CONTINUOUS
 62
7
 10
173.1
 20
-40.556788
 30
30.0
 40
4.1
 50
254.9999639532
 51
6.4355088980E-008
  0
ARC
  8
1
  5
191
  6
CONTINUOUS
 62
7
 210
0.0
 220
0.0
 230
-1.0
 10
-173.1
 20
-40.556788
 30
-22.5
 40
4.1
 50
179.9999999356
 51
285.0000360468
  0
LINE
  8
1
  5
193
  6
CONTINUOUS
 62
7
 10
177.2
 20
-40.55679
 30
30.0
 11
177.2
 21
-40.55679
 31
22.5
  0
LINE
  8
1
  5
195
  6
CONTINUOUS
 62
7
 10
177.2
 20
-40.55679
 30
30.0
 11
177.2
 21
-34.44324
 31
30.0
  0
LINE
  8
1
  5
197
  6
CONTINUOUS
 62
7
 10
177.2
 20
-34.44324
 30
22.5
 11
177.2
 21
-40.55679
 31
22.5
  0
LINE
  8
1
  5
199
  6
CONTINUOUS
 62
7
 10
177.2
 20
-34.44324
 30
30.0
 11
177.2
 21
-34.44324
 31
22.5
  0
ARC
  8
1
  5
19B
  6
CONTINUOUS
 62
7
 10
173.1
 20
-34.443237
 30
30.0
 40
4.1
 50
0.0000012345
 51
104.9999706789
  0
ARC
  8
1
  5
19D
  6
CONTINUOUS
 62
7
 210
0.0
 220
0.0
 230
-1.0
 10
-173.1
 20
-34.443237
 30
-22.5
 40
4.1
 50
75.0000320989
 51
180.0000015433
  0
LINE
  8
1
  5
19F
  6
CONTINUOUS
 62
7
 10
172.03884
 20
-30.48294
 30
30.0
 11
172.03884
 21
-30.48294
 31
22.5
  0
LINE
  8
1
  5
1A1
  6
CONTINUOUS
 62
7
 10
172.03884
 20
-30.48294
 30
30.0
 11
165.96116
 21
-32.11145
 31
30.0
  0
LINE
  8
1
  5
1A3
  6
CONTINUOUS
 62
7
 10
165.96116
 20
-32.11145
 30
22.5
 11
172.03884
 21
-30.48294
 31
22.5
  0
LINE
  8
1
  5
1A5
  6
CONTINUOUS
 62
7
 10
165.96116
 20
-32.11145
 30
30.0
 11
165.96116
 21
-32.11145
 31
22.5
  0
ARC
  8
1
  5
1A7
  6
CONTINUOUS
 62
7
 210
0.0
 220
0.0
 230
-1.0
 10
-164.9
 20
-28.151153
 30
-30.0
 40
4.1
 50
255.0000138889
 51
360.0
  0
ARC
  8
1
  5
1A9
  6
CONTINUOUS
 62
7
 10
164.9
 20
-28.151153
 30
22.5
 40
4.1
 50
180.0
 51
284.9999861111
  0
LINE
  8
1
  5
1AB
  6
CONTINUOUS
 62
7
 10
160.8
 20
-28.15115
 30
30.0
 11
160.8
 21
-28.15115
 31
22.5
  0
LINE
  8
1
  5
1AD
  6
CONTINUOUS
 62
7
 10
160.8
 20
-28.15115
 30
30.0
 11
160.8
 21
-21.84887
 31
30.0
  0
LINE
  8
1
  5
1AF
  6
CONTINUOUS
 62
7
 10
160.8
 20
-21.84887
 30
22.5
 11
160.8
 21
-28.15115
 31
22.5
  0
LINE
  8
1
  5
1B1
  6
CONTINUOUS
 62
7
 10
160.8
 20
-21.84887
 30
30.0
 11
160.8
 21
-21.84887
 31
22.5
  0
ARC
  8
1
  5
1B3
  6
CONTINUOUS
 62
7
 210
0.0
 220
0.0
 230
-1.0
 10
-164.9
 20
-21.848867
 30
-30.0
 40
4.1
 50
360.0
 51
104.9999861111
  0
ARC
  8
1
  5
1B5
  6
CONTINUOUS
 62
7
 10
164.9
 20
-21.848867
 30
22.5
 40
4.1
 50
75.0000138889
 51
180.0
  0
LINE
  8
1
  5
1B7
  6
CONTINUOUS
 62
7
 10
165.96116
 20
-17.88857
 30
30.0
 11
165.96116
 21
-17.88857
 31
22.5
  0
LINE
  8
1
  5
1B9
  6
CONTINUOUS
 62
7
 10
165.96116
 20
-17.88857
 30
30.0
 11
172.03884
 21
-19.51708
 31
30.0
  0
LINE
  8
1
  5
1BB
  6
CONTINUOUS
 62
7
 10
172.03884
 20
-19.51708
 30
22.5
 11
165.96116
 21
-17.88857
 31
22.5
  0
LINE
  8
1
  5
1BD
  6
CONTINUOUS
 62
7
 10
172.03884
 20
-19.51708
 30
30.0
 11
172.03884
 21
-19.51708
 31
22.5
  0
ARC
  8
1
  5
1BF
  6
CONTINUOUS
 62
7
 10
173.1
 20
-15.556783
 30
30.0
 40
4.1
 50
255.0000292437
 51
359.9999986881
  0
ARC
  8
1
  5
1C1
  6
CONTINUOUS
 62
7
 210
0.0
 220
0.0
 230
-1.0
 10
-173.1
 20
-15.556783
 30
-22.5
 40
4.1
 50
180.0000013119
 51
284.9999707563
  0
LINE
  8
1
  5
1C3
  6
CONTINUOUS
 62
7
 10
177.2
 20
-15.55678
 30
30.0
 11
177.2
 21
-15.55678
 31
22.5
  0
LINE
  8
1
  5
1C5
  6
CONTINUOUS
 62
7
 10
177.2
 20
-15.55678
 30
30.0
 11
177.2
 21
-10.0
 31
30.0
  0
LINE
  8
1
  5
1C7
  6
CONTINUOUS
 62
7
 10
177.2
 20
-10.0
 30
22.5
 11
177.2
 21
-15.55678
 31
22.5
  0
LINE
  8
1
  5
1C9
  6
CONTINUOUS
 62
7
 10
177.2
 20
-10.0
 30
30.0
 11
177.2
 21
-10.0
 31
22.5
  0
ARC
  8
1
  5
1CB
  6
CONTINUOUS
 62
7
 210
0.0
 220
0.0
 230
-1.0
 10
-164.9
 20
-96.848867
 30
-30.0
 40
4.1
 50
360.0
 51
104.9999861111
  0
LINE
  8
1
  5
1CD
  6
CONTINUOUS
 62
7
 10
160.8
 20
-96.84887
 30
30.0
 11
160.8
 21
-96.84887
 31
22.5
  0
ARC
  8
1
  5
1CF
  6
CONTINUOUS
 62
7
 10
164.9
 20
-96.848867
 30
22.5
 40
4.1
 50
75.0000138889
 51
180.0
  0
LINE
  8
1
  5
1D1
  6
CONTINUOUS
 62
7
 10
160.8
 20
-103.15115
 30
30.0
 11
160.8
 21
-96.84887
 31
30.0
  0
LINE
  8
1
  5
1D3
  6
CONTINUOUS
 62
7
 10
160.8
 20
-103.15115
 30
30.0
 11
160.8
 21
-103.15115
 31
22.5
  0
LINE
  8
1
  5
1D5
  6
CONTINUOUS
 62
7
 10
160.8
 20
-96.84887
 30
22.5
 11
160.8
 21
-103.15115
 31
22.5
  0
ARC
  8
1
  5
1D7
  6
CONTINUOUS
 62
7
 210
0.0
 220
0.0
 230
-1.0
 10
-164.9
 20
-103.151153
 30
-30.0
 40
4.1
 50
254.9999777778
 51
360.0
  0
LINE
  8
1
  5
1D9
  6
CONTINUOUS
 62
7
 10
165.96116
 20
-107.11145
 30
30.0
 11
165.96116
 21
-107.11145
 31
22.5
  0
ARC
  8
1
  5
1DB
  6
CONTINUOUS
 62
7
 10
164.9
 20
-103.151153
 30
22.5
 40
4.1
 50
180.0
 51
285.0000222222
  0
LINE
  8
1
  5
1DD
  6
CONTINUOUS
 62
7
 10
172.03884
 20
-105.48294
 30
30.0
 11
165.96116
 21
-107.11145
 31
30.0
  0
LINE
  8
1
  5
1DF
  6
CONTINUOUS
 62
7
 10
172.03884
 20
-105.48294
 30
30.0
 11
172.03884
 21
-105.48294
 31
22.5
  0
LINE
  8
1
  5
1E1
  6
CONTINUOUS
 62
7
 10
165.96116
 20
-107.11145
 30
22.5
 11
172.03884
 21
-105.48294
 31
22.5
  0
ARC
  8
1
  5
1E3
  6
CONTINUOUS
 62
7
 10
173.1
 20
-109.443231
 30
30.0
 40
4.1
 50
359.9999994397
 51
105.0000383286
  0
LINE
  8
1
  5
1E5
  6
CONTINUOUS
 62
7
 10
177.2
 20
-109.44323
 30
30.0
 11
177.2
 21
-109.44323
 31
22.5
  0
ARC
  8
1
  5
1E7
  6
CONTINUOUS
 62
7
 210
0.0
 220
0.0
 230
-1.0
 10
-173.1
 20
-109.443231
 30
-22.5
 40
4.1
 50
74.9999588936
 51
179.9999977825
  0
LINE
  8
1
  5
1E9
  6
CONTINUOUS
 62
7
 10
177.2
 20
-115.55679
 30
30.0
 11
177.2
 21
-109.44323
 31
30.0
  0
LINE
  8
1
  5
1EB
  6
CONTINUOUS
 62
7
 10
177.2
 20
-115.55679
 30
30.0
 11
177.2
 21
-115.55679
 31
22.5
  0
LINE
  8
1
  5
1ED
  6
CONTINUOUS
 62
7
 10
177.2
 20
-109.44323
 30
22.5
 11
177.2
 21
-115.55679
 31
22.5
  0
ARC
  8
1
  5
1EF
  6
CONTINUOUS
 62
7
 10
173.1
 20
-115.556787
 30
30.0
 40
4.1
 50
254.999993709
 51
359.9999992645
  0
LINE
  8
1
  5
1F1
  6
CONTINUOUS
 62
7
 10
172.03884
 20
-119.51708
 30
30.0
 11
172.03884
 21
-119.51708
 31
22.5
  0
ARC
  8
1
  5
1F3
  6
CONTINUOUS
 62
7
 210
0.0
 220
0.0
 230
-1.0
 10
-173.1
 20
-115.556787
 30
-22.5
 40
4.1
 50
180.0000007355
 51
285.000006291
  0
LINE
  8
1
  5
1F5
  6
CONTINUOUS
 62
7
 10
165.96116
 20
-117.88857
 30
30.0
 11
172.03884
 21
-119.51708
 31
30.0
  0
LINE
  8
1
  5
1F7
  6
CONTINUOUS
 62
7
 10
165.96116
 20
-117.88857
 30
30.0
 11
165.96116
 21
-117.88857
 31
22.5
  0
LINE
  8
1
  5
1F9
  6
CONTINUOUS
 62
7
 10
172.03884
 20
-119.51708
 30
22.5
 11
165.96116
 21
-117.88857
 31
22.5
  0
ARC
  8
1
  5
1FB
  6
CONTINUOUS
 62
7
 210
0.0
 220
0.0
 230
-1.0
 10
-164.9
 20
-121.848867
 30
-30.0
 40
4.1
 50
360.0
 51
104.9999861111
  0
LINE
  8
1
  5
1FD
  6
CONTINUOUS
 62
7
 10
160.8
 20
-121.84887
 30
30.0
 11
160.8
 21
-121.84887
 31
22.5
  0
ARC
  8
1
  5
1FF
  6
CONTINUOUS
 62
7
 10
164.9
 20
-121.848867
 30
22.5
 40
4.1
 50
75.0000138889
 51
180.0
  0
LINE
  8
1
  5
201
  6
CONTINUOUS
 62
7
 10
160.8
 20
-128.15115
 30
30.0
 11
160.8
 21
-121.84887
 31
30.0
  0
LINE
  8
1
  5
203
  6
CONTINUOUS
 62
7
 10
160.8
 20
-128.15115
 30
30.0
 11
160.8
 21
-128.15115
 31
22.5
  0
LINE
  8
1
  5
205
  6
CONTINUOUS
 62
7
 10
160.8
 20
-121.84887
 30
22.5
 11
160.8
 21
-128.15115
 31
22.5
  0
ARC
  8
1
  5
207
  6
CONTINUOUS
 62
7
 210
0.0
 220
0.0
 230
-1.0
 10
-164.9
 20
-128.151153
 30
-30.0
 40
4.1
 50
255.0000166667
 51
360.0
  0
LINE
  8
1
  5
209
  6
CONTINUOUS
 62
7
 10
165.96116
 20
-132.11145
 30
30.0
 11
165.96116
 21
-132.11145
 31
22.5
  0
ARC
  8
1
  5
20B
  6
CONTINUOUS
 62
7
 10
164.9
 20
-128.151153
 30
22.5
 40
4.1
 50
180.0
 51
284.9999833333
  0
LINE
  8
1
  5
20D
  6
CONTINUOUS
 62
7
 10
172.03884
 20
-130.48294
 30
30.0
 11
165.96116
 21
-132.11145
 31
30.0
  0
LINE
  8
1
  5
20F
  6
CONTINUOUS
 62
7
 10
172.03884
 20
-130.48294
 30
30.0
 11
172.03884
 21
-130.48294
 31
22.5
  0
LINE
  8
1
  5
211
  6
CONTINUOUS
 62
7
 10
165.96116
 20
-132.11145
 30
22.5
 11
172.03884
 21
-130.48294
 31
22.5
  0
ARC
  8
1
  5
213
  6
CONTINUOUS
 62
7
 10
173.1
 20
-134.443236
 30
30.0
 40
4.1
 50
0.0000003975
 51
105.0000031753
  0
LINE
  8
1
  5
215
  6
CONTINUOUS
 62
7
 10
177.2
 20
-134.44324
 30
30.0
 11
177.2
 21
-134.44324
 31
22.5
  0
ARC
  8
1
  5
217
  6
CONTINUOUS
 62
7
 210
0.0
 220
0.0
 230
-1.0
 10
-173.1
 20
-134.443236
 30
-22.5
 40
4.1
 50
74.9999996025
 51
180.0000023803
  0
LINE
  8
1
  5
219
  6
CONTINUOUS
 62
7
 10
177.2
 20
-140.55679
 30
30.0
 11
177.2
 21
-134.44324
 31
30.0
  0
LINE
  8
1
  5
21B
  6
CONTINUOUS
 62
7
 10
177.2
 20
-140.55679
 30
30.0
 11
177.2
 21
-140.55679
 31
22.5
  0
LINE
  8
1
  5
21D
  6
CONTINUOUS
 62
7
 10
177.2
 20
-134.44324
 30
22.5
 11
177.2
 21
-140.55679
 31
22.5
  0
ARC
  8
1
  5
21F
  6
CONTINUOUS
 62
7
 10
173.1
 20
-140.55679
 30
30.0
 40
4.1
 50
254.9999722222
 51
5.0888874903E-014
  0
LINE
  8
1
  5
221
  6
CONTINUOUS
 62
7
 10
172.03884
 20
-144.51708
 30
30.0
 11
172.03884
 21
-144.51708
 31
22.5
  0
ARC
  8
1
  5
223
  6
CONTINUOUS
 62
7
 210
0.0
 220
0.0
 230
-1.0
 10
-173.1
 20
-140.55679
 30
-22.5
 40
4.1
 50
180.0
 51
285.0000277778
  0
LINE
  8
1
  5
225
  6
CONTINUOUS
 62
7
 10
165.96116
 20
-142.88857
 30
30.0
 11
172.03884
 21
-144.51708
 31
30.0
  0
LINE
  8
1
  5
227
  6
CONTINUOUS
 62
7
 10
165.96116
 20
-142.88857
 30
30.0
 11
165.96116
 21
-142.88857
 31
22.5
  0
LINE
  8
1
  5
229
  6
CONTINUOUS
 62
7
 10
172.03884
 20
-144.51708
 30
22.5
 11
165.96116
 21
-142.88857
 31
22.5
  0
ARC
  8
1
  5
22B
  6
CONTINUOUS
 62
7
 210
0.0
 220
0.0
 230
-1.0
 10
-164.9
 20
-146.848867
 30
-30.0
 40
4.1
 50
360.0
 51
105.000075
  0
LINE
  8
1
  5
22D
  6
CONTINUOUS
 62
7
 10
160.8
 20
-146.84887
 30
30.0
 11
160.8
 21
-146.84887
 31
22.5
  0
ARC
  8
1
  5
22F
  6
CONTINUOUS
 62
7
 10
164.9
 20
-146.848867
 30
22.5
 40
4.1
 50
74.999925
 51
180.0
  0
LINE
  8
1
  5
231
  6
CONTINUOUS
 62
7
 10
160.8
 20
-153.15115
 30
30.0
 11
160.8
 21
-146.84887
 31
30.0
  0
LINE
  8
1
  5
233
  6
CONTINUOUS
 62
7
 10
160.8
 20
-153.15115
 30
30.0
 11
160.8
 21
-153.15115
 31
22.5
  0
LINE
  8
1
  5
235
  6
CONTINUOUS
 62
7
 10
160.8
 20
-146.84887
 30
22.5
 11
160.8
 21
-153.15115
 31
22.5
  0
ARC
  8
1
  5
237
  6
CONTINUOUS
 62
7
 210
0.0
 220
0.0
 230
-1.0
 10
-164.9
 20
-153.151153
 30
-30.0
 40
4.1
 50
255.0000333333
 51
360.0
  0
LINE
  8
1
  5
239
  6
CONTINUOUS
 62
7
 10
165.96116
 20
-157.11145
 30
30.0
 11
165.96116
 21
-157.11145
 31
22.5
  0
ARC
  8
1
  5
23B
  6
CONTINUOUS
 62
7
 10
164.9
 20
-153.151153
 30
22.5
 40
4.1
 50
180.0
 51
284.9999666667
  0
LINE
  8
1
  5
23D
  6
CONTINUOUS
 62
7
 10
172.03884
 20
-155.48294
 30
30.0
 11
165.96116
 21
-157.11145
 31
30.0
  0
LINE
  8
1
  5
23F
  6
CONTINUOUS
 62
7
 10
172.03884
 20
-155.48294
 30
30.0
 11
172.03884
 21
-155.48294
 31
22.5
  0
LINE
  8
1
  5
241
  6
CONTINUOUS
 62
7
 10
165.96116
 20
-157.11145
 30
22.5
 11
172.03884
 21
-155.48294
 31
22.5
  0
ARC
  8
1
  5
243
  6
CONTINUOUS
 62
7
 10
173.1
 20
-159.443238
 30
30.0
 40
4.1
 50
0.0000003242
 51
104.9999864353
  0
LINE
  8
1
  5
245
  6
CONTINUOUS
 62
7
 10
177.2
 20
-159.44324
 30
30.0
 11
177.2
 21
-159.44324
 31
22.5
  0
ARC
  8
1
  5
247
  6
CONTINUOUS
 62
7
 210
0.0
 220
0.0
 230
-1.0
 10
-173.1
 20
-159.443238
 30
-22.5
 40
4.1
 50
75.0000135647
 51
179.9999996758
  0
LINE
  8
1
  5
249
  6
CONTINUOUS
 62
7
 10
177.2
 20
-165.0
 30
30.0
 11
177.2
 21
-159.44324
 31
30.0
  0
LINE
  8
1
  5
24B
  6
CONTINUOUS
 62
7
 10
177.2
 20
-165.0
 30
22.5
 11
177.2
 21
-165.0
 31
30.0
  0
LINE
  8
1
  5
24D
  6
CONTINUOUS
 62
7
 10
177.2
 20
-159.44324
 30
22.5
 11
177.2
 21
-165.0
 31
22.5
  0
LINE
  8
1
  5
24F
  6
CONTINUOUS
 62
7
 10
177.2
 20
-10.0
 30
22.5
 11
193.6
 21
-10.0
 31
22.5
  0
LINE
  8
1
  5
251
  6
CONTINUOUS
 62
7
 10
193.6
 20
-165.0
 30
22.5
 11
177.2
 21
-165.0
 31
22.5
  0
ENDBLK
  8
1
  5
252
  0
BLOCK
  8
1
  5
254
 70
1
 10
0.0
 20
0.0
 30
0.0
  2
*M2
  3
*M2
  0
LINE
  8
1
  5
256
  6
CONTINUOUS
 62
7
 10
210.0
 20
-146.84887
 30
15.0
 11
210.0
 21
-153.15115
 31
15.0
  0
LINE
  8
1
  5
258
  6
CONTINUOUS
 62
7
 10
210.0
 20
-121.84887
 30
15.0
 11
210.0
 21
-128.15115
 31
15.0
  0
LINE
  8
1
  5
25A
  6
CONTINUOUS
 62
7
 10
210.0
 20
-96.84887
 30
15.0
 11
210.0
 21
-103.15115
 31
15.0
  0
LINE
  8
1
  5
25C
  6
CONTINUOUS
 62
7
 10
210.0
 20
-71.84887
 30
15.0
 11
210.0
 21
-78.15115
 31
15.0
  0
LINE
  8
1
  5
25E
  6
CONTINUOUS
 62
7
 10
210.0
 20
-46.84887
 30
15.0
 11
210.0
 21
-53.15115
 31
15.0
  0
LINE
  8
1
  5
260
  6
CONTINUOUS
 62
7
 10
210.0
 20
-21.84887
 30
15.0
 11
210.0
 21
-28.15115
 31
15.0
  0
LINE
  8
1
  5
262
  6
CONTINUOUS
 62
7
 10
193.6
 20
-165.0
 30
15.0
 11
-30.0
 21
-165.0
 31
15.0
  0
LINE
  8
1
  5
264
  6
CONTINUOUS
 62
7
 10
-30.0
 20
-165.0
 30
15.0
 11
-30.0
 21
-10.0
 31
15.0
  0
LINE
  8
1
  5
266
  6
CONTINUOUS
 62
7
 10
-30.0
 20
-10.0
 30
15.0
 11
193.6
 21
-10.0
 31
15.0
  0
LINE
  8
1
  5
268
  6
CONTINUOUS
 62
7
 10
177.2
 20
-10.0
 30
30.0
 11
-30.0
 21
-10.0
 31
30.0
  0
LINE
  8
1
  5
26A
  6
CONTINUOUS
 62
7
 10
-30.0
 20
-10.0
 30
30.0
 11
-30.0
 21
-165.0
 31
30.0
  0
LINE
  8
1
  5
26C
  6
CONTINUOUS
 62
7
 10
-30.0
 20
-165.0
 30
30.0
 11
177.2
 21
-165.0
 31
30.0
  0
LINE
  8
1
  5
26E
  6
CONTINUOUS
 62
7
 10
-30.0
 20
-165.0
 30
30.0
 11
-30.0
 21
-165.0
 31
15.0
  0
LINE
  8
1
  5
270
  6
CONTINUOUS
 62
7
 10
-30.0
 20
-10.0
 30
30.0
 11
-30.0
 21
-10.0
 31
15.0
  0
ENDBLK
  8
1
  5
271
  0
BLOCK
  8
1
  5
273
 70
1
 10
0.0
 20
0.0
 30
0.0
  2
*M3
  3
*M3
  0
INSERT
  8
1
  5
275
  6
CONTINUOUS
 62
7
  2
*M1
 10
0.0
 20
0.0
 30
0.0
 41
1.0
 42
1.0
 43
1.0
 70
1
 71
1
  0
INSERT
  8
1
  5
277
  6
CONTINUOUS
 62
7
  2
*M2
 10
0.0
 20
0.0
 30
0.0
 41
1.0
 42
1.0
 43
1.0
 70
1
 71
1
  0
ENDBLK
  8
1
  5
278
  0
BLOCK
  8
1
  5
27A
 70
1
 10
0.0
 20
0.0
 30
0.0
  2
*M4
  3
*M4
  0
INSERT
  8
1
  5
27C
  6
CONTINUOUS
 62
7
  2
*M0
 10
0.0
 20
0.0
 30
0.0
 41
1.0
 42
1.0
 43
1.0
 70
1
 71
1
  0
INSERT
  8
1
  5
27E
  6
CONTINUOUS
 62
7
  2
*M3
 10
0.0
 20
0.0
 30
0.0
 41
1.0
 42
1.0
 43
1.0
 70
1
 71
1
  0
ENDBLK
  8
1
  5
27F
  0
BLOCK
  8
1
  5
281
 70
1
 10
0.0
 20
0.0
 30
0.0
  2
*M5
  3
*M5
  0
ARC
  8
1
  5
283
  6
CONTINUOUS
 62
7
 210
0.0
 220
0.0
 230
-1.0
 10
197.7
 20
-15.556783
 30
15.0
 40
4.1
 50
180.0000013119
 51
284.9999707563
  0
LINE
  8
1
  5
285
  6
CONTINUOUS
 62
7
 10
-193.6
 20
-15.55678
 30
-15.0
 11
-193.6
 21
-15.55678
 31
-22.5
  0
ARC
  8
1
  5
287
  6
CONTINUOUS
 62
7
 10
-197.7
 20
-15.556783
 30
-22.5
 40
4.1
 50
255.0000292437
 51
359.9999986881
  0
LINE
  8
1
  5
289
  6
CONTINUOUS
 62
7
 10
-198.76116
 20
-19.51708
 30
-15.0
 11
-198.76116
 21
-19.51708
 31
-22.5
  0
LINE
  8
1
  5
28B
  6
CONTINUOUS
 62
7
 10
-198.76116
 20
-19.51708
 30
-15.0
 11
-204.83884
 21
-17.88857
 31
-15.0
  0
LINE
  8
1
  5
28D
  6
CONTINUOUS
 62
7
 10
-204.83884
 20
-17.88857
 30
-22.5
 11
-198.76116
 21
-19.51708
 31
-22.5
  0
LINE
  8
1
  5
28F
  6
CONTINUOUS
 62
7
 10
-204.83884
 20
-17.88857
 30
-15.0
 11
-204.83884
 21
-17.88857
 31
-22.5
  0
LINE
  8
1
  5
291
  6
CONTINUOUS
 62
7
 10
-193.6
 20
-34.44324
 30
-15.0
 11
-193.6
 21
-40.55679
 31
-15.0
  0
LINE
  8
1
  5
293
  6
CONTINUOUS
 62
7
 10
-193.6
 20
-34.44324
 30
-15.0
 11
-193.6
 21
-34.44324
 31
-22.5
  0
LINE
  8
1
  5
295
  6
CONTINUOUS
 62
7
 10
-193.6
 20
-40.55679
 30
-22.5
 11
-193.6
 21
-34.44324
 31
-22.5
  0
LINE
  8
1
  5
297
  6
CONTINUOUS
 62
7
 10
-193.6
 20
-40.55679
 30
-15.0
 11
-193.6
 21
-40.55679
 31
-22.5
  0
ARC
  8
1
  5
299
  6
CONTINUOUS
 62
7
 10
-205.9
 20
-21.848867
 30
-15.0
 40
4.1
 50
75.0000138889
 51
180.0
  0
ARC
  8
1
  5
29B
  6
CONTINUOUS
 62
7
 210
0.0
 220
0.0
 230
-1.0
 10
205.9
 20
-21.848867
 30
22.5
 40
4.1
 50
360.0
 51
104.9999861111
  0
LINE
  8
1
  5
29D
  6
CONTINUOUS
 62
7
 10
-210.0
 20
-21.84887
 30
-22.5
 11
-210.0
 21
-21.84887
 31
-15.0
  0
ARC
  8
1
  5
29F
  6
CONTINUOUS
 62
7
 210
0.0
 220
0.0
 230
-1.0
 10
197.7
 20
-40.556788
 30
15.0
 40
4.1
 50
179.9999999356
 51
285.0000360468
  0
ARC
  8
1
  5
2A1
  6
CONTINUOUS
 62
7
 10
-197.7
 20
-40.556788
 30
-22.5
 40
4.1
 50
254.9999639532
 51
6.4355088980E-008
  0
LINE
  8
1
  5
2A3
  6
CONTINUOUS
 62
7
 10
-198.76116
 20
-44.51708
 30
-15.0
 11
-198.76116
 21
-44.51708
 31
-22.5
  0
LINE
  8
1
  5
2A5
  6
CONTINUOUS
 62
7
 10
-198.76116
 20
-44.51708
 30
-15.0
 11
-204.83884
 21
-42.88857
 31
-15.0
  0
LINE
  8
1
  5
2A7
  6
CONTINUOUS
 62
7
 10
-204.83884
 20
-42.88857
 30
-22.5
 11
-198.76116
 21
-44.51708
 31
-22.5
  0
LINE
  8
1
  5
2A9
  6
CONTINUOUS
 62
7
 10
-204.83884
 20
-42.88857
 30
-15.0
 11
-204.83884
 21
-42.88857
 31
-22.5
  0
LINE
  8
1
  5
2AB
  6
CONTINUOUS
 62
7
 10
-193.6
 20
-59.44323
 30
-15.0
 11
-193.6
 21
-65.55679
 31
-15.0
  0
LINE
  8
1
  5
2AD
  6
CONTINUOUS
 62
7
 10
-193.6
 20
-59.44323
 30
-15.0
 11
-193.6
 21
-59.44323
 31
-22.5
  0
LINE
  8
1
  5
2AF
  6
CONTINUOUS
 62
7
 10
-193.6
 20
-65.55679
 30
-22.5
 11
-193.6
 21
-59.44323
 31
-22.5
  0
LINE
  8
1
  5
2B1
  6
CONTINUOUS
 62
7
 10
-193.6
 20
-65.55679
 30
-15.0
 11
-193.6
 21
-65.55679
 31
-22.5
  0
ARC
  8
1
  5
2B3
  6
CONTINUOUS
 62
7
 10
-205.9
 20
-46.848867
 30
-15.0
 40
4.1
 50
74.9999833333
 51
180.0
  0
ARC
  8
1
  5
2B5
  6
CONTINUOUS
 62
7
 210
0.0
 220
0.0
 230
-1.0
 10
205.9
 20
-46.848867
 30
22.5
 40
4.1
 50
360.0
 51
105.0000166667
  0
LINE
  8
1
  5
2B7
  6
CONTINUOUS
 62
7
 10
-210.0
 20
-46.84887
 30
-22.5
 11
-210.0
 21
-46.84887
 31
-15.0
  0
ARC
  8
1
  5
2B9
  6
CONTINUOUS
 62
7
 210
0.0
 220
0.0
 230
-1.0
 10
197.7
 20
-65.55679
 30
15.0
 40
4.1
 50
180.0
 51
285.0000333333
  0
ARC
  8
1
  5
2BB
  6
CONTINUOUS
 62
7
 10
-197.7
 20
-65.55679
 30
-22.5
 40
4.1
 50
254.9999666667
 51
360.0
  0
LINE
  8
1
  5
2BD
  6
CONTINUOUS
 62
7
 10
-198.76116
 20
-69.51709
 30
-15.0
 11
-198.76116
 21
-69.51709
 31
-22.5
  0
LINE
  8
1
  5
2BF
  6
CONTINUOUS
 62
7
 10
-198.76116
 20
-69.51709
 30
-15.0
 11
-204.83884
 21
-67.88857
 31
-15.0
  0
LINE
  8
1
  5
2C1
  6
CONTINUOUS
 62
7
 10
-204.83884
 20
-67.88857
 30
-22.5
 11
-198.76116
 21
-69.51709
 31
-22.5
  0
LINE
  8
1
  5
2C3
  6
CONTINUOUS
 62
7
 10
-204.83884
 20
-67.88857
 30
-15.0
 11
-204.83884
 21
-67.88857
 31
-22.5
  0
LINE
  8
1
  5
2C5
  6
CONTINUOUS
 62
7
 10
-193.6
 20
-84.44323
 30
-15.0
 11
-193.6
 21
-90.55678
 31
-15.0
  0
LINE
  8
1
  5
2C7
  6
CONTINUOUS
 62
7
 10
-193.6
 20
-84.44323
 30
-15.0
 11
-193.6
 21
-84.44323
 31
-22.5
  0
LINE
  8
1
  5
2C9
  6
CONTINUOUS
 62
7
 10
-193.6
 20
-90.55678
 30
-22.5
 11
-193.6
 21
-84.44323
 31
-22.5
  0
LINE
  8
1
  5
2CB
  6
CONTINUOUS
 62
7
 10
-193.6
 20
-90.55678
 30
-15.0
 11
-193.6
 21
-90.55678
 31
-22.5
  0
ARC
  8
1
  5
2CD
  6
CONTINUOUS
 62
7
 10
-205.9
 20
-71.848867
 30
-15.0
 40
4.1
 50
74.999925
 51
180.0
  0
ARC
  8
1
  5
2CF
  6
CONTINUOUS
 62
7
 210
0.0
 220
0.0
 230
-1.0
 10
205.9
 20
-71.848867
 30
22.5
 40
4.1
 50
360.0
 51
105.000075
  0
LINE
  8
1
  5
2D1
  6
CONTINUOUS
 62
7
 10
-210.0
 20
-71.84887
 30
-22.5
 11
-210.0
 21
-71.84887
 31
-15.0
  0
ARC
  8
1
  5
2D3
  6
CONTINUOUS
 62
7
 210
0.0
 220
0.0
 230
-1.0
 10
197.7
 20
-90.556783
 30
15.0
 40
4.1
 50
180.0
 51
284.9999722222
  0
ARC
  8
1
  5
2D5
  6
CONTINUOUS
 62
7
 10
-197.7
 20
-90.556783
 30
-22.5
 40
4.1
 50
255.0000277778
 51
360.0
  0
LINE
  8
1
  5
2D7
  6
CONTINUOUS
 62
7
 10
-198.76116
 20
-94.51708
 30
-15.0
 11
-198.76116
 21
-94.51708
 31
-22.5
  0
LINE
  8
1
  5
2D9
  6
CONTINUOUS
 62
7
 10
-198.76116
 20
-94.51708
 30
-15.0
 11
-204.83884
 21
-92.88857
 31
-15.0
  0
LINE
  8
1
  5
2DB
  6
CONTINUOUS
 62
7
 10
-204.83884
 20
-92.88857
 30
-22.5
 11
-198.76116
 21
-94.51708
 31
-22.5
  0
LINE
  8
1
  5
2DD
  6
CONTINUOUS
 62
7
 10
-204.83884
 20
-92.88857
 30
-15.0
 11
-204.83884
 21
-92.88857
 31
-22.5
  0
LINE
  8
1
  5
2DF
  6
CONTINUOUS
 62
7
 10
-193.6
 20
-109.44323
 30
-15.0
 11
-193.6
 21
-115.55679
 31
-15.0
  0
LINE
  8
1
  5
2E1
  6
CONTINUOUS
 62
7
 10
-193.6
 20
-109.44323
 30
-15.0
 11
-193.6
 21
-109.44323
 31
-22.5
  0
LINE
  8
1
  5
2E3
  6
CONTINUOUS
 62
7
 10
-193.6
 20
-115.55679
 30
-22.5
 11
-193.6
 21
-109.44323
 31
-22.5
  0
LINE
  8
1
  5
2E5
  6
CONTINUOUS
 62
7
 10
-193.6
 20
-115.55679
 30
-15.0
 11
-193.6
 21
-115.55679
 31
-22.5
  0
ARC
  8
1
  5
2E7
  6
CONTINUOUS
 62
7
 10
-205.9
 20
-96.848867
 30
-15.0
 40
4.1
 50
75.0000138889
 51
180.0
  0
ARC
  8
1
  5
2E9
  6
CONTINUOUS
 62
7
 210
0.0
 220
0.0
 230
-1.0
 10
205.9
 20
-96.848867
 30
22.5
 40
4.1
 50
360.0
 51
104.9999861111
  0
LINE
  8
1
  5
2EB
  6
CONTINUOUS
 62
7
 10
-210.0
 20
-96.84887
 30
-22.5
 11
-210.0
 21
-96.84887
 31
-15.0
  0
ARC
  8
1
  5
2ED
  6
CONTINUOUS
 62
7
 210
0.0
 220
0.0
 230
-1.0
 10
197.7
 20
-115.556787
 30
15.0
 40
4.1
 50
180.0000007355
 51
285.000006291
  0
ARC
  8
1
  5
2EF
  6
CONTINUOUS
 62
7
 10
-197.7
 20
-115.556787
 30
-22.5
 40
4.1
 50
254.999993709
 51
359.9999992645
  0
LINE
  8
1
  5
2F1
  6
CONTINUOUS
 62
7
 10
-198.76116
 20
-119.51708
 30
-15.0
 11
-198.76116
 21
-119.51708
 31
-22.5
  0
LINE
  8
1
  5
2F3
  6
CONTINUOUS
 62
7
 10
-198.76116
 20
-119.51708
 30
-15.0
 11
-204.83884
 21
-117.88857
 31
-15.0
  0
LINE
  8
1
  5
2F5
  6
CONTINUOUS
 62
7
 10
-204.83884
 20
-117.88857
 30
-22.5
 11
-198.76116
 21
-119.51708
 31
-22.5
  0
LINE
  8
1
  5
2F7
  6
CONTINUOUS
 62
7
 10
-204.83884
 20
-117.88857
 30
-15.0
 11
-204.83884
 21
-117.88857
 31
-22.5
  0
ARC
  8
1
  5
2F9
  6
CONTINUOUS
 62
7
 10
-205.9
 20
-121.848867
 30
-15.0
 40
4.1
 50
75.0000138889
 51
180.0
  0
ARC
  8
1
  5
2FB
  6
CONTINUOUS
 62
7
 210
0.0
 220
0.0
 230
-1.0
 10
205.9
 20
-121.848867
 30
22.5
 40
4.1
 50
360.0
 51
104.9999861111
  0
LINE
  8
1
  5
2FD
  6
CONTINUOUS
 62
7
 10
-210.0
 20
-121.84887
 30
-22.5
 11
-210.0
 21
-121.84887
 31
-15.0
  0
ARC
  8
1
  5
2FF
  6
CONTINUOUS
 62
7
 210
0.0
 220
0.0
 230
-1.0
 10
197.7
 20
-134.443236
 30
15.0
 40
4.1
 50
74.9999996025
 51
180.0000023803
  0
LINE
  8
1
  5
301
  6
CONTINUOUS
 62
7
 10
-198.76116
 20
-130.48294
 30
-15.0
 11
-198.76116
 21
-130.48294
 31
-22.5
  0
ARC
  8
1
  5
303
  6
CONTINUOUS
 62
7
 10
-197.7
 20
-134.443236
 30
-22.5
 40
4.1
 50
0.0000003975
 51
105.0000031753
  0
LINE
  8
1
  5
305
  6
CONTINUOUS
 62
7
 10
-193.6
 20
-134.44324
 30
-15.0
 11
-193.6
 21
-134.44324
 31
-22.5
  0
LINE
  8
1
  5
307
  6
CONTINUOUS
 62
7
 10
-193.6
 20
-134.44324
 30
-15.0
 11
-193.6
 21
-140.55679
 31
-15.0
  0
LINE
  8
1
  5
309
  6
CONTINUOUS
 62
7
 10
-193.6
 20
-140.55679
 30
-22.5
 11
-193.6
 21
-134.44324
 31
-22.5
  0
LINE
  8
1
  5
30B
  6
CONTINUOUS
 62
7
 10
-193.6
 20
-140.55679
 30
-15.0
 11
-193.6
 21
-140.55679
 31
-22.5
  0
ARC
  8
1
  5
30D
  6
CONTINUOUS
 62
7
 210
0.0
 220
0.0
 230
-1.0
 10
197.7
 20
-140.55679
 30
15.0
 40
4.1
 50
180.0
 51
285.0000277778
  0
ARC
  8
1
  5
30F
  6
CONTINUOUS
 62
7
 10
-197.7
 20
-140.55679
 30
-22.5
 40
4.1
 50
254.9999722222
 51
5.0888874903E-014
  0
LINE
  8
1
  5
311
  6
CONTINUOUS
 62
7
 10
-198.76116
 20
-144.51708
 30
-15.0
 11
-198.76116
 21
-144.51708
 31
-22.5
  0
LINE
  8
1
  5
313
  6
CONTINUOUS
 62
7
 10
-198.76116
 20
-144.51708
 30
-15.0
 11
-204.83884
 21
-142.88857
 31
-15.0
  0
LINE
  8
1
  5
315
  6
CONTINUOUS
 62
7
 10
-204.83884
 20
-142.88857
 30
-22.5
 11
-198.76116
 21
-144.51708
 31
-22.5
  0
LINE
  8
1
  5
317
  6
CONTINUOUS
 62
7
 10
-204.83884
 20
-142.88857
 30
-15.0
 11
-204.83884
 21
-142.88857
 31
-22.5
  0
ARC
  8
1
  5
319
  6
CONTINUOUS
 62
7
 10
-205.9
 20
-146.848867
 30
-15.0
 40
4.1
 50
74.999925
 51
180.0
  0
ARC
  8
1
  5
31B
  6
CONTINUOUS
 62
7
 210
0.0
 220
0.0
 230
-1.0
 10
205.9
 20
-146.848867
 30
22.5
 40
4.1
 50
360.0
 51
105.000075
  0
LINE
  8
1
  5
31D
  6
CONTINUOUS
 62
7
 10
-210.0
 20
-146.84887
 30
-22.5
 11
-210.0
 21
-146.84887
 31
-15.0
  0
ARC
  8
1
  5
31F
  6
CONTINUOUS
 62
7
 10
-205.9
 20
-153.151153
 30
-15.0
 40
4.1
 50
180.0
 51
284.9999666667
  0
LINE
  8
1
  5
321
  6
CONTINUOUS
 62
7
 10
-210.0
 20
-153.15115
 30
-22.5
 11
-210.0
 21
-153.15115
 31
-15.0
  0
ARC
  8
1
  5
323
  6
CONTINUOUS
 62
7
 210
0.0
 220
0.0
 230
-1.0
 10
205.9
 20
-153.151153
 30
22.5
 40
4.1
 50
255.0000333333
 51
360.0
  0
LINE
  8
1
  5
325
  6
CONTINUOUS
 62
7
 10
-204.83884
 20
-157.11145
 30
-15.0
 11
-204.83884
 21
-157.11145
 31
-22.5
  0
LINE
  8
1
  5
327
  6
CONTINUOUS
 62
7
 10
-204.83884
 20
-157.11145
 30
-15.0
 11
-198.76116
 21
-155.48294
 31
-15.0
  0
LINE
  8
1
  5
329
  6
CONTINUOUS
 62
7
 10
-198.76116
 20
-155.48294
 30
-22.5
 11
-204.83884
 21
-157.11145
 31
-22.5
  0
LINE
  8
1
  5
32B
  6
CONTINUOUS
 62
7
 10
-198.76116
 20
-155.48294
 30
-15.0
 11
-198.76116
 21
-155.48294
 31
-22.5
  0
ARC
  8
1
  5
32D
  6
CONTINUOUS
 62
7
 210
0.0
 220
0.0
 230
-1.0
 10
197.7
 20
-159.443238
 30
15.0
 40
4.1
 50
75.0000135647
 51
179.9999996758
  0
ARC
  8
1
  5
32F
  6
CONTINUOUS
 62
7
 10
-197.7
 20
-159.443238
 30
-22.5
 40
4.1
 50
0.0000003242
 51
104.9999864353
  0
LINE
  8
1
  5
331
  6
CONTINUOUS
 62
7
 10
-193.6
 20
-159.44324
 30
-15.0
 11
-193.6
 21
-159.44324
 31
-22.5
  0
ARC
  8
1
  5
333
  6
CONTINUOUS
 62
7
 210
0.0
 220
0.0
 230
-1.0
 10
197.7
 20
-34.443237
 30
15.0
 40
4.1
 50
75.0000320989
 51
180.0000015433
  0
LINE
  8
1
  5
335
  6
CONTINUOUS
 62
7
 10
-198.76116
 20
-30.48294
 30
-15.0
 11
-198.76116
 21
-30.48294
 31
-22.5
  0
ARC
  8
1
  5
337
  6
CONTINUOUS
 62
7
 10
-197.7
 20
-34.443237
 30
-22.5
 40
4.1
 50
0.0000012345
 51
104.9999706789
  0
LINE
  8
1
  5
339
  6
CONTINUOUS
 62
7
 10
-204.83884
 20
-32.11145
 30
-15.0
 11
-198.76116
 21
-30.48294
 31
-15.0
  0
LINE
  8
1
  5
33B
  6
CONTINUOUS
 62
7
 10
-204.83884
 20
-32.11145
 30
-15.0
 11
-204.83884
 21
-32.11145
 31
-22.5
  0
LINE
  8
1
  5
33D
  6
CONTINUOUS
 62
7
 10
-198.76116
 20
-30.48294
 30
-22.5
 11
-204.83884
 21
-32.11145
 31
-22.5
  0
ARC
  8
1
  5
33F
  6
CONTINUOUS
 62
7
 10
-205.9
 20
-28.151153
 30
-15.0
 40
4.1
 50
180.0
 51
284.9999861111
  0
LINE
  8
1
  5
341
  6
CONTINUOUS
 62
7
 10
-210.0
 20
-28.15115
 30
-22.5
 11
-210.0
 21
-28.15115
 31
-15.0
  0
ARC
  8
1
  5
343
  6
CONTINUOUS
 62
7
 210
0.0
 220
0.0
 230
-1.0
 10
205.9
 20
-28.151153
 30
22.5
 40
4.1
 50
255.0000138889
 51
360.0
  0
LINE
  8
1
  5
345
  6
CONTINUOUS
 62
7
 10
-193.6
 20
-10.0
 30
-15.0
 11
-193.6
 21
-15.55678
 31
-15.0
  0
LINE
  8
1
  5
347
  6
CONTINUOUS
 62
7
 10
-193.6
 20
-10.0
 30
-22.5
 11
-193.6
 21
-10.0
 31
-15.0
  0
LINE
  8
1
  5
349
  6
CONTINUOUS
 62
7
 10
-193.6
 20
-15.55678
 30
-22.5
 11
-193.6
 21
-10.0
 31
-22.5
  0
LINE
  8
1
  5
34B
  6
CONTINUOUS
 62
7
 10
-193.6
 20
-165.0
 30
-15.0
 11
-193.6
 21
-165.0
 31
-22.5
  0
LINE
  8
1
  5
34D
  6
CONTINUOUS
 62
7
 10
-193.6
 20
-159.44324
 30
-15.0
 11
-193.6
 21
-165.0
 31
-15.0
  0
LINE
  8
1
  5
34F
  6
CONTINUOUS
 62
7
 10
-193.6
 20
-165.0
 30
-22.5
 11
-193.6
 21
-159.44324
 31
-22.5
  0
LINE
  8
1
  5
351
  6
CONTINUOUS
 62
7
 10
-204.83884
 20
-132.11145
 30
-15.0
 11
-198.76116
 21
-130.48294
 31
-15.0
  0
LINE
  8
1
  5
353
  6
CONTINUOUS
 62
7
 10
-204.83884
 20
-132.11145
 30
-15.0
 11
-204.83884
 21
-132.11145
 31
-22.5
  0
LINE
  8
1
  5
355
  6
CONTINUOUS
 62
7
 10
-198.76116
 20
-130.48294
 30
-22.5
 11
-204.83884
 21
-132.11145
 31
-22.5
  0
ARC
  8
1
  5
357
  6
CONTINUOUS
 62
7
 10
-205.9
 20
-128.151153
 30
-15.0
 40
4.1
 50
180.0
 51
284.9999833333
  0
LINE
  8
1
  5
359
  6
CONTINUOUS
 62
7
 10
-210.0
 20
-128.15115
 30
-22.5
 11
-210.0
 21
-128.15115
 31
-15.0
  0
ARC
  8
1
  5
35B
  6
CONTINUOUS
 62
7
 210
0.0
 220
0.0
 230
-1.0
 10
205.9
 20
-128.151153
 30
22.5
 40
4.1
 50
255.0000166667
 51
360.0
  0
ARC
  8
1
  5
35D
  6
CONTINUOUS
 62
7
 210
0.0
 220
0.0
 230
-1.0
 10
197.7
 20
-109.443231
 30
15.0
 40
4.1
 50
74.9999588936
 51
179.9999977825
  0
LINE
  8
1
  5
35F
  6
CONTINUOUS
 62
7
 10
-198.76116
 20
-105.48294
 30
-15.0
 11
-198.76116
 21
-105.48294
 31
-22.5
  0
ARC
  8
1
  5
361
  6
CONTINUOUS
 62
7
 10
-197.7
 20
-109.443231
 30
-22.5
 40
4.1
 50
359.9999994397
 51
105.0000383286
  0
LINE
  8
1
  5
363
  6
CONTINUOUS
 62
7
 10
-204.83884
 20
-107.11145
 30
-15.0
 11
-198.76116
 21
-105.48294
 31
-15.0
  0
LINE
  8
1
  5
365
  6
CONTINUOUS
 62
7
 10
-204.83884
 20
-107.11145
 30
-15.0
 11
-204.83884
 21
-107.11145
 31
-22.5
  0
LINE
  8
1
  5
367
  6
CONTINUOUS
 62
7
 10
-198.76116
 20
-105.48294
 30
-22.5
 11
-204.83884
 21
-107.11145
 31
-22.5
  0
ARC
  8
1
  5
369
  6
CONTINUOUS
 62
7
 10
-205.9
 20
-103.151153
 30
-15.0
 40
4.1
 50
180.0
 51
285.0000222222
  0
LINE
  8
1
  5
36B
  6
CONTINUOUS
 62
7
 10
-210.0
 20
-103.15115
 30
-22.5
 11
-210.0
 21
-103.15115
 31
-15.0
  0
ARC
  8
1
  5
36D
  6
CONTINUOUS
 62
7
 210
0.0
 220
0.0
 230
-1.0
 10
205.9
 20
-103.151153
 30
22.5
 40
4.1
 50
254.9999777778
 51
360.0
  0
ARC
  8
1
  5
36F
  6
CONTINUOUS
 62
7
 210
0.0
 220
0.0
 230
-1.0
 10
197.7
 20
-84.443229
 30
15.0
 40
4.1
 50
74.9999617152
 51
180.0000006041
  0
LINE
  8
1
  5
371
  6
CONTINUOUS
 62
7
 10
-198.76116
 20
-80.48293
 30
-15.0
 11
-198.76116
 21
-80.48293
 31
-22.5
  0
ARC
  8
1
  5
373
  6
CONTINUOUS
 62
7
 10
-197.7
 20
-84.443229
 30
-22.5
 40
4.1
 50
359.9999993959
 51
105.0000382848
  0
LINE
  8
1
  5
375
  6
CONTINUOUS
 62
7
 10
-204.83884
 20
-82.11145
 30
-15.0
 11
-198.76116
 21
-80.48293
 31
-15.0
  0
LINE
  8
1
  5
377
  6
CONTINUOUS
 62
7
 10
-204.83884
 20
-82.11145
 30
-15.0
 11
-204.83884
 21
-82.11145
 31
-22.5
  0
LINE
  8
1
  5
379
  6
CONTINUOUS
 62
7
 10
-198.76116
 20
-80.48293
 30
-22.5
 11
-204.83884
 21
-82.11145
 31
-22.5
  0
ARC
  8
1
  5
37B
  6
CONTINUOUS
 62
7
 10
-205.9
 20
-78.151153
 30
-15.0
 40
4.1
 50
180.0
 51
285.000075
  0
LINE
  8
1
  5
37D
  6
CONTINUOUS
 62
7
 10
-210.0
 20
-78.15115
 30
-22.5
 11
-210.0
 21
-78.15115
 31
-15.0
  0
ARC
  8
1
  5
37F
  6
CONTINUOUS
 62
7
 210
0.0
 220
0.0
 230
-1.0
 10
205.9
 20
-78.151153
 30
22.5
 40
4.1
 50
254.999925
 51
360.0
  0
ARC
  8
1
  5
381
  6
CONTINUOUS
 62
7
 210
0.0
 220
0.0
 230
-1.0
 10
197.7
 20
-59.443226
 30
15.0
 40
4.1
 50
74.9999135812
 51
179.9999996923
  0
LINE
  8
1
  5
383
  6
CONTINUOUS
 62
7
 10
-198.76116
 20
-55.48293
 30
-15.0
 11
-198.76116
 21
-55.48293
 31
-22.5
  0
ARC
  8
1
  5
385
  6
CONTINUOUS
 62
7
 10
-197.7
 20
-59.443226
 30
-22.5
 40
4.1
 50
0.0000003077
 51
105.0000864188
  0
LINE
  8
1
  5
387
  6
CONTINUOUS
 62
7
 10
-204.83884
 20
-57.11145
 30
-15.0
 11
-198.76116
 21
-55.48293
 31
-15.0
  0
LINE
  8
1
  5
389
  6
CONTINUOUS
 62
7
 10
-204.83884
 20
-57.11145
 30
-15.0
 11
-204.83884
 21
-57.11145
 31
-22.5
  0
LINE
  8
1
  5
38B
  6
CONTINUOUS
 62
7
 10
-198.76116
 20
-55.48293
 30
-22.5
 11
-204.83884
 21
-57.11145
 31
-22.5
  0
ARC
  8
1
  5
38D
  6
CONTINUOUS
 62
7
 10
-205.9
 20
-53.151153
 30
-15.0
 40
4.1
 50
180.0
 51
285.0000666667
  0
LINE
  8
1
  5
38F
  6
CONTINUOUS
 62
7
 10
-210.0
 20
-53.15115
 30
-22.5
 11
-210.0
 21
-53.15115
 31
-15.0
  0
ARC
  8
1
  5
391
  6
CONTINUOUS
 62
7
 210
0.0
 220
0.0
 230
-1.0
 10
205.9
 20
-53.151153
 30
22.5
 40
4.1
 50
254.9999333333
 51
5.0888874903E-014
  0
ENDBLK
  8
1
  5
392
  0
BLOCK
  8
1
  5
394
 70
1
 10
0.0
 20
0.0
 30
0.0
  2
*M6
  3
*M6
  0
LINE
  8
1
  5
396
  6
CONTINUOUS
 62
7
 10
-210.0
 20
-153.15115
 30
-22.5
 11
-210.0
 21
-146.84887
 31
-22.5
  0
LINE
  8
1
  5
398
  6
CONTINUOUS
 62
7
 10
-210.0
 20
-128.15115
 30
-22.5
 11
-210.0
 21
-121.84887
 31
-22.5
  0
LINE
  8
1
  5
39A
  6
CONTINUOUS
 62
7
 10
-210.0
 20
-103.15115
 30
-22.5
 11
-210.0
 21
-96.84887
 31
-22.5
  0
LINE
  8
1
  5
39C
  6
CONTINUOUS
 62
7
 10
-210.0
 20
-78.15115
 30
-22.5
 11
-210.0
 21
-71.84887
 31
-22.5
  0
LINE
  8
1
  5
39E
  6
CONTINUOUS
 62
7
 10
-210.0
 20
-53.15115
 30
-22.5
 11
-210.0
 21
-46.84887
 31
-22.5
  0
LINE
  8
1
  5
3A0
  6
CONTINUOUS
 62
7
 10
-210.0
 20
-28.15115
 30
-22.5
 11
-210.0
 21
-21.84887
 31
-22.5
  0
LINE
  8
1
  5
3A2
  6
CONTINUOUS
 62
7
 10
-165.96116
 20
-92.88857
 30
-30.0
 11
-172.03884
 21
-94.51708
 31
-30.0
  0
LINE
  8
1
  5
3A4
  6
CONTINUOUS
 62
7
 10
-165.96116
 20
-92.88857
 30
-30.0
 11
-165.96116
 21
-92.88857
 31
-22.5
  0
LINE
  8
1
  5
3A6
  6
CONTINUOUS
 62
7
 10
-172.03884
 20
-94.51708
 30
-22.5
 11
-165.96116
 21
-92.88857
 31
-22.5
  0
LINE
  8
1
  5
3A8
  6
CONTINUOUS
 62
7
 10
-172.03884
 20
-94.51708
 30
-30.0
 11
-172.03884
 21
-94.51708
 31
-22.5
  0
ARC
  8
1
  5
3AA
  6
CONTINUOUS
 62
7
 210
0.0
 220
0.0
 230
-1.0
 10
173.1
 20
-90.556783
 30
30.0
 40
4.1
 50
255.0000277778
 51
360.0
  0
ARC
  8
1
  5
3AC
  6
CONTINUOUS
 62
7
 10
-173.1
 20
-90.556783
 30
-22.5
 40
4.1
 50
180.0
 51
284.9999722222
  0
LINE
  8
1
  5
3AE
  6
CONTINUOUS
 62
7
 10
-177.2
 20
-90.55678
 30
-30.0
 11
-177.2
 21
-90.55678
 31
-22.5
  0
LINE
  8
1
  5
3B0
  6
CONTINUOUS
 62
7
 10
-177.2
 20
-90.55678
 30
-30.0
 11
-177.2
 21
-84.44323
 31
-30.0
  0
LINE
  8
1
  5
3B2
  6
CONTINUOUS
 62
7
 10
-177.2
 20
-84.44323
 30
-22.5
 11
-177.2
 21
-90.55678
 31
-22.5
  0
LINE
  8
1
  5
3B4
  6
CONTINUOUS
 62
7
 10
-177.2
 20
-84.44323
 30
-30.0
 11
-177.2
 21
-84.44323
 31
-22.5
  0
ARC
  8
1
  5
3B6
  6
CONTINUOUS
 62
7
 210
0.0
 220
0.0
 230
-1.0
 10
173.1
 20
-84.443229
 30
30.0
 40
4.1
 50
359.9999993959
 51
105.0000382848
  0
ARC
  8
1
  5
3B8
  6
CONTINUOUS
 62
7
 10
-173.1
 20
-84.443229
 30
-22.5
 40
4.1
 50
74.9999617152
 51
180.0000006041
  0
LINE
  8
1
  5
3BA
  6
CONTINUOUS
 62
7
 10
-172.03884
 20
-80.48293
 30
-30.0
 11
-172.03884
 21
-80.48293
 31
-22.5
  0
LINE
  8
1
  5
3BC
  6
CONTINUOUS
 62
7
 10
-172.03884
 20
-80.48293
 30
-30.0
 11
-165.96116
 21
-82.11145
 31
-30.0
  0
LINE
  8
1
  5
3BE
  6
CONTINUOUS
 62
7
 10
-165.96116
 20
-82.11145
 30
-22.5
 11
-172.03884
 21
-80.48293
 31
-22.5
  0
LINE
  8
1
  5
3C0
  6
CONTINUOUS
 62
7
 10
-165.96116
 20
-82.11145
 30
-30.0
 11
-165.96116
 21
-82.11145
 31
-22.5
  0
ARC
  8
1
  5
3C2
  6
CONTINUOUS
 62
7
 10
-164.9
 20
-78.151153
 30
-30.0
 40
4.1
 50
254.999925
 51
360.0
  0
ARC
  8
1
  5
3C4
  6
CONTINUOUS
 62
7
 210
0.0
 220
0.0
 230
-1.0
 10
164.9
 20
-78.151153
 30
22.5
 40
4.1
 50
180.0
 51
285.000075
  0
LINE
  8
1
  5
3C6
  6
CONTINUOUS
 62
7
 10
-160.8
 20
-78.15115
 30
-30.0
 11
-160.8
 21
-78.15115
 31
-22.5
  0
LINE
  8
1
  5
3C8
  6
CONTINUOUS
 62
7
 10
-160.8
 20
-78.15115
 30
-30.0
 11
-160.8
 21
-71.84887
 31
-30.0
  0
LINE
  8
1
  5
3CA
  6
CONTINUOUS
 62
7
 10
-160.8
 20
-71.84887
 30
-22.5
 11
-160.8
 21
-78.15115
 31
-22.5
  0
LINE
  8
1
  5
3CC
  6
CONTINUOUS
 62
7
 10
-160.8
 20
-71.84887
 30
-30.0
 11
-160.8
 21
-71.84887
 31
-22.5
  0
ARC
  8
1
  5
3CE
  6
CONTINUOUS
 62
7
 10
-164.9
 20
-71.848867
 30
-30.0
 40
4.1
 50
360.0
 51
105.000075
  0
ARC
  8
1
  5
3D0
  6
CONTINUOUS
 62
7
 210
0.0
 220
0.0
 230
-1.0
 10
164.9
 20
-71.848867
 30
22.5
 40
4.1
 50
74.999925
 51
180.0
  0
LINE
  8
1
  5
3D2
  6
CONTINUOUS
 62
7
 10
-165.96116
 20
-67.88857
 30
-30.0
 11
-165.96116
 21
-67.88857
 31
-22.5
  0
LINE
  8
1
  5
3D4
  6
CONTINUOUS
 62
7
 10
-165.96116
 20
-67.88857
 30
-30.0
 11
-172.03884
 21
-69.51709
 31
-30.0
  0
LINE
  8
1
  5
3D6
  6
CONTINUOUS
 62
7
 10
-172.03884
 20
-69.51709
 30
-22.5
 11
-165.96116
 21
-67.88857
 31
-22.5
  0
LINE
  8
1
  5
3D8
  6
CONTINUOUS
 62
7
 10
-172.03884
 20
-69.51709
 30
-30.0
 11
-172.03884
 21
-69.51709
 31
-22.5
  0
ARC
  8
1
  5
3DA
  6
CONTINUOUS
 62
7
 210
0.0
 220
0.0
 230
-1.0
 10
173.1
 20
-65.55679
 30
30.0
 40
4.1
 50
254.9999666667
 51
360.0
  0
ARC
  8
1
  5
3DC
  6
CONTINUOUS
 62
7
 10
-173.1
 20
-65.55679
 30
-22.5
 40
4.1
 50
180.0
 51
285.0000333333
  0
LINE
  8
1
  5
3DE
  6
CONTINUOUS
 62
7
 10
-177.2
 20
-65.55679
 30
-30.0
 11
-177.2
 21
-65.55679
 31
-22.5
  0
LINE
  8
1
  5
3E0
  6
CONTINUOUS
 62
7
 10
-177.2
 20
-65.55679
 30
-30.0
 11
-177.2
 21
-59.44323
 31
-30.0
  0
LINE
  8
1
  5
3E2
  6
CONTINUOUS
 62
7
 10
-177.2
 20
-59.44323
 30
-22.5
 11
-177.2
 21
-65.55679
 31
-22.5
  0
LINE
  8
1
  5
3E4
  6
CONTINUOUS
 62
7
 10
-177.2
 20
-59.44323
 30
-30.0
 11
-177.2
 21
-59.44323
 31
-22.5
  0
ARC
  8
1
  5
3E6
  6
CONTINUOUS
 62
7
 210
0.0
 220
0.0
 230
-1.0
 10
173.1
 20
-59.443226
 30
30.0
 40
4.1
 50
0.0000003077
 51
105.0000864188
  0
ARC
  8
1
  5
3E8
  6
CONTINUOUS
 62
7
 10
-173.1
 20
-59.443226
 30
-22.5
 40
4.1
 50
74.9999135812
 51
179.9999996923
  0
LINE
  8
1
  5
3EA
  6
CONTINUOUS
 62
7
 10
-172.03884
 20
-55.48293
 30
-30.0
 11
-172.03884
 21
-55.48293
 31
-22.5
  0
LINE
  8
1
  5
3EC
  6
CONTINUOUS
 62
7
 10
-172.03884
 20
-55.48293
 30
-30.0
 11
-165.96116
 21
-57.11145
 31
-30.0
  0
LINE
  8
1
  5
3EE
  6
CONTINUOUS
 62
7
 10
-165.96116
 20
-57.11145
 30
-22.5
 11
-172.03884
 21
-55.48293
 31
-22.5
  0
LINE
  8
1
  5
3F0
  6
CONTINUOUS
 62
7
 10
-165.96116
 20
-57.11145
 30
-30.0
 11
-165.96116
 21
-57.11145
 31
-22.5
  0
ARC
  8
1
  5
3F2
  6
CONTINUOUS
 62
7
 10
-164.9
 20
-53.151153
 30
-30.0
 40
4.1
 50
254.9999333333
 51
5.0888874903E-014
  0
ARC
  8
1
  5
3F4
  6
CONTINUOUS
 62
7
 210
0.0
 220
0.0
 230
-1.0
 10
164.9
 20
-53.151153
 30
22.5
 40
4.1
 50
180.0
 51
285.0000666667
  0
LINE
  8
1
  5
3F6
  6
CONTINUOUS
 62
7
 10
-160.8
 20
-53.15115
 30
-30.0
 11
-160.8
 21
-53.15115
 31
-22.5
  0
LINE
  8
1
  5
3F8
  6
CONTINUOUS
 62
7
 10
-160.8
 20
-53.15115
 30
-30.0
 11
-160.8
 21
-46.84887
 31
-30.0
  0
LINE
  8
1
  5
3FA
  6
CONTINUOUS
 62
7
 10
-160.8
 20
-46.84887
 30
-22.5
 11
-160.8
 21
-53.15115
 31
-22.5
  0
LINE
  8
1
  5
3FC
  6
CONTINUOUS
 62
7
 10
-160.8
 20
-46.84887
 30
-30.0
 11
-160.8
 21
-46.84887
 31
-22.5
  0
ARC
  8
1
  5
3FE
  6
CONTINUOUS
 62
7
 10
-164.9
 20
-46.848867
 30
-30.0
 40
4.1
 50
360.0
 51
105.0000166667
  0
ARC
  8
1
  5
400
  6
CONTINUOUS
 62
7
 210
0.0
 220
0.0
 230
-1.0
 10
164.9
 20
-46.848867
 30
22.5
 40
4.1
 50
74.9999833333
 51
180.0
  0
LINE
  8
1
  5
402
  6
CONTINUOUS
 62
7
 10
-165.96116
 20
-42.88857
 30
-30.0
 11
-165.96116
 21
-42.88857
 31
-22.5
  0
LINE
  8
1
  5
404
  6
CONTINUOUS
 62
7
 10
-165.96116
 20
-42.88857
 30
-30.0
 11
-172.03884
 21
-44.51708
 31
-30.0
  0
LINE
  8
1
  5
406
  6
CONTINUOUS
 62
7
 10
-172.03884
 20
-44.51708
 30
-22.5
 11
-165.96116
 21
-42.88857
 31
-22.5
  0
LINE
  8
1
  5
408
  6
CONTINUOUS
 62
7
 10
-172.03884
 20
-44.51708
 30
-30.0
 11
-172.03884
 21
-44.51708
 31
-22.5
  0
ARC
  8
1
  5
40A
  6
CONTINUOUS
 62
7
 210
0.0
 220
0.0
 230
-1.0
 10
173.1
 20
-40.556788
 30
30.0
 40
4.1
 50
254.9999639532
 51
6.4355088980E-008
  0
ARC
  8
1
  5
40C
  6
CONTINUOUS
 62
7
 10
-173.1
 20
-40.556788
 30
-22.5
 40
4.1
 50
179.9999999356
 51
285.0000360468
  0
LINE
  8
1
  5
40E
  6
CONTINUOUS
 62
7
 10
-177.2
 20
-40.55679
 30
-30.0
 11
-177.2
 21
-40.55679
 31
-22.5
  0
LINE
  8
1
  5
410
  6
CONTINUOUS
 62
7
 10
-177.2
 20
-40.55679
 30
-30.0
 11
-177.2
 21
-34.44324
 31
-30.0
  0
LINE
  8
1
  5
412
  6
CONTINUOUS
 62
7
 10
-177.2
 20
-34.44324
 30
-22.5
 11
-177.2
 21
-40.55679
 31
-22.5
  0
LINE
  8
1
  5
414
  6
CONTINUOUS
 62
7
 10
-177.2
 20
-34.44324
 30
-30.0
 11
-177.2
 21
-34.44324
 31
-22.5
  0
ARC
  8
1
  5
416
  6
CONTINUOUS
 62
7
 210
0.0
 220
0.0
 230
-1.0
 10
173.1
 20
-34.443237
 30
30.0
 40
4.1
 50
0.0000012345
 51
104.9999706789
  0
ARC
  8
1
  5
418
  6
CONTINUOUS
 62
7
 10
-173.1
 20
-34.443237
 30
-22.5
 40
4.1
 50
75.0000320989
 51
180.0000015433
  0
LINE
  8
1
  5
41A
  6
CONTINUOUS
 62
7
 10
-172.03884
 20
-30.48294
 30
-30.0
 11
-172.03884
 21
-30.48294
 31
-22.5
  0
LINE
  8
1
  5
41C
  6
CONTINUOUS
 62
7
 10
-172.03884
 20
-30.48294
 30
-30.0
 11
-165.96116
 21
-32.11145
 31
-30.0
  0
LINE
  8
1
  5
41E
  6
CONTINUOUS
 62
7
 10
-165.96116
 20
-32.11145
 30
-22.5
 11
-172.03884
 21
-30.48294
 31
-22.5
  0
LINE
  8
1
  5
420
  6
CONTINUOUS
 62
7
 10
-165.96116
 20
-32.11145
 30
-30.0
 11
-165.96116
 21
-32.11145
 31
-22.5
  0
ARC
  8
1
  5
422
  6
CONTINUOUS
 62
7
 10
-164.9
 20
-28.151153
 30
-30.0
 40
4.1
 50
255.0000138889
 51
360.0
  0
ARC
  8
1
  5
424
  6
CONTINUOUS
 62
7
 210
0.0
 220
0.0
 230
-1.0
 10
164.9
 20
-28.151153
 30
22.5
 40
4.1
 50
180.0
 51
284.9999861111
  0
LINE
  8
1
  5
426
  6
CONTINUOUS
 62
7
 10
-160.8
 20
-28.15115
 30
-30.0
 11
-160.8
 21
-28.15115
 31
-22.5
  0
LINE
  8
1
  5
428
  6
CONTINUOUS
 62
7
 10
-160.8
 20
-28.15115
 30
-30.0
 11
-160.8
 21
-21.84887
 31
-30.0
  0
LINE
  8
1
  5
42A
  6
CONTINUOUS
 62
7
 10
-160.8
 20
-21.84887
 30
-22.5
 11
-160.8
 21
-28.15115
 31
-22.5
  0
LINE
  8
1
  5
42C
  6
CONTINUOUS
 62
7
 10
-160.8
 20
-21.84887
 30
-30.0
 11
-160.8
 21
-21.84887
 31
-22.5
  0
ARC
  8
1
  5
42E
  6
CONTINUOUS
 62
7
 10
-164.9
 20
-21.848867
 30
-30.0
 40
4.1
 50
360.0
 51
104.9999861111
  0
ARC
  8
1
  5
430
  6
CONTINUOUS
 62
7
 210
0.0
 220
0.0
 230
-1.0
 10
164.9
 20
-21.848867
 30
22.5
 40
4.1
 50
75.0000138889
 51
180.0
  0
LINE
  8
1
  5
432
  6
CONTINUOUS
 62
7
 10
-165.96116
 20
-17.88857
 30
-30.0
 11
-165.96116
 21
-17.88857
 31
-22.5
  0
LINE
  8
1
  5
434
  6
CONTINUOUS
 62
7
 10
-165.96116
 20
-17.88857
 30
-30.0
 11
-172.03884
 21
-19.51708
 31
-30.0
  0
LINE
  8
1
  5
436
  6
CONTINUOUS
 62
7
 10
-172.03884
 20
-19.51708
 30
-22.5
 11
-165.96116
 21
-17.88857
 31
-22.5
  0
LINE
  8
1
  5
438
  6
CONTINUOUS
 62
7
 10
-172.03884
 20
-19.51708
 30
-30.0
 11
-172.03884
 21
-19.51708
 31
-22.5
  0
ARC
  8
1
  5
43A
  6
CONTINUOUS
 62
7
 210
0.0
 220
0.0
 230
-1.0
 10
173.1
 20
-15.556783
 30
30.0
 40
4.1
 50
255.0000292437
 51
359.9999986881
  0
ARC
  8
1
  5
43C
  6
CONTINUOUS
 62
7
 10
-173.1
 20
-15.556783
 30
-22.5
 40
4.1
 50
180.0000013119
 51
284.9999707563
  0
LINE
  8
1
  5
43E
  6
CONTINUOUS
 62
7
 10
-177.2
 20
-15.55678
 30
-30.0
 11
-177.2
 21
-15.55678
 31
-22.5
  0
LINE
  8
1
  5
440
  6
CONTINUOUS
 62
7
 10
-177.2
 20
-15.55678
 30
-30.0
 11
-177.2
 21
-10.0
 31
-30.0
  0
LINE
  8
1
  5
442
  6
CONTINUOUS
 62
7
 10
-177.2
 20
-10.0
 30
-22.5
 11
-177.2
 21
-15.55678
 31
-22.5
  0
LINE
  8
1
  5
444
  6
CONTINUOUS
 62
7
 10
-177.2
 20
-10.0
 30
-30.0
 11
-177.2
 21
-10.0
 31
-22.5
  0
ARC
  8
1
  5
446
  6
CONTINUOUS
 62
7
 10
-164.9
 20
-96.848867
 30
-30.0
 40
4.1
 50
360.0
 51
104.9999861111
  0
LINE
  8
1
  5
448
  6
CONTINUOUS
 62
7
 10
-160.8
 20
-96.84887
 30
-30.0
 11
-160.8
 21
-96.84887
 31
-22.5
  0
ARC
  8
1
  5
44A
  6
CONTINUOUS
 62
7
 210
0.0
 220
0.0
 230
-1.0
 10
164.9
 20
-96.848867
 30
22.5
 40
4.1
 50
75.0000138889
 51
180.0
  0
LINE
  8
1
  5
44C
  6
CONTINUOUS
 62
7
 10
-160.8
 20
-103.15115
 30
-30.0
 11
-160.8
 21
-96.84887
 31
-30.0
  0
LINE
  8
1
  5
44E
  6
CONTINUOUS
 62
7
 10
-160.8
 20
-103.15115
 30
-30.0
 11
-160.8
 21
-103.15115
 31
-22.5
  0
LINE
  8
1
  5
450
  6
CONTINUOUS
 62
7
 10
-160.8
 20
-96.84887
 30
-22.5
 11
-160.8
 21
-103.15115
 31
-22.5
  0
ARC
  8
1
  5
452
  6
CONTINUOUS
 62
7
 10
-164.9
 20
-103.151153
 30
-30.0
 40
4.1
 50
254.9999777778
 51
360.0
  0
LINE
  8
1
  5
454
  6
CONTINUOUS
 62
7
 10
-165.96116
 20
-107.11145
 30
-30.0
 11
-165.96116
 21
-107.11145
 31
-22.5
  0
ARC
  8
1
  5
456
  6
CONTINUOUS
 62
7
 210
0.0
 220
0.0
 230
-1.0
 10
164.9
 20
-103.151153
 30
22.5
 40
4.1
 50
180.0
 51
285.0000222222
  0
LINE
  8
1
  5
458
  6
CONTINUOUS
 62
7
 10
-172.03884
 20
-105.48294
 30
-30.0
 11
-165.96116
 21
-107.11145
 31
-30.0
  0
LINE
  8
1
  5
45A
  6
CONTINUOUS
 62
7
 10
-172.03884
 20
-105.48294
 30
-30.0
 11
-172.03884
 21
-105.48294
 31
-22.5
  0
LINE
  8
1
  5
45C
  6
CONTINUOUS
 62
7
 10
-165.96116
 20
-107.11145
 30
-22.5
 11
-172.03884
 21
-105.48294
 31
-22.5
  0
ARC
  8
1
  5
45E
  6
CONTINUOUS
 62
7
 210
0.0
 220
0.0
 230
-1.0
 10
173.1
 20
-109.443231
 30
30.0
 40
4.1
 50
359.9999994397
 51
105.0000383286
  0
LINE
  8
1
  5
460
  6
CONTINUOUS
 62
7
 10
-177.2
 20
-109.44323
 30
-30.0
 11
-177.2
 21
-109.44323
 31
-22.5
  0
ARC
  8
1
  5
462
  6
CONTINUOUS
 62
7
 10
-173.1
 20
-109.443231
 30
-22.5
 40
4.1
 50
74.9999588936
 51
179.9999977825
  0
LINE
  8
1
  5
464
  6
CONTINUOUS
 62
7
 10
-177.2
 20
-115.55679
 30
-30.0
 11
-177.2
 21
-109.44323
 31
-30.0
  0
LINE
  8
1
  5
466
  6
CONTINUOUS
 62
7
 10
-177.2
 20
-115.55679
 30
-30.0
 11
-177.2
 21
-115.55679
 31
-22.5
  0
LINE
  8
1
  5
468
  6
CONTINUOUS
 62
7
 10
-177.2
 20
-109.44323
 30
-22.5
 11
-177.2
 21
-115.55679
 31
-22.5
  0
ARC
  8
1
  5
46A
  6
CONTINUOUS
 62
7
 210
0.0
 220
0.0
 230
-1.0
 10
173.1
 20
-115.556787
 30
30.0
 40
4.1
 50
254.999993709
 51
359.9999992645
  0
LINE
  8
1
  5
46C
  6
CONTINUOUS
 62
7
 10
-172.03884
 20
-119.51708
 30
-30.0
 11
-172.03884
 21
-119.51708
 31
-22.5
  0
ARC
  8
1
  5
46E
  6
CONTINUOUS
 62
7
 10
-173.1
 20
-115.556787
 30
-22.5
 40
4.1
 50
180.0000007355
 51
285.000006291
  0
LINE
  8
1
  5
470
  6
CONTINUOUS
 62
7
 10
-165.96116
 20
-117.88857
 30
-30.0
 11
-172.03884
 21
-119.51708
 31
-30.0
  0
LINE
  8
1
  5
472
  6
CONTINUOUS
 62
7
 10
-165.96116
 20
-117.88857
 30
-30.0
 11
-165.96116
 21
-117.88857
 31
-22.5
  0
LINE
  8
1
  5
474
  6
CONTINUOUS
 62
7
 10
-172.03884
 20
-119.51708
 30
-22.5
 11
-165.96116
 21
-117.88857
 31
-22.5
  0
ARC
  8
1
  5
476
  6
CONTINUOUS
 62
7
 10
-164.9
 20
-121.848867
 30
-30.0
 40
4.1
 50
360.0
 51
104.9999861111
  0
LINE
  8
1
  5
478
  6
CONTINUOUS
 62
7
 10
-160.8
 20
-121.84887
 30
-30.0
 11
-160.8
 21
-121.84887
 31
-22.5
  0
ARC
  8
1
  5
47A
  6
CONTINUOUS
 62
7
 210
0.0
 220
0.0
 230
-1.0
 10
164.9
 20
-121.848867
 30
22.5
 40
4.1
 50
75.0000138889
 51
180.0
  0
LINE
  8
1
  5
47C
  6
CONTINUOUS
 62
7
 10
-160.8
 20
-128.15115
 30
-30.0
 11
-160.8
 21
-121.84887
 31
-30.0
  0
LINE
  8
1
  5
47E
  6
CONTINUOUS
 62
7
 10
-160.8
 20
-128.15115
 30
-30.0
 11
-160.8
 21
-128.15115
 31
-22.5
  0
LINE
  8
1
  5
480
  6
CONTINUOUS
 62
7
 10
-160.8
 20
-121.84887
 30
-22.5
 11
-160.8
 21
-128.15115
 31
-22.5
  0
ARC
  8
1
  5
482
  6
CONTINUOUS
 62
7
 10
-164.9
 20
-128.151153
 30
-30.0
 40
4.1
 50
255.0000166667
 51
360.0
  0
LINE
  8
1
  5
484
  6
CONTINUOUS
 62
7
 10
-165.96116
 20
-132.11145
 30
-30.0
 11
-165.96116
 21
-132.11145
 31
-22.5
  0
ARC
  8
1
  5
486
  6
CONTINUOUS
 62
7
 210
0.0
 220
0.0
 230
-1.0
 10
164.9
 20
-128.151153
 30
22.5
 40
4.1
 50
180.0
 51
284.9999833333
  0
LINE
  8
1
  5
488
  6
CONTINUOUS
 62
7
 10
-172.03884
 20
-130.48294
 30
-30.0
 11
-165.96116
 21
-132.11145
 31
-30.0
  0
LINE
  8
1
  5
48A
  6
CONTINUOUS
 62
7
 10
-172.03884
 20
-130.48294
 30
-30.0
 11
-172.03884
 21
-130.48294
 31
-22.5
  0
LINE
  8
1
  5
48C
  6
CONTINUOUS
 62
7
 10
-165.96116
 20
-132.11145
 30
-22.5
 11
-172.03884
 21
-130.48294
 31
-22.5
  0
ARC
  8
1
  5
48E
  6
CONTINUOUS
 62
7
 210
0.0
 220
0.0
 230
-1.0
 10
173.1
 20
-134.443236
 30
30.0
 40
4.1
 50
0.0000003975
 51
105.0000031753
  0
LINE
  8
1
  5
490
  6
CONTINUOUS
 62
7
 10
-177.2
 20
-134.44324
 30
-30.0
 11
-177.2
 21
-134.44324
 31
-22.5
  0
ARC
  8
1
  5
492
  6
CONTINUOUS
 62
7
 10
-173.1
 20
-134.443236
 30
-22.5
 40
4.1
 50
74.9999996025
 51
180.0000023803
  0
LINE
  8
1
  5
494
  6
CONTINUOUS
 62
7
 10
-177.2
 20
-140.55679
 30
-30.0
 11
-177.2
 21
-134.44324
 31
-30.0
  0
LINE
  8
1
  5
496
  6
CONTINUOUS
 62
7
 10
-177.2
 20
-140.55679
 30
-30.0
 11
-177.2
 21
-140.55679
 31
-22.5
  0
LINE
  8
1
  5
498
  6
CONTINUOUS
 62
7
 10
-177.2
 20
-134.44324
 30
-22.5
 11
-177.2
 21
-140.55679
 31
-22.5
  0
ARC
  8
1
  5
49A
  6
CONTINUOUS
 62
7
 210
0.0
 220
0.0
 230
-1.0
 10
173.1
 20
-140.55679
 30
30.0
 40
4.1
 50
254.9999722222
 51
5.0888874903E-014
  0
LINE
  8
1
  5
49C
  6
CONTINUOUS
 62
7
 10
-172.03884
 20
-144.51708
 30
-30.0
 11
-172.03884
 21
-144.51708
 31
-22.5
  0
ARC
  8
1
  5
49E
  6
CONTINUOUS
 62
7
 10
-173.1
 20
-140.55679
 30
-22.5
 40
4.1
 50
180.0
 51
285.0000277778
  0
LINE
  8
1
  5
4A0
  6
CONTINUOUS
 62
7
 10
-165.96116
 20
-142.88857
 30
-30.0
 11
-172.03884
 21
-144.51708
 31
-30.0
  0
LINE
  8
1
  5
4A2
  6
CONTINUOUS
 62
7
 10
-165.96116
 20
-142.88857
 30
-30.0
 11
-165.96116
 21
-142.88857
 31
-22.5
  0
LINE
  8
1
  5
4A4
  6
CONTINUOUS
 62
7
 10
-172.03884
 20
-144.51708
 30
-22.5
 11
-165.96116
 21
-142.88857
 31
-22.5
  0
ARC
  8
1
  5
4A6
  6
CONTINUOUS
 62
7
 10
-164.9
 20
-146.848867
 30
-30.0
 40
4.1
 50
360.0
 51
105.000075
  0
LINE
  8
1
  5
4A8
  6
CONTINUOUS
 62
7
 10
-160.8
 20
-146.84887
 30
-30.0
 11
-160.8
 21
-146.84887
 31
-22.5
  0
ARC
  8
1
  5
4AA
  6
CONTINUOUS
 62
7
 210
0.0
 220
0.0
 230
-1.0
 10
164.9
 20
-146.848867
 30
22.5
 40
4.1
 50
74.999925
 51
180.0
  0
LINE
  8
1
  5
4AC
  6
CONTINUOUS
 62
7
 10
-160.8
 20
-153.15115
 30
-30.0
 11
-160.8
 21
-146.84887
 31
-30.0
  0
LINE
  8
1
  5
4AE
  6
CONTINUOUS
 62
7
 10
-160.8
 20
-153.15115
 30
-30.0
 11
-160.8
 21
-153.15115
 31
-22.5
  0
LINE
  8
1
  5
4B0
  6
CONTINUOUS
 62
7
 10
-160.8
 20
-146.84887
 30
-22.5
 11
-160.8
 21
-153.15115
 31
-22.5
  0
ARC
  8
1
  5
4B2
  6
CONTINUOUS
 62
7
 10
-164.9
 20
-153.151153
 30
-30.0
 40
4.1
 50
255.0000333333
 51
360.0
  0
LINE
  8
1
  5
4B4
  6
CONTINUOUS
 62
7
 10
-165.96116
 20
-157.11145
 30
-30.0
 11
-165.96116
 21
-157.11145
 31
-22.5
  0
ARC
  8
1
  5
4B6
  6
CONTINUOUS
 62
7
 210
0.0
 220
0.0
 230
-1.0
 10
164.9
 20
-153.151153
 30
22.5
 40
4.1
 50
180.0
 51
284.9999666667
  0
LINE
  8
1
  5
4B8
  6
CONTINUOUS
 62
7
 10
-172.03884
 20
-155.48294
 30
-30.0
 11
-165.96116
 21
-157.11145
 31
-30.0
  0
LINE
  8
1
  5
4BA
  6
CONTINUOUS
 62
7
 10
-172.03884
 20
-155.48294
 30
-30.0
 11
-172.03884
 21
-155.48294
 31
-22.5
  0
LINE
  8
1
  5
4BC
  6
CONTINUOUS
 62
7
 10
-165.96116
 20
-157.11145
 30
-22.5
 11
-172.03884
 21
-155.48294
 31
-22.5
  0
ARC
  8
1
  5
4BE
  6
CONTINUOUS
 62
7
 210
0.0
 220
0.0
 230
-1.0
 10
173.1
 20
-159.443238
 30
30.0
 40
4.1
 50
0.0000003242
 51
104.9999864353
  0
LINE
  8
1
  5
4C0
  6
CONTINUOUS
 62
7
 10
-177.2
 20
-159.44324
 30
-30.0
 11
-177.2
 21
-159.44324
 31
-22.5
  0
ARC
  8
1
  5
4C2
  6
CONTINUOUS
 62
7
 10
-173.1
 20
-159.443238
 30
-22.5
 40
4.1
 50
75.0000135647
 51
179.9999996758
  0
LINE
  8
1
  5
4C4
  6
CONTINUOUS
 62
7
 10
-177.2
 20
-165.0
 30
-30.0
 11
-177.2
 21
-159.44324
 31
-30.0
  0
LINE
  8
1
  5
4C6
  6
CONTINUOUS
 62
7
 10
-177.2
 20
-165.0
 30
-22.5
 11
-177.2
 21
-165.0
 31
-30.0
  0
LINE
  8
1
  5
4C8
  6
CONTINUOUS
 62
7
 10
-177.2
 20
-159.44324
 30
-22.5
 11
-177.2
 21
-165.0
 31
-22.5
  0
LINE
  8
1
  5
4CA
  6
CONTINUOUS
 62
7
 10
-177.2
 20
-10.0
 30
-22.5
 11
-193.6
 21
-10.0
 31
-22.5
  0
LINE
  8
1
  5
4CC
  6
CONTINUOUS
 62
7
 10
-193.6
 20
-165.0
 30
-22.5
 11
-177.2
 21
-165.0
 31
-22.5
  0
ENDBLK
  8
1
  5
4CD
  0
BLOCK
  8
1
  5
4CF
 70
1
 10
0.0
 20
0.0
 30
0.0
  2
*M7
  3
*M7
  0
LINE
  8
1
  5
4D1
  6
CONTINUOUS
 62
7
 10
-210.0
 20
-146.84887
 30
-15.0
 11
-210.0
 21
-153.15115
 31
-15.0
  0
LINE
  8
1
  5
4D3
  6
CONTINUOUS
 62
7
 10
-210.0
 20
-121.84887
 30
-15.0
 11
-210.0
 21
-128.15115
 31
-15.0
  0
LINE
  8
1
  5
4D5
  6
CONTINUOUS
 62
7
 10
-210.0
 20
-96.84887
 30
-15.0
 11
-210.0
 21
-103.15115
 31
-15.0
  0
LINE
  8
1
  5
4D7
  6
CONTINUOUS
 62
7
 10
-210.0
 20
-71.84887
 30
-15.0
 11
-210.0
 21
-78.15115
 31
-15.0
  0
LINE
  8
1
  5
4D9
  6
CONTINUOUS
 62
7
 10
-210.0
 20
-46.84887
 30
-15.0
 11
-210.0
 21
-53.15115
 31
-15.0
  0
LINE
  8
1
  5
4DB
  6
CONTINUOUS
 62
7
 10
-210.0
 20
-21.84887
 30
-15.0
 11
-210.0
 21
-28.15115
 31
-15.0
  0
LINE
  8
1
  5
4DD
  6
CONTINUOUS
 62
7
 10
-193.6
 20
-165.0
 30
-15.0
 11
30.0
 21
-165.0
 31
-15.0
  0
LINE
  8
1
  5
4DF
  6
CONTINUOUS
 62
7
 10
30.0
 20
-165.0
 30
-15.0
 11
30.0
 21
-10.0
 31
-15.0
  0
LINE
  8
1
  5
4E1
  6
CONTINUOUS
 62
7
 10
30.0
 20
-10.0
 30
-15.0
 11
-193.6
 21
-10.0
 31
-15.0
  0
LINE
  8
1
  5
4E3
  6
CONTINUOUS
 62
7
 10
-177.2
 20
-10.0
 30
-30.0
 11
30.0
 21
-10.0
 31
-30.0
  0
LINE
  8
1
  5
4E5
  6
CONTINUOUS
 62
7
 10
30.0
 20
-10.0
 30
-30.0
 11
30.0
 21
-165.0
 31
-30.0
  0
LINE
  8
1
  5
4E7
  6
CONTINUOUS
 62
7
 10
30.0
 20
-165.0
 30
-30.0
 11
-177.2
 21
-165.0
 31
-30.0
  0
LINE
  8
1
  5
4E9
  6
CONTINUOUS
 62
7
 10
30.0
 20
-165.0
 30
-30.0
 11
30.0
 21
-165.0
 31
-15.0
  0
LINE
  8
1
  5
4EB
  6
CONTINUOUS
 62
7
 10
30.0
 20
-10.0
 30
-30.0
 11
30.0
 21
-10.0
 31
-15.0
  0
ENDBLK
  8
1
  5
4EC
  0
BLOCK
  8
1
  5
4EE
 70
1
 10
0.0
 20
0.0
 30
0.0
  2
*M8
  3
*M8
  0
INSERT
  8
1
  5
4F0
  6
CONTINUOUS
 62
7
  2
*M6
 10
0.0
 20
0.0
 30
0.0
 41
1.0
 42
1.0
 43
1.0
 70
1
 71
1
  0
INSERT
  8
1
  5
4F2
  6
CONTINUOUS
 62
7
  2
*M7
 10
0.0
 20
0.0
 30
0.0
 41
1.0
 42
1.0
 43
1.0
 70
1
 71
1
  0
ENDBLK
  8
1
  5
4F3
  0
BLOCK
  8
1
  5
4F5
 70
1
 10
0.0
 20
0.0
 30
0.0
  2
*M9
  3
*M9
  0
INSERT
  8
1
  5
4F7
  6
CONTINUOUS
 62
7
  2
*M5
 10
0.0
 20
0.0
 30
0.0
 41
1.0
 42
1.0
 43
1.0
 70
1
 71
1
  0
INSERT
  8
1
  5
4F9
  6
CONTINUOUS
 62
7
  2
*M8
 10
0.0
 20
0.0
 30
0.0
 41
1.0
 42
1.0
 43
1.0
 70
1
 71
1
  0
ENDBLK
  8
1
  5
4FA
  0
ENDSEC
  0
SECTION
  2
ENTITIES
  0
INSERT
  8
1
  5
2
  6
CONTINUOUS
 62
7
  2
*M4
 10
0.0
 20
0.0
 30
0.0
 41
1.0
 42
1.0
 43
1.0
 70
1
 71
1
  0
INSERT
  8
1
  5
4
  6
CONTINUOUS
 62
7
  2
*M9
 10
470.0
 20
0.0
 30
45.0
 41
1.0
 42
1.0
 43
1.0
 70
1
 71
1
  0
ENDSEC
  0
EOF
