  0
SECTION
  2
HEADER
  9
$ACADVER
  1
AC1009
  9
$INSBASE
 10
0.0
 20
0.0
 30
0.0
  9
$EXTMAX
 10
530.0
 20
190.69103
 30
0.0
  9
$EXTMIN
 10
0.0
 20
-165.0
 30
-15.0
  9
$LIMMAX
 10
12.0
 20
9.0
  9
$LIMMIN
 10
0.0
 20
0.0
  9
$ORTHOMODE
 70
0
  9
$REGENMODE
 70
1
  9
$FILLMODE
 70
1
  9
$QTEXTMODE
 70
0
  9
$MIRRTEXT
 70
1
  9
$DRAGMODE
 70
2
  9
$LTSCALE
 40
1.0
  9
$OSMODE
 70
0
  9
$ATTMODE
 70
1
  9
$TEXTSIZE
 40
0.2
  9
$TRACEWID
 40
0.05
  9
$TEXTSTYLE
  7
STANDARD
  9
$CLAYER
  8
0
  9
$CELTYPE
  6
CONTINUOUS
  9
$CECOLOR
 62
256
  9
$DIMSCALE
 40
1.0
  9
$DIMASZ
 40
0.18
  9
$DIMEXO
 40
0.0625
  9
$DIMDLI
 40
0.38
  9
$DIMRND
 40
0.0
  9
$DIMDLE
 40
0.0
  9
$DIMEXE
 40
0.18
  9
$DIMTP
 40
0.0
  9
$DIMTM
 40
0.0
  9
$DIMTXT
 40
0.18
  9
$DIMCEN
 40
0.09
  9
$DIMTSZ
 40
0.0
  9
$DIMTOL
 70
0
  9
$DIMLIM
 70
0
  9
$DIMTIH
 70
1
  9
$DIMTOH
 70
1
  9
$DIMSE1
 70
0
  9
$DIMSE2
 70
0
  9
$DIMTAD
 70
0
  9
$DIMZIN
 70
0
  9
$DIMBLK
  1

  9
$DIMASO
 70
1
  9
$DIMSHO
 70
1
  9
$DIMPOST
  1

  9
$DIMAPOST
  1

  9
$DIMALT
 70
0
  9
$DIMALTD
 70
2
  9
$DIMALTF
 40
25.4
  9
$DIMLFAC
 40
1.0
  9
$DIMTOFL
 70
0
  9
$DIMTVP
 40
0.0
  9
$DIMTIX
 70
0
  9
$DIMSOXD
 70
0
  9
$DIMSAH
 70
0
  9
$DIMBLK1
  1

  9
$DIMBLK2
  1

  9
$DIMSTYLE
  2
*UNNAMED
  9
$DIMCLRD
 70
0
  9
$DIMCLRE
 70
0
  9
$DIMCLRT
 70
0
  9
$DIMTFAC
 40
1.0
  9
$DIMGAP
 40
0.09
  9
$LUNITS
 70
2
  9
$LUPREC
 70
4
  9
$AXISMODE
 70
0
  9
$AXISUNIT
 10
0.0
 20
0.0
  9
$SKETCHINC
 40
0.1
  9
$FILLETRAD
 40
0.0
  9
$AUNITS
 70
0
  9
$AUPREC
 70
0
  9
$MENU
  1
acad
  9
$ELEVATION
 40
0.0
  9
$PELEVATION
 40
0.0
  9
$THICKNESS
 40
0.0
  9
$LIMCHECK
 70
0
  9
$BLIPMODE
 70
1
  9
$CHAMFERA
 40
0.0
  9
$CHAMFERB
 40
0.0
  9
$SKPOLY
 70
0
  9
$TDCREATE
 40
0.0
  9
$TDUPDATE
 40
0.0
  9
$TDINDWG
 40
0.0
  9
$TDUSRTIMER
 40
0.0
  9
$USRTIMER
 70
1
  9
$ANGBASE
 50
0.0
  9
$ANGDIR
 70
0
  9
$PDMODE
 70
0
  9
$PDSIZE
 40
0.0
  9
$PLINEWID
 40
0.0
  9
$COORDS
 70
0
  9
$SPLFRAME
 70
0
  9
$SPLINETYPE
 70
6
  9
$SPLINESEGS
 70
10
  9
$ATTDIA
 70
0
  9
$ATTREQ
 70
1
  9
$HANDLING
 70
1
  9
$HANDSEED
  5
27F
  9
$SURFTAB1
 70
6
  9
$SURFTAB2
 70
6
  9
$SURFTYPE
 70
6
  9
$SURFU
 70
10
  9
$SURFV
 70
10
  9
$UCSNAME
  2

  9
$UCSORG
 10
0.0
 20
0.0
 30
0.0
  9
$UCSXDIR
 10
1.0
 20
0.0
 30
0.0
  9
$UCSYDIR
 10
0.0
 20
1.0
 30
0.0
  9
$PUCSNAME
  2
 
  9
$PUCSORG
 10
0.0
 20
0.0
 30
0.0
  9
$PUCSXDIR
 10
1.0
 20
0.0
 30
0.0
  9
$PUCSYDIR
 10
0.0
 20
1.0
 30
0.0
  9
$USERI1
 70
0
  9
$USERI2
 70
0
  9
$USERI3
 70
0
  9
$USERI4
 70
0
  9
$USERI5
 70
0
  9
$USERR1
 40
0.0
  9
$USERR2
 40
0.0
  9
$USERR3
 40
0.0
  9
$USERR4
 40
0.0
  9
$USERR5
 40
0.0
  9
$WORLDVIEW
 70
1
  9
$SHADEDGE
 70
3
  9
$SHADEDIF
 70
70
  9
$TILEMODE
 70
1
  9
$MAXACTVP
 70
16
  9
$PINSBASE
 10
0.0
 20
0.0
 30
0.0
  9
$PLIMCHECK
 70
0
  9
$PEXTMIN
 10
-1.000000E+020
 20
-1.000000E+020
 30
-1.000000E+020
  9
$PEXTMAX
 10
-1.000000E+020
 20
-1.000000E+020
 30
-1.000000E+020
  9
$PLIMMIN
 10
0.0
 20
0.0
  9
$PLIMMAX
 10
12.0
 20
9.0
  9
$UNITMODE
 70
0
  9
$VISRETAIN
 70
0
  0
ENDSEC
  0
SECTION
  2
TABLES
  0
TABLE
  2
LTYPE
 70
7
  0
LTYPE
  2
CONTINUOUS
 70
64
  3
Solid line
 72
65
 73
0
 40
0.0
  0
LTYPE
  2
DOT
 70
64
  3
. . . . . . . . . . . . . . . . . . . . . . . . . . . . . . . . .
 72
65
 73
2
 40
0.25
 49
0.0
 49
-0.25
  0
LTYPE
  2
HIDDEN
 70
64
  3
__ __ __ __ __ __ __ __ __ __ __ __ __ __ __ __ __ __ __ __ __ 
 72
65
 73
2
 40
0.375
 49
0.25
 49
-0.125
  0
LTYPE
  2
DASHED
 70
64
  3
__ __ __ __ __ __ __ __ __ __ __ __ __ __ __ __ __ __ __ __ __
 72
65
 73
2
 40
0.75
 49
0.5
 49
-0.25
  0
LTYPE
  2
DASHDOT
 70
64
  3
__ . __ . __ . __ . __ . __ . __ . __ . __ . __ . __ . __ . _
 72
65
 73
4
 40
1.0
 49
0.5
 49
-0.25
 49
0.0
 49
-0.25
  0
LTYPE
  2
DIVIDE
 70
64
  3
____ . . ____ . . ____ . . ____ . . ____ . . ____ . . ____ . .
 72
65
 73
6
 40
1.25
 49
0.5
 49
-0.25
 49
0.0
 49
-0.25
 49
0.0
 49
-0.25
  0
LTYPE
  2
CENTER
 70
64
  3
____ _ ____ _ ____ _ ____ _ ____ _ ____ _ ____ _ ____ _ ____ _
 72
65
 73
4
 40
2.0
 49
1.25
 49
-0.25
 49
0.25
 49
-0.25
  0
ENDTAB
  0
TABLE
  2
APPID
 70
1
  0
APPID
  2
ACAD
 70
0
  0
ENDTAB
  0
TABLE
  2
DIMSTYLE
 70
0
  0
ENDTAB
  0
TABLE
  2
LAYER
 70
4
  0
LAYER
  2
0
 70
0
 62
7
  6
CONTINUOUS
  0
LAYER
  2
CONSTRUCTION_CLASS
 70
0
 62
7
  6
CONTINUOUS
  0
LAYER
  2
PATTERN_CLASS
 70
0
 62
7
  6
CONTINUOUS
  0
LAYER
  2
1
 70
0
 62
7
  6
CONTINUOUS
  0
ENDTAB
  0
TABLE
  2
STYLE
 70
1
  0
STYLE
  2
STANDARD
 70
0
 40
0.2
 41
1.0
 50
0.0
 71
0
 42
0.0
  3
txt
  4

  0
ENDTAB
  0
TABLE
  2
UCS
 70
0
  0
ENDTAB
  0
TABLE
  2
VIEW
 70
0
  0
ENDTAB
  0
TABLE
  2
VPORT
 70
4
  0
VPORT
  2
*ACTIVE
 70
0
 10
0.001642
 20
0.50168
 11
0.499179
 21
0.99776
 12
0.0
 22
0.0
 13
0.0
 23
0.0
 14
0.0
 24
0.0
 15
0.0
 25
0.0
 16
0.0
 26
-8.238508E-014
 36
1345.4949
 17
231.669088
 27
12.845515
 37
-7.5
 40
364.58331
 41
1.367946
 42
50.0
 43
672.74745
 44
-672.74745
 50
0.0
 51
0.0
 71
22
 72
100
 73
1
 74
0
 75
0
 76
0
 77
0
 78
0
  0
VPORT
  2
*ACTIVE
 70
0
 10
0.500821
 20
0.50168
 11
0.998358
 21
0.99776
 12
5.684342E-014
 22
2.842171E-014
 13
0.0
 23
0.0
 14
0.0
 24
0.0
 15
0.0
 25
0.0
 16
-1075.946562
 26
-1214.334669
 36
702.335318
 17
242.150588
 27
-62.173334
 37
-7.526316
 40
334.51602
 41
1.367946
 42
50.0
 43
883.96049
 44
-883.96049
 50
0.0
 51
0.0
 71
22
 72
100
 73
1
 74
0
 75
0
 76
0
 77
0
 78
0
  0
VPORT
  2
*ACTIVE
 70
0
 10
0.001642
 20
0.003359
 11
0.499179
 21
0.49944
 12
0.0
 22
0.0
 13
0.0
 23
0.0
 14
0.0
 24
0.0
 15
0.0
 25
0.0
 16
0.0
 26
-1422.76412
 36
0.0
 17
232.974405
 27
12.84552
 37
-7.5
 40
350.3054
 41
1.367946
 42
50.0
 43
711.38206
 44
-711.38206
 50
0.0
 51
0.0
 71
22
 72
100
 73
1
 74
0
 75
0
 76
0
 77
0
 78
0
  0
VPORT
  2
*ACTIVE
 70
0
 10
0.500821
 20
0.003359
 11
0.998358
 21
0.49944
 12
0.0
 22
0.0
 13
0.0
 23
0.0
 14
0.0
 24
0.0
 15
0.0
 25
0.0
 16
2120.0
 26
0.0
 36
0.0
 17
265.0
 27
-8.779596
 37
-7.499995
 40
236.54183
 41
1.367946
 42
50.0
 43
1060.0
 44
-1060.0
 50
0.0
 51
0.0
 71
22
 72
100
 73
1
 74
0
 75
0
 76
0
 77
0
 78
0
  0
ENDTAB
  0
ENDSEC
  0
SECTION
  2
BLOCKS
  0
BLOCK
  8
1
  5
C
 70
1
 10
0.0
 20
0.0
 30
0.0
  2
*M0
  3
*M0
  0
ARC
  8
1
  5
E
  6
CONTINUOUS
 62
7
 10
219.1
 20
-91.137536
 30
-10.0
 40
4.1
 50
180.0
 51
284.9999916667
  0
LINE
  8
1
  5
10
  6
CONTINUOUS
 62
7
 10
220.16116
 20
-95.09783
 30
0.0
 11
220.16116
 21
-95.09783
 31
-10.0
  0
ARC
  8
1
  5
12
  6
CONTINUOUS
 62
7
 10
219.1
 20
-91.137536
 30
0.0
 40
4.1
 50
180.0
 51
284.9999916667
  0
LINE
  8
1
  5
14
  6
CONTINUOUS
 62
7
 10
215.0
 20
-91.13754
 30
0.0
 11
215.0
 21
-91.13754
 31
-10.0
  0
LINE
  8
1
  5
16
  6
CONTINUOUS
 62
7
 10
220.16116
 20
-95.09783
 30
-10.0
 11
238.93884
 21
-90.06637
 31
-10.0
  0
LINE
  8
1
  5
18
  6
CONTINUOUS
 62
7
 10
238.93884
 20
-90.06637
 30
0.0
 11
238.93884
 21
-90.06637
 31
-10.0
  0
LINE
  8
1
  5
1A
  6
CONTINUOUS
 62
7
 10
220.16116
 20
-95.09783
 30
0.0
 11
238.93884
 21
-90.06637
 31
0.0
  0
ARC
  8
1
  5
1C
  6
CONTINUOUS
 62
7
 210
0.0
 220
0.0
 230
-1.0
 10
-240.0
 20
-94.026662
 30
10.0
 40
4.1
 50
74.9999996139
 51
104.9999968361
  0
LINE
  8
1
  5
1E
  6
CONTINUOUS
 62
7
 10
241.06116
 20
-90.06637
 30
0.0
 11
241.06116
 21
-90.06637
 31
-10.0
  0
ARC
  8
1
  5
20
  6
CONTINUOUS
 62
7
 210
0.0
 220
0.0
 230
-1.0
 10
-240.0
 20
-94.026662
 30
0.0
 40
4.1
 50
74.9999996139
 51
104.9999968361
  0
LINE
  8
1
  5
22
  6
CONTINUOUS
 62
7
 10
241.06116
 20
-90.06637
 30
-10.0
 11
269.83884
 21
-97.77732
 31
-10.0
  0
LINE
  8
1
  5
24
  6
CONTINUOUS
 62
7
 10
269.83884
 20
-97.77732
 30
0.0
 11
269.83884
 21
-97.77732
 31
-10.0
  0
LINE
  8
1
  5
26
  6
CONTINUOUS
 62
7
 10
241.06116
 20
-90.06637
 30
0.0
 11
269.83884
 21
-97.77732
 31
0.0
  0
ARC
  8
1
  5
28
  6
CONTINUOUS
 62
7
 10
270.9
 20
-93.817026
 30
-10.0
 40
4.1
 50
255.0000082114
 51
359.9999998781
  0
LINE
  8
1
  5
2A
  6
CONTINUOUS
 62
7
 10
275.0
 20
-93.81703
 30
0.0
 11
275.0
 21
-93.81703
 31
-10.0
  0
ARC
  8
1
  5
2C
  6
CONTINUOUS
 62
7
 10
270.9
 20
-93.817026
 30
0.0
 40
4.1
 50
255.0000082114
 51
359.9999998781
  0
LINE
  8
1
  5
2E
  6
CONTINUOUS
 62
7
 10
275.0
 20
-93.81703
 30
-10.0
 11
275.0
 21
-71.18297
 31
-10.0
  0
LINE
  8
1
  5
30
  6
CONTINUOUS
 62
7
 10
275.0
 20
-71.18297
 30
0.0
 11
275.0
 21
-71.18297
 31
-10.0
  0
LINE
  8
1
  5
32
  6
CONTINUOUS
 62
7
 10
275.0
 20
-93.81703
 30
0.0
 11
275.0
 21
-71.18297
 31
0.0
  0
ARC
  8
1
  5
34
  6
CONTINUOUS
 62
7
 10
270.9
 20
-71.182973
 30
-10.0
 40
4.1
 50
0.0
 51
104.9999861111
  0
LINE
  8
1
  5
36
  6
CONTINUOUS
 62
7
 10
269.83884
 20
-67.22268
 30
0.0
 11
269.83884
 21
-67.22268
 31
-10.0
  0
ARC
  8
1
  5
38
  6
CONTINUOUS
 62
7
 10
270.9
 20
-71.182973
 30
0.0
 40
4.1
 50
0.0
 51
104.9999861111
  0
LINE
  8
1
  5
3A
  6
CONTINUOUS
 62
7
 10
269.83884
 20
-67.22268
 30
-10.0
 11
241.06115
 21
-74.93363
 31
-10.0
  0
LINE
  8
1
  5
3C
  6
CONTINUOUS
 62
7
 10
241.06115
 20
-74.93363
 30
0.0
 11
241.06115
 21
-74.93363
 31
-10.0
  0
LINE
  8
1
  5
3E
  6
CONTINUOUS
 62
7
 10
269.83884
 20
-67.22268
 30
0.0
 11
241.06115
 21
-74.93363
 31
0.0
  0
ARC
  8
1
  5
40
  6
CONTINUOUS
 62
7
 210
0.0
 220
0.0
 230
-1.0
 10
-239.99999
 20
-70.973338
 30
10.0
 40
4.1
 50
255.0000067325
 51
285.0000067325
  0
LINE
  8
1
  5
42
  6
CONTINUOUS
 62
7
 10
238.93883
 20
-74.93363
 30
0.0
 11
238.93883
 21
-74.93363
 31
-10.0
  0
ARC
  8
1
  5
44
  6
CONTINUOUS
 62
7
 210
0.0
 220
0.0
 230
-1.0
 10
-239.99999
 20
-70.973338
 30
0.0
 40
4.1
 50
255.0000067325
 51
285.0000067325
  0
LINE
  8
1
  5
46
  6
CONTINUOUS
 62
7
 10
238.93883
 20
-74.93363
 30
-10.0
 11
220.16116
 21
-69.90217
 31
-10.0
  0
LINE
  8
1
  5
48
  6
CONTINUOUS
 62
7
 10
220.16116
 20
-69.90217
 30
0.0
 11
220.16116
 21
-69.90217
 31
-10.0
  0
LINE
  8
1
  5
4A
  6
CONTINUOUS
 62
7
 10
238.93883
 20
-74.93363
 30
0.0
 11
220.16116
 21
-69.90217
 31
0.0
  0
ARC
  8
1
  5
4C
  6
CONTINUOUS
 62
7
 10
219.1
 20
-73.862465
 30
-10.0
 40
4.1
 50
75.0000022373
 51
179.9999994596
  0
LINE
  8
1
  5
4E
  6
CONTINUOUS
 62
7
 10
215.0
 20
-73.86246
 30
0.0
 11
215.0
 21
-73.86246
 31
-10.0
  0
ARC
  8
1
  5
50
  6
CONTINUOUS
 62
7
 10
219.1
 20
-73.862465
 30
0.0
 40
4.1
 50
75.0000022373
 51
179.9999994596
  0
LINE
  8
1
  5
52
  6
CONTINUOUS
 62
7
 10
215.0
 20
-73.86246
 30
-10.0
 11
215.0
 21
-91.13754
 31
-10.0
  0
LINE
  8
1
  5
54
  6
CONTINUOUS
 62
7
 10
215.0
 20
-73.86246
 30
0.0
 11
215.0
 21
-91.13754
 31
0.0
  0
ENDBLK
  8
1
  5
55
  0
BLOCK
  8
1
  5
57
 70
1
 10
0.0
 20
0.0
 30
0.0
  2
*M1
  3
*M1
  0
ARC
  8
1
  5
59
  6
CONTINUOUS
 62
7
 10
260.9
 20
-128.860804
 30
-10.0
 40
4.1
 50
0.0
 51
104.9999916667
  0
LINE
  8
1
  5
5B
  6
CONTINUOUS
 62
7
 10
259.83884
 20
-124.90051
 30
0.0
 11
259.83884
 21
-124.90051
 31
-10.0
  0
ARC
  8
1
  5
5D
  6
CONTINUOUS
 62
7
 10
260.9
 20
-128.860804
 30
0.0
 40
4.1
 50
0.0
 51
104.9999916667
  0
LINE
  8
1
  5
5F
  6
CONTINUOUS
 62
7
 10
265.0
 20
-128.8608
 30
0.0
 11
265.0
 21
-128.8608
 31
-10.0
  0
LINE
  8
1
  5
61
  6
CONTINUOUS
 62
7
 10
259.83884
 20
-124.90051
 30
-10.0
 11
241.06116
 21
-129.93197
 31
-10.0
  0
LINE
  8
1
  5
63
  6
CONTINUOUS
 62
7
 10
241.06116
 20
-129.93197
 30
0.0
 11
241.06116
 21
-129.93197
 31
-10.0
  0
LINE
  8
1
  5
65
  6
CONTINUOUS
 62
7
 10
259.83884
 20
-124.90051
 30
0.0
 11
241.06116
 21
-129.93197
 31
0.0
  0
ARC
  8
1
  5
67
  6
CONTINUOUS
 62
7
 210
0.0
 220
0.0
 230
-1.0
 10
-240.0
 20
-125.971678
 30
10.0
 40
4.1
 50
254.9999996139
 51
284.9999968361
  0
LINE
  8
1
  5
69
  6
CONTINUOUS
 62
7
 10
238.93884
 20
-129.93197
 30
0.0
 11
238.93884
 21
-129.93197
 31
-10.0
  0
ARC
  8
1
  5
6B
  6
CONTINUOUS
 62
7
 210
0.0
 220
0.0
 230
-1.0
 10
-240.0
 20
-125.971678
 30
0.0
 40
4.1
 50
254.9999996139
 51
284.9999968361
  0
LINE
  8
1
  5
6D
  6
CONTINUOUS
 62
7
 10
238.93884
 20
-129.93197
 30
-10.0
 11
210.16116
 21
-122.22102
 31
-10.0
  0
LINE
  8
1
  5
6F
  6
CONTINUOUS
 62
7
 10
210.16116
 20
-122.22102
 30
0.0
 11
210.16116
 21
-122.22102
 31
-10.0
  0
LINE
  8
1
  5
71
  6
CONTINUOUS
 62
7
 10
238.93884
 20
-129.93197
 30
0.0
 11
210.16116
 21
-122.22102
 31
0.0
  0
ARC
  8
1
  5
73
  6
CONTINUOUS
 62
7
 10
209.1
 20
-126.181314
 30
-10.0
 40
4.1
 50
75.0000082114
 51
179.9999998781
  0
LINE
  8
1
  5
75
  6
CONTINUOUS
 62
7
 10
205.0
 20
-126.18131
 30
0.0
 11
205.0
 21
-126.18131
 31
-10.0
  0
ARC
  8
1
  5
77
  6
CONTINUOUS
 62
7
 10
209.1
 20
-126.181314
 30
0.0
 40
4.1
 50
75.0000082114
 51
179.9999998781
  0
LINE
  8
1
  5
79
  6
CONTINUOUS
 62
7
 10
205.0
 20
-126.18131
 30
-10.0
 11
205.0
 21
-148.81537
 31
-10.0
  0
LINE
  8
1
  5
7B
  6
CONTINUOUS
 62
7
 10
205.0
 20
-148.81537
 30
0.0
 11
205.0
 21
-148.81537
 31
-10.0
  0
LINE
  8
1
  5
7D
  6
CONTINUOUS
 62
7
 10
205.0
 20
-126.18131
 30
0.0
 11
205.0
 21
-148.81537
 31
0.0
  0
ARC
  8
1
  5
7F
  6
CONTINUOUS
 62
7
 10
209.1
 20
-148.815367
 30
-10.0
 40
4.1
 50
180.0
 51
284.9999861111
  0
LINE
  8
1
  5
81
  6
CONTINUOUS
 62
7
 10
210.16116
 20
-152.77566
 30
0.0
 11
210.16116
 21
-152.77566
 31
-10.0
  0
ARC
  8
1
  5
83
  6
CONTINUOUS
 62
7
 10
209.1
 20
-148.815367
 30
0.0
 40
4.1
 50
180.0
 51
284.9999861111
  0
LINE
  8
1
  5
85
  6
CONTINUOUS
 62
7
 10
210.16116
 20
-152.77566
 30
-10.0
 11
238.93885
 21
-145.06471
 31
-10.0
  0
LINE
  8
1
  5
87
  6
CONTINUOUS
 62
7
 10
238.93885
 20
-145.06471
 30
0.0
 11
238.93885
 21
-145.06471
 31
-10.0
  0
LINE
  8
1
  5
89
  6
CONTINUOUS
 62
7
 10
210.16116
 20
-152.77566
 30
0.0
 11
238.93885
 21
-145.06471
 31
0.0
  0
ARC
  8
1
  5
8B
  6
CONTINUOUS
 62
7
 210
0.0
 220
0.0
 230
-1.0
 10
-240.00001
 20
-149.025002
 30
10.0
 40
4.1
 50
75.0000067325
 51
105.0000067325
  0
LINE
  8
1
  5
8D
  6
CONTINUOUS
 62
7
 10
241.06117
 20
-145.06471
 30
0.0
 11
241.06117
 21
-145.06471
 31
-10.0
  0
ARC
  8
1
  5
8F
  6
CONTINUOUS
 62
7
 210
0.0
 220
0.0
 230
-1.0
 10
-240.00001
 20
-149.025002
 30
0.0
 40
4.1
 50
75.0000067325
 51
105.0000067325
  0
LINE
  8
1
  5
91
  6
CONTINUOUS
 62
7
 10
241.06117
 20
-145.06471
 30
-10.0
 11
259.83884
 21
-150.09617
 31
-10.0
  0
LINE
  8
1
  5
93
  6
CONTINUOUS
 62
7
 10
259.83884
 20
-150.09617
 30
0.0
 11
259.83884
 21
-150.09617
 31
-10.0
  0
LINE
  8
1
  5
95
  6
CONTINUOUS
 62
7
 10
241.06117
 20
-145.06471
 30
0.0
 11
259.83884
 21
-150.09617
 31
0.0
  0
ARC
  8
1
  5
97
  6
CONTINUOUS
 62
7
 10
260.9
 20
-146.135875
 30
-10.0
 40
4.1
 50
255.0000022373
 51
359.9999994596
  0
LINE
  8
1
  5
99
  6
CONTINUOUS
 62
7
 10
265.0
 20
-146.13588
 30
0.0
 11
265.0
 21
-146.13588
 31
-10.0
  0
ARC
  8
1
  5
9B
  6
CONTINUOUS
 62
7
 10
260.9
 20
-146.135875
 30
0.0
 40
4.1
 50
255.0000022373
 51
359.9999994596
  0
LINE
  8
1
  5
9D
  6
CONTINUOUS
 62
7
 10
265.0
 20
-146.13588
 30
-10.0
 11
265.0
 21
-128.8608
 31
-10.0
  0
LINE
  8
1
  5
9F
  6
CONTINUOUS
 62
7
 10
265.0
 20
-146.13588
 30
0.0
 11
265.0
 21
-128.8608
 31
0.0
  0
ENDBLK
  8
1
  5
A0
  0
BLOCK
  8
1
  5
A2
 70
1
 10
0.0
 20
0.0
 30
0.0
  2
*M2
  3
*M2
  0
ARC
  8
1
  5
A4
  6
CONTINUOUS
 62
7
 10
260.9
 20
-18.864124
 30
-10.0
 40
4.1
 50
0.0
 51
104.9999916667
  0
LINE
  8
1
  5
A6
  6
CONTINUOUS
 62
7
 10
259.83884
 20
-14.90383
 30
0.0
 11
259.83884
 21
-14.90383
 31
-10.0
  0
ARC
  8
1
  5
A8
  6
CONTINUOUS
 62
7
 10
260.9
 20
-18.864124
 30
0.0
 40
4.1
 50
0.0
 51
104.9999916667
  0
LINE
  8
1
  5
AA
  6
CONTINUOUS
 62
7
 10
265.0
 20
-18.86412
 30
0.0
 11
265.0
 21
-18.86412
 31
-10.0
  0
LINE
  8
1
  5
AC
  6
CONTINUOUS
 62
7
 10
259.83884
 20
-14.90383
 30
-10.0
 11
241.06116
 21
-19.93529
 31
-10.0
  0
LINE
  8
1
  5
AE
  6
CONTINUOUS
 62
7
 10
241.06116
 20
-19.93529
 30
0.0
 11
241.06116
 21
-19.93529
 31
-10.0
  0
LINE
  8
1
  5
B0
  6
CONTINUOUS
 62
7
 10
259.83884
 20
-14.90383
 30
0.0
 11
241.06116
 21
-19.93529
 31
0.0
  0
ARC
  8
1
  5
B2
  6
CONTINUOUS
 62
7
 210
0.0
 220
0.0
 230
-1.0
 10
-240.0
 20
-15.974998
 30
10.0
 40
4.1
 50
254.9999996139
 51
284.9999968361
  0
LINE
  8
1
  5
B4
  6
CONTINUOUS
 62
7
 10
238.93884
 20
-19.93529
 30
0.0
 11
238.93884
 21
-19.93529
 31
-10.0
  0
ARC
  8
1
  5
B6
  6
CONTINUOUS
 62
7
 210
0.0
 220
0.0
 230
-1.0
 10
-240.0
 20
-15.974998
 30
0.0
 40
4.1
 50
254.9999996139
 51
284.9999968361
  0
LINE
  8
1
  5
B8
  6
CONTINUOUS
 62
7
 10
238.93884
 20
-19.93529
 30
-10.0
 11
210.16116
 21
-12.22434
 31
-10.0
  0
LINE
  8
1
  5
BA
  6
CONTINUOUS
 62
7
 10
210.16116
 20
-12.22434
 30
0.0
 11
210.16116
 21
-12.22434
 31
-10.0
  0
LINE
  8
1
  5
BC
  6
CONTINUOUS
 62
7
 10
238.93884
 20
-19.93529
 30
0.0
 11
210.16116
 21
-12.22434
 31
0.0
  0
ARC
  8
1
  5
BE
  6
CONTINUOUS
 62
7
 10
209.1
 20
-16.184634
 30
-10.0
 40
4.1
 50
75.0000082114
 51
179.9999998781
  0
LINE
  8
1
  5
C0
  6
CONTINUOUS
 62
7
 10
205.0
 20
-16.18463
 30
0.0
 11
205.0
 21
-16.18463
 31
-10.0
  0
ARC
  8
1
  5
C2
  6
CONTINUOUS
 62
7
 10
209.1
 20
-16.184634
 30
0.0
 40
4.1
 50
75.0000082114
 51
179.9999998781
  0
LINE
  8
1
  5
C4
  6
CONTINUOUS
 62
7
 10
205.0
 20
-16.18463
 30
-10.0
 11
205.0
 21
-38.81869
 31
-10.0
  0
LINE
  8
1
  5
C6
  6
CONTINUOUS
 62
7
 10
205.0
 20
-38.81869
 30
0.0
 11
205.0
 21
-38.81869
 31
-10.0
  0
LINE
  8
1
  5
C8
  6
CONTINUOUS
 62
7
 10
205.0
 20
-16.18463
 30
0.0
 11
205.0
 21
-38.81869
 31
0.0
  0
ARC
  8
1
  5
CA
  6
CONTINUOUS
 62
7
 10
209.1
 20
-38.818687
 30
-10.0
 40
4.1
 50
180.0
 51
284.9999861111
  0
LINE
  8
1
  5
CC
  6
CONTINUOUS
 62
7
 10
210.16116
 20
-42.77898
 30
0.0
 11
210.16116
 21
-42.77898
 31
-10.0
  0
ARC
  8
1
  5
CE
  6
CONTINUOUS
 62
7
 10
209.1
 20
-38.818687
 30
0.0
 40
4.1
 50
180.0
 51
284.9999861111
  0
LINE
  8
1
  5
D0
  6
CONTINUOUS
 62
7
 10
210.16116
 20
-42.77898
 30
-10.0
 11
238.93885
 21
-35.06803
 31
-10.0
  0
LINE
  8
1
  5
D2
  6
CONTINUOUS
 62
7
 10
238.93885
 20
-35.06803
 30
0.0
 11
238.93885
 21
-35.06803
 31
-10.0
  0
LINE
  8
1
  5
D4
  6
CONTINUOUS
 62
7
 10
210.16116
 20
-42.77898
 30
0.0
 11
238.93885
 21
-35.06803
 31
0.0
  0
ARC
  8
1
  5
D6
  6
CONTINUOUS
 62
7
 210
0.0
 220
0.0
 230
-1.0
 10
-240.00001
 20
-39.028322
 30
10.0
 40
4.1
 50
75.0000067325
 51
105.0000067325
  0
LINE
  8
1
  5
D8
  6
CONTINUOUS
 62
7
 10
241.06117
 20
-35.06803
 30
0.0
 11
241.06117
 21
-35.06803
 31
-10.0
  0
ARC
  8
1
  5
DA
  6
CONTINUOUS
 62
7
 210
0.0
 220
0.0
 230
-1.0
 10
-240.00001
 20
-39.028322
 30
0.0
 40
4.1
 50
75.0000067325
 51
105.0000067325
  0
LINE
  8
1
  5
DC
  6
CONTINUOUS
 62
7
 10
241.06117
 20
-35.06803
 30
-10.0
 11
259.83884
 21
-40.09949
 31
-10.0
  0
LINE
  8
1
  5
DE
  6
CONTINUOUS
 62
7
 10
259.83884
 20
-40.09949
 30
0.0
 11
259.83884
 21
-40.09949
 31
-10.0
  0
LINE
  8
1
  5
E0
  6
CONTINUOUS
 62
7
 10
241.06117
 20
-35.06803
 30
0.0
 11
259.83884
 21
-40.09949
 31
0.0
  0
ARC
  8
1
  5
E2
  6
CONTINUOUS
 62
7
 10
260.9
 20
-36.139195
 30
-10.0
 40
4.1
 50
255.0000022373
 51
359.9999994596
  0
LINE
  8
1
  5
E4
  6
CONTINUOUS
 62
7
 10
265.0
 20
-36.1392
 30
0.0
 11
265.0
 21
-36.1392
 31
-10.0
  0
ARC
  8
1
  5
E6
  6
CONTINUOUS
 62
7
 10
260.9
 20
-36.139195
 30
0.0
 40
4.1
 50
255.0000022373
 51
359.9999994596
  0
LINE
  8
1
  5
E8
  6
CONTINUOUS
 62
7
 10
265.0
 20
-36.1392
 30
-10.0
 11
265.0
 21
-18.86412
 31
-10.0
  0
LINE
  8
1
  5
EA
  6
CONTINUOUS
 62
7
 10
265.0
 20
-36.1392
 30
0.0
 11
265.0
 21
-18.86412
 31
0.0
  0
ENDBLK
  8
1
  5
EB
  0
BLOCK
  8
1
  5
ED
 70
1
 10
0.0
 20
0.0
 30
0.0
  2
*M3
  3
*M3
  0
LINE
  8
1
  5
EF
  6
CONTINUOUS
 62
7
 10
240.0
 20
-34.92832
 30
-10.0
 11
240.0
 21
-34.92832
 31
0.0
  0
ARC
  8
1
  5
F1
  6
CONTINUOUS
 62
7
 210
0.0
 220
0.0
 230
-1.0
 10
-240.00001
 20
-39.028322
 30
10.0
 40
4.1
 50
75.0000067325
 51
89.9998678436
  0
LINE
  8
1
  5
F3
  6
CONTINUOUS
 62
7
 10
238.93885
 20
-35.06803
 30
0.0
 11
238.93885
 21
-35.06803
 31
-10.0
  0
ARC
  8
1
  5
F5
  6
CONTINUOUS
 62
7
 10
240.00001
 20
-39.028322
 30
0.0
 40
4.1
 50
90.0001321564
 51
104.9999932675
  0
LINE
  8
1
  5
F7
  6
CONTINUOUS
 62
7
 10
240.0
 20
-20.075
 30
0.0
 11
240.0
 21
-20.075
 31
-10.0
  0
ARC
  8
1
  5
F9
  6
CONTINUOUS
 62
7
 10
240.0
 20
-15.974998
 30
0.0
 40
4.1
 50
255.0000031639
 51
270.0000031639
  0
LINE
  8
1
  5
FB
  6
CONTINUOUS
 62
7
 10
238.93884
 20
-19.93529
 30
0.0
 11
238.93884
 21
-19.93529
 31
-10.0
  0
ARC
  8
1
  5
FD
  6
CONTINUOUS
 62
7
 210
0.0
 220
0.0
 230
-1.0
 10
-240.0
 20
-15.974998
 30
10.0
 40
4.1
 50
269.9999996139
 51
284.9999996139
  0
LINE
  8
1
  5
FF
  6
CONTINUOUS
 62
7
 10
238.93884
 20
-19.93529
 30
-10.0
 11
210.16116
 21
-12.22434
 31
-10.0
  0
LINE
  8
1
  5
101
  6
CONTINUOUS
 62
7
 10
210.16116
 20
-12.22434
 30
0.0
 11
238.93884
 21
-19.93529
 31
0.0
  0
LINE
  8
1
  5
103
  6
CONTINUOUS
 62
7
 10
210.16116
 20
-12.22434
 30
0.0
 11
210.16116
 21
-12.22434
 31
-10.0
  0
ARC
  8
1
  5
105
  6
CONTINUOUS
 62
7
 10
209.1
 20
-16.184634
 30
-10.0
 40
4.1
 50
75.0000082114
 51
179.9999998781
  0
ARC
  8
1
  5
107
  6
CONTINUOUS
 62
7
 210
0.0
 220
0.0
 230
-1.0
 10
-209.1
 20
-16.184634
 30
0.0
 40
4.1
 50
0.0000001219
 51
104.9999917886
  0
LINE
  8
1
  5
109
  6
CONTINUOUS
 62
7
 10
205.0
 20
-16.18463
 30
0.0
 11
205.0
 21
-16.18463
 31
-10.0
  0
LINE
  8
1
  5
10B
  6
CONTINUOUS
 62
7
 10
205.0
 20
-16.18463
 30
-10.0
 11
205.0
 21
-38.81869
 31
-10.0
  0
LINE
  8
1
  5
10D
  6
CONTINUOUS
 62
7
 10
205.0
 20
-38.81869
 30
0.0
 11
205.0
 21
-16.18463
 31
0.0
  0
LINE
  8
1
  5
10F
  6
CONTINUOUS
 62
7
 10
205.0
 20
-38.81869
 30
0.0
 11
205.0
 21
-38.81869
 31
-10.0
  0
ARC
  8
1
  5
111
  6
CONTINUOUS
 62
7
 10
209.1
 20
-38.818687
 30
-10.0
 40
4.1
 50
180.0
 51
284.9999861111
  0
ARC
  8
1
  5
113
  6
CONTINUOUS
 62
7
 210
0.0
 220
0.0
 230
-1.0
 10
-209.1
 20
-38.818687
 30
0.0
 40
4.1
 50
255.0000138889
 51
360.0
  0
LINE
  8
1
  5
115
  6
CONTINUOUS
 62
7
 10
210.16116
 20
-42.77898
 30
0.0
 11
210.16116
 21
-42.77898
 31
-10.0
  0
LINE
  8
1
  5
117
  6
CONTINUOUS
 62
7
 10
210.16116
 20
-42.77898
 30
-10.0
 11
238.93885
 21
-35.06803
 31
-10.0
  0
LINE
  8
1
  5
119
  6
CONTINUOUS
 62
7
 10
238.93885
 20
-35.06803
 30
0.0
 11
210.16116
 21
-42.77898
 31
0.0
  0
LINE
  8
1
  5
11B
  6
CONTINUOUS
 62
7
 10
240.0
 20
-20.075
 30
-10.0
 11
240.0
 21
-34.92832
 31
-10.0
  0
ENDBLK
  8
1
  5
11C
  0
BLOCK
  8
1
  5
11E
 70
1
 10
0.0
 20
0.0
 30
0.0
  2
*M4
  3
*M4
  0
ARC
  8
1
  5
120
  6
CONTINUOUS
 62
7
 10
240.0
 20
-94.026662
 30
0.0
 40
4.1
 50
90.0000003861
 51
105.0000003861
  0
LINE
  8
1
  5
122
  6
CONTINUOUS
 62
7
 10
238.93884
 20
-90.06637
 30
0.0
 11
220.16116
 21
-95.09783
 31
0.0
  0
ARC
  8
1
  5
124
  6
CONTINUOUS
 62
7
 210
0.0
 220
0.0
 230
-1.0
 10
-219.1
 20
-91.137536
 30
0.0
 40
4.1
 50
255.0000083333
 51
5.0888874903E-014
  0
LINE
  8
1
  5
126
  6
CONTINUOUS
 62
7
 10
215.0
 20
-91.13754
 30
0.0
 11
215.0
 21
-73.86246
 31
0.0
  0
ARC
  8
1
  5
128
  6
CONTINUOUS
 62
7
 210
0.0
 220
0.0
 230
-1.0
 10
-219.1
 20
-73.862465
 30
0.0
 40
4.1
 50
0.0000005404
 51
104.9999977627
  0
LINE
  8
1
  5
12A
  6
CONTINUOUS
 62
7
 10
220.16116
 20
-69.90217
 30
0.0
 11
238.93883
 21
-74.93363
 31
0.0
  0
ARC
  8
1
  5
12C
  6
CONTINUOUS
 62
7
 10
239.99999
 20
-70.973338
 30
0.0
 40
4.1
 50
254.9999932675
 51
270.0001321564
  0
LINE
  8
1
  5
12E
  6
CONTINUOUS
 62
7
 10
240.0
 20
-89.92666
 30
-10.0
 11
240.0
 21
-89.92666
 31
0.0
  0
ARC
  8
1
  5
130
  6
CONTINUOUS
 62
7
 210
0.0
 220
0.0
 230
-1.0
 10
-240.0
 20
-94.026662
 30
10.0
 40
4.1
 50
74.9999996139
 51
89.9999996139
  0
LINE
  8
1
  5
132
  6
CONTINUOUS
 62
7
 10
238.93884
 20
-90.06637
 30
0.0
 11
238.93884
 21
-90.06637
 31
-10.0
  0
ARC
  8
1
  5
134
  6
CONTINUOUS
 62
7
 10
219.1
 20
-91.137536
 30
-10.0
 40
4.1
 50
180.0
 51
284.9999916667
  0
LINE
  8
1
  5
136
  6
CONTINUOUS
 62
7
 10
215.0
 20
-91.13754
 30
0.0
 11
215.0
 21
-91.13754
 31
-10.0
  0
LINE
  8
1
  5
138
  6
CONTINUOUS
 62
7
 10
220.16116
 20
-95.09783
 30
0.0
 11
220.16116
 21
-95.09783
 31
-10.0
  0
LINE
  8
1
  5
13A
  6
CONTINUOUS
 62
7
 10
220.16116
 20
-95.09783
 30
-10.0
 11
238.93884
 21
-90.06637
 31
-10.0
  0
LINE
  8
1
  5
13C
  6
CONTINUOUS
 62
7
 10
240.0
 20
-75.07334
 30
0.0
 11
240.0
 21
-75.07334
 31
-10.0
  0
LINE
  8
1
  5
13E
  6
CONTINUOUS
 62
7
 10
238.93883
 20
-74.93363
 30
0.0
 11
238.93883
 21
-74.93363
 31
-10.0
  0
ARC
  8
1
  5
140
  6
CONTINUOUS
 62
7
 210
0.0
 220
0.0
 230
-1.0
 10
-239.99999
 20
-70.973338
 30
10.0
 40
4.1
 50
269.9998678436
 51
285.0000067325
  0
LINE
  8
1
  5
142
  6
CONTINUOUS
 62
7
 10
238.93883
 20
-74.93363
 30
-10.0
 11
220.16116
 21
-69.90217
 31
-10.0
  0
LINE
  8
1
  5
144
  6
CONTINUOUS
 62
7
 10
220.16116
 20
-69.90217
 30
0.0
 11
220.16116
 21
-69.90217
 31
-10.0
  0
ARC
  8
1
  5
146
  6
CONTINUOUS
 62
7
 10
219.1
 20
-73.862465
 30
-10.0
 40
4.1
 50
75.0000022373
 51
179.9999994596
  0
LINE
  8
1
  5
148
  6
CONTINUOUS
 62
7
 10
215.0
 20
-73.86246
 30
0.0
 11
215.0
 21
-73.86246
 31
-10.0
  0
LINE
  8
1
  5
14A
  6
CONTINUOUS
 62
7
 10
215.0
 20
-73.86246
 30
-10.0
 11
215.0
 21
-91.13754
 31
-10.0
  0
LINE
  8
1
  5
14C
  6
CONTINUOUS
 62
7
 10
240.0
 20
-75.07334
 30
-10.0
 11
240.0
 21
-89.92666
 31
-10.0
  0
ENDBLK
  8
1
  5
14D
  0
BLOCK
  8
1
  5
14F
 70
1
 10
0.0
 20
0.0
 30
0.0
  2
*M5
  3
*M5
  0
ARC
  8
1
  5
151
  6
CONTINUOUS
 62
7
 10
240.00001
 20
-149.025002
 30
0.0
 40
4.1
 50
90.0001321564
 51
104.9999932675
  0
LINE
  8
1
  5
153
  6
CONTINUOUS
 62
7
 10
238.93885
 20
-145.06471
 30
0.0
 11
210.16116
 21
-152.77566
 31
0.0
  0
ARC
  8
1
  5
155
  6
CONTINUOUS
 62
7
 210
0.0
 220
0.0
 230
-1.0
 10
-209.1
 20
-148.815367
 30
0.0
 40
4.1
 50
255.0000138889
 51
360.0
  0
LINE
  8
1
  5
157
  6
CONTINUOUS
 62
7
 10
205.0
 20
-148.81537
 30
0.0
 11
205.0
 21
-126.18131
 31
0.0
  0
ARC
  8
1
  5
159
  6
CONTINUOUS
 62
7
 210
0.0
 220
0.0
 230
-1.0
 10
-209.1
 20
-126.181314
 30
0.0
 40
4.1
 50
0.0000001219
 51
104.9999917886
  0
LINE
  8
1
  5
15B
  6
CONTINUOUS
 62
7
 10
210.16116
 20
-122.22102
 30
0.0
 11
238.93884
 21
-129.93197
 31
0.0
  0
ARC
  8
1
  5
15D
  6
CONTINUOUS
 62
7
 10
240.0
 20
-125.971678
 30
0.0
 40
4.1
 50
255.0000031639
 51
270.0000031639
  0
LINE
  8
1
  5
15F
  6
CONTINUOUS
 62
7
 10
240.0
 20
-130.07168
 30
0.0
 11
240.0
 21
-130.07168
 31
-10.0
  0
LINE
  8
1
  5
161
  6
CONTINUOUS
 62
7
 10
238.93884
 20
-129.93197
 30
0.0
 11
238.93884
 21
-129.93197
 31
-10.0
  0
ARC
  8
1
  5
163
  6
CONTINUOUS
 62
7
 210
0.0
 220
0.0
 230
-1.0
 10
-240.0
 20
-125.971678
 30
10.0
 40
4.1
 50
269.9999996139
 51
284.9999996139
  0
LINE
  8
1
  5
165
  6
CONTINUOUS
 62
7
 10
240.0
 20
-130.07168
 30
-10.0
 11
240.0
 21
-144.925
 31
-10.0
  0
LINE
  8
1
  5
167
  6
CONTINUOUS
 62
7
 10
238.93884
 20
-129.93197
 30
-10.0
 11
210.16116
 21
-122.22102
 31
-10.0
  0
ARC
  8
1
  5
169
  6
CONTINUOUS
 62
7
 10
209.1
 20
-126.181314
 30
-10.0
 40
4.1
 50
75.0000082114
 51
179.9999998781
  0
LINE
  8
1
  5
16B
  6
CONTINUOUS
 62
7
 10
205.0
 20
-126.18131
 30
-10.0
 11
205.0
 21
-148.81537
 31
-10.0
  0
ARC
  8
1
  5
16D
  6
CONTINUOUS
 62
7
 10
209.1
 20
-148.815367
 30
-10.0
 40
4.1
 50
180.0
 51
284.9999861111
  0
LINE
  8
1
  5
16F
  6
CONTINUOUS
 62
7
 10
210.16116
 20
-152.77566
 30
-10.0
 11
238.93885
 21
-145.06471
 31
-10.0
  0
ARC
  8
1
  5
171
  6
CONTINUOUS
 62
7
 210
0.0
 220
0.0
 230
-1.0
 10
-240.00001
 20
-149.025002
 30
10.0
 40
4.1
 50
75.0000067325
 51
89.9998678436
  0
LINE
  8
1
  5
173
  6
CONTINUOUS
 62
7
 10
210.16116
 20
-122.22102
 30
0.0
 11
210.16116
 21
-122.22102
 31
-10.0
  0
LINE
  8
1
  5
175
  6
CONTINUOUS
 62
7
 10
205.0
 20
-126.18131
 30
0.0
 11
205.0
 21
-126.18131
 31
-10.0
  0
LINE
  8
1
  5
177
  6
CONTINUOUS
 62
7
 10
205.0
 20
-148.81537
 30
0.0
 11
205.0
 21
-148.81537
 31
-10.0
  0
LINE
  8
1
  5
179
  6
CONTINUOUS
 62
7
 10
210.16116
 20
-152.77566
 30
0.0
 11
210.16116
 21
-152.77566
 31
-10.0
  0
LINE
  8
1
  5
17B
  6
CONTINUOUS
 62
7
 10
238.93885
 20
-145.06471
 30
0.0
 11
238.93885
 21
-145.06471
 31
-10.0
  0
LINE
  8
1
  5
17D
  6
CONTINUOUS
 62
7
 10
240.0
 20
-144.925
 30
-10.0
 11
240.0
 21
-144.925
 31
0.0
  0
ENDBLK
  8
1
  5
17E
  0
BLOCK
  8
1
  5
180
 70
1
 10
0.0
 20
0.0
 30
0.0
  2
*M6
  3
*M6
  0
LINE
  8
1
  5
182
  6
CONTINUOUS
 62
7
 10
240.0
 20
0.0
 30
0.0
 11
240.0
 21
-20.075
 31
0.0
  0
LINE
  8
1
  5
184
  6
CONTINUOUS
 62
7
 10
0.0
 20
0.0
 30
0.0
 11
240.0
 21
0.0
 31
0.0
  0
LINE
  8
1
  5
186
  6
CONTINUOUS
 62
7
 10
0.0
 20
-165.0
 30
0.0
 11
0.0
 21
0.0
 31
0.0
  0
LINE
  8
1
  5
188
  6
CONTINUOUS
 62
7
 10
240.0
 20
-165.0
 30
0.0
 11
0.0
 21
-165.0
 31
0.0
  0
LINE
  8
1
  5
18A
  6
CONTINUOUS
 62
7
 10
240.0
 20
-144.925
 30
0.0
 11
240.0
 21
-165.0
 31
0.0
  0
LINE
  8
1
  5
18C
  6
CONTINUOUS
 62
7
 10
240.0
 20
-89.92666
 30
0.0
 11
240.0
 21
-130.07168
 31
0.0
  0
LINE
  8
1
  5
18E
  6
CONTINUOUS
 62
7
 10
240.0
 20
-34.92832
 30
0.0
 11
240.0
 21
-75.07334
 31
0.0
  0
LINE
  8
1
  5
190
  6
CONTINUOUS
 62
7
 10
240.0
 20
-165.0
 30
0.0
 11
240.0
 21
-165.0
 31
-15.0
  0
LINE
  8
1
  5
192
  6
CONTINUOUS
 62
7
 10
240.0
 20
-165.0
 30
-15.0
 11
240.0
 21
0.0
 31
-15.0
  0
LINE
  8
1
  5
194
  6
CONTINUOUS
 62
7
 10
240.0
 20
0.0
 30
0.0
 11
240.0
 21
0.0
 31
-15.0
  0
LINE
  8
1
  5
196
  6
CONTINUOUS
 62
7
 10
0.0
 20
0.0
 30
-15.0
 11
0.0
 21
-165.0
 31
-15.0
  0
LINE
  8
1
  5
198
  6
CONTINUOUS
 62
7
 10
0.0
 20
-165.0
 30
0.0
 11
0.0
 21
-165.0
 31
-15.0
  0
LINE
  8
1
  5
19A
  6
CONTINUOUS
 62
7
 10
0.0
 20
0.0
 30
0.0
 11
0.0
 21
0.0
 31
-15.0
  0
LINE
  8
1
  5
19C
  6
CONTINUOUS
 62
7
 10
0.0
 20
-165.0
 30
-15.0
 11
240.0
 21
-165.0
 31
-15.0
  0
LINE
  8
1
  5
19E
  6
CONTINUOUS
 62
7
 10
240.0
 20
0.0
 30
-15.0
 11
0.0
 21
0.0
 31
-15.0
  0
ENDBLK
  8
1
  5
19F
  0
BLOCK
  8
1
  5
1A1
 70
1
 10
0.0
 20
0.0
 30
0.0
  2
*M7
  3
*M7
  0
INSERT
  8
1
  5
1A3
  6
CONTINUOUS
 62
7
  2
*M5
 10
0.0
 20
0.0
 30
0.0
 41
1.0
 42
1.0
 43
1.0
 70
1
 71
1
  0
INSERT
  8
1
  5
1A5
  6
CONTINUOUS
 62
7
  2
*M6
 10
0.0
 20
0.0
 30
0.0
 41
1.0
 42
1.0
 43
1.0
 70
1
 71
1
  0
ENDBLK
  8
1
  5
1A6
  0
BLOCK
  8
1
  5
1A8
 70
1
 10
0.0
 20
0.0
 30
0.0
  2
*M8
  3
*M8
  0
INSERT
  8
1
  5
1AA
  6
CONTINUOUS
 62
7
  2
*M4
 10
0.0
 20
0.0
 30
0.0
 41
1.0
 42
1.0
 43
1.0
 70
1
 71
1
  0
INSERT
  8
1
  5
1AC
  6
CONTINUOUS
 62
7
  2
*M7
 10
0.0
 20
0.0
 30
0.0
 41
1.0
 42
1.0
 43
1.0
 70
1
 71
1
  0
ENDBLK
  8
1
  5
1AD
  0
BLOCK
  8
1
  5
1AF
 70
1
 10
0.0
 20
0.0
 30
0.0
  2
*M9
  3
*M9
  0
INSERT
  8
1
  5
1B1
  6
CONTINUOUS
 62
7
  2
*M3
 10
0.0
 20
0.0
 30
0.0
 41
1.0
 42
1.0
 43
1.0
 70
1
 71
1
  0
INSERT
  8
1
  5
1B3
  6
CONTINUOUS
 62
7
  2
*M8
 10
0.0
 20
0.0
 30
0.0
 41
1.0
 42
1.0
 43
1.0
 70
1
 71
1
  0
ENDBLK
  8
1
  5
1B4
  0
BLOCK
  8
1
  5
1B6
 70
1
 10
0.0
 20
0.0
 30
0.0
  2
*M10
  3
*M10
  0
LINE
  8
1
  5
1B8
  6
CONTINUOUS
 62
7
 10
240.0
 20
-20.075
 30
-10.0
 11
240.0
 21
-20.075
 31
0.0
  0
ARC
  8
1
  5
1BA
  6
CONTINUOUS
 62
7
 210
0.0
 220
0.0
 230
-1.0
 10
-240.0
 20
-15.974998
 30
10.0
 40
4.1
 50
254.9999996139
 51
269.9999996139
  0
LINE
  8
1
  5
1BC
  6
CONTINUOUS
 62
7
 10
241.06116
 20
-19.93529
 30
0.0
 11
241.06116
 21
-19.93529
 31
-10.0
  0
ARC
  8
1
  5
1BE
  6
CONTINUOUS
 62
7
 10
240.0
 20
-15.974998
 30
0.0
 40
4.1
 50
270.0000003861
 51
285.0000003861
  0
ARC
  8
1
  5
1C0
  6
CONTINUOUS
 62
7
 10
260.9
 20
-18.864124
 30
-10.0
 40
4.1
 50
0.0
 51
104.9999916667
  0
LINE
  8
1
  5
1C2
  6
CONTINUOUS
 62
7
 10
265.0
 20
-18.86412
 30
0.0
 11
265.0
 21
-18.86412
 31
-10.0
  0
ARC
  8
1
  5
1C4
  6
CONTINUOUS
 62
7
 210
0.0
 220
0.0
 230
-1.0
 10
-260.9
 20
-18.864124
 30
0.0
 40
4.1
 50
75.0000083333
 51
180.0
  0
LINE
  8
1
  5
1C6
  6
CONTINUOUS
 62
7
 10
259.83884
 20
-14.90383
 30
0.0
 11
259.83884
 21
-14.90383
 31
-10.0
  0
LINE
  8
1
  5
1C8
  6
CONTINUOUS
 62
7
 10
259.83884
 20
-14.90383
 30
-10.0
 11
241.06116
 21
-19.93529
 31
-10.0
  0
LINE
  8
1
  5
1CA
  6
CONTINUOUS
 62
7
 10
241.06116
 20
-19.93529
 30
0.0
 11
259.83884
 21
-14.90383
 31
0.0
  0
LINE
  8
1
  5
1CC
  6
CONTINUOUS
 62
7
 10
240.0
 20
-34.92832
 30
0.0
 11
240.0
 21
-34.92832
 31
-10.0
  0
ARC
  8
1
  5
1CE
  6
CONTINUOUS
 62
7
 10
240.00001
 20
-39.028322
 30
0.0
 40
4.1
 50
74.9999932675
 51
90.0001321564
  0
LINE
  8
1
  5
1D0
  6
CONTINUOUS
 62
7
 10
241.06117
 20
-35.06803
 30
0.0
 11
241.06117
 21
-35.06803
 31
-10.0
  0
ARC
  8
1
  5
1D2
  6
CONTINUOUS
 62
7
 210
0.0
 220
0.0
 230
-1.0
 10
-240.00001
 20
-39.028322
 30
10.0
 40
4.1
 50
89.9998678436
 51
105.0000067325
  0
LINE
  8
1
  5
1D4
  6
CONTINUOUS
 62
7
 10
241.06117
 20
-35.06803
 30
-10.0
 11
259.83884
 21
-40.09949
 31
-10.0
  0
LINE
  8
1
  5
1D6
  6
CONTINUOUS
 62
7
 10
259.83884
 20
-40.09949
 30
0.0
 11
241.06117
 21
-35.06803
 31
0.0
  0
LINE
  8
1
  5
1D8
  6
CONTINUOUS
 62
7
 10
259.83884
 20
-40.09949
 30
0.0
 11
259.83884
 21
-40.09949
 31
-10.0
  0
ARC
  8
1
  5
1DA
  6
CONTINUOUS
 62
7
 10
260.9
 20
-36.139195
 30
-10.0
 40
4.1
 50
255.0000022373
 51
359.9999994596
  0
ARC
  8
1
  5
1DC
  6
CONTINUOUS
 62
7
 210
0.0
 220
0.0
 230
-1.0
 10
-260.9
 20
-36.139195
 30
0.0
 40
4.1
 50
180.0000005404
 51
284.9999977627
  0
LINE
  8
1
  5
1DE
  6
CONTINUOUS
 62
7
 10
265.0
 20
-36.1392
 30
0.0
 11
265.0
 21
-36.1392
 31
-10.0
  0
LINE
  8
1
  5
1E0
  6
CONTINUOUS
 62
7
 10
265.0
 20
-36.1392
 30
-10.0
 11
265.0
 21
-18.86412
 31
-10.0
  0
LINE
  8
1
  5
1E2
  6
CONTINUOUS
 62
7
 10
265.0
 20
-18.86412
 30
0.0
 11
265.0
 21
-36.1392
 31
0.0
  0
LINE
  8
1
  5
1E4
  6
CONTINUOUS
 62
7
 10
240.0
 20
-34.92832
 30
-10.0
 11
240.0
 21
-20.075
 31
-10.0
  0
ENDBLK
  8
1
  5
1E5
  0
BLOCK
  8
1
  5
1E7
 70
1
 10
0.0
 20
0.0
 30
0.0
  2
*M11
  3
*M11
  0
ARC
  8
1
  5
1E9
  6
CONTINUOUS
 62
7
 10
239.99999
 20
-70.973338
 30
0.0
 40
4.1
 50
270.0001321564
 51
284.9999932675
  0
LINE
  8
1
  5
1EB
  6
CONTINUOUS
 62
7
 10
241.06115
 20
-74.93363
 30
0.0
 11
269.83884
 21
-67.22268
 31
0.0
  0
ARC
  8
1
  5
1ED
  6
CONTINUOUS
 62
7
 210
0.0
 220
0.0
 230
-1.0
 10
-270.9
 20
-71.182973
 30
0.0
 40
4.1
 50
75.0000138889
 51
180.0
  0
LINE
  8
1
  5
1EF
  6
CONTINUOUS
 62
7
 10
275.0
 20
-71.18297
 30
0.0
 11
275.0
 21
-93.81703
 31
0.0
  0
ARC
  8
1
  5
1F1
  6
CONTINUOUS
 62
7
 210
0.0
 220
0.0
 230
-1.0
 10
-270.9
 20
-93.817026
 30
0.0
 40
4.1
 50
180.0000001219
 51
284.9999917886
  0
LINE
  8
1
  5
1F3
  6
CONTINUOUS
 62
7
 10
269.83884
 20
-97.77732
 30
0.0
 11
241.06116
 21
-90.06637
 31
0.0
  0
ARC
  8
1
  5
1F5
  6
CONTINUOUS
 62
7
 10
240.0
 20
-94.026662
 30
0.0
 40
4.1
 50
75.0000031639
 51
90.0000031639
  0
LINE
  8
1
  5
1F7
  6
CONTINUOUS
 62
7
 10
240.0
 20
-75.07334
 30
-10.0
 11
240.0
 21
-75.07334
 31
0.0
  0
ARC
  8
1
  5
1F9
  6
CONTINUOUS
 62
7
 210
0.0
 220
0.0
 230
-1.0
 10
-239.99999
 20
-70.973338
 30
10.0
 40
4.1
 50
255.0000067325
 51
269.9998678436
  0
LINE
  8
1
  5
1FB
  6
CONTINUOUS
 62
7
 10
241.06115
 20
-74.93363
 30
0.0
 11
241.06115
 21
-74.93363
 31
-10.0
  0
LINE
  8
1
  5
1FD
  6
CONTINUOUS
 62
7
 10
240.0
 20
-89.92666
 30
0.0
 11
240.0
 21
-89.92666
 31
-10.0
  0
LINE
  8
1
  5
1FF
  6
CONTINUOUS
 62
7
 10
241.06116
 20
-90.06637
 30
0.0
 11
241.06116
 21
-90.06637
 31
-10.0
  0
ARC
  8
1
  5
201
  6
CONTINUOUS
 62
7
 210
0.0
 220
0.0
 230
-1.0
 10
-240.0
 20
-94.026662
 30
10.0
 40
4.1
 50
89.9999996139
 51
104.9999996139
  0
LINE
  8
1
  5
203
  6
CONTINUOUS
 62
7
 10
241.06116
 20
-90.06637
 30
-10.0
 11
269.83884
 21
-97.77732
 31
-10.0
  0
LINE
  8
1
  5
205
  6
CONTINUOUS
 62
7
 10
269.83884
 20
-97.77732
 30
0.0
 11
269.83884
 21
-97.77732
 31
-10.0
  0
ARC
  8
1
  5
207
  6
CONTINUOUS
 62
7
 10
270.9
 20
-93.817026
 30
-10.0
 40
4.1
 50
255.0000082114
 51
359.9999998781
  0
LINE
  8
1
  5
209
  6
CONTINUOUS
 62
7
 10
275.0
 20
-93.81703
 30
0.0
 11
275.0
 21
-93.81703
 31
-10.0
  0
LINE
  8
1
  5
20B
  6
CONTINUOUS
 62
7
 10
275.0
 20
-93.81703
 30
-10.0
 11
275.0
 21
-71.18297
 31
-10.0
  0
LINE
  8
1
  5
20D
  6
CONTINUOUS
 62
7
 10
275.0
 20
-71.18297
 30
0.0
 11
275.0
 21
-71.18297
 31
-10.0
  0
ARC
  8
1
  5
20F
  6
CONTINUOUS
 62
7
 10
270.9
 20
-71.182973
 30
-10.0
 40
4.1
 50
0.0
 51
104.9999861111
  0
LINE
  8
1
  5
211
  6
CONTINUOUS
 62
7
 10
269.83884
 20
-67.22268
 30
0.0
 11
269.83884
 21
-67.22268
 31
-10.0
  0
LINE
  8
1
  5
213
  6
CONTINUOUS
 62
7
 10
269.83884
 20
-67.22268
 30
-10.0
 11
241.06115
 21
-74.93363
 31
-10.0
  0
LINE
  8
1
  5
215
  6
CONTINUOUS
 62
7
 10
240.0
 20
-89.92666
 30
-10.0
 11
240.0
 21
-75.07334
 31
-10.0
  0
ENDBLK
  8
1
  5
216
  0
BLOCK
  8
1
  5
218
 70
1
 10
0.0
 20
0.0
 30
0.0
  2
*M12
  3
*M12
  0
ARC
  8
1
  5
21A
  6
CONTINUOUS
 62
7
 10
240.0
 20
-125.971678
 30
0.0
 40
4.1
 50
270.0000003861
 51
285.0000003861
  0
LINE
  8
1
  5
21C
  6
CONTINUOUS
 62
7
 10
241.06116
 20
-129.93197
 30
0.0
 11
259.83884
 21
-124.90051
 31
0.0
  0
ARC
  8
1
  5
21E
  6
CONTINUOUS
 62
7
 210
0.0
 220
0.0
 230
-1.0
 10
-260.9
 20
-128.860804
 30
0.0
 40
4.1
 50
75.0000083333
 51
180.0
  0
LINE
  8
1
  5
220
  6
CONTINUOUS
 62
7
 10
265.0
 20
-128.8608
 30
0.0
 11
265.0
 21
-146.13588
 31
0.0
  0
ARC
  8
1
  5
222
  6
CONTINUOUS
 62
7
 210
0.0
 220
0.0
 230
-1.0
 10
-260.9
 20
-146.135875
 30
0.0
 40
4.1
 50
180.0000005404
 51
284.9999977627
  0
LINE
  8
1
  5
224
  6
CONTINUOUS
 62
7
 10
259.83884
 20
-150.09617
 30
0.0
 11
241.06117
 21
-145.06471
 31
0.0
  0
ARC
  8
1
  5
226
  6
CONTINUOUS
 62
7
 10
240.00001
 20
-149.025002
 30
0.0
 40
4.1
 50
74.9999932675
 51
90.0001321564
  0
LINE
  8
1
  5
228
  6
CONTINUOUS
 62
7
 10
240.0
 20
-130.07168
 30
-10.0
 11
240.0
 21
-130.07168
 31
0.0
  0
ARC
  8
1
  5
22A
  6
CONTINUOUS
 62
7
 210
0.0
 220
0.0
 230
-1.0
 10
-240.0
 20
-125.971678
 30
10.0
 40
4.1
 50
254.9999996139
 51
269.9999996139
  0
LINE
  8
1
  5
22C
  6
CONTINUOUS
 62
7
 10
241.06116
 20
-129.93197
 30
0.0
 11
241.06116
 21
-129.93197
 31
-10.0
  0
ARC
  8
1
  5
22E
  6
CONTINUOUS
 62
7
 10
260.9
 20
-128.860804
 30
-10.0
 40
4.1
 50
0.0
 51
104.9999916667
  0
LINE
  8
1
  5
230
  6
CONTINUOUS
 62
7
 10
265.0
 20
-128.8608
 30
0.0
 11
265.0
 21
-128.8608
 31
-10.0
  0
LINE
  8
1
  5
232
  6
CONTINUOUS
 62
7
 10
259.83884
 20
-124.90051
 30
0.0
 11
259.83884
 21
-124.90051
 31
-10.0
  0
LINE
  8
1
  5
234
  6
CONTINUOUS
 62
7
 10
259.83884
 20
-124.90051
 30
-10.0
 11
241.06116
 21
-129.93197
 31
-10.0
  0
LINE
  8
1
  5
236
  6
CONTINUOUS
 62
7
 10
240.0
 20
-144.925
 30
0.0
 11
240.0
 21
-144.925
 31
-10.0
  0
LINE
  8
1
  5
238
  6
CONTINUOUS
 62
7
 10
241.06117
 20
-145.06471
 30
0.0
 11
241.06117
 21
-145.06471
 31
-10.0
  0
ARC
  8
1
  5
23A
  6
CONTINUOUS
 62
7
 210
0.0
 220
0.0
 230
-1.0
 10
-240.00001
 20
-149.025002
 30
10.0
 40
4.1
 50
89.9998678436
 51
105.0000067325
  0
LINE
  8
1
  5
23C
  6
CONTINUOUS
 62
7
 10
241.06117
 20
-145.06471
 30
-10.0
 11
259.83884
 21
-150.09617
 31
-10.0
  0
LINE
  8
1
  5
23E
  6
CONTINUOUS
 62
7
 10
259.83884
 20
-150.09617
 30
0.0
 11
259.83884
 21
-150.09617
 31
-10.0
  0
ARC
  8
1
  5
240
  6
CONTINUOUS
 62
7
 10
260.9
 20
-146.135875
 30
-10.0
 40
4.1
 50
255.0000022373
 51
359.9999994596
  0
LINE
  8
1
  5
242
  6
CONTINUOUS
 62
7
 10
265.0
 20
-146.13588
 30
0.0
 11
265.0
 21
-146.13588
 31
-10.0
  0
LINE
  8
1
  5
244
  6
CONTINUOUS
 62
7
 10
265.0
 20
-146.13588
 30
-10.0
 11
265.0
 21
-128.8608
 31
-10.0
  0
LINE
  8
1
  5
246
  6
CONTINUOUS
 62
7
 10
240.0
 20
-144.925
 30
-10.0
 11
240.0
 21
-130.07168
 31
-10.0
  0
ENDBLK
  8
1
  5
247
  0
BLOCK
  8
1
  5
249
 70
1
 10
0.0
 20
0.0
 30
0.0
  2
*M13
  3
*M13
  0
LINE
  8
1
  5
24B
  6
CONTINUOUS
 62
7
 10
240.0
 20
-34.92832
 30
0.0
 11
240.0
 21
-75.07334
 31
0.0
  0
LINE
  8
1
  5
24D
  6
CONTINUOUS
 62
7
 10
240.0
 20
-89.92666
 30
0.0
 11
240.0
 21
-130.07168
 31
0.0
  0
LINE
  8
1
  5
24F
  6
CONTINUOUS
 62
7
 10
240.0
 20
-144.925
 30
0.0
 11
240.0
 21
-165.0
 31
0.0
  0
LINE
  8
1
  5
251
  6
CONTINUOUS
 62
7
 10
240.0
 20
-165.0
 30
0.0
 11
480.0
 21
-165.0
 31
0.0
  0
LINE
  8
1
  5
253
  6
CONTINUOUS
 62
7
 10
480.0
 20
-165.0
 30
0.0
 11
480.0
 21
0.0
 31
0.0
  0
LINE
  8
1
  5
255
  6
CONTINUOUS
 62
7
 10
480.0
 20
0.0
 30
0.0
 11
240.0
 21
0.0
 31
0.0
  0
LINE
  8
1
  5
257
  6
CONTINUOUS
 62
7
 10
240.0
 20
0.0
 30
0.0
 11
240.0
 21
-20.075
 31
0.0
  0
LINE
  8
1
  5
259
  6
CONTINUOUS
 62
7
 10
480.0
 20
-165.0
 30
-15.0
 11
480.0
 21
0.0
 31
-15.0
  0
LINE
  8
1
  5
25B
  6
CONTINUOUS
 62
7
 10
480.0
 20
0.0
 30
0.0
 11
480.0
 21
0.0
 31
-15.0
  0
LINE
  8
1
  5
25D
  6
CONTINUOUS
 62
7
 10
480.0
 20
-165.0
 30
0.0
 11
480.0
 21
-165.0
 31
-15.0
  0
LINE
  8
1
  5
25F
  6
CONTINUOUS
 62
7
 10
480.0
 20
0.0
 30
-15.0
 11
240.0
 21
0.0
 31
-15.0
  0
LINE
  8
1
  5
261
  6
CONTINUOUS
 62
7
 10
240.0
 20
0.0
 30
0.0
 11
240.0
 21
0.0
 31
-15.0
  0
LINE
  8
1
  5
263
  6
CONTINUOUS
 62
7
 10
240.0
 20
0.0
 30
-15.0
 11
240.0
 21
-165.0
 31
-15.0
  0
LINE
  8
1
  5
265
  6
CONTINUOUS
 62
7
 10
240.0
 20
-165.0
 30
0.0
 11
240.0
 21
-165.0
 31
-15.0
  0
LINE
  8
1
  5
267
  6
CONTINUOUS
 62
7
 10
240.0
 20
-165.0
 30
-15.0
 11
480.0
 21
-165.0
 31
-15.0
  0
ENDBLK
  8
1
  5
268
  0
BLOCK
  8
1
  5
26A
 70
1
 10
0.0
 20
0.0
 30
0.0
  2
*M14
  3
*M14
  0
INSERT
  8
1
  5
26C
  6
CONTINUOUS
 62
7
  2
*M12
 10
0.0
 20
0.0
 30
0.0
 41
1.0
 42
1.0
 43
1.0
 70
1
 71
1
  0
INSERT
  8
1
  5
26E
  6
CONTINUOUS
 62
7
  2
*M13
 10
0.0
 20
0.0
 30
0.0
 41
1.0
 42
1.0
 43
1.0
 70
1
 71
1
  0
ENDBLK
  8
1
  5
26F
  0
BLOCK
  8
1
  5
271
 70
1
 10
0.0
 20
0.0
 30
0.0
  2
*M15
  3
*M15
  0
INSERT
  8
1
  5
273
  6
CONTINUOUS
 62
7
  2
*M11
 10
0.0
 20
0.0
 30
0.0
 41
1.0
 42
1.0
 43
1.0
 70
1
 71
1
  0
INSERT
  8
1
  5
275
  6
CONTINUOUS
 62
7
  2
*M14
 10
0.0
 20
0.0
 30
0.0
 41
1.0
 42
1.0
 43
1.0
 70
1
 71
1
  0
ENDBLK
  8
1
  5
276
  0
BLOCK
  8
1
  5
278
 70
1
 10
0.0
 20
0.0
 30
0.0
  2
*M16
  3
*M16
  0
INSERT
  8
1
  5
27A
  6
CONTINUOUS
 62
7
  2
*M10
 10
0.0
 20
0.0
 30
0.0
 41
1.0
 42
1.0
 43
1.0
 70
1
 71
1
  0
INSERT
  8
1
  5
27C
  6
CONTINUOUS
 62
7
  2
*M15
 10
0.0
 20
0.0
 30
0.0
 41
1.0
 42
1.0
 43
1.0
 70
1
 71
1
  0
ENDBLK
  8
1
  5
27D
  0
ENDSEC
  0
SECTION
  2
ENTITIES
  0
INSERT
  8
1
  5
2
  6
CONTINUOUS
 62
7
  2
*M0
 10
50.0
 20
202.77566
 30
-5.0
 41
1.0
 42
1.0
 43
1.0
 70
1
 71
1
  0
INSERT
  8
1
  5
4
  6
CONTINUOUS
 62
7
  2
*M1
 10
50.0
 20
202.77566
 30
-5.0
 41
1.0
 42
1.0
 43
1.0
 70
1
 71
1
  0
INSERT
  8
1
  5
6
  6
CONTINUOUS
 62
7
  2
*M2
 10
50.0
 20
202.77566
 30
-5.0
 41
1.0
 42
1.0
 43
1.0
 70
1
 71
1
  0
INSERT
  8
1
  5
8
  6
CONTINUOUS
 62
7
  2
*M9
 10
0.0
 20
0.0
 30
0.0
 41
1.0
 42
1.0
 43
1.0
 70
1
 71
1
  0
INSERT
  8
1
  5
A
  6
CONTINUOUS
 62
7
  2
*M16
 10
50.0
 20
0.0
 30
0.0
 41
1.0
 42
1.0
 43
1.0
 70
1
 71
1
  0
ENDSEC
  0
EOF
