  0
SECTION
  2
HEADER
  9
$ACADVER
  1
AC1009
  9
$INSBASE
 10
0.0
 20
0.0
 30
0.0
  9
$EXTMAX
 10
31.54029
 20
128.66374
 30
32.0
  9
$EXTMIN
 10
-193.81505
 20
-96.6916
 30
0.0
  9
$LIMMAX
 10
12.0
 20
9.0
  9
$LIMMIN
 10
0.0
 20
0.0
  9
$ORTHOMODE
 70
0
  9
$REGENMODE
 70
1
  9
$FILLMODE
 70
1
  9
$QTEXTMODE
 70
0
  9
$MIRRTEXT
 70
1
  9
$DRAGMODE
 70
2
  9
$LTSCALE
 40
1.0
  9
$OSMODE
 70
0
  9
$ATTMODE
 70
1
  9
$TEXTSIZE
 40
0.2
  9
$TRACEWID
 40
0.05
  9
$TEXTSTYLE
  7
STANDARD
  9
$CLAYER
  8
0
  9
$CELTYPE
  6
CONTINUOUS
  9
$CECOLOR
 62
256
  9
$DIMSCALE
 40
1.0
  9
$DIMASZ
 40
0.18
  9
$DIMEXO
 40
0.0625
  9
$DIMDLI
 40
0.38
  9
$DIMRND
 40
0.0
  9
$DIMDLE
 40
0.0
  9
$DIMEXE
 40
0.18
  9
$DIMTP
 40
0.0
  9
$DIMTM
 40
0.0
  9
$DIMTXT
 40
0.18
  9
$DIMCEN
 40
0.09
  9
$DIMTSZ
 40
0.0
  9
$DIMTOL
 70
0
  9
$DIMLIM
 70
0
  9
$DIMTIH
 70
1
  9
$DIMTOH
 70
1
  9
$DIMSE1
 70
0
  9
$DIMSE2
 70
0
  9
$DIMTAD
 70
0
  9
$DIMZIN
 70
0
  9
$DIMBLK
  1

  9
$DIMASO
 70
1
  9
$DIMSHO
 70
1
  9
$DIMPOST
  1

  9
$DIMAPOST
  1

  9
$DIMALT
 70
0
  9
$DIMALTD
 70
2
  9
$DIMALTF
 40
25.4
  9
$DIMLFAC
 40
1.0
  9
$DIMTOFL
 70
0
  9
$DIMTVP
 40
0.0
  9
$DIMTIX
 70
0
  9
$DIMSOXD
 70
0
  9
$DIMSAH
 70
0
  9
$DIMBLK1
  1

  9
$DIMBLK2
  1

  9
$DIMSTYLE
  2
*UNNAMED
  9
$DIMCLRD
 70
0
  9
$DIMCLRE
 70
0
  9
$DIMCLRT
 70
0
  9
$DIMTFAC
 40
1.0
  9
$DIMGAP
 40
0.09
  9
$LUNITS
 70
2
  9
$LUPREC
 70
4
  9
$AXISMODE
 70
0
  9
$AXISUNIT
 10
0.0
 20
0.0
  9
$SKETCHINC
 40
0.1
  9
$FILLETRAD
 40
0.0
  9
$AUNITS
 70
0
  9
$AUPREC
 70
0
  9
$MENU
  1
acad
  9
$ELEVATION
 40
0.0
  9
$PELEVATION
 40
0.0
  9
$THICKNESS
 40
0.0
  9
$LIMCHECK
 70
0
  9
$BLIPMODE
 70
1
  9
$CHAMFERA
 40
0.0
  9
$CHAMFERB
 40
0.0
  9
$SKPOLY
 70
0
  9
$TDCREATE
 40
0.0
  9
$TDUPDATE
 40
0.0
  9
$TDINDWG
 40
0.0
  9
$TDUSRTIMER
 40
0.0
  9
$USRTIMER
 70
1
  9
$ANGBASE
 50
0.0
  9
$ANGDIR
 70
0
  9
$PDMODE
 70
0
  9
$PDSIZE
 40
0.0
  9
$PLINEWID
 40
0.0
  9
$COORDS
 70
0
  9
$SPLFRAME
 70
0
  9
$SPLINETYPE
 70
6
  9
$SPLINESEGS
 70
10
  9
$ATTDIA
 70
0
  9
$ATTREQ
 70
1
  9
$HANDLING
 70
1
  9
$HANDSEED
  5
FD
  9
$SURFTAB1
 70
6
  9
$SURFTAB2
 70
6
  9
$SURFTYPE
 70
6
  9
$SURFU
 70
10
  9
$SURFV
 70
10
  9
$UCSNAME
  2

  9
$UCSORG
 10
0.0
 20
0.0
 30
0.0
  9
$UCSXDIR
 10
1.0
 20
0.0
 30
0.0
  9
$UCSYDIR
 10
0.0
 20
1.0
 30
0.0
  9
$PUCSNAME
  2
 
  9
$PUCSORG
 10
0.0
 20
0.0
 30
0.0
  9
$PUCSXDIR
 10
1.0
 20
0.0
 30
0.0
  9
$PUCSYDIR
 10
0.0
 20
1.0
 30
0.0
  9
$USERI1
 70
0
  9
$USERI2
 70
0
  9
$USERI3
 70
0
  9
$USERI4
 70
0
  9
$USERI5
 70
0
  9
$USERR1
 40
0.0
  9
$USERR2
 40
0.0
  9
$USERR3
 40
0.0
  9
$USERR4
 40
0.0
  9
$USERR5
 40
0.0
  9
$WORLDVIEW
 70
1
  9
$SHADEDGE
 70
3
  9
$SHADEDIF
 70
70
  9
$TILEMODE
 70
1
  9
$MAXACTVP
 70
16
  9
$PINSBASE
 10
0.0
 20
0.0
 30
0.0
  9
$PLIMCHECK
 70
0
  9
$PEXTMIN
 10
-1.000000E+020
 20
-1.000000E+020
 30
-1.000000E+020
  9
$PEXTMAX
 10
-1.000000E+020
 20
-1.000000E+020
 30
-1.000000E+020
  9
$PLIMMIN
 10
0.0
 20
0.0
  9
$PLIMMAX
 10
12.0
 20
9.0
  9
$UNITMODE
 70
0
  9
$VISRETAIN
 70
0
  0
ENDSEC
  0
SECTION
  2
TABLES
  0
TABLE
  2
LTYPE
 70
7
  0
LTYPE
  2
CONTINUOUS
 70
64
  3
Solid line
 72
65
 73
0
 40
0.0
  0
LTYPE
  2
DOT
 70
64
  3
. . . . . . . . . . . . . . . . . . . . . . . . . . . . . . . . .
 72
65
 73
2
 40
0.25
 49
0.0
 49
-0.25
  0
LTYPE
  2
HIDDEN
 70
64
  3
__ __ __ __ __ __ __ __ __ __ __ __ __ __ __ __ __ __ __ __ __ 
 72
65
 73
2
 40
0.375
 49
0.25
 49
-0.125
  0
LTYPE
  2
DASHED
 70
64
  3
__ __ __ __ __ __ __ __ __ __ __ __ __ __ __ __ __ __ __ __ __
 72
65
 73
2
 40
0.75
 49
0.5
 49
-0.25
  0
LTYPE
  2
DASHDOT
 70
64
  3
__ . __ . __ . __ . __ . __ . __ . __ . __ . __ . __ . __ . _
 72
65
 73
4
 40
1.0
 49
0.5
 49
-0.25
 49
0.0
 49
-0.25
  0
LTYPE
  2
DIVIDE
 70
64
  3
____ . . ____ . . ____ . . ____ . . ____ . . ____ . . ____ . .
 72
65
 73
6
 40
1.25
 49
0.5
 49
-0.25
 49
0.0
 49
-0.25
 49
0.0
 49
-0.25
  0
LTYPE
  2
CENTER
 70
64
  3
____ _ ____ _ ____ _ ____ _ ____ _ ____ _ ____ _ ____ _ ____ _
 72
65
 73
4
 40
2.0
 49
1.25
 49
-0.25
 49
0.25
 49
-0.25
  0
ENDTAB
  0
TABLE
  2
APPID
 70
1
  0
APPID
  2
ACAD
 70
0
  0
ENDTAB
  0
TABLE
  2
DIMSTYLE
 70
0
  0
ENDTAB
  0
TABLE
  2
LAYER
 70
4
  0
LAYER
  2
0
 70
0
 62
7
  6
CONTINUOUS
  0
LAYER
  2
CONSTRUCTION_CLASS
 70
0
 62
7
  6
CONTINUOUS
  0
LAYER
  2
PATTERN_CLASS
 70
0
 62
7
  6
CONTINUOUS
  0
LAYER
  2
1
 70
0
 62
7
  6
CONTINUOUS
  0
ENDTAB
  0
TABLE
  2
STYLE
 70
1
  0
STYLE
  2
STANDARD
 70
0
 40
0.2
 41
1.0
 50
0.0
 71
0
 42
0.0
  3
txt
  4

  0
ENDTAB
  0
TABLE
  2
UCS
 70
0
  0
ENDTAB
  0
TABLE
  2
VIEW
 70
2
  0
VIEW
  2
AN_4
 70
0
 40
184.08589
 41
266.94694
 10
5.684342E-014
 20
4.263256E-014
 11
697.367456
 21
519.007202
 31
329.68983
 12
84.289249
 22
-71.590615
 32
36.906
 42
50.0
 43
464.8616
 44
-464.8616
 50
0.0
 71
0
  0
VIEW
  2
AN_5
 70
0
 40
188.27417
 41
272.91749
 10
0.0
 20
0.0
 11
135.559768
 21
77.131668
 31
99.909923
 12
24.854418
 22
-146.513275
 32
22.871679
 42
50.0
 43
92.61174
 44
-92.61174
 50
0.0
 71
0
  0
ENDTAB
  0
TABLE
  2
VPORT
 70
4
  0
VPORT
  2
*ACTIVE
 70
0
 10
0.500821
 20
0.50171
 11
0.998358
 21
0.997719
 12
0.0
 22
0.0
 13
0.0
 23
0.0
 14
0.0
 24
0.0
 15
0.0
 25
0.0
 16
0.0
 26
-2.586533E-015
 36
42.24268
 17
-95.599751
 27
15.98607
 37
16.0
 40
230.98922
 41
1.393103
 42
50.0
 43
21.12134
 44
-21.12134
 50
0.0
 51
0.0
 71
22
 72
100
 73
1
 74
0
 75
0
 76
0
 77
0
 78
0
  0
VPORT
  2
*ACTIVE
 70
0
 10
0.001642
 20
0.50171
 11
0.499179
 21
0.997719
 12
-5.684342E-014
 22
0.0
 13
0.0
 23
0.0
 14
0.0
 24
0.0
 15
0.0
 25
0.0
 16
-166.417636
 26
-166.417636
 36
166.417636
 17
-125.672889
 27
60.521585
 37
15.999999
 40
215.383
 41
1.393103
 42
50.0
 43
144.1219
 44
-144.1219
 50
0.0
 51
0.0
 71
22
 72
100
 73
1
 74
0
 75
0
 76
0
 77
0
 78
0
  0
VPORT
  2
*ACTIVE
 70
0
 10
0.001642
 20
0.003421
 11
0.499179
 21
0.49943
 12
0.0
 22
0.0
 13
0.0
 23
0.0
 14
0.0
 24
0.0
 15
0.0
 25
0.0
 16
0.0
 26
-232.10138
 36
0.0
 17
-90.662595
 27
15.98607
 37
16.0
 40
152.13428
 41
1.393103
 42
50.0
 43
116.05069
 44
-116.05069
 50
0.0
 51
0.0
 71
22
 72
100
 73
1
 74
0
 75
0
 76
0
 77
0
 78
0
  0
VPORT
  2
*ACTIVE
 70
0
 10
0.500821
 20
0.003421
 11
0.998358
 21
0.49943
 12
0.0
 22
0.0
 13
0.0
 23
0.0
 14
0.0
 24
0.0
 15
0.0
 25
0.0
 16
232.10138
 26
0.0
 36
0.0
 17
-81.13738
 27
6.460855
 37
16.0
 40
152.13428
 41
1.393103
 42
50.0
 43
116.05069
 44
-116.05069
 50
0.0
 51
0.0
 71
22
 72
100
 73
1
 74
0
 75
0
 76
0
 77
0
 78
0
  0
ENDTAB
  0
ENDSEC
  0
SECTION
  2
BLOCKS
  0
BLOCK
  8
1
  5
8
 70
1
 10
0.0
 20
0.0
 30
0.0
  2
*M0
  3
*M0
  0
LINE
  8
1
  5
A
  6
CONTINUOUS
 62
7
 10
-78.00353
 20
31.00493
 30
16.0
 11
-68.83278
 21
46.88914
 31
16.0
  0
LINE
  8
1
  5
C
  6
CONTINUOUS
 62
7
 10
-68.83278
 20
46.88914
 30
0.0
 11
-68.83278
 21
46.88914
 31
16.0
  0
LINE
  8
1
  5
E
  6
CONTINUOUS
 62
7
 10
-78.00353
 20
31.00493
 30
0.0
 11
-68.83278
 21
46.88914
 31
0.0
  0
LINE
  8
1
  5
10
  6
CONTINUOUS
 62
7
 10
-78.00353
 20
31.00493
 30
0.0
 11
-78.00353
 21
31.00493
 31
16.0
  0
ARC
  8
1
  5
12
  6
CONTINUOUS
 62
7
 210
0.0
 220
0.0
 230
-1.0
 10
65.282073
 20
44.839137
 30
-16.0
 40
4.1
 50
29.9999888907
 51
135.0000000018
  0
LINE
  8
1
  5
14
  6
CONTINUOUS
 62
7
 10
-62.38294
 20
47.73827
 30
0.0
 11
-62.38294
 21
47.73827
 31
16.0
  0
ARC
  8
1
  5
16
  6
CONTINUOUS
 62
7
 210
0.0
 220
0.0
 230
-1.0
 10
65.282073
 20
44.839137
 30
0.0
 40
4.1
 50
29.9999888907
 51
135.0000000018
  0
LINE
  8
1
  5
18
  6
CONTINUOUS
 62
7
 10
-62.38294
 20
47.73827
 30
16.0
 11
-52.26173
 21
37.61706
 31
16.0
  0
LINE
  8
1
  5
1A
  6
CONTINUOUS
 62
7
 10
-52.26173
 20
37.61706
 30
0.0
 11
-52.26173
 21
37.61706
 31
16.0
  0
LINE
  8
1
  5
1C
  6
CONTINUOUS
 62
7
 10
-62.38294
 20
47.73827
 30
0.0
 11
-52.26173
 21
37.61706
 31
0.0
  0
ARC
  8
1
  5
1E
  6
CONTINUOUS
 62
7
 210
0.0
 220
0.0
 230
-1.0
 10
55.160863
 20
34.717927
 30
-16.0
 40
4.1
 50
135.0000000018
 51
240.000011113
  0
LINE
  8
1
  5
20
  6
CONTINUOUS
 62
7
 10
-53.11086
 20
31.16722
 30
0.0
 11
-53.11086
 21
31.16722
 31
16.0
  0
ARC
  8
1
  5
22
  6
CONTINUOUS
 62
7
 210
0.0
 220
0.0
 230
-1.0
 10
55.160863
 20
34.717927
 30
0.0
 40
4.1
 50
135.0000000018
 51
240.000011113
  0
LINE
  8
1
  5
24
  6
CONTINUOUS
 62
7
 10
-53.11086
 20
31.16722
 30
16.0
 11
-68.99507
 21
21.99647
 31
16.0
  0
LINE
  8
1
  5
26
  6
CONTINUOUS
 62
7
 10
-68.99507
 20
21.99647
 30
0.0
 11
-68.99507
 21
21.99647
 31
16.0
  0
LINE
  8
1
  5
28
  6
CONTINUOUS
 62
7
 10
-53.11086
 20
31.16722
 30
0.0
 11
-68.99507
 21
21.99647
 31
0.0
  0
ARC
  8
1
  5
2A
  6
CONTINUOUS
 62
7
 10
-64.895066
 20
14.895066
 30
16.0
 40
8.2
 50
119.9999999982
 51
149.9999999982
  0
LINE
  8
1
  5
2C
  6
CONTINUOUS
 62
7
 10
-71.99647
 20
18.99507
 30
0.0
 11
-71.99647
 21
18.99507
 31
16.0
  0
ARC
  8
1
  5
2E
  6
CONTINUOUS
 62
7
 10
-64.895066
 20
14.895066
 30
0.0
 40
8.2
 50
119.9999999982
 51
149.9999999982
  0
LINE
  8
1
  5
30
  6
CONTINUOUS
 62
7
 10
-71.99647
 20
18.99507
 30
16.0
 11
-81.16722
 21
3.11086
 31
16.0
  0
LINE
  8
1
  5
32
  6
CONTINUOUS
 62
7
 10
-81.16722
 20
3.11086
 30
0.0
 11
-81.16722
 21
3.11086
 31
16.0
  0
LINE
  8
1
  5
34
  6
CONTINUOUS
 62
7
 10
-71.99647
 20
18.99507
 30
0.0
 11
-81.16722
 21
3.11086
 31
0.0
  0
ARC
  8
1
  5
36
  6
CONTINUOUS
 62
7
 210
0.0
 220
0.0
 230
-1.0
 10
84.717927
 20
5.160863
 30
-16.0
 40
4.1
 50
209.9999888907
 51
315.0000000018
  0
LINE
  8
1
  5
38
  6
CONTINUOUS
 62
7
 10
-87.61706
 20
2.26173
 30
0.0
 11
-87.61706
 21
2.26173
 31
16.0
  0
ARC
  8
1
  5
3A
  6
CONTINUOUS
 62
7
 210
0.0
 220
0.0
 230
-1.0
 10
84.717927
 20
5.160863
 30
9.313226E-015
 40
4.1
 50
209.9999888907
 51
315.0000000018
  0
LINE
  8
1
  5
3C
  6
CONTINUOUS
 62
7
 10
-87.61706
 20
2.26173
 30
16.0
 11
-97.73827
 21
12.38294
 31
16.0
  0
LINE
  8
1
  5
3E
  6
CONTINUOUS
 62
7
 10
-97.73827
 20
12.38294
 30
0.0
 11
-97.73827
 21
12.38294
 31
16.0
  0
LINE
  8
1
  5
40
  6
CONTINUOUS
 62
7
 10
-87.61706
 20
2.26173
 30
0.0
 11
-97.73827
 21
12.38294
 31
0.0
  0
ARC
  8
1
  5
42
  6
CONTINUOUS
 62
7
 210
0.0
 220
0.0
 230
-1.0
 10
94.839137
 20
15.282073
 30
-16.0
 40
4.1
 50
315.0000000018
 51
60.000011113
  0
LINE
  8
1
  5
44
  6
CONTINUOUS
 62
7
 10
-96.88914
 20
18.83278
 30
0.0
 11
-96.88914
 21
18.83278
 31
16.0
  0
ARC
  8
1
  5
46
  6
CONTINUOUS
 62
7
 210
0.0
 220
0.0
 230
-1.0
 10
94.839137
 20
15.282073
 30
9.313226E-015
 40
4.1
 50
315.0000000018
 51
60.000011113
  0
LINE
  8
1
  5
48
  6
CONTINUOUS
 62
7
 10
-96.88914
 20
18.83278
 30
16.0
 11
-81.00493
 21
28.00353
 31
16.0
  0
LINE
  8
1
  5
4A
  6
CONTINUOUS
 62
7
 10
-81.00493
 20
28.00353
 30
0.0
 11
-81.00493
 21
28.00353
 31
16.0
  0
LINE
  8
1
  5
4C
  6
CONTINUOUS
 62
7
 10
-96.88914
 20
18.83278
 30
0.0
 11
-81.00493
 21
28.00353
 31
0.0
  0
ARC
  8
1
  5
4E
  6
CONTINUOUS
 62
7
 10
-85.104934
 20
35.104934
 30
16.0
 40
8.2
 50
299.9999999982
 51
329.9999999982
  0
ARC
  8
1
  5
50
  6
CONTINUOUS
 62
7
 10
-85.104934
 20
35.104934
 30
-9.313226E-015
 40
8.2
 50
299.9999999982
 51
329.9999999982
  0
ENDBLK
  8
1
  5
51
  0
BLOCK
  8
1
  5
53
 70
1
 10
0.0
 20
0.0
 30
0.0
  2
*M1
  3
*M1
  0
LINE
  8
1
  5
55
  6
CONTINUOUS
 62
7
 10
-70.69334
 20
20.69335
 30
16.0
 11
-70.69334
 21
20.69335
 31
0.0
  0
ARC
  8
1
  5
57
  6
CONTINUOUS
 62
7
 10
-64.895066
 20
14.895066
 30
16.0
 40
8.2
 50
119.9999999982
 51
134.9999499982
  0
LINE
  8
1
  5
59
  6
CONTINUOUS
 62
7
 10
-68.99507
 20
21.99647
 30
0.0
 11
-68.99507
 21
21.99647
 31
16.0
  0
ARC
  8
1
  5
5B
  6
CONTINUOUS
 62
7
 10
-64.895066
 20
14.895066
 30
-4.656613E-015
 40
8.2
 50
119.9999999982
 51
134.9999499982
  0
LINE
  8
1
  5
5D
  6
CONTINUOUS
 62
7
 10
-70.69334
 20
20.69335
 30
0.0
 11
-79.30665
 21
29.30666
 31
0.0
  0
LINE
  8
1
  5
5F
  6
CONTINUOUS
 62
7
 10
-53.11086
 20
31.16722
 30
0.0
 11
-68.99507
 21
21.99647
 31
0.0
  0
ARC
  8
1
  5
61
  6
CONTINUOUS
 62
7
 210
0.0
 220
0.0
 230
-1.0
 10
55.160863
 20
34.717927
 30
2.328306E-015
 40
4.1
 50
135.0000000018
 51
240.000011113
  0
LINE
  8
1
  5
63
  6
CONTINUOUS
 62
7
 10
-62.38294
 20
47.73827
 30
0.0
 11
-52.26173
 21
37.61706
 31
0.0
  0
ARC
  8
1
  5
65
  6
CONTINUOUS
 62
7
 210
0.0
 220
0.0
 230
-1.0
 10
65.282073
 20
44.839137
 30
4.656613E-015
 40
4.1
 50
29.9999888907
 51
135.0000000018
  0
LINE
  8
1
  5
67
  6
CONTINUOUS
 62
7
 10
-78.00353
 20
31.00493
 30
0.0
 11
-68.83278
 21
46.88914
 31
0.0
  0
ARC
  8
1
  5
69
  6
CONTINUOUS
 62
7
 10
-85.104934
 20
35.104934
 30
-4.656613E-015
 40
8.2
 50
315.0000499982
 51
329.9999999982
  0
LINE
  8
1
  5
6B
  6
CONTINUOUS
 62
7
 10
-78.00353
 20
31.00493
 30
16.0
 11
-68.83278
 21
46.88914
 31
16.0
  0
LINE
  8
1
  5
6D
  6
CONTINUOUS
 62
7
 10
-78.00353
 20
31.00493
 30
0.0
 11
-78.00353
 21
31.00493
 31
16.0
  0
LINE
  8
1
  5
6F
  6
CONTINUOUS
 62
7
 10
-68.83278
 20
46.88914
 30
0.0
 11
-68.83278
 21
46.88914
 31
16.0
  0
ARC
  8
1
  5
71
  6
CONTINUOUS
 62
7
 210
0.0
 220
0.0
 230
-1.0
 10
65.282073
 20
44.839137
 30
-16.0
 40
4.1
 50
29.9999888907
 51
135.0000000018
  0
LINE
  8
1
  5
73
  6
CONTINUOUS
 62
7
 10
-62.38294
 20
47.73827
 30
0.0
 11
-62.38294
 21
47.73827
 31
16.0
  0
LINE
  8
1
  5
75
  6
CONTINUOUS
 62
7
 10
-62.38294
 20
47.73827
 30
16.0
 11
-52.26173
 21
37.61706
 31
16.0
  0
LINE
  8
1
  5
77
  6
CONTINUOUS
 62
7
 10
-52.26173
 20
37.61706
 30
0.0
 11
-52.26173
 21
37.61706
 31
16.0
  0
ARC
  8
1
  5
79
  6
CONTINUOUS
 62
7
 210
0.0
 220
0.0
 230
-1.0
 10
55.160863
 20
34.717927
 30
-16.0
 40
4.1
 50
135.0000000018
 51
240.000011113
  0
LINE
  8
1
  5
7B
  6
CONTINUOUS
 62
7
 10
-53.11086
 20
31.16722
 30
0.0
 11
-53.11086
 21
31.16722
 31
16.0
  0
LINE
  8
1
  5
7D
  6
CONTINUOUS
 62
7
 10
-53.11086
 20
31.16722
 30
16.0
 11
-68.99507
 21
21.99647
 31
16.0
  0
LINE
  8
1
  5
7F
  6
CONTINUOUS
 62
7
 10
-79.30665
 20
29.30666
 30
0.0
 11
-79.30665
 21
29.30666
 31
16.0
  0
ARC
  8
1
  5
81
  6
CONTINUOUS
 62
7
 10
-85.104934
 20
35.104934
 30
16.0
 40
8.2
 50
315.0000499982
 51
329.9999999982
  0
ENDBLK
  8
1
  5
82
  0
BLOCK
  8
1
  5
84
 70
1
 10
0.0
 20
0.0
 30
0.0
  2
*M2
  3
*M2
  0
LINE
  8
1
  5
86
  6
CONTINUOUS
 62
7
 10
-95.68438
 20
45.68439
 30
32.0
 11
-130.0
 21
80.00001
 31
32.0
  0
LINE
  8
1
  5
88
  6
CONTINUOUS
 62
7
 10
-130.0
 20
80.00001
 30
0.0
 11
-130.0
 21
80.00001
 31
32.0
  0
LINE
  8
1
  5
8A
  6
CONTINUOUS
 62
7
 10
-80.0
 20
30.00001
 30
0.0
 11
-130.0
 21
80.00001
 31
0.0
  0
LINE
  8
1
  5
8C
  6
CONTINUOUS
 62
7
 10
-80.0
 20
30.00001
 30
0.0
 11
-80.0
 21
30.00001
 31
32.0
  0
LINE
  8
1
  5
8E
  6
CONTINUOUS
 62
7
 10
-80.0
 20
30.00001
 30
32.0
 11
-87.07107
 21
37.07108
 31
32.0
  0
LINE
  8
1
  5
90
  6
CONTINUOUS
 62
7
 10
60.0
 20
80.00001
 30
32.0
 11
60.0
 21
30.00001
 31
32.0
  0
LINE
  8
1
  5
92
  6
CONTINUOUS
 62
7
 10
60.0
 20
30.00001
 30
0.0
 11
60.0
 21
30.00001
 31
32.0
  0
LINE
  8
1
  5
94
  6
CONTINUOUS
 62
7
 10
60.0
 20
80.00001
 30
0.0
 11
60.0
 21
30.00001
 31
0.0
  0
LINE
  8
1
  5
96
  6
CONTINUOUS
 62
7
 10
60.0
 20
80.00001
 30
0.0
 11
60.0
 21
80.00001
 31
32.0
  0
LINE
  8
1
  5
98
  6
CONTINUOUS
 62
7
 10
60.0
 20
30.00001
 30
32.0
 11
-80.0
 21
30.00001
 31
32.0
  0
LINE
  8
1
  5
9A
  6
CONTINUOUS
 62
7
 10
60.0
 20
30.00001
 30
0.0
 11
-80.0
 21
30.00001
 31
0.0
  0
LINE
  8
1
  5
9C
  6
CONTINUOUS
 62
7
 10
-130.0
 20
80.00001
 30
32.0
 11
60.0
 21
80.00001
 31
32.0
  0
LINE
  8
1
  5
9E
  6
CONTINUOUS
 62
7
 10
-130.0
 20
80.00001
 30
0.0
 11
60.0
 21
80.00001
 31
0.0
  0
ENDBLK
  8
1
  5
9F
  0
BLOCK
  8
1
  5
A1
 70
1
 10
0.0
 20
0.0
 30
0.0
  2
*M3
  3
*M3
  0
INSERT
  8
1
  5
A3
  6
CONTINUOUS
 62
7
  2
*M1
 10
-16.37773
 20
16.37773
 30
16.0
 41
1.0
 42
1.0
 43
1.0
 70
1
 71
1
  0
INSERT
  8
1
  5
A5
  6
CONTINUOUS
 62
7
  2
*M2
 10
0.0
 20
0.0
 30
0.0
 41
1.0
 42
1.0
 43
1.0
 70
1
 71
1
  0
ENDBLK
  8
1
  5
A6
  0
BLOCK
  8
1
  5
A8
 70
1
 10
0.0
 20
0.0
 30
0.0
  2
*M4
  3
*M4
  0
LINE
  8
1
  5
AA
  6
CONTINUOUS
 62
7
 10
-70.69334
 20
20.69334
 30
0.0
 11
-70.69334
 21
20.69334
 31
16.0
  0
ARC
  8
1
  5
AC
  6
CONTINUOUS
 62
7
 10
-64.895066
 20
14.895066
 30
-2.328306E-015
 40
8.2
 50
134.9999999982
 51
149.9999999982
  0
LINE
  8
1
  5
AE
  6
CONTINUOUS
 62
7
 10
-71.99647
 20
18.99507
 30
0.0
 11
-71.99647
 21
18.99507
 31
16.0
  0
ARC
  8
1
  5
B0
  6
CONTINUOUS
 62
7
 10
-64.895066
 20
14.895066
 30
16.0
 40
8.2
 50
134.9999999982
 51
149.9999999982
  0
LINE
  8
1
  5
B2
  6
CONTINUOUS
 62
7
 10
-71.99647
 20
18.99507
 30
16.0
 11
-81.16722
 21
3.11086
 31
16.0
  0
LINE
  8
1
  5
B4
  6
CONTINUOUS
 62
7
 10
-71.99647
 20
18.99507
 30
0.0
 11
-81.16722
 21
3.11086
 31
0.0
  0
LINE
  8
1
  5
B6
  6
CONTINUOUS
 62
7
 10
-81.16722
 20
3.11086
 30
0.0
 11
-81.16722
 21
3.11086
 31
16.0
  0
ARC
  8
1
  5
B8
  6
CONTINUOUS
 62
7
 210
0.0
 220
0.0
 230
-1.0
 10
84.717927
 20
5.160863
 30
-16.0
 40
4.1
 50
209.9999888907
 51
315.0000000018
  0
ARC
  8
1
  5
BA
  6
CONTINUOUS
 62
7
 210
0.0
 220
0.0
 230
-1.0
 10
84.717927
 20
5.160863
 30
2.328306E-015
 40
4.1
 50
209.9999888907
 51
315.0000000018
  0
LINE
  8
1
  5
BC
  6
CONTINUOUS
 62
7
 10
-87.61706
 20
2.26173
 30
0.0
 11
-87.61706
 21
2.26173
 31
16.0
  0
LINE
  8
1
  5
BE
  6
CONTINUOUS
 62
7
 10
-87.61706
 20
2.26173
 30
16.0
 11
-97.73827
 21
12.38294
 31
16.0
  0
LINE
  8
1
  5
C0
  6
CONTINUOUS
 62
7
 10
-87.61706
 20
2.26173
 30
0.0
 11
-97.73827
 21
12.38294
 31
0.0
  0
LINE
  8
1
  5
C2
  6
CONTINUOUS
 62
7
 10
-97.73827
 20
12.38294
 30
0.0
 11
-97.73827
 21
12.38294
 31
16.0
  0
ARC
  8
1
  5
C4
  6
CONTINUOUS
 62
7
 210
0.0
 220
0.0
 230
-1.0
 10
94.839137
 20
15.282073
 30
-16.0
 40
4.1
 50
315.0000000018
 51
60.000011113
  0
ARC
  8
1
  5
C6
  6
CONTINUOUS
 62
7
 210
0.0
 220
0.0
 230
-1.0
 10
94.839137
 20
15.282073
 30
4.656613E-015
 40
4.1
 50
315.0000000018
 51
60.000011113
  0
LINE
  8
1
  5
C8
  6
CONTINUOUS
 62
7
 10
-96.88914
 20
18.83278
 30
0.0
 11
-96.88914
 21
18.83278
 31
16.0
  0
LINE
  8
1
  5
CA
  6
CONTINUOUS
 62
7
 10
-96.88914
 20
18.83278
 30
16.0
 11
-81.00493
 21
28.00353
 31
16.0
  0
LINE
  8
1
  5
CC
  6
CONTINUOUS
 62
7
 10
-96.88914
 20
18.83278
 30
0.0
 11
-81.00493
 21
28.00353
 31
0.0
  0
LINE
  8
1
  5
CE
  6
CONTINUOUS
 62
7
 10
-81.00493
 20
28.00353
 30
0.0
 11
-81.00493
 21
28.00353
 31
16.0
  0
LINE
  8
1
  5
D0
  6
CONTINUOUS
 62
7
 10
-79.30666
 20
29.30666
 30
16.0
 11
-79.30666
 21
29.30666
 31
0.0
  0
ARC
  8
1
  5
D2
  6
CONTINUOUS
 62
7
 10
-85.104934
 20
35.104934
 30
16.0
 40
8.2
 50
299.9999999982
 51
314.9999999982
  0
ARC
  8
1
  5
D4
  6
CONTINUOUS
 62
7
 10
-85.104934
 20
35.104934
 30
-4.656613E-015
 40
8.2
 50
299.9999999982
 51
314.9999999982
  0
LINE
  8
1
  5
D6
  6
CONTINUOUS
 62
7
 10
-79.30666
 20
29.30666
 30
0.0
 11
-70.69334
 21
20.69334
 31
0.0
  0
ENDBLK
  8
1
  5
D7
  0
BLOCK
  8
1
  5
D9
 70
1
 10
0.0
 20
0.0
 30
0.0
  2
*M5
  3
*M5
  0
LINE
  8
1
  5
DB
  6
CONTINUOUS
 62
7
 10
-130.0
 20
80.0
 30
32.0
 11
-95.68439
 21
45.68439
 31
32.0
  0
LINE
  8
1
  5
DD
  6
CONTINUOUS
 62
7
 10
-130.0
 20
-110.0
 30
32.0
 11
-130.0
 21
80.0
 31
32.0
  0
LINE
  8
1
  5
DF
  6
CONTINUOUS
 62
7
 10
-80.0
 20
-110.0
 30
32.0
 11
-130.0
 21
-110.0
 31
32.0
  0
LINE
  8
1
  5
E1
  6
CONTINUOUS
 62
7
 10
-80.0
 20
30.0
 30
32.0
 11
-80.0
 21
-110.0
 31
32.0
  0
LINE
  8
1
  5
E3
  6
CONTINUOUS
 62
7
 10
-87.07107
 20
37.07107
 30
32.0
 11
-80.0
 21
30.0
 31
32.0
  0
LINE
  8
1
  5
E5
  6
CONTINUOUS
 62
7
 10
-80.0
 20
30.0
 30
0.0
 11
-80.0
 21
30.0
 31
32.0
  0
LINE
  8
1
  5
E7
  6
CONTINUOUS
 62
7
 10
-80.0
 20
30.0
 30
0.0
 11
-130.0
 21
80.0
 31
0.0
  0
LINE
  8
1
  5
E9
  6
CONTINUOUS
 62
7
 10
-130.0
 20
80.0
 30
0.0
 11
-130.0
 21
80.0
 31
32.0
  0
LINE
  8
1
  5
EB
  6
CONTINUOUS
 62
7
 10
-80.0
 20
-110.0
 30
0.0
 11
-80.0
 21
-110.0
 31
32.0
  0
LINE
  8
1
  5
ED
  6
CONTINUOUS
 62
7
 10
-80.0
 20
-110.0
 30
0.0
 11
-80.0
 21
30.0
 31
0.0
  0
LINE
  8
1
  5
EF
  6
CONTINUOUS
 62
7
 10
-130.0
 20
-110.0
 30
0.0
 11
-130.0
 21
-110.0
 31
32.0
  0
LINE
  8
1
  5
F1
  6
CONTINUOUS
 62
7
 10
-130.0
 20
-110.0
 30
0.0
 11
-80.0
 21
-110.0
 31
0.0
  0
LINE
  8
1
  5
F3
  6
CONTINUOUS
 62
7
 10
-130.0
 20
80.0
 30
0.0
 11
-130.0
 21
-110.0
 31
0.0
  0
ENDBLK
  8
1
  5
F4
  0
BLOCK
  8
1
  5
F6
 70
1
 10
0.0
 20
0.0
 30
0.0
  2
*M6
  3
*M6
  0
INSERT
  8
1
  5
F8
  6
CONTINUOUS
 62
7
  2
*M4
 10
-16.37773
 20
16.37773
 30
16.0
 41
1.0
 42
1.0
 43
1.0
 70
1
 71
1
  0
INSERT
  8
1
  5
FA
  6
CONTINUOUS
 62
7
  2
*M5
 10
0.0
 20
0.0
 30
0.0
 41
1.0
 42
1.0
 43
1.0
 70
1
 71
1
  0
ENDBLK
  8
1
  5
FB
  0
ENDSEC
  0
SECTION
  2
ENTITIES
  0
INSERT
  8
1
  5
2
  6
CONTINUOUS
 62
7
  2
*M0
 10
-27.15977
 20
12.00845
 30
0.0
 41
1.0
 42
1.0
 43
1.0
 70
1
 71
1
  0
INSERT
  8
1
  5
4
  6
CONTINUOUS
 62
7
  2
*M3
 10
-28.45971
 20
48.66373
 30
0.0
 41
1.0
 42
1.0
 43
1.0
 70
1
 71
1
  0
INSERT
  8
1
  5
6
  6
CONTINUOUS
 62
7
  2
*M6
 10
-63.81505
 20
13.3084
 30
0.0
 41
1.0
 42
1.0
 43
1.0
 70
1
 71
1
  0
ENDSEC
  0
EOF
