  0
SECTION
  2
HEADER
  9
$ACADVER
  1
AC1009
  9
$INSBASE
 10
0.0
 20
0.0
 30
0.0
  9
$EXTMAX
 10
500.0
 20
-10.0
 30
25.0
  9
$EXTMIN
 10
-30.0
 20
-165.0
 30
10.0
  9
$LIMMAX
 10
12.0
 20
9.0
  9
$LIMMIN
 10
0.0
 20
0.0
  9
$ORTHOMODE
 70
0
  9
$REGENMODE
 70
1
  9
$FILLMODE
 70
1
  9
$QTEXTMODE
 70
0
  9
$MIRRTEXT
 70
1
  9
$DRAGMODE
 70
2
  9
$LTSCALE
 40
1.0
  9
$OSMODE
 70
0
  9
$ATTMODE
 70
1
  9
$TEXTSIZE
 40
0.2
  9
$TRACEWID
 40
0.05
  9
$TEXTSTYLE
  7
STANDARD
  9
$CLAYER
  8
0
  9
$CELTYPE
  6
CONTINUOUS
  9
$CECOLOR
 62
256
  9
$DIMSCALE
 40
1.0
  9
$DIMASZ
 40
0.18
  9
$DIMEXO
 40
0.0625
  9
$DIMDLI
 40
0.38
  9
$DIMRND
 40
0.0
  9
$DIMDLE
 40
0.0
  9
$DIMEXE
 40
0.18
  9
$DIMTP
 40
0.0
  9
$DIMTM
 40
0.0
  9
$DIMTXT
 40
0.18
  9
$DIMCEN
 40
0.09
  9
$DIMTSZ
 40
0.0
  9
$DIMTOL
 70
0
  9
$DIMLIM
 70
0
  9
$DIMTIH
 70
1
  9
$DIMTOH
 70
1
  9
$DIMSE1
 70
0
  9
$DIMSE2
 70
0
  9
$DIMTAD
 70
0
  9
$DIMZIN
 70
0
  9
$DIMBLK
  1

  9
$DIMASO
 70
1
  9
$DIMSHO
 70
1
  9
$DIMPOST
  1

  9
$DIMAPOST
  1

  9
$DIMALT
 70
0
  9
$DIMALTD
 70
2
  9
$DIMALTF
 40
25.4
  9
$DIMLFAC
 40
1.0
  9
$DIMTOFL
 70
0
  9
$DIMTVP
 40
0.0
  9
$DIMTIX
 70
0
  9
$DIMSOXD
 70
0
  9
$DIMSAH
 70
0
  9
$DIMBLK1
  1

  9
$DIMBLK2
  1

  9
$DIMSTYLE
  2
*UNNAMED
  9
$DIMCLRD
 70
0
  9
$DIMCLRE
 70
0
  9
$DIMCLRT
 70
0
  9
$DIMTFAC
 40
1.0
  9
$DIMGAP
 40
0.09
  9
$LUNITS
 70
2
  9
$LUPREC
 70
4
  9
$AXISMODE
 70
0
  9
$AXISUNIT
 10
0.0
 20
0.0
  9
$SKETCHINC
 40
0.1
  9
$FILLETRAD
 40
0.0
  9
$AUNITS
 70
0
  9
$AUPREC
 70
0
  9
$MENU
  1
acad
  9
$ELEVATION
 40
0.0
  9
$PELEVATION
 40
0.0
  9
$THICKNESS
 40
0.0
  9
$LIMCHECK
 70
0
  9
$BLIPMODE
 70
1
  9
$CHAMFERA
 40
0.0
  9
$CHAMFERB
 40
0.0
  9
$SKPOLY
 70
0
  9
$TDCREATE
 40
0.0
  9
$TDUPDATE
 40
0.0
  9
$TDINDWG
 40
0.0
  9
$TDUSRTIMER
 40
0.0
  9
$USRTIMER
 70
1
  9
$ANGBASE
 50
0.0
  9
$ANGDIR
 70
0
  9
$PDMODE
 70
0
  9
$PDSIZE
 40
0.0
  9
$PLINEWID
 40
0.0
  9
$COORDS
 70
0
  9
$SPLFRAME
 70
0
  9
$SPLINETYPE
 70
6
  9
$SPLINESEGS
 70
10
  9
$ATTDIA
 70
0
  9
$ATTREQ
 70
1
  9
$HANDLING
 70
1
  9
$HANDSEED
  5
2B2
  9
$SURFTAB1
 70
6
  9
$SURFTAB2
 70
6
  9
$SURFTYPE
 70
6
  9
$SURFU
 70
10
  9
$SURFV
 70
10
  9
$UCSNAME
  2

  9
$UCSORG
 10
0.0
 20
0.0
 30
0.0
  9
$UCSXDIR
 10
1.0
 20
0.0
 30
0.0
  9
$UCSYDIR
 10
0.0
 20
1.0
 30
0.0
  9
$PUCSNAME
  2
 
  9
$PUCSORG
 10
0.0
 20
0.0
 30
0.0
  9
$PUCSXDIR
 10
1.0
 20
0.0
 30
0.0
  9
$PUCSYDIR
 10
0.0
 20
1.0
 30
0.0
  9
$USERI1
 70
0
  9
$USERI2
 70
0
  9
$USERI3
 70
0
  9
$USERI4
 70
0
  9
$USERI5
 70
0
  9
$USERR1
 40
0.0
  9
$USERR2
 40
0.0
  9
$USERR3
 40
0.0
  9
$USERR4
 40
0.0
  9
$USERR5
 40
0.0
  9
$WORLDVIEW
 70
1
  9
$SHADEDGE
 70
3
  9
$SHADEDIF
 70
70
  9
$TILEMODE
 70
1
  9
$MAXACTVP
 70
16
  9
$PINSBASE
 10
0.0
 20
0.0
 30
0.0
  9
$PLIMCHECK
 70
0
  9
$PEXTMIN
 10
-1.000000E+020
 20
-1.000000E+020
 30
-1.000000E+020
  9
$PEXTMAX
 10
-1.000000E+020
 20
-1.000000E+020
 30
-1.000000E+020
  9
$PLIMMIN
 10
0.0
 20
0.0
  9
$PLIMMAX
 10
12.0
 20
9.0
  9
$UNITMODE
 70
0
  9
$VISRETAIN
 70
0
  0
ENDSEC
  0
SECTION
  2
TABLES
  0
TABLE
  2
LTYPE
 70
7
  0
LTYPE
  2
CONTINUOUS
 70
64
  3
Solid line
 72
65
 73
0
 40
0.0
  0
LTYPE
  2
DOT
 70
64
  3
. . . . . . . . . . . . . . . . . . . . . . . . . . . . . . . . .
 72
65
 73
2
 40
0.25
 49
0.0
 49
-0.25
  0
LTYPE
  2
HIDDEN
 70
64
  3
__ __ __ __ __ __ __ __ __ __ __ __ __ __ __ __ __ __ __ __ __ 
 72
65
 73
2
 40
0.375
 49
0.25
 49
-0.125
  0
LTYPE
  2
DASHED
 70
64
  3
__ __ __ __ __ __ __ __ __ __ __ __ __ __ __ __ __ __ __ __ __
 72
65
 73
2
 40
0.75
 49
0.5
 49
-0.25
  0
LTYPE
  2
DASHDOT
 70
64
  3
__ . __ . __ . __ . __ . __ . __ . __ . __ . __ . __ . __ . _
 72
65
 73
4
 40
1.0
 49
0.5
 49
-0.25
 49
0.0
 49
-0.25
  0
LTYPE
  2
DIVIDE
 70
64
  3
____ . . ____ . . ____ . . ____ . . ____ . . ____ . . ____ . .
 72
65
 73
6
 40
1.25
 49
0.5
 49
-0.25
 49
0.0
 49
-0.25
 49
0.0
 49
-0.25
  0
LTYPE
  2
CENTER
 70
64
  3
____ _ ____ _ ____ _ ____ _ ____ _ ____ _ ____ _ ____ _ ____ _
 72
65
 73
4
 40
2.0
 49
1.25
 49
-0.25
 49
0.25
 49
-0.25
  0
ENDTAB
  0
TABLE
  2
APPID
 70
1
  0
APPID
  2
ACAD
 70
0
  0
ENDTAB
  0
TABLE
  2
DIMSTYLE
 70
0
  0
ENDTAB
  0
TABLE
  2
LAYER
 70
4
  0
LAYER
  2
0
 70
0
 62
7
  6
CONTINUOUS
  0
LAYER
  2
CONSTRUCTION_CLASS
 70
1
 62
7
  6
CONTINUOUS
  0
LAYER
  2
PATTERN_CLASS
 70
0
 62
7
  6
CONTINUOUS
  0
LAYER
  2
1
 70
0
 62
7
  6
CONTINUOUS
  0
ENDTAB
  0
TABLE
  2
STYLE
 70
1
  0
STYLE
  2
STANDARD
 70
0
 40
0.2
 41
1.0
 50
0.0
 71
0
 42
0.0
  3
txt
  4

  0
ENDTAB
  0
TABLE
  2
UCS
 70
0
  0
ENDTAB
  0
TABLE
  2
VIEW
 70
0
  0
ENDTAB
  0
TABLE
  2
VPORT
 70
4
  0
VPORT
  2
*ACTIVE
 70
0
 10
0.500821
 20
0.50171
 11
0.998358
 21
0.997719
 12
0.0
 22
0.0
 13
0.0
 23
0.0
 14
0.0
 24
0.0
 15
0.0
 25
0.0
 16
0.0
 26
-1.889912E-015
 36
30.86562
 17
212.598205
 27
-87.499995
 37
17.5
 40
357.79569
 41
1.393103
 42
50.0
 43
15.43281
 44
-15.43281
 50
0.0
 51
0.0
 71
22
 72
100
 73
1
 74
0
 75
0
 76
0
 77
0
 78
0
  0
VPORT
  2
*ACTIVE
 70
0
 10
0.001642
 20
0.50171
 11
0.499179
 21
0.997719
 12
5.684342E-014
 22
-2.842171E-014
 13
0.0
 23
0.0
 14
0.0
 24
0.0
 15
0.0
 25
0.0
 16
-202.092567
 26
-317.001032
 36
153.844966
 17
216.102113
 27
-75.452332
 37
17.5
 40
357.95115
 41
1.393103
 42
50.0
 43
203.10055
 44
-203.10055
 50
0.0
 51
0.0
 71
22
 72
100
 73
1
 74
0
 75
0
 76
0
 77
0
 78
0
  0
VPORT
  2
*ACTIVE
 70
0
 10
0.001642
 20
0.003421
 11
0.499179
 21
0.49943
 12
0.0
 22
0.0
 13
0.0
 23
0.0
 14
0.0
 24
0.0
 15
0.0
 25
0.0
 16
0.0
 26
-170.86562
 36
0.0
 17
212.598205
 27
-87.5
 37
17.500005
 40
357.79569
 41
1.393103
 42
50.0
 43
85.43281
 44
-85.43281
 50
0.0
 51
0.0
 71
22
 72
100
 73
1
 74
0
 75
0
 76
0
 77
0
 78
0
  0
VPORT
  2
*ACTIVE
 70
0
 10
0.500821
 20
0.003421
 11
0.998358
 21
0.49943
 12
0.0
 22
0.0
 13
0.0
 23
0.0
 14
0.0
 24
0.0
 15
0.0
 25
0.0
 16
543.25
 26
0.0
 36
0.0
 17
235.0
 27
-94.347982
 37
17.499995
 40
109.37423
 41
1.393103
 42
50.0
 43
271.625
 44
-271.625
 50
0.0
 51
0.0
 71
22
 72
100
 73
1
 74
0
 75
0
 76
0
 77
0
 78
0
  0
ENDTAB
  0
ENDSEC
  0
SECTION
  2
BLOCKS
  0
BLOCK
  8
1
  5
6
 70
1
 10
0.0
 20
0.0
 30
0.0
  2
*M0
  3
*M0
  0
LINE
  8
1
  5
8
  6
CONTINUOUS
 62
7
 10
210.0
 20
-10.0
 30
15.0
 11
210.0
 21
-10.0
 31
10.0
  0
LINE
  8
1
  5
A
  6
CONTINUOUS
 62
7
 10
210.0
 20
-165.0
 30
15.0
 11
210.0
 21
-165.0
 31
10.0
  0
LINE
  8
1
  5
C
  6
CONTINUOUS
 62
7
 10
205.0
 20
-165.0
 30
15.0
 11
205.0
 21
-159.44323
 31
15.0
  0
LINE
  8
1
  5
E
  6
CONTINUOUS
 62
7
 10
205.0
 20
-165.0
 30
15.0
 11
210.0
 21
-165.0
 31
15.0
  0
LINE
  8
1
  5
10
  6
CONTINUOUS
 62
7
 10
210.0
 20
-10.0
 30
15.0
 11
205.0
 21
-10.0
 31
15.0
  0
LINE
  8
1
  5
12
  6
CONTINUOUS
 62
7
 10
205.0
 20
-15.55678
 30
15.0
 11
205.0
 21
-10.0
 31
15.0
  0
ARC
  8
1
  5
14
  6
CONTINUOUS
 62
7
 10
200.9
 20
-15.556785
 30
15.0
 40
4.1
 50
255.0000138889
 51
360.0
  0
LINE
  8
1
  5
16
  6
CONTINUOUS
 62
7
 10
193.76116
 20
-17.88857
 30
15.0
 11
199.83884
 21
-19.51708
 31
15.0
  0
ARC
  8
1
  5
18
  6
CONTINUOUS
 62
7
 210
0.0
 220
0.0
 230
-1.0
 10
-192.7
 20
-21.848867
 30
-15.0
 40
4.1
 50
360.0
 51
104.9999861111
  0
LINE
  8
1
  5
1A
  6
CONTINUOUS
 62
7
 10
188.6
 20
-28.15115
 30
15.0
 11
188.6
 21
-21.84887
 31
15.0
  0
ARC
  8
1
  5
1C
  6
CONTINUOUS
 62
7
 210
0.0
 220
0.0
 230
-1.0
 10
-192.7
 20
-28.151153
 30
-15.0
 40
4.1
 50
254.999975
 51
360.0
  0
LINE
  8
1
  5
1E
  6
CONTINUOUS
 62
7
 10
199.83884
 20
-30.48294
 30
15.0
 11
193.76116
 21
-32.11145
 31
15.0
  0
ARC
  8
1
  5
20
  6
CONTINUOUS
 62
7
 10
200.9
 20
-34.443231
 30
15.0
 40
4.1
 50
0.0000002045
 51
105.0000446489
  0
LINE
  8
1
  5
22
  6
CONTINUOUS
 62
7
 10
205.0
 20
-40.55679
 30
15.0
 11
205.0
 21
-34.44323
 31
15.0
  0
ARC
  8
1
  5
24
  6
CONTINUOUS
 62
7
 10
200.9
 20
-40.556786
 30
15.0
 40
4.1
 50
255.0000055556
 51
5.0888874903E-014
  0
LINE
  8
1
  5
26
  6
CONTINUOUS
 62
7
 10
193.76116
 20
-42.88857
 30
15.0
 11
199.83884
 21
-44.51708
 31
15.0
  0
ARC
  8
1
  5
28
  6
CONTINUOUS
 62
7
 210
0.0
 220
0.0
 230
-1.0
 10
-192.7
 20
-46.848867
 30
-15.0
 40
4.1
 50
360.0
 51
104.9999861111
  0
LINE
  8
1
  5
2A
  6
CONTINUOUS
 62
7
 10
188.6
 20
-53.15115
 30
15.0
 11
188.6
 21
-46.84887
 31
15.0
  0
ARC
  8
1
  5
2C
  6
CONTINUOUS
 62
7
 210
0.0
 220
0.0
 230
-1.0
 10
-192.7
 20
-53.151153
 30
-15.0
 40
4.1
 50
255.0000333333
 51
360.0
  0
LINE
  8
1
  5
2E
  6
CONTINUOUS
 62
7
 10
199.83884
 20
-55.48294
 30
15.0
 11
193.76116
 21
-57.11145
 31
15.0
  0
ARC
  8
1
  5
30
  6
CONTINUOUS
 62
7
 10
200.9
 20
-59.443238
 30
15.0
 40
4.1
 50
0.0000008562
 51
104.9999869674
  0
LINE
  8
1
  5
32
  6
CONTINUOUS
 62
7
 10
205.0
 20
-65.55679
 30
15.0
 11
205.0
 21
-59.44324
 31
15.0
  0
ARC
  8
1
  5
34
  6
CONTINUOUS
 62
7
 10
200.9
 20
-65.556786
 30
15.0
 40
4.1
 50
254.9999998358
 51
359.9999998358
  0
LINE
  8
1
  5
36
  6
CONTINUOUS
 62
7
 10
193.76116
 20
-67.88857
 30
15.0
 11
199.83884
 21
-69.51708
 31
15.0
  0
ARC
  8
1
  5
38
  6
CONTINUOUS
 62
7
 210
0.0
 220
0.0
 230
-1.0
 10
-192.7
 20
-71.848867
 30
-15.0
 40
4.1
 50
360.0
 51
104.9999861111
  0
LINE
  8
1
  5
3A
  6
CONTINUOUS
 62
7
 10
188.6
 20
-78.15115
 30
15.0
 11
188.6
 21
-71.84887
 31
15.0
  0
ARC
  8
1
  5
3C
  6
CONTINUOUS
 62
7
 210
0.0
 220
0.0
 230
-1.0
 10
-192.7
 20
-78.151153
 30
-15.0
 40
4.1
 50
255.0000138889
 51
360.0
  0
LINE
  8
1
  5
3E
  6
CONTINUOUS
 62
7
 10
199.83884
 20
-80.48294
 30
15.0
 11
193.76116
 21
-82.11145
 31
15.0
  0
ARC
  8
1
  5
40
  6
CONTINUOUS
 62
7
 10
200.9
 20
-84.443232
 30
15.0
 40
4.1
 50
0.0000003108
 51
105.0000114219
  0
LINE
  8
1
  5
42
  6
CONTINUOUS
 62
7
 10
205.0
 20
-90.55678
 30
15.0
 11
205.0
 21
-84.44323
 31
15.0
  0
ARC
  8
1
  5
44
  6
CONTINUOUS
 62
7
 10
200.9
 20
-90.556785
 30
15.0
 40
4.1
 50
255.0000138889
 51
360.0
  0
LINE
  8
1
  5
46
  6
CONTINUOUS
 62
7
 10
193.76116
 20
-92.88857
 30
15.0
 11
199.83884
 21
-94.51708
 31
15.0
  0
ARC
  8
1
  5
48
  6
CONTINUOUS
 62
7
 210
0.0
 220
0.0
 230
-1.0
 10
-192.7
 20
-96.848867
 30
-15.0
 40
4.1
 50
360.0
 51
104.9999861111
  0
LINE
  8
1
  5
4A
  6
CONTINUOUS
 62
7
 10
188.6
 20
-103.15115
 30
15.0
 11
188.6
 21
-96.84887
 31
15.0
  0
ARC
  8
1
  5
4C
  6
CONTINUOUS
 62
7
 210
0.0
 220
0.0
 230
-1.0
 10
-192.7
 20
-103.151153
 30
-15.0
 40
4.1
 50
255.0000138889
 51
360.0
  0
LINE
  8
1
  5
4E
  6
CONTINUOUS
 62
7
 10
199.83884
 20
-105.48294
 30
15.0
 11
193.76116
 21
-107.11145
 31
15.0
  0
ARC
  8
1
  5
50
  6
CONTINUOUS
 62
7
 10
200.9
 20
-109.443237
 30
15.0
 40
4.1
 50
5.7414457110E-008
 51
104.9999695019
  0
LINE
  8
1
  5
52
  6
CONTINUOUS
 62
7
 10
205.0
 20
-115.55679
 30
15.0
 11
205.0
 21
-109.44324
 31
15.0
  0
ARC
  8
1
  5
54
  6
CONTINUOUS
 62
7
 10
200.9
 20
-115.556787
 30
15.0
 40
4.1
 50
254.9999916667
 51
360.0
  0
LINE
  8
1
  5
56
  6
CONTINUOUS
 62
7
 10
193.76116
 20
-117.88857
 30
15.0
 11
199.83884
 21
-119.51708
 31
15.0
  0
ARC
  8
1
  5
58
  6
CONTINUOUS
 62
7
 210
0.0
 220
0.0
 230
-1.0
 10
-192.7
 20
-121.848867
 30
-15.0
 40
4.1
 50
360.0
 51
104.9999861111
  0
LINE
  8
1
  5
5A
  6
CONTINUOUS
 62
7
 10
188.6
 20
-128.15115
 30
15.0
 11
188.6
 21
-121.84887
 31
15.0
  0
ARC
  8
1
  5
5C
  6
CONTINUOUS
 62
7
 210
0.0
 220
0.0
 230
-1.0
 10
-192.7
 20
-128.151153
 30
-15.0
 40
4.1
 50
255.0000138889
 51
360.0
  0
LINE
  8
1
  5
5E
  6
CONTINUOUS
 62
7
 10
199.83884
 20
-130.48294
 30
15.0
 11
193.76116
 21
-132.11145
 31
15.0
  0
ARC
  8
1
  5
60
  6
CONTINUOUS
 62
7
 10
200.9
 20
-134.443232
 30
15.0
 40
4.1
 50
359.9999998226
 51
105.0000192671
  0
LINE
  8
1
  5
62
  6
CONTINUOUS
 62
7
 10
205.0
 20
-140.55679
 30
15.0
 11
205.0
 21
-134.44323
 31
15.0
  0
ARC
  8
1
  5
64
  6
CONTINUOUS
 62
7
 10
200.9
 20
-140.556787
 30
15.0
 40
4.1
 50
254.9999944444
 51
360.0
  0
LINE
  8
1
  5
66
  6
CONTINUOUS
 62
7
 10
193.76116
 20
-142.88857
 30
15.0
 11
199.83884
 21
-144.51708
 31
15.0
  0
ARC
  8
1
  5
68
  6
CONTINUOUS
 62
7
 210
0.0
 220
0.0
 230
-1.0
 10
-192.7
 20
-146.848867
 30
-15.0
 40
4.1
 50
360.0
 51
104.9999861111
  0
LINE
  8
1
  5
6A
  6
CONTINUOUS
 62
7
 10
188.6
 20
-153.15115
 30
15.0
 11
188.6
 21
-146.84887
 31
15.0
  0
ARC
  8
1
  5
6C
  6
CONTINUOUS
 62
7
 210
0.0
 220
0.0
 230
-1.0
 10
-192.7
 20
-153.151153
 30
-15.0
 40
4.1
 50
254.9999972222
 51
360.0
  0
LINE
  8
1
  5
6E
  6
CONTINUOUS
 62
7
 10
199.83884
 20
-155.48294
 30
15.0
 11
193.76116
 21
-157.11145
 31
15.0
  0
ARC
  8
1
  5
70
  6
CONTINUOUS
 62
7
 10
200.9
 20
-159.443233
 30
15.0
 40
4.1
 50
0.0000013501
 51
105.0000235723
  0
LINE
  8
1
  5
72
  6
CONTINUOUS
 62
7
 10
-30.0
 20
-165.0
 30
10.0
 11
210.0
 21
-165.0
 31
10.0
  0
LINE
  8
1
  5
74
  6
CONTINUOUS
 62
7
 10
-30.0
 20
-10.0
 30
10.0
 11
-30.0
 21
-165.0
 31
10.0
  0
LINE
  8
1
  5
76
  6
CONTINUOUS
 62
7
 10
210.0
 20
-10.0
 30
10.0
 11
-30.0
 21
-10.0
 31
10.0
  0
LINE
  8
1
  5
78
  6
CONTINUOUS
 62
7
 10
199.83884
 20
-19.51708
 30
25.0
 11
193.76116
 21
-17.88857
 31
25.0
  0
LINE
  8
1
  5
7A
  6
CONTINUOUS
 62
7
 10
193.76116
 20
-17.88857
 30
15.0
 11
193.76116
 21
-17.88857
 31
25.0
  0
LINE
  8
1
  5
7C
  6
CONTINUOUS
 62
7
 10
199.83884
 20
-19.51708
 30
15.0
 11
199.83884
 21
-19.51708
 31
25.0
  0
ARC
  8
1
  5
7E
  6
CONTINUOUS
 62
7
 10
192.7
 20
-21.848867
 30
25.0
 40
4.1
 50
75.0000138889
 51
180.0
  0
LINE
  8
1
  5
80
  6
CONTINUOUS
 62
7
 10
188.6
 20
-21.84887
 30
15.0
 11
188.6
 21
-21.84887
 31
25.0
  0
LINE
  8
1
  5
82
  6
CONTINUOUS
 62
7
 10
188.6
 20
-21.84887
 30
25.0
 11
188.6
 21
-28.15115
 31
25.0
  0
LINE
  8
1
  5
84
  6
CONTINUOUS
 62
7
 10
188.6
 20
-28.15115
 30
15.0
 11
188.6
 21
-28.15115
 31
25.0
  0
ARC
  8
1
  5
86
  6
CONTINUOUS
 62
7
 10
192.7
 20
-28.151153
 30
25.0
 40
4.1
 50
180.0
 51
285.000025
  0
LINE
  8
1
  5
88
  6
CONTINUOUS
 62
7
 10
193.76116
 20
-32.11145
 30
15.0
 11
193.76116
 21
-32.11145
 31
25.0
  0
LINE
  8
1
  5
8A
  6
CONTINUOUS
 62
7
 10
193.76116
 20
-32.11145
 30
25.0
 11
199.83884
 21
-30.48294
 31
25.0
  0
LINE
  8
1
  5
8C
  6
CONTINUOUS
 62
7
 10
199.83884
 20
-30.48294
 30
15.0
 11
199.83884
 21
-30.48294
 31
25.0
  0
ARC
  8
1
  5
8E
  6
CONTINUOUS
 62
7
 210
0.0
 220
0.0
 230
-1.0
 10
-200.9
 20
-34.443231
 30
-25.0
 40
4.1
 50
74.9999581288
 51
180.0000025733
  0
LINE
  8
1
  5
90
  6
CONTINUOUS
 62
7
 10
205.0
 20
-34.44323
 30
15.0
 11
205.0
 21
-34.44323
 31
25.0
  0
LINE
  8
1
  5
92
  6
CONTINUOUS
 62
7
 10
205.0
 20
-34.44323
 30
25.0
 11
205.0
 21
-40.55679
 31
25.0
  0
LINE
  8
1
  5
94
  6
CONTINUOUS
 62
7
 10
205.0
 20
-40.55679
 30
15.0
 11
205.0
 21
-40.55679
 31
25.0
  0
ARC
  8
1
  5
96
  6
CONTINUOUS
 62
7
 210
0.0
 220
0.0
 230
-1.0
 10
-200.9
 20
-40.556786
 30
-25.0
 40
4.1
 50
180.0
 51
284.9999944444
  0
LINE
  8
1
  5
98
  6
CONTINUOUS
 62
7
 10
199.83884
 20
-44.51708
 30
15.0
 11
199.83884
 21
-44.51708
 31
25.0
  0
LINE
  8
1
  5
9A
  6
CONTINUOUS
 62
7
 10
199.83884
 20
-44.51708
 30
25.0
 11
193.76116
 21
-42.88857
 31
25.0
  0
LINE
  8
1
  5
9C
  6
CONTINUOUS
 62
7
 10
193.76116
 20
-42.88857
 30
15.0
 11
193.76116
 21
-42.88857
 31
25.0
  0
ARC
  8
1
  5
9E
  6
CONTINUOUS
 62
7
 10
192.7
 20
-46.848867
 30
25.0
 40
4.1
 50
75.0000138889
 51
180.0
  0
LINE
  8
1
  5
A0
  6
CONTINUOUS
 62
7
 10
188.6
 20
-46.84887
 30
15.0
 11
188.6
 21
-46.84887
 31
25.0
  0
LINE
  8
1
  5
A2
  6
CONTINUOUS
 62
7
 10
188.6
 20
-46.84887
 30
25.0
 11
188.6
 21
-53.15115
 31
25.0
  0
LINE
  8
1
  5
A4
  6
CONTINUOUS
 62
7
 10
188.6
 20
-53.15115
 30
15.0
 11
188.6
 21
-53.15115
 31
25.0
  0
ARC
  8
1
  5
A6
  6
CONTINUOUS
 62
7
 10
192.7
 20
-53.151153
 30
25.0
 40
4.1
 50
180.0
 51
284.9999666667
  0
LINE
  8
1
  5
A8
  6
CONTINUOUS
 62
7
 10
193.76116
 20
-57.11145
 30
15.0
 11
193.76116
 21
-57.11145
 31
25.0
  0
LINE
  8
1
  5
AA
  6
CONTINUOUS
 62
7
 10
193.76116
 20
-57.11145
 30
25.0
 11
199.83884
 21
-55.48294
 31
25.0
  0
LINE
  8
1
  5
AC
  6
CONTINUOUS
 62
7
 10
199.83884
 20
-55.48294
 30
15.0
 11
199.83884
 21
-55.48294
 31
25.0
  0
ARC
  8
1
  5
AE
  6
CONTINUOUS
 62
7
 210
0.0
 220
0.0
 230
-1.0
 10
-200.9
 20
-59.443238
 30
-25.0
 40
4.1
 50
75.0000158104
 51
180.0000019215
  0
LINE
  8
1
  5
B0
  6
CONTINUOUS
 62
7
 10
205.0
 20
-59.44324
 30
15.0
 11
205.0
 21
-59.44324
 31
25.0
  0
LINE
  8
1
  5
B2
  6
CONTINUOUS
 62
7
 10
205.0
 20
-59.44324
 30
25.0
 11
205.0
 21
-65.55679
 31
25.0
  0
LINE
  8
1
  5
B4
  6
CONTINUOUS
 62
7
 10
205.0
 20
-65.55679
 30
15.0
 11
205.0
 21
-65.55679
 31
25.0
  0
ARC
  8
1
  5
B6
  6
CONTINUOUS
 62
7
 210
0.0
 220
0.0
 230
-1.0
 10
-200.9
 20
-65.556786
 30
-25.0
 40
4.1
 50
180.0000001642
 51
285.0000001642
  0
LINE
  8
1
  5
B8
  6
CONTINUOUS
 62
7
 10
199.83884
 20
-69.51708
 30
15.0
 11
199.83884
 21
-69.51708
 31
25.0
  0
LINE
  8
1
  5
BA
  6
CONTINUOUS
 62
7
 10
199.83884
 20
-69.51708
 30
25.0
 11
193.76116
 21
-67.88857
 31
25.0
  0
LINE
  8
1
  5
BC
  6
CONTINUOUS
 62
7
 10
193.76116
 20
-67.88857
 30
15.0
 11
193.76116
 21
-67.88857
 31
25.0
  0
ARC
  8
1
  5
BE
  6
CONTINUOUS
 62
7
 10
192.7
 20
-71.848867
 30
25.0
 40
4.1
 50
75.0000138889
 51
180.0
  0
LINE
  8
1
  5
C0
  6
CONTINUOUS
 62
7
 10
188.6
 20
-71.84887
 30
15.0
 11
188.6
 21
-71.84887
 31
25.0
  0
LINE
  8
1
  5
C2
  6
CONTINUOUS
 62
7
 10
188.6
 20
-71.84887
 30
25.0
 11
188.6
 21
-78.15115
 31
25.0
  0
LINE
  8
1
  5
C4
  6
CONTINUOUS
 62
7
 10
188.6
 20
-78.15115
 30
15.0
 11
188.6
 21
-78.15115
 31
25.0
  0
ARC
  8
1
  5
C6
  6
CONTINUOUS
 62
7
 10
192.7
 20
-78.151153
 30
25.0
 40
4.1
 50
180.0
 51
284.9999861111
  0
LINE
  8
1
  5
C8
  6
CONTINUOUS
 62
7
 10
193.76116
 20
-82.11145
 30
15.0
 11
193.76116
 21
-82.11145
 31
25.0
  0
LINE
  8
1
  5
CA
  6
CONTINUOUS
 62
7
 10
193.76116
 20
-82.11145
 30
25.0
 11
199.83884
 21
-80.48294
 31
25.0
  0
LINE
  8
1
  5
CC
  6
CONTINUOUS
 62
7
 10
199.83884
 20
-80.48294
 30
15.0
 11
199.83884
 21
-80.48294
 31
25.0
  0
ARC
  8
1
  5
CE
  6
CONTINUOUS
 62
7
 210
0.0
 220
0.0
 230
-1.0
 10
-200.9
 20
-84.443232
 30
-25.0
 40
4.1
 50
74.9999885781
 51
179.9999996892
  0
LINE
  8
1
  5
D0
  6
CONTINUOUS
 62
7
 10
205.0
 20
-84.44323
 30
15.0
 11
205.0
 21
-84.44323
 31
25.0
  0
LINE
  8
1
  5
D2
  6
CONTINUOUS
 62
7
 10
205.0
 20
-84.44323
 30
25.0
 11
205.0
 21
-90.55678
 31
25.0
  0
LINE
  8
1
  5
D4
  6
CONTINUOUS
 62
7
 10
205.0
 20
-90.55678
 30
15.0
 11
205.0
 21
-90.55678
 31
25.0
  0
ARC
  8
1
  5
D6
  6
CONTINUOUS
 62
7
 210
0.0
 220
0.0
 230
-1.0
 10
-200.9
 20
-90.556785
 30
-25.0
 40
4.1
 50
180.0
 51
284.9999861111
  0
LINE
  8
1
  5
D8
  6
CONTINUOUS
 62
7
 10
199.83884
 20
-94.51708
 30
15.0
 11
199.83884
 21
-94.51708
 31
25.0
  0
LINE
  8
1
  5
DA
  6
CONTINUOUS
 62
7
 10
199.83884
 20
-94.51708
 30
25.0
 11
193.76116
 21
-92.88857
 31
25.0
  0
LINE
  8
1
  5
DC
  6
CONTINUOUS
 62
7
 10
193.76116
 20
-92.88857
 30
15.0
 11
193.76116
 21
-92.88857
 31
25.0
  0
ARC
  8
1
  5
DE
  6
CONTINUOUS
 62
7
 10
192.7
 20
-96.848867
 30
25.0
 40
4.1
 50
75.0000138889
 51
180.0
  0
LINE
  8
1
  5
E0
  6
CONTINUOUS
 62
7
 10
188.6
 20
-96.84887
 30
15.0
 11
188.6
 21
-96.84887
 31
25.0
  0
LINE
  8
1
  5
E2
  6
CONTINUOUS
 62
7
 10
188.6
 20
-96.84887
 30
25.0
 11
188.6
 21
-103.15115
 31
25.0
  0
LINE
  8
1
  5
E4
  6
CONTINUOUS
 62
7
 10
188.6
 20
-103.15115
 30
15.0
 11
188.6
 21
-103.15115
 31
25.0
  0
ARC
  8
1
  5
E6
  6
CONTINUOUS
 62
7
 10
192.7
 20
-103.151153
 30
25.0
 40
4.1
 50
180.0
 51
284.9999861111
  0
LINE
  8
1
  5
E8
  6
CONTINUOUS
 62
7
 10
193.76116
 20
-107.11145
 30
15.0
 11
193.76116
 21
-107.11145
 31
25.0
  0
LINE
  8
1
  5
EA
  6
CONTINUOUS
 62
7
 10
193.76116
 20
-107.11145
 30
25.0
 11
199.83884
 21
-105.48294
 31
25.0
  0
LINE
  8
1
  5
EC
  6
CONTINUOUS
 62
7
 10
199.83884
 20
-105.48294
 30
15.0
 11
199.83884
 21
-105.48294
 31
25.0
  0
ARC
  8
1
  5
EE
  6
CONTINUOUS
 62
7
 210
0.0
 220
0.0
 230
-1.0
 10
-200.9
 20
-109.443237
 30
-25.0
 40
4.1
 50
75.0000304981
 51
179.9999999426
  0
LINE
  8
1
  5
F0
  6
CONTINUOUS
 62
7
 10
205.0
 20
-109.44324
 30
15.0
 11
205.0
 21
-109.44324
 31
25.0
  0
LINE
  8
1
  5
F2
  6
CONTINUOUS
 62
7
 10
205.0
 20
-109.44324
 30
25.0
 11
205.0
 21
-115.55679
 31
25.0
  0
LINE
  8
1
  5
F4
  6
CONTINUOUS
 62
7
 10
205.0
 20
-115.55679
 30
15.0
 11
205.0
 21
-115.55679
 31
25.0
  0
ARC
  8
1
  5
F6
  6
CONTINUOUS
 62
7
 210
0.0
 220
0.0
 230
-1.0
 10
-200.9
 20
-115.556787
 30
-25.0
 40
4.1
 50
180.0
 51
285.0000083333
  0
LINE
  8
1
  5
F8
  6
CONTINUOUS
 62
7
 10
199.83884
 20
-119.51708
 30
15.0
 11
199.83884
 21
-119.51708
 31
25.0
  0
LINE
  8
1
  5
FA
  6
CONTINUOUS
 62
7
 10
199.83884
 20
-119.51708
 30
25.0
 11
193.76116
 21
-117.88857
 31
25.0
  0
LINE
  8
1
  5
FC
  6
CONTINUOUS
 62
7
 10
193.76116
 20
-117.88857
 30
15.0
 11
193.76116
 21
-117.88857
 31
25.0
  0
ARC
  8
1
  5
FE
  6
CONTINUOUS
 62
7
 10
192.7
 20
-121.848867
 30
25.0
 40
4.1
 50
75.0000138889
 51
180.0
  0
LINE
  8
1
  5
100
  6
CONTINUOUS
 62
7
 10
188.6
 20
-121.84887
 30
15.0
 11
188.6
 21
-121.84887
 31
25.0
  0
LINE
  8
1
  5
102
  6
CONTINUOUS
 62
7
 10
188.6
 20
-121.84887
 30
25.0
 11
188.6
 21
-128.15115
 31
25.0
  0
LINE
  8
1
  5
104
  6
CONTINUOUS
 62
7
 10
188.6
 20
-128.15115
 30
15.0
 11
188.6
 21
-128.15115
 31
25.0
  0
ARC
  8
1
  5
106
  6
CONTINUOUS
 62
7
 10
192.7
 20
-128.151153
 30
25.0
 40
4.1
 50
180.0
 51
284.9999861111
  0
LINE
  8
1
  5
108
  6
CONTINUOUS
 62
7
 10
193.76116
 20
-132.11145
 30
15.0
 11
193.76116
 21
-132.11145
 31
25.0
  0
LINE
  8
1
  5
10A
  6
CONTINUOUS
 62
7
 10
193.76116
 20
-132.11145
 30
25.0
 11
199.83884
 21
-130.48294
 31
25.0
  0
LINE
  8
1
  5
10C
  6
CONTINUOUS
 62
7
 10
199.83884
 20
-130.48294
 30
15.0
 11
199.83884
 21
-130.48294
 31
25.0
  0
ARC
  8
1
  5
10E
  6
CONTINUOUS
 62
7
 210
0.0
 220
0.0
 230
-1.0
 10
-200.9
 20
-134.443232
 30
-25.0
 40
4.1
 50
74.9999807329
 51
180.0000001774
  0
LINE
  8
1
  5
110
  6
CONTINUOUS
 62
7
 10
205.0
 20
-134.44323
 30
15.0
 11
205.0
 21
-134.44323
 31
25.0
  0
LINE
  8
1
  5
112
  6
CONTINUOUS
 62
7
 10
205.0
 20
-134.44323
 30
25.0
 11
205.0
 21
-140.55679
 31
25.0
  0
LINE
  8
1
  5
114
  6
CONTINUOUS
 62
7
 10
205.0
 20
-140.55679
 30
15.0
 11
205.0
 21
-140.55679
 31
25.0
  0
ARC
  8
1
  5
116
  6
CONTINUOUS
 62
7
 210
0.0
 220
0.0
 230
-1.0
 10
-200.9
 20
-140.556787
 30
-25.0
 40
4.1
 50
180.0
 51
285.0000055556
  0
LINE
  8
1
  5
118
  6
CONTINUOUS
 62
7
 10
199.83884
 20
-144.51708
 30
15.0
 11
199.83884
 21
-144.51708
 31
25.0
  0
LINE
  8
1
  5
11A
  6
CONTINUOUS
 62
7
 10
199.83884
 20
-144.51708
 30
25.0
 11
193.76116
 21
-142.88857
 31
25.0
  0
LINE
  8
1
  5
11C
  6
CONTINUOUS
 62
7
 10
193.76116
 20
-142.88857
 30
15.0
 11
193.76116
 21
-142.88857
 31
25.0
  0
ARC
  8
1
  5
11E
  6
CONTINUOUS
 62
7
 10
192.7
 20
-146.848867
 30
25.0
 40
4.1
 50
75.0000138889
 51
180.0
  0
LINE
  8
1
  5
120
  6
CONTINUOUS
 62
7
 10
188.6
 20
-146.84887
 30
15.0
 11
188.6
 21
-146.84887
 31
25.0
  0
LINE
  8
1
  5
122
  6
CONTINUOUS
 62
7
 10
188.6
 20
-146.84887
 30
25.0
 11
188.6
 21
-153.15115
 31
25.0
  0
LINE
  8
1
  5
124
  6
CONTINUOUS
 62
7
 10
188.6
 20
-153.15115
 30
15.0
 11
188.6
 21
-153.15115
 31
25.0
  0
ARC
  8
1
  5
126
  6
CONTINUOUS
 62
7
 10
192.7
 20
-153.151153
 30
25.0
 40
4.1
 50
180.0
 51
285.0000027778
  0
LINE
  8
1
  5
128
  6
CONTINUOUS
 62
7
 10
193.76116
 20
-157.11145
 30
15.0
 11
193.76116
 21
-157.11145
 31
25.0
  0
LINE
  8
1
  5
12A
  6
CONTINUOUS
 62
7
 10
193.76116
 20
-157.11145
 30
25.0
 11
199.83884
 21
-155.48294
 31
25.0
  0
LINE
  8
1
  5
12C
  6
CONTINUOUS
 62
7
 10
199.83884
 20
-155.48294
 30
15.0
 11
199.83884
 21
-155.48294
 31
25.0
  0
ARC
  8
1
  5
12E
  6
CONTINUOUS
 62
7
 210
0.0
 220
0.0
 230
-1.0
 10
-200.9
 20
-159.443233
 30
-25.0
 40
4.1
 50
74.9999792055
 51
180.0000014277
  0
LINE
  8
1
  5
130
  6
CONTINUOUS
 62
7
 10
205.0
 20
-159.44323
 30
15.0
 11
205.0
 21
-159.44323
 31
25.0
  0
LINE
  8
1
  5
132
  6
CONTINUOUS
 62
7
 10
205.0
 20
-159.44323
 30
25.0
 11
205.0
 21
-165.0
 31
25.0
  0
LINE
  8
1
  5
134
  6
CONTINUOUS
 62
7
 10
205.0
 20
-165.0
 30
15.0
 11
205.0
 21
-165.0
 31
25.0
  0
LINE
  8
1
  5
136
  6
CONTINUOUS
 62
7
 10
205.0
 20
-165.0
 30
25.0
 11
-30.0
 21
-165.0
 31
25.0
  0
LINE
  8
1
  5
138
  6
CONTINUOUS
 62
7
 10
-30.0
 20
-165.0
 30
25.0
 11
-30.0
 21
-165.0
 31
10.0
  0
LINE
  8
1
  5
13A
  6
CONTINUOUS
 62
7
 10
-30.0
 20
-165.0
 30
25.0
 11
-30.0
 21
-10.0
 31
25.0
  0
LINE
  8
1
  5
13C
  6
CONTINUOUS
 62
7
 10
-30.0
 20
-10.0
 30
25.0
 11
-30.0
 21
-10.0
 31
10.0
  0
LINE
  8
1
  5
13E
  6
CONTINUOUS
 62
7
 10
-30.0
 20
-10.0
 30
25.0
 11
205.0
 21
-10.0
 31
25.0
  0
LINE
  8
1
  5
140
  6
CONTINUOUS
 62
7
 10
205.0
 20
-10.0
 30
15.0
 11
205.0
 21
-10.0
 31
25.0
  0
LINE
  8
1
  5
142
  6
CONTINUOUS
 62
7
 10
205.0
 20
-10.0
 30
25.0
 11
205.0
 21
-15.55678
 31
25.0
  0
LINE
  8
1
  5
144
  6
CONTINUOUS
 62
7
 10
205.0
 20
-15.55678
 30
15.0
 11
205.0
 21
-15.55678
 31
25.0
  0
ARC
  8
1
  5
146
  6
CONTINUOUS
 62
7
 210
0.0
 220
0.0
 230
-1.0
 10
-200.9
 20
-15.556785
 30
-25.0
 40
4.1
 50
180.0
 51
284.9999861111
  0
ENDBLK
  8
1
  5
147
  0
BLOCK
  8
1
  5
149
 70
1
 10
0.0
 20
0.0
 30
0.0
  2
*M1
  3
*M1
  0
LINE
  8
1
  5
14B
  6
CONTINUOUS
 62
7
 10
210.0
 20
-165.0
 30
10.0
 11
210.0
 21
-10.0
 31
10.0
  0
LINE
  8
1
  5
14D
  6
CONTINUOUS
 62
7
 10
210.0
 20
-165.0
 30
15.0
 11
210.0
 21
-10.0
 31
15.0
  0
ENDBLK
  8
1
  5
14E
  0
BLOCK
  8
1
  5
150
 70
1
 10
0.0
 20
0.0
 30
0.0
  2
*M2
  3
*M2
  0
INSERT
  8
1
  5
152
  6
CONTINUOUS
 62
7
  2
*M0
 10
0.0
 20
0.0
 30
0.0
 41
1.0
 42
1.0
 43
1.0
 70
1
 71
1
  0
INSERT
  8
1
  5
154
  6
CONTINUOUS
 62
7
  2
*M1
 10
0.0
 20
0.0
 30
0.0
 41
1.0
 42
1.0
 43
1.0
 70
1
 71
1
  0
ENDBLK
  8
1
  5
155
  0
BLOCK
  8
1
  5
157
 70
1
 10
0.0
 20
0.0
 30
0.0
  2
*M3
  3
*M3
  0
LINE
  8
1
  5
159
  6
CONTINUOUS
 62
7
 10
205.0
 20
-165.0
 30
15.0
 11
205.0
 21
-159.44323
 31
15.0
  0
ARC
  8
1
  5
15B
  6
CONTINUOUS
 62
7
 10
200.9
 20
-159.443233
 30
15.0
 40
4.1
 50
0.0000013501
 51
105.0000235723
  0
LINE
  8
1
  5
15D
  6
CONTINUOUS
 62
7
 10
199.83884
 20
-155.48294
 30
15.0
 11
193.76116
 21
-157.11145
 31
15.0
  0
ARC
  8
1
  5
15F
  6
CONTINUOUS
 62
7
 210
0.0
 220
0.0
 230
-1.0
 10
-192.7
 20
-153.151153
 30
-15.0
 40
4.1
 50
254.9999972222
 51
360.0
  0
ARC
  8
1
  5
161
  6
CONTINUOUS
 62
7
 210
0.0
 220
0.0
 230
-1.0
 10
-192.7
 20
-146.848867
 30
-15.0
 40
4.1
 50
360.0
 51
104.9999861111
  0
LINE
  8
1
  5
163
  6
CONTINUOUS
 62
7
 10
193.76116
 20
-142.88857
 30
15.0
 11
199.83884
 21
-144.51708
 31
15.0
  0
ARC
  8
1
  5
165
  6
CONTINUOUS
 62
7
 10
200.9
 20
-140.556787
 30
15.0
 40
4.1
 50
254.9999944444
 51
360.0
  0
LINE
  8
1
  5
167
  6
CONTINUOUS
 62
7
 10
205.0
 20
-140.55679
 30
15.0
 11
205.0
 21
-134.44323
 31
15.0
  0
ARC
  8
1
  5
169
  6
CONTINUOUS
 62
7
 10
200.9
 20
-134.443232
 30
15.0
 40
4.1
 50
359.9999998226
 51
105.0000192671
  0
LINE
  8
1
  5
16B
  6
CONTINUOUS
 62
7
 10
199.83884
 20
-130.48294
 30
15.0
 11
193.76116
 21
-132.11145
 31
15.0
  0
ARC
  8
1
  5
16D
  6
CONTINUOUS
 62
7
 210
0.0
 220
0.0
 230
-1.0
 10
-192.7
 20
-128.151153
 30
-15.0
 40
4.1
 50
255.0000138889
 51
360.0
  0
ARC
  8
1
  5
16F
  6
CONTINUOUS
 62
7
 210
0.0
 220
0.0
 230
-1.0
 10
-192.7
 20
-121.848867
 30
-15.0
 40
4.1
 50
360.0
 51
104.9999861111
  0
LINE
  8
1
  5
171
  6
CONTINUOUS
 62
7
 10
193.76116
 20
-117.88857
 30
15.0
 11
199.83884
 21
-119.51708
 31
15.0
  0
ARC
  8
1
  5
173
  6
CONTINUOUS
 62
7
 10
200.9
 20
-115.556787
 30
15.0
 40
4.1
 50
254.9999916667
 51
360.0
  0
LINE
  8
1
  5
175
  6
CONTINUOUS
 62
7
 10
205.0
 20
-115.55679
 30
15.0
 11
205.0
 21
-109.44324
 31
15.0
  0
ARC
  8
1
  5
177
  6
CONTINUOUS
 62
7
 10
200.9
 20
-109.443237
 30
15.0
 40
4.1
 50
5.7414457110E-008
 51
104.9999695019
  0
LINE
  8
1
  5
179
  6
CONTINUOUS
 62
7
 10
199.83884
 20
-105.48294
 30
15.0
 11
193.76116
 21
-107.11145
 31
15.0
  0
ARC
  8
1
  5
17B
  6
CONTINUOUS
 62
7
 210
0.0
 220
0.0
 230
-1.0
 10
-192.7
 20
-103.151153
 30
-15.0
 40
4.1
 50
255.0000138889
 51
360.0
  0
ARC
  8
1
  5
17D
  6
CONTINUOUS
 62
7
 210
0.0
 220
0.0
 230
-1.0
 10
-192.7
 20
-96.848867
 30
-15.0
 40
4.1
 50
360.0
 51
104.9999861111
  0
LINE
  8
1
  5
17F
  6
CONTINUOUS
 62
7
 10
193.76116
 20
-92.88857
 30
15.0
 11
199.83884
 21
-94.51708
 31
15.0
  0
ARC
  8
1
  5
181
  6
CONTINUOUS
 62
7
 10
200.9
 20
-90.556785
 30
15.0
 40
4.1
 50
255.0000138889
 51
360.0
  0
LINE
  8
1
  5
183
  6
CONTINUOUS
 62
7
 10
205.0
 20
-90.55678
 30
15.0
 11
205.0
 21
-84.44323
 31
15.0
  0
ARC
  8
1
  5
185
  6
CONTINUOUS
 62
7
 10
200.9
 20
-84.443232
 30
15.0
 40
4.1
 50
0.0000003108
 51
105.0000114219
  0
LINE
  8
1
  5
187
  6
CONTINUOUS
 62
7
 10
199.83884
 20
-80.48294
 30
15.0
 11
193.76116
 21
-82.11145
 31
15.0
  0
ARC
  8
1
  5
189
  6
CONTINUOUS
 62
7
 210
0.0
 220
0.0
 230
-1.0
 10
-192.7
 20
-78.151153
 30
-15.0
 40
4.1
 50
255.0000138889
 51
360.0
  0
ARC
  8
1
  5
18B
  6
CONTINUOUS
 62
7
 210
0.0
 220
0.0
 230
-1.0
 10
-192.7
 20
-71.848867
 30
-15.0
 40
4.1
 50
360.0
 51
104.9999861111
  0
LINE
  8
1
  5
18D
  6
CONTINUOUS
 62
7
 10
193.76116
 20
-67.88857
 30
15.0
 11
199.83884
 21
-69.51708
 31
15.0
  0
ARC
  8
1
  5
18F
  6
CONTINUOUS
 62
7
 10
200.9
 20
-65.556786
 30
15.0
 40
4.1
 50
254.9999998358
 51
359.9999998358
  0
LINE
  8
1
  5
191
  6
CONTINUOUS
 62
7
 10
205.0
 20
-65.55679
 30
15.0
 11
205.0
 21
-59.44324
 31
15.0
  0
ARC
  8
1
  5
193
  6
CONTINUOUS
 62
7
 10
200.9
 20
-59.443238
 30
15.0
 40
4.1
 50
0.0000008562
 51
104.9999869674
  0
LINE
  8
1
  5
195
  6
CONTINUOUS
 62
7
 10
199.83884
 20
-55.48294
 30
15.0
 11
193.76116
 21
-57.11145
 31
15.0
  0
ARC
  8
1
  5
197
  6
CONTINUOUS
 62
7
 210
0.0
 220
0.0
 230
-1.0
 10
-192.7
 20
-53.151153
 30
-15.0
 40
4.1
 50
255.0000333333
 51
360.0
  0
ARC
  8
1
  5
199
  6
CONTINUOUS
 62
7
 210
0.0
 220
0.0
 230
-1.0
 10
-192.7
 20
-46.848867
 30
-15.0
 40
4.1
 50
360.0
 51
104.9999861111
  0
LINE
  8
1
  5
19B
  6
CONTINUOUS
 62
7
 10
193.76116
 20
-42.88857
 30
15.0
 11
199.83884
 21
-44.51708
 31
15.0
  0
ARC
  8
1
  5
19D
  6
CONTINUOUS
 62
7
 10
200.9
 20
-40.556786
 30
15.0
 40
4.1
 50
255.0000055556
 51
5.0888874903E-014
  0
LINE
  8
1
  5
19F
  6
CONTINUOUS
 62
7
 10
205.0
 20
-40.55679
 30
15.0
 11
205.0
 21
-34.44323
 31
15.0
  0
ARC
  8
1
  5
1A1
  6
CONTINUOUS
 62
7
 10
200.9
 20
-34.443231
 30
15.0
 40
4.1
 50
0.0000002045
 51
105.0000446489
  0
LINE
  8
1
  5
1A3
  6
CONTINUOUS
 62
7
 10
199.83884
 20
-30.48294
 30
15.0
 11
193.76116
 21
-32.11145
 31
15.0
  0
ARC
  8
1
  5
1A5
  6
CONTINUOUS
 62
7
 210
0.0
 220
0.0
 230
-1.0
 10
-192.7
 20
-28.151153
 30
-15.0
 40
4.1
 50
254.999975
 51
360.0
  0
ARC
  8
1
  5
1A7
  6
CONTINUOUS
 62
7
 210
0.0
 220
0.0
 230
-1.0
 10
-192.7
 20
-21.848867
 30
-15.0
 40
4.1
 50
360.0
 51
104.9999861111
  0
LINE
  8
1
  5
1A9
  6
CONTINUOUS
 62
7
 10
193.76116
 20
-17.88857
 30
15.0
 11
199.83884
 21
-19.51708
 31
15.0
  0
ARC
  8
1
  5
1AB
  6
CONTINUOUS
 62
7
 10
200.9
 20
-15.556785
 30
15.0
 40
4.1
 50
255.0000138889
 51
360.0
  0
LINE
  8
1
  5
1AD
  6
CONTINUOUS
 62
7
 10
205.0
 20
-15.55678
 30
15.0
 11
205.0
 21
-10.0
 31
15.0
  0
LINE
  8
1
  5
1AF
  6
CONTINUOUS
 62
7
 10
199.83884
 20
-19.51708
 30
25.0
 11
193.76116
 21
-17.88857
 31
25.0
  0
LINE
  8
1
  5
1B1
  6
CONTINUOUS
 62
7
 10
199.83884
 20
-19.51708
 30
15.0
 11
199.83884
 21
-19.51708
 31
25.0
  0
LINE
  8
1
  5
1B3
  6
CONTINUOUS
 62
7
 10
193.76116
 20
-17.88857
 30
15.0
 11
193.76116
 21
-17.88857
 31
25.0
  0
ARC
  8
1
  5
1B5
  6
CONTINUOUS
 62
7
 10
192.7
 20
-21.848867
 30
25.0
 40
4.1
 50
75.0000138889
 51
180.0
  0
LINE
  8
1
  5
1B7
  6
CONTINUOUS
 62
7
 10
188.6
 20
-21.84887
 30
25.0
 11
188.6
 21
-21.84887
 31
15.0
  0
ARC
  8
1
  5
1B9
  6
CONTINUOUS
 62
7
 10
192.7
 20
-28.151153
 30
25.0
 40
4.1
 50
180.0
 51
285.000025
  0
LINE
  8
1
  5
1BB
  6
CONTINUOUS
 62
7
 10
188.6
 20
-28.15115
 30
25.0
 11
188.6
 21
-28.15115
 31
15.0
  0
LINE
  8
1
  5
1BD
  6
CONTINUOUS
 62
7
 10
193.76116
 20
-32.11145
 30
15.0
 11
193.76116
 21
-32.11145
 31
25.0
  0
LINE
  8
1
  5
1BF
  6
CONTINUOUS
 62
7
 10
193.76116
 20
-32.11145
 30
25.0
 11
199.83884
 21
-30.48294
 31
25.0
  0
LINE
  8
1
  5
1C1
  6
CONTINUOUS
 62
7
 10
199.83884
 20
-30.48294
 30
15.0
 11
199.83884
 21
-30.48294
 31
25.0
  0
ARC
  8
1
  5
1C3
  6
CONTINUOUS
 62
7
 210
0.0
 220
0.0
 230
-1.0
 10
-200.9
 20
-34.443231
 30
-25.0
 40
4.1
 50
74.9999581288
 51
180.0000025733
  0
LINE
  8
1
  5
1C5
  6
CONTINUOUS
 62
7
 10
205.0
 20
-34.44323
 30
15.0
 11
205.0
 21
-34.44323
 31
25.0
  0
LINE
  8
1
  5
1C7
  6
CONTINUOUS
 62
7
 10
205.0
 20
-34.44323
 30
25.0
 11
205.0
 21
-40.55679
 31
25.0
  0
LINE
  8
1
  5
1C9
  6
CONTINUOUS
 62
7
 10
205.0
 20
-40.55679
 30
15.0
 11
205.0
 21
-40.55679
 31
25.0
  0
ARC
  8
1
  5
1CB
  6
CONTINUOUS
 62
7
 210
0.0
 220
0.0
 230
-1.0
 10
-200.9
 20
-40.556786
 30
-25.0
 40
4.1
 50
180.0
 51
284.9999944444
  0
LINE
  8
1
  5
1CD
  6
CONTINUOUS
 62
7
 10
199.83884
 20
-44.51708
 30
15.0
 11
199.83884
 21
-44.51708
 31
25.0
  0
LINE
  8
1
  5
1CF
  6
CONTINUOUS
 62
7
 10
199.83884
 20
-44.51708
 30
25.0
 11
193.76116
 21
-42.88857
 31
25.0
  0
LINE
  8
1
  5
1D1
  6
CONTINUOUS
 62
7
 10
193.76116
 20
-42.88857
 30
15.0
 11
193.76116
 21
-42.88857
 31
25.0
  0
ARC
  8
1
  5
1D3
  6
CONTINUOUS
 62
7
 10
192.7
 20
-46.848867
 30
25.0
 40
4.1
 50
75.0000138889
 51
180.0
  0
LINE
  8
1
  5
1D5
  6
CONTINUOUS
 62
7
 10
188.6
 20
-46.84887
 30
25.0
 11
188.6
 21
-46.84887
 31
15.0
  0
ARC
  8
1
  5
1D7
  6
CONTINUOUS
 62
7
 10
192.7
 20
-53.151153
 30
25.0
 40
4.1
 50
180.0
 51
284.9999666667
  0
LINE
  8
1
  5
1D9
  6
CONTINUOUS
 62
7
 10
188.6
 20
-53.15115
 30
25.0
 11
188.6
 21
-53.15115
 31
15.0
  0
LINE
  8
1
  5
1DB
  6
CONTINUOUS
 62
7
 10
193.76116
 20
-57.11145
 30
15.0
 11
193.76116
 21
-57.11145
 31
25.0
  0
LINE
  8
1
  5
1DD
  6
CONTINUOUS
 62
7
 10
193.76116
 20
-57.11145
 30
25.0
 11
199.83884
 21
-55.48294
 31
25.0
  0
LINE
  8
1
  5
1DF
  6
CONTINUOUS
 62
7
 10
199.83884
 20
-55.48294
 30
15.0
 11
199.83884
 21
-55.48294
 31
25.0
  0
ARC
  8
1
  5
1E1
  6
CONTINUOUS
 62
7
 210
0.0
 220
0.0
 230
-1.0
 10
-200.9
 20
-59.443238
 30
-25.0
 40
4.1
 50
75.0000158104
 51
180.0000019215
  0
LINE
  8
1
  5
1E3
  6
CONTINUOUS
 62
7
 10
205.0
 20
-59.44324
 30
15.0
 11
205.0
 21
-59.44324
 31
25.0
  0
LINE
  8
1
  5
1E5
  6
CONTINUOUS
 62
7
 10
205.0
 20
-59.44324
 30
25.0
 11
205.0
 21
-65.55679
 31
25.0
  0
LINE
  8
1
  5
1E7
  6
CONTINUOUS
 62
7
 10
205.0
 20
-65.55679
 30
15.0
 11
205.0
 21
-65.55679
 31
25.0
  0
ARC
  8
1
  5
1E9
  6
CONTINUOUS
 62
7
 210
0.0
 220
0.0
 230
-1.0
 10
-200.9
 20
-65.556786
 30
-25.0
 40
4.1
 50
180.0000001642
 51
285.0000001642
  0
LINE
  8
1
  5
1EB
  6
CONTINUOUS
 62
7
 10
199.83884
 20
-69.51708
 30
15.0
 11
199.83884
 21
-69.51708
 31
25.0
  0
LINE
  8
1
  5
1ED
  6
CONTINUOUS
 62
7
 10
199.83884
 20
-69.51708
 30
25.0
 11
193.76116
 21
-67.88857
 31
25.0
  0
LINE
  8
1
  5
1EF
  6
CONTINUOUS
 62
7
 10
193.76116
 20
-67.88857
 30
15.0
 11
193.76116
 21
-67.88857
 31
25.0
  0
ARC
  8
1
  5
1F1
  6
CONTINUOUS
 62
7
 10
192.7
 20
-71.848867
 30
25.0
 40
4.1
 50
75.0000138889
 51
180.0
  0
LINE
  8
1
  5
1F3
  6
CONTINUOUS
 62
7
 10
188.6
 20
-71.84887
 30
25.0
 11
188.6
 21
-71.84887
 31
15.0
  0
ARC
  8
1
  5
1F5
  6
CONTINUOUS
 62
7
 10
192.7
 20
-78.151153
 30
25.0
 40
4.1
 50
180.0
 51
284.9999861111
  0
LINE
  8
1
  5
1F7
  6
CONTINUOUS
 62
7
 10
188.6
 20
-78.15115
 30
25.0
 11
188.6
 21
-78.15115
 31
15.0
  0
LINE
  8
1
  5
1F9
  6
CONTINUOUS
 62
7
 10
193.76116
 20
-82.11145
 30
15.0
 11
193.76116
 21
-82.11145
 31
25.0
  0
LINE
  8
1
  5
1FB
  6
CONTINUOUS
 62
7
 10
193.76116
 20
-82.11145
 30
25.0
 11
199.83884
 21
-80.48294
 31
25.0
  0
LINE
  8
1
  5
1FD
  6
CONTINUOUS
 62
7
 10
199.83884
 20
-80.48294
 30
15.0
 11
199.83884
 21
-80.48294
 31
25.0
  0
ARC
  8
1
  5
1FF
  6
CONTINUOUS
 62
7
 210
0.0
 220
0.0
 230
-1.0
 10
-200.9
 20
-84.443232
 30
-25.0
 40
4.1
 50
74.9999885781
 51
179.9999996892
  0
LINE
  8
1
  5
201
  6
CONTINUOUS
 62
7
 10
205.0
 20
-84.44323
 30
15.0
 11
205.0
 21
-84.44323
 31
25.0
  0
LINE
  8
1
  5
203
  6
CONTINUOUS
 62
7
 10
205.0
 20
-84.44323
 30
25.0
 11
205.0
 21
-90.55678
 31
25.0
  0
LINE
  8
1
  5
205
  6
CONTINUOUS
 62
7
 10
205.0
 20
-90.55678
 30
15.0
 11
205.0
 21
-90.55678
 31
25.0
  0
ARC
  8
1
  5
207
  6
CONTINUOUS
 62
7
 210
0.0
 220
0.0
 230
-1.0
 10
-200.9
 20
-90.556785
 30
-25.0
 40
4.1
 50
180.0
 51
284.9999861111
  0
LINE
  8
1
  5
209
  6
CONTINUOUS
 62
7
 10
199.83884
 20
-94.51708
 30
15.0
 11
199.83884
 21
-94.51708
 31
25.0
  0
LINE
  8
1
  5
20B
  6
CONTINUOUS
 62
7
 10
199.83884
 20
-94.51708
 30
25.0
 11
193.76116
 21
-92.88857
 31
25.0
  0
LINE
  8
1
  5
20D
  6
CONTINUOUS
 62
7
 10
193.76116
 20
-92.88857
 30
15.0
 11
193.76116
 21
-92.88857
 31
25.0
  0
ARC
  8
1
  5
20F
  6
CONTINUOUS
 62
7
 10
192.7
 20
-96.848867
 30
25.0
 40
4.1
 50
75.0000138889
 51
180.0
  0
LINE
  8
1
  5
211
  6
CONTINUOUS
 62
7
 10
188.6
 20
-96.84887
 30
25.0
 11
188.6
 21
-96.84887
 31
15.0
  0
ARC
  8
1
  5
213
  6
CONTINUOUS
 62
7
 10
192.7
 20
-103.151153
 30
25.0
 40
4.1
 50
180.0
 51
284.9999861111
  0
LINE
  8
1
  5
215
  6
CONTINUOUS
 62
7
 10
188.6
 20
-103.15115
 30
25.0
 11
188.6
 21
-103.15115
 31
15.0
  0
LINE
  8
1
  5
217
  6
CONTINUOUS
 62
7
 10
193.76116
 20
-107.11145
 30
15.0
 11
193.76116
 21
-107.11145
 31
25.0
  0
LINE
  8
1
  5
219
  6
CONTINUOUS
 62
7
 10
193.76116
 20
-107.11145
 30
25.0
 11
199.83884
 21
-105.48294
 31
25.0
  0
LINE
  8
1
  5
21B
  6
CONTINUOUS
 62
7
 10
199.83884
 20
-105.48294
 30
15.0
 11
199.83884
 21
-105.48294
 31
25.0
  0
ARC
  8
1
  5
21D
  6
CONTINUOUS
 62
7
 210
0.0
 220
0.0
 230
-1.0
 10
-200.9
 20
-109.443237
 30
-25.0
 40
4.1
 50
75.0000304981
 51
179.9999999426
  0
LINE
  8
1
  5
21F
  6
CONTINUOUS
 62
7
 10
205.0
 20
-109.44324
 30
15.0
 11
205.0
 21
-109.44324
 31
25.0
  0
LINE
  8
1
  5
221
  6
CONTINUOUS
 62
7
 10
205.0
 20
-109.44324
 30
25.0
 11
205.0
 21
-115.55679
 31
25.0
  0
LINE
  8
1
  5
223
  6
CONTINUOUS
 62
7
 10
205.0
 20
-115.55679
 30
15.0
 11
205.0
 21
-115.55679
 31
25.0
  0
ARC
  8
1
  5
225
  6
CONTINUOUS
 62
7
 210
0.0
 220
0.0
 230
-1.0
 10
-200.9
 20
-115.556787
 30
-25.0
 40
4.1
 50
180.0
 51
285.0000083333
  0
LINE
  8
1
  5
227
  6
CONTINUOUS
 62
7
 10
199.83884
 20
-119.51708
 30
15.0
 11
199.83884
 21
-119.51708
 31
25.0
  0
LINE
  8
1
  5
229
  6
CONTINUOUS
 62
7
 10
199.83884
 20
-119.51708
 30
25.0
 11
193.76116
 21
-117.88857
 31
25.0
  0
LINE
  8
1
  5
22B
  6
CONTINUOUS
 62
7
 10
193.76116
 20
-117.88857
 30
15.0
 11
193.76116
 21
-117.88857
 31
25.0
  0
ARC
  8
1
  5
22D
  6
CONTINUOUS
 62
7
 10
192.7
 20
-121.848867
 30
25.0
 40
4.1
 50
75.0000138889
 51
180.0
  0
LINE
  8
1
  5
22F
  6
CONTINUOUS
 62
7
 10
188.6
 20
-121.84887
 30
25.0
 11
188.6
 21
-121.84887
 31
15.0
  0
ARC
  8
1
  5
231
  6
CONTINUOUS
 62
7
 10
192.7
 20
-128.151153
 30
25.0
 40
4.1
 50
180.0
 51
284.9999861111
  0
LINE
  8
1
  5
233
  6
CONTINUOUS
 62
7
 10
188.6
 20
-128.15115
 30
25.0
 11
188.6
 21
-128.15115
 31
15.0
  0
LINE
  8
1
  5
235
  6
CONTINUOUS
 62
7
 10
193.76116
 20
-132.11145
 30
15.0
 11
193.76116
 21
-132.11145
 31
25.0
  0
LINE
  8
1
  5
237
  6
CONTINUOUS
 62
7
 10
193.76116
 20
-132.11145
 30
25.0
 11
199.83884
 21
-130.48294
 31
25.0
  0
LINE
  8
1
  5
239
  6
CONTINUOUS
 62
7
 10
199.83884
 20
-130.48294
 30
15.0
 11
199.83884
 21
-130.48294
 31
25.0
  0
ARC
  8
1
  5
23B
  6
CONTINUOUS
 62
7
 210
0.0
 220
0.0
 230
-1.0
 10
-200.9
 20
-134.443232
 30
-25.0
 40
4.1
 50
74.9999807329
 51
180.0000001774
  0
LINE
  8
1
  5
23D
  6
CONTINUOUS
 62
7
 10
205.0
 20
-134.44323
 30
15.0
 11
205.0
 21
-134.44323
 31
25.0
  0
LINE
  8
1
  5
23F
  6
CONTINUOUS
 62
7
 10
205.0
 20
-134.44323
 30
25.0
 11
205.0
 21
-140.55679
 31
25.0
  0
LINE
  8
1
  5
241
  6
CONTINUOUS
 62
7
 10
205.0
 20
-140.55679
 30
15.0
 11
205.0
 21
-140.55679
 31
25.0
  0
ARC
  8
1
  5
243
  6
CONTINUOUS
 62
7
 210
0.0
 220
0.0
 230
-1.0
 10
-200.9
 20
-140.556787
 30
-25.0
 40
4.1
 50
180.0
 51
285.0000055556
  0
LINE
  8
1
  5
245
  6
CONTINUOUS
 62
7
 10
199.83884
 20
-144.51708
 30
15.0
 11
199.83884
 21
-144.51708
 31
25.0
  0
LINE
  8
1
  5
247
  6
CONTINUOUS
 62
7
 10
199.83884
 20
-144.51708
 30
25.0
 11
193.76116
 21
-142.88857
 31
25.0
  0
LINE
  8
1
  5
249
  6
CONTINUOUS
 62
7
 10
193.76116
 20
-142.88857
 30
15.0
 11
193.76116
 21
-142.88857
 31
25.0
  0
ARC
  8
1
  5
24B
  6
CONTINUOUS
 62
7
 10
192.7
 20
-146.848867
 30
25.0
 40
4.1
 50
75.0000138889
 51
180.0
  0
LINE
  8
1
  5
24D
  6
CONTINUOUS
 62
7
 10
188.6
 20
-146.84887
 30
25.0
 11
188.6
 21
-146.84887
 31
15.0
  0
ARC
  8
1
  5
24F
  6
CONTINUOUS
 62
7
 10
192.7
 20
-153.151153
 30
25.0
 40
4.1
 50
180.0
 51
285.0000027778
  0
LINE
  8
1
  5
251
  6
CONTINUOUS
 62
7
 10
188.6
 20
-153.15115
 30
25.0
 11
188.6
 21
-153.15115
 31
15.0
  0
LINE
  8
1
  5
253
  6
CONTINUOUS
 62
7
 10
193.76116
 20
-157.11145
 30
15.0
 11
193.76116
 21
-157.11145
 31
25.0
  0
LINE
  8
1
  5
255
  6
CONTINUOUS
 62
7
 10
193.76116
 20
-157.11145
 30
25.0
 11
199.83884
 21
-155.48294
 31
25.0
  0
LINE
  8
1
  5
257
  6
CONTINUOUS
 62
7
 10
199.83884
 20
-155.48294
 30
15.0
 11
199.83884
 21
-155.48294
 31
25.0
  0
ARC
  8
1
  5
259
  6
CONTINUOUS
 62
7
 210
0.0
 220
0.0
 230
-1.0
 10
-200.9
 20
-159.443233
 30
-25.0
 40
4.1
 50
74.9999792055
 51
180.0000014277
  0
LINE
  8
1
  5
25B
  6
CONTINUOUS
 62
7
 10
205.0
 20
-159.44323
 30
15.0
 11
205.0
 21
-159.44323
 31
25.0
  0
LINE
  8
1
  5
25D
  6
CONTINUOUS
 62
7
 10
205.0
 20
-159.44323
 30
25.0
 11
205.0
 21
-165.0
 31
25.0
  0
LINE
  8
1
  5
25F
  6
CONTINUOUS
 62
7
 10
205.0
 20
-165.0
 30
25.0
 11
205.0
 21
-165.0
 31
15.0
  0
LINE
  8
1
  5
261
  6
CONTINUOUS
 62
7
 10
205.0
 20
-10.0
 30
25.0
 11
205.0
 21
-15.55678
 31
25.0
  0
LINE
  8
1
  5
263
  6
CONTINUOUS
 62
7
 10
205.0
 20
-10.0
 30
15.0
 11
205.0
 21
-10.0
 31
25.0
  0
LINE
  8
1
  5
265
  6
CONTINUOUS
 62
7
 10
205.0
 20
-15.55678
 30
15.0
 11
205.0
 21
-15.55678
 31
25.0
  0
ARC
  8
1
  5
267
  6
CONTINUOUS
 62
7
 210
0.0
 220
0.0
 230
-1.0
 10
-200.9
 20
-15.556785
 30
-25.0
 40
4.1
 50
180.0
 51
284.9999861111
  0
ENDBLK
  8
1
  5
268
  0
BLOCK
  8
1
  5
26A
 70
1
 10
0.0
 20
0.0
 30
0.0
  2
*M4
  3
*M4
  0
LINE
  8
1
  5
26C
  6
CONTINUOUS
 62
7
 10
210.0
 20
-165.0
 30
10.0
 11
210.0
 21
-10.0
 31
10.0
  0
LINE
  8
1
  5
26E
  6
CONTINUOUS
 62
7
 10
210.0
 20
-165.0
 30
15.0
 11
210.0
 21
-165.0
 31
10.0
  0
LINE
  8
1
  5
270
  6
CONTINUOUS
 62
7
 10
210.0
 20
-165.0
 30
15.0
 11
210.0
 21
-10.0
 31
15.0
  0
LINE
  8
1
  5
272
  6
CONTINUOUS
 62
7
 10
210.0
 20
-10.0
 30
10.0
 11
210.0
 21
-10.0
 31
15.0
  0
LINE
  8
1
  5
274
  6
CONTINUOUS
 62
7
 10
188.6
 20
-146.84887
 30
15.0
 11
188.6
 21
-153.15115
 31
15.0
  0
LINE
  8
1
  5
276
  6
CONTINUOUS
 62
7
 10
188.6
 20
-121.84887
 30
15.0
 11
188.6
 21
-128.15115
 31
15.0
  0
LINE
  8
1
  5
278
  6
CONTINUOUS
 62
7
 10
188.6
 20
-96.84887
 30
15.0
 11
188.6
 21
-103.15115
 31
15.0
  0
LINE
  8
1
  5
27A
  6
CONTINUOUS
 62
7
 10
188.6
 20
-71.84887
 30
15.0
 11
188.6
 21
-78.15115
 31
15.0
  0
LINE
  8
1
  5
27C
  6
CONTINUOUS
 62
7
 10
188.6
 20
-46.84887
 30
15.0
 11
188.6
 21
-53.15115
 31
15.0
  0
LINE
  8
1
  5
27E
  6
CONTINUOUS
 62
7
 10
188.6
 20
-21.84887
 30
15.0
 11
188.6
 21
-28.15115
 31
15.0
  0
LINE
  8
1
  5
280
  6
CONTINUOUS
 62
7
 10
210.0
 20
-10.0
 30
15.0
 11
205.0
 21
-10.0
 31
15.0
  0
LINE
  8
1
  5
282
  6
CONTINUOUS
 62
7
 10
205.0
 20
-165.0
 30
15.0
 11
210.0
 21
-165.0
 31
15.0
  0
ENDBLK
  8
1
  5
283
  0
BLOCK
  8
1
  5
285
 70
1
 10
0.0
 20
0.0
 30
0.0
  2
*M5
  3
*M5
  0
INSERT
  8
1
  5
287
  6
CONTINUOUS
 62
7
  2
*M3
 10
0.0
 20
0.0
 30
0.0
 41
1.0
 42
1.0
 43
1.0
 70
1
 71
1
  0
INSERT
  8
1
  5
289
  6
CONTINUOUS
 62
7
  2
*M4
 10
0.0
 20
0.0
 30
0.0
 41
1.0
 42
1.0
 43
1.0
 70
1
 71
1
  0
ENDBLK
  8
1
  5
28A
  0
BLOCK
  8
1
  5
28C
 70
1
 10
0.0
 20
0.0
 30
0.0
  2
*M6
  3
*M6
  0
LINE
  8
1
  5
28E
  6
CONTINUOUS
 62
7
 10
261.4
 20
-165.0
 30
15.0
 11
480.0
 21
-165.0
 31
15.0
  0
LINE
  8
1
  5
290
  6
CONTINUOUS
 62
7
 10
480.0
 20
-165.0
 30
15.0
 11
480.0
 21
-165.0
 31
30.0
  0
LINE
  8
1
  5
292
  6
CONTINUOUS
 62
7
 10
480.0
 20
-165.0
 30
30.0
 11
256.4
 21
-165.0
 31
30.0
  0
LINE
  8
1
  5
294
  6
CONTINUOUS
 62
7
 10
480.0
 20
-10.0
 30
15.0
 11
261.4
 21
-10.0
 31
15.0
  0
LINE
  8
1
  5
296
  6
CONTINUOUS
 62
7
 10
480.0
 20
-165.0
 30
15.0
 11
480.0
 21
-10.0
 31
15.0
  0
LINE
  8
1
  5
298
  6
CONTINUOUS
 62
7
 10
256.4
 20
-10.0
 30
30.0
 11
480.0
 21
-10.0
 31
30.0
  0
LINE
  8
1
  5
29A
  6
CONTINUOUS
 62
7
 10
480.0
 20
-10.0
 30
15.0
 11
480.0
 21
-10.0
 31
30.0
  0
LINE
  8
1
  5
29C
  6
CONTINUOUS
 62
7
 10
240.0
 20
-146.84887
 30
30.0
 11
240.0
 21
-153.15115
 31
30.0
  0
LINE
  8
1
  5
29E
  6
CONTINUOUS
 62
7
 10
240.0
 20
-21.84887
 30
30.0
 11
240.0
 21
-28.15115
 31
30.0
  0
LINE
  8
1
  5
2A0
  6
CONTINUOUS
 62
7
 10
240.0
 20
-46.84887
 30
30.0
 11
240.0
 21
-53.15115
 31
30.0
  0
LINE
  8
1
  5
2A2
  6
CONTINUOUS
 62
7
 10
240.0
 20
-71.84887
 30
30.0
 11
240.0
 21
-78.15115
 31
30.0
  0
LINE
  8
1
  5
2A4
  6
CONTINUOUS
 62
7
 10
240.0
 20
-96.84887
 30
30.0
 11
240.0
 21
-103.15115
 31
30.0
  0
LINE
  8
1
  5
2A6
  6
CONTINUOUS
 62
7
 10
240.0
 20
-121.84887
 30
30.0
 11
240.0
 21
-128.15115
 31
30.0
  0
LINE
  8
1
  5
2A8
  6
CONTINUOUS
 62
7
 10
480.0
 20
-10.0
 30
30.0
 11
480.0
 21
-165.0
 31
30.0
  0
ENDBLK
  8
1
  5
2A9
  0
BLOCK
  8
1
  5
2AB
 70
1
 10
0.0
 20
0.0
 30
0.0
  2
*M7
  3
*M7
  0
INSERT
  8
1
  5
2AD
  6
CONTINUOUS
 62
7
  2
*M5
 10
0.0
 20
0.0
 30
0.0
 41
1.0
 42
1.0
 43
1.0
 70
1
 71
1
  0
INSERT
  8
1
  5
2AF
  6
CONTINUOUS
 62
7
  2
*M6
 10
-51.4
 20
0.0
 30
-5.0
 41
1.0
 42
1.0
 43
1.0
 70
1
 71
1
  0
ENDBLK
  8
1
  5
2B0
  0
ENDSEC
  0
SECTION
  2
ENTITIES
  0
INSERT
  8
1
  5
2
  6
CONTINUOUS
 62
7
  2
*M2
 10
0.0
 20
0.0
 30
0.0
 41
1.0
 42
1.0
 43
1.0
 70
1
 71
1
  0
INSERT
  8
1
  5
4
  6
CONTINUOUS
 62
7
  2
*M7
 10
71.4
 20
0.0
 30
0.0
 41
1.0
 42
1.0
 43
1.0
 70
1
 71
1
  0
ENDSEC
  0
EOF
