  0
SECTION
  2
HEADER
  9
$ACADVER
  1
AC1009
  9
$INSBASE
 10
0.0
 20
0.0
 30
0.0
  9
$EXTMAX
 10
546.50088
 20
335.73894
 30
15.0
  9
$EXTMIN
 10
16.50088
 20
60.73894
 30
-0.00001
  9
$LIMMAX
 10
12.0
 20
9.0
  9
$LIMMIN
 10
0.0
 20
0.0
  9
$ORTHOMODE
 70
0
  9
$REGENMODE
 70
1
  9
$FILLMODE
 70
1
  9
$QTEXTMODE
 70
0
  9
$MIRRTEXT
 70
1
  9
$DRAGMODE
 70
2
  9
$LTSCALE
 40
1.0
  9
$OSMODE
 70
0
  9
$ATTMODE
 70
1
  9
$TEXTSIZE
 40
0.2
  9
$TRACEWID
 40
0.05
  9
$TEXTSTYLE
  7
STANDARD
  9
$CLAYER
  8
0
  9
$CELTYPE
  6
CONTINUOUS
  9
$CECOLOR
 62
256
  9
$DIMSCALE
 40
1.0
  9
$DIMASZ
 40
0.18
  9
$DIMEXO
 40
0.0625
  9
$DIMDLI
 40
0.38
  9
$DIMRND
 40
0.0
  9
$DIMDLE
 40
0.0
  9
$DIMEXE
 40
0.18
  9
$DIMTP
 40
0.0
  9
$DIMTM
 40
0.0
  9
$DIMTXT
 40
0.18
  9
$DIMCEN
 40
0.09
  9
$DIMTSZ
 40
0.0
  9
$DIMTOL
 70
0
  9
$DIMLIM
 70
0
  9
$DIMTIH
 70
1
  9
$DIMTOH
 70
1
  9
$DIMSE1
 70
0
  9
$DIMSE2
 70
0
  9
$DIMTAD
 70
0
  9
$DIMZIN
 70
0
  9
$DIMBLK
  1

  9
$DIMASO
 70
1
  9
$DIMSHO
 70
1
  9
$DIMPOST
  1

  9
$DIMAPOST
  1

  9
$DIMALT
 70
0
  9
$DIMALTD
 70
2
  9
$DIMALTF
 40
25.4
  9
$DIMLFAC
 40
1.0
  9
$DIMTOFL
 70
0
  9
$DIMTVP
 40
0.0
  9
$DIMTIX
 70
0
  9
$DIMSOXD
 70
0
  9
$DIMSAH
 70
0
  9
$DIMBLK1
  1

  9
$DIMBLK2
  1

  9
$DIMSTYLE
  2
*UNNAMED
  9
$DIMCLRD
 70
0
  9
$DIMCLRE
 70
0
  9
$DIMCLRT
 70
0
  9
$DIMTFAC
 40
1.0
  9
$DIMGAP
 40
0.09
  9
$LUNITS
 70
2
  9
$LUPREC
 70
4
  9
$AXISMODE
 70
0
  9
$AXISUNIT
 10
0.0
 20
0.0
  9
$SKETCHINC
 40
0.1
  9
$FILLETRAD
 40
0.0
  9
$AUNITS
 70
0
  9
$AUPREC
 70
0
  9
$MENU
  1
acad
  9
$ELEVATION
 40
0.0
  9
$PELEVATION
 40
0.0
  9
$THICKNESS
 40
0.0
  9
$LIMCHECK
 70
0
  9
$BLIPMODE
 70
1
  9
$CHAMFERA
 40
0.0
  9
$CHAMFERB
 40
0.0
  9
$SKPOLY
 70
0
  9
$TDCREATE
 40
0.0
  9
$TDUPDATE
 40
0.0
  9
$TDINDWG
 40
0.0
  9
$TDUSRTIMER
 40
0.0
  9
$USRTIMER
 70
1
  9
$ANGBASE
 50
0.0
  9
$ANGDIR
 70
0
  9
$PDMODE
 70
0
  9
$PDSIZE
 40
0.0
  9
$PLINEWID
 40
0.0
  9
$COORDS
 70
0
  9
$SPLFRAME
 70
0
  9
$SPLINETYPE
 70
6
  9
$SPLINESEGS
 70
10
  9
$ATTDIA
 70
0
  9
$ATTREQ
 70
1
  9
$HANDLING
 70
1
  9
$HANDSEED
  5
319
  9
$SURFTAB1
 70
6
  9
$SURFTAB2
 70
6
  9
$SURFTYPE
 70
6
  9
$SURFU
 70
10
  9
$SURFV
 70
10
  9
$UCSNAME
  2

  9
$UCSORG
 10
0.0
 20
0.0
 30
0.0
  9
$UCSXDIR
 10
1.0
 20
0.0
 30
0.0
  9
$UCSYDIR
 10
0.0
 20
1.0
 30
0.0
  9
$PUCSNAME
  2
 
  9
$PUCSORG
 10
0.0
 20
0.0
 30
0.0
  9
$PUCSXDIR
 10
1.0
 20
0.0
 30
0.0
  9
$PUCSYDIR
 10
0.0
 20
1.0
 30
0.0
  9
$USERI1
 70
0
  9
$USERI2
 70
0
  9
$USERI3
 70
0
  9
$USERI4
 70
0
  9
$USERI5
 70
0
  9
$USERR1
 40
0.0
  9
$USERR2
 40
0.0
  9
$USERR3
 40
0.0
  9
$USERR4
 40
0.0
  9
$USERR5
 40
0.0
  9
$WORLDVIEW
 70
1
  9
$SHADEDGE
 70
3
  9
$SHADEDIF
 70
70
  9
$TILEMODE
 70
1
  9
$MAXACTVP
 70
16
  9
$PINSBASE
 10
0.0
 20
0.0
 30
0.0
  9
$PLIMCHECK
 70
0
  9
$PEXTMIN
 10
-1.000000E+020
 20
-1.000000E+020
 30
-1.000000E+020
  9
$PEXTMAX
 10
-1.000000E+020
 20
-1.000000E+020
 30
-1.000000E+020
  9
$PLIMMIN
 10
0.0
 20
0.0
  9
$PLIMMAX
 10
12.0
 20
9.0
  9
$UNITMODE
 70
0
  9
$VISRETAIN
 70
0
  0
ENDSEC
  0
SECTION
  2
TABLES
  0
TABLE
  2
LTYPE
 70
7
  0
LTYPE
  2
CONTINUOUS
 70
64
  3
Solid line
 72
65
 73
0
 40
0.0
  0
LTYPE
  2
DOT
 70
64
  3
. . . . . . . . . . . . . . . . . . . . . . . . . . . . . . . . .
 72
65
 73
2
 40
0.25
 49
0.0
 49
-0.25
  0
LTYPE
  2
HIDDEN
 70
64
  3
__ __ __ __ __ __ __ __ __ __ __ __ __ __ __ __ __ __ __ __ __ 
 72
65
 73
2
 40
0.375
 49
0.25
 49
-0.125
  0
LTYPE
  2
DASHED
 70
64
  3
__ __ __ __ __ __ __ __ __ __ __ __ __ __ __ __ __ __ __ __ __
 72
65
 73
2
 40
0.75
 49
0.5
 49
-0.25
  0
LTYPE
  2
DASHDOT
 70
64
  3
__ . __ . __ . __ . __ . __ . __ . __ . __ . __ . __ . __ . _
 72
65
 73
4
 40
1.0
 49
0.5
 49
-0.25
 49
0.0
 49
-0.25
  0
LTYPE
  2
DIVIDE
 70
64
  3
____ . . ____ . . ____ . . ____ . . ____ . . ____ . . ____ . .
 72
65
 73
6
 40
1.25
 49
0.5
 49
-0.25
 49
0.0
 49
-0.25
 49
0.0
 49
-0.25
  0
LTYPE
  2
CENTER
 70
64
  3
____ _ ____ _ ____ _ ____ _ ____ _ ____ _ ____ _ ____ _ ____ _
 72
65
 73
4
 40
2.0
 49
1.25
 49
-0.25
 49
0.25
 49
-0.25
  0
ENDTAB
  0
TABLE
  2
APPID
 70
1
  0
APPID
  2
ACAD
 70
0
  0
ENDTAB
  0
TABLE
  2
DIMSTYLE
 70
0
  0
ENDTAB
  0
TABLE
  2
LAYER
 70
4
  0
LAYER
  2
0
 70
0
 62
7
  6
CONTINUOUS
  0
LAYER
  2
CONSTRUCTION_CLASS
 70
0
 62
7
  6
CONTINUOUS
  0
LAYER
  2
PATTERN_CLASS
 70
0
 62
7
  6
CONTINUOUS
  0
LAYER
  2
1
 70
0
 62
7
  6
CONTINUOUS
  0
ENDTAB
  0
TABLE
  2
STYLE
 70
1
  0
STYLE
  2
ROMANS
 70
0
 40
0.2
 41
1.0
 50
0.0
 71
0
 42
0.2
  3
ROMANS
  4

  0
ENDTAB
  0
TABLE
  2
UCS
 70
0
  0
ENDTAB
  0
TABLE
  2
VIEW
 70
2
  0
VIEW
  2
AN_4
 70
0
 40
184.08589
 41
266.94694
 10
5.684342E-014
 20
4.263256E-014
 11
697.367456
 21
519.007202
 31
329.68983
 12
84.289249
 22
-71.590615
 32
36.906
 42
50.0
 43
464.8616
 44
-464.8616
 50
0.0
 71
0
  0
VIEW
  2
AN_6
 70
0
 40
290.54388
 41
438.37086
 10
2.842171E-014
 20
-2.842171E-014
 11
256.76988
 21
242.732589
 31
174.224903
 12
214.98178
 22
-101.47569
 32
40.055238
 42
50.0
 43
196.97982
 44
-196.97982
 50
0.0
 71
0
  0
ENDTAB
  0
TABLE
  2
VPORT
 70
4
  0
VPORT
  2
*ACTIVE
 70
0
 10
0.001642
 20
0.50168
 11
0.499179
 21
0.99776
 12
0.0
 22
0.0
 13
0.0
 23
0.0
 14
0.0
 24
0.0
 15
0.0
 25
0.0
 16
0.0
 26
-7.915869E-014
 36
1292.80228
 17
249.475285
 27
198.23894
 37
7.5
 40
350.3054
 41
1.367946
 42
50.0
 43
646.40114
 44
-646.40114
 50
0.0
 51
0.0
 71
22
 72
100
 73
1
 74
0
 75
0
 76
0
 77
0
 78
0
  0
VPORT
  2
*ACTIVE
 70
0
 10
0.500821
 20
0.50168
 11
0.998358
 21
0.99776
 12
0.0
 22
2.842171E-014
 13
0.0
 23
0.0
 14
0.0
 24
0.0
 15
0.0
 25
0.0
 16
-946.666664
 26
-946.666664
 36
946.666664
 17
260.502965
 27
164.236852
 37
7.500003
 40
324.81851
 41
1.367946
 42
50.0
 43
819.83738
 44
-819.83738
 50
0.0
 51
0.0
 71
22
 72
100
 73
1
 74
0
 75
0
 76
0
 77
0
 78
0
  0
VPORT
  2
*ACTIVE
 70
0
 10
0.001642
 20
0.003359
 11
0.499179
 21
0.49944
 12
0.0
 22
0.0
 13
0.0
 23
0.0
 14
0.0
 24
0.0
 15
0.0
 25
0.0
 16
0.0
 26
-1292.80228
 36
0.0
 17
249.475285
 27
198.23894
 37
7.5
 40
350.3054
 41
1.367946
 42
50.0
 43
646.40114
 44
-646.40114
 50
0.0
 51
0.0
 71
22
 72
100
 73
1
 74
0
 75
0
 76
0
 77
0
 78
0
  0
VPORT
  2
*ACTIVE
 70
0
 10
0.500821
 20
0.003359
 11
0.998358
 21
0.49944
 12
1.421085E-014
 22
0.0
 13
0.0
 23
0.0
 14
0.0
 24
0.0
 15
0.0
 25
0.0
 16
2120.0
 26
0.0
 36
0.0
 17
281.50088
 27
181.370715
 37
7.499995
 40
184.50961
 41
1.367946
 42
50.0
 43
1060.0
 44
-1060.0
 50
0.0
 51
0.0
 71
22
 72
100
 73
1
 74
0
 75
0
 76
0
 77
0
 78
0
  0
ENDTAB
  0
ENDSEC
  0
SECTION
  2
BLOCKS
  0
BLOCK
  8
1
  5
8
 70
1
 10
0.0
 20
0.0
 30
0.0
  2
*M0
  3
*M0
  0
LINE
  8
1
  5
A
  6
CONTINUOUS
 62
7
 10
272.48594
 20
-79.95625
 30
0.0
 11
272.48594
 21
-79.95625
 31
15.0
  0
LINE
  8
1
  5
C
  6
CONTINUOUS
 62
7
 10
268.38594
 20
-84.05625
 30
0.0
 11
268.38594
 21
-84.05625
 31
15.0
  0
LINE
  8
1
  5
E
  6
CONTINUOUS
 62
7
 10
268.38594
 20
-99.05625
 30
0.0
 11
268.38594
 21
-99.05625
 31
15.0
  0
LINE
  8
1
  5
10
  6
CONTINUOUS
 62
7
 10
272.48594
 20
-103.15625
 30
0.0
 11
272.48594
 21
-103.15625
 31
15.0
  0
LINE
  8
1
  5
12
  6
CONTINUOUS
 62
7
 10
256.58594
 20
-99.05625
 30
0.0
 11
256.58594
 21
-99.05625
 31
15.0
  0
LINE
  8
1
  5
14
  6
CONTINUOUS
 62
7
 10
252.48594
 20
-103.15625
 30
0.0
 11
252.48594
 21
-103.15625
 31
15.0
  0
LINE
  8
1
  5
16
  6
CONTINUOUS
 62
7
 10
256.58594
 20
-84.05625
 30
0.0
 11
256.58594
 21
-84.05625
 31
15.0
  0
LINE
  8
1
  5
18
  6
CONTINUOUS
 62
7
 10
252.48594
 20
-79.95625
 30
0.0
 11
252.48594
 21
-79.95625
 31
15.0
  0
LINE
  8
1
  5
1A
  6
CONTINUOUS
 62
7
 10
291.60645
 20
-78.64813
 30
15.0
 11
291.60642
 21
-78.64804
 31
15.0
  0
LINE
  8
1
  5
1C
  6
CONTINUOUS
 62
7
 10
291.60642
 20
-78.64804
 30
0.0
 11
291.60642
 21
-78.64804
 31
15.0
  0
LINE
  8
1
  5
1E
  6
CONTINUOUS
 62
7
 10
291.60642
 20
-78.64804
 30
0.0
 11
291.60645
 21
-78.64813
 31
0.0
  0
LINE
  8
1
  5
20
  6
CONTINUOUS
 62
7
 10
291.60645
 20
-78.64813
 30
0.0
 11
291.60645
 21
-78.64813
 31
15.0
  0
ARC
  8
1
  5
22
  6
CONTINUOUS
 62
7
 210
0.0
 220
0.0
 230
-1.0
 10
-287.72073
 20
-79.95625
 30
-15.0
 40
4.1
 50
161.3929019581
 51
269.9999991804
  0
LINE
  8
1
  5
24
  6
CONTINUOUS
 62
7
 10
287.72073
 20
-84.05625
 30
0.0
 11
287.72073
 21
-84.05625
 31
15.0
  0
ARC
  8
1
  5
26
  6
CONTINUOUS
 62
7
 10
287.72073
 20
-79.95625
 30
0.0
 40
4.1
 50
270.0000008196
 51
18.6070980419
  0
LINE
  8
1
  5
28
  6
CONTINUOUS
 62
7
 10
287.72073
 20
-84.05625
 30
15.0
 11
278.28422
 21
-84.05625
 31
15.0
  0
LINE
  8
1
  5
2A
  6
CONTINUOUS
 62
7
 10
278.28422
 20
-84.05625
 30
0.0
 11
278.28422
 21
-84.05625
 31
15.0
  0
LINE
  8
1
  5
2C
  6
CONTINUOUS
 62
7
 10
278.28422
 20
-84.05625
 30
0.0
 11
287.72073
 21
-84.05625
 31
0.0
  0
LINE
  8
1
  5
2E
  6
CONTINUOUS
 62
7
 10
278.28422
 20
-84.05625
 30
15.0
 11
275.38508
 21
-81.15711
 31
15.0
  0
LINE
  8
1
  5
30
  6
CONTINUOUS
 62
7
 10
275.38508
 20
-81.15711
 30
0.0
 11
275.38508
 21
-81.15711
 31
15.0
  0
LINE
  8
1
  5
32
  6
CONTINUOUS
 62
7
 10
275.38508
 20
-81.15711
 30
0.0
 11
278.28422
 21
-84.05625
 31
0.0
  0
ARC
  8
1
  5
34
  6
CONTINUOUS
 62
7
 10
272.48594
 20
-84.05625
 30
15.0
 40
4.1
 50
45.0000444444
 51
224.9999583333
  0
LINE
  8
1
  5
36
  6
CONTINUOUS
 62
7
 10
269.5868
 20
-86.95539
 30
0.0
 11
269.5868
 21
-86.95539
 31
15.0
  0
ARC
  8
1
  5
38
  6
CONTINUOUS
 62
7
 210
0.0
 220
0.0
 230
-1.0
 10
-272.48594
 20
-84.05625
 30
0.0
 40
4.1
 50
315.0000444444
 51
134.9999583333
  0
LINE
  8
1
  5
3A
  6
CONTINUOUS
 62
7
 10
269.5868
 20
-86.95539
 30
15.0
 11
272.48594
 21
-89.85453
 31
15.0
  0
LINE
  8
1
  5
3C
  6
CONTINUOUS
 62
7
 10
272.48594
 20
-89.85453
 30
0.0
 11
272.48594
 21
-89.85453
 31
15.0
  0
LINE
  8
1
  5
3E
  6
CONTINUOUS
 62
7
 10
272.48594
 20
-89.85453
 30
0.0
 11
269.5868
 21
-86.95539
 31
0.0
  0
LINE
  8
1
  5
40
  6
CONTINUOUS
 62
7
 10
272.48594
 20
-89.85453
 30
15.0
 11
272.48594
 21
-93.25797
 31
15.0
  0
LINE
  8
1
  5
42
  6
CONTINUOUS
 62
7
 10
272.48594
 20
-93.25797
 30
0.0
 11
272.48594
 21
-93.25797
 31
15.0
  0
LINE
  8
1
  5
44
  6
CONTINUOUS
 62
7
 10
272.48594
 20
-93.25797
 30
0.0
 11
272.48594
 21
-89.85453
 31
0.0
  0
LINE
  8
1
  5
46
  6
CONTINUOUS
 62
7
 10
272.48594
 20
-93.25797
 30
15.0
 11
269.5868
 21
-96.15711
 31
15.0
  0
LINE
  8
1
  5
48
  6
CONTINUOUS
 62
7
 10
269.5868
 20
-96.15711
 30
0.0
 11
269.5868
 21
-96.15711
 31
15.0
  0
LINE
  8
1
  5
4A
  6
CONTINUOUS
 62
7
 10
269.5868
 20
-96.15711
 30
0.0
 11
272.48594
 21
-93.25797
 31
0.0
  0
ARC
  8
1
  5
4C
  6
CONTINUOUS
 62
7
 10
272.48594
 20
-99.05625
 30
15.0
 40
4.1
 50
135.0000444444
 51
314.9999583333
  0
LINE
  8
1
  5
4E
  6
CONTINUOUS
 62
7
 10
275.38508
 20
-101.95539
 30
0.0
 11
275.38508
 21
-101.95539
 31
15.0
  0
ARC
  8
1
  5
50
  6
CONTINUOUS
 62
7
 210
0.0
 220
0.0
 230
-1.0
 10
-272.48594
 20
-99.05625
 30
0.0
 40
4.1
 50
225.0000444444
 51
44.9999583333
  0
LINE
  8
1
  5
52
  6
CONTINUOUS
 62
7
 10
275.38508
 20
-101.95539
 30
15.0
 11
278.28422
 21
-99.05625
 31
15.0
  0
LINE
  8
1
  5
54
  6
CONTINUOUS
 62
7
 10
278.28422
 20
-99.05625
 30
0.0
 11
278.28422
 21
-99.05625
 31
15.0
  0
LINE
  8
1
  5
56
  6
CONTINUOUS
 62
7
 10
278.28422
 20
-99.05625
 30
0.0
 11
275.38508
 21
-101.95539
 31
0.0
  0
LINE
  8
1
  5
58
  6
CONTINUOUS
 62
7
 10
278.28422
 20
-99.05625
 30
15.0
 11
287.72073
 21
-99.05625
 31
15.0
  0
LINE
  8
1
  5
5A
  6
CONTINUOUS
 62
7
 10
287.72073
 20
-99.05625
 30
0.0
 11
287.72073
 21
-99.05625
 31
15.0
  0
LINE
  8
1
  5
5C
  6
CONTINUOUS
 62
7
 10
287.72073
 20
-99.05625
 30
0.0
 11
278.28422
 21
-99.05625
 31
0.0
  0
ARC
  8
1
  5
5E
  6
CONTINUOUS
 62
7
 210
0.0
 220
0.0
 230
-1.0
 10
-287.72073
 20
-103.15625
 30
-15.0
 40
4.1
 50
90.0000008196
 51
198.6057035974
  0
LINE
  8
1
  5
60
  6
CONTINUOUS
 62
7
 10
291.60645
 20
-104.46437
 30
0.0
 11
291.60645
 21
-104.46437
 31
15.0
  0
ARC
  8
1
  5
62
  6
CONTINUOUS
 62
7
 10
287.72073
 20
-103.15625
 30
0.0
 40
4.1
 50
341.3942964026
 51
89.9999991804
  0
POINT
  8
1
  5
64
  6
CONTINUOUS
 62
7
 10
291.60645
 20
-104.46437
 30
15.0
 50
0.0
  0
LINE
  8
1
  5
66
  6
CONTINUOUS
 62
7
 10
291.60645
 20
-104.46437
 30
0.0
 11
291.60645
 21
-104.46437
 31
15.0
  0
POINT
  8
1
  5
68
  6
CONTINUOUS
 62
7
 10
291.60645
 20
-104.46437
 30
0.0
 50
0.0
  0
POLYLINE
  8
1
  5
6A
  6
CONTINUOUS
 62
7
 210
0.0
 220
0.0
 230
-1.0
 10
0.0
 20
0.0
 30
-15.0
 66
1
 70
0
  0
VERTEX
  8
1
  5
6B
  6
CONTINUOUS
 62
7
 10
-291.606448
 20
-104.46437
 30
-15.0
 42
0.058272
  0
VERTEX
  8
1
  5
6C
  6
CONTINUOUS
 62
7
 10
-289.724061
 20
-108.486132
 30
-15.0
 42
0.052883
  0
VERTEX
  8
1
  5
6D
  6
CONTINUOUS
 62
7
 10
-286.864184
 20
-112.169485
 30
-15.0
 42
0.047411
  0
VERTEX
  8
1
  5
6E
  6
CONTINUOUS
 62
7
 10
-283.129448
 20
-115.382245
 30
-15.0
 42
0.042737
  0
VERTEX
  8
1
  5
6F
  6
CONTINUOUS
 62
7
 10
-278.653882
 20
-118.009117
 30
-15.0
 42
0.039216
  0
VERTEX
  8
1
  5
70
  6
CONTINUOUS
 62
7
 10
-273.5981
 20
-119.95583
 30
-15.0
 42
0.036909
  0
VERTEX
  8
1
  5
71
  6
CONTINUOUS
 62
7
 10
-268.143536
 20
-121.152523
 30
-15.0
 42
0.035775
  0
VERTEX
  8
1
  5
72
  6
CONTINUOUS
 62
7
 10
-262.48594
 20
-121.55625
 30
-15.0
 42
0.035775
  0
VERTEX
  8
1
  5
73
  6
CONTINUOUS
 62
7
 10
-256.828344
 20
-121.152523
 30
-15.0
 42
0.036909
  0
VERTEX
  8
1
  5
74
  6
CONTINUOUS
 62
7
 10
-251.37378
 20
-119.95583
 30
-15.0
 42
0.039216
  0
VERTEX
  8
1
  5
75
  6
CONTINUOUS
 62
7
 10
-246.317998
 20
-118.009117
 30
-15.0
 42
0.042737
  0
VERTEX
  8
1
  5
76
  6
CONTINUOUS
 62
7
 10
-241.842432
 20
-115.382245
 30
-15.0
 42
0.047411
  0
VERTEX
  8
1
  5
77
  6
CONTINUOUS
 62
7
 10
-238.107696
 20
-112.169485
 30
-15.0
 42
0.052883
  0
VERTEX
  8
1
  5
78
  6
CONTINUOUS
 62
7
 10
-235.247819
 20
-108.486132
 30
-15.0
 42
0.058272
  0
VERTEX
  8
1
  5
79
  6
CONTINUOUS
 62
7
 10
-233.365432
 20
-104.46437
 30
-15.0
 42
0.058272
  0
SEQEND
  8
1
  5
7A
  0
LINE
  8
1
  5
7C
  6
CONTINUOUS
 62
7
 10
233.36543
 20
-104.46437
 30
0.0
 11
233.36543
 21
-104.46437
 31
15.0
  0
POLYLINE
  8
1
  5
7E
  6
CONTINUOUS
 62
7
 10
0.0
 20
0.0
 30
0.0
 66
1
 70
0
  0
VERTEX
  8
1
  5
7F
  6
CONTINUOUS
 62
7
 10
233.365432
 20
-104.46437
 30
0.0
 42
0.058272
  0
VERTEX
  8
1
  5
80
  6
CONTINUOUS
 62
7
 10
235.247819
 20
-108.486132
 30
0.0
 42
0.052883
  0
VERTEX
  8
1
  5
81
  6
CONTINUOUS
 62
7
 10
238.107696
 20
-112.169485
 30
0.0
 42
0.047411
  0
VERTEX
  8
1
  5
82
  6
CONTINUOUS
 62
7
 10
241.842432
 20
-115.382245
 30
0.0
 42
0.042737
  0
VERTEX
  8
1
  5
83
  6
CONTINUOUS
 62
7
 10
246.317998
 20
-118.009117
 30
0.0
 42
0.039216
  0
VERTEX
  8
1
  5
84
  6
CONTINUOUS
 62
7
 10
251.37378
 20
-119.95583
 30
0.0
 42
0.036909
  0
VERTEX
  8
1
  5
85
  6
CONTINUOUS
 62
7
 10
256.828344
 20
-121.152523
 30
0.0
 42
0.035775
  0
VERTEX
  8
1
  5
86
  6
CONTINUOUS
 62
7
 10
262.48594
 20
-121.55625
 30
0.0
 42
0.035775
  0
VERTEX
  8
1
  5
87
  6
CONTINUOUS
 62
7
 10
268.143536
 20
-121.152523
 30
0.0
 42
0.036909
  0
VERTEX
  8
1
  5
88
  6
CONTINUOUS
 62
7
 10
273.5981
 20
-119.95583
 30
0.0
 42
0.039216
  0
VERTEX
  8
1
  5
89
  6
CONTINUOUS
 62
7
 10
278.653882
 20
-118.009117
 30
0.0
 42
0.042737
  0
VERTEX
  8
1
  5
8A
  6
CONTINUOUS
 62
7
 10
283.129448
 20
-115.382245
 30
0.0
 42
0.047411
  0
VERTEX
  8
1
  5
8B
  6
CONTINUOUS
 62
7
 10
286.864184
 20
-112.169485
 30
0.0
 42
0.052883
  0
VERTEX
  8
1
  5
8C
  6
CONTINUOUS
 62
7
 10
289.724061
 20
-108.486132
 30
0.0
 42
0.058272
  0
VERTEX
  8
1
  5
8D
  6
CONTINUOUS
 62
7
 10
291.606448
 20
-104.46437
 30
0.0
 42
0.058272
  0
SEQEND
  8
1
  5
8E
  0
LINE
  8
1
  5
90
  6
CONTINUOUS
 62
7
 10
233.36543
 20
-104.46437
 30
15.0
 11
233.36552
 21
-104.46434
 31
15.0
  0
LINE
  8
1
  5
92
  6
CONTINUOUS
 62
7
 10
233.36552
 20
-104.46434
 30
0.0
 11
233.36552
 21
-104.46434
 31
15.0
  0
LINE
  8
1
  5
94
  6
CONTINUOUS
 62
7
 10
233.36552
 20
-104.46434
 30
0.0
 11
233.36543
 21
-104.46437
 31
0.0
  0
ARC
  8
1
  5
96
  6
CONTINUOUS
 62
7
 210
0.0
 220
0.0
 230
-1.0
 10
-237.25125
 20
-103.15625
 30
-15.0
 40
4.1
 50
341.3947440506
 51
89.9999996061
  0
LINE
  8
1
  5
98
  6
CONTINUOUS
 62
7
 10
237.25125
 20
-99.05625
 30
0.0
 11
237.25125
 21
-99.05625
 31
15.0
  0
ARC
  8
1
  5
9A
  6
CONTINUOUS
 62
7
 10
237.25125
 20
-103.15625
 30
0.0
 40
4.1
 50
90.0000003939
 51
198.6052559494
  0
LINE
  8
1
  5
9C
  6
CONTINUOUS
 62
7
 10
237.25125
 20
-99.05625
 30
15.0
 11
246.68766
 21
-99.05625
 31
15.0
  0
LINE
  8
1
  5
9E
  6
CONTINUOUS
 62
7
 10
246.68766
 20
-99.05625
 30
0.0
 11
246.68766
 21
-99.05625
 31
15.0
  0
LINE
  8
1
  5
A0
  6
CONTINUOUS
 62
7
 10
246.68766
 20
-99.05625
 30
0.0
 11
237.25125
 21
-99.05625
 31
0.0
  0
LINE
  8
1
  5
A2
  6
CONTINUOUS
 62
7
 10
246.68766
 20
-99.05625
 30
15.0
 11
249.5868
 21
-101.95539
 31
15.0
  0
LINE
  8
1
  5
A4
  6
CONTINUOUS
 62
7
 10
249.5868
 20
-101.95539
 30
0.0
 11
249.5868
 21
-101.95539
 31
15.0
  0
LINE
  8
1
  5
A6
  6
CONTINUOUS
 62
7
 10
249.5868
 20
-101.95539
 30
0.0
 11
246.68766
 21
-99.05625
 31
0.0
  0
ARC
  8
1
  5
A8
  6
CONTINUOUS
 62
7
 10
252.48594
 20
-99.05625
 30
15.0
 40
4.1
 50
225.0000444444
 51
44.9999583333
  0
LINE
  8
1
  5
AA
  6
CONTINUOUS
 62
7
 10
255.38508
 20
-96.15711
 30
0.0
 11
255.38508
 21
-96.15711
 31
15.0
  0
ARC
  8
1
  5
AC
  6
CONTINUOUS
 62
7
 210
0.0
 220
0.0
 230
-1.0
 10
-252.48594
 20
-99.05625
 30
0.0
 40
4.1
 50
135.0000444444
 51
314.9999583333
  0
LINE
  8
1
  5
AE
  6
CONTINUOUS
 62
7
 10
255.38508
 20
-96.15711
 30
15.0
 11
252.48594
 21
-93.25797
 31
15.0
  0
LINE
  8
1
  5
B0
  6
CONTINUOUS
 62
7
 10
252.48594
 20
-93.25797
 30
0.0
 11
252.48594
 21
-93.25797
 31
15.0
  0
LINE
  8
1
  5
B2
  6
CONTINUOUS
 62
7
 10
252.48594
 20
-93.25797
 30
0.0
 11
255.38508
 21
-96.15711
 31
0.0
  0
LINE
  8
1
  5
B4
  6
CONTINUOUS
 62
7
 10
252.48594
 20
-93.25797
 30
15.0
 11
252.48594
 21
-89.85453
 31
15.0
  0
LINE
  8
1
  5
B6
  6
CONTINUOUS
 62
7
 10
252.48594
 20
-89.85453
 30
0.0
 11
252.48594
 21
-89.85453
 31
15.0
  0
LINE
  8
1
  5
B8
  6
CONTINUOUS
 62
7
 10
252.48594
 20
-89.85453
 30
0.0
 11
252.48594
 21
-93.25797
 31
0.0
  0
LINE
  8
1
  5
BA
  6
CONTINUOUS
 62
7
 10
252.48594
 20
-89.85453
 30
15.0
 11
255.38508
 21
-86.95539
 31
15.0
  0
LINE
  8
1
  5
BC
  6
CONTINUOUS
 62
7
 10
255.38508
 20
-86.95539
 30
0.0
 11
255.38508
 21
-86.95539
 31
15.0
  0
LINE
  8
1
  5
BE
  6
CONTINUOUS
 62
7
 10
255.38508
 20
-86.95539
 30
0.0
 11
252.48594
 21
-89.85453
 31
0.0
  0
ARC
  8
1
  5
C0
  6
CONTINUOUS
 62
7
 10
252.48594
 20
-84.05625
 30
15.0
 40
4.1
 50
315.0000444444
 51
134.9999583333
  0
LINE
  8
1
  5
C2
  6
CONTINUOUS
 62
7
 10
249.5868
 20
-81.15711
 30
0.0
 11
249.5868
 21
-81.15711
 31
15.0
  0
ARC
  8
1
  5
C4
  6
CONTINUOUS
 62
7
 210
0.0
 220
0.0
 230
-1.0
 10
-252.48594
 20
-84.05625
 30
0.0
 40
4.1
 50
45.0000444444
 51
224.9999583333
  0
LINE
  8
1
  5
C6
  6
CONTINUOUS
 62
7
 10
249.5868
 20
-81.15711
 30
15.0
 11
246.68766
 21
-84.05625
 31
15.0
  0
LINE
  8
1
  5
C8
  6
CONTINUOUS
 62
7
 10
246.68766
 20
-84.05625
 30
0.0
 11
246.68766
 21
-84.05625
 31
15.0
  0
LINE
  8
1
  5
CA
  6
CONTINUOUS
 62
7
 10
246.68766
 20
-84.05625
 30
0.0
 11
249.5868
 21
-81.15711
 31
0.0
  0
LINE
  8
1
  5
CC
  6
CONTINUOUS
 62
7
 10
246.68766
 20
-84.05625
 30
15.0
 11
237.25125
 21
-84.05625
 31
15.0
  0
LINE
  8
1
  5
CE
  6
CONTINUOUS
 62
7
 10
237.25125
 20
-84.05625
 30
0.0
 11
237.25125
 21
-84.05625
 31
15.0
  0
LINE
  8
1
  5
D0
  6
CONTINUOUS
 62
7
 10
237.25125
 20
-84.05625
 30
0.0
 11
246.68766
 21
-84.05625
 31
0.0
  0
ARC
  8
1
  5
D2
  6
CONTINUOUS
 62
7
 210
0.0
 220
0.0
 230
-1.0
 10
-237.25125
 20
-79.95625
 30
-15.0
 40
4.1
 50
270.0000003939
 51
18.605261505
  0
LINE
  8
1
  5
D4
  6
CONTINUOUS
 62
7
 10
233.36552
 20
-78.64816
 30
0.0
 11
233.36552
 21
-78.64816
 31
15.0
  0
ARC
  8
1
  5
D6
  6
CONTINUOUS
 62
7
 10
237.25125
 20
-79.95625
 30
0.0
 40
4.1
 50
161.394738495
 51
269.9999996061
  0
LINE
  8
1
  5
D8
  6
CONTINUOUS
 62
7
 10
233.36552
 20
-78.64816
 30
15.0
 11
233.36543
 21
-78.64813
 31
15.0
  0
LINE
  8
1
  5
DA
  6
CONTINUOUS
 62
7
 10
233.36543
 20
-78.64813
 30
0.0
 11
233.36543
 21
-78.64813
 31
15.0
  0
LINE
  8
1
  5
DC
  6
CONTINUOUS
 62
7
 10
233.36543
 20
-78.64813
 30
0.0
 11
233.36552
 21
-78.64816
 31
0.0
  0
POLYLINE
  8
1
  5
DE
  6
CONTINUOUS
 62
7
 210
0.0
 220
0.0
 230
-1.0
 10
0.0
 20
0.0
 30
-15.0
 66
1
 70
0
  0
VERTEX
  8
1
  5
DF
  6
CONTINUOUS
 62
7
 10
-233.365432
 20
-78.64813
 30
-15.0
 42
0.058272
  0
VERTEX
  8
1
  5
E0
  6
CONTINUOUS
 62
7
 10
-235.247819
 20
-74.626368
 30
-15.0
 42
0.052883
  0
VERTEX
  8
1
  5
E1
  6
CONTINUOUS
 62
7
 10
-238.107696
 20
-70.943015
 30
-15.0
 42
0.047411
  0
VERTEX
  8
1
  5
E2
  6
CONTINUOUS
 62
7
 10
-241.842432
 20
-67.730255
 30
-15.0
 42
0.042737
  0
VERTEX
  8
1
  5
E3
  6
CONTINUOUS
 62
7
 10
-246.317998
 20
-65.103383
 30
-15.0
 42
0.039216
  0
VERTEX
  8
1
  5
E4
  6
CONTINUOUS
 62
7
 10
-251.37378
 20
-63.15667
 30
-15.0
 42
0.036909
  0
VERTEX
  8
1
  5
E5
  6
CONTINUOUS
 62
7
 10
-256.828344
 20
-61.959977
 30
-15.0
 42
0.035775
  0
VERTEX
  8
1
  5
E6
  6
CONTINUOUS
 62
7
 10
-262.48594
 20
-61.55625
 30
-15.0
 42
0.035775
  0
VERTEX
  8
1
  5
E7
  6
CONTINUOUS
 62
7
 10
-268.143536
 20
-61.959977
 30
-15.0
 42
0.036909
  0
VERTEX
  8
1
  5
E8
  6
CONTINUOUS
 62
7
 10
-273.5981
 20
-63.15667
 30
-15.0
 42
0.039216
  0
VERTEX
  8
1
  5
E9
  6
CONTINUOUS
 62
7
 10
-278.653882
 20
-65.103383
 30
-15.0
 42
0.042737
  0
VERTEX
  8
1
  5
EA
  6
CONTINUOUS
 62
7
 10
-283.129448
 20
-67.730255
 30
-15.0
 42
0.047411
  0
VERTEX
  8
1
  5
EB
  6
CONTINUOUS
 62
7
 10
-286.864184
 20
-70.943015
 30
-15.0
 42
0.052883
  0
VERTEX
  8
1
  5
EC
  6
CONTINUOUS
 62
7
 10
-289.724061
 20
-74.626368
 30
-15.0
 42
0.058272
  0
VERTEX
  8
1
  5
ED
  6
CONTINUOUS
 62
7
 10
-291.606448
 20
-78.64813
 30
-15.0
 42
0.058272
  0
SEQEND
  8
1
  5
EE
  0
POLYLINE
  8
1
  5
F0
  6
CONTINUOUS
 62
7
 10
0.0
 20
0.0
 30
0.0
 66
1
 70
0
  0
VERTEX
  8
1
  5
F1
  6
CONTINUOUS
 62
7
 10
291.606448
 20
-78.64813
 30
0.0
 42
0.058272
  0
VERTEX
  8
1
  5
F2
  6
CONTINUOUS
 62
7
 10
289.724061
 20
-74.626368
 30
0.0
 42
0.052883
  0
VERTEX
  8
1
  5
F3
  6
CONTINUOUS
 62
7
 10
286.864184
 20
-70.943015
 30
0.0
 42
0.047411
  0
VERTEX
  8
1
  5
F4
  6
CONTINUOUS
 62
7
 10
283.129448
 20
-67.730255
 30
0.0
 42
0.042737
  0
VERTEX
  8
1
  5
F5
  6
CONTINUOUS
 62
7
 10
278.653882
 20
-65.103383
 30
0.0
 42
0.039216
  0
VERTEX
  8
1
  5
F6
  6
CONTINUOUS
 62
7
 10
273.5981
 20
-63.15667
 30
0.0
 42
0.036909
  0
VERTEX
  8
1
  5
F7
  6
CONTINUOUS
 62
7
 10
268.143536
 20
-61.959977
 30
0.0
 42
0.035775
  0
VERTEX
  8
1
  5
F8
  6
CONTINUOUS
 62
7
 10
262.48594
 20
-61.55625
 30
0.0
 42
0.035775
  0
VERTEX
  8
1
  5
F9
  6
CONTINUOUS
 62
7
 10
256.828344
 20
-61.959977
 30
0.0
 42
0.036909
  0
VERTEX
  8
1
  5
FA
  6
CONTINUOUS
 62
7
 10
251.37378
 20
-63.15667
 30
0.0
 42
0.039216
  0
VERTEX
  8
1
  5
FB
  6
CONTINUOUS
 62
7
 10
246.317998
 20
-65.103383
 30
0.0
 42
0.042737
  0
VERTEX
  8
1
  5
FC
  6
CONTINUOUS
 62
7
 10
241.842432
 20
-67.730255
 30
0.0
 42
0.047411
  0
VERTEX
  8
1
  5
FD
  6
CONTINUOUS
 62
7
 10
238.107696
 20
-70.943015
 30
0.0
 42
0.052883
  0
VERTEX
  8
1
  5
FE
  6
CONTINUOUS
 62
7
 10
235.247819
 20
-74.626368
 30
0.0
 42
0.058272
  0
VERTEX
  8
1
  5
FF
  6
CONTINUOUS
 62
7
 10
233.365432
 20
-78.64813
 30
0.0
 42
0.058272
  0
SEQEND
  8
1
  5
100
  0
ENDBLK
  8
1
  5
101
  0
BLOCK
  8
1
  5
103
 70
1
 10
0.0
 20
0.0
 30
0.0
  2
*M1
  3
*M1
  0
LINE
  8
1
  5
105
  6
CONTINUOUS
 62
7
 10
-315.9
 20
-151.07922
 30
7.5
 11
-315.9
 21
-151.07922
 31
15.0
  0
LINE
  8
1
  5
107
  6
CONTINUOUS
 62
7
 10
-282.51347
 20
-140.05366
 30
7.5
 11
-282.51347
 21
-140.05366
 31
15.0
  0
LINE
  8
1
  5
109
  6
CONTINUOUS
 62
7
 10
-287.48545
 20
-143.03685
 30
7.5
 11
-287.48545
 21
-143.03685
 31
15.0
  0
LINE
  8
1
  5
10B
  6
CONTINUOUS
 62
7
 10
-342.48653
 20
-124.94634
 30
7.5
 11
-342.48653
 21
-124.94634
 31
15.0
  0
LINE
  8
1
  5
10D
  6
CONTINUOUS
 62
7
 10
-337.51455
 20
-121.96315
 30
7.5
 11
-337.51455
 21
-121.96315
 31
15.0
  0
LINE
  8
1
  5
10F
  6
CONTINUOUS
 62
7
 10
-320.0
 20
-117.5
 30
7.5
 11
-320.0
 21
-117.5
 31
15.0
  0
LINE
  8
1
  5
111
  6
CONTINUOUS
 62
7
 10
-282.51347
 20
-124.94634
 30
7.5
 11
-282.51347
 21
-124.94634
 31
15.0
  0
LINE
  8
1
  5
113
  6
CONTINUOUS
 62
7
 10
-287.48545
 20
-121.96315
 30
7.5
 11
-287.48545
 21
-121.96315
 31
15.0
  0
LINE
  8
1
  5
115
  6
CONTINUOUS
 62
7
 10
-342.49937
 20
-124.99921
 30
7.5
 11
-342.5
 21
-125.0
 31
7.5
  0
LINE
  8
1
  5
117
  6
CONTINUOUS
 62
7
 10
-342.49937
 20
-124.99921
 30
7.5
 11
-342.49937
 21
-124.99921
 31
15.0
  0
LINE
  8
1
  5
119
  6
CONTINUOUS
 62
7
 10
-342.5
 20
-125.0
 30
15.0
 11
-342.49937
 21
-124.99921
 31
15.0
  0
LINE
  8
1
  5
11B
  6
CONTINUOUS
 62
7
 10
-342.5
 20
-125.0
 30
7.5
 11
-342.5
 21
-125.0
 31
15.0
  0
ARC
  8
1
  5
11D
  6
CONTINUOUS
 62
7
 10
-312.5
 20
-132.5
 30
7.5
 40
30.923292
 50
165.9637565142
 51
194.1544148475
  0
ARC
  8
1
  5
11F
  6
CONTINUOUS
 62
7
 210
0.0
 220
0.0
 230
-1.0
 10
312.5
 20
-132.5
 30
-15.0
 40
30.923292
 50
345.8455851525
 51
14.0362434858
  0
LINE
  8
1
  5
121
  6
CONTINUOUS
 62
7
 10
-342.48447
 20
-140.06186
 30
7.5
 11
-342.48447
 21
-140.06186
 31
15.0
  0
ARC
  8
1
  5
123
  6
CONTINUOUS
 62
7
 10
-338.508943
 20
-139.059261
 30
7.5
 40
4.1
 50
194.154415708
 51
346.7396434858
  0
ARC
  8
1
  5
125
  6
CONTINUOUS
 62
7
 210
0.0
 220
0.0
 230
-1.0
 10
338.508943
 20
-139.059261
 30
-15.0
 40
4.1
 50
193.2603565142
 51
345.845584292
  0
LINE
  8
1
  5
127
  6
CONTINUOUS
 62
7
 10
-334.51826
 20
-139.9997
 30
7.5
 11
-334.51826
 21
-139.9997
 31
15.0
  0
LINE
  8
1
  5
129
  6
CONTINUOUS
 62
7
 10
-334.51826
 20
-139.9997
 30
7.5
 11
-320.0
 21
-140.0
 31
7.5
  0
LINE
  8
1
  5
12B
  6
CONTINUOUS
 62
7
 10
-320.0
 20
-140.0
 30
15.0
 11
-334.51826
 21
-139.9997
 31
15.0
  0
LINE
  8
1
  5
12D
  6
CONTINUOUS
 62
7
 10
-320.0
 20
-140.0
 30
7.5
 11
-320.0
 21
-140.0
 31
15.0
  0
LINE
  8
1
  5
12F
  6
CONTINUOUS
 62
7
 10
-320.0
 20
-140.0
 30
7.5
 11
-320.0
 21
-146.97922
 31
7.5
  0
LINE
  8
1
  5
131
  6
CONTINUOUS
 62
7
 10
-320.0
 20
-146.97922
 30
15.0
 11
-320.0
 21
-140.0
 31
15.0
  0
LINE
  8
1
  5
133
  6
CONTINUOUS
 62
7
 10
-320.0
 20
-146.97922
 30
7.5
 11
-320.0
 21
-146.97922
 31
15.0
  0
ARC
  8
1
  5
135
  6
CONTINUOUS
 62
7
 10
-315.9
 20
-146.97922
 30
7.5
 40
4.1
 50
180.0
 51
326.0236472222
  0
ARC
  8
1
  5
137
  6
CONTINUOUS
 62
7
 210
0.0
 220
0.0
 230
-1.0
 10
315.9
 20
-146.97922
 30
-15.0
 40
4.1
 50
213.9763527778
 51
360.0
  0
LINE
  8
1
  5
139
  6
CONTINUOUS
 62
7
 10
-312.5
 20
-149.27051
 30
7.5
 11
-312.5
 21
-149.27051
 31
15.0
  0
POINT
  8
1
  5
13B
  6
CONTINUOUS
 62
7
 10
-312.5
 20
-149.27051
 30
7.5
 50
0.0
  0
POINT
  8
1
  5
13D
  6
CONTINUOUS
 62
7
 10
-312.5
 20
-149.27051
 30
15.0
 50
0.0
  0
LINE
  8
1
  5
13F
  6
CONTINUOUS
 62
7
 10
-312.5
 20
-149.27051
 30
7.5
 11
-312.5
 21
-149.27051
 31
15.0
  0
ARC
  8
1
  5
141
  6
CONTINUOUS
 62
7
 10
-312.5
 20
-132.5
 30
7.5
 40
16.77051
 50
270.00000117
 51
333.4349483922
  0
ARC
  8
1
  5
143
  6
CONTINUOUS
 62
7
 210
0.0
 220
0.0
 230
-1.0
 10
312.5
 20
-132.5
 30
-15.0
 40
16.77051
 50
206.5650516078
 51
269.99999883
  0
LINE
  8
1
  5
145
  6
CONTINUOUS
 62
7
 10
-297.5
 20
-140.0
 30
7.5
 11
-297.5
 21
-140.0
 31
15.0
  0
LINE
  8
1
  5
147
  6
CONTINUOUS
 62
7
 10
-297.5
 20
-140.0
 30
7.5
 11
-290.48167
 21
-140.0
 31
7.5
  0
LINE
  8
1
  5
149
  6
CONTINUOUS
 62
7
 10
-290.48167
 20
-140.0
 30
15.0
 11
-297.5
 21
-140.0
 31
15.0
  0
LINE
  8
1
  5
14B
  6
CONTINUOUS
 62
7
 10
-290.48167
 20
-140.0
 30
7.5
 11
-290.48167
 21
-140.0
 31
15.0
  0
ARC
  8
1
  5
14D
  6
CONTINUOUS
 62
7
 10
-286.491057
 20
-139.059261
 30
7.5
 40
4.1
 50
193.264609292
 51
346.7368231808
  0
ARC
  8
1
  5
14F
  6
CONTINUOUS
 62
7
 210
0.0
 220
0.0
 230
-1.0
 10
286.491057
 20
-139.059261
 30
-15.0
 40
4.1
 50
193.2631768192
 51
346.735390708
  0
LINE
  8
1
  5
151
  6
CONTINUOUS
 62
7
 10
-282.50042
 20
-139.9999
 30
7.5
 11
-282.50042
 21
-139.9999
 31
15.0
  0
LINE
  8
1
  5
153
  6
CONTINUOUS
 62
7
 10
-282.50042
 20
-139.9999
 30
7.5
 11
-282.5
 21
-140.0
 31
7.5
  0
LINE
  8
1
  5
155
  6
CONTINUOUS
 62
7
 10
-282.5
 20
-140.0
 30
15.0
 11
-282.50042
 21
-139.9999
 31
15.0
  0
LINE
  8
1
  5
157
  6
CONTINUOUS
 62
7
 10
-282.5
 20
-140.0
 30
7.5
 11
-282.5
 21
-140.0
 31
15.0
  0
ARC
  8
1
  5
159
  6
CONTINUOUS
 62
7
 10
-338.508943
 20
-125.940739
 30
7.5
 40
4.1
 50
13.264609292
 51
166.7240426253
  0
LINE
  8
1
  5
15B
  6
CONTINUOUS
 62
7
 10
-334.51833
 20
-125.0
 30
7.5
 11
-334.51833
 21
-125.0
 31
15.0
  0
ARC
  8
1
  5
15D
  6
CONTINUOUS
 62
7
 210
0.0
 220
0.0
 230
-1.0
 10
338.508943
 20
-125.940739
 30
-15.0
 40
4.1
 50
13.2759573747
 51
166.735390708
  0
LINE
  8
1
  5
15F
  6
CONTINUOUS
 62
7
 10
-327.5
 20
-125.0
 30
7.5
 11
-334.51833
 21
-125.0
 31
7.5
  0
LINE
  8
1
  5
161
  6
CONTINUOUS
 62
7
 10
-327.5
 20
-125.0
 30
7.5
 11
-327.5
 21
-125.0
 31
15.0
  0
LINE
  8
1
  5
163
  6
CONTINUOUS
 62
7
 10
-334.51833
 20
-125.0
 30
15.0
 11
-327.5
 21
-125.0
 31
15.0
  0
ARC
  8
1
  5
165
  6
CONTINUOUS
 62
7
 10
-312.5
 20
-132.5
 30
7.5
 40
16.77051
 50
90.00000117
 51
153.4349483922
  0
LINE
  8
1
  5
167
  6
CONTINUOUS
 62
7
 10
-312.5
 20
-115.72949
 30
7.5
 11
-312.5
 21
-115.72949
 31
15.0
  0
ARC
  8
1
  5
169
  6
CONTINUOUS
 62
7
 210
0.0
 220
0.0
 230
-1.0
 10
312.5
 20
-132.5
 30
-15.0
 40
16.77051
 50
26.5650516078
 51
89.99999883
  0
POINT
  8
1
  5
16B
  6
CONTINUOUS
 62
7
 10
-312.5
 20
-115.72949
 30
7.5
 50
0.0
  0
LINE
  8
1
  5
16D
  6
CONTINUOUS
 62
7
 10
-312.5
 20
-115.72949
 30
7.5
 11
-312.5
 21
-115.72949
 31
15.0
  0
POINT
  8
1
  5
16F
  6
CONTINUOUS
 62
7
 10
-312.5
 20
-115.72949
 30
15.0
 50
0.0
  0
ARC
  8
1
  5
171
  6
CONTINUOUS
 62
7
 10
-309.1
 20
-118.02078
 30
7.5
 40
4.1
 50
360.0
 51
146.0236472222
  0
LINE
  8
1
  5
173
  6
CONTINUOUS
 62
7
 10
-305.0
 20
-118.02078
 30
7.5
 11
-305.0
 21
-118.02078
 31
15.0
  0
ARC
  8
1
  5
175
  6
CONTINUOUS
 62
7
 210
0.0
 220
0.0
 230
-1.0
 10
309.1
 20
-118.02078
 30
-15.0
 40
4.1
 50
33.9763527778
 51
180.0
  0
LINE
  8
1
  5
177
  6
CONTINUOUS
 62
7
 10
-305.0
 20
-125.0
 30
7.5
 11
-305.0
 21
-118.02078
 31
7.5
  0
LINE
  8
1
  5
179
  6
CONTINUOUS
 62
7
 10
-305.0
 20
-125.0
 30
7.5
 11
-305.0
 21
-125.0
 31
15.0
  0
LINE
  8
1
  5
17B
  6
CONTINUOUS
 62
7
 10
-305.0
 20
-118.02078
 30
15.0
 11
-305.0
 21
-125.0
 31
15.0
  0
LINE
  8
1
  5
17D
  6
CONTINUOUS
 62
7
 10
-290.48167
 20
-125.0
 30
7.5
 11
-305.0
 21
-125.0
 31
7.5
  0
LINE
  8
1
  5
17F
  6
CONTINUOUS
 62
7
 10
-290.48167
 20
-125.0
 30
7.5
 11
-290.48167
 21
-125.0
 31
15.0
  0
LINE
  8
1
  5
181
  6
CONTINUOUS
 62
7
 10
-305.0
 20
-125.0
 30
15.0
 11
-290.48167
 21
-125.0
 31
15.0
  0
ARC
  8
1
  5
183
  6
CONTINUOUS
 62
7
 10
-286.491057
 20
-125.940739
 30
7.5
 40
4.1
 50
13.2631768192
 51
166.735390708
  0
LINE
  8
1
  5
185
  6
CONTINUOUS
 62
7
 10
-282.50042
 20
-125.0001
 30
7.5
 11
-282.50042
 21
-125.0001
 31
15.0
  0
ARC
  8
1
  5
187
  6
CONTINUOUS
 62
7
 210
0.0
 220
0.0
 230
-1.0
 10
286.491057
 20
-125.940739
 30
-15.0
 40
4.1
 50
13.264609292
 51
166.7368231808
  0
LINE
  8
1
  5
189
  6
CONTINUOUS
 62
7
 10
-282.5
 20
-125.0
 30
7.5
 11
-282.50042
 21
-125.0001
 31
7.5
  0
LINE
  8
1
  5
18B
  6
CONTINUOUS
 62
7
 10
-282.5
 20
-125.0
 30
7.5
 11
-282.5
 21
-125.0
 31
15.0
  0
LINE
  8
1
  5
18D
  6
CONTINUOUS
 62
7
 10
-282.50042
 20
-125.0001
 30
15.0
 11
-282.5
 21
-125.0
 31
15.0
  0
ARC
  8
1
  5
18F
  6
CONTINUOUS
 62
7
 10
-312.5
 20
-132.5
 30
7.5
 40
30.923292
 50
345.9637565142
 51
14.0362426253
  0
ARC
  8
1
  5
191
  6
CONTINUOUS
 62
7
 210
0.0
 220
0.0
 230
-1.0
 10
312.5
 20
-132.5
 30
-15.0
 40
30.923292
 50
165.9637573747
 51
194.0362434858
  0
ENDBLK
  8
1
  5
192
  0
BLOCK
  8
1
  5
194
 70
1
 10
0.0
 20
0.0
 30
0.0
  2
*M2
  3
*M2
  0
ARC
  8
1
  5
196
  6
CONTINUOUS
 62
7
 210
0.0
 220
0.0
 230
-1.0
 10
319.6
 20
-173.489633
 30
0.0
 40
4.1
 50
99.8269555556
 51
180.0
  0
LINE
  8
1
  5
198
  6
CONTINUOUS
 62
7
 10
-318.90024
 20
-169.44979
 30
7.5
 11
-318.90024
 21
-169.44979
 31
0.0
  0
ARC
  8
1
  5
19A
  6
CONTINUOUS
 62
7
 210
0.0
 220
0.0
 230
-1.0
 10
319.6
 20
-173.489633
 30
-7.5
 40
4.1
 50
99.8269555556
 51
180.0
  0
LINE
  8
1
  5
19C
  6
CONTINUOUS
 62
7
 10
-315.5
 20
-173.48963
 30
7.5
 11
-315.5
 21
-173.48963
 31
0.0
  0
LINE
  8
1
  5
19E
  6
CONTINUOUS
 62
7
 10
-315.5
 20
-50.0
 30
0.0
 11
-315.5
 21
-91.51037
 31
0.0
  0
LINE
  8
1
  5
1A0
  6
CONTINUOUS
 62
7
 10
-315.5
 20
-50.0
 30
7.5
 11
-315.5
 21
-50.0
 31
0.0
  0
LINE
  8
1
  5
1A2
  6
CONTINUOUS
 62
7
 10
-315.5
 20
-50.0
 30
7.5
 11
-315.5
 21
-91.51037
 31
7.5
  0
LINE
  8
1
  5
1A4
  6
CONTINUOUS
 62
7
 10
-315.5
 20
-91.51037
 30
7.5
 11
-315.5
 21
-91.51037
 31
0.0
  0
ARC
  8
1
  5
1A6
  6
CONTINUOUS
 62
7
 10
-312.5
 20
-132.5
 30
0.0
 40
37.5
 50
99.8269555556
 51
260.1730444444
  0
LINE
  8
1
  5
1A8
  6
CONTINUOUS
 62
7
 10
-318.90024
 20
-95.55021
 30
7.5
 11
-318.90024
 21
-95.55021
 31
0.0
  0
ARC
  8
1
  5
1AA
  6
CONTINUOUS
 62
7
 10
-312.5
 20
-132.5
 30
7.5
 40
37.5
 50
99.8269555556
 51
260.1730444444
  0
LINE
  8
1
  5
1AC
  6
CONTINUOUS
 62
7
 10
-315.5
 20
-180.0
 30
0.0
 11
-315.5
 21
-215.0
 31
0.0
  0
LINE
  8
1
  5
1AE
  6
CONTINUOUS
 62
7
 10
-315.5
 20
-180.0
 30
7.5
 11
-315.5
 21
-180.0
 31
0.0
  0
LINE
  8
1
  5
1B0
  6
CONTINUOUS
 62
7
 10
-315.5
 20
-180.0
 30
7.5
 11
-315.5
 21
-215.0
 31
7.5
  0
LINE
  8
1
  5
1B2
  6
CONTINUOUS
 62
7
 10
-315.5
 20
-215.0
 30
0.0
 11
-315.5
 21
-215.0
 31
7.5
  0
LINE
  8
1
  5
1B4
  6
CONTINUOUS
 62
7
 10
-315.5
 20
-173.48963
 30
0.0
 11
-315.5
 21
-180.0
 31
0.0
  0
LINE
  8
1
  5
1B6
  6
CONTINUOUS
 62
7
 10
-315.5
 20
-173.48963
 30
7.5
 11
-315.5
 21
-180.0
 31
7.5
  0
ARC
  8
1
  5
1B8
  6
CONTINUOUS
 62
7
 210
0.0
 220
0.0
 230
-1.0
 10
319.6
 20
-91.510367
 30
0.0
 40
4.1
 50
180.0
 51
260.1730444444
  0
ARC
  8
1
  5
1BA
  6
CONTINUOUS
 62
7
 210
0.0
 220
0.0
 230
-1.0
 10
319.6
 20
-91.510367
 30
-7.5
 40
4.1
 50
180.0
 51
260.1730444444
  0
ENDBLK
  8
1
  5
1BB
  0
BLOCK
  8
1
  5
1BD
 70
1
 10
0.0
 20
0.0
 30
0.0
  2
*M3
  3
*M3
  0
ARC
  8
1
  5
1BF
  6
CONTINUOUS
 62
7
 210
0.0
 220
0.0
 230
-1.0
 10
305.4
 20
-91.510367
 30
-15.0
 40
4.1
 50
279.8269555556
 51
360.0
  0
LINE
  8
1
  5
1C1
  6
CONTINUOUS
 62
7
 10
-306.09976
 20
-95.55021
 30
7.5
 11
-306.09976
 21
-95.55021
 31
15.0
  0
ARC
  8
1
  5
1C3
  6
CONTINUOUS
 62
7
 210
0.0
 220
0.0
 230
-1.0
 10
305.4
 20
-91.510367
 30
-7.5
 40
4.1
 50
279.8269555556
 51
360.0
  0
LINE
  8
1
  5
1C5
  6
CONTINUOUS
 62
7
 10
-309.5
 20
-91.51037
 30
7.5
 11
-309.5
 21
-91.51037
 31
15.0
  0
ARC
  8
1
  5
1C7
  6
CONTINUOUS
 62
7
 10
-312.5
 20
-132.5
 30
15.0
 40
37.5
 50
279.8269555556
 51
80.1730444444
  0
LINE
  8
1
  5
1C9
  6
CONTINUOUS
 62
7
 10
-306.09976
 20
-169.44979
 30
7.5
 11
-306.09976
 21
-169.44979
 31
15.0
  0
ARC
  8
1
  5
1CB
  6
CONTINUOUS
 62
7
 10
-312.5
 20
-132.5
 30
7.5
 40
37.5
 50
279.8269555556
 51
80.1730444444
  0
ARC
  8
1
  5
1CD
  6
CONTINUOUS
 62
7
 210
0.0
 220
0.0
 230
-1.0
 10
305.4
 20
-173.489633
 30
-15.0
 40
4.1
 50
360.0
 51
80.1730444444
  0
LINE
  8
1
  5
1CF
  6
CONTINUOUS
 62
7
 10
-309.5
 20
-173.48963
 30
7.5
 11
-309.5
 21
-173.48963
 31
15.0
  0
ARC
  8
1
  5
1D1
  6
CONTINUOUS
 62
7
 210
0.0
 220
0.0
 230
-1.0
 10
305.4
 20
-173.489633
 30
-7.5
 40
4.1
 50
360.0
 51
80.1730444444
  0
LINE
  8
1
  5
1D3
  6
CONTINUOUS
 62
7
 10
-309.5
 20
-180.0
 30
15.0
 11
-309.5
 21
-173.48963
 31
15.0
  0
LINE
  8
1
  5
1D5
  6
CONTINUOUS
 62
7
 10
-309.5
 20
-180.0
 30
7.5
 11
-309.5
 21
-180.0
 31
15.0
  0
LINE
  8
1
  5
1D7
  6
CONTINUOUS
 62
7
 10
-309.5
 20
-180.0
 30
7.5
 11
-309.5
 21
-173.48963
 31
7.5
  0
LINE
  8
1
  5
1D9
  6
CONTINUOUS
 62
7
 10
-309.5
 20
-215.0
 30
15.0
 11
-309.5
 21
-180.0
 31
15.0
  0
LINE
  8
1
  5
1DB
  6
CONTINUOUS
 62
7
 10
-309.5
 20
-215.0
 30
7.5
 11
-309.5
 21
-215.0
 31
15.0
  0
LINE
  8
1
  5
1DD
  6
CONTINUOUS
 62
7
 10
-309.5
 20
-215.0
 30
7.5
 11
-309.5
 21
-180.0
 31
7.5
  0
LINE
  8
1
  5
1DF
  6
CONTINUOUS
 62
7
 10
-309.5
 20
-91.51037
 30
15.0
 11
-309.5
 21
-50.0
 31
15.0
  0
LINE
  8
1
  5
1E1
  6
CONTINUOUS
 62
7
 10
-309.5
 20
-91.51037
 30
7.5
 11
-309.5
 21
-50.0
 31
7.5
  0
LINE
  8
1
  5
1E3
  6
CONTINUOUS
 62
7
 10
-309.5
 20
-50.0
 30
15.0
 11
-309.5
 21
-50.0
 31
7.5
  0
LINE
  8
1
  5
1E5
  6
CONTINUOUS
 62
7
 10
-309.5
 20
-50.0
 30
7.5
 11
-315.5
 21
-50.0
 31
7.5
  0
LINE
  8
1
  5
1E7
  6
CONTINUOUS
 62
7
 10
-315.5
 20
-215.0
 30
7.5
 11
-309.5
 21
-215.0
 31
7.5
  0
ENDBLK
  8
1
  5
1E8
  0
BLOCK
  8
1
  5
1EA
 70
1
 10
0.0
 20
0.0
 30
0.0
  2
*M4
  3
*M4
  0
TEXT
  8
1
  5
1EC
  6
CONTINUOUS
 62
7
 10
-315.9
 20
-151.07922
 30
11.25
  1
 
 40
0.0
 50
180.0
 41
1.0
 72
4
 11
-315.9
 21
-151.07922
 31
11.25
  0
ENDBLK
  8
1
  5
1ED
  0
BLOCK
  8
1
  5
1EF
 70
1
 10
0.0
 20
0.0
 30
0.0
  2
*M5
  3
*M5
  0
INSERT
  8
1
  5
1F1
  6
CONTINUOUS
 62
7
  2
*M3
 10
0.0
 20
0.0
 30
0.0
 41
1.0
 42
1.0
 43
1.0
 70
1
 71
1
  0
INSERT
  8
1
  5
1F3
  6
CONTINUOUS
 62
7
  2
*M4
 10
0.0
 20
0.0
 30
0.0
 41
1.0
 42
1.0
 43
1.0
 70
1
 71
1
  0
ENDBLK
  8
1
  5
1F4
  0
BLOCK
  8
1
  5
1F6
 70
1
 10
0.0
 20
0.0
 30
0.0
  2
*M6
  3
*M6
  0
INSERT
  8
1
  5
1F8
  6
CONTINUOUS
 62
7
  2
*M2
 10
0.0
 20
0.0
 30
0.0
 41
1.0
 42
1.0
 43
1.0
 70
1
 71
1
  0
INSERT
  8
1
  5
1FA
  6
CONTINUOUS
 62
7
  2
*M5
 10
0.0
 20
0.0
 30
0.0
 41
1.0
 42
1.0
 43
1.0
 70
1
 71
1
  0
ENDBLK
  8
1
  5
1FB
  0
BLOCK
  8
1
  5
1FD
 70
1
 10
0.0
 20
0.0
 30
0.0
  2
*M7
  3
*M7
  0
LINE
  8
1
  5
1FF
  6
CONTINUOUS
 62
7
 10
-315.5
 20
-50.0
 30
0.0
 11
-515.0
 21
-50.0
 31
0.0
  0
LINE
  8
1
  5
201
  6
CONTINUOUS
 62
7
 10
-515.0
 20
-50.0
 30
0.0
 11
-515.0
 21
-50.0
 31
15.0
  0
LINE
  8
1
  5
203
  6
CONTINUOUS
 62
7
 10
-515.0
 20
-50.0
 30
15.0
 11
-309.5
 21
-50.0
 31
15.0
  0
LINE
  8
1
  5
205
  6
CONTINUOUS
 62
7
 10
-515.0
 20
-215.0
 30
0.0
 11
-315.5
 21
-215.0
 31
0.0
  0
LINE
  8
1
  5
207
  6
CONTINUOUS
 62
7
 10
-515.0
 20
-50.0
 30
0.0
 11
-515.0
 21
-215.0
 31
0.0
  0
LINE
  8
1
  5
209
  6
CONTINUOUS
 62
7
 10
-309.5
 20
-215.0
 30
15.0
 11
-515.0
 21
-215.0
 31
15.0
  0
LINE
  8
1
  5
20B
  6
CONTINUOUS
 62
7
 10
-515.0
 20
-215.0
 30
0.0
 11
-515.0
 21
-215.0
 31
15.0
  0
LINE
  8
1
  5
20D
  6
CONTINUOUS
 62
7
 10
-515.0
 20
-215.0
 30
15.0
 11
-515.0
 21
-50.0
 31
15.0
  0
ENDBLK
  8
1
  5
20E
  0
BLOCK
  8
1
  5
210
 70
1
 10
0.0
 20
0.0
 30
0.0
  2
*M8
  3
*M8
  0
INSERT
  8
1
  5
212
  6
CONTINUOUS
 62
7
  2
*M6
 10
0.0
 20
0.0
 30
0.0
 41
1.0
 42
1.0
 43
1.0
 70
1
 71
1
  0
INSERT
  8
1
  5
214
  6
CONTINUOUS
 62
7
  2
*M7
 10
0.0
 20
0.0
 30
0.0
 41
1.0
 42
1.0
 43
1.0
 70
1
 71
1
  0
ENDBLK
  8
1
  5
215
  0
BLOCK
  8
1
  5
217
 70
1
 10
0.0
 20
0.0
 30
0.0
  2
*M9
  3
*M9
  0
INSERT
  8
1
  5
219
  6
CONTINUOUS
 62
7
  2
*M1
 10
0.0
 20
0.0
 30
0.0
 41
1.0
 42
1.0
 43
1.0
 70
1
 71
1
  0
INSERT
  8
1
  5
21B
  6
CONTINUOUS
 62
7
  2
*M8
 10
0.0
 20
0.0
 30
0.0
 41
1.0
 42
1.0
 43
1.0
 70
1
 71
1
  0
ENDBLK
  8
1
  5
21C
  0
BLOCK
  8
1
  5
21E
 70
1
 10
0.0
 20
0.0
 30
0.0
  2
*M10
  3
*M10
  0
LINE
  8
1
  5
220
  6
CONTINUOUS
 62
7
 10
-82.51347
 20
-124.94634
 30
0.0
 11
-82.51347
 21
-124.94634
 31
7.5
  0
LINE
  8
1
  5
222
  6
CONTINUOUS
 62
7
 10
-87.48545
 20
-121.96315
 30
0.0
 11
-87.48545
 21
-121.96315
 31
7.5
  0
LINE
  8
1
  5
224
  6
CONTINUOUS
 62
7
 10
-120.0
 20
-117.5
 30
0.0
 11
-120.0
 21
-117.5
 31
7.5
  0
LINE
  8
1
  5
226
  6
CONTINUOUS
 62
7
 10
-142.48653
 20
-124.94634
 30
0.0
 11
-142.48653
 21
-124.94634
 31
7.5
  0
LINE
  8
1
  5
228
  6
CONTINUOUS
 62
7
 10
-137.51455
 20
-121.96315
 30
0.0
 11
-137.51455
 21
-121.96315
 31
7.5
  0
LINE
  8
1
  5
22A
  6
CONTINUOUS
 62
7
 10
-115.9
 20
-151.07922
 30
0.0
 11
-115.9
 21
-151.07922
 31
7.5
  0
LINE
  8
1
  5
22C
  6
CONTINUOUS
 62
7
 10
-82.51347
 20
-140.05366
 30
0.0
 11
-82.51347
 21
-140.05366
 31
7.5
  0
LINE
  8
1
  5
22E
  6
CONTINUOUS
 62
7
 10
-87.48545
 20
-143.03685
 30
0.0
 11
-87.48545
 21
-143.03685
 31
7.5
  0
LINE
  8
1
  5
230
  6
CONTINUOUS
 62
7
 10
-109.5
 20
-91.51037
 30
7.5
 11
-109.5
 21
-50.0
 31
7.5
  0
LINE
  8
1
  5
232
  6
CONTINUOUS
 62
7
 10
-109.5
 20
-50.0
 30
15.0
 11
-109.5
 21
-50.0
 31
7.5
  0
ARC
  8
1
  5
234
  6
CONTINUOUS
 62
7
 210
0.0
 220
0.0
 230
-1.0
 10
105.4
 20
-91.510367
 30
-7.5
 40
4.1
 50
279.8269555556
 51
360.0
  0
ARC
  8
1
  5
236
  6
CONTINUOUS
 62
7
 10
-112.5
 20
-132.5
 30
7.5
 40
37.5
 50
279.8269555556
 51
80.1730444444
  0
ARC
  8
1
  5
238
  6
CONTINUOUS
 62
7
 210
0.0
 220
0.0
 230
-1.0
 10
105.4
 20
-173.489633
 30
-7.5
 40
4.1
 50
360.0
 51
80.1730444444
  0
LINE
  8
1
  5
23A
  6
CONTINUOUS
 62
7
 10
-109.5
 20
-180.0
 30
7.5
 11
-109.5
 21
-173.48963
 31
7.5
  0
LINE
  8
1
  5
23C
  6
CONTINUOUS
 62
7
 10
-109.5
 20
-215.0
 30
7.5
 11
-109.5
 21
-180.0
 31
7.5
  0
LINE
  8
1
  5
23E
  6
CONTINUOUS
 62
7
 10
-109.5
 20
-215.0
 30
15.0
 11
-109.5
 21
-215.0
 31
7.5
  0
LINE
  8
1
  5
240
  6
CONTINUOUS
 62
7
 10
90.0
 20
-50.0
 30
15.0
 11
-109.5
 21
-50.0
 31
15.0
  0
LINE
  8
1
  5
242
  6
CONTINUOUS
 62
7
 10
-109.5
 20
-215.0
 30
15.0
 11
90.0
 21
-215.0
 31
15.0
  0
LINE
  8
1
  5
244
  6
CONTINUOUS
 62
7
 10
90.0
 20
-215.0
 30
15.0
 11
90.0
 21
-50.0
 31
15.0
  0
LINE
  8
1
  5
246
  6
CONTINUOUS
 62
7
 10
-115.5
 20
-50.0
 30
7.5
 11
-109.5
 21
-50.0
 31
7.5
  0
LINE
  8
1
  5
248
  6
CONTINUOUS
 62
7
 10
-115.5
 20
-91.51037
 30
7.5
 11
-115.5
 21
-50.0
 31
7.5
  0
ARC
  8
1
  5
24A
  6
CONTINUOUS
 62
7
 10
-119.6
 20
-91.510367
 30
7.5
 40
4.1
 50
279.8269555556
 51
360.0
  0
ARC
  8
1
  5
24C
  6
CONTINUOUS
 62
7
 210
0.0
 220
0.0
 230
-1.0
 10
112.5
 20
-132.5
 30
-7.5
 40
37.5
 50
279.8269555556
 51
80.1730444444
  0
ARC
  8
1
  5
24E
  6
CONTINUOUS
 62
7
 10
-119.6
 20
-173.489633
 30
7.5
 40
4.1
 50
360.0
 51
80.1730444444
  0
LINE
  8
1
  5
250
  6
CONTINUOUS
 62
7
 10
-115.5
 20
-180.0
 30
7.5
 11
-115.5
 21
-173.48963
 31
7.5
  0
LINE
  8
1
  5
252
  6
CONTINUOUS
 62
7
 10
-115.5
 20
-215.0
 30
7.5
 11
-115.5
 21
-180.0
 31
7.5
  0
LINE
  8
1
  5
254
  6
CONTINUOUS
 62
7
 10
-109.5
 20
-215.0
 30
7.5
 11
-115.5
 21
-215.0
 31
7.5
  0
ARC
  8
1
  5
256
  6
CONTINUOUS
 62
7
 10
-112.5
 20
-132.5
 30
7.5
 40
30.923292
 50
345.9637565142
 51
14.0362426253
  0
LINE
  8
1
  5
258
  6
CONTINUOUS
 62
7
 10
-82.50042
 20
-139.9999
 30
7.5
 11
-82.5
 21
-140.0
 31
7.5
  0
ARC
  8
1
  5
25A
  6
CONTINUOUS
 62
7
 10
-86.491057
 20
-139.059261
 30
7.5
 40
4.1
 50
193.264609292
 51
346.7368231808
  0
LINE
  8
1
  5
25C
  6
CONTINUOUS
 62
7
 10
-97.5
 20
-140.0
 30
7.5
 11
-90.48167
 21
-140.0
 31
7.5
  0
ARC
  8
1
  5
25E
  6
CONTINUOUS
 62
7
 10
-112.5
 20
-132.5
 30
7.5
 40
16.77051
 50
270.00000117
 51
333.4349483922
  0
POINT
  8
1
  5
260
  6
CONTINUOUS
 62
7
 10
-112.5
 20
-149.27051
 30
7.5
 50
0.0
  0
ARC
  8
1
  5
262
  6
CONTINUOUS
 62
7
 10
-115.9
 20
-146.97922
 30
7.5
 40
4.1
 50
180.0
 51
326.0236472222
  0
LINE
  8
1
  5
264
  6
CONTINUOUS
 62
7
 10
-120.0
 20
-140.0
 30
7.5
 11
-120.0
 21
-146.97922
 31
7.5
  0
LINE
  8
1
  5
266
  6
CONTINUOUS
 62
7
 10
-134.51826
 20
-139.9997
 30
7.5
 11
-120.0
 21
-140.0
 31
7.5
  0
ARC
  8
1
  5
268
  6
CONTINUOUS
 62
7
 10
-138.508943
 20
-139.059261
 30
7.5
 40
4.1
 50
194.154415708
 51
346.7396434858
  0
ARC
  8
1
  5
26A
  6
CONTINUOUS
 62
7
 10
-112.5
 20
-132.5
 30
7.5
 40
30.923292
 50
165.9637565142
 51
194.1544148475
  0
LINE
  8
1
  5
26C
  6
CONTINUOUS
 62
7
 10
-142.49937
 20
-124.99921
 30
7.5
 11
-142.5
 21
-125.0
 31
7.5
  0
ARC
  8
1
  5
26E
  6
CONTINUOUS
 62
7
 10
-138.508943
 20
-125.940739
 30
7.5
 40
4.1
 50
13.264609292
 51
166.7240426253
  0
LINE
  8
1
  5
270
  6
CONTINUOUS
 62
7
 10
-127.5
 20
-125.0
 30
7.5
 11
-134.51833
 21
-125.0
 31
7.5
  0
ARC
  8
1
  5
272
  6
CONTINUOUS
 62
7
 10
-112.5
 20
-132.5
 30
7.5
 40
16.77051
 50
90.00000117
 51
153.4349483922
  0
POINT
  8
1
  5
274
  6
CONTINUOUS
 62
7
 10
-112.5
 20
-115.72949
 30
7.5
 50
0.0
  0
ARC
  8
1
  5
276
  6
CONTINUOUS
 62
7
 10
-109.1
 20
-118.02078
 30
7.5
 40
4.1
 50
360.0
 51
146.0236472222
  0
LINE
  8
1
  5
278
  6
CONTINUOUS
 62
7
 10
-105.0
 20
-125.0
 30
7.5
 11
-105.0
 21
-118.02078
 31
7.5
  0
LINE
  8
1
  5
27A
  6
CONTINUOUS
 62
7
 10
-90.48167
 20
-125.0
 30
7.5
 11
-105.0
 21
-125.0
 31
7.5
  0
ARC
  8
1
  5
27C
  6
CONTINUOUS
 62
7
 10
-86.491057
 20
-125.940739
 30
7.5
 40
4.1
 50
13.2631768192
 51
166.735390708
  0
LINE
  8
1
  5
27E
  6
CONTINUOUS
 62
7
 10
-82.5
 20
-125.0
 30
7.5
 11
-82.50042
 21
-125.0001
 31
7.5
  0
LINE
  8
1
  5
280
  6
CONTINUOUS
 62
7
 10
90.0
 20
-215.0
 30
0.0
 11
90.0
 21
-215.0
 31
15.0
  0
LINE
  8
1
  5
282
  6
CONTINUOUS
 62
7
 10
90.0
 20
-215.0
 30
0.0
 11
90.0
 21
-50.0
 31
0.0
  0
LINE
  8
1
  5
284
  6
CONTINUOUS
 62
7
 10
90.0
 20
-50.0
 30
0.0
 11
90.0
 21
-50.0
 31
15.0
  0
LINE
  8
1
  5
286
  6
CONTINUOUS
 62
7
 10
-115.5
 20
-215.0
 30
0.0
 11
-115.5
 21
-215.0
 31
7.5
  0
LINE
  8
1
  5
288
  6
CONTINUOUS
 62
7
 10
-115.5
 20
-215.0
 30
0.0
 11
90.0
 21
-215.0
 31
0.0
  0
LINE
  8
1
  5
28A
  6
CONTINUOUS
 62
7
 10
-115.5
 20
-180.0
 30
0.0
 11
-115.5
 21
-180.0
 31
7.5
  0
LINE
  8
1
  5
28C
  6
CONTINUOUS
 62
7
 10
-115.5
 20
-180.0
 30
0.0
 11
-115.5
 21
-215.0
 31
0.0
  0
LINE
  8
1
  5
28E
  6
CONTINUOUS
 62
7
 10
-115.5
 20
-173.48963
 30
0.0
 11
-115.5
 21
-173.48963
 31
7.5
  0
LINE
  8
1
  5
290
  6
CONTINUOUS
 62
7
 10
-115.5
 20
-173.48963
 30
0.0
 11
-115.5
 21
-180.0
 31
0.0
  0
LINE
  8
1
  5
292
  6
CONTINUOUS
 62
7
 10
-118.90024
 20
-169.44979
 30
0.0
 11
-118.90024
 21
-169.44979
 31
7.5
  0
ARC
  8
1
  5
294
  6
CONTINUOUS
 62
7
 210
0.0
 220
0.0
 230
-1.0
 10
119.6
 20
-173.489633
 30
0.0
 40
4.1
 50
99.8269555556
 51
180.0
  0
LINE
  8
1
  5
296
  6
CONTINUOUS
 62
7
 10
-118.90024
 20
-95.55021
 30
0.0
 11
-118.90024
 21
-95.55021
 31
7.5
  0
ARC
  8
1
  5
298
  6
CONTINUOUS
 62
7
 10
-112.5
 20
-132.5
 30
0.0
 40
37.5
 50
99.8269555556
 51
260.1730444444
  0
LINE
  8
1
  5
29A
  6
CONTINUOUS
 62
7
 10
-115.5
 20
-91.51037
 30
0.0
 11
-115.5
 21
-91.51037
 31
7.5
  0
ARC
  8
1
  5
29C
  6
CONTINUOUS
 62
7
 210
0.0
 220
0.0
 230
-1.0
 10
119.6
 20
-91.510367
 30
0.0
 40
4.1
 50
180.0
 51
260.1730444444
  0
LINE
  8
1
  5
29E
  6
CONTINUOUS
 62
7
 10
-115.5
 20
-50.0
 30
0.0
 11
-115.5
 21
-50.0
 31
7.5
  0
LINE
  8
1
  5
2A0
  6
CONTINUOUS
 62
7
 10
-115.5
 20
-50.0
 30
0.0
 11
-115.5
 21
-91.51037
 31
0.0
  0
LINE
  8
1
  5
2A2
  6
CONTINUOUS
 62
7
 10
90.0
 20
-50.0
 30
0.0
 11
-115.5
 21
-50.0
 31
0.0
  0
LINE
  8
1
  5
2A4
  6
CONTINUOUS
 62
7
 10
-82.5
 20
-125.0
 30
0.0
 11
-82.5
 21
-125.0
 31
7.5
  0
ARC
  8
1
  5
2A6
  6
CONTINUOUS
 62
7
 210
0.0
 220
0.0
 230
-1.0
 10
112.5
 20
-132.5
 30
0.0
 40
30.923292
 50
165.9637573747
 51
194.0362434858
  0
LINE
  8
1
  5
2A8
  6
CONTINUOUS
 62
7
 10
-82.5
 20
-140.0
 30
0.0
 11
-82.5
 21
-140.0
 31
7.5
  0
LINE
  8
1
  5
2AA
  6
CONTINUOUS
 62
7
 10
-82.50042
 20
-125.0001
 30
0.0
 11
-82.50042
 21
-125.0001
 31
7.5
  0
LINE
  8
1
  5
2AC
  6
CONTINUOUS
 62
7
 10
-82.50042
 20
-125.0001
 30
0.0
 11
-82.5
 21
-125.0
 31
0.0
  0
LINE
  8
1
  5
2AE
  6
CONTINUOUS
 62
7
 10
-90.48167
 20
-125.0
 30
0.0
 11
-90.48167
 21
-125.0
 31
7.5
  0
ARC
  8
1
  5
2B0
  6
CONTINUOUS
 62
7
 210
0.0
 220
0.0
 230
-1.0
 10
86.491057
 20
-125.940739
 30
0.0
 40
4.1
 50
13.264609292
 51
166.7368231808
  0
LINE
  8
1
  5
2B2
  6
CONTINUOUS
 62
7
 10
-105.0
 20
-125.0
 30
0.0
 11
-105.0
 21
-125.0
 31
7.5
  0
LINE
  8
1
  5
2B4
  6
CONTINUOUS
 62
7
 10
-105.0
 20
-125.0
 30
0.0
 11
-90.48167
 21
-125.0
 31
0.0
  0
LINE
  8
1
  5
2B6
  6
CONTINUOUS
 62
7
 10
-105.0
 20
-118.02078
 30
0.0
 11
-105.0
 21
-118.02078
 31
7.5
  0
LINE
  8
1
  5
2B8
  6
CONTINUOUS
 62
7
 10
-105.0
 20
-118.02078
 30
0.0
 11
-105.0
 21
-125.0
 31
0.0
  0
LINE
  8
1
  5
2BA
  6
CONTINUOUS
 62
7
 10
-112.5
 20
-115.72949
 30
0.0
 11
-112.5
 21
-115.72949
 31
7.5
  0
ARC
  8
1
  5
2BC
  6
CONTINUOUS
 62
7
 210
0.0
 220
0.0
 230
-1.0
 10
109.1
 20
-118.02078
 30
0.0
 40
4.1
 50
33.9763527778
 51
180.0
  0
LINE
  8
1
  5
2BE
  6
CONTINUOUS
 62
7
 10
-112.5
 20
-115.72949
 30
0.0
 11
-112.5
 21
-115.72949
 31
7.5
  0
POINT
  8
1
  5
2C0
  6
CONTINUOUS
 62
7
 10
-112.5
 20
-115.72949
 30
0.0
 50
0.0
  0
LINE
  8
1
  5
2C2
  6
CONTINUOUS
 62
7
 10
-127.5
 20
-125.0
 30
0.0
 11
-127.5
 21
-125.0
 31
7.5
  0
ARC
  8
1
  5
2C4
  6
CONTINUOUS
 62
7
 210
0.0
 220
0.0
 230
-1.0
 10
112.5
 20
-132.5
 30
0.0
 40
16.77051
 50
26.5650516078
 51
89.99999883
  0
LINE
  8
1
  5
2C6
  6
CONTINUOUS
 62
7
 10
-134.51833
 20
-125.0
 30
0.0
 11
-134.51833
 21
-125.0
 31
7.5
  0
LINE
  8
1
  5
2C8
  6
CONTINUOUS
 62
7
 10
-134.51833
 20
-125.0
 30
0.0
 11
-127.5
 21
-125.0
 31
0.0
  0
LINE
  8
1
  5
2CA
  6
CONTINUOUS
 62
7
 10
-142.49937
 20
-124.99921
 30
0.0
 11
-142.49937
 21
-124.99921
 31
7.5
  0
ARC
  8
1
  5
2CC
  6
CONTINUOUS
 62
7
 210
0.0
 220
0.0
 230
-1.0
 10
138.508943
 20
-125.940739
 30
0.0
 40
4.1
 50
13.2759573747
 51
166.735390708
  0
LINE
  8
1
  5
2CE
  6
CONTINUOUS
 62
7
 10
-142.5
 20
-125.0
 30
0.0
 11
-142.5
 21
-125.0
 31
7.5
  0
LINE
  8
1
  5
2D0
  6
CONTINUOUS
 62
7
 10
-142.5
 20
-125.0
 30
0.0
 11
-142.49937
 21
-124.99921
 31
0.0
  0
LINE
  8
1
  5
2D2
  6
CONTINUOUS
 62
7
 10
-142.48447
 20
-140.06186
 30
0.0
 11
-142.48447
 21
-140.06186
 31
7.5
  0
ARC
  8
1
  5
2D4
  6
CONTINUOUS
 62
7
 210
0.0
 220
0.0
 230
-1.0
 10
112.5
 20
-132.5
 30
0.0
 40
30.923292
 50
345.8455851525
 51
14.0362434858
  0
LINE
  8
1
  5
2D6
  6
CONTINUOUS
 62
7
 10
-134.51826
 20
-139.9997
 30
0.0
 11
-134.51826
 21
-139.9997
 31
7.5
  0
ARC
  8
1
  5
2D8
  6
CONTINUOUS
 62
7
 210
0.0
 220
0.0
 230
-1.0
 10
138.508943
 20
-139.059261
 30
0.0
 40
4.1
 50
193.2603565142
 51
345.845584292
  0
LINE
  8
1
  5
2DA
  6
CONTINUOUS
 62
7
 10
-120.0
 20
-140.0
 30
0.0
 11
-120.0
 21
-140.0
 31
7.5
  0
LINE
  8
1
  5
2DC
  6
CONTINUOUS
 62
7
 10
-120.0
 20
-140.0
 30
0.0
 11
-134.51826
 21
-139.9997
 31
0.0
  0
LINE
  8
1
  5
2DE
  6
CONTINUOUS
 62
7
 10
-120.0
 20
-146.97922
 30
0.0
 11
-120.0
 21
-146.97922
 31
7.5
  0
LINE
  8
1
  5
2E0
  6
CONTINUOUS
 62
7
 10
-120.0
 20
-146.97922
 30
0.0
 11
-120.0
 21
-140.0
 31
0.0
  0
LINE
  8
1
  5
2E2
  6
CONTINUOUS
 62
7
 10
-112.5
 20
-149.27051
 30
0.0
 11
-112.5
 21
-149.27051
 31
7.5
  0
ARC
  8
1
  5
2E4
  6
CONTINUOUS
 62
7
 210
0.0
 220
0.0
 230
-1.0
 10
115.9
 20
-146.97922
 30
0.0
 40
4.1
 50
213.9763527778
 51
360.0
  0
LINE
  8
1
  5
2E6
  6
CONTINUOUS
 62
7
 10
-112.5
 20
-149.27051
 30
0.0
 11
-112.5
 21
-149.27051
 31
7.5
  0
POINT
  8
1
  5
2E8
  6
CONTINUOUS
 62
7
 10
-112.5
 20
-149.27051
 30
0.0
 50
0.0
  0
LINE
  8
1
  5
2EA
  6
CONTINUOUS
 62
7
 10
-97.5
 20
-140.0
 30
0.0
 11
-97.5
 21
-140.0
 31
7.5
  0
ARC
  8
1
  5
2EC
  6
CONTINUOUS
 62
7
 210
0.0
 220
0.0
 230
-1.0
 10
112.5
 20
-132.5
 30
0.0
 40
16.77051
 50
206.5650516078
 51
269.99999883
  0
LINE
  8
1
  5
2EE
  6
CONTINUOUS
 62
7
 10
-90.48167
 20
-140.0
 30
0.0
 11
-90.48167
 21
-140.0
 31
7.5
  0
LINE
  8
1
  5
2F0
  6
CONTINUOUS
 62
7
 10
-90.48167
 20
-140.0
 30
0.0
 11
-97.5
 21
-140.0
 31
0.0
  0
LINE
  8
1
  5
2F2
  6
CONTINUOUS
 62
7
 10
-82.50042
 20
-139.9999
 30
0.0
 11
-82.50042
 21
-139.9999
 31
7.5
  0
ARC
  8
1
  5
2F4
  6
CONTINUOUS
 62
7
 210
0.0
 220
0.0
 230
-1.0
 10
86.491057
 20
-139.059261
 30
0.0
 40
4.1
 50
193.2631768192
 51
346.735390708
  0
LINE
  8
1
  5
2F6
  6
CONTINUOUS
 62
7
 10
-82.5
 20
-140.0
 30
0.0
 11
-82.50042
 21
-139.9999
 31
0.0
  0
ENDBLK
  8
1
  5
2F7
  0
BLOCK
  8
1
  5
2F9
 70
1
 10
0.0
 20
0.0
 30
0.0
  2
*M11
  3
*M11
  0
LINE
  8
1
  5
2FB
  6
CONTINUOUS
 62
7
 10
-109.5
 20
-91.51037
 30
15.0
 11
-109.5
 21
-91.51037
 31
7.5
  0
LINE
  8
1
  5
2FD
  6
CONTINUOUS
 62
7
 10
-109.5
 20
-50.0
 30
15.0
 11
-109.5
 21
-91.51037
 31
15.0
  0
LINE
  8
1
  5
2FF
  6
CONTINUOUS
 62
7
 10
-106.09976
 20
-95.55021
 30
15.0
 11
-106.09976
 21
-95.55021
 31
7.5
  0
ARC
  8
1
  5
301
  6
CONTINUOUS
 62
7
 10
-105.4
 20
-91.510367
 30
15.0
 40
4.1
 50
180.0
 51
260.1730444444
  0
LINE
  8
1
  5
303
  6
CONTINUOUS
 62
7
 10
-106.09976
 20
-169.44979
 30
15.0
 11
-106.09976
 21
-169.44979
 31
7.5
  0
ARC
  8
1
  5
305
  6
CONTINUOUS
 62
7
 210
0.0
 220
0.0
 230
-1.0
 10
112.5
 20
-132.5
 30
-15.0
 40
37.5
 50
99.8269555556
 51
260.1730444444
  0
LINE
  8
1
  5
307
  6
CONTINUOUS
 62
7
 10
-109.5
 20
-173.48963
 30
15.0
 11
-109.5
 21
-173.48963
 31
7.5
  0
ARC
  8
1
  5
309
  6
CONTINUOUS
 62
7
 10
-105.4
 20
-173.489633
 30
15.0
 40
4.1
 50
99.8269555556
 51
180.0
  0
LINE
  8
1
  5
30B
  6
CONTINUOUS
 62
7
 10
-109.5
 20
-180.0
 30
15.0
 11
-109.5
 21
-180.0
 31
7.5
  0
LINE
  8
1
  5
30D
  6
CONTINUOUS
 62
7
 10
-109.5
 20
-173.48963
 30
15.0
 11
-109.5
 21
-180.0
 31
15.0
  0
LINE
  8
1
  5
30F
  6
CONTINUOUS
 62
7
 10
-109.5
 20
-180.0
 30
15.0
 11
-109.5
 21
-215.0
 31
15.0
  0
ENDBLK
  8
1
  5
310
  0
BLOCK
  8
1
  5
312
 70
1
 10
0.0
 20
0.0
 30
0.0
  2
*M12
  3
*M12
  0
INSERT
  8
1
  5
314
  6
CONTINUOUS
 62
7
  2
*M10
 10
0.0
 20
0.0
 30
0.0
 41
1.0
 42
1.0
 43
1.0
 70
1
 71
1
  0
INSERT
  8
1
  5
316
  6
CONTINUOUS
 62
7
  2
*M11
 10
0.0
 20
0.0
 30
0.0
 41
1.0
 42
1.0
 43
1.0
 70
1
 71
1
  0
ENDBLK
  8
1
  5
317
  0
ENDSEC
  0
SECTION
  2
ENTITIES
  0
INSERT
  8
1
  5
2
  6
CONTINUOUS
 62
7
  2
*M0
 10
81.51494
 20
397.29519
 30
0.0
 41
1.0
 42
1.0
 43
1.0
 70
1
 71
1
  0
INSERT
  8
1
  5
4
  6
CONTINUOUS
 62
7
  2
*M9
 10
531.50088
 20
275.73894
 30
0.0
 41
1.0
 42
1.0
 43
1.0
 70
1
 71
1
  0
INSERT
  8
1
  5
6
  6
CONTINUOUS
 62
7
  2
*M12
 10
456.50088
 20
275.73894
 30
0.0
 41
1.0
 42
1.0
 43
1.0
 70
1
 71
1
  0
ENDSEC
  0
EOF
