  0
SECTION
  2
HEADER
  9
$ACADVER
  1
AC1009
  9
$INSBASE
 10
0.0
 20
0.0
 30
0.0
  9
$EXTMAX
 10
270.0
 20
120.0
 30
32.0
  9
$EXTMIN
 10
-20.0
 20
-70.0
 30
0.0
  9
$LIMMAX
 10
12.0
 20
9.0
  9
$LIMMIN
 10
0.0
 20
0.0
  9
$ORTHOMODE
 70
0
  9
$REGENMODE
 70
1
  9
$FILLMODE
 70
1
  9
$QTEXTMODE
 70
0
  9
$MIRRTEXT
 70
1
  9
$DRAGMODE
 70
2
  9
$LTSCALE
 40
1.0
  9
$OSMODE
 70
0
  9
$ATTMODE
 70
1
  9
$TEXTSIZE
 40
0.2
  9
$TRACEWID
 40
0.05
  9
$TEXTSTYLE
  7
STANDARD
  9
$CLAYER
  8
0
  9
$CELTYPE
  6
CONTINUOUS
  9
$CECOLOR
 62
256
  9
$DIMSCALE
 40
1.0
  9
$DIMASZ
 40
0.18
  9
$DIMEXO
 40
0.0625
  9
$DIMDLI
 40
0.38
  9
$DIMRND
 40
0.0
  9
$DIMDLE
 40
0.0
  9
$DIMEXE
 40
0.18
  9
$DIMTP
 40
0.0
  9
$DIMTM
 40
0.0
  9
$DIMTXT
 40
0.18
  9
$DIMCEN
 40
0.09
  9
$DIMTSZ
 40
0.0
  9
$DIMTOL
 70
0
  9
$DIMLIM
 70
0
  9
$DIMTIH
 70
1
  9
$DIMTOH
 70
1
  9
$DIMSE1
 70
0
  9
$DIMSE2
 70
0
  9
$DIMTAD
 70
0
  9
$DIMZIN
 70
0
  9
$DIMBLK
  1

  9
$DIMASO
 70
1
  9
$DIMSHO
 70
1
  9
$DIMPOST
  1

  9
$DIMAPOST
  1

  9
$DIMALT
 70
0
  9
$DIMALTD
 70
2
  9
$DIMALTF
 40
25.4
  9
$DIMLFAC
 40
1.0
  9
$DIMTOFL
 70
0
  9
$DIMTVP
 40
0.0
  9
$DIMTIX
 70
0
  9
$DIMSOXD
 70
0
  9
$DIMSAH
 70
0
  9
$DIMBLK1
  1

  9
$DIMBLK2
  1

  9
$DIMSTYLE
  2
*UNNAMED
  9
$DIMCLRD
 70
0
  9
$DIMCLRE
 70
0
  9
$DIMCLRT
 70
0
  9
$DIMTFAC
 40
1.0
  9
$DIMGAP
 40
0.09
  9
$LUNITS
 70
2
  9
$LUPREC
 70
4
  9
$AXISMODE
 70
0
  9
$AXISUNIT
 10
0.0
 20
0.0
  9
$SKETCHINC
 40
0.1
  9
$FILLETRAD
 40
0.0
  9
$AUNITS
 70
0
  9
$AUPREC
 70
0
  9
$MENU
  1
acad
  9
$ELEVATION
 40
0.0
  9
$PELEVATION
 40
0.0
  9
$THICKNESS
 40
0.0
  9
$LIMCHECK
 70
0
  9
$BLIPMODE
 70
1
  9
$CHAMFERA
 40
0.0
  9
$CHAMFERB
 40
0.0
  9
$SKPOLY
 70
0
  9
$TDCREATE
 40
0.0
  9
$TDUPDATE
 40
0.0
  9
$TDINDWG
 40
0.0
  9
$TDUSRTIMER
 40
0.0
  9
$USRTIMER
 70
1
  9
$ANGBASE
 50
0.0
  9
$ANGDIR
 70
0
  9
$PDMODE
 70
0
  9
$PDSIZE
 40
0.0
  9
$PLINEWID
 40
0.0
  9
$COORDS
 70
0
  9
$SPLFRAME
 70
0
  9
$SPLINETYPE
 70
6
  9
$SPLINESEGS
 70
10
  9
$ATTDIA
 70
0
  9
$ATTREQ
 70
1
  9
$HANDLING
 70
1
  9
$HANDSEED
  5
C2
  9
$SURFTAB1
 70
6
  9
$SURFTAB2
 70
6
  9
$SURFTYPE
 70
6
  9
$SURFU
 70
10
  9
$SURFV
 70
10
  9
$UCSNAME
  2

  9
$UCSORG
 10
0.0
 20
0.0
 30
0.0
  9
$UCSXDIR
 10
1.0
 20
0.0
 30
0.0
  9
$UCSYDIR
 10
0.0
 20
1.0
 30
0.0
  9
$PUCSNAME
  2
 
  9
$PUCSORG
 10
0.0
 20
0.0
 30
0.0
  9
$PUCSXDIR
 10
1.0
 20
0.0
 30
0.0
  9
$PUCSYDIR
 10
0.0
 20
1.0
 30
0.0
  9
$USERI1
 70
0
  9
$USERI2
 70
0
  9
$USERI3
 70
0
  9
$USERI4
 70
0
  9
$USERI5
 70
0
  9
$USERR1
 40
0.0
  9
$USERR2
 40
0.0
  9
$USERR3
 40
0.0
  9
$USERR4
 40
0.0
  9
$USERR5
 40
0.0
  9
$WORLDVIEW
 70
1
  9
$SHADEDGE
 70
3
  9
$SHADEDIF
 70
70
  9
$TILEMODE
 70
1
  9
$MAXACTVP
 70
16
  9
$PINSBASE
 10
0.0
 20
0.0
 30
0.0
  9
$PLIMCHECK
 70
0
  9
$PEXTMIN
 10
-1.000000E+020
 20
-1.000000E+020
 30
-1.000000E+020
  9
$PEXTMAX
 10
-1.000000E+020
 20
-1.000000E+020
 30
-1.000000E+020
  9
$PLIMMIN
 10
0.0
 20
0.0
  9
$PLIMMAX
 10
12.0
 20
9.0
  9
$UNITMODE
 70
0
  9
$VISRETAIN
 70
0
  0
ENDSEC
  0
SECTION
  2
TABLES
  0
TABLE
  2
LTYPE
 70
7
  0
LTYPE
  2
CONTINUOUS
 70
64
  3
Solid line
 72
65
 73
0
 40
0.0
  0
LTYPE
  2
DOT
 70
64
  3
. . . . . . . . . . . . . . . . . . . . . . . . . . . . . . . . .
 72
65
 73
2
 40
0.25
 49
0.0
 49
-0.25
  0
LTYPE
  2
HIDDEN
 70
64
  3
__ __ __ __ __ __ __ __ __ __ __ __ __ __ __ __ __ __ __ __ __ 
 72
65
 73
2
 40
0.375
 49
0.25
 49
-0.125
  0
LTYPE
  2
DASHED
 70
64
  3
__ __ __ __ __ __ __ __ __ __ __ __ __ __ __ __ __ __ __ __ __
 72
65
 73
2
 40
0.75
 49
0.5
 49
-0.25
  0
LTYPE
  2
DASHDOT
 70
64
  3
__ . __ . __ . __ . __ . __ . __ . __ . __ . __ . __ . __ . _
 72
65
 73
4
 40
1.0
 49
0.5
 49
-0.25
 49
0.0
 49
-0.25
  0
LTYPE
  2
DIVIDE
 70
64
  3
____ . . ____ . . ____ . . ____ . . ____ . . ____ . . ____ . .
 72
65
 73
6
 40
1.25
 49
0.5
 49
-0.25
 49
0.0
 49
-0.25
 49
0.0
 49
-0.25
  0
LTYPE
  2
CENTER
 70
64
  3
____ _ ____ _ ____ _ ____ _ ____ _ ____ _ ____ _ ____ _ ____ _
 72
65
 73
4
 40
2.0
 49
1.25
 49
-0.25
 49
0.25
 49
-0.25
  0
ENDTAB
  0
TABLE
  2
APPID
 70
1
  0
APPID
  2
ACAD
 70
0
  0
ENDTAB
  0
TABLE
  2
DIMSTYLE
 70
0
  0
ENDTAB
  0
TABLE
  2
LAYER
 70
4
  0
LAYER
  2
0
 70
0
 62
7
  6
CONTINUOUS
  0
LAYER
  2
CONSTRUCTION_CLASS
 70
0
 62
7
  6
CONTINUOUS
  0
LAYER
  2
PATTERN_CLASS
 70
0
 62
7
  6
CONTINUOUS
  0
LAYER
  2
1
 70
0
 62
7
  6
CONTINUOUS
  0
ENDTAB
  0
TABLE
  2
STYLE
 70
1
  0
STYLE
  2
STANDARD
 70
0
 40
0.2
 41
1.0
 50
0.0
 71
0
 42
0.0
  3
txt
  4

  0
ENDTAB
  0
TABLE
  2
UCS
 70
0
  0
ENDTAB
  0
TABLE
  2
VIEW
 70
0
  0
ENDTAB
  0
TABLE
  2
VPORT
 70
4
  0
VPORT
  2
*ACTIVE
 70
0
 10
0.001642
 20
0.50168
 11
0.499179
 21
0.99776
 12
0.0
 22
0.0
 13
0.0
 23
0.0
 14
0.0
 24
0.0
 15
0.0
 25
0.0
 16
0.0
 26
-2.490923E-015
 36
40.6812
 17
110.27979
 27
24.999995
 37
16.0
 40
195.77499
 41
1.367946
 42
50.0
 43
20.3406
 44
-20.3406
 50
0.0
 51
0.0
 71
22
 72
100
 73
1
 74
0
 75
0
 76
0
 77
0
 78
0
  0
VPORT
  2
*ACTIVE
 70
0
 10
0.500821
 20
0.50168
 11
0.998358
 21
0.99776
 12
0.0
 22
0.0
 13
0.0
 23
0.0
 14
0.0
 24
0.0
 15
0.0
 25
0.0
 16
-152.421302
 26
-152.421302
 36
152.421302
 17
149.898965
 27
32.462703
 37
13.361671
 40
199.07422
 41
1.367946
 42
50.0
 43
132.00072
 44
-132.00072
 50
0.0
 51
0.0
 71
22
 72
100
 73
1
 74
0
 75
0
 76
0
 77
0
 78
0
  0
VPORT
  2
*ACTIVE
 70
0
 10
0.001642
 20
0.003359
 11
0.499179
 21
0.49944
 12
0.0
 22
0.0
 13
0.0
 23
0.0
 14
0.0
 24
0.0
 15
0.0
 25
0.0
 16
0.0
 26
-198.6812
 36
0.0
 17
110.279797
 27
25.0
 37
16.0
 40
195.775
 41
1.367946
 42
50.0
 43
99.3406
 44
-99.3406
 50
0.0
 51
0.0
 71
22
 72
100
 73
1
 74
0
 75
0
 76
0
 77
0
 78
0
  0
VPORT
  2
*ACTIVE
 70
0
 10
0.500821
 20
0.003359
 11
0.998358
 21
0.49944
 12
0.0
 22
0.0
 13
0.0
 23
0.0
 14
0.0
 24
0.0
 15
0.0
 25
0.0
 16
297.25
 26
0.0
 36
0.0
 17
125.0
 27
15.291115
 37
16.0
 40
129.12572
 41
1.367946
 42
50.0
 43
148.625
 44
-148.625
 50
0.0
 51
0.0
 71
22
 72
100
 73
1
 74
0
 75
0
 76
0
 77
0
 78
0
  0
ENDTAB
  0
ENDSEC
  0
SECTION
  2
BLOCKS
  0
BLOCK
  8
1
  5
6
 70
1
 10
0.0
 20
0.0
 30
0.0
  2
*M0
  3
*M0
  0
LINE
  8
1
  5
8
  6
CONTINUOUS
 62
7
 10
233.95
 20
0.0
 30
0.0
 11
233.95
 21
0.0
 31
32.0
  0
LINE
  8
1
  5
A
  6
CONTINUOUS
 62
7
 10
238.0
 20
-4.05
 30
0.0
 11
238.0
 21
-4.05
 31
32.0
  0
LINE
  8
1
  5
C
  6
CONTINUOUS
 62
7
 10
258.05
 20
0.0
 30
0.0
 11
258.05
 21
0.0
 31
32.0
  0
LINE
  8
1
  5
E
  6
CONTINUOUS
 62
7
 10
254.0
 20
-4.05
 30
0.0
 11
254.0
 21
-4.05
 31
32.0
  0
LINE
  8
1
  5
10
  6
CONTINUOUS
 62
7
 10
258.05
 20
50.0
 30
0.0
 11
258.05
 21
50.0
 31
32.0
  0
LINE
  8
1
  5
12
  6
CONTINUOUS
 62
7
 10
254.0
 20
54.05
 30
0.0
 11
254.0
 21
54.05
 31
32.0
  0
LINE
  8
1
  5
14
  6
CONTINUOUS
 62
7
 10
238.0
 20
54.05
 30
0.0
 11
238.0
 21
54.05
 31
32.0
  0
LINE
  8
1
  5
16
  6
CONTINUOUS
 62
7
 10
233.95
 20
50.0
 30
0.0
 11
233.95
 21
50.0
 31
32.0
  0
LINE
  8
1
  5
18
  6
CONTINUOUS
 62
7
 10
270.0
 20
-70.0
 30
32.0
 11
220.0
 21
-70.0
 31
32.0
  0
LINE
  8
1
  5
1A
  6
CONTINUOUS
 62
7
 10
220.0
 20
-70.0
 30
0.0
 11
220.0
 21
-70.0
 31
32.0
  0
LINE
  8
1
  5
1C
  6
CONTINUOUS
 62
7
 10
220.0
 20
-70.0
 30
0.0
 11
270.0
 21
-70.0
 31
0.0
  0
LINE
  8
1
  5
1E
  6
CONTINUOUS
 62
7
 10
270.0
 20
-70.0
 30
0.0
 11
270.0
 21
-70.0
 31
32.0
  0
LINE
  8
1
  5
20
  6
CONTINUOUS
 62
7
 10
220.0
 20
-70.0
 30
32.0
 11
220.0
 21
120.0
 31
32.0
  0
LINE
  8
1
  5
22
  6
CONTINUOUS
 62
7
 10
220.0
 20
120.0
 30
0.0
 11
220.0
 21
120.0
 31
32.0
  0
LINE
  8
1
  5
24
  6
CONTINUOUS
 62
7
 10
220.0
 20
120.0
 30
0.0
 11
220.0
 21
-70.0
 31
0.0
  0
LINE
  8
1
  5
26
  6
CONTINUOUS
 62
7
 10
220.0
 20
120.0
 30
32.0
 11
270.0
 21
120.0
 31
32.0
  0
LINE
  8
1
  5
28
  6
CONTINUOUS
 62
7
 10
270.0
 20
120.0
 30
0.0
 11
270.0
 21
120.0
 31
32.0
  0
LINE
  8
1
  5
2A
  6
CONTINUOUS
 62
7
 10
270.0
 20
120.0
 30
0.0
 11
220.0
 21
120.0
 31
0.0
  0
LINE
  8
1
  5
2C
  6
CONTINUOUS
 62
7
 10
270.0
 20
120.0
 30
32.0
 11
270.0
 21
-70.0
 31
32.0
  0
LINE
  8
1
  5
2E
  6
CONTINUOUS
 62
7
 10
270.0
 20
-70.0
 30
0.0
 11
270.0
 21
120.0
 31
0.0
  0
LINE
  8
1
  5
30
  6
CONTINUOUS
 62
7
 10
238.0
 20
44.20172
 30
32.0
 11
238.0
 21
5.79828
 31
32.0
  0
LINE
  8
1
  5
32
  6
CONTINUOUS
 62
7
 10
238.0
 20
5.79828
 30
0.0
 11
238.0
 21
5.79828
 31
32.0
  0
LINE
  8
1
  5
34
  6
CONTINUOUS
 62
7
 10
238.0
 20
5.79828
 30
0.0
 11
238.0
 21
44.20172
 31
0.0
  0
LINE
  8
1
  5
36
  6
CONTINUOUS
 62
7
 10
238.0
 20
44.20172
 30
0.0
 11
238.0
 21
44.20172
 31
32.0
  0
LINE
  8
1
  5
38
  6
CONTINUOUS
 62
7
 10
238.0
 20
5.79828
 30
32.0
 11
235.13622
 21
2.86378
 31
32.0
  0
LINE
  8
1
  5
3A
  6
CONTINUOUS
 62
7
 10
235.13622
 20
2.86378
 30
0.0
 11
235.13622
 21
2.86378
 31
32.0
  0
LINE
  8
1
  5
3C
  6
CONTINUOUS
 62
7
 10
235.13622
 20
2.86378
 30
0.0
 11
238.0
 21
5.79828
 31
0.0
  0
ARC
  8
1
  5
3E
  6
CONTINUOUS
 62
7
 10
238.0
 20
-4.656613E-015
 30
32.0
 40
4.05
 50
135.0
 51
315.0
  0
LINE
  8
1
  5
40
  6
CONTINUOUS
 62
7
 10
240.86378
 20
-2.86378
 30
0.0
 11
240.86378
 21
-2.86378
 31
32.0
  0
ARC
  8
1
  5
42
  6
CONTINUOUS
 62
7
 210
0.0
 220
0.0
 230
-1.0
 10
-238.0
 20
-4.656613E-015
 30
0.0
 40
4.05
 50
225.0
 51
45.0
  0
LINE
  8
1
  5
44
  6
CONTINUOUS
 62
7
 10
240.86378
 20
-2.86378
 30
32.0
 11
243.79828
 21
0.0
 31
32.0
  0
LINE
  8
1
  5
46
  6
CONTINUOUS
 62
7
 10
243.79828
 20
0.0
 30
0.0
 11
243.79828
 21
0.0
 31
32.0
  0
LINE
  8
1
  5
48
  6
CONTINUOUS
 62
7
 10
243.79828
 20
0.0
 30
0.0
 11
240.86378
 21
-2.86378
 31
0.0
  0
LINE
  8
1
  5
4A
  6
CONTINUOUS
 62
7
 10
243.79828
 20
0.0
 30
32.0
 11
248.20172
 21
0.0
 31
32.0
  0
LINE
  8
1
  5
4C
  6
CONTINUOUS
 62
7
 10
248.20172
 20
0.0
 30
0.0
 11
248.20172
 21
0.0
 31
32.0
  0
LINE
  8
1
  5
4E
  6
CONTINUOUS
 62
7
 10
248.20172
 20
0.0
 30
0.0
 11
243.79828
 21
0.0
 31
0.0
  0
LINE
  8
1
  5
50
  6
CONTINUOUS
 62
7
 10
248.20172
 20
0.0
 30
32.0
 11
251.13622
 21
-2.86378
 31
32.0
  0
LINE
  8
1
  5
52
  6
CONTINUOUS
 62
7
 10
251.13622
 20
-2.86378
 30
0.0
 11
251.13622
 21
-2.86378
 31
32.0
  0
LINE
  8
1
  5
54
  6
CONTINUOUS
 62
7
 10
251.13622
 20
-2.86378
 30
0.0
 11
248.20172
 21
0.0
 31
0.0
  0
ARC
  8
1
  5
56
  6
CONTINUOUS
 62
7
 10
254.0
 20
-4.656613E-015
 30
32.0
 40
4.05
 50
225.0
 51
45.0
  0
LINE
  8
1
  5
58
  6
CONTINUOUS
 62
7
 10
256.86378
 20
2.86378
 30
0.0
 11
256.86378
 21
2.86378
 31
32.0
  0
ARC
  8
1
  5
5A
  6
CONTINUOUS
 62
7
 210
0.0
 220
0.0
 230
-1.0
 10
-254.0
 20
-4.656613E-015
 30
0.0
 40
4.05
 50
135.0
 51
315.0
  0
LINE
  8
1
  5
5C
  6
CONTINUOUS
 62
7
 10
256.86378
 20
2.86378
 30
32.0
 11
254.0
 21
5.79828
 31
32.0
  0
LINE
  8
1
  5
5E
  6
CONTINUOUS
 62
7
 10
254.0
 20
5.79828
 30
0.0
 11
254.0
 21
5.79828
 31
32.0
  0
LINE
  8
1
  5
60
  6
CONTINUOUS
 62
7
 10
254.0
 20
5.79828
 30
0.0
 11
256.86378
 21
2.86378
 31
0.0
  0
LINE
  8
1
  5
62
  6
CONTINUOUS
 62
7
 10
254.0
 20
5.79828
 30
32.0
 11
254.0
 21
44.20172
 31
32.0
  0
LINE
  8
1
  5
64
  6
CONTINUOUS
 62
7
 10
254.0
 20
44.20172
 30
0.0
 11
254.0
 21
44.20172
 31
32.0
  0
LINE
  8
1
  5
66
  6
CONTINUOUS
 62
7
 10
254.0
 20
44.20172
 30
0.0
 11
254.0
 21
5.79828
 31
0.0
  0
LINE
  8
1
  5
68
  6
CONTINUOUS
 62
7
 10
254.0
 20
44.20172
 30
32.0
 11
256.86378
 21
47.13622
 31
32.0
  0
LINE
  8
1
  5
6A
  6
CONTINUOUS
 62
7
 10
256.86378
 20
47.13622
 30
0.0
 11
256.86378
 21
47.13622
 31
32.0
  0
LINE
  8
1
  5
6C
  6
CONTINUOUS
 62
7
 10
256.86378
 20
47.13622
 30
0.0
 11
254.0
 21
44.20172
 31
0.0
  0
ARC
  8
1
  5
6E
  6
CONTINUOUS
 62
7
 10
254.0
 20
50.0
 30
32.0
 40
4.05
 50
315.0
 51
135.0
  0
LINE
  8
1
  5
70
  6
CONTINUOUS
 62
7
 10
251.13622
 20
52.86378
 30
0.0
 11
251.13622
 21
52.86378
 31
32.0
  0
ARC
  8
1
  5
72
  6
CONTINUOUS
 62
7
 210
0.0
 220
0.0
 230
-1.0
 10
-254.0
 20
50.0
 30
0.0
 40
4.05
 50
45.0
 51
225.0
  0
LINE
  8
1
  5
74
  6
CONTINUOUS
 62
7
 10
251.13622
 20
52.86378
 30
32.0
 11
248.20172
 21
50.0
 31
32.0
  0
LINE
  8
1
  5
76
  6
CONTINUOUS
 62
7
 10
248.20172
 20
50.0
 30
0.0
 11
248.20172
 21
50.0
 31
32.0
  0
LINE
  8
1
  5
78
  6
CONTINUOUS
 62
7
 10
248.20172
 20
50.0
 30
0.0
 11
251.13622
 21
52.86378
 31
0.0
  0
LINE
  8
1
  5
7A
  6
CONTINUOUS
 62
7
 10
248.20172
 20
50.0
 30
32.0
 11
243.79828
 21
50.0
 31
32.0
  0
LINE
  8
1
  5
7C
  6
CONTINUOUS
 62
7
 10
243.79828
 20
50.0
 30
0.0
 11
243.79828
 21
50.0
 31
32.0
  0
LINE
  8
1
  5
7E
  6
CONTINUOUS
 62
7
 10
243.79828
 20
50.0
 30
0.0
 11
248.20172
 21
50.0
 31
0.0
  0
LINE
  8
1
  5
80
  6
CONTINUOUS
 62
7
 10
243.79828
 20
50.0
 30
32.0
 11
240.86378
 21
52.86378
 31
32.0
  0
LINE
  8
1
  5
82
  6
CONTINUOUS
 62
7
 10
240.86378
 20
52.86378
 30
0.0
 11
240.86378
 21
52.86378
 31
32.0
  0
LINE
  8
1
  5
84
  6
CONTINUOUS
 62
7
 10
240.86378
 20
52.86378
 30
0.0
 11
243.79828
 21
50.0
 31
0.0
  0
ARC
  8
1
  5
86
  6
CONTINUOUS
 62
7
 10
238.0
 20
50.0
 30
32.0
 40
4.05
 50
45.0
 51
225.0
  0
LINE
  8
1
  5
88
  6
CONTINUOUS
 62
7
 10
235.13622
 20
47.13622
 30
0.0
 11
235.13622
 21
47.13622
 31
32.0
  0
ARC
  8
1
  5
8A
  6
CONTINUOUS
 62
7
 210
0.0
 220
0.0
 230
-1.0
 10
-238.0
 20
50.0
 30
0.0
 40
4.05
 50
315.0
 51
135.0
  0
LINE
  8
1
  5
8C
  6
CONTINUOUS
 62
7
 10
235.13622
 20
47.13622
 30
32.0
 11
238.0
 21
44.20172
 31
32.0
  0
LINE
  8
1
  5
8E
  6
CONTINUOUS
 62
7
 10
238.0
 20
44.20172
 30
0.0
 11
235.13622
 21
47.13622
 31
0.0
  0
ENDBLK
  8
1
  5
8F
  0
BLOCK
  8
1
  5
91
 70
1
 10
0.0
 20
0.0
 30
0.0
  2
*M1
  3
*M1
  0
LINE
  8
1
  5
93
  6
CONTINUOUS
 62
7
 10
158.0
 20
50.0
 30
16.0
 11
190.0
 21
50.0
 31
16.0
  0
LINE
  8
1
  5
95
  6
CONTINUOUS
 62
7
 10
158.0
 20
50.0
 30
16.0
 11
158.0
 21
0.0
 31
16.0
  0
LINE
  8
1
  5
97
  6
CONTINUOUS
 62
7
 10
190.0
 20
0.0
 30
16.0
 11
158.0
 21
0.0
 31
16.0
  0
LINE
  8
1
  5
99
  6
CONTINUOUS
 62
7
 10
190.0
 20
50.0
 30
16.0
 11
190.0
 21
0.0
 31
16.0
  0
LINE
  8
1
  5
9B
  6
CONTINUOUS
 62
7
 10
158.0
 20
50.0
 30
32.0
 11
158.0
 21
50.0
 31
16.0
  0
LINE
  8
1
  5
9D
  6
CONTINUOUS
 62
7
 10
158.0
 20
0.0
 30
32.0
 11
158.0
 21
50.0
 31
32.0
  0
LINE
  8
1
  5
9F
  6
CONTINUOUS
 62
7
 10
158.0
 20
0.0
 30
16.0
 11
158.0
 21
0.0
 31
32.0
  0
ENDBLK
  8
1
  5
A0
  0
BLOCK
  8
1
  5
A2
 70
1
 10
0.0
 20
0.0
 30
0.0
  2
*M2
  3
*M2
  0
LINE
  8
1
  5
A4
  6
CONTINUOUS
 62
7
 10
190.0
 20
0.0
 30
0.0
 11
190.0
 21
0.0
 31
16.0
  0
LINE
  8
1
  5
A6
  6
CONTINUOUS
 62
7
 10
190.0
 20
0.0
 30
0.0
 11
190.0
 21
50.0
 31
0.0
  0
LINE
  8
1
  5
A8
  6
CONTINUOUS
 62
7
 10
190.0
 20
50.0
 30
0.0
 11
190.0
 21
50.0
 31
16.0
  0
LINE
  8
1
  5
AA
  6
CONTINUOUS
 62
7
 10
158.0
 20
0.0
 30
32.0
 11
0.0
 21
0.0
 31
32.0
  0
LINE
  8
1
  5
AC
  6
CONTINUOUS
 62
7
 10
0.0
 20
0.0
 30
0.0
 11
0.0
 21
0.0
 31
32.0
  0
LINE
  8
1
  5
AE
  6
CONTINUOUS
 62
7
 10
0.0
 20
0.0
 30
0.0
 11
190.0
 21
0.0
 31
0.0
  0
LINE
  8
1
  5
B0
  6
CONTINUOUS
 62
7
 10
0.0
 20
0.0
 30
32.0
 11
0.0
 21
50.0
 31
32.0
  0
LINE
  8
1
  5
B2
  6
CONTINUOUS
 62
7
 10
0.0
 20
50.0
 30
0.0
 11
0.0
 21
50.0
 31
32.0
  0
LINE
  8
1
  5
B4
  6
CONTINUOUS
 62
7
 10
0.0
 20
50.0
 30
0.0
 11
0.0
 21
0.0
 31
0.0
  0
LINE
  8
1
  5
B6
  6
CONTINUOUS
 62
7
 10
190.0
 20
50.0
 30
0.0
 11
0.0
 21
50.0
 31
0.0
  0
LINE
  8
1
  5
B8
  6
CONTINUOUS
 62
7
 10
0.0
 20
50.0
 30
32.0
 11
158.0
 21
50.0
 31
32.0
  0
ENDBLK
  8
1
  5
B9
  0
BLOCK
  8
1
  5
BB
 70
1
 10
0.0
 20
0.0
 30
0.0
  2
*M3
  3
*M3
  0
INSERT
  8
1
  5
BD
  6
CONTINUOUS
 62
7
  2
*M1
 10
0.0
 20
0.0
 30
0.0
 41
1.0
 42
1.0
 43
1.0
 70
1
 71
1
  0
INSERT
  8
1
  5
BF
  6
CONTINUOUS
 62
7
  2
*M2
 10
0.0
 20
0.0
 30
0.0
 41
1.0
 42
1.0
 43
1.0
 70
1
 71
1
  0
ENDBLK
  8
1
  5
C0
  0
ENDSEC
  0
SECTION
  2
ENTITIES
  0
INSERT
  8
1
  5
2
  6
CONTINUOUS
 62
7
  2
*M0
 10
0.0
 20
0.0
 30
0.0
 41
1.0
 42
1.0
 43
1.0
 70
1
 71
1
  0
INSERT
  8
1
  5
4
  6
CONTINUOUS
 62
7
  2
*M3
 10
-20.0
 20
0.0
 30
0.0
 41
1.0
 42
1.0
 43
1.0
 70
1
 71
1
  0
ENDSEC
  0
EOF
