  0
SECTION
  2
HEADER
  9
$ACADVER
  1
AC1009
  9
$INSBASE
 10
0.0
 20
0.0
 30
0.0
  9
$EXTMAX
 10
-65.92696
 20
133.54156
 30
-23.22081
  9
$EXTMIN
 10
-355.92696
 20
-56.45844
 30
-55.22082
  9
$LIMMAX
 10
12.0
 20
9.0
  9
$LIMMIN
 10
0.0
 20
0.0
  9
$ORTHOMODE
 70
0
  9
$REGENMODE
 70
1
  9
$FILLMODE
 70
1
  9
$QTEXTMODE
 70
0
  9
$MIRRTEXT
 70
1
  9
$DRAGMODE
 70
2
  9
$LTSCALE
 40
1.0
  9
$OSMODE
 70
0
  9
$ATTMODE
 70
1
  9
$TEXTSIZE
 40
0.2
  9
$TRACEWID
 40
0.05
  9
$TEXTSTYLE
  7
STANDARD
  9
$CLAYER
  8
0
  9
$CELTYPE
  6
CONTINUOUS
  9
$CECOLOR
 62
256
  9
$DIMSCALE
 40
1.0
  9
$DIMASZ
 40
0.18
  9
$DIMEXO
 40
0.0625
  9
$DIMDLI
 40
0.38
  9
$DIMRND
 40
0.0
  9
$DIMDLE
 40
0.0
  9
$DIMEXE
 40
0.18
  9
$DIMTP
 40
0.0
  9
$DIMTM
 40
0.0
  9
$DIMTXT
 40
0.18
  9
$DIMCEN
 40
0.09
  9
$DIMTSZ
 40
0.0
  9
$DIMTOL
 70
0
  9
$DIMLIM
 70
0
  9
$DIMTIH
 70
1
  9
$DIMTOH
 70
1
  9
$DIMSE1
 70
0
  9
$DIMSE2
 70
0
  9
$DIMTAD
 70
0
  9
$DIMZIN
 70
0
  9
$DIMBLK
  1

  9
$DIMASO
 70
1
  9
$DIMSHO
 70
1
  9
$DIMPOST
  1

  9
$DIMAPOST
  1

  9
$DIMALT
 70
0
  9
$DIMALTD
 70
2
  9
$DIMALTF
 40
25.4
  9
$DIMLFAC
 40
1.0
  9
$DIMTOFL
 70
0
  9
$DIMTVP
 40
0.0
  9
$DIMTIX
 70
0
  9
$DIMSOXD
 70
0
  9
$DIMSAH
 70
0
  9
$DIMBLK1
  1

  9
$DIMBLK2
  1

  9
$DIMSTYLE
  2
*UNNAMED
  9
$DIMCLRD
 70
0
  9
$DIMCLRE
 70
0
  9
$DIMCLRT
 70
0
  9
$DIMTFAC
 40
1.0
  9
$DIMGAP
 40
0.09
  9
$LUNITS
 70
2
  9
$LUPREC
 70
4
  9
$AXISMODE
 70
0
  9
$AXISUNIT
 10
0.0
 20
0.0
  9
$SKETCHINC
 40
0.1
  9
$FILLETRAD
 40
0.0
  9
$AUNITS
 70
0
  9
$AUPREC
 70
0
  9
$MENU
  1
acad
  9
$ELEVATION
 40
0.0
  9
$PELEVATION
 40
0.0
  9
$THICKNESS
 40
0.0
  9
$LIMCHECK
 70
0
  9
$BLIPMODE
 70
1
  9
$CHAMFERA
 40
0.0
  9
$CHAMFERB
 40
0.0
  9
$SKPOLY
 70
0
  9
$TDCREATE
 40
0.0
  9
$TDUPDATE
 40
0.0
  9
$TDINDWG
 40
0.0
  9
$TDUSRTIMER
 40
0.0
  9
$USRTIMER
 70
1
  9
$ANGBASE
 50
0.0
  9
$ANGDIR
 70
0
  9
$PDMODE
 70
0
  9
$PDSIZE
 40
0.0
  9
$PLINEWID
 40
0.0
  9
$COORDS
 70
0
  9
$SPLFRAME
 70
0
  9
$SPLINETYPE
 70
6
  9
$SPLINESEGS
 70
10
  9
$ATTDIA
 70
0
  9
$ATTREQ
 70
1
  9
$HANDLING
 70
1
  9
$HANDSEED
  5
F6
  9
$SURFTAB1
 70
6
  9
$SURFTAB2
 70
6
  9
$SURFTYPE
 70
6
  9
$SURFU
 70
10
  9
$SURFV
 70
10
  9
$UCSNAME
  2

  9
$UCSORG
 10
0.0
 20
0.0
 30
0.0
  9
$UCSXDIR
 10
1.0
 20
0.0
 30
0.0
  9
$UCSYDIR
 10
0.0
 20
1.0
 30
0.0
  9
$PUCSNAME
  2
 
  9
$PUCSORG
 10
0.0
 20
0.0
 30
0.0
  9
$PUCSXDIR
 10
1.0
 20
0.0
 30
0.0
  9
$PUCSYDIR
 10
0.0
 20
1.0
 30
0.0
  9
$USERI1
 70
0
  9
$USERI2
 70
0
  9
$USERI3
 70
0
  9
$USERI4
 70
0
  9
$USERI5
 70
0
  9
$USERR1
 40
0.0
  9
$USERR2
 40
0.0
  9
$USERR3
 40
0.0
  9
$USERR4
 40
0.0
  9
$USERR5
 40
0.0
  9
$WORLDVIEW
 70
1
  9
$SHADEDGE
 70
3
  9
$SHADEDIF
 70
70
  9
$TILEMODE
 70
1
  9
$MAXACTVP
 70
16
  9
$PINSBASE
 10
0.0
 20
0.0
 30
0.0
  9
$PLIMCHECK
 70
0
  9
$PEXTMIN
 10
-1.000000E+020
 20
-1.000000E+020
 30
-1.000000E+020
  9
$PEXTMAX
 10
-1.000000E+020
 20
-1.000000E+020
 30
-1.000000E+020
  9
$PLIMMIN
 10
0.0
 20
0.0
  9
$PLIMMAX
 10
12.0
 20
9.0
  9
$UNITMODE
 70
0
  9
$VISRETAIN
 70
0
  0
ENDSEC
  0
SECTION
  2
TABLES
  0
TABLE
  2
LTYPE
 70
7
  0
LTYPE
  2
CONTINUOUS
 70
64
  3
Solid line
 72
65
 73
0
 40
0.0
  0
LTYPE
  2
DOT
 70
64
  3
. . . . . . . . . . . . . . . . . . . . . . . . . . . . . . . . .
 72
65
 73
2
 40
0.25
 49
0.0
 49
-0.25
  0
LTYPE
  2
HIDDEN
 70
64
  3
__ __ __ __ __ __ __ __ __ __ __ __ __ __ __ __ __ __ __ __ __ 
 72
65
 73
2
 40
0.375
 49
0.25
 49
-0.125
  0
LTYPE
  2
DASHED
 70
64
  3
__ __ __ __ __ __ __ __ __ __ __ __ __ __ __ __ __ __ __ __ __
 72
65
 73
2
 40
0.75
 49
0.5
 49
-0.25
  0
LTYPE
  2
DASHDOT
 70
64
  3
__ . __ . __ . __ . __ . __ . __ . __ . __ . __ . __ . __ . _
 72
65
 73
4
 40
1.0
 49
0.5
 49
-0.25
 49
0.0
 49
-0.25
  0
LTYPE
  2
DIVIDE
 70
64
  3
____ . . ____ . . ____ . . ____ . . ____ . . ____ . . ____ . .
 72
65
 73
6
 40
1.25
 49
0.5
 49
-0.25
 49
0.0
 49
-0.25
 49
0.0
 49
-0.25
  0
LTYPE
  2
CENTER
 70
64
  3
____ _ ____ _ ____ _ ____ _ ____ _ ____ _ ____ _ ____ _ ____ _
 72
65
 73
4
 40
2.0
 49
1.25
 49
-0.25
 49
0.25
 49
-0.25
  0
ENDTAB
  0
TABLE
  2
APPID
 70
1
  0
APPID
  2
ACAD
 70
0
  0
ENDTAB
  0
TABLE
  2
DIMSTYLE
 70
0
  0
ENDTAB
  0
TABLE
  2
LAYER
 70
4
  0
LAYER
  2
0
 70
0
 62
7
  6
CONTINUOUS
  0
LAYER
  2
CONSTRUCTION_CLASS
 70
0
 62
7
  6
CONTINUOUS
  0
LAYER
  2
PATTERN_CLASS
 70
0
 62
7
  6
CONTINUOUS
  0
LAYER
  2
1
 70
0
 62
7
  6
CONTINUOUS
  0
ENDTAB
  0
TABLE
  2
STYLE
 70
1
  0
STYLE
  2
STANDARD
 70
0
 40
0.2
 41
1.0
 50
0.0
 71
0
 42
0.0
  3
txt
  4

  0
ENDTAB
  0
TABLE
  2
UCS
 70
0
  0
ENDTAB
  0
TABLE
  2
VIEW
 70
0
  0
ENDTAB
  0
TABLE
  2
VPORT
 70
4
  0
VPORT
  2
*ACTIVE
 70
0
 10
0.001642
 20
0.50168
 11
0.499179
 21
0.99776
 12
0.0
 22
1.421085E-014
 13
0.0
 23
0.0
 14
0.0
 24
0.0
 15
0.0
 25
0.0
 16
0.0
 26
-4.400776E-014
 36
718.725
 17
-228.731385
 27
38.54156
 37
-39.22082
 40
194.75
 41
1.367946
 42
50.0
 43
359.3625
 44
-359.3625
 50
0.0
 51
0.0
 71
22
 72
100
 73
1
 74
0
 75
0
 76
0
 77
0
 78
0
  0
VPORT
  2
*ACTIVE
 70
0
 10
0.500821
 20
0.50168
 11
0.998358
 21
0.99776
 12
-5.684342E-014
 22
0.0
 13
0.0
 23
0.0
 14
0.0
 24
0.0
 15
0.0
 25
0.0
 16
-589.333336
 26
-589.333336
 36
589.333336
 17
-188.749147
 27
51.363744
 37
-39.220819
 40
198.34744
 41
1.367946
 42
50.0
 43
510.37764
 44
-510.37764
 50
0.0
 51
0.0
 71
22
 72
100
 73
1
 74
0
 75
0
 76
0
 77
0
 78
0
  0
VPORT
  2
*ACTIVE
 70
0
 10
0.001642
 20
0.003359
 11
0.499179
 21
0.49944
 12
0.0
 22
0.0
 13
0.0
 23
0.0
 14
0.0
 24
0.0
 15
0.0
 25
0.0
 16
0.0
 26
-760.0
 36
0.0
 17
-228.450399
 27
38.54156
 37
-39.22081
 40
191.67654
 41
1.367946
 42
50.0
 43
380.0
 44
-380.0
 50
0.0
 51
0.0
 71
22
 72
100
 73
1
 74
0
 75
0
 76
0
 77
0
 78
0
  0
VPORT
  2
*ACTIVE
 70
0
 10
0.500821
 20
0.003359
 11
0.998358
 21
0.49944
 12
0.0
 22
0.0
 13
0.0
 23
0.0
 14
0.0
 24
0.0
 15
0.0
 25
0.0
 16
1160.0
 26
0.0
 36
0.0
 17
-210.92696
 27
26.98151
 37
-39.220815
 40
126.44723
 41
1.367946
 42
50.0
 43
580.0
 44
-580.0
 50
0.0
 51
0.0
 71
22
 72
100
 73
1
 74
0
 75
0
 76
0
 77
0
 78
0
  0
ENDTAB
  0
ENDSEC
  0
SECTION
  2
BLOCKS
  0
BLOCK
  8
1
  5
6
 70
1
 10
0.0
 20
0.0
 30
0.0
  2
*M0
  3
*M0
  0
LINE
  8
1
  5
8
  6
CONTINUOUS
 62
7
 10
-46.0
 20
4.3
 30
30.0
 11
-46.0
 21
4.3
 31
8.0
  0
LINE
  8
1
  5
A
  6
CONTINUOUS
 62
7
 10
-54.0
 20
12.3
 30
30.0
 11
-54.0
 21
12.3
 31
8.0
  0
LINE
  8
1
  5
C
  6
CONTINUOUS
 62
7
 10
-46.0
 20
45.7
 30
30.0
 11
-46.0
 21
45.7
 31
8.0
  0
LINE
  8
1
  5
E
  6
CONTINUOUS
 62
7
 10
-38.0
 20
37.7
 30
30.0
 11
-38.0
 21
37.7
 31
8.0
  0
ARC
  8
1
  5
10
  6
CONTINUOUS
 62
7
 210
0.0
 220
0.0
 230
-1.0
 10
46.0
 20
12.3
 30
-30.0
 40
8.0
 50
180.0
 51
360.0
  0
LINE
  8
1
  5
12
  6
CONTINUOUS
 62
7
 10
-38.0
 20
12.3
 30
30.0
 11
-38.0
 21
12.3
 31
8.0
  0
ARC
  8
1
  5
14
  6
CONTINUOUS
 62
7
 10
-46.0
 20
12.3
 30
8.0
 40
8.0
 50
180.0
 51
360.0
  0
LINE
  8
1
  5
16
  6
CONTINUOUS
 62
7
 10
-54.0
 20
12.3
 30
30.0
 11
-54.0
 21
12.3
 31
8.0
  0
LINE
  8
1
  5
18
  6
CONTINUOUS
 62
7
 10
-54.0
 20
12.3
 30
30.0
 11
-54.0
 21
37.7
 31
30.0
  0
LINE
  8
1
  5
1A
  6
CONTINUOUS
 62
7
 10
-54.0
 20
37.7
 30
8.0
 11
-54.0
 21
12.3
 31
8.0
  0
LINE
  8
1
  5
1C
  6
CONTINUOUS
 62
7
 10
-54.0
 20
37.7
 30
30.0
 11
-54.0
 21
37.7
 31
8.0
  0
ARC
  8
1
  5
1E
  6
CONTINUOUS
 62
7
 210
0.0
 220
0.0
 230
-1.0
 10
46.0
 20
37.7
 30
-30.0
 40
8.0
 50
0.0
 51
180.0
  0
ARC
  8
1
  5
20
  6
CONTINUOUS
 62
7
 10
-46.0
 20
37.7
 30
8.0
 40
8.0
 50
360.0
 51
180.0
  0
LINE
  8
1
  5
22
  6
CONTINUOUS
 62
7
 10
-38.0
 20
37.7
 30
30.0
 11
-38.0
 21
37.7
 31
8.0
  0
LINE
  8
1
  5
24
  6
CONTINUOUS
 62
7
 10
-38.0
 20
12.3
 30
8.0
 11
-38.0
 21
37.7
 31
8.0
  0
ENDBLK
  8
1
  5
25
  0
BLOCK
  8
1
  5
27
 70
1
 10
0.0
 20
0.0
 30
0.0
  2
*M1
  3
*M1
  0
LINE
  8
1
  5
29
  6
CONTINUOUS
 62
7
 10
-23.9
 20
4.1
 30
32.0
 11
-23.9
 21
4.1
 31
30.0
  0
LINE
  8
1
  5
2B
  6
CONTINUOUS
 62
7
 10
-28.0
 20
0.0
 30
32.0
 11
-28.0
 21
0.0
 31
30.0
  0
LINE
  8
1
  5
2D
  6
CONTINUOUS
 62
7
 10
-23.9
 20
45.9
 30
32.0
 11
-23.9
 21
45.9
 31
30.0
  0
LINE
  8
1
  5
2F
  6
CONTINUOUS
 62
7
 10
-28.0
 20
41.8
 30
32.0
 11
-28.0
 21
41.8
 31
30.0
  0
LINE
  8
1
  5
31
  6
CONTINUOUS
 62
7
 10
-38.0
 20
8.2
 30
30.0
 11
-38.0
 21
12.3
 31
30.0
  0
LINE
  8
1
  5
33
  6
CONTINUOUS
 62
7
 10
-38.0
 20
8.2
 30
32.0
 11
-38.0
 21
8.2
 31
30.0
  0
LINE
  8
1
  5
35
  6
CONTINUOUS
 62
7
 10
-38.0
 20
41.8
 30
32.0
 11
-38.0
 21
8.2
 31
32.0
  0
LINE
  8
1
  5
37
  6
CONTINUOUS
 62
7
 10
-38.0
 20
41.8
 30
32.0
 11
-38.0
 21
41.8
 31
30.0
  0
LINE
  8
1
  5
39
  6
CONTINUOUS
 62
7
 10
-38.0
 20
37.7
 30
30.0
 11
-38.0
 21
41.8
 31
30.0
  0
LINE
  8
1
  5
3B
  6
CONTINUOUS
 62
7
 10
-38.0
 20
8.2
 30
32.0
 11
-28.0
 21
8.2
 31
32.0
  0
LINE
  8
1
  5
3D
  6
CONTINUOUS
 62
7
 10
-28.0
 20
8.2
 30
30.0
 11
-38.0
 21
8.2
 31
30.0
  0
LINE
  8
1
  5
3F
  6
CONTINUOUS
 62
7
 10
-28.0
 20
8.2
 30
32.0
 11
-28.0
 21
8.2
 31
30.0
  0
ARC
  8
1
  5
41
  6
CONTINUOUS
 62
7
 210
0.0
 220
0.0
 230
-1.0
 10
28.0
 20
4.1
 30
-32.0
 40
4.1
 50
90.0
 51
270.0
  0
ARC
  8
1
  5
43
  6
CONTINUOUS
 62
7
 10
-28.0
 20
4.1
 30
30.0
 40
4.1
 50
270.0
 51
90.0
  0
LINE
  8
1
  5
45
  6
CONTINUOUS
 62
7
 10
-28.0
 20
0.0
 30
32.0
 11
-28.0
 21
0.0
 31
30.0
  0
LINE
  8
1
  5
47
  6
CONTINUOUS
 62
7
 10
-28.0
 20
0.0
 30
32.0
 11
-70.0
 21
0.0
 31
32.0
  0
LINE
  8
1
  5
49
  6
CONTINUOUS
 62
7
 10
-70.0
 20
0.0
 30
30.0
 11
-28.0
 21
0.0
 31
30.0
  0
LINE
  8
1
  5
4B
  6
CONTINUOUS
 62
7
 10
-70.0
 20
0.0
 30
32.0
 11
-70.0
 21
0.0
 31
30.0
  0
LINE
  8
1
  5
4D
  6
CONTINUOUS
 62
7
 10
-38.0
 20
41.8
 30
30.0
 11
-28.0
 21
41.8
 31
30.0
  0
ARC
  8
1
  5
4F
  6
CONTINUOUS
 62
7
 10
-28.0
 20
45.9
 30
30.0
 40
4.1
 50
270.0
 51
90.0
  0
LINE
  8
1
  5
51
  6
CONTINUOUS
 62
7
 10
-28.0
 20
50.0
 30
30.0
 11
-70.0
 21
50.0
 31
30.0
  0
LINE
  8
1
  5
53
  6
CONTINUOUS
 62
7
 10
-70.0
 20
0.0
 30
30.0
 11
-70.0
 21
50.0
 31
30.0
  0
LINE
  8
1
  5
55
  6
CONTINUOUS
 62
7
 10
-28.0
 20
41.8
 30
32.0
 11
-38.0
 21
41.8
 31
32.0
  0
LINE
  8
1
  5
57
  6
CONTINUOUS
 62
7
 10
-28.0
 20
41.8
 30
32.0
 11
-28.0
 21
41.8
 31
30.0
  0
ARC
  8
1
  5
59
  6
CONTINUOUS
 62
7
 210
0.0
 220
0.0
 230
-1.0
 10
28.0
 20
45.9
 30
-32.0
 40
4.1
 50
90.0
 51
270.0
  0
LINE
  8
1
  5
5B
  6
CONTINUOUS
 62
7
 10
-28.0
 20
50.0
 30
32.0
 11
-28.0
 21
50.0
 31
30.0
  0
LINE
  8
1
  5
5D
  6
CONTINUOUS
 62
7
 10
-70.0
 20
50.0
 30
32.0
 11
-28.0
 21
50.0
 31
32.0
  0
LINE
  8
1
  5
5F
  6
CONTINUOUS
 62
7
 10
-70.0
 20
50.0
 30
30.0
 11
-70.0
 21
50.0
 31
32.0
  0
ENDBLK
  8
1
  5
60
  0
BLOCK
  8
1
  5
62
 70
1
 10
0.0
 20
0.0
 30
0.0
  2
*M2
  3
*M2
  0
LINE
  8
1
  5
64
  6
CONTINUOUS
 62
7
 10
-70.0
 20
50.0
 30
32.0
 11
-70.0
 21
120.0
 31
32.0
  0
LINE
  8
1
  5
66
  6
CONTINUOUS
 62
7
 10
-70.0
 20
120.0
 30
0.0
 11
-70.0
 21
120.0
 31
32.0
  0
LINE
  8
1
  5
68
  6
CONTINUOUS
 62
7
 10
-70.0
 20
-70.0
 30
0.0
 11
-70.0
 21
120.0
 31
0.0
  0
LINE
  8
1
  5
6A
  6
CONTINUOUS
 62
7
 10
-70.0
 20
-70.0
 30
0.0
 11
-70.0
 21
-70.0
 31
32.0
  0
LINE
  8
1
  5
6C
  6
CONTINUOUS
 62
7
 10
-70.0
 20
-70.0
 30
32.0
 11
-70.0
 21
0.0
 31
32.0
  0
LINE
  8
1
  5
6E
  6
CONTINUOUS
 62
7
 10
-70.0
 20
120.0
 30
32.0
 11
-20.0
 21
120.0
 31
32.0
  0
LINE
  8
1
  5
70
  6
CONTINUOUS
 62
7
 10
-20.0
 20
120.0
 30
0.0
 11
-20.0
 21
120.0
 31
32.0
  0
LINE
  8
1
  5
72
  6
CONTINUOUS
 62
7
 10
-70.0
 20
120.0
 30
0.0
 11
-20.0
 21
120.0
 31
0.0
  0
LINE
  8
1
  5
74
  6
CONTINUOUS
 62
7
 10
-20.0
 20
120.0
 30
32.0
 11
-20.0
 21
-70.0
 31
32.0
  0
LINE
  8
1
  5
76
  6
CONTINUOUS
 62
7
 10
-20.0
 20
-70.0
 30
0.0
 11
-20.0
 21
-70.0
 31
32.0
  0
LINE
  8
1
  5
78
  6
CONTINUOUS
 62
7
 10
-20.0
 20
120.0
 30
0.0
 11
-20.0
 21
-70.0
 31
0.0
  0
LINE
  8
1
  5
7A
  6
CONTINUOUS
 62
7
 10
-20.0
 20
-70.0
 30
32.0
 11
-70.0
 21
-70.0
 31
32.0
  0
LINE
  8
1
  5
7C
  6
CONTINUOUS
 62
7
 10
-20.0
 20
-70.0
 30
0.0
 11
-70.0
 21
-70.0
 31
0.0
  0
ENDBLK
  8
1
  5
7D
  0
BLOCK
  8
1
  5
7F
 70
1
 10
0.0
 20
0.0
 30
0.0
  2
*M3
  3
*M3
  0
INSERT
  8
1
  5
81
  6
CONTINUOUS
 62
7
  2
*M1
 10
0.0
 20
0.0
 30
0.0
 41
1.0
 42
1.0
 43
1.0
 70
1
 71
1
  0
INSERT
  8
1
  5
83
  6
CONTINUOUS
 62
7
  2
*M2
 10
0.0
 20
0.0
 30
0.0
 41
1.0
 42
1.0
 43
1.0
 70
1
 71
1
  0
ENDBLK
  8
1
  5
84
  0
BLOCK
  8
1
  5
86
 70
1
 10
0.0
 20
0.0
 30
0.0
  2
*M4
  3
*M4
  0
INSERT
  8
1
  5
88
  6
CONTINUOUS
 62
7
  2
*M0
 10
0.0
 20
0.0
 30
0.0
 41
1.0
 42
1.0
 43
1.0
 70
1
 71
1
  0
INSERT
  8
1
  5
8A
  6
CONTINUOUS
 62
7
  2
*M3
 10
0.0
 20
0.0
 30
0.0
 41
1.0
 42
1.0
 43
1.0
 70
1
 71
1
  0
ENDBLK
  8
1
  5
8B
  0
BLOCK
  8
1
  5
8D
 70
1
 10
0.0
 20
0.0
 30
0.0
  2
*M5
  3
*M5
  0
LINE
  8
1
  5
8F
  6
CONTINUOUS
 62
7
 10
-22.0
 20
-12.3
 30
16.0
 11
0.0
 21
-12.3
 31
16.0
  0
LINE
  8
1
  5
91
  6
CONTINUOUS
 62
7
 10
-22.0
 20
-12.3
 30
16.0
 11
-22.0
 21
-37.7
 31
16.0
  0
LINE
  8
1
  5
93
  6
CONTINUOUS
 62
7
 10
0.0
 20
-37.7
 30
16.0
 11
-22.0
 21
-37.7
 31
16.0
  0
LINE
  8
1
  5
95
  6
CONTINUOUS
 62
7
 10
0.0
 20
-12.3
 30
16.0
 11
0.0
 21
-37.7
 31
16.0
  0
LINE
  8
1
  5
97
  6
CONTINUOUS
 62
7
 10
-22.0
 20
-12.3
 30
32.0
 11
-22.0
 21
-12.3
 31
16.0
  0
LINE
  8
1
  5
99
  6
CONTINUOUS
 62
7
 10
-22.0
 20
-37.7
 30
32.0
 11
-22.0
 21
-12.3
 31
32.0
  0
LINE
  8
1
  5
9B
  6
CONTINUOUS
 62
7
 10
-22.0
 20
-37.7
 30
16.0
 11
-22.0
 21
-37.7
 31
32.0
  0
ENDBLK
  8
1
  5
9C
  0
BLOCK
  8
1
  5
9E
 70
1
 10
0.0
 20
0.0
 30
0.0
  2
*M6
  3
*M6
  0
LINE
  8
1
  5
A0
  6
CONTINUOUS
 62
7
 10
-27.9
 20
-12.3
 30
0.0
 11
-27.9
 21
-12.3
 31
32.0
  0
LINE
  8
1
  5
A2
  6
CONTINUOUS
 62
7
 10
-32.0
 20
-8.2
 30
0.0
 11
-32.0
 21
-8.2
 31
32.0
  0
LINE
  8
1
  5
A4
  6
CONTINUOUS
 62
7
 10
-32.0
 20
-41.8
 30
0.0
 11
-32.0
 21
-41.8
 31
32.0
  0
LINE
  8
1
  5
A6
  6
CONTINUOUS
 62
7
 10
-27.9
 20
-45.9
 30
0.0
 11
-27.9
 21
-45.9
 31
32.0
  0
LINE
  8
1
  5
A8
  6
CONTINUOUS
 62
7
 10
0.0
 20
-37.7
 30
0.0
 11
0.0
 21
-37.7
 31
16.0
  0
LINE
  8
1
  5
AA
  6
CONTINUOUS
 62
7
 10
0.0
 20
-37.7
 30
0.0
 11
0.0
 21
-12.3
 31
0.0
  0
LINE
  8
1
  5
AC
  6
CONTINUOUS
 62
7
 10
0.0
 20
-12.3
 30
0.0
 11
0.0
 21
-12.3
 31
16.0
  0
LINE
  8
1
  5
AE
  6
CONTINUOUS
 62
7
 10
-22.0
 20
-37.7
 30
32.0
 11
-27.9
 21
-37.7
 31
32.0
  0
LINE
  8
1
  5
B0
  6
CONTINUOUS
 62
7
 10
-27.9
 20
-37.7
 30
0.0
 11
-27.9
 21
-37.7
 31
32.0
  0
LINE
  8
1
  5
B2
  6
CONTINUOUS
 62
7
 10
-27.9
 20
-37.7
 30
0.0
 11
0.0
 21
-37.7
 31
0.0
  0
LINE
  8
1
  5
B4
  6
CONTINUOUS
 62
7
 10
-22.0
 20
-50.0
 30
0.0
 11
-22.0
 21
-50.0
 31
32.0
  0
LINE
  8
1
  5
B6
  6
CONTINUOUS
 62
7
 10
-22.0
 20
-50.0
 30
0.0
 11
-22.0
 21
-45.9
 31
0.0
  0
LINE
  8
1
  5
B8
  6
CONTINUOUS
 62
7
 10
-22.0
 20
-45.9
 30
32.0
 11
-22.0
 21
-45.9
 31
0.0
  0
LINE
  8
1
  5
BA
  6
CONTINUOUS
 62
7
 10
-22.0
 20
-50.0
 30
32.0
 11
-22.0
 21
-45.9
 31
32.0
  0
LINE
  8
1
  5
BC
  6
CONTINUOUS
 62
7
 10
-22.0
 20
-4.1
 30
0.0
 11
-22.0
 21
-4.1
 31
32.0
  0
LINE
  8
1
  5
BE
  6
CONTINUOUS
 62
7
 10
-22.0
 20
-4.1
 30
0.0
 11
-22.0
 21
0.0
 31
0.0
  0
LINE
  8
1
  5
C0
  6
CONTINUOUS
 62
7
 10
-22.0
 20
0.0
 30
32.0
 11
-22.0
 21
0.0
 31
0.0
  0
LINE
  8
1
  5
C2
  6
CONTINUOUS
 62
7
 10
-22.0
 20
-4.1
 30
32.0
 11
-22.0
 21
0.0
 31
32.0
  0
LINE
  8
1
  5
C4
  6
CONTINUOUS
 62
7
 10
-22.0
 20
-4.1
 30
32.0
 11
-27.9
 21
-4.1
 31
32.0
  0
LINE
  8
1
  5
C6
  6
CONTINUOUS
 62
7
 10
-27.9
 20
-4.1
 30
0.0
 11
-27.9
 21
-4.1
 31
32.0
  0
LINE
  8
1
  5
C8
  6
CONTINUOUS
 62
7
 10
-27.9
 20
-4.1
 30
0.0
 11
-22.0
 21
-4.1
 31
0.0
  0
ARC
  8
1
  5
CA
  6
CONTINUOUS
 62
7
 10
-27.9
 20
-8.2
 30
32.0
 40
4.1
 50
90.0
 51
270.0
  0
LINE
  8
1
  5
CC
  6
CONTINUOUS
 62
7
 10
-27.9
 20
-12.3
 30
0.0
 11
-27.9
 21
-12.3
 31
32.0
  0
ARC
  8
1
  5
CE
  6
CONTINUOUS
 62
7
 210
0.0
 220
0.0
 230
-1.0
 10
27.9
 20
-8.2
 30
9.313226E-015
 40
4.1
 50
270.0
 51
90.0
  0
LINE
  8
1
  5
D0
  6
CONTINUOUS
 62
7
 10
0.0
 20
-12.3
 30
0.0
 11
-27.9
 21
-12.3
 31
0.0
  0
LINE
  8
1
  5
D2
  6
CONTINUOUS
 62
7
 10
-27.9
 20
-12.3
 30
32.0
 11
-22.0
 21
-12.3
 31
32.0
  0
ARC
  8
1
  5
D4
  6
CONTINUOUS
 62
7
 10
-27.9
 20
-41.8
 30
32.0
 40
4.1
 50
90.0
 51
270.0
  0
LINE
  8
1
  5
D6
  6
CONTINUOUS
 62
7
 10
-27.9
 20
-45.9
 30
0.0
 11
-27.9
 21
-45.9
 31
32.0
  0
ARC
  8
1
  5
D8
  6
CONTINUOUS
 62
7
 210
0.0
 220
0.0
 230
-1.0
 10
27.9
 20
-41.8
 30
0.0
 40
4.1
 50
270.0
 51
90.0
  0
LINE
  8
1
  5
DA
  6
CONTINUOUS
 62
7
 10
-27.9
 20
-45.9
 30
32.0
 11
-22.0
 21
-45.9
 31
32.0
  0
LINE
  8
1
  5
DC
  6
CONTINUOUS
 62
7
 10
-22.0
 20
-45.9
 30
0.0
 11
-27.9
 21
-45.9
 31
0.0
  0
LINE
  8
1
  5
DE
  6
CONTINUOUS
 62
7
 10
-22.0
 20
-50.0
 30
32.0
 11
-190.0
 21
-50.0
 31
32.0
  0
LINE
  8
1
  5
E0
  6
CONTINUOUS
 62
7
 10
-190.0
 20
-50.0
 30
0.0
 11
-190.0
 21
-50.0
 31
32.0
  0
LINE
  8
1
  5
E2
  6
CONTINUOUS
 62
7
 10
-190.0
 20
-50.0
 30
0.0
 11
-22.0
 21
-50.0
 31
0.0
  0
LINE
  8
1
  5
E4
  6
CONTINUOUS
 62
7
 10
-190.0
 20
-50.0
 30
32.0
 11
-190.0
 21
0.0
 31
32.0
  0
LINE
  8
1
  5
E6
  6
CONTINUOUS
 62
7
 10
-190.0
 20
0.0
 30
0.0
 11
-190.0
 21
0.0
 31
32.0
  0
LINE
  8
1
  5
E8
  6
CONTINUOUS
 62
7
 10
-190.0
 20
0.0
 30
0.0
 11
-190.0
 21
-50.0
 31
0.0
  0
LINE
  8
1
  5
EA
  6
CONTINUOUS
 62
7
 10
-190.0
 20
0.0
 30
32.0
 11
-22.0
 21
0.0
 31
32.0
  0
LINE
  8
1
  5
EC
  6
CONTINUOUS
 62
7
 10
-22.0
 20
0.0
 30
0.0
 11
-190.0
 21
0.0
 31
0.0
  0
ENDBLK
  8
1
  5
ED
  0
BLOCK
  8
1
  5
EF
 70
1
 10
0.0
 20
0.0
 30
0.0
  2
*M7
  3
*M7
  0
INSERT
  8
1
  5
F1
  6
CONTINUOUS
 62
7
  2
*M5
 10
0.0
 20
0.0
 30
0.0
 41
1.0
 42
1.0
 43
1.0
 70
1
 71
1
  0
INSERT
  8
1
  5
F3
  6
CONTINUOUS
 62
7
  2
*M6
 10
0.0
 20
0.0
 30
0.0
 41
1.0
 42
1.0
 43
1.0
 70
1
 71
1
  0
ENDBLK
  8
1
  5
F4
  0
ENDSEC
  0
SECTION
  2
ENTITIES
  0
INSERT
  8
1
  5
2
  6
CONTINUOUS
 62
7
  2
*M4
 10
-45.92696
 20
13.54156
 30
-55.22082
 41
1.0
 42
1.0
 43
1.0
 70
1
 71
1
  0
INSERT
  8
1
  5
4
  6
CONTINUOUS
 62
7
  2
*M7
 10
-165.92696
 20
63.54156
 30
-55.22082
 41
1.0
 42
1.0
 43
1.0
 70
1
 71
1
  0
ENDSEC
  0
EOF
