  0
SECTION
  2
HEADER
  9
$ACADVER
  1
AC1009
  9
$INSBASE
 10
0.0
 20
0.0
 30
0.0
  9
$EXTMIN
 10
-300.0000080382142187
 20
-299.9999964370350085
 30
-0.0000000000007308
  9
$EXTMAX
 10
5879.9999919617848718
 20
4158.0000036816436477
 30
0.0000000000003606
  9
$LIMMIN
 10
0.0
 20
0.0
  9
$LIMMAX
 10
12.0
 20
9.0
  9
$ORTHOMODE
 70
     0
  9
$REGENMODE
 70
     1
  9
$FILLMODE
 70
     1
  9
$QTEXTMODE
 70
     0
  9
$MIRRTEXT
 70
     0
  9
$DRAGMODE
 70
     2
  9
$LTSCALE
 40
1.0
  9
$OSMODE
 70
  3583
  9
$ATTMODE
 70
     1
  9
$TEXTSIZE
 40
0.2
  9
$TRACEWID
 40
0.05
  9
$TEXTSTYLE
  7
STANDARD
  9
$CLAYER
  8
00-NOPRINT_TEXT
  9
$CELTYPE
  6
BYLAYER
  9
$CECOLOR
 62
   256
  9
$DIMSCALE
 40
1.0
  9
$DIMASZ
 40
0.18
  9
$DIMEXO
 40
0.0625
  9
$DIMDLI
 40
0.38
  9
$DIMRND
 40
0.0
  9
$DIMDLE
 40
0.0
  9
$DIMEXE
 40
0.18
  9
$DIMTP
 40
0.0
  9
$DIMTM
 40
0.0
  9
$DIMTXT
 40
0.18
  9
$DIMCEN
 40
0.09
  9
$DIMTSZ
 40
0.0
  9
$DIMTOL
 70
     0
  9
$DIMLIM
 70
     0
  9
$DIMTIH
 70
     1
  9
$DIMTOH
 70
     1
  9
$DIMSE1
 70
     0
  9
$DIMSE2
 70
     0
  9
$DIMTAD
 70
     0
  9
$DIMZIN
 70
     0
  9
$DIMBLK
  1

  9
$DIMASO
 70
     1
  9
$DIMSHO
 70
     1
  9
$DIMPOST
  1

  9
$DIMAPOST
  1

  9
$DIMALT
 70
     0
  9
$DIMALTD
 70
     2
  9
$DIMALTF
 40
25.3999999999999986
  9
$DIMLFAC
 40
1.0
  9
$DIMTOFL
 70
     0
  9
$DIMTVP
 40
0.0
  9
$DIMTIX
 70
     0
  9
$DIMSOXD
 70
     0
  9
$DIMSAH
 70
     0
  9
$DIMBLK1
  1

  9
$DIMBLK2
  1

  9
$DIMSTYLE
  2
STANDARD
  9
$DIMCLRD
 70
     0
  9
$DIMCLRE
 70
     0
  9
$DIMCLRT
 70
     0
  9
$DIMTFAC
 40
1.0
  9
$DIMGAP
 40
0.09
  9
$LUNITS
 70
     2
  9
$LUPREC
 70
     4
  9
$SKETCHINC
 40
0.1
  9
$FILLETRAD
 40
0.0
  9
$AUNITS
 70
     0
  9
$AUPREC
 70
     0
  9
$MENU
  1
.
  9
$ELEVATION
 40
0.0
  9
$PELEVATION
 40
0.0
  9
$THICKNESS
 40
0.0
  9
$LIMCHECK
 70
     0
  9
$BLIPMODE
 70
     0
  9
$CHAMFERA
 40
0.0
  9
$CHAMFERB
 40
0.0
  9
$SKPOLY
 70
     0
  9
$TDCREATE
 40
2457171.4083295138552785
  9
$TDUPDATE
 40
2457189.4875193168409169
  9
$TDINDWG
 40
0.0147993981
  9
$TDUSRTIMER
 40
0.0147992708
  9
$USRTIMER
 70
     1
  9
$ANGBASE
 50
0.0
  9
$ANGDIR
 70
     0
  9
$PDMODE
 70
     0
  9
$PDSIZE
 40
0.0
  9
$PLINEWID
 40
0.0
  9
$COORDS
 70
     1
  9
$SPLFRAME
 70
     0
  9
$SPLINETYPE
 70
     6
  9
$SPLINESEGS
 70
     8
  9
$ATTDIA
 70
     1
  9
$ATTREQ
 70
     1
  9
$HANDLING
 70
     1
  9
$HANDSEED
  5
2952
  9
$SURFTAB1
 70
     6
  9
$SURFTAB2
 70
     6
  9
$SURFTYPE
 70
     6
  9
$SURFU
 70
     6
  9
$SURFV
 70
     6
  9
$UCSNAME
  2

  9
$UCSORG
 10
0.0
 20
0.0
 30
0.0
  9
$UCSXDIR
 10
1.0
 20
0.0
 30
0.0
  9
$UCSYDIR
 10
0.0
 20
1.0
 30
0.0
  9
$PUCSNAME
  2

  9
$PUCSORG
 10
0.0
 20
0.0
 30
0.0
  9
$PUCSXDIR
 10
1.0
 20
0.0
 30
0.0
  9
$PUCSYDIR
 10
0.0
 20
1.0
 30
0.0
  9
$USERI1
 70
     0
  9
$USERI2
 70
     0
  9
$USERI3
 70
     0
  9
$USERI4
 70
     0
  9
$USERI5
 70
     0
  9
$USERR1
 40
0.0
  9
$USERR2
 40
0.0
  9
$USERR3
 40
0.0
  9
$USERR4
 40
0.0
  9
$USERR5
 40
0.0
  9
$WORLDVIEW
 70
     1
  9
$SHADEDGE
 70
     3
  9
$SHADEDIF
 70
    70
  9
$TILEMODE
 70
     1
  9
$MAXACTVP
 70
    64
  9
$PLIMCHECK
 70
     0
  9
$PEXTMIN
 10
0.0
 20
0.0
 30
0.0
  9
$PEXTMAX
 10
0.0
 20
0.0
 30
0.0
  9
$PLIMMIN
 10
0.0
 20
0.0
  9
$PLIMMAX
 10
12.0
 20
9.0
  9
$UNITMODE
 70
     0
  9
$VISRETAIN
 70
     1
  9
$PLINEGEN
 70
     0
  9
$PSLTSCALE
 70
     1
  0
ENDSEC
  0
SECTION
  2
TABLES
  0
TABLE
  2
VPORT
 70
     1
  0
VPORT
  2
*ACTIVE
 70
     0
 10
0.0
 20
0.0
 11
1.0
 21
1.0
 12
3635.1569829513919103
 22
2099.3590898803749951
 13
0.0
 23
0.0
 14
0.5
 24
0.5
 15
0.5
 25
0.5
 16
0.0
 26
0.0
 36
1.0
 17
0.0
 27
0.0
 37
0.0
 40
4495.8372331710579601
 41
1.540342298288508
 42
50.0
 43
0.0
 44
0.0
 50
0.0
 51
0.0
 71
     0
 72
  1000
 73
     1
 74
     3
 75
     0
 76
     1
 77
     0
 78
     0
  0
ENDTAB
  0
TABLE
  2
LTYPE
 70
     3
  0
LTYPE
  2
CONTINUOUS
 70
     0
  3
Solid line
 72
    65
 73
     0
 40
0.0
  0
LTYPE
  2
DGN_STYLE_5
 70
     0
  3
Dgn Style 5
 72
    65
 73
     2
 40
22.1794395642604414
 49
9.5054740989687616
 49
-12.6739654652916798
  0
ENDTAB
  0
TABLE
  2
LAYER
 70
    10
  0
LAYER
  2
0
 70
     0
 62
     7
  6
CONTINUOUS
  0
LAYER
  2
00-NOPRINT_TEXT
 70
     0
 62
     7
  6
CONTINUOUS
  0
LAYER
  2
00_NOPRINT_TOLERANCE
 70
     0
 62
     7
  6
DGN_STYLE_5
  0
LAYER
  2
BOARD_18MM-NOMINAL
 70
     0
 62
     3
  6
CONTINUOUS
  0
LAYER
  2
REV-FILLET-ONLINE_03MM
 70
     0
 62
   216
  6
CONTINUOUS
  0
LAYER
  2
TOP-CUT-OUTSIDE_18MM
 70
     0
 62
   220
  6
CONTINUOUS
  0
LAYER
  2
TOP-CUT-INSIDE_18MM
 70
     0
 62
     1
  6
CONTINUOUS
  0
LAYER
  2
TOP-POCKET-INSIDE_09MM
 70
     0
 62
    60
  6
CONTINUOUS
  0
LAYER
  2
TOP-FILLET-ONLINE_03MM
 70
     0
 62
   220
  6
CONTINUOUS
  0
LAYER
  2
TOP-POCKET-INSIDE_14MM
 70
     0
 62
   190
  6
CONTINUOUS
  0
ENDTAB
  0
TABLE
  2
STYLE
 70
     8
  0
STYLE
  2
STANDARD
 70
     0
 40
0.0
 41
1.0
 50
0.0
 71
     0
 42
0.2
  3
txt
  4

  0
STYLE
  2
OD-SIMPLEX-20
 70
     0
 40
20.0
 41
1.0
 50
0.0
 71
     0
 42
20.0
  3
simplex.shx
  4

  0
STYLE
  2
OD-SIMPLEX-13
 70
     0
 40
13.0
 41
1.0
 50
0.0
 71
     0
 42
15.0
  3
simplex.shx
  4

  0
STYLE
  2
OD-SIMPLEX-25
 70
     0
 40
25.0
 41
1.0
 50
0.0
 71
     0
 42
25.0
  3
simplex.shx
  4

  0
STYLE
  2
OD-SIMPLEX-30
 70
     0
 40
30.0
 41
1.0
 50
0.0
 71
     0
 42
30.0
  3
simplex.shx
  4

  0
STYLE
  2
OD-ISOCP-17
 70
     0
 40
17.0
 41
1.0
 50
0.0
 71
     0
 42
17.0
  3
isocp.shx
  4

  0
STYLE
  2
ARIAL
 70
     0
 40
0.0
 41
1.0
 50
0.0
 71
     0
 42
1.8019799999999999
  3
txt
  4

  0
STYLE
  2
STYLE-ARIAL
 70
     0
 40
0.0
 41
1.0
 50
0.0
 71
     0
 42
0.2
  3
txt
  4

  0
ENDTAB
  0
TABLE
  2
VIEW
 70
     0
  0
ENDTAB
  0
TABLE
  2
UCS
 70
     0
  0
ENDTAB
  0
TABLE
  2
APPID
 70
    11
  0
APPID
  2
ACAD
 70
     0
  0
APPID
  2
ACADANNOTATIVE
 70
     0
  0
APPID
  2
ACADANNOPO
 70
     0
  0
APPID
  2
ACAD_DSTYLE_DIMJAG
 70
     0
  0
APPID
  2
ACAD_DSTYLE_DIMTALN
 70
     0
  0
APPID
  2
ACAD_MLEADERVER
 70
     0
  0
APPID
  2
ACAD_NAV_VCDISPLAY
 70
     0
  0
APPID
  2
ACAD_PSEXT
 70
     0
  0
APPID
  2
ACAECLAYERSTANDARD
 70
     0
  0
APPID
  2
ACAD_EXEMPT_FROM_CAD_STANDARDS
 70
     0
  0
APPID
  2
ACCMTRANSPARENCY
 70
     0
  0
ENDTAB
  0
TABLE
  2
DIMSTYLE
 70
     1
  0
DIMSTYLE
  2
STANDARD
 70
     0
  3

  4

  5

  6

  7

 40
1.0
 41
0.18
 42
0.0625
 43
0.38
 44
0.18
 45
0.0
 46
0.0
 47
0.0
 48
0.0
140
0.18
141
0.09
142
0.0
143
25.3999999999999986
144
1.0
145
0.0
146
1.0
147
0.09
 71
     0
 72
     0
 73
     1
 74
     1
 75
     0
 76
     0
 77
     0
 78
     0
170
     0
171
     2
172
     0
173
     0
174
     0
175
     0
176
     0
177
     0
178
     0
  0
ENDTAB
  0
ENDSEC
  0
SECTION
  2
BLOCKS
  0
BLOCK
  8
0
  2
$MODEL_SPACE
 70
     0
 10
0.0
 20
0.0
 30
0.0
  3
$MODEL_SPACE
  1

  0
ENDBLK
  5
69C
  8
0
  0
BLOCK
 67
     1
  8
0
  2
$PAPER_SPACE
 70
     0
 10
0.0
 20
0.0
 30
0.0
  3
$PAPER_SPACE
  1

  0
ENDBLK
  5
698
 67
     1
  8
0
  0
BLOCK
  8
0
  2
TERMINATOROPEN_0_5
 70
     0
 10
0.0
 20
0.0
 30
0.0
  3
TERMINATOROPEN_0_5
  1

  0
LINE
  5
23A6
  8
0
  6
BYBLOCK
 62
     0
 10
0.0
 20
0.0
 30
0.0
 11
-1.0
 21
0.0
 31
0.0
  0
LINE
  5
23A7
  8
0
  6
BYBLOCK
 62
     0
 10
0.0
 20
0.0
 30
0.0
 11
-1.0
 21
0.25
 31
0.0
  0
LINE
  5
23A8
  8
0
  6
BYBLOCK
 62
     0
 10
0.0
 20
0.0
 30
0.0
 11
-1.0
 21
-0.25
 31
0.0
  0
ENDBLK
  5
23A9
  8
0
  0
BLOCK
  8
0
  2
*U1
 70
     1
 10
0.0
 20
0.0
 30
0.0
  3
*U1
  1

  0
LINE
  5
2730
  8
TOP-CUT-OUTSIDE_18MM
 10
809.9999919620701121
 20
1538.0000035626419503
 30
0.0000000000003606
 11
1409.9999919620690889
 21
1538.0000035629680042
 31
0.0000000000003606
  0
LINE
  5
2731
  8
TOP-CUT-OUTSIDE_18MM
 10
1409.9999919620690889
 20
1538.0000035629680042
 30
0.0000000000003606
 11
1409.9999919607710126
 21
3938.0000035629668673
 31
0.0000000000003606
  0
LINE
  5
2732
  8
TOP-CUT-OUTSIDE_18MM
 10
1409.9999919607710126
 20
3938.0000035629668673
 30
0.0000000000003606
 11
809.9999919607706715
 21
3938.0000035626421777
 31
0.0000000000003606
  0
LINE
  5
2733
  8
TOP-CUT-OUTSIDE_18MM
 10
809.9999919607706715
 20
3938.0000035626421777
 30
0.0000000000003606
 11
712.1315451430283474
 21
2300.9474343235178821
 31
0.0000000000003606
  0
ARC
  5
2734
  8
TOP-CUT-OUTSIDE_18MM
 10
1011.5970416276519472
 20
2283.0443910326857804
 30
0.0000000000003606
 40
300.0001709063773774
 50
176.5787397926110032
 51
187.7318388236105875
  0
LINE
  5
2735
  8
TOP-CUT-OUTSIDE_18MM
 10
714.3242947884508567
 20
2242.6833141078591325
 30
0.0000000000003606
 11
809.9999919620701121
 21
1538.0000035626419503
 31
0.0000000000003606
  0
ENDBLK
  5
2737
  8
0
  0
BLOCK
  8
0
  2
*U2
 70
     1
 10
0.0
 20
0.0
 30
0.0
  3
*U2
  1

  0
LINE
  5
273E
  8
TOP-CUT-INSIDE_18MM
 10
963.0014209611944125
 20
1624.1000035627300804
 30
0.0
 11
926.9985631811308622
 21
1624.1000035627080251
 31
0.0
  0
ARC
  5
273F
  8
TOP-CUT-INSIDE_18MM
 10
923.4999920711630921
 20
1624.2000045052020596
 30
0.0
 40
3.5
 50
358.3627394870836156
 51
179.9999999999442082
  0
LINE
  5
2740
  8
TOP-CUT-INSIDE_18MM
 10
919.9999920711630921
 20
1624.2000045052059249
 30
0.0
 11
919.999992071145698
 21
1605.8000164652250987
 31
0.0
  0
ARC
  5
2741
  8
TOP-CUT-INSIDE_18MM
 10
923.4999920711454706
 20
1605.8000164652219155
 30
0.0
 40
3.49999999999971
 50
180.0000000000214868
 51
1.637033774583303
  0
LINE
  5
2742
  8
TOP-CUT-INSIDE_18MM
 10
926.9985635768223347
 20
1605.9000035627079797
 30
0.0
 11
963.0014205655044179
 21
1605.9000035627300349
 31
0.0
  0
ARC
  5
2743
  8
TOP-CUT-INSIDE_18MM
 10
966.4999920711807135
 20
1605.8000164652219155
 30
0.0
 40
3.49999999999971
 50
178.3629662250592105
 51
359.9999999999783995
  0
LINE
  5
2744
  8
TOP-CUT-INSIDE_18MM
 10
969.9999920711802588
 20
1605.8000164652250987
 30
0.0
 11
969.9999920711628647
 21
1624.2000045052059249
 31
0.0
  0
ARC
  5
2745
  8
TOP-CUT-INSIDE_18MM
 10
966.4999920711628647
 20
1624.2000045052020596
 30
0.0
 40
3.5
 50
0.0000000000558324
 51
180.0000000019913102
  0
LINE
  5
2746
  8
TOP-CUT-INSIDE_18MM
 10
962.9999920711628647
 20
1624.2000045050810968
 30
0.0
 11
963.0014209611944125
 21
1624.1000035627300804
 31
0.0
  0
ENDBLK
  5
2748
  8
0
  0
BLOCK
  8
0
  2
*U3
 70
     1
 10
0.0
 20
0.0
 30
0.0
  3
*U3
  1

  0
LINE
  5
274A
  8
TOP-CUT-INSIDE_18MM
 10
1293.0014210720919436
 20
1624.1000035627300804
 30
0.0
 11
1256.9985632920279386
 21
1624.1000035627080251
 31
0.0
  0
ARC
  5
274B
  8
TOP-CUT-INSIDE_18MM
 10
1253.499992182061078
 20
1624.2000045052020596
 30
0.0
 40
3.5
 50
358.3627394870836724
 51
179.9999999999442082
  0
LINE
  5
274C
  8
TOP-CUT-INSIDE_18MM
 10
1249.999992182061078
 20
1624.2000045052059249
 30
0.0
 11
1249.9999921820428881
 21
1605.8000164652250987
 31
0.0
  0
ARC
  5
274D
  8
TOP-CUT-INSIDE_18MM
 10
1253.4999921820428881
 20
1605.8000164652219155
 30
0.0
 40
3.49999999999971
 50
180.0000000000214868
 51
1.637033774583303
  0
LINE
  5
274E
  8
TOP-CUT-INSIDE_18MM
 10
1256.9985636877199795
 20
1605.9000035627079797
 30
0.0
 11
1293.0014206764019491
 21
1605.9000035627300349
 31
0.0
  0
ARC
  5
274F
  8
TOP-CUT-INSIDE_18MM
 10
1296.4999921820779036
 20
1605.8000164652219155
 30
0.0
 40
3.49999999999971
 50
178.3629662250592105
 51
359.9999999999783995
  0
LINE
  5
2750
  8
TOP-CUT-INSIDE_18MM
 10
1299.9999921820779036
 20
1605.8000164652250987
 30
0.0
 11
1299.9999921820599411
 21
1624.2000045052059249
 31
0.0
  0
ARC
  5
2751
  8
TOP-CUT-INSIDE_18MM
 10
1296.499992182061078
 20
1624.2000045052020596
 30
0.0
 40
3.5
 50
0.0000000000558324
 51
179.9999999980049097
  0
LINE
  5
2752
  8
TOP-CUT-INSIDE_18MM
 10
1292.9999921820599411
 20
1624.2000045053239319
 30
0.0
 11
1293.0014210720919436
 21
1624.1000035627300804
 31
0.0
  0
ENDBLK
  5
2754
  8
0
  0
BLOCK
  8
0
  2
*U4
 70
     1
 10
0.0
 20
0.0
 30
0.0
  3
*U4
  1

  0
LINE
  5
2756
  8
TOP-CUT-INSIDE_18MM
 10
1293.0014210720919436
 20
3870.1000035629231206
 30
0.0
 11
1256.9985632920279386
 21
3870.100003562900838
 31
0.0
  0
ARC
  5
2757
  8
TOP-CUT-INSIDE_18MM
 10
1253.499992182061078
 20
3870.2000045053950998
 30
0.0
 40
3.5
 50
358.3627394870799208
 51
179.999999999947903
  0
LINE
  5
2758
  8
TOP-CUT-INSIDE_18MM
 10
1249.999992182061078
 20
3870.2000045053991926
 30
0.0
 11
1249.9999921820428881
 21
3851.800016465418139
 31
0.0
  0
ARC
  5
2759
  8
TOP-CUT-INSIDE_18MM
 10
1253.4999921820428881
 20
3851.8000164654140463
 30
0.0
 40
3.49999999999971
 50
180.0000000000252953
 51
1.6370337745907371
  0
LINE
  5
275A
  8
TOP-CUT-INSIDE_18MM
 10
1256.9985636877199795
 20
3851.9000035629010199
 30
0.0
 11
1293.0014206764019491
 21
3851.9000035629228478
 31
0.0
  0
ARC
  5
275B
  8
TOP-CUT-INSIDE_18MM
 10
1296.4999921820779036
 20
3851.8000164654140463
 30
0.0
 40
3.49999999999971
 50
178.3629662250517072
 51
359.9999999999747047
  0
LINE
  5
275C
  8
TOP-CUT-INSIDE_18MM
 10
1299.9999921820779036
 20
3851.800016465418139
 30
0.0
 11
1299.9999921820599411
 21
3870.2000045053991926
 31
0.0
  0
ARC
  5
275D
  8
TOP-CUT-INSIDE_18MM
 10
1296.499992182061078
 20
3870.2000045053950998
 30
0.0
 40
3.5
 50
0.0000000000521102
 51
179.9999999980122993
  0
LINE
  5
275E
  8
TOP-CUT-INSIDE_18MM
 10
1292.9999921820599411
 20
3870.2000045055160626
 30
0.0
 11
1293.0014210720919436
 21
3870.1000035629231206
 31
0.0
  0
ENDBLK
  5
2760
  8
0
  0
BLOCK
  8
0
  2
*U5
 70
     1
 10
0.0
 20
0.0
 30
0.0
  3
*U5
  1

  0
LINE
  5
2762
  8
TOP-CUT-INSIDE_18MM
 10
963.0014208523035677
 20
3870.1000035629231206
 30
0.0
 11
926.9985630722400174
 21
3870.100003562900838
 31
0.0
  0
ARC
  5
2763
  8
TOP-CUT-INSIDE_18MM
 10
923.499991962272361
 20
3870.2000045053950998
 30
0.0
 40
3.5
 50
358.3627394870799208
 51
179.999999999947903
  0
LINE
  5
2764
  8
TOP-CUT-INSIDE_18MM
 10
919.999991962272361
 20
3870.2000045053991926
 30
0.0
 11
919.9999919622549669
 21
3851.800016465418139
 31
0.0
  0
ARC
  5
2765
  8
TOP-CUT-INSIDE_18MM
 10
923.4999919622547395
 20
3851.8000164654140463
 30
0.0
 40
3.49999999999971
 50
180.0000000000252953
 51
1.6370337745907371
  0
LINE
  5
2766
  8
TOP-CUT-INSIDE_18MM
 10
926.9985634679314899
 20
3851.9000035629010199
 30
0.0
 11
963.0014204566136868
 21
3851.9000035629228478
 31
0.0
  0
ARC
  5
2767
  8
TOP-CUT-INSIDE_18MM
 10
966.4999919622897551
 20
3851.8000164654140463
 30
0.0
 40
3.49999999999971
 50
178.3629662250517072
 51
359.9999999999747047
  0
LINE
  5
2768
  8
TOP-CUT-INSIDE_18MM
 10
969.9999919622896414
 20
3851.800016465418139
 30
0.0
 11
969.9999919622721336
 21
3870.2000045053991926
 31
0.0
  0
ARC
  5
2769
  8
TOP-CUT-INSIDE_18MM
 10
966.4999919622720199
 20
3870.2000045053950998
 30
0.0
 40
3.5
 50
0.0000000000521102
 51
179.9999999980122993
  0
LINE
  5
276A
  8
TOP-CUT-INSIDE_18MM
 10
962.9999919622720199
 20
3870.2000045055160626
 30
0.0
 11
963.0014208523035677
 21
3870.1000035629231206
 31
0.0
  0
ENDBLK
  5
276C
  8
0
  0
BLOCK
  8
0
  2
*U6
 70
     1
 10
0.0
 20
0.0
 30
0.0
  3
*U6
  1

  0
LINE
  5
276E
  8
TOP-CUT-INSIDE_18MM
 10
353.1999409617628203
 20
1658.2000055629669077
 30
-0.0000000000000564
 11
341.7999628528190783
 21
1658.1999693795460189
 31
-0.0000000000000564
  0
ARC
  5
276F
  8
TOP-CUT-INSIDE_18MM
 10
341.7999739617854971
 20
1654.6999693795630719
 30
-0.0000000000000564
 40
3.5
 50
90.0001818562544145
 51
269.9999859920521885
  0
LINE
  5
2770
  8
TOP-CUT-INSIDE_18MM
 10
341.7999731060887143
 20
1651.1999693795639814
 30
-0.0000000000000564
 11
341.7999769617854895
 21
1639.8000043791960252
 31
-0.0000000000000564
  0
ARC
  5
2771
  8
TOP-CUT-INSIDE_18MM
 10
345.299976961785319
 20
1639.8000055629659073
 30
-0.0000000000000564
 40
3.5
 50
180.0
 51
180.0000193785803049
  0
ARC
  5
2772
  8
TOP-CUT-INSIDE_18MM
 10
345.299976961785319
 20
1639.8000055629659073
 30
-0.0000000000000564
 40
3.5
 50
180.0
 51
359.999985992057816
  0
LINE
  5
2773
  8
TOP-CUT-INSIDE_18MM
 10
348.7999769617852053
 20
1639.8000047072700909
 30
-0.0000000000000564
 11
360.1999661381760234
 21
1639.8000053795431086
 31
-0.0000000000000564
  0
ARC
  5
2774
  8
TOP-CUT-INSIDE_18MM
 10
360.1999659317760916
 20
1643.3000053795690292
 30
-0.0000000000000564
 40
3.5000000000256368
 50
270.0000033788136875
 51
89.9998685469505944
  0
LINE
  5
2775
  8
TOP-CUT-INSIDE_18MM
 10
360.1999739617858722
 20
1646.8000053795849453
 30
-0.0000000000000564
 11
360.1999409617902188
 21
1658.200007664531995
 31
-0.0000000000000564
  0
ARC
  5
2776
  8
TOP-CUT-INSIDE_18MM
 10
356.6999409617793049
 20
1658.1999975329570134
 30
-0.0000000000000564
 40
3.5000000000256311
 50
0.0001658569690259
 51
179.9998685477760034
  0
ENDBLK
  5
2778
  8
0
  0
BLOCK
  8
0
  2
*U7
 70
     1
 10
0.0
 20
0.0
 30
0.0
  3
*U7
  1

  0
LINE
  5
277A
  8
TOP-POCKET-INSIDE_09MM
 10
369.101420824878403
 20
3801.9000035629678678
 30
0.0000000000000123
 11
332.8985630986931028
 21
3801.9000035629678678
 31
0.0000000000000123
210
0.0
220
0.0
230
-1.0
  0
ARC
  5
277B
  8
TOP-POCKET-INSIDE_09MM
 10
-329.3999919617858154
 20
3801.8000035629688682
 30
-0.0000000000000123
 40
3.500000000000095
210
0.0
220
0.0
230
-1.0
 50
178.3627549222460971
 51
0.0
  0
LINE
  5
277C
  8
TOP-POCKET-INSIDE_09MM
 10
325.8999919617858154
 20
3801.8000035629688682
 30
0.0000000000000123
 11
325.8999919617842238
 21
3865.23500704807293
 31
0.0000000000000123
210
0.0
220
0.0
230
-1.0
  0
ARC
  5
277D
  8
TOP-POCKET-INSIDE_09MM
 10
-330.5649884766800142
 20
3865.23500704807293
 30
-0.0000000000000123
 40
4.664996514895785
210
0.0
220
0.0
230
-1.0
 50
0.0
 51
90.0
  0
LINE
  5
277E
  8
TOP-POCKET-INSIDE_09MM
 10
330.5649884766800142
 20
3869.9000035629687773
 30
0.0000000000000123
 11
371.4349954468916053
 21
3869.9000035629687773
 31
0.0000000000000123
210
0.0
220
0.0
230
-1.0
  0
ARC
  5
277F
  8
TOP-POCKET-INSIDE_09MM
 10
-371.4349954468914916
 20
3865.23500704807293
 30
-0.0000000000000123
 40
4.6649965148955568
210
0.0
220
0.0
230
-1.0
 50
90.0000000000006963
 51
180.0
  0
LINE
  5
2780
  8
TOP-POCKET-INSIDE_09MM
 10
376.0999919617871114
 20
3865.23500704807293
 30
0.0000000000000123
 11
376.0999919617858041
 21
3801.8000035629688682
 31
0.0000000000000123
210
0.0
220
0.0
230
-1.0
  0
ARC
  5
2781
  8
TOP-POCKET-INSIDE_09MM
 10
-372.5999919617858041
 20
3801.8000035629688682
 30
-0.0000000000000123
 40
3.500000000000095
210
0.0
220
0.0
230
-1.0
 50
180.0
 51
0.0000000019950441
  0
LINE
  5
2782
  8
TOP-POCKET-INSIDE_09MM
 10
369.0999919617855767
 20
3801.8000035630911952
 30
0.0000000000000123
 11
369.101420824878403
 21
3801.9000035629678678
 31
0.0000000000000123
210
0.0
220
0.0
230
-1.0
  0
ENDBLK
  5
2784
  8
0
  0
BLOCK
  8
0
  2
*U8
 70
     1
 10
0.0
 20
0.0
 30
0.0
  3
*U8
  1

  0
LINE
  5
2786
  8
TOP-POCKET-INSIDE_09MM
 10
369.101420824878403
 20
1674.1000035629670037
 30
0.0000000000000123
 11
332.8985630986931028
 21
1674.1000035629670037
 31
0.0000000000000123
  0
ARC
  5
2787
  8
TOP-POCKET-INSIDE_09MM
 10
329.3999919617858154
 20
1674.2000035629650938
 30
0.0000000000000123
 40
3.500000000000095
 50
358.3627549222460971
 51
180.0
  0
LINE
  5
2788
  8
TOP-POCKET-INSIDE_09MM
 10
325.8999919617858154
 20
1674.2000035629650938
 30
0.0000000000000123
 11
325.8999919617842238
 21
1610.765000077861032
 31
0.0000000000000123
  0
ARC
  5
2789
  8
TOP-POCKET-INSIDE_09MM
 10
330.5649884766800142
 20
1610.765000077861032
 30
0.0000000000000123
 40
4.664996514895785
 50
179.9999999999971863
 51
270.0
  0
LINE
  5
278A
  8
TOP-POCKET-INSIDE_09MM
 10
330.5649884766800142
 20
1606.1000035629649574
 30
0.0000000000000123
 11
371.4349954468916053
 21
1606.1000035629660943
 31
0.0000000000000123
  0
ARC
  5
278B
  8
TOP-POCKET-INSIDE_09MM
 10
371.4349954468914916
 20
1610.765000077861032
 30
0.0000000000000123
 40
4.6649965148955568
 50
270.0000000000006821
 51
0.0000000000027978
  0
LINE
  5
278C
  8
TOP-POCKET-INSIDE_09MM
 10
376.0999919617871114
 20
1610.765000077861032
 30
0.0000000000000123
 11
376.0999919617858041
 21
1674.2000035629650938
 31
0.0000000000000123
  0
ARC
  5
278D
  8
TOP-POCKET-INSIDE_09MM
 10
372.5999919617858041
 20
1674.2000035629650938
 30
0.0000000000000123
 40
3.500000000000095
 50
0.0
 51
180.0000000019913102
  0
LINE
  5
278E
  8
TOP-POCKET-INSIDE_09MM
 10
369.0999919617855767
 20
1674.2000035628439036
 30
0.0000000000000123
 11
369.101420824878403
 21
1674.1000035629670037
 31
0.0000000000000123
  0
ENDBLK
  5
2790
  8
0
  0
BLOCK
  8
0
  2
*U9
 70
     1
 10
0.0
 20
0.0
 30
0.0
  3
*U9
  1

  0
LINE
  5
2792
  8
TOP-CUT-OUTSIDE_18MM
 10
394.8999919617858154
 20
3852.0000035629668673
 30
0.0000000000000345
 11
286.9999919617857813
 21
3852.0000035629668673
 31
0.0000000000000345
  0
ARC
  5
2793
  8
TOP-CUT-OUTSIDE_18MM
 10
283.4999919617857813
 20
3852.0000035629668673
 30
0.0000000000000345
 40
3.5
 50
180.0
 51
0.0
  0
LINE
  5
2794
  8
TOP-CUT-OUTSIDE_18MM
 10
279.9999919617857813
 20
3852.0000035629668673
 30
0.0000000000000345
 11
279.9999919617857813
 21
3870.0000035629668673
 31
0.0000000000000345
  0
LINE
  5
2795
  8
TOP-CUT-OUTSIDE_18MM
 10
279.9999919617857813
 20
3870.0000035629668673
 30
0.0000000000000345
 11
229.999991961785696
 21
3870.0000035629668673
 31
0.0000000000000345
  0
LINE
  5
2796
  8
TOP-CUT-OUTSIDE_18MM
 10
229.999991961785696
 20
3870.0000035629668673
 30
0.0000000000000345
 11
229.999991961785696
 21
1606.0000035629670947
 31
0.0000000000000345
  0
LINE
  5
2797
  8
TOP-CUT-OUTSIDE_18MM
 10
229.999991961785696
 20
1606.0000035629670947
 30
0.0000000000000345
 11
279.9999919617857813
 21
1606.0000035629670947
 31
0.0000000000000345
  0
LINE
  5
2798
  8
TOP-CUT-OUTSIDE_18MM
 10
279.9999919617857813
 20
1606.0000035629670947
 30
0.0000000000000345
 11
279.9999919617857813
 21
1624.0000035629670947
 31
0.0000000000000345
  0
ARC
  5
2799
  8
TOP-CUT-OUTSIDE_18MM
 10
283.4999919617857813
 20
1624.0000035629670947
 30
0.0000000000000345
 40
3.5
 50
0.0
 51
180.0
  0
LINE
  5
279A
  8
TOP-CUT-OUTSIDE_18MM
 10
286.9999919617857813
 20
1624.0000035629670947
 30
0.0000000000000345
 11
394.9999919617857245
 21
1624.0000035629670947
 31
0.0000000000000345
  0
ARC
  5
279B
  8
TOP-CUT-OUTSIDE_18MM
 10
394.9999919617857245
 20
1620.5000035629670947
 30
0.0000000000000345
 40
3.5
 50
270.0000000000018758
 51
90.0
  0
LINE
  5
279C
  8
TOP-CUT-OUTSIDE_18MM
 10
394.9999919617857813
 20
1617.0000035629670947
 30
0.0000000000000345
 11
394.9999919617857813
 21
1606.1000035629670037
 31
0.0000000000000345
  0
LINE
  5
279D
  8
TOP-CUT-OUTSIDE_18MM
 10
394.9999919617857813
 20
1606.1000035629670037
 30
0.0000000000000345
 11
443.049991961785679
 21
1606.1000035629670037
 31
0.0000000000000345
  0
ARC
  5
279E
  8
TOP-CUT-OUTSIDE_18MM
 10
446.549991961785679
 20
1606.1000035629660943
 30
0.0000000000000345
 40
3.5
 50
0.0
 51
179.999999999985107
  0
LINE
  5
279F
  8
TOP-CUT-OUTSIDE_18MM
 10
450.049991961785679
 20
1606.1000035629660943
 30
0.0000000000000345
 11
450.049991961785679
 21
1593.9000035629669583
 31
0.0000000000000345
  0
ARC
  5
27A0
  8
TOP-CUT-OUTSIDE_18MM
 10
446.549991961785679
 20
1593.9000035629669583
 30
0.0000000000000345
 40
3.5
 50
180.0000000000073896
 51
0.0
  0
LINE
  5
27A1
  8
TOP-CUT-OUTSIDE_18MM
 10
443.049991961785679
 20
1593.9000035629669583
 30
0.0000000000000345
 11
394.9999919617857813
 21
1593.9000035629669583
 31
0.0000000000000345
  0
LINE
  5
27A2
  8
TOP-CUT-OUTSIDE_18MM
 10
394.9999919617857813
 20
1593.9000035629669583
 30
0.0000000000000345
 11
394.9999919617857813
 21
1538.0000035629670947
 31
0.0000000000000345
  0
LINE
  5
27A3
  8
TOP-CUT-OUTSIDE_18MM
 10
394.9999919617857813
 20
1538.0000035629670947
 30
0.0000000000000345
 11
478.4999953236239776
 21
1538.0000035629659578
 31
0.0000000000000345
  0
ARC
  5
27A4
  8
TOP-CUT-OUTSIDE_18MM
 10
478.4999953236240913
 20
1542.500000201129069
 30
0.0000000000000345
 40
4.4999966381630028
 50
269.9999999999993179
 51
0.0
  0
LINE
  5
27A5
  8
TOP-CUT-OUTSIDE_18MM
 10
482.999991961786975
 20
1542.500000201129069
 30
0.0000000000000345
 11
482.9999919617857813
 21
1624.0000035629670947
 31
0.0000000000000345
  0
ARC
  5
27A6
  8
TOP-CUT-OUTSIDE_18MM
 10
486.4999919617857245
 20
1624.0000035629670947
 30
0.0000000000000345
 40
3.5
 50
0.0
 51
180.0
  0
LINE
  5
27A7
  8
TOP-CUT-OUTSIDE_18MM
 10
489.9999919617857245
 20
1624.0000035629670947
 30
0.0000000000000345
 11
512.9999919617857813
 21
1624.0000035629670947
 31
0.0000000000000345
  0
LINE
  5
27A8
  8
TOP-CUT-OUTSIDE_18MM
 10
512.9999919617857813
 20
1624.0000035629670947
 30
0.0000000000000345
 11
512.9999919617857813
 21
3852.0000035629668673
 31
0.0000000000000345
  0
LINE
  5
27A9
  8
TOP-CUT-OUTSIDE_18MM
 10
512.9999919617857813
 20
3852.0000035629668673
 30
0.0000000000000345
 11
489.9999919617857245
 21
3852.0000035629668673
 31
0.0000000000000345
  0
ARC
  5
27AA
  8
TOP-CUT-OUTSIDE_18MM
 10
486.4999919617857245
 20
3852.0000035629668673
 30
0.0000000000000345
 40
3.5
 50
180.0
 51
0.0
  0
LINE
  5
27AB
  8
TOP-CUT-OUTSIDE_18MM
 10
482.9999919617857813
 20
3852.0000035629668673
 30
0.0000000000000345
 11
482.999991961786975
 21
3933.5000069248058026
 31
0.0000000000000345
  0
ARC
  5
27AC
  8
TOP-CUT-OUTSIDE_18MM
 10
478.4999953236240913
 20
3933.5000069248058026
 30
0.0000000000000345
 40
4.4999966381629459
 50
359.999999999994202
 51
90.0000000000014353
  0
LINE
  5
27AD
  8
TOP-CUT-OUTSIDE_18MM
 10
478.4999953236239776
 20
3938.0000035629691411
 30
0.0000000000000345
 11
413.0999919617856904
 21
3938.0000035629668673
 31
0.0000000000000345
  0
LINE
  5
27AE
  8
TOP-CUT-OUTSIDE_18MM
 10
413.0999919617856904
 20
3938.0000035629668673
 30
0.0000000000000345
 11
413.0999919617856904
 21
3882.1000035629667764
 31
0.0000000000000345
  0
LINE
  5
27AF
  8
TOP-CUT-OUTSIDE_18MM
 10
413.0999919617856904
 20
3882.1000035629667764
 30
0.0000000000000345
 11
443.049991961785679
 21
3882.1000035629667764
 31
0.0000000000000345
  0
ARC
  5
27B0
  8
TOP-CUT-OUTSIDE_18MM
 10
446.549991961785679
 20
3882.1000035629667764
 30
0.0000000000000345
 40
3.5
 50
0.0
 51
179.9999999999924967
  0
LINE
  5
27B1
  8
TOP-CUT-OUTSIDE_18MM
 10
450.049991961785679
 20
3882.1000035629667764
 30
0.0000000000000345
 11
450.049991961785679
 21
3869.9000035629678678
 31
0.0000000000000345
  0
ARC
  5
27B2
  8
TOP-CUT-OUTSIDE_18MM
 10
446.549991961785679
 20
3869.9000035629678678
 30
0.0000000000000345
 40
3.5
 50
180.0000000000073896
 51
0.0
  0
LINE
  5
27B3
  8
TOP-CUT-OUTSIDE_18MM
 10
443.049991961785679
 20
3869.9000035629678678
 30
0.0000000000000345
 11
413.0999919617856904
 21
3869.9000035629678678
 31
0.0000000000000345
  0
LINE
  5
27B4
  8
TOP-CUT-OUTSIDE_18MM
 10
413.0999919617856904
 20
3869.9000035629678678
 30
0.0000000000000345
 11
413.0999919617856904
 21
2744.6000035629667764
 31
0.0000000000000345
  0
ARC
  5
27B5
  8
TOP-CUT-OUTSIDE_18MM
 10
413.0999919617856904
 20
2741.1000035629667764
 30
0.0000000000000345
 40
3.5
 50
270.0
 51
90.0
  0
LINE
  5
27B6
  8
TOP-CUT-OUTSIDE_18MM
 10
413.0999919617856904
 20
2737.6000035629667764
 30
0.0000000000000345
 11
394.8999919617857017
 21
2737.6000035629667764
 31
0.0000000000000345
  0
ARC
  5
27B7
  8
TOP-CUT-OUTSIDE_18MM
 10
394.8999919617857017
 20
2741.1000035629667764
 30
0.0000000000000345
 40
3.5
 50
89.9999999999990905
 51
270.0
  0
LINE
  5
27B8
  8
TOP-CUT-OUTSIDE_18MM
 10
394.8999919617858154
 20
2744.6000035629667764
 30
0.0000000000000345
 11
394.8999919617858154
 21
3852.0000035629668673
 31
0.0000000000000345
  0
ENDBLK
  5
27BA
  8
0
  0
BLOCK
  8
0
  2
*U10
 70
     1
 10
0.0
 20
0.0
 30
0.0
  3
*U10
  1

  0
LINE
  5
27BC
  8
TOP-CUT-INSIDE_18MM
 10
348.8000309618022925
 20
3836.2000015629669178
 30
0.0
 11
360.2000090144438786
 21
3836.1999655629501831
 31
0.0
210
0.0
220
0.0
230
-1.0
  0
ARC
  5
27BD
  8
TOP-CUT-INSIDE_18MM
 10
-360.1999979617858116
 20
3832.6999655629670087
 30
0.0
 40
3.5
210
0.0
220
0.0
230
-1.0
 50
90.0001809344760488
 51
270.0
  0
LINE
  5
27BE
  8
TOP-CUT-INSIDE_18MM
 10
360.1999979617858116
 20
3829.1999655629670087
 30
0.0
 11
360.1999949617858192
 21
3817.8000015629668269
 31
0.0
210
0.0
220
0.0
230
-1.0
  0
ARC
  5
27BF
  8
TOP-CUT-INSIDE_18MM
 10
-356.6999949617858192
 20
3817.8000015629668269
 30
0.0
 40
3.5
210
0.0
220
0.0
230
-1.0
 50
180.0
 51
359.9999836297865841
  0
LINE
  5
27C0
  8
TOP-CUT-INSIDE_18MM
 10
353.1999949617858761
 20
3817.8000005629678526
 30
0.0
 11
341.8000056547758732
 21
3817.8000015629418158
 31
0.0
210
0.0
220
0.0
230
-1.0
  0
ARC
  5
27C1
  8
TOP-CUT-INSIDE_18MM
 10
-341.8000059617857005
 20
3821.3000015629668269
 30
0.0
 40
3.500000000025639
210
0.0
220
0.0
230
-1.0
 50
270.0000050258191777
 51
89.9998526679958957
  0
LINE
  5
27C2
  8
TOP-CUT-INSIDE_18MM
 10
341.7999969617857801
 20
3824.8000015629818336
 30
0.0
 11
341.8000309617756898
 21
3836.2000040015582272
 31
0.0
210
0.0
220
0.0
230
-1.0
  0
ARC
  5
27C3
  8
TOP-CUT-INSIDE_18MM
 10
-345.3000309617858079
 20
3836.199993562966938
 30
0.0
 40
3.5000000000256311
210
0.0
220
0.0
230
-1.0
 50
0.0001708820642645
 51
179.9998690382186055
  0
ENDBLK
  5
27C5
  8
0
  0
BLOCK
  8
0
  2
*U11
 70
     1
 10
0.0
 20
0.0
 30
0.0
  3
*U11
  1

  0
LINE
  5
27CC
  8
TOP-CUT-OUTSIDE_18MM
 10
4049.9999919620699984
 20
1538.0000035626430872
 30
0.0000000000003606
 11
4649.9999919620704532
 21
1538.0000035629689137
 31
0.0000000000003606
  0
LINE
  5
27CD
  8
TOP-CUT-OUTSIDE_18MM
 10
4649.9999919620704532
 20
1538.0000035629689137
 30
0.0000000000003606
 11
4649.9999919607707852
 21
3938.0000035629677768
 31
0.0000000000003606
  0
LINE
  5
27CE
  8
TOP-CUT-OUTSIDE_18MM
 10
4649.9999919607707852
 20
3938.0000035629677768
 30
0.0000000000003606
 11
4049.9999919607698757
 21
3938.0000035626421777
 31
0.0000000000003606
  0
LINE
  5
27CF
  8
TOP-CUT-OUTSIDE_18MM
 10
4049.9999919607698757
 20
3938.0000035626421777
 30
0.0000000000003606
 11
3952.1315451430291432
 21
2300.9474343235178821
 31
0.0000000000003606
  0
ARC
  5
27D0
  8
TOP-CUT-OUTSIDE_18MM
 10
4251.5970416276522883
 20
2283.0443910326871446
 30
0.0000000000003606
 40
300.0001709063773774
 50
176.5787397926110032
 51
187.7318388236105875
  0
LINE
  5
27D1
  8
TOP-CUT-OUTSIDE_18MM
 10
3954.3242947884509704
 20
2242.683314107860042
 30
0.0000000000003606
 11
4049.9999919620699984
 21
1538.0000035626430872
 31
0.0000000000003606
  0
ENDBLK
  5
27D3
  8
0
  0
BLOCK
  8
0
  2
*U12
 70
     1
 10
0.0
 20
0.0
 30
0.0
  3
*U12
  1

  0
LINE
  5
27DA
  8
TOP-CUT-INSIDE_18MM
 10
4203.0014209611954357
 20
1624.1000035627309899
 30
0.0
 11
4166.9985631811296116
 21
1624.1000035627089346
 31
0.0
  0
ARC
  5
27DB
  8
TOP-CUT-INSIDE_18MM
 10
4163.4999920711616141
 20
1624.2000045052029691
 30
0.0
 40
3.5
 50
358.3627394870836156
 51
179.9999999999442082
  0
LINE
  5
27DC
  8
TOP-CUT-INSIDE_18MM
 10
4159.9999920711616141
 20
1624.2000045052070618
 30
0.0
 11
4159.9999920711452432
 21
1605.8000164652260082
 31
0.0
  0
ARC
  5
27DD
  8
TOP-CUT-INSIDE_18MM
 10
4163.4999920711452432
 20
1605.8000164652230524
 30
0.0
 40
3.49999999999971
 50
180.0000000000214868
 51
1.637033774583303
  0
LINE
  5
27DE
  8
TOP-CUT-INSIDE_18MM
 10
4166.9985635768216525
 20
1605.9000035627088891
 30
0.0
 11
4203.0014205655043042
 21
1605.9000035627309444
 31
0.0
  0
ARC
  5
27DF
  8
TOP-CUT-INSIDE_18MM
 10
4206.4999920711788945
 20
1605.8000164652230524
 30
0.0
 40
3.49999999999971
 50
178.3629662250592105
 51
359.9999999999783995
  0
LINE
  5
27E0
  8
TOP-CUT-INSIDE_18MM
 10
4209.999992071179804
 20
1605.8000164652260082
 30
0.0
 11
4209.9999920711616141
 21
1624.2000045052070618
 31
0.0
  0
ARC
  5
27E1
  8
TOP-CUT-INSIDE_18MM
 10
4206.4999920711616141
 20
1624.2000045052029691
 30
0.0
 40
3.5
 50
0.0000000000558324
 51
180.0000000019913102
  0
LINE
  5
27E2
  8
TOP-CUT-INSIDE_18MM
 10
4202.9999920711616141
 20
1624.2000045050820063
 30
0.0
 11
4203.0014209611954357
 21
1624.1000035627309899
 31
0.0
  0
ENDBLK
  5
27E4
  8
0
  0
BLOCK
  8
0
  2
*U13
 70
     1
 10
0.0
 20
0.0
 30
0.0
  3
*U13
  1

  0
LINE
  5
27E6
  8
TOP-CUT-INSIDE_18MM
 10
4533.0014210720919436
 20
1624.1000035627309899
 30
0.0
 11
4496.9985632920270291
 21
1624.1000035627089346
 31
0.0
  0
ARC
  5
27E7
  8
TOP-CUT-INSIDE_18MM
 10
4493.4999921820590316
 20
1624.2000045052029691
 30
0.0
 40
3.5
 50
358.3627394870836724
 51
179.9999999999442082
  0
LINE
  5
27E8
  8
TOP-CUT-INSIDE_18MM
 10
4489.9999921820599411
 20
1624.2000045052070618
 30
0.0
 11
4489.9999921820426607
 21
1605.8000164652260082
 31
0.0
  0
ARC
  5
27E9
  8
TOP-CUT-INSIDE_18MM
 10
4493.4999921820426607
 20
1605.8000164652230524
 30
0.0
 40
3.49999999999971
 50
180.0000000000214868
 51
1.637033774583303
  0
LINE
  5
27EA
  8
TOP-CUT-INSIDE_18MM
 10
4496.99856368771907
 20
1605.9000035627088891
 30
0.0
 11
4533.0014206764008122
 21
1605.9000035627309444
 31
0.0
  0
ARC
  5
27EB
  8
TOP-CUT-INSIDE_18MM
 10
4536.499992182078131
 20
1605.8000164652230524
 30
0.0
 40
3.49999999999971
 50
178.3629662250592105
 51
359.9999999999783995
  0
LINE
  5
27EC
  8
TOP-CUT-INSIDE_18MM
 10
4539.9999921820772215
 20
1605.8000164652260082
 30
0.0
 11
4539.9999921820590316
 21
1624.2000045052070618
 31
0.0
  0
ARC
  5
27ED
  8
TOP-CUT-INSIDE_18MM
 10
4536.4999921820599411
 20
1624.2000045052029691
 30
0.0
 40
3.5
 50
0.0000000000558324
 51
179.9999999980049097
  0
LINE
  5
27EE
  8
TOP-CUT-INSIDE_18MM
 10
4532.9999921820599411
 20
1624.2000045053250687
 30
0.0
 11
4533.0014210720919436
 21
1624.1000035627309899
 31
0.0
  0
ENDBLK
  5
27F0
  8
0
  0
BLOCK
  8
0
  2
*U14
 70
     1
 10
0.0
 20
0.0
 30
0.0
  3
*U14
  1

  0
LINE
  5
27F2
  8
TOP-CUT-INSIDE_18MM
 10
4533.0014210720919436
 20
3870.1000035629240301
 30
0.0
 11
4496.9985632920270291
 21
3870.1000035629022022
 31
0.0
  0
ARC
  5
27F3
  8
TOP-CUT-INSIDE_18MM
 10
4493.4999921820590316
 20
3870.2000045053969188
 30
0.0
 40
3.5
 50
358.3627394870799208
 51
179.999999999947903
  0
LINE
  5
27F4
  8
TOP-CUT-INSIDE_18MM
 10
4489.9999921820599411
 20
3870.2000045053991926
 30
0.0
 11
4489.9999921820426607
 21
3851.800016465418139
 31
0.0
  0
ARC
  5
27F5
  8
TOP-CUT-INSIDE_18MM
 10
4493.4999921820426607
 20
3851.8000164654149557
 30
0.0
 40
3.49999999999971
 50
180.0000000000252953
 51
1.6370337745907371
  0
LINE
  5
27F6
  8
TOP-CUT-INSIDE_18MM
 10
4496.99856368771907
 20
3851.9000035629019294
 30
0.0
 11
4533.0014206764008122
 21
3851.900003562924212
 31
0.0
  0
ARC
  5
27F7
  8
TOP-CUT-INSIDE_18MM
 10
4536.499992182078131
 20
3851.8000164654149557
 30
0.0
 40
3.49999999999971
 50
178.3629662250517072
 51
359.9999999999747047
  0
LINE
  5
27F8
  8
TOP-CUT-INSIDE_18MM
 10
4539.9999921820772215
 20
3851.800016465418139
 30
0.0
 11
4539.9999921820590316
 21
3870.2000045053991926
 31
0.0
  0
ARC
  5
27F9
  8
TOP-CUT-INSIDE_18MM
 10
4536.4999921820599411
 20
3870.2000045053969188
 30
0.0
 40
3.5
 50
0.0000000000521102
 51
179.9999999980122993
  0
LINE
  5
27FA
  8
TOP-CUT-INSIDE_18MM
 10
4532.9999921820599411
 20
3870.2000045055169721
 30
0.0
 11
4533.0014210720919436
 21
3870.1000035629240301
 31
0.0
  0
ENDBLK
  5
27FC
  8
0
  0
BLOCK
  8
0
  2
*U15
 70
     1
 10
0.0
 20
0.0
 30
0.0
  3
*U15
  1

  0
LINE
  5
27FE
  8
TOP-CUT-INSIDE_18MM
 10
4203.001420852303454
 20
3870.1000035629240301
 30
0.0
 11
4166.998563072239449
 21
3870.1000035629022022
 31
0.0
  0
ARC
  5
27FF
  8
TOP-CUT-INSIDE_18MM
 10
4163.499991962272361
 20
3870.2000045053969188
 30
0.0
 40
3.5
 50
358.3627394870799208
 51
179.999999999947903
  0
LINE
  5
2800
  8
TOP-CUT-INSIDE_18MM
 10
4159.999991962272361
 20
3870.2000045053991926
 30
0.0
 11
4159.9999919622541711
 21
3851.800016465418139
 31
0.0
  0
ARC
  5
2801
  8
TOP-CUT-INSIDE_18MM
 10
4163.4999919622541711
 20
3851.8000164654149557
 30
0.0
 40
3.49999999999971
 50
180.0000000000252953
 51
1.6370337745907371
  0
LINE
  5
2802
  8
TOP-CUT-INSIDE_18MM
 10
4166.9985634679296709
 20
3851.9000035629019294
 30
0.0
 11
4203.0014204566132321
 21
3851.900003562924212
 31
0.0
  0
ARC
  5
2803
  8
TOP-CUT-INSIDE_18MM
 10
4206.4999919622896414
 20
3851.8000164654149557
 30
0.0
 40
3.49999999999971
 50
178.3629662250517072
 51
359.9999999999747047
  0
LINE
  5
2804
  8
TOP-CUT-INSIDE_18MM
 10
4209.9999919622887319
 20
3851.800016465418139
 30
0.0
 11
4209.999991962272361
 21
3870.2000045053991926
 31
0.0
  0
ARC
  5
2805
  8
TOP-CUT-INSIDE_18MM
 10
4206.4999919622714515
 20
3870.2000045053969188
 30
0.0
 40
3.5
 50
0.0000000000521102
 51
179.9999999980122993
  0
LINE
  5
2806
  8
TOP-CUT-INSIDE_18MM
 10
4202.9999919622714515
 20
3870.2000045055169721
 30
0.0
 11
4203.001420852303454
 21
3870.1000035629240301
 31
0.0
  0
ENDBLK
  5
2808
  8
0
  0
BLOCK
  8
0
  2
*U16
 70
     1
 10
0.0
 20
0.0
 30
0.0
  3
*U16
  1

  0
LINE
  5
280A
  8
TOP-CUT-INSIDE_18MM
 10
3593.1999409617619676
 20
1658.2000055629669077
 30
-0.0000000000000564
 11
3581.7999628528182257
 21
1658.1999693795469284
 31
-0.0000000000000564
  0
ARC
  5
280B
  8
TOP-CUT-INSIDE_18MM
 10
3581.7999739617857813
 20
1654.6999693795639814
 30
-0.0000000000000564
 40
3.5
 50
90.0001818562544145
 51
269.9999859920521885
  0
LINE
  5
280C
  8
TOP-CUT-INSIDE_18MM
 10
3581.7999731060881459
 20
1651.1999693795648909
 30
-0.0000000000000564
 11
3581.7999769617849779
 21
1639.8000043791969347
 31
-0.0000000000000564
  0
ARC
  5
280D
  8
TOP-CUT-INSIDE_18MM
 10
3585.2999769617849779
 20
1639.8000055629679537
 30
-0.0000000000000564
 40
3.5
 50
180.0
 51
180.0000193785803049
  0
ARC
  5
280E
  8
TOP-CUT-INSIDE_18MM
 10
3585.2999769617849779
 20
1639.8000055629679537
 30
-0.0000000000000564
 40
3.5
 50
180.0
 51
359.999985992057816
  0
LINE
  5
280F
  8
TOP-CUT-INSIDE_18MM
 10
3588.7999769617849779
 20
1639.8000047072710004
 30
-0.0000000000000564
 11
3600.1999661381760234
 21
1639.8000053795440181
 31
-0.0000000000000564
  0
ARC
  5
2810
  8
TOP-CUT-INSIDE_18MM
 10
3600.1999659317762053
 20
1643.3000053795699387
 30
-0.0000000000000564
 40
3.5000000000256368
 50
270.0000033788136875
 51
89.9998685469505944
  0
LINE
  5
2811
  8
TOP-CUT-INSIDE_18MM
 10
3600.1999739617858722
 20
1646.8000053795860822
 30
-0.0000000000000564
 11
3600.199940961790162
 21
1658.2000076645329045
 31
-0.0000000000000564
  0
ARC
  5
2812
  8
TOP-CUT-INSIDE_18MM
 10
3596.6999409617787933
 20
1658.1999975329579229
 30
-0.0000000000000564
 40
3.5000000000256311
 50
0.0001658569690259
 51
179.9998685477760034
  0
ENDBLK
  5
2814
  8
0
  0
BLOCK
  8
0
  2
*U17
 70
     1
 10
0.0
 20
0.0
 30
0.0
  3
*U17
  1

  0
LINE
  5
2816
  8
TOP-POCKET-INSIDE_09MM
 10
3609.1014208248780051
 20
3801.9000035629678678
 30
0.0000000000000123
 11
3572.8985630986931028
 21
3801.9000035629678678
 31
0.0000000000000123
210
0.0
220
0.0
230
-1.0
  0
ARC
  5
2817
  8
TOP-POCKET-INSIDE_09MM
 10
-3569.3999919617849628
 20
3801.8000035629697777
 30
-0.0000000000000123
 40
3.500000000000095
210
0.0
220
0.0
230
-1.0
 50
178.3627549222460971
 51
0.0
  0
LINE
  5
2818
  8
TOP-POCKET-INSIDE_09MM
 10
3565.8999919617849628
 20
3801.8000035629697777
 30
0.0000000000000123
 11
3565.8999919617840533
 21
3865.2350070480738395
 31
0.0000000000000123
210
0.0
220
0.0
230
-1.0
  0
ARC
  5
2819
  8
TOP-POCKET-INSIDE_09MM
 10
-3570.564988476678991
 20
3865.2350070480738395
 30
-0.0000000000000123
 40
4.664996514895785
210
0.0
220
0.0
230
-1.0
 50
0.0
 51
90.0
  0
LINE
  5
281A
  8
TOP-POCKET-INSIDE_09MM
 10
3570.564988476678991
 20
3869.9000035629701415
 30
0.0000000000000123
 11
3611.4349954468921169
 21
3869.9000035629701415
 31
0.0000000000000123
210
0.0
220
0.0
230
-1.0
  0
ARC
  5
281B
  8
TOP-POCKET-INSIDE_09MM
 10
-3611.4349954468921169
 20
3865.2350070480738395
 30
-0.0000000000000123
 40
4.6649965148955568
210
0.0
220
0.0
230
-1.0
 50
90.0000000000006963
 51
180.0
  0
LINE
  5
281C
  8
TOP-POCKET-INSIDE_09MM
 10
3616.0999919617870546
 20
3865.2350070480738395
 30
0.0000000000000123
 11
3616.0999919617847809
 21
3801.8000035629697777
 31
0.0000000000000123
210
0.0
220
0.0
230
-1.0
  0
ARC
  5
281D
  8
TOP-POCKET-INSIDE_09MM
 10
-3612.5999919617847809
 20
3801.8000035629697777
 30
-0.0000000000000123
 40
3.500000000000095
210
0.0
220
0.0
230
-1.0
 50
180.0
 51
0.0000000019950441
  0
LINE
  5
281E
  8
TOP-POCKET-INSIDE_09MM
 10
3609.0999919617847809
 20
3801.8000035630911952
 30
0.0000000000000123
 11
3609.1014208248780051
 21
3801.9000035629678678
 31
0.0000000000000123
210
0.0
220
0.0
230
-1.0
  0
ENDBLK
  5
2820
  8
0
  0
BLOCK
  8
0
  2
*U18
 70
     1
 10
0.0
 20
0.0
 30
0.0
  3
*U18
  1

  0
LINE
  5
2822
  8
TOP-POCKET-INSIDE_09MM
 10
3609.1014208248780051
 20
1674.1000035629679132
 30
0.0000000000000123
 11
3572.8985630986931028
 21
1674.1000035629679132
 31
0.0000000000000123
  0
ARC
  5
2823
  8
TOP-POCKET-INSIDE_09MM
 10
3569.3999919617849628
 20
1674.2000035629660033
 30
0.0000000000000123
 40
3.500000000000095
 50
358.3627549222460971
 51
180.0
  0
LINE
  5
2824
  8
TOP-POCKET-INSIDE_09MM
 10
3565.8999919617849628
 20
1674.2000035629660033
 30
0.0000000000000123
 11
3565.8999919617840533
 21
1610.7650000778619415
 31
0.0000000000000123
  0
ARC
  5
2825
  8
TOP-POCKET-INSIDE_09MM
 10
3570.564988476678991
 20
1610.7650000778619415
 30
0.0000000000000123
 40
4.664996514895785
 50
179.9999999999971863
 51
270.0
  0
LINE
  5
2826
  8
TOP-POCKET-INSIDE_09MM
 10
3570.564988476678991
 20
1606.1000035629660943
 30
0.0000000000000123
 11
3611.4349954468921169
 21
1606.1000035629660943
 31
0.0000000000000123
  0
ARC
  5
2827
  8
TOP-POCKET-INSIDE_09MM
 10
3611.4349954468921169
 20
1610.7650000778619415
 30
0.0000000000000123
 40
4.6649965148955568
 50
270.0000000000006821
 51
0.0000000000027978
  0
LINE
  5
2828
  8
TOP-POCKET-INSIDE_09MM
 10
3616.0999919617870546
 20
1610.7650000778619415
 30
0.0000000000000123
 11
3616.0999919617847809
 21
1674.2000035629660033
 31
0.0000000000000123
  0
ARC
  5
2829
  8
TOP-POCKET-INSIDE_09MM
 10
3612.5999919617847809
 20
1674.2000035629660033
 30
0.0000000000000123
 40
3.500000000000095
 50
0.0
 51
180.0000000019913102
  0
LINE
  5
282A
  8
TOP-POCKET-INSIDE_09MM
 10
3609.0999919617847809
 20
1674.2000035628450405
 30
0.0000000000000123
 11
3609.1014208248780051
 21
1674.1000035629679132
 31
0.0000000000000123
  0
ENDBLK
  5
282C
  8
0
  0
BLOCK
  8
0
  2
*U19
 70
     1
 10
0.0
 20
0.0
 30
0.0
  3
*U19
  1

  0
LINE
  5
282E
  8
TOP-CUT-OUTSIDE_18MM
 10
3634.8999919617849628
 20
3852.0000035629677768
 30
0.0000000000000345
 11
3526.9999919617857813
 21
3852.0000035629677768
 31
0.0000000000000345
  0
ARC
  5
282F
  8
TOP-CUT-OUTSIDE_18MM
 10
3523.4999919617857813
 20
3852.0000035629677768
 30
0.0000000000000345
 40
3.5
 50
180.0
 51
0.0
  0
LINE
  5
2830
  8
TOP-CUT-OUTSIDE_18MM
 10
3519.9999919617848718
 20
3852.0000035629677768
 30
0.0000000000000345
 11
3519.9999919617848718
 21
3870.0000035629677768
 31
0.0000000000000345
  0
LINE
  5
2831
  8
TOP-CUT-OUTSIDE_18MM
 10
3519.9999919617848718
 20
3870.0000035629677768
 30
0.0000000000000345
 11
3469.9999919617848718
 21
3870.0000035629677768
 31
0.0000000000000345
  0
LINE
  5
2832
  8
TOP-CUT-OUTSIDE_18MM
 10
3469.9999919617848718
 20
3870.0000035629677768
 30
0.0000000000000345
 11
3469.9999919617848718
 21
1606.0000035629680042
 31
0.0000000000000345
  0
LINE
  5
2833
  8
TOP-CUT-OUTSIDE_18MM
 10
3469.9999919617848718
 20
1606.0000035629680042
 30
0.0000000000000345
 11
3519.9999919617848718
 21
1606.0000035629680042
 31
0.0000000000000345
  0
LINE
  5
2834
  8
TOP-CUT-OUTSIDE_18MM
 10
3519.9999919617848718
 20
1606.0000035629680042
 30
0.0000000000000345
 11
3519.9999919617848718
 21
1624.0000035629680042
 31
0.0000000000000345
  0
ARC
  5
2835
  8
TOP-CUT-OUTSIDE_18MM
 10
3523.4999919617857813
 20
1624.0000035629680042
 30
0.0000000000000345
 40
3.5
 50
0.0
 51
180.0
  0
LINE
  5
2836
  8
TOP-CUT-OUTSIDE_18MM
 10
3526.9999919617857813
 20
1624.0000035629680042
 30
0.0000000000000345
 11
3634.9999919617848718
 21
1624.0000035629680042
 31
0.0000000000000345
  0
ARC
  5
2837
  8
TOP-CUT-OUTSIDE_18MM
 10
3634.9999919617848718
 20
1620.5000035629670947
 30
0.0000000000000345
 40
3.5
 50
270.0000000000018758
 51
90.0
  0
LINE
  5
2838
  8
TOP-CUT-OUTSIDE_18MM
 10
3634.9999919617848718
 20
1617.0000035629670947
 30
0.0000000000000345
 11
3634.9999919617848718
 21
1606.1000035629679132
 31
0.0000000000000345
  0
LINE
  5
2839
  8
TOP-CUT-OUTSIDE_18MM
 10
3634.9999919617848718
 20
1606.1000035629679132
 30
0.0000000000000345
 11
3683.0499919617859632
 21
1606.1000035629679132
 31
0.0000000000000345
  0
ARC
  5
283A
  8
TOP-CUT-OUTSIDE_18MM
 10
3686.5499919617850537
 20
1606.1000035629670037
 30
0.0000000000000345
 40
3.5
 50
0.0
 51
179.999999999985107
  0
LINE
  5
283B
  8
TOP-CUT-OUTSIDE_18MM
 10
3690.0499919617859632
 20
1606.1000035629670037
 30
0.0000000000000345
 11
3690.0499919617859632
 21
1593.9000035629680951
 31
0.0000000000000345
  0
ARC
  5
283C
  8
TOP-CUT-OUTSIDE_18MM
 10
3686.5499919617850537
 20
1593.9000035629680951
 30
0.0000000000000345
 40
3.5
 50
180.0000000000073896
 51
0.0
  0
LINE
  5
283D
  8
TOP-CUT-OUTSIDE_18MM
 10
3683.0499919617859632
 20
1593.9000035629680951
 30
0.0000000000000345
 11
3634.9999919617848718
 21
1593.9000035629680951
 31
0.0000000000000345
  0
LINE
  5
283E
  8
TOP-CUT-OUTSIDE_18MM
 10
3634.9999919617848718
 20
1593.9000035629680951
 30
0.0000000000000345
 11
3634.9999919617848718
 21
1538.0000035629680042
 31
0.0000000000000345
  0
LINE
  5
283F
  8
TOP-CUT-OUTSIDE_18MM
 10
3634.9999919617848718
 20
1538.0000035629680042
 30
0.0000000000000345
 11
3718.4999953236238071
 21
1538.0000035629670947
 31
0.0000000000000345
  0
ARC
  5
2840
  8
TOP-CUT-OUTSIDE_18MM
 10
3718.4999953236238071
 20
1542.5000002011299784
 30
0.0000000000000345
 40
4.4999966381630028
 50
269.9999999999993179
 51
0.0
  0
LINE
  5
2841
  8
TOP-CUT-OUTSIDE_18MM
 10
3722.9999919617871456
 20
1542.5000002011299784
 30
0.0000000000000345
 11
3722.9999919617848718
 21
1624.0000035629680042
 31
0.0000000000000345
  0
ARC
  5
2842
  8
TOP-CUT-OUTSIDE_18MM
 10
3726.4999919617857813
 20
1624.0000035629680042
 30
0.0000000000000345
 40
3.5
 50
0.0
 51
180.0
  0
LINE
  5
2843
  8
TOP-CUT-OUTSIDE_18MM
 10
3729.9999919617848718
 20
1624.0000035629680042
 30
0.0000000000000345
 11
3752.9999919617857813
 21
1624.0000035629680042
 31
0.0000000000000345
  0
LINE
  5
2844
  8
TOP-CUT-OUTSIDE_18MM
 10
3752.9999919617857813
 20
1624.0000035629680042
 30
0.0000000000000345
 11
3752.9999919617857813
 21
3852.0000035629677768
 31
0.0000000000000345
  0
LINE
  5
2845
  8
TOP-CUT-OUTSIDE_18MM
 10
3752.9999919617857813
 20
3852.0000035629677768
 30
0.0000000000000345
 11
3729.9999919617848718
 21
3852.0000035629677768
 31
0.0000000000000345
  0
ARC
  5
2846
  8
TOP-CUT-OUTSIDE_18MM
 10
3726.4999919617857813
 20
3852.0000035629677768
 30
0.0000000000000345
 40
3.5
 50
180.0
 51
0.0
  0
LINE
  5
2847
  8
TOP-CUT-OUTSIDE_18MM
 10
3722.9999919617848718
 20
3852.0000035629677768
 30
0.0000000000000345
 11
3722.9999919617871456
 21
3933.5000069248058026
 31
0.0000000000000345
  0
ARC
  5
2848
  8
TOP-CUT-OUTSIDE_18MM
 10
3718.4999953236238071
 20
3933.5000069248071668
 30
0.0000000000000345
 40
4.4999966381629459
 50
359.999999999994202
 51
90.0000000000014353
  0
LINE
  5
2849
  8
TOP-CUT-OUTSIDE_18MM
 10
3718.4999953236238071
 20
3938.0000035629700506
 30
0.0000000000000345
 11
3653.0999919617861451
 21
3938.0000035629677768
 31
0.0000000000000345
  0
LINE
  5
284A
  8
TOP-CUT-OUTSIDE_18MM
 10
3653.0999919617861451
 20
3938.0000035629677768
 30
0.0000000000000345
 11
3653.0999919617861451
 21
3882.1000035629681406
 31
0.0000000000000345
  0
LINE
  5
284B
  8
TOP-CUT-OUTSIDE_18MM
 10
3653.0999919617861451
 20
3882.1000035629681406
 30
0.0000000000000345
 11
3683.0499919617859632
 21
3882.1000035629681406
 31
0.0000000000000345
  0
ARC
  5
284C
  8
TOP-CUT-OUTSIDE_18MM
 10
3686.5499919617850537
 20
3882.1000035629681406
 30
0.0000000000000345
 40
3.5
 50
0.0
 51
179.9999999999924967
  0
LINE
  5
284D
  8
TOP-CUT-OUTSIDE_18MM
 10
3690.0499919617859632
 20
3882.1000035629681406
 30
0.0000000000000345
 11
3690.0499919617859632
 21
3869.9000035629687773
 31
0.0000000000000345
  0
ARC
  5
284E
  8
TOP-CUT-OUTSIDE_18MM
 10
3686.5499919617850537
 20
3869.9000035629687773
 30
0.0000000000000345
 40
3.5
 50
180.0000000000073896
 51
0.0
  0
LINE
  5
284F
  8
TOP-CUT-OUTSIDE_18MM
 10
3683.0499919617859632
 20
3869.9000035629678678
 30
0.0000000000000345
 11
3653.0999919617861451
 21
3869.9000035629678678
 31
0.0000000000000345
  0
LINE
  5
2850
  8
TOP-CUT-OUTSIDE_18MM
 10
3653.0999919617861451
 20
3869.9000035629678678
 30
0.0000000000000345
 11
3653.0999919617861451
 21
2744.6000035629681406
 31
0.0000000000000345
  0
ARC
  5
2851
  8
TOP-CUT-OUTSIDE_18MM
 10
3653.0999919617861451
 20
2741.1000035629681406
 30
0.0000000000000345
 40
3.5
 50
270.0
 51
90.0
  0
LINE
  5
2852
  8
TOP-CUT-OUTSIDE_18MM
 10
3653.0999919617861451
 20
2737.6000035629681406
 30
0.0000000000000345
 11
3634.8999919617849628
 21
2737.6000035629681406
 31
0.0000000000000345
  0
ARC
  5
2853
  8
TOP-CUT-OUTSIDE_18MM
 10
3634.8999919617849628
 20
2741.1000035629681406
 30
0.0000000000000345
 40
3.5
 50
89.9999999999990905
 51
270.0
  0
LINE
  5
2854
  8
TOP-CUT-OUTSIDE_18MM
 10
3634.8999919617849628
 20
2744.6000035629681406
 30
0.0000000000000345
 11
3634.8999919617849628
 21
3852.0000035629677768
 31
0.0000000000000345
  0
ENDBLK
  5
2856
  8
0
  0
BLOCK
  8
0
  2
*U20
 70
     1
 10
0.0
 20
0.0
 30
0.0
  3
*U20
  1

  0
LINE
  5
2858
  8
TOP-CUT-INSIDE_18MM
 10
3588.8000309618018946
 20
3836.2000015629678273
 30
0.0
 11
3600.2000090144429123
 21
3836.1999655629510926
 31
0.0
210
0.0
220
0.0
230
-1.0
  0
ARC
  5
2859
  8
TOP-CUT-INSIDE_18MM
 10
-3600.1999979617858116
 20
3832.6999655629679182
 30
0.0
 40
3.5
210
0.0
220
0.0
230
-1.0
 50
90.0001809344760488
 51
270.0
  0
LINE
  5
285A
  8
TOP-CUT-INSIDE_18MM
 10
3600.1999979617858116
 20
3829.1999655629679182
 30
0.0
 11
3600.1999949617861603
 21
3817.8000015629681911
 31
0.0
210
0.0
220
0.0
230
-1.0
  0
ARC
  5
285B
  8
TOP-CUT-INSIDE_18MM
 10
-3596.699994961784796
 20
3817.8000015629681911
 30
0.0
 40
3.5
210
0.0
220
0.0
230
-1.0
 50
180.0
 51
359.9999836297865841
  0
LINE
  5
285C
  8
TOP-CUT-INSIDE_18MM
 10
3593.1999949617861603
 20
3817.8000005629678526
 30
0.0
 11
3581.8000056547762142
 21
3817.8000015629418158
 31
0.0
210
0.0
220
0.0
230
-1.0
  0
ARC
  5
285D
  8
TOP-CUT-INSIDE_18MM
 10
-3581.800005961784791
 20
3821.3000015629681911
 30
0.0
 40
3.500000000025639
210
0.0
220
0.0
230
-1.0
 50
270.0000050258191777
 51
89.9998526679958957
  0
LINE
  5
285E
  8
TOP-CUT-INSIDE_18MM
 10
3581.7999969617849274
 20
3824.8000015629818336
 30
0.0
 11
3581.800030961775974
 21
3836.2000040015600462
 31
0.0
210
0.0
220
0.0
230
-1.0
  0
ARC
  5
285F
  8
TOP-CUT-INSIDE_18MM
 10
-3585.3000309617859784
 20
3836.199993562966938
 30
0.0
 40
3.5000000000256311
210
0.0
220
0.0
230
-1.0
 50
0.0001708820642645
 51
179.9998690382186055
  0
ENDBLK
  5
2861
  8
0
  0
BLOCK
  8
0
  2
*U21
 70
     1
 10
0.0
 20
0.0
 30
0.0
  3
*U21
  1

  0
LINE
  5
2863
  8
TOP-POCKET-INSIDE_14MM
 10
589.0833311898121565
 20
3934.6043705988140573
 30
0.0
 11
589.0833311899206137
 21
3321.6043705988158763
 31
0.0
210
0.0
220
0.0
230
-1.0
  0
ARC
  5
2864
  8
TOP-POCKET-INSIDE_14MM
 10
-585.5833311899206137
 20
3321.6043705988149668
 30
0.0
 40
3.5
210
0.0
220
0.0
230
-1.0
 50
179.9999999999888018
 51
269.999999999985107
  0
LINE
  5
2865
  8
TOP-POCKET-INSIDE_14MM
 10
585.5833311899215232
 20
3318.1043705988158763
 30
0.0
 11
574.5833311899215232
 21
3318.1043705988117836
 31
0.0
210
0.0
220
0.0
230
-1.0
  0
ARC
  5
2866
  8
TOP-POCKET-INSIDE_14MM
 10
-574.5833311899206137
 20
3321.6043705988117836
 30
0.0
 40
3.5
210
0.0
220
0.0
230
-1.0
 50
269.999999999985107
 51
359.9999999999924967
  0
LINE
  5
2867
  8
TOP-POCKET-INSIDE_14MM
 10
571.0833311899206137
 20
3321.6043705988108741
 30
0.0
 11
571.0833311898121565
 21
3934.6043705988099646
 31
0.0
210
0.0
220
0.0
230
-1.0
  0
ARC
  5
2868
  8
TOP-POCKET-INSIDE_14MM
 10
-574.5833311898121565
 20
3934.6043705988117836
 30
0.0
 40
3.5
210
0.0
220
0.0
230
-1.0
 50
359.9999999999852207
 51
89.9999999999869686
  0
LINE
  5
2869
  8
TOP-POCKET-INSIDE_14MM
 10
574.583331189811247
 20
3938.1043705988108741
 30
0.0
 11
585.5833311898113607
 21
3938.1043705988131478
 31
0.0
210
0.0
220
0.0
230
-1.0
  0
ARC
  5
286A
  8
TOP-POCKET-INSIDE_14MM
 10
-585.5833311898121565
 20
3934.6043705988140573
 30
0.0
 40
3.5
210
0.0
220
0.0
230
-1.0
 50
89.9999999999869686
 51
179.999999999985107
  0
ENDBLK
  5
286C
  8
0
  0
BLOCK
  8
0
  2
*U22
 70
     1
 10
0.0
 20
0.0
 30
0.0
  3
*U22
  1

  0
LINE
  5
286E
  8
TOP-POCKET-INSIDE_14MM
 10
687.8876151924432634
 20
3934.6043705988281545
 30
0.0
 11
687.8876151925619524
 21
3321.604370598829064
 31
0.0
  0
ARC
  5
286F
  8
TOP-POCKET-INSIDE_14MM
 10
691.3876151925619524
 20
3321.6043705988299735
 30
0.0
 40
3.5
 50
180.0000000000073896
 51
270.0
  0
LINE
  5
2870
  8
TOP-POCKET-INSIDE_14MM
 10
691.3876151925619524
 20
3318.1043705988299735
 30
0.0
 11
702.3876151925619524
 21
3318.1043705988299735
 31
0.0
  0
ARC
  5
2871
  8
TOP-POCKET-INSIDE_14MM
 10
702.3876151925619524
 20
3321.6043705988299735
 30
0.0
 40
3.5
 50
270.0
 51
0.0000000000148681
  0
LINE
  5
2872
  8
TOP-POCKET-INSIDE_14MM
 10
705.8876151925619524
 20
3321.6043705988299735
 30
0.0
 11
705.8876151924432634
 21
3934.604370598829064
 31
0.0
  0
ARC
  5
2873
  8
TOP-POCKET-INSIDE_14MM
 10
702.3876151924432634
 20
3934.6043705988281545
 30
0.0
 40
3.5
 50
0.0000000000074425
 51
90.0
  0
LINE
  5
2874
  8
TOP-POCKET-INSIDE_14MM
 10
702.3876151924432634
 20
3938.104370598829064
 30
0.0
 11
691.3876151924433771
 21
3938.104370598829064
 31
0.0
  0
ARC
  5
2875
  8
TOP-POCKET-INSIDE_14MM
 10
691.3876151924433771
 20
3934.6043705988281545
 30
0.0
 40
3.5
 50
90.0
 51
180.0000000000073896
  0
ENDBLK
  5
2877
  8
0
  0
BLOCK
  8
0
  2
*U23
 70
     1
 10
0.0
 20
0.0
 30
0.0
  3
*U23
  1

  0
LINE
  5
2879
  8
TOP-CUT-OUTSIDE_18MM
 10
702.6876151924418537
 20
3928.1043705988267902
 30
0.0
 11
574.2833311898142483
 21
3928.1043705988108741
 31
0.0
  0
LINE
  5
287A
  8
TOP-CUT-OUTSIDE_18MM
 10
574.2833311898142483
 20
3928.1043705988108741
 30
0.0
 11
574.2833311898367583
 21
3789.10437059881815
 31
0.0
  0
ARC
  5
287B
  8
TOP-CUT-OUTSIDE_18MM
 10
578.7833311898367583
 20
3789.1043705988190595
 30
0.0
 40
4.5
 50
179.9999999999760121
 51
269.999999999970214
  0
LINE
  5
287C
  8
TOP-CUT-OUTSIDE_18MM
 10
578.7833311898367583
 20
3784.6043705988190595
 30
0.0
 11
584.5833311898492184
 21
3784.6043705988190595
 31
0.0
  0
ARC
  5
287D
  8
TOP-CUT-OUTSIDE_18MM
 10
584.5833311898492184
 20
3780.1043705988190595
 30
0.0
 40
4.5
 50
359.9999999999818101
 51
89.9999999999701856
  0
LINE
  5
287E
  8
TOP-CUT-OUTSIDE_18MM
 10
589.0833311898492184
 20
3780.104370598819969
 30
0.0
 11
589.083331189908904
 21
3476.104370598819969
 31
0.0
  0
ARC
  5
287F
  8
TOP-CUT-OUTSIDE_18MM
 10
584.583331189908904
 20
3476.1043705988190595
 30
0.0
 40
4.5
 50
269.9999999999773763
 51
359.9999999999818101
  0
LINE
  5
2880
  8
TOP-CUT-OUTSIDE_18MM
 10
584.5833311899093587
 20
3471.6043705988190595
 30
0.0
 11
578.7833311898981492
 21
3471.60437059881815
 31
0.0
  0
ARC
  5
2881
  8
TOP-CUT-OUTSIDE_18MM
 10
578.7833311898987176
 20
3467.10437059881815
 30
0.0
 40
4.5
 50
89.999999999977419
 51
179.999999999970214
  0
LINE
  5
2882
  8
TOP-CUT-OUTSIDE_18MM
 10
574.2833311898987176
 20
3467.10437059881815
 30
0.0
 11
574.2833311899142927
 21
3328.1043705988149668
 31
0.0
  0
LINE
  5
2883
  8
TOP-CUT-OUTSIDE_18MM
 10
574.2833311899142927
 20
3328.1043705988149668
 30
0.0
 11
702.6876151925481508
 21
3328.1043705988281545
 31
0.0
  0
LINE
  5
2884
  8
TOP-CUT-OUTSIDE_18MM
 10
702.6876151925481508
 20
3328.1043705988281545
 30
0.0
 11
702.687615192530302
 21
3467.1043705988190595
 31
0.0
  0
ARC
  5
2885
  8
TOP-CUT-OUTSIDE_18MM
 10
698.187615192530302
 20
3467.10437059881815
 30
0.0
 40
4.5
 50
359.9999999999818101
 51
89.9999999999701856
  0
LINE
  5
2886
  8
TOP-CUT-OUTSIDE_18MM
 10
698.187615192530302
 20
3471.60437059881815
 30
0.0
 11
692.3876151925175009
 21
3471.60437059881815
 31
0.0
  0
ARC
  5
2887
  8
TOP-CUT-OUTSIDE_18MM
 10
692.3876151925175009
 20
3476.10437059881815
 30
0.0
 40
4.5
 50
179.9999999999816964
 51
269.999999999970214
  0
LINE
  5
2888
  8
TOP-CUT-OUTSIDE_18MM
 10
687.8876151925175009
 20
3476.1043705988167858
 30
0.0
 11
687.8876151924447413
 21
3780.1043705988190595
 31
0.0
  0
ARC
  5
2889
  8
TOP-CUT-OUTSIDE_18MM
 10
692.3876151924447413
 20
3780.104370598819969
 30
0.0
 40
4.5
 50
89.999999999983217
 51
179.9999999999874944
  0
LINE
  5
288A
  8
TOP-CUT-OUTSIDE_18MM
 10
692.3876151924437181
 20
3784.604370598819969
 30
0.0
 11
698.1876151924559508
 21
3784.604370598821788
 31
0.0
  0
ARC
  5
288B
  8
TOP-CUT-OUTSIDE_18MM
 10
698.1876151924549276
 20
3789.104370598821788
 30
0.0
 40
4.5
 50
269.9999999999845954
 51
359.9999999999760121
  0
LINE
  5
288C
  8
TOP-CUT-OUTSIDE_18MM
 10
702.6876151924549276
 20
3789.104370598821788
 30
0.0
 11
702.6876151924418537
 21
3928.1043705988267902
 31
0.0
  0
ENDBLK
  5
288E
  8
0
  0
BLOCK
  8
0
  2
*U24
 70
     1
 10
0.0
 20
0.0
 30
0.0
  3
*U24
  1

  0
LINE
  5
2890
  8
TOP-CUT-INSIDE_18MM
 10
628.585473191209303
 20
3662.7043705988257898
 30
0.0
 11
628.5854731912043007
 21
3593.504370598810965
 31
0.0
  0
ARC
  5
2891
  8
TOP-CUT-INSIDE_18MM
 10
633.9854731912041643
 20
3593.504370598810965
 30
0.0
 40
5.4000000000000004
 50
179.9999999999652971
 51
269.9999999999604938
  0
LINE
  5
2892
  8
TOP-CUT-INSIDE_18MM
 10
633.9854731912032548
 20
3588.1043705988117836
 30
0.0
 11
642.9854731911517547
 21
3588.1043705988099646
 31
0.0
  0
ARC
  5
2893
  8
TOP-CUT-INSIDE_18MM
 10
642.9854731911525505
 20
3593.5043705988100555
 30
0.0
 40
5.4000000000000004
 50
269.9999999999616875
 51
359.9999999999653255
  0
LINE
  5
2894
  8
TOP-CUT-INSIDE_18MM
 10
648.3854731911526414
 20
3593.5043705988100555
 30
0.0
 11
648.3854731911576437
 21
3662.7043705988257898
 31
0.0
  0
ARC
  5
2895
  8
TOP-CUT-INSIDE_18MM
 10
642.9854731911575527
 20
3662.7043705988257898
 30
0.0
 40
5.4000000000000004
 50
359.9999999999653255
 51
89.9999999999701856
  0
LINE
  5
2896
  8
TOP-CUT-INSIDE_18MM
 10
642.9854731911575527
 20
3668.1043705988258807
 30
0.0
 11
633.9854731912093939
 21
3668.1043705988258807
 31
0.0
  0
ARC
  5
2897
  8
TOP-CUT-INSIDE_18MM
 10
633.9854731912093939
 20
3662.7043705988257898
 30
0.0
 40
5.4000000000000004
 50
89.9999999999701714
 51
179.9999999999652971
  0
ENDBLK
  5
2899
  8
0
  0
BLOCK
  8
0
  2
*U25
 70
     1
 10
0.0
 20
0.0
 30
0.0
  3
*U25
  1

  0
LINE
  5
289B
  8
TOP-POCKET-INSIDE_09MM
 10
642.9854731911459567
 20
3934.6043705988208785
 30
0.0
 11
642.9854731912546413
 21
3321.6043705988208785
 31
0.0
210
0.0
220
0.0
230
-1.0
  0
ARC
  5
289C
  8
TOP-POCKET-INSIDE_09MM
 10
-639.4854731912546413
 20
3321.604370598819969
 30
0.0
 40
3.5
210
0.0
220
0.0
230
-1.0
 50
179.9999999999926104
 51
270.0
  0
LINE
  5
289D
  8
TOP-POCKET-INSIDE_09MM
 10
639.4854731912546413
 20
3318.104370598819969
 30
0.0
 11
637.4854731912546413
 21
3318.104370598819969
 31
0.0
210
0.0
220
0.0
230
-1.0
  0
ARC
  5
289E
  8
TOP-POCKET-INSIDE_09MM
 10
-637.4854731912546413
 20
3321.604370598819969
 30
0.0
 40
3.5
210
0.0
220
0.0
230
-1.0
 50
270.0
 51
359.9999999999924967
  0
LINE
  5
289F
  8
TOP-POCKET-INSIDE_09MM
 10
633.9854731912546413
 20
3321.604370598819969
 30
0.0
 11
633.9854731911460703
 21
3934.60437059881815
 31
0.0
210
0.0
220
0.0
230
-1.0
  0
ARC
  5
28A0
  8
TOP-POCKET-INSIDE_09MM
 10
-637.4854731911460703
 20
3934.6043705988190595
 30
0.0
 40
3.5
210
0.0
220
0.0
230
-1.0
 50
359.9999999999852207
 51
89.9999999999590727
  0
LINE
  5
28A1
  8
TOP-POCKET-INSIDE_09MM
 10
637.4854731911434556
 20
3938.10437059881815
 30
0.0
 11
639.4854731911434556
 21
3938.104370598819969
 31
0.0
210
0.0
220
0.0
230
-1.0
  0
ARC
  5
28A2
  8
TOP-POCKET-INSIDE_09MM
 10
-639.4854731911459567
 20
3934.604370598819969
 30
0.0
 40
3.5
210
0.0
220
0.0
230
-1.0
 50
89.9999999999590443
 51
179.9999999999926104
  0
ENDBLK
  5
28A4
  8
0
  0
BLOCK
  8
0
  2
*U26
 70
     1
 10
0.0
 20
0.0
 30
0.0
  3
*U26
  1

  0
LINE
  5
28A6
  8
TOP-CUT-INSIDE_18MM
 10
628.585473191209303
 20
3662.7043705988239708
 30
0.0
 11
628.5854731912040734
 21
3593.5043705988100555
 31
0.0
  0
ARC
  5
28A7
  8
TOP-CUT-INSIDE_18MM
 10
633.9854731912041643
 20
3593.5043705988100555
 30
0.0
 40
5.4000000000000004
 50
179.999999999970214
 51
269.9999999999604938
  0
LINE
  5
28A8
  8
TOP-CUT-INSIDE_18MM
 10
633.9854731912032548
 20
3588.1043705988090551
 30
0.0
 11
642.9854731911517547
 21
3588.1043705988081456
 31
0.0
  0
ARC
  5
28A9
  8
TOP-CUT-INSIDE_18MM
 10
642.9854731911525505
 20
3593.5043705988068723
 30
0.0
 40
5.4000000000000004
 50
269.9999999999616875
 51
359.999999999970214
  0
LINE
  5
28AA
  8
TOP-CUT-INSIDE_18MM
 10
648.3854731911525278
 20
3593.5043705988068723
 30
0.0
 11
648.3854731911576437
 21
3662.7043705988230613
 31
0.0
  0
ARC
  5
28AB
  8
TOP-CUT-INSIDE_18MM
 10
642.9854731911575527
 20
3662.7043705988239708
 30
0.0
 40
5.4000000000000004
 50
359.9999999999653255
 51
89.9999999999701856
  0
LINE
  5
28AC
  8
TOP-CUT-INSIDE_18MM
 10
642.9854731911575527
 20
3668.1043705988240617
 30
0.0
 11
633.9854731912091665
 21
3668.1043705988240617
 31
0.0
  0
ARC
  5
28AD
  8
TOP-CUT-INSIDE_18MM
 10
633.9854731912091665
 20
3662.7043705988239708
 30
0.0
 40
5.4000000000000004
 50
89.9999999999701714
 51
179.9999999999652971
  0
ENDBLK
  5
28AF
  8
0
  0
BLOCK
  8
0
  2
*U27
 70
     1
 10
0.0
 20
0.0
 30
0.0
  3
*U27
  1

  0
ARC
  5
28B1
  8
TOP-CUT-INSIDE_18MM
 10
638.4854731911585759
 20
3857.6043705988158763
 30
-0.0000000000007308
 40
4.5
 50
179.9999999999758984
 51
359.999999999970214
  0
LINE
  5
28B2
  8
TOP-CUT-INSIDE_18MM
 10
642.9854731911585759
 20
3857.6043705988158763
 30
-0.0000000000007308
 11
642.9854731911563022
 21
3888.6043705988158763
 31
-0.0000000000007308
  0
ARC
  5
28B3
  8
TOP-CUT-INSIDE_18MM
 10
638.4854731911564159
 20
3888.6043705988158763
 30
-0.0000000000007308
 40
4.5
 50
359.999999999970214
 51
179.9999999999760121
  0
LINE
  5
28B4
  8
TOP-CUT-INSIDE_18MM
 10
633.9854731911564159
 20
3888.6043705988158763
 30
-0.0000000000007308
 11
633.9854731911585759
 21
3857.6043705988158763
 31
-0.0000000000007308
  0
ENDBLK
  5
28B6
  8
0
  0
BLOCK
  8
0
  2
*U28
 70
     1
 10
0.0
 20
0.0
 30
0.0
  3
*U28
  1

  0
ARC
  5
28B8
  8
TOP-CUT-INSIDE_18MM
 10
638.4854731911585759
 20
3782.6043705988167858
 30
-0.0000000000007308
 40
4.5
 50
179.9999999999758984
 51
359.999999999970214
  0
LINE
  5
28B9
  8
TOP-CUT-INSIDE_18MM
 10
642.9854731911585759
 20
3782.6043705988167858
 30
-0.0000000000007308
 11
642.9854731911563022
 21
3813.6043705988167858
 31
-0.0000000000007308
  0
ARC
  5
28BA
  8
TOP-CUT-INSIDE_18MM
 10
638.4854731911564159
 20
3813.6043705988167858
 30
-0.0000000000007308
 40
4.5
 50
359.999999999970214
 51
179.9999999999760121
  0
LINE
  5
28BB
  8
TOP-CUT-INSIDE_18MM
 10
633.9854731911564159
 20
3813.6043705988158763
 30
-0.0000000000007308
 11
633.9854731911585759
 21
3782.6043705988167858
 31
-0.0000000000007308
  0
ENDBLK
  5
28BD
  8
0
  0
BLOCK
  8
0
  2
*U29
 70
     1
 10
0.0
 20
0.0
 30
0.0
  3
*U29
  1

  0
ARC
  5
28BF
  8
TOP-CUT-INSIDE_18MM
 10
638.4854731911831323
 20
3707.6043705988231522
 30
0.0
 40
4.5
 50
179.9999999999758984
 51
359.999999999970214
  0
LINE
  5
28C0
  8
TOP-CUT-INSIDE_18MM
 10
642.9854731911831323
 20
3707.6043705988231522
 30
0.0
 11
642.9854731911809722
 21
3738.6043705988240617
 31
0.0
  0
ARC
  5
28C1
  8
TOP-CUT-INSIDE_18MM
 10
638.4854731911809722
 20
3738.6043705988240617
 30
0.0
 40
4.5
 50
359.999999999970214
 51
179.9999999999760121
  0
LINE
  5
28C2
  8
TOP-CUT-INSIDE_18MM
 10
633.9854731911809722
 20
3738.6043705988240617
 30
0.0
 11
633.9854731911831323
 21
3707.6043705988231522
 31
0.0
  0
ENDBLK
  5
28C4
  8
0
  0
BLOCK
  8
0
  2
*U30
 70
     1
 10
0.0
 20
0.0
 30
0.0
  3
*U30
  1

  0
ARC
  5
28C6
  8
TOP-CUT-INSIDE_18MM
 10
-638.4854731911585759
 20
3398.6043705988140573
 30
0.0000000000007308
 40
4.5
210
0.0
220
0.0
230
-1.0
 50
359.9999999999760121
 51
179.999999999970214
  0
LINE
  5
28C7
  8
TOP-CUT-INSIDE_18MM
 10
642.9854731911585759
 20
3398.6043705988140573
 30
-0.0000000000007308
 11
642.9854731911563022
 21
3367.6043705988140573
 31
-0.0000000000007308
210
0.0
220
0.0
230
-1.0
  0
ARC
  5
28C8
  8
TOP-CUT-INSIDE_18MM
 10
-638.4854731911564159
 20
3367.6043705988140573
 30
0.0000000000007308
 40
4.5
210
0.0
220
0.0
230
-1.0
 50
179.999999999970214
 51
359.9999999999760121
  0
LINE
  5
28C9
  8
TOP-CUT-INSIDE_18MM
 10
633.9854731911564159
 20
3367.6043705988149668
 30
-0.0000000000007308
 11
633.9854731911585759
 21
3398.6043705988149668
 31
-0.0000000000007308
210
0.0
220
0.0
230
-1.0
  0
ENDBLK
  5
28CB
  8
0
  0
BLOCK
  8
0
  2
*U31
 70
     1
 10
0.0
 20
0.0
 30
0.0
  3
*U31
  1

  0
ARC
  5
28CD
  8
TOP-CUT-INSIDE_18MM
 10
-638.4854731911585759
 20
3473.6043705988149668
 30
0.0000000000007308
 40
4.5
210
0.0
220
0.0
230
-1.0
 50
359.9999999999760121
 51
179.999999999970214
  0
LINE
  5
28CE
  8
TOP-CUT-INSIDE_18MM
 10
642.9854731911585759
 20
3473.6043705988149668
 30
-0.0000000000007308
 11
642.9854731911563022
 21
3442.6043705988140573
 31
-0.0000000000007308
210
0.0
220
0.0
230
-1.0
  0
ARC
  5
28CF
  8
TOP-CUT-INSIDE_18MM
 10
-638.4854731911564159
 20
3442.6043705988140573
 30
0.0000000000007308
 40
4.5
210
0.0
220
0.0
230
-1.0
 50
179.999999999970214
 51
359.9999999999760121
  0
LINE
  5
28D0
  8
TOP-CUT-INSIDE_18MM
 10
633.9854731911564159
 20
3442.6043705988149668
 30
-0.0000000000007308
 11
633.9854731911585759
 21
3473.6043705988149668
 31
-0.0000000000007308
210
0.0
220
0.0
230
-1.0
  0
ENDBLK
  5
28D2
  8
0
  0
BLOCK
  8
0
  2
*U32
 70
     1
 10
0.0
 20
0.0
 30
0.0
  3
*U32
  1

  0
ARC
  5
28D4
  8
TOP-CUT-INSIDE_18MM
 10
-638.4854731911831323
 20
3548.6043705988081456
 30
0.0
 40
4.5
210
0.0
220
0.0
230
-1.0
 50
359.9999999999760121
 51
179.999999999970214
  0
LINE
  5
28D5
  8
TOP-CUT-INSIDE_18MM
 10
642.9854731911831323
 20
3548.6043705988081456
 30
0.0
 11
642.9854731911809722
 21
3517.6043705988067813
 31
0.0
210
0.0
220
0.0
230
-1.0
  0
ARC
  5
28D6
  8
TOP-CUT-INSIDE_18MM
 10
-638.4854731911809722
 20
3517.6043705988067813
 30
0.0
 40
4.5
210
0.0
220
0.0
230
-1.0
 50
179.999999999970214
 51
359.9999999999760121
  0
LINE
  5
28D7
  8
TOP-CUT-INSIDE_18MM
 10
633.9854731911809722
 20
3517.6043705988081456
 30
0.0
 11
633.9854731911831323
 21
3548.6043705988081456
 31
0.0
210
0.0
220
0.0
230
-1.0
  0
ENDBLK
  5
28D9
  8
0
  0
BLOCK
  8
0
  2
*U33
 70
     1
 10
0.0
 20
0.0
 30
0.0
  3
*U33
  1

  0
LINE
  5
28DB
  8
TOP-POCKET-INSIDE_14MM
 10
3829.0833311898109059
 20
3934.6043705988140573
 30
0.0
 11
3829.0833311899191358
 21
3321.6043705988149668
 31
0.0
210
0.0
220
0.0
230
-1.0
  0
ARC
  5
28DC
  8
TOP-POCKET-INSIDE_14MM
 10
-3825.5833311899200453
 20
3321.6043705988140573
 30
0.0
 40
3.5
210
0.0
220
0.0
230
-1.0
 50
179.9999999999888018
 51
269.999999999985107
  0
LINE
  5
28DD
  8
TOP-POCKET-INSIDE_14MM
 10
3825.5833311899200453
 20
3318.1043705988140573
 30
0.0
 11
3814.5833311899209548
 21
3318.1043705988117836
 31
0.0
210
0.0
220
0.0
230
-1.0
  0
ARC
  5
28DE
  8
TOP-POCKET-INSIDE_14MM
 10
-3814.5833311899191358
 20
3321.6043705988108741
 30
0.0
 40
3.5
210
0.0
220
0.0
230
-1.0
 50
269.999999999985107
 51
359.9999999999924967
  0
LINE
  5
28DF
  8
TOP-POCKET-INSIDE_14MM
 10
3811.0833311899191358
 20
3321.6043705988108741
 30
0.0
 11
3811.0833311898109059
 21
3934.6043705988099646
 31
0.0
210
0.0
220
0.0
230
-1.0
  0
ARC
  5
28E0
  8
TOP-POCKET-INSIDE_14MM
 10
-3814.5833311898109059
 20
3934.6043705988108741
 30
0.0
 40
3.5
210
0.0
220
0.0
230
-1.0
 50
359.9999999999852207
 51
89.9999999999869686
  0
LINE
  5
28E1
  8
TOP-POCKET-INSIDE_14MM
 10
3814.5833311898099964
 20
3938.1043705988108741
 30
0.0
 11
3825.5833311898099964
 21
3938.1043705988131478
 31
0.0
210
0.0
220
0.0
230
-1.0
  0
ARC
  5
28E2
  8
TOP-POCKET-INSIDE_14MM
 10
-3825.5833311898109059
 20
3934.6043705988131478
 30
0.0
 40
3.5
210
0.0
220
0.0
230
-1.0
 50
89.9999999999869686
 51
179.999999999985107
  0
ENDBLK
  5
28E4
  8
0
  0
BLOCK
  8
0
  2
*U34
 70
     1
 10
0.0
 20
0.0
 30
0.0
  3
*U34
  1

  0
LINE
  5
28E6
  8
TOP-POCKET-INSIDE_14MM
 10
3927.8876151924418991
 20
3934.6043705988267902
 30
0.0
 11
3927.8876151925610429
 21
3321.604370598829064
 31
0.0
  0
ARC
  5
28E7
  8
TOP-POCKET-INSIDE_14MM
 10
3931.3876151925610429
 20
3321.604370598829064
 30
0.0
 40
3.5
 50
180.0000000000073896
 51
270.0
  0
LINE
  5
28E8
  8
TOP-POCKET-INSIDE_14MM
 10
3931.3876151925610429
 20
3318.1043705988299735
 30
0.0
 11
3942.3876151925601334
 21
3318.1043705988299735
 31
0.0
  0
ARC
  5
28E9
  8
TOP-POCKET-INSIDE_14MM
 10
3942.3876151925601334
 20
3321.604370598829064
 30
0.0
 40
3.5
 50
270.0
 51
0.0000000000148681
  0
LINE
  5
28EA
  8
TOP-POCKET-INSIDE_14MM
 10
3945.8876151925610429
 20
3321.6043705988299735
 30
0.0
 11
3945.8876151924418991
 21
3934.6043705988281545
 31
0.0
  0
ARC
  5
28EB
  8
TOP-POCKET-INSIDE_14MM
 10
3942.3876151924418991
 20
3934.6043705988281545
 30
0.0
 40
3.5
 50
0.0000000000074425
 51
90.0
  0
LINE
  5
28EC
  8
TOP-POCKET-INSIDE_14MM
 10
3942.3876151924418991
 20
3938.1043705988281545
 30
0.0
 11
3931.3876151924418991
 21
3938.1043705988281545
 31
0.0
  0
ARC
  5
28ED
  8
TOP-POCKET-INSIDE_14MM
 10
3931.3876151924418991
 20
3934.6043705988281545
 30
0.0
 40
3.5
 50
90.0
 51
180.0000000000073896
  0
ENDBLK
  5
28EF
  8
0
  0
BLOCK
  8
0
  2
*U35
 70
     1
 10
0.0
 20
0.0
 30
0.0
  3
*U35
  1

  0
LINE
  5
28F1
  8
TOP-CUT-OUTSIDE_18MM
 10
3942.6876151924411715
 20
3928.1043705988267902
 30
0.0
 11
3814.2833311898129978
 21
3928.1043705988108741
 31
0.0
  0
LINE
  5
28F2
  8
TOP-CUT-OUTSIDE_18MM
 10
3814.2833311898129978
 20
3928.1043705988108741
 30
0.0
 11
3814.2833311898361899
 21
3789.1043705988167858
 31
0.0
  0
ARC
  5
28F3
  8
TOP-CUT-OUTSIDE_18MM
 10
3818.7833311898361899
 20
3789.10437059881815
 30
0.0
 40
4.5
 50
179.9999999999760121
 51
269.999999999970214
  0
LINE
  5
28F4
  8
TOP-CUT-OUTSIDE_18MM
 10
3818.7833311898361899
 20
3784.60437059881815
 30
0.0
 11
3824.5833311898481952
 21
3784.60437059881815
 31
0.0
  0
ARC
  5
28F5
  8
TOP-CUT-OUTSIDE_18MM
 10
3824.5833311898481952
 20
3780.1043705988190595
 30
0.0
 40
4.5
 50
359.9999999999818101
 51
89.9999999999701856
  0
LINE
  5
28F6
  8
TOP-CUT-OUTSIDE_18MM
 10
3829.0833311898481952
 20
3780.1043705988190595
 30
0.0
 11
3829.0833311899082219
 21
3476.1043705988190595
 31
0.0
  0
ARC
  5
28F7
  8
TOP-CUT-OUTSIDE_18MM
 10
3824.5833311899082219
 20
3476.1043705988190595
 30
0.0
 40
4.5
 50
269.9999999999773763
 51
359.9999999999818101
  0
LINE
  5
28F8
  8
TOP-CUT-OUTSIDE_18MM
 10
3824.5833311899082219
 20
3471.60437059881815
 30
0.0
 11
3818.783331189897126
 21
3471.60437059881815
 31
0.0
  0
ARC
  5
28F9
  8
TOP-CUT-OUTSIDE_18MM
 10
3818.7833311898980355
 20
3467.10437059881815
 30
0.0
 40
4.5
 50
89.999999999977419
 51
179.999999999970214
  0
LINE
  5
28FA
  8
TOP-CUT-OUTSIDE_18MM
 10
3814.2833311898980355
 20
3467.10437059881815
 30
0.0
 11
3814.2833311899130422
 21
3328.1043705988140573
 31
0.0
  0
LINE
  5
28FB
  8
TOP-CUT-OUTSIDE_18MM
 10
3814.2833311899130422
 20
3328.1043705988140573
 30
0.0
 11
3942.6876151925471277
 21
3328.1043705988281545
 31
0.0
  0
LINE
  5
28FC
  8
TOP-CUT-OUTSIDE_18MM
 10
3942.6876151925471277
 20
3328.1043705988281545
 30
0.0
 11
3942.6876151925289378
 21
3467.1043705988190595
 31
0.0
  0
ARC
  5
28FD
  8
TOP-CUT-OUTSIDE_18MM
 10
3938.1876151925289378
 20
3467.10437059881815
 30
0.0
 40
4.5
 50
359.9999999999818101
 51
89.9999999999701856
  0
LINE
  5
28FE
  8
TOP-CUT-OUTSIDE_18MM
 10
3938.1876151925289378
 20
3471.60437059881815
 30
0.0
 11
3932.3876151925160229
 21
3471.60437059881815
 31
0.0
  0
ARC
  5
28FF
  8
TOP-CUT-OUTSIDE_18MM
 10
3932.3876151925160229
 20
3476.10437059881815
 30
0.0
 40
4.5
 50
179.9999999999816964
 51
269.999999999970214
  0
LINE
  5
2900
  8
TOP-CUT-OUTSIDE_18MM
 10
3927.8876151925160229
 20
3476.1043705988167858
 30
0.0
 11
3927.8876151924441729
 21
3780.1043705988190595
 31
0.0
  0
ARC
  5
2901
  8
TOP-CUT-OUTSIDE_18MM
 10
3932.3876151924428086
 20
3780.104370598819969
 30
0.0
 40
4.5
 50
89.999999999983217
 51
179.9999999999874944
  0
LINE
  5
2902
  8
TOP-CUT-OUTSIDE_18MM
 10
3932.3876151924428086
 20
3784.6043705988190595
 30
0.0
 11
3938.187615192454814
 21
3784.6043705988208785
 31
0.0
  0
ARC
  5
2903
  8
TOP-CUT-OUTSIDE_18MM
 10
3938.1876151924539045
 20
3789.1043705988208785
 30
0.0
 40
4.5
 50
269.9999999999845954
 51
359.9999999999760121
  0
LINE
  5
2904
  8
TOP-CUT-OUTSIDE_18MM
 10
3942.6876151924539045
 20
3789.104370598821788
 30
0.0
 11
3942.6876151924411715
 21
3928.1043705988267902
 31
0.0
  0
ENDBLK
  5
2906
  8
0
  0
BLOCK
  8
0
  2
*U36
 70
     1
 10
0.0
 20
0.0
 30
0.0
  3
*U36
  1

  0
LINE
  5
2908
  8
TOP-CUT-INSIDE_18MM
 10
3868.5854731912081661
 20
3662.7043705988257898
 30
0.0
 11
3868.5854731912031639
 21
3593.504370598810965
 31
0.0
  0
ARC
  5
2909
  8
TOP-CUT-INSIDE_18MM
 10
3873.9854731912028001
 20
3593.504370598810965
 30
0.0
 40
5.4000000000000004
 50
179.9999999999652971
 51
269.9999999999604938
  0
LINE
  5
290A
  8
TOP-CUT-INSIDE_18MM
 10
3873.9854731912018906
 20
3588.1043705988117836
 30
0.0
 11
3882.9854731911500494
 21
3588.1043705988090551
 31
0.0
  0
ARC
  5
290B
  8
TOP-CUT-INSIDE_18MM
 10
3882.9854731911509589
 20
3593.5043705988100555
 30
0.0
 40
5.4000000000000004
 50
269.9999999999616875
 51
359.9999999999653255
  0
LINE
  5
290C
  8
TOP-CUT-INSIDE_18MM
 10
3888.3854731911519593
 20
3593.504370598809146
 30
0.0
 11
3888.3854731911560521
 21
3662.7043705988248803
 31
0.0
  0
ARC
  5
290D
  8
TOP-CUT-INSIDE_18MM
 10
3882.9854731911568706
 20
3662.7043705988257898
 30
0.0
 40
5.4000000000000004
 50
359.9999999999653255
 51
89.9999999999701856
  0
LINE
  5
290E
  8
TOP-CUT-INSIDE_18MM
 10
3882.9854731911568706
 20
3668.1043705988249712
 30
0.0
 11
3873.9854731912078023
 21
3668.1043705988249712
 31
0.0
  0
ARC
  5
290F
  8
TOP-CUT-INSIDE_18MM
 10
3873.9854731912078023
 20
3662.7043705988257898
 30
0.0
 40
5.4000000000000004
 50
89.9999999999701714
 51
179.9999999999652971
  0
ENDBLK
  5
2911
  8
0
  0
BLOCK
  8
0
  2
*U37
 70
     1
 10
0.0
 20
0.0
 30
0.0
  3
*U37
  1

  0
LINE
  5
2913
  8
TOP-POCKET-INSIDE_09MM
 10
3882.9854731911441377
 20
3934.604370598819969
 30
0.0
 11
3882.9854731912528223
 21
3321.604370598819969
 31
0.0
210
0.0
220
0.0
230
-1.0
  0
ARC
  5
2914
  8
TOP-POCKET-INSIDE_09MM
 10
-3879.4854731912541865
 20
3321.604370598819969
 30
0.0
 40
3.5
210
0.0
220
0.0
230
-1.0
 50
179.9999999999926104
 51
270.0
  0
LINE
  5
2915
  8
TOP-POCKET-INSIDE_09MM
 10
3879.4854731912541865
 20
3318.104370598819969
 30
0.0
 11
3877.4854731912528223
 21
3318.104370598819969
 31
0.0
210
0.0
220
0.0
230
-1.0
  0
ARC
  5
2916
  8
TOP-POCKET-INSIDE_09MM
 10
-3877.4854731912528223
 20
3321.604370598819969
 30
0.0
 40
3.5
210
0.0
220
0.0
230
-1.0
 50
270.0
 51
359.9999999999924967
  0
LINE
  5
2917
  8
TOP-POCKET-INSIDE_09MM
 10
3873.9854731912541865
 20
3321.6043705988190595
 30
0.0
 11
3873.9854731911450472
 21
3934.6043705988167858
 31
0.0
210
0.0
220
0.0
230
-1.0
  0
ARC
  5
2918
  8
TOP-POCKET-INSIDE_09MM
 10
-3877.4854731911450472
 20
3934.60437059881815
 30
0.0
 40
3.5
210
0.0
220
0.0
230
-1.0
 50
359.9999999999852207
 51
89.9999999999590727
  0
LINE
  5
2919
  8
TOP-POCKET-INSIDE_09MM
 10
3877.4854731911427734
 20
3938.10437059881815
 30
0.0
 11
3879.4854731911418639
 21
3938.104370598819969
 31
0.0
210
0.0
220
0.0
230
-1.0
  0
ARC
  5
291A
  8
TOP-POCKET-INSIDE_09MM
 10
-3879.4854731911450472
 20
3934.6043705988190595
 30
0.0
 40
3.5
210
0.0
220
0.0
230
-1.0
 50
89.9999999999590443
 51
179.9999999999926104
  0
ENDBLK
  5
291C
  8
0
  0
BLOCK
  8
0
  2
*U38
 70
     1
 10
0.0
 20
0.0
 30
0.0
  3
*U38
  1

  0
LINE
  5
291E
  8
TOP-CUT-INSIDE_18MM
 10
3868.5854731912081661
 20
3662.7043705988239708
 30
0.0
 11
3868.5854731912031639
 21
3593.504370598809146
 31
0.0
  0
ARC
  5
291F
  8
TOP-CUT-INSIDE_18MM
 10
3873.9854731912028001
 20
3593.504370598809146
 30
0.0
 40
5.4000000000000004
 50
179.999999999970214
 51
269.9999999999604938
  0
LINE
  5
2920
  8
TOP-CUT-INSIDE_18MM
 10
3873.9854731912018906
 20
3588.1043705988081456
 30
0.0
 11
3882.9854731911500494
 21
3588.1043705988067813
 31
0.0
  0
ARC
  5
2921
  8
TOP-CUT-INSIDE_18MM
 10
3882.9854731911509589
 20
3593.5043705988068723
 30
0.0
 40
5.4000000000000004
 50
269.9999999999616875
 51
359.999999999970214
  0
LINE
  5
2922
  8
TOP-CUT-INSIDE_18MM
 10
3888.3854731911510498
 20
3593.5043705988068723
 30
0.0
 11
3888.3854731911560521
 21
3662.7043705988230613
 31
0.0
  0
ARC
  5
2923
  8
TOP-CUT-INSIDE_18MM
 10
3882.9854731911568706
 20
3662.7043705988230613
 30
0.0
 40
5.4000000000000004
 50
359.9999999999653255
 51
89.9999999999701856
  0
LINE
  5
2924
  8
TOP-CUT-INSIDE_18MM
 10
3882.9854731911568706
 20
3668.1043705988231522
 30
0.0
 11
3873.9854731912078023
 21
3668.1043705988231522
 31
0.0
  0
ARC
  5
2925
  8
TOP-CUT-INSIDE_18MM
 10
3873.9854731912078023
 20
3662.7043705988230613
 30
0.0
 40
5.4000000000000004
 50
89.9999999999701714
 51
179.9999999999652971
  0
ENDBLK
  5
2927
  8
0
  0
BLOCK
  8
0
  2
*U39
 70
     1
 10
0.0
 20
0.0
 30
0.0
  3
*U39
  1

  0
ARC
  5
2929
  8
TOP-CUT-INSIDE_18MM
 10
3878.4854731911568706
 20
3857.6043705988158763
 30
-0.0000000000007308
 40
4.5
 50
179.9999999999758984
 51
359.999999999970214
  0
LINE
  5
292A
  8
TOP-CUT-INSIDE_18MM
 10
3882.9854731911568706
 20
3857.6043705988158763
 30
-0.0000000000007308
 11
3882.9854731911550516
 21
3888.6043705988158763
 31
-0.0000000000007308
  0
ARC
  5
292B
  8
TOP-CUT-INSIDE_18MM
 10
3878.4854731911550516
 20
3888.6043705988158763
 30
-0.0000000000007308
 40
4.5
 50
359.999999999970214
 51
179.9999999999760121
  0
LINE
  5
292C
  8
TOP-CUT-INSIDE_18MM
 10
3873.9854731911550516
 20
3888.6043705988158763
 30
-0.0000000000007308
 11
3873.9854731911568706
 21
3857.6043705988158763
 31
-0.0000000000007308
  0
ENDBLK
  5
292E
  8
0
  0
BLOCK
  8
0
  2
*U40
 70
     1
 10
0.0
 20
0.0
 30
0.0
  3
*U40
  1

  0
ARC
  5
2930
  8
TOP-CUT-INSIDE_18MM
 10
3878.4854731911568706
 20
3782.6043705988167858
 30
-0.0000000000007308
 40
4.5
 50
179.9999999999758984
 51
359.999999999970214
  0
LINE
  5
2931
  8
TOP-CUT-INSIDE_18MM
 10
3882.9854731911568706
 20
3782.6043705988167858
 30
-0.0000000000007308
 11
3882.9854731911550516
 21
3813.6043705988158763
 31
-0.0000000000007308
  0
ARC
  5
2932
  8
TOP-CUT-INSIDE_18MM
 10
3878.4854731911550516
 20
3813.6043705988158763
 30
-0.0000000000007308
 40
4.5
 50
359.999999999970214
 51
179.9999999999760121
  0
LINE
  5
2933
  8
TOP-CUT-INSIDE_18MM
 10
3873.9854731911550516
 20
3813.6043705988158763
 30
-0.0000000000007308
 11
3873.9854731911568706
 21
3782.6043705988158763
 31
-0.0000000000007308
  0
ENDBLK
  5
2935
  8
0
  0
BLOCK
  8
0
  2
*U41
 70
     1
 10
0.0
 20
0.0
 30
0.0
  3
*U41
  1

  0
ARC
  5
2937
  8
TOP-CUT-INSIDE_18MM
 10
3878.4854731911818817
 20
3707.6043705988231522
 30
0.0
 40
4.5
 50
179.9999999999758984
 51
359.999999999970214
  0
LINE
  5
2938
  8
TOP-CUT-INSIDE_18MM
 10
3882.9854731911818817
 20
3707.6043705988231522
 30
0.0
 11
3882.9854731911800627
 21
3738.6043705988240617
 31
0.0
  0
ARC
  5
2939
  8
TOP-CUT-INSIDE_18MM
 10
3878.4854731911800627
 20
3738.6043705988240617
 30
0.0
 40
4.5
 50
359.999999999970214
 51
179.9999999999760121
  0
LINE
  5
293A
  8
TOP-CUT-INSIDE_18MM
 10
3873.9854731911800627
 20
3738.6043705988231522
 30
0.0
 11
3873.9854731911818817
 21
3707.6043705988231522
 31
0.0
  0
ENDBLK
  5
293C
  8
0
  0
BLOCK
  8
0
  2
*U42
 70
     1
 10
0.0
 20
0.0
 30
0.0
  3
*U42
  1

  0
ARC
  5
293E
  8
TOP-CUT-INSIDE_18MM
 10
-3878.4854731911568706
 20
3398.6043705988140573
 30
0.0000000000007308
 40
4.5
210
0.0
220
0.0
230
-1.0
 50
359.9999999999760121
 51
179.999999999970214
  0
LINE
  5
293F
  8
TOP-CUT-INSIDE_18MM
 10
3882.9854731911568706
 20
3398.6043705988140573
 30
-0.0000000000007308
 11
3882.9854731911550516
 21
3367.6043705988140573
 31
-0.0000000000007308
210
0.0
220
0.0
230
-1.0
  0
ARC
  5
2940
  8
TOP-CUT-INSIDE_18MM
 10
-3878.4854731911550516
 20
3367.6043705988140573
 30
0.0000000000007308
 40
4.5
210
0.0
220
0.0
230
-1.0
 50
179.999999999970214
 51
359.9999999999760121
  0
LINE
  5
2941
  8
TOP-CUT-INSIDE_18MM
 10
3873.9854731911550516
 20
3367.6043705988140573
 30
-0.0000000000007308
 11
3873.9854731911568706
 21
3398.6043705988140573
 31
-0.0000000000007308
210
0.0
220
0.0
230
-1.0
  0
ENDBLK
  5
2943
  8
0
  0
BLOCK
  8
0
  2
*U43
 70
     1
 10
0.0
 20
0.0
 30
0.0
  3
*U43
  1

  0
ARC
  5
2945
  8
TOP-CUT-INSIDE_18MM
 10
-3878.4854731911568706
 20
3473.6043705988149668
 30
0.0000000000007308
 40
4.5
210
0.0
220
0.0
230
-1.0
 50
359.9999999999760121
 51
179.999999999970214
  0
LINE
  5
2946
  8
TOP-CUT-INSIDE_18MM
 10
3882.9854731911568706
 20
3473.6043705988149668
 30
-0.0000000000007308
 11
3882.9854731911550516
 21
3442.6043705988140573
 31
-0.0000000000007308
210
0.0
220
0.0
230
-1.0
  0
ARC
  5
2947
  8
TOP-CUT-INSIDE_18MM
 10
-3878.4854731911550516
 20
3442.6043705988140573
 30
0.0000000000007308
 40
4.5
210
0.0
220
0.0
230
-1.0
 50
179.999999999970214
 51
359.9999999999760121
  0
LINE
  5
2948
  8
TOP-CUT-INSIDE_18MM
 10
3873.9854731911550516
 20
3442.6043705988140573
 30
-0.0000000000007308
 11
3873.9854731911568706
 21
3473.6043705988149668
 31
-0.0000000000007308
210
0.0
220
0.0
230
-1.0
  0
ENDBLK
  5
294A
  8
0
  0
BLOCK
  8
0
  2
*U44
 70
     1
 10
0.0
 20
0.0
 30
0.0
  3
*U44
  1

  0
ARC
  5
294C
  8
TOP-CUT-INSIDE_18MM
 10
-3878.4854731911818817
 20
3548.6043705988067813
 30
0.0
 40
4.5
210
0.0
220
0.0
230
-1.0
 50
359.9999999999760121
 51
179.999999999970214
  0
LINE
  5
294D
  8
TOP-CUT-INSIDE_18MM
 10
3882.9854731911818817
 20
3548.6043705988067813
 30
0.0
 11
3882.9854731911800627
 21
3517.6043705988067813
 31
0.0
210
0.0
220
0.0
230
-1.0
  0
ARC
  5
294E
  8
TOP-CUT-INSIDE_18MM
 10
-3878.4854731911800627
 20
3517.6043705988067813
 30
0.0
 40
4.5
210
0.0
220
0.0
230
-1.0
 50
179.999999999970214
 51
359.9999999999760121
  0
LINE
  5
294F
  8
TOP-CUT-INSIDE_18MM
 10
3873.9854731911800627
 20
3517.6043705988067813
 30
0.0
 11
3873.9854731911818817
 21
3548.6043705988081456
 31
0.0
210
0.0
220
0.0
230
-1.0
  0
ENDBLK
  5
2951
  8
0
  0
ENDSEC
  0
SECTION
  2
ENTITIES
  0
POLYLINE
  5
429
  8
00-NOPRINT_TEXT
 66
     1
 10
0.0
 20
0.0
 30
0.0
 70
   128
  0
VERTEX
  5
2617
  8
00-NOPRINT_TEXT
 10
-0.0000080382149577
 20
-299.9999964370350085
 30
0.0
  0
VERTEX
  5
2618
  8
00-NOPRINT_TEXT
 10
-0.0000080382142187
 20
0.0000035629665263
 30
0.0
  0
VERTEX
  5
2619
  8
00-NOPRINT_TEXT
 10
-300.0000080382142187
 20
0.0000035629676063
 30
0.0
  0
SEQEND
  5
261A
  8
00-NOPRINT_TEXT
  0
POLYLINE
  5
42A
  8
00-NOPRINT_TEXT
 66
     1
 10
0.0
 20
0.0
 30
0.0
 70
   129
  0
VERTEX
  5
261B
  8
00-NOPRINT_TEXT
 10
-0.0000079530767607
 20
4158.0000036816436477
 30
0.0
  0
VERTEX
  5
261C
  8
00-NOPRINT_TEXT
 10
5879.9999919617848718
 20
4158.0000035629673221
 30
0.0
  0
VERTEX
  5
261D
  8
00-NOPRINT_TEXT
 10
5879.9999918780185908
 20
0.0000034429233438
 30
0.0
  0
VERTEX
  5
261E
  8
00-NOPRINT_TEXT
 10
-0.0000080382142187
 20
0.0000035629668673
 30
0.0
  0
SEQEND
  5
261F
  8
00-NOPRINT_TEXT
  0
POLYLINE
  5
42B
  8
00_NOPRINT_TOLERANCE
 66
     1
 10
0.0
 20
0.0
 30
0.0
 70
   129
  0
VERTEX
  5
2620
  8
00_NOPRINT_TOLERANCE
 10
209.9999919617858097
 20
3958.0000035629668673
 30
0.0
  0
VERTEX
  5
2621
  8
00_NOPRINT_TOLERANCE
 10
1429.9999919617860087
 20
3958.0000035629668673
 30
0.0
  0
VERTEX
  5
2622
  8
00_NOPRINT_TOLERANCE
 10
1429.9999919617850992
 20
1518.0000035629680042
 30
0.0
  0
VERTEX
  5
2623
  8
00_NOPRINT_TOLERANCE
 10
209.9999919617850992
 20
1518.0000035629680042
 30
0.0
  0
SEQEND
  5
2624
  8
00_NOPRINT_TOLERANCE
  0
POLYLINE
  5
42C
  8
00_NOPRINT_TOLERANCE
 66
     1
 10
0.0
 20
0.0
 30
0.0
 70
   129
  0
VERTEX
  5
2625
  8
00_NOPRINT_TOLERANCE
 10
1829.9999919617860087
 20
3958.0000035629668673
 30
0.0
  0
VERTEX
  5
2626
  8
00_NOPRINT_TOLERANCE
 10
3049.9999919617848718
 20
3958.0000035629668673
 30
0.0
  0
VERTEX
  5
2627
  8
00_NOPRINT_TOLERANCE
 10
3049.9999919617848718
 20
1518.0000035629680042
 30
0.0
  0
VERTEX
  5
2628
  8
00_NOPRINT_TOLERANCE
 10
1829.9999919617839623
 20
1518.0000035629680042
 30
0.0
  0
SEQEND
  5
2629
  8
00_NOPRINT_TOLERANCE
  0
POLYLINE
  5
42D
  8
00_NOPRINT_TOLERANCE
 66
     1
 10
0.0
 20
0.0
 30
0.0
 70
   129
  0
VERTEX
  5
262A
  8
00_NOPRINT_TOLERANCE
 10
3449.9999919617839623
 20
3958.0000035629668673
 30
0.0
  0
VERTEX
  5
262B
  8
00_NOPRINT_TOLERANCE
 10
4669.9999919617848718
 20
3958.0000035629668673
 30
0.0
  0
VERTEX
  5
262C
  8
00_NOPRINT_TOLERANCE
 10
4669.9999919617848718
 20
1518.0000035629680042
 30
0.0
  0
VERTEX
  5
262D
  8
00_NOPRINT_TOLERANCE
 10
3449.9999919617839623
 20
1518.0000035629680042
 30
0.0
  0
SEQEND
  5
262E
  8
00_NOPRINT_TOLERANCE
  0
TEXT
  5
42E
  8
00-NOPRINT_TEXT
 62
     7
 10
3449.9999919613787824
 20
1217.4218676846790004
 30
0.0
 40
20.0
  1
SUMMARY TERMS AND CONDITIONS
 50
359.9999999988356194
  7
OD-SIMPLEX-20
 11
3449.9999919617857813
 21
1237.4218676846790004
 31
0.0
 73
     3
  0
TEXT
  5
42F
  8
00-NOPRINT_TEXT
 62
     7
 10
3449.9999919611750556
 20
1421.3199713536910167
 30
0.0
 40
30.0
  1
BOTH FACES
 50
359.9999999988356194
  7
OD-SIMPLEX-30
 11
3449.9999919617839623
 21
1451.3199713536910167
 31
0.0
 73
     3
  0
TEXT
  5
430
  8
00-NOPRINT_TEXT
 62
     7
 10
1829.9999919611759651
 20
1421.3199713536910167
 30
0.0
 40
30.0
  1
REVERSE FACE
 50
359.9999999988356194
  7
OD-SIMPLEX-30
 11
1829.9999919617860087
 21
1451.3199713536910167
 31
0.0
 73
     3
  0
TEXT
  5
431
  8
00-NOPRINT_TEXT
 62
     7
 10
209.9999919611755956
 20
1421.3199713536910167
 30
0.0
 40
30.0
  1
FRONT FACE
 50
359.9999999988356194
  7
OD-SIMPLEX-30
 11
209.9999919617852981
 21
1451.3199713536910167
 31
0.0
 73
     3
  0
TEXT
  5
432
  8
00-NOPRINT_TEXT
 62
     7
 10
1829.9999919613781003
 20
1217.4218676846790004
 30
0.0
 40
20.0
  1
FABRICATION GUIDELINES
 50
359.9999999988356194
  7
OD-SIMPLEX-20
 11
1829.9999919617839623
 21
1237.4218676846790004
 31
0.0
 73
     3
  0
TEXT
  5
433
  8
00-NOPRINT_TEXT
 62
     7
 10
209.9999919613788961
 20
1217.4218676846790004
 30
0.0
 40
20.0
  1
USING THIS DRAWING
 50
359.9999999988356194
  7
OD-SIMPLEX-20
 11
209.9999919617852981
 21
1237.4218676846790004
 31
0.0
 73
     3
  0
LINE
  5
435
  8
00_NOPRINT_TOLERANCE
 10
1629.9999919617860087
 20
1343.1924720806209734
 30
0.0
 11
1629.9999919617860087
 21
4008.0000035629659578
 31
0.0
  0
POLYLINE
  5
438
  8
BOARD_18MM-NOMINAL
 66
     1
 10
0.0
 20
0.0
 30
0.0
 70
   129
  0
VERTEX
  5
262F
  8
BOARD_18MM-NOMINAL
 10
209.999991961785696
 20
3958.0000035629668673
 30
0.0
  0
VERTEX
  5
2630
  8
BOARD_18MM-NOMINAL
 10
1429.9999919617860087
 20
3958.0000035629668673
 30
0.0
  0
VERTEX
  5
2631
  8
BOARD_18MM-NOMINAL
 10
1429.9999919617850992
 20
1518.0000035629670947
 30
0.0
  0
VERTEX
  5
2632
  8
BOARD_18MM-NOMINAL
 10
209.9999919617850139
 20
1518.0000035629680042
 30
0.0
  0
SEQEND
  5
2633
  8
BOARD_18MM-NOMINAL
  0
POLYLINE
  5
439
  8
BOARD_18MM-NOMINAL
 66
     1
 10
0.0
 20
0.0
 30
0.0
 70
   129
  0
VERTEX
  5
2634
  8
BOARD_18MM-NOMINAL
 10
1829.9999919617860087
 20
3958.0000035629668673
 30
0.0
  0
VERTEX
  5
2635
  8
BOARD_18MM-NOMINAL
 10
3049.9999919617848718
 20
3958.0000035629668673
 30
0.0
  0
VERTEX
  5
2636
  8
BOARD_18MM-NOMINAL
 10
3049.9999919617848718
 20
1518.0000035629670947
 30
0.0
  0
VERTEX
  5
2637
  8
BOARD_18MM-NOMINAL
 10
1829.9999919617839623
 20
1518.0000035629680042
 30
0.0
  0
SEQEND
  5
2638
  8
BOARD_18MM-NOMINAL
  0
POLYLINE
  5
43A
  8
BOARD_18MM-NOMINAL
 66
     1
 10
0.0
 20
0.0
 30
0.0
 70
   129
  0
VERTEX
  5
2639
  8
BOARD_18MM-NOMINAL
 10
3449.9999919617857813
 20
3958.0000035629668673
 30
0.0
  0
VERTEX
  5
263A
  8
BOARD_18MM-NOMINAL
 10
4669.9999919617848718
 20
3958.0000035629668673
 30
0.0
  0
VERTEX
  5
263B
  8
BOARD_18MM-NOMINAL
 10
4669.9999919617848718
 20
1518.0000035629670947
 30
0.0
  0
VERTEX
  5
263C
  8
BOARD_18MM-NOMINAL
 10
3449.9999919617839623
 20
1518.0000035629680042
 30
0.0
  0
SEQEND
  5
263D
  8
BOARD_18MM-NOMINAL
  0
POLYLINE
  5
43B
  8
00_NOPRINT_TOLERANCE
 66
     1
 10
0.0
 20
0.0
 30
0.0
 70
   129
  0
VERTEX
  5
263E
  8
00_NOPRINT_TOLERANCE
 10
229.999991961786094
 20
3938.0000035629668673
 30
0.0
  0
VERTEX
  5
263F
  8
00_NOPRINT_TOLERANCE
 10
1409.9999919617860087
 20
3938.0000035629668673
 30
0.0
  0
VERTEX
  5
2640
  8
00_NOPRINT_TOLERANCE
 10
1409.9999919617850992
 20
1538.0000035629680042
 30
0.0
  0
VERTEX
  5
2641
  8
00_NOPRINT_TOLERANCE
 10
229.9999919617852981
 20
1538.0000035629680042
 30
0.0
  0
SEQEND
  5
2642
  8
00_NOPRINT_TOLERANCE
  0
POLYLINE
  5
43C
  8
00_NOPRINT_TOLERANCE
 66
     1
 10
0.0
 20
0.0
 30
0.0
 70
   129
  0
VERTEX
  5
2643
  8
00_NOPRINT_TOLERANCE
 10
1849.9999919617860087
 20
3938.0000035629668673
 30
0.0
  0
VERTEX
  5
2644
  8
00_NOPRINT_TOLERANCE
 10
3029.9999919617857813
 20
3938.0000035629668673
 30
0.0
  0
VERTEX
  5
2645
  8
00_NOPRINT_TOLERANCE
 10
3029.9999919617848718
 20
1538.0000035629680042
 30
0.0
  0
VERTEX
  5
2646
  8
00_NOPRINT_TOLERANCE
 10
1849.9999919617839623
 20
1538.0000035629680042
 30
0.0
  0
SEQEND
  5
2647
  8
00_NOPRINT_TOLERANCE
  0
POLYLINE
  5
43D
  8
00_NOPRINT_TOLERANCE
 66
     1
 10
0.0
 20
0.0
 30
0.0
 70
   129
  0
VERTEX
  5
2648
  8
00_NOPRINT_TOLERANCE
 10
3469.9999919617848718
 20
3938.0000035629668673
 30
0.0
  0
VERTEX
  5
2649
  8
00_NOPRINT_TOLERANCE
 10
4649.9999919617839623
 20
3938.0000035629668673
 30
0.0
  0
VERTEX
  5
264A
  8
00_NOPRINT_TOLERANCE
 10
4649.9999919617839623
 20
1538.0000035629680042
 30
0.0
  0
VERTEX
  5
264B
  8
00_NOPRINT_TOLERANCE
 10
3469.9999919617848718
 20
1538.0000035629680042
 30
0.0
  0
SEQEND
  5
264C
  8
00_NOPRINT_TOLERANCE
  0
POLYLINE
  5
440
  8
00-NOPRINT_TEXT
 66
     1
 10
0.0
 20
0.0
 30
0.0
 70
     1
  0
VERTEX
  5
264D
  8
00-NOPRINT_TEXT
 10
4939.3332682307118375
 20
3897.9594623703410434
 30
0.0
  0
VERTEX
  5
264E
  8
00-NOPRINT_TEXT
 10
4939.3332682307118375
 20
3870.1453865532198506
 30
0.0
 42
-1.0
  0
VERTEX
  5
264F
  8
00-NOPRINT_TEXT
 10
4902.9370169292160426
 20
3870.1453865532198506
 30
0.0
  0
VERTEX
  5
2650
  8
00-NOPRINT_TEXT
 10
4902.9370169292160426
 20
3897.9594623703410434
 30
0.0
 42
-1.0
  0
SEQEND
  5
2651
  8
00-NOPRINT_TEXT
  0
POLYLINE
  5
441
  8
00-NOPRINT_TEXT
 66
     1
 10
0.0
 20
0.0
 30
0.0
 70
     1
  0
VERTEX
  5
2652
  8
00-NOPRINT_TEXT
 10
4894.9999919614865576
 20
3897.9594623703410434
 30
0.0
  0
VERTEX
  5
2653
  8
00-NOPRINT_TEXT
 10
4894.9999919614865576
 20
3870.1453865532198506
 30
0.0
 42
1.0
  0
VERTEX
  5
2654
  8
00-NOPRINT_TEXT
 10
4947.2702931984376846
 20
3870.1453865532198506
 30
0.0
  0
VERTEX
  5
2655
  8
00-NOPRINT_TEXT
 10
4947.2702931984376846
 20
3897.9594623703410434
 30
0.0
 42
1.0
  0
SEQEND
  5
2656
  8
00-NOPRINT_TEXT
  0
POLYLINE
  5
442
  8
00-NOPRINT_TEXT
 66
     1
 10
0.0
 20
0.0
 30
0.0
 70
     1
  0
VERTEX
  5
2657
  8
00-NOPRINT_TEXT
 10
4981.3051193940373196
 20
3897.9594623703410434
 30
0.0
 42
-1.0
  0
VERTEX
  5
2658
  8
00-NOPRINT_TEXT
 10
5017.701370695535843
 20
3897.9594623703410434
 30
0.0
  0
VERTEX
  5
2659
  8
00-NOPRINT_TEXT
 10
5017.701370695535843
 20
3870.1453865532198506
 30
0.0
 42
-1.0
  0
VERTEX
  5
265A
  8
00-NOPRINT_TEXT
 10
4981.3051193940373196
 20
3870.1453865532198506
 30
0.0
  0
SEQEND
  5
265B
  8
00-NOPRINT_TEXT
  0
POLYLINE
  5
443
  8
00-NOPRINT_TEXT
 66
     1
 10
0.0
 20
0.0
 30
0.0
 70
     1
  0
VERTEX
  5
265C
  8
00-NOPRINT_TEXT
 10
5025.6383956632607806
 20
3897.9594623703410434
 30
0.0
 42
0.6627114835317702
  0
VERTEX
  5
265D
  8
00-NOPRINT_TEXT
 10
4981.3051193940373196
 20
3916.7177757446847863
 30
0.0
  0
VERTEX
  5
265E
  8
00-NOPRINT_TEXT
 10
4981.3051193940373196
 20
3920.1261005049527739
 30
0.0
 42
1.0
  0
VERTEX
  5
265F
  8
00-NOPRINT_TEXT
 10
4973.3680944263096535
 20
3920.1261005049527739
 30
0.0
  0
VERTEX
  5
2660
  8
00-NOPRINT_TEXT
 10
4973.3680944263096535
 20
3814.0733578384611064
 30
0.0
 42
1.0
  0
VERTEX
  5
2661
  8
00-NOPRINT_TEXT
 10
4981.3051193940373196
 20
3814.0733578384611064
 30
0.0
  0
VERTEX
  5
2662
  8
00-NOPRINT_TEXT
 10
4981.3051193940373196
 20
3851.3870731788770172
 30
0.0
 42
0.66271148353177
  0
VERTEX
  5
2663
  8
00-NOPRINT_TEXT
 10
5025.6383956632607806
 20
3870.1453865532198506
 30
0.0
  0
SEQEND
  5
2664
  8
00-NOPRINT_TEXT
  0
POLYLINE
  5
444
  8
00-NOPRINT_TEXT
 66
     1
 10
0.0
 20
0.0
 30
0.0
 70
     1
  0
VERTEX
  5
2665
  8
00-NOPRINT_TEXT
 10
5094.3586884248143178
 20
3888.0737504709832137
 30
0.0
  0
VERTEX
  5
2666
  8
00-NOPRINT_TEXT
 10
5057.9624371233176134
 20
3888.0737504709832137
 30
0.0
  0
VERTEX
  5
2667
  8
00-NOPRINT_TEXT
 10
5057.9624371233176134
 20
3897.9594623703410434
 30
0.0
 42
-1.0
  0
VERTEX
  5
2668
  8
00-NOPRINT_TEXT
 10
5094.3586884248143178
 20
3897.9594623703410434
 30
0.0
  0
SEQEND
  5
2669
  8
00-NOPRINT_TEXT
  0
POLYLINE
  5
445
  8
00-NOPRINT_TEXT
 66
     1
 10
0.0
 20
0.0
 30
0.0
 70
     1
  0
VERTEX
  5
266A
  8
00-NOPRINT_TEXT
 10
5102.2957133925428934
 20
3897.9594623703410434
 30
0.0
 42
1.0
  0
VERTEX
  5
266B
  8
00-NOPRINT_TEXT
 10
5050.0254121555917663
 20
3897.9594623703410434
 30
0.0
  0
VERTEX
  5
266C
  8
00-NOPRINT_TEXT
 10
5050.0254121555917663
 20
3870.1453865532198506
 30
0.0
 42
0.8392911393501922
  0
VERTEX
  5
266D
  8
00-NOPRINT_TEXT
 10
5100.7235862969628215
 20
3861.2176783778718345
 30
0.0
 42
1.0
  0
VERTEX
  5
266E
  8
00-NOPRINT_TEXT
 10
5093.2640030777911306
 20
3863.9289481052510382
 30
0.0
 42
-0.8392911393501705
  0
VERTEX
  5
266F
  8
00-NOPRINT_TEXT
 10
5057.9624371233176134
 20
3870.1453865532198506
 30
0.0
  0
VERTEX
  5
2670
  8
00-NOPRINT_TEXT
 10
5057.9624371233176134
 20
3880.1367255032560024
 30
0.0
  0
VERTEX
  5
2671
  8
00-NOPRINT_TEXT
 10
5098.3272009086813341
 20
3880.1367255032560024
 30
0.0
 42
0.4142135623730951
  0
VERTEX
  5
2672
  8
00-NOPRINT_TEXT
 10
5102.2957133925428934
 20
3884.105237987118926
 30
0.0
  0
SEQEND
  5
2673
  8
00-NOPRINT_TEXT
  0
POLYLINE
  5
446
  8
00-NOPRINT_TEXT
 66
     1
 10
0.0
 20
0.0
 30
0.0
 70
     1
  0
VERTEX
  5
2674
  8
00-NOPRINT_TEXT
 10
5178.8547922217458108
 20
3897.9594623703410434
 30
0.0
 42
0.6627114835317652
  0
VERTEX
  5
2675
  8
00-NOPRINT_TEXT
 10
5134.5215159525250783
 20
3916.7177757446847863
 30
0.0
  0
VERTEX
  5
2676
  8
00-NOPRINT_TEXT
 10
5134.5215159525250783
 20
3920.1261005049527739
 30
0.0
 42
1.0
  0
VERTEX
  5
2677
  8
00-NOPRINT_TEXT
 10
5126.5844909847937743
 20
3920.1261005049527739
 30
0.0
  0
VERTEX
  5
2678
  8
00-NOPRINT_TEXT
 10
5126.5844909847992312
 20
3847.9787484186081201
 30
0.0
 42
1.0
  0
VERTEX
  5
2679
  8
00-NOPRINT_TEXT
 10
5134.5215159525250783
 20
3847.9787484186081201
 30
0.0
  0
VERTEX
  5
267A
  8
00-NOPRINT_TEXT
 10
5134.5215159525250783
 20
3897.9594623703410434
 30
0.0
 42
-1.0
  0
VERTEX
  5
267B
  8
00-NOPRINT_TEXT
 10
5170.9177672540208732
 20
3897.9594623703410434
 30
0.0
  0
VERTEX
  5
267C
  8
00-NOPRINT_TEXT
 10
5170.9177672540208732
 20
3847.9787484186081201
 30
0.0
 42
1.0
  0
VERTEX
  5
267D
  8
00-NOPRINT_TEXT
 10
5178.8547922217458108
 20
3847.9787484186081201
 30
0.0
  0
SEQEND
  5
267E
  8
00-NOPRINT_TEXT
  0
POLYLINE
  5
447
  8
00-NOPRINT_TEXT
 66
     1
 10
0.0
 20
0.0
 30
0.0
 70
     1
  0
VERTEX
  5
267F
  8
00-NOPRINT_TEXT
 10
5247.3578534747266531
 20
3870.1453865532198506
 30
0.0
 42
-1.0
  0
VERTEX
  5
2680
  8
00-NOPRINT_TEXT
 10
5210.9616021732317677
 20
3870.1453865532198506
 30
0.0
  0
VERTEX
  5
2681
  8
00-NOPRINT_TEXT
 10
5210.9616021732317677
 20
3897.9594623703410434
 30
0.0
 42
-1.0
  0
VERTEX
  5
2682
  8
00-NOPRINT_TEXT
 10
5247.3578534747266531
 20
3897.9594623703410434
 30
0.0
  0
SEQEND
  5
2683
  8
00-NOPRINT_TEXT
  0
POLYLINE
  5
448
  8
00-NOPRINT_TEXT
 66
     1
 10
0.0
 20
0.0
 30
0.0
 70
     1
  0
VERTEX
  5
2684
  8
00-NOPRINT_TEXT
 10
5203.0245772055050111
 20
3870.1453865532198506
 30
0.0
 42
0.6627114835317702
  0
VERTEX
  5
2685
  8
00-NOPRINT_TEXT
 10
5247.3578534747266531
 20
3851.3870731788802004
 30
0.0
  0
VERTEX
  5
2686
  8
00-NOPRINT_TEXT
 10
5247.3578534747266531
 20
3847.9787484186081201
 30
0.0
 42
1.0
  0
VERTEX
  5
2687
  8
00-NOPRINT_TEXT
 10
5255.2948784424570476
 20
3847.9787484186081201
 30
0.0
  0
VERTEX
  5
2688
  8
00-NOPRINT_TEXT
 10
5255.2948784424570476
 20
3954.0314910851011518
 30
0.0
 42
1.0
  0
VERTEX
  5
2689
  8
00-NOPRINT_TEXT
 10
5247.3578534747266531
 20
3954.0314910851011518
 30
0.0
  0
VERTEX
  5
268A
  8
00-NOPRINT_TEXT
 10
5247.3578534747266531
 20
3916.7177757446847863
 30
0.0
 42
0.66271148353177
  0
VERTEX
  5
268B
  8
00-NOPRINT_TEXT
 10
5203.0245772055050111
 20
3897.9594623703410434
 30
0.0
  0
SEQEND
  5
268C
  8
00-NOPRINT_TEXT
  0
POLYLINE
  5
449
  8
00-NOPRINT_TEXT
 66
     1
 10
0.0
 20
0.0
 30
0.0
 70
     1
  0
VERTEX
  5
268D
  8
00-NOPRINT_TEXT
 10
5328.979133291256403
 20
3888.0737504709818495
 30
0.0
  0
VERTEX
  5
268E
  8
00-NOPRINT_TEXT
 10
5292.5828819897624271
 20
3888.0737504709818495
 30
0.0
  0
VERTEX
  5
268F
  8
00-NOPRINT_TEXT
 10
5292.5828819897624271
 20
3897.9594623703410434
 30
0.0
 42
-1.0
  0
VERTEX
  5
2690
  8
00-NOPRINT_TEXT
 10
5328.979133291256403
 20
3897.9594623703410434
 30
0.0
  0
SEQEND
  5
2691
  8
00-NOPRINT_TEXT
  0
POLYLINE
  5
44A
  8
00-NOPRINT_TEXT
 66
     1
 10
0.0
 20
0.0
 30
0.0
 70
     1
  0
VERTEX
  5
2692
  8
00-NOPRINT_TEXT
 10
5336.9161582589858881
 20
3897.9594623703410434
 30
0.0
 42
1.0
  0
VERTEX
  5
2693
  8
00-NOPRINT_TEXT
 10
5284.6458570220320325
 20
3897.9594623703410434
 30
0.0
  0
VERTEX
  5
2694
  8
00-NOPRINT_TEXT
 10
5284.6458570220320325
 20
3870.1453865532198506
 30
0.0
 42
0.8392911393501922
  0
VERTEX
  5
2695
  8
00-NOPRINT_TEXT
 10
5335.3440311634012687
 20
3861.2176783778718345
 30
0.0
 42
1.0
  0
VERTEX
  5
2696
  8
00-NOPRINT_TEXT
 10
5327.8844479442323063
 20
3863.9289481052510382
 30
0.0
 42
-0.8392911393501705
  0
VERTEX
  5
2697
  8
00-NOPRINT_TEXT
 10
5292.5828819897624271
 20
3870.1453865532198506
 30
0.0
  0
VERTEX
  5
2698
  8
00-NOPRINT_TEXT
 10
5292.5828819897624271
 20
3880.1367255032560024
 30
0.0
  0
VERTEX
  5
2699
  8
00-NOPRINT_TEXT
 10
5332.9476457751197813
 20
3880.1367255032560024
 30
0.0
 42
0.4142135623730951
  0
VERTEX
  5
269A
  8
00-NOPRINT_TEXT
 10
5336.9161582589858881
 20
3884.105237987118926
 30
0.0
  0
SEQEND
  5
269B
  8
00-NOPRINT_TEXT
  0
POLYLINE
  5
44B
  8
00-NOPRINT_TEXT
 66
     1
 10
0.0
 20
0.0
 30
0.0
 70
     1
  0
VERTEX
  5
269C
  8
00-NOPRINT_TEXT
 10
5400.1285132225566485
 20
3920.2893834302049072
 30
0.0
 42
0.0457067288387406
  0
VERTEX
  5
269D
  8
00-NOPRINT_TEXT
 10
5395.628790641071646
 20
3922.2674790911951277
 30
0.0
 42
0.0401941578067522
  0
VERTEX
  5
269E
  8
00-NOPRINT_TEXT
 10
5390.8478918614537179
 20
3923.4500194078009372
 30
0.0
 42
0.0405559563879494
  0
VERTEX
  5
269F
  8
00-NOPRINT_TEXT
 10
5383.5423332690006646
 20
3924.0435634918940195
 30
0.0
 42
0.0949732897878055
  0
VERTEX
  5
26A0
  8
00-NOPRINT_TEXT
 10
5371.6581127932358868
 20
3921.7656498496289714
 30
0.0
 42
0.0708722825397191
  0
VERTEX
  5
26A1
  8
00-NOPRINT_TEXT
 10
5365.7916634459315901
 20
3918.4046798866438621
 30
0.0
 42
0.0483457727037197
  0
VERTEX
  5
26A2
  8
00-NOPRINT_TEXT
 10
5363.1313176086541716
 20
3915.8842936239962
 30
0.0
 42
0.0448797265187802
  0
VERTEX
  5
26A3
  8
00-NOPRINT_TEXT
 10
5361.1372008794287467
 20
3913.1267333648279418
 30
0.0
 42
0.0722728677010993
  0
VERTEX
  5
26A4
  8
00-NOPRINT_TEXT
 10
5359.3755176375998417
 20
3908.589206151622875
 30
0.0
 42
0.3093075497333693
  0
VERTEX
  5
26A5
  8
00-NOPRINT_TEXT
 10
5366.9296201926390495
 20
3889.3833541836270342
 30
0.0
 42
0.0534583832098243
  0
VERTEX
  5
26A6
  8
00-NOPRINT_TEXT
 10
5371.9836974554718836
 20
3886.6927895646222169
 30
0.0
 42
0.0412448156230092
  0
VERTEX
  5
26A7
  8
00-NOPRINT_TEXT
 10
5379.0511158641156726
 20
3884.5070644719489792
 30
0.0
 42
-0.0058632209555069
  0
VERTEX
  5
26A8
  8
00-NOPRINT_TEXT
 10
5387.4222927966529824
 20
3882.5538868000840012
 30
0.0
 42
-0.0307734774359857
  0
VERTEX
  5
26A9
  8
00-NOPRINT_TEXT
 10
5394.6865816407116654
 20
3880.2870659140189673
 30
0.0
 42
-0.1326074700036995
  0
VERTEX
  5
26AA
  8
00-NOPRINT_TEXT
 10
5400.8510786259193992
 20
3875.8143183299312113
 30
0.0
 42
-0.0934082332813141
  0
VERTEX
  5
26AB
  8
00-NOPRINT_TEXT
 10
5402.4268842722503905
 20
3872.8823707330379875
 30
0.0
 42
-0.1484702512325273
  0
VERTEX
  5
26AC
  8
00-NOPRINT_TEXT
 10
5402.5506585601979168
 20
3862.6551927899758994
 30
0.0
 42
-0.2016386478785572
  0
VERTEX
  5
26AD
  8
00-NOPRINT_TEXT
 10
5396.4765847785547521
 20
3855.1535405913059549
 30
0.0
 42
-0.2228311772947458
  0
VERTEX
  5
26AE
  8
00-NOPRINT_TEXT
 10
5373.2113489942003071
 20
3853.902293027667838
 30
0.0
 42
-0.1906174759338407
  0
VERTEX
  5
26AF
  8
00-NOPRINT_TEXT
 10
5363.276513999198869
 20
3863.3729715307767947
 30
0.0
 42
1.0
  0
VERTEX
  5
26B0
  8
00-NOPRINT_TEXT
 10
5356.0706462562147863
 20
3860.0455347682041065
 30
0.0
 42
0.1906174759338448
  0
VERTEX
  5
26B1
  8
00-NOPRINT_TEXT
 10
5370.2322316075869821
 20
3846.5455801112129848
 30
0.0
 42
0.2228311772947499
  0
VERTEX
  5
26B2
  8
00-NOPRINT_TEXT
 10
5400.2275508304983305
 20
3848.1587840540491925
 30
0.0
 42
0.2016386478785569
  0
VERTEX
  5
26B3
  8
00-NOPRINT_TEXT
 10
5410.1726623444610595
 20
3860.4412768812239847
 30
0.0
 42
0.1484702512325262
  0
VERTEX
  5
26B4
  8
00-NOPRINT_TEXT
 10
5409.9930756617159204
 20
3875.2801015762070165
 30
0.0
 42
0.0934082332813456
  0
VERTEX
  5
26B5
  8
00-NOPRINT_TEXT
 10
5407.0254822015085665
 20
3880.80161276921217
 30
0.0
 42
0.1326074700036619
  0
VERTEX
  5
26B6
  8
00-NOPRINT_TEXT
 10
5397.5122988260973216
 20
3887.7040523456198571
 30
0.0
 42
0.0307734774359815
  0
VERTEX
  5
26B7
  8
00-NOPRINT_TEXT
 10
5389.3162465463519766
 20
3890.2616299543651621
 30
0.0
 42
0.0058632209555075
  0
VERTEX
  5
26B8
  8
00-NOPRINT_TEXT
 10
5380.7637986138552151
 20
3892.2571020936070454
 30
0.0
 42
-0.0412448156229785
  0
VERTEX
  5
26B9
  8
00-NOPRINT_TEXT
 10
5374.9452400271102306
 20
3894.0565950301879639
 30
0.0
 42
-0.0534583832108002
  0
VERTEX
  5
26BA
  8
00-NOPRINT_TEXT
 10
5371.3850328292692211
 20
3895.9518900612579273
 30
0.0
 42
-0.3052584999940819
  0
VERTEX
  5
26BB
  8
00-NOPRINT_TEXT
 10
5367.0776322581887143
 20
3906.6610364952448435
 30
0.0
 42
-0.0741895556533406
  0
VERTEX
  5
26BC
  8
00-NOPRINT_TEXT
 10
5368.0049925047260331
 20
3909.1463797343080842
 30
0.0
 42
-0.042878157842419
  0
VERTEX
  5
26BD
  8
00-NOPRINT_TEXT
 10
5369.120395216849829
 20
3910.6759047424579876
 30
0.0
 42
-0.0483457727037104
  0
VERTEX
  5
26BE
  8
00-NOPRINT_TEXT
 10
5370.6690966593623671
 20
3912.143129712220798
 30
0.0
 42
-0.0708722825397227
  0
VERTEX
  5
26BF
  8
00-NOPRINT_TEXT
 10
5374.5929543269367059
 20
3914.3911620362000576
 30
0.0
 42
-0.0949732897878214
  0
VERTEX
  5
26C0
  8
00-NOPRINT_TEXT
 10
5383.5423332690006646
 20
3916.1065385241668082
 30
0.0
 42
-0.0405559563879528
  0
VERTEX
  5
26C1
  8
00-NOPRINT_TEXT
 10
5389.5666532834629834
 20
3915.6170893656899352
 30
0.0
 42
-0.0401941578067489
  0
VERTEX
  5
26C2
  8
00-NOPRINT_TEXT
 10
5393.1107933477023835
 20
3914.7404574379170299
 30
0.0
 42
-0.0457067288387209
  0
VERTEX
  5
26C3
  8
00-NOPRINT_TEXT
 10
5396.284876158231782
 20
3913.3451182094568139
 30
0.0
 42
-0.0622018130379019
  0
VERTEX
  5
26C4
  8
00-NOPRINT_TEXT
 10
5400.0914643484029511
 20
3910.5710286188609643
 30
0.0
 42
1.0
  0
VERTEX
  5
26C5
  8
00-NOPRINT_TEXT
 10
5405.5249038841029687
 20
3916.3567092313937792
 30
0.0
 42
0.0622018130379014
  0
SEQEND
  5
26C6
  8
00-NOPRINT_TEXT
  0
POLYLINE
  5
44C
  8
00-NOPRINT_TEXT
 66
     1
 10
0.0
 20
0.0
 30
0.0
 70
     1
  0
VERTEX
  5
26C7
  8
00-NOPRINT_TEXT
 10
5459.1272857825470055
 20
3886.0372136933829097
 30
0.0
  0
VERTEX
  5
26C8
  8
00-NOPRINT_TEXT
 10
5482.0932627423380836
 20
3846.0039934842311595
 30
0.0
 42
1.0
  0
VERTEX
  5
26C9
  8
00-NOPRINT_TEXT
 10
5488.9778641930397498
 20
3849.9535033529859902
 30
0.0
  0
VERTEX
  5
26CA
  8
00-NOPRINT_TEXT
 10
5464.8140578731554342
 20
3892.0747238518520135
 30
0.0
  0
VERTEX
  5
26CB
  8
00-NOPRINT_TEXT
 10
5487.9002636962650286
 20
3916.5847973974100569
 30
0.0
 42
1.0
  0
VERTEX
  5
26CC
  8
00-NOPRINT_TEXT
 10
5482.1226286269320553
 20
3922.0267913650591254
 30
0.0
  0
VERTEX
  5
26CD
  8
00-NOPRINT_TEXT
 10
5444.3696851479862744
 20
3881.9453926146447884
 30
0.0
  0
VERTEX
  5
26CE
  8
00-NOPRINT_TEXT
 10
5444.3696851479862744
 20
3954.0314910851011518
 30
0.0
 42
1.0
  0
VERTEX
  5
26CF
  8
00-NOPRINT_TEXT
 10
5436.4326601802558798
 20
3954.0314910851011518
 30
0.0
  0
VERTEX
  5
26D0
  8
00-NOPRINT_TEXT
 10
5436.4326601802558798
 20
3847.9787484186081201
 30
0.0
 42
1.0
  0
VERTEX
  5
26D1
  8
00-NOPRINT_TEXT
 10
5444.3696851479862744
 20
3847.9787484186081201
 30
0.0
  0
VERTEX
  5
26D2
  8
00-NOPRINT_TEXT
 10
5444.3696851479862744
 20
3870.3694214333390846
 30
0.0
  0
SEQEND
  5
26D3
  8
00-NOPRINT_TEXT
  0
CIRCLE
  5
44D
  8
00-NOPRINT_TEXT
 10
5582.8952110701593483
 20
3901.0051197518550907
 30
0.0
 40
56.9948838171099865
  0
POLYLINE
  5
44E
  8
00-NOPRINT_TEXT
 66
     1
 10
0.0
 20
0.0
 30
0.0
 70
     1
  0
VERTEX
  5
26D4
  8
00-NOPRINT_TEXT
 10
5553.6691109275488998
 20
3909.5830420167549164
 30
0.0
  0
VERTEX
  5
26D5
  8
00-NOPRINT_TEXT
 10
5553.6691109275488998
 20
3887.4493152264249147
 30
0.0
  0
VERTEX
  5
26D6
  8
00-NOPRINT_TEXT
 10
5568.7636821238138509
 20
3903.5063226800971279
 30
0.0
  0
SEQEND
  5
26D7
  8
00-NOPRINT_TEXT
  0
POLYLINE
  5
44F
  8
00-NOPRINT_TEXT
 66
     1
 10
0.0
 20
0.0
 30
0.0
 70
     1
  0
VERTEX
  5
26D8
  8
00-NOPRINT_TEXT
 10
5595.229848176248197
 20
3870.7179399259171078
 30
0.0
  0
VERTEX
  5
26D9
  8
00-NOPRINT_TEXT
 10
5611.5422534614108372
 20
3888.0704310861901831
 30
0.0
  0
VERTEX
  5
26DA
  8
00-NOPRINT_TEXT
 10
5611.5422534614108372
 20
3912.4405969836539043
 30
0.0
  0
VERTEX
  5
26DB
  8
00-NOPRINT_TEXT
 10
5595.229848176248197
 20
3895.088105823380829
 30
0.0
  0
SEQEND
  5
26DC
  8
00-NOPRINT_TEXT
  0
POLYLINE
  5
450
  8
00-NOPRINT_TEXT
 66
     1
 10
0.0
 20
0.0
 30
0.0
 70
     1
  0
VERTEX
  5
26DD
  8
00-NOPRINT_TEXT
 10
5592.6300359427959847
 20
3898.3450090206902132
 30
0.0
  0
VERTEX
  5
26DE
  8
00-NOPRINT_TEXT
 10
5610.0349055015985869
 20
3916.859620439741775
 30
0.0
  0
VERTEX
  5
26DF
  8
00-NOPRINT_TEXT
 10
5572.5813284461646617
 20
3931.937549647565902
 30
0.0
  0
VERTEX
  5
26E0
  8
00-NOPRINT_TEXT
 10
5555.1764588873602406
 20
3913.4229382285179781
 30
0.0
  0
SEQEND
  5
26E1
  8
00-NOPRINT_TEXT
  0
POLYLINE
  5
451
  8
00-NOPRINT_TEXT
 66
     1
 10
0.0
 20
0.0
 30
0.0
 70
     1
  0
VERTEX
  5
26E2
  8
00-NOPRINT_TEXT
 10
5615.1075020614061941
 20
3885.8405208873577976
 30
0.0
 42
0.1908976533707676
  0
VERTEX
  5
26E3
  8
00-NOPRINT_TEXT
 10
5615.6672534614117467
 20
3887.2531966800361261
 30
0.0
  0
VERTEX
  5
26E4
  8
00-NOPRINT_TEXT
 10
5615.6672534614117467
 20
3917.6458431382170602
 30
0.0
 42
0.3060715845518373
  0
VERTEX
  5
26E5
  8
00-NOPRINT_TEXT
 10
5614.374994434776454
 20
3919.5591217621899887
 30
0.0
  0
VERTEX
  5
26E6
  8
00-NOPRINT_TEXT
 10
5572.8142571860798853
 20
3936.2904970626968861
 30
0.0
 42
0.3090648432082206
  0
VERTEX
  5
26E7
  8
00-NOPRINT_TEXT
 10
5570.54126761272164
 20
3935.7898942314009219
 30
0.0
  0
VERTEX
  5
26E8
  8
00-NOPRINT_TEXT
 10
5550.1038623275562713
 20
3914.0493913227201119
 30
0.0
 42
0.1908976533707673
  0
VERTEX
  5
26E9
  8
00-NOPRINT_TEXT
 10
5549.5441109275479903
 20
3912.636715530040874
 30
0.0
  0
VERTEX
  5
26EA
  8
00-NOPRINT_TEXT
 10
5549.5441109275479903
 20
3882.2440690718622136
 30
0.0
 42
0.6794054420538282
  0
VERTEX
  5
26EB
  8
00-NOPRINT_TEXT
 10
5553.1093595275442567
 20
3880.8313932791838852
 30
0.0
  0
VERTEX
  5
26EC
  8
00-NOPRINT_TEXT
 10
5572.870842317071947
 20
3901.8528765874170858
 30
0.0
  0
VERTEX
  5
26ED
  8
00-NOPRINT_TEXT
 10
5591.1048481762472875
 20
3894.5122946955270891
 30
0.0
  0
VERTEX
  5
26EE
  8
00-NOPRINT_TEXT
 10
5591.1048481762472875
 20
3865.5126937713530424
 30
0.0
 42
0.6794054420538282
  0
VERTEX
  5
26EF
  8
00-NOPRINT_TEXT
 10
5594.6700967762408254
 20
3864.1000179786751687
 30
0.0
  0
SEQEND
  5
26F0
  8
00-NOPRINT_TEXT
  0
CIRCLE
  5
452
  8
00-NOPRINT_TEXT
 10
5582.8952110701593483
 20
3901.0051197518550907
 30
0.0
 40
52.8698838171095673
  0
TEXT
  5
453
  8
00-NOPRINT_TEXT
 10
4894.9999919607053016
 20
3472.370575336255115
 30
0.0
 40
20.0
  1
DESIGNERS:
  7
OD-SIMPLEX-20
  0
TEXT
  5
454
  8
00-NOPRINT_TEXT
 10
4894.9999919607053016
 20
3437.370575336255115
 30
0.0
 40
13.0
  1
Joni Steiner, Nick Ierodiaconou
  7
OD-SIMPLEX-13
  0
TEXT
  5
455
  8
00-NOPRINT_TEXT
 10
4894.9999919607053016
 20
3352.3613369287850219
 30
0.0
 40
20.0
  1
DESIGNED FOR CNC-MILLING:
  7
OD-SIMPLEX-20
  0
TEXT
  5
456
  8
00-NOPRINT_TEXT
 10
4894.9999919607053016
 20
3317.3613369287850219
 30
0.0
 40
13.0
  1
Recommended drill bit (unless otherwise noted):
  7
OD-SIMPLEX-13
  0
TEXT
  5
457
  8
00-NOPRINT_TEXT
 10
4894.9999919607053016
 20
3287.3613369287850219
 30
0.0
 40
13.0
  1
Recommended sheet size (unless otherwise noted):
  7
OD-SIMPLEX-13
  0
TEXT
  5
458
  8
00-NOPRINT_TEXT
 10
4894.9999919607053016
 20
3257.3613369287850219
 30
0.0
 40
13.0
  1
Recommended sheet thickness (unless otherwise noted):
  7
OD-SIMPLEX-13
  0
TEXT
  5
459
  8
00-NOPRINT_TEXT
 10
4894.9999919607053016
 20
3172.3520985213158383
 30
0.0
 40
20.0
  1
PUBLISHED UNDER CREATIVE COMMONS:
  7
OD-SIMPLEX-20
  0
TEXT
  5
45A
  8
00-NOPRINT_TEXT
 10
4894.9999919607053016
 20
3137.3520985213172025
 30
0.0
 40
13.0
  1
For full license terms visit: www.opendesk.cc/license
  7
OD-SIMPLEX-13
  0
TEXT
  5
45B
  8
00-NOPRINT_TEXT
 10
4894.9999919607053016
 20
3052.342860113848019
 30
0.0
 40
20.0
  1
TERMS AND CONDITIONS APPLY:
  7
OD-SIMPLEX-20
  0
TEXT
  5
45C
  8
00-NOPRINT_TEXT
 10
4894.9999919607053016
 20
3017.3428601138489284
 30
0.0
 40
13.0
  1
Saving this file serves as acceptance of the Opendesk terms of use 
  7
OD-SIMPLEX-13
  0
TEXT
  5
45D
  8
00-NOPRINT_TEXT
 10
4894.9999919607053016
 20
3557.3798137437220248
 30
0.0
 40
20.0
  1
License:
  7
OD-SIMPLEX-20
  0
TEXT
  5
45E
  8
00-NOPRINT_TEXT
 10
4894.9999919607053016
 20
3607.6586264080460751
 30
0.0
 40
20.0
  1
Version:
  7
OD-SIMPLEX-20
  0
TEXT
  5
45F
  8
00-NOPRINT_TEXT
 10
5214.8256156221550555
 20
3607.6586264080460751
 30
0.0
 40
20.0
  1
Published:
  7
OD-SIMPLEX-20
  0
TEXT
  5
460
  8
00-NOPRINT_TEXT
 10
4894.9999919607053016
 20
3720.9374390723678516
 30
0.0
 40
30.0
  1
DESIGN:
  7
OD-SIMPLEX-30
  0
TEXT
  5
461
  8
00-NOPRINT_TEXT
 10
4914.9999919607053016
 20
2932.3336217063788354
 30
0.0
 40
20.0
  1
Sheet:
  7
OD-SIMPLEX-20
  0
TEXT
  5
462
  8
00-NOPRINT_TEXT
 10
5234.8256156221550555
 20
2932.3336217063788354
 30
0.0
 40
20.0
  1
Date:
  7
OD-SIMPLEX-20
  0
LINE
  5
463
  8
00-NOPRINT_TEXT
 62
     7
 10
4894.9999919589108686
 20
2973.0119614156269563
 30
0.0
 11
4894.9999919563042567
 21
2911.2724010253618872
 31
0.0
  0
LINE
  5
464
  8
00-NOPRINT_TEXT
 62
     7
 10
5214.8256156221550555
 20
2911.2771827146698342
 30
0.0
 11
5214.8256156221550555
 21
2973.0119614143218314
 31
0.0
  0
TEXT
  5
465
  8
00-NOPRINT_TEXT
 10
5087.7900020109491379
 20
3720.9374390723678516
 30
0.0
 40
30.0
  1
DESK
  7
OD-SIMPLEX-30
  0
TEXT
  5
466
  8
00-NOPRINT_TEXT
 10
5024.1516535246191779
 20
3557.3798137437220248
 30
0.0
 40
20.0
  1
CC-BY
  7
OD-SIMPLEX-20
  0
TEXT
  5
467
  8
00-NOPRINT_TEXT
 10
5024.1516535246191779
 20
3607.6586264080460751
 30
0.0
 40
20.0
  1
02
  7
OD-SIMPLEX-20
  0
TEXT
  5
468
  8
00-NOPRINT_TEXT
 10
5374.12231047154728
 20
3607.6586264080460751
 30
0.0
 40
20.0
  1
15/06/15
  7
OD-SIMPLEX-20
  0
TEXT
  5
469
  8
00-NOPRINT_TEXT
 10
5020.5841245432011419
 20
2932.3336217063788354
 30
0.0
 40
20.0
  1
02
  7
OD-SIMPLEX-20
  0
TEXT
  5
46A
  8
00-NOPRINT_TEXT
 10
5324.4121445067121385
 20
2932.3336217063788354
 30
0.0
 40
20.0
  1
15/06/15
  7
OD-SIMPLEX-20
  0
TEXT
  5
46B
  8
00-NOPRINT_TEXT
 10
4894.9999919607053016
 20
3657.9374390723692159
 30
0.0
 40
20.0
  1
Range:
  7
OD-SIMPLEX-20
  0
TEXT
  5
46C
  8
00-NOPRINT_TEXT
 10
5005.2953057284566967
 20
3657.9374390723692159
 30
0.0
 40
20.0
  1
LEAN
  7
OD-SIMPLEX-20
  0
TEXT
  5
46D
  8
00-NOPRINT_TEXT
 10
5395.4743162317636234
 20
3317.3613369287850219
 30
0.0
 40
13.0
  1
$BIT-SIZE
  7
OD-SIMPLEX-13
  0
TEXT
  5
46E
  8
00-NOPRINT_TEXT
 10
5478.7792790709081601
 20
3257.3613369287850219
 30
0.0
 40
13.0
  1
$TH-NOMINAL
  7
OD-SIMPLEX-13
  0
TEXT
  5
46F
  8
00-NOPRINT_TEXT
 10
5424.921540806953999
 20
3287.3613369287850219
 30
0.0
 40
13.0
  1
2440mm x 1220mm
  7
OD-SIMPLEX-13
  0
TEXT
  5
1DAA
  8
00-NOPRINT_TEXT
 62
     7
 10
207.4499919614397072
 20
1154.6628032325379536
 30
0.0
 40
17.0
  1
OpenDesk products are designed to be CNC-milled from standard sheet materials such as plywood. This file as provided
 50
359.9999999988356194
  7
OD-ISOCP-17
  0
TEXT
  5
1DAB
  8
00-NOPRINT_TEXT
 62
     7
 10
207.4499919608639971
 20
1126.3294698992040139
 30
0.0
 40
17.0
  1
is mastered for use with the recommended sheet material specification, sheet sizes and thicknesses, and bit sizes
 50
359.9999999988356194
  7
OD-ISOCP-17
  0
TEXT
  5
1DAC
  8
00-NOPRINT_TEXT
 62
     7
 10
207.4499919602882017
 20
1097.9961365658709838
 30
0.0
 40
17.0
  1
provided, however the exact materials being used, tolerances, drill bits, and other local considerations are at the
 50
359.9999999988356194
  7
OD-ISOCP-17
  0
TEXT
  5
1DAD
  8
00-NOPRINT_TEXT
 62
     7
 10
208.0661346337423936
 20
1069.6628032325249933
 30
0.0
 40
17.0
  1
discretion of the end user (maker). If you are working with variations on these you may need to reposition and nest
 50
359.9999999988356194
  7
OD-ISOCP-17
  0
TEXT
  5
1DAE
  8
00-NOPRINT_TEXT
 62
     7
 10
207.4499919591366108
 20
1041.3294698992049234
 30
0.0
 40
17.0
  1
parts within your own sheet frames accordingly, and take account of any changes in tolerance particularly on joints,
 50
359.9999999988356194
  7
OD-ISOCP-17
  0
TEXT
  5
1DAF
  8
00-NOPRINT_TEXT
 62
     7
 10
207.449991958560787
 20
1012.9961365658709838
 30
0.0
 40
17.0
  1
tabs, and slots prior to cutting.
 50
359.9999999988356194
  7
OD-ISOCP-17
  0
TEXT
  5
1DB0
  8
00-NOPRINT_TEXT
 62
     7
 10
207.4499919574093099
 20
956.329469899204696
 30
0.0
 40
17.0
  1
All OpenDesk drawings are drawn in 'Top' projection, and all vectors are arranged into suitably named layers describing
 50
359.9999999988356194
  7
OD-ISOCP-17
  0
TEXT
  5
1DB1
  8
00-NOPRINT_TEXT
 62
     7
 10
207.449991956833486
 20
927.9961365658714385
 30
0.0
 40
17.0
  1
the type and depth of cut required. All such cut depths are assumed to be measured from the top (maximum z-index)
 50
359.9999999988356194
  7
OD-ISOCP-17
  0
TEXT
  5
1DB2
  8
00-NOPRINT_TEXT
 62
     7
 10
207.9951297515333124
 20
899.6628032325266986
 30
0.0
 40
17.0
  1
surface of the material. For example the layer 'POCKET_14MM_INSIDE' describes a pocketting inside-line cut of depth
 50
359.9999999988356194
  7
OD-ISOCP-17
  0
TEXT
  5
1DB3
  8
00-NOPRINT_TEXT
 62
     7
 10
207.4499919556818952
 20
871.329469899204355
 30
0.0
 40
17.0
  1
14mm from the top surface of the material.*
 50
359.9999999988356194
  7
OD-ISOCP-17
  0
TEXT
  5
1DB4
  8
00-NOPRINT_TEXT
 62
     7
 10
207.4499919545303044
 20
814.6628032325377262
 30
0.0
 40
17.0
  1
All OpenDesk drawings are provided in dxf format. After importing into your CNC-machine's CAM software you will need
 50
359.9999999988356194
  7
OD-ISOCP-17
  0
TEXT
  5
1DB5
  8
00-NOPRINT_TEXT
 62
     7
 10
207.449991953954509
 20
786.329469899204355
 30
0.0
 40
17.0
  1
to ensure that all vectors are visible and all polylines are closed where necessary. A pdf version of the drawing is
 50
359.9999999988356194
  7
OD-ISOCP-17
  0
TEXT
  5
1DB6
  8
00-NOPRINT_TEXT
 62
     7
 10
207.4499919533787136
 20
757.9961365658712111
 30
0.0
 40
17.0
  1
provided with each download for reference.
 50
359.9999999988356194
  7
OD-ISOCP-17
  0
TEXT
  5
1DB7
  8
00-NOPRINT_TEXT
 62
     7
 10
207.4499919522270943
 20
701.329469899204355
 30
0.0
 40
17.0
  1
Layers with names beginning '00_NOPRINT' should not be milled. For convenience you can turn these layers off or
 50
359.9999999988356194
  7
OD-ISOCP-17
  0
TEXT
  5
1DB8
  8
00-NOPRINT_TEXT
 62
     7
 10
208.0661346256812863
 20
672.9961365658582508
 30
0.0
 40
17.0
  1
delete their elements before setting up your CAM software.
 50
359.9999999988356194
  7
OD-ISOCP-17
  0
TEXT
  5
1DB9
  8
00-NOPRINT_TEXT
 62
     7
 10
207.4499919504997081
 20
616.3294698992041276
 30
0.0
 40
17.0
  1
Most OpenDesk products require some combination of 'inside cuts', and 'outside cuts', and in some instances 'on-line
 50
359.9999999988356194
  7
OD-ISOCP-17
  0
TEXT
  5
1DBA
  8
00-NOPRINT_TEXT
 62
     7
 10
208.0661346239539
 20
587.9961365658583645
 30
0.0
 40
17.0
  1
cuts', 'pocketing', or 'chamfering'. Some OpenDesk products require double-side cutting (ie cutting to both front and
 50
359.9999999988356194
  7
OD-ISOCP-17
  0
TEXT
  5
1DBB
  8
00-NOPRINT_TEXT
 62
     7
 10
207.4499919493480888
 20
559.6628032325374988
 30
0.0
 40
17.0
  1
reverse faces of a single sheet). As a result each sheet is drawn in 'Front Face', 'Reverse Face', and 'Both Faces'
 50
359.9999999988356194
  7
OD-ISOCP-17
  0
TEXT
  5
1DBC
  8
00-NOPRINT_TEXT
 62
     7
 10
207.8020734767895021
 20
531.3294698991969653
 30
0.0
 40
17.0
  1
layouts, with corresponding layers and vectors in each for you to choose your preferred setup according to your
 50
359.9999999988356194
  7
OD-ISOCP-17
  0
TEXT
  5
1DBD
  8
00-NOPRINT_TEXT
 62
     7
 10
208.2421753862350897
 20
502.9961365658546129
 30
0.0
 40
17.0
  1
CNC-software and machine.
 50
359.9999999988356194
  7
OD-ISOCP-17
  0
TEXT
  5
1DBE
  8
00-NOPRINT_TEXT
 62
     7
 10
207.4499919470447935
 20
446.3294698992040139
 30
0.0
 40
17.0
  1
A minimum of 15mm tolerance is left between parts on OpenDesk sheets when nested. This should be sufficient for most
 50
359.9999999988356194
  7
OD-ISOCP-17
  0
TEXT
  5
1DBF
  8
00-NOPRINT_TEXT
 62
     7
 10
207.4499919464691118
 20
417.9961365658708132
 30
0.0
 40
17.0
  1
bit diameters.
 50
359.9999999988356194
  7
OD-ISOCP-17
  0
TEXT
  5
1DC0
  8
00-NOPRINT_TEXT
 62
     7
 10
224.4499919453176062
 20
361.3294698988585765
 30
0.0
 40
17.0
  1
*      Such a pocketed may be accompanied by a corresponding second line in, for example, 'POCKET_14MM_OUTSIDE',
 50
359.9999999988356194
  7
OD-ISOCP-17
  0
TEXT
  5
1DC1
  8
00-NOPRINT_TEXT
 62
     7
 10
276.0661346187716845
 20
332.996136564476501
 30
0.0
 40
17.0
  1
describing the limits of the associated pocket.
 50
359.9999999988356194
  7
OD-ISOCP-17
  0
TEXT
  5
1DC4
  8
00-NOPRINT_TEXT
 62
     7
 10
3448.4713334248540377
 20
1154.6628032325379536
 30
0.0
 40
17.0
  1
This file represents the latest version of an open source product, designed to be CNC-milled from standard sheet
 50
359.9999999988356194
  7
OD-ISOCP-17
  0
TEXT
  5
1DC5
  8
00-NOPRINT_TEXT
 62
     7
 10
3448.4713334242778728
 20
1126.3294698992040139
 30
0.0
 40
17.0
  1
materials. Whilst OpenDesk make every effort to provide fully prototyped and tested designs, it is the responsiblity of
 50
359.9999999988356194
  7
OD-ISOCP-17
  0
TEXT
  5
1DC6
  8
00-NOPRINT_TEXT
 62
     7
 10
3448.4713334237021627
 20
1097.9961365658709838
 30
0.0
 40
17.0
  1
the end user (maker) to check file contents prior to fabrication, and ensure suitable due diligence and reasonable skill
 50
359.9999999988356194
  7
OD-ISOCP-17
  0
TEXT
  5
1DC7
  8
00-NOPRINT_TEXT
 62
     7
 10
3448.4713334231269073
 20
1069.6628032325370441
 30
0.0
 40
17.0
  1
and care in fabrication and assembly.
 50
359.9999999988356194
  7
OD-ISOCP-17
  0
TEXT
  5
1DC8
  8
00-NOPRINT_TEXT
 62
     7
 10
3448.4713334219750323
 20
1012.9961365658709838
 30
0.0
 40
17.0
  1
All OpenDesk designs are open source and provided as is. OpenDesk cannot accept any liability for any error or
 50
359.9999999988356194
  7
OD-ISOCP-17
  0
TEXT
  5
1DC9
  8
00-NOPRINT_TEXT
 62
     7
 10
3448.4713334213988674
 20
984.6628032325378399
 30
0.0
 40
17.0
  1
ommission in the information contained herein. OpenDesk accepts no design liability, and provides no guarantee of
 50
359.9999999988356194
  7
OD-ISOCP-17
  0
TEXT
  5
1DCA
  8
00-NOPRINT_TEXT
 62
     7
 10
3449.0874760948540825
 20
956.3294698991920768
 30
0.0
 40
17.0
  1
quality or warranty of fitness for purpose on any open product in the OpenDesk library.
 50
359.9999999988356194
  7
OD-ISOCP-17
  0
TEXT
  5
1DCB
  8
00-NOPRINT_TEXT
 62
     7
 10
3448.4713334196721917
 20
899.6628032325379536
 30
0.0
 40
17.0
  1
By using this file you agree to the following:
 50
359.9999999988356194
  7
OD-ISOCP-17
  0
TEXT
  5
1DCC
  8
00-NOPRINT_TEXT
 62
     7
 10
3448.4713334185212261
 20
842.9961365658712111
 30
0.0
 40
17.0
  1
- You expressly agree to hold harmless all OpenDesk designers or employees for any property damage, personal injury,
 50
359.9999999988356194
  7
OD-ISOCP-17
  0
TEXT
  5
1DCD
  8
00-NOPRINT_TEXT
 62
     7
 10
3449.087476091975077
 20
814.6628032325253344
 30
0.0
 40
17.0
  1
death, fudiciary loss, or any other loss or damage arising out of the use of this digital file and its contents, or
 50
359.9999999988356194
  7
OD-ISOCP-17
  0
TEXT
  5
1DCE
  8
00-NOPRINT_TEXT
 62
     7
 10
3449.0164712126461382
 20
786.3294698991933274
 30
0.0
 40
17.0
  1
subsequent physical products fabricated from the information contained herein.
 50
359.9999999988356194
  7
OD-ISOCP-17
  0
TEXT
  5
1DCF
  8
00-NOPRINT_TEXT
 62
     7
 10
3448.4713334162179308
 20
729.6628032325377262
 30
0.0
 40
17.0
  1
- You agree that the information provided in this file is to be used at your own risk, without any guarantee of quality
 50
359.9999999988356194
  7
OD-ISOCP-17
  0
TEXT
  5
1DD0
  8
00-NOPRINT_TEXT
 62
     7
 10
3448.4713334156431301
 20
701.329469899204355
 30
0.0
 40
17.0
  1
or warranty expressly made.
 50
359.9999999988356194
  7
OD-ISOCP-17
  0
TEXT
  5
1DD1
  8
00-NOPRINT_TEXT
 62
     7
 10
3448.4713334144908004
 20
644.6628032325376125
 30
0.0
 40
17.0
  1
- You agree to indemnify OpenDesk, its designers and employees against any damages, losses, obligations, liabilities,
 50
359.9999999988356194
  7
OD-ISOCP-17
  0
TEXT
  5
1DD2
  8
00-NOPRINT_TEXT
 62
     7
 10
3449.087476087945106
 20
616.3294698991917357
 30
0.0
 40
17.0
  1
costs and expenses arising from the use of OpenDesk designs or any derivative designs permitted under the associated
 50
359.9999999988356194
  7
OD-ISOCP-17
  0
TEXT
  5
1DD3
  8
00-NOPRINT_TEXT
 62
     7
 10
3448.8234149413569867
 20
587.9961365658635941
 30
0.0
 40
17.0
  1
license of use.
 50
359.9999999988356194
  7
OD-ISOCP-17
  0
TEXT
  5
1DD4
  8
00-NOPRINT_TEXT
 62
     7
 10
3448.4713334116131591
 20
502.9961365658705859
 30
0.0
 40
17.0
  1
We hope you enjoy your OpenDesk product! Please feel free to notify us of any errors or omissions, share back any
 50
359.9999999988356194
  7
OD-ISOCP-17
  0
TEXT
  5
1DD5
  8
00-NOPRINT_TEXT
 62
     7
 10
3448.4713334110369942
 20
474.6628032325373283
 30
0.0
 40
17.0
  1
feedback or developments on this design, or ask a question by emailing us on hello@opendesk.cc.
 50
359.9999999988356194
  7
OD-ISOCP-17
  0
TEXT
  5
1DD6
  8
00-NOPRINT_TEXT
 62
     7
 10
3448.4713334098851192
 20
417.9961365658708132
 30
0.0
 40
17.0
  1
Welcome to the industrial revolution and thanks for trailblazing!
 50
359.9999999988356194
  7
OD-ISOCP-17
  0
TEXT
  5
1DD7
  8
00-NOPRINT_TEXT
 62
     7
 10
1828.6695041576128915
 20
1154.662803232547958
 30
0.0
 40
17.0
  1
Before starting to cut your product please take account of the following guidelines. These reflect our personal
 50
359.9999999988356194
  7
OD-ISOCP-17
  0
TEXT
  5
1DD8
  8
00-NOPRINT_TEXT
 62
     7
 10
1828.6695041570380909
 20
1126.3294698992149279
 30
0.0
 40
17.0
  1
research and learning and are by no means comprehensive. Please let us know if you have any recommendations for
 50
359.9999999988356194
  7
OD-ISOCP-17
  0
TEXT
  5
1DD9
  8
00-NOPRINT_TEXT
 62
     7
 10
1828.669504156461926
 20
1097.9961365658818977
 30
0.0
 40
17.0
  1
improved standards, and/or cutting methods:
 50
359.9999999988356194
  7
OD-ISOCP-17
  0
TEXT
  5
1DDA
  8
00-NOPRINT_TEXT
 62
     7
 10
1828.6695041553100509
 20
1041.3294698992140184
 30
0.0
 40
17.0
  1
- Every CNC-machine is slightly different, you should follow your machine manufacturer's guidelines for best practice,
 50
359.9999999988356194
  7
OD-ISOCP-17
  0
TEXT
  5
1DDB
  8
00-NOPRINT_TEXT
 62
     7
 10
1828.6695041547350229
 20
1012.9961365658820114
 30
0.0
 40
17.0
  1
and consult your supplier for suitable drill bits and other recommendations. In our experience the best quality finish is
 50
359.9999999988356194
  7
OD-ISOCP-17
  0
TEXT
  5
1DDC
  8
00-NOPRINT_TEXT
 62
     7
 10
1828.6695041541590854
 20
984.6628032325487538
 30
0.0
 40
17.0
  1
achieved using a suitable vacuum bed to prevent material slippage, and a compression cutter to prevent splintering of
 50
359.9999999988356194
  7
OD-ISOCP-17
  0
TEXT
  5
1DDD
  8
00-NOPRINT_TEXT
 62
     7
 10
1828.6695041535829205
 20
956.3294698992154963
 30
0.0
 40
17.0
  1
the surface of the material, however these will not always be available and such details are left to the discretion and
 50
359.9999999988356194
  7
OD-ISOCP-17
  0
TEXT
  5
1DDE
  8
00-NOPRINT_TEXT
 62
     7
 10
1829.197626445034075
 20
927.9961365658714385
 30
0.0
 40
17.0
  1
experience of the fabricator.
 50
359.9999999988356194
  7
OD-ISOCP-17
  0
TEXT
  5
1DDF
  8
00-NOPRINT_TEXT
 62
     7
 10
1828.6695041518560174
 20
871.3294698992157237
 30
0.0
 40
17.0
  1
- It is strongly recommended that you perform some test cuts using the appropriate material prior to fabrication, to
 50
359.9999999988356194
  7
OD-ISOCP-17
  0
TEXT
  5
1DE0
  8
00-NOPRINT_TEXT
 62
     7
 10
1829.2856468253110052
 20
842.9961365658696195
 30
0.0
 40
17.0
  1
calibrate for suitable tolerance and bit size. A test sheet is included in this file. The test file includes some of the
 50
359.9999999988356194
  7
OD-ISOCP-17
  0
TEXT
  5
1DE1
  8
00-NOPRINT_TEXT
 62
     7
 10
1829.2146419459809294
 20
814.6628032325374988
 30
0.0
 40
17.0
  1
standard OpenDesk joints of different types in three varying degrees of tolerance to account for variations in material
 50
359.9999999988356194
  7
OD-ISOCP-17
  0
TEXT
  5
1DE2
  8
00-NOPRINT_TEXT
 62
     7
 10
1828.669504150128887
 20
786.3294698992151552
 30
0.0
 40
17.0
  1
thickness (+/- 1%%%). Please refer to the test sheet guidelines for more information.
 50
359.9999999988356194
  7
OD-ISOCP-17
  0
TEXT
  5
1DE3
  8
00-NOPRINT_TEXT
 62
     7
 10
1828.6695041489779214
 20
729.6628032325486402
 30
0.0
 40
17.0
  1
- It is highly recommended that you accurately measure the thickness of sheet you are using prior to fabrication, for
 50
359.9999999988356194
  7
OD-ISOCP-17
  0
TEXT
  5
1DE4
  8
00-NOPRINT_TEXT
 62
     7
 10
1829.1976264404279391
 20
701.329469899204355
 30
0.0
 40
17.0
  1
example using calipers at several points along the sheet. For best results ensure your sheet is adequately flat and
 50
359.9999999988356194
  7
OD-ISOCP-17
  0
TEXT
  5
1DE5
  8
00-NOPRINT_TEXT
 62
     7
 10
1828.6695041478260464
 20
672.9961365658818977
 30
0.0
 40
17.0
  1
free of any warping, knots, or imperfections.
 50
359.9999999988356194
  7
OD-ISOCP-17
  0
TEXT
  5
1DE6
  8
00-NOPRINT_TEXT
 62
     7
 10
1828.6695041466750808
 20
616.3294698992151552
 30
0.0
 40
17.0
  1
- When performing double-side cuts it is important to locate the flipped sheet exactly, to ensure cuts to both faces
 50
359.9999999988356194
  7
OD-ISOCP-17
  0
TEXT
  5
1DE7
  8
00-NOPRINT_TEXT
 62
     7
 10
1828.669504146098916
 20
587.9961365658816703
 30
0.0
 40
17.0
  1
align correctly. This can be achieved using a suitable jig or locating pucks/noggins according to your machine bed.
 50
359.9999999988356194
  7
OD-ISOCP-17
  0
TEXT
  5
1DE8
  8
00-NOPRINT_TEXT
 62
     7
 10
1828.6695041455229784
 20
559.6628032325484128
 30
0.0
 40
17.0
  1
OpenDesk drawings requiring double-side cutting include at least two no. indicative locations for locator pucks (shown
 50
359.9999999988356194
  7
OD-ISOCP-17
  0
TEXT
  5
1DE9
  8
00-NOPRINT_TEXT
 62
     7
 10
1828.6695041449470409
 20
531.3294698992150416
 30
0.0
 40
17.0
  1
as 60mm diameter circles at opposite corners of the sheet). For more information consult the guidance on
 50
359.9999999988356194
  7
OD-ISOCP-17
  0
TEXT
  5
1DEA
  8
00-NOPRINT_TEXT
 62
     7
 10
1828.6695041443720129
 20
502.9961365658817272
 30
0.0
 40
17.0
  1
www.opendesk.cc.
 50
359.9999999988356194
  7
OD-ISOCP-17
  0
TEXT
  5
1DEB
  8
00-NOPRINT_TEXT
 62
     7
 10
1828.6695041432210473
 20
446.3294698992149279
 30
0.0
 40
17.0
  1
- Inside cuts may produce offcut pieces that can vibrate out of place and interfere with cutting. It is recommended to
 50
359.9999999988356194
  7
OD-ISOCP-17
  0
TEXT
  5
1DEC
  8
00-NOPRINT_TEXT
 62
     7
 10
1829.2146419379200779
 20
417.9961365658704722
 30
0.0
 40
17.0
  1
secure such pieces to the bed prior to cutting for removal afterwards.
 50
359.9999999988356194
  7
OD-ISOCP-17
  0
TEXT
  5
1DED
  8
00-NOPRINT_TEXT
 62
     7
 10
1828.6695041414939169
 20
361.3294698992150984
 30
0.0
 40
17.0
  1
- Where designs include chamfering and pocketing it is strongly advisable to start with these cuts prior to full-depth
 50
359.9999999988356194
  7
OD-ISOCP-17
  0
TEXT
  5
1DEE
  8
00-NOPRINT_TEXT
 62
     7
 10
1829.2856468149479952
 20
332.9961365658692216
 30
0.0
 40
17.0
  1
cut-outs in order to avoid any slippage and misalignment in the material.
 50
359.9999999988356194
  7
OD-ISOCP-17
  0
TEXT
  5
1DEF
  8
00-NOPRINT_TEXT
 62
     7
 10
1828.6695041397670138
 20
276.3294698992149847
 30
0.0
 40
17.0
  1
- Each OpenDesk part can be cut using single of multi-pass cutting. Slower speeds and multiple passes will tend to
 50
359.9999999988356194
  7
OD-ISOCP-17
  0
TEXT
  5
1DF0
  8
00-NOPRINT_TEXT
 62
     7
 10
1828.6695041391910763
 20
247.9961365658818124
 30
0.0
 40
17.0
  1
produce higher quality cuts and reduce the need for sanding and finishing at the expense of cutting time. This is left to
 50
359.9999999988356194
  7
OD-ISOCP-17
  0
TEXT
  5
1DF1
  8
00-NOPRINT_TEXT
 62
     7
 10
1828.6695041386140019
 20
219.6628032325484128
 30
0.0
 40
17.0
  1
the discretion of the user based on their time and machine.
 50
359.9999999988356194
  7
OD-ISOCP-17
  0
TEXT
  5
2380
  8
00-NOPRINT_TEXT
 10
1513.3333252951190389
 20
4049.9196025049582204
 30
0.0
 40
25.0
  1
MIRROR LINE
  7
OD-SIMPLEX-25
  0
INSERT
  5
2423
  8
00-NOPRINT_TEXT
  2
*U1
 10
0.0
 20
0.0
 30
0.0
  0
POLYLINE
  5
2425
  8
TOP-FILLET-ONLINE_03MM
 66
     1
 10
0.0
 20
0.0
 30
0.0
 70
   128
  0
VERTEX
  5
2738
  8
TOP-FILLET-ONLINE_03MM
 10
809.9999919617856676
 20
3938.0000035629668673
 30
0.0
  0
VERTEX
  5
2739
  8
TOP-FILLET-ONLINE_03MM
 10
712.1315439617854963
 20
2300.9474145629669692
 30
0.0
 42
0.048703
  0
VERTEX
  5
273A
  8
TOP-FILLET-ONLINE_03MM
 10
714.3242929617858863
 20
2242.683327562966042
 30
0.0
  0
VERTEX
  5
273B
  8
TOP-FILLET-ONLINE_03MM
 10
809.9999919617856676
 20
1538.0000035629670947
 30
0.0
  0
SEQEND
  5
273C
  8
TOP-FILLET-ONLINE_03MM
  0
INSERT
  5
2438
  8
00-NOPRINT_TEXT
  2
*U2
 10
0.0
 20
0.0
 30
0.0
  0
INSERT
  5
2439
  8
00-NOPRINT_TEXT
  2
*U3
 10
0.0
 20
0.0
 30
0.0
  0
INSERT
  5
243A
  8
00-NOPRINT_TEXT
  2
*U4
 10
0.0
 20
0.0
 30
0.0
  0
INSERT
  5
243B
  8
00-NOPRINT_TEXT
  2
*U5
 10
0.0
 20
0.0
 30
0.0
  0
INSERT
  5
2460
  8
00-NOPRINT_TEXT
  2
*U6
 10
0.0
 20
0.0
 30
0.0
  0
INSERT
  5
2461
  8
00-NOPRINT_TEXT
  2
*U7
 10
0.0
 20
0.0
 30
0.0
  0
INSERT
  5
2462
  8
00-NOPRINT_TEXT
  2
*U8
 10
0.0
 20
0.0
 30
0.0
  0
INSERT
  5
2467
  8
00-NOPRINT_TEXT
  2
*U9
 10
0.0
 20
0.0
 30
0.0
  0
INSERT
  5
2468
  8
00-NOPRINT_TEXT
  2
*U10
 10
0.0
 20
0.0
 30
0.0
  0
POLYLINE
  5
2480
  8
REV-FILLET-ONLINE_03MM
 66
     1
 10
0.0
 20
0.0
 30
0.0
 70
   128
  0
VERTEX
  5
27C6
  8
REV-FILLET-ONLINE_03MM
 10
2449.9999919617857813
 20
3938.0000035629668673
 30
0.0
  0
VERTEX
  5
27C7
  8
REV-FILLET-ONLINE_03MM
 10
2547.8684399617868621
 20
2300.9474145629669692
 30
0.0
 42
-0.048703
  0
VERTEX
  5
27C8
  8
REV-FILLET-ONLINE_03MM
 10
2545.6756909617870406
 20
2242.683327562966042
 30
0.0
  0
VERTEX
  5
27C9
  8
REV-FILLET-ONLINE_03MM
 10
2449.9999919617857813
 20
1538.0000035629670947
 30
0.0
  0
SEQEND
  5
27CA
  8
REV-FILLET-ONLINE_03MM
  0
INSERT
  5
24F7
  8
00-NOPRINT_TEXT
  2
*U11
 10
0.0
 20
0.0
 30
0.0
  0
POLYLINE
  5
24F8
  8
TOP-FILLET-ONLINE_03MM
 66
     1
 10
0.0
 20
0.0
 30
0.0
 70
   128
  0
VERTEX
  5
27D4
  8
TOP-FILLET-ONLINE_03MM
 10
4049.9999919617857813
 20
3938.0000035629668673
 30
0.0
  0
VERTEX
  5
27D5
  8
TOP-FILLET-ONLINE_03MM
 10
3952.1315439617851553
 20
2300.9474145629687882
 30
0.0
 42
0.048703
  0
VERTEX
  5
27D6
  8
TOP-FILLET-ONLINE_03MM
 10
3954.3242929617858863
 20
2242.6833275629669515
 30
0.0
  0
VERTEX
  5
27D7
  8
TOP-FILLET-ONLINE_03MM
 10
4049.9999919617857813
 20
1538.0000035629670947
 30
0.0
  0
SEQEND
  5
27D8
  8
TOP-FILLET-ONLINE_03MM
  0
INSERT
  5
250B
  8
00-NOPRINT_TEXT
  2
*U12
 10
0.0
 20
0.0
 30
0.0
  0
INSERT
  5
250C
  8
00-NOPRINT_TEXT
  2
*U13
 10
0.0
 20
0.0
 30
0.0
  0
INSERT
  5
250D
  8
00-NOPRINT_TEXT
  2
*U14
 10
0.0
 20
0.0
 30
0.0
  0
INSERT
  5
250E
  8
00-NOPRINT_TEXT
  2
*U15
 10
0.0
 20
0.0
 30
0.0
  0
INSERT
  5
2533
  8
00-NOPRINT_TEXT
  2
*U16
 10
0.0
 20
0.0
 30
0.0
  0
INSERT
  5
2534
  8
00-NOPRINT_TEXT
  2
*U17
 10
0.0
 20
0.0
 30
0.0
  0
INSERT
  5
2535
  8
00-NOPRINT_TEXT
  2
*U18
 10
0.0
 20
0.0
 30
0.0
  0
INSERT
  5
253A
  8
00-NOPRINT_TEXT
  2
*U19
 10
0.0
 20
0.0
 30
0.0
  0
INSERT
  5
253B
  8
00-NOPRINT_TEXT
  2
*U20
 10
0.0
 20
0.0
 30
0.0
  0
INSERT
  5
25B0
  8
00-NOPRINT_TEXT
  2
*U21
 10
0.0
 20
0.0
 30
0.0
  0
INSERT
  5
25B1
  8
00-NOPRINT_TEXT
  2
*U22
 10
0.0
 20
0.0
 30
0.0
  0
INSERT
  5
25B2
  8
00-NOPRINT_TEXT
  2
*U23
 10
0.0
 20
0.0
 30
0.0
  0
INSERT
  5
25B3
  8
00-NOPRINT_TEXT
  2
*U24
 10
0.0
 20
0.0
 30
0.0
  0
INSERT
  5
25B4
  8
00-NOPRINT_TEXT
  2
*U25
 10
0.0
 20
0.0
 30
0.0
  0
INSERT
  5
25B5
  8
00-NOPRINT_TEXT
  2
*U26
 10
0.0
 20
0.0
 30
0.0
  0
INSERT
  5
25B6
  8
00-NOPRINT_TEXT
  2
*U27
 10
0.0
 20
0.0
 30
0.0
  0
INSERT
  5
25B7
  8
00-NOPRINT_TEXT
  2
*U28
 10
0.0
 20
0.0
 30
0.0
  0
INSERT
  5
25B8
  8
00-NOPRINT_TEXT
  2
*U29
 10
0.0
 20
0.0
 30
0.0
  0
INSERT
  5
25B9
  8
00-NOPRINT_TEXT
  2
*U30
 10
0.0
 20
0.0
 30
0.0
  0
INSERT
  5
25BA
  8
00-NOPRINT_TEXT
  2
*U31
 10
0.0
 20
0.0
 30
0.0
  0
INSERT
  5
25BB
  8
00-NOPRINT_TEXT
  2
*U32
 10
0.0
 20
0.0
 30
0.0
  0
LINE
  5
25C2
  8
00-NOPRINT_TEXT
 10
209.999991961785696
 20
3958.0000035629668673
 30
0.0
 11
130.5712376176890928
 21
3958.0000035629668673
 31
0.0
  0
INSERT
  5
25D6
  8
00-NOPRINT_TEXT
  2
*U33
 10
0.0
 20
0.0
 30
0.0
  0
INSERT
  5
25D7
  8
00-NOPRINT_TEXT
  2
*U34
 10
0.0
 20
0.0
 30
0.0
  0
INSERT
  5
25D8
  8
00-NOPRINT_TEXT
  2
*U35
 10
0.0
 20
0.0
 30
0.0
  0
INSERT
  5
25D9
  8
00-NOPRINT_TEXT
  2
*U36
 10
0.0
 20
0.0
 30
0.0
  0
INSERT
  5
25DA
  8
00-NOPRINT_TEXT
  2
*U37
 10
0.0
 20
0.0
 30
0.0
  0
INSERT
  5
25DB
  8
00-NOPRINT_TEXT
  2
*U38
 10
0.0
 20
0.0
 30
0.0
  0
INSERT
  5
25DC
  8
00-NOPRINT_TEXT
  2
*U39
 10
0.0
 20
0.0
 30
0.0
  0
INSERT
  5
25DD
  8
00-NOPRINT_TEXT
  2
*U40
 10
0.0
 20
0.0
 30
0.0
  0
INSERT
  5
25DE
  8
00-NOPRINT_TEXT
  2
*U41
 10
0.0
 20
0.0
 30
0.0
  0
INSERT
  5
25DF
  8
00-NOPRINT_TEXT
  2
*U42
 10
0.0
 20
0.0
 30
0.0
  0
INSERT
  5
25E0
  8
00-NOPRINT_TEXT
  2
*U43
 10
0.0
 20
0.0
 30
0.0
  0
INSERT
  5
25E1
  8
00-NOPRINT_TEXT
  2
*U44
 10
0.0
 20
0.0
 30
0.0
  0
ENDSEC
  0
EOF
