  0
SECTION
  2
HEADER
  9
$ACADVER
  1
AC1009
  9
$INSBASE
 10
0.0
 20
0.0
 30
0.0
  9
$EXTMIN
 10
-300.0000080382142187
 20
-299.9999964370350085
 30
0.0
  9
$EXTMAX
 10
5879.9999919617848718
 20
4158.0000036816436477
 30
0.0
  9
$LIMMIN
 10
0.0
 20
0.0
  9
$LIMMAX
 10
12.0
 20
9.0
  9
$ORTHOMODE
 70
     0
  9
$REGENMODE
 70
     1
  9
$FILLMODE
 70
     1
  9
$QTEXTMODE
 70
     0
  9
$MIRRTEXT
 70
     0
  9
$DRAGMODE
 70
     2
  9
$LTSCALE
 40
1.0
  9
$OSMODE
 70
  3583
  9
$ATTMODE
 70
     1
  9
$TEXTSIZE
 40
0.2
  9
$TRACEWID
 40
0.05
  9
$TEXTSTYLE
  7
STANDARD
  9
$CLAYER
  8
00-NOPRINT_TEXT
  9
$CELTYPE
  6
BYLAYER
  9
$CECOLOR
 62
   256
  9
$DIMSCALE
 40
1.0
  9
$DIMASZ
 40
0.18
  9
$DIMEXO
 40
0.0625
  9
$DIMDLI
 40
0.38
  9
$DIMRND
 40
0.0
  9
$DIMDLE
 40
0.0
  9
$DIMEXE
 40
0.18
  9
$DIMTP
 40
0.0
  9
$DIMTM
 40
0.0
  9
$DIMTXT
 40
0.18
  9
$DIMCEN
 40
0.09
  9
$DIMTSZ
 40
0.0
  9
$DIMTOL
 70
     0
  9
$DIMLIM
 70
     0
  9
$DIMTIH
 70
     1
  9
$DIMTOH
 70
     1
  9
$DIMSE1
 70
     0
  9
$DIMSE2
 70
     0
  9
$DIMTAD
 70
     0
  9
$DIMZIN
 70
     0
  9
$DIMBLK
  1

  9
$DIMASO
 70
     1
  9
$DIMSHO
 70
     1
  9
$DIMPOST
  1

  9
$DIMAPOST
  1

  9
$DIMALT
 70
     0
  9
$DIMALTD
 70
     2
  9
$DIMALTF
 40
25.3999999999999986
  9
$DIMLFAC
 40
1.0
  9
$DIMTOFL
 70
     0
  9
$DIMTVP
 40
0.0
  9
$DIMTIX
 70
     0
  9
$DIMSOXD
 70
     0
  9
$DIMSAH
 70
     0
  9
$DIMBLK1
  1

  9
$DIMBLK2
  1

  9
$DIMSTYLE
  2
STANDARD
  9
$DIMCLRD
 70
     0
  9
$DIMCLRE
 70
     0
  9
$DIMCLRT
 70
     0
  9
$DIMTFAC
 40
1.0
  9
$DIMGAP
 40
0.09
  9
$LUNITS
 70
     2
  9
$LUPREC
 70
     4
  9
$SKETCHINC
 40
0.1
  9
$FILLETRAD
 40
0.0
  9
$AUNITS
 70
     0
  9
$AUPREC
 70
     0
  9
$MENU
  1
.
  9
$ELEVATION
 40
0.0
  9
$PELEVATION
 40
0.0
  9
$THICKNESS
 40
0.0
  9
$LIMCHECK
 70
     0
  9
$BLIPMODE
 70
     0
  9
$CHAMFERA
 40
0.0
  9
$CHAMFERB
 40
0.0
  9
$SKPOLY
 70
     0
  9
$TDCREATE
 40
2457171.4036208679899573
  9
$TDUPDATE
 40
2457189.4855480208061635
  9
$TDINDWG
 40
0.0047355324
  9
$TDUSRTIMER
 40
0.0047349884
  9
$USRTIMER
 70
     1
  9
$ANGBASE
 50
0.0
  9
$ANGDIR
 70
     0
  9
$PDMODE
 70
     0
  9
$PDSIZE
 40
0.0
  9
$PLINEWID
 40
0.0
  9
$COORDS
 70
     1
  9
$SPLFRAME
 70
     0
  9
$SPLINETYPE
 70
     6
  9
$SPLINESEGS
 70
     8
  9
$ATTDIA
 70
     1
  9
$ATTREQ
 70
     1
  9
$HANDLING
 70
     1
  9
$HANDSEED
  5
2841
  9
$SURFTAB1
 70
     6
  9
$SURFTAB2
 70
     6
  9
$SURFTYPE
 70
     6
  9
$SURFU
 70
     6
  9
$SURFV
 70
     6
  9
$UCSNAME
  2

  9
$UCSORG
 10
0.0
 20
0.0
 30
0.0
  9
$UCSXDIR
 10
1.0
 20
0.0
 30
0.0
  9
$UCSYDIR
 10
0.0
 20
1.0
 30
0.0
  9
$PUCSNAME
  2

  9
$PUCSORG
 10
0.0
 20
0.0
 30
0.0
  9
$PUCSXDIR
 10
1.0
 20
0.0
 30
0.0
  9
$PUCSYDIR
 10
0.0
 20
1.0
 30
0.0
  9
$USERI1
 70
     0
  9
$USERI2
 70
     0
  9
$USERI3
 70
     0
  9
$USERI4
 70
     0
  9
$USERI5
 70
     0
  9
$USERR1
 40
0.0
  9
$USERR2
 40
0.0
  9
$USERR3
 40
0.0
  9
$USERR4
 40
0.0
  9
$USERR5
 40
0.0
  9
$WORLDVIEW
 70
     1
  9
$SHADEDGE
 70
     3
  9
$SHADEDIF
 70
    70
  9
$TILEMODE
 70
     1
  9
$MAXACTVP
 70
    64
  9
$PLIMCHECK
 70
     0
  9
$PEXTMIN
 10
0.0
 20
0.0
 30
0.0
  9
$PEXTMAX
 10
0.0
 20
0.0
 30
0.0
  9
$PLIMMIN
 10
0.0
 20
0.0
  9
$PLIMMAX
 10
12.0
 20
9.0
  9
$UNITMODE
 70
     0
  9
$VISRETAIN
 70
     1
  9
$PLINEGEN
 70
     0
  9
$PSLTSCALE
 70
     1
  0
ENDSEC
  0
SECTION
  2
TABLES
  0
TABLE
  2
VPORT
 70
     1
  0
VPORT
  2
*ACTIVE
 70
     0
 10
0.0
 20
0.0
 11
1.0
 21
1.0
 12
3494.1639400363260393
 22
2056.3585899867798616
 13
0.0
 23
0.0
 14
0.5
 24
0.5
 15
0.5
 25
0.5
 16
0.0
 26
0.0
 36
1.0
 17
0.0
 27
0.0
 37
0.0
 40
4254.8309269347446389
 41
1.540342298288508
 42
50.0
 43
0.0
 44
0.0
 50
0.0
 51
0.0
 71
     0
 72
  1000
 73
     1
 74
     3
 75
     0
 76
     1
 77
     0
 78
     0
  0
ENDTAB
  0
TABLE
  2
LTYPE
 70
     3
  0
LTYPE
  2
CONTINUOUS
 70
     0
  3
Solid line
 72
    65
 73
     0
 40
0.0
  0
LTYPE
  2
DGN_STYLE_5
 70
     0
  3
Dgn Style 5
 72
    65
 73
     2
 40
22.1794395642604414
 49
9.5054740989687616
 49
-12.6739654652916798
  0
ENDTAB
  0
TABLE
  2
LAYER
 70
     8
  0
LAYER
  2
0
 70
     0
 62
     7
  6
CONTINUOUS
  0
LAYER
  2
00-NOPRINT_TEXT
 70
     0
 62
     7
  6
CONTINUOUS
  0
LAYER
  2
00_NOPRINT_TOLERANCE
 70
     0
 62
     7
  6
DGN_STYLE_5
  0
LAYER
  2
BOARD_18MM-NOMINAL
 70
     0
 62
     3
  6
CONTINUOUS
  0
LAYER
  2
TOP-CUT-OUTSIDE_18MM
 70
     0
 62
   220
  6
CONTINUOUS
  0
LAYER
  2
TOP-HOLE-6MM-DIAM_05MM
 70
     0
 62
   220
  6
CONTINUOUS
  0
LAYER
  2
TOP-HOLE-6MM-DIAM_14MM
 70
     0
 62
   220
  6
CONTINUOUS
  0
LAYER
  2
TOP-HOLE-6MM-DIAM_18MM
 70
     0
 62
     3
  6
CONTINUOUS
  0
ENDTAB
  0
TABLE
  2
STYLE
 70
     8
  0
STYLE
  2
STANDARD
 70
     0
 40
0.0
 41
1.0
 50
0.0
 71
     0
 42
0.2
  3
txt
  4

  0
STYLE
  2
OD-SIMPLEX-20
 70
     0
 40
20.0
 41
1.0
 50
0.0
 71
     0
 42
20.0
  3
simplex.shx
  4

  0
STYLE
  2
OD-SIMPLEX-13
 70
     0
 40
13.0
 41
1.0
 50
0.0
 71
     0
 42
15.0
  3
simplex.shx
  4

  0
STYLE
  2
OD-SIMPLEX-25
 70
     0
 40
25.0
 41
1.0
 50
0.0
 71
     0
 42
25.0
  3
simplex.shx
  4

  0
STYLE
  2
OD-SIMPLEX-30
 70
     0
 40
30.0
 41
1.0
 50
0.0
 71
     0
 42
30.0
  3
simplex.shx
  4

  0
STYLE
  2
OD-ISOCP-17
 70
     0
 40
17.0
 41
1.0
 50
0.0
 71
     0
 42
17.0
  3
isocp.shx
  4

  0
STYLE
  2
ARIAL
 70
     0
 40
0.0
 41
1.0
 50
0.0
 71
     0
 42
1.8019799999999999
  3
txt
  4

  0
STYLE
  2
STYLE-ARIAL
 70
     0
 40
0.0
 41
1.0
 50
0.0
 71
     0
 42
0.2
  3
txt
  4

  0
ENDTAB
  0
TABLE
  2
VIEW
 70
     0
  0
ENDTAB
  0
TABLE
  2
UCS
 70
     0
  0
ENDTAB
  0
TABLE
  2
APPID
 70
    10
  0
APPID
  2
ACAD
 70
     0
  0
APPID
  2
ACADANNOTATIVE
 70
     0
  0
APPID
  2
ACADANNOPO
 70
     0
  0
APPID
  2
ACAD_DSTYLE_DIMJAG
 70
     0
  0
APPID
  2
ACAD_DSTYLE_DIMTALN
 70
     0
  0
APPID
  2
ACAD_MLEADERVER
 70
     0
  0
APPID
  2
ACAD_NAV_VCDISPLAY
 70
     0
  0
APPID
  2
ACAD_PSEXT
 70
     0
  0
APPID
  2
ACAECLAYERSTANDARD
 70
     0
  0
APPID
  2
ACAD_EXEMPT_FROM_CAD_STANDARDS
 70
     0
  0
ENDTAB
  0
TABLE
  2
DIMSTYLE
 70
     1
  0
DIMSTYLE
  2
STANDARD
 70
     0
  3

  4

  5

  6

  7

 40
1.0
 41
0.18
 42
0.0625
 43
0.38
 44
0.18
 45
0.0
 46
0.0
 47
0.0
 48
0.0
140
0.18
141
0.09
142
0.0
143
25.3999999999999986
144
1.0
145
0.0
146
1.0
147
0.09
 71
     0
 72
     0
 73
     1
 74
     1
 75
     0
 76
     0
 77
     0
 78
     0
170
     0
171
     2
172
     0
173
     0
174
     0
175
     0
176
     0
177
     0
178
     0
  0
ENDTAB
  0
ENDSEC
  0
SECTION
  2
BLOCKS
  0
BLOCK
  8
0
  2
$MODEL_SPACE
 70
     0
 10
0.0
 20
0.0
 30
0.0
  3
$MODEL_SPACE
  1

  0
ENDBLK
  5
69C
  8
0
  0
BLOCK
 67
     1
  8
0
  2
$PAPER_SPACE
 70
     0
 10
0.0
 20
0.0
 30
0.0
  3
$PAPER_SPACE
  1

  0
ENDBLK
  5
698
 67
     1
  8
0
  0
BLOCK
  8
0
  2
TERMINATOROPEN_0_5
 70
     0
 10
0.0
 20
0.0
 30
0.0
  3
TERMINATOROPEN_0_5
  1

  0
LINE
  5
23A6
  8
0
  6
BYBLOCK
 62
     0
 10
0.0
 20
0.0
 30
0.0
 11
-1.0
 21
0.0
 31
0.0
  0
LINE
  5
23A7
  8
0
  6
BYBLOCK
 62
     0
 10
0.0
 20
0.0
 30
0.0
 11
-1.0
 21
0.25
 31
0.0
  0
LINE
  5
23A8
  8
0
  6
BYBLOCK
 62
     0
 10
0.0
 20
0.0
 30
0.0
 11
-1.0
 21
-0.25
 31
0.0
  0
ENDBLK
  5
23A9
  8
0
  0
ENDSEC
  0
SECTION
  2
ENTITIES
  0
POLYLINE
  5
429
  8
00-NOPRINT_TEXT
 66
     1
 10
0.0
 20
0.0
 30
0.0
 70
   128
  0
VERTEX
  5
2579
  8
00-NOPRINT_TEXT
 10
-0.0000080382149577
 20
-299.9999964370350085
 30
0.0
  0
VERTEX
  5
257A
  8
00-NOPRINT_TEXT
 10
-0.0000080382142187
 20
0.0000035629665263
 30
0.0
  0
VERTEX
  5
257B
  8
00-NOPRINT_TEXT
 10
-300.0000080382142187
 20
0.0000035629676063
 30
0.0
  0
SEQEND
  5
257C
  8
00-NOPRINT_TEXT
  0
POLYLINE
  5
42A
  8
00-NOPRINT_TEXT
 66
     1
 10
0.0
 20
0.0
 30
0.0
 70
   129
  0
VERTEX
  5
257D
  8
00-NOPRINT_TEXT
 10
-0.0000079530767607
 20
4158.0000036816436477
 30
0.0
  0
VERTEX
  5
257E
  8
00-NOPRINT_TEXT
 10
5879.9999919617848718
 20
4158.0000035629673221
 30
0.0
  0
VERTEX
  5
257F
  8
00-NOPRINT_TEXT
 10
5879.9999918780185908
 20
0.0000034429233438
 30
0.0
  0
VERTEX
  5
2580
  8
00-NOPRINT_TEXT
 10
-0.0000080382142187
 20
0.0000035629668673
 30
0.0
  0
SEQEND
  5
2581
  8
00-NOPRINT_TEXT
  0
POLYLINE
  5
42B
  8
00_NOPRINT_TOLERANCE
 66
     1
 10
0.0
 20
0.0
 30
0.0
 70
   129
  0
VERTEX
  5
2582
  8
00_NOPRINT_TOLERANCE
 10
209.9999919617858097
 20
3958.0000035629668673
 30
0.0
  0
VERTEX
  5
2583
  8
00_NOPRINT_TOLERANCE
 10
1429.9999919617860087
 20
3958.0000035629668673
 30
0.0
  0
VERTEX
  5
2584
  8
00_NOPRINT_TOLERANCE
 10
1429.9999919617850992
 20
1518.0000035629680042
 30
0.0
  0
VERTEX
  5
2585
  8
00_NOPRINT_TOLERANCE
 10
209.9999919617850992
 20
1518.0000035629680042
 30
0.0
  0
SEQEND
  5
2586
  8
00_NOPRINT_TOLERANCE
  0
POLYLINE
  5
42C
  8
00_NOPRINT_TOLERANCE
 66
     1
 10
0.0
 20
0.0
 30
0.0
 70
   129
  0
VERTEX
  5
2587
  8
00_NOPRINT_TOLERANCE
 10
1829.9999919617860087
 20
3958.0000035629668673
 30
0.0
  0
VERTEX
  5
2588
  8
00_NOPRINT_TOLERANCE
 10
3049.9999919617848718
 20
3958.0000035629668673
 30
0.0
  0
VERTEX
  5
2589
  8
00_NOPRINT_TOLERANCE
 10
3049.9999919617848718
 20
1518.0000035629680042
 30
0.0
  0
VERTEX
  5
258A
  8
00_NOPRINT_TOLERANCE
 10
1829.9999919617839623
 20
1518.0000035629680042
 30
0.0
  0
SEQEND
  5
258B
  8
00_NOPRINT_TOLERANCE
  0
POLYLINE
  5
42D
  8
00_NOPRINT_TOLERANCE
 66
     1
 10
0.0
 20
0.0
 30
0.0
 70
   129
  0
VERTEX
  5
258C
  8
00_NOPRINT_TOLERANCE
 10
3449.9999919617839623
 20
3958.0000035629668673
 30
0.0
  0
VERTEX
  5
258D
  8
00_NOPRINT_TOLERANCE
 10
4669.9999919617848718
 20
3958.0000035629668673
 30
0.0
  0
VERTEX
  5
258E
  8
00_NOPRINT_TOLERANCE
 10
4669.9999919617848718
 20
1518.0000035629680042
 30
0.0
  0
VERTEX
  5
258F
  8
00_NOPRINT_TOLERANCE
 10
3449.9999919617839623
 20
1518.0000035629680042
 30
0.0
  0
SEQEND
  5
2590
  8
00_NOPRINT_TOLERANCE
  0
TEXT
  5
42E
  8
00-NOPRINT_TEXT
 62
     7
 10
3449.9999919613787824
 20
1217.4218676846790004
 30
0.0
 40
20.0
  1
SUMMARY TERMS AND CONDITIONS
 50
359.9999999988356194
  7
OD-SIMPLEX-20
 11
3449.9999919617857813
 21
1237.4218676846790004
 31
0.0
 73
     3
  0
TEXT
  5
42F
  8
00-NOPRINT_TEXT
 62
     7
 10
3449.9999919611750556
 20
1421.3199713536910167
 30
0.0
 40
30.0
  1
BOTH FACES
 50
359.9999999988356194
  7
OD-SIMPLEX-30
 11
3449.9999919617839623
 21
1451.3199713536910167
 31
0.0
 73
     3
  0
TEXT
  5
430
  8
00-NOPRINT_TEXT
 62
     7
 10
1829.9999919611759651
 20
1421.3199713536910167
 30
0.0
 40
30.0
  1
REVERSE FACE
 50
359.9999999988356194
  7
OD-SIMPLEX-30
 11
1829.9999919617860087
 21
1451.3199713536910167
 31
0.0
 73
     3
  0
TEXT
  5
431
  8
00-NOPRINT_TEXT
 62
     7
 10
209.9999919611755956
 20
1421.3199713536910167
 30
0.0
 40
30.0
  1
FRONT FACE
 50
359.9999999988356194
  7
OD-SIMPLEX-30
 11
209.9999919617852981
 21
1451.3199713536910167
 31
0.0
 73
     3
  0
TEXT
  5
432
  8
00-NOPRINT_TEXT
 62
     7
 10
1829.9999919613781003
 20
1217.4218676846790004
 30
0.0
 40
20.0
  1
FABRICATION GUIDELINES
 50
359.9999999988356194
  7
OD-SIMPLEX-20
 11
1829.9999919617839623
 21
1237.4218676846790004
 31
0.0
 73
     3
  0
TEXT
  5
433
  8
00-NOPRINT_TEXT
 62
     7
 10
209.9999919613788961
 20
1217.4218676846790004
 30
0.0
 40
20.0
  1
USING THIS DRAWING
 50
359.9999999988356194
  7
OD-SIMPLEX-20
 11
209.9999919617852981
 21
1237.4218676846790004
 31
0.0
 73
     3
  0
LINE
  5
435
  8
00_NOPRINT_TOLERANCE
 10
1629.9999919617860087
 20
1343.1924720806209734
 30
0.0
 11
1629.9999919617860087
 21
4008.0000035629659578
 31
0.0
  0
POLYLINE
  5
438
  8
BOARD_18MM-NOMINAL
 66
     1
 10
0.0
 20
0.0
 30
0.0
 70
   129
  0
VERTEX
  5
2591
  8
BOARD_18MM-NOMINAL
 10
209.999991961785696
 20
3958.0000035629668673
 30
0.0
  0
VERTEX
  5
2592
  8
BOARD_18MM-NOMINAL
 10
1429.9999919617860087
 20
3958.0000035629668673
 30
0.0
  0
VERTEX
  5
2593
  8
BOARD_18MM-NOMINAL
 10
1429.9999919617850992
 20
1518.0000035629670947
 30
0.0
  0
VERTEX
  5
2594
  8
BOARD_18MM-NOMINAL
 10
209.9999919617850139
 20
1518.0000035629680042
 30
0.0
  0
SEQEND
  5
2595
  8
BOARD_18MM-NOMINAL
  0
POLYLINE
  5
439
  8
BOARD_18MM-NOMINAL
 66
     1
 10
0.0
 20
0.0
 30
0.0
 70
   129
  0
VERTEX
  5
2596
  8
BOARD_18MM-NOMINAL
 10
1829.9999919617860087
 20
3958.0000035629668673
 30
0.0
  0
VERTEX
  5
2597
  8
BOARD_18MM-NOMINAL
 10
3049.9999919617848718
 20
3958.0000035629668673
 30
0.0
  0
VERTEX
  5
2598
  8
BOARD_18MM-NOMINAL
 10
3049.9999919617848718
 20
1518.0000035629670947
 30
0.0
  0
VERTEX
  5
2599
  8
BOARD_18MM-NOMINAL
 10
1829.9999919617839623
 20
1518.0000035629680042
 30
0.0
  0
SEQEND
  5
259A
  8
BOARD_18MM-NOMINAL
  0
POLYLINE
  5
43A
  8
BOARD_18MM-NOMINAL
 66
     1
 10
0.0
 20
0.0
 30
0.0
 70
   129
  0
VERTEX
  5
259B
  8
BOARD_18MM-NOMINAL
 10
3449.9999919617857813
 20
3958.0000035629668673
 30
0.0
  0
VERTEX
  5
259C
  8
BOARD_18MM-NOMINAL
 10
4669.9999919617848718
 20
3958.0000035629668673
 30
0.0
  0
VERTEX
  5
259D
  8
BOARD_18MM-NOMINAL
 10
4669.9999919617848718
 20
1518.0000035629670947
 30
0.0
  0
VERTEX
  5
259E
  8
BOARD_18MM-NOMINAL
 10
3449.9999919617839623
 20
1518.0000035629680042
 30
0.0
  0
SEQEND
  5
259F
  8
BOARD_18MM-NOMINAL
  0
POLYLINE
  5
43B
  8
00_NOPRINT_TOLERANCE
 66
     1
 10
0.0
 20
0.0
 30
0.0
 70
   129
  0
VERTEX
  5
25A0
  8
00_NOPRINT_TOLERANCE
 10
229.999991961786094
 20
3938.0000035629668673
 30
0.0
  0
VERTEX
  5
25A1
  8
00_NOPRINT_TOLERANCE
 10
1409.9999919617860087
 20
3938.0000035629668673
 30
0.0
  0
VERTEX
  5
25A2
  8
00_NOPRINT_TOLERANCE
 10
1409.9999919617850992
 20
1538.0000035629680042
 30
0.0
  0
VERTEX
  5
25A3
  8
00_NOPRINT_TOLERANCE
 10
229.9999919617852981
 20
1538.0000035629680042
 30
0.0
  0
SEQEND
  5
25A4
  8
00_NOPRINT_TOLERANCE
  0
POLYLINE
  5
43C
  8
00_NOPRINT_TOLERANCE
 66
     1
 10
0.0
 20
0.0
 30
0.0
 70
   129
  0
VERTEX
  5
25A5
  8
00_NOPRINT_TOLERANCE
 10
1849.9999919617860087
 20
3938.0000035629668673
 30
0.0
  0
VERTEX
  5
25A6
  8
00_NOPRINT_TOLERANCE
 10
3029.9999919617857813
 20
3938.0000035629668673
 30
0.0
  0
VERTEX
  5
25A7
  8
00_NOPRINT_TOLERANCE
 10
3029.9999919617848718
 20
1538.0000035629680042
 30
0.0
  0
VERTEX
  5
25A8
  8
00_NOPRINT_TOLERANCE
 10
1849.9999919617839623
 20
1538.0000035629680042
 30
0.0
  0
SEQEND
  5
25A9
  8
00_NOPRINT_TOLERANCE
  0
POLYLINE
  5
43D
  8
00_NOPRINT_TOLERANCE
 66
     1
 10
0.0
 20
0.0
 30
0.0
 70
   129
  0
VERTEX
  5
25AA
  8
00_NOPRINT_TOLERANCE
 10
3469.9999919617848718
 20
3938.0000035629668673
 30
0.0
  0
VERTEX
  5
25AB
  8
00_NOPRINT_TOLERANCE
 10
4649.9999919617839623
 20
3938.0000035629668673
 30
0.0
  0
VERTEX
  5
25AC
  8
00_NOPRINT_TOLERANCE
 10
4649.9999919617839623
 20
1538.0000035629680042
 30
0.0
  0
VERTEX
  5
25AD
  8
00_NOPRINT_TOLERANCE
 10
3469.9999919617848718
 20
1538.0000035629680042
 30
0.0
  0
SEQEND
  5
25AE
  8
00_NOPRINT_TOLERANCE
  0
POLYLINE
  5
440
  8
00-NOPRINT_TEXT
 66
     1
 10
0.0
 20
0.0
 30
0.0
 70
     1
  0
VERTEX
  5
25AF
  8
00-NOPRINT_TEXT
 10
4939.3332682307118375
 20
3897.9594623703410434
 30
0.0
  0
VERTEX
  5
25B0
  8
00-NOPRINT_TEXT
 10
4939.3332682307118375
 20
3870.1453865532198506
 30
0.0
 42
-1.0
  0
VERTEX
  5
25B1
  8
00-NOPRINT_TEXT
 10
4902.9370169292160426
 20
3870.1453865532198506
 30
0.0
  0
VERTEX
  5
25B2
  8
00-NOPRINT_TEXT
 10
4902.9370169292160426
 20
3897.9594623703410434
 30
0.0
 42
-1.0
  0
SEQEND
  5
25B3
  8
00-NOPRINT_TEXT
  0
POLYLINE
  5
441
  8
00-NOPRINT_TEXT
 66
     1
 10
0.0
 20
0.0
 30
0.0
 70
     1
  0
VERTEX
  5
25B4
  8
00-NOPRINT_TEXT
 10
4894.9999919614865576
 20
3897.9594623703410434
 30
0.0
  0
VERTEX
  5
25B5
  8
00-NOPRINT_TEXT
 10
4894.9999919614865576
 20
3870.1453865532198506
 30
0.0
 42
1.0
  0
VERTEX
  5
25B6
  8
00-NOPRINT_TEXT
 10
4947.2702931984376846
 20
3870.1453865532198506
 30
0.0
  0
VERTEX
  5
25B7
  8
00-NOPRINT_TEXT
 10
4947.2702931984376846
 20
3897.9594623703410434
 30
0.0
 42
1.0
  0
SEQEND
  5
25B8
  8
00-NOPRINT_TEXT
  0
POLYLINE
  5
442
  8
00-NOPRINT_TEXT
 66
     1
 10
0.0
 20
0.0
 30
0.0
 70
     1
  0
VERTEX
  5
25B9
  8
00-NOPRINT_TEXT
 10
4981.3051193940373196
 20
3897.9594623703410434
 30
0.0
 42
-1.0
  0
VERTEX
  5
25BA
  8
00-NOPRINT_TEXT
 10
5017.701370695535843
 20
3897.9594623703410434
 30
0.0
  0
VERTEX
  5
25BB
  8
00-NOPRINT_TEXT
 10
5017.701370695535843
 20
3870.1453865532198506
 30
0.0
 42
-1.0
  0
VERTEX
  5
25BC
  8
00-NOPRINT_TEXT
 10
4981.3051193940373196
 20
3870.1453865532198506
 30
0.0
  0
SEQEND
  5
25BD
  8
00-NOPRINT_TEXT
  0
POLYLINE
  5
443
  8
00-NOPRINT_TEXT
 66
     1
 10
0.0
 20
0.0
 30
0.0
 70
     1
  0
VERTEX
  5
25BE
  8
00-NOPRINT_TEXT
 10
5025.6383956632607806
 20
3897.9594623703410434
 30
0.0
 42
0.6627114835317702
  0
VERTEX
  5
25BF
  8
00-NOPRINT_TEXT
 10
4981.3051193940373196
 20
3916.7177757446847863
 30
0.0
  0
VERTEX
  5
25C0
  8
00-NOPRINT_TEXT
 10
4981.3051193940373196
 20
3920.1261005049527739
 30
0.0
 42
1.0
  0
VERTEX
  5
25C1
  8
00-NOPRINT_TEXT
 10
4973.3680944263096535
 20
3920.1261005049527739
 30
0.0
  0
VERTEX
  5
25C2
  8
00-NOPRINT_TEXT
 10
4973.3680944263096535
 20
3814.0733578384611064
 30
0.0
 42
1.0
  0
VERTEX
  5
25C3
  8
00-NOPRINT_TEXT
 10
4981.3051193940373196
 20
3814.0733578384611064
 30
0.0
  0
VERTEX
  5
25C4
  8
00-NOPRINT_TEXT
 10
4981.3051193940373196
 20
3851.3870731788770172
 30
0.0
 42
0.66271148353177
  0
VERTEX
  5
25C5
  8
00-NOPRINT_TEXT
 10
5025.6383956632607806
 20
3870.1453865532198506
 30
0.0
  0
SEQEND
  5
25C6
  8
00-NOPRINT_TEXT
  0
POLYLINE
  5
444
  8
00-NOPRINT_TEXT
 66
     1
 10
0.0
 20
0.0
 30
0.0
 70
     1
  0
VERTEX
  5
25C7
  8
00-NOPRINT_TEXT
 10
5094.3586884248143178
 20
3888.0737504709832137
 30
0.0
  0
VERTEX
  5
25C8
  8
00-NOPRINT_TEXT
 10
5057.9624371233176134
 20
3888.0737504709832137
 30
0.0
  0
VERTEX
  5
25C9
  8
00-NOPRINT_TEXT
 10
5057.9624371233176134
 20
3897.9594623703410434
 30
0.0
 42
-1.0
  0
VERTEX
  5
25CA
  8
00-NOPRINT_TEXT
 10
5094.3586884248143178
 20
3897.9594623703410434
 30
0.0
  0
SEQEND
  5
25CB
  8
00-NOPRINT_TEXT
  0
POLYLINE
  5
445
  8
00-NOPRINT_TEXT
 66
     1
 10
0.0
 20
0.0
 30
0.0
 70
     1
  0
VERTEX
  5
25CC
  8
00-NOPRINT_TEXT
 10
5102.2957133925428934
 20
3897.9594623703410434
 30
0.0
 42
1.0
  0
VERTEX
  5
25CD
  8
00-NOPRINT_TEXT
 10
5050.0254121555917663
 20
3897.9594623703410434
 30
0.0
  0
VERTEX
  5
25CE
  8
00-NOPRINT_TEXT
 10
5050.0254121555917663
 20
3870.1453865532198506
 30
0.0
 42
0.8392911393501922
  0
VERTEX
  5
25CF
  8
00-NOPRINT_TEXT
 10
5100.7235862969628215
 20
3861.2176783778718345
 30
0.0
 42
1.0
  0
VERTEX
  5
25D0
  8
00-NOPRINT_TEXT
 10
5093.2640030777911306
 20
3863.9289481052510382
 30
0.0
 42
-0.8392911393501705
  0
VERTEX
  5
25D1
  8
00-NOPRINT_TEXT
 10
5057.9624371233176134
 20
3870.1453865532198506
 30
0.0
  0
VERTEX
  5
25D2
  8
00-NOPRINT_TEXT
 10
5057.9624371233176134
 20
3880.1367255032560024
 30
0.0
  0
VERTEX
  5
25D3
  8
00-NOPRINT_TEXT
 10
5098.3272009086813341
 20
3880.1367255032560024
 30
0.0
 42
0.4142135623730951
  0
VERTEX
  5
25D4
  8
00-NOPRINT_TEXT
 10
5102.2957133925428934
 20
3884.105237987118926
 30
0.0
  0
SEQEND
  5
25D5
  8
00-NOPRINT_TEXT
  0
POLYLINE
  5
446
  8
00-NOPRINT_TEXT
 66
     1
 10
0.0
 20
0.0
 30
0.0
 70
     1
  0
VERTEX
  5
25D6
  8
00-NOPRINT_TEXT
 10
5178.8547922217458108
 20
3897.9594623703410434
 30
0.0
 42
0.6627114835317652
  0
VERTEX
  5
25D7
  8
00-NOPRINT_TEXT
 10
5134.5215159525250783
 20
3916.7177757446847863
 30
0.0
  0
VERTEX
  5
25D8
  8
00-NOPRINT_TEXT
 10
5134.5215159525250783
 20
3920.1261005049527739
 30
0.0
 42
1.0
  0
VERTEX
  5
25D9
  8
00-NOPRINT_TEXT
 10
5126.5844909847937743
 20
3920.1261005049527739
 30
0.0
  0
VERTEX
  5
25DA
  8
00-NOPRINT_TEXT
 10
5126.5844909847992312
 20
3847.9787484186081201
 30
0.0
 42
1.0
  0
VERTEX
  5
25DB
  8
00-NOPRINT_TEXT
 10
5134.5215159525250783
 20
3847.9787484186081201
 30
0.0
  0
VERTEX
  5
25DC
  8
00-NOPRINT_TEXT
 10
5134.5215159525250783
 20
3897.9594623703410434
 30
0.0
 42
-1.0
  0
VERTEX
  5
25DD
  8
00-NOPRINT_TEXT
 10
5170.9177672540208732
 20
3897.9594623703410434
 30
0.0
  0
VERTEX
  5
25DE
  8
00-NOPRINT_TEXT
 10
5170.9177672540208732
 20
3847.9787484186081201
 30
0.0
 42
1.0
  0
VERTEX
  5
25DF
  8
00-NOPRINT_TEXT
 10
5178.8547922217458108
 20
3847.9787484186081201
 30
0.0
  0
SEQEND
  5
25E0
  8
00-NOPRINT_TEXT
  0
POLYLINE
  5
447
  8
00-NOPRINT_TEXT
 66
     1
 10
0.0
 20
0.0
 30
0.0
 70
     1
  0
VERTEX
  5
25E1
  8
00-NOPRINT_TEXT
 10
5247.3578534747266531
 20
3870.1453865532198506
 30
0.0
 42
-1.0
  0
VERTEX
  5
25E2
  8
00-NOPRINT_TEXT
 10
5210.9616021732317677
 20
3870.1453865532198506
 30
0.0
  0
VERTEX
  5
25E3
  8
00-NOPRINT_TEXT
 10
5210.9616021732317677
 20
3897.9594623703410434
 30
0.0
 42
-1.0
  0
VERTEX
  5
25E4
  8
00-NOPRINT_TEXT
 10
5247.3578534747266531
 20
3897.9594623703410434
 30
0.0
  0
SEQEND
  5
25E5
  8
00-NOPRINT_TEXT
  0
POLYLINE
  5
448
  8
00-NOPRINT_TEXT
 66
     1
 10
0.0
 20
0.0
 30
0.0
 70
     1
  0
VERTEX
  5
25E6
  8
00-NOPRINT_TEXT
 10
5203.0245772055050111
 20
3870.1453865532198506
 30
0.0
 42
0.6627114835317702
  0
VERTEX
  5
25E7
  8
00-NOPRINT_TEXT
 10
5247.3578534747266531
 20
3851.3870731788802004
 30
0.0
  0
VERTEX
  5
25E8
  8
00-NOPRINT_TEXT
 10
5247.3578534747266531
 20
3847.9787484186081201
 30
0.0
 42
1.0
  0
VERTEX
  5
25E9
  8
00-NOPRINT_TEXT
 10
5255.2948784424570476
 20
3847.9787484186081201
 30
0.0
  0
VERTEX
  5
25EA
  8
00-NOPRINT_TEXT
 10
5255.2948784424570476
 20
3954.0314910851011518
 30
0.0
 42
1.0
  0
VERTEX
  5
25EB
  8
00-NOPRINT_TEXT
 10
5247.3578534747266531
 20
3954.0314910851011518
 30
0.0
  0
VERTEX
  5
25EC
  8
00-NOPRINT_TEXT
 10
5247.3578534747266531
 20
3916.7177757446847863
 30
0.0
 42
0.66271148353177
  0
VERTEX
  5
25ED
  8
00-NOPRINT_TEXT
 10
5203.0245772055050111
 20
3897.9594623703410434
 30
0.0
  0
SEQEND
  5
25EE
  8
00-NOPRINT_TEXT
  0
POLYLINE
  5
449
  8
00-NOPRINT_TEXT
 66
     1
 10
0.0
 20
0.0
 30
0.0
 70
     1
  0
VERTEX
  5
25EF
  8
00-NOPRINT_TEXT
 10
5328.979133291256403
 20
3888.0737504709818495
 30
0.0
  0
VERTEX
  5
25F0
  8
00-NOPRINT_TEXT
 10
5292.5828819897624271
 20
3888.0737504709818495
 30
0.0
  0
VERTEX
  5
25F1
  8
00-NOPRINT_TEXT
 10
5292.5828819897624271
 20
3897.9594623703410434
 30
0.0
 42
-1.0
  0
VERTEX
  5
25F2
  8
00-NOPRINT_TEXT
 10
5328.979133291256403
 20
3897.9594623703410434
 30
0.0
  0
SEQEND
  5
25F3
  8
00-NOPRINT_TEXT
  0
POLYLINE
  5
44A
  8
00-NOPRINT_TEXT
 66
     1
 10
0.0
 20
0.0
 30
0.0
 70
     1
  0
VERTEX
  5
25F4
  8
00-NOPRINT_TEXT
 10
5336.9161582589858881
 20
3897.9594623703410434
 30
0.0
 42
1.0
  0
VERTEX
  5
25F5
  8
00-NOPRINT_TEXT
 10
5284.6458570220320325
 20
3897.9594623703410434
 30
0.0
  0
VERTEX
  5
25F6
  8
00-NOPRINT_TEXT
 10
5284.6458570220320325
 20
3870.1453865532198506
 30
0.0
 42
0.8392911393501922
  0
VERTEX
  5
25F7
  8
00-NOPRINT_TEXT
 10
5335.3440311634012687
 20
3861.2176783778718345
 30
0.0
 42
1.0
  0
VERTEX
  5
25F8
  8
00-NOPRINT_TEXT
 10
5327.8844479442323063
 20
3863.9289481052510382
 30
0.0
 42
-0.8392911393501705
  0
VERTEX
  5
25F9
  8
00-NOPRINT_TEXT
 10
5292.5828819897624271
 20
3870.1453865532198506
 30
0.0
  0
VERTEX
  5
25FA
  8
00-NOPRINT_TEXT
 10
5292.5828819897624271
 20
3880.1367255032560024
 30
0.0
  0
VERTEX
  5
25FB
  8
00-NOPRINT_TEXT
 10
5332.9476457751197813
 20
3880.1367255032560024
 30
0.0
 42
0.4142135623730951
  0
VERTEX
  5
25FC
  8
00-NOPRINT_TEXT
 10
5336.9161582589858881
 20
3884.105237987118926
 30
0.0
  0
SEQEND
  5
25FD
  8
00-NOPRINT_TEXT
  0
POLYLINE
  5
44B
  8
00-NOPRINT_TEXT
 66
     1
 10
0.0
 20
0.0
 30
0.0
 70
     1
  0
VERTEX
  5
25FE
  8
00-NOPRINT_TEXT
 10
5400.1285132225566485
 20
3920.2893834302049072
 30
0.0
 42
0.0457067288387406
  0
VERTEX
  5
25FF
  8
00-NOPRINT_TEXT
 10
5395.628790641071646
 20
3922.2674790911951277
 30
0.0
 42
0.0401941578067522
  0
VERTEX
  5
2600
  8
00-NOPRINT_TEXT
 10
5390.8478918614537179
 20
3923.4500194078009372
 30
0.0
 42
0.0405559563879494
  0
VERTEX
  5
2601
  8
00-NOPRINT_TEXT
 10
5383.5423332690006646
 20
3924.0435634918940195
 30
0.0
 42
0.0949732897878055
  0
VERTEX
  5
2602
  8
00-NOPRINT_TEXT
 10
5371.6581127932358868
 20
3921.7656498496289714
 30
0.0
 42
0.0708722825397191
  0
VERTEX
  5
2603
  8
00-NOPRINT_TEXT
 10
5365.7916634459315901
 20
3918.4046798866438621
 30
0.0
 42
0.0483457727037197
  0
VERTEX
  5
2604
  8
00-NOPRINT_TEXT
 10
5363.1313176086541716
 20
3915.8842936239962
 30
0.0
 42
0.0448797265187802
  0
VERTEX
  5
2605
  8
00-NOPRINT_TEXT
 10
5361.1372008794287467
 20
3913.1267333648279418
 30
0.0
 42
0.0722728677010993
  0
VERTEX
  5
2606
  8
00-NOPRINT_TEXT
 10
5359.3755176375998417
 20
3908.589206151622875
 30
0.0
 42
0.3093075497333693
  0
VERTEX
  5
2607
  8
00-NOPRINT_TEXT
 10
5366.9296201926390495
 20
3889.3833541836270342
 30
0.0
 42
0.0534583832098243
  0
VERTEX
  5
2608
  8
00-NOPRINT_TEXT
 10
5371.9836974554718836
 20
3886.6927895646222169
 30
0.0
 42
0.0412448156230092
  0
VERTEX
  5
2609
  8
00-NOPRINT_TEXT
 10
5379.0511158641156726
 20
3884.5070644719489792
 30
0.0
 42
-0.0058632209555069
  0
VERTEX
  5
260A
  8
00-NOPRINT_TEXT
 10
5387.4222927966529824
 20
3882.5538868000840012
 30
0.0
 42
-0.0307734774359857
  0
VERTEX
  5
260B
  8
00-NOPRINT_TEXT
 10
5394.6865816407116654
 20
3880.2870659140189673
 30
0.0
 42
-0.1326074700036995
  0
VERTEX
  5
260C
  8
00-NOPRINT_TEXT
 10
5400.8510786259193992
 20
3875.8143183299312113
 30
0.0
 42
-0.0934082332813141
  0
VERTEX
  5
260D
  8
00-NOPRINT_TEXT
 10
5402.4268842722503905
 20
3872.8823707330379875
 30
0.0
 42
-0.1484702512325273
  0
VERTEX
  5
260E
  8
00-NOPRINT_TEXT
 10
5402.5506585601979168
 20
3862.6551927899758994
 30
0.0
 42
-0.2016386478785572
  0
VERTEX
  5
260F
  8
00-NOPRINT_TEXT
 10
5396.4765847785547521
 20
3855.1535405913059549
 30
0.0
 42
-0.2228311772947458
  0
VERTEX
  5
2610
  8
00-NOPRINT_TEXT
 10
5373.2113489942003071
 20
3853.902293027667838
 30
0.0
 42
-0.1906174759338407
  0
VERTEX
  5
2611
  8
00-NOPRINT_TEXT
 10
5363.276513999198869
 20
3863.3729715307767947
 30
0.0
 42
1.0
  0
VERTEX
  5
2612
  8
00-NOPRINT_TEXT
 10
5356.0706462562147863
 20
3860.0455347682041065
 30
0.0
 42
0.1906174759338448
  0
VERTEX
  5
2613
  8
00-NOPRINT_TEXT
 10
5370.2322316075869821
 20
3846.5455801112129848
 30
0.0
 42
0.2228311772947499
  0
VERTEX
  5
2614
  8
00-NOPRINT_TEXT
 10
5400.2275508304983305
 20
3848.1587840540491925
 30
0.0
 42
0.2016386478785569
  0
VERTEX
  5
2615
  8
00-NOPRINT_TEXT
 10
5410.1726623444610595
 20
3860.4412768812239847
 30
0.0
 42
0.1484702512325262
  0
VERTEX
  5
2616
  8
00-NOPRINT_TEXT
 10
5409.9930756617159204
 20
3875.2801015762070165
 30
0.0
 42
0.0934082332813456
  0
VERTEX
  5
2617
  8
00-NOPRINT_TEXT
 10
5407.0254822015085665
 20
3880.80161276921217
 30
0.0
 42
0.1326074700036619
  0
VERTEX
  5
2618
  8
00-NOPRINT_TEXT
 10
5397.5122988260973216
 20
3887.7040523456198571
 30
0.0
 42
0.0307734774359815
  0
VERTEX
  5
2619
  8
00-NOPRINT_TEXT
 10
5389.3162465463519766
 20
3890.2616299543651621
 30
0.0
 42
0.0058632209555075
  0
VERTEX
  5
261A
  8
00-NOPRINT_TEXT
 10
5380.7637986138552151
 20
3892.2571020936070454
 30
0.0
 42
-0.0412448156229785
  0
VERTEX
  5
261B
  8
00-NOPRINT_TEXT
 10
5374.9452400271102306
 20
3894.0565950301879639
 30
0.0
 42
-0.0534583832108002
  0
VERTEX
  5
261C
  8
00-NOPRINT_TEXT
 10
5371.3850328292692211
 20
3895.9518900612579273
 30
0.0
 42
-0.3052584999940819
  0
VERTEX
  5
261D
  8
00-NOPRINT_TEXT
 10
5367.0776322581887143
 20
3906.6610364952448435
 30
0.0
 42
-0.0741895556533406
  0
VERTEX
  5
261E
  8
00-NOPRINT_TEXT
 10
5368.0049925047260331
 20
3909.1463797343080842
 30
0.0
 42
-0.042878157842419
  0
VERTEX
  5
261F
  8
00-NOPRINT_TEXT
 10
5369.120395216849829
 20
3910.6759047424579876
 30
0.0
 42
-0.0483457727037104
  0
VERTEX
  5
2620
  8
00-NOPRINT_TEXT
 10
5370.6690966593623671
 20
3912.143129712220798
 30
0.0
 42
-0.0708722825397227
  0
VERTEX
  5
2621
  8
00-NOPRINT_TEXT
 10
5374.5929543269367059
 20
3914.3911620362000576
 30
0.0
 42
-0.0949732897878214
  0
VERTEX
  5
2622
  8
00-NOPRINT_TEXT
 10
5383.5423332690006646
 20
3916.1065385241668082
 30
0.0
 42
-0.0405559563879528
  0
VERTEX
  5
2623
  8
00-NOPRINT_TEXT
 10
5389.5666532834629834
 20
3915.6170893656899352
 30
0.0
 42
-0.0401941578067489
  0
VERTEX
  5
2624
  8
00-NOPRINT_TEXT
 10
5393.1107933477023835
 20
3914.7404574379170299
 30
0.0
 42
-0.0457067288387209
  0
VERTEX
  5
2625
  8
00-NOPRINT_TEXT
 10
5396.284876158231782
 20
3913.3451182094568139
 30
0.0
 42
-0.0622018130379019
  0
VERTEX
  5
2626
  8
00-NOPRINT_TEXT
 10
5400.0914643484029511
 20
3910.5710286188609643
 30
0.0
 42
1.0
  0
VERTEX
  5
2627
  8
00-NOPRINT_TEXT
 10
5405.5249038841029687
 20
3916.3567092313937792
 30
0.0
 42
0.0622018130379014
  0
SEQEND
  5
2628
  8
00-NOPRINT_TEXT
  0
POLYLINE
  5
44C
  8
00-NOPRINT_TEXT
 66
     1
 10
0.0
 20
0.0
 30
0.0
 70
     1
  0
VERTEX
  5
2629
  8
00-NOPRINT_TEXT
 10
5459.1272857825470055
 20
3886.0372136933829097
 30
0.0
  0
VERTEX
  5
262A
  8
00-NOPRINT_TEXT
 10
5482.0932627423380836
 20
3846.0039934842311595
 30
0.0
 42
1.0
  0
VERTEX
  5
262B
  8
00-NOPRINT_TEXT
 10
5488.9778641930397498
 20
3849.9535033529859902
 30
0.0
  0
VERTEX
  5
262C
  8
00-NOPRINT_TEXT
 10
5464.8140578731554342
 20
3892.0747238518520135
 30
0.0
  0
VERTEX
  5
262D
  8
00-NOPRINT_TEXT
 10
5487.9002636962650286
 20
3916.5847973974100569
 30
0.0
 42
1.0
  0
VERTEX
  5
262E
  8
00-NOPRINT_TEXT
 10
5482.1226286269320553
 20
3922.0267913650591254
 30
0.0
  0
VERTEX
  5
262F
  8
00-NOPRINT_TEXT
 10
5444.3696851479862744
 20
3881.9453926146447884
 30
0.0
  0
VERTEX
  5
2630
  8
00-NOPRINT_TEXT
 10
5444.3696851479862744
 20
3954.0314910851011518
 30
0.0
 42
1.0
  0
VERTEX
  5
2631
  8
00-NOPRINT_TEXT
 10
5436.4326601802558798
 20
3954.0314910851011518
 30
0.0
  0
VERTEX
  5
2632
  8
00-NOPRINT_TEXT
 10
5436.4326601802558798
 20
3847.9787484186081201
 30
0.0
 42
1.0
  0
VERTEX
  5
2633
  8
00-NOPRINT_TEXT
 10
5444.3696851479862744
 20
3847.9787484186081201
 30
0.0
  0
VERTEX
  5
2634
  8
00-NOPRINT_TEXT
 10
5444.3696851479862744
 20
3870.3694214333390846
 30
0.0
  0
SEQEND
  5
2635
  8
00-NOPRINT_TEXT
  0
CIRCLE
  5
44D
  8
00-NOPRINT_TEXT
 10
5582.8952110701593483
 20
3901.0051197518550907
 30
0.0
 40
56.9948838171099865
  0
POLYLINE
  5
44E
  8
00-NOPRINT_TEXT
 66
     1
 10
0.0
 20
0.0
 30
0.0
 70
     1
  0
VERTEX
  5
2636
  8
00-NOPRINT_TEXT
 10
5553.6691109275488998
 20
3909.5830420167549164
 30
0.0
  0
VERTEX
  5
2637
  8
00-NOPRINT_TEXT
 10
5553.6691109275488998
 20
3887.4493152264249147
 30
0.0
  0
VERTEX
  5
2638
  8
00-NOPRINT_TEXT
 10
5568.7636821238138509
 20
3903.5063226800971279
 30
0.0
  0
SEQEND
  5
2639
  8
00-NOPRINT_TEXT
  0
POLYLINE
  5
44F
  8
00-NOPRINT_TEXT
 66
     1
 10
0.0
 20
0.0
 30
0.0
 70
     1
  0
VERTEX
  5
263A
  8
00-NOPRINT_TEXT
 10
5595.229848176248197
 20
3870.7179399259171078
 30
0.0
  0
VERTEX
  5
263B
  8
00-NOPRINT_TEXT
 10
5611.5422534614108372
 20
3888.0704310861901831
 30
0.0
  0
VERTEX
  5
263C
  8
00-NOPRINT_TEXT
 10
5611.5422534614108372
 20
3912.4405969836539043
 30
0.0
  0
VERTEX
  5
263D
  8
00-NOPRINT_TEXT
 10
5595.229848176248197
 20
3895.088105823380829
 30
0.0
  0
SEQEND
  5
263E
  8
00-NOPRINT_TEXT
  0
POLYLINE
  5
450
  8
00-NOPRINT_TEXT
 66
     1
 10
0.0
 20
0.0
 30
0.0
 70
     1
  0
VERTEX
  5
263F
  8
00-NOPRINT_TEXT
 10
5592.6300359427959847
 20
3898.3450090206902132
 30
0.0
  0
VERTEX
  5
2640
  8
00-NOPRINT_TEXT
 10
5610.0349055015985869
 20
3916.859620439741775
 30
0.0
  0
VERTEX
  5
2641
  8
00-NOPRINT_TEXT
 10
5572.5813284461646617
 20
3931.937549647565902
 30
0.0
  0
VERTEX
  5
2642
  8
00-NOPRINT_TEXT
 10
5555.1764588873602406
 20
3913.4229382285179781
 30
0.0
  0
SEQEND
  5
2643
  8
00-NOPRINT_TEXT
  0
POLYLINE
  5
451
  8
00-NOPRINT_TEXT
 66
     1
 10
0.0
 20
0.0
 30
0.0
 70
     1
  0
VERTEX
  5
2644
  8
00-NOPRINT_TEXT
 10
5615.1075020614061941
 20
3885.8405208873577976
 30
0.0
 42
0.1908976533707676
  0
VERTEX
  5
2645
  8
00-NOPRINT_TEXT
 10
5615.6672534614117467
 20
3887.2531966800361261
 30
0.0
  0
VERTEX
  5
2646
  8
00-NOPRINT_TEXT
 10
5615.6672534614117467
 20
3917.6458431382170602
 30
0.0
 42
0.3060715845518373
  0
VERTEX
  5
2647
  8
00-NOPRINT_TEXT
 10
5614.374994434776454
 20
3919.5591217621899887
 30
0.0
  0
VERTEX
  5
2648
  8
00-NOPRINT_TEXT
 10
5572.8142571860798853
 20
3936.2904970626968861
 30
0.0
 42
0.3090648432082206
  0
VERTEX
  5
2649
  8
00-NOPRINT_TEXT
 10
5570.54126761272164
 20
3935.7898942314009219
 30
0.0
  0
VERTEX
  5
264A
  8
00-NOPRINT_TEXT
 10
5550.1038623275562713
 20
3914.0493913227201119
 30
0.0
 42
0.1908976533707673
  0
VERTEX
  5
264B
  8
00-NOPRINT_TEXT
 10
5549.5441109275479903
 20
3912.636715530040874
 30
0.0
  0
VERTEX
  5
264C
  8
00-NOPRINT_TEXT
 10
5549.5441109275479903
 20
3882.2440690718622136
 30
0.0
 42
0.6794054420538282
  0
VERTEX
  5
264D
  8
00-NOPRINT_TEXT
 10
5553.1093595275442567
 20
3880.8313932791838852
 30
0.0
  0
VERTEX
  5
264E
  8
00-NOPRINT_TEXT
 10
5572.870842317071947
 20
3901.8528765874170858
 30
0.0
  0
VERTEX
  5
264F
  8
00-NOPRINT_TEXT
 10
5591.1048481762472875
 20
3894.5122946955270891
 30
0.0
  0
VERTEX
  5
2650
  8
00-NOPRINT_TEXT
 10
5591.1048481762472875
 20
3865.5126937713530424
 30
0.0
 42
0.6794054420538282
  0
VERTEX
  5
2651
  8
00-NOPRINT_TEXT
 10
5594.6700967762408254
 20
3864.1000179786751687
 30
0.0
  0
SEQEND
  5
2652
  8
00-NOPRINT_TEXT
  0
CIRCLE
  5
452
  8
00-NOPRINT_TEXT
 10
5582.8952110701593483
 20
3901.0051197518550907
 30
0.0
 40
52.8698838171095673
  0
TEXT
  5
453
  8
00-NOPRINT_TEXT
 10
4894.9999919607053016
 20
3472.370575336255115
 30
0.0
 40
20.0
  1
DESIGNERS:
  7
OD-SIMPLEX-20
  0
TEXT
  5
454
  8
00-NOPRINT_TEXT
 10
4894.9999919607053016
 20
3437.370575336255115
 30
0.0
 40
13.0
  1
Joni Steiner, Nick Ierodiaconou
  7
OD-SIMPLEX-13
  0
TEXT
  5
455
  8
00-NOPRINT_TEXT
 10
4894.9999919607053016
 20
3352.3613369287850219
 30
0.0
 40
20.0
  1
DESIGNED FOR CNC-MILLING:
  7
OD-SIMPLEX-20
  0
TEXT
  5
456
  8
00-NOPRINT_TEXT
 10
4894.9999919607053016
 20
3317.3613369287850219
 30
0.0
 40
13.0
  1
Recommended drill bit (unless otherwise noted):
  7
OD-SIMPLEX-13
  0
TEXT
  5
457
  8
00-NOPRINT_TEXT
 10
4894.9999919607053016
 20
3287.3613369287850219
 30
0.0
 40
13.0
  1
Recommended sheet size (unless otherwise noted):
  7
OD-SIMPLEX-13
  0
TEXT
  5
458
  8
00-NOPRINT_TEXT
 10
4894.9999919607053016
 20
3257.3613369287850219
 30
0.0
 40
13.0
  1
Recommended sheet thickness (unless otherwise noted):
  7
OD-SIMPLEX-13
  0
TEXT
  5
459
  8
00-NOPRINT_TEXT
 10
4894.9999919607053016
 20
3172.3520985213158383
 30
0.0
 40
20.0
  1
PUBLISHED UNDER CREATIVE COMMONS:
  7
OD-SIMPLEX-20
  0
TEXT
  5
45A
  8
00-NOPRINT_TEXT
 10
4894.9999919607053016
 20
3137.3520985213172025
 30
0.0
 40
13.0
  1
For full license terms visit: www.opendesk.cc/license
  7
OD-SIMPLEX-13
  0
TEXT
  5
45B
  8
00-NOPRINT_TEXT
 10
4894.9999919607053016
 20
3052.342860113848019
 30
0.0
 40
20.0
  1
TERMS AND CONDITIONS APPLY:
  7
OD-SIMPLEX-20
  0
TEXT
  5
45C
  8
00-NOPRINT_TEXT
 10
4894.9999919607053016
 20
3017.3428601138489284
 30
0.0
 40
13.0
  1
Saving this file serves as acceptance of the Opendesk terms of use 
  7
OD-SIMPLEX-13
  0
TEXT
  5
45D
  8
00-NOPRINT_TEXT
 10
4894.9999919607053016
 20
3557.3798137437220248
 30
0.0
 40
20.0
  1
License:
  7
OD-SIMPLEX-20
  0
TEXT
  5
45E
  8
00-NOPRINT_TEXT
 10
4894.9999919607053016
 20
3607.6586264080460751
 30
0.0
 40
20.0
  1
Version:
  7
OD-SIMPLEX-20
  0
TEXT
  5
45F
  8
00-NOPRINT_TEXT
 10
5214.8256156221550555
 20
3607.6586264080460751
 30
0.0
 40
20.0
  1
Published:
  7
OD-SIMPLEX-20
  0
TEXT
  5
460
  8
00-NOPRINT_TEXT
 10
4894.9999919607053016
 20
3720.9374390723678516
 30
0.0
 40
30.0
  1
DESIGN:
  7
OD-SIMPLEX-30
  0
TEXT
  5
461
  8
00-NOPRINT_TEXT
 10
4914.9999919607053016
 20
2932.3336217063788354
 30
0.0
 40
20.0
  1
Sheet:
  7
OD-SIMPLEX-20
  0
TEXT
  5
462
  8
00-NOPRINT_TEXT
 10
5234.8256156221550555
 20
2932.3336217063788354
 30
0.0
 40
20.0
  1
Date:
  7
OD-SIMPLEX-20
  0
LINE
  5
463
  8
00-NOPRINT_TEXT
 62
     7
 10
4894.9999919589108686
 20
2973.0119614156269563
 30
0.0
 11
4894.9999919563042567
 21
2911.2724010253618872
 31
0.0
  0
LINE
  5
464
  8
00-NOPRINT_TEXT
 62
     7
 10
5214.8256156221550555
 20
2911.2771827146698342
 30
0.0
 11
5214.8256156221550555
 21
2973.0119614143218314
 31
0.0
  0
TEXT
  5
465
  8
00-NOPRINT_TEXT
 10
5087.7900020109491379
 20
3720.9374390723678516
 30
0.0
 40
30.0
  1
DESK
  7
OD-SIMPLEX-30
  0
TEXT
  5
466
  8
00-NOPRINT_TEXT
 10
5024.1516535246191779
 20
3557.3798137437220248
 30
0.0
 40
20.0
  1
CC-BY
  7
OD-SIMPLEX-20
  0
TEXT
  5
467
  8
00-NOPRINT_TEXT
 10
5024.1516535246191779
 20
3607.6586264080460751
 30
0.0
 40
20.0
  1
02
  7
OD-SIMPLEX-20
  0
TEXT
  5
468
  8
00-NOPRINT_TEXT
 10
5374.12231047154728
 20
3607.6586264080460751
 30
0.0
 40
20.0
  1
15/06/15
  7
OD-SIMPLEX-20
  0
TEXT
  5
469
  8
00-NOPRINT_TEXT
 10
5020.5841245432011419
 20
2932.3336217063788354
 30
0.0
 40
20.0
  1
03
  7
OD-SIMPLEX-20
  0
TEXT
  5
46A
  8
00-NOPRINT_TEXT
 10
5324.4121445067121385
 20
2932.3336217063788354
 30
0.0
 40
20.0
  1
15/06/15
  7
OD-SIMPLEX-20
  0
TEXT
  5
46B
  8
00-NOPRINT_TEXT
 10
4894.9999919607053016
 20
3657.9374390723692159
 30
0.0
 40
20.0
  1
Range:
  7
OD-SIMPLEX-20
  0
TEXT
  5
46C
  8
00-NOPRINT_TEXT
 10
5005.2953057284566967
 20
3657.9374390723692159
 30
0.0
 40
20.0
  1
LEAN
  7
OD-SIMPLEX-20
  0
TEXT
  5
46D
  8
00-NOPRINT_TEXT
 10
5395.4743162317636234
 20
3317.3613369287850219
 30
0.0
 40
13.0
  1
$BIT-SIZE
  7
OD-SIMPLEX-13
  0
TEXT
  5
46E
  8
00-NOPRINT_TEXT
 10
5478.7792790709081601
 20
3257.3613369287850219
 30
0.0
 40
13.0
  1
$TH-NOMINAL
  7
OD-SIMPLEX-13
  0
TEXT
  5
46F
  8
00-NOPRINT_TEXT
 10
5424.921540806953999
 20
3287.3613369287850219
 30
0.0
 40
13.0
  1
2440mm x 1220mm
  7
OD-SIMPLEX-13
  0
TEXT
  5
1DAA
  8
00-NOPRINT_TEXT
 62
     7
 10
207.4499919614397072
 20
1154.6628032325379536
 30
0.0
 40
17.0
  1
OpenDesk products are designed to be CNC-milled from standard sheet materials such as plywood. This file as provided
 50
359.9999999988356194
  7
OD-ISOCP-17
  0
TEXT
  5
1DAB
  8
00-NOPRINT_TEXT
 62
     7
 10
207.4499919608639971
 20
1126.3294698992040139
 30
0.0
 40
17.0
  1
is mastered for use with the recommended sheet material specification, sheet sizes and thicknesses, and bit sizes
 50
359.9999999988356194
  7
OD-ISOCP-17
  0
TEXT
  5
1DAC
  8
00-NOPRINT_TEXT
 62
     7
 10
207.4499919602882017
 20
1097.9961365658709838
 30
0.0
 40
17.0
  1
provided, however the exact materials being used, tolerances, drill bits, and other local considerations are at the
 50
359.9999999988356194
  7
OD-ISOCP-17
  0
TEXT
  5
1DAD
  8
00-NOPRINT_TEXT
 62
     7
 10
208.0661346337423936
 20
1069.6628032325249933
 30
0.0
 40
17.0
  1
discretion of the end user (maker). If you are working with variations on these you may need to reposition and nest
 50
359.9999999988356194
  7
OD-ISOCP-17
  0
TEXT
  5
1DAE
  8
00-NOPRINT_TEXT
 62
     7
 10
207.4499919591366108
 20
1041.3294698992049234
 30
0.0
 40
17.0
  1
parts within your own sheet frames accordingly, and take account of any changes in tolerance particularly on joints,
 50
359.9999999988356194
  7
OD-ISOCP-17
  0
TEXT
  5
1DAF
  8
00-NOPRINT_TEXT
 62
     7
 10
207.449991958560787
 20
1012.9961365658709838
 30
0.0
 40
17.0
  1
tabs, and slots prior to cutting.
 50
359.9999999988356194
  7
OD-ISOCP-17
  0
TEXT
  5
1DB0
  8
00-NOPRINT_TEXT
 62
     7
 10
207.4499919574093099
 20
956.329469899204696
 30
0.0
 40
17.0
  1
All OpenDesk drawings are drawn in 'Top' projection, and all vectors are arranged into suitably named layers describing
 50
359.9999999988356194
  7
OD-ISOCP-17
  0
TEXT
  5
1DB1
  8
00-NOPRINT_TEXT
 62
     7
 10
207.449991956833486
 20
927.9961365658714385
 30
0.0
 40
17.0
  1
the type and depth of cut required. All such cut depths are assumed to be measured from the top (maximum z-index)
 50
359.9999999988356194
  7
OD-ISOCP-17
  0
TEXT
  5
1DB2
  8
00-NOPRINT_TEXT
 62
     7
 10
207.9951297515333124
 20
899.6628032325266986
 30
0.0
 40
17.0
  1
surface of the material. For example the layer 'POCKET_14MM_INSIDE' describes a pocketting inside-line cut of depth
 50
359.9999999988356194
  7
OD-ISOCP-17
  0
TEXT
  5
1DB3
  8
00-NOPRINT_TEXT
 62
     7
 10
207.4499919556818952
 20
871.329469899204355
 30
0.0
 40
17.0
  1
14mm from the top surface of the material.*
 50
359.9999999988356194
  7
OD-ISOCP-17
  0
TEXT
  5
1DB4
  8
00-NOPRINT_TEXT
 62
     7
 10
207.4499919545303044
 20
814.6628032325377262
 30
0.0
 40
17.0
  1
All OpenDesk drawings are provided in dxf format. After importing into your CNC-machine's CAM software you will need
 50
359.9999999988356194
  7
OD-ISOCP-17
  0
TEXT
  5
1DB5
  8
00-NOPRINT_TEXT
 62
     7
 10
207.449991953954509
 20
786.329469899204355
 30
0.0
 40
17.0
  1
to ensure that all vectors are visible and all polylines are closed where necessary. A pdf version of the drawing is
 50
359.9999999988356194
  7
OD-ISOCP-17
  0
TEXT
  5
1DB6
  8
00-NOPRINT_TEXT
 62
     7
 10
207.4499919533787136
 20
757.9961365658712111
 30
0.0
 40
17.0
  1
provided with each download for reference.
 50
359.9999999988356194
  7
OD-ISOCP-17
  0
TEXT
  5
1DB7
  8
00-NOPRINT_TEXT
 62
     7
 10
207.4499919522270943
 20
701.329469899204355
 30
0.0
 40
17.0
  1
Layers with names beginning '00_NOPRINT' should not be milled. For convenience you can turn these layers off or
 50
359.9999999988356194
  7
OD-ISOCP-17
  0
TEXT
  5
1DB8
  8
00-NOPRINT_TEXT
 62
     7
 10
208.0661346256812863
 20
672.9961365658582508
 30
0.0
 40
17.0
  1
delete their elements before setting up your CAM software.
 50
359.9999999988356194
  7
OD-ISOCP-17
  0
TEXT
  5
1DB9
  8
00-NOPRINT_TEXT
 62
     7
 10
207.4499919504997081
 20
616.3294698992041276
 30
0.0
 40
17.0
  1
Most OpenDesk products require some combination of 'inside cuts', and 'outside cuts', and in some instances 'on-line
 50
359.9999999988356194
  7
OD-ISOCP-17
  0
TEXT
  5
1DBA
  8
00-NOPRINT_TEXT
 62
     7
 10
208.0661346239539
 20
587.9961365658583645
 30
0.0
 40
17.0
  1
cuts', 'pocketing', or 'chamfering'. Some OpenDesk products require double-side cutting (ie cutting to both front and
 50
359.9999999988356194
  7
OD-ISOCP-17
  0
TEXT
  5
1DBB
  8
00-NOPRINT_TEXT
 62
     7
 10
207.4499919493480888
 20
559.6628032325374988
 30
0.0
 40
17.0
  1
reverse faces of a single sheet). As a result each sheet is drawn in 'Front Face', 'Reverse Face', and 'Both Faces'
 50
359.9999999988356194
  7
OD-ISOCP-17
  0
TEXT
  5
1DBC
  8
00-NOPRINT_TEXT
 62
     7
 10
207.8020734767895021
 20
531.3294698991969653
 30
0.0
 40
17.0
  1
layouts, with corresponding layers and vectors in each for you to choose your preferred setup according to your
 50
359.9999999988356194
  7
OD-ISOCP-17
  0
TEXT
  5
1DBD
  8
00-NOPRINT_TEXT
 62
     7
 10
208.2421753862350897
 20
502.9961365658546129
 30
0.0
 40
17.0
  1
CNC-software and machine.
 50
359.9999999988356194
  7
OD-ISOCP-17
  0
TEXT
  5
1DBE
  8
00-NOPRINT_TEXT
 62
     7
 10
207.4499919470447935
 20
446.3294698992040139
 30
0.0
 40
17.0
  1
A minimum of 15mm tolerance is left between parts on OpenDesk sheets when nested. This should be sufficient for most
 50
359.9999999988356194
  7
OD-ISOCP-17
  0
TEXT
  5
1DBF
  8
00-NOPRINT_TEXT
 62
     7
 10
207.4499919464691118
 20
417.9961365658708132
 30
0.0
 40
17.0
  1
bit diameters.
 50
359.9999999988356194
  7
OD-ISOCP-17
  0
TEXT
  5
1DC0
  8
00-NOPRINT_TEXT
 62
     7
 10
224.4499919453176062
 20
361.3294698988585765
 30
0.0
 40
17.0
  1
*      Such a pocketed may be accompanied by a corresponding second line in, for example, 'POCKET_14MM_OUTSIDE',
 50
359.9999999988356194
  7
OD-ISOCP-17
  0
TEXT
  5
1DC1
  8
00-NOPRINT_TEXT
 62
     7
 10
276.0661346187716845
 20
332.996136564476501
 30
0.0
 40
17.0
  1
describing the limits of the associated pocket.
 50
359.9999999988356194
  7
OD-ISOCP-17
  0
TEXT
  5
1DC4
  8
00-NOPRINT_TEXT
 62
     7
 10
3448.4713334248540377
 20
1154.6628032325379536
 30
0.0
 40
17.0
  1
This file represents the latest version of an open source product, designed to be CNC-milled from standard sheet
 50
359.9999999988356194
  7
OD-ISOCP-17
  0
TEXT
  5
1DC5
  8
00-NOPRINT_TEXT
 62
     7
 10
3448.4713334242778728
 20
1126.3294698992040139
 30
0.0
 40
17.0
  1
materials. Whilst OpenDesk make every effort to provide fully prototyped and tested designs, it is the responsiblity of
 50
359.9999999988356194
  7
OD-ISOCP-17
  0
TEXT
  5
1DC6
  8
00-NOPRINT_TEXT
 62
     7
 10
3448.4713334237021627
 20
1097.9961365658709838
 30
0.0
 40
17.0
  1
the end user (maker) to check file contents prior to fabrication, and ensure suitable due diligence and reasonable skill
 50
359.9999999988356194
  7
OD-ISOCP-17
  0
TEXT
  5
1DC7
  8
00-NOPRINT_TEXT
 62
     7
 10
3448.4713334231269073
 20
1069.6628032325370441
 30
0.0
 40
17.0
  1
and care in fabrication and assembly.
 50
359.9999999988356194
  7
OD-ISOCP-17
  0
TEXT
  5
1DC8
  8
00-NOPRINT_TEXT
 62
     7
 10
3448.4713334219750323
 20
1012.9961365658709838
 30
0.0
 40
17.0
  1
All OpenDesk designs are open source and provided as is. OpenDesk cannot accept any liability for any error or
 50
359.9999999988356194
  7
OD-ISOCP-17
  0
TEXT
  5
1DC9
  8
00-NOPRINT_TEXT
 62
     7
 10
3448.4713334213988674
 20
984.6628032325378399
 30
0.0
 40
17.0
  1
ommission in the information contained herein. OpenDesk accepts no design liability, and provides no guarantee of
 50
359.9999999988356194
  7
OD-ISOCP-17
  0
TEXT
  5
1DCA
  8
00-NOPRINT_TEXT
 62
     7
 10
3449.0874760948540825
 20
956.3294698991920768
 30
0.0
 40
17.0
  1
quality or warranty of fitness for purpose on any open product in the OpenDesk library.
 50
359.9999999988356194
  7
OD-ISOCP-17
  0
TEXT
  5
1DCB
  8
00-NOPRINT_TEXT
 62
     7
 10
3448.4713334196721917
 20
899.6628032325379536
 30
0.0
 40
17.0
  1
By using this file you agree to the following:
 50
359.9999999988356194
  7
OD-ISOCP-17
  0
TEXT
  5
1DCC
  8
00-NOPRINT_TEXT
 62
     7
 10
3448.4713334185212261
 20
842.9961365658712111
 30
0.0
 40
17.0
  1
- You expressly agree to hold harmless all OpenDesk designers or employees for any property damage, personal injury,
 50
359.9999999988356194
  7
OD-ISOCP-17
  0
TEXT
  5
1DCD
  8
00-NOPRINT_TEXT
 62
     7
 10
3449.087476091975077
 20
814.6628032325253344
 30
0.0
 40
17.0
  1
death, fudiciary loss, or any other loss or damage arising out of the use of this digital file and its contents, or
 50
359.9999999988356194
  7
OD-ISOCP-17
  0
TEXT
  5
1DCE
  8
00-NOPRINT_TEXT
 62
     7
 10
3449.0164712126461382
 20
786.3294698991933274
 30
0.0
 40
17.0
  1
subsequent physical products fabricated from the information contained herein.
 50
359.9999999988356194
  7
OD-ISOCP-17
  0
TEXT
  5
1DCF
  8
00-NOPRINT_TEXT
 62
     7
 10
3448.4713334162179308
 20
729.6628032325377262
 30
0.0
 40
17.0
  1
- You agree that the information provided in this file is to be used at your own risk, without any guarantee of quality
 50
359.9999999988356194
  7
OD-ISOCP-17
  0
TEXT
  5
1DD0
  8
00-NOPRINT_TEXT
 62
     7
 10
3448.4713334156431301
 20
701.329469899204355
 30
0.0
 40
17.0
  1
or warranty expressly made.
 50
359.9999999988356194
  7
OD-ISOCP-17
  0
TEXT
  5
1DD1
  8
00-NOPRINT_TEXT
 62
     7
 10
3448.4713334144908004
 20
644.6628032325376125
 30
0.0
 40
17.0
  1
- You agree to indemnify OpenDesk, its designers and employees against any damages, losses, obligations, liabilities,
 50
359.9999999988356194
  7
OD-ISOCP-17
  0
TEXT
  5
1DD2
  8
00-NOPRINT_TEXT
 62
     7
 10
3449.087476087945106
 20
616.3294698991917357
 30
0.0
 40
17.0
  1
costs and expenses arising from the use of OpenDesk designs or any derivative designs permitted under the associated
 50
359.9999999988356194
  7
OD-ISOCP-17
  0
TEXT
  5
1DD3
  8
00-NOPRINT_TEXT
 62
     7
 10
3448.8234149413569867
 20
587.9961365658635941
 30
0.0
 40
17.0
  1
license of use.
 50
359.9999999988356194
  7
OD-ISOCP-17
  0
TEXT
  5
1DD4
  8
00-NOPRINT_TEXT
 62
     7
 10
3448.4713334116131591
 20
502.9961365658705859
 30
0.0
 40
17.0
  1
We hope you enjoy your OpenDesk product! Please feel free to notify us of any errors or omissions, share back any
 50
359.9999999988356194
  7
OD-ISOCP-17
  0
TEXT
  5
1DD5
  8
00-NOPRINT_TEXT
 62
     7
 10
3448.4713334110369942
 20
474.6628032325373283
 30
0.0
 40
17.0
  1
feedback or developments on this design, or ask a question by emailing us on hello@opendesk.cc.
 50
359.9999999988356194
  7
OD-ISOCP-17
  0
TEXT
  5
1DD6
  8
00-NOPRINT_TEXT
 62
     7
 10
3448.4713334098851192
 20
417.9961365658708132
 30
0.0
 40
17.0
  1
Welcome to the industrial revolution and thanks for trailblazing!
 50
359.9999999988356194
  7
OD-ISOCP-17
  0
TEXT
  5
1DD7
  8
00-NOPRINT_TEXT
 62
     7
 10
1828.6695041576128915
 20
1154.662803232547958
 30
0.0
 40
17.0
  1
Before starting to cut your product please take account of the following guidelines. These reflect our personal
 50
359.9999999988356194
  7
OD-ISOCP-17
  0
TEXT
  5
1DD8
  8
00-NOPRINT_TEXT
 62
     7
 10
1828.6695041570380909
 20
1126.3294698992149279
 30
0.0
 40
17.0
  1
research and learning and are by no means comprehensive. Please let us know if you have any recommendations for
 50
359.9999999988356194
  7
OD-ISOCP-17
  0
TEXT
  5
1DD9
  8
00-NOPRINT_TEXT
 62
     7
 10
1828.669504156461926
 20
1097.9961365658818977
 30
0.0
 40
17.0
  1
improved standards, and/or cutting methods:
 50
359.9999999988356194
  7
OD-ISOCP-17
  0
TEXT
  5
1DDA
  8
00-NOPRINT_TEXT
 62
     7
 10
1828.6695041553100509
 20
1041.3294698992140184
 30
0.0
 40
17.0
  1
- Every CNC-machine is slightly different, you should follow your machine manufacturer's guidelines for best practice,
 50
359.9999999988356194
  7
OD-ISOCP-17
  0
TEXT
  5
1DDB
  8
00-NOPRINT_TEXT
 62
     7
 10
1828.6695041547350229
 20
1012.9961365658820114
 30
0.0
 40
17.0
  1
and consult your supplier for suitable drill bits and other recommendations. In our experience the best quality finish is
 50
359.9999999988356194
  7
OD-ISOCP-17
  0
TEXT
  5
1DDC
  8
00-NOPRINT_TEXT
 62
     7
 10
1828.6695041541590854
 20
984.6628032325487538
 30
0.0
 40
17.0
  1
achieved using a suitable vacuum bed to prevent material slippage, and a compression cutter to prevent splintering of
 50
359.9999999988356194
  7
OD-ISOCP-17
  0
TEXT
  5
1DDD
  8
00-NOPRINT_TEXT
 62
     7
 10
1828.6695041535829205
 20
956.3294698992154963
 30
0.0
 40
17.0
  1
the surface of the material, however these will not always be available and such details are left to the discretion and
 50
359.9999999988356194
  7
OD-ISOCP-17
  0
TEXT
  5
1DDE
  8
00-NOPRINT_TEXT
 62
     7
 10
1829.197626445034075
 20
927.9961365658714385
 30
0.0
 40
17.0
  1
experience of the fabricator.
 50
359.9999999988356194
  7
OD-ISOCP-17
  0
TEXT
  5
1DDF
  8
00-NOPRINT_TEXT
 62
     7
 10
1828.6695041518560174
 20
871.3294698992157237
 30
0.0
 40
17.0
  1
- It is strongly recommended that you perform some test cuts using the appropriate material prior to fabrication, to
 50
359.9999999988356194
  7
OD-ISOCP-17
  0
TEXT
  5
1DE0
  8
00-NOPRINT_TEXT
 62
     7
 10
1829.2856468253110052
 20
842.9961365658696195
 30
0.0
 40
17.0
  1
calibrate for suitable tolerance and bit size. A test sheet is included in this file. The test file includes some of the
 50
359.9999999988356194
  7
OD-ISOCP-17
  0
TEXT
  5
1DE1
  8
00-NOPRINT_TEXT
 62
     7
 10
1829.2146419459809294
 20
814.6628032325374988
 30
0.0
 40
17.0
  1
standard OpenDesk joints of different types in three varying degrees of tolerance to account for variations in material
 50
359.9999999988356194
  7
OD-ISOCP-17
  0
TEXT
  5
1DE2
  8
00-NOPRINT_TEXT
 62
     7
 10
1828.669504150128887
 20
786.3294698992151552
 30
0.0
 40
17.0
  1
thickness (+/- 1%%%). Please refer to the test sheet guidelines for more information.
 50
359.9999999988356194
  7
OD-ISOCP-17
  0
TEXT
  5
1DE3
  8
00-NOPRINT_TEXT
 62
     7
 10
1828.6695041489779214
 20
729.6628032325486402
 30
0.0
 40
17.0
  1
- It is highly recommended that you accurately measure the thickness of sheet you are using prior to fabrication, for
 50
359.9999999988356194
  7
OD-ISOCP-17
  0
TEXT
  5
1DE4
  8
00-NOPRINT_TEXT
 62
     7
 10
1829.1976264404279391
 20
701.329469899204355
 30
0.0
 40
17.0
  1
example using calipers at several points along the sheet. For best results ensure your sheet is adequately flat and
 50
359.9999999988356194
  7
OD-ISOCP-17
  0
TEXT
  5
1DE5
  8
00-NOPRINT_TEXT
 62
     7
 10
1828.6695041478260464
 20
672.9961365658818977
 30
0.0
 40
17.0
  1
free of any warping, knots, or imperfections.
 50
359.9999999988356194
  7
OD-ISOCP-17
  0
TEXT
  5
1DE6
  8
00-NOPRINT_TEXT
 62
     7
 10
1828.6695041466750808
 20
616.3294698992151552
 30
0.0
 40
17.0
  1
- When performing double-side cuts it is important to locate the flipped sheet exactly, to ensure cuts to both faces
 50
359.9999999988356194
  7
OD-ISOCP-17
  0
TEXT
  5
1DE7
  8
00-NOPRINT_TEXT
 62
     7
 10
1828.669504146098916
 20
587.9961365658816703
 30
0.0
 40
17.0
  1
align correctly. This can be achieved using a suitable jig or locating pucks/noggins according to your machine bed.
 50
359.9999999988356194
  7
OD-ISOCP-17
  0
TEXT
  5
1DE8
  8
00-NOPRINT_TEXT
 62
     7
 10
1828.6695041455229784
 20
559.6628032325484128
 30
0.0
 40
17.0
  1
OpenDesk drawings requiring double-side cutting include at least two no. indicative locations for locator pucks (shown
 50
359.9999999988356194
  7
OD-ISOCP-17
  0
TEXT
  5
1DE9
  8
00-NOPRINT_TEXT
 62
     7
 10
1828.6695041449470409
 20
531.3294698992150416
 30
0.0
 40
17.0
  1
as 60mm diameter circles at opposite corners of the sheet). For more information consult the guidance on
 50
359.9999999988356194
  7
OD-ISOCP-17
  0
TEXT
  5
1DEA
  8
00-NOPRINT_TEXT
 62
     7
 10
1828.6695041443720129
 20
502.9961365658817272
 30
0.0
 40
17.0
  1
www.opendesk.cc.
 50
359.9999999988356194
  7
OD-ISOCP-17
  0
TEXT
  5
1DEB
  8
00-NOPRINT_TEXT
 62
     7
 10
1828.6695041432210473
 20
446.3294698992149279
 30
0.0
 40
17.0
  1
- Inside cuts may produce offcut pieces that can vibrate out of place and interfere with cutting. It is recommended to
 50
359.9999999988356194
  7
OD-ISOCP-17
  0
TEXT
  5
1DEC
  8
00-NOPRINT_TEXT
 62
     7
 10
1829.2146419379200779
 20
417.9961365658704722
 30
0.0
 40
17.0
  1
secure such pieces to the bed prior to cutting for removal afterwards.
 50
359.9999999988356194
  7
OD-ISOCP-17
  0
TEXT
  5
1DED
  8
00-NOPRINT_TEXT
 62
     7
 10
1828.6695041414939169
 20
361.3294698992150984
 30
0.0
 40
17.0
  1
- Where designs include chamfering and pocketing it is strongly advisable to start with these cuts prior to full-depth
 50
359.9999999988356194
  7
OD-ISOCP-17
  0
TEXT
  5
1DEE
  8
00-NOPRINT_TEXT
 62
     7
 10
1829.2856468149479952
 20
332.9961365658692216
 30
0.0
 40
17.0
  1
cut-outs in order to avoid any slippage and misalignment in the material.
 50
359.9999999988356194
  7
OD-ISOCP-17
  0
TEXT
  5
1DEF
  8
00-NOPRINT_TEXT
 62
     7
 10
1828.6695041397670138
 20
276.3294698992149847
 30
0.0
 40
17.0
  1
- Each OpenDesk part can be cut using single of multi-pass cutting. Slower speeds and multiple passes will tend to
 50
359.9999999988356194
  7
OD-ISOCP-17
  0
TEXT
  5
1DF0
  8
00-NOPRINT_TEXT
 62
     7
 10
1828.6695041391910763
 20
247.9961365658818124
 30
0.0
 40
17.0
  1
produce higher quality cuts and reduce the need for sanding and finishing at the expense of cutting time. This is left to
 50
359.9999999988356194
  7
OD-ISOCP-17
  0
TEXT
  5
1DF1
  8
00-NOPRINT_TEXT
 62
     7
 10
1828.6695041386140019
 20
219.6628032325484128
 30
0.0
 40
17.0
  1
the discretion of the user based on their time and machine.
 50
359.9999999988356194
  7
OD-ISOCP-17
  0
TEXT
  5
2380
  8
00-NOPRINT_TEXT
 10
1513.3333252951190389
 20
4049.9196025049582204
 30
0.0
 40
25.0
  1
MIRROR LINE
  7
OD-SIMPLEX-25
  0
POLYLINE
  5
241D
  8
TOP-CUT-OUTSIDE_18MM
 66
     1
 10
0.0
 20
0.0
 30
0.0
 70
   129
  0
VERTEX
  5
2691
  8
TOP-CUT-OUTSIDE_18MM
 10
1084.9999919617860087
 20
1544.0000035629670947
 30
0.0
  0
VERTEX
  5
2692
  8
TOP-CUT-OUTSIDE_18MM
 10
1084.9999919617860087
 20
1551.3000055629670442
 30
0.0
 42
0.414213
  0
VERTEX
  5
2693
  8
TOP-CUT-OUTSIDE_18MM
 10
1080.4999919617860087
 20
1555.8000035629670492
 30
0.0
  0
VERTEX
  5
2694
  8
TOP-CUT-OUTSIDE_18MM
 10
1074.9999919617860087
 20
1555.8000035629670492
 30
0.0
 42
-1.0
  0
VERTEX
  5
2695
  8
TOP-CUT-OUTSIDE_18MM
 10
1074.9999919617860087
 20
1565.3300035629670219
 30
0.0
  0
VERTEX
  5
2696
  8
TOP-CUT-OUTSIDE_18MM
 10
1074.9999919617860087
 20
1574.0000035629670947
 30
0.0
 42
-1.0
  0
VERTEX
  5
2697
  8
TOP-CUT-OUTSIDE_18MM
 10
1084.5299919617850719
 20
1574.0000035629670947
 30
0.0
  0
VERTEX
  5
2698
  8
TOP-CUT-OUTSIDE_18MM
 10
1120.4999919617860087
 20
1574.0000035629670947
 30
0.0
 42
0.4142140000000001
  0
VERTEX
  5
2699
  8
TOP-CUT-OUTSIDE_18MM
 10
1124.9999919617860087
 20
1578.4999235629670693
 30
0.0
  0
VERTEX
  5
269A
  8
TOP-CUT-OUTSIDE_18MM
 10
1124.9999919617860087
 20
3797.5000035629677768
 30
0.0
 42
0.4142140000000001
  0
VERTEX
  5
269B
  8
TOP-CUT-OUTSIDE_18MM
 10
1120.4999919617860087
 20
3802.0000035629668673
 30
0.0
  0
VERTEX
  5
269C
  8
TOP-CUT-OUTSIDE_18MM
 10
1084.5299919617850719
 20
3802.0000035629668673
 30
0.0
 42
-1.0
  0
VERTEX
  5
269D
  8
TOP-CUT-OUTSIDE_18MM
 10
1074.9999919617860087
 20
3802.0000035629668673
 30
0.0
  0
VERTEX
  5
269E
  8
TOP-CUT-OUTSIDE_18MM
 10
1074.9999919617860087
 20
3810.6700035629669401
 30
0.0
 42
-1.0
  0
VERTEX
  5
269F
  8
TOP-CUT-OUTSIDE_18MM
 10
1074.9999919617860087
 20
3820.2000035629680497
 30
0.0
  0
VERTEX
  5
26A0
  8
TOP-CUT-OUTSIDE_18MM
 10
1080.4999919617860087
 20
3820.2000035629680497
 30
0.0
 42
0.4142140000000001
  0
VERTEX
  5
26A1
  8
TOP-CUT-OUTSIDE_18MM
 10
1084.9999919617860087
 20
3824.7000035629680497
 30
0.0
  0
VERTEX
  5
26A2
  8
TOP-CUT-OUTSIDE_18MM
 10
1084.9999919617860087
 20
3832.0000035629668673
 30
0.0
  0
VERTEX
  5
26A3
  8
TOP-CUT-OUTSIDE_18MM
 10
1034.9999919617860087
 20
3832.0000035629668673
 30
0.0
  0
VERTEX
  5
26A4
  8
TOP-CUT-OUTSIDE_18MM
 10
1034.9999919617860087
 20
1544.0000035629670947
 30
0.0
  0
SEQEND
  5
26A5
  8
TOP-CUT-OUTSIDE_18MM
  0
POLYLINE
  5
241E
  8
TOP-CUT-OUTSIDE_18MM
 66
     1
 10
0.0
 20
0.0
 30
0.0
 70
   129
  0
VERTEX
  5
26A6
  8
TOP-CUT-OUTSIDE_18MM
 10
949.9999919617857813
 20
1544.0000035629670947
 30
0.0
  0
VERTEX
  5
26A7
  8
TOP-CUT-OUTSIDE_18MM
 10
949.9999919617857813
 20
1551.3000055629670442
 30
0.0
 42
-0.414213
  0
VERTEX
  5
26A8
  8
TOP-CUT-OUTSIDE_18MM
 10
954.4999919617857813
 20
1555.8000035629670492
 30
0.0
  0
VERTEX
  5
26A9
  8
TOP-CUT-OUTSIDE_18MM
 10
959.9999919617856676
 20
1555.8000035629670492
 30
0.0
 42
1.0
  0
VERTEX
  5
26AA
  8
TOP-CUT-OUTSIDE_18MM
 10
959.9999919617856676
 20
1565.3300035629670219
 30
0.0
  0
VERTEX
  5
26AB
  8
TOP-CUT-OUTSIDE_18MM
 10
959.9999919617856676
 20
1574.0000035629670947
 30
0.0
 42
1.0
  0
VERTEX
  5
26AC
  8
TOP-CUT-OUTSIDE_18MM
 10
950.4699919617861497
 20
1574.0000035629670947
 30
0.0
  0
VERTEX
  5
26AD
  8
TOP-CUT-OUTSIDE_18MM
 10
914.4999919617856676
 20
1574.0000035629670947
 30
0.0
 42
-0.4142140000000001
  0
VERTEX
  5
26AE
  8
TOP-CUT-OUTSIDE_18MM
 10
909.9999919617856676
 20
1578.4999235629670693
 30
0.0
  0
VERTEX
  5
26AF
  8
TOP-CUT-OUTSIDE_18MM
 10
909.9999919617856676
 20
3797.5000035629677768
 30
0.0
 42
-0.4142140000000001
  0
VERTEX
  5
26B0
  8
TOP-CUT-OUTSIDE_18MM
 10
914.4999919617856676
 20
3802.0000035629668673
 30
0.0
  0
VERTEX
  5
26B1
  8
TOP-CUT-OUTSIDE_18MM
 10
950.4699919617861497
 20
3802.0000035629668673
 30
0.0
 42
1.0
  0
VERTEX
  5
26B2
  8
TOP-CUT-OUTSIDE_18MM
 10
959.9999919617856676
 20
3802.0000035629668673
 30
0.0
  0
VERTEX
  5
26B3
  8
TOP-CUT-OUTSIDE_18MM
 10
959.9999919617856676
 20
3810.6700035629669401
 30
0.0
 42
1.0
  0
VERTEX
  5
26B4
  8
TOP-CUT-OUTSIDE_18MM
 10
959.9999919617856676
 20
3820.2000035629680497
 30
0.0
  0
VERTEX
  5
26B5
  8
TOP-CUT-OUTSIDE_18MM
 10
954.4999919617857813
 20
3820.2000035629680497
 30
0.0
 42
-0.4142140000000001
  0
VERTEX
  5
26B6
  8
TOP-CUT-OUTSIDE_18MM
 10
949.9999919617857813
 20
3824.7000035629680497
 30
0.0
  0
VERTEX
  5
26B7
  8
TOP-CUT-OUTSIDE_18MM
 10
949.9999919617857813
 20
3832.0000035629668673
 30
0.0
  0
VERTEX
  5
26B8
  8
TOP-CUT-OUTSIDE_18MM
 10
999.9999919617857813
 20
3832.0000035629668673
 30
0.0
  0
VERTEX
  5
26B9
  8
TOP-CUT-OUTSIDE_18MM
 10
999.9999919617857813
 20
1544.0000035629670947
 30
0.0
  0
SEQEND
  5
26BA
  8
TOP-CUT-OUTSIDE_18MM
  0
POLYLINE
  5
241F
  8
TOP-CUT-OUTSIDE_18MM
 66
     1
 10
0.0
 20
0.0
 30
0.0
 70
   129
  0
VERTEX
  5
26BB
  8
TOP-CUT-OUTSIDE_18MM
 10
789.9999919617856676
 20
3832.0000035629668673
 30
0.0
  0
VERTEX
  5
26BC
  8
TOP-CUT-OUTSIDE_18MM
 10
789.9999919617856676
 20
1544.0000035629670947
 30
0.0
  0
VERTEX
  5
26BD
  8
TOP-CUT-OUTSIDE_18MM
 10
832.4999919617856676
 20
1544.0000035629670947
 30
0.0
  0
VERTEX
  5
26BE
  8
TOP-CUT-OUTSIDE_18MM
 10
832.4999919617856676
 20
1551.3000035629670492
 30
0.0
 42
0.4142140000000001
  0
VERTEX
  5
26BF
  8
TOP-CUT-OUTSIDE_18MM
 10
827.9999919617856676
 20
1555.8000035629670492
 30
0.0
  0
VERTEX
  5
26C0
  8
TOP-CUT-OUTSIDE_18MM
 10
822.4999919617856676
 20
1555.8000035629670492
 30
0.0
 42
-1.0
  0
VERTEX
  5
26C1
  8
TOP-CUT-OUTSIDE_18MM
 10
822.4999919617856676
 20
1565.3300035629670219
 30
0.0
  0
VERTEX
  5
26C2
  8
TOP-CUT-OUTSIDE_18MM
 10
822.4999919617856676
 20
1574.0000035629670947
 30
0.0
 42
-1.0
  0
VERTEX
  5
26C3
  8
TOP-CUT-OUTSIDE_18MM
 10
832.0299919617855267
 20
1574.0000035629670947
 30
0.0
  0
VERTEX
  5
26C4
  8
TOP-CUT-OUTSIDE_18MM
 10
840.4994949617857856
 20
1574.0000035629670947
 30
0.0
 42
0.409868
  0
VERTEX
  5
26C5
  8
TOP-CUT-OUTSIDE_18MM
 10
844.9989989617855599
 20
1578.4331465629670674
 30
0.0
  0
VERTEX
  5
26C6
  8
TOP-CUT-OUTSIDE_18MM
 10
854.9999919617857813
 20
2688.0000035629668673
 30
0.0
  0
VERTEX
  5
26C7
  8
TOP-CUT-OUTSIDE_18MM
 10
844.9989989617855599
 20
3797.566860562967122
 30
0.0
 42
0.409868
  0
VERTEX
  5
26C8
  8
TOP-CUT-OUTSIDE_18MM
 10
840.4994949617857856
 20
3802.0000035629668673
 30
0.0
  0
VERTEX
  5
26C9
  8
TOP-CUT-OUTSIDE_18MM
 10
832.0299919617855267
 20
3802.0000035629668673
 30
0.0
 42
-1.0
  0
VERTEX
  5
26CA
  8
TOP-CUT-OUTSIDE_18MM
 10
822.4999919617856676
 20
3802.0000035629668673
 30
0.0
  0
VERTEX
  5
26CB
  8
TOP-CUT-OUTSIDE_18MM
 10
822.4999919617856676
 20
3810.6700035629669401
 30
0.0
 42
-1.0
  0
VERTEX
  5
26CC
  8
TOP-CUT-OUTSIDE_18MM
 10
822.4999919617856676
 20
3820.2000035629680497
 30
0.0
  0
VERTEX
  5
26CD
  8
TOP-CUT-OUTSIDE_18MM
 10
827.9999919617856676
 20
3820.2000035629680497
 30
0.0
 42
0.4142140000000001
  0
VERTEX
  5
26CE
  8
TOP-CUT-OUTSIDE_18MM
 10
832.4999919617856676
 20
3824.7000035629680497
 30
0.0
  0
VERTEX
  5
26CF
  8
TOP-CUT-OUTSIDE_18MM
 10
832.4999919617856676
 20
3832.0000035629668673
 30
0.0
  0
SEQEND
  5
26D0
  8
TOP-CUT-OUTSIDE_18MM
  0
POLYLINE
  5
2420
  8
TOP-CUT-OUTSIDE_18MM
 66
     1
 10
0.0
 20
0.0
 30
0.0
 70
   129
  0
VERTEX
  5
26D1
  8
TOP-CUT-OUTSIDE_18MM
 10
679.9999919617856676
 20
3831.9848515629669237
 30
0.0
  0
VERTEX
  5
26D2
  8
TOP-CUT-OUTSIDE_18MM
 10
679.9999919617856676
 20
1543.9848515629669237
 30
0.0
  0
VERTEX
  5
26D3
  8
TOP-CUT-OUTSIDE_18MM
 10
722.4999919617856676
 20
1543.9848515629669237
 30
0.0
  0
VERTEX
  5
26D4
  8
TOP-CUT-OUTSIDE_18MM
 10
722.4999919617856676
 20
1551.2848515629671056
 30
0.0
 42
0.4142140000000001
  0
VERTEX
  5
26D5
  8
TOP-CUT-OUTSIDE_18MM
 10
717.9999919617856676
 20
1555.7848515629671056
 30
0.0
  0
VERTEX
  5
26D6
  8
TOP-CUT-OUTSIDE_18MM
 10
712.4999919617857813
 20
1555.7848515629671056
 30
0.0
 42
-1.0
  0
VERTEX
  5
26D7
  8
TOP-CUT-OUTSIDE_18MM
 10
712.4999919617857813
 20
1565.3148515629670783
 30
0.0
  0
VERTEX
  5
26D8
  8
TOP-CUT-OUTSIDE_18MM
 10
712.4999919617857813
 20
1573.9848515629669237
 30
0.0
 42
-1.0
  0
VERTEX
  5
26D9
  8
TOP-CUT-OUTSIDE_18MM
 10
722.029991961785754
 20
1573.9848515629669237
 30
0.0
  0
VERTEX
  5
26DA
  8
TOP-CUT-OUTSIDE_18MM
 10
730.4994949617856719
 20
1573.9848515629669237
 30
0.0
 42
0.409868
  0
VERTEX
  5
26DB
  8
TOP-CUT-OUTSIDE_18MM
 10
734.9989989617855599
 20
1578.4179945629668964
 30
0.0
  0
VERTEX
  5
26DC
  8
TOP-CUT-OUTSIDE_18MM
 10
744.9999919617857813
 20
2687.9848515629678332
 30
0.0
  0
VERTEX
  5
26DD
  8
TOP-CUT-OUTSIDE_18MM
 10
734.9989989617855599
 20
3797.5517095629679716
 30
0.0
 42
0.409868
  0
VERTEX
  5
26DE
  8
TOP-CUT-OUTSIDE_18MM
 10
730.4994949617856719
 20
3801.9848515629678332
 30
0.0
  0
VERTEX
  5
26DF
  8
TOP-CUT-OUTSIDE_18MM
 10
722.029991961785754
 20
3801.9848515629678332
 30
0.0
 42
-1.0
  0
VERTEX
  5
26E0
  8
TOP-CUT-OUTSIDE_18MM
 10
712.4999919617857813
 20
3801.9848515629678332
 30
0.0
  0
VERTEX
  5
26E1
  8
TOP-CUT-OUTSIDE_18MM
 10
712.4999919617857813
 20
3810.6548515629679059
 30
0.0
 42
-1.0
  0
VERTEX
  5
26E2
  8
TOP-CUT-OUTSIDE_18MM
 10
712.4999919617857813
 20
3820.1848515629671965
 30
0.0
  0
VERTEX
  5
26E3
  8
TOP-CUT-OUTSIDE_18MM
 10
717.9999919617856676
 20
3820.1848515629671965
 30
0.0
 42
0.4142140000000001
  0
VERTEX
  5
26E4
  8
TOP-CUT-OUTSIDE_18MM
 10
722.4999919617856676
 20
3824.6848515629671965
 30
0.0
  0
VERTEX
  5
26E5
  8
TOP-CUT-OUTSIDE_18MM
 10
722.4999919617856676
 20
3831.9848515629669237
 30
0.0
  0
SEQEND
  5
26E6
  8
TOP-CUT-OUTSIDE_18MM
  0
POLYLINE
  5
2421
  8
TOP-CUT-OUTSIDE_18MM
 66
     1
 10
0.0
 20
0.0
 30
0.0
 70
   129
  0
VERTEX
  5
26E7
  8
TOP-CUT-OUTSIDE_18MM
 10
654.9999919617856676
 20
3832.0000035629668673
 30
0.0
  0
VERTEX
  5
26E8
  8
TOP-CUT-OUTSIDE_18MM
 10
654.9999919617856676
 20
1544.0000035629670947
 30
0.0
  0
VERTEX
  5
26E9
  8
TOP-CUT-OUTSIDE_18MM
 10
612.4999919617857813
 20
1544.0000035629670947
 30
0.0
  0
VERTEX
  5
26EA
  8
TOP-CUT-OUTSIDE_18MM
 10
612.4999919617857813
 20
1551.3000035629670492
 30
0.0
 42
-0.4142140000000001
  0
VERTEX
  5
26EB
  8
TOP-CUT-OUTSIDE_18MM
 10
616.9999919617857813
 20
1555.8000035629670492
 30
0.0
  0
VERTEX
  5
26EC
  8
TOP-CUT-OUTSIDE_18MM
 10
622.4999919617856676
 20
1555.8000035629670492
 30
0.0
 42
1.0
  0
VERTEX
  5
26ED
  8
TOP-CUT-OUTSIDE_18MM
 10
622.4999919617856676
 20
1565.3300035629670219
 30
0.0
  0
VERTEX
  5
26EE
  8
TOP-CUT-OUTSIDE_18MM
 10
622.4999919617856676
 20
1574.0000035629670947
 30
0.0
 42
1.0
  0
VERTEX
  5
26EF
  8
TOP-CUT-OUTSIDE_18MM
 10
612.9699919617856949
 20
1574.0000035629670947
 30
0.0
  0
VERTEX
  5
26F0
  8
TOP-CUT-OUTSIDE_18MM
 10
604.5004889617857771
 20
1574.0000035629670947
 30
0.0
 42
-0.409868
  0
VERTEX
  5
26F1
  8
TOP-CUT-OUTSIDE_18MM
 10
600.000984961785889
 20
1578.4331465629670674
 30
0.0
  0
VERTEX
  5
26F2
  8
TOP-CUT-OUTSIDE_18MM
 10
589.9999919617856676
 20
2688.0000035629668673
 30
0.0
  0
VERTEX
  5
26F3
  8
TOP-CUT-OUTSIDE_18MM
 10
600.000984961785889
 20
3797.566860562967122
 30
0.0
 42
-0.409868
  0
VERTEX
  5
26F4
  8
TOP-CUT-OUTSIDE_18MM
 10
604.5004889617857771
 20
3802.0000035629668673
 30
0.0
  0
VERTEX
  5
26F5
  8
TOP-CUT-OUTSIDE_18MM
 10
612.9699919617856949
 20
3802.0000035629668673
 30
0.0
 42
1.0
  0
VERTEX
  5
26F6
  8
TOP-CUT-OUTSIDE_18MM
 10
622.4999919617856676
 20
3802.0000035629668673
 30
0.0
  0
VERTEX
  5
26F7
  8
TOP-CUT-OUTSIDE_18MM
 10
622.4999919617856676
 20
3810.6700035629669401
 30
0.0
 42
1.0
  0
VERTEX
  5
26F8
  8
TOP-CUT-OUTSIDE_18MM
 10
622.4999919617856676
 20
3820.2000035629680497
 30
0.0
  0
VERTEX
  5
26F9
  8
TOP-CUT-OUTSIDE_18MM
 10
616.9999919617857813
 20
3820.2000035629680497
 30
0.0
 42
-0.4142140000000001
  0
VERTEX
  5
26FA
  8
TOP-CUT-OUTSIDE_18MM
 10
612.4999919617857813
 20
3824.7000035629680497
 30
0.0
  0
VERTEX
  5
26FB
  8
TOP-CUT-OUTSIDE_18MM
 10
612.4999919617857813
 20
3832.0000035629668673
 30
0.0
  0
SEQEND
  5
26FC
  8
TOP-CUT-OUTSIDE_18MM
  0
POLYLINE
  5
2422
  8
TOP-CUT-OUTSIDE_18MM
 66
     1
 10
0.0
 20
0.0
 30
0.0
 70
   129
  0
VERTEX
  5
26FD
  8
TOP-CUT-OUTSIDE_18MM
 10
459.9999919617857245
 20
3832.0000035629668673
 30
0.0
  0
VERTEX
  5
26FE
  8
TOP-CUT-OUTSIDE_18MM
 10
459.9999919617857245
 20
1544.0000035629670947
 30
0.0
  0
VERTEX
  5
26FF
  8
TOP-CUT-OUTSIDE_18MM
 10
502.4999919617857245
 20
1544.0000035629670947
 30
0.0
  0
VERTEX
  5
2700
  8
TOP-CUT-OUTSIDE_18MM
 10
502.4999919617857245
 20
1551.3000035629670492
 30
0.0
 42
0.4142140000000001
  0
VERTEX
  5
2701
  8
TOP-CUT-OUTSIDE_18MM
 10
497.9999919617857245
 20
1555.8000035629670492
 30
0.0
  0
VERTEX
  5
2702
  8
TOP-CUT-OUTSIDE_18MM
 10
492.4999919617857245
 20
1555.8000035629670492
 30
0.0
 42
-1.0
  0
VERTEX
  5
2703
  8
TOP-CUT-OUTSIDE_18MM
 10
492.4999919617857245
 20
1565.3300035629670219
 30
0.0
  0
VERTEX
  5
2704
  8
TOP-CUT-OUTSIDE_18MM
 10
492.4999919617857245
 20
1574.0000035629670947
 30
0.0
 42
-1.0
  0
VERTEX
  5
2705
  8
TOP-CUT-OUTSIDE_18MM
 10
502.0299919617856972
 20
1574.0000035629670947
 30
0.0
  0
VERTEX
  5
2706
  8
TOP-CUT-OUTSIDE_18MM
 10
510.4994949617856719
 20
1574.0000035629670947
 30
0.0
 42
0.409868
  0
VERTEX
  5
2707
  8
TOP-CUT-OUTSIDE_18MM
 10
514.9989989617855599
 20
1578.4331465629670674
 30
0.0
  0
VERTEX
  5
2708
  8
TOP-CUT-OUTSIDE_18MM
 10
524.9999919617857813
 20
2688.0000035629668673
 30
0.0
  0
VERTEX
  5
2709
  8
TOP-CUT-OUTSIDE_18MM
 10
514.9989989617855599
 20
3797.566860562967122
 30
0.0
 42
0.409868
  0
VERTEX
  5
270A
  8
TOP-CUT-OUTSIDE_18MM
 10
510.4994949617856719
 20
3802.0000035629668673
 30
0.0
  0
VERTEX
  5
270B
  8
TOP-CUT-OUTSIDE_18MM
 10
502.0299919617856972
 20
3802.0000035629668673
 30
0.0
 42
-1.0
  0
VERTEX
  5
270C
  8
TOP-CUT-OUTSIDE_18MM
 10
492.4999919617857245
 20
3802.0000035629668673
 30
0.0
  0
VERTEX
  5
270D
  8
TOP-CUT-OUTSIDE_18MM
 10
492.4999919617857245
 20
3810.6700035629669401
 30
0.0
 42
-1.0
  0
VERTEX
  5
270E
  8
TOP-CUT-OUTSIDE_18MM
 10
492.4999919617857245
 20
3820.2000035629680497
 30
0.0
  0
VERTEX
  5
270F
  8
TOP-CUT-OUTSIDE_18MM
 10
497.9999919617857245
 20
3820.2000035629680497
 30
0.0
 42
0.4142140000000001
  0
VERTEX
  5
2710
  8
TOP-CUT-OUTSIDE_18MM
 10
502.4999919617857245
 20
3824.7000035629680497
 30
0.0
  0
VERTEX
  5
2711
  8
TOP-CUT-OUTSIDE_18MM
 10
502.4999919617857245
 20
3832.0000035629668673
 30
0.0
  0
SEQEND
  5
2712
  8
TOP-CUT-OUTSIDE_18MM
  0
POLYLINE
  5
2423
  8
TOP-CUT-OUTSIDE_18MM
 66
     1
 10
0.0
 20
0.0
 30
0.0
 70
   129
  0
VERTEX
  5
2713
  8
TOP-CUT-OUTSIDE_18MM
 10
349.9999919617857813
 20
3831.9848515629669237
 30
0.0
  0
VERTEX
  5
2714
  8
TOP-CUT-OUTSIDE_18MM
 10
349.9999919617857813
 20
1543.9848515629669237
 30
0.0
  0
VERTEX
  5
2715
  8
TOP-CUT-OUTSIDE_18MM
 10
392.4999919617857813
 20
1543.9848515629669237
 30
0.0
  0
VERTEX
  5
2716
  8
TOP-CUT-OUTSIDE_18MM
 10
392.4999919617857813
 20
1551.2848515629671056
 30
0.0
 42
0.4142140000000001
  0
VERTEX
  5
2717
  8
TOP-CUT-OUTSIDE_18MM
 10
387.9999919617857813
 20
1555.7848515629671056
 30
0.0
  0
VERTEX
  5
2718
  8
TOP-CUT-OUTSIDE_18MM
 10
382.4999919617857813
 20
1555.7848515629671056
 30
0.0
 42
-1.0
  0
VERTEX
  5
2719
  8
TOP-CUT-OUTSIDE_18MM
 10
382.4999919617857813
 20
1565.3148515629670783
 30
0.0
  0
VERTEX
  5
271A
  8
TOP-CUT-OUTSIDE_18MM
 10
382.4999919617857813
 20
1573.9848515629669237
 30
0.0
 42
-1.0
  0
VERTEX
  5
271B
  8
TOP-CUT-OUTSIDE_18MM
 10
392.0299919617858109
 20
1573.9848515629669237
 30
0.0
  0
VERTEX
  5
271C
  8
TOP-CUT-OUTSIDE_18MM
 10
400.4994949617857856
 20
1573.9848515629669237
 30
0.0
 42
0.409868
  0
VERTEX
  5
271D
  8
TOP-CUT-OUTSIDE_18MM
 10
404.9989989617856736
 20
1578.4179945629668964
 30
0.0
  0
VERTEX
  5
271E
  8
TOP-CUT-OUTSIDE_18MM
 10
414.9999919617857245
 20
2687.9848515629678332
 30
0.0
  0
VERTEX
  5
271F
  8
TOP-CUT-OUTSIDE_18MM
 10
404.9989989617856736
 20
3797.5517095629679716
 30
0.0
 42
0.409868
  0
VERTEX
  5
2720
  8
TOP-CUT-OUTSIDE_18MM
 10
400.4994949617857856
 20
3801.9848515629678332
 30
0.0
  0
VERTEX
  5
2721
  8
TOP-CUT-OUTSIDE_18MM
 10
392.0299919617858109
 20
3801.9848515629678332
 30
0.0
 42
-1.0
  0
VERTEX
  5
2722
  8
TOP-CUT-OUTSIDE_18MM
 10
382.4999919617857813
 20
3801.9848515629678332
 30
0.0
  0
VERTEX
  5
2723
  8
TOP-CUT-OUTSIDE_18MM
 10
382.4999919617857813
 20
3810.6548515629679059
 30
0.0
 42
-1.0
  0
VERTEX
  5
2724
  8
TOP-CUT-OUTSIDE_18MM
 10
382.4999919617857813
 20
3820.1848515629671965
 30
0.0
  0
VERTEX
  5
2725
  8
TOP-CUT-OUTSIDE_18MM
 10
387.9999919617857813
 20
3820.1848515629671965
 30
0.0
 42
0.4142140000000001
  0
VERTEX
  5
2726
  8
TOP-CUT-OUTSIDE_18MM
 10
392.4999919617857813
 20
3824.6848515629671965
 30
0.0
  0
VERTEX
  5
2727
  8
TOP-CUT-OUTSIDE_18MM
 10
392.4999919617857813
 20
3831.9848515629669237
 30
0.0
  0
SEQEND
  5
2728
  8
TOP-CUT-OUTSIDE_18MM
  0
POLYLINE
  5
2424
  8
TOP-CUT-OUTSIDE_18MM
 66
     1
 10
0.0
 20
0.0
 30
0.0
 70
   129
  0
VERTEX
  5
2729
  8
TOP-CUT-OUTSIDE_18MM
 10
324.9999919617857813
 20
3832.0000035629668673
 30
0.0
  0
VERTEX
  5
272A
  8
TOP-CUT-OUTSIDE_18MM
 10
324.9999919617857813
 20
1544.0000035629670947
 30
0.0
  0
VERTEX
  5
272B
  8
TOP-CUT-OUTSIDE_18MM
 10
282.4999919617857813
 20
1544.0000035629670947
 30
0.0
  0
VERTEX
  5
272C
  8
TOP-CUT-OUTSIDE_18MM
 10
282.4999919617857813
 20
1551.3000035629670492
 30
0.0
 42
-0.4142140000000001
  0
VERTEX
  5
272D
  8
TOP-CUT-OUTSIDE_18MM
 10
286.9999919617857813
 20
1555.8000035629670492
 30
0.0
  0
VERTEX
  5
272E
  8
TOP-CUT-OUTSIDE_18MM
 10
292.4999919617857813
 20
1555.8000035629670492
 30
0.0
 42
1.0
  0
VERTEX
  5
272F
  8
TOP-CUT-OUTSIDE_18MM
 10
292.4999919617857813
 20
1565.3300035629670219
 30
0.0
  0
VERTEX
  5
2730
  8
TOP-CUT-OUTSIDE_18MM
 10
292.4999919617857813
 20
1574.0000035629670947
 30
0.0
 42
1.0
  0
VERTEX
  5
2731
  8
TOP-CUT-OUTSIDE_18MM
 10
282.9699919617858086
 20
1574.0000035629670947
 30
0.0
  0
VERTEX
  5
2732
  8
TOP-CUT-OUTSIDE_18MM
 10
274.5004889617857771
 20
1574.0000035629670947
 30
0.0
 42
-0.409868
  0
VERTEX
  5
2733
  8
TOP-CUT-OUTSIDE_18MM
 10
270.000984961785889
 20
1578.4331465629670674
 30
0.0
  0
VERTEX
  5
2734
  8
TOP-CUT-OUTSIDE_18MM
 10
259.9999919617857813
 20
2688.0000035629668673
 30
0.0
  0
VERTEX
  5
2735
  8
TOP-CUT-OUTSIDE_18MM
 10
270.000984961785889
 20
3797.566860562967122
 30
0.0
 42
-0.409868
  0
VERTEX
  5
2736
  8
TOP-CUT-OUTSIDE_18MM
 10
274.5004889617857771
 20
3802.0000035629668673
 30
0.0
  0
VERTEX
  5
2737
  8
TOP-CUT-OUTSIDE_18MM
 10
282.9699919617858086
 20
3802.0000035629668673
 30
0.0
 42
1.0
  0
VERTEX
  5
2738
  8
TOP-CUT-OUTSIDE_18MM
 10
292.4999919617857813
 20
3802.0000035629668673
 30
0.0
  0
VERTEX
  5
2739
  8
TOP-CUT-OUTSIDE_18MM
 10
292.4999919617857813
 20
3810.6700035629669401
 30
0.0
 42
1.0
  0
VERTEX
  5
273A
  8
TOP-CUT-OUTSIDE_18MM
 10
292.4999919617857813
 20
3820.2000035629680497
 30
0.0
  0
VERTEX
  5
273B
  8
TOP-CUT-OUTSIDE_18MM
 10
286.9999919617857813
 20
3820.2000035629680497
 30
0.0
 42
-0.4142140000000001
  0
VERTEX
  5
273C
  8
TOP-CUT-OUTSIDE_18MM
 10
282.4999919617857813
 20
3824.7000035629680497
 30
0.0
  0
VERTEX
  5
273D
  8
TOP-CUT-OUTSIDE_18MM
 10
282.4999919617857813
 20
3832.0000035629668673
 30
0.0
  0
SEQEND
  5
273E
  8
TOP-CUT-OUTSIDE_18MM
  0
CIRCLE
  5
2425
  8
TOP-HOLE-6MM-DIAM_05MM
 10
294.4999669617856739
 20
3752.0000035629668673
 30
0.0
 40
3.0
  0
CIRCLE
  5
2426
  8
TOP-HOLE-6MM-DIAM_05MM
 10
294.4999669617856739
 20
3452.0000035629668673
 30
0.0
 40
3.0
  0
CIRCLE
  5
2427
  8
TOP-HOLE-6MM-DIAM_05MM
 10
294.4999669617856739
 20
3102.0000035629677768
 30
0.0
 40
3.0
  0
CIRCLE
  5
2428
  8
TOP-HOLE-6MM-DIAM_05MM
 10
294.4999669617856739
 20
2688.0000035629668673
 30
0.0
 40
3.0
  0
CIRCLE
  5
2429
  8
TOP-HOLE-6MM-DIAM_05MM
 10
294.4999669617856739
 20
2274.0000035629668673
 30
0.0
 40
3.0
  0
CIRCLE
  5
242A
  8
TOP-HOLE-6MM-DIAM_05MM
 10
294.4999669617856739
 20
1924.0000035629670947
 30
0.0
 40
3.0
  0
CIRCLE
  5
242B
  8
TOP-HOLE-6MM-DIAM_05MM
 10
294.4999669617856739
 20
1624.0000035629670947
 30
0.0
 40
3.0
  0
CIRCLE
  5
242C
  8
TOP-HOLE-6MM-DIAM_14MM
 10
969.9999919617856676
 20
3752.0000035629668673
 30
0.0
 40
3.0
  0
CIRCLE
  5
242D
  8
TOP-HOLE-6MM-DIAM_14MM
 10
934.9999919617856676
 20
3552.0000035629668673
 30
0.0
 40
3.0
  0
CIRCLE
  5
242E
  8
TOP-HOLE-6MM-DIAM_14MM
 10
969.9999919617856676
 20
3327.0000035629668673
 30
0.0
 40
3.0
  0
CIRCLE
  5
242F
  8
TOP-HOLE-6MM-DIAM_14MM
 10
934.9999919617856676
 20
3102.0000035629677768
 30
0.0
 40
3.0
  0
CIRCLE
  5
2430
  8
TOP-HOLE-6MM-DIAM_14MM
 10
969.9999919617856676
 20
2877.0000035629668673
 30
0.0
 40
3.0
  0
CIRCLE
  5
2431
  8
TOP-HOLE-6MM-DIAM_14MM
 10
934.9999919617856676
 20
2688.0000035629668673
 30
0.0
 40
3.0
  0
CIRCLE
  5
2432
  8
TOP-HOLE-6MM-DIAM_14MM
 10
969.9999919617856676
 20
1624.0000035629670947
 30
0.0
 40
3.0
  0
CIRCLE
  5
2433
  8
TOP-HOLE-6MM-DIAM_14MM
 10
1064.9999919617860087
 20
3752.0000035629668673
 30
0.0
 40
3.0
  0
CIRCLE
  5
2434
  8
TOP-HOLE-6MM-DIAM_14MM
 10
1099.9999919617850992
 20
3552.0000035629668673
 30
0.0
 40
3.0
  0
CIRCLE
  5
2435
  8
TOP-HOLE-6MM-DIAM_14MM
 10
1064.9999919617860087
 20
3327.0000035629668673
 30
0.0
 40
3.0
  0
CIRCLE
  5
2436
  8
TOP-HOLE-6MM-DIAM_14MM
 10
1099.9999919617850992
 20
3102.0000035629677768
 30
0.0
 40
3.0
  0
CIRCLE
  5
2437
  8
TOP-HOLE-6MM-DIAM_14MM
 10
1064.9999919617860087
 20
2877.0000035629668673
 30
0.0
 40
3.0
  0
CIRCLE
  5
2438
  8
TOP-HOLE-6MM-DIAM_14MM
 10
1099.9999919617850992
 20
2688.0000035629668673
 30
0.0
 40
3.0
  0
CIRCLE
  5
2439
  8
TOP-HOLE-6MM-DIAM_14MM
 10
1064.9999919617860087
 20
1624.0000035629670947
 30
0.0
 40
3.0
  0
POLYLINE
  5
243A
  8
TOP-CUT-OUTSIDE_18MM
 66
     1
 10
0.0
 20
0.0
 30
0.0
 70
   129
  0
VERTEX
  5
273F
  8
TOP-CUT-OUTSIDE_18MM
 10
1348.4234849617860164
 20
1544.0000035629670947
 30
0.0
  0
VERTEX
  5
2740
  8
TOP-CUT-OUTSIDE_18MM
 10
1348.4234849617860164
 20
1551.3000055629670442
 30
0.0
 42
0.414213
  0
VERTEX
  5
2741
  8
TOP-CUT-OUTSIDE_18MM
 10
1343.9234849617860164
 20
1555.8000035629670492
 30
0.0
  0
VERTEX
  5
2742
  8
TOP-CUT-OUTSIDE_18MM
 10
1338.4234849617860164
 20
1555.8000035629670492
 30
0.0
 42
-1.0
  0
VERTEX
  5
2743
  8
TOP-CUT-OUTSIDE_18MM
 10
1338.4234849617860164
 20
1565.3300035629670219
 30
0.0
  0
VERTEX
  5
2744
  8
TOP-CUT-OUTSIDE_18MM
 10
1338.4234849617860164
 20
1574.0000035629670947
 30
0.0
 42
-1.0
  0
VERTEX
  5
2745
  8
TOP-CUT-OUTSIDE_18MM
 10
1347.9534849617859891
 20
1574.0000035629670947
 30
0.0
  0
VERTEX
  5
2746
  8
TOP-CUT-OUTSIDE_18MM
 10
1383.9234849617860164
 20
1574.0000035629670947
 30
0.0
 42
0.4142140000000001
  0
VERTEX
  5
2747
  8
TOP-CUT-OUTSIDE_18MM
 10
1388.4234849617860164
 20
1578.4999235629670693
 30
0.0
  0
VERTEX
  5
2748
  8
TOP-CUT-OUTSIDE_18MM
 10
1388.4234849617860164
 20
3797.5000035629677768
 30
0.0
 42
0.4142140000000001
  0
VERTEX
  5
2749
  8
TOP-CUT-OUTSIDE_18MM
 10
1383.9234849617860164
 20
3802.0000035629668673
 30
0.0
  0
VERTEX
  5
274A
  8
TOP-CUT-OUTSIDE_18MM
 10
1347.9534849617859891
 20
3802.0000035629668673
 30
0.0
 42
-1.0
  0
VERTEX
  5
274B
  8
TOP-CUT-OUTSIDE_18MM
 10
1338.4234849617860164
 20
3802.0000035629668673
 30
0.0
  0
VERTEX
  5
274C
  8
TOP-CUT-OUTSIDE_18MM
 10
1338.4234849617860164
 20
3810.6700035629669401
 30
0.0
 42
-1.0
  0
VERTEX
  5
274D
  8
TOP-CUT-OUTSIDE_18MM
 10
1338.4234849617860164
 20
3820.2000035629680497
 30
0.0
  0
VERTEX
  5
274E
  8
TOP-CUT-OUTSIDE_18MM
 10
1343.9234849617860164
 20
3820.2000035629680497
 30
0.0
 42
0.4142140000000001
  0
VERTEX
  5
274F
  8
TOP-CUT-OUTSIDE_18MM
 10
1348.4234849617860164
 20
3824.7000035629680497
 30
0.0
  0
VERTEX
  5
2750
  8
TOP-CUT-OUTSIDE_18MM
 10
1348.4234849617860164
 20
3832.0000035629668673
 30
0.0
  0
VERTEX
  5
2751
  8
TOP-CUT-OUTSIDE_18MM
 10
1298.4234849617860164
 20
3832.0000035629668673
 30
0.0
  0
VERTEX
  5
2752
  8
TOP-CUT-OUTSIDE_18MM
 10
1298.4234849617860164
 20
1544.0000035629670947
 30
0.0
  0
SEQEND
  5
2753
  8
TOP-CUT-OUTSIDE_18MM
  0
POLYLINE
  5
243B
  8
TOP-CUT-OUTSIDE_18MM
 66
     1
 10
0.0
 20
0.0
 30
0.0
 70
   129
  0
VERTEX
  5
2754
  8
TOP-CUT-OUTSIDE_18MM
 10
1213.4234849617860164
 20
1544.0000035629670947
 30
0.0
  0
VERTEX
  5
2755
  8
TOP-CUT-OUTSIDE_18MM
 10
1213.4234849617860164
 20
1551.3000055629670442
 30
0.0
 42
-0.414213
  0
VERTEX
  5
2756
  8
TOP-CUT-OUTSIDE_18MM
 10
1217.9234849617860164
 20
1555.8000035629670492
 30
0.0
  0
VERTEX
  5
2757
  8
TOP-CUT-OUTSIDE_18MM
 10
1223.4234849617860164
 20
1555.8000035629670492
 30
0.0
 42
1.0
  0
VERTEX
  5
2758
  8
TOP-CUT-OUTSIDE_18MM
 10
1223.4234849617860164
 20
1565.3300035629670219
 30
0.0
  0
VERTEX
  5
2759
  8
TOP-CUT-OUTSIDE_18MM
 10
1223.4234849617860164
 20
1574.0000035629670947
 30
0.0
 42
1.0
  0
VERTEX
  5
275A
  8
TOP-CUT-OUTSIDE_18MM
 10
1213.8934849617860436
 20
1574.0000035629670947
 30
0.0
  0
VERTEX
  5
275B
  8
TOP-CUT-OUTSIDE_18MM
 10
1177.9234849617860164
 20
1574.0000035629670947
 30
0.0
 42
-0.4142140000000001
  0
VERTEX
  5
275C
  8
TOP-CUT-OUTSIDE_18MM
 10
1173.4234849617860164
 20
1578.4999235629670693
 30
0.0
  0
VERTEX
  5
275D
  8
TOP-CUT-OUTSIDE_18MM
 10
1173.4234849617860164
 20
3797.5000035629677768
 30
0.0
 42
-0.4142140000000001
  0
VERTEX
  5
275E
  8
TOP-CUT-OUTSIDE_18MM
 10
1177.9234849617860164
 20
3802.0000035629668673
 30
0.0
  0
VERTEX
  5
275F
  8
TOP-CUT-OUTSIDE_18MM
 10
1213.8934849617860436
 20
3802.0000035629668673
 30
0.0
 42
1.0
  0
VERTEX
  5
2760
  8
TOP-CUT-OUTSIDE_18MM
 10
1223.4234849617860164
 20
3802.0000035629668673
 30
0.0
  0
VERTEX
  5
2761
  8
TOP-CUT-OUTSIDE_18MM
 10
1223.4234849617860164
 20
3810.6700035629669401
 30
0.0
 42
1.0
  0
VERTEX
  5
2762
  8
TOP-CUT-OUTSIDE_18MM
 10
1223.4234849617860164
 20
3820.2000035629680497
 30
0.0
  0
VERTEX
  5
2763
  8
TOP-CUT-OUTSIDE_18MM
 10
1217.9234849617860164
 20
3820.2000035629680497
 30
0.0
 42
-0.4142140000000001
  0
VERTEX
  5
2764
  8
TOP-CUT-OUTSIDE_18MM
 10
1213.4234849617860164
 20
3824.7000035629680497
 30
0.0
  0
VERTEX
  5
2765
  8
TOP-CUT-OUTSIDE_18MM
 10
1213.4234849617860164
 20
3832.0000035629668673
 30
0.0
  0
VERTEX
  5
2766
  8
TOP-CUT-OUTSIDE_18MM
 10
1263.4234849617860164
 20
3832.0000035629668673
 30
0.0
  0
VERTEX
  5
2767
  8
TOP-CUT-OUTSIDE_18MM
 10
1263.4234849617860164
 20
1544.0000035629670947
 30
0.0
  0
SEQEND
  5
2768
  8
TOP-CUT-OUTSIDE_18MM
  0
CIRCLE
  5
243C
  8
TOP-HOLE-6MM-DIAM_14MM
 10
1233.4234849617860164
 20
3752.0000035629668673
 30
0.0
 40
3.0
  0
CIRCLE
  5
243D
  8
TOP-HOLE-6MM-DIAM_14MM
 10
1198.4234849617860164
 20
3552.0000035629668673
 30
0.0
 40
3.0
  0
CIRCLE
  5
243E
  8
TOP-HOLE-6MM-DIAM_14MM
 10
1233.4234849617860164
 20
3327.0000035629668673
 30
0.0
 40
3.0
  0
CIRCLE
  5
243F
  8
TOP-HOLE-6MM-DIAM_14MM
 10
1198.4234849617860164
 20
3102.0000035629677768
 30
0.0
 40
3.0
  0
CIRCLE
  5
2440
  8
TOP-HOLE-6MM-DIAM_14MM
 10
1233.4234849617860164
 20
2877.0000035629668673
 30
0.0
 40
3.0
  0
CIRCLE
  5
2441
  8
TOP-HOLE-6MM-DIAM_14MM
 10
1198.4234849617860164
 20
2688.0000035629668673
 30
0.0
 40
3.0
  0
CIRCLE
  5
2442
  8
TOP-HOLE-6MM-DIAM_14MM
 10
1233.4234849617860164
 20
1624.0000035629670947
 30
0.0
 40
3.0
  0
CIRCLE
  5
2443
  8
TOP-HOLE-6MM-DIAM_14MM
 10
1328.4234849617860164
 20
3752.0000035629668673
 30
0.0
 40
3.0
  0
CIRCLE
  5
2444
  8
TOP-HOLE-6MM-DIAM_14MM
 10
1363.4234849617860164
 20
3552.0000035629668673
 30
0.0
 40
3.0
  0
CIRCLE
  5
2445
  8
TOP-HOLE-6MM-DIAM_14MM
 10
1328.4234849617860164
 20
3327.0000035629668673
 30
0.0
 40
3.0
  0
CIRCLE
  5
2446
  8
TOP-HOLE-6MM-DIAM_14MM
 10
1363.4234849617860164
 20
3102.0000035629677768
 30
0.0
 40
3.0
  0
CIRCLE
  5
2447
  8
TOP-HOLE-6MM-DIAM_14MM
 10
1328.4234849617860164
 20
2877.0000035629668673
 30
0.0
 40
3.0
  0
CIRCLE
  5
2448
  8
TOP-HOLE-6MM-DIAM_14MM
 10
1363.4234849617860164
 20
2688.0000035629668673
 30
0.0
 40
3.0
  0
CIRCLE
  5
2449
  8
TOP-HOLE-6MM-DIAM_14MM
 10
1328.4234849617860164
 20
1624.0000035629670947
 30
0.0
 40
3.0
  0
CIRCLE
  5
244A
  8
TOP-HOLE-6MM-DIAM_18MM
 10
380.5000169617858887
 20
3751.9848515629678332
 30
0.0
 40
3.0
  0
CIRCLE
  5
244B
  8
TOP-HOLE-6MM-DIAM_18MM
 10
380.5000169617858887
 20
3451.9848515629678332
 30
0.0
 40
3.0
  0
CIRCLE
  5
244C
  8
TOP-HOLE-6MM-DIAM_18MM
 10
380.5000169617858887
 20
3101.9848515629669237
 30
0.0
 40
3.0
  0
CIRCLE
  5
244D
  8
TOP-HOLE-6MM-DIAM_18MM
 10
380.5000169617858887
 20
2687.9848515629678332
 30
0.0
 40
3.0
  0
CIRCLE
  5
244E
  8
TOP-HOLE-6MM-DIAM_18MM
 10
380.5000169617858887
 20
2273.9848515629678332
 30
0.0
 40
3.0
  0
CIRCLE
  5
244F
  8
TOP-HOLE-6MM-DIAM_18MM
 10
380.5000169617858887
 20
1923.9848515629669237
 30
0.0
 40
3.0
  0
CIRCLE
  5
2450
  8
TOP-HOLE-6MM-DIAM_18MM
 10
380.5000169617858887
 20
1623.9848515629669237
 30
0.0
 40
3.0
  0
CIRCLE
  5
2451
  8
TOP-HOLE-6MM-DIAM_05MM
 10
490.500016961785775
 20
3752.0000035629668673
 30
0.0
 40
3.0
  0
CIRCLE
  5
2452
  8
TOP-HOLE-6MM-DIAM_05MM
 10
490.500016961785775
 20
3452.0000035629668673
 30
0.0
 40
3.0
  0
CIRCLE
  5
2453
  8
TOP-HOLE-6MM-DIAM_05MM
 10
490.500016961785775
 20
3102.0000035629677768
 30
0.0
 40
3.0
  0
CIRCLE
  5
2454
  8
TOP-HOLE-6MM-DIAM_05MM
 10
490.500016961785775
 20
2688.0000035629668673
 30
0.0
 40
3.0
  0
CIRCLE
  5
2455
  8
TOP-HOLE-6MM-DIAM_05MM
 10
490.500016961785775
 20
2274.0000035629668673
 30
0.0
 40
3.0
  0
CIRCLE
  5
2456
  8
TOP-HOLE-6MM-DIAM_05MM
 10
490.500016961785775
 20
1924.0000035629670947
 30
0.0
 40
3.0
  0
CIRCLE
  5
2457
  8
TOP-HOLE-6MM-DIAM_05MM
 10
490.500016961785775
 20
1624.0000035629670947
 30
0.0
 40
3.0
  0
CIRCLE
  5
2458
  8
TOP-HOLE-6MM-DIAM_05MM
 10
624.4999669617857307
 20
3752.0000035629668673
 30
0.0
 40
3.0
  0
CIRCLE
  5
2459
  8
TOP-HOLE-6MM-DIAM_05MM
 10
624.4999669617857307
 20
3452.0000035629668673
 30
0.0
 40
3.0
  0
CIRCLE
  5
245A
  8
TOP-HOLE-6MM-DIAM_05MM
 10
624.4999669617857307
 20
3102.0000035629677768
 30
0.0
 40
3.0
  0
CIRCLE
  5
245B
  8
TOP-HOLE-6MM-DIAM_05MM
 10
624.4999669617857307
 20
2688.0000035629668673
 30
0.0
 40
3.0
  0
CIRCLE
  5
245C
  8
TOP-HOLE-6MM-DIAM_05MM
 10
624.4999669617857307
 20
2274.0000035629668673
 30
0.0
 40
3.0
  0
CIRCLE
  5
245D
  8
TOP-HOLE-6MM-DIAM_05MM
 10
624.4999669617857307
 20
1924.0000035629670947
 30
0.0
 40
3.0
  0
CIRCLE
  5
245E
  8
TOP-HOLE-6MM-DIAM_05MM
 10
624.4999669617857307
 20
1624.0000035629670947
 30
0.0
 40
3.0
  0
CIRCLE
  5
245F
  8
TOP-HOLE-6MM-DIAM_18MM
 10
710.5000169617858319
 20
3751.9848515629678332
 30
0.0
 40
3.0
  0
CIRCLE
  5
2460
  8
TOP-HOLE-6MM-DIAM_18MM
 10
710.5000169617858319
 20
3451.9848515629678332
 30
0.0
 40
3.0
  0
CIRCLE
  5
2461
  8
TOP-HOLE-6MM-DIAM_18MM
 10
710.5000169617858319
 20
3101.9848515629669237
 30
0.0
 40
3.0
  0
CIRCLE
  5
2462
  8
TOP-HOLE-6MM-DIAM_18MM
 10
710.5000169617858319
 20
2687.9848515629678332
 30
0.0
 40
3.0
  0
CIRCLE
  5
2463
  8
TOP-HOLE-6MM-DIAM_18MM
 10
710.5000169617858319
 20
2273.9848515629678332
 30
0.0
 40
3.0
  0
CIRCLE
  5
2464
  8
TOP-HOLE-6MM-DIAM_18MM
 10
710.5000169617858319
 20
1923.9848515629669237
 30
0.0
 40
3.0
  0
CIRCLE
  5
2465
  8
TOP-HOLE-6MM-DIAM_18MM
 10
710.5000169617858319
 20
1623.9848515629669237
 30
0.0
 40
3.0
  0
CIRCLE
  5
2466
  8
TOP-HOLE-6MM-DIAM_05MM
 10
820.5000169617857182
 20
3752.0000035629668673
 30
0.0
 40
3.0
  0
CIRCLE
  5
2467
  8
TOP-HOLE-6MM-DIAM_05MM
 10
820.5000169617857182
 20
3452.0000035629668673
 30
0.0
 40
3.0
  0
CIRCLE
  5
2468
  8
TOP-HOLE-6MM-DIAM_05MM
 10
820.5000169617857182
 20
3102.0000035629677768
 30
0.0
 40
3.0
  0
CIRCLE
  5
2469
  8
TOP-HOLE-6MM-DIAM_05MM
 10
820.5000169617857182
 20
2688.0000035629668673
 30
0.0
 40
3.0
  0
CIRCLE
  5
246A
  8
TOP-HOLE-6MM-DIAM_05MM
 10
820.5000169617857182
 20
2274.0000035629668673
 30
0.0
 40
3.0
  0
CIRCLE
  5
246B
  8
TOP-HOLE-6MM-DIAM_05MM
 10
820.5000169617857182
 20
1924.0000035629670947
 30
0.0
 40
3.0
  0
CIRCLE
  5
246C
  8
TOP-HOLE-6MM-DIAM_05MM
 10
820.5000169617857182
 20
1624.0000035629670947
 30
0.0
 40
3.0
  0
CIRCLE
  5
246D
  8
TOP-HOLE-6MM-DIAM_14MM
 10
934.9999919617856676
 20
1824.0000035629670947
 30
0.0
 40
3.0
  0
CIRCLE
  5
246E
  8
TOP-HOLE-6MM-DIAM_14MM
 10
969.9999919617856676
 20
2049.0000035629677768
 30
0.0
 40
3.0
  0
CIRCLE
  5
246F
  8
TOP-HOLE-6MM-DIAM_14MM
 10
934.9999919617856676
 20
2274.0000035629668673
 30
0.0
 40
3.0
  0
CIRCLE
  5
2470
  8
TOP-HOLE-6MM-DIAM_14MM
 10
969.9999919617856676
 20
2499.0000035629668673
 30
0.0
 40
3.0
  0
CIRCLE
  5
2471
  8
TOP-HOLE-6MM-DIAM_14MM
 10
1099.9999919617850992
 20
1824.0000035629670947
 30
0.0
 40
3.0
  0
CIRCLE
  5
2472
  8
TOP-HOLE-6MM-DIAM_14MM
 10
1064.9999919617860087
 20
2049.0000035629677768
 30
0.0
 40
3.0
  0
CIRCLE
  5
2473
  8
TOP-HOLE-6MM-DIAM_14MM
 10
1099.9999919617850992
 20
2274.0000035629668673
 30
0.0
 40
3.0
  0
CIRCLE
  5
2474
  8
TOP-HOLE-6MM-DIAM_14MM
 10
1064.9999919617860087
 20
2499.0000035629668673
 30
0.0
 40
3.0
  0
CIRCLE
  5
2475
  8
TOP-HOLE-6MM-DIAM_14MM
 10
1198.4234849617860164
 20
1824.0000035629670947
 30
0.0
 40
3.0
  0
CIRCLE
  5
2476
  8
TOP-HOLE-6MM-DIAM_14MM
 10
1233.4234849617860164
 20
2049.0000035629677768
 30
0.0
 40
3.0
  0
CIRCLE
  5
2477
  8
TOP-HOLE-6MM-DIAM_14MM
 10
1198.4234849617860164
 20
2274.0000035629668673
 30
0.0
 40
3.0
  0
CIRCLE
  5
2478
  8
TOP-HOLE-6MM-DIAM_14MM
 10
1233.4234849617860164
 20
2499.0000035629668673
 30
0.0
 40
3.0
  0
CIRCLE
  5
2479
  8
TOP-HOLE-6MM-DIAM_14MM
 10
1363.4234849617860164
 20
1824.0000035629670947
 30
0.0
 40
3.0
  0
CIRCLE
  5
247A
  8
TOP-HOLE-6MM-DIAM_14MM
 10
1328.4234849617860164
 20
2049.0000035629677768
 30
0.0
 40
3.0
  0
CIRCLE
  5
247B
  8
TOP-HOLE-6MM-DIAM_14MM
 10
1363.4234849617860164
 20
2274.0000035629668673
 30
0.0
 40
3.0
  0
CIRCLE
  5
247C
  8
TOP-HOLE-6MM-DIAM_14MM
 10
1328.4234849617860164
 20
2499.0000035629668673
 30
0.0
 40
3.0
  0
POLYLINE
  5
24EC
  8
TOP-CUT-OUTSIDE_18MM
 66
     1
 10
0.0
 20
0.0
 30
0.0
 70
   129
  0
VERTEX
  5
2769
  8
TOP-CUT-OUTSIDE_18MM
 10
4324.9999919617839623
 20
1544.0000035629670947
 30
0.0
  0
VERTEX
  5
276A
  8
TOP-CUT-OUTSIDE_18MM
 10
4324.9999919617839623
 20
1551.3000055629670442
 30
0.0
 42
0.414213
  0
VERTEX
  5
276B
  8
TOP-CUT-OUTSIDE_18MM
 10
4320.4999919617839623
 20
1555.8000035629670492
 30
0.0
  0
VERTEX
  5
276C
  8
TOP-CUT-OUTSIDE_18MM
 10
4314.9999919617839623
 20
1555.8000035629670492
 30
0.0
 42
-1.0
  0
VERTEX
  5
276D
  8
TOP-CUT-OUTSIDE_18MM
 10
4314.9999919617839623
 20
1565.3300035629670219
 30
0.0
  0
VERTEX
  5
276E
  8
TOP-CUT-OUTSIDE_18MM
 10
4314.9999919617839623
 20
1574.0000035629670947
 30
0.0
 42
-1.0
  0
VERTEX
  5
276F
  8
TOP-CUT-OUTSIDE_18MM
 10
4324.5299919617827982
 20
1574.0000035629670947
 30
0.0
  0
VERTEX
  5
2770
  8
TOP-CUT-OUTSIDE_18MM
 10
4360.4999919617830528
 20
1574.0000035629670947
 30
0.0
 42
0.4142140000000001
  0
VERTEX
  5
2771
  8
TOP-CUT-OUTSIDE_18MM
 10
4364.9999919617830528
 20
1578.4999235629670693
 30
0.0
  0
VERTEX
  5
2772
  8
TOP-CUT-OUTSIDE_18MM
 10
4364.9999919617830528
 20
3797.5000035629677768
 30
0.0
 42
0.4142140000000001
  0
VERTEX
  5
2773
  8
TOP-CUT-OUTSIDE_18MM
 10
4360.4999919617830528
 20
3802.0000035629668673
 30
0.0
  0
VERTEX
  5
2774
  8
TOP-CUT-OUTSIDE_18MM
 10
4324.5299919617827982
 20
3802.0000035629668673
 30
0.0
 42
-1.0
  0
VERTEX
  5
2775
  8
TOP-CUT-OUTSIDE_18MM
 10
4314.9999919617839623
 20
3802.0000035629668673
 30
0.0
  0
VERTEX
  5
2776
  8
TOP-CUT-OUTSIDE_18MM
 10
4314.9999919617839623
 20
3810.6700035629669401
 30
0.0
 42
-1.0
  0
VERTEX
  5
2777
  8
TOP-CUT-OUTSIDE_18MM
 10
4314.9999919617839623
 20
3820.2000035629680497
 30
0.0
  0
VERTEX
  5
2778
  8
TOP-CUT-OUTSIDE_18MM
 10
4320.4999919617839623
 20
3820.2000035629680497
 30
0.0
 42
0.4142140000000001
  0
VERTEX
  5
2779
  8
TOP-CUT-OUTSIDE_18MM
 10
4324.9999919617839623
 20
3824.7000035629680497
 30
0.0
  0
VERTEX
  5
277A
  8
TOP-CUT-OUTSIDE_18MM
 10
4324.9999919617839623
 20
3832.0000035629668673
 30
0.0
  0
VERTEX
  5
277B
  8
TOP-CUT-OUTSIDE_18MM
 10
4274.9999919617839623
 20
3832.0000035629668673
 30
0.0
  0
VERTEX
  5
277C
  8
TOP-CUT-OUTSIDE_18MM
 10
4274.9999919617839623
 20
1544.0000035629670947
 30
0.0
  0
SEQEND
  5
277D
  8
TOP-CUT-OUTSIDE_18MM
  0
POLYLINE
  5
24ED
  8
TOP-CUT-OUTSIDE_18MM
 66
     1
 10
0.0
 20
0.0
 30
0.0
 70
   129
  0
VERTEX
  5
277E
  8
TOP-CUT-OUTSIDE_18MM
 10
4189.9999919617839623
 20
1544.0000035629670947
 30
0.0
  0
VERTEX
  5
277F
  8
TOP-CUT-OUTSIDE_18MM
 10
4189.9999919617839623
 20
1551.3000055629670442
 30
0.0
 42
-0.414213
  0
VERTEX
  5
2780
  8
TOP-CUT-OUTSIDE_18MM
 10
4194.4999919617839623
 20
1555.8000035629670492
 30
0.0
  0
VERTEX
  5
2781
  8
TOP-CUT-OUTSIDE_18MM
 10
4199.9999919617839623
 20
1555.8000035629670492
 30
0.0
 42
1.0
  0
VERTEX
  5
2782
  8
TOP-CUT-OUTSIDE_18MM
 10
4199.9999919617839623
 20
1565.3300035629670219
 30
0.0
  0
VERTEX
  5
2783
  8
TOP-CUT-OUTSIDE_18MM
 10
4199.9999919617839623
 20
1574.0000035629670947
 30
0.0
 42
1.0
  0
VERTEX
  5
2784
  8
TOP-CUT-OUTSIDE_18MM
 10
4190.469991961784217
 20
1574.0000035629670947
 30
0.0
  0
VERTEX
  5
2785
  8
TOP-CUT-OUTSIDE_18MM
 10
4154.4999919617839623
 20
1574.0000035629670947
 30
0.0
 42
-0.4142140000000001
  0
VERTEX
  5
2786
  8
TOP-CUT-OUTSIDE_18MM
 10
4149.9999919617839623
 20
1578.4999235629670693
 30
0.0
  0
VERTEX
  5
2787
  8
TOP-CUT-OUTSIDE_18MM
 10
4149.9999919617839623
 20
3797.5000035629677768
 30
0.0
 42
-0.4142140000000001
  0
VERTEX
  5
2788
  8
TOP-CUT-OUTSIDE_18MM
 10
4154.4999919617839623
 20
3802.0000035629668673
 30
0.0
  0
VERTEX
  5
2789
  8
TOP-CUT-OUTSIDE_18MM
 10
4190.469991961784217
 20
3802.0000035629668673
 30
0.0
 42
1.0
  0
VERTEX
  5
278A
  8
TOP-CUT-OUTSIDE_18MM
 10
4199.9999919617839623
 20
3802.0000035629668673
 30
0.0
  0
VERTEX
  5
278B
  8
TOP-CUT-OUTSIDE_18MM
 10
4199.9999919617839623
 20
3810.6700035629669401
 30
0.0
 42
1.0
  0
VERTEX
  5
278C
  8
TOP-CUT-OUTSIDE_18MM
 10
4199.9999919617839623
 20
3820.2000035629680497
 30
0.0
  0
VERTEX
  5
278D
  8
TOP-CUT-OUTSIDE_18MM
 10
4194.4999919617839623
 20
3820.2000035629680497
 30
0.0
 42
-0.4142140000000001
  0
VERTEX
  5
278E
  8
TOP-CUT-OUTSIDE_18MM
 10
4189.9999919617839623
 20
3824.7000035629680497
 30
0.0
  0
VERTEX
  5
278F
  8
TOP-CUT-OUTSIDE_18MM
 10
4189.9999919617839623
 20
3832.0000035629668673
 30
0.0
  0
VERTEX
  5
2790
  8
TOP-CUT-OUTSIDE_18MM
 10
4239.9999919617830528
 20
3832.0000035629668673
 30
0.0
  0
VERTEX
  5
2791
  8
TOP-CUT-OUTSIDE_18MM
 10
4239.9999919617830528
 20
1544.0000035629670947
 30
0.0
  0
SEQEND
  5
2792
  8
TOP-CUT-OUTSIDE_18MM
  0
POLYLINE
  5
24EE
  8
TOP-CUT-OUTSIDE_18MM
 66
     1
 10
0.0
 20
0.0
 30
0.0
 70
   129
  0
VERTEX
  5
2793
  8
TOP-CUT-OUTSIDE_18MM
 10
4029.9999919617830528
 20
3832.0000035629668673
 30
0.0
  0
VERTEX
  5
2794
  8
TOP-CUT-OUTSIDE_18MM
 10
4029.9999919617830528
 20
1544.0000035629670947
 30
0.0
  0
VERTEX
  5
2795
  8
TOP-CUT-OUTSIDE_18MM
 10
4072.4999919617839623
 20
1544.0000035629670947
 30
0.0
  0
VERTEX
  5
2796
  8
TOP-CUT-OUTSIDE_18MM
 10
4072.4999919617839623
 20
1551.3000035629670492
 30
0.0
 42
0.4142140000000001
  0
VERTEX
  5
2797
  8
TOP-CUT-OUTSIDE_18MM
 10
4067.9999919617839623
 20
1555.8000035629670492
 30
0.0
  0
VERTEX
  5
2798
  8
TOP-CUT-OUTSIDE_18MM
 10
4062.4999919617839623
 20
1555.8000035629670492
 30
0.0
 42
-1.0
  0
VERTEX
  5
2799
  8
TOP-CUT-OUTSIDE_18MM
 10
4062.4999919617839623
 20
1565.3300035629670219
 30
0.0
  0
VERTEX
  5
279A
  8
TOP-CUT-OUTSIDE_18MM
 10
4062.4999919617839623
 20
1574.0000035629670947
 30
0.0
 42
-1.0
  0
VERTEX
  5
279B
  8
TOP-CUT-OUTSIDE_18MM
 10
4072.0299919617827982
 20
1574.0000035629670947
 30
0.0
  0
VERTEX
  5
279C
  8
TOP-CUT-OUTSIDE_18MM
 10
4080.4994949617839666
 20
1574.0000035629670947
 30
0.0
 42
0.409868
  0
VERTEX
  5
279D
  8
TOP-CUT-OUTSIDE_18MM
 10
4084.9989989617838546
 20
1578.4331465629670674
 30
0.0
  0
VERTEX
  5
279E
  8
TOP-CUT-OUTSIDE_18MM
 10
4094.9999919617839623
 20
2688.0000035629668673
 30
0.0
  0
VERTEX
  5
279F
  8
TOP-CUT-OUTSIDE_18MM
 10
4084.9989989617838546
 20
3797.566860562967122
 30
0.0
 42
0.409868
  0
VERTEX
  5
27A0
  8
TOP-CUT-OUTSIDE_18MM
 10
4080.4994949617839666
 20
3802.0000035629668673
 30
0.0
  0
VERTEX
  5
27A1
  8
TOP-CUT-OUTSIDE_18MM
 10
4072.0299919617827982
 20
3802.0000035629668673
 30
0.0
 42
-1.0
  0
VERTEX
  5
27A2
  8
TOP-CUT-OUTSIDE_18MM
 10
4062.4999919617839623
 20
3802.0000035629668673
 30
0.0
  0
VERTEX
  5
27A3
  8
TOP-CUT-OUTSIDE_18MM
 10
4062.4999919617839623
 20
3810.6700035629669401
 30
0.0
 42
-1.0
  0
VERTEX
  5
27A4
  8
TOP-CUT-OUTSIDE_18MM
 10
4062.4999919617839623
 20
3820.2000035629680497
 30
0.0
  0
VERTEX
  5
27A5
  8
TOP-CUT-OUTSIDE_18MM
 10
4067.9999919617839623
 20
3820.2000035629680497
 30
0.0
 42
0.4142140000000001
  0
VERTEX
  5
27A6
  8
TOP-CUT-OUTSIDE_18MM
 10
4072.4999919617839623
 20
3824.7000035629680497
 30
0.0
  0
VERTEX
  5
27A7
  8
TOP-CUT-OUTSIDE_18MM
 10
4072.4999919617839623
 20
3832.0000035629668673
 30
0.0
  0
SEQEND
  5
27A8
  8
TOP-CUT-OUTSIDE_18MM
  0
POLYLINE
  5
24EF
  8
TOP-CUT-OUTSIDE_18MM
 66
     1
 10
0.0
 20
0.0
 30
0.0
 70
   129
  0
VERTEX
  5
27A9
  8
TOP-CUT-OUTSIDE_18MM
 10
3919.9999919617839623
 20
3831.9848515629669237
 30
0.0
  0
VERTEX
  5
27AA
  8
TOP-CUT-OUTSIDE_18MM
 10
3919.9999919617839623
 20
1543.9848515629669237
 30
0.0
  0
VERTEX
  5
27AB
  8
TOP-CUT-OUTSIDE_18MM
 10
3962.4999919617839623
 20
1543.9848515629669237
 30
0.0
  0
VERTEX
  5
27AC
  8
TOP-CUT-OUTSIDE_18MM
 10
3962.4999919617839623
 20
1551.2848515629671056
 30
0.0
 42
0.4142140000000001
  0
VERTEX
  5
27AD
  8
TOP-CUT-OUTSIDE_18MM
 10
3957.9999919617839623
 20
1555.7848515629671056
 30
0.0
  0
VERTEX
  5
27AE
  8
TOP-CUT-OUTSIDE_18MM
 10
3952.4999919617839623
 20
1555.7848515629671056
 30
0.0
 42
-1.0
  0
VERTEX
  5
27AF
  8
TOP-CUT-OUTSIDE_18MM
 10
3952.4999919617839623
 20
1565.3148515629670783
 30
0.0
  0
VERTEX
  5
27B0
  8
TOP-CUT-OUTSIDE_18MM
 10
3952.4999919617839623
 20
1573.9848515629669237
 30
0.0
 42
-1.0
  0
VERTEX
  5
27B1
  8
TOP-CUT-OUTSIDE_18MM
 10
3962.0299919617841624
 20
1573.9848515629669237
 30
0.0
  0
VERTEX
  5
27B2
  8
TOP-CUT-OUTSIDE_18MM
 10
3970.4994949617839666
 20
1573.9848515629669237
 30
0.0
 42
0.409868
  0
VERTEX
  5
27B3
  8
TOP-CUT-OUTSIDE_18MM
 10
3974.9989989617838546
 20
1578.4179945629668964
 30
0.0
  0
VERTEX
  5
27B4
  8
TOP-CUT-OUTSIDE_18MM
 10
3984.9999919617839623
 20
2687.9848515629678332
 30
0.0
  0
VERTEX
  5
27B5
  8
TOP-CUT-OUTSIDE_18MM
 10
3974.9989989617838546
 20
3797.5517095629679716
 30
0.0
 42
0.409868
  0
VERTEX
  5
27B6
  8
TOP-CUT-OUTSIDE_18MM
 10
3970.4994949617839666
 20
3801.9848515629678332
 30
0.0
  0
VERTEX
  5
27B7
  8
TOP-CUT-OUTSIDE_18MM
 10
3962.0299919617841624
 20
3801.9848515629678332
 30
0.0
 42
-1.0
  0
VERTEX
  5
27B8
  8
TOP-CUT-OUTSIDE_18MM
 10
3952.4999919617839623
 20
3801.9848515629678332
 30
0.0
  0
VERTEX
  5
27B9
  8
TOP-CUT-OUTSIDE_18MM
 10
3952.4999919617839623
 20
3810.6548515629679059
 30
0.0
 42
-1.0
  0
VERTEX
  5
27BA
  8
TOP-CUT-OUTSIDE_18MM
 10
3952.4999919617839623
 20
3820.1848515629671965
 30
0.0
  0
VERTEX
  5
27BB
  8
TOP-CUT-OUTSIDE_18MM
 10
3957.9999919617839623
 20
3820.1848515629671965
 30
0.0
 42
0.4142140000000001
  0
VERTEX
  5
27BC
  8
TOP-CUT-OUTSIDE_18MM
 10
3962.4999919617839623
 20
3824.6848515629671965
 30
0.0
  0
VERTEX
  5
27BD
  8
TOP-CUT-OUTSIDE_18MM
 10
3962.4999919617839623
 20
3831.9848515629669237
 30
0.0
  0
SEQEND
  5
27BE
  8
TOP-CUT-OUTSIDE_18MM
  0
POLYLINE
  5
24F0
  8
TOP-CUT-OUTSIDE_18MM
 66
     1
 10
0.0
 20
0.0
 30
0.0
 70
   129
  0
VERTEX
  5
27BF
  8
TOP-CUT-OUTSIDE_18MM
 10
3894.9999919617839623
 20
3832.0000035629668673
 30
0.0
  0
VERTEX
  5
27C0
  8
TOP-CUT-OUTSIDE_18MM
 10
3894.9999919617839623
 20
1544.0000035629670947
 30
0.0
  0
VERTEX
  5
27C1
  8
TOP-CUT-OUTSIDE_18MM
 10
3852.4999919617839623
 20
1544.0000035629670947
 30
0.0
  0
VERTEX
  5
27C2
  8
TOP-CUT-OUTSIDE_18MM
 10
3852.4999919617839623
 20
1551.3000035629670492
 30
0.0
 42
-0.4142140000000001
  0
VERTEX
  5
27C3
  8
TOP-CUT-OUTSIDE_18MM
 10
3856.9999919617839623
 20
1555.8000035629670492
 30
0.0
  0
VERTEX
  5
27C4
  8
TOP-CUT-OUTSIDE_18MM
 10
3862.4999919617839623
 20
1555.8000035629670492
 30
0.0
 42
1.0
  0
VERTEX
  5
27C5
  8
TOP-CUT-OUTSIDE_18MM
 10
3862.4999919617839623
 20
1565.3300035629670219
 30
0.0
  0
VERTEX
  5
27C6
  8
TOP-CUT-OUTSIDE_18MM
 10
3862.4999919617839623
 20
1574.0000035629670947
 30
0.0
 42
1.0
  0
VERTEX
  5
27C7
  8
TOP-CUT-OUTSIDE_18MM
 10
3852.969991961784217
 20
1574.0000035629670947
 30
0.0
  0
VERTEX
  5
27C8
  8
TOP-CUT-OUTSIDE_18MM
 10
3844.5004889617839581
 20
1574.0000035629670947
 30
0.0
 42
-0.409868
  0
VERTEX
  5
27C9
  8
TOP-CUT-OUTSIDE_18MM
 10
3840.00098496178407
 20
1578.4331465629670674
 30
0.0
  0
VERTEX
  5
27CA
  8
TOP-CUT-OUTSIDE_18MM
 10
3829.9999919617839623
 20
2688.0000035629668673
 30
0.0
  0
VERTEX
  5
27CB
  8
TOP-CUT-OUTSIDE_18MM
 10
3840.00098496178407
 20
3797.566860562967122
 30
0.0
 42
-0.409868
  0
VERTEX
  5
27CC
  8
TOP-CUT-OUTSIDE_18MM
 10
3844.5004889617839581
 20
3802.0000035629668673
 30
0.0
  0
VERTEX
  5
27CD
  8
TOP-CUT-OUTSIDE_18MM
 10
3852.969991961784217
 20
3802.0000035629668673
 30
0.0
 42
1.0
  0
VERTEX
  5
27CE
  8
TOP-CUT-OUTSIDE_18MM
 10
3862.4999919617839623
 20
3802.0000035629668673
 30
0.0
  0
VERTEX
  5
27CF
  8
TOP-CUT-OUTSIDE_18MM
 10
3862.4999919617839623
 20
3810.6700035629669401
 30
0.0
 42
1.0
  0
VERTEX
  5
27D0
  8
TOP-CUT-OUTSIDE_18MM
 10
3862.4999919617839623
 20
3820.2000035629680497
 30
0.0
  0
VERTEX
  5
27D1
  8
TOP-CUT-OUTSIDE_18MM
 10
3856.9999919617839623
 20
3820.2000035629680497
 30
0.0
 42
-0.4142140000000001
  0
VERTEX
  5
27D2
  8
TOP-CUT-OUTSIDE_18MM
 10
3852.4999919617839623
 20
3824.7000035629680497
 30
0.0
  0
VERTEX
  5
27D3
  8
TOP-CUT-OUTSIDE_18MM
 10
3852.4999919617839623
 20
3832.0000035629668673
 30
0.0
  0
SEQEND
  5
27D4
  8
TOP-CUT-OUTSIDE_18MM
  0
POLYLINE
  5
24F1
  8
TOP-CUT-OUTSIDE_18MM
 66
     1
 10
0.0
 20
0.0
 30
0.0
 70
   129
  0
VERTEX
  5
27D5
  8
TOP-CUT-OUTSIDE_18MM
 10
3699.9999919617839623
 20
3832.0000035629668673
 30
0.0
  0
VERTEX
  5
27D6
  8
TOP-CUT-OUTSIDE_18MM
 10
3699.9999919617839623
 20
1544.0000035629670947
 30
0.0
  0
VERTEX
  5
27D7
  8
TOP-CUT-OUTSIDE_18MM
 10
3742.4999919617839623
 20
1544.0000035629670947
 30
0.0
  0
VERTEX
  5
27D8
  8
TOP-CUT-OUTSIDE_18MM
 10
3742.4999919617839623
 20
1551.3000035629670492
 30
0.0
 42
0.4142140000000001
  0
VERTEX
  5
27D9
  8
TOP-CUT-OUTSIDE_18MM
 10
3737.9999919617839623
 20
1555.8000035629670492
 30
0.0
  0
VERTEX
  5
27DA
  8
TOP-CUT-OUTSIDE_18MM
 10
3732.4999919617839623
 20
1555.8000035629670492
 30
0.0
 42
-1.0
  0
VERTEX
  5
27DB
  8
TOP-CUT-OUTSIDE_18MM
 10
3732.4999919617839623
 20
1565.3300035629670219
 30
0.0
  0
VERTEX
  5
27DC
  8
TOP-CUT-OUTSIDE_18MM
 10
3732.4999919617839623
 20
1574.0000035629670947
 30
0.0
 42
-1.0
  0
VERTEX
  5
27DD
  8
TOP-CUT-OUTSIDE_18MM
 10
3742.0299919617841624
 20
1574.0000035629670947
 30
0.0
  0
VERTEX
  5
27DE
  8
TOP-CUT-OUTSIDE_18MM
 10
3750.4994949617839666
 20
1574.0000035629670947
 30
0.0
 42
0.409868
  0
VERTEX
  5
27DF
  8
TOP-CUT-OUTSIDE_18MM
 10
3754.9989989617838546
 20
1578.4331465629670674
 30
0.0
  0
VERTEX
  5
27E0
  8
TOP-CUT-OUTSIDE_18MM
 10
3764.9999919617839623
 20
2688.0000035629668673
 30
0.0
  0
VERTEX
  5
27E1
  8
TOP-CUT-OUTSIDE_18MM
 10
3754.9989989617838546
 20
3797.566860562967122
 30
0.0
 42
0.409868
  0
VERTEX
  5
27E2
  8
TOP-CUT-OUTSIDE_18MM
 10
3750.4994949617839666
 20
3802.0000035629668673
 30
0.0
  0
VERTEX
  5
27E3
  8
TOP-CUT-OUTSIDE_18MM
 10
3742.0299919617841624
 20
3802.0000035629668673
 30
0.0
 42
-1.0
  0
VERTEX
  5
27E4
  8
TOP-CUT-OUTSIDE_18MM
 10
3732.4999919617839623
 20
3802.0000035629668673
 30
0.0
  0
VERTEX
  5
27E5
  8
TOP-CUT-OUTSIDE_18MM
 10
3732.4999919617839623
 20
3810.6700035629669401
 30
0.0
 42
-1.0
  0
VERTEX
  5
27E6
  8
TOP-CUT-OUTSIDE_18MM
 10
3732.4999919617839623
 20
3820.2000035629680497
 30
0.0
  0
VERTEX
  5
27E7
  8
TOP-CUT-OUTSIDE_18MM
 10
3737.9999919617839623
 20
3820.2000035629680497
 30
0.0
 42
0.4142140000000001
  0
VERTEX
  5
27E8
  8
TOP-CUT-OUTSIDE_18MM
 10
3742.4999919617839623
 20
3824.7000035629680497
 30
0.0
  0
VERTEX
  5
27E9
  8
TOP-CUT-OUTSIDE_18MM
 10
3742.4999919617839623
 20
3832.0000035629668673
 30
0.0
  0
SEQEND
  5
27EA
  8
TOP-CUT-OUTSIDE_18MM
  0
POLYLINE
  5
24F2
  8
TOP-CUT-OUTSIDE_18MM
 66
     1
 10
0.0
 20
0.0
 30
0.0
 70
   129
  0
VERTEX
  5
27EB
  8
TOP-CUT-OUTSIDE_18MM
 10
3589.9999919617839623
 20
3831.9848515629669237
 30
0.0
  0
VERTEX
  5
27EC
  8
TOP-CUT-OUTSIDE_18MM
 10
3589.9999919617839623
 20
1543.9848515629669237
 30
0.0
  0
VERTEX
  5
27ED
  8
TOP-CUT-OUTSIDE_18MM
 10
3632.4999919617839623
 20
1543.9848515629669237
 30
0.0
  0
VERTEX
  5
27EE
  8
TOP-CUT-OUTSIDE_18MM
 10
3632.4999919617839623
 20
1551.2848515629671056
 30
0.0
 42
0.4142140000000001
  0
VERTEX
  5
27EF
  8
TOP-CUT-OUTSIDE_18MM
 10
3627.9999919617848718
 20
1555.7848515629671056
 30
0.0
  0
VERTEX
  5
27F0
  8
TOP-CUT-OUTSIDE_18MM
 10
3622.4999919617848718
 20
1555.7848515629671056
 30
0.0
 42
-1.0
  0
VERTEX
  5
27F1
  8
TOP-CUT-OUTSIDE_18MM
 10
3622.4999919617848718
 20
1565.3148515629670783
 30
0.0
  0
VERTEX
  5
27F2
  8
TOP-CUT-OUTSIDE_18MM
 10
3622.4999919617848718
 20
1573.9848515629669237
 30
0.0
 42
-1.0
  0
VERTEX
  5
27F3
  8
TOP-CUT-OUTSIDE_18MM
 10
3632.0299919617841624
 20
1573.9848515629669237
 30
0.0
  0
VERTEX
  5
27F4
  8
TOP-CUT-OUTSIDE_18MM
 10
3640.4994949617839666
 20
1573.9848515629669237
 30
0.0
 42
0.409868
  0
VERTEX
  5
27F5
  8
TOP-CUT-OUTSIDE_18MM
 10
3644.9989989617838546
 20
1578.4179945629668964
 30
0.0
  0
VERTEX
  5
27F6
  8
TOP-CUT-OUTSIDE_18MM
 10
3654.9999919617839623
 20
2687.9848515629678332
 30
0.0
  0
VERTEX
  5
27F7
  8
TOP-CUT-OUTSIDE_18MM
 10
3644.9989989617838546
 20
3797.5517095629679716
 30
0.0
 42
0.409868
  0
VERTEX
  5
27F8
  8
TOP-CUT-OUTSIDE_18MM
 10
3640.4994949617839666
 20
3801.9848515629678332
 30
0.0
  0
VERTEX
  5
27F9
  8
TOP-CUT-OUTSIDE_18MM
 10
3632.0299919617841624
 20
3801.9848515629678332
 30
0.0
 42
-1.0
  0
VERTEX
  5
27FA
  8
TOP-CUT-OUTSIDE_18MM
 10
3622.4999919617848718
 20
3801.9848515629678332
 30
0.0
  0
VERTEX
  5
27FB
  8
TOP-CUT-OUTSIDE_18MM
 10
3622.4999919617848718
 20
3810.6548515629679059
 30
0.0
 42
-1.0
  0
VERTEX
  5
27FC
  8
TOP-CUT-OUTSIDE_18MM
 10
3622.4999919617848718
 20
3820.1848515629671965
 30
0.0
  0
VERTEX
  5
27FD
  8
TOP-CUT-OUTSIDE_18MM
 10
3627.9999919617848718
 20
3820.1848515629671965
 30
0.0
 42
0.4142140000000001
  0
VERTEX
  5
27FE
  8
TOP-CUT-OUTSIDE_18MM
 10
3632.4999919617839623
 20
3824.6848515629671965
 30
0.0
  0
VERTEX
  5
27FF
  8
TOP-CUT-OUTSIDE_18MM
 10
3632.4999919617839623
 20
3831.9848515629669237
 30
0.0
  0
SEQEND
  5
2800
  8
TOP-CUT-OUTSIDE_18MM
  0
POLYLINE
  5
24F3
  8
TOP-CUT-OUTSIDE_18MM
 66
     1
 10
0.0
 20
0.0
 30
0.0
 70
   129
  0
VERTEX
  5
2801
  8
TOP-CUT-OUTSIDE_18MM
 10
3564.9999919617839623
 20
3832.0000035629668673
 30
0.0
  0
VERTEX
  5
2802
  8
TOP-CUT-OUTSIDE_18MM
 10
3564.9999919617839623
 20
1544.0000035629670947
 30
0.0
  0
VERTEX
  5
2803
  8
TOP-CUT-OUTSIDE_18MM
 10
3522.4999919617839623
 20
1544.0000035629670947
 30
0.0
  0
VERTEX
  5
2804
  8
TOP-CUT-OUTSIDE_18MM
 10
3522.4999919617839623
 20
1551.3000035629670492
 30
0.0
 42
-0.4142140000000001
  0
VERTEX
  5
2805
  8
TOP-CUT-OUTSIDE_18MM
 10
3526.9999919617839623
 20
1555.8000035629670492
 30
0.0
  0
VERTEX
  5
2806
  8
TOP-CUT-OUTSIDE_18MM
 10
3532.4999919617839623
 20
1555.8000035629670492
 30
0.0
 42
1.0
  0
VERTEX
  5
2807
  8
TOP-CUT-OUTSIDE_18MM
 10
3532.4999919617839623
 20
1565.3300035629670219
 30
0.0
  0
VERTEX
  5
2808
  8
TOP-CUT-OUTSIDE_18MM
 10
3532.4999919617839623
 20
1574.0000035629670947
 30
0.0
 42
1.0
  0
VERTEX
  5
2809
  8
TOP-CUT-OUTSIDE_18MM
 10
3522.969991961784217
 20
1574.0000035629670947
 30
0.0
  0
VERTEX
  5
280A
  8
TOP-CUT-OUTSIDE_18MM
 10
3514.5004889617839581
 20
1574.0000035629670947
 30
0.0
 42
-0.409868
  0
VERTEX
  5
280B
  8
TOP-CUT-OUTSIDE_18MM
 10
3510.00098496178407
 20
1578.4331465629670674
 30
0.0
  0
VERTEX
  5
280C
  8
TOP-CUT-OUTSIDE_18MM
 10
3499.9999919617848718
 20
2688.0000035629668673
 30
0.0
  0
VERTEX
  5
280D
  8
TOP-CUT-OUTSIDE_18MM
 10
3510.00098496178407
 20
3797.566860562967122
 30
0.0
 42
-0.409868
  0
VERTEX
  5
280E
  8
TOP-CUT-OUTSIDE_18MM
 10
3514.5004889617839581
 20
3802.0000035629668673
 30
0.0
  0
VERTEX
  5
280F
  8
TOP-CUT-OUTSIDE_18MM
 10
3522.969991961784217
 20
3802.0000035629668673
 30
0.0
 42
1.0
  0
VERTEX
  5
2810
  8
TOP-CUT-OUTSIDE_18MM
 10
3532.4999919617839623
 20
3802.0000035629668673
 30
0.0
  0
VERTEX
  5
2811
  8
TOP-CUT-OUTSIDE_18MM
 10
3532.4999919617839623
 20
3810.6700035629669401
 30
0.0
 42
1.0
  0
VERTEX
  5
2812
  8
TOP-CUT-OUTSIDE_18MM
 10
3532.4999919617839623
 20
3820.2000035629680497
 30
0.0
  0
VERTEX
  5
2813
  8
TOP-CUT-OUTSIDE_18MM
 10
3526.9999919617839623
 20
3820.2000035629680497
 30
0.0
 42
-0.4142140000000001
  0
VERTEX
  5
2814
  8
TOP-CUT-OUTSIDE_18MM
 10
3522.4999919617839623
 20
3824.7000035629680497
 30
0.0
  0
VERTEX
  5
2815
  8
TOP-CUT-OUTSIDE_18MM
 10
3522.4999919617839623
 20
3832.0000035629668673
 30
0.0
  0
SEQEND
  5
2816
  8
TOP-CUT-OUTSIDE_18MM
  0
CIRCLE
  5
24F4
  8
TOP-HOLE-6MM-DIAM_05MM
 10
3534.4999669617841391
 20
3752.0000035629668673
 30
0.0
 40
3.0
  0
CIRCLE
  5
24F5
  8
TOP-HOLE-6MM-DIAM_05MM
 10
3534.4999669617841391
 20
3452.0000035629668673
 30
0.0
 40
3.0
  0
CIRCLE
  5
24F6
  8
TOP-HOLE-6MM-DIAM_05MM
 10
3534.4999669617841391
 20
3102.0000035629677768
 30
0.0
 40
3.0
  0
CIRCLE
  5
24F7
  8
TOP-HOLE-6MM-DIAM_05MM
 10
3534.4999669617841391
 20
2688.0000035629668673
 30
0.0
 40
3.0
  0
CIRCLE
  5
24F8
  8
TOP-HOLE-6MM-DIAM_05MM
 10
3534.4999669617841391
 20
2274.0000035629668673
 30
0.0
 40
3.0
  0
CIRCLE
  5
24F9
  8
TOP-HOLE-6MM-DIAM_05MM
 10
3534.4999669617841391
 20
1924.0000035629670947
 30
0.0
 40
3.0
  0
CIRCLE
  5
24FA
  8
TOP-HOLE-6MM-DIAM_05MM
 10
3534.4999669617841391
 20
1624.0000035629670947
 30
0.0
 40
3.0
  0
CIRCLE
  5
24FB
  8
TOP-HOLE-6MM-DIAM_14MM
 10
4209.9999919617839623
 20
3752.0000035629668673
 30
0.0
 40
3.0
  0
CIRCLE
  5
24FC
  8
TOP-HOLE-6MM-DIAM_14MM
 10
4174.9999919617839623
 20
3552.0000035629668673
 30
0.0
 40
3.0
  0
CIRCLE
  5
24FD
  8
TOP-HOLE-6MM-DIAM_14MM
 10
4209.9999919617839623
 20
3327.0000035629668673
 30
0.0
 40
3.0
  0
CIRCLE
  5
24FE
  8
TOP-HOLE-6MM-DIAM_14MM
 10
4174.9999919617839623
 20
3102.0000035629677768
 30
0.0
 40
3.0
  0
CIRCLE
  5
24FF
  8
TOP-HOLE-6MM-DIAM_14MM
 10
4209.9999919617839623
 20
2877.0000035629668673
 30
0.0
 40
3.0
  0
CIRCLE
  5
2500
  8
TOP-HOLE-6MM-DIAM_14MM
 10
4174.9999919617839623
 20
2688.0000035629668673
 30
0.0
 40
3.0
  0
CIRCLE
  5
2501
  8
TOP-HOLE-6MM-DIAM_14MM
 10
4209.9999919617839623
 20
1624.0000035629670947
 30
0.0
 40
3.0
  0
CIRCLE
  5
2502
  8
TOP-HOLE-6MM-DIAM_14MM
 10
4304.9999919617839623
 20
3752.0000035629668673
 30
0.0
 40
3.0
  0
CIRCLE
  5
2503
  8
TOP-HOLE-6MM-DIAM_14MM
 10
4339.9999919617839623
 20
3552.0000035629668673
 30
0.0
 40
3.0
  0
CIRCLE
  5
2504
  8
TOP-HOLE-6MM-DIAM_14MM
 10
4304.9999919617839623
 20
3327.0000035629668673
 30
0.0
 40
3.0
  0
CIRCLE
  5
2505
  8
TOP-HOLE-6MM-DIAM_14MM
 10
4339.9999919617839623
 20
3102.0000035629677768
 30
0.0
 40
3.0
  0
CIRCLE
  5
2506
  8
TOP-HOLE-6MM-DIAM_14MM
 10
4304.9999919617839623
 20
2877.0000035629668673
 30
0.0
 40
3.0
  0
CIRCLE
  5
2507
  8
TOP-HOLE-6MM-DIAM_14MM
 10
4339.9999919617839623
 20
2688.0000035629668673
 30
0.0
 40
3.0
  0
CIRCLE
  5
2508
  8
TOP-HOLE-6MM-DIAM_14MM
 10
4304.9999919617839623
 20
1624.0000035629670947
 30
0.0
 40
3.0
  0
POLYLINE
  5
2509
  8
TOP-CUT-OUTSIDE_18MM
 66
     1
 10
0.0
 20
0.0
 30
0.0
 70
   129
  0
VERTEX
  5
2817
  8
TOP-CUT-OUTSIDE_18MM
 10
4588.4234849617841974
 20
1544.0000035629670947
 30
0.0
  0
VERTEX
  5
2818
  8
TOP-CUT-OUTSIDE_18MM
 10
4588.4234849617841974
 20
1551.3000055629670442
 30
0.0
 42
0.414213
  0
VERTEX
  5
2819
  8
TOP-CUT-OUTSIDE_18MM
 10
4583.9234849617841974
 20
1555.8000035629670492
 30
0.0
  0
VERTEX
  5
281A
  8
TOP-CUT-OUTSIDE_18MM
 10
4578.4234849617841974
 20
1555.8000035629670492
 30
0.0
 42
-1.0
  0
VERTEX
  5
281B
  8
TOP-CUT-OUTSIDE_18MM
 10
4578.4234849617841974
 20
1565.3300035629670219
 30
0.0
  0
VERTEX
  5
281C
  8
TOP-CUT-OUTSIDE_18MM
 10
4578.4234849617841974
 20
1574.0000035629670947
 30
0.0
 42
-1.0
  0
VERTEX
  5
281D
  8
TOP-CUT-OUTSIDE_18MM
 10
4587.9534849617839427
 20
1574.0000035629670947
 30
0.0
  0
VERTEX
  5
281E
  8
TOP-CUT-OUTSIDE_18MM
 10
4623.9234849617841974
 20
1574.0000035629670947
 30
0.0
 42
0.4142140000000001
  0
VERTEX
  5
281F
  8
TOP-CUT-OUTSIDE_18MM
 10
4628.4234849617851069
 20
1578.4999235629670693
 30
0.0
  0
VERTEX
  5
2820
  8
TOP-CUT-OUTSIDE_18MM
 10
4628.4234849617851069
 20
3797.5000035629677768
 30
0.0
 42
0.4142140000000001
  0
VERTEX
  5
2821
  8
TOP-CUT-OUTSIDE_18MM
 10
4623.9234849617841974
 20
3802.0000035629668673
 30
0.0
  0
VERTEX
  5
2822
  8
TOP-CUT-OUTSIDE_18MM
 10
4587.9534849617839427
 20
3802.0000035629668673
 30
0.0
 42
-1.0
  0
VERTEX
  5
2823
  8
TOP-CUT-OUTSIDE_18MM
 10
4578.4234849617841974
 20
3802.0000035629668673
 30
0.0
  0
VERTEX
  5
2824
  8
TOP-CUT-OUTSIDE_18MM
 10
4578.4234849617841974
 20
3810.6700035629669401
 30
0.0
 42
-1.0
  0
VERTEX
  5
2825
  8
TOP-CUT-OUTSIDE_18MM
 10
4578.4234849617841974
 20
3820.2000035629680497
 30
0.0
  0
VERTEX
  5
2826
  8
TOP-CUT-OUTSIDE_18MM
 10
4583.9234849617841974
 20
3820.2000035629680497
 30
0.0
 42
0.4142140000000001
  0
VERTEX
  5
2827
  8
TOP-CUT-OUTSIDE_18MM
 10
4588.4234849617841974
 20
3824.7000035629680497
 30
0.0
  0
VERTEX
  5
2828
  8
TOP-CUT-OUTSIDE_18MM
 10
4588.4234849617841974
 20
3832.0000035629668673
 30
0.0
  0
VERTEX
  5
2829
  8
TOP-CUT-OUTSIDE_18MM
 10
4538.4234849617841974
 20
3832.0000035629668673
 30
0.0
  0
VERTEX
  5
282A
  8
TOP-CUT-OUTSIDE_18MM
 10
4538.4234849617841974
 20
1544.0000035629670947
 30
0.0
  0
SEQEND
  5
282B
  8
TOP-CUT-OUTSIDE_18MM
  0
POLYLINE
  5
250A
  8
TOP-CUT-OUTSIDE_18MM
 66
     1
 10
0.0
 20
0.0
 30
0.0
 70
   129
  0
VERTEX
  5
282C
  8
TOP-CUT-OUTSIDE_18MM
 10
4453.4234849617841974
 20
1544.0000035629670947
 30
0.0
  0
VERTEX
  5
282D
  8
TOP-CUT-OUTSIDE_18MM
 10
4453.4234849617841974
 20
1551.3000055629670442
 30
0.0
 42
-0.414213
  0
VERTEX
  5
282E
  8
TOP-CUT-OUTSIDE_18MM
 10
4457.9234849617841974
 20
1555.8000035629670492
 30
0.0
  0
VERTEX
  5
282F
  8
TOP-CUT-OUTSIDE_18MM
 10
4463.4234849617841974
 20
1555.8000035629670492
 30
0.0
 42
1.0
  0
VERTEX
  5
2830
  8
TOP-CUT-OUTSIDE_18MM
 10
4463.4234849617841974
 20
1565.3300035629670219
 30
0.0
  0
VERTEX
  5
2831
  8
TOP-CUT-OUTSIDE_18MM
 10
4463.4234849617841974
 20
1574.0000035629670947
 30
0.0
 42
1.0
  0
VERTEX
  5
2832
  8
TOP-CUT-OUTSIDE_18MM
 10
4453.893484961784452
 20
1574.0000035629670947
 30
0.0
  0
VERTEX
  5
2833
  8
TOP-CUT-OUTSIDE_18MM
 10
4417.9234849617841974
 20
1574.0000035629670947
 30
0.0
 42
-0.4142140000000001
  0
VERTEX
  5
2834
  8
TOP-CUT-OUTSIDE_18MM
 10
4413.4234849617841974
 20
1578.4999235629670693
 30
0.0
  0
VERTEX
  5
2835
  8
TOP-CUT-OUTSIDE_18MM
 10
4413.4234849617841974
 20
3797.5000035629677768
 30
0.0
 42
-0.4142140000000001
  0
VERTEX
  5
2836
  8
TOP-CUT-OUTSIDE_18MM
 10
4417.9234849617841974
 20
3802.0000035629668673
 30
0.0
  0
VERTEX
  5
2837
  8
TOP-CUT-OUTSIDE_18MM
 10
4453.893484961784452
 20
3802.0000035629668673
 30
0.0
 42
1.0
  0
VERTEX
  5
2838
  8
TOP-CUT-OUTSIDE_18MM
 10
4463.4234849617841974
 20
3802.0000035629668673
 30
0.0
  0
VERTEX
  5
2839
  8
TOP-CUT-OUTSIDE_18MM
 10
4463.4234849617841974
 20
3810.6700035629669401
 30
0.0
 42
1.0
  0
VERTEX
  5
283A
  8
TOP-CUT-OUTSIDE_18MM
 10
4463.4234849617841974
 20
3820.2000035629680497
 30
0.0
  0
VERTEX
  5
283B
  8
TOP-CUT-OUTSIDE_18MM
 10
4457.9234849617841974
 20
3820.2000035629680497
 30
0.0
 42
-0.4142140000000001
  0
VERTEX
  5
283C
  8
TOP-CUT-OUTSIDE_18MM
 10
4453.4234849617841974
 20
3824.7000035629680497
 30
0.0
  0
VERTEX
  5
283D
  8
TOP-CUT-OUTSIDE_18MM
 10
4453.4234849617841974
 20
3832.0000035629668673
 30
0.0
  0
VERTEX
  5
283E
  8
TOP-CUT-OUTSIDE_18MM
 10
4503.4234849617851069
 20
3832.0000035629668673
 30
0.0
  0
VERTEX
  5
283F
  8
TOP-CUT-OUTSIDE_18MM
 10
4503.4234849617851069
 20
1544.0000035629670947
 30
0.0
  0
SEQEND
  5
2840
  8
TOP-CUT-OUTSIDE_18MM
  0
CIRCLE
  5
250B
  8
TOP-HOLE-6MM-DIAM_14MM
 10
4473.4234849617832879
 20
3752.0000035629668673
 30
0.0
 40
3.0
  0
CIRCLE
  5
250C
  8
TOP-HOLE-6MM-DIAM_14MM
 10
4438.4234849617832879
 20
3552.0000035629668673
 30
0.0
 40
3.0
  0
CIRCLE
  5
250D
  8
TOP-HOLE-6MM-DIAM_14MM
 10
4473.4234849617832879
 20
3327.0000035629668673
 30
0.0
 40
3.0
  0
CIRCLE
  5
250E
  8
TOP-HOLE-6MM-DIAM_14MM
 10
4438.4234849617832879
 20
3102.0000035629677768
 30
0.0
 40
3.0
  0
CIRCLE
  5
250F
  8
TOP-HOLE-6MM-DIAM_14MM
 10
4473.4234849617832879
 20
2877.0000035629668673
 30
0.0
 40
3.0
  0
CIRCLE
  5
2510
  8
TOP-HOLE-6MM-DIAM_14MM
 10
4438.4234849617832879
 20
2688.0000035629668673
 30
0.0
 40
3.0
  0
CIRCLE
  5
2511
  8
TOP-HOLE-6MM-DIAM_14MM
 10
4473.4234849617832879
 20
1624.0000035629670947
 30
0.0
 40
3.0
  0
CIRCLE
  5
2512
  8
TOP-HOLE-6MM-DIAM_14MM
 10
4568.4234849617841974
 20
3752.0000035629668673
 30
0.0
 40
3.0
  0
CIRCLE
  5
2513
  8
TOP-HOLE-6MM-DIAM_14MM
 10
4603.4234849617841974
 20
3552.0000035629668673
 30
0.0
 40
3.0
  0
CIRCLE
  5
2514
  8
TOP-HOLE-6MM-DIAM_14MM
 10
4568.4234849617841974
 20
3327.0000035629668673
 30
0.0
 40
3.0
  0
CIRCLE
  5
2515
  8
TOP-HOLE-6MM-DIAM_14MM
 10
4603.4234849617841974
 20
3102.0000035629677768
 30
0.0
 40
3.0
  0
CIRCLE
  5
2516
  8
TOP-HOLE-6MM-DIAM_14MM
 10
4568.4234849617841974
 20
2877.0000035629668673
 30
0.0
 40
3.0
  0
CIRCLE
  5
2517
  8
TOP-HOLE-6MM-DIAM_14MM
 10
4603.4234849617841974
 20
2688.0000035629668673
 30
0.0
 40
3.0
  0
CIRCLE
  5
2518
  8
TOP-HOLE-6MM-DIAM_14MM
 10
4568.4234849617841974
 20
1624.0000035629670947
 30
0.0
 40
3.0
  0
CIRCLE
  5
2519
  8
TOP-HOLE-6MM-DIAM_18MM
 10
3620.5000169617837855
 20
3751.9848515629678332
 30
0.0
 40
3.0
  0
CIRCLE
  5
251A
  8
TOP-HOLE-6MM-DIAM_18MM
 10
3620.5000169617837855
 20
3451.9848515629678332
 30
0.0
 40
3.0
  0
CIRCLE
  5
251B
  8
TOP-HOLE-6MM-DIAM_18MM
 10
3620.5000169617837855
 20
3101.9848515629669237
 30
0.0
 40
3.0
  0
CIRCLE
  5
251C
  8
TOP-HOLE-6MM-DIAM_18MM
 10
3620.5000169617837855
 20
2687.9848515629678332
 30
0.0
 40
3.0
  0
CIRCLE
  5
251D
  8
TOP-HOLE-6MM-DIAM_18MM
 10
3620.5000169617837855
 20
2273.9848515629678332
 30
0.0
 40
3.0
  0
CIRCLE
  5
251E
  8
TOP-HOLE-6MM-DIAM_18MM
 10
3620.5000169617837855
 20
1923.9848515629669237
 30
0.0
 40
3.0
  0
CIRCLE
  5
251F
  8
TOP-HOLE-6MM-DIAM_18MM
 10
3620.5000169617837855
 20
1623.9848515629669237
 30
0.0
 40
3.0
  0
CIRCLE
  5
2520
  8
TOP-HOLE-6MM-DIAM_05MM
 10
3730.5000169617837855
 20
3752.0000035629668673
 30
0.0
 40
3.0
  0
CIRCLE
  5
2521
  8
TOP-HOLE-6MM-DIAM_05MM
 10
3730.5000169617837855
 20
3452.0000035629668673
 30
0.0
 40
3.0
  0
CIRCLE
  5
2522
  8
TOP-HOLE-6MM-DIAM_05MM
 10
3730.5000169617837855
 20
3102.0000035629677768
 30
0.0
 40
3.0
  0
CIRCLE
  5
2523
  8
TOP-HOLE-6MM-DIAM_05MM
 10
3730.5000169617837855
 20
2688.0000035629668673
 30
0.0
 40
3.0
  0
CIRCLE
  5
2524
  8
TOP-HOLE-6MM-DIAM_05MM
 10
3730.5000169617837855
 20
2274.0000035629668673
 30
0.0
 40
3.0
  0
CIRCLE
  5
2525
  8
TOP-HOLE-6MM-DIAM_05MM
 10
3730.5000169617837855
 20
1924.0000035629670947
 30
0.0
 40
3.0
  0
CIRCLE
  5
2526
  8
TOP-HOLE-6MM-DIAM_05MM
 10
3730.5000169617837855
 20
1624.0000035629670947
 30
0.0
 40
3.0
  0
CIRCLE
  5
2527
  8
TOP-HOLE-6MM-DIAM_05MM
 10
3864.4999669617841391
 20
3752.0000035629668673
 30
0.0
 40
3.0
  0
CIRCLE
  5
2528
  8
TOP-HOLE-6MM-DIAM_05MM
 10
3864.4999669617841391
 20
3452.0000035629668673
 30
0.0
 40
3.0
  0
CIRCLE
  5
2529
  8
TOP-HOLE-6MM-DIAM_05MM
 10
3864.4999669617841391
 20
3102.0000035629677768
 30
0.0
 40
3.0
  0
CIRCLE
  5
252A
  8
TOP-HOLE-6MM-DIAM_05MM
 10
3864.4999669617841391
 20
2688.0000035629668673
 30
0.0
 40
3.0
  0
CIRCLE
  5
252B
  8
TOP-HOLE-6MM-DIAM_05MM
 10
3864.4999669617841391
 20
2274.0000035629668673
 30
0.0
 40
3.0
  0
CIRCLE
  5
252C
  8
TOP-HOLE-6MM-DIAM_05MM
 10
3864.4999669617841391
 20
1924.0000035629670947
 30
0.0
 40
3.0
  0
CIRCLE
  5
252D
  8
TOP-HOLE-6MM-DIAM_05MM
 10
3864.4999669617841391
 20
1624.0000035629670947
 30
0.0
 40
3.0
  0
CIRCLE
  5
252E
  8
TOP-HOLE-6MM-DIAM_18MM
 10
3950.5000169617851498
 20
3751.9848515629678332
 30
0.0
 40
3.0
  0
CIRCLE
  5
252F
  8
TOP-HOLE-6MM-DIAM_18MM
 10
3950.5000169617851498
 20
3451.9848515629678332
 30
0.0
 40
3.0
  0
CIRCLE
  5
2530
  8
TOP-HOLE-6MM-DIAM_18MM
 10
3950.5000169617851498
 20
3101.9848515629669237
 30
0.0
 40
3.0
  0
CIRCLE
  5
2531
  8
TOP-HOLE-6MM-DIAM_18MM
 10
3950.5000169617851498
 20
2687.9848515629678332
 30
0.0
 40
3.0
  0
CIRCLE
  5
2532
  8
TOP-HOLE-6MM-DIAM_18MM
 10
3950.5000169617851498
 20
2273.9848515629678332
 30
0.0
 40
3.0
  0
CIRCLE
  5
2533
  8
TOP-HOLE-6MM-DIAM_18MM
 10
3950.5000169617851498
 20
1923.9848515629669237
 30
0.0
 40
3.0
  0
CIRCLE
  5
2534
  8
TOP-HOLE-6MM-DIAM_18MM
 10
3950.5000169617851498
 20
1623.9848515629669237
 30
0.0
 40
3.0
  0
CIRCLE
  5
2535
  8
TOP-HOLE-6MM-DIAM_05MM
 10
4060.5000169617851498
 20
3752.0000035629668673
 30
0.0
 40
3.0
  0
CIRCLE
  5
2536
  8
TOP-HOLE-6MM-DIAM_05MM
 10
4060.5000169617851498
 20
3452.0000035629668673
 30
0.0
 40
3.0
  0
CIRCLE
  5
2537
  8
TOP-HOLE-6MM-DIAM_05MM
 10
4060.5000169617851498
 20
3102.0000035629677768
 30
0.0
 40
3.0
  0
CIRCLE
  5
2538
  8
TOP-HOLE-6MM-DIAM_05MM
 10
4060.5000169617851498
 20
2688.0000035629668673
 30
0.0
 40
3.0
  0
CIRCLE
  5
2539
  8
TOP-HOLE-6MM-DIAM_05MM
 10
4060.5000169617851498
 20
2274.0000035629668673
 30
0.0
 40
3.0
  0
CIRCLE
  5
253A
  8
TOP-HOLE-6MM-DIAM_05MM
 10
4060.5000169617851498
 20
1924.0000035629670947
 30
0.0
 40
3.0
  0
CIRCLE
  5
253B
  8
TOP-HOLE-6MM-DIAM_05MM
 10
4060.5000169617851498
 20
1624.0000035629670947
 30
0.0
 40
3.0
  0
CIRCLE
  5
253C
  8
TOP-HOLE-6MM-DIAM_14MM
 10
4174.9999919617839623
 20
1824.0000035629670947
 30
0.0
 40
3.0
  0
CIRCLE
  5
253D
  8
TOP-HOLE-6MM-DIAM_14MM
 10
4209.9999919617839623
 20
2049.0000035629677768
 30
0.0
 40
3.0
  0
CIRCLE
  5
253E
  8
TOP-HOLE-6MM-DIAM_14MM
 10
4174.9999919617839623
 20
2274.0000035629668673
 30
0.0
 40
3.0
  0
CIRCLE
  5
253F
  8
TOP-HOLE-6MM-DIAM_14MM
 10
4209.9999919617839623
 20
2499.0000035629668673
 30
0.0
 40
3.0
  0
CIRCLE
  5
2540
  8
TOP-HOLE-6MM-DIAM_14MM
 10
4339.9999919617839623
 20
1824.0000035629670947
 30
0.0
 40
3.0
  0
CIRCLE
  5
2541
  8
TOP-HOLE-6MM-DIAM_14MM
 10
4304.9999919617839623
 20
2049.0000035629677768
 30
0.0
 40
3.0
  0
CIRCLE
  5
2542
  8
TOP-HOLE-6MM-DIAM_14MM
 10
4339.9999919617839623
 20
2274.0000035629668673
 30
0.0
 40
3.0
  0
CIRCLE
  5
2543
  8
TOP-HOLE-6MM-DIAM_14MM
 10
4304.9999919617839623
 20
2499.0000035629668673
 30
0.0
 40
3.0
  0
CIRCLE
  5
2544
  8
TOP-HOLE-6MM-DIAM_14MM
 10
4438.4234849617832879
 20
1824.0000035629670947
 30
0.0
 40
3.0
  0
CIRCLE
  5
2545
  8
TOP-HOLE-6MM-DIAM_14MM
 10
4473.4234849617832879
 20
2049.0000035629677768
 30
0.0
 40
3.0
  0
CIRCLE
  5
2546
  8
TOP-HOLE-6MM-DIAM_14MM
 10
4438.4234849617832879
 20
2274.0000035629668673
 30
0.0
 40
3.0
  0
CIRCLE
  5
2547
  8
TOP-HOLE-6MM-DIAM_14MM
 10
4473.4234849617832879
 20
2499.0000035629668673
 30
0.0
 40
3.0
  0
CIRCLE
  5
2548
  8
TOP-HOLE-6MM-DIAM_14MM
 10
4603.4234849617841974
 20
1824.0000035629670947
 30
0.0
 40
3.0
  0
CIRCLE
  5
2549
  8
TOP-HOLE-6MM-DIAM_14MM
 10
4568.4234849617841974
 20
2049.0000035629677768
 30
0.0
 40
3.0
  0
CIRCLE
  5
254A
  8
TOP-HOLE-6MM-DIAM_14MM
 10
4603.4234849617841974
 20
2274.0000035629668673
 30
0.0
 40
3.0
  0
CIRCLE
  5
254B
  8
TOP-HOLE-6MM-DIAM_14MM
 10
4568.4234849617841974
 20
2499.0000035629668673
 30
0.0
 40
3.0
  0
ENDSEC
  0
EOF
