  0
SECTION
  2
HEADER
  9
$ACADVER
  1
AC1018
  9
$ACADMAINTVER
 70
   104
  9
$DWGCODEPAGE
  3
ANSI_1252
  9
$INSBASE
 10
197.9046356161037
 20
0.0
 30
0.0
  9
$EXTMIN
 10
-0.0000000000000142
 20
0.0
 30
-0.3696194686731291
  9
$EXTMAX
 10
293.9046356161037
 20
150.9764800310048
 30
0.3696194686731297
  9
$LIMMIN
 10
0.0
 20
0.0
  9
$LIMMAX
 10
12.0
 20
9.0
  9
$ORTHOMODE
 70
     0
  9
$REGENMODE
 70
     1
  9
$FILLMODE
 70
     1
  9
$QTEXTMODE
 70
     0
  9
$MIRRTEXT
 70
     1
  9
$LTSCALE
 40
1.0
  9
$ATTMODE
 70
     1
  9
$TEXTSIZE
 40
10.0
  9
$TRACEWID
 40
0.05
  9
$TEXTSTYLE
  7
Standard
  9
$CLAYER
  8
0
  9
$CELTYPE
  6
ByLayer
  9
$CECOLOR
 62
   256
  9
$CELTSCALE
 40
1.0
  9
$DISPSILH
 70
     0
  9
$DIMSCALE
 40
1.0
  9
$DIMASZ
 40
0.18
  9
$DIMEXO
 40
0.0625
  9
$DIMDLI
 40
0.38
  9
$DIMRND
 40
0.0
  9
$DIMDLE
 40
0.0
  9
$DIMEXE
 40
0.18
  9
$DIMTP
 40
0.0
  9
$DIMTM
 40
0.0
  9
$DIMTXT
 40
0.18
  9
$DIMCEN
 40
0.09
  9
$DIMTSZ
 40
0.0
  9
$DIMTOL
 70
     0
  9
$DIMLIM
 70
     0
  9
$DIMTIH
 70
     1
  9
$DIMTOH
 70
     1
  9
$DIMSE1
 70
     0
  9
$DIMSE2
 70
     0
  9
$DIMTAD
 70
     0
  9
$DIMZIN
 70
     0
  9
$DIMBLK
  1

  9
$DIMASO
 70
     1
  9
$DIMSHO
 70
     1
  9
$DIMPOST
  1

  9
$DIMAPOST
  1

  9
$DIMALT
 70
     0
  9
$DIMALTD
 70
     2
  9
$DIMALTF
 40
25.4
  9
$DIMLFAC
 40
1.0
  9
$DIMTOFL
 70
     0
  9
$DIMTVP
 40
0.0
  9
$DIMTIX
 70
     0
  9
$DIMSOXD
 70
     0
  9
$DIMSAH
 70
     0
  9
$DIMBLK1
  1

  9
$DIMBLK2
  1

  9
$DIMSTYLE
  2
Standard
  9
$DIMCLRD
 70
     0
  9
$DIMCLRE
 70
     0
  9
$DIMCLRT
 70
     0
  9
$DIMTFAC
 40
1.0
  9
$DIMGAP
 40
0.09
  9
$DIMJUST
 70
     0
  9
$DIMSD1
 70
     0
  9
$DIMSD2
 70
     0
  9
$DIMTOLJ
 70
     1
  9
$DIMTZIN
 70
     0
  9
$DIMALTZ
 70
     0
  9
$DIMALTTZ
 70
     0
  9
$DIMUPT
 70
     0
  9
$DIMDEC
 70
     4
  9
$DIMTDEC
 70
     4
  9
$DIMALTU
 70
     2
  9
$DIMALTTD
 70
     2
  9
$DIMTXSTY
  7
Standard
  9
$DIMAUNIT
 70
     0
  9
$DIMADEC
 70
     0
  9
$DIMALTRND
 40
0.0
  9
$DIMAZIN
 70
     0
  9
$DIMDSEP
 70
    46
  9
$DIMATFIT
 70
     3
  9
$DIMFRAC
 70
     0
  9
$DIMLDRBLK
  1

  9
$DIMLUNIT
 70
     2
  9
$DIMLWD
 70
    -2
  9
$DIMLWE
 70
    -2
  9
$DIMTMOVE
 70
     0
  9
$LUNITS
 70
     4
  9
$LUPREC
 70
     8
  9
$SKETCHINC
 40
0.1
  9
$FILLETRAD
 40
0.5
  9
$AUNITS
 70
     0
  9
$AUPREC
 70
     0
  9
$MENU
  1
.
  9
$ELEVATION
 40
0.0
  9
$PELEVATION
 40
0.0
  9
$THICKNESS
 40
0.0
  9
$LIMCHECK
 70
     0
  9
$CHAMFERA
 40
0.5
  9
$CHAMFERB
 40
0.5
  9
$CHAMFERC
 40
1.0
  9
$CHAMFERD
 40
0.0
  9
$SKPOLY
 70
     0
  9
$TDCREATE
 40
2456457.447974537
  9
$TDUCREATE
 40
2456457.614641204
  9
$TDUPDATE
 40
2456623.595603739
  9
$TDUUPDATE
 40
2456623.803937072
  9
$TDINDWG
 40
4.8567611227
  9
$TDUSRTIMER
 40
4.8567611111
  9
$USRTIMER
 70
     1
  9
$ANGBASE
 50
0.0
  9
$ANGDIR
 70
     0
  9
$PDMODE
 70
     0
  9
$PDSIZE
 40
0.0
  9
$PLINEWID
 40
0.0
  9
$SPLFRAME
 70
     0
  9
$SPLINETYPE
 70
     6
  9
$SPLINESEGS
 70
     8
  9
$HANDSEED
  5
C0
  9
$SURFTAB1
 70
     6
  9
$SURFTAB2
 70
     6
  9
$SURFTYPE
 70
     6
  9
$SURFU
 70
     6
  9
$SURFV
 70
     6
  9
$UCSBASE
  2

  9
$UCSNAME
  2

  9
$UCSORG
 10
0.0
 20
0.0
 30
0.0
  9
$UCSXDIR
 10
1.0
 20
0.0
 30
0.0
  9
$UCSYDIR
 10
0.0
 20
1.0
 30
0.0
  9
$UCSORTHOREF
  2

  9
$UCSORTHOVIEW
 70
     0
  9
$UCSORGTOP
 10
0.0
 20
0.0
 30
0.0
  9
$UCSORGBOTTOM
 10
0.0
 20
0.0
 30
0.0
  9
$UCSORGLEFT
 10
0.0
 20
0.0
 30
0.0
  9
$UCSORGRIGHT
 10
0.0
 20
0.0
 30
0.0
  9
$UCSORGFRONT
 10
0.0
 20
0.0
 30
0.0
  9
$UCSORGBACK
 10
0.0
 20
0.0
 30
0.0
  9
$PUCSBASE
  2

  9
$PUCSNAME
  2

  9
$PUCSORG
 10
0.0
 20
0.0
 30
0.0
  9
$PUCSXDIR
 10
1.0
 20
0.0
 30
0.0
  9
$PUCSYDIR
 10
0.0
 20
1.0
 30
0.0
  9
$PUCSORTHOREF
  2

  9
$PUCSORTHOVIEW
 70
     0
  9
$PUCSORGTOP
 10
0.0
 20
0.0
 30
0.0
  9
$PUCSORGBOTTOM
 10
0.0
 20
0.0
 30
0.0
  9
$PUCSORGLEFT
 10
0.0
 20
0.0
 30
0.0
  9
$PUCSORGRIGHT
 10
0.0
 20
0.0
 30
0.0
  9
$PUCSORGFRONT
 10
0.0
 20
0.0
 30
0.0
  9
$PUCSORGBACK
 10
0.0
 20
0.0
 30
0.0
  9
$USERI1
 70
     0
  9
$USERI2
 70
     0
  9
$USERI3
 70
     0
  9
$USERI4
 70
     0
  9
$USERI5
 70
     0
  9
$USERR1
 40
0.0
  9
$USERR2
 40
0.0
  9
$USERR3
 40
0.0
  9
$USERR4
 40
0.0
  9
$USERR5
 40
0.0
  9
$WORLDVIEW
 70
     1
  9
$SHADEDGE
 70
     3
  9
$SHADEDIF
 70
    70
  9
$TILEMODE
 70
     1
  9
$MAXACTVP
 70
    64
  9
$PINSBASE
 10
0.0
 20
0.0
 30
0.0
  9
$PLIMCHECK
 70
     0
  9
$PEXTMIN
 10
1.000000000000000E+20
 20
1.000000000000000E+20
 30
1.000000000000000E+20
  9
$PEXTMAX
 10
-1.000000000000000E+20
 20
-1.000000000000000E+20
 30
-1.000000000000000E+20
  9
$PLIMMIN
 10
0.0
 20
0.0
  9
$PLIMMAX
 10
12.0
 20
9.0
  9
$UNITMODE
 70
     0
  9
$VISRETAIN
 70
     1
  9
$PLINEGEN
 70
     0
  9
$PSLTSCALE
 70
     1
  9
$TREEDEPTH
 70
  3020
  9
$CMLSTYLE
  2
Standard
  9
$CMLJUST
 70
     0
  9
$CMLSCALE
 40
1.0
  9
$PROXYGRAPHICS
 70
     1
  9
$MEASUREMENT
 70
     0
  9
$CELWEIGHT
370
    -1
  9
$ENDCAPS
280
     0
  9
$JOINSTYLE
280
     0
  9
$LWDISPLAY
290
     0
  9
$INSUNITS
 70
     1
  9
$HYPERLINKBASE
  1

  9
$STYLESHEET
  1

  9
$XEDIT
290
     1
  9
$CEPSNTYPE
380
     0
  9
$PSTYLEMODE
290
     1
  9
$FINGERPRINTGUID
  2
{65CD43DA-AE29-D041-945F-926C44D19D45}
  9
$VERSIONGUID
  2
{24AC6881-A50E-B549-ACBA-0DD6D0A18FCA}
  9
$EXTNAMES
290
     1
  9
$PSVPSCALE
 40
0.0
  9
$OLESTARTUP
290
     0
  9
$SORTENTS
280
   127
  9
$INDEXCTL
280
     0
  9
$HIDETEXT
280
     1
  9
$XCLIPFRAME
290
     0
  9
$HALOGAP
280
     0
  9
$OBSCOLOR
 70
   257
  9
$OBSLTYPE
280
     0
  9
$INTERSECTIONDISPLAY
280
     0
  9
$INTERSECTIONCOLOR
 70
   257
  9
$DIMASSOC
280
     2
  9
$PROJECTNAME
  1

  0
ENDSEC
  0
SECTION
  2
CLASSES
  0
CLASS
  1
ACDBDICTIONARYWDFLT
  2
AcDbDictionaryWithDefault
  3
ObjectDBX Classes
 90
        0
 91
        1
280
     0
281
     0
  0
CLASS
  1
VISUALSTYLE
  2
AcDbVisualStyle
  3
ObjectDBX Classes
 90
     4095
 91
        3
280
     0
281
     0
  0
CLASS
  1
MATERIAL
  2
AcDbMaterial
  3
ObjectDBX Classes
 90
     1153
 91
        3
280
     0
281
     0
  0
CLASS
  1
SCALE
  2
AcDbScale
  3
ObjectDBX Classes
 90
     1153
 91
       33
280
     0
281
     0
  0
CLASS
  1
DICTIONARYVAR
  2
AcDbDictionaryVar
  3
ObjectDBX Classes
 90
        0
 91
       12
280
     0
281
     0
  0
CLASS
  1
TABLESTYLE
  2
AcDbTableStyle
  3
ObjectDBX Classes
 90
     4095
 91
        1
280
     0
281
     0
  0
CLASS
  1
MLEADERSTYLE
  2
AcDbMLeaderStyle
  3
ACDB_MLEADERSTYLE_CLASS
 90
     4095
 91
        0
280
     0
281
     0
  0
CLASS
  1
ACDBSECTIONVIEWSTYLE
  2
AcDbSectionViewStyle
  3
ObjectDBX Classes
 90
     1025
 91
        0
280
     0
281
     0
  0
CLASS
  1
ACDBDETAILVIEWSTYLE
  2
AcDbDetailViewStyle
  3
ObjectDBX Classes
 90
     1025
 91
        0
280
     0
281
     0
  0
CLASS
  1
SORTENTSTABLE
  2
AcDbSortentsTable
  3
ObjectDBX Classes
 90
        0
 91
        2
280
     0
281
     0
  0
CLASS
  1
CELLSTYLEMAP
  2
AcDbCellStyleMap
  3
ObjectDBX Classes
 90
     1152
 91
        1
280
     0
281
     0
  0
CLASS
  1
ACAD_EVALUATION_GRAPH
  2
AcDbEvalGraph
  3
ObjectDBX Classes
 90
     1153
 91
        0
280
     0
281
     0
  0
CLASS
  1
ACAECUSTOBJ
  2
AcAeEditorObj
  3
AcAeEditorObj
 90
     1024
 91
        0
280
     1
281
     0
  0
CLASS
  1
ACDB_DYNAMICBLOCKPURGEPREVENTER_VERSION
  2
AcDbDynamicBlockPurgePreventer
  3
ObjectDBX Classes
 90
     1153
 91
        0
280
     0
281
     0
  0
ENDSEC
  0
SECTION
  2
TABLES
  0
TABLE
  2
VPORT
  5
22
102
{ACAD_XDICTIONARY
360
27
102
}
330
0
100
AcDbSymbolTable
 70
     1
  0
VPORT
  5
23
330
22
100
AcDbSymbolTableRecord
100
AcDbViewportTableRecord
  2
*Active
 70
     0
 10
0.0
 20
0.0
 11
1.0
 21
1.0
 12
158.8157973530003
 22
91.36000102435536
 13
0.0
 23
0.0
 14
0.5
 24
0.5
 15
0.5
 25
0.5
 16
0.0
 26
0.0
 36
1.0
 17
0.0
 27
0.0
 37
0.0
 40
268.8823682442908
 41
1.381165919282511
 42
50.0
 43
0.0
 44
0.0
 50
0.0
 51
0.0
 71
     0
 72
   100
 73
     1
 74
     3
 75
     0
 76
     0
 77
     0
 78
     0
281
     0
 65
     1
110
0.0
120
0.0
130
0.0
111
1.0
121
0.0
131
0.0
112
0.0
122
1.0
132
0.0
 79
     0
146
0.0
1001
ACAD_NAV_VCDISPLAY
1070
     3
  0
ENDTAB
  0
TABLE
  2
LTYPE
  5
1D
330
0
100
AcDbSymbolTable
 70
     1
  0
LTYPE
  5
1E
330
1D
100
AcDbSymbolTableRecord
100
AcDbLinetypeTableRecord
  2
ByBlock
 70
     0
  3

 72
    65
 73
     0
 40
0.0
  0
LTYPE
  5
1F
330
1D
100
AcDbSymbolTableRecord
100
AcDbLinetypeTableRecord
  2
ByLayer
 70
     0
  3

 72
    65
 73
     0
 40
0.0
  0
LTYPE
  5
E
330
1D
100
AcDbSymbolTableRecord
100
AcDbLinetypeTableRecord
  2
Continuous
 70
     0
  3
Solid line
 72
    65
 73
     0
 40
0.0
  0
ENDTAB
  0
TABLE
  2
LAYER
  5
17
102
{ACAD_XDICTIONARY
360
18
102
}
330
0
100
AcDbSymbolTable
 70
     4
  0
LAYER
  5
6
330
17
100
AcDbSymbolTableRecord
100
AcDbLayerTableRecord
  2
0
 70
     0
 62
    -7
  6
Continuous
370
    -3
390
7
  0
LAYER
  5
9B
330
17
100
AcDbSymbolTableRecord
100
AcDbLayerTableRecord
  2
000_NOTES
 70
     0
 62
     6
  6
Continuous
370
    -3
390
7
1001
AcAecLayerStandard
1000

1000

1001
AcCmTransparency
1071
        0
  0
LAYER
  5
61
330
17
100
AcDbSymbolTableRecord
100
AcDbLayerTableRecord
  2
CUT_THRU
 70
     0
 62
     7
  6
Continuous
370
    -3
390
7
1001
AcAecLayerStandard
1000

1000

1001
AcCmTransparency
1071
        0
  0
LAYER
  5
73
330
17
100
AcDbSymbolTableRecord
100
AcDbLayerTableRecord
  2
CUT_HOLE
 70
     0
 62
     1
  6
Continuous
370
    -3
390
7
1001
AcAecLayerStandard
1000

1000

1001
AcCmTransparency
1071
        0
  0
ENDTAB
  0
TABLE
  2
STYLE
  5
1A
330
0
100
AcDbSymbolTable
 70
     1
  0
STYLE
  5
1B
330
1A
100
AcDbSymbolTableRecord
100
AcDbTextStyleTableRecord
  2
Standard
 70
     0
 40
0.0
 41
1.0
 50
0.0
 71
     0
 42
10.0
  3
txt
  4

  0
ENDTAB
  0
TABLE
  2
VIEW
  5
20
330
0
100
AcDbSymbolTable
 70
     0
  0
ENDTAB
  0
TABLE
  2
UCS
  5
21
330
0
100
AcDbSymbolTable
 70
     0
  0
ENDTAB
  0
TABLE
  2
APPID
  5
28
330
0
100
AcDbSymbolTable
 70
     5
  0
APPID
  5
29
330
28
100
AcDbSymbolTableRecord
100
AcDbRegAppTableRecord
  2
ACAD
 70
     0
  0
APPID
  5
26
330
28
100
AcDbSymbolTableRecord
100
AcDbRegAppTableRecord
  2
ACAD_NAV_VCDISPLAY
 70
     0
  0
APPID
  5
62
330
28
100
AcDbSymbolTableRecord
100
AcDbRegAppTableRecord
  2
AcAecLayerStandard
 70
     0
  0
APPID
  5
63
330
28
100
AcDbSymbolTableRecord
100
AcDbRegAppTableRecord
  2
AcCmTransparency
 70
     0
  0
APPID
  5
7A
330
28
100
AcDbSymbolTableRecord
100
AcDbRegAppTableRecord
  2
AcDbDynamicBlockGUID
 70
     0
  0
ENDTAB
  0
TABLE
  2
DIMSTYLE
  5
2A
330
0
100
AcDbSymbolTable
 70
     1
100
AcDbDimStyleTable
 71
     1
340
2B
  0
DIMSTYLE
105
2B
330
2A
100
AcDbSymbolTableRecord
100
AcDbDimStyleTableRecord
  2
Standard
 70
     0
340
1B
  0
ENDTAB
  0
TABLE
  2
BLOCK_RECORD
  5
1
330
0
100
AcDbSymbolTable
 70
     1
  0
BLOCK_RECORD
  5
2
102
{ACAD_XDICTIONARY
360
3
102
}
330
1
100
AcDbSymbolTableRecord
100
AcDbBlockTableRecord
  2
*Model_Space
340
10
  0
BLOCK_RECORD
  5
13
330
1
100
AcDbSymbolTableRecord
100
AcDbBlockTableRecord
  2
*Paper_Space
340
16
  0
BLOCK_RECORD
  5
74
102
{ACAD_XDICTIONARY
360
75
102
}
330
1
100
AcDbSymbolTableRecord
100
AcDbBlockTableRecord
  2
FASTENER
340
0
102
{BLKREFS
331
72
331
7B
331
7C
331
7D
331
7E
331
7F
331
80
331
81
331
82
331
83
331
84
331
85
331
86
331
87
331
88
331
89
331
8A
331
8B
331
8C
331
8D
331
8E
331
8F
331
90
331
91
331
92
331
93
331
94
331
95
331
96
331
97
331
98
331
99
102
}
1001
AcDbDynamicBlockGUID
1000
{FD646C56-D228-5347-A99B-E4C8BABD590D}
1001
ACAD
1000
DesignCenter Data
1002
{
1070
     1
1070
     1
1002
}
  0
ENDTAB
  0
ENDSEC
  0
SECTION
  2
BLOCKS
  0
BLOCK
  5
5
330
2
100
AcDbEntity
  8
0
100
AcDbBlockBegin
  2
*Model_Space
 70
     0
 10
0.0
 20
0.0
 30
0.0
  3
*Model_Space
  1

  0
ENDBLK
  5
F
330
2
100
AcDbEntity
  8
0
100
AcDbBlockEnd
  0
BLOCK
  5
14
330
13
100
AcDbEntity
 67
     1
  8
0
100
AcDbBlockBegin
  2
*Paper_Space
 70
     0
 10
0.0
 20
0.0
 30
0.0
  3
*Paper_Space
  1

  0
ENDBLK
  5
15
330
13
100
AcDbEntity
 67
     1
  8
0
100
AcDbBlockEnd
  0
BLOCK
  5
76
330
74
100
AcDbEntity
  8
0
100
AcDbBlockBegin
  2
FASTENER
 70
     0
 10
0.0
 20
0.0
 30
0.0
  3
FASTENER
  1

  0
POINT
  5
77
330
74
100
AcDbEntity
  8
0
100
AcDbPoint
 10
0.0
 20
0.0
 30
0.0
  0
CIRCLE
  5
78
330
74
100
AcDbEntity
  8
0
100
AcDbCircle
 10
0.0
 20
0.0
 30
0.0
 40
0.125
  0
ENDBLK
  5
79
330
74
100
AcDbEntity
  8
0
100
AcDbBlockEnd
  0
ENDSEC
  0
SECTION
  2
ENTITIES
  0
LWPOLYLINE
  5
60
330
2
100
AcDbEntity
  8
CUT_THRU
100
AcDbPolyline
 90
       64
 70
     1
 43
0.0
 10
270.382144388028
 20
97.74521840033166
 10
255.98460052838
 20
97.74521840033173
 42
0.4142135623730951
 10
255.8288110546958
 20
97.58942892664748
 42
-1.0
 10
255.5172321073274
 20
97.58942892664748
 10
255.5172321073274
 20
98.48521840033164
 10
253.9398636862749
 20
98.48521840033159
 10
253.9398636862749
 20
97.00521840033173
 42
0.4142135623730618
 10
254.0956531599591
 20
96.8494289266475
 42
-1.0
 10
254.0956531599591
 20
96.5378499792791
 10
253.0440742125908
 20
96.5378499792791
 42
-1.0
 10
253.0440742125908
 20
96.8494289266475
 42
0.4142135623730869
 10
253.199863686275
 20
97.00521840033173
 10
253.199863686275
 20
98.48521840033159
 10
251.6224952652225
 20
98.48521840033164
 10
251.6224952652225
 20
97.58942892664748
 42
-1.0
 10
251.310916317854
 20
97.58942892664748
 42
0.4142135623730199
 10
251.1551268441699
 20
97.74521840033173
 10
233.9728461424168
 20
97.74521840033369
 10
233.9728461424168
 20
94.59048155822662
 10
234.8686356161009
 20
94.59048155822658
 42
-1.0
 10
234.8686356161009
 20
94.27890261085821
 42
0.4142135623730951
 10
234.7128461424167
 20
94.12311313717401
 10
234.7128461424168
 20
82.39995524243806
 42
0.4142135623731038
 10
234.868635616101
 20
82.24416576875386
 42
-1.0
 10
234.868635616101
 20
81.9325868213855
 10
233.9728461424168
 20
81.9325868213855
 10
233.9728461424168
 20
69.27469208454432
 10
235.9202145634693
 20
69.27469208454432
 10
235.9202145634693
 20
70.1704815582285
 42
-1.0
 10
236.2317935108377
 20
70.1704815582285
 42
0.4142135623730951
 10
236.3875829845219
 20
70.01469208454428
 10
237.8675829845217
 20
70.01469208454428
 10
243.7096882476792
 20
94.59048155822662
 10
288.4991619318863
 20
94.59048155822662
 10
288.4991619318863
 20
70.01469208454428
 10
289.9791619318861
 20
70.01469208454428
 42
0.4142135623731117
 10
290.1349514055703
 20
70.1704815582285
 42
-1.0
 10
290.4465303529388
 20
70.1704815582285
 10
290.4465303529388
 20
69.27469208454432
 10
291.6538987739913
 20
69.27469208454432
 10
291.6538987739913
 20
81.46521840033289
 42
0.4142135623730951
 10
291.4981093003071
 20
81.62100787401708
 42
-1.0
 10
291.4981093003071
 20
81.9325868213855
 10
292.3938987739912
 20
81.9325868213855
 10
292.3938987739912
 20
94.59048155822662
 10
291.4981093003071
 20
94.59048155822662
 42
-1.0
 10
291.4981093003071
 20
94.902060505595
 42
0.4142135623730951
 10
291.6538987739913
 20
95.05784997927923
 10
291.6538987739913
 20
97.74521840033369
 10
275.2116180722381
 20
97.74521840033173
 42
0.4142135623730951
 10
275.0558285985539
 20
97.58942892664748
 42
-1.0
 10
274.7442496511856
 20
97.58942892664748
 10
274.7442496511856
 20
98.48521840033164
 10
273.1668812301331
 20
98.48521840033159
 10
273.1668812301331
 20
97.00521840033173
 42
0.4142135623730618
 10
273.3226707038173
 20
96.8494289266475
 42
-1.0
 10
273.3226707038173
 20
96.5378499792791
 10
272.2710917564489
 20
96.5378499792791
 42
-1.0
 10
272.2710917564489
 20
96.8494289266475
 42
0.4142135623730869
 10
272.4268812301331
 20
97.00521840033173
 10
272.4268812301331
 20
98.48521840033159
 10
270.8495128090806
 20
98.48521840033164
 10
270.8495128090806
 20
97.58942892664748
 42
-1.0
 10
270.5379338617122
 20
97.58942892664748
 42
0.4142135623730199
  0
LWPOLYLINE
  5
64
330
2
100
AcDbEntity
  8
CUT_THRU
100
AcDbPolyline
 90
       65
 70
     1
 43
0.0
 10
244.2903185550296
 20
87.21033033063674
 10
244.2903185550295
 20
75.01980401484821
 42
0.4142135623731451
 10
244.4461080287137
 20
74.864014541164
 42
-1.0
 10
244.4461080287137
 20
74.55243559379559
 10
243.5503185550296
 20
74.55243559379559
 10
243.5503185550296
 20
61.89454085695444
 10
244.4461080287137
 20
61.89454085695448
 42
-1.0
 10
244.4461080287137
 20
61.58296190958608
 42
0.4142135623730951
 10
244.2903185550295
 20
61.42717243590188
 10
244.2903185550296
 20
58.73980401484761
 10
250.9957571515203
 20
58.73980401484942
 42
0.4142135623730204
 10
251.1515466252045
 20
58.89559348853361
 42
-1.0
 10
251.4631255725728
 20
58.89559348853361
 10
251.4631255725728
 20
57.99980401484948
 10
253.0404939936254
 20
57.99980401484951
 10
253.0404939936254
 20
59.47980401484942
 42
0.4142135623730618
 10
252.8847045199412
 20
59.63559348853359
 42
-1.0
 10
252.8847045199412
 20
59.947172435902
 10
253.9362834673095
 20
59.947172435902
 42
-1.0
 10
253.9362834673095
 20
59.63559348853361
 42
0.4142135623730951
 10
253.7804939936253
 20
59.47980401484942
 10
253.7804939936253
 20
57.99980401484951
 10
255.3578624146778
 20
57.99980401484948
 10
255.3578624146778
 20
58.89559348853361
 42
-1.0
 10
255.6694413620462
 20
58.89559348853361
 42
0.4142135623730951
 10
255.8252308357304
 20
58.73980401484942
 10
260.485932590116
 20
58.73980401484942
 42
0.4142135623730951
 10
260.6417220638002
 20
58.89559348853361
 42
-1.0
 10
260.9533010111686
 20
58.89559348853361
 10
260.9533010111686
 20
57.99980401484948
 10
262.5306694322211
 20
57.99980401484951
 10
262.5306694322211
 20
59.47980401484942
 42
0.4142135623730618
 10
262.3748799585369
 20
59.63559348853359
 42
-1.0
 10
262.3748799585369
 20
59.947172435902
 10
263.4264589059053
 20
59.947172435902
 42
-1.0
 10
263.4264589059053
 20
59.63559348853361
 42
0.4142135623730951
 10
263.2706694322211
 20
59.47980401484942
 10
263.2706694322211
 20
57.99980401484951
 10
264.8480378532736
 20
57.99980401484948
 10
264.8480378532736
 20
58.89559348853361
 42
-1.0
 10
265.1596168006419
 20
58.89559348853361
 42
0.4142135623730204
 10
265.3154062743261
 20
58.73980401484942
 10
272.7608448708168
 20
58.73980401484743
 10
272.7608448708168
 20
61.89454085695444
 10
271.8650553971327
 20
61.89454085695448
 42
-1.0
 10
271.8650553971327
 20
62.20611980432289
 42
0.4142135623730951
 10
272.0208448708169
 20
62.36190927800707
 10
272.0208448708169
 20
74.08506717274298
 42
0.4142135623731113
 10
271.8650553971327
 20
74.24085664642722
 42
-1.0
 10
271.8650553971327
 20
74.55243559379564
 10
272.7608448708168
 20
74.55243559379559
 10
272.7608448708168
 20
87.21033033063671
 10
270.8134764497643
 20
87.21033033063671
 10
270.8134764497643
 20
86.31454085695258
 42
-1.0
 10
270.5018975023959
 20
86.31454085695258
 42
0.4142135623730951
 10
270.3461080287117
 20
86.47033033063678
 10
268.8661080287119
 20
86.47033033063678
 10
263.0240027655544
 20
61.89454085695444
 10
247.4450553971346
 20
61.89454085695444
 10
247.4450553971346
 20
86.47033033063678
 10
245.9650553971347
 20
86.47033033063678
 42
0.4142135623730951
 10
245.8092659234505
 20
86.31454085695258
 42
-1.0
 10
245.4976869760821
 20
86.31454085695258
 10
245.497686976082
 20
87.21033033063671
 10
244.2903185550296
 20
87.21033033063674
  0
LWPOLYLINE
  5
65
330
2
100
AcDbEntity
  8
CUT_THRU
100
AcDbPolyline
 90
       65
 70
     1
 43
0.0
 10
248.9250553971344
 20
93.01351471902872
 10
248.9250553971344
 20
89.85877787692173
 10
249.8208448708186
 20
89.85877787692167
 42
-1.0
 10
249.8208448708186
 20
89.54719892955329
 42
0.4142135623730951
 10
249.6650553971344
 20
89.39140945586911
 10
249.6650553971344
 20
77.66825156113316
 42
0.4142135623731038
 10
249.8208448708186
 20
77.51246208744895
 42
-1.0
 10
249.8208448708186
 20
77.20088314008053
 10
248.9250553971344
 20
77.20088314008056
 10
248.9250553971344
 20
64.5429884032394
 10
250.8724238181869
 20
64.5429884032394
 10
250.8724238181869
 20
65.43877787692356
 42
-1.0
 10
251.1840027655553
 20
65.43877787692356
 42
0.4142135623730951
 10
251.3397922392395
 20
65.28298840323936
 10
252.8197922392394
 20
65.28298840323934
 10
258.6618975023968
 20
89.85877787692173
 10
274.2408448708167
 20
89.85877787692173
 10
274.2408448708167
 20
65.28298840323934
 10
275.7208448708166
 20
65.28298840323936
 42
0.4142135623731284
 10
275.8766343445008
 20
65.43877787692356
 42
-1.0
 10
276.1882132918692
 20
65.43877787692356
 10
276.1882132918692
 20
64.5429884032394
 10
277.3955817129218
 20
64.5429884032394
 10
277.3955817129218
 20
76.73351471902795
 42
0.4142135623731451
 10
277.2397922392375
 20
76.88930419271217
 42
-1.0
 10
277.2397922392375
 20
77.20088314008056
 10
278.1355817129217
 20
77.20088314008056
 10
278.1355817129217
 20
89.85877787692173
 10
277.2397922392375
 20
89.85877787692167
 42
-1.0
 10
277.2397922392375
 20
90.17035682429012
 42
0.4142135623730951
 10
277.3955817129218
 20
90.32614629797432
 10
277.3955817129218
 20
93.01351471902854
 10
270.690143116431
 20
93.01351471902675
 42
0.4142135623730538
 10
270.5343536427468
 20
92.85772524534252
 42
-1.0
 10
270.2227746953784
 20
92.85772524534252
 10
270.2227746953784
 20
93.75351471902668
 10
268.6454062743259
 20
93.75351471902666
 10
268.6454062743258
 20
92.27351471902675
 42
0.4142135623730618
 10
268.80119574801
 20
92.11772524534255
 42
-1.0
 10
268.80119574801
 20
91.80614629797416
 10
267.7496168006417
 20
91.80614629797416
 42
-1.0
 10
267.7496168006417
 20
92.11772524534255
 42
0.4142135623730951
 10
267.905406274326
 20
92.27351471902675
 10
267.905406274326
 20
93.75351471902666
 10
266.3280378532735
 20
93.75351471902668
 10
266.3280378532735
 20
92.85772524534252
 42
-1.0
 10
266.016458905905
 20
92.85772524534252
 42
0.4142135623730951
 10
265.8606694322208
 20
93.01351471902675
 10
261.1999676778352
 20
93.01351471902675
 42
0.4142135623730951
 10
261.044178204151
 20
92.85772524534252
 42
-1.0
 10
260.7325992567826
 20
92.85772524534252
 10
260.7325992567826
 20
93.75351471902668
 10
259.1552308357301
 20
93.75351471902666
 10
259.1552308357301
 20
92.27351471902675
 42
0.4142135623730618
 10
259.3110203094143
 20
92.11772524534255
 42
-1.0
 10
259.3110203094143
 20
91.80614629797416
 10
258.259441362046
 20
91.80614629797416
 42
-1.0
 10
258.259441362046
 20
92.11772524534255
 42
0.4142135623730869
 10
258.4152308357302
 20
92.27351471902675
 10
258.4152308357302
 20
93.75351471902666
 10
256.8378624146777
 20
93.75351471902668
 10
256.8378624146776
 20
92.85772524534252
 42
-1.0
 10
256.5262834673093
 20
92.85772524534252
 42
0.4142135623730199
 10
256.3704939936251
 20
93.01351471902675
 10
248.9250553971344
 20
93.01351471902872
  0
LWPOLYLINE
  5
66
330
2
100
AcDbEntity
  8
CUT_THRU
100
AcDbPolyline
 90
       14
 70
     1
 43
0.0
 10
224.1892671950491
 20
9.616260256949839
 10
223.4492671950492
 20
9.616260256949839
 10
223.4492671950492
 20
7.668891835897357
 10
224.3450566687333
 20
7.668891835897341
 42
-1.0
 10
224.3450566687333
 20
7.357312888528977
 42
0.4142135623730951
 10
224.1892671950491
 20
7.201523414844781
 10
224.1892671950491
 20
6.461523414844816
 10
224.929267195049
 20
6.461523414844802
 42
0.4142135623730951
 10
225.0850566687332
 20
6.617312888529
 42
-1.0
 10
225.3966356161016
 20
6.617312888529
 10
225.3966356161016
 20
5.721523414844877
 10
227.3440040371541
 20
5.721523414844877
 10
227.3440040371541
 20
6.461523414844816
 10
224.1892671950491
 20
9.616260256949839
  0
LWPOLYLINE
  5
67
330
2
100
AcDbEntity
  8
CUT_THRU
100
AcDbPolyline
 90
       53
 70
     1
 43
0.0
 10
230.9076882476801
 20
8.876260256949914
 42
0.4142135623731284
 10
230.751898773996
 20
8.720470783265717
 42
-1.0
 10
230.4403198266276
 20
8.720470783265724
 10
230.4403198266276
 20
9.616260256949839
 10
228.1229514055751
 20
9.616260256949839
 10
228.1229514055751
 20
7.668891835897341
 10
229.0187408792593
 20
7.668891835897321
 42
-1.0
 10
229.0187408792593
 20
7.357312888528942
 42
0.4142135623730951
 10
228.8629514055751
 20
7.201523414844746
 10
228.8629514055751
 20
5.721523414844857
 10
247.3499689494333
 20
5.721523414844877
 10
247.3499689494333
 20
7.201523414844746
 42
0.4142135623730951
 10
247.1941794757491
 20
7.357312888528942
 42
-1.0
 10
247.1941794757491
 20
7.668891835897341
 10
248.2457584231174
 20
7.668891835897341
 42
-1.0
 10
248.2457584231174
 20
7.357312888528942
 42
0.4142135623730951
 10
248.0899689494332
 20
7.201523414844746
 10
248.0899689494332
 20
5.721523414844877
 10
266.5769864932914
 20
5.721523414844877
 10
266.5769864932914
 20
7.201523414844746
 42
0.414213562373093
 10
266.4211970196072
 20
7.357312888528942
 42
-1.0
 10
266.4211970196072
 20
7.668891835897341
 10
267.4727759669756
 20
7.668891835897341
 42
-1.0
 10
267.4727759669756
 20
7.357312888528942
 42
0.4142135623730951
 10
267.3169864932914
 20
7.201523414844746
 10
267.3169864932914
 20
5.721523414844877
 10
285.8040040371496
 20
5.721523414844857
 10
285.8040040371496
 20
7.201523414844746
 42
0.414213562373064
 10
285.6482145634654
 20
7.357312888528926
 42
-1.0
 10
285.6482145634654
 20
7.668891835897321
 10
286.5440040371495
 20
7.668891835897341
 10
286.5440040371495
 20
9.616260256949839
 10
284.2266356160971
 20
9.616260256949839
 10
284.2266356160971
 20
8.720470783265717
 42
-1.0
 10
283.9150566687287
 20
8.720470783265717
 42
0.4142135623730951
 10
283.7592671950445
 20
8.876260256949914
 10
269.3617233353965
 20
8.876260256949914
 42
0.4142135623730951
 10
269.2059338617123
 20
8.720470783265717
 42
-1.0
 10
268.8943549143439
 20
8.720470783265717
 10
268.8943549143439
 20
9.616260256949839
 10
264.9996180722389
 20
9.616260256949839
 10
264.9996180722389
 20
8.720470783265717
 42
-1.0
 10
264.6880391248706
 20
8.720470783265717
 42
0.4142135623730951
 10
264.5322496511864
 20
8.876260256949914
 10
250.1347057915383
 20
8.876260256949914
 42
0.4142135623730951
 10
249.9789163178541
 20
8.720470783265717
 42
-1.0
 10
249.6673373704857
 20
8.720470783265717
 10
249.6673373704857
 20
9.616260256949839
 10
245.7726005283808
 20
9.616260256949839
 10
245.7726005283807
 20
8.720470783265717
 42
-1.0
 10
245.4610215810124
 20
8.720470783265717
 42
0.4142135623730951
 10
245.3052321073282
 20
8.876260256949914
 10
230.9076882476801
 20
8.876260256949914
 42
0.4142135623731284
  0
LWPOLYLINE
  5
68
330
2
100
AcDbEntity
  8
CUT_THRU
100
AcDbPolyline
 90
      133
 70
     1
 43
0.0
 10
228.1229514055751
 20
39.60573394115807
 10
228.1229514055751
 20
31.69292692361481
 10
229.0187408792593
 20
31.69292692361481
 42
-1.0
 10
229.0187408792593
 20
31.38134797624641
 42
0.414213562373093
 10
228.8629514055751
 20
31.22555850256221
 10
228.8629514055751
 20
30.1155585025623
 10
229.972951405575
 20
30.1155585025623
 42
0.4142135623731054
 10
230.1287408792592
 20
30.27134797624649
 42
-1.0
 10
230.4403198266276
 20
30.27134797624649
 10
230.4403198266276
 20
29.21976902887815
 42
-1.0
 10
230.1287408792592
 20
29.21976902887815
 42
0.4142135623730951
 10
229.972951405575
 20
29.37555850256236
 10
228.8629514055751
 20
29.37555850256236
 10
228.8629514055751
 20
28.26555850256244
 42
0.4142135623730951
 10
229.0187408792593
 20
28.10976902887824
 42
-1.0
 10
229.0187408792593
 20
27.79819008150985
 10
228.1229514055751
 20
27.79819008150985
 10
228.1229514055751
 20
22.20275148501904
 10
229.0187408792593
 20
22.20275148501907
 42
-1.0
 10
229.0187408792593
 20
21.89117253765064
 42
0.4142135623730951
 10
228.8629514055751
 20
21.73538306396644
 10
228.8629514055751
 20
20.62538306396653
 10
229.972951405575
 20
20.62538306396653
 42
0.4142135623730951
 10
230.1287408792592
 20
20.78117253765072
 42
-1.0
 10
230.4403198266276
 20
20.78117253765072
 10
230.4403198266276
 20
19.72959359028237
 42
-1.0
 10
230.1287408792592
 20
19.72959359028237
 42
0.4142135623730951
 10
229.972951405575
 20
19.88538306396658
 10
228.8629514055751
 20
19.88538306396658
 10
228.8629514055751
 20
18.77538306396667
 42
0.4142135623730951
 10
229.0187408792593
 20
18.61959359028247
 42
-1.0
 10
229.0187408792593
 20
18.30801464291407
 10
228.1229514055751
 20
18.30801464291407
 10
228.1229514055751
 20
10.39520762537081
 10
245.7726005283808
 20
10.39520762537083
 10
245.7726005283808
 20
11.29099709905499
 42
-1.0
 10
246.0841794757492
 20
11.29099709905499
 42
0.4142135623730951
 10
246.2399689494334
 20
11.13520762537079
 10
247.3499689494333
 20
11.13520762537079
 10
247.3499689494333
 20
12.24520762537069
 42
0.4142135623731284
 10
247.1941794757491
 20
12.4009970990549
 42
-1.0
 10
247.1941794757491
 20
12.7125760464233
 10
248.2457584231174
 20
12.7125760464233
 42
-1.0
 10
248.2457584231174
 20
12.40099709905489
 42
0.4142135623730951
 10
248.0899689494332
 20
12.24520762537069
 10
248.0899689494332
 20
11.13520762537079
 10
249.1999689494332
 20
11.13520762537079
 42
0.4142135623730951
 10
249.3557584231174
 20
11.29099709905499
 42
-1.0
 10
249.6673373704858
 20
11.29099709905499
 10
249.6673373704857
 20
10.39520762537083
 10
264.9996180722389
 20
10.39520762537081
 10
264.9996180722389
 20
11.29099709905499
 42
-1.0
 10
265.3111970196073
 20
11.29099709905499
 42
0.4142135623730951
 10
265.4669864932915
 20
11.13520762537079
 10
266.5769864932914
 20
11.13520762537077
 10
266.5769864932914
 20
12.24520762537067
 42
0.4142135623731618
 10
266.4211970196072
 20
12.4009970990549
 42
-1.0
 10
266.4211970196072
 20
12.7125760464233
 10
267.4727759669756
 20
12.7125760464233
 42
-1.0
 10
267.4727759669756
 20
12.40099709905487
 42
0.4142135623730951
 10
267.3169864932914
 20
12.24520762537067
 10
267.3169864932914
 20
11.13520762537077
 10
268.4269864932913
 20
11.13520762537079
 42
0.4142135623730951
 10
268.5827759669755
 20
11.29099709905499
 42
-1.0
 10
268.8943549143439
 20
11.29099709905499
 10
268.8943549143439
 20
10.39520762537081
 10
286.5440040371495
 20
10.39520762537081
 10
286.5440040371496
 20
18.30801464291407
 10
285.6482145634654
 20
18.30801464291407
 42
-1.0
 10
285.6482145634654
 20
18.61959359028247
 42
0.4142135623730951
 10
285.8040040371496
 20
18.77538306396667
 10
285.8040040371496
 20
19.88538306396658
 10
284.6940040371497
 20
19.88538306396658
 42
0.4142135623730951
 10
284.5382145634655
 20
19.72959359028237
 42
-1.0
 10
284.2266356160971
 20
19.72959359028237
 10
284.2266356160971
 20
20.78117253765072
 42
-1.0
 10
284.5382145634655
 20
20.78117253765072
 42
0.4142135623730951
 10
284.6940040371497
 20
20.62538306396653
 10
285.8040040371496
 20
20.62538306396653
 10
285.8040040371496
 20
21.73538306396644
 42
0.4142135623730951
 10
285.6482145634654
 20
21.89117253765064
 42
-1.0
 10
285.6482145634654
 20
22.20275148501904
 10
286.5440040371495
 20
22.20275148501904
 10
286.5440040371495
 20
27.79819008150983
 10
285.6482145634654
 20
27.79819008150985
 42
-1.0
 10
285.6482145634654
 20
28.10976902887821
 42
0.4142135623730951
 10
285.8040040371496
 20
28.2655585025624
 10
285.8040040371496
 20
29.37555850256234
 10
284.6940040371497
 20
29.37555850256236
 42
0.4142135623730951
 10
284.5382145634655
 20
29.21976902887815
 42
-1.0
 10
284.2266356160971
 20
29.21976902887815
 10
284.2266356160971
 20
30.27134797624648
 42
-1.0
 10
284.5382145634655
 20
30.27134797624648
 42
0.4142135623730951
 10
284.6940040371497
 20
30.11555850256228
 10
285.8040040371496
 20
30.11555850256226
 10
285.8040040371496
 20
31.2255585025622
 42
0.4142135623731038
 10
285.6482145634654
 20
31.38134797624639
 42
-1.0
 10
285.6482145634654
 20
31.69292692361479
 10
286.5440040371496
 20
31.69292692361479
 10
286.5440040371495
 20
39.60573394115804
 10
268.8943549143439
 20
39.60573394115804
 10
268.8943549143439
 20
38.70994446747391
 42
-1.0
 10
268.5827759669755
 20
38.70994446747391
 42
0.4142135623730951
 10
268.4269864932913
 20
38.8657339411581
 10
267.3169864932914
 20
38.8657339411581
 10
267.3169864932914
 20
37.75573394115819
 42
0.4142135623730951
 10
267.4727759669756
 20
37.599944467474
 42
-1.0
 10
267.4727759669756
 20
37.2883655201056
 10
266.4211970196073
 20
37.2883655201056
 42
-1.0
 10
266.4211970196073
 20
37.599944467474
 42
0.4142135623731038
 10
266.5769864932915
 20
37.75573394115821
 10
266.5769864932914
 20
38.8657339411581
 10
265.4669864932915
 20
38.8657339411581
 42
0.4142135623730951
 10
265.3111970196073
 20
38.70994446747391
 42
-1.0
 10
264.9996180722389
 20
38.70994446747391
 10
264.9996180722389
 20
39.60573394115804
 10
249.6673373704857
 20
39.60573394115804
 10
249.6673373704858
 20
38.70994446747393
 42
-1.0
 10
249.3557584231174
 20
38.70994446747393
 42
0.4142135623730951
 10
249.1999689494332
 20
38.86573394115812
 10
248.0899689494332
 20
38.8657339411581
 10
248.0899689494332
 20
37.75573394115821
 42
0.4142135623730951
 10
248.2457584231174
 20
37.59994446747402
 42
-1.0
 10
248.2457584231174
 20
37.28836552010562
 10
247.1941794757491
 20
37.28836552010562
 42
-1.0
 10
247.1941794757491
 20
37.59994446747402
 42
0.4142135623730951
 10
247.3499689494333
 20
37.75573394115821
 10
247.3499689494333
 20
38.8657339411581
 10
246.2399689494334
 20
38.86573394115812
 42
0.4142135623730951
 10
246.0841794757492
 20
38.70994446747393
 42
-1.0
 10
245.7726005283808
 20
38.70994446747393
 10
245.7726005283808
 20
39.60573394115804
 10
228.1229514055751
 20
39.60573394115807
  0
LWPOLYLINE
  5
69
330
2
100
AcDbEntity
  8
CUT_HOLE
100
AcDbPolyline
 90
       29
 70
     1
 43
0.0
 10
245.7726005283808
 20
19.72959359028237
 10
245.7726005283808
 20
20.78117253765072
 42
-1.0
 10
246.0841794757492
 20
20.78117253765072
 42
0.4142135623730951
 10
246.2399689494334
 20
20.62538306396653
 10
247.3499689494333
 20
20.62538306396653
 10
247.3499689494333
 20
21.73538306396644
 42
0.4142135623730951
 10
247.1941794757491
 20
21.89117253765064
 42
-1.0
 10
247.1941794757491
 20
22.20275148501904
 10
248.2457584231174
 20
22.20275148501904
 42
-1.0
 10
248.2457584231174
 20
21.89117253765064
 42
0.4142135623730951
 10
248.0899689494332
 20
21.73538306396644
 10
248.0899689494332
 20
20.62538306396653
 10
249.1999689494332
 20
20.62538306396653
 42
0.4142135623730951
 10
249.3557584231174
 20
20.78117253765072
 42
-1.0
 10
249.6673373704858
 20
20.78117253765072
 10
249.6673373704858
 20
19.72959359028237
 42
-1.0
 10
249.3557584231174
 20
19.72959359028237
 42
0.4142135623730959
 10
249.1999689494332
 20
19.88538306396658
 10
248.0899689494332
 20
19.88538306396658
 10
248.0899689494332
 20
18.77538306396667
 42
0.4142135623730951
 10
248.2457584231174
 20
18.61959359028247
 42
-1.0
 10
248.2457584231174
 20
18.30801464291407
 10
247.1941794757491
 20
18.30801464291407
 42
-1.0
 10
247.1941794757491
 20
18.61959359028247
 42
0.4142135623730951
 10
247.3499689494333
 20
18.77538306396667
 10
247.3499689494333
 20
19.88538306396658
 10
246.2399689494334
 20
19.88538306396658
 42
0.4142135623730951
 10
246.0841794757492
 20
19.72959359028237
 42
-1.0
 10
245.7726005283808
 20
19.72959359028237
  0
LWPOLYLINE
  5
6A
330
2
100
AcDbEntity
  8
CUT_HOLE
100
AcDbPolyline
 90
       29
 70
     1
 43
0.0
 10
247.1941794757491
 20
28.10976902887824
 42
0.4142135623730951
 10
247.3499689494333
 20
28.26555850256244
 10
247.3499689494333
 20
29.37555850256236
 10
246.2399689494334
 20
29.37555850256236
 42
0.4142135623730951
 10
246.0841794757492
 20
29.21976902887815
 42
-1.0
 10
245.7726005283808
 20
29.21976902887815
 10
245.7726005283808
 20
30.27134797624649
 42
-1.0
 10
246.0841794757492
 20
30.27134797624649
 42
0.4142135623730951
 10
246.2399689494334
 20
30.1155585025623
 10
247.3499689494333
 20
30.11555850256226
 10
247.3499689494333
 20
31.22555850256221
 42
0.4142135623730951
 10
247.1941794757491
 20
31.38134797624641
 42
-1.0
 10
247.1941794757491
 20
31.69292692361481
 10
248.2457584231174
 20
31.69292692361481
 42
-1.0
 10
248.2457584231174
 20
31.38134797624641
 42
0.4142135623730951
 10
248.0899689494332
 20
31.22555850256221
 10
248.0899689494332
 20
30.11555850256226
 10
249.1999689494332
 20
30.1155585025623
 42
0.4142135623730951
 10
249.3557584231174
 20
30.27134797624649
 42
-1.0
 10
249.6673373704858
 20
30.27134797624649
 10
249.6673373704858
 20
29.21976902887815
 42
-1.0
 10
249.3557584231174
 20
29.21976902887815
 42
0.4142135623730951
 10
249.1999689494332
 20
29.37555850256236
 10
248.0899689494332
 20
29.37555850256236
 10
248.0899689494332
 20
28.26555850256244
 42
0.4142135623730951
 10
248.2457584231174
 20
28.10976902887824
 42
-1.0
 10
248.2457584231174
 20
27.79819008150985
 10
247.1941794757491
 20
27.79819008150985
 42
-1.0
 10
247.1941794757491
 20
28.10976902887824
 42
0.4142135623730951
  0
LWPOLYLINE
  5
6B
330
2
100
AcDbEntity
  8
CUT_HOLE
100
AcDbPolyline
 90
       29
 70
     1
 43
0.0
 10
264.9996180722389
 20
19.72959359028237
 10
264.9996180722389
 20
20.78117253765072
 42
-1.0
 10
265.3111970196073
 20
20.78117253765072
 42
0.4142135623730951
 10
265.4669864932915
 20
20.62538306396653
 10
266.5769864932914
 20
20.62538306396653
 10
266.5769864932915
 20
21.73538306396644
 42
0.4142135623730951
 10
266.4211970196073
 20
21.89117253765064
 42
-1.0
 10
266.4211970196073
 20
22.20275148501904
 10
267.4727759669756
 20
22.20275148501904
 42
-1.0
 10
267.4727759669756
 20
21.89117253765064
 42
0.4142135623730951
 10
267.3169864932914
 20
21.73538306396644
 10
267.3169864932914
 20
20.62538306396653
 10
268.4269864932913
 20
20.62538306396653
 42
0.4142135623731284
 10
268.5827759669755
 20
20.78117253765072
 42
-1.0
 10
268.8943549143439
 20
20.78117253765072
 10
268.8943549143439
 20
19.72959359028237
 42
-1.0
 10
268.5827759669755
 20
19.72959359028237
 42
0.4142135623730951
 10
268.4269864932913
 20
19.88538306396658
 10
267.3169864932914
 20
19.88538306396658
 10
267.3169864932914
 20
18.77538306396667
 42
0.4142135623730951
 10
267.4727759669756
 20
18.61959359028247
 42
-1.0
 10
267.4727759669756
 20
18.30801464291407
 10
266.4211970196073
 20
18.30801464291407
 42
-1.0
 10
266.4211970196073
 20
18.61959359028247
 42
0.4142135623730951
 10
266.5769864932915
 20
18.77538306396667
 10
266.5769864932914
 20
19.88538306396658
 10
265.4669864932915
 20
19.88538306396658
 42
0.4142135623730951
 10
265.3111970196073
 20
19.72959359028237
 42
-1.0
 10
264.9996180722389
 20
19.72959359028237
  0
LWPOLYLINE
  5
6C
330
2
100
AcDbEntity
  8
CUT_HOLE
100
AcDbPolyline
 90
       29
 70
     1
 43
0.0
 10
264.9996180722389
 20
29.21976902887815
 10
264.9996180722389
 20
30.27134797624648
 42
-1.0
 10
265.3111970196073
 20
30.27134797624648
 42
0.4142135623730951
 10
265.4669864932915
 20
30.11555850256228
 10
266.5769864932914
 20
30.11555850256226
 10
266.5769864932915
 20
31.2255585025622
 42
0.4142135623730951
 10
266.4211970196073
 20
31.38134797624639
 42
-1.0
 10
266.4211970196073
 20
31.69292692361479
 10
267.4727759669756
 20
31.69292692361479
 42
-1.0
 10
267.4727759669756
 20
31.38134797624639
 42
0.4142135623730951
 10
267.3169864932914
 20
31.2255585025622
 10
267.3169864932914
 20
30.11555850256226
 10
268.4269864932913
 20
30.11555850256228
 42
0.4142135623731284
 10
268.5827759669755
 20
30.27134797624648
 42
-1.0
 10
268.8943549143439
 20
30.27134797624648
 10
268.8943549143439
 20
29.21976902887815
 42
-1.0
 10
268.5827759669755
 20
29.21976902887815
 42
0.4142135623730951
 10
268.4269864932913
 20
29.37555850256236
 10
267.3169864932914
 20
29.37555850256234
 10
267.3169864932914
 20
28.26555850256244
 42
0.4142135623730951
 10
267.4727759669756
 20
28.10976902887824
 42
-1.0
 10
267.4727759669756
 20
27.79819008150985
 10
266.4211970196073
 20
27.79819008150985
 42
-1.0
 10
266.4211970196073
 20
28.10976902887824
 42
0.4142135623730951
 10
266.5769864932915
 20
28.26555850256244
 10
266.5769864932914
 20
29.37555850256234
 10
265.4669864932915
 20
29.37555850256236
 42
0.4142135623730951
 10
265.3111970196073
 20
29.21976902887815
 42
-1.0
 10
264.9996180722389
 20
29.21976902887815
  0
LWPOLYLINE
  5
6D
330
2
100
AcDbEntity
  8
CUT_THRU
100
AcDbPolyline
 90
       52
 70
     1
 43
0.0
 10
288.0629514055705
 20
32.16029534466736
 42
0.4142135623730016
 10
288.2187408792546
 20
32.0045058709832
 42
-1.0
 10
288.2187408792546
 20
31.69292692361481
 10
287.3229514055706
 20
31.69292692361479
 10
287.3229514055706
 20
30.11555850256226
 10
288.8029514055705
 20
30.11555850256226
 42
0.4142135623731117
 10
288.9587408792547
 20
30.27134797624646
 42
-1.0
 10
289.2703198266231
 20
30.27134797624646
 10
289.2703198266231
 20
29.21976902887815
 42
-1.0
 10
288.9587408792546
 20
29.21976902887815
 42
0.4142135623730951
 10
288.8029514055705
 20
29.37555850256236
 10
287.3229514055706
 20
29.37555850256234
 10
287.3229514055706
 20
27.79819008150983
 10
288.2187408792546
 20
27.79819008150983
 42
-1.0
 10
288.2187408792546
 20
27.48661113414143
 42
0.4142135623730951
 10
288.0629514055705
 20
27.33082166045723
 10
288.0629514055705
 20
22.67011990607161
 42
0.4142135623730618
 10
288.2187408792546
 20
22.51433043238744
 42
-1.0
 10
288.2187408792546
 20
22.20275148501904
 10
287.3229514055706
 20
22.20275148501904
 10
287.3229514055706
 20
20.62538306396653
 10
288.8029514055705
 20
20.62538306396649
 42
0.4142135623731117
 10
288.9587408792547
 20
20.7811725376507
 42
-1.0
 10
289.2703198266231
 20
20.7811725376507
 10
289.2703198266231
 20
19.72959359028237
 42
-1.0
 10
288.9587408792546
 20
19.72959359028237
 42
0.4142135623730951
 10
288.8029514055705
 20
19.88538306396658
 10
287.3229514055706
 20
19.88538306396658
 10
287.3229514055706
 20
18.30801464291407
 10
288.2187408792546
 20
18.30801464291407
 42
-1.0
 10
288.2187408792546
 20
17.99643569554567
 42
0.4142135623730951
 10
288.0629514055705
 20
17.84064622186147
 10
288.0629514055705
 20
13.17994446747586
 42
0.4142135623730946
 10
288.2187408792546
 20
13.02415499379167
 42
-1.0
 10
288.2187408792546
 20
12.71257604642327
 10
287.3229514055706
 20
12.71257604642328
 10
287.3229514055706
 20
10.39520762537081
 10
289.2703198266231
 20
10.39520762537081
 10
289.270319826623
 20
11.29099709905494
 42
-1.0
 10
289.5818987739914
 20
11.29099709905494
 42
0.414213562373094
 10
289.7376882476756
 20
11.13520762537074
 10
291.2176882476755
 20
11.13520762537075
 10
291.2176882476755
 20
38.8657339411581
 10
289.7376882476756
 20
38.8657339411581
 42
0.4142135623731218
 10
289.5818987739914
 20
38.70994446747391
 42
-1.0
 10
289.270319826623
 20
38.70994446747391
 10
289.270319826623
 20
39.60573394115804
 10
287.3229514055706
 20
39.60573394115804
 10
287.3229514055706
 20
37.28836552010559
 10
288.2187408792546
 20
37.28836552010559
 42
-1.0
 10
288.2187408792546
 20
36.97678657273721
 42
0.4142135623730951
 10
288.0629514055705
 20
36.820997099053
  0
LWPOLYLINE
  5
6E
330
2
100
AcDbEntity
  8
CUT_THRU
100
AcDbPolyline
 90
       14
 70
     1
 43
0.0
 10
287.3229514055706
 20
6.461523414844807
 10
287.3229514055706
 20
5.721523414844857
 10
289.270319826623
 20
5.721523414844857
 10
289.270319826623
 20
6.617312888528982
 42
-1.0
 10
289.5818987739914
 20
6.617312888528982
 42
0.4142135623730951
 10
289.7376882476756
 20
6.461523414844784
 10
290.4776882476756
 20
6.461523414844792
 10
290.4776882476756
 20
7.201523414844717
 42
0.4142135623730951
 10
290.3218987739914
 20
7.357312888528918
 42
-1.0
 10
290.3218987739914
 20
7.668891835897312
 10
291.2176882476755
 20
7.668891835897332
 10
291.2176882476755
 20
9.616260256949813
 10
290.4776882476756
 20
9.616260256949813
 10
287.3229514055706
 20
6.461523414844807
  0
LWPOLYLINE
  5
6F
330
2
100
AcDbEntity
  8
CUT_THRU
100
AcDbPolyline
 90
       14
 70
     1
 43
0.0
 10
290.3218987739914
 20
42.33204973063148
 42
-1.0
 10
290.3218987739914
 20
42.64362867799987
 42
0.4142135623730951
 10
290.4776882476756
 20
42.79941815168407
 10
290.4776882476756
 20
43.53941815168402
 10
289.7376882476757
 20
43.53941815168402
 42
0.4142135623730784
 10
289.5818987739915
 20
43.38362867799983
 42
-1.0
 10
289.2703198266231
 20
43.38362867799983
 10
289.2703198266231
 20
44.27941815168397
 10
287.3229514055706
 20
44.27941815168397
 10
287.3229514055706
 20
43.53941815168402
 10
290.4776882476756
 20
40.38468130957903
 10
291.2176882476755
 20
40.38468130957901
 10
291.2176882476755
 20
42.33204973063148
 10
290.3218987739914
 20
42.33204973063148
 42
-1.0
  0
LWPOLYLINE
  5
70
330
2
100
AcDbEntity
  8
CUT_THRU
100
AcDbPolyline
 90
       53
 70
     1
 43
0.0
 10
267.3169864932914
 20
44.27941815168402
 10
267.3169864932914
 20
42.79941815168414
 42
0.4142135623731284
 10
267.4727759669756
 20
42.64362867799992
 42
-1.0
 10
267.4727759669756
 20
42.33204973063152
 10
266.4211970196072
 20
42.33204973063152
 42
-1.0
 10
266.4211970196072
 20
42.64362867799992
 42
0.4142135623730951
 10
266.5769864932914
 20
42.79941815168414
 10
266.5769864932914
 20
44.27941815168402
 10
248.0899689494332
 20
44.27941815168402
 10
248.0899689494332
 20
42.79941815168414
 42
0.4142135623731284
 10
248.2457584231174
 20
42.64362867799992
 42
-1.0
 10
248.2457584231174
 20
42.33204973063155
 10
247.1941794757491
 20
42.33204973063155
 42
-1.0
 10
247.1941794757491
 20
42.64362867799992
 42
0.4142135623730951
 10
247.3499689494333
 20
42.79941815168414
 10
247.3499689494333
 20
44.27941815168402
 10
228.8629514055751
 20
44.27941815168402
 10
228.8629514055751
 20
42.79941815168414
 42
0.4142135623730618
 10
229.0187408792593
 20
42.64362867799998
 42
-1.0
 10
229.0187408792593
 20
42.33204973063158
 10
228.1229514055751
 20
42.33204973063155
 10
228.1229514055751
 20
40.38468130957903
 10
230.4403198266276
 20
40.38468130957903
 10
230.4403198266276
 20
41.28047078326313
 42
-1.0
 10
230.751898773996
 20
41.28047078326313
 42
0.4142135623730951
 10
230.9076882476801
 20
41.12468130957895
 10
245.3052321073282
 20
41.12468130957895
 42
0.4142135623730284
 10
245.4610215810124
 20
41.28047078326313
 42
-1.0
 10
245.7726005283807
 20
41.28047078326313
 10
245.7726005283808
 20
40.38468130957903
 10
249.6673373704857
 20
40.38468130957903
 10
249.6673373704858
 20
41.28047078326313
 42
-1.0
 10
249.9789163178541
 20
41.28047078326313
 42
0.4142135623730951
 10
250.1347057915383
 20
41.12468130957895
 10
264.5322496511864
 20
41.12468130957895
 42
0.4142135623730951
 10
264.6880391248706
 20
41.28047078326313
 42
-1.0
 10
264.9996180722389
 20
41.28047078326313
 10
264.9996180722389
 20
40.38468130957903
 10
268.8943549143439
 20
40.38468130957903
 10
268.8943549143439
 20
41.28047078326313
 42
-1.0
 10
269.2059338617123
 20
41.28047078326313
 42
0.4142135623730951
 10
269.3617233353965
 20
41.12468130957895
 10
283.7592671950446
 20
41.12468130957895
 42
0.4142135623730784
 10
283.9150566687288
 20
41.28047078326313
 42
-1.0
 10
284.2266356160971
 20
41.28047078326313
 10
284.2266356160972
 20
40.38468130957903
 10
286.5440040371495
 20
40.38468130957903
 10
286.5440040371495
 20
42.33204973063155
 10
285.6482145634654
 20
42.33204973063156
 42
-1.0
 10
285.6482145634654
 20
42.64362867799992
 42
0.4142135623730951
 10
285.8040040371496
 20
42.79941815168414
 10
285.8040040371496
 20
44.27941815168402
 10
267.3169864932914
 20
44.27941815168402
  0
LWPOLYLINE
  5
71
330
2
100
AcDbEntity
  8
CUT_THRU
100
AcDbPolyline
 90
       14
 70
     1
 43
0.0
 10
225.0850566687332
 20
43.38362867799985
 42
1.0
 10
225.3966356161016
 20
43.38362867799985
 10
225.3966356161016
 20
44.27941815168398
 10
227.3440040371541
 20
44.27941815168398
 10
227.3440040371541
 20
43.53941815168402
 10
224.1892671950491
 20
40.38468130957903
 10
223.4492671950492
 20
40.38468130957903
 10
223.4492671950492
 20
42.33204973063151
 10
224.3450566687333
 20
42.33204973063151
 42
1.0
 10
224.3450566687333
 20
42.64362867799991
 42
-0.4142135623730951
 10
224.1892671950491
 20
42.7994181516841
 10
224.1892671950491
 20
43.53941815168402
 10
224.929267195049
 20
43.53941815168402
 42
-0.4142135623730617
 10
225.0850566687332
 20
43.38362867799985
 42
1.0
  0
INSERT
  5
72
330
2
100
AcDbEntity
  8
CUT_HOLE
100
AcDbBlockReference
  2
FASTENER
 10
223.8192671950491
 20
41.35836552010527
 30
0.0
 50
90.0
  0
INSERT
  5
7B
330
2
100
AcDbEntity
  8
CUT_HOLE
100
AcDbBlockReference
  2
FASTENER
 10
226.3703198266279
 20
43.909418151684
 30
0.0
 50
90.0
  0
INSERT
  5
7C
330
2
100
AcDbEntity
  8
CUT_HOLE
100
AcDbBlockReference
  2
FASTENER
 10
223.8192671950491
 20
8.642576046423599
 30
0.0
 50
90.0
  0
INSERT
  5
7D
330
2
100
AcDbEntity
  8
CUT_HOLE
100
AcDbBlockReference
  2
FASTENER
 10
226.3703198266279
 20
6.091523414844847
 30
0.0
 50
90.0
  0
INSERT
  5
7E
330
2
100
AcDbEntity
  8
CUT_HOLE
100
AcDbBlockReference
  2
FASTENER
 10
290.8476882476755
 20
41.35836552010525
 30
0.0
 50
90.0
  0
INSERT
  5
7F
330
2
100
AcDbEntity
  8
CUT_HOLE
100
AcDbBlockReference
  2
FASTENER
 10
288.2966356160968
 20
43.909418151684
 30
0.0
 50
90.0
  0
INSERT
  5
80
330
2
100
AcDbEntity
  8
CUT_HOLE
100
AcDbBlockReference
  2
FASTENER
 10
276.5604952652205
 20
29.74555850256231
 30
0.0
 50
90.0
  0
INSERT
  5
81
330
2
100
AcDbEntity
  8
CUT_HOLE
100
AcDbBlockReference
  2
FASTENER
 10
266.9469864932914
 20
15.51029534466865
 30
0.0
 50
90.0
  0
INSERT
  5
82
330
2
100
AcDbEntity
  8
CUT_HOLE
100
AcDbBlockReference
  2
FASTENER
 10
288.2966356160968
 20
6.09152341484483
 30
0.0
 50
90.0
  0
INSERT
  5
83
330
2
100
AcDbEntity
  8
CUT_HOLE
100
AcDbBlockReference
  2
FASTENER
 10
290.8476882476755
 20
8.642576046423574
 30
0.0
 50
90.0
  0
INSERT
  5
84
330
2
100
AcDbEntity
  8
CUT_HOLE
100
AcDbBlockReference
  2
FASTENER
 10
247.7199689494332
 20
34.4906462218602
 30
0.0
 50
90.0
  0
INSERT
  5
85
330
2
100
AcDbEntity
  8
CUT_HOLE
100
AcDbBlockReference
  2
FASTENER
 10
238.1064601775042
 20
20.25538306396655
 30
0.0
 50
90.0
  0
INSERT
  5
86
330
2
100
AcDbEntity
  8
CUT_HOLE
100
AcDbBlockReference
  2
FASTENER
 10
287.3891619318864
 20
55.77943081533617
 30
0.0
 50
90.0
  0
INSERT
  5
87
330
2
100
AcDbEntity
  8
CUT_HOLE
100
AcDbBlockReference
  2
FASTENER
 10
287.3891619318864
 20
76.34364134165132
 30
0.0
 50
90.0
  0
INSERT
  5
88
330
2
100
AcDbEntity
  8
CUT_HOLE
100
AcDbBlockReference
  2
FASTENER
 10
292.0238987739913
 20
88.26153418980608
 30
0.0
 50
90.0
  0
INSERT
  5
89
330
2
100
AcDbEntity
  8
CUT_HOLE
100
AcDbBlockReference
  2
FASTENER
 10
277.7655817129217
 20
83.52982861981464
 30
0.0
 50
90.0
  0
INSERT
  5
8A
330
2
100
AcDbEntity
  8
CUT_HOLE
100
AcDbBlockReference
  2
FASTENER
 10
272.3908448708169
 20
80.88138485090262
 30
0.0
 50
90.0
  0
INSERT
  5
8B
330
2
100
AcDbEntity
  8
CUT_HOLE
100
AcDbBlockReference
  2
FASTENER
 10
272.7968812301331
 20
95.56416388006642
 30
0.0
 50
90.0
  0
INSERT
  5
8C
330
2
100
AcDbEntity
  8
CUT_HOLE
100
AcDbBlockReference
  2
FASTENER
 10
268.275406274326
 20
90.83246019876147
 30
0.0
 50
90.0
  0
INSERT
  5
8D
330
2
100
AcDbEntity
  8
CUT_HOLE
100
AcDbBlockReference
  2
FASTENER
 10
258.7852308357302
 20
90.83246019876147
 30
0.0
 50
90.0
  0
INSERT
  5
8E
330
2
100
AcDbEntity
  8
CUT_HOLE
100
AcDbBlockReference
  2
FASTENER
 10
253.569863686275
 20
95.56416388006642
 30
0.0
 50
90.0
  0
INSERT
  5
8F
330
2
100
AcDbEntity
  8
CUT_HOLE
100
AcDbBlockReference
  2
FASTENER
 10
249.2950553971344
 20
91.43614440928878
 30
0.0
 50
90.0
  0
INSERT
  5
90
330
2
100
AcDbEntity
  8
CUT_HOLE
100
AcDbBlockReference
  2
FASTENER
 10
249.2950553971344
 20
70.87193388297355
 30
0.0
 50
90.0
  0
INSERT
  5
91
330
2
100
AcDbEntity
  8
CUT_HOLE
100
AcDbBlockReference
  2
FASTENER
 10
243.9203185550296
 20
68.22349011406148
 30
0.0
 50
90.0
  0
INSERT
  5
92
330
2
100
AcDbEntity
  8
CUT_HOLE
100
AcDbBlockReference
  2
FASTENER
 10
248.93512684417
 20
56.38311502586336
 30
0.0
 50
90.0
  0
INSERT
  5
93
330
2
100
AcDbEntity
  8
CUT_HOLE
100
AcDbBlockReference
  2
FASTENER
 10
253.4104939936253
 20
60.9208585351147
 30
0.0
 50
90.0
  0
INSERT
  5
94
330
2
100
AcDbEntity
  8
CUT_HOLE
100
AcDbBlockReference
  2
FASTENER
 10
262.9006694322211
 20
60.9208585351147
 30
0.0
 50
90.0
  0
INSERT
  5
95
330
2
100
AcDbEntity
  8
CUT_HOLE
100
AcDbBlockReference
  2
FASTENER
 10
268.1621443880282
 20
56.38311502586336
 30
0.0
 50
90.0
  0
INSERT
  5
96
330
2
100
AcDbEntity
  8
CUT_HOLE
100
AcDbBlockReference
  2
FASTENER
 10
272.3908448708169
 20
60.31717432458738
 30
0.0
 50
90.0
  0
INSERT
  5
97
330
2
100
AcDbEntity
  8
CUT_HOLE
100
AcDbBlockReference
  2
FASTENER
 10
229.7081093003118
 20
63.68574660481023
 30
0.0
 50
90.0
  0
INSERT
  5
98
330
2
100
AcDbEntity
  8
CUT_HOLE
100
AcDbBlockReference
  2
FASTENER
 10
234.3428461424168
 20
75.60363756427844
 30
0.0
 50
90.0
  0
INSERT
  5
99
330
2
100
AcDbEntity
  8
CUT_HOLE
100
AcDbBlockReference
  2
FASTENER
 10
234.3428461424168
 20
96.16784809059359
 30
0.0
 50
90.0
  0
LWPOLYLINE
  5
9A
330
2
100
AcDbEntity
  8
000_NOTES
100
AcDbPolyline
 90
        4
 70
     1
 43
0.0
 10
197.9046356161037
 20
51.93700787401576
 10
293.9046356161037
 20
51.93700787401576
 10
293.9046356161037
 20
99.93700787401579
 10
197.9046356161037
 20
99.93700787401579
  0
LWPOLYLINE
  5
9C
330
2
100
AcDbEntity
  8
000_NOTES
100
AcDbPolyline
 90
        4
 70
     1
 43
0.0
 10
197.9046356161037
 20
0.0
 10
293.9046356161037
 20
0.0
 10
293.9046356161037
 20
48.0
 10
197.9046356161037
 20
48.0
  0
LWPOLYLINE
  5
9D
330
2
100
AcDbEntity
  8
CUT_THRU
100
AcDbPolyline
 90
       64
 70
     1
 43
0.0
 10
251.3498636862751
 20
54.20206050559815
 10
265.747407545923
 20
54.20206050559808
 42
0.4142135623730951
 10
265.9031970196072
 20
54.35784997928231
 42
-1.0
 10
266.2147759669757
 20
54.35784997928231
 10
266.2147759669756
 20
53.46206050559814
 10
267.7921443880282
 20
53.46206050559818
 10
267.7921443880282
 20
54.94206050559808
 42
0.4142135623730618
 10
267.636354914344
 20
55.09784997928228
 42
-1.0
 10
267.636354914344
 20
55.40942892665068
 10
268.6879338617123
 20
55.40942892665068
 42
-1.0
 10
268.6879338617123
 20
55.09784997928228
 42
0.4142135623730869
 10
268.5321443880281
 20
54.94206050559808
 10
268.5321443880281
 20
53.46206050559818
 10
270.1095128090806
 20
53.46206050559814
 10
270.1095128090807
 20
54.35784997928231
 42
-1.0
 10
270.4210917564491
 20
54.35784997928231
 42
0.4142135623730199
 10
270.5768812301332
 20
54.20206050559808
 10
287.7591619318863
 20
54.2020605055961
 10
287.7591619318863
 20
57.35679734770315
 10
286.8633724582022
 20
57.3567973477032
 42
-1.0
 10
286.8633724582022
 20
57.66837629507158
 42
0.4142135623730951
 10
287.0191619318864
 20
57.82416576875577
 10
287.0191619318863
 20
69.54732366349174
 42
0.4142135623731038
 10
286.8633724582021
 20
69.70311313717593
 42
-1.0
 10
286.8633724582021
 20
70.01469208454429
 10
287.7591619318863
 20
70.01469208454429
 10
287.7591619318863
 20
82.67258682138544
 10
285.8117935108338
 20
82.67258682138544
 10
285.8117935108338
 20
81.77679734770128
 42
-1.0
 10
285.5002145634654
 20
81.77679734770128
 42
0.4142135623730951
 10
285.3444250897812
 20
81.93258682138552
 10
283.8644250897814
 20
81.93258682138552
 10
278.0223198266238
 20
57.35679734770315
 10
233.2328461424169
 20
57.35679734770317
 10
233.2328461424169
 20
81.93258682138552
 10
231.752846142417
 20
81.93258682138552
 42
0.4142135623731117
 10
231.5970566687328
 20
81.77679734770128
 42
-1.0
 10
231.2854777213643
 20
81.77679734770128
 10
231.2854777213643
 20
82.67258682138544
 10
230.0781093003118
 20
82.67258682138544
 10
230.0781093003118
 20
70.48206050559691
 42
0.4142135623730951
 10
230.233898773996
 20
70.32627103191271
 42
-1.0
 10
230.233898773996
 20
70.01469208454429
 10
229.3381093003119
 20
70.01469208454429
 10
229.3381093003119
 20
57.35679734770317
 10
230.233898773996
 20
57.35679734770317
 42
-1.0
 10
230.233898773996
 20
57.04521840033478
 42
0.4142135623730951
 10
230.0781093003118
 20
56.88942892665057
 10
230.0781093003118
 20
54.20206050559611
 10
246.5203900020649
 20
54.20206050559809
 42
0.4142135623730951
 10
246.6761794757491
 20
54.35784997928233
 42
-1.0
 10
246.9877584231176
 20
54.35784997928233
 10
246.9877584231175
 20
53.46206050559818
 10
248.56512684417
 20
53.46206050559819
 10
248.56512684417
 20
54.9420605055981
 42
0.4142135623730618
 10
248.4093373704858
 20
55.09784997928229
 42
-1.0
 10
248.4093373704858
 20
55.40942892665071
 10
249.4609163178542
 20
55.40942892665071
 42
-1.0
 10
249.4609163178542
 20
55.09784997928229
 42
0.4142135623730869
 10
249.30512684417
 20
54.9420605055981
 10
249.30512684417
 20
53.46206050559819
 10
250.8824952652225
 20
53.46206050559818
 10
250.8824952652225
 20
54.35784997928233
 42
-1.0
 10
251.1940742125909
 20
54.35784997928233
 42
0.4142135623730199
  0
LWPOLYLINE
  5
9E
330
2
100
AcDbEntity
  8
CUT_THRU
100
AcDbPolyline
 90
       52
 70
     1
 43
0.0
 10
226.6040040371542
 20
32.16029534466736
 42
-0.4142135623730016
 10
226.44821456347
 20
32.0045058709832
 42
1.0
 10
226.44821456347
 20
31.69292692361481
 10
227.3440040371541
 20
31.69292692361479
 10
227.3440040371541
 20
30.11555850256226
 10
225.8640040371542
 20
30.11555850256226
 42
-0.4142135623731117
 10
225.70821456347
 20
30.27134797624646
 42
1.0
 10
225.3966356161016
 20
30.27134797624646
 10
225.3966356161016
 20
29.21976902887815
 42
1.0
 10
225.7082145634701
 20
29.21976902887815
 42
-0.4142135623730951
 10
225.8640040371542
 20
29.37555850256236
 10
227.3440040371541
 20
29.37555850256234
 10
227.3440040371541
 20
27.79819008150983
 10
226.44821456347
 20
27.79819008150983
 42
1.0
 10
226.44821456347
 20
27.48661113414143
 42
-0.4142135623730951
 10
226.6040040371542
 20
27.33082166045723
 10
226.6040040371542
 20
22.67011990607161
 42
-0.4142135623730618
 10
226.44821456347
 20
22.51433043238744
 42
1.0
 10
226.44821456347
 20
22.20275148501904
 10
227.3440040371541
 20
22.20275148501904
 10
227.3440040371541
 20
20.62538306396653
 10
225.8640040371542
 20
20.62538306396649
 42
-0.4142135623731117
 10
225.70821456347
 20
20.7811725376507
 42
1.0
 10
225.3966356161016
 20
20.7811725376507
 10
225.3966356161016
 20
19.72959359028237
 42
1.0
 10
225.7082145634701
 20
19.72959359028237
 42
-0.4142135623730951
 10
225.8640040371542
 20
19.88538306396658
 10
227.3440040371541
 20
19.88538306396658
 10
227.3440040371541
 20
18.30801464291407
 10
226.44821456347
 20
18.30801464291407
 42
1.0
 10
226.44821456347
 20
17.99643569554567
 42
-0.4142135623730951
 10
226.6040040371542
 20
17.84064622186147
 10
226.6040040371542
 20
13.17994446747586
 42
-0.4142135623730946
 10
226.44821456347
 20
13.02415499379167
 42
1.0
 10
226.44821456347
 20
12.71257604642327
 10
227.3440040371541
 20
12.71257604642328
 10
227.3440040371541
 20
10.39520762537081
 10
225.3966356161016
 20
10.39520762537081
 10
225.3966356161016
 20
11.29099709905494
 42
1.0
 10
225.0850566687332
 20
11.29099709905494
 42
-0.414213562373094
 10
224.929267195049
 20
11.13520762537074
 10
223.4492671950491
 20
11.13520762537075
 10
223.4492671950491
 20
38.8657339411581
 10
224.929267195049
 20
38.8657339411581
 42
-0.4142135623731218
 10
225.0850566687332
 20
38.70994446747391
 42
1.0
 10
225.3966356161016
 20
38.70994446747391
 10
225.3966356161016
 20
39.60573394115804
 10
227.3440040371541
 20
39.60573394115804
 10
227.3440040371541
 20
37.28836552010559
 10
226.44821456347
 20
37.28836552010559
 42
1.0
 10
226.44821456347
 20
36.97678657273721
 42
-0.4142135623730951
 10
226.6040040371542
 20
36.820997099053
  0
ENDSEC
  0
SECTION
  2
OBJECTS
  0
DICTIONARY
  5
9
330
0
100
AcDbDictionary
281
     1
  3
ACAD_2007HEADERVARS_RT
350
AF
  3
ACAD_COLOR
350
36
  3
ACAD_GROUP
350
2D
  3
ACAD_LAYOUT
350
11
  3
ACAD_MATERIAL
350
B
  3
ACAD_MLEADERSTYLE
350
39
  3
ACAD_MLINESTYLE
350
2E
  3
ACAD_PLOTSETTINGS
350
2F
  3
ACAD_PLOTSTYLENAME
350
8
  3
ACAD_SCALELIST
350
37
  3
ACAD_TABLESTYLE
350
38
  3
ACAD_VISUALSTYLE
350
25
  3
ACDB_RECOMPOSE_DATA
350
AE
  3
AcDbVariableDictionary
350
A0
  3
AcDsDecomposeData
350
B6
  0
DICTIONARY
  5
27
330
22
100
AcDbDictionary
280
     1
281
     1
  0
DICTIONARY
  5
18
330
17
100
AcDbDictionary
280
     1
281
     1
  3
ACAD_LAYERSTATES
360
19
  0
DICTIONARY
  5
3
330
2
100
AcDbDictionary
280
     1
281
     1
  3
ACAD_SORTENTS
360
9F
  0
DICTIONARY
  5
75
330
74
100
AcDbDictionary
280
     1
281
     1
  0
DICTIONARY
  5
AF
102
{ACAD_REACTORS
330
9
102
}
330
9
100
AcDbDictionary
281
     1
  3
INTERFERECOLOR
350
B0
  0
DICTIONARY
  5
36
102
{ACAD_REACTORS
330
9
102
}
330
9
100
AcDbDictionary
281
     1
  0
DICTIONARY
  5
2D
102
{ACAD_REACTORS
330
9
102
}
330
9
100
AcDbDictionary
281
     1
  0
DICTIONARY
  5
11
102
{ACAD_REACTORS
330
9
102
}
330
9
100
AcDbDictionary
281
     1
  3
Layout1
350
16
  3
Model
350
10
  0
DICTIONARY
  5
B
102
{ACAD_REACTORS
330
9
102
}
330
9
100
AcDbDictionary
281
     1
  3
ByBlock
350
33
  3
ByLayer
350
30
  3
Global
350
A
  0
DICTIONARY
  5
39
102
{ACAD_REACTORS
330
9
102
}
330
9
100
AcDbDictionary
281
     1
  0
DICTIONARY
  5
2E
102
{ACAD_REACTORS
330
9
102
}
330
9
100
AcDbDictionary
281
     1
  3
Standard
350
3A
  0
DICTIONARY
  5
2F
102
{ACAD_REACTORS
330
9
102
}
330
9
100
AcDbDictionary
281
     1
  0
ACDBDICTIONARYWDFLT
  5
8
102
{ACAD_REACTORS
330
9
102
}
330
9
100
AcDbDictionary
281
     1
  3
Normal
350
7
100
AcDbDictionaryWithDefault
340
7
  0
DICTIONARY
  5
37
102
{ACAD_REACTORS
330
9
102
}
330
9
100
AcDbDictionary
281
     1
  3
A0
350
3F
  3
A1
350
40
  3
A2
350
41
  3
A3
350
42
  3
A4
350
43
  3
A5
350
44
  3
A6
350
45
  3
A7
350
46
  3
A8
350
47
  3
A9
350
48
  3
B0
350
49
  3
B1
350
4A
  3
B2
350
4B
  3
B3
350
4C
  3
B4
350
4D
  3
B5
350
4E
  3
B6
350
4F
  3
B7
350
50
  3
B8
350
51
  3
B9
350
52
  3
C0
350
53
  3
C1
350
54
  3
C2
350
55
  3
C3
350
56
  3
C4
350
57
  3
C5
350
58
  3
C6
350
59
  3
C7
350
5A
  3
C8
350
5B
  3
C9
350
5C
  3
D0
350
5D
  3
D1
350
5E
  3
D2
350
5F
  0
DICTIONARY
  5
38
102
{ACAD_REACTORS
330
9
102
}
330
9
100
AcDbDictionary
281
     1
  3
Standard
350
3B
  0
DICTIONARY
  5
25
102
{ACAD_REACTORS
330
9
102
}
330
9
100
AcDbDictionary
281
     1
  3
2dWireframe
350
24
  3
Realistic
350
3D
  3
Wireframe
350
3E
  0
XRECORD
  5
AE
102
{ACAD_REACTORS
330
9
102
}
330
9
100
AcDbXrecord
280
     1
 90
        1
330
3B
  0
DICTIONARY
  5
A0
102
{ACAD_REACTORS
330
9
102
}
330
9
100
AcDbDictionary
281
     1
  3
CANNOSCALE
350
A6
  3
CMLEADERSTYLE
350
A2
  3
CTABLESTYLE
350
A1
  3
CVIEWDETAILSTYLE
350
A3
  3
CVIEWSECTIONSTYLE
350
A4
  3
DGNFRAME
350
AB
  3
LAYEREVAL
350
A8
  3
LAYERNOTIFY
350
A9
  3
LIGHTINGUNITS
350
A7
  3
MSLTSCALE
350
A5
  3
SOLIDHIST
350
AA
  3
XCLIPFRAME
350
AC
  0
DICTIONARY
  5
B6
102
{ACAD_REACTORS
330
9
102
}
330
9
100
AcDbDictionary
281
     1
  3
AcDsRecords
350
B8
  3
AcDsSchemas
350
B7
1001
ACAD
1070
     2
  0
DICTIONARY
  5
19
102
{ACAD_REACTORS
330
18
102
}
330
18
100
AcDbDictionary
281
     1
  0
SORTENTSTABLE
  5
9F
102
{ACAD_REACTORS
330
3
102
}
330
3
100
AcDbSortentsTable
330
2
  0
XRECORD
  5
B0
102
{ACAD_REACTORS
330
AF
102
}
330
AF
100
AcDbXrecord
280
     1
1004
1800000001000000000000C0000000000000000000000000
  0
LAYOUT
  5
16
102
{ACAD_REACTORS
330
11
102
}
330
11
100
AcDbPlotSettings
  1

  2
none_device
  4

  6

 40
0.0
 41
0.0
 42
0.0
 43
0.0
 44
0.0
 45
0.0
 46
0.0
 47
0.0
 48
0.0
 49
0.0
140
0.0
141
0.0
142
1.0
143
1.0
 70
   688
 72
     0
 73
     0
 74
     5
  7

 75
    16
147
1.0
 76
     0
 77
     2
 78
   300
148
0.0
149
0.0
100
AcDbLayout
  1
Layout1
 70
     1
 71
     1
 10
0.0
 20
0.0
 11
12.0
 21
9.0
 12
0.0
 22
0.0
 32
0.0
 14
1.000000000000000E+20
 24
1.000000000000000E+20
 34
1.000000000000000E+20
 15
-1.000000000000000E+20
 25
-1.000000000000000E+20
 35
-1.000000000000000E+20
146
0.0
 13
0.0
 23
0.0
 33
0.0
 16
1.0
 26
0.0
 36
0.0
 17
0.0
 27
1.0
 37
0.0
 76
     0
330
13
  0
LAYOUT
  5
10
102
{ACAD_XDICTIONARY
360
12
102
}
102
{ACAD_REACTORS
330
11
102
}
330
11
100
AcDbPlotSettings
  1

  2
none_device
  4

  6

 40
0.0
 41
0.0
 42
0.0
 43
0.0
 44
0.0
 45
0.0
 46
0.0
 47
0.0
 48
0.0
 49
0.0
140
0.0
141
0.0
142
1.0
143
1.0
 70
  1712
 72
     0
 73
     0
 74
     0
  7

 75
     0
147
1.0
 76
     0
 77
     2
 78
   300
148
0.0
149
0.0
100
AcDbLayout
  1
Model
 70
     1
 71
     0
 10
0.0
 20
0.0
 11
12.0
 21
9.0
 12
0.0
 22
0.0
 32
0.0
 14
1.000000000000000E+20
 24
1.000000000000000E+20
 34
1.000000000000000E+20
 15
-1.000000000000000E+20
 25
-1.000000000000000E+20
 35
-1.000000000000000E+20
146
0.0
 13
0.0
 23
0.0
 33
0.0
 16
1.0
 26
0.0
 36
0.0
 17
0.0
 27
1.0
 37
0.0
 76
     0
330
2
331
23
  0
MATERIAL
  5
33
102
{ACAD_XDICTIONARY
360
34
102
}
102
{ACAD_REACTORS
330
B
102
}
330
B
100
AcDbMaterial
  1
ByBlock
 73
     1
 78
     1
172
     1
176
     1
270
     1
274
     1
  0
MATERIAL
  5
30
102
{ACAD_XDICTIONARY
360
31
102
}
102
{ACAD_REACTORS
330
B
102
}
330
B
100
AcDbMaterial
  1
ByLayer
 73
     1
 78
     1
172
     1
176
     1
270
     1
274
     1
  0
MATERIAL
  5
A
102
{ACAD_XDICTIONARY
360
C
102
}
102
{ACAD_REACTORS
330
B
102
}
330
B
100
AcDbMaterial
  1
Global
 73
     1
 78
     1
172
     1
176
     1
270
     1
274
     1
  0
MLINESTYLE
  5
3A
102
{ACAD_REACTORS
330
2E
102
}
330
2E
100
AcDbMlineStyle
  2
STANDARD
 70
     0
  3

 62
   256
 51
90.0
 52
90.0
 71
     2
 49
0.5
 62
   256
  6
BYLAYER
 49
-0.5
 62
   256
  6
BYLAYER
  0
ACDBPLACEHOLDER
  5
7
102
{ACAD_REACTORS
330
8
102
}
330
8
  0
SCALE
  5
3F
102
{ACAD_REACTORS
330
37
102
}
330
37
100
AcDbScale
 70
     0
300
1:1
140
1.0
141
1.0
290
     1
  0
SCALE
  5
40
102
{ACAD_REACTORS
330
37
102
}
330
37
100
AcDbScale
 70
     0
300
1:2
140
1.0
141
2.0
290
     0
  0
SCALE
  5
41
102
{ACAD_REACTORS
330
37
102
}
330
37
100
AcDbScale
 70
     0
300
1:4
140
1.0
141
4.0
290
     0
  0
SCALE
  5
42
102
{ACAD_REACTORS
330
37
102
}
330
37
100
AcDbScale
 70
     0
300
1:5
140
1.0
141
5.0
290
     0
  0
SCALE
  5
43
102
{ACAD_REACTORS
330
37
102
}
330
37
100
AcDbScale
 70
     0
300
1:8
140
1.0
141
8.0
290
     0
  0
SCALE
  5
44
102
{ACAD_REACTORS
330
37
102
}
330
37
100
AcDbScale
 70
     0
300
1:10
140
1.0
141
10.0
290
     0
  0
SCALE
  5
45
102
{ACAD_REACTORS
330
37
102
}
330
37
100
AcDbScale
 70
     0
300
1:16
140
1.0
141
16.0
290
     0
  0
SCALE
  5
46
102
{ACAD_REACTORS
330
37
102
}
330
37
100
AcDbScale
 70
     0
300
1:20
140
1.0
141
20.0
290
     0
  0
SCALE
  5
47
102
{ACAD_REACTORS
330
37
102
}
330
37
100
AcDbScale
 70
     0
300
1:30
140
1.0
141
30.0
290
     0
  0
SCALE
  5
48
102
{ACAD_REACTORS
330
37
102
}
330
37
100
AcDbScale
 70
     0
300
1:40
140
1.0
141
40.0
290
     0
  0
SCALE
  5
49
102
{ACAD_REACTORS
330
37
102
}
330
37
100
AcDbScale
 70
     0
300
1:50
140
1.0
141
50.0
290
     0
  0
SCALE
  5
4A
102
{ACAD_REACTORS
330
37
102
}
330
37
100
AcDbScale
 70
     0
300
1:100
140
1.0
141
100.0
290
     0
  0
SCALE
  5
4B
102
{ACAD_REACTORS
330
37
102
}
330
37
100
AcDbScale
 70
     0
300
2:1
140
2.0
141
1.0
290
     0
  0
SCALE
  5
4C
102
{ACAD_REACTORS
330
37
102
}
330
37
100
AcDbScale
 70
     0
300
4:1
140
4.0
141
1.0
290
     0
  0
SCALE
  5
4D
102
{ACAD_REACTORS
330
37
102
}
330
37
100
AcDbScale
 70
     0
300
8:1
140
8.0
141
1.0
290
     0
  0
SCALE
  5
4E
102
{ACAD_REACTORS
330
37
102
}
330
37
100
AcDbScale
 70
     0
300
10:1
140
10.0
141
1.0
290
     0
  0
SCALE
  5
4F
102
{ACAD_REACTORS
330
37
102
}
330
37
100
AcDbScale
 70
     0
300
100:1
140
100.0
141
1.0
290
     0
  0
SCALE
  5
50
102
{ACAD_REACTORS
330
37
102
}
330
37
100
AcDbScale
 70
     0
300
1/128" = 1'-0"
140
0.0078125
141
12.0
290
     0
  0
SCALE
  5
51
102
{ACAD_REACTORS
330
37
102
}
330
37
100
AcDbScale
 70
     0
300
1/64" = 1'-0"
140
0.015625
141
12.0
290
     0
  0
SCALE
  5
52
102
{ACAD_REACTORS
330
37
102
}
330
37
100
AcDbScale
 70
     0
300
1/32" = 1'-0"
140
0.03125
141
12.0
290
     0
  0
SCALE
  5
53
102
{ACAD_REACTORS
330
37
102
}
330
37
100
AcDbScale
 70
     0
300
1/16" = 1'-0"
140
0.0625
141
12.0
290
     0
  0
SCALE
  5
54
102
{ACAD_REACTORS
330
37
102
}
330
37
100
AcDbScale
 70
     0
300
3/32" = 1'-0"
140
0.09375
141
12.0
290
     0
  0
SCALE
  5
55
102
{ACAD_REACTORS
330
37
102
}
330
37
100
AcDbScale
 70
     0
300
1/8" = 1'-0"
140
0.125
141
12.0
290
     0
  0
SCALE
  5
56
102
{ACAD_REACTORS
330
37
102
}
330
37
100
AcDbScale
 70
     0
300
3/16" = 1'-0"
140
0.1875
141
12.0
290
     0
  0
SCALE
  5
57
102
{ACAD_REACTORS
330
37
102
}
330
37
100
AcDbScale
 70
     0
300
1/4" = 1'-0"
140
0.25
141
12.0
290
     0
  0
SCALE
  5
58
102
{ACAD_REACTORS
330
37
102
}
330
37
100
AcDbScale
 70
     0
300
3/8" = 1'-0"
140
0.375
141
12.0
290
     0
  0
SCALE
  5
59
102
{ACAD_REACTORS
330
37
102
}
330
37
100
AcDbScale
 70
     0
300
1/2" = 1'-0"
140
0.5
141
12.0
290
     0
  0
SCALE
  5
5A
102
{ACAD_REACTORS
330
37
102
}
330
37
100
AcDbScale
 70
     0
300
3/4" = 1'-0"
140
0.75
141
12.0
290
     0
  0
SCALE
  5
5B
102
{ACAD_REACTORS
330
37
102
}
330
37
100
AcDbScale
 70
     0
300
1" = 1'-0"
140
1.0
141
12.0
290
     0
  0
SCALE
  5
5C
102
{ACAD_REACTORS
330
37
102
}
330
37
100
AcDbScale
 70
     0
300
1-1/2" = 1'-0"
140
1.5
141
12.0
290
     0
  0
SCALE
  5
5D
102
{ACAD_REACTORS
330
37
102
}
330
37
100
AcDbScale
 70
     0
300
3" = 1'-0"
140
3.0
141
12.0
290
     0
  0
SCALE
  5
5E
102
{ACAD_REACTORS
330
37
102
}
330
37
100
AcDbScale
 70
     0
300
6" = 1'-0"
140
6.0
141
12.0
290
     0
  0
SCALE
  5
5F
102
{ACAD_REACTORS
330
37
102
}
330
37
100
AcDbScale
 70
     0
300
1'-0" = 1'-0"
140
12.0
141
12.0
290
     0
  0
TABLESTYLE
  5
3B
102
{ACAD_XDICTIONARY
360
3C
102
}
102
{ACAD_REACTORS
330
38
102
}
330
38
100
AcDbTableStyle
  3
Standard
 70
     0
 71
     0
 40
0.06
 41
0.06
280
     0
281
     0
  7
Standard
140
0.18
170
     2
 62
     0
 63
     7
283
     0
274
    -2
284
     1
 64
     0
275
    -2
285
     1
 65
     0
276
    -2
286
     1
 66
     0
277
    -2
287
     1
 67
     0
278
    -2
288
     1
 68
     0
279
    -2
289
     1
 69
     0
  7
Standard
140
0.25
170
     5
 62
     0
 63
     7
283
     0
274
    -2
284
     1
 64
     0
275
    -2
285
     1
 65
     0
276
    -2
286
     1
 66
     0
277
    -2
287
     1
 67
     0
278
    -2
288
     1
 68
     0
279
    -2
289
     1
 69
     0
  7
Standard
140
0.18
170
     5
 62
     0
 63
     7
283
     0
274
    -2
284
     1
 64
     0
275
    -2
285
     1
 65
     0
276
    -2
286
     1
 66
     0
277
    -2
287
     1
 67
     0
278
    -2
288
     1
 68
     0
279
    -2
289
     1
 69
     0
  0
VISUALSTYLE
  5
24
102
{ACAD_XDICTIONARY
360
B9
102
}
102
{ACAD_REACTORS
330
25
102
}
330
25
100
AcDbVisualStyle
  2

 70
     4
 71
     0
 72
     2
 73
     0
 90
        0
 40
-0.6
 41
-30.0
 62
     5
 63
     7
421
 16777215
 74
     1
 91
        4
 64
     7
 65
   257
 75
     1
175
     1
 42
1.0
 92
        0
 66
   257
 43
1.0
 76
     1
 77
     6
 78
     2
 67
     7
 79
     5
170
     0
171
     0
290
     0
174
     0
 93
        1
 44
0.0
173
     0
291
     0
 45
0.0
1001
ACAD
1000
AcDbSavedByObjectVersion
1070
     0
  0
VISUALSTYLE
  5
3D
102
{ACAD_XDICTIONARY
360
BC
102
}
102
{ACAD_REACTORS
330
25
102
}
330
25
100
AcDbVisualStyle
  2

 70
     8
 71
     2
 72
     2
 73
     0
 90
        0
 40
-0.6
 41
-30.0
 62
     5
 63
     7
421
 16777215
 74
     1
 91
        0
 64
     7
 65
   257
 75
     1
175
     1
 42
1.0
 92
        8
 66
     8
424
  7895160
 43
1.0
 76
     1
 77
     6
 78
     2
 67
     7
 79
     5
170
     0
171
     0
290
     0
174
     0
 93
       13
 44
0.0
173
     0
291
     0
 45
0.0
1001
ACAD
1000
AcDbSavedByObjectVersion
1070
     0
  0
VISUALSTYLE
  5
3E
102
{ACAD_XDICTIONARY
360
BE
102
}
102
{ACAD_REACTORS
330
25
102
}
330
25
100
AcDbVisualStyle
  2

 70
     5
 71
     0
 72
     2
 73
     0
 90
        0
 40
-0.6
 41
-30.0
 62
     5
 63
     7
421
 16777215
 74
     1
 91
        4
 64
     7
 65
   257
 75
     1
175
     1
 42
1.0
 92
        0
 66
   257
 43
1.0
 76
     1
 77
     6
 78
     2
 67
     7
 79
     3
170
     0
171
     0
290
     0
174
     0
 93
        1
 44
0.0
173
     0
291
     0
 45
0.0
1001
ACAD
1000
AcDbSavedByObjectVersion
1070
     0
  0
DICTIONARYVAR
  5
A6
102
{ACAD_REACTORS
330
A0
102
}
330
A0
100
DictionaryVariables
280
     0
  1
1:1
  0
DICTIONARYVAR
  5
A2
102
{ACAD_REACTORS
330
A0
102
}
330
A0
100
DictionaryVariables
280
     0
  1
STANDARD
  0
DICTIONARYVAR
  5
A1
102
{ACAD_REACTORS
330
A0
102
}
330
A0
100
DictionaryVariables
280
     0
  1
STANDARD
  0
DICTIONARYVAR
  5
A3
102
{ACAD_REACTORS
330
A0
102
}
330
A0
100
DictionaryVariables
280
     0
  1

  0
DICTIONARYVAR
  5
A4
102
{ACAD_REACTORS
330
A0
102
}
330
A0
100
DictionaryVariables
280
     0
  1

  0
DICTIONARYVAR
  5
AB
102
{ACAD_REACTORS
330
A0
102
}
330
A0
100
DictionaryVariables
280
     0
  1
2
  0
DICTIONARYVAR
  5
A8
102
{ACAD_REACTORS
330
A0
102
}
330
A0
100
DictionaryVariables
280
     0
  1
0
  0
DICTIONARYVAR
  5
A9
102
{ACAD_REACTORS
330
A0
102
}
330
A0
100
DictionaryVariables
280
     0
  1
0
  0
DICTIONARYVAR
  5
A7
102
{ACAD_REACTORS
330
A0
102
}
330
A0
100
DictionaryVariables
280
     0
  1
2
  0
DICTIONARYVAR
  5
A5
102
{ACAD_REACTORS
330
A0
102
}
330
A0
100
DictionaryVariables
280
     0
  1
1
  0
DICTIONARYVAR
  5
AA
102
{ACAD_REACTORS
330
A0
102
}
330
A0
100
DictionaryVariables
280
     0
  1
1
  0
DICTIONARYVAR
  5
AC
102
{ACAD_REACTORS
330
A0
102
}
330
A0
100
DictionaryVariables
280
     0
  1
2
  0
DICTIONARY
  5
B8
102
{ACAD_REACTORS
330
B6
102
}
330
B6
100
AcDbDictionary
281
     1
  0
DICTIONARY
  5
B7
102
{ACAD_REACTORS
330
B6
102
}
330
B6
100
AcDbDictionary
281
     1
  3
4601230224
350
B1
  3
4601230240
350
B2
  3
4601230256
350
B3
  3
4601230272
350
B4
  3
4601230288
350
B5
  0
DICTIONARY
  5
12
330
10
100
AcDbDictionary
280
     1
281
     1
  0
DICTIONARY
  5
34
330
33
100
AcDbDictionary
280
     1
281
     1
  3
ACAD_XREC_ROUNDTRIP
360
35
  0
DICTIONARY
  5
31
330
30
100
AcDbDictionary
280
     1
281
     1
  3
ACAD_XREC_ROUNDTRIP
360
32
  0
DICTIONARY
  5
C
330
A
100
AcDbDictionary
280
     1
281
     1
  3
ACAD_XREC_ROUNDTRIP
360
D
  0
DICTIONARY
  5
3C
330
3B
100
AcDbDictionary
280
     1
281
     1
  3
ACAD_ROUNDTRIP_2008_TABLESTYLE_CELLSTYLEMAP
360
AD
  3
ACAD_XREC_ROUNDTRIP
360
BB
  0
DICTIONARY
  5
B9
330
24
100
AcDbDictionary
280
     1
281
     1
  3
ACAD_XREC_ROUNDTRIP
360
BA
  0
DICTIONARY
  5
BC
330
3D
100
AcDbDictionary
280
     1
281
     1
  3
ACAD_XREC_ROUNDTRIP
360
BD
  0
DICTIONARY
  5
BE
330
3E
100
AcDbDictionary
280
     1
281
     1
  3
ACAD_XREC_ROUNDTRIP
360
BF
  0
XRECORD
  5
B1
102
{ACAD_REACTORS
330
B7
102
}
330
B7
100
AcDbXrecord
280
     1
  1
AcDb_Thumbnail_Schema
102
{ATTRRECORD
341
B2
  2
AcDbDs::TreatedAsObjectData
280
     1
291
     1
102
ATTRRECORD}
102
{ATTRRECORD
341
B3
  2
AcDbDs::Legacy
280
     1
291
     1
102
ATTRRECORD}
  2
AcDbDs::ID
280
    10
 91
        8
102
{ATTRRECORD
341
B4
  2
AcDs:Indexable
280
     1
291
     1
102
ATTRRECORD}
102
{ATTRRECORD
341
B5
  2
AcDbDs::HandleAttribute
280
     7
282
     1
102
ATTRRECORD}
  2
Thumbnail_Data
280
    15
 91
        0
  0
XRECORD
  5
B2
102
{ACAD_REACTORS
330
B7
102
}
330
B7
100
AcDbXrecord
280
     1
  1
AcDbDs::TreatedAsObjectDataSchema
  2
AcDbDs::TreatedAsObjectData
280
     1
 91
        0
  0
XRECORD
  5
B3
102
{ACAD_REACTORS
330
B7
102
}
330
B7
100
AcDbXrecord
280
     1
  1
AcDbDs::LegacySchema
  2
AcDbDs::Legacy
280
     1
 91
        0
  0
XRECORD
  5
B4
102
{ACAD_REACTORS
330
B7
102
}
330
B7
100
AcDbXrecord
280
     1
  1
AcDbDs::IndexedPropertySchema
  2
AcDs:Indexable
280
     1
 91
        0
  0
XRECORD
  5
B5
102
{ACAD_REACTORS
330
B7
102
}
330
B7
100
AcDbXrecord
280
     1
  1
AcDbDs::HandleAttributeSchema
  2
AcDbDs::HandleAttribute
280
     7
 91
        1
284
     1
  0
XRECORD
  5
35
102
{ACAD_REACTORS
330
34
102
}
330
34
100
AcDbXrecord
280
     1
102
MATERIAL
148
0.0
149
0.0
149
0.0
 93
        0
 94
      127
282
     0
 72
     1
 77
     1
171
     1
175
     1
179
     1
273
     0
  0
XRECORD
  5
32
102
{ACAD_REACTORS
330
31
102
}
330
31
100
AcDbXrecord
280
     1
102
MATERIAL
148
0.0
149
0.0
149
0.0
 93
        0
 94
      127
282
     0
 72
     1
 77
     1
171
     1
175
     1
179
     1
273
     0
  0
XRECORD
  5
D
102
{ACAD_REACTORS
330
C
102
}
330
C
100
AcDbXrecord
280
     1
102
MATERIAL
148
0.0
149
0.0
149
0.0
 93
        0
 94
      127
282
     0
 72
     1
 77
     1
171
     1
175
     1
179
     1
273
     0
  0
CELLSTYLEMAP
  5
AD
102
{ACAD_REACTORS
330
3C
102
}
330
3C
100
AcDbCellStyleMap
 90
        3
300
CELLSTYLE
  1
TABLEFORMAT_BEGIN
 90
        5
170
     1
 91
        0
 92
    32768
 62
   257
 93
        1
300
CONTENTFORMAT
  1
CONTENTFORMAT_BEGIN
 90
        0
 91
        0
 92
      512
 93
        0
300

 40
0.0
140
1.0
 94
        5
 62
     0
340
1B
144
0.25
309
CONTENTFORMAT_END
171
     1
301
MARGIN
  1
CELLMARGIN_BEGIN
 40
0.06
 40
0.06
 40
0.06
 40
0.06
 40
0.18
 40
0.18
309
CELLMARGIN_END
 94
        6
 95
        1
302
GRIDFORMAT
  1
GRIDFORMAT_BEGIN
 90
        0
 91
        1
 62
     0
 92
       -2
340
0
 93
        0
 40
0.045
309
GRIDFORMAT_END
 95
        2
302
GRIDFORMAT
  1
GRIDFORMAT_BEGIN
 90
        0
 91
        1
 62
     0
 92
       -2
340
0
 93
        0
 40
0.045
309
GRIDFORMAT_END
 95
        4
302
GRIDFORMAT
  1
GRIDFORMAT_BEGIN
 90
        0
 91
        1
 62
     0
 92
       -2
340
0
 93
        0
 40
0.045
309
GRIDFORMAT_END
 95
        8
302
GRIDFORMAT
  1
GRIDFORMAT_BEGIN
 90
        0
 91
        1
 62
     0
 92
       -2
340
0
 93
        0
 40
0.045
309
GRIDFORMAT_END
 95
       16
302
GRIDFORMAT
  1
GRIDFORMAT_BEGIN
 90
        0
 91
        1
 62
     0
 92
       -2
340
0
 93
        0
 40
0.045
309
GRIDFORMAT_END
 95
       32
302
GRIDFORMAT
  1
GRIDFORMAT_BEGIN
 90
        0
 91
        1
 62
     0
 92
       -2
340
0
 93
        0
 40
0.045
309
GRIDFORMAT_END
309
TABLEFORMAT_END
  1
CELLSTYLE_BEGIN
 90
        1
 91
        1
300
_TITLE
309
CELLSTYLE_END
300
CELLSTYLE
  1
TABLEFORMAT_BEGIN
 90
        5
170
     1
 91
        0
 92
        0
 62
   257
 93
        1
300
CONTENTFORMAT
  1
CONTENTFORMAT_BEGIN
 90
        0
 91
        0
 92
      512
 93
        0
300

 40
0.0
140
1.0
 94
        5
 62
     0
340
1B
144
0.18
309
CONTENTFORMAT_END
171
     1
301
MARGIN
  1
CELLMARGIN_BEGIN
 40
0.06
 40
0.06
 40
0.06
 40
0.06
 40
0.18
 40
0.18
309
CELLMARGIN_END
 94
        6
 95
        1
302
GRIDFORMAT
  1
GRIDFORMAT_BEGIN
 90
        0
 91
        1
 62
     0
 92
       -2
340
0
 93
        0
 40
0.045
309
GRIDFORMAT_END
 95
        2
302
GRIDFORMAT
  1
GRIDFORMAT_BEGIN
 90
        0
 91
        1
 62
     0
 92
       -2
340
0
 93
        0
 40
0.045
309
GRIDFORMAT_END
 95
        4
302
GRIDFORMAT
  1
GRIDFORMAT_BEGIN
 90
        0
 91
        1
 62
     0
 92
       -2
340
0
 93
        0
 40
0.045
309
GRIDFORMAT_END
 95
        8
302
GRIDFORMAT
  1
GRIDFORMAT_BEGIN
 90
        0
 91
        1
 62
     0
 92
       -2
340
0
 93
        0
 40
0.045
309
GRIDFORMAT_END
 95
       16
302
GRIDFORMAT
  1
GRIDFORMAT_BEGIN
 90
        0
 91
        1
 62
     0
 92
       -2
340
0
 93
        0
 40
0.045
309
GRIDFORMAT_END
 95
       32
302
GRIDFORMAT
  1
GRIDFORMAT_BEGIN
 90
        0
 91
        1
 62
     0
 92
       -2
340
0
 93
        0
 40
0.045
309
GRIDFORMAT_END
309
TABLEFORMAT_END
  1
CELLSTYLE_BEGIN
 90
        2
 91
        1
300
_HEADER
309
CELLSTYLE_END
300
CELLSTYLE
  1
TABLEFORMAT_BEGIN
 90
        5
170
     1
 91
        0
 92
        0
 62
   257
 93
        1
300
CONTENTFORMAT
  1
CONTENTFORMAT_BEGIN
 90
        0
 91
        0
 92
      512
 93
        0
300

 40
0.0
140
1.0
 94
        2
 62
     0
340
1B
144
0.18
309
CONTENTFORMAT_END
171
     1
301
MARGIN
  1
CELLMARGIN_BEGIN
 40
0.06
 40
0.06
 40
0.06
 40
0.06
 40
0.18
 40
0.18
309
CELLMARGIN_END
 94
        6
 95
        1
302
GRIDFORMAT
  1
GRIDFORMAT_BEGIN
 90
        0
 91
        1
 62
     0
 92
       -2
340
0
 93
        0
 40
0.045
309
GRIDFORMAT_END
 95
        2
302
GRIDFORMAT
  1
GRIDFORMAT_BEGIN
 90
        0
 91
        1
 62
     0
 92
       -2
340
0
 93
        0
 40
0.045
309
GRIDFORMAT_END
 95
        4
302
GRIDFORMAT
  1
GRIDFORMAT_BEGIN
 90
        0
 91
        1
 62
     0
 92
       -2
340
0
 93
        0
 40
0.045
309
GRIDFORMAT_END
 95
        8
302
GRIDFORMAT
  1
GRIDFORMAT_BEGIN
 90
        0
 91
        1
 62
     0
 92
       -2
340
0
 93
        0
 40
0.045
309
GRIDFORMAT_END
 95
       16
302
GRIDFORMAT
  1
GRIDFORMAT_BEGIN
 90
        0
 91
        1
 62
     0
 92
       -2
340
0
 93
        0
 40
0.045
309
GRIDFORMAT_END
 95
       32
302
GRIDFORMAT
  1
GRIDFORMAT_BEGIN
 90
        0
 91
        1
 62
     0
 92
       -2
340
0
 93
        0
 40
0.045
309
GRIDFORMAT_END
309
TABLEFORMAT_END
  1
CELLSTYLE_BEGIN
 90
        3
 91
        2
300
_DATA
309
CELLSTYLE_END
  0
XRECORD
  5
BB
102
{ACAD_REACTORS
330
3C
102
}
330
3C
100
AcDbXrecord
280
     1
102
ACAD_ROUNDTRIP_PRE2007_TABLESTYLE
 90
      512
 91
        0
  1

 92
      512
 93
        0
  2

 94
      512
 95
        0
  3

  0
XRECORD
  5
BA
102
{ACAD_REACTORS
330
B9
102
}
330
B9
100
AcDbXrecord
280
     1
102
RTVSPost2010Prop28
280
     1
102
RTVSPost2010PropOp28
 70
     1
102
RTVSPost2010Prop29
280
     1
102
RTVSPost2010PropOp29
 70
     1
102
RTVSPost2010Prop30
280
     0
102
RTVSPost2010PropOp30
 70
     1
102
RTVSPost2010Prop31
280
     0
102
RTVSPost2010PropOp31
 70
     1
102
RTVSPost2010Prop32
280
     0
102
RTVSPost2010PropOp32
 70
     1
102
RTVSPost2010Prop33
280
     0
102
RTVSPost2010PropOp33
 70
     1
102
RTVSPost2010Prop34
280
     0
102
RTVSPost2010PropOp34
 70
     1
102
RTVSPost2010Prop35
280
     0
102
RTVSPost2010PropOp35
 70
     1
102
RTVSPost2010Prop36
280
     0
102
RTVSPost2010PropOp36
 70
     1
102
RTVSPost2010Prop37
 90
       50
102
RTVSPost2010PropOp37
 70
     1
102
RTVSPost2010Prop38
140
0.0
102
RTVSPost2010PropOp38
 70
     1
102
RTVSPost2010Prop39
140
1.0
102
RTVSPost2010PropOp39
 70
     1
102
RTVSPost2010Prop40
 90
        0
102
RTVSPost2010PropOp40
 70
     1
102
RTVSPost2010Prop41ColorIndex
 90
       18
102
RTVSPost2010Prop41ColorRGB
 90
        0
102
RTVSPost2010PropOp41
 70
     1
102
RTVSPost2010Prop42
 90
       50
102
RTVSPost2010PropOp42
 70
     1
102
RTVSPost2010Prop43
 90
        3
102
RTVSPost2010PropOp43
 70
     1
102
RTVSPost2010Prop44ColorIndex
 90
        5
102
RTVSPost2010Prop44ColorRGB
 90
      255
102
RTVSPost2010PropOp44
 70
     1
102
RTVSPost2010Prop45
280
     0
102
RTVSPost2010PropOp45
 70
     1
102
RTVSPost2010Prop46
 90
       50
102
RTVSPost2010PropOp46
 70
     1
102
RTVSPost2010Prop47
 90
       50
102
RTVSPost2010PropOp47
 70
     1
102
RTVSPost2010Prop48
 90
       50
102
RTVSPost2010PropOp48
 70
     1
102
RTVSPost2010Prop49
280
     0
102
RTVSPost2010PropOp49
 70
     1
102
RTVSPost2010Prop50
 90
       50
102
RTVSPost2010PropOp50
 70
     1
102
RTVSPost2010Prop51ColorIndex
 90
      256
102
RTVSPost2010Prop51ColorRGB
 90
-16777216
102
RTVSPost2010PropOp51
 70
     0
102
RTVSPost2010Prop52
140
1.0
102
RTVSPost2010PropOp52
 70
     0
102
RTVSPost2010Prop53
 90
        2
102
RTVSPost2010PropOp53
 70
     1
102
RTVSPost2010Prop54
  1
strokes_ogs.tif
102
RTVSPost2010PropOp54
 70
     1
102
RTVSPost2010Prop55
280
     0
102
RTVSPost2010PropOp55
 70
     1
102
RTVSPost2010Prop56
140
1.0
102
RTVSPost2010PropOp56
 70
     1
102
RTVSPost2010Prop57
140
1.0
102
RTVSPost2010PropOp57
 70
     1
102
RTVSPropertyOp0
 70
     1
102
RTVSPropertyOp1
 70
     1
102
RTVSPropertyOp2
 70
     1
102
RTVSPropertyOp3
 70
     1
102
RTVSPropertyOp4
 70
     1
102
RTVSPropertyOp5
 70
     1
102
RTVSPropertyOp6
 70
     1
102
RTVSPropertyOp7
 70
     1
102
RTVSPropertyOp8
 70
     1
102
RTVSPropertyOp9
 70
     1
102
RTVSPropertyOp10
 70
     1
102
RTVSPropertyOp11
 70
     1
102
RTVSPropertyOp12
 70
     1
102
RTVSPropertyOp13
 70
     1
102
RTVSPropertyOp14
 70
     1
102
RTVSPropertyOp15
 70
     1
102
RTVSPropertyOp16
 70
     1
102
RTVSPropertyOp17
 70
     1
102
RTVSPropertyOp18
 70
     1
102
RTVSPropertyOp19
 70
     1
102
RTVSPropertyOp20
 70
     1
102
RTVSPropertyOp21
 70
     1
102
RTVSPropertyOp22
 70
     1
102
RTVSPropertyOp23
 70
     1
102
RTVSPropertyOp24
 70
     1
102
RTVSPropertyOp25
 70
     1
102
RTVSPropertyOp26
 70
     1
102
RTVSPropertyOp27
 70
     1
102
RTVSPropertyOp28
 70
     1
102
RTVSPropertyOp29
 70
     1
102
RTVSPropertyOp30
 70
     1
102
RTVSPropertyOp31
 70
     1
102
RTVSPropertyOp32
 70
     1
102
RTVSPropertyOp33
 70
     1
102
RTVSPropertyOp34
 70
     1
102
RTVSPropertyOp35
 70
     1
102
RTVSPropertyOp36
 70
     1
102
RTVSPropertyOp37
 70
     1
102
RTVSPropertyOp38
 70
     1
102
RTVSPropertyOp39
 70
     1
102
RTVSPropertyOp40
 70
     1
102
RTVSPropertyOp41
 70
     1
102
RTVSPropertyOp42
 70
     1
102
RTVSPropertyOp43
 70
     1
102
RTVSPropertyOp44
 70
     1
102
RTVSPropertyOp45
 70
     1
102
RTVSPropertyOp46
 70
     1
102
RTVSPropertyOp47
 70
     1
102
RTVSPropertyOp48
 70
     1
102
RTVSPropertyOp49
 70
     1
102
RTVSPropertyOp50
 70
     1
102
RTVSPropertyOp51
 70
     0
102
RTVSPropertyOp52
 70
     0
102
RTVSPropertyOp53
 70
     1
102
RTVSPropertyOp54
 70
     1
102
RTVSPropertyOp55
 70
     1
102
RTVSPropertyOp56
 70
     1
102
RTVSPropertyOp57
 70
     1
102
RTVSPropertyOp58
 70
     1
102
RTVSPropertyOp59
 70
     1
102
RTVSPropertyOp60
 70
     1
102
RTVSPropertyOp61
 70
     1
102
RTVSPropertyOp62
 70
     1
  0
XRECORD
  5
BD
102
{ACAD_REACTORS
330
BC
102
}
330
BC
100
AcDbXrecord
280
     1
102
RTVSPost2010Prop28
280
     0
102
RTVSPost2010PropOp28
 70
     1
102
RTVSPost2010Prop29
280
     1
102
RTVSPost2010PropOp29
 70
     1
102
RTVSPost2010Prop30
280
     1
102
RTVSPost2010PropOp30
 70
     1
102
RTVSPost2010Prop31
280
     0
102
RTVSPost2010PropOp31
 70
     1
102
RTVSPost2010Prop32
280
     0
102
RTVSPost2010PropOp32
 70
     1
102
RTVSPost2010Prop33
280
     0
102
RTVSPost2010PropOp33
 70
     1
102
RTVSPost2010Prop34
280
     0
102
RTVSPost2010PropOp34
 70
     1
102
RTVSPost2010Prop35
280
     0
102
RTVSPost2010PropOp35
 70
     1
102
RTVSPost2010Prop36
280
     0
102
RTVSPost2010PropOp36
 70
     1
102
RTVSPost2010Prop37
 90
       50
102
RTVSPost2010PropOp37
 70
     1
102
RTVSPost2010Prop38
140
0.0
102
RTVSPost2010PropOp38
 70
     1
102
RTVSPost2010Prop39
140
1.0
102
RTVSPost2010PropOp39
 70
     1
102
RTVSPost2010Prop40
 90
        0
102
RTVSPost2010PropOp40
 70
     1
102
RTVSPost2010Prop41ColorIndex
 90
       18
102
RTVSPost2010Prop41ColorRGB
 90
        0
102
RTVSPost2010PropOp41
 70
     1
102
RTVSPost2010Prop42
 90
       50
102
RTVSPost2010PropOp42
 70
     1
102
RTVSPost2010Prop43
 90
        3
102
RTVSPost2010PropOp43
 70
     1
102
RTVSPost2010Prop44ColorIndex
 90
        5
102
RTVSPost2010Prop44ColorRGB
 90
      255
102
RTVSPost2010PropOp44
 70
     1
102
RTVSPost2010Prop45
280
     0
102
RTVSPost2010PropOp45
 70
     1
102
RTVSPost2010Prop46
 90
       50
102
RTVSPost2010PropOp46
 70
     1
102
RTVSPost2010Prop47
 90
       50
102
RTVSPost2010PropOp47
 70
     1
102
RTVSPost2010Prop48
 90
       50
102
RTVSPost2010PropOp48
 70
     1
102
RTVSPost2010Prop49
280
     0
102
RTVSPost2010PropOp49
 70
     1
102
RTVSPost2010Prop50
 90
       50
102
RTVSPost2010PropOp50
 70
     1
102
RTVSPost2010Prop51ColorIndex
 90
      256
102
RTVSPost2010Prop51ColorRGB
 90
-16777216
102
RTVSPost2010PropOp51
 70
     0
102
RTVSPost2010Prop52
140
1.0
102
RTVSPost2010PropOp52
 70
     0
102
RTVSPost2010Prop53
 90
        2
102
RTVSPost2010PropOp53
 70
     1
102
RTVSPost2010Prop54
  1
strokes_ogs.tif
102
RTVSPost2010PropOp54
 70
     1
102
RTVSPost2010Prop55
280
     0
102
RTVSPost2010PropOp55
 70
     1
102
RTVSPost2010Prop56
140
1.0
102
RTVSPost2010PropOp56
 70
     1
102
RTVSPost2010Prop57
140
1.0
102
RTVSPost2010PropOp57
 70
     1
102
RTVSPropertyOp0
 70
     1
102
RTVSPropertyOp1
 70
     1
102
RTVSPropertyOp2
 70
     1
102
RTVSPropertyOp3
 70
     1
102
RTVSPropertyOp4
 70
     1
102
RTVSPropertyOp5
 70
     1
102
RTVSPropertyOp6
 70
     1
102
RTVSPropertyOp7
 70
     1
102
RTVSPropertyOp8
 70
     1
102
RTVSPropertyOp9
 70
     1
102
RTVSPropertyOp10
 70
     1
102
RTVSPropertyOp11
 70
     1
102
RTVSPropertyOp12
 70
     1
102
RTVSPropertyOp13
 70
     1
102
RTVSPropertyOp14
 70
     1
102
RTVSPropertyOp15
 70
     1
102
RTVSPropertyOp16
 70
     1
102
RTVSPropertyOp17
 70
     1
102
RTVSPropertyOp18
 70
     1
102
RTVSPropertyOp19
 70
     1
102
RTVSPropertyOp20
 70
     1
102
RTVSPropertyOp21
 70
     1
102
RTVSPropertyOp22
 70
     1
102
RTVSPropertyOp23
 70
     1
102
RTVSPropertyOp24
 70
     1
102
RTVSPropertyOp25
 70
     1
102
RTVSPropertyOp26
 70
     1
102
RTVSPropertyOp27
 70
     1
102
RTVSPropertyOp28
 70
     1
102
RTVSPropertyOp29
 70
     1
102
RTVSPropertyOp30
 70
     1
102
RTVSPropertyOp31
 70
     1
102
RTVSPropertyOp32
 70
     1
102
RTVSPropertyOp33
 70
     1
102
RTVSPropertyOp34
 70
     1
102
RTVSPropertyOp35
 70
     1
102
RTVSPropertyOp36
 70
     1
102
RTVSPropertyOp37
 70
     1
102
RTVSPropertyOp38
 70
     1
102
RTVSPropertyOp39
 70
     1
102
RTVSPropertyOp40
 70
     1
102
RTVSPropertyOp41
 70
     1
102
RTVSPropertyOp42
 70
     1
102
RTVSPropertyOp43
 70
     1
102
RTVSPropertyOp44
 70
     1
102
RTVSPropertyOp45
 70
     1
102
RTVSPropertyOp46
 70
     1
102
RTVSPropertyOp47
 70
     1
102
RTVSPropertyOp48
 70
     1
102
RTVSPropertyOp49
 70
     1
102
RTVSPropertyOp50
 70
     1
102
RTVSPropertyOp51
 70
     0
102
RTVSPropertyOp52
 70
     0
102
RTVSPropertyOp53
 70
     1
102
RTVSPropertyOp54
 70
     1
102
RTVSPropertyOp55
 70
     1
102
RTVSPropertyOp56
 70
     1
102
RTVSPropertyOp57
 70
     1
102
RTVSPropertyOp58
 70
     1
102
RTVSPropertyOp59
 70
     1
102
RTVSPropertyOp60
 70
     1
102
RTVSPropertyOp61
 70
     1
102
RTVSPropertyOp62
 70
     1
  0
XRECORD
  5
BF
102
{ACAD_REACTORS
330
BE
102
}
330
BE
100
AcDbXrecord
280
     1
102
RTVSPost2010Prop28
280
     0
102
RTVSPost2010PropOp28
 70
     1
102
RTVSPost2010Prop29
280
     1
102
RTVSPost2010PropOp29
 70
     1
102
RTVSPost2010Prop30
280
     1
102
RTVSPost2010PropOp30
 70
     1
102
RTVSPost2010Prop31
280
     0
102
RTVSPost2010PropOp31
 70
     1
102
RTVSPost2010Prop32
280
     0
102
RTVSPost2010PropOp32
 70
     1
102
RTVSPost2010Prop33
280
     0
102
RTVSPost2010PropOp33
 70
     1
102
RTVSPost2010Prop34
280
     0
102
RTVSPost2010PropOp34
 70
     1
102
RTVSPost2010Prop35
280
     0
102
RTVSPost2010PropOp35
 70
     1
102
RTVSPost2010Prop36
280
     0
102
RTVSPost2010PropOp36
 70
     1
102
RTVSPost2010Prop37
 90
       50
102
RTVSPost2010PropOp37
 70
     1
102
RTVSPost2010Prop38
140
0.0
102
RTVSPost2010PropOp38
 70
     1
102
RTVSPost2010Prop39
140
1.0
102
RTVSPost2010PropOp39
 70
     1
102
RTVSPost2010Prop40
 90
        0
102
RTVSPost2010PropOp40
 70
     1
102
RTVSPost2010Prop41ColorIndex
 90
       18
102
RTVSPost2010Prop41ColorRGB
 90
        0
102
RTVSPost2010PropOp41
 70
     1
102
RTVSPost2010Prop42
 90
       50
102
RTVSPost2010PropOp42
 70
     1
102
RTVSPost2010Prop43
 90
        3
102
RTVSPost2010PropOp43
 70
     1
102
RTVSPost2010Prop44ColorIndex
 90
        5
102
RTVSPost2010Prop44ColorRGB
 90
      255
102
RTVSPost2010PropOp44
 70
     1
102
RTVSPost2010Prop45
280
     0
102
RTVSPost2010PropOp45
 70
     1
102
RTVSPost2010Prop46
 90
       50
102
RTVSPost2010PropOp46
 70
     1
102
RTVSPost2010Prop47
 90
       50
102
RTVSPost2010PropOp47
 70
     1
102
RTVSPost2010Prop48
 90
       50
102
RTVSPost2010PropOp48
 70
     1
102
RTVSPost2010Prop49
280
     0
102
RTVSPost2010PropOp49
 70
     1
102
RTVSPost2010Prop50
 90
       50
102
RTVSPost2010PropOp50
 70
     1
102
RTVSPost2010Prop51ColorIndex
 90
      256
102
RTVSPost2010Prop51ColorRGB
 90
-16777216
102
RTVSPost2010PropOp51
 70
     0
102
RTVSPost2010Prop52
140
1.0
102
RTVSPost2010PropOp52
 70
     0
102
RTVSPost2010Prop53
 90
        2
102
RTVSPost2010PropOp53
 70
     1
102
RTVSPost2010Prop54
  1
strokes_ogs.tif
102
RTVSPost2010PropOp54
 70
     1
102
RTVSPost2010Prop55
280
     0
102
RTVSPost2010PropOp55
 70
     1
102
RTVSPost2010Prop56
140
1.0
102
RTVSPost2010PropOp56
 70
     1
102
RTVSPost2010Prop57
140
1.0
102
RTVSPost2010PropOp57
 70
     1
102
RTVSPropertyOp0
 70
     1
102
RTVSPropertyOp1
 70
     1
102
RTVSPropertyOp2
 70
     1
102
RTVSPropertyOp3
 70
     1
102
RTVSPropertyOp4
 70
     1
102
RTVSPropertyOp5
 70
     1
102
RTVSPropertyOp6
 70
     1
102
RTVSPropertyOp7
 70
     1
102
RTVSPropertyOp8
 70
     1
102
RTVSPropertyOp9
 70
     1
102
RTVSPropertyOp10
 70
     1
102
RTVSPropertyOp11
 70
     1
102
RTVSPropertyOp12
 70
     1
102
RTVSPropertyOp13
 70
     1
102
RTVSPropertyOp14
 70
     1
102
RTVSPropertyOp15
 70
     1
102
RTVSPropertyOp16
 70
     1
102
RTVSPropertyOp17
 70
     1
102
RTVSPropertyOp18
 70
     1
102
RTVSPropertyOp19
 70
     1
102
RTVSPropertyOp20
 70
     1
102
RTVSPropertyOp21
 70
     1
102
RTVSPropertyOp22
 70
     1
102
RTVSPropertyOp23
 70
     1
102
RTVSPropertyOp24
 70
     1
102
RTVSPropertyOp25
 70
     1
102
RTVSPropertyOp26
 70
     1
102
RTVSPropertyOp27
 70
     1
102
RTVSPropertyOp28
 70
     1
102
RTVSPropertyOp29
 70
     1
102
RTVSPropertyOp30
 70
     1
102
RTVSPropertyOp31
 70
     1
102
RTVSPropertyOp32
 70
     1
102
RTVSPropertyOp33
 70
     1
102
RTVSPropertyOp34
 70
     1
102
RTVSPropertyOp35
 70
     1
102
RTVSPropertyOp36
 70
     1
102
RTVSPropertyOp37
 70
     1
102
RTVSPropertyOp38
 70
     1
102
RTVSPropertyOp39
 70
     1
102
RTVSPropertyOp40
 70
     1
102
RTVSPropertyOp41
 70
     1
102
RTVSPropertyOp42
 70
     1
102
RTVSPropertyOp43
 70
     1
102
RTVSPropertyOp44
 70
     1
102
RTVSPropertyOp45
 70
     1
102
RTVSPropertyOp46
 70
     1
102
RTVSPropertyOp47
 70
     1
102
RTVSPropertyOp48
 70
     1
102
RTVSPropertyOp49
 70
     1
102
RTVSPropertyOp50
 70
     1
102
RTVSPropertyOp51
 70
     0
102
RTVSPropertyOp52
 70
     0
102
RTVSPropertyOp53
 70
     1
102
RTVSPropertyOp54
 70
     1
102
RTVSPropertyOp55
 70
     1
102
RTVSPropertyOp56
 70
     1
102
RTVSPropertyOp57
 70
     1
102
RTVSPropertyOp58
 70
     1
102
RTVSPropertyOp59
 70
     1
102
RTVSPropertyOp60
 70
     1
102
RTVSPropertyOp61
 70
     1
102
RTVSPropertyOp62
 70
     1
  0
ENDSEC
  0
EOF
